<svg width="40" height="40" viewBox="0 0 40 40" fill="none" xmlns="http://www.w3.org/2000/svg">
<path d="M8.30728 4.21875H4.02782C1.80688 4.21875 0 6.02563 0 8.24649V29.2535C0 30.8159 0.916095 32.2505 2.33368 32.9085C2.44008 32.9579 2.55196 32.9813 2.66204 32.9813C2.95672 32.9813 3.23899 32.8137 3.37118 32.5288C3.55282 32.1374 3.38282 31.6729 2.99149 31.4913C2.12344 31.0883 1.5625 30.21 1.5625 29.2534V8.24649C1.5625 6.88711 2.66844 5.78117 4.02782 5.78117H8.30728C8.73869 5.78117 9.08853 5.43133 9.08853 4.99992C9.08853 4.56852 8.73869 4.21875 8.30728 4.21875Z" fill="#2D3C58"/>
<path d="M35.9723 4.21876H29.2787C29.223 1.88313 27.3071 0 24.9585 0H15.0417C12.658 0 10.7188 1.93922 10.7188 4.3229V8.80213H5.36466C4.93326 8.80213 4.58341 9.15197 4.58341 9.58338C4.58341 10.0148 4.93326 10.3646 5.36466 10.3646H10.7188V12.8646H5.36466C4.93326 12.8646 4.58341 13.2145 4.58341 13.6459C4.58341 14.0773 4.93326 14.4271 5.36466 14.4271H10.7188V16.9271H5.36466C4.93326 16.9271 4.58341 17.277 4.58341 17.7084C4.58341 18.1398 4.93326 18.4896 5.36466 18.4896H10.7188V20.9897H5.36466C4.93326 20.9897 4.58341 21.3395 4.58341 21.7709C4.58341 22.2023 4.93326 22.5522 5.36466 22.5522H10.7188V26.7797C8.46209 27.0178 6.69764 28.9309 6.69764 31.2484C6.69764 31.3707 6.70271 31.4933 6.71287 31.6158C5.33217 32.4112 4.46912 33.8787 4.46912 35.5059C4.46912 37.984 6.48623 40 8.96561 40H29.5652C32.8546 40 35.5309 37.3253 35.5309 34.0376C35.5309 30.7498 32.8546 28.0751 29.5652 28.0751C29.2355 28.0751 28.9082 28.1019 28.586 28.1551C27.8631 25.8465 26.1835 23.8998 23.9749 22.855C23.5847 22.6704 23.1192 22.8372 22.9346 23.2272C22.7502 23.6172 22.9167 24.083 23.3068 24.2675C25.1185 25.1246 26.4964 26.7199 27.0912 28.6118C26.5717 28.8491 26.0847 29.161 25.6532 29.5358C25.1219 29.9974 24.6803 30.543 24.3406 31.1572C24.1319 31.5348 24.2688 32.0101 24.6463 32.219C24.7662 32.2852 24.8958 32.3166 25.0237 32.3166C25.2988 32.3166 25.5656 32.171 25.7081 31.9133C25.9589 31.4596 26.2853 31.0566 26.6779 30.7155C27.1792 30.2801 27.781 29.9594 28.4183 29.7882C28.7903 29.6883 29.1753 29.6376 29.5652 29.6376C31.9932 29.6376 33.9684 31.6115 33.9684 34.0376C33.9684 36.4637 31.9932 38.4376 29.5653 38.4376H8.96569C7.34787 38.4376 6.0317 37.1225 6.0317 35.506C6.0317 34.3067 6.75076 33.2402 7.86373 32.7891C8.21787 32.6454 8.41616 32.2666 8.3324 31.8937C8.28451 31.6805 8.26014 31.4633 8.26014 31.2485C8.26014 29.632 9.57631 28.3169 11.1941 28.3169C11.6408 28.3169 12.0694 28.4144 12.468 28.6069C12.6648 28.7018 12.8922 28.7099 13.0951 28.6296C13.2983 28.5492 13.4583 28.3874 13.5367 28.1836C14.2184 26.4111 15.6073 24.9547 17.3475 24.1879C17.7423 24.014 17.9214 23.5529 17.7474 23.1579C17.5734 22.7632 17.1125 22.584 16.7174 22.758C14.8359 23.587 13.2914 25.0786 12.3881 26.9142C12.3526 26.9044 12.3169 26.8956 12.2812 26.8867V4.3229C12.2813 2.80086 13.5197 1.5625 15.0417 1.5625H24.9585C26.4805 1.5625 27.7188 2.80086 27.7188 4.3229V23.5166C27.7188 23.948 28.0687 24.2979 28.5001 24.2979C28.9315 24.2979 29.2813 23.948 29.2813 23.5166V22.5522H34.6355C35.0669 22.5522 35.4168 22.2023 35.4168 21.7709C35.4168 21.3395 35.0669 20.9897 34.6355 20.9897H29.2813V18.4896H34.6355C35.0669 18.4896 35.4168 18.1398 35.4168 17.7084C35.4168 17.277 35.0669 16.9271 34.6355 16.9271H29.2813V14.4271H34.6355C35.0669 14.4271 35.4168 14.0773 35.4168 13.6459C35.4168 13.2145 35.0669 12.8646 34.6355 12.8646H29.2813V10.3646H34.6355C35.0669 10.3646 35.4168 10.0148 35.4168 9.58338C35.4168 9.15197 35.0669 8.80213 34.6355 8.80213H29.2813V5.78126H35.9724C37.3317 5.78126 38.4376 6.8872 38.4376 8.24658V29.2536C38.4376 29.8555 38.2184 30.4349 37.8204 30.8853C37.5347 31.2086 37.5651 31.7023 37.8885 31.988C38.0371 32.1194 38.2217 32.1839 38.4055 32.1839C38.6217 32.1839 38.8368 32.0947 38.9912 31.92C39.6418 31.1838 40.0001 30.2369 40.0001 29.2536V8.2465C40.0001 6.02564 38.1932 4.21876 35.9723 4.21876Z" fill="#2D3C58"/>
<path d="M23.4376 5H16.5626C16.1312 5 15.7814 5.34984 15.7814 5.78125C15.7814 6.21266 16.1312 6.5625 16.5626 6.5625H23.4376C23.869 6.5625 24.2189 6.21266 24.2189 5.78125C24.2189 5.34977 23.869 5 23.4376 5Z" fill="#2D3C58"/>
<path d="M23.4376 13.125H16.5626C16.1312 13.125 15.7814 13.4748 15.7814 13.9063C15.7814 14.3377 16.1312 14.6875 16.5626 14.6875H23.4376C23.869 14.6875 24.2189 14.3377 24.2189 13.9063C24.2189 13.4748 23.869 13.125 23.4376 13.125Z" fill="#2D3C58"/>
<path d="M23.4376 9.0625H16.5626C16.1312 9.0625 15.7814 9.41234 15.7814 9.84375C15.7814 10.2752 16.1312 10.625 16.5626 10.625H23.4376C23.869 10.625 24.2189 10.2752 24.2189 9.84375C24.2189 9.41227 23.869 9.0625 23.4376 9.0625Z" fill="#2D3C58"/>
<path d="M23.4376 17.1875H16.5626C16.1312 17.1875 15.7814 17.5373 15.7814 17.9688C15.7814 18.4002 16.1312 18.75 16.5626 18.75H23.4376C23.869 18.75 24.2189 18.4002 24.2189 17.9688C24.2189 17.5373 23.869 17.1875 23.4376 17.1875Z" fill="#2D3C58"/>
<path d="M20.269 22.0192C20.2613 22.0192 20.2534 22.0192 20.2457 22.0194L20.2399 22.0192C19.8085 22.0192 19.4586 22.3691 19.4586 22.8005C19.4586 23.2319 19.8085 23.5817 20.2399 23.5817C20.2436 23.5817 20.2474 23.5817 20.251 23.5817L20.2593 23.5817C20.261 23.5817 20.2626 23.5817 20.2642 23.5817C20.6934 23.5817 21.0427 23.2352 21.0454 22.8053C21.0481 22.3739 20.7006 22.022 20.269 22.0192Z" fill="#2D3C58"/>
<path d="M24.0909 33.8158C23.6595 33.8158 23.3097 34.1656 23.3097 34.597V34.6092C23.3097 35.0406 23.6595 35.3905 24.0909 35.3905C24.5224 35.3905 24.8722 35.0406 24.8722 34.6092V34.597C24.8722 34.1656 24.5224 33.8158 24.0909 33.8158Z" fill="#2D3C58"/>
<path d="M8.55194 24.3461C7.33295 24.3461 6.34131 25.3377 6.34131 26.5567C6.34131 26.9881 6.69115 27.338 7.12256 27.338C7.55397 27.338 7.90381 26.9881 7.90381 26.5567C7.90381 26.1994 8.19459 25.9086 8.55194 25.9086C8.98334 25.9086 9.33319 25.5587 9.33319 25.1273C9.33319 24.6958 8.98334 24.3461 8.55194 24.3461Z" fill="#2D3C58"/>
<path d="M31.4152 24.3461C30.9838 24.3461 30.6339 24.6958 30.6339 25.1273C30.6339 25.5587 30.9838 25.9086 31.4152 25.9086C31.7725 25.9086 32.0633 26.1994 32.0633 26.5567C32.0633 26.9881 32.4131 27.338 32.8445 27.338C33.2759 27.338 33.6258 26.9881 33.6258 26.5567C33.6258 25.3377 32.6341 24.3461 31.4152 24.3461Z" fill="#2D3C58"/>
</svg>
