<svg width="42" height="43" viewBox="0 0 42 43" fill="none" xmlns="http://www.w3.org/2000/svg">
<path d="M15.7527 7.05985H25.0278C25.6863 7.05985 25.6867 6.06421 25.0278 6.06421H15.7527C15.0942 6.06421 15.0938 7.05985 15.7527 7.05985Z" fill="#2D3C58"/>
<path d="M15.5303 10.0716H23.229C23.8875 10.0716 23.8879 9.07593 23.229 9.07593H15.5303C15.2555 9.07593 15.0325 9.29891 15.0325 9.57375C15.0325 9.84859 15.2555 10.0716 15.5303 10.0716Z" fill="#2D3C58"/>
<path d="M17.2013 20.8633H23.5575C23.8324 20.8633 24.0554 20.6403 24.0554 20.3655C24.0554 20.0907 23.8324 19.8677 23.5575 19.8677H17.2013C16.5428 19.8677 16.5424 20.8633 17.2013 20.8633Z" fill="#2D3C58"/>
<path d="M22.1049 23.3813H17.3685C16.71 23.3813 16.7096 24.377 17.3685 24.377H22.1049C22.3798 24.377 22.6027 24.154 22.6027 23.8792C22.6027 23.6043 22.3798 23.3813 22.1049 23.3813Z" fill="#2D3C58"/>
<path d="M5.42553 23.7781C6.73775 23.7781 7.72068 22.4521 6.94168 21.3202C6.38854 20.5167 5.30152 20.3817 4.55435 20.9961C4.41304 21.0327 4.28923 21.1306 4.22506 21.2738C4.10644 21.5373 3.97161 21.8361 3.93078 22.1784C3.81687 23.1072 4.47466 23.7781 5.42553 23.7781ZM5.18505 21.7664C5.48884 21.516 5.90076 21.5655 6.1217 21.8847C6.66044 22.6693 4.84666 23.21 4.91604 22.3297C5.11671 22.0764 4.91095 21.9919 5.18505 21.7664Z" fill="#2D3C58"/>
<path d="M10.9417 23.7281C12.2539 23.7281 13.2368 22.402 12.4578 21.2701C11.9028 20.4639 10.8153 20.3337 10.0705 20.946C9.92919 20.9823 9.80538 21.0805 9.74056 21.2238C9.411 21.9576 9.235 22.6969 9.79955 23.2831C10.0888 23.5851 10.5239 23.7281 10.9417 23.7281ZM10.7012 21.7164C11.1922 21.3115 11.8185 21.768 11.7299 22.2012C11.6099 22.7849 10.3755 22.9987 10.4322 22.2797C10.632 22.0274 10.4279 21.9421 10.7012 21.7164Z" fill="#2D3C58"/>
<path d="M6.57607 8.44701C6.84485 7.14119 5.18435 5.96996 3.94113 6.99212C3.79982 7.02874 3.67537 7.12694 3.61119 7.27084C2.27372 10.2655 6.16271 10.4593 6.57607 8.44701ZM4.57183 7.7625C5.07769 7.34428 5.68387 7.83354 5.60117 8.24704C5.47845 8.84399 4.24999 9.03725 4.30283 8.32579C4.50349 8.07242 4.29773 7.98797 4.57183 7.7625Z" fill="#2D3C58"/>
<path d="M12.0922 8.39671C12.361 7.09089 10.7005 5.91967 9.45725 6.94182C9.31594 6.97845 9.19149 7.07665 9.12731 7.22055C7.7921 10.2138 11.679 10.4084 12.0922 8.39671ZM10.0879 7.71221C10.3882 7.46395 10.8013 7.50825 11.0246 7.83018C11.567 8.6222 9.75348 9.15712 9.81895 8.2755C9.88312 8.19447 9.81461 7.93793 10.0879 7.71221Z" fill="#2D3C58"/>
<path d="M40.6345 31.7858C40.5709 31.6019 40.4096 31.4687 40.1607 31.449C39.6239 31.4071 39.0826 31.4257 38.5469 31.4821L38.119 30.6343C38.3546 30.224 38.9221 28.9748 38.8438 28.6045C38.8446 28.4587 38.7892 28.314 38.6672 28.2148C38.1646 27.807 37.0993 26.9763 36.4822 26.7894C36.2999 26.706 36.079 26.7353 35.9279 26.8831C35.4907 27.3109 35.1055 27.7871 34.7562 28.2867C34.2542 28.0412 33.7701 27.8783 33.2773 27.7883L32.8982 26.2012C32.834 25.9338 32.565 25.7685 32.298 25.8327C32.2696 25.8394 32.2478 25.8568 32.2218 25.868C29.8459 26.4179 30.1251 26.3121 29.9501 26.4055C29.9138 26.4226 29.9203 26.4109 29.8513 26.4735C29.4959 26.7651 29.7515 27.0991 29.815 28.502C29.3927 28.8609 29.0872 29.1096 28.6445 29.483L27.1052 28.2884C26.8901 28.121 26.5536 28.1434 26.3821 28.4254C25.8873 28.9184 25.5058 29.4625 25.1763 29.9827C24.1901 30.0037 17.0136 29.9731 16.9466 29.9727C16.7169 29.6607 16.4044 29.3829 16.0262 29.18L16.0309 27.0051L26.4791 27.0037C27.6056 27.0037 28.5254 26.1672 28.53 25.1388C28.4004 18.8324 28.9542 18.1483 28.0289 17.2187C27.6413 16.8288 27.0877 16.6052 26.5095 16.6052H16.0465L16.0512 14.0733L26.3805 14.0717C27.5065 14.0717 28.4269 13.2112 28.4321 12.1533C28.2968 5.62769 28.8716 4.88005 27.9103 3.91437C27.524 3.52642 26.9775 3.30376 26.4117 3.30376H16.0663C16.0283 1.54116 16.2274 1.10658 15.7552 0.515198C15.4571 0.142374 14.9767 -0.0748732 14.4184 0.0237395C14.4187 0.023537 14.4189 0.0232128 14.4192 0.0230103C14.4187 0.0233344 14.4182 0.0235369 14.4177 0.023861C14.0003 0.0977756 13.7345 0.292573 13.5286 0.53112C12.5432 1.13837 12.443 2.13052 12.464 3.30376C10.1214 3.30618 3.03281 3.29366 2.66979 3.31673C2.67712 3.31559 2.68332 3.31126 2.69069 3.31025C0.455925 3.24087 -0.0363785 4.26141 0.0020307 6.43568C0.0305516 8.05286 0.059113 9.67004 0.0876339 11.2872C0.101287 12.0601 0.142529 12.9072 0.65554 13.4786C1.21069 14.0971 2.12639 14.182 2.9507 14.1981C4.43112 14.2271 5.91072 14.1646 7.38923 14.0746L12.4376 14.0738V16.6052C8.99444 16.6099 3.04245 16.5888 2.67724 16.6262C1.72605 16.611 0.801467 16.763 0.35996 17.7495C0.0945211 18.3427 0.101692 19.0147 0.11344 19.6629C0.142002 21.2337 0.170523 22.8045 0.199084 24.3753C0.2565 27.5323 1.49287 27.4956 8.73623 27.0061L12.549 27.0056V29.5768C12.4269 29.6966 12.3165 29.8336 12.2229 29.9703C2.71616 29.9498 2.52535 29.9022 1.60491 30.2977C0.992849 30.3031 0.45322 30.9502 0.495191 31.5869C0.541659 32.2923 1.11775 32.8738 1.77223 33.1412C2.65567 33.5021 2.80306 33.4178 12.6671 33.5702C13.7299 34.433 15.1618 34.4209 16.1866 33.4113C16.3786 33.3018 16.553 33.1728 16.7084 33.0217C21.0481 33.023 22.7682 33.0586 26.3852 33.0044L26.2687 33.6826C25.6157 33.9155 24.684 34.1623 24.3296 34.326C24.3284 34.3266 24.3274 34.3274 24.3262 34.3281C24.0963 34.4363 23.9615 34.7082 24.0866 34.9789L24.3024 37.1879C24.3322 37.4911 24.6666 37.6898 24.9078 37.6679L26.6116 37.5201C27.1705 38.2416 26.9099 37.8826 27.4499 38.5776C26.9594 39.384 26.7493 39.7098 26.459 40.1998C26.4425 40.2662 26.2011 40.6001 26.5296 40.8804C27.2044 41.4576 27.9667 41.9117 28.7957 42.2303C29.029 42.3197 29.2858 42.1938 29.4058 42.0791C30.3142 42.1703 30.2957 42.0362 30.5357 41.6653C30.7368 41.3501 30.9481 41.0359 31.1533 40.7243C31.3688 40.7909 31.6848 40.8953 31.8094 40.9364L32.2941 42.6396C32.4118 43.054 32.8161 42.9974 33.0311 42.9974C33.829 42.9974 34.6011 42.8584 35.2253 42.6001C35.5891 42.4497 35.5155 42.1067 35.5311 42.0392C35.9782 41.5761 35.9022 41.8915 35.8334 40.1163C36.1193 39.919 36.4119 39.7339 36.7105 39.5811C38.1965 40.4409 38.2792 40.7175 38.7567 40.2489C38.7599 40.2439 38.7659 40.2422 38.769 40.237C38.7695 40.2362 38.7695 40.2352 38.77 40.2344C39.52 39.4951 40.082 38.638 40.1719 38.4156C40.269 38.2037 40.2061 37.9594 40.0214 37.8194C40.0414 37.1859 40.1021 37.4222 38.8014 36.3282C38.9783 36.0131 39.1237 35.6759 39.2092 35.3102C39.5602 35.2489 40.9705 34.957 41.195 34.6271C41.2498 34.5525 41.2792 34.4506 41.2858 34.3799C41.2867 34.364 40.8353 32.3618 40.6345 31.7858ZM16.1046 32.2359C15.6664 32.7409 14.8231 32.9551 14.1444 32.7334C13.4891 32.5192 13.012 31.8989 13.0334 31.2909C13.0598 30.5791 13.7723 29.8463 14.7362 29.8463C16.0102 29.8463 16.9721 31.2374 16.1046 32.2359ZM15.0312 28.868C14.7503 28.8382 14.451 28.8572 14.1399 28.9229V27.0054L15.0353 27.0052L15.0312 28.868ZM15.0509 16.6052H14.1399V14.0736L15.0555 14.0734L15.0509 16.6052ZM15.0716 3.30376H14.1398C14.1989 1.7096 13.9959 1.41297 14.3344 1.1203C14.4426 1.02663 14.5839 0.982228 14.7038 0.992275C15.2562 1.04593 15.0304 1.64682 15.0716 3.30376ZM15.5571 4.2994C15.5582 4.29962 15.5535 4.29859 15.5679 4.30135C15.5713 4.30135 15.5741 4.29948 15.5775 4.2994C26.3944 4.40894 26.6241 4.03509 27.2051 4.61702C27.6719 5.08739 27.3768 5.01165 27.4365 12.1485C27.4339 12.6599 26.96 13.0761 26.3805 13.0761C24.2769 13.0764 8.75284 13.0787 2.80607 13.0796C2.22399 13.0796 1.75015 12.6619 1.75015 12.1485V5.23055C1.75015 4.71717 2.22399 4.2994 2.80607 4.2994C3.65503 4.29956 16.3799 4.29974 15.5571 4.2994ZM27.3237 17.9211C27.4345 18.0325 27.5668 18.2205 27.5655 18.4814L27.5343 25.1342C27.5324 25.6162 27.0592 26.008 26.4791 26.008C20.3547 26.0089 8.60217 26.0105 2.9046 26.0113C2.32252 26.0113 1.84868 25.6178 1.84868 25.1342V18.4779C1.84868 17.9943 2.32252 17.6008 2.9046 17.6008C28.6829 17.6008 26.8676 17.4636 27.3237 17.9211ZM11.7904 30.9656C11.7095 31.3114 11.6917 31.6663 11.7496 32.0156L6.0419 32.0006C5.26686 31.9969 1.69306 32.1983 1.72293 31.4963C1.75464 30.8067 4.1185 30.951 11.7904 30.9656ZM17.3335 32.0277C17.439 31.6842 17.458 31.3251 17.3895 30.9684C24.5791 30.9896 22.7481 31.0138 24.7961 30.9827C24.8859 31.2494 24.9758 31.1966 25.9472 32.0143C22.3969 32.0559 21.6699 32.0326 17.3335 32.0277ZM28.8718 41.1791C28.3881 40.968 27.9325 40.7036 27.5112 40.3864C28.0159 39.5573 28.2037 39.2676 28.4969 38.7727C28.6292 38.5502 28.5626 38.2718 28.3582 38.1221C27.9629 37.5926 27.6975 37.3161 27.3097 36.7996C27.0615 36.2457 26.3083 36.6421 25.2487 36.6391L25.0988 35.1048C26.7104 34.5707 27.2345 34.5637 27.2192 34.0306C27.6047 31.501 27.9151 32.381 25.9008 30.702C26.1782 30.256 26.4899 29.7887 26.8676 29.3641L28.2716 30.4538C28.3383 30.5029 28.4113 30.6297 28.6499 30.6297C28.9062 30.6297 28.9379 30.5314 29.818 29.799C30.5579 29.184 30.9697 28.9738 30.8187 28.5379L30.6966 27.2315L32.048 26.9277C32.3835 27.9671 32.2373 28.666 32.8272 28.7184C32.8301 28.7188 32.8324 28.7207 32.8353 28.7211C34.0279 28.862 34.5584 29.4014 34.8739 29.4014C35.3752 29.4014 35.316 28.9861 36.3939 27.8469C36.9022 28.1146 37.3617 28.4478 37.8111 28.8061C37.331 30.4206 36.8196 30.4469 37.1416 30.9082C37.8019 32.0392 37.7043 32.4965 38.3347 32.4965C38.4798 32.4965 38.8927 32.3983 39.7986 32.4348C39.9423 32.8901 40.0823 33.4198 40.2168 34.0176C39.7261 34.1843 39.247 34.3108 38.7171 34.3828C38.4746 34.4157 38.3133 34.6163 38.2887 34.8579C38.2375 35.3655 37.9581 35.8335 37.6521 36.3083C37.4984 36.5466 37.5646 36.8958 37.8739 37.0302C38.3057 37.4137 38.7088 37.8308 39.086 38.2686C38.8373 38.651 38.5555 39.0084 38.2415 39.3394C36.6384 38.4849 37.0962 37.9957 34.8759 39.572L34.8534 39.5879C34.6572 39.6562 34.5147 39.838 34.5168 40.0572L34.5329 41.7852C34.1191 41.9123 33.6399 41.9839 33.146 41.9943C32.5401 39.8748 32.8657 40.2134 31.4988 39.7898C29.8698 39.2858 30.5437 39.1828 28.8718 41.1791Z" fill="#2D3C58"/>
<path d="M37.0397 35.5582C38.1643 31.5931 34.0495 28.4992 30.5187 30.4086C28.7764 31.3488 27.8268 33.5164 28.3097 35.4516C28.7926 37.369 30.6503 38.8343 32.6332 38.8599C34.7225 38.8599 36.5286 37.3806 37.0397 35.5582ZM36.0816 35.2873C36.0816 35.2876 36.0816 35.2883 36.081 35.2889C35.5756 37.0921 33.4619 38.424 31.4521 37.6114C28.4088 35.7611 29.3294 31.4656 32.2737 30.9269C33.3033 30.7384 34.589 31.1209 35.5807 32.2342C36.1763 33.0831 36.3832 34.2242 36.0816 35.2873Z" fill="#2D3C58"/>
<path d="M30.5641 3.18533C30.7715 2.45156 31.1254 1.74405 31.5869 1.1396C31.9861 0.617383 31.1977 0.0114305 30.7961 0.534829C30.251 1.24818 29.8504 2.04903 29.606 2.91438C29.4278 3.54761 30.384 3.81929 30.5641 3.18533Z" fill="#2D3C58"/>
<path d="M31.4644 4.97271C31.5988 4.97271 31.4997 4.97607 34.2063 4.17834C34.8396 3.99005 34.5508 3.03366 33.9224 3.22419L31.3224 3.99782C30.774 4.16087 30.8936 4.97271 31.4644 4.97271Z" fill="#2D3C58"/>
<path d="M31.4352 6.09861C30.7832 5.99562 30.6295 6.97953 31.2796 7.08193C32.6598 7.29993 33.1473 7.80694 33.4589 7.80694C33.9736 7.80694 34.1482 7.11907 33.6987 6.87256C32.9915 6.48429 32.2299 6.22403 31.4352 6.09861Z" fill="#2D3C58"/>
</svg>
