<svg width="108" height="37" viewBox="0 0 108 37" fill="none" xmlns="http://www.w3.org/2000/svg">
<path d="M101.819 36.3865H6.83495C3.45942 36.3865 0.716797 33.6502 0.716797 30.2824V6.09973C0.716797 2.73194 3.45942 -0.00439453 6.83495 -0.00439453H101.795C105.171 -0.00439453 107.913 2.73194 107.913 6.09973V30.259C107.937 33.6502 105.194 36.3865 101.819 36.3865Z" fill="#00B67A"/>
<path d="M32.8785 20.6429C34.2262 14.9485 30.6919 9.24227 24.9845 7.89766C19.277 6.55306 13.5577 10.0792 12.21 15.7736C10.8623 21.468 14.3966 27.1742 20.104 28.5188C25.8115 29.8635 31.5308 26.3373 32.8785 20.6429Z" fill="white"/>
<path d="M96.7318 12.0402H40.3324V15.4313H96.7318V12.0402Z" fill="white"/>
<path d="M56.4834 20.9741H40.3324V24.3653H56.4834V20.9741Z" fill="white"/>
<path d="M72.2123 20.9741H60.1636V24.3653H72.2123V20.9741Z" fill="white"/>
</svg>
