<svg width="67" height="67" viewBox="0 0 67 67" fill="none" xmlns="http://www.w3.org/2000/svg">
<path d="M49.8853 50.3188C58.9938 41.2312 58.9938 26.4973 49.8853 17.4097C40.7768 8.32205 26.0091 8.32205 16.9006 17.4097C7.79209 26.4973 7.79209 41.2312 16.9006 50.3188C26.0091 59.4065 40.7768 59.4065 49.8853 50.3188Z" fill="#71FFCC"/>
<path d="M33.3988 57.9221C20.1076 57.9221 9.30127 47.1171 9.30127 33.8564C9.30127 20.5957 20.1076 9.81409 33.3988 9.81409C46.6899 9.81409 57.4963 20.5957 57.4963 33.8564C57.5197 47.1171 46.6899 57.9221 33.3988 57.9221ZM33.3988 11.381C20.975 11.381 10.8484 21.4611 10.8484 33.8798C10.8484 46.2985 20.9515 56.3785 33.3988 56.3785C45.8226 56.3785 55.9492 46.2985 55.9492 33.8798C55.9492 21.4611 45.846 11.381 33.3988 11.381Z" fill="black"/>
<path d="M44.8616 35.0258C44.2052 35.0258 43.6895 34.5113 43.6895 33.8564C43.6895 28.1967 39.0716 23.5894 33.3989 23.5894C32.7425 23.5894 32.2268 23.0748 32.2268 22.42C32.2268 21.7651 32.7425 21.2506 33.3989 21.2506C40.3609 21.2506 46.0337 26.9104 46.0337 33.8564C46.0337 34.5113 45.5179 35.0258 44.8616 35.0258Z" fill="black"/>
<path d="M33.3989 46.4622C26.4369 46.4622 20.7642 40.8025 20.7642 33.8564C20.7642 33.2015 21.2799 32.687 21.9362 32.687C22.5926 32.687 23.1083 33.2015 23.1083 33.8564C23.1083 39.5162 27.7262 44.1235 33.3989 44.1235C34.0553 44.1235 34.571 44.638 34.571 45.2929C34.571 45.9477 34.0553 46.4622 33.3989 46.4622Z" fill="black"/>
<path d="M48.4013 34.7685L45.7994 38.2766C45.3306 38.9081 44.3929 38.9081 43.9241 38.2766L41.3221 34.7685C40.7595 33.9967 41.2987 32.9209 42.2598 32.9209H47.4637C48.4248 32.9209 48.9639 33.9967 48.4013 34.7685Z" fill="black"/>
<path d="M18.42 33.3185L21.022 29.8104C21.4908 29.1789 22.4285 29.1789 22.8973 29.8104L25.4993 33.3185C26.0618 34.0903 25.5227 35.1661 24.5616 35.1661H19.3577C18.3966 35.1661 17.8574 34.0903 18.42 33.3185Z" fill="black"/>
</svg>
