<svg width="46" height="50" viewBox="0 0 46 50" fill="none" xmlns="http://www.w3.org/2000/svg">
<path d="M15.9218 46.6147C15.9218 47.0461 15.572 47.3959 15.1405 47.3959H15.1268C14.6953 47.3959 14.3455 47.0461 14.3455 46.6147C14.3455 46.1832 14.6953 45.8334 15.1268 45.8334H15.1405C15.572 45.8334 15.9218 46.1832 15.9218 46.6147ZM30.7067 45.8334H20.6948C20.2634 45.8334 19.9135 46.1832 19.9135 46.6147C19.9135 47.0461 20.2634 47.3959 20.6948 47.3959H30.7066C31.138 47.3959 31.4879 47.0461 31.4879 46.6147C31.4879 46.1832 31.1381 45.8334 30.7067 45.8334ZM16.9611 45.8334H16.9473C16.5158 45.8334 16.166 46.1832 16.166 46.6147C16.166 47.0461 16.5158 47.3959 16.9473 47.3959H16.9611C17.3926 47.3959 17.7424 47.0461 17.7424 46.6147C17.7424 46.1832 17.3926 45.8334 16.9611 45.8334ZM18.7816 45.8334H18.7679C18.3364 45.8334 17.9866 46.1832 17.9866 46.6147C17.9866 47.0461 18.3364 47.3959 18.7679 47.3959H18.7816C19.2131 47.3959 19.5629 47.0461 19.5629 46.6147C19.5629 46.1832 19.2131 45.8334 18.7816 45.8334ZM31.488 36.0038C31.488 35.5724 31.1381 35.2226 30.7067 35.2226H30.6929C30.2614 35.2226 29.9116 35.5724 29.9116 36.0038C29.9116 36.4353 30.2614 36.7851 30.6929 36.7851H30.7067C31.1381 36.7851 31.488 36.4353 31.488 36.0038ZM25.1385 35.2226H15.1268C14.6953 35.2226 14.3455 35.5724 14.3455 36.0038C14.3455 36.4353 14.6953 36.7851 15.1268 36.7851H25.1385C25.57 36.7851 25.9198 36.4353 25.9198 36.0038C25.9198 35.5724 25.57 35.2226 25.1385 35.2226ZM28.8861 35.2226H28.8723C28.4408 35.2226 28.091 35.5724 28.091 36.0038C28.091 36.4353 28.4408 36.7851 28.8723 36.7851H28.8861C29.3175 36.7851 29.6674 36.4353 29.6674 36.0038C29.6674 35.5724 29.3176 35.2226 28.8861 35.2226ZM27.0656 35.2226H27.0518C26.6203 35.2226 26.2705 35.5724 26.2705 36.0038C26.2705 36.4353 26.6203 36.7851 27.0518 36.7851H27.0656C27.497 36.7851 27.8469 36.4353 27.8469 36.0038C27.8469 35.5724 27.497 35.2226 27.0656 35.2226ZM30.6928 31.5771H30.7066C31.138 31.5771 31.4879 31.2273 31.4879 30.7958C31.4879 30.3644 31.138 30.0146 30.7066 30.0146H30.6928C30.2613 30.0146 29.9115 30.3644 29.9115 30.7958C29.9115 31.2273 30.2613 31.5771 30.6928 31.5771ZM14.3455 30.7958C14.3455 31.2273 14.6953 31.5771 15.1268 31.5771H25.1385C25.57 31.5771 25.9198 31.2273 25.9198 30.7958C25.9198 30.3644 25.57 30.0146 25.1385 30.0146H15.1268C14.6952 30.0146 14.3455 30.3644 14.3455 30.7958ZM28.8723 31.5771H28.8861C29.3175 31.5771 29.6674 31.2273 29.6674 30.7958C29.6674 30.3644 29.3175 30.0146 28.8861 30.0146H28.8723C28.4408 30.0146 28.091 30.3644 28.091 30.7958C28.091 31.2273 28.4408 31.5771 28.8723 31.5771ZM27.0518 31.5771H27.0656C27.497 31.5771 27.8469 31.2273 27.8469 30.7958C27.8469 30.3644 27.497 30.0146 27.0656 30.0146H27.0518C26.6203 30.0146 26.2705 30.3644 26.2705 30.7958C26.2705 31.2273 26.6202 31.5771 27.0518 31.5771ZM30.6928 26.3689H30.7066C31.138 26.3689 31.4879 26.0191 31.4879 25.5876C31.4879 25.1562 31.138 24.8064 30.7066 24.8064H30.6928C30.2613 24.8064 29.9115 25.1562 29.9115 25.5876C29.9115 26.0191 30.2613 26.3689 30.6928 26.3689ZM25.1385 26.3689C25.57 26.3689 25.9198 26.0191 25.9198 25.5876C25.9198 25.1562 25.57 24.8064 25.1385 24.8064H15.1268C14.6953 24.8064 14.3455 25.1562 14.3455 25.5876C14.3455 26.0191 14.6953 26.3689 15.1268 26.3689H25.1385ZM28.8723 26.3689H28.8861C29.3175 26.3689 29.6674 26.0191 29.6674 25.5876C29.6674 25.1562 29.3175 24.8064 28.8861 24.8064H28.8723C28.4408 24.8064 28.091 25.1562 28.091 25.5876C28.091 26.0191 28.4408 26.3689 28.8723 26.3689ZM27.0518 26.3689H27.0656C27.497 26.3689 27.8469 26.0191 27.8469 25.5876C27.8469 25.1562 27.497 24.8064 27.0656 24.8064H27.0518C26.6203 24.8064 26.2705 25.1562 26.2705 25.5876C26.2705 26.0191 26.6202 26.3689 27.0518 26.3689ZM45.8333 46.6147C45.8333 47.0461 45.4835 47.3959 45.052 47.3959H34.0226C33.6688 48.8871 32.327 50 30.7291 50H15.1042C13.5064 50 12.1645 48.8871 11.8108 47.3959H0.781291C0.349823 47.3959 0 47.0461 0 46.6147C0 46.1832 0.349823 45.8334 0.781291 45.8334H11.8108C12.1645 44.3423 13.5064 43.2294 15.1042 43.2294H22.1353V39.3891H15.1041C13.2374 39.3891 11.7187 37.8704 11.7187 36.0038C11.7187 34.9578 12.1958 34.0213 12.9435 33.3998C12.1958 32.7784 11.7187 31.8418 11.7187 30.7958C11.7187 29.7498 12.1958 28.8133 12.9435 28.1918C12.1958 27.5704 11.7187 26.6338 11.7187 25.5877C11.7187 23.7211 13.2374 22.2025 15.1041 22.2025H30.729C32.5958 22.2025 34.1146 23.7211 34.1146 25.5877C34.1146 26.6338 33.6375 27.5704 32.8897 28.1918C33.6375 28.8133 34.1146 29.7498 34.1146 30.7958C34.1146 31.8418 33.6375 32.7784 32.8897 33.3998C33.6375 34.0213 34.1146 34.9578 34.1146 36.0038C34.1146 37.8704 32.5958 39.3891 30.729 39.3891H23.6979V43.2294H30.7291C32.327 43.2294 33.6688 44.3423 34.0226 45.8334H45.0519C45.4835 45.8334 45.8333 46.1832 45.8333 46.6147ZM30.7291 28.9731H15.1042C14.0991 28.9731 13.2813 29.7908 13.2813 30.7958C13.2813 31.8009 14.099 32.6186 15.1042 32.6186H30.7291C31.7343 32.6186 32.5521 31.8009 32.5521 30.7958C32.5521 29.7908 31.7344 28.9731 30.7291 28.9731ZM15.1042 27.4106H30.7291C31.7343 27.4106 32.5521 26.5928 32.5521 25.5877C32.5521 24.5827 31.7344 23.765 30.7291 23.765H15.1042C14.0991 23.765 13.2814 24.5827 13.2814 25.5877C13.2814 26.5927 14.0991 27.4106 15.1042 27.4106ZM15.1042 37.8266H30.7291C31.7343 37.8266 32.5521 37.0089 32.5521 36.0038C32.5521 34.9988 31.7344 34.1811 30.7291 34.1811H15.1042C14.0991 34.1811 13.2814 34.9988 13.2814 36.0038C13.2814 37.0089 14.0991 37.8266 15.1042 37.8266ZM32.5521 46.6147C32.5521 45.6096 31.7344 44.7919 30.7291 44.7919H15.1042C14.0991 44.7919 13.2813 45.6096 13.2813 46.6147C13.2813 47.6197 14.099 48.4375 15.1042 48.4375H30.7291C31.7344 48.4375 32.5521 47.6197 32.5521 46.6147ZM9.80041 31.3606C10.2315 31.3721 10.593 31.0373 10.6077 30.6062C10.6222 30.1749 10.2844 29.8136 9.85315 29.799C5.20418 29.6419 1.56258 25.8727 1.56258 21.218C1.56258 16.4838 5.41434 12.6321 10.1489 12.6321C10.6724 12.6321 11.1984 12.68 11.7122 12.7745C11.9421 12.8166 12.179 12.7539 12.3576 12.6029C12.5362 12.452 12.6379 12.2291 12.6346 11.9953L12.6339 11.9468C12.6334 11.9148 12.6328 11.883 12.6328 11.8509C12.6329 6.17792 17.2485 1.5625 22.9219 1.5625C28.5953 1.5625 33.2109 6.17782 33.2109 11.851C33.2109 11.8811 33.2104 11.9111 33.2098 11.9411L33.209 11.994C33.2059 12.2276 33.3075 12.4502 33.4859 12.601C33.6643 12.7517 33.9008 12.8148 34.1306 12.7727C34.641 12.6795 35.1637 12.6323 35.6844 12.6323C40.4189 12.6323 44.2707 16.484 44.2707 21.2182C44.2707 25.8728 40.629 29.6419 35.9801 29.7992C35.5488 29.8137 35.2111 30.1751 35.2257 30.6064C35.2399 31.0286 35.5867 31.3612 36.0061 31.3612C36.015 31.3612 36.0239 31.361 36.0329 31.3607C38.6702 31.2715 41.1354 30.177 42.9746 28.2785C44.818 26.3755 45.8332 23.8681 45.8332 21.2182C45.8332 15.6223 41.2805 11.0698 35.6844 11.0698C35.373 11.0698 35.0611 11.0841 34.7506 11.1126C34.368 4.9206 29.2087 0 22.9219 0C16.6346 0 11.4751 4.92099 11.0931 11.1135C10.7792 11.0844 10.4636 11.0697 10.149 11.0697C4.55287 11.0697 9.76077e-05 15.6222 9.76077e-05 21.2181C9.76077e-05 23.8681 1.01538 26.3754 2.85884 28.2784C4.6979 30.1769 7.16316 31.2715 9.80041 31.3606ZM24.1438 17.9322C24.8205 18.6089 24.8204 19.7098 24.1438 20.3864C23.8161 20.7141 23.3803 20.8947 22.9167 20.8947C22.4531 20.8947 22.0174 20.7141 21.6895 20.3863C21.0129 19.7097 21.0129 18.6089 21.6895 17.9322C22.3662 17.2555 23.4671 17.2555 24.1438 17.9322ZM22.7944 19.037C22.7271 19.1044 22.7271 19.2141 22.7944 19.2815C22.8363 19.3234 22.884 19.3322 22.9167 19.3322C22.9494 19.3322 22.9971 19.3234 23.0389 19.2816C23.1063 19.2141 23.1063 19.1045 23.0389 19.037C22.9715 18.9696 22.8618 18.9696 22.7944 19.037ZM26.3098 17.4958C26.5097 17.4958 26.7097 17.4195 26.8622 17.267C27.1674 16.9619 27.1673 16.4673 26.8622 16.1622C24.6866 13.9868 21.1467 13.9868 18.9712 16.1622C18.6661 16.4673 18.6661 16.9619 18.9712 17.267C19.2763 17.572 19.7709 17.572 20.076 17.267C21.6423 15.7008 24.1909 15.7008 25.7573 17.267C25.9098 17.4195 26.1098 17.4958 26.3098 17.4958ZM28.4162 15.3894C28.6161 15.3894 28.8161 15.3132 28.9687 15.1606C29.2738 14.8555 29.2738 14.3609 28.9687 14.0558C27.3521 12.4393 25.2028 11.5492 22.9167 11.5492C20.6307 11.5492 18.4812 12.4394 16.8647 14.0558C16.5596 14.3609 16.5596 14.8555 16.8647 15.1606C17.1698 15.4657 17.6645 15.4657 17.9696 15.1606C19.291 13.8392 21.048 13.1116 22.9167 13.1116C24.7855 13.1116 26.5424 13.8393 27.8638 15.1606C28.0163 15.3132 28.2163 15.3894 28.4162 15.3894ZM30.5227 13.2831C30.7226 13.2831 30.9226 13.2068 31.0751 13.0543C31.3802 12.7492 31.3802 12.2546 31.0751 11.9495C26.5766 7.45116 19.2568 7.45116 14.7583 11.9495C14.4532 12.2546 14.4532 12.7492 14.7583 13.0543C15.0634 13.3594 15.558 13.3594 15.8631 13.0543C19.7525 9.16522 26.0808 9.16522 29.9702 13.0543C30.1228 13.2068 30.3227 13.2831 30.5227 13.2831Z" fill="#FFC107"/>
</svg>
