<svg width="48" height="50" viewBox="0 0 48 50" fill="none" xmlns="http://www.w3.org/2000/svg">
<path d="M17.1123 8.32665C18.5301 8.32665 19.6836 7.17314 19.6836 5.75537C19.6836 4.3376 18.5301 3.18408 17.1123 3.18408C15.6945 3.18408 14.541 4.3376 14.541 5.75537C14.541 7.17314 15.6945 8.32665 17.1123 8.32665ZM17.1123 4.64902C17.7224 4.64902 18.2187 5.14541 18.2187 5.75547C18.2187 6.36552 17.7224 6.86191 17.1123 6.86191C16.5022 6.86191 16.0059 6.36552 16.0059 5.75547C16.0059 5.14541 16.5022 4.64902 17.1123 4.64902Z" fill="#FFC107"/>
<path d="M35.5302 33.477C36.948 33.477 38.1015 32.3235 38.1015 30.9058C38.1015 29.488 36.9479 28.3345 35.5302 28.3345C34.1124 28.3345 32.959 29.488 32.959 30.9058C32.959 32.3235 34.1125 33.477 35.5302 33.477ZM35.5302 29.7994C36.1402 29.7994 36.6366 30.2957 36.6366 30.9059C36.6366 31.5159 36.1402 32.0123 35.5302 32.0123C34.9201 32.0123 34.4238 31.5159 34.4238 30.9059C34.4238 30.2957 34.9201 29.7994 35.5302 29.7994Z" fill="#FFC107"/>
<path d="M42.3269 10.6146C40.6477 8.61616 38.6665 6.91333 36.4382 5.55337C36.093 5.34263 35.6423 5.45171 35.4315 5.79703C35.2208 6.14234 35.3298 6.59302 35.6752 6.80376C37.6241 7.99312 39.3717 9.46186 40.8765 11.1741C40.3632 11.8964 40.1661 13.0881 38.9683 13.1841C37.9502 13.2657 37.0504 13.8505 36.565 14.7553L35.7003 16.367C35.1035 17.4791 33.9298 17.1168 33.2865 17.1168C31.9065 17.1168 30.5798 17.7 29.6459 18.7174C28.6657 19.7875 28.4553 20.901 28.2698 21.8835C28.1271 22.6395 28.0029 23.2938 27.571 23.927C27.4961 24.0367 27.5744 23.9262 25.5084 26.6848C24.8098 27.6181 24.9972 28.9521 25.9571 29.6489L27.6663 30.8881C28.1835 31.2621 28.827 31.3763 29.4228 31.2221C29.5429 31.1921 29.66 31.1627 29.7754 31.1335C29.7769 31.1331 29.7785 31.1327 29.7799 31.1323C29.7814 31.2151 29.7845 31.2975 29.7895 31.3798C29.96 34.2381 31.6281 36.9379 33.5554 39.058C34.6255 40.2353 36.4585 40.2096 37.5032 39.0608C37.5041 39.0598 37.5049 39.0588 37.5058 39.0578C38.8697 37.558 40.0944 35.7886 40.761 33.8576L43.9828 36.3356C40.4037 43.2773 33.4867 47.8728 25.711 48.4684C25.6405 48.1101 24.5465 46.6564 25.8049 45.7585C26.5718 45.2146 27.0298 44.3273 27.0298 43.3851C27.0298 42.6153 27.08 41.9948 26.6765 41.2522C26.5672 41.0508 26.4268 40.8485 26.2419 40.6514L25.1039 39.4378C24.6437 38.9472 24.5849 38.1878 24.9639 37.6322L25.2696 37.1843C26.3582 35.587 25.6207 33.3835 23.7719 32.7759L20.4682 31.6915C20.3357 31.6479 20.2241 31.5575 20.1539 31.4365L17.8884 27.5394C17.124 26.2214 15.2134 26.1758 14.4009 27.4931L13.859 28.3715C13.7542 28.5409 13.5738 28.6421 13.3763 28.6421C12.9979 28.6421 12.7327 28.2856 12.825 27.9308L13.9986 23.4379C14.0389 23.2825 14.1445 23.1508 14.2881 23.0768L16.6779 21.8466C17.357 21.4985 17.7604 20.8173 17.7819 20.1034C17.821 18.8364 16.7389 17.3843 15.1213 17.1006C13.9007 16.8471 13.2078 16.9007 12.3835 16.3997L8.91435 14.2943C8.20859 13.8655 7.69638 13.1947 7.46728 12.4072L7.09697 11.1356C8.39589 9.66499 9.87411 8.37554 11.5051 7.2895C11.5159 7.34478 11.6059 7.85835 11.827 8.53462C12.6101 10.9306 14.5274 13.3829 15.3376 14.1047C16.4471 15.0927 18.1183 14.9748 19.0862 13.9104C21.127 11.6669 22.8672 8.79155 22.8688 5.75835C22.8688 5.75738 22.8688 5.7563 22.8688 5.75533C22.8688 5.00591 22.7202 4.25562 22.4413 3.57466C22.9519 3.54019 23.4634 3.52281 23.971 3.52281C27.1257 3.52281 30.1772 4.16314 33.041 5.42583C33.4112 5.58912 33.8435 5.42134 34.0066 5.05123C34.1698 4.68111 34.0021 4.24878 33.632 4.0856C30.5809 2.74019 27.3304 2.05797 23.971 2.05797C23.1884 2.05797 22.3975 2.09908 21.6133 2.17584C20.5616 0.85709 18.9455 0.00670038 17.1348 5.97596e-05C13.9671 -0.0142957 11.4914 2.55963 11.3673 5.63804C9.24354 6.95279 7.34667 8.58032 5.72499 10.4816C5.72089 10.4865 5.71728 10.4917 5.71327 10.4966C2.0289 14.8229 0 20.3381 0 26.029C0 32.1855 2.33056 38.0373 6.56249 42.5067C6.84062 42.8004 7.30419 42.8131 7.59794 42.5351C7.89169 42.2569 7.90429 41.7934 7.62616 41.4996C3.65302 37.3034 1.46494 31.8092 1.46494 26.0291C1.46494 21.1443 3.05693 16.3972 5.97314 12.5154C6.0996 12.8429 6.3662 14.4593 8.15419 15.5465L11.6233 17.652C13.0112 18.4951 14.5997 18.3219 15.367 18.7086C15.8407 18.9477 16.1856 19.3866 16.3038 19.9179C16.3592 20.1632 16.2369 20.4267 16.0087 20.5437L13.6174 21.7745C13.1033 22.0395 12.7255 22.5118 12.5811 23.069L11.4076 27.5613C11.0735 28.848 12.0423 30.1068 13.3764 30.1068C14.093 30.1068 14.7357 29.7393 15.1055 29.141C15.8197 27.9834 15.5899 28.3559 15.6478 28.262C15.8768 27.8907 16.4095 27.9086 16.6219 28.2748C19.0143 32.3847 18.8921 32.1935 18.9882 32.3287C19.2387 32.6818 19.596 32.9465 20.0112 33.083L23.3152 34.1675C24.2294 34.4674 24.6033 35.5607 24.0596 36.3588C23.7859 36.7644 23.7201 36.8447 23.6192 37.0235C22.9984 38.1248 23.1516 39.497 24.0356 40.4397L25.1736 41.6532C25.7183 42.2343 25.5199 42.8612 25.5648 43.416C25.5546 43.8927 25.3046 44.3174 24.9559 44.5648C22.8206 46.0886 24.152 48.5099 24.1541 48.5343C24.0931 48.5348 24.0322 48.535 23.9712 48.535C18.7783 48.535 13.7114 46.7237 9.70399 43.435C9.3912 43.1783 8.92978 43.2238 8.67323 43.5365C8.41659 43.8492 8.4621 44.3107 8.7748 44.5674C13.0432 48.0707 18.4399 50 23.9708 50C24.674 50 25.134 49.9704 25.2734 49.9646C25.2832 49.9613 39.0986 49.8369 45.5665 36.4417C45.5666 36.4416 45.5666 36.4415 45.5667 36.4413C47.142 33.1808 47.9409 29.6776 47.9409 26.0289C47.9408 20.3957 45.9471 14.9214 42.3269 10.6146ZM17.1137 1.4649H17.1294C19.4921 1.4735 21.4039 3.40377 21.4039 5.75533C21.4039 8.73892 19.2727 11.5279 18.0023 12.9248C17.5216 13.4535 16.6973 13.4449 16.2221 12.9223C14.5569 11.0903 12.9383 8.5521 12.8321 6.06978L12.8308 6.02515C12.8308 6.02398 12.8306 6.0229 12.8306 6.02173C12.7508 3.57672 14.6515 1.4649 17.1137 1.4649ZM35.5248 26.6155C35.5268 26.6155 35.5288 26.6154 35.5307 26.6154H35.5462C37.9032 26.624 39.8208 28.5486 39.8208 30.9058C39.8208 33.5102 38.1829 36.1352 36.4192 38.0753C35.9395 38.6027 35.1163 38.5976 34.639 38.0728C33.4467 36.7611 31.4212 34.1362 31.2514 31.2926C31.1018 28.7777 33.0461 26.619 35.5248 26.6155ZM44.625 34.9819L41.1613 32.3179C41.2336 31.908 41.2855 31.3827 41.2855 30.9059C41.2855 27.744 38.7132 25.1622 35.5515 25.1506C35.5514 25.1506 35.5512 25.1506 35.551 25.1506C35.5441 25.1506 35.5374 25.1506 35.5304 25.1506C32.8681 25.1506 30.5988 26.9889 29.9575 29.5744C29.0713 29.8052 28.8291 29.9217 28.5252 29.7019L26.8167 28.4631C26.528 28.2537 26.4668 27.8485 26.6804 27.563L28.6511 24.9333C29.3137 24.053 29.515 23.1817 29.7089 22.1556C29.8798 21.2508 30.0273 20.4695 30.7253 19.7076C31.3819 18.9921 32.3153 18.5819 33.2862 18.5819C33.9212 18.5819 35.9293 19.0381 36.9908 17.0598L37.8555 15.4481C38.1052 14.9828 38.5707 14.6857 39.085 14.6446C41.0266 14.4888 41.6011 12.79 41.7386 12.629L41.8726 12.3909C44.8481 16.2951 46.4757 21.0972 46.4757 26.0292C46.4759 29.1503 45.8538 32.1575 44.625 34.9819Z" fill="#FFC107"/>
</svg>
