<svg width="50" height="50" viewBox="0 0 50 50" fill="none" xmlns="http://www.w3.org/2000/svg">
<path d="M32 16.25H18C17.5359 16.25 17.0908 16.4344 16.7626 16.7626C16.4344 17.0908 16.25 17.5359 16.25 18V21.5C16.2517 21.8081 16.3357 22.1102 16.4932 22.375C16.3357 22.6398 16.2517 22.9419 16.25 23.25V26.75C16.2517 27.0581 16.3357 27.3602 16.4932 27.625C16.3357 27.8898 16.2517 28.1919 16.25 28.5V32C16.25 32.4641 16.4344 32.9093 16.7626 33.2374C17.0908 33.5656 17.5359 33.75 18 33.75H32C32.4641 33.75 32.9093 33.5656 33.2374 33.2374C33.5656 32.9093 33.75 32.4641 33.75 32V28.5C33.7483 28.1919 33.6643 27.8898 33.5068 27.625C33.6643 27.3602 33.7483 27.0581 33.75 26.75V23.25C33.7483 22.9419 33.6643 22.6398 33.5068 22.375C33.6643 22.1102 33.7483 21.8081 33.75 21.5V18C33.75 17.5359 33.5656 17.0908 33.2374 16.7626C32.9093 16.4344 32.4641 16.25 32 16.25ZM18 32V28.5H32V32H18ZM32 26.75H18V23.25H32V26.75ZM32 21.5H18V18H32V21.5Z" fill="#FFC107"/>
<path d="M28.75 18.75H30V21.25H28.75V18.75Z" fill="#FFC107"/>
<path d="M20 18.75H26.25V21.25H20V18.75Z" fill="#FFC107"/>
<path d="M28.75 23.75H30V26.25H28.75V23.75Z" fill="#FFC107"/>
<path d="M20 23.75H26.25V26.25H20V23.75Z" fill="#FFC107"/>
<path d="M28.75 28.75H30V31.25H28.75V28.75Z" fill="#FFC107"/>
<path d="M20 28.75H26.25V31.25H20V28.75Z" fill="#FFC107"/>
<path d="M45.9475 8.08089C46.848 8.08357 47.7236 7.78533 48.4353 7.23354C49.147 6.68175 49.6539 5.90803 49.8756 5.03522C50.0973 4.16242 50.0211 3.24056 49.659 2.41602C49.297 1.59148 48.6699 0.911523 47.8772 0.484108C47.0846 0.056693 46.1719 -0.0936793 45.2841 0.0568667C44.3962 0.207413 43.5841 0.650248 42.9767 1.31506C42.3692 1.97987 42.0013 2.82855 41.9313 3.72635C41.8613 4.62415 42.0932 5.51961 42.5903 6.27054L34.084 14.7768C31.7909 12.7314 28.8733 11.5218 25.8057 11.3447V7.96648C26.5651 7.77038 27.227 7.30403 27.6673 6.65484C28.1075 6.00564 28.2958 5.21818 28.197 4.44005C28.0982 3.66192 27.7189 2.94655 27.1304 2.42803C26.5418 1.9095 25.7844 1.62343 25 1.62343C24.2156 1.62343 23.4582 1.9095 22.8696 2.42803C22.2811 2.94655 21.9018 3.66192 21.803 4.44005C21.7042 5.21818 21.8925 6.00564 22.3327 6.65484C22.773 7.30403 23.4349 7.77038 24.1943 7.96648V11.3447C21.1267 11.5218 18.2091 12.7314 15.916 14.7768L7.40974 6.27054C7.9625 5.43539 8.18541 4.42472 8.03521 3.43453C7.88501 2.44435 7.37243 1.54524 6.59686 0.91158C5.8213 0.277921 4.83804 -0.0451183 3.83779 0.00511554C2.83754 0.0553493 1.8916 0.475276 1.18342 1.18345C0.47525 1.89162 0.0553233 2.83757 0.00508947 3.83782C-0.0451443 4.83807 0.277896 5.82132 0.911554 6.59689C1.54521 7.37245 2.44433 7.88504 3.43451 8.03523C4.42469 8.18543 5.43537 7.96253 6.27052 7.40976L14.7768 15.9161C12.7314 18.2092 11.5218 21.1267 11.3446 24.1943H7.96646C7.77036 23.4349 7.30401 22.773 6.65482 22.3328C6.00562 21.8925 5.21816 21.7042 4.44003 21.803C3.6619 21.9018 2.94652 22.2811 2.428 22.8696C1.90948 23.4582 1.62341 24.2156 1.62341 25C1.62341 25.7844 1.90948 26.5419 2.428 27.1304C2.94652 27.7189 3.6619 28.0982 4.44003 28.197C5.21816 28.2959 6.00562 28.1075 6.65482 27.6673C7.30401 27.227 7.77036 26.5652 7.96646 25.8057H11.3446C11.5218 28.8733 12.7314 31.7909 14.7768 34.084L6.27052 42.5903C5.43537 42.0375 4.42469 41.8146 3.43451 41.9648C2.44433 42.115 1.54521 42.6276 0.911554 43.4031C0.277896 44.1787 -0.0451443 45.162 0.00508947 46.1622C0.0553233 47.1625 0.47525 48.1084 1.18342 48.8166C1.8916 49.5247 2.83754 49.9447 3.83779 49.9949C4.83804 50.0451 5.8213 49.7221 6.59686 49.0884C7.37243 48.4548 7.88501 47.5557 8.03521 46.5655C8.18541 45.5753 7.9625 44.5646 7.40974 43.7295L15.916 35.2232C18.2091 37.2686 21.1267 38.4782 24.1943 38.6554V42.0335C23.4349 42.2296 22.773 42.696 22.3327 43.3452C21.8925 43.9944 21.7042 44.7818 21.803 45.56C21.9018 46.3381 22.2811 47.0535 22.8696 47.572C23.4582 48.0905 24.2156 48.3766 25 48.3766C25.7844 48.3766 26.5418 48.0905 27.1304 47.572C27.7189 47.0535 28.0982 46.3381 28.197 45.56C28.2958 44.7818 28.1075 43.9944 27.6673 43.3452C27.227 42.696 26.5651 42.2296 25.8057 42.0335V38.6554C28.8733 38.4782 31.7909 37.2686 34.084 35.2232L42.5903 43.7295C42.0375 44.5646 41.8146 45.5753 41.9648 46.5655C42.115 47.5557 42.6276 48.4548 43.4031 49.0884C44.1787 49.7221 45.162 50.0451 46.1622 49.9949C47.1625 49.9447 48.1084 49.5247 48.8166 48.8166C49.5247 48.1084 49.9447 47.1625 49.9949 46.1622C50.0451 45.162 49.7221 44.1787 49.0884 43.4031C48.4548 42.6276 47.5557 42.115 46.5655 41.9648C45.5753 41.8146 44.5646 42.0375 43.7295 42.5903L35.2232 34.084C37.2686 31.7909 38.4782 28.8733 38.6554 25.8057H42.0335C42.2296 26.5652 42.696 27.227 43.3452 27.6673C43.9944 28.1075 44.7818 28.2959 45.56 28.197C46.3381 28.0982 47.0535 27.7189 47.572 27.1304C48.0905 26.5419 48.3766 25.7844 48.3766 25C48.3766 24.2156 48.0905 23.4582 47.572 22.8696C47.0535 22.2811 46.3381 21.9018 45.56 21.803C44.7818 21.7042 43.9944 21.8925 43.3452 22.3328C42.696 22.773 42.2296 23.4349 42.0335 24.1943H38.6554C38.4782 21.1267 37.2686 18.2092 35.2232 15.9161L43.7295 7.40976C44.3865 7.84724 45.1582 8.08073 45.9475 8.08089ZM4.0525 6.46954C3.57446 6.46954 3.10715 6.32778 2.70967 6.0622C2.3122 5.79661 2.0024 5.41913 1.81946 4.97747C1.63652 4.53582 1.58866 4.04984 1.68192 3.58099C1.77518 3.11213 2.00538 2.68146 2.34341 2.34343C2.68143 2.00541 3.1121 1.77521 3.58096 1.68195C4.04982 1.58868 4.5358 1.63655 4.97745 1.81949C5.4191 2.00243 5.79659 2.31222 6.06218 2.7097C6.32776 3.10717 6.46952 3.57448 6.46952 4.05252C6.46952 4.69355 6.21487 5.30833 5.76159 5.76161C5.30831 6.21489 4.69353 6.46954 4.0525 6.46954ZM4.85817 26.6114C4.53948 26.6114 4.22794 26.5169 3.96295 26.3398C3.69797 26.1627 3.49144 25.9111 3.36948 25.6166C3.24752 25.3222 3.21561 24.9982 3.27779 24.6857C3.33996 24.3731 3.49343 24.086 3.71878 23.8606C3.94413 23.6353 4.23124 23.4818 4.54381 23.4196C4.85638 23.3575 5.18037 23.3894 5.47481 23.5113C5.76924 23.6333 6.0209 23.8398 6.19796 24.1048C6.37501 24.3698 6.46952 24.6813 6.46952 25C6.46952 25.4274 6.29975 25.8372 5.99756 26.1394C5.69538 26.4416 5.28553 26.6114 4.85817 26.6114ZM4.0525 48.3645C3.57446 48.3645 3.10715 48.2228 2.70967 47.9572C2.3122 47.6916 2.0024 47.3141 1.81946 46.8725C1.63652 46.4308 1.58866 45.9448 1.68192 45.476C1.77518 45.0071 2.00538 44.5764 2.34341 44.2384C2.68143 43.9004 3.1121 43.6702 3.58096 43.5769C4.04982 43.4837 4.5358 43.5315 4.97745 43.7145C5.4191 43.8974 5.79659 44.2072 6.06218 44.6047C6.32776 45.0022 6.46952 45.4695 6.46952 45.9475C6.46952 46.5885 6.21487 47.2033 5.76159 47.6566C5.30831 48.1099 4.69353 48.3645 4.0525 48.3645ZM45.9475 43.5305C46.4255 43.5305 46.8928 43.6722 47.2903 43.9378C47.6878 44.2034 47.9976 44.5809 48.1805 45.0226C48.3635 45.4642 48.4113 45.9502 48.3181 46.419C48.2248 46.8879 47.9946 47.3186 47.6566 47.6566C47.3186 47.9946 46.8879 48.2248 46.419 48.3181C45.9502 48.4113 45.4642 48.3635 45.0225 48.1805C44.5809 47.9976 44.2034 47.6878 43.9378 47.2903C43.6722 46.8928 43.5305 46.4255 43.5305 45.9475C43.5305 45.3065 43.7851 44.6917 44.2384 44.2384C44.6917 43.7851 45.3065 43.5305 45.9475 43.5305ZM45.1418 23.3887C45.4605 23.3887 45.7721 23.4832 46.037 23.6602C46.302 23.8373 46.5086 24.0889 46.6305 24.3834C46.7525 24.6778 46.7844 25.0018 46.7222 25.3144C46.66 25.6269 46.5066 25.9141 46.2812 26.1394C46.0559 26.3648 45.7688 26.5182 45.4562 26.5804C45.1436 26.6426 44.8196 26.6107 44.5252 26.4887C44.2308 26.3667 43.9791 26.1602 43.802 25.8952C43.625 25.6302 43.5305 25.3187 43.5305 25C43.5305 24.5727 43.7002 24.1628 44.0024 23.8606C44.3046 23.5584 44.7145 23.3887 45.1418 23.3887ZM23.3887 4.85819C23.3887 4.5395 23.4832 4.22796 23.6602 3.96298C23.8373 3.69799 24.0889 3.49146 24.3834 3.36951C24.6778 3.24755 25.0018 3.21564 25.3144 3.27781C25.6269 3.33998 25.914 3.49345 26.1394 3.7188C26.3647 3.94415 26.5182 4.23127 26.5804 4.54384C26.6426 4.85641 26.6106 5.1804 26.4887 5.47483C26.3667 5.76926 26.1602 6.02092 25.8952 6.19798C25.6302 6.37504 25.3187 6.46954 25 6.46954C24.5726 6.46954 24.1628 6.29977 23.8606 5.99759C23.5584 5.6954 23.3887 5.28555 23.3887 4.85819ZM26.6113 45.1418C26.6113 45.4605 26.5168 45.7721 26.3398 46.037C26.1627 46.302 25.9111 46.5086 25.6166 46.6305C25.3222 46.7525 24.9982 46.7844 24.6856 46.7222C24.3731 46.66 24.086 46.5066 23.8606 46.2812C23.6353 46.0559 23.4818 45.7688 23.4196 45.4562C23.3574 45.1436 23.3894 44.8196 23.5113 44.5252C23.6333 44.2308 23.8398 43.9791 24.1048 43.802C24.3698 43.625 24.6813 43.5305 25 43.5305C25.4274 43.5305 25.8372 43.7003 26.1394 44.0024C26.4416 44.3046 26.6113 44.7145 26.6113 45.1418ZM37.0851 25C37.0851 27.3902 36.3763 29.7267 35.0484 31.7141C33.7205 33.7015 31.833 35.2505 29.6248 36.1652C27.4165 37.0799 24.9866 37.3192 22.6423 36.8529C20.298 36.3866 18.1447 35.2356 16.4545 33.5455C14.7644 31.8553 13.6134 29.702 13.1471 27.3577C12.6808 25.0134 12.9201 22.5835 13.8348 20.3752C14.7495 18.167 16.2985 16.2796 18.2859 14.9516C20.2733 13.6237 22.6098 12.9149 25 12.9149C28.2041 12.9185 31.2758 14.193 33.5414 16.4586C35.8071 18.7242 37.0815 21.796 37.0851 25ZM45.9475 1.6355C46.4255 1.6355 46.8928 1.77726 47.2903 2.04284C47.6878 2.30843 47.9976 2.68592 48.1805 3.12757C48.3635 3.56922 48.4113 4.0552 48.3181 4.52406C48.2248 4.99291 47.9946 5.42359 47.6566 5.76161C47.3186 6.09964 46.8879 6.32984 46.419 6.4231C45.9502 6.51636 45.4642 6.46849 45.0225 6.28556C44.5809 6.10262 44.2034 5.79282 43.9378 5.39535C43.6722 4.99787 43.5305 4.53056 43.5305 4.05252C43.5305 3.41149 43.7851 2.79671 44.2384 2.34343C44.6917 1.89015 45.3065 1.6355 45.9475 1.6355Z" fill="#FFC107"/>
</svg>
