<svg width="50" height="50" viewBox="0 0 50 50" fill="none" xmlns="http://www.w3.org/2000/svg">
<path d="M17.3592 11.7403C17.2156 12.1824 17.357 12.6562 17.7193 12.9475L20.9453 15.5405L19.8594 19.5345C19.7376 19.983 19.9017 20.4494 20.278 20.723C20.6543 20.9961 21.1484 21.0081 21.5373 20.7536L25.0002 18.4867L28.4632 20.7537C28.65 20.8758 28.8608 20.9366 29.0712 20.9366C29.2994 20.9366 29.527 20.8652 29.7224 20.723C30.0989 20.4497 30.2631 19.983 30.1409 19.5345L29.0551 15.5406L32.2809 12.9477C32.6435 12.6565 32.7849 12.1826 32.6412 11.7403C32.4975 11.2979 32.1046 10.9976 31.6402 10.9752L27.5062 10.7736L26.0371 6.90428C25.8722 6.46962 25.4651 6.18866 25.0001 6.18866C24.5352 6.18866 24.1281 6.46952 23.9633 6.90419L22.494 10.7737L18.3604 10.9752C17.8958 10.9976 17.5029 11.2979 17.3592 11.7403ZM22.8665 12.3198C23.3071 12.2983 23.6929 12.0179 23.8493 11.6056L25 8.57489L26.1508 11.6059C26.3074 12.0181 26.6934 12.2983 27.1336 12.3198L30.3715 12.4777L27.8446 14.5087C27.5008 14.7851 27.3535 15.2387 27.4692 15.6641L28.3197 18.7924L25.6073 17.0168C25.4228 16.8961 25.2114 16.8357 24.9999 16.8357C24.7885 16.8357 24.5769 16.8962 24.3923 17.0169L21.6801 18.7924L22.5306 15.6643C22.6464 15.2386 22.499 14.7849 22.1551 14.5087L19.6283 12.4778L22.8665 12.3198ZM24.2188 3.64824V0.781249C24.2188 0.349804 24.5686 0 25 0C25.4315 0 25.7813 0.349804 25.7813 0.781249V3.64824C25.7813 4.07968 25.4315 4.42948 25 4.42948C24.5686 4.42948 24.2188 4.07968 24.2188 3.64824ZM28.9764 8.27694C28.6878 7.95633 28.7136 7.46229 29.0342 7.17362L32.229 4.29687C32.5497 4.0081 33.0436 4.03398 33.3324 4.35468C33.621 4.67528 33.5952 5.16933 33.2746 5.458L30.0797 8.33475C29.9304 8.46922 29.7435 8.53543 29.5572 8.53543C29.3436 8.53543 29.1307 8.44832 28.9764 8.27694ZM16.6677 4.35468C16.9564 4.03398 17.4503 4.0081 17.7711 4.29687L20.966 7.17362C21.2866 7.46229 21.3124 7.95633 21.0238 8.27694C20.8695 8.44823 20.6566 8.53543 20.4429 8.53543C20.2567 8.53543 20.0698 8.46922 19.9204 8.33475L16.7255 5.458C16.4048 5.16933 16.3791 4.67528 16.6677 4.35468ZM35.0227 12.9475L38.2487 15.5405L37.1629 19.5345C37.041 19.983 37.2051 20.4494 37.5814 20.723C37.9575 20.9961 38.4516 21.008 38.8407 20.7536L42.3037 18.4867L45.7667 20.7537C45.9534 20.8758 46.1642 20.9366 46.3747 20.9366C46.6028 20.9366 46.8304 20.8652 47.0258 20.723C47.4021 20.4499 47.5663 19.9834 47.4444 19.5345L46.3585 15.5406L49.5844 12.9477C49.9468 12.6566 50.0882 12.1827 49.9445 11.7403C49.8008 11.2979 49.4079 10.9976 48.9436 10.9752L44.8097 10.7736L43.3406 6.90428C43.1757 6.46962 42.7686 6.18866 42.3037 6.18866C41.8386 6.18866 41.4315 6.46952 41.2666 6.90419L39.7976 10.7736L35.6639 10.9751C35.1992 10.9975 34.8063 11.2979 34.6626 11.7403C34.5189 12.1826 34.6603 12.6565 35.0227 12.9475ZM40.1698 12.3198C40.6105 12.2983 40.9965 12.0179 41.1529 11.6055L42.3036 8.57479L43.4541 11.6054C43.6107 12.0179 43.9966 12.2983 44.4371 12.3197L47.675 12.4776L45.1484 14.5084C44.8044 14.7847 44.6569 15.2384 44.7727 15.664L45.6232 18.7923L42.9108 17.0167C42.7262 16.896 42.5148 16.8356 42.3034 16.8356C42.0918 16.8356 41.8803 16.8961 41.6959 17.0168L38.9836 18.7923L39.8341 15.6642C39.9498 15.2387 39.8025 14.7851 39.4586 14.5086L36.9318 12.4776L40.1698 12.3198ZM0.415645 12.9475L3.64165 15.5405L2.55583 19.5345C2.43396 19.983 2.59811 20.4494 2.97438 20.723C3.35073 20.9961 3.84477 21.0081 4.23372 20.7536L7.69663 18.4867L11.1596 20.7537C11.3464 20.8758 11.5572 20.9366 11.7676 20.9366C11.9958 20.9366 12.2234 20.8652 12.4188 20.723C12.7951 20.4499 12.9593 19.9834 12.8373 19.5345L11.7515 15.5406L14.9773 12.9477C15.3396 12.6568 15.4811 12.183 15.3375 11.7398C15.1935 11.2977 14.8006 10.9975 14.3366 10.9751L10.2026 10.7735L8.73362 6.90428C8.56868 6.46962 8.16156 6.18866 7.69663 6.18866C7.2316 6.18866 6.82448 6.46952 6.65955 6.90419L5.19054 10.7736L1.05684 10.9751C0.592301 10.9975 0.199341 11.2979 0.0557896 11.7398C-0.0882501 12.1823 0.0530552 12.6564 0.415645 12.9475ZM5.56279 12.3198C6.00351 12.2983 6.38944 12.0179 6.54588 11.6055L7.69653 8.57479L8.84709 11.6054C9.00363 12.0179 9.38956 12.2983 9.83008 12.3197L13.068 12.4776L10.5414 14.5084C10.1974 14.7847 10.0499 15.2384 10.1657 15.664L11.0162 18.7923L8.30375 17.0167C8.11918 16.896 7.90776 16.8356 7.69634 16.8356C7.48482 16.8356 7.2733 16.8961 7.08883 17.0168L4.37659 18.7923L5.22706 15.6642C5.34278 15.2387 5.19552 14.7851 4.85158 14.5086L2.32478 12.4776L5.56279 12.3198ZM49.8765 41.4973C49.3268 39.7221 48.201 38.1282 46.7062 37.0088C45.9906 36.473 45.2113 36.0556 44.3893 35.7601C45.529 34.8656 46.2633 33.4769 46.2633 31.919C46.2633 29.227 44.0732 27.037 41.3814 27.037C38.6895 27.037 36.4994 29.227 36.4994 31.919C36.4994 33.475 37.232 34.8623 38.3695 35.757C36.845 36.3011 35.4944 37.2572 34.4602 38.5454C33.9768 37.8692 33.4192 37.241 32.7924 36.6741C31.5293 35.5319 30.047 34.693 28.4506 34.1972C30.1435 33.0749 31.2626 31.1534 31.2626 28.9746C31.2626 25.5214 28.4532 22.7121 25.0001 22.7121C21.5471 22.7121 18.7377 25.5214 18.7377 28.9746C18.7377 31.1534 19.8567 33.0749 21.5495 34.1972C19.9531 34.6929 18.4708 35.5319 17.2077 36.6741C16.5809 37.241 16.0233 37.8692 15.54 38.5453C14.5059 37.257 13.1553 36.3009 11.6307 35.7567C12.7681 34.862 13.5008 33.4747 13.5008 31.9187C13.5008 29.2267 11.3107 27.0367 8.61888 27.0367C5.92695 27.0367 3.73686 29.2267 3.73686 31.9187C3.73686 33.4765 4.47122 34.8653 5.61084 35.7598C4.78879 36.0553 4.00951 36.4727 3.2938 37.0085C1.79901 38.1278 0.673158 39.7218 0.123464 41.4969C-0.130534 42.3168 0.0101851 43.1489 0.519646 43.8402C1.02901 44.5312 1.78231 44.9116 2.64069 44.9116H13.4405V46.3216C13.4405 48.3499 15.0906 50 17.1189 50H32.8812C34.9094 50 36.5595 48.3499 36.5596 46.3216V44.912H47.3594C48.2179 44.912 48.9712 44.5315 49.4804 43.8405C49.9898 43.1493 50.1305 42.3171 49.8765 41.4973ZM41.3814 28.5995C43.2117 28.5995 44.7009 30.0886 44.7009 31.919C44.7009 33.7494 43.2117 35.2386 41.3814 35.2386C39.551 35.2386 38.0619 33.7494 38.0619 31.919C38.0619 30.0886 39.551 28.5995 41.3814 28.5995ZM20.3002 28.9746C20.3002 26.383 22.4086 24.2746 25.0001 24.2746C27.5917 24.2746 29.7001 26.383 29.7001 28.9746C29.7001 31.5654 27.5931 33.6732 25.0027 33.6745C25.0018 33.6745 25.0008 33.6745 25 33.6745C24.9993 33.6745 24.9984 33.6745 24.9975 33.6745C22.4071 33.6731 20.3002 31.5653 20.3002 28.9746ZM8.61888 28.5991C10.4492 28.5991 11.9383 30.0882 11.9383 31.9186C11.9383 33.7491 10.4492 35.2382 8.61888 35.2382C6.78845 35.2382 5.29932 33.7491 5.29932 31.9186C5.29932 30.0882 6.78845 28.5991 8.61888 28.5991ZM13.542 43.349H2.64079C2.28123 43.349 1.9908 43.2024 1.77743 42.9129C1.56396 42.6235 1.50976 42.3026 1.61611 41.9591C2.57155 38.8737 5.38584 36.8007 8.61888 36.8007C11.0644 36.8007 13.2922 37.9823 14.6624 39.9826C14.1207 41.035 13.7413 42.1693 13.542 43.349ZM34.9972 46.3215C34.9971 47.4882 34.0479 48.4374 32.8812 48.4374H17.1189C15.9522 48.4374 15.003 47.4882 15.003 46.3215V44.1728C15.5686 39.0763 19.858 35.2383 24.9975 35.237C24.9984 35.237 24.9993 35.2371 25.0001 35.2371C25.001 35.2371 25.0019 35.237 25.0027 35.237C30.1421 35.2384 34.4314 39.0763 34.9972 44.1728V46.3215ZM48.2228 42.9134C48.0094 43.2027 47.7191 43.3494 47.3594 43.3494H36.4583C36.2589 42.1695 35.8795 41.0353 35.3379 39.9828C36.7082 37.9826 38.9359 36.8011 41.3813 36.8011C44.6143 36.8011 47.4286 38.8741 48.3841 41.9596C48.4904 42.3028 48.4361 42.6237 48.2228 42.9134Z" fill="#FFC107"/>
</svg>
