<svg width="36" height="34" viewBox="0 0 36 34" fill="none" xmlns="http://www.w3.org/2000/svg">
<path d="M26.1839 14.7024C27.0443 14.1245 27.6612 13.2625 27.9331 12.2452C28.2305 11.1332 28.0797 9.97491 27.5086 8.98354C26.9375 7.99217 26.012 7.28211 24.9025 6.98412C23.8874 6.71156 22.834 6.81596 21.9045 7.27377L19.5096 3.11652C18.9998 2.23151 18.0841 1.71568 17.0675 1.73306C16.0481 1.75176 15.1547 2.302 14.6773 3.20494C14.3422 3.83933 14.0273 4.4983 13.6941 5.19602C12.3357 8.03967 10.7962 11.2627 7.4679 13.1886L3.19116 15.6632C1.71902 16.515 0.664536 17.8959 0.221852 19.5515C-0.220762 21.2071 0.00351636 22.9314 0.853438 24.4067C2.03502 26.4578 4.18622 27.6058 6.39524 27.6058C7.2009 27.6058 8.01419 27.4528 8.79106 27.1355L11.7808 32.3255C12.3994 33.3992 13.5253 34 14.6816 34C15.2484 34 15.8225 33.8556 16.3476 33.5518C17.1185 33.1057 17.6707 32.3829 17.9023 31.5166C18.1338 30.6503 18.0163 29.7477 17.5712 28.975L14.6293 23.8682C17.7266 22.3925 20.9777 22.6429 23.8723 22.8671C24.6425 22.9268 25.37 22.9832 26.0863 23.0094C27.1038 23.0459 28.0275 22.5464 28.5532 21.6709C29.079 20.7954 29.0886 19.7445 28.5788 18.8595L26.1839 14.7022L26.1839 14.7024ZM24.4501 8.67608C25.1086 8.85293 25.6573 9.27312 25.995 9.85937C26.6469 10.991 26.331 12.4204 25.307 13.18L22.7816 8.79618C23.3043 8.56867 23.8867 8.52474 24.4501 8.67608H24.4501ZM6.39237 25.8546C4.78803 25.8545 3.22535 25.0207 2.36718 23.5309C1.75069 22.4608 1.58836 21.2085 1.91023 20.0049C2.23204 18.8012 2.99736 17.798 4.06513 17.1802L7.58542 15.1433L12.2286 23.1933L8.70402 25.2327C7.97525 25.6544 7.17895 25.8547 6.39237 25.8546ZM16.2141 31.0634C16.1034 31.4777 15.8404 31.8228 15.4737 32.0349C14.712 32.4756 13.7344 32.2132 13.2945 31.4497L10.3346 26.3117L13.0977 24.713L16.0576 29.8509C16.2693 30.2184 16.3249 30.649 16.2141 31.0634H16.2141ZM27.0558 20.7677C26.8571 21.0987 26.5366 21.274 26.1502 21.259C25.4694 21.2341 24.7591 21.179 24.0071 21.1208C20.8483 20.8762 17.2966 20.6019 13.7573 22.3435L9.08406 14.2414C12.3627 12.0379 13.9021 8.81727 15.2706 5.95246C15.596 5.2712 15.9034 4.62771 16.2219 4.02486C16.4023 3.68343 16.714 3.49152 17.0994 3.48451C17.1067 3.48437 17.114 3.4843 17.1212 3.4843C17.4968 3.4843 17.8069 3.66416 17.996 3.99242L27.0653 19.7356C27.2581 20.0702 27.2548 20.4367 27.0559 20.7677L27.0558 20.7677ZM24.7857 3.5709L26.5904 0.438088C26.8318 0.0191609 27.3662 -0.124405 27.7842 0.117534C28.2022 0.359404 28.3453 0.895062 28.104 1.31392L26.2993 4.44673C26.1375 4.7277 25.8437 4.88479 25.5417 4.88479C25.3934 4.88479 25.2431 4.84695 25.1055 4.76729C24.6875 4.52542 24.5444 3.98976 24.7857 3.5709ZM32.8992 6.87566L29.6977 8.72821C29.5601 8.80781 29.4098 8.84571 29.2615 8.84571C28.9595 8.84571 28.6658 8.68863 28.5039 8.40766C28.2626 7.98873 28.4058 7.45307 28.8238 7.21127L32.0253 5.35872C32.4432 5.11678 32.9777 5.26041 33.2191 5.67927C33.4604 6.09813 33.3172 6.63386 32.8992 6.87566ZM35.3077 13.1773C35.3077 13.661 34.9164 14.0531 34.4338 14.0531H30.8242C30.3416 14.0531 29.9503 13.661 29.9503 13.1773C29.9503 12.6936 30.3416 12.3015 30.8242 12.3015H34.4338C34.9164 12.3015 35.3077 12.6936 35.3077 13.1773Z" fill="#2D3C58"/>
</svg>
