<svg width="34" height="34" viewBox="0 0 34 34" fill="none" xmlns="http://www.w3.org/2000/svg">
<path d="M27.625 23.375C26.8746 23.3787 26.1396 23.5881 25.5 23.9806L22.2169 20.6869C22.9808 19.6093 23.3911 18.3209 23.3911 17C23.3911 15.6791 22.9808 14.3907 22.2169 13.3131L25.5 10.0194C26.1396 10.4119 26.8746 10.6213 27.625 10.625C28.4656 10.625 29.2873 10.3757 29.9862 9.90875C30.6851 9.44175 31.2298 8.77799 31.5515 8.00141C31.8732 7.22482 31.9573 6.37029 31.7933 5.54587C31.6293 4.72145 31.2246 3.96417 30.6302 3.3698C30.0358 2.77542 29.2786 2.37065 28.4541 2.20666C27.6297 2.04268 26.7752 2.12684 25.9986 2.44851C25.222 2.77019 24.5583 3.31492 24.0913 4.01383C23.6243 4.71274 23.375 5.53443 23.375 6.375C23.3787 7.1254 23.5881 7.86041 23.9806 8.5L20.6869 11.7831C19.6093 11.0192 18.3209 10.6089 17 10.6089C15.6791 10.6089 14.3907 11.0192 13.3131 11.7831L10.0194 8.5C10.4119 7.86041 10.6213 7.1254 10.625 6.375C10.625 5.53443 10.3757 4.71274 9.90875 4.01383C9.44175 3.31492 8.77799 2.77019 8.00141 2.44851C7.22482 2.12684 6.37029 2.04268 5.54587 2.20666C4.72145 2.37065 3.96417 2.77542 3.3698 3.3698C2.77542 3.96417 2.37065 4.72145 2.20666 5.54587C2.04268 6.37029 2.12684 7.22482 2.44851 8.00141C2.77019 8.77799 3.31492 9.44175 4.01383 9.90875C4.71274 10.3757 5.53443 10.625 6.375 10.625C7.1254 10.6213 7.86041 10.4119 8.5 10.0194L11.7831 13.3131C11.0192 14.3907 10.6089 15.6791 10.6089 17C10.6089 18.3209 11.0192 19.6093 11.7831 20.6869L8.5 23.9806C7.86041 23.5881 7.1254 23.3787 6.375 23.375C5.53443 23.375 4.71274 23.6243 4.01383 24.0913C3.31492 24.5583 2.77019 25.222 2.44851 25.9986C2.12684 26.7752 2.04268 27.6297 2.20666 28.4541C2.37065 29.2786 2.77542 30.0358 3.3698 30.6302C3.96417 31.2246 4.72145 31.6294 5.54587 31.7933C6.37029 31.9573 7.22482 31.8732 8.00141 31.5515C8.77799 31.2298 9.44175 30.6851 9.90875 29.9862C10.3757 29.2873 10.625 28.4656 10.625 27.625C10.6213 26.8746 10.4119 26.1396 10.0194 25.5L13.3131 22.2169C14.3907 22.9808 15.6791 23.3911 17 23.3911C18.3209 23.3911 19.6093 22.9808 20.6869 22.2169L23.9806 25.5C23.5881 26.1396 23.3787 26.8746 23.375 27.625C23.375 28.4656 23.6243 29.2873 24.0913 29.9862C24.5583 30.6851 25.222 31.2298 25.9986 31.5515C26.7752 31.8732 27.6297 31.9573 28.4541 31.7933C29.2786 31.6294 30.0358 31.2246 30.6302 30.6302C31.2246 30.0358 31.6293 29.2786 31.7933 28.4541C31.9573 27.6297 31.8732 26.7752 31.5515 25.9986C31.2298 25.222 30.6851 24.5583 29.9862 24.0913C29.2873 23.6243 28.4656 23.375 27.625 23.375ZM27.625 4.25C28.0453 4.25 28.4561 4.37463 28.8056 4.60813C29.155 4.84163 29.4274 5.17351 29.5882 5.5618C29.7491 5.95009 29.7912 6.37736 29.7092 6.78957C29.6272 7.20178 29.4248 7.58042 29.1276 7.8776C28.8304 8.17479 28.4518 8.37718 28.0396 8.45917C27.6274 8.54116 27.2001 8.49908 26.8118 8.33825C26.4235 8.17741 26.0916 7.90504 25.8581 7.55559C25.6246 7.20613 25.5 6.79529 25.5 6.375C25.5 5.81142 25.7239 5.27091 26.1224 4.8724C26.5209 4.47389 27.0614 4.25 27.625 4.25ZM4.25 6.375C4.25 5.95472 4.37463 5.54387 4.60813 5.19442C4.84163 4.84496 5.17351 4.57259 5.5618 4.41176C5.95009 4.25092 6.37736 4.20884 6.78957 4.29083C7.20178 4.37283 7.58042 4.57521 7.8776 4.8724C8.17479 5.16959 8.37718 5.54823 8.45917 5.96043C8.54116 6.37264 8.49908 6.79991 8.33825 7.1882C8.17741 7.5765 7.90504 7.90838 7.55559 8.14187C7.20613 8.37537 6.79529 8.5 6.375 8.5C5.81142 8.5 5.27091 8.27612 4.8724 7.8776C4.47388 7.47909 4.25 6.93859 4.25 6.375ZM6.375 29.75C5.95472 29.75 5.54387 29.6254 5.19441 29.3919C4.84496 29.1584 4.57259 28.8265 4.41176 28.4382C4.25092 28.0499 4.20884 27.6226 4.29083 27.2104C4.37283 26.7982 4.57521 26.4196 4.8724 26.1224C5.16959 25.8252 5.54822 25.6228 5.96043 25.5408C6.37264 25.4588 6.79991 25.5009 7.1882 25.6618C7.5765 25.8226 7.90838 26.095 8.14187 26.4444C8.37537 26.7939 8.5 27.2047 8.5 27.625C8.5 28.1886 8.27612 28.7291 7.8776 29.1276C7.47909 29.5261 6.93859 29.75 6.375 29.75ZM17 21.25C16.1594 21.25 15.3377 21.0007 14.6388 20.5337C13.9399 20.0668 13.3952 19.403 13.0735 18.6264C12.7518 17.8498 12.6677 16.9953 12.8317 16.1709C12.9957 15.3464 13.4004 14.5892 13.9948 13.9948C14.5892 13.4004 15.3464 12.9957 16.1709 12.8317C16.9953 12.6677 17.8498 12.7518 18.6264 13.0735C19.403 13.3952 20.0667 13.9399 20.5337 14.6388C21.0007 15.3377 21.25 16.1594 21.25 17C21.25 18.1272 20.8022 19.2082 20.0052 20.0052C19.2082 20.8022 18.1272 21.25 17 21.25ZM27.625 29.75C27.2047 29.75 26.7939 29.6254 26.4444 29.3919C26.095 29.1584 25.8226 28.8265 25.6618 28.4382C25.5009 28.0499 25.4588 27.6226 25.5408 27.2104C25.6228 26.7982 25.8252 26.4196 26.1224 26.1224C26.4196 25.8252 26.7982 25.6228 27.2104 25.5408C27.6226 25.4588 28.0499 25.5009 28.4382 25.6618C28.8265 25.8226 29.1584 26.095 29.3919 26.4444C29.6254 26.7939 29.75 27.2047 29.75 27.625C29.75 28.1886 29.5261 28.7291 29.1276 29.1276C28.7291 29.5261 28.1886 29.75 27.625 29.75Z" fill="#2D3C58"/>
</svg>
