<svg width="34" height="34" viewBox="0 0 34 34" fill="none" xmlns="http://www.w3.org/2000/svg">
<path d="M19.0616 17.139C19.8057 16.5367 20.2826 15.6168 20.2826 14.5871C20.2826 12.7771 18.81 11.3045 17 11.3045C15.19 11.3045 13.7174 12.7771 13.7174 14.5871C13.7174 15.6168 14.1943 16.5367 14.9384 17.139C12.8667 17.8996 11.3256 19.7766 11.0781 22.0888C11.0615 22.2435 11.1115 22.398 11.2155 22.5137C11.3195 22.6294 11.4677 22.6955 11.6233 22.6955H22.3765C22.5321 22.6955 22.6803 22.6294 22.7843 22.5137C22.8883 22.398 22.9383 22.2435 22.9217 22.0888C22.6744 19.7766 21.1333 17.8996 19.0616 17.139ZM14.8143 14.5871C14.8143 13.3818 15.7948 12.4013 17.0001 12.4013C18.2054 12.4013 19.1859 13.3818 19.1859 14.5871C19.1859 15.7921 18.2057 16.7725 17.0008 16.7728C17.0005 16.7728 17.0003 16.7728 17.0001 16.7728C16.9999 16.7728 16.9996 16.7728 16.9994 16.7728C15.7944 16.7725 14.8143 15.7921 14.8143 14.5871ZM12.2723 21.5987C12.7834 19.4352 14.7176 17.8703 16.9986 17.8696H17C17 17.8696 17.001 17.8696 17.0014 17.8696C19.2823 17.8703 21.2165 19.4352 21.7276 21.5987H12.2723ZM5.76108 13.135C5.85575 13.135 5.95041 13.1106 6.03527 13.0615L11.248 10.052C11.4176 9.95404 11.5222 9.773 11.5222 9.57709V3.55792C11.5222 3.36201 11.4176 3.18097 11.248 3.08302L6.03527 0.0734668C5.86555 -0.0244889 5.65661 -0.0244889 5.48689 0.0734668L0.274194 3.08302C0.104536 3.18097 0 3.36201 0 3.55792V9.57709C0 9.773 0.104536 9.95404 0.274194 10.052L5.48689 13.0615C5.57175 13.1105 5.66642 13.135 5.76108 13.135ZM3.49563 4.62632L7.61161 2.24995L8.02647 2.48946L3.91055 4.86589L3.49563 4.62632ZM2.94731 5.57619L3.36223 5.81577V6.91953L2.94731 6.67996V5.57619ZM9.12331 3.12271L9.87707 3.55785L5.76108 5.93429L5.00732 5.49914L9.12331 3.12271ZM6.30947 11.6368V6.88416L10.4254 4.5078V9.26053L6.30947 11.6368ZM5.76108 1.18155L6.51484 1.61677L2.39892 3.99307L1.64516 3.55792L5.76108 1.18155ZM1.09677 4.50773L1.85053 4.94287V6.99645C1.85053 7.19236 1.95507 7.37339 2.12473 7.47135L3.63642 8.34411C3.72129 8.39305 3.81595 8.41759 3.91062 8.41759C4.00528 8.41759 4.09995 8.39312 4.18481 8.34411C4.35447 8.24615 4.459 8.06511 4.459 7.8692V6.44888L5.21276 6.88409V11.6368L1.09677 9.26046V4.50773ZM33.7258 3.08302L28.5131 0.0734668C28.3434 -0.0244889 28.1344 -0.0244889 27.9647 0.0734668L22.752 3.08302C22.5824 3.18097 22.4778 3.36201 22.4778 3.55792V9.57709C22.4778 9.773 22.5824 9.95404 22.752 10.052L27.9647 13.0615C28.0496 13.1105 28.1443 13.135 28.2389 13.135C28.3336 13.135 28.4282 13.1106 28.5131 13.0615L33.7258 10.052C33.8955 9.95404 34 9.773 34 9.57709V3.55792C34 3.36201 33.8955 3.18097 33.7258 3.08302ZM28.2389 5.93429L27.4852 5.49914L31.6011 3.12277L32.3548 3.55792L28.2389 5.93429ZM25.9735 4.62632L30.0894 2.24995L30.5042 2.48946L26.3884 4.86589L25.9735 4.62632ZM25.4251 5.57619L25.8401 5.81577V6.91953L25.4251 6.67996V5.57619ZM28.2389 1.18155L28.9927 1.61677L24.8768 3.99313L24.123 3.55792L28.2389 1.18155ZM23.5746 4.50773L24.3284 4.94294V6.99651C24.3284 7.19243 24.4329 7.37346 24.6026 7.47142L26.1143 8.34418C26.1991 8.39312 26.2938 8.41766 26.3885 8.41766C26.4831 8.41766 26.5778 8.39319 26.6626 8.34418C26.8323 8.24622 26.9368 8.06518 26.9368 7.86927V6.44895L27.6906 6.88409V11.6368L23.5747 9.2604V4.50773H23.5746ZM28.7873 11.6368V6.88416L32.9032 4.50773V9.26046L28.7873 11.6368ZM10.1942 23.7281C9.93184 23.5766 9.5965 23.6665 9.44514 23.9288L7.2941 27.6545C6.93902 27.5223 6.55521 27.4497 6.15462 27.4497C4.34871 27.4497 2.87951 28.919 2.87951 30.7248C2.87951 32.5307 4.34871 34 6.15469 34C7.96066 34 9.42979 32.5307 9.42979 30.7249C9.42979 29.7122 8.96764 28.8055 8.24322 28.2042L10.395 24.4773C10.5464 24.2149 10.4565 23.8795 10.1942 23.7281ZM6.15469 32.9032C4.95358 32.9032 3.97636 31.926 3.97636 30.7249C3.97636 29.5238 4.95358 28.5466 6.15469 28.5466C7.35579 28.5466 8.33302 29.5238 8.33302 30.7249C8.33302 31.926 7.35579 32.9032 6.15469 32.9032ZM17.5484 27.4965V24.203C17.5484 23.9001 17.3028 23.6546 17 23.6546C16.6972 23.6546 16.4516 23.9001 16.4516 24.203V27.4965C14.906 27.7583 13.7249 29.1059 13.7249 30.7248C13.7249 32.5307 15.1941 34 17 34C18.8059 34 20.2751 32.5307 20.2751 30.7249C20.2751 29.1059 19.094 27.7583 17.5484 27.4965ZM17 32.9032C15.7989 32.9032 14.8217 31.926 14.8217 30.7249C14.8217 29.5238 15.7989 28.5466 17 28.5466C18.2011 28.5466 19.1783 29.5238 19.1783 30.7249C19.1783 31.926 18.2011 32.9032 17 32.9032ZM27.8453 27.4497C27.4448 27.4497 27.0609 27.5223 26.7058 27.6545L24.5548 23.9288C24.4034 23.6665 24.068 23.5767 23.8057 23.7281C23.5434 23.8795 23.4536 24.2149 23.605 24.4772L25.7568 28.2042C25.0324 28.8054 24.5702 29.7121 24.5702 30.7248C24.5702 32.5307 26.0394 33.9999 27.8453 33.9999C29.6512 33.9999 31.1204 32.5307 31.1204 30.7248C31.1204 28.919 29.6513 27.4497 27.8453 27.4497ZM27.8453 32.9032C26.6442 32.9032 25.667 31.926 25.667 30.7249C25.667 29.5238 26.6442 28.5466 27.8453 28.5466C29.0464 28.5466 30.0236 29.5238 30.0236 30.7249C30.0236 31.926 29.0465 32.9032 27.8453 32.9032ZM11.8192 13.9458C12.12 13.9087 12.3934 14.1225 12.4304 14.4231L12.6442 16.1612C12.6649 16.3288 12.6071 16.4966 12.4877 16.6159C12.3843 16.7194 12.2445 16.7765 12.1 16.7765C12.0777 16.7765 12.0554 16.7752 12.0331 16.7724L10.295 16.5586C9.99442 16.5217 9.78069 16.2479 9.81771 15.9474C9.85472 15.6467 10.1289 15.4332 10.429 15.4701L10.5858 15.4893L8.6458 13.5493C8.43166 13.3351 8.43166 12.9879 8.6458 12.7738C8.85995 12.5596 9.20715 12.5596 9.42129 12.7738L11.3613 14.7138L11.3421 14.5569C11.3049 14.2564 11.5186 13.9828 11.8192 13.9458ZM21.5123 16.6159C21.3929 16.4965 21.3352 16.3288 21.3558 16.1612L21.5696 14.4231C21.6066 14.1225 21.8807 13.9087 22.1809 13.9458C22.4815 13.9828 22.6952 14.2564 22.6582 14.5571L22.6389 14.714L24.579 12.7739C24.7932 12.5598 25.1404 12.5598 25.3545 12.7739C25.5687 12.9881 25.5686 13.3353 25.3545 13.5494L23.4144 15.4895L23.5713 15.4702C23.8714 15.4331 24.1455 15.6469 24.1825 15.9475C24.2195 16.2481 24.0058 16.5217 23.7052 16.5587L21.9671 16.7725C21.9447 16.7753 21.9224 16.7767 21.9001 16.7767C21.7555 16.7766 21.6158 16.7194 21.5123 16.6159Z" fill="#2D3C58"/>
</svg>
