<svg width="48" height="48" viewBox="0 0 48 48" fill="none" xmlns="http://www.w3.org/2000/svg">
<path d="M26.9105 24.1962C27.961 23.346 28.6342 22.0472 28.6342 20.5935C28.6342 18.0382 26.5553 15.9593 24 15.9593C21.4447 15.9593 19.3658 18.0382 19.3658 20.5935C19.3658 22.0472 20.039 23.3459 21.0895 24.1962C18.1648 25.2701 15.989 27.9199 15.6397 31.1841C15.6163 31.4025 15.6868 31.6207 15.8336 31.784C15.9804 31.9474 16.1897 32.0407 16.4094 32.0407H31.5903C31.81 32.0407 32.0193 31.9474 32.1661 31.784C32.3129 31.6207 32.3834 31.4025 32.36 31.1841C32.0109 27.9199 29.8352 25.2701 26.9105 24.1962ZM20.9143 20.5935C20.9143 18.892 22.2985 17.5077 24.0001 17.5077C25.7017 17.5077 27.0859 18.892 27.0859 20.5935C27.0859 22.2947 25.7022 23.6788 24.0011 23.6793C24.0008 23.6793 24.0004 23.6793 24.0001 23.6793C23.9998 23.6793 23.9994 23.6793 23.9991 23.6793C22.298 23.6788 20.9143 22.2947 20.9143 20.5935ZM17.3256 30.4923C18.0471 27.4379 20.7778 25.2286 23.998 25.2277H24C24 25.2277 24.0014 25.2277 24.002 25.2277C27.2221 25.2286 29.9528 27.4379 30.6743 30.4923H17.3256ZM8.13329 18.5436C8.26694 18.5436 8.40058 18.509 8.52039 18.4398L15.8795 14.191C16.119 14.0528 16.2666 13.7972 16.2666 13.5206V5.02295C16.2666 4.74637 16.119 4.49079 15.8795 4.35249L8.52039 0.103718C8.28077 -0.0345726 7.98581 -0.0345726 7.74619 0.103718L0.387097 4.35249C0.147581 4.49079 0 4.74637 0 5.02295V13.5206C0 13.7972 0.147581 14.0528 0.387097 14.191L7.74619 18.4398C7.866 18.5089 7.99964 18.5436 8.13329 18.5436ZM4.935 6.53127L10.7458 3.1764L11.3315 3.51453L5.52077 6.8695L4.935 6.53127ZM4.1609 7.87227L4.74668 8.2105V9.76875L4.1609 9.43053V7.87227ZM12.88 4.40853L13.9441 5.02285L8.13329 8.37782L7.06916 7.7635L12.88 4.40853ZM8.90748 16.4285V9.71882L14.7182 6.36395V13.0737L8.90748 16.4285ZM8.13329 1.66807L9.19742 2.28249L3.38671 5.63727L2.32258 5.02295L8.13329 1.66807ZM1.54839 6.36385L2.61252 6.97817V9.87734C2.61252 10.1539 2.7601 10.4095 2.99961 10.5478L5.13377 11.7799C5.25358 11.849 5.38723 11.8837 5.52087 11.8837C5.65452 11.8837 5.78816 11.8491 5.90797 11.7799C6.14748 11.6416 6.29506 11.386 6.29506 11.1095V9.1043L7.35919 9.71872V16.4284L1.54839 13.0736V6.36385ZM47.6129 4.35249L40.2538 0.103718C40.0142 -0.0345726 39.7191 -0.0345726 39.4796 0.103718L32.1205 4.35249C31.881 4.49079 31.7334 4.74637 31.7334 5.02295V13.5206C31.7334 13.7972 31.881 14.0528 32.1205 14.191L39.4796 18.4398C39.5994 18.5089 39.7331 18.5436 39.8667 18.5436C40.0004 18.5436 40.134 18.509 40.2538 18.4398L47.6129 14.191C47.8524 14.0528 48 13.7972 48 13.5206V5.02295C48 4.74637 47.8524 4.49079 47.6129 4.35249ZM39.8667 8.37782L38.8026 7.7635L44.6133 4.40862L45.6774 5.02295L39.8667 8.37782ZM36.6684 6.53127L42.4791 3.1764L43.0648 3.51453L37.2542 6.8695L36.6684 6.53127ZM35.8943 7.87227L36.4801 8.2105V9.76875L35.8943 9.43053V7.87227ZM39.8667 1.66807L40.9308 2.28249L35.1201 5.63737L34.056 5.02295L39.8667 1.66807ZM33.2818 6.36385L34.3459 6.97827V9.87743C34.3459 10.154 34.4935 10.4096 34.733 10.5479L36.8672 11.78C36.987 11.8491 37.1206 11.8838 37.2543 11.8838C37.3879 11.8838 37.5216 11.8492 37.6414 11.78C37.8809 11.6417 38.0285 11.3861 38.0285 11.1096V9.1044L39.0926 9.71872V16.4284L33.2819 13.0735V6.36385H33.2818ZM40.6409 16.4285V9.71882L46.4516 6.36385V13.0736L40.6409 16.4285ZM14.3919 33.4985C14.0214 33.2846 13.548 33.4115 13.3343 33.7818L10.2975 39.0417C9.79626 38.855 9.25442 38.7525 8.68887 38.7525C6.13936 38.7525 4.06519 40.8268 4.06519 43.3762C4.06519 45.9256 6.13935 48 8.68897 48C11.2386 48 13.3126 45.9257 13.3126 43.3763C13.3126 41.9466 12.6602 40.6665 11.6375 39.8177L14.6752 34.5561C14.8891 34.1858 14.7621 33.7123 14.3919 33.4985ZM8.68897 46.4516C6.99329 46.4516 5.61368 45.072 5.61368 43.3763C5.61368 41.6806 6.99329 40.301 8.68897 40.301C10.3846 40.301 11.7643 41.6806 11.7643 43.3763C11.7643 45.072 10.3846 46.4516 8.68897 46.4516ZM24.7742 38.8186V34.1689C24.7742 33.7414 24.4275 33.3947 24 33.3947C23.5725 33.3947 23.2258 33.7414 23.2258 34.1689V38.8186C21.0437 39.1882 19.3763 41.0907 19.3763 43.3762C19.3763 45.9257 21.4505 48 24 48C26.5495 48 28.6237 45.9257 28.6237 43.3763C28.6237 41.0907 26.9563 39.1882 24.7742 38.8186ZM24 46.4516C22.3043 46.4516 20.9247 45.072 20.9247 43.3763C20.9247 41.6806 22.3043 40.301 24 40.301C25.6957 40.301 27.0753 41.6806 27.0753 43.3763C27.0753 45.072 25.6957 46.4516 24 46.4516ZM39.311 38.7525C38.7456 38.7525 38.2036 38.855 37.7024 39.0417L34.6656 33.7818C34.4518 33.4116 33.9784 33.2847 33.608 33.4985C33.2378 33.7123 33.1109 34.1858 33.3247 34.556L36.3625 39.8176C35.3398 40.6665 34.6874 41.9465 34.6874 43.3762C34.6874 45.9257 36.7615 47.9999 39.311 47.9999C41.8605 47.9999 43.9347 45.9256 43.9347 43.3762C43.9347 40.8268 41.8606 38.7525 39.311 38.7525ZM39.311 46.4516C37.6154 46.4516 36.2357 45.072 36.2357 43.3763C36.2357 41.6806 37.6154 40.301 39.311 40.301C41.0067 40.301 42.3863 41.6806 42.3863 43.3763C42.3863 45.072 41.0068 46.4516 39.311 46.4516ZM16.6859 19.6882C17.1105 19.6358 17.4966 19.9377 17.5488 20.3621L17.8507 22.8159C17.8798 23.0525 17.7982 23.2893 17.6297 23.4578C17.4837 23.6038 17.2864 23.6845 17.0824 23.6845C17.0509 23.6845 17.0194 23.6826 16.9878 23.6787L14.5341 23.3769C14.1098 23.3247 13.808 22.9383 13.8603 22.5139C13.9125 22.0895 14.2996 21.7881 14.7232 21.8401L14.9446 21.8673L12.2058 19.1284C11.9035 18.8261 11.9035 18.3359 12.2058 18.0336C12.5082 17.7312 12.9983 17.7312 13.3006 18.0336L16.0395 20.7725L16.0124 20.551C15.9598 20.1267 16.2615 19.7404 16.6859 19.6882ZM30.3704 23.4578C30.2018 23.2892 30.1203 23.0525 30.1494 22.8159L30.4513 20.3621C30.5034 19.9376 30.8904 19.6359 31.3142 19.6882C31.7385 19.7404 32.0403 20.1267 31.988 20.5511L31.9608 20.7727L34.6997 18.0338C35.0022 17.7314 35.4923 17.7314 35.7945 18.0338C36.097 18.3361 36.0969 18.8262 35.7945 19.1286L33.0556 21.8675L33.2771 21.8403C33.7008 21.7879 34.0877 22.0898 34.14 22.5141C34.1923 22.9385 33.8905 23.3248 33.4662 23.3771L31.0124 23.6789C30.9808 23.6828 30.9493 23.6847 30.9178 23.6847C30.7137 23.6846 30.5164 23.6039 30.3704 23.4578Z" fill="white"/>
</svg>
