<svg width="51" height="46" viewBox="0 0 51 46" fill="none" xmlns="http://www.w3.org/2000/svg">
<path d="M17.2539 7.59022L20.9656 10.577L19.7164 15.1776C19.5849 15.662 19.7619 16.1657 20.1677 16.4607C20.5733 16.7559 21.1065 16.7689 21.5261 16.494L25.5103 13.8828L29.4947 16.4941C29.696 16.6258 29.9233 16.6915 30.1503 16.6915C30.3964 16.6915 30.642 16.6143 30.853 16.4608C31.2587 16.1658 31.4358 15.6621 31.3043 15.1776L30.0549 10.5771L33.7667 7.59022C34.1575 7.27573 34.31 6.76402 34.1549 6.28647C33.9998 5.80893 33.5761 5.48467 33.0754 5.46038L28.3191 5.22825L26.6289 0.771128C26.4512 0.302645 26.0123 0 25.5104 0C25.0085 0 24.5695 0.302645 24.3919 0.771128L22.7017 5.22825L17.9455 5.46038C17.4446 5.48467 17.0208 5.80904 16.8658 6.28647C16.7106 6.76391 16.8631 7.27573 17.2539 7.59022ZM23.0752 6.85893C23.5504 6.83556 23.9666 6.53281 24.1353 6.0877L25.5103 2.46193L26.8853 6.08759C27.0541 6.53281 27.4703 6.83566 27.9456 6.85893L31.8148 7.04772L28.7954 9.47753C28.4246 9.77585 28.2657 10.2656 28.3904 10.7254L29.4068 14.4679L26.1657 12.3437C25.9666 12.2132 25.7386 12.148 25.5104 12.148C25.2822 12.148 25.0541 12.2132 24.855 12.3436L21.614 14.4678L22.6303 10.7251C22.755 10.2654 22.596 9.77564 22.2253 9.47753L19.206 7.04772L23.0752 6.85893ZM8.42746 24.6356C8.6443 25.0148 9.03667 25.2386 9.46121 25.2386C9.52455 25.2386 9.5886 25.2337 9.65287 25.2235C10.1482 25.145 10.5343 24.7768 10.6369 24.2853L11.6098 19.6183L16.2714 18.6441C16.7623 18.5414 17.13 18.1547 17.2085 17.6588C17.287 17.1631 17.0564 16.6815 16.6213 16.4322L12.4887 14.0634L13.0038 9.32394C13.058 8.82489 12.8044 8.35517 12.3575 8.12715C11.9108 7.89935 11.3821 7.96986 11.0106 8.30709L7.48346 11.5102L3.14034 9.55515C2.68392 9.34988 2.15964 9.44634 1.80481 9.80169C1.44998 10.157 1.35333 10.6818 1.55856 11.1388L3.51132 15.487L0.31207 19.0182C-0.0248719 19.39 -0.0955094 19.9194 0.132134 20.3669C0.359778 20.8144 0.828741 21.0678 1.32752 21.0139L6.06156 20.4981L8.42746 24.6356ZM4.92705 16.3757C5.24682 16.0229 5.32733 15.5142 5.13217 15.0798L3.5435 11.5424L7.07691 13.1329C7.51071 13.3281 8.01875 13.2473 8.37111 12.9277L11.2404 10.3221L10.8214 14.1778C10.77 14.6515 11.0036 15.1104 11.4164 15.3466L14.7782 17.2735L10.9862 18.0661C10.5204 18.1633 10.1566 18.5275 10.0595 18.9939L9.26801 22.7904L7.34312 19.4243C7.12832 19.0489 6.73072 18.8219 6.30556 18.8219C6.26248 18.8219 6.21919 18.8241 6.1757 18.8289L2.32446 19.2483L4.92705 16.3757ZM50.6881 19.0677L47.4888 15.5364L49.4415 11.1883C49.6469 10.7313 49.5503 10.2065 49.1954 9.8512C48.8406 9.49595 48.3165 9.39898 47.8598 9.60456L43.5167 11.5596L39.9895 8.35661C39.618 8.01917 39.0893 7.94866 38.6426 8.17646C38.1957 8.40448 37.942 8.87419 37.9963 9.37325L38.5114 14.1128L34.3788 16.4815C33.9437 16.7309 33.7131 17.2125 33.7915 17.7082C33.87 18.2041 34.2378 18.5909 34.7287 18.6935L39.3902 19.6677L40.3632 24.3346C40.4657 24.8261 40.8519 25.1945 41.3473 25.2729C41.4115 25.2831 41.4756 25.288 41.5388 25.288C41.9635 25.288 42.3558 25.064 42.5726 24.6849L44.9384 20.5475L49.6725 21.0633C50.1708 21.1168 50.6402 20.8636 50.8678 20.4162C51.0954 19.9688 51.025 19.4394 50.6881 19.0677ZM44.8245 18.8784C44.352 18.8275 43.893 19.0607 43.6567 19.474L41.7321 22.8397L40.9405 19.0431C40.8433 18.5769 40.4795 18.2128 40.0138 18.1155L36.2218 17.3229L39.5836 15.396C39.9964 15.1593 40.23 14.7005 40.1786 14.227L39.7595 10.3714L42.6285 12.9767C42.9808 13.2969 43.4888 13.3779 43.9233 13.1824L47.4564 11.592L45.8679 15.1293C45.6728 15.5636 45.7532 16.0722 46.0729 16.4252L48.6755 19.2978L44.8245 18.8784ZM41.1615 36.2654C42.5838 35.2248 43.5102 33.5433 43.5102 31.6484C43.5102 28.4965 40.9489 25.9323 37.8008 25.9323C34.6525 25.9323 32.0913 28.4965 32.0913 31.6484C32.0913 31.7594 32.0953 31.8695 32.1016 31.9789C31.1392 31.1991 30.0416 30.5915 28.8565 30.1915C30.2814 29.1511 31.2097 27.4681 31.2097 25.5712C31.2097 22.4193 28.6485 19.8551 25.5003 19.8551C22.3521 19.8551 19.7908 22.4193 19.7908 25.5712C19.7908 27.468 20.7192 29.151 22.1441 30.1914C20.9589 30.5913 19.8612 31.199 18.8988 31.9788C18.905 31.8694 18.909 31.7593 18.909 31.6483C18.909 28.4964 16.3478 25.9322 13.1995 25.9322C10.0513 25.9322 7.49004 28.4964 7.49004 31.6483C7.49004 33.5432 8.41645 35.2247 9.83877 36.2653C6.05498 37.5393 3.21838 40.9127 2.77194 45.0888C2.74706 45.3211 2.82201 45.5531 2.97799 45.7269C3.13397 45.9007 3.35637 45.9999 3.58977 45.9999L22.8093 46C23.0427 46 23.2651 45.9007 23.4211 45.727C23.5771 45.5532 23.652 45.3213 23.6271 45.0889C23.42 43.1506 22.6977 41.3856 21.605 39.9228H29.3955C28.3029 41.3856 27.5805 43.1505 27.3733 45.0888C27.3484 45.3211 27.4234 45.5531 27.5793 45.7269C27.7353 45.9007 27.9577 45.9999 28.1911 45.9999L47.4107 46C47.6441 46 47.8665 45.9007 48.0225 45.727C48.1784 45.5532 48.2534 45.3212 48.2285 45.0889C47.7821 40.9128 44.9454 37.5393 41.1615 36.2654ZM37.8007 27.5792C40.0418 27.5792 41.865 29.4045 41.865 31.6483C41.865 33.8912 40.0432 35.7159 37.8034 35.7175C37.8024 35.7175 37.8015 35.7175 37.8007 35.7175C37.7999 35.7175 37.7988 35.7175 37.798 35.7175C35.5582 35.716 33.7363 33.8913 33.7363 31.6483C33.7363 29.4046 35.5596 27.5792 37.8007 27.5792ZM21.4357 25.5714C21.4357 23.3276 23.2591 21.5022 25.5001 21.5022C27.7412 21.5022 29.5644 23.3276 29.5644 25.5714C29.5644 27.8144 27.7423 29.6393 25.5023 29.6405C25.5015 29.6405 25.5007 29.6405 25.5 29.6405C25.4993 29.6405 25.4986 29.6405 25.4979 29.6405C23.2578 29.6391 21.4357 27.8143 21.4357 25.5714ZM25.4979 31.2874H25.5001H25.5023C29.043 31.2884 32.2048 33.389 33.6016 36.5889C32.6242 37.0147 31.7233 37.5854 30.9269 38.2759H20.0732C19.2767 37.5854 18.3758 37.0148 17.3983 36.5889C18.7951 33.389 21.957 31.2884 25.4979 31.2874ZM9.13476 31.6484C9.13476 29.4047 10.958 27.5793 13.1991 27.5793C15.4403 27.5793 17.2635 29.4047 17.2635 31.6484C17.2635 33.8913 15.4416 35.716 13.2018 35.7176C13.2009 35.7176 13.2001 35.7176 13.1991 35.7176C13.1982 35.7176 13.1973 35.7176 13.1964 35.7176C10.9566 35.716 9.13476 33.8913 9.13476 31.6484ZM4.55237 44.3531C5.41123 40.3111 8.97837 37.3657 13.1971 37.3646H13.1992H13.2014C17.4202 37.3657 20.9874 40.3112 21.8463 44.3532L4.55237 44.3531ZM29.1538 44.3531C30.0127 40.3111 33.5798 37.3656 37.7985 37.3646H37.8007C37.8007 37.3646 37.8021 37.3646 37.8029 37.3646C42.0217 37.3657 45.5888 40.3112 46.4477 44.3532L29.1538 44.3531Z" fill="white"/>
</svg>
