<svg width="44" height="50" viewBox="0 0 44 50" fill="none" xmlns="http://www.w3.org/2000/svg">
<path d="M21.8796 26.7005C29.241 26.7005 35.2299 20.7116 35.2299 13.3502C35.2299 5.98887 29.241 0 21.8796 0C14.5182 0 8.5293 5.98887 8.5293 13.3502C8.5293 20.7116 14.5183 26.7005 21.8796 26.7005ZM21.8796 1.46768C28.4316 1.46768 33.7621 6.79814 33.7621 13.3502C33.7621 19.9022 28.4316 25.2328 21.8796 25.2328C15.3275 25.2328 9.99697 19.9023 9.99697 13.3502C9.99697 6.79824 15.3275 1.46768 21.8796 1.46768Z" fill="white"/>
<path d="M21.8795 23.0053C27.2033 23.0053 31.5346 18.674 31.5346 13.3503C31.5346 8.02656 27.2033 3.69531 21.8795 3.69531C19.4763 3.69531 17.1731 4.58389 15.3944 6.19736C15.0942 6.46973 15.0717 6.93379 15.3439 7.23398C15.6163 7.53418 16.0805 7.55693 16.3806 7.28447C17.8887 5.91641 19.8416 5.16299 21.8795 5.16299C26.394 5.16299 30.0669 8.83584 30.0669 13.3503C30.0669 17.8647 26.394 21.5376 21.8795 21.5376C17.365 21.5376 13.6923 17.8648 13.6923 13.3503C13.6923 11.987 14.0338 10.6377 14.68 9.44824C14.8734 9.09209 14.7416 8.64658 14.3854 8.45312C14.0294 8.25957 13.5839 8.3916 13.3903 8.74766C12.6277 10.1515 12.2246 11.7431 12.2246 13.3503C12.2246 18.674 16.5558 23.0053 21.8795 23.0053Z" fill="white"/>
<path d="M21.6015 16.8077C20.4489 16.7375 20.1323 16.0439 20.0736 15.8809C19.9896 15.5672 19.7043 15.3359 19.3642 15.3359C18.9581 15.3359 18.6289 15.6651 18.6289 16.0713C18.6289 16.1303 18.6366 16.1873 18.6497 16.2423L18.6494 16.2424C18.6501 16.245 18.6515 16.2501 18.6533 16.2565C18.6623 16.2911 18.6729 16.3251 18.6867 16.3576C18.8225 16.732 19.3663 17.8937 20.969 18.204V19.1805C20.969 19.5857 21.2977 19.9144 21.7029 19.9144C22.1083 19.9144 22.4368 19.5858 22.4368 19.1805V18.2261C23.1393 18.1038 23.6111 17.7968 23.9062 17.5191C24.4551 17.0025 24.7828 16.2217 24.7828 15.4303C24.7828 14.6866 24.4912 12.9249 21.7897 12.6269C21.2546 12.5678 20.8729 12.3975 20.655 12.1207C20.4627 11.8763 20.4419 11.6063 20.4419 11.5015C20.4419 11.3724 20.4773 10.2404 21.7029 10.2404C22.507 10.2404 22.8317 10.7519 22.8928 10.8631C23.0016 11.1332 23.2656 11.324 23.5746 11.324C23.9807 11.324 24.3099 10.9948 24.3099 10.5888C24.3099 10.4681 24.2802 10.3544 24.2286 10.2539L24.229 10.2537C24.0222 9.80411 23.4381 9.10069 22.4367 8.8585V7.87344C22.4367 7.46817 22.1082 7.13956 21.7028 7.13956C21.2976 7.13956 20.9689 7.46817 20.9689 7.87344V8.85538C19.5205 9.19932 18.974 10.5508 18.974 11.5014C18.974 12.5583 19.6692 13.8693 21.6286 14.0856C23.3149 14.2717 23.3149 15.1437 23.3149 15.4302C23.3149 15.7346 23.2061 16.1624 22.9002 16.4502C22.611 16.7224 22.1743 16.8427 21.6015 16.8077Z" fill="white"/>
<path d="M9.42734 33.9838C9.28866 33.8363 9.09521 33.7527 8.89277 33.7527C8.69032 33.7527 8.49696 33.8363 8.35819 33.9838L3.37314 39.2834C3.17255 39.4967 3.11796 39.8087 3.23407 40.0774C3.35019 40.3461 3.61493 40.52 3.90771 40.52H5.34853V43.185C5.34853 43.5902 5.67714 43.9189 6.08241 43.9189C6.48769 43.9189 6.8163 43.5902 6.8163 43.185V39.7861C6.8163 39.3809 6.48769 39.0523 6.08241 39.0523H5.60546L8.89267 35.5575L12.1799 39.0523H11.7029C11.2976 39.0523 10.969 39.3809 10.969 39.7861V48.5322H6.8161V46.1204C6.8161 45.7152 6.48749 45.3865 6.08222 45.3865C5.67694 45.3865 5.34833 45.7152 5.34833 46.1204V49.2661C5.34833 49.6714 5.67694 50 6.08222 50H11.7028C12.1081 50 12.4367 49.6714 12.4367 49.2661V40.52H13.8775C14.1702 40.52 14.435 40.3461 14.5512 40.0774C14.6673 39.8087 14.6127 39.4966 14.4121 39.2834L9.42734 33.9838Z" fill="white"/>
<path d="M22.4156 28.935C22.2769 28.7875 22.0834 28.7039 21.881 28.7039C21.6786 28.7039 21.4852 28.7875 21.3464 28.935L16.3615 34.2347C16.1609 34.448 16.1062 34.76 16.2224 35.0286C16.3385 35.2974 16.6033 35.4713 16.896 35.4713H18.3369V49.2661C18.3369 49.6714 18.6655 50 19.0707 50H24.6913C25.0967 50 25.4252 49.6714 25.4252 49.2661V35.4713H26.8661C27.1588 35.4713 27.4235 35.2974 27.5397 35.0286C27.6558 34.76 27.6011 34.4479 27.4005 34.2347L22.4156 28.935ZM24.6913 34.0036C24.286 34.0036 23.9575 34.3322 23.9575 34.7375V48.5323H19.8045V34.7374C19.8045 34.3321 19.4759 34.0035 19.0706 34.0035H18.5937L21.8809 30.5088L25.1681 34.0035L24.6913 34.0036Z" fill="white"/>
<path d="M35.402 24.2637C35.2633 24.1162 35.0699 24.0326 34.8674 24.0326C34.6651 24.0326 34.4715 24.1162 34.3329 24.2637L29.3478 29.5633C29.1472 29.7765 29.0925 30.0886 29.2087 30.3572C29.3249 30.626 29.5895 30.7999 29.8823 30.7999H31.3231V35.2783C31.3231 35.6836 31.6516 36.0122 32.057 36.0122C32.4624 36.0122 32.7909 35.6836 32.7909 35.2783V30.0661C32.7909 29.6608 32.4624 29.3322 32.057 29.3322H31.5801L34.8673 25.8375L38.1545 29.3322H37.6776C37.2722 29.3322 36.9437 29.6608 36.9437 30.0661V48.5323H32.7908V38.2138C32.7908 37.8085 32.4623 37.4799 32.0569 37.4799C31.6515 37.4799 31.323 37.8084 31.323 38.2138V49.2662C31.323 49.6715 31.6515 50.0001 32.0569 50.0001H37.6776C38.083 50.0001 38.4115 49.6715 38.4115 49.2662V30.7999H39.8523C40.1451 30.7999 40.4097 30.626 40.5259 30.3572C40.6421 30.0886 40.5874 29.7765 40.3868 29.5633L35.402 24.2637Z" fill="white"/>
<path d="M5.77197 13.6129C5.77197 13.2076 5.44336 12.879 5.03809 12.879H0.733887C0.328613 12.879 0 13.2076 0 13.6129C0 14.0182 0.328516 14.3468 0.733887 14.3468H5.03809C5.44346 14.3467 5.77197 14.0182 5.77197 13.6129Z" fill="white"/>
<path d="M5.98749 19.3721L4.45663 19.9718C4.07919 20.1196 3.89315 20.5454 4.04101 20.9228C4.15438 21.2122 4.43134 21.3891 4.7245 21.3891C4.81356 21.3891 4.90409 21.3728 4.99198 21.3383L6.52284 20.7386C6.90028 20.5907 7.08632 20.165 6.93847 19.7876C6.79052 19.4104 6.36474 19.2242 5.98749 19.3721Z" fill="white"/>
<path d="M4.45662 7.25381L5.98748 7.85352C6.07547 7.88799 6.1659 7.9043 6.25496 7.9043C6.54812 7.9043 6.82508 7.72735 6.93845 7.43799C7.08631 7.06065 6.90027 6.63487 6.52283 6.48701L4.99197 5.88731C4.61443 5.73946 4.18885 5.92559 4.04099 6.30293C3.89314 6.68018 4.07927 7.10596 4.45662 7.25381Z" fill="white"/>
<path d="M42.6846 12.879H38.3804C37.975 12.879 37.6465 13.2076 37.6465 13.6129C37.6465 14.0182 37.975 14.3468 38.3804 14.3468H42.6846C43.0899 14.3468 43.4185 14.0182 43.4185 13.6129C43.4184 13.2076 43.0898 12.879 42.6846 12.879Z" fill="white"/>
<path d="M36.896 20.7388L38.4267 21.3385C38.5147 21.3729 38.6053 21.3893 38.6943 21.3893C38.9875 21.3893 39.2644 21.2123 39.3778 20.9229C39.5257 20.5456 39.3396 20.1198 38.9623 19.972L37.4315 19.3723C37.0538 19.2244 36.6284 19.4105 36.4805 19.7879C36.3326 20.165 36.5186 20.5908 36.896 20.7388Z" fill="white"/>
<path d="M37.164 7.9043C37.253 7.9043 37.3436 7.88799 37.4315 7.85352L38.9623 7.25381C39.3396 7.10596 39.5257 6.68018 39.3778 6.30283C39.2299 5.92539 38.804 5.73955 38.4267 5.88721L36.896 6.48692C36.5186 6.63477 36.3326 7.06055 36.4805 7.43789C36.5938 7.72744 36.8708 7.9043 37.164 7.9043Z" fill="white"/>
</svg>
