<svg width="48" height="48" viewBox="0 0 48 48" fill="none" xmlns="http://www.w3.org/2000/svg">
<path d="M35.8086 12C35.8086 9.62663 35.1048 7.30655 33.7862 5.33316C32.4677 3.35977 30.5935 1.8217 28.4008 0.913451C26.2081 0.00519943 23.7953 -0.232441 21.4675 0.230582C19.1397 0.693605 17.0015 1.83649 15.3233 3.51472C13.6451 5.19295 12.5022 7.33115 12.0392 9.65892C11.5762 11.9867 11.8138 14.3995 12.722 16.5922C13.6303 18.7849 15.1684 20.6591 17.1418 21.9776C19.1151 23.2962 21.4352 24 23.8086 24C26.9901 23.9964 30.0402 22.731 32.2899 20.4813C34.5396 18.2317 35.805 15.1815 35.8086 12ZM23.8086 22.4C21.7517 22.4 19.7409 21.7901 18.0307 20.6473C16.3204 19.5045 14.9874 17.8803 14.2003 15.9799C13.4131 14.0796 13.2071 11.9885 13.6084 9.97107C14.0097 7.95366 15.0002 6.10056 16.4547 4.64609C17.9092 3.19163 19.7623 2.20112 21.7797 1.79984C23.7971 1.39855 25.8882 1.60451 27.7885 2.39166C29.6889 3.17881 31.3131 4.5118 32.4559 6.22207C33.5986 7.93235 34.2086 9.94308 34.2086 12C34.2054 14.7573 33.1087 17.4007 31.159 19.3504C29.2093 21.3001 26.5659 22.3968 23.8086 22.4Z" fill="white"/>
<path d="M23.8078 3.20001C22.0673 3.20001 20.3659 3.71612 18.9188 4.68308C17.4716 5.65004 16.3437 7.02441 15.6777 8.6324C15.0116 10.2404 14.8374 12.0098 15.1769 13.7168C15.5165 15.4238 16.3546 16.9918 17.5853 18.2226C18.816 19.4533 20.384 20.2914 22.091 20.6309C23.7981 20.9705 25.5674 20.7962 27.1754 20.1301C28.7834 19.4641 30.1578 18.3362 31.1247 16.889C32.0917 15.4419 32.6078 13.7405 32.6078 12C32.6051 9.66695 31.677 7.43024 30.0273 5.78051C28.3776 4.13079 26.1409 3.20276 23.8078 3.20001ZM23.8078 19.2C22.3838 19.2 20.9917 18.7777 19.8077 17.9866C18.6237 17.1954 17.7008 16.071 17.1559 14.7553C16.6109 13.4397 16.4683 11.992 16.7462 10.5954C17.024 9.1987 17.7097 7.91578 18.7166 6.90884C19.7236 5.90191 21.0065 5.21617 22.4032 4.93836C23.7998 4.66054 25.2475 4.80313 26.5631 5.34808C27.8788 5.89303 29.0033 6.81587 29.7944 7.99991C30.5855 9.18394 31.0078 10.576 31.0078 12C31.0055 13.9089 30.2462 15.7389 28.8964 17.0886C27.5467 18.4384 25.7167 19.1977 23.8078 19.2Z" fill="white"/>
<path d="M23.8074 9.59999C24.7842 9.59999 25.4074 10.0736 25.4074 10.4C25.4074 10.6122 25.4917 10.8156 25.6417 10.9657C25.7918 11.1157 25.9952 11.2 26.2074 11.2C26.4196 11.2 26.6231 11.1157 26.7731 10.9657C26.9231 10.8156 27.0074 10.6122 27.0074 10.4C27.0074 9.26319 26.0002 8.34319 24.6074 8.07999V7.19999C24.6074 6.98782 24.5231 6.78434 24.3731 6.63431C24.2231 6.48428 24.0196 6.39999 23.8074 6.39999C23.5952 6.39999 23.3918 6.48428 23.2417 6.63431C23.0917 6.78434 23.0074 6.98782 23.0074 7.19999V8.07999C21.6146 8.34159 20.6074 9.26159 20.6074 10.4C20.6074 11.7456 22.013 12.8 23.8074 12.8C24.7842 12.8 25.4074 13.2736 25.4074 13.6C25.4074 13.9264 24.7842 14.4 23.8074 14.4C22.8306 14.4 22.2074 13.9264 22.2074 13.6C22.2074 13.3878 22.1231 13.1843 21.9731 13.0343C21.8231 12.8843 21.6196 12.8 21.4074 12.8C21.1952 12.8 20.9918 12.8843 20.8417 13.0343C20.6917 13.1843 20.6074 13.3878 20.6074 13.6C20.6074 14.7368 21.6146 15.6568 23.0074 15.92V16.8C23.0074 17.0122 23.0917 17.2156 23.2417 17.3657C23.3918 17.5157 23.5952 17.6 23.8074 17.6C24.0196 17.6 24.2231 17.5157 24.3731 17.3657C24.5231 17.2156 24.6074 17.0122 24.6074 16.8V15.92C26.0002 15.6584 27.0074 14.7384 27.0074 13.6C27.0074 12.2544 25.6018 11.2 23.8074 11.2C22.8306 11.2 22.2074 10.7264 22.2074 10.4C22.2074 10.0736 22.8306 9.59999 23.8074 9.59999Z" fill="white"/>
<path d="M45.9914 13.088C46.0076 12.9473 46.0156 12.8057 46.0154 12.664C46.0115 11.9307 45.7572 11.2208 45.2945 10.6518C44.8318 10.0829 44.1885 9.68923 43.4714 9.53601C42.6604 9.38317 41.8216 9.54331 41.1239 9.98418C40.4262 10.4251 39.9215 11.1139 39.7114 11.912L36.1914 22.04C36.1393 22.0607 36.0885 22.0848 36.0394 22.112L28.9674 26.256C27.8853 26.8917 26.9877 27.7987 26.3633 28.8874C25.739 29.9762 25.4095 31.209 25.4074 32.464V41.6C25.1952 41.6 24.9918 41.6843 24.8417 41.8343C24.6917 41.9844 24.6074 42.1878 24.6074 42.4V47.2C24.6074 47.4122 24.6917 47.6157 24.8417 47.7657C24.9918 47.9157 25.1952 48 25.4074 48H36.6074C36.8196 48 37.0231 47.9157 37.1731 47.7657C37.3231 47.6157 37.4074 47.4122 37.4074 47.2V42.4C37.4074 42.1878 37.3231 41.9844 37.1731 41.8343C37.0231 41.6843 36.8196 41.6 36.6074 41.6V38.24C36.6089 37.9021 36.6808 37.5682 36.8186 37.2597C36.9563 36.9512 37.1569 36.6747 37.4074 36.448L42.8154 31.64C43.407 31.1224 43.8304 30.4399 44.0314 29.68L47.5034 16.696C47.5775 16.4249 47.6152 16.1451 47.6154 15.864C47.6123 15.2994 47.4605 14.7457 47.1755 14.2584C46.8904 13.7711 46.482 13.3674 45.9914 13.088ZM41.2394 12.384C41.3376 11.9703 41.5881 11.6088 41.941 11.3715C42.2939 11.1343 42.7232 11.0388 43.1434 11.104C43.502 11.1791 43.8239 11.375 44.0555 11.6589C44.287 11.9429 44.414 12.2977 44.4154 12.664V12.672C43.7004 12.688 43.01 12.9363 42.4485 13.3794C41.8871 13.8224 41.4851 14.4363 41.3034 15.128L39.0714 22.016C38.7349 21.852 38.3719 21.7491 37.9994 21.712L41.2394 12.384ZM35.8074 46.4H26.2074V43.2H35.8074V46.4ZM45.9594 16.28L42.4794 29.272C42.359 29.7235 42.1087 30.1296 41.7594 30.44L36.3434 35.248C35.9243 35.6259 35.589 36.0874 35.3589 36.6027C35.1288 37.118 35.0091 37.6757 35.0074 38.24V41.6H27.0074V32.464C27.0114 31.488 27.2685 30.5296 27.7537 29.6827C28.2389 28.8357 28.9355 28.1292 29.7754 27.632L36.8394 23.496C37.0216 23.3899 37.2229 23.3208 37.4318 23.2927C37.6407 23.2647 37.8531 23.2781 38.0568 23.3324C38.2605 23.3867 38.4515 23.4807 38.6187 23.609C38.786 23.7373 38.9262 23.8973 39.0314 24.08C39.2392 24.4497 39.2965 24.8852 39.1914 25.296C39.1359 25.4989 39.0408 25.6888 38.9118 25.8549C38.7828 26.021 38.6222 26.16 38.4394 26.264L33.8554 28.912C33.6813 29.0227 33.5567 29.1964 33.5076 29.3968C33.4585 29.5972 33.4887 29.8089 33.592 29.9875C33.6952 30.1661 33.8635 30.298 34.0617 30.3555C34.2599 30.413 34.4726 30.3916 34.6554 30.296L39.2394 27.648C39.6058 27.4401 39.9269 27.161 40.1839 26.8272C40.4408 26.4933 40.6283 26.1114 40.7354 25.704C40.9532 24.8855 40.8381 24.014 40.4154 23.28L40.3674 23.208L42.8394 15.584C42.9376 15.1703 43.1881 14.8088 43.541 14.5715C43.8939 14.3343 44.3232 14.2388 44.7434 14.304C45.102 14.3791 45.4239 14.575 45.6555 14.8589C45.887 15.1429 46.014 15.4977 46.0154 15.864C46.0181 16.0047 45.9992 16.145 45.9594 16.28Z" fill="white"/>
<path d="M22.208 41.6V32.464C22.2059 31.209 21.8764 29.9762 21.2521 28.8874C20.6278 27.7987 19.7302 26.8917 18.648 26.256L11.576 22.104C11.528 22.08 11.472 22.064 11.424 22.04L7.928 11.968C7.72392 11.1563 7.21812 10.4529 6.51361 10.0011C5.80909 9.54923 4.95884 9.38292 4.136 9.536C3.42042 9.69095 2.7791 10.0854 2.31801 10.6541C1.85691 11.2228 1.60363 11.9318 1.6 12.664C1.59979 12.8057 1.60781 12.9473 1.624 13.088C1.13341 13.3674 0.725042 13.771 0.439961 14.2584C0.15488 14.7457 0.00313919 15.2994 0 15.864C0.00155381 16.1445 0.0364656 16.4238 0.104 16.696L3.584 29.672C3.78287 30.4351 4.20653 31.1207 4.8 31.64L10.2 36.448C10.4531 36.6731 10.6558 36.9491 10.795 37.2579C10.9343 37.5666 11.0068 37.9013 11.008 38.24V41.6C10.7958 41.6 10.5923 41.6843 10.4423 41.8343C10.2923 41.9843 10.208 42.1878 10.208 42.4V47.2C10.208 47.4122 10.2923 47.6157 10.4423 47.7657C10.5923 47.9157 10.7958 48 11.008 48H22.208C22.4202 48 22.6237 47.9157 22.7737 47.7657C22.9237 47.6157 23.008 47.4122 23.008 47.2V42.4C23.008 42.1878 22.9237 41.9843 22.7737 41.8343C22.6237 41.6843 22.4202 41.6 22.208 41.6ZM3.2 12.664C3.20099 12.2988 3.32691 11.9448 3.55685 11.6611C3.78679 11.3773 4.1069 11.1807 4.464 11.104C4.89583 11.0406 5.33567 11.1431 5.69491 11.391C6.05414 11.6389 6.30609 12.0138 6.4 12.44L9.616 21.712C9.45703 21.7236 9.29921 21.7477 9.144 21.784C8.93674 21.8411 8.73573 21.9188 8.544 22.016L6.328 15.168C6.14765 14.4698 5.74483 13.8493 5.18046 13.4004C4.61609 12.9515 3.92088 12.6986 3.2 12.68V12.664ZM11.264 35.248L5.856 30.44C5.50484 30.128 5.25425 29.7187 5.136 29.264L1.656 16.28C1.61619 16.145 1.59731 16.0047 1.6 15.864C1.60099 15.4988 1.72691 15.1448 1.95685 14.8611C2.18679 14.5773 2.5069 14.3807 2.864 14.304C3.29248 14.2412 3.72889 14.3422 4.08622 14.5868C4.44355 14.8315 4.69556 15.2018 4.792 15.624L7.248 23.208C7.23482 23.2338 7.21872 23.2579 7.2 23.28C6.77709 24.0153 6.66339 24.8884 6.88391 25.7074C7.10442 26.5265 7.6411 27.2245 8.376 27.648L12.96 30.296C13.1428 30.3916 13.3555 30.4129 13.5537 30.3555C13.7519 30.298 13.9202 30.1661 14.0234 29.9875C14.1267 29.8089 14.1569 29.5972 14.1078 29.3968C14.0588 29.1964 13.9341 29.0227 13.76 28.912L9.176 26.264C8.99372 26.1595 8.83381 26.0201 8.70541 25.8537C8.57701 25.6874 8.48263 25.4974 8.42766 25.2946C8.37268 25.0918 8.3582 24.8802 8.38502 24.6718C8.41185 24.4634 8.47946 24.2623 8.584 24.08C8.79778 23.7148 9.14645 23.4481 9.55492 23.3373C9.9634 23.2266 10.399 23.2807 10.768 23.488L17.84 27.632C18.68 28.1292 19.3766 28.8357 19.8617 29.6827C20.3469 30.5296 20.604 31.488 20.608 32.464V41.6H12.608V38.24C12.6066 37.6749 12.4862 37.1164 12.2547 36.6008C12.0231 36.0853 11.6856 35.6244 11.264 35.248ZM21.408 46.4H11.808V43.2H21.408V46.4Z" fill="white"/>
</svg>
