<svg width="182" height="182" viewBox="0 0 182 182" fill="none" xmlns="http://www.w3.org/2000/svg">
<g id="arrow 1" clip-path="url(#clip0_415_4146)">
<path id="Vector" d="M156.804 76.5798C148.686 78.4187 140.569 80.2577 132.441 82.0895C129.778 82.6934 130.538 86.8523 133.194 86.2593C138.521 85.0514 143.84 83.8545 149.167 82.6465C142.819 89.1896 134.88 94.637 125.631 95.6625C121.603 96.1007 117.367 95.605 113.553 94.1461C115.867 87.2069 116.169 79.5559 114.634 72.4662C113.704 68.1819 111.238 60.9102 105.486 61.952C100.302 62.8923 97.6728 69.9555 97.0969 74.4838C95.9417 83.5696 100.78 91.7236 108.189 96.207C104.479 104.26 97.1973 110.165 88.5086 112.04C81.4987 113.549 74.2388 112.139 68.8258 107.668C71.9151 102.188 73.7437 95.7789 74.7408 89.6133C75.5995 84.3602 74.4035 78.5088 69.0744 76.1755C63.4634 73.7216 59.4371 78.5464 57.7539 83.4049C56.134 88.0696 56.2114 93.3042 57.663 97.9903C58.8423 101.842 60.8001 105.29 63.3557 108.156C59.4453 113.526 53.7298 117.551 46.8019 115.871C37.784 113.695 31.912 104.07 30.922 95.3456C30.6695 93.1298 30.7738 90.8952 31.1045 88.6979C31.5022 86.0117 27.2736 85.8183 26.8759 88.5046C25.2644 99.3301 30.1189 111.003 39.304 117.094C44.2695 120.397 50.1685 121.347 55.8059 119.322C60.1303 117.777 63.7707 114.8 66.5325 111.175C70.2886 114.194 74.8774 116.172 79.941 116.719C90.4656 117.853 101.235 112.992 107.804 104.806C109.47 102.724 110.842 100.467 111.964 98.0635C112.722 98.3678 113.501 98.6389 114.291 98.8699C125.982 102.187 137.862 97.8583 146.983 90.4221C148.546 89.15 150.012 87.7844 151.42 86.3648C149.067 91.6504 146.715 96.936 144.367 102.24C143.906 103.287 144.665 104.579 145.671 104.935C146.82 105.336 147.894 104.671 148.366 103.631C151.956 95.5469 155.546 87.4629 159.147 79.3862C159.829 77.9024 158.271 76.2488 156.804 76.5798ZM63.0452 81.9861C64.1206 80.2098 65.6818 79.1564 67.6905 80.1633C69.4094 81.0134 70.355 82.6926 70.6866 84.5212C71.1082 86.8625 70.6019 89.3059 70.0791 91.582C69.4315 94.3879 68.6891 97.1948 67.7089 99.91C67.1803 101.399 66.4991 102.93 65.6902 104.441C60.917 98.3338 58.8331 88.9298 63.0452 81.9861ZM102.697 84.2135C101.015 80.3645 100.662 75.8437 102.006 71.8454C102.646 69.9432 103.739 67.8023 105.363 66.555C107.154 65.1964 108.586 67.6458 109.252 69.0806C111.115 73.1096 111.493 78.2421 111.349 82.6122C111.242 85.8634 110.705 89.1015 109.733 92.2136C106.709 90.3117 104.217 87.6601 102.697 84.2135Z" fill="url(#paint0_linear_415_4146)"/>
</g>
<defs>
<linearGradient id="paint0_linear_415_4146" x1="63.633" y1="132.87" x2="117.294" y2="50.2463" gradientUnits="userSpaceOnUse">
<stop stop-color="#E99C00"/>
<stop offset="0.0001" stop-color="#C5AAFF"/>
<stop offset="1" stop-color="#AFCBFF"/>
</linearGradient>
<clipPath id="clip0_415_4146">
<rect width="131.353" height="131.353" fill="white" transform="translate(0 110.159) rotate(-56.9976)"/>
</clipPath>
</defs>
</svg>
