<svg width="646" height="304" viewBox="0 0 646 304" fill="none" xmlns="http://www.w3.org/2000/svg">
<mask id="mask0_1034_1368" style="mask-type:alpha" maskUnits="userSpaceOnUse" x="0" y="0" width="646" height="304">
<rect width="646" height="304" rx="10" fill="url(#paint0_linear_1034_1368)"/>
</mask>
<g mask="url(#mask0_1034_1368)">
<mask id="mask1_1034_1368" style="mask-type:luminance" maskUnits="userSpaceOnUse" x="-9" y="-39" width="665" height="399">
<path d="M655.185 360H-8.94336V-39H655.185V360Z" fill="white"/>
</mask>
<g mask="url(#mask1_1034_1368)">
<path d="M743.434 12.3645C728.597 54.3925 713.269 97.8569 686.107 134.764C656.832 174.545 615.337 200.839 569.273 208.806C557.531 210.84 545.378 211.851 532.773 211.851C498.304 211.851 460.422 204.244 417.971 188.882C392.084 179.506 366.927 167.456 342.606 155.805C323.307 146.562 303.343 136.986 283.14 128.819C272.195 124.39 257.956 119.336 244.594 119.336C244.461 119.336 244.329 119.336 244.196 119.336C237.528 119.39 231.431 120.72 226.065 123.3C220.114 126.159 214.801 130.668 210.285 136.72C201.227 148.849 195.196 163.293 189.365 177.271C188.436 179.492 187.479 181.793 186.523 184.028C178.606 202.661 169.627 223.781 158.842 243.612C135.691 286.145 102.723 312.014 48.5702 330.088C-2.27542 347.059 -84.6406 344.519 -135.035 324.409C-224.333 288.778 -239.436 263.655 -254.046 239.369C-258.204 232.453 -262.135 225.909 -267.754 219.219C-279.389 205.348 -275.405 190.146 -271.181 174.053C-269.534 167.762 -267.82 161.245 -266.97 154.581L-267.103 154.568C-267.953 161.231 -269.667 167.735 -271.314 174.026C-273.465 182.232 -275.498 189.986 -275.564 197.54C-275.631 206.039 -273.187 212.955 -267.86 219.313C-262.255 225.989 -258.323 232.533 -254.166 239.449C-246.993 251.379 -239.582 263.708 -222.766 277.553C-213.667 285.028 -202.749 292.223 -189.36 299.551C-174.258 307.824 -156.499 315.99 -135.088 324.542C-122.894 329.41 -108.589 333.333 -92.557 336.22C-77.043 339.013 -60.6124 340.702 -43.7303 341.234C-26.795 341.779 -10.2848 341.141 5.33548 339.332C21.5668 337.456 36.1245 334.384 48.5968 330.221C75.3611 321.284 95.8296 311.083 112.991 298.102C131.653 283.99 146.688 266.195 158.935 243.678C169.734 223.848 178.699 202.714 186.629 184.081C187.572 181.846 188.542 179.546 189.472 177.324C195.303 163.359 201.32 148.916 210.378 136.813C229.16 111.676 256.429 118.179 283.087 128.966C303.29 137.132 323.254 146.695 342.553 155.938C366.873 167.589 392.031 179.652 417.932 189.028C444.829 198.764 469.216 205.241 492.473 208.819C505.65 210.84 518.574 211.918 530.873 212.011C544.089 212.117 557.013 211.08 569.3 208.965C592.717 204.922 614.806 196.304 634.955 183.376C654.547 170.807 671.801 154.488 686.226 134.871C698.326 118.432 709.165 99.1205 719.379 75.8455C728.611 54.8048 736.222 33.2588 743.567 12.431L743.434 12.3645Z" fill="url(#paint1_linear_1034_1368)" fill-opacity="0.2"/>
<path d="M743.381 19.5199C724.334 61.9336 706.283 96.886 680.129 129.551C651.134 165.846 609.426 191.236 562.672 201.065C513.964 211.306 463.092 207.276 411.45 189.082C384.141 179.346 357.708 166.232 332.153 153.571C314.474 144.806 296.197 135.735 277.774 127.862C266.909 123.22 252.723 117.833 239.414 117.461C232.852 117.275 226.822 118.339 221.509 120.6C215.612 123.114 210.339 127.21 205.809 132.796C197.189 143.436 191.185 156.151 185.367 168.453C184.092 171.153 182.777 173.933 181.462 176.646C178.779 182.152 176.149 187.698 173.36 193.55C166.772 207.409 159.958 221.733 152.453 235.725C129.009 279.229 96.653 305.869 44.2799 324.835C-5.17105 342.736 -85.5305 341.034 -134.835 321.057C-221.252 286.039 -236.155 261.301 -250.566 237.387C-254.631 230.644 -258.469 224.26 -263.889 217.703C-275.538 203.592 -272.018 188.137 -268.299 171.778C-266.864 165.461 -265.376 158.93 -264.712 152.254L-264.872 152.241C-265.549 158.904 -267.023 165.434 -268.458 171.752C-272.177 188.137 -275.697 203.632 -264.008 217.81C-258.602 224.353 -254.764 230.724 -250.699 237.467C-243.606 249.237 -236.274 261.407 -219.897 275.026C-211.051 282.381 -200.438 289.457 -187.461 296.652C-172.824 304.778 -155.623 312.811 -134.889 321.204C-108.43 331.937 -73.0449 337.39 -38.2977 337.39C-8.22604 337.39 21.3808 333.307 44.3463 324.994C57.0312 320.406 68.1487 315.538 78.3497 310.138C89.1218 304.432 98.6189 298.235 107.399 291.212C125.569 276.662 140.353 258.547 152.599 235.818C160.104 221.813 166.918 207.489 173.506 193.63C176.295 187.765 178.925 182.232 181.608 176.726C182.923 174.013 184.238 171.233 185.513 168.533C191.318 156.244 197.322 143.529 205.929 132.902C224.75 109.681 251.554 116.823 277.708 128.008C296.117 135.882 314.394 144.939 332.073 153.704C357.629 166.378 384.061 179.479 411.383 189.228C463.052 207.422 513.965 211.465 562.698 201.211C586.169 196.277 608.231 187.579 628.261 175.369C648.251 163.186 665.731 147.798 680.249 129.644C692.934 113.804 704.556 96.2742 715.78 76.0449C726.897 56.0151 736.447 35.3469 743.527 19.5864L743.381 19.5199Z" fill="url(#paint2_linear_1034_1368)" fill-opacity="0.2"/>
<path d="M743.341 26.6754C722.633 63.011 700.664 94.0532 674.165 124.337C645.329 157.468 604.485 181.314 556.07 193.324C501.32 206.904 451.882 205.574 404.915 189.281C376.224 179.333 348.623 165.102 321.939 151.363C305.813 143.05 289.144 134.472 272.408 126.904C261.715 122.076 247.769 116.437 234.646 115.599C233.503 115.533 232.374 115.493 231.272 115.493C219.132 115.493 209.316 119.895 201.346 128.899C193.111 138.196 187.147 149.368 181.369 160.167C179.762 163.173 178.102 166.285 176.415 169.305C170.889 179.213 165.404 190.079 159.586 201.597C155.242 210.215 150.74 219.113 146.077 227.891C122.501 272.313 90.7821 299.751 40.0295 319.608C-8.0401 338.427 -86.3806 337.576 -134.61 317.719C-218.17 283.312 -232.874 258.947 -247.1 235.392C-251.071 228.822 -254.817 222.611 -260.024 216.187C-271.672 201.823 -268.644 186.116 -265.443 169.477C-264.221 163.133 -262.959 156.576 -262.454 149.9L-262.627 149.887C-263.118 156.563 -264.38 163.12 -265.602 169.451C-268.817 186.129 -271.858 201.876 -260.156 216.307C-254.963 222.704 -251.217 228.915 -247.246 235.485C-240.233 247.11 -232.98 259.119 -217.041 272.513C-208.434 279.748 -198.14 286.69 -185.562 293.766C-171.376 301.733 -154.733 309.633 -134.676 317.892C-122.855 322.76 -109.094 326.577 -93.7524 329.25C-78.9424 331.831 -63.2955 333.214 -47.2502 333.4C-31.2049 333.573 -15.5713 332.522 -0.774536 330.275C14.5536 327.947 28.301 324.423 40.0959 319.794C52.4487 314.953 63.3404 309.832 73.3953 304.113C83.9018 298.128 93.1996 291.678 101.833 284.363C119.539 269.374 134.07 250.927 146.263 227.971C150.926 219.193 155.415 210.282 159.772 201.677C165.576 190.172 171.075 179.293 176.587 169.398C178.274 166.379 179.935 163.266 181.542 160.261C187.306 149.461 193.284 138.302 201.492 129.032C220.354 107.726 246.693 115.506 272.341 127.09C289.064 134.645 305.734 143.237 321.859 151.536C348.557 165.288 376.158 179.506 404.862 189.467C417.201 193.75 429.899 197.035 442.584 199.243C454.884 201.384 467.569 202.568 480.293 202.767C492.566 202.967 505.291 202.249 518.095 200.653C530.382 199.123 543.173 196.716 556.11 193.511C579.74 187.645 601.775 178.867 621.593 167.429C642.022 155.632 659.741 141.175 674.285 124.47C700.784 94.1729 722.766 63.1307 743.474 26.7818L743.341 26.6754Z" fill="url(#paint3_linear_1034_1368)" fill-opacity="0.2"/>
<path d="M743.288 33.8306C722.328 62.7182 698.14 87.9217 670.128 117.102L668.188 119.123C639.936 148.769 599.996 171.126 549.469 185.584C523.143 193.125 493.722 199.828 462.375 199.828C441.774 199.828 420.349 196.929 398.393 189.467C368.56 179.333 340.016 164.064 312.402 149.288C297.618 141.388 282.343 133.208 267.068 125.933C256.562 120.932 242.854 115.027 229.89 113.724C216.409 112.367 205.623 116.038 196.91 124.975C189.02 133.075 183.083 142.837 177.345 152.294C175.419 155.459 173.439 158.731 171.394 161.923C163.305 174.531 155.282 190.039 146.781 206.465C144.484 210.894 142.119 215.482 139.742 220.004C116.218 264.825 84.1541 293.939 35.7657 314.381C-10.9357 334.105 -87.2706 334.105 -134.384 314.381C-215.089 280.599 -229.593 256.606 -243.62 233.41C-247.485 227.013 -251.151 220.962 -256.145 214.697C-267.807 200.094 -265.257 184.121 -262.561 167.216C-261.551 160.846 -260.502 154.275 -260.183 147.585L-260.382 147.572C-260.701 154.249 -261.75 160.832 -262.76 167.19C-265.469 184.134 -268.02 200.134 -256.304 214.817C-251.31 221.081 -247.657 227.12 -243.792 233.517C-236.859 244.995 -229.686 256.845 -214.185 270.012C-205.817 277.114 -195.829 283.937 -183.649 290.893C-169.928 298.713 -153.843 306.467 -134.464 314.58C-111.525 324.183 -81.2536 329.476 -49.2028 329.476C-49.1364 329.476 -49.0832 329.476 -49.0168 329.476C-33.4231 329.463 -18.2146 328.213 -3.82953 325.726C11.0337 323.172 24.3826 319.422 35.8455 314.58C59.9932 304.379 79.7443 292.25 96.2545 277.487C113.469 262.085 127.747 243.332 139.928 220.124C142.305 215.602 144.669 211.013 146.967 206.584C155.468 190.159 163.491 174.651 171.567 162.056C173.612 158.864 175.605 155.592 177.517 152.427C183.508 142.545 189.179 133.221 197.056 125.135C215.957 105.757 241.831 114.163 266.975 126.146C282.25 133.421 297.525 141.587 312.309 149.501C339.923 164.277 368.481 179.545 398.327 189.693C422.541 197.913 447.352 201.211 474.21 199.775C496.485 198.578 520.42 194.136 549.522 185.81C573.523 178.947 595.533 170.089 614.912 159.489C635.832 148.051 653.803 134.538 668.321 119.296L670.26 117.275C698.273 88.0946 722.474 62.8911 743.434 33.9902L743.288 33.8306Z" fill="url(#paint4_linear_1034_1368)" fill-opacity="0.2"/>
<path d="M743.261 40.9728C729.793 55.39 714.823 68.0649 698.977 81.4846C687.063 91.5793 674.75 102.007 662.224 113.883C635.088 139.632 596.037 160.553 542.867 177.817C508.837 188.869 476.813 198.046 443.965 198.046C426.951 198.046 409.71 195.585 391.858 189.64C361.016 179.373 331.635 163.054 303.237 147.28C289.675 139.752 275.662 131.958 261.702 124.949C251.395 119.775 237.913 113.617 225.122 111.835C222.612 111.489 220.194 111.317 217.87 111.317C207.894 111.317 199.54 114.522 192.473 121.039C184.863 128.048 179.217 136.201 173.254 144.819C171.049 148.011 168.751 151.31 166.373 154.542C155.933 168.64 145.745 188.31 134.947 209.138L133.393 212.131C109.604 257.976 78.1903 287.901 31.5154 309.141C-14.5884 330.128 -87.3635 330.953 -134.158 311.043C-212.007 277.912 -226.312 254.265 -240.153 231.416C-243.752 225.457 -247.485 219.313 -252.28 213.195C-263.942 198.338 -261.883 182.112 -259.718 164.929C-258.908 158.545 -258.071 151.935 -257.925 145.245H-258.137C-258.284 151.935 -259.12 158.532 -259.931 164.916C-262.109 182.139 -264.181 198.405 -252.452 213.341C-247.657 219.446 -243.938 225.603 -240.339 231.549C-226.485 254.438 -212.153 278.112 -134.264 311.269C-111.684 320.885 -82.0372 325.952 -50.7834 325.553C-35.628 325.353 -20.871 323.89 -6.8978 321.191C7.51379 318.411 20.451 314.434 31.5818 309.367C54.9989 298.714 74.3251 286.025 90.6494 270.597C107.359 254.81 121.385 235.738 133.565 212.264L135.119 209.271C145.905 188.457 156.106 168.799 166.519 154.714C168.91 151.496 171.195 148.184 173.4 144.992C179.364 136.374 184.995 128.247 192.593 121.252C201.253 113.272 211.879 110.279 225.082 112.115C237.847 113.883 251.302 120.041 261.596 125.202C275.556 132.211 289.569 139.991 303.13 147.519C331.542 163.306 360.936 179.625 391.792 189.893C404.556 194.136 417.241 196.716 430.537 197.767C442.611 198.724 454.91 198.378 468.126 196.742C494.014 193.524 520.314 185.411 542.947 178.069C568.011 169.93 589.37 161.231 608.231 151.496C618.658 146.109 628.38 140.337 637.134 134.352C646.418 127.995 654.919 121.172 662.384 114.083C674.896 102.206 687.209 91.7788 699.123 81.6841C714.969 68.2644 729.939 55.5762 743.421 41.159L743.261 40.9728Z" fill="url(#paint5_linear_1034_1368)" fill-opacity="0.2"/>
<path d="M743.222 48.1283C731.48 57.6777 718.689 65.7242 705.141 74.2495C689.069 84.3708 672.439 94.8246 656.261 108.67C624.542 135.815 579.846 154.236 536.279 170.089C533.795 170.994 531.325 171.898 528.868 172.803C495.382 185.052 463.199 196.822 429.155 196.822C414.956 196.822 400.425 194.774 385.35 189.866C353.591 179.519 323.506 162.149 294.404 145.351C281.971 138.169 269.114 130.761 256.349 124.018C246.228 118.672 232.985 112.261 220.354 110C217.113 109.428 214.018 109.135 211.082 109.135C202.17 109.135 194.572 111.782 188.024 117.142C180.625 123.194 174.994 130.269 169.043 137.757C166.586 140.856 164.036 144.061 161.339 147.187C149.81 160.606 138.533 181.847 127.03 204.27C102.962 251.179 72.1999 281.916 27.2517 303.914C3.42279 315.578 -27.8178 321.497 -58.6864 321.497C-85.7829 321.497 -112.6 316.935 -133.932 307.704C-208.912 275.239 -223.032 251.938 -236.686 229.407C-240.193 223.622 -243.819 217.637 -248.415 211.678C-260.077 196.57 -258.523 180.078 -256.876 162.628C-256.265 156.217 -255.64 149.594 -255.667 142.891H-255.906C-255.879 149.581 -256.504 156.204 -257.115 162.601C-258.775 180.104 -260.342 196.623 -248.614 211.811C-244.018 217.77 -240.392 223.742 -236.899 229.514C-223.231 252.071 -209.085 275.412 -134.065 307.904C-111.896 317.507 -82.9404 322.361 -52.5499 321.563C-37.8461 321.177 -23.5142 319.502 -9.95274 316.589C3.99393 313.583 16.546 309.38 27.3181 304.113C72.3195 282.089 103.122 251.326 127.216 204.363C138.706 181.953 149.983 160.726 161.485 147.32C164.182 144.181 166.732 140.976 169.189 137.877C175.14 130.389 180.758 123.327 188.143 117.302C196.804 110.226 207.323 107.912 220.287 110.213C232.892 112.46 246.108 118.871 256.216 124.204C268.981 130.934 281.825 138.356 294.258 145.538C323.373 162.335 353.471 179.719 385.243 190.066C397.609 194.096 409.829 196.33 422.62 196.915C434.083 197.434 445.785 196.596 458.39 194.362C481.914 190.199 504.747 181.847 528.921 173.002C531.378 172.098 533.862 171.193 536.332 170.289C554.968 163.506 579.222 154.329 601.51 143.489C623.958 132.57 641.916 121.225 656.393 108.843C672.558 95.0108 689.175 84.557 705.234 74.4357C718.782 65.9104 731.586 57.8506 743.341 48.2879L743.222 48.1283Z" fill="url(#paint6_linear_1034_1368)" fill-opacity="0.2"/>
<path d="M743.195 55.2704C732.011 61.9337 719.897 67.2005 707.08 72.7599C688.099 81.0059 668.454 89.5312 650.31 103.443C621.407 125.587 583.047 140.949 542.442 157.215C538.272 158.891 533.955 160.62 529.691 162.335C523.302 164.916 516.927 167.589 510.75 170.182C479.403 183.349 449.305 195.998 416.71 195.998C404.49 195.998 391.938 194.229 378.814 190.039C346.232 179.639 315.51 161.218 285.81 143.409C274.414 136.573 262.645 129.511 250.983 123.047C241.048 117.541 228.057 110.864 215.559 108.138C202.741 105.332 192.274 106.994 183.561 113.205C176.309 118.379 170.65 124.51 164.66 130.987C161.99 133.873 159.227 136.866 156.292 139.805C143.979 152.081 131.892 174.252 120.655 196.397C96.2944 244.423 66.1696 275.971 22.9614 298.674C-20.4194 321.47 -89.2496 323.97 -133.733 304.353C-205.817 272.579 -219.751 249.61 -233.219 227.386C-236.62 221.773 -240.14 215.974 -244.549 210.162C-256.225 194.787 -255.162 178.056 -254.033 160.327C-253.621 153.903 -253.21 147.253 -253.396 140.55L-253.661 140.563C-253.475 147.253 -253.887 153.903 -254.299 160.314C-255.428 178.083 -256.49 194.867 -244.762 210.322C-240.365 216.121 -236.845 221.906 -233.445 227.519C-226.737 238.584 -219.804 250.022 -205.605 262.524C-197.954 269.254 -188.909 275.718 -177.924 282.275C-165.585 289.643 -151.16 296.945 -133.839 304.579C-112.069 314.168 -83.8304 318.81 -54.29 317.626C-40.0378 317.054 -26.1442 315.166 -12.9812 312.027C0.513885 308.808 12.6541 304.379 23.0942 298.886C66.3423 276.157 96.507 244.583 120.894 196.503C132.117 174.385 144.191 152.227 156.478 139.978C159.426 137.039 162.189 134.046 164.859 131.16C170.836 124.683 176.481 118.578 183.72 113.418C192.367 107.247 202.767 105.598 215.519 108.391C227.978 111.117 240.955 117.78 250.877 123.273C262.526 129.737 274.307 136.799 285.69 143.636C315.404 161.458 346.126 179.891 378.748 190.292C426.964 205.68 467.715 188.563 510.856 170.435C517.02 167.842 523.408 165.168 529.784 162.588C534.048 160.872 538.365 159.143 542.535 157.468C583.153 141.202 621.527 125.827 650.469 103.656C668.6 89.7706 688.218 81.2453 707.186 72.9993C720.017 67.4266 732.131 62.1598 743.328 55.4832L743.195 55.2704Z" fill="url(#paint7_linear_1034_1368)" fill-opacity="0.2"/>
<path d="M743.168 62.4123C732.091 66.9476 720.136 70.113 707.465 73.4513C686.013 79.1171 663.832 84.9691 644.333 98.2292C621.274 113.91 592.172 125.84 561.37 138.475C548.844 143.609 535.907 148.916 523.076 154.608C514.19 158.545 505.411 162.787 496.936 166.897C466.785 181.474 437.882 195.452 405.778 195.452C395.019 195.452 383.915 193.883 372.279 190.252C338.927 179.825 307.66 160.34 277.429 141.494C267.015 135.004 256.243 128.287 245.617 122.103C235.881 116.437 223.13 109.521 210.763 106.302C198.158 103.031 187.798 104.015 179.098 109.308C171.885 113.697 166.147 118.977 160.077 124.563C157.261 127.157 154.352 129.83 151.231 132.463C137.749 143.848 124.971 167.216 114.266 188.563C89.5867 237.76 60.0994 270.105 18.6711 293.473C-23.3549 317.174 -90.2193 320.499 -133.547 301.041C-202.749 269.972 -216.497 247.309 -229.792 225.391C-233.087 219.951 -236.5 214.325 -240.711 208.686C-252.373 193.045 -251.828 176.048 -251.23 158.066C-251.018 151.629 -250.805 144.965 -251.164 138.249L-251.443 138.262C-251.084 144.965 -251.31 151.615 -251.509 158.053C-252.094 176.101 -252.652 193.138 -240.923 208.859C-236.726 214.485 -233.312 220.11 -230.018 225.537C-223.377 236.483 -216.523 247.788 -202.762 260.077C-195.351 266.687 -186.611 273.031 -176.038 279.468C-164.15 286.69 -150.296 293.832 -133.653 301.307C-112.295 310.896 -84.7469 315.299 -56.0698 313.729C-42.2692 312.971 -28.814 310.87 -16.0628 307.505C-3.03258 304.06 8.70923 299.418 18.8173 293.726C60.2987 270.345 89.8125 237.946 114.518 188.696C125.211 167.376 137.962 144.048 151.417 132.69C154.538 130.056 157.447 127.383 160.263 124.789C166.32 119.217 172.058 113.95 179.244 109.574C187.878 104.321 198.158 103.336 210.684 106.595C223.01 109.8 235.748 116.703 245.471 122.369C256.097 128.553 266.856 135.27 277.269 141.76C307.514 160.62 338.794 180.117 372.186 190.545C383.849 194.189 394.993 195.758 405.778 195.758C437.935 195.758 466.865 181.767 497.043 167.176C505.53 163.08 514.297 158.837 523.183 154.887C536 149.195 548.951 143.888 561.476 138.754C592.292 126.119 621.407 114.176 644.492 98.4819C663.951 85.2617 686.106 79.4097 707.531 73.7439C720.203 70.3923 732.17 67.2402 743.261 62.6916L743.168 62.4123Z" fill="url(#paint8_linear_1034_1368)" fill-opacity="0.2"/>
<path d="M743.142 69.5679C731.958 72.3476 719.884 73.7441 707.119 75.2071C683.41 77.9336 658.904 80.7665 638.369 93.0025C619.534 104.228 596.741 113.298 572.62 122.901C554.251 130.203 535.256 137.757 516.475 146.854C505.875 151.988 495.515 157.707 485.5 163.24C456.106 179.479 427.96 195.04 395.883 195.04C386.239 195.04 376.251 193.644 365.758 190.425C331.701 179.998 299.956 159.436 269.247 139.539C259.75 133.381 249.934 127.024 240.264 121.119C226.105 112.46 215.519 107.313 205.969 104.427C193.576 100.677 183.335 100.982 174.662 105.371C167.383 109.056 161.472 113.578 155.216 118.366C152.347 120.56 149.385 122.821 146.21 125.069C139.795 129.604 133.26 137.012 126.233 147.732C120.681 156.191 114.863 166.658 107.903 180.676C82.879 231.096 54.0426 264.267 14.4074 288.22C-26.2903 312.812 -91.1756 316.961 -133.321 297.689C-199.641 267.352 -213.216 244.982 -226.326 223.356C-229.513 218.089 -232.821 212.649 -236.832 207.183C-248.494 191.276 -248.454 174.026 -248.401 155.765C-248.388 149.301 -248.361 142.625 -248.893 135.908L-249.198 135.935C-248.68 142.638 -248.694 149.315 -248.72 155.765C-248.76 174.079 -248.813 191.383 -237.085 207.369C-233.086 212.822 -229.792 218.262 -226.591 223.515C-220.03 234.342 -213.242 245.527 -199.92 257.603C-192.747 264.107 -184.313 270.318 -174.138 276.622C-162.715 283.698 -149.406 290.68 -133.454 297.969C-112.507 307.545 -85.6634 311.734 -57.8364 309.753C-30.647 307.824 -4.94525 300.27 14.5535 288.486C35.1814 276.024 52.7542 261.128 68.2815 242.947C82.8259 225.909 95.8827 205.587 108.169 180.822C118.941 159.117 131.905 135.549 146.37 125.335C149.544 123.087 152.506 120.826 155.375 118.618C161.618 113.844 167.516 109.322 174.768 105.664C183.375 101.315 193.536 101.009 205.849 104.746C215.386 107.632 225.932 112.766 240.078 121.411C249.735 127.316 259.55 133.674 269.047 139.832C299.77 159.742 331.529 180.317 365.638 190.757C411.171 204.696 447.339 184.706 485.62 163.546C495.635 158.013 505.995 152.294 516.581 147.16C535.363 138.076 554.343 130.522 572.7 123.22C596.848 113.617 619.641 104.547 638.502 93.3084C658.97 81.099 683.45 78.2794 707.133 75.5529C719.911 74.0766 731.984 72.6934 743.195 69.9004L743.142 69.5679Z" fill="url(#paint9_linear_1034_1368)" fill-opacity="0.2"/>
<path d="M743.128 76.7099C731.705 77.9335 719.406 77.7473 706.376 77.5478C701.541 77.468 696.679 77.4015 691.818 77.4015C670.725 77.4015 649.818 78.8113 632.418 87.7755C616.904 95.7688 598.774 102.512 579.58 109.641C556.734 118.126 533.105 126.904 509.873 139.1C498.039 145.311 486.589 152.48 475.511 159.409C438.812 182.378 404.131 204.071 359.223 190.611C324.502 180.211 292.318 158.531 261.197 137.571C252.577 131.759 243.651 125.76 234.898 120.148C221.031 111.263 210.617 105.837 201.147 102.552C188.967 98.3224 178.845 97.9633 170.212 101.435C162.667 104.467 156.451 108.324 149.863 112.42C147.1 114.136 144.231 115.918 141.189 117.687C134.362 121.651 127.522 128.753 120.283 139.433C114.531 147.905 108.581 158.505 101.554 172.802C76.158 224.526 47.9591 258.508 10.1436 282.98C-29.8767 308.875 -91.4547 313.756 -133.095 294.338C-196.533 264.732 -209.922 242.641 -222.872 221.281C-225.954 216.2 -229.142 210.933 -232.954 205.653C-244.616 189.481 -245.081 171.965 -245.585 153.424C-245.758 146.947 -245.944 140.257 -246.622 133.541L-246.94 133.567C-246.263 140.271 -246.077 146.961 -245.904 153.424C-245.4 172.018 -244.935 189.574 -233.206 205.826C-229.407 211.106 -226.22 216.36 -223.138 221.427C-216.643 232.147 -209.935 243.226 -197.038 255.089C-190.104 261.473 -181.975 267.578 -172.199 273.736C-161.228 280.652 -148.477 287.475 -133.215 294.59C-122.709 299.498 -110.834 302.93 -97.9233 304.805C-85.597 306.587 -72.6997 306.906 -59.5765 305.749C-33.37 303.435 -8.54494 295.428 10.3296 283.219C30.28 270.305 47.4145 254.85 62.716 235.964C76.6893 218.727 89.4803 198.099 101.846 172.909C108.86 158.625 114.797 148.038 120.548 139.579C127.774 128.952 134.575 121.863 141.349 117.94C144.404 116.171 147.259 114.389 150.036 112.673C156.61 108.59 162.813 104.746 170.331 101.714C178.899 98.2692 188.94 98.6416 201.041 102.844C210.498 106.116 220.885 111.543 234.725 120.4C243.478 126.013 252.391 132.011 261.025 137.823C292.159 158.798 324.369 180.476 359.13 190.904C369.968 194.149 380.461 195.466 391.207 194.934C400.81 194.455 410.427 192.486 420.601 188.922C439.529 182.285 457.089 171.299 475.684 159.662C486.748 152.733 498.198 145.577 510.019 139.366C533.237 127.183 556.854 118.405 579.687 109.92C598.893 102.778 617.037 96.0481 632.564 88.0415C653.883 77.0424 680.568 77.4547 706.362 77.8537C719.406 78.0532 731.719 78.2394 743.155 77.0158L743.128 76.7099Z" fill="url(#paint10_linear_1034_1368)" fill-opacity="0.2"/>
<path d="M661.573 76.404C648.902 76.404 636.934 77.9734 626.454 82.5619C613.69 88.1479 599.225 93.0024 583.897 98.1495C558.62 106.635 529.983 116.238 503.272 131.373C490.521 138.595 478.301 147.173 466.479 155.473C430.962 180.397 397.423 203.938 352.701 190.824C317.356 180.45 284.787 157.654 253.307 135.616C245.511 130.163 237.448 124.51 229.558 119.217C212.158 107.539 192.619 96.1944 175.445 96.1944C172.124 96.1944 168.897 96.62 165.789 97.551C157.646 99.9849 150.846 103.283 143.633 106.768C141.243 107.925 138.772 109.122 136.169 110.332C128.93 113.697 121.77 120.507 114.292 131.147C108.368 139.579 102.298 150.312 95.1919 164.955C69.0252 218.794 42.314 252.523 5.87994 277.766C-32.7989 304.552 -92.4508 310.245 -132.87 291.013C-193.438 262.192 -206.07 241.324 -219.432 219.246C-222.394 214.352 -225.462 209.284 -229.075 204.177C-240.724 187.725 -241.72 169.956 -242.77 151.137C-243.128 144.646 -243.513 137.943 -244.337 131.24L-244.682 131.28C-243.845 137.983 -243.474 144.686 -243.115 151.163C-242.066 170.023 -241.069 187.845 -229.354 204.377C-225.755 209.471 -222.686 214.525 -219.724 219.419C-213.296 230.032 -206.654 241.005 -194.195 252.669C-187.501 258.92 -179.677 264.905 -170.3 270.943C-159.793 277.713 -147.6 284.363 -133.016 291.305C-122.695 296.213 -111.086 299.591 -98.521 301.347C-86.5534 303.009 -74.0412 303.169 -61.3298 301.812C-36.1062 299.113 -12.1578 290.667 6.09248 278.032C25.3788 264.679 42.075 248.652 57.1374 229.061C70.6856 211.439 82.879 191.117 95.524 165.088C102.63 150.472 108.687 139.739 114.598 131.333C122.036 120.746 129.142 113.963 136.328 110.638C138.931 109.428 141.402 108.231 143.793 107.074C150.992 103.589 157.779 100.291 165.895 97.8702C184.955 92.1911 208.678 105.611 229.372 119.496C237.275 124.803 245.325 130.442 253.122 135.895C284.628 157.96 317.223 180.769 352.621 191.156C363.42 194.322 373.82 195.479 384.42 194.668C393.89 193.949 403.321 191.662 413.256 187.685C431.745 180.29 448.721 168.374 466.679 155.765C478.487 147.479 490.707 138.901 503.445 131.679C530.129 116.57 558.753 106.954 584.017 98.482C599.345 93.3349 613.823 88.4804 626.601 82.8811C648.663 73.2253 677.473 76.9892 705.34 80.6201C718.728 82.3624 731.36 84.0249 743.102 84.2111V83.8653C731.373 83.6658 718.742 82.0166 705.379 80.2743C690.662 78.3591 675.693 76.404 661.573 76.404Z" fill="url(#paint11_linear_1034_1368)" fill-opacity="0.2"/>
<path d="M644.532 73.6244C635.898 73.6244 627.783 74.6884 620.504 77.3351C610.117 81.099 598.641 84.4639 586.487 88.015C558.222 96.2876 526.198 105.651 496.671 123.632C483.215 131.825 470.451 141.787 458.098 151.429C423.55 178.402 390.928 203.871 346.179 191.01C310.237 180.689 277.336 156.736 245.511 133.581C238.511 128.487 231.272 123.22 224.192 118.246C211.109 109.056 200.722 102.884 191.504 98.8412C179.722 93.6675 169.853 91.9518 161.339 93.6143C151.895 95.4497 144.245 98.2161 135.385 101.421C134.004 101.927 132.582 102.432 131.135 102.951C123.457 105.691 115.992 112.194 108.289 122.821C102.232 131.187 96.0421 142.066 88.8297 157.082C62.2114 212.423 36.1245 246.95 1.60309 272.526C-35.7342 300.177 -93.4469 306.694 -132.644 287.648C-190.33 259.625 -202.802 238.983 -216.005 217.131C-218.848 212.423 -221.796 207.555 -225.21 202.648C-236.845 185.916 -238.373 167.881 -239.98 148.796C-240.525 142.306 -241.096 135.589 -242.079 128.886L-242.437 128.939C-241.454 135.642 -240.883 142.345 -240.339 148.836C-238.718 167.975 -237.204 186.063 -225.502 202.874C-222.088 207.768 -219.153 212.636 -216.311 217.344C-209.948 227.864 -203.373 238.744 -191.339 250.222C-184.871 256.393 -177.353 262.258 -168.387 268.15C-158.332 274.76 -146.697 281.251 -132.803 288.007C-122.669 292.928 -111.339 296.253 -99.1186 297.889C-87.5096 299.445 -75.3959 299.432 -63.0963 297.876C-38.8556 294.803 -15.7971 285.906 1.82889 272.845C20.451 259.053 36.6956 242.468 51.519 222.145C64.4163 204.47 76.3706 183.855 89.1617 157.268C96.3741 142.279 102.551 131.413 108.594 123.06C116.245 112.5 123.67 106.036 131.267 103.323C132.715 102.805 134.136 102.299 135.518 101.794C144.364 98.6018 152.015 95.8354 161.419 94C169.867 92.3508 179.656 94.0532 191.371 99.2003C200.563 103.243 210.923 109.401 223.993 118.578C231.073 123.553 238.312 128.819 245.298 133.913C277.15 157.095 310.077 181.062 346.073 191.396C356.885 194.508 367.245 195.492 377.752 194.402C387.143 193.431 396.454 190.824 406.203 186.435C424.36 178.255 440.844 165.381 458.311 151.749C470.65 142.106 483.415 132.144 496.857 123.978C526.344 106.036 558.355 96.6733 586.594 88.4007C598.747 84.8496 610.223 81.4847 620.624 77.7208C643.363 69.4748 674.258 76.6701 704.131 83.6393C717.918 86.8579 730.935 89.8903 743.036 91.4331L743.075 91.074C731.002 89.5312 717.985 86.4988 704.211 83.2935C683.835 78.4922 662.982 73.6244 644.532 73.6244Z" fill="url(#paint12_linear_1034_1368)" fill-opacity="0.2"/>
<path d="M631.21 69.9801C625.272 69.9801 619.694 70.6318 614.553 72.1214C606.265 74.5154 597.352 76.6967 587.908 79.0108C557 86.5652 521.961 95.1304 490.082 115.892C476.096 125.002 462.92 136.347 450.195 147.32C422.262 171.393 395.59 194.362 361.733 194.362C354.707 194.362 347.375 193.378 339.657 191.21C303.144 180.942 269.937 155.818 237.82 131.506C231.591 126.784 225.148 121.917 218.839 117.288C206.035 107.872 195.821 101.421 186.669 96.9525C176.508 91.9916 167.755 89.5577 160.064 89.5577C158.988 89.5577 157.939 89.6109 156.903 89.704C145.466 90.7547 136.195 92.9891 126.114 95.5826C117.998 97.6707 110.201 103.855 102.272 114.482C96.0952 122.768 89.7992 133.807 82.4539 149.222C62.3575 191.436 38.1301 234.953 -2.67397 267.299C-34.0739 292.183 -88.7184 306.029 -132.445 284.323C-187.235 257.124 -199.561 236.682 -212.605 215.043C-215.328 210.535 -218.144 205.866 -221.358 201.158C-232.994 184.134 -235.039 165.833 -237.217 146.468C-237.948 139.978 -238.705 133.262 -239.847 126.545L-240.233 126.612C-239.09 133.301 -238.333 140.018 -237.616 146.508C-235.438 165.926 -233.379 184.267 -221.69 201.371C-218.489 206.066 -215.673 210.734 -212.95 215.243C-206.362 226.162 -200.146 236.483 -188.537 247.761C-182.294 253.826 -175.095 259.572 -166.514 265.344C-156.911 271.794 -145.833 278.125 -132.631 284.682C-122.682 289.616 -111.618 292.888 -99.7562 294.404C-88.5059 295.841 -76.7906 295.668 -64.9028 293.899C-41.645 290.441 -19.4764 281.104 -2.44817 267.618C15.5099 253.387 31.3161 236.23 45.8871 215.19C58.0938 197.567 69.809 176.659 82.786 149.408C90.118 134.02 96.4007 123.007 102.564 114.735C110.44 104.188 118.171 98.0564 126.193 95.9816C136.262 93.3881 145.52 91.1537 156.929 90.103C165.297 89.3316 174.967 91.699 186.483 97.3249C195.608 101.78 205.809 108.231 218.587 117.621C224.883 122.249 231.325 127.13 237.554 131.838C269.698 156.164 302.931 181.314 339.511 191.595C350.377 194.654 360.737 195.479 371.19 194.122C380.528 192.912 389.746 189.986 399.376 185.158C417.267 176.181 433.366 162.309 450.407 147.626C463.132 136.666 476.282 125.321 490.255 116.224C522.08 95.5028 557.08 86.9376 587.962 79.3965C597.406 77.0823 606.331 74.9011 614.633 72.5071C638.01 65.7374 670.951 76.4306 702.803 86.778C717.028 91.3931 730.47 95.7555 742.956 98.5884L743.036 98.216C730.576 95.3964 717.148 91.034 702.922 86.4189C678.017 78.2926 652.409 69.9801 631.21 69.9801Z" fill="url(#paint13_linear_1034_1368)" fill-opacity="0.2"/>
<path d="M619.827 65.7639C615.882 65.7639 612.123 66.123 608.603 66.8944C602.24 68.2909 595.559 69.581 588.48 70.9376C572.514 74.0099 554.423 77.4945 536.492 83.0672C515.917 89.4645 498.583 97.6706 483.494 108.151C469.083 118.153 455.641 130.854 442.65 143.143C409.603 174.372 378.403 203.858 333.149 191.409C296.091 181.208 262.605 154.861 230.222 129.391C224.723 125.069 219.052 120.6 213.513 116.344C204.189 109.175 192.58 100.264 181.808 94.1328C171.713 88.4005 163.172 85.5809 155.853 85.5809C154.698 85.5809 153.582 85.6474 152.48 85.7937C147.446 86.4321 142.717 86.6183 138.148 86.8045C132.728 87.0173 127.137 87.2301 121.12 88.2276C112.566 89.6374 104.437 95.5027 96.2811 106.129C89.9055 114.442 83.676 125.308 76.1182 141.361C52.4088 191.662 29.2175 231.442 -6.92433 262.085C-37.1687 287.741 -89.9138 302.464 -132.205 280.998C-184.114 254.637 -196.294 234.381 -209.191 212.928C-211.781 208.619 -214.464 204.164 -217.466 199.668C-229.088 182.352 -231.679 163.785 -234.428 144.128C-235.331 137.637 -236.274 130.921 -237.563 124.217L-237.961 124.297C-236.673 130.974 -235.743 137.69 -234.826 144.181C-232.077 163.878 -229.474 182.498 -217.798 199.894C-214.796 204.376 -212.113 208.832 -209.523 213.128C-203.001 223.981 -196.852 234.222 -185.654 245.327C-179.637 251.286 -172.744 256.925 -164.562 262.564C-155.41 268.868 -144.877 275.013 -132.365 281.37C-122.602 286.331 -111.817 289.536 -100.301 290.933C-89.409 292.25 -78.079 291.904 -66.6162 289.935C-44.3546 286.105 -23.0627 276.33 -6.6454 262.404C10.6485 247.735 26.0164 230.019 40.3217 208.234C55.1849 185.597 67.458 160.713 76.4901 141.561C87.9928 117.155 102.311 91.7787 121.186 88.6532C127.163 87.669 132.755 87.4429 138.161 87.2301C142.744 87.0572 147.472 86.871 152.533 86.2193C170.61 83.9184 193.27 101.328 213.261 116.69C218.799 120.946 224.484 125.414 229.97 129.737C262.38 155.233 295.891 181.607 333.029 191.835C343.974 194.84 354.361 195.519 364.801 193.896C374.126 192.446 383.277 189.175 392.801 183.908C410.493 174.119 426.247 159.236 442.916 143.476C455.906 131.2 469.335 118.512 483.72 108.523C517.524 85.0489 555.273 77.7871 588.559 71.3765C595.639 70.0199 602.333 68.7298 608.696 67.3333C632.671 62.0798 667.644 76.3108 701.474 90.0763C716.165 96.0613 730.045 101.714 742.943 105.77L743.062 105.385C730.191 101.328 716.311 95.6756 701.634 89.7039C672.678 77.8802 642.912 65.7639 619.827 65.7639Z" fill="url(#paint14_linear_1034_1368)" fill-opacity="0.2"/>
<path d="M609.652 61.1756C607.221 61.1756 604.884 61.3352 602.639 61.681C598.083 62.3726 593.394 63.011 588.427 63.6893C571.505 66.0168 552.338 68.6369 533.184 73.9436C511.149 80.0483 492.726 88.7066 476.866 100.411C462.123 111.29 448.508 125.335 435.318 138.901C402.882 172.324 372.24 203.885 326.587 191.595C288.998 181.474 255.26 153.877 222.651 127.184C217.883 123.273 212.942 119.23 208.12 115.373C190.122 100.916 167.037 84.0516 148.043 81.8571C145.4 81.5512 142.81 81.1389 140.299 80.7532C132.051 79.4498 124.254 78.2262 116.019 80.8463C107.133 83.6792 98.5657 89.9036 90.5563 99.3599C83.2907 107.938 76.2776 119.416 69.716 133.474C49.2741 177.285 26.1758 222.89 -11.2279 256.832C-40.33 283.246 -91.1624 298.873 -132.006 277.633C-181.032 252.15 -193.079 232.027 -205.831 210.734C-208.288 206.638 -210.812 202.408 -213.628 198.139C-225.237 180.517 -228.371 161.67 -231.692 141.734C-232.768 135.243 -233.897 128.54 -235.318 121.864L-235.743 121.957C-234.309 128.62 -233.193 135.323 -232.117 141.814C-228.783 161.803 -225.635 180.689 -213.986 198.378C-211.184 202.634 -208.647 206.864 -206.203 210.96C-199.747 221.747 -193.651 231.934 -182.865 242.867C-177.074 248.732 -170.486 254.265 -162.702 259.758C-154.002 265.903 -144.027 271.888 -132.205 278.019C-122.629 282.993 -112.122 286.158 -100.952 287.422C-90.4318 288.619 -79.487 288.114 -68.4492 285.932C-47.1838 281.73 -26.7553 271.502 -10.949 257.151C5.68076 242.056 20.5971 223.768 34.65 201.225C48.3443 179.253 60.2588 154.741 70.0879 133.661C83.8088 104.254 99.3095 86.6318 116.125 81.2586C124.254 78.6651 131.998 79.8887 140.207 81.1788C142.717 81.5778 145.32 81.9901 147.964 82.296C166.851 84.4639 189.87 101.302 207.815 115.719C212.623 119.589 217.564 123.632 222.333 127.529C254.981 154.249 288.745 181.873 326.428 192.021C337.466 195 347.906 195.519 358.346 193.617C367.67 191.928 376.782 188.324 386.226 182.605C403.759 171.978 419.22 156.071 435.571 139.22C448.734 125.654 462.348 111.636 477.066 100.77C512.61 74.5288 554.649 68.7699 588.427 64.1282C593.394 63.4499 598.083 62.7982 602.652 62.1199C627.212 58.4092 664.19 76.2179 699.973 93.4414C715.155 100.756 729.501 107.659 742.81 112.926L742.969 112.527C729.673 107.26 715.341 100.357 700.159 93.0557C667.63 77.3484 634.039 61.1756 609.652 61.1756Z" fill="url(#paint15_linear_1034_1368)" fill-opacity="0.2"/>
<path d="M600.314 56.2944C599.079 56.2944 597.87 56.3476 596.701 56.4407C593.859 56.6801 590.99 56.9062 587.948 57.1456C552.085 60.0051 507.443 63.5562 470.265 92.6433C455.269 104.374 441.535 119.735 428.239 134.592C396.334 170.249 366.196 203.924 320.079 191.768C281.958 181.727 248.008 152.826 215.187 124.896C211.109 121.425 206.898 117.834 202.781 114.389C185.128 99.5726 162.441 82.0299 143.633 77.9202C140.897 77.3217 138.214 76.6035 135.624 75.9252C129.554 74.3159 123.723 72.7598 117.693 72.7598C115.501 72.7598 113.283 72.9593 111.025 73.4381C106.163 74.4622 101.421 76.5237 96.9054 79.5428C92.6417 82.389 88.4444 86.2061 84.4197 90.8611C77.1542 99.2933 70.2738 110.638 63.3802 125.574C40.7069 174.625 19.1227 217.969 -15.4783 251.565C-42.5881 277.899 -90.5381 296.226 -131.767 274.255C-177.924 249.69 -189.838 229.687 -202.457 208.513C-204.768 204.643 -207.146 200.639 -209.736 196.623C-221.318 178.681 -225.011 159.569 -228.929 139.326C-230.178 132.849 -231.479 126.159 -233.047 119.509L-233.485 119.616C-231.918 126.252 -230.629 132.942 -229.367 139.419C-225.449 159.702 -221.743 178.854 -210.108 196.875C-207.518 200.892 -205.14 204.882 -202.829 208.752C-190.171 229.992 -178.23 250.049 -131.966 274.694C-113.676 284.429 -92.318 286.943 -70.1892 281.956C-49.92 277.38 -30.3681 266.714 -15.1463 251.924C-6.67201 243.691 1.16469 234.78 8.81543 224.672C15.7622 215.495 22.3902 205.534 29.0714 194.242C42.0883 172.231 53.3651 148.37 63.7919 125.8C78.4293 94.1462 93.4652 77.6542 111.131 73.9169C119.526 72.1347 127.296 74.2095 135.518 76.3907C138.121 77.0823 140.804 77.7872 143.554 78.399C162.269 82.4954 184.889 99.9849 202.502 114.775C206.606 118.219 210.83 121.81 214.894 125.282C231.112 139.087 247.875 153.358 265.302 165.368C284.973 178.947 302.852 187.738 319.973 192.247C331.13 195.186 341.637 195.559 352.103 193.391C361.441 191.449 370.539 187.512 379.904 181.341C397.317 169.876 413.216 152.121 428.584 134.951C441.867 120.108 455.601 104.773 470.557 93.0556C507.629 64.035 552.192 60.4972 588.001 57.651C591.043 57.4116 593.899 57.1855 596.755 56.9461C621.872 54.8181 660.87 76.2178 698.579 96.9259C714.265 105.544 729.089 113.671 742.836 120.121L743.022 119.709C729.288 113.272 714.478 105.132 698.791 96.5269C662.756 76.7099 625.578 56.2944 600.314 56.2944Z" fill="url(#paint16_linear_1034_1368)" fill-opacity="0.2"/>
<path d="M591.574 51.2138C591.296 51.2138 591.03 51.2138 590.751 51.2271C589.556 51.2537 588.36 51.2803 587.138 51.2936C568.516 51.666 547.423 52.0783 525.998 56.4008C501.187 61.4016 480.785 70.7382 463.663 84.916C448.481 97.4845 434.668 114.149 421.319 130.256C389.892 168.174 360.206 203.991 313.544 191.968C274.905 182.006 240.769 151.775 207.748 122.542C204.361 119.536 200.841 116.424 197.428 113.431C180.081 98.216 157.779 79.995 139.21 74.01C136.448 73.1189 133.751 72.1214 131.135 71.1505C123.869 68.4506 116.949 65.8837 109.484 65.8837C108.342 65.8837 107.186 65.9502 106.017 66.0699C95.9624 67.1738 86.8904 72.4938 78.2833 82.3358C71.1107 90.5419 64.1506 102.113 57.0179 117.714C35.0884 165.62 14.3809 210.854 -19.742 246.351C-45.7758 273.417 -91.8531 292.649 -131.555 270.943C-174.816 247.282 -186.624 227.346 -199.123 206.252C-201.275 202.634 -203.493 198.884 -205.871 195.12C-217.44 176.846 -221.703 157.441 -226.206 136.906C-227.614 130.455 -229.088 123.792 -230.789 117.168L-231.24 117.288C-229.54 123.898 -228.079 130.562 -226.658 136.999C-222.142 157.587 -217.878 177.032 -206.269 195.373C-203.891 199.123 -201.673 202.874 -199.521 206.491C-186.983 227.652 -175.148 247.628 -131.767 271.355C-113.915 281.118 -93.2345 283.405 -71.9956 277.966C-52.7226 273.031 -34.0473 261.926 -19.41 246.697C-11.2279 238.185 -3.63028 228.955 3.80795 218.501C10.4758 209.111 16.9046 198.884 23.4396 187.26C35.7924 165.261 46.8036 141.202 57.4562 117.94C64.5757 102.379 71.5092 90.8478 78.6552 82.6816C87.1693 72.9327 96.1483 67.6659 106.084 66.5753C114.797 65.6177 122.66 68.5304 130.988 71.616C133.605 72.5869 136.315 73.5977 139.091 74.4888C157.58 80.4472 179.828 98.6283 197.136 113.817C200.549 116.809 204.069 119.922 207.456 122.927C223.741 137.345 240.57 152.241 258.142 164.769C278.013 178.934 296.104 187.991 313.451 192.46C324.741 195.373 335.341 195.585 345.834 193.138C355.198 190.944 364.283 186.661 373.608 180.024C390.928 167.709 406.562 148.836 421.69 130.588C435.026 114.495 448.827 97.8569 463.969 85.315C502.422 53.4881 549.402 52.5571 587.151 51.799C588.373 51.7724 589.569 51.7458 590.764 51.7325C591.03 51.7325 591.309 51.7192 591.574 51.7192C617.276 51.7192 657.841 76.4838 697.065 100.437C713.269 110.332 728.557 119.669 742.757 127.276L742.982 126.864C728.797 119.27 713.508 109.933 697.317 100.038C658.027 76.0183 617.409 51.2138 591.574 51.2138Z" fill="url(#paint17_linear_1034_1368)" fill-opacity="0.2"/>
<path d="M559.298 45.3353C547.277 45.3353 534.406 45.9603 521.469 48.1016C495.648 52.3709 474.568 61.8938 457.062 77.1888C441.734 90.5819 427.907 108.524 414.531 125.867C399.641 145.178 384.247 165.155 367.059 178.295C347.853 192.979 328.221 197.514 307.022 192.167C267.865 182.299 233.556 150.685 200.363 120.108C197.64 117.594 194.824 115.001 192.075 112.487C180.36 101.767 170.969 93.7605 162.535 87.31C151.869 79.1572 142.797 73.5312 134.787 70.1131C134.004 69.7806 133.22 69.4481 132.436 69.1156C121.97 64.6335 112.074 60.4042 101.036 58.7283C99.7213 58.5289 98.4063 58.4224 97.1179 58.4224C88.378 58.4224 80.2092 63.0243 72.2662 72.4008C63.42 82.828 56.0615 97.8969 50.6422 109.867C49.3405 112.726 48.0521 115.573 46.777 118.419C26.2422 163.825 6.84962 206.731 -24.0323 241.138C-49.8005 269.853 -92.9821 289.177 -131.342 267.605C-171.734 244.888 -183.436 224.992 -195.842 203.924C-197.821 200.573 -199.867 197.088 -202.019 193.617C-213.574 175.01 -218.409 155.3 -223.51 134.432C-225.077 128.021 -226.698 121.398 -228.531 114.828L-229.009 114.961C-227.176 121.518 -225.555 128.141 -223.988 134.552C-218.874 155.459 -214.026 175.196 -202.43 193.87C-200.279 197.341 -198.233 200.812 -196.254 204.164C-183.822 225.298 -172.08 245.248 -131.581 268.03C-114.154 277.833 -94.1775 279.894 -73.8154 273.989C-55.5518 268.695 -37.7399 257.151 -23.6737 241.457C7.26138 206.983 26.6672 164.064 47.2153 118.605C48.5038 115.759 49.7921 112.913 51.0805 110.053C56.4865 98.1229 63.8318 83.0939 72.6382 72.7066C81.6437 62.0799 90.9017 57.6644 100.957 59.1938C111.928 60.8697 121.784 65.0857 132.237 69.5545C133.021 69.887 133.791 70.2195 134.588 70.552C152.639 78.2527 173.612 96.2477 191.73 112.833C194.479 115.346 197.295 117.94 200.018 120.454C216.342 135.496 233.224 151.057 250.943 164.091C271.013 178.867 289.303 188.191 306.876 192.619C312.667 194.082 318.405 194.814 323.931 194.827C323.944 194.827 323.957 194.827 323.971 194.827C329.231 194.827 334.477 194.162 339.564 192.846C348.969 190.398 358.067 185.77 367.352 178.668C384.592 165.487 400.013 145.484 414.916 126.146C428.279 108.816 442.093 90.8877 457.381 77.5345C497.082 42.8614 547.769 44.9495 584.774 46.479C610.967 47.5563 653.963 76.2312 695.55 103.975C712.273 115.12 728.053 125.654 742.703 134.392L742.956 133.966C728.332 125.228 712.539 114.708 695.829 103.563C654.188 75.7923 611.126 47.0775 584.8 45.9869C577.003 45.681 568.396 45.3353 559.298 45.3353Z" fill="url(#paint18_linear_1034_1368)" fill-opacity="0.2"/>
<path d="M541.074 38.4726C532.467 38.4726 523.661 38.9514 514.841 40.2016C502.807 41.904 491.61 44.963 481.568 49.2855C470.119 54.2198 459.652 61.0028 450.461 69.4483C435.026 83.6394 421.212 102.845 407.863 121.425C393.186 141.84 377.991 162.947 360.87 176.965C341.729 192.62 321.978 197.66 300.5 192.367C260.825 182.591 226.357 149.528 193.031 117.568C190.919 115.546 188.821 113.524 186.735 111.529C168.777 94.3725 148.03 75.5796 130.377 66.2164C129.381 65.6844 128.398 65.1657 127.415 64.6337C116.975 59.061 107.106 53.8075 96.042 51.3603C90.5164 50.1367 85.1104 50.7086 79.9701 53.0627C75.2681 55.2173 70.8051 58.7684 66.3156 63.9421C57.2569 74.3693 49.7921 89.7574 44.2932 102.007C41.7163 107.739 39.1528 113.538 36.6557 119.137C17.6351 162.003 -0.322968 202.488 -28.296 235.924C-51.142 263.243 -91.7867 287.063 -131.103 264.28C-168.626 242.548 -180.248 222.624 -192.561 201.517C-194.355 198.458 -196.201 195.28 -198.127 192.127C-209.683 173.135 -215.102 153.105 -220.827 131.905C-222.54 125.548 -224.32 118.977 -226.259 112.487L-226.751 112.633C-224.811 119.124 -223.032 125.694 -221.318 132.038C-215.58 153.278 -210.161 173.335 -198.565 192.38C-196.639 195.546 -194.793 198.711 -193.013 201.77C-180.66 222.93 -168.998 242.907 -131.369 264.719C-122.562 269.813 -113.158 272.792 -103.409 273.563C-94.3369 274.282 -84.986 273.098 -75.6218 270.039C-58.3677 264.4 -41.4192 252.403 -27.9108 236.257C0.102081 202.767 18.0867 162.256 37.1206 119.35C39.6044 113.751 42.1812 107.952 44.7581 102.219C50.2437 90.0101 57.6953 74.6619 66.7008 64.2879C75.9455 53.6346 85.5089 49.5781 95.9225 51.879C106.907 54.3129 116.75 59.5531 127.163 65.0992C128.146 65.6179 129.129 66.1499 130.125 66.6819C147.724 76.0185 168.432 94.7848 186.363 111.915C188.449 113.91 190.547 115.918 192.659 117.94C209.023 133.634 225.945 149.86 243.797 163.453C264.053 178.867 282.556 188.483 300.354 192.872C306.225 194.322 312.03 195.014 317.608 194.934C322.935 194.854 328.234 194.083 333.361 192.62C342.819 189.92 351.917 184.932 361.175 177.364C378.363 163.32 393.558 142.173 408.262 121.731C421.611 103.177 435.398 83.9985 450.793 69.834C488.302 35.3205 536.531 37.0229 578.797 41.3188C605.508 44.032 650.509 76.3776 694.023 107.646C711.264 120.041 727.548 131.732 742.637 141.601L742.916 141.162C727.827 131.307 711.556 119.603 694.315 107.22C650.748 75.9121 605.694 43.5266 578.836 40.8001C567.201 39.6031 554.37 38.4726 541.074 38.4726Z" fill="url(#paint19_linear_1034_1368)" fill-opacity="0.2"/>
<path d="M527.008 31.2506C520.765 31.2506 514.469 31.5565 508.2 32.3013C496.126 33.7244 484.889 36.6504 474.807 40.9995C463.371 45.9338 452.958 52.903 443.859 61.7076C428.358 76.6967 414.584 97.1521 401.275 116.929C386.784 138.462 371.788 160.726 354.707 175.609C335.606 192.26 315.735 197.793 293.965 192.553C253.759 182.871 217.604 146.761 185.699 114.894C184.251 113.445 182.804 112.008 181.369 110.572C163.876 93.1355 143.726 73.5978 125.941 62.3061C124.918 61.6544 123.896 61.0027 122.886 60.3643C112.3 53.6079 102.311 47.2239 91.0211 44.0053C85.2964 42.3694 79.7177 42.6354 74.4179 44.8166C69.6362 46.7717 64.9077 50.3627 60.365 55.4832C51.0805 65.937 43.4962 81.6443 37.9308 94.1463C34.2116 102.499 30.559 110.944 27.0125 119.124C9.39984 159.768 -7.22992 198.166 -32.5598 230.697C-54.4096 258.694 -93.261 283.432 -130.891 260.915C-165.558 240.18 -177.127 220.164 -189.387 198.964C-190.968 196.237 -192.601 193.404 -194.275 190.598C-205.817 171.233 -211.834 150.857 -218.197 129.285C-220.043 123.021 -221.956 116.53 -224.015 110.133L-224.519 110.292C-222.474 116.69 -220.561 123.167 -218.715 129.431C-212.339 151.03 -206.322 171.433 -194.74 190.864C-193.066 193.67 -191.432 196.49 -189.852 199.23C-177.565 220.483 -165.956 240.566 -131.169 261.367C-122.576 266.514 -113.451 269.454 -104.046 270.092C-95.3331 270.69 -86.3807 269.334 -77.4415 266.049C-69.1001 262.976 -60.8516 258.282 -52.9617 252.07C-45.4571 246.165 -38.4572 239.076 -32.1613 231.003C-20.6055 216.16 -10.1654 199.323 0.659927 178.003C10.2234 159.183 18.6047 139.818 27.4907 119.31C31.0371 111.13 34.6898 102.685 38.409 94.3325C43.9611 81.8571 51.5188 66.203 60.7502 55.8024C70.2473 45.1092 80.0896 41.4118 90.8618 44.4841C102.072 47.6894 112.034 54.0468 122.581 60.7766C123.59 61.4283 124.613 62.08 125.635 62.7184C143.381 73.9835 163.504 93.4946 180.971 110.918C182.405 112.354 183.853 113.79 185.301 115.24C201.678 131.599 218.627 148.517 236.625 162.681C257.066 178.761 275.768 188.696 293.819 193.032C299.77 194.468 305.641 195.107 311.286 194.947C316.665 194.801 322.005 193.91 327.172 192.314C336.682 189.361 345.807 184.014 355.039 175.968C372.173 161.032 387.182 138.741 401.7 117.182C414.996 97.4314 428.757 77.0026 444.218 62.0534C480.545 26.9281 527.499 28.8034 572.819 36.0652C600.049 40.4276 647.056 76.444 692.495 111.277C710.254 124.896 727.043 137.744 742.584 148.716L742.889 148.277C727.349 137.318 710.573 124.457 692.814 110.851C647.308 75.9785 600.261 39.9222 572.886 35.5332C558.939 33.3387 543.159 31.2506 527.008 31.2506Z" fill="url(#paint20_linear_1034_1368)" fill-opacity="0.2"/>
<path d="M514.961 23.7894C510.511 23.7894 506.035 23.9755 501.572 24.4011C489.445 25.5449 478.168 28.3379 468.06 32.7136C456.637 37.6612 446.277 44.8167 437.245 53.967C421.704 69.7276 408.01 91.4065 394.754 112.381C380.435 135.031 365.638 158.452 348.583 174.239C329.51 191.888 309.506 197.94 287.431 192.753C246.693 183.163 210.418 145.418 178.407 112.115L176.003 109.614C156.85 89.7042 138.254 70.7915 121.505 58.396C120.562 57.7044 119.619 56.9995 118.689 56.3079C107.864 48.2747 97.6494 40.6803 86.0005 36.6371C80.0898 34.5889 74.3384 34.549 68.866 36.5441C63.9382 38.3395 59.0768 41.8508 54.4146 46.9979C44.8777 57.4916 37.1871 73.5047 31.5553 86.2727C26.8134 97.0324 22.2044 107.978 17.7547 118.565C1.47032 157.255 -13.9109 193.803 -36.8499 225.471C-58.6731 255.582 -94.7751 279.841 -130.665 257.59C-162.49 237.866 -174.045 217.663 -186.265 196.277C-187.607 193.936 -188.988 191.502 -190.396 189.108C-201.952 169.305 -208.593 148.543 -215.62 126.572C-217.586 120.427 -219.618 114.07 -221.743 107.805L-222.274 107.992C-220.149 114.256 -218.117 120.613 -216.151 126.745C-209.111 148.743 -202.47 169.531 -190.888 189.388C-189.48 191.795 -188.098 194.216 -186.757 196.556C-174.497 218.009 -162.915 238.265 -130.957 258.069C-122.562 263.269 -113.729 266.169 -104.697 266.701C-96.3425 267.193 -87.8018 265.65 -79.2877 262.125C-71.3978 258.867 -63.5877 253.933 -56.083 247.455C-49.03 241.377 -42.4153 234.089 -36.3983 225.79C-26.0777 211.545 -16.2885 194.827 -6.45938 174.665C2.33368 156.643 10.4228 137.398 18.2595 118.778C22.7091 108.191 27.3182 97.2453 32.06 86.4855C37.6786 73.7574 45.3293 57.7974 54.8131 47.3702C64.5625 36.6371 74.6971 33.2989 85.8013 37.1559C97.3704 41.1725 107.558 48.7401 118.344 56.7467C119.287 57.4383 120.216 58.1433 121.173 58.8349C137.895 71.2039 156.465 90.0898 175.605 109.987L178.009 112.487C194.4 129.538 211.348 147.173 229.492 161.95C250.12 178.734 269.034 188.989 287.311 193.285C293.341 194.708 299.305 195.306 305.003 195.067C310.436 194.841 315.829 193.843 321.022 192.101C330.599 188.896 339.737 183.177 348.969 174.651C366.077 158.824 380.9 135.363 395.232 112.687C408.461 91.7523 422.156 70.0999 437.643 54.366C474.489 16.9797 523.634 21.5284 566.842 30.9049C594.59 36.9298 643.589 76.6435 690.981 115.041C709.271 129.87 726.552 143.862 742.544 155.925L742.876 155.473C726.884 143.423 709.617 129.418 691.327 114.602C643.895 76.1515 594.842 36.3978 566.962 30.3595C552.285 27.1675 533.888 23.7894 514.961 23.7894Z" fill="url(#paint21_linear_1034_1368)" fill-opacity="0.2"/>
<path d="M504.109 16.1816C478.088 16.1816 452.041 23.47 430.643 46.2263C415.089 62.7582 401.474 85.6475 388.311 107.779C374.166 131.559 359.541 156.164 342.5 172.842C323.439 191.502 303.29 198.072 280.895 192.925C239.613 183.442 203.232 143.981 171.128 109.162L168.87 106.715C151.483 87.8553 133.499 68.3575 117.068 54.4856C116.271 53.8206 115.488 53.1556 114.704 52.4773C103.586 43.0609 93.08 34.1632 80.9796 29.2555C77.3667 27.7925 73.9265 27.1142 70.6458 27.1142C50.6024 27.1142 36.5096 52.4773 25.1928 78.3857C19.5079 91.4064 14.0753 104.733 8.82874 117.621C-6.20712 154.542 -20.3929 189.401 -41.127 220.217C-49.4817 232.639 -63.2557 249.224 -81.3864 257.643C-98.2553 265.477 -114.765 264.333 -130.439 254.225C-159.461 235.539 -171.03 215.043 -183.277 193.338C-184.34 191.462 -185.429 189.521 -186.531 187.592C-198.127 167.283 -205.419 146.083 -213.136 123.646C-215.182 117.687 -217.307 111.529 -219.485 105.451L-220.03 105.651C-217.851 111.715 -215.726 117.873 -213.681 123.832C-205.95 146.309 -198.658 167.522 -187.036 187.885C-185.947 189.8 -184.844 191.742 -183.782 193.617C-171.495 215.389 -159.886 235.951 -130.758 254.73C-122.576 259.997 -114.035 262.883 -105.361 263.282C-97.3786 263.655 -89.2231 261.939 -81.134 258.188C-73.6958 254.73 -66.3107 249.557 -59.2045 242.827C-52.6031 236.576 -46.3603 229.075 -40.6222 220.563C-31.2979 206.704 -22.3853 190.558 -13.3531 171.206C-5.29063 153.916 2.17416 135.589 9.3866 117.86C14.6332 104.972 20.0658 91.6458 25.7374 78.6384C38.7942 48.74 55.5435 19.5731 80.7803 29.8141C92.8011 34.6952 103.268 43.553 114.345 52.9428C115.129 53.6078 115.926 54.2861 116.71 54.9511C133.114 68.7964 151.085 88.2809 168.458 107.127L170.717 109.574C187.107 127.343 204.042 145.724 222.319 161.125C243.133 178.668 262.26 189.254 280.776 193.51C286.899 194.92 292.929 195.466 298.707 195.146C304.206 194.84 309.652 193.723 314.885 191.848C324.529 188.377 333.707 182.299 342.925 173.268C360.02 156.536 374.657 131.905 388.829 108.085C401.979 85.98 415.567 63.1173 431.081 46.6386C468.419 6.93808 520.061 14.5989 560.878 25.7177C589.13 33.4051 640.135 76.8296 689.467 118.831C708.275 134.844 726.047 149.98 742.504 163.107L742.863 162.654C726.419 149.527 708.647 134.405 689.839 118.392C640.468 76.3508 589.409 32.8864 561.025 25.1591C543.399 20.3445 523.754 16.1816 504.109 16.1816Z" fill="url(#paint22_linear_1034_1368)" fill-opacity="0.2"/>
<path d="M493.921 8.50746C492.048 8.50746 490.176 8.54736 488.303 8.64046C476.069 9.22566 464.713 11.7527 454.565 16.1683C443.155 21.1292 432.888 28.6437 424.042 38.499C408.501 55.789 394.993 79.862 381.936 103.15C367.949 128.074 353.485 153.863 336.47 171.459C317.423 191.143 297.114 198.245 274.387 193.151C232.56 183.775 195.276 141.601 165.311 107.712C162.654 104.706 159.971 101.661 157.368 98.6948C142.491 81.7905 127.11 64.3143 112.659 50.602C112.074 50.0434 111.49 49.4848 110.892 48.9262C99.9339 38.5123 88.6039 27.7393 75.9722 21.9139C68.959 18.682 62.1317 18.283 55.6897 20.7568C48.5304 23.4966 41.7829 29.6411 35.0619 39.5231C29.8286 47.2238 24.6749 57.0791 18.8439 70.552C12.2823 85.714 6.14575 101.355 0.20845 116.503C-13.021 150.219 -26.702 185.078 -45.3773 215.043C-60.4928 239.289 -78.4509 254.704 -95.944 258.441C-107.593 260.928 -119.109 258.401 -130.2 250.94C-156.473 233.211 -168.135 212.237 -180.474 190.026C-181.205 188.722 -181.935 187.406 -182.666 186.089C-194.341 165.181 -202.709 142.412 -210.798 120.4C-212.884 114.735 -215.035 108.883 -217.227 103.11L-217.785 103.323C-215.593 109.082 -213.442 114.947 -211.369 120.613C-203.267 142.651 -194.886 165.434 -183.197 186.382C-182.467 187.698 -181.736 189.002 -181.006 190.318C-174.776 201.53 -168.892 212.117 -161.108 222.425C-152.289 234.102 -142.579 243.319 -130.572 251.405C-119.348 258.973 -107.659 261.527 -95.851 259C-86.4868 256.991 -77.096 251.818 -67.9444 243.612C-59.7889 236.283 -52.0318 226.774 -44.8991 215.336C-36.5045 201.863 -28.4022 186.275 -20.1404 167.682C-12.7686 151.083 -5.9015 133.607 0.726486 116.69C6.6638 101.554 12.8003 85.9135 19.3619 70.7648C27.9292 50.9611 39.8304 27.4333 55.8757 21.302C62.1583 18.8947 68.8262 19.2805 75.6932 22.4459C88.2453 28.2314 99.5354 38.9645 110.454 49.3518C111.038 49.9104 111.623 50.4689 112.22 51.0276C126.645 64.7265 141.336 81.4181 156.89 99.0805C159.493 102.033 162.189 105.092 164.833 108.098C179.271 124.43 197.242 144.753 215.931 160.925C236.625 178.827 255.685 189.56 274.228 193.723C280.444 195.12 286.567 195.625 292.398 195.213C297.964 194.827 303.463 193.604 308.736 191.569C318.459 187.831 327.663 181.381 336.868 171.858C353.95 154.209 368.428 128.394 382.427 103.43C395.471 80.1812 408.966 56.1348 424.467 38.898C461.884 -2.73105 513.805 7.20406 554.862 20.5041C583.618 29.9337 636.669 77.0956 687.993 122.715C707.305 139.872 725.542 156.084 742.425 170.275L742.81 169.81C725.928 155.632 707.704 139.433 688.391 122.262C637.027 76.6035 583.924 29.4018 555.048 19.9322C539.613 14.9181 516.993 8.50746 493.921 8.50746Z" fill="url(#paint23_linear_1034_1368)" fill-opacity="0.2"/>
<path d="M484.384 0.700439C483.481 0.700439 482.578 0.71373 481.675 0.72702C469.375 1.03293 457.992 3.44023 447.831 7.88243C436.434 12.8566 426.207 20.5573 417.44 30.7451C401.926 48.7799 388.537 74.0233 375.587 98.4288C361.76 124.51 347.454 151.483 330.439 169.996C311.392 190.731 290.91 198.352 267.852 193.298C225.52 184.041 187.625 139.34 159.958 106.715C155.322 101.248 150.647 95.6624 146.131 90.2493C133.061 74.5952 120.708 59.819 108.222 46.6653L107.186 45.5746C95.8826 33.6578 84.194 21.3287 70.9513 14.5191C63.6326 10.7552 56.5131 10.0769 49.7921 12.5108C42.5 15.1442 35.6329 21.2755 28.819 31.2638C23.4661 39.0975 18.2726 49.0592 12.4681 62.6385C4.99005 80.0083 -1.85046 98.1495 -8.45189 115.692C-20.5257 147.732 -32.9981 180.849 -49.6677 209.763C-60.1078 227.878 -77.0165 250.435 -98.2686 255.103C-108.948 257.444 -119.614 254.903 -129.987 247.548C-153.577 230.844 -165.983 208.101 -177.977 186.089L-178.801 184.586C-190.635 162.881 -199.854 139.326 -208.753 116.557C-210.772 111.383 -212.87 106.036 -214.969 100.77L-215.54 100.996C-213.442 106.263 -211.356 111.609 -209.324 116.77C-200.411 139.566 -191.193 163.133 -179.332 184.879L-178.509 186.382C-172.492 197.421 -166.275 208.832 -158.731 219.339C-150.27 231.123 -140.985 240.526 -130.346 248.067C-119.826 255.528 -108.988 258.109 -98.1225 255.728C-89.0903 253.746 -80.0316 248.346 -71.1987 239.662C-63.4816 232.067 -56.0433 222.119 -49.1098 210.096C-32.4136 181.128 -19.928 147.985 -7.85419 115.932C-1.25275 98.4023 5.58775 80.2743 13.0526 62.9045C18.8438 49.3651 24.0107 39.4301 29.337 31.6362C36.0845 21.7677 42.8453 15.7028 50.0179 13.1226C56.5795 10.7552 63.5263 11.4202 70.6856 15.1043C83.8354 21.8607 95.4842 34.1499 106.748 46.0268L107.784 47.1174C120.243 60.2578 132.596 75.0341 145.666 90.6749C150.182 96.088 154.857 101.687 159.493 107.154C175.963 126.585 192.221 145.325 209.86 160.965C230.315 179.107 249.243 189.893 267.732 193.936C274.055 195.319 280.245 195.772 286.155 195.279C291.787 194.814 297.339 193.471 302.652 191.289C312.455 187.273 321.699 180.463 330.904 170.435C347.972 151.855 362.304 124.856 376.145 98.7347C389.069 74.3558 402.444 49.139 417.918 31.1574C455.906 -12.9853 510.87 0.953125 548.911 15.2905C578.159 26.396 633.242 77.3084 686.505 126.545C706.336 144.872 725.064 162.189 742.398 177.431L742.81 176.965C725.476 161.737 706.747 144.42 686.93 126.093C633.627 76.8164 578.504 25.8507 549.137 14.7186C537.143 10.1966 526.41 6.88493 516.329 4.59734C504.972 2.00385 494.253 0.700439 484.384 0.700439Z" fill="url(#paint24_linear_1034_1368)" fill-opacity="0.2"/>
<path d="M475.312 -7.1731C475.219 -7.1731 475.14 -7.1731 475.06 -7.1731C462.707 -7.14648 451.284 -4.85892 441.096 -0.403412C429.7 4.58409 419.526 12.471 410.826 23.0046C395.351 41.7709 382.109 68.1581 369.291 93.6675C355.61 120.893 341.464 149.062 324.449 168.507C305.388 190.292 284.747 198.458 261.33 193.511C221.775 185.012 186.921 145.511 154.605 105.784C148.189 97.8969 141.747 89.744 135.531 81.8571C125.157 68.7034 114.412 55.0975 103.786 42.7817L103.56 42.5157C91.8979 29.0029 79.8374 15.0246 65.9305 7.1776C58.3329 2.89499 50.9345 1.92412 43.9479 4.30481C36.523 6.83182 29.5496 12.9631 22.6161 23.0578C17.1703 30.9979 11.9237 41.0793 6.10591 54.7916C-2.10271 74.0766 -9.448 94.4256 -16.5409 114.11C-27.592 144.779 -39.0282 176.487 -53.9445 204.55C-60.6523 217.171 -67.7318 227.545 -74.9576 235.352C-83.3787 244.436 -91.9858 250.009 -100.54 251.911C-110.289 254.079 -120.118 251.485 -129.761 244.223C-150.801 228.357 -163.619 204.31 -174.922 183.083C-187.142 160.141 -197.409 135.336 -207.345 111.343C-209.098 107.114 -210.905 102.738 -212.711 98.4289L-213.309 98.6816C-211.516 102.991 -209.696 107.367 -207.943 111.596C-198.007 135.602 -187.727 160.42 -175.493 183.389C-169.025 195.532 -163.101 206.425 -156.021 216.732C-147.879 228.609 -139.418 237.773 -130.16 244.742C-120.357 252.124 -110.356 254.757 -100.42 252.549C-91.7335 250.621 -83.0068 244.982 -74.506 235.805C-67.2404 227.958 -60.1342 217.544 -53.4 204.869C-38.4571 176.766 -27.0208 145.032 -15.9564 114.336C-8.86356 94.6517 -1.53159 74.316 6.67703 55.0443C12.4815 41.3719 17.7016 31.3171 23.1341 23.4302C29.9747 13.4552 36.855 7.4037 44.1339 4.9299C50.9478 2.6024 58.1735 3.56 65.5985 7.7495C79.4124 15.5433 91.4331 29.4817 103.055 42.9546L103.281 43.2206C113.894 55.5231 124.626 69.129 135 82.2694C141.216 90.1563 147.658 98.3092 154.074 106.209C168.658 124.138 185.713 144.633 203.724 160.992C223.953 179.359 242.735 190.212 261.158 194.162C267.573 195.519 273.869 195.918 279.846 195.333C285.544 194.774 291.163 193.311 296.516 190.984C306.398 186.688 315.683 179.492 324.901 168.959C341.969 149.448 356.141 121.252 369.836 93.9867C382.64 68.5039 395.869 42.1566 411.29 23.4435C427.668 3.5733 448.814 -6.33517 475.166 -6.33517C494.785 -6.33517 517.285 -0.8423 542.881 10.1169C572.634 22.8982 629.722 77.5745 684.938 130.455C705.286 149.94 724.506 168.347 742.292 184.626L742.73 184.147C724.945 167.882 705.738 149.474 685.389 129.99C630.134 77.0691 572.992 22.3529 543.133 9.5184C516.993 -1.72009 494.785 -7.1731 475.312 -7.1731Z" fill="url(#paint25_linear_1034_1368)" fill-opacity="0.2"/>
<path d="M466.559 -15.0867C454.87 -15.0867 444.045 -12.9321 434.362 -8.67612C422.979 -3.67531 412.831 4.38451 404.224 15.2772C388.816 34.7617 375.693 62.2927 363.021 88.906C349.487 117.315 335.487 146.708 318.458 167.097C299.385 189.946 278.558 198.644 254.795 193.697C214.894 185.398 180.771 145.245 149.252 104.813C141.349 94.6782 133.472 84.0781 125.875 73.8371C117.268 62.2395 108.368 50.2562 99.3627 38.8714C88.192 24.7601 75.5471 8.7469 60.923 -0.190704C53.0464 -5.00529 45.3691 -6.2688 38.1035 -3.92801C34.1985 -2.66452 30.3067 -0.337021 26.561 3.01459C23.1607 6.06029 19.7471 10.037 16.4264 14.8383C10.954 22.7651 5.49486 33.2588 -0.256485 46.9179C-9.18236 68.0915 -16.9659 90.7414 -24.4839 112.646C-34.552 141.933 -44.9523 172.217 -58.2083 199.336C-64.73 212.663 -71.4776 223.529 -78.2649 231.602C-86.354 241.218 -94.6158 247.016 -102.824 248.825C-111.684 250.78 -120.663 248.107 -129.536 240.898C-146.644 226.973 -159.939 202.98 -171.057 181.58C-184.313 156.058 -196.307 128.527 -207.916 101.9C-208.766 99.9583 -209.603 98.0165 -210.453 96.0747L-211.064 96.3407C-210.214 98.2825 -209.377 100.224 -208.527 102.166C-196.918 128.806 -184.924 156.337 -171.655 181.886C-160.511 203.339 -147.175 227.412 -129.974 241.417C-120.942 248.759 -111.764 251.472 -102.705 249.477C-94.3501 247.642 -85.9688 241.763 -77.7868 232.027C-70.9595 223.914 -64.1854 213.008 -57.6371 199.629C-44.3546 172.47 -33.941 142.159 -23.8729 112.859C-16.3549 90.9675 -8.57137 68.3309 0.341232 47.1839C8.33733 28.1915 20.9823 2.2964 38.2895 -3.28961C45.3558 -5.5639 52.8472 -4.34029 60.5644 0.38121C75.0822 9.26561 87.7006 25.2123 98.8314 39.2837C107.824 50.6552 116.723 62.6385 125.33 74.2361C132.941 84.4904 140.804 95.0905 148.721 105.225C162.84 123.326 179.43 144.061 197.654 161.005C217.657 179.625 236.306 190.518 254.662 194.335C261.184 195.692 267.546 196.038 273.603 195.373C279.368 194.734 285.04 193.165 290.459 190.691C300.421 186.129 309.745 178.548 318.963 167.509C336.045 147.054 350.058 117.634 363.619 89.1853C376.291 62.5986 389.387 35.1075 404.742 15.6762C433.326 -20.4732 476.561 -23.9977 536.943 4.8633C567.201 19.3337 626.322 77.7872 683.49 134.326C704.357 154.954 724.055 174.438 742.292 191.742L742.743 191.263C724.52 173.973 704.822 154.488 683.955 133.86C626.747 77.2818 567.586 18.7884 537.235 4.2648C510.816 -8.37021 488.316 -14.701 468.445 -15.0867C467.808 -15.0867 467.183 -15.0867 466.559 -15.0867Z" fill="url(#paint26_linear_1034_1368)" fill-opacity="0.2"/>
</g>
</g>
<mask id="mask2_1034_1368" style="mask-type:alpha" maskUnits="userSpaceOnUse" x="0" y="0" width="646" height="304">
<rect width="646" height="304" rx="10" fill="url(#paint27_linear_1034_1368)"/>
</mask>
<g mask="url(#mask2_1034_1368)">
<path d="M-180.998 -15.538C-188.509 -27.9402 -195.845 -41.5076 -202.98 -56.3662L-180.998 -15.538C-56.6417 189.798 115.544 75.748 208.719 214.771C346.934 420.998 406.885 33.7129 529.878 148.008C710.78 316.117 691.305 246.527 719.945 291.652L147.536 594.67L-180.998 -15.538Z" fill="url(#paint28_linear_1034_1368)"/>
<path d="M-202.98 -56.3662C-77.73 204.498 109.917 67.351 208.719 214.771C346.934 420.998 406.885 33.7129 529.878 148.008C710.78 316.117 691.305 246.527 719.945 291.652L147.536 594.67L-202.98 -56.3662Z" stroke="url(#paint29_linear_1034_1368)"/>
</g>
<defs>
<linearGradient id="paint0_linear_1034_1368" x1="23.5" y1="20" x2="563.5" y2="280" gradientUnits="userSpaceOnUse">
<stop stop-color="#9DC8FF"/>
<stop offset="0.453125" stop-color="#E6BCFF"/>
<stop offset="1" stop-color="#A0BFFE"/>
</linearGradient>
<linearGradient id="paint1_linear_1034_1368" x1="234.001" y1="341.422" x2="234.001" y2="12.3645" gradientUnits="userSpaceOnUse">
<stop stop-color="white"/>
<stop offset="1" stop-color="white" stop-opacity="0"/>
</linearGradient>
<linearGradient id="paint2_linear_1034_1368" x1="235.755" y1="337.39" x2="235.755" y2="19.5199" gradientUnits="userSpaceOnUse">
<stop stop-color="white"/>
<stop offset="1" stop-color="white" stop-opacity="0"/>
</linearGradient>
<linearGradient id="paint3_linear_1034_1368" x1="237.482" y1="333.418" x2="237.482" y2="26.6754" gradientUnits="userSpaceOnUse">
<stop stop-color="white"/>
<stop offset="1" stop-color="white" stop-opacity="0"/>
</linearGradient>
<linearGradient id="paint4_linear_1034_1368" x1="239.194" y1="329.476" x2="239.194" y2="33.8306" gradientUnits="userSpaceOnUse">
<stop stop-color="white"/>
<stop offset="1" stop-color="white" stop-opacity="0"/>
</linearGradient>
<linearGradient id="paint5_linear_1034_1368" x1="240.901" y1="325.575" x2="240.901" y2="40.9728" gradientUnits="userSpaceOnUse">
<stop stop-color="white"/>
<stop offset="1" stop-color="white" stop-opacity="0"/>
</linearGradient>
<linearGradient id="paint6_linear_1034_1368" x1="242.542" y1="321.648" x2="242.542" y2="48.1283" gradientUnits="userSpaceOnUse">
<stop stop-color="white"/>
<stop offset="1" stop-color="white" stop-opacity="0"/>
</linearGradient>
<linearGradient id="paint7_linear_1034_1368" x1="244.187" y1="317.807" x2="244.187" y2="55.2704" gradientUnits="userSpaceOnUse">
<stop stop-color="white"/>
<stop offset="1" stop-color="white" stop-opacity="0"/>
</linearGradient>
<linearGradient id="paint8_linear_1034_1368" x1="245.75" y1="314.04" x2="245.75" y2="62.4123" gradientUnits="userSpaceOnUse">
<stop stop-color="white"/>
<stop offset="1" stop-color="white" stop-opacity="0"/>
</linearGradient>
<linearGradient id="paint9_linear_1034_1368" x1="246.998" y1="310.233" x2="246.998" y2="69.5679" gradientUnits="userSpaceOnUse">
<stop stop-color="white"/>
<stop offset="1" stop-color="white" stop-opacity="0"/>
</linearGradient>
<linearGradient id="paint10_linear_1034_1368" x1="248.107" y1="306.43" x2="248.107" y2="76.7099" gradientUnits="userSpaceOnUse">
<stop stop-color="white"/>
<stop offset="1" stop-color="white" stop-opacity="0"/>
</linearGradient>
<linearGradient id="paint11_linear_1034_1368" x1="249.21" y1="302.724" x2="249.21" y2="76.404" gradientUnits="userSpaceOnUse">
<stop stop-color="white"/>
<stop offset="1" stop-color="white" stop-opacity="0"/>
</linearGradient>
<linearGradient id="paint12_linear_1034_1368" x1="250.319" y1="299.049" x2="250.319" y2="73.6244" gradientUnits="userSpaceOnUse">
<stop stop-color="white"/>
<stop offset="1" stop-color="white" stop-opacity="0"/>
</linearGradient>
<linearGradient id="paint13_linear_1034_1368" x1="251.401" y1="295.367" x2="251.401" y2="69.9801" gradientUnits="userSpaceOnUse">
<stop stop-color="white"/>
<stop offset="1" stop-color="white" stop-opacity="0"/>
</linearGradient>
<linearGradient id="paint14_linear_1034_1368" x1="252.55" y1="291.718" x2="252.55" y2="65.7639" gradientUnits="userSpaceOnUse">
<stop stop-color="white"/>
<stop offset="1" stop-color="white" stop-opacity="0"/>
</linearGradient>
<linearGradient id="paint15_linear_1034_1368" x1="253.613" y1="288.054" x2="253.613" y2="61.1756" gradientUnits="userSpaceOnUse">
<stop stop-color="white"/>
<stop offset="1" stop-color="white" stop-opacity="0"/>
</linearGradient>
<linearGradient id="paint16_linear_1034_1368" x1="254.769" y1="284.453" x2="254.769" y2="56.2944" gradientUnits="userSpaceOnUse">
<stop stop-color="white"/>
<stop offset="1" stop-color="white" stop-opacity="0"/>
</linearGradient>
<linearGradient id="paint17_linear_1034_1368" x1="255.871" y1="280.849" x2="255.871" y2="51.2138" gradientUnits="userSpaceOnUse">
<stop stop-color="white"/>
<stop offset="1" stop-color="white" stop-opacity="0"/>
</linearGradient>
<linearGradient id="paint18_linear_1034_1368" x1="256.974" y1="277.283" x2="256.974" y2="45.3353" gradientUnits="userSpaceOnUse">
<stop stop-color="white"/>
<stop offset="1" stop-color="white" stop-opacity="0"/>
</linearGradient>
<linearGradient id="paint19_linear_1034_1368" x1="258.083" y1="273.767" x2="258.083" y2="38.4726" gradientUnits="userSpaceOnUse">
<stop stop-color="white"/>
<stop offset="1" stop-color="white" stop-opacity="0"/>
</linearGradient>
<linearGradient id="paint20_linear_1034_1368" x1="259.185" y1="270.229" x2="259.185" y2="31.2506" gradientUnits="userSpaceOnUse">
<stop stop-color="white"/>
<stop offset="1" stop-color="white" stop-opacity="0"/>
</linearGradient>
<linearGradient id="paint21_linear_1034_1368" x1="260.301" y1="266.79" x2="260.301" y2="23.7894" gradientUnits="userSpaceOnUse">
<stop stop-color="white"/>
<stop offset="1" stop-color="white" stop-opacity="0"/>
</linearGradient>
<linearGradient id="paint22_linear_1034_1368" x1="261.417" y1="263.332" x2="261.417" y2="16.1816" gradientUnits="userSpaceOnUse">
<stop stop-color="white"/>
<stop offset="1" stop-color="white" stop-opacity="0"/>
</linearGradient>
<linearGradient id="paint23_linear_1034_1368" x1="262.512" y1="259.943" x2="262.512" y2="8.50745" gradientUnits="userSpaceOnUse">
<stop stop-color="white"/>
<stop offset="1" stop-color="white" stop-opacity="0"/>
</linearGradient>
<linearGradient id="paint24_linear_1034_1368" x1="263.635" y1="256.586" x2="263.635" y2="0.700439" gradientUnits="userSpaceOnUse">
<stop stop-color="white"/>
<stop offset="1" stop-color="white" stop-opacity="0"/>
</linearGradient>
<linearGradient id="paint25_linear_1034_1368" x1="264.711" y1="253.306" x2="264.711" y2="-7.1731" gradientUnits="userSpaceOnUse">
<stop stop-color="white"/>
<stop offset="1" stop-color="white" stop-opacity="0"/>
</linearGradient>
<linearGradient id="paint26_linear_1034_1368" x1="265.84" y1="250.112" x2="265.84" y2="-15.0867" gradientUnits="userSpaceOnUse">
<stop stop-color="white"/>
<stop offset="1" stop-color="white" stop-opacity="0"/>
</linearGradient>
<linearGradient id="paint27_linear_1034_1368" x1="23.5" y1="20" x2="563.5" y2="280" gradientUnits="userSpaceOnUse">
<stop stop-color="#549FFF"/>
<stop offset="1" stop-color="#1564FF"/>
</linearGradient>
<linearGradient id="paint28_linear_1034_1368" x1="398.5" y1="2.49999" x2="217" y2="264.5" gradientUnits="userSpaceOnUse">
<stop stop-color="#519DFF"/>
<stop offset="1" stop-color="#167DFF" stop-opacity="0"/>
</linearGradient>
<linearGradient id="paint29_linear_1034_1368" x1="477" y1="-62" x2="-31.2863" y2="284.941" gradientUnits="userSpaceOnUse">
<stop stop-color="#5AA3FF"/>
<stop offset="1" stop-color="#5AA3FF" stop-opacity="0"/>
</linearGradient>
</defs>
</svg>
