<svg width="58" height="56" viewBox="0 0 58 56" fill="none" xmlns="http://www.w3.org/2000/svg">
<path d="M19.18 15.5556H23.4318C23.6699 14.3834 24.3058 13.3296 25.2319 12.5726C26.158 11.8157 27.3173 11.4022 28.5133 11.4022C29.7094 11.4022 30.8687 11.8157 31.7948 12.5726C32.7209 13.3296 33.3568 14.3834 33.5948 15.5556H37.8467C38.1217 15.5556 38.3855 15.6648 38.58 15.8593C38.7744 16.0538 38.8837 16.3176 38.8837 16.5926V24.8889H43.0318C44.8952 24.861 46.6766 24.1175 48.0069 22.8124C49.3372 21.5073 50.1147 19.7406 50.1782 17.8781C50.2418 16.0155 49.5866 14.1999 48.3484 12.8071C47.1101 11.4144 45.3837 10.5512 43.5265 10.3963C43.3047 10.3814 43.0936 10.2957 42.9243 10.1517C42.7549 10.0078 42.6363 9.81321 42.5859 9.59674C41.2689 3.94696 37.1923 0 32.6615 0C31.1386 0.0619462 29.6529 0.489359 28.3299 1.24616C27.0069 2.00297 25.8854 3.06695 25.06 4.3483C24.921 4.54353 24.7188 4.68462 24.4875 4.74757C24.2563 4.81053 24.0104 4.79147 23.7917 4.69363C22.9102 4.29732 21.9482 4.11241 20.9826 4.15362C20.0169 4.19484 19.0743 4.46104 18.2297 4.93102C17.3851 5.401 16.662 6.06175 16.118 6.86063C15.5739 7.65951 15.224 8.57442 15.0961 9.53244C15.0654 9.76093 14.9594 9.97266 14.7949 10.1342C14.6304 10.2957 14.4167 10.3978 14.1877 10.4243C12.3559 10.6486 10.6783 11.5622 9.49607 12.9792C8.31381 14.3962 7.71561 16.2103 7.82313 18.0527C7.93065 19.895 8.7358 21.6272 10.0749 22.8971C11.414 24.167 13.1864 24.8792 15.0318 24.8889H18.143V16.5926C18.143 16.3176 18.2522 16.0538 18.4467 15.8593C18.6412 15.6648 18.905 15.5556 19.18 15.5556Z" fill="url(#paint0_linear_162_1464)"/>
<path d="M28.5135 19.7037C30.2317 19.7037 31.6246 18.3108 31.6246 16.5926C31.6246 14.8743 30.2317 13.4814 28.5135 13.4814C26.7952 13.4814 25.4023 14.8743 25.4023 16.5926C25.4023 18.3108 26.7952 19.7037 28.5135 19.7037Z" fill="url(#paint1_linear_162_1464)"/>
<path d="M36.8096 17.6296H33.5948C33.3568 18.8018 32.7209 19.8556 31.7948 20.6125C30.8687 21.3695 29.7094 21.783 28.5133 21.783C27.3173 21.783 26.158 21.3695 25.2319 20.6125C24.3058 19.8556 23.6699 18.8018 23.4319 17.6296H20.217V24.8889H36.8096V17.6296Z" fill="url(#paint2_linear_162_1464)"/>
<path d="M9.84663 49.7779C12.1376 49.7779 13.9948 47.9207 13.9948 45.6297C13.9948 43.3388 12.1376 41.4816 9.84663 41.4816C7.55568 41.4816 5.69849 43.3388 5.69849 45.6297C5.69849 47.9207 7.55568 49.7779 9.84663 49.7779Z" fill="url(#paint3_linear_162_1464)"/>
<path d="M18.143 45.6296C18.1435 45.0112 18.2837 44.401 18.5531 43.8443C18.8224 43.2877 19.214 42.799 19.6985 42.4148C19.534 41.9116 19.3311 41.4217 19.0918 40.9495C18.4769 41.0186 17.8543 40.9483 17.2703 40.7439C16.6862 40.5394 16.1557 40.2061 15.7182 39.7685C15.2806 39.331 14.9472 38.8004 14.7428 38.2164C14.5383 37.6323 14.4681 37.0097 14.5372 36.3948C14.0656 36.1552 13.576 35.9527 13.0729 35.7892C12.6866 36.2725 12.1965 36.6627 11.6389 36.9309C11.0814 37.1991 10.4706 37.3383 9.85185 37.3383C9.23313 37.3383 8.62234 37.1991 8.06475 36.9309C7.50717 36.6627 7.01708 36.2725 6.63081 35.7892C6.12764 35.9525 5.63804 36.155 5.16652 36.3948C5.23495 37.0098 5.16398 37.6323 4.95886 38.2162C4.75375 38.8 4.41977 39.3301 3.98171 39.7672C3.54365 40.2042 3.01277 40.537 2.42849 40.7408C1.8442 40.9446 1.22152 41.0141 0.606667 40.9443C0.367126 41.4182 0.164308 41.9098 0 42.4148C0.483647 42.8006 0.874166 43.2905 1.14256 43.8479C1.41095 44.4054 1.55032 45.0161 1.55032 45.6348C1.55032 46.2535 1.41095 46.8643 1.14256 47.4217C0.874166 47.9791 0.483647 48.469 0 48.8548C0.164556 49.358 0.36737 49.8479 0.606667 50.3201C1.22111 50.2512 1.84321 50.3213 2.42684 50.5255C3.01046 50.7297 3.54066 51.0626 3.97812 51.4995C4.41557 51.9365 4.74908 52.4663 4.9539 53.0497C5.15873 53.6331 5.22962 54.2551 5.16133 54.8696C5.63286 55.1094 6.12246 55.3119 6.62563 55.4753C7.01168 54.9918 7.50164 54.6014 8.05915 54.3331C8.61667 54.0648 9.22744 53.9255 9.84615 53.9255C10.4649 53.9255 11.0756 54.0648 11.6331 54.3331C12.1907 54.6014 12.6806 54.9918 13.0667 55.4753C13.57 55.311 14.0599 55.1081 14.532 54.8686C14.4629 54.2537 14.5331 53.6311 14.7376 53.047C14.942 52.4629 15.2754 51.9325 15.713 51.4949C16.1505 51.0573 16.681 50.7239 17.2651 50.5195C17.8491 50.3151 18.4717 50.2448 19.0867 50.3139C19.3264 49.8419 19.5292 49.352 19.6933 48.8486C19.2091 48.4635 18.8182 47.9739 18.5497 47.4165C18.2813 46.8592 18.1422 46.2483 18.143 45.6296ZM9.84667 51.8518C8.61603 51.8518 7.41302 51.4869 6.38978 50.8032C5.36654 50.1195 4.56903 49.1477 4.09808 48.0108C3.62714 46.8738 3.50392 45.6227 3.744 44.4157C3.98409 43.2087 4.5767 42.1 5.44689 41.2299C6.31708 40.3597 7.42578 39.767 8.63277 39.527C9.83976 39.2869 11.0908 39.4101 12.2278 39.881C13.3648 40.352 14.3365 41.1495 15.0203 42.1727C15.704 43.196 16.0689 44.399 16.0689 45.6296C16.0672 47.2794 15.4112 48.861 14.2446 50.0276C13.0781 51.1941 11.4964 51.8502 9.84667 51.8518Z" fill="url(#paint4_linear_162_1464)"/>
<path d="M47.1799 35.2593C45.1289 35.2593 43.1239 35.8675 41.4185 37.007C39.7131 38.1465 38.3839 39.7661 37.599 41.6611C36.8141 43.556 36.6087 45.6412 37.0088 47.6528C37.409 49.6645 38.3967 51.5123 39.847 52.9626C41.2973 54.4129 43.1451 55.4006 45.1568 55.8008C47.1684 56.2009 49.2536 55.9955 51.1485 55.2106C53.0435 54.4257 54.6631 53.0965 55.8026 51.3911C56.9421 49.6857 57.5503 47.6807 57.5503 45.6296C57.5473 42.8802 56.4537 40.2442 54.5096 38.3C52.5654 36.3559 49.9294 35.2623 47.1799 35.2593ZM52.3651 43.5556H50.2911V42.5185C50.2911 42.2435 50.1818 41.9797 49.9873 41.7852C49.7928 41.5908 49.5291 41.4815 49.254 41.4815H45.1059C44.8308 41.4815 44.5671 41.5908 44.3726 41.7852C44.1781 41.9797 44.0688 42.2435 44.0688 42.5185V43.5556C44.0688 43.8306 44.1781 44.0944 44.3726 44.2889C44.5671 44.4834 44.8308 44.5926 45.1059 44.5926H49.254C50.0791 44.5926 50.8705 44.9204 51.4539 45.5038C52.0374 46.0873 52.3651 46.8786 52.3651 47.7037V48.7408C52.3651 49.5659 52.0374 50.3572 51.4539 50.9406C50.8705 51.5241 50.0791 51.8519 49.254 51.8519H48.217V53.9259H46.1429V51.8519H45.1059C44.2808 51.8519 43.4894 51.5241 42.906 50.9406C42.3225 50.3572 41.9948 49.5659 41.9948 48.7408V47.7037H44.0688V48.7408C44.0688 49.0158 44.1781 49.2796 44.3726 49.4741C44.5671 49.6685 44.8308 49.7778 45.1059 49.7778H49.254C49.5291 49.7778 49.7928 49.6685 49.9873 49.4741C50.1818 49.2796 50.2911 49.0158 50.2911 48.7408V47.7037C50.2911 47.4287 50.1818 47.1649 49.9873 46.9704C49.7928 46.7759 49.5291 46.6667 49.254 46.6667H45.1059C44.2808 46.6667 43.4894 46.3389 42.906 45.7555C42.3225 45.172 41.9948 44.3807 41.9948 43.5556V42.5185C41.9948 41.6934 42.3225 40.9021 42.906 40.3186C43.4894 39.7352 44.2808 39.4074 45.1059 39.4074H46.1429V37.3334H48.217V39.4074H49.254C50.0791 39.4074 50.8705 39.7352 51.4539 40.3186C52.0374 40.9021 52.3651 41.6934 52.3651 42.5185V43.5556Z" fill="url(#paint5_linear_162_1464)"/>
<path d="M18.1429 30.0741H8.80957V34.2222H10.8836V32.1482H20.217V24.8889H18.1429V30.0741Z" fill="url(#paint6_linear_162_1464)"/>
<path d="M36.8096 32.1482H46.1429V34.2222H48.217V30.0741H38.8836V24.8889H36.8096V32.1482Z" fill="url(#paint7_linear_162_1464)"/>
<defs>
<linearGradient id="paint0_linear_162_1464" x1="-4.33742" y1="1.11111" x2="27.025" y2="43.7494" gradientUnits="userSpaceOnUse">
<stop stop-color="#08B99D"/>
<stop offset="1" stop-color="#87F5AA"/>
</linearGradient>
<linearGradient id="paint1_linear_162_1464" x1="23.6184" y1="13.7592" x2="31.6283" y2="20.1558" gradientUnits="userSpaceOnUse">
<stop stop-color="#08B99D"/>
<stop offset="1" stop-color="#87F5AA"/>
</linearGradient>
<linearGradient id="paint2_linear_162_1464" x1="15.4598" y1="17.9537" x2="23.5353" y2="32.6941" gradientUnits="userSpaceOnUse">
<stop stop-color="#08B99D"/>
<stop offset="1" stop-color="#87F5AA"/>
</linearGradient>
<linearGradient id="paint3_linear_162_1464" x1="3.31989" y1="41.8519" x2="13.9997" y2="50.3807" gradientUnits="userSpaceOnUse">
<stop stop-color="#08B99D"/>
<stop offset="1" stop-color="#87F5AA"/>
</linearGradient>
<linearGradient id="paint4_linear_162_1464" x1="-5.64768" y1="36.668" x2="19.6978" y2="56.9213" gradientUnits="userSpaceOnUse">
<stop stop-color="#08B99D"/>
<stop offset="1" stop-color="#87F5AA"/>
</linearGradient>
<linearGradient id="paint5_linear_162_1464" x1="30.8631" y1="36.1852" x2="57.5627" y2="57.5071" gradientUnits="userSpaceOnUse">
<stop stop-color="#08B99D"/>
<stop offset="1" stop-color="#87F5AA"/>
</linearGradient>
<linearGradient id="paint6_linear_162_1464" x1="5.539" y1="25.3056" x2="17.8554" y2="37.3269" gradientUnits="userSpaceOnUse">
<stop stop-color="#08B99D"/>
<stop offset="1" stop-color="#87F5AA"/>
</linearGradient>
<linearGradient id="paint7_linear_162_1464" x1="33.539" y1="25.3056" x2="45.8554" y2="37.3269" gradientUnits="userSpaceOnUse">
<stop stop-color="#08B99D"/>
<stop offset="1" stop-color="#87F5AA"/>
</linearGradient>
</defs>
</svg>
