<svg width="52" height="56" viewBox="0 0 52 56" fill="none" xmlns="http://www.w3.org/2000/svg">
<path d="M41.4098 10.3832C41.1011 10.3832 40.7975 10.3964 40.4955 10.4227C39.6115 4.5271 34.438 0 28.1858 0C21.4891 0 16.0288 5.19406 15.7537 11.7023C14.2254 10.864 12.4657 10.3832 10.5902 10.3832C4.74237 10.3832 0 15.0371 0 20.7795C0 26.5203 4.74069 31.1759 10.5902 31.1759H41.4098C47.2576 31.1759 52 26.522 52 20.7795C52 15.0371 47.2593 10.3832 41.4098 10.3832ZM33.5371 6.12122C33.3375 6.48187 32.8762 6.61526 32.5088 6.41929C32.4904 6.40941 25.797 2.72219 22.0863 9.76233C21.8951 10.1279 21.4371 10.2712 21.0647 10.0835C20.6923 9.89572 20.5464 9.44614 20.7376 9.08055C25.1696 0.671902 33.21 5.10184 33.2335 5.11337C33.6009 5.30934 33.7368 5.76057 33.5371 6.12122ZM27.2682 32.6679H24.7335V48.507C25.1361 48.395 25.5622 48.3357 26.0017 48.3357C26.4412 48.3357 26.8656 48.395 27.2699 48.507V32.6679H27.2682ZM26 49.8277C24.2638 49.8277 22.8563 51.2094 22.8563 52.9139C22.8563 54.6183 24.2638 56 26 56C27.7362 56 29.1437 54.6183 29.1437 52.9139C29.1437 51.2094 27.7379 49.8277 26 49.8277ZM14.2556 48.6124C12.7106 48.6124 11.4491 49.8491 11.4491 51.3675C11.4491 52.8859 12.7106 54.1226 14.2556 54.1226C15.8006 54.1226 17.0621 52.8842 17.0621 51.3675C17.0621 49.8491 15.8006 48.6124 14.2556 48.6124ZM19.5533 44.6748C19.5533 44.9844 19.4862 45.2792 19.362 45.5394C19.1876 45.9034 19.0215 46.0368 18.7514 46.2838L16.7719 47.9108C17.4681 48.3999 18.0099 49.085 18.3136 49.8854L20.3769 48.1908C20.8852 47.8203 21.3834 47.15 21.6518 46.5901C21.937 45.9907 22.0914 45.3385 22.0914 44.6748V32.6679H19.5566V44.6748H19.5533ZM37.746 48.6124C36.1994 48.6124 34.9395 49.8491 34.9395 51.3675C34.9395 52.8859 36.1994 54.1226 37.746 54.1226C39.2927 54.1226 40.5526 52.8842 40.5526 51.3675C40.5526 49.8491 39.291 48.6124 37.746 48.6124ZM33.2503 46.2838C32.9819 46.0368 32.8141 45.9034 32.6397 45.5394C32.5155 45.2776 32.4484 44.9844 32.4484 44.6748V32.6679H29.9137V44.6748C29.9137 45.3385 30.0663 45.9907 30.3532 46.5901C30.6199 47.1484 31.1198 47.8203 31.6281 48.1908L33.6915 49.8854C33.9951 49.085 34.5369 48.3999 35.2331 47.9108L33.2503 46.2838ZM9.17608 40.235C7.69985 40.235 6.49539 41.4174 6.49539 42.8666C6.49539 44.3158 7.69985 45.4983 9.17608 45.4983C10.6523 45.4983 11.8568 44.3158 11.8568 42.8666C11.8568 41.4174 10.6523 40.235 9.17608 40.235ZM13.1384 41.4883C14.3479 40.5529 15.9281 39.293 16.4683 38.16C16.7535 37.5622 16.9078 36.9085 16.9078 36.2464V32.6679H14.3731V36.2464C14.3731 36.556 14.306 36.8492 14.1818 37.111C13.9017 37.6973 12.615 38.7414 11.6219 39.5104C12.3131 39.9979 12.8482 40.6863 13.1384 41.4883ZM42.8239 40.235C41.3477 40.235 40.1432 41.4174 40.1432 42.8666C40.1432 44.3158 41.3477 45.4983 42.8239 45.4983C44.3001 45.4983 45.5046 44.3158 45.5046 42.8666C45.5046 41.4174 44.3001 40.235 42.8239 40.235ZM35.0939 32.6679V36.2464C35.0939 36.9101 35.2465 37.5622 35.5334 38.16C35.8001 38.72 36.3 39.3902 36.8083 39.7607L38.875 41.4586C39.1719 40.655 39.7155 39.9682 40.4167 39.4857L38.4322 37.8554C38.1503 37.5952 37.996 37.475 37.8215 37.111C37.6974 36.8492 37.6303 36.556 37.6303 36.2464V32.6679H35.0939Z" fill="url(#paint0_linear_162_1441)"/>
<defs>
<linearGradient id="paint0_linear_162_1441" x1="6.68688" y1="9.90936" x2="44.6007" y2="48.5302" gradientUnits="userSpaceOnUse">
<stop stop-color="#A6CDFF"/>
<stop offset="1" stop-color="#4496FF"/>
</linearGradient>
</defs>
</svg>
