<svg width="52" height="52" viewBox="0 0 52 52" fill="none" xmlns="http://www.w3.org/2000/svg">
<path d="M47.4297 20.3125H4.57031C2.04618 20.3125 0 18.2663 0 15.7422V4.57031C0 2.04618 2.04618 0 4.57031 0H47.4297C49.9538 0 52 2.04618 52 4.57031V15.7422C52 18.2663 49.9538 20.3125 47.4297 20.3125ZM47.4297 45.8047H4.57031C2.04618 45.8047 0 43.7585 0 41.2344V30.0625C0 27.5384 2.04618 25.4922 4.57031 25.4922H47.4297C49.9538 25.4922 52 27.5384 52 30.0625V41.2344C52 43.7585 49.9538 45.8047 47.4297 45.8047Z" fill="url(#paint0_linear_162_1415)"/>
<path d="M44.3828 14.7266C43.5415 14.7266 42.8594 14.0445 42.8594 13.2031V7.10938C42.8594 6.26803 43.5415 5.58594 44.3828 5.58594C45.2242 5.58594 45.9062 6.26803 45.9062 7.10938V13.2031C45.9062 14.0445 45.2242 14.7266 44.3828 14.7266ZM39.8125 13.2031V7.10938C39.8125 6.26803 39.1304 5.58594 38.2891 5.58594C37.4477 5.58594 36.7656 6.26803 36.7656 7.10938V13.2031C36.7656 14.0445 37.4477 14.7266 38.2891 14.7266C39.1304 14.7266 39.8125 14.0445 39.8125 13.2031ZM33.7188 13.2031V7.10938C33.7188 6.26803 33.0367 5.58594 32.1953 5.58594C31.354 5.58594 30.6719 6.26803 30.6719 7.10938V13.2031C30.6719 14.0445 31.354 14.7266 32.1953 14.7266C33.0367 14.7266 33.7188 14.0445 33.7188 13.2031ZM27.625 13.2031V7.10938C27.625 6.26803 26.9429 5.58594 26.1016 5.58594C25.2602 5.58594 24.5781 6.26803 24.5781 7.10938V13.2031C24.5781 14.0445 25.2602 14.7266 26.1016 14.7266C26.9429 14.7266 27.625 14.0445 27.625 13.2031ZM15.2344 10.1562C15.2344 7.63618 13.1841 5.58594 10.6641 5.58594C8.14399 5.58594 6.09375 7.63618 6.09375 10.1562C6.09375 12.6763 8.14399 14.7266 10.6641 14.7266C13.1841 14.7266 15.2344 12.6763 15.2344 10.1562ZM47.4297 20.3125H4.57031C4.39857 20.3125 4.22927 20.3022 4.0625 20.2838V25.5209C4.22927 25.5024 4.39857 25.4922 4.57031 25.4922H47.4297C47.6014 25.4922 47.7707 25.5024 47.9375 25.5209V20.2838C47.7707 20.3022 47.6014 20.3125 47.4297 20.3125ZM47.4297 45.8047H4.57031C4.39857 45.8047 4.22927 45.7944 4.0625 45.7759V50.4766C4.0625 51.3179 4.74459 52 5.58594 52H46.4141C47.2554 52 47.9375 51.3179 47.9375 50.4766V45.7759C47.7707 45.7944 47.6014 45.8047 47.4297 45.8047ZM45.9062 38.6953V32.6016C45.9062 31.7602 45.2242 31.0781 44.3828 31.0781C43.5415 31.0781 42.8594 31.7602 42.8594 32.6016V38.6953C42.8594 39.5367 43.5415 40.2188 44.3828 40.2188C45.2242 40.2188 45.9062 39.5367 45.9062 38.6953ZM39.8125 38.6953V32.6016C39.8125 31.7602 39.1304 31.0781 38.2891 31.0781C37.4477 31.0781 36.7656 31.7602 36.7656 32.6016V38.6953C36.7656 39.5367 37.4477 40.2188 38.2891 40.2188C39.1304 40.2188 39.8125 39.5367 39.8125 38.6953ZM33.7188 38.6953V32.6016C33.7188 31.7602 33.0367 31.0781 32.1953 31.0781C31.354 31.0781 30.6719 31.7602 30.6719 32.6016V38.6953C30.6719 39.5367 31.354 40.2188 32.1953 40.2188C33.0367 40.2188 33.7188 39.5367 33.7188 38.6953ZM27.625 38.6953V32.6016C27.625 31.7602 26.9429 31.0781 26.1016 31.0781C25.2602 31.0781 24.5781 31.7602 24.5781 32.6016V38.6953C24.5781 39.5367 25.2602 40.2188 26.1016 40.2188C26.9429 40.2188 27.625 39.5367 27.625 38.6953ZM15.2344 35.6484C15.2344 33.1284 13.1841 31.0781 10.6641 31.0781C8.14399 31.0781 6.09375 33.1284 6.09375 35.6484C6.09375 38.1685 8.14399 40.2188 10.6641 40.2188C13.1841 40.2188 15.2344 38.1685 15.2344 35.6484Z" fill="url(#paint1_linear_162_1415)"/>
<defs>
<linearGradient id="paint0_linear_162_1415" x1="26" y1="45.8047" x2="26" y2="0" gradientUnits="userSpaceOnUse">
<stop stop-color="#C3FFE8"/>
<stop offset="0.9973" stop-color="#F0FFF4"/>
</linearGradient>
<linearGradient id="paint1_linear_162_1415" x1="26" y1="52" x2="26" y2="5.58594" gradientUnits="userSpaceOnUse">
<stop stop-color="#00B59C"/>
<stop offset="1" stop-color="#9CFFAC"/>
</linearGradient>
</defs>
</svg>
