<svg width="56" height="56" viewBox="0 0 56 56" fill="none" xmlns="http://www.w3.org/2000/svg">
<path d="M10.232 42.1V44.75C10.2359 45.0691 10.3026 45.3843 10.4284 45.6777C10.5541 45.971 10.7364 46.2367 10.9649 46.4595C11.1933 46.6824 11.4634 46.8581 11.7597 46.9766C12.0561 47.095 12.3728 47.154 12.692 47.15H43.312C43.6311 47.154 43.9479 47.095 44.2442 46.9766C44.5405 46.8581 44.8106 46.6824 45.0391 46.4595C45.2675 46.2367 45.4498 45.971 45.5756 45.6777C45.7013 45.3843 45.7681 45.0691 45.772 44.75V42.1H10.232ZM29.062 45.2C28.9152 45.4221 28.7019 45.592 28.4526 45.6853C28.2033 45.7786 27.9309 45.7906 27.6744 45.7196C27.4178 45.6485 27.1904 45.498 27.0247 45.2897C26.859 45.0814 26.7635 44.8259 26.752 44.56C26.902 42.49 30.062 43.37 29.062 45.2ZM45.772 28V40.19H10.232C10.232 38.78 10.232 28 10.232 28C10.2359 27.6813 10.3027 27.3666 10.4286 27.0738C10.5544 26.781 10.7369 26.516 10.9655 26.294C11.194 26.0719 11.4642 25.8971 11.7605 25.7798C12.0568 25.6624 12.3733 25.6047 12.692 25.61H43.312C43.6306 25.6047 43.9472 25.6624 44.2434 25.7798C44.5397 25.8971 44.8099 26.0719 45.0385 26.294C45.267 26.516 45.4495 26.781 45.5754 27.0738C45.7013 27.3666 45.7681 27.6813 45.772 28ZM35.012 53.48C35.592 54.53 34.872 56.03 33.822 56H22.162C21.162 56 20.412 54.53 20.992 53.48L22.182 51.21C22.652 50.13 24.092 50.49 24.902 50.43V49.09H31.102V50.43C31.922 50.43 33.362 50.13 33.832 51.22L35.012 53.48ZM52.542 12C50.5107 10.0257 47.8393 8.84431 45.012 8.67C37.142 -2.88 18.772 -2.9 10.912 8.67C8.21131 8.79253 5.64151 9.86835 3.65902 11.7063C1.67653 13.5443 0.409684 16.0256 0.0835172 18.7092C-0.24265 21.3929 0.392974 24.1053 1.87748 26.3647C3.36199 28.6241 5.59929 30.2841 8.19197 31.05C8.19197 30.34 8.19197 28.63 8.19197 27.96C8.2104 26.7939 8.69003 25.6825 9.52588 24.8691C10.3617 24.0558 11.4858 23.6066 12.652 23.62H43.312C43.8928 23.6134 44.4692 23.7216 45.008 23.9384C45.5469 24.1552 46.0376 24.4763 46.4521 24.8833C46.8665 25.2903 47.1964 25.7751 47.4229 26.31C47.6494 26.8448 47.7681 27.4192 47.772 28V31.09C56.012 28.65 58.842 17.94 52.542 12ZM40.662 11.33C40.4432 11.4798 40.1738 11.5366 39.9131 11.4879C39.6525 11.4391 39.4218 11.2888 39.272 11.07C38.3777 9.81648 37.2303 8.76466 35.9039 7.9826C34.5775 7.20055 33.1017 6.70567 31.572 6.53C31.4229 6.55552 31.27 6.54689 31.1247 6.50476C30.9794 6.46264 30.8456 6.38811 30.7333 6.28678C30.621 6.18546 30.5332 6.05999 30.4764 5.91981C30.4196 5.77963 30.3954 5.62839 30.4055 5.47748C30.4156 5.32657 30.4598 5.17992 30.5348 5.04857C30.6098 4.91722 30.7136 4.80459 30.8384 4.71915C30.9632 4.63372 31.1057 4.57771 31.2553 4.55534C31.4049 4.53297 31.5576 4.54482 31.702 4.59C33.5362 4.7853 35.3079 5.36872 36.8993 6.30149C38.4907 7.23426 39.8654 8.49502 40.932 10C41.001 10.1035 41.0488 10.2197 41.0726 10.3418C41.0964 10.4639 41.0958 10.5896 41.0706 10.7114C41.0455 10.8333 40.9965 10.9489 40.9263 11.0517C40.8562 11.1544 40.7663 11.2422 40.662 11.31V11.33ZM43.782 10.28C43.782 10.28 43.842 10.33 43.852 10.35C43.8214 10.3264 43.7974 10.2954 43.782 10.26V10.28Z" fill="url(#paint0_linear_162_1439)"/>
<defs>
<linearGradient id="paint0_linear_162_1439" x1="0.0519657" y1="28" x2="55.982" y2="28" gradientUnits="userSpaceOnUse">
<stop stop-color="#9CFFAC"/>
<stop offset="1" stop-color="#00B59C"/>
</linearGradient>
</defs>
</svg>
