<svg width="57" height="52" viewBox="0 0 57 52" fill="none" xmlns="http://www.w3.org/2000/svg">
<path d="M44.2713 12.6647C43.4538 12.486 44.1175 13.6279 44.0263 14.1362C44.0475 14.5501 44.0725 14.9648 44.0672 15.3796C44.0741 17.5508 43.6255 19.6986 42.7513 21.6799C42.6493 21.9101 42.4681 22.0946 42.2418 22.1989C42.0155 22.3031 41.7595 22.32 41.5218 22.2463C41.2841 22.1726 41.081 22.0134 40.9506 21.7985C40.8201 21.5836 40.7713 21.3277 40.8132 21.0789C40.7316 21.2861 40.6499 21.4727 40.5582 21.6799C45.3448 11.9288 37.496 -0.182692 26.7362 0.00208883C23.176 -0.00630775 19.7276 1.26416 17.0004 3.58893C14.2732 5.91369 12.4429 9.14305 11.833 12.7062C-2.96191 14.0752 -4.28468 35.0232 10.1399 38.3632C10.1447 37.0517 10.1361 33.3575 10.1397 31.9904C10.1462 30.4039 10.7695 28.8843 11.8738 27.7626C12.9781 26.6408 14.474 26.0076 16.0357 26.001H40.9662C42.5278 26.008 44.0235 26.6413 45.1277 27.763C46.2319 28.8847 46.8553 30.4041 46.8622 31.9904V38.3632C61.7442 34.8596 59.7014 13.0989 44.2713 12.6647ZM27.8379 7.46284C25.9267 7.45817 24.0808 8.16881 22.6526 9.45902C21.2245 10.7492 20.3142 12.5286 20.0956 14.4574C20.0617 14.7284 19.9239 14.9749 19.7122 15.1434C19.5004 15.3119 19.2318 15.3888 18.9647 15.3575C18.6975 15.3261 18.4533 15.189 18.285 14.9759C18.1167 14.7627 18.0379 14.4908 18.0657 14.2191C18.3406 11.7842 19.4892 9.53761 21.292 7.90888C23.0948 6.28015 25.4253 5.38351 27.8379 5.39038C28.1085 5.39038 28.3679 5.49955 28.5592 5.69388C28.7505 5.88821 28.858 6.15178 28.858 6.42661C28.858 6.70143 28.7505 6.965 28.5592 7.15933C28.3679 7.35366 28.1085 7.46284 27.8379 7.46284ZM44.4243 30.2806C44.6861 30.8113 44.8224 31.3968 44.8221 31.9904V48.0934C44.8235 48.6414 44.7051 49.183 44.4753 49.6788L34.0604 39.244L44.4243 30.2806ZM43.1696 51.285C42.5275 51.7528 41.7564 52.003 40.9662 52H16.0357C15.1902 52.002 14.3682 51.7176 13.6997 51.1917C14.409 50.4881 23.4973 41.5494 24.4921 40.5806C24.984 41.1725 25.5971 41.6481 26.2886 41.9744C26.9801 42.3007 27.7334 42.4698 28.4959 42.4698C29.2583 42.4698 30.0116 42.3007 30.7032 41.9745C31.3947 41.6482 32.0078 41.1725 32.4997 40.5807L43.1696 51.285ZM12.4552 49.5234C11.9166 49.6317 12.2749 32.5267 12.1799 31.9903C12.178 31.3428 12.3359 30.7051 12.6389 30.1355C13.5763 30.9699 21.7785 38.1823 22.9416 39.2129C21.7107 40.4287 13.4761 48.5201 12.4552 49.5234ZM14.0466 28.6434C14.645 28.2701 15.3335 28.0728 16.0357 28.0734H40.9662C41.7185 28.0719 42.4539 28.2993 43.0778 28.7263L32.01 38.2907C31.8935 38.3858 30.5539 39.5619 30.3881 39.6895C29.862 40.146 29.1929 40.3968 28.501 40.3968C27.8091 40.3968 27.1399 40.146 26.6138 39.6895L14.0466 28.6434Z" fill="url(#paint0_linear_162_1413)"/>
<defs>
<linearGradient id="paint0_linear_162_1413" x1="0.00022958" y1="25.9999" x2="56.9997" y2="25.9999" gradientUnits="userSpaceOnUse">
<stop stop-color="#A6CDFF"/>
<stop offset="1" stop-color="#4496FF"/>
</linearGradient>
</defs>
</svg>
