<svg width="151" height="138" viewBox="0 0 151 138" fill="none" xmlns="http://www.w3.org/2000/svg">
<path d="M138.66 91.75H118.25C117.388 91.75 116.561 92.0924 115.952 92.7019C115.342 93.3114 115 94.1381 115 95C115 95.862 115.342 96.6886 115.952 97.2981C116.561 97.9076 117.388 98.25 118.25 98.25H138.66C139.375 99.4892 140.48 100.458 141.801 101.005C143.123 101.553 144.589 101.649 145.971 101.279C147.353 100.908 148.575 100.092 149.446 98.9569C150.317 97.8218 150.789 96.4309 150.789 95C150.789 93.5691 150.317 92.1782 149.446 91.0431C148.575 89.9079 147.353 89.0918 145.971 88.7215C144.589 88.3511 143.123 88.4472 141.801 88.9948C140.48 89.5424 139.375 90.5108 138.66 91.75Z" fill="url(#paint0_linear_168_1544)"/>
<path d="M137.75 125.16V111.25C137.75 110.388 137.407 109.561 136.798 108.952C136.188 108.342 135.362 108 134.5 108H115C114.138 108 113.311 108.342 112.702 108.952C112.092 109.561 111.75 110.388 111.75 111.25C111.75 112.112 112.092 112.939 112.702 113.548C113.311 114.158 114.138 114.5 115 114.5H131.25V125.16C130.011 125.875 129.042 126.98 128.495 128.302C127.947 129.624 127.851 131.089 128.221 132.471C128.592 133.854 129.408 135.075 130.543 135.946C131.678 136.817 133.069 137.289 134.5 137.289C135.931 137.289 137.322 136.817 138.457 135.946C139.592 135.075 140.408 133.854 140.778 132.471C141.149 131.089 141.053 129.624 140.505 128.302C139.957 126.98 138.989 125.875 137.75 125.16Z" fill="url(#paint1_linear_168_1544)"/>
<path d="M59.7499 23.5H49.0899C48.3744 22.2608 47.2701 21.2924 45.9481 20.7448C44.6262 20.1972 43.1605 20.1011 41.7784 20.4715C40.3963 20.8418 39.175 21.6579 38.3039 22.7931C37.4328 23.9282 36.9607 25.3191 36.9607 26.75C36.9607 28.1809 37.4328 29.5718 38.3039 30.707C39.175 31.8421 40.3963 32.6582 41.7784 33.0285C43.1605 33.3989 44.6262 33.3028 45.9481 32.7552C47.2701 32.2076 48.3744 31.2392 49.0899 30H56.4999V46.25C56.4999 47.112 56.8423 47.9386 57.4518 48.5481C58.0613 49.1576 58.8879 49.5 59.7499 49.5C60.6118 49.5 61.4385 49.1576 62.048 48.5481C62.6574 47.9386 62.9999 47.112 62.9999 46.25V26.75C62.9999 25.888 62.6574 25.0614 62.048 24.4519C61.4385 23.8424 60.6118 23.5 59.7499 23.5Z" fill="url(#paint2_linear_168_1544)"/>
<path d="M150.75 46.25V33.25C150.75 32.388 150.407 31.5614 149.798 30.9519C149.188 30.3424 148.362 30 147.5 30H145.03C144.392 29.9995 143.768 29.8112 143.236 29.4587C142.705 29.1062 142.289 28.6049 142.04 28.0175C142.04 27.5625 141.682 27.1075 141.487 26.6525C141.238 26.0606 141.17 25.4083 141.292 24.7779C141.413 24.1474 141.719 23.567 142.17 23.11L143.925 21.355C144.53 20.7461 144.87 19.9224 144.87 19.0638C144.87 18.2051 144.53 17.3814 143.925 16.7725L134.727 7.575C134.118 6.96968 133.295 6.62992 132.436 6.62992C131.577 6.62992 130.754 6.96968 130.145 7.575L128.39 9.33C127.925 9.80084 127.327 10.1185 126.676 10.2404C126.026 10.3624 125.354 10.2829 124.75 10.0125L123.385 9.46C122.816 9.19663 122.335 8.7742 122 8.24366C121.666 7.71311 121.492 7.09713 121.5 6.47V4C121.5 3.13805 121.157 2.3114 120.548 1.7019C119.938 1.09241 119.112 0.75 118.25 0.75H105.25C104.388 0.75 103.561 1.09241 102.952 1.7019C102.342 2.3114 102 3.13805 102 4V6.47C101.999 7.10795 101.811 7.73163 101.458 8.26333C101.106 8.79502 100.605 9.2112 100.017 9.46L98.7498 10.0125C98.1579 10.2614 97.5056 10.3294 96.8751 10.2079C96.2446 10.0865 95.6643 9.78096 95.2073 9.33L93.4523 7.575C92.8433 6.96968 92.0196 6.62992 91.161 6.62992C90.3024 6.62992 89.4787 6.96968 88.8698 7.575L79.5748 16.7725C78.9694 17.3814 78.6297 18.2051 78.6297 19.0638C78.6297 19.9224 78.9694 20.7461 79.5748 21.355L81.3298 23.11C81.8006 23.5751 82.1182 24.1728 82.2402 24.8233C82.3622 25.4737 82.2826 26.1459 82.0123 26.75C81.8173 27.205 81.6223 27.66 81.4598 28.115C81.211 28.7024 80.7948 29.2036 80.2631 29.5562C79.7314 29.9087 79.1077 30.097 78.4698 30.0975H75.9998C75.1378 30.0975 74.3111 30.4399 73.7017 31.0494C73.0922 31.6589 72.7498 32.4855 72.7498 33.3475V46.3475C72.7498 47.2095 73.0922 48.0361 73.7017 48.6456C74.3111 49.2551 75.1378 49.5975 75.9998 49.5975H78.4698C79.1077 49.598 79.7314 49.7863 80.2631 50.1388C80.7948 50.4913 81.211 50.9926 81.4598 51.58C81.6223 52.035 81.8173 52.49 82.0123 52.945C82.2611 53.5369 82.3291 54.1892 82.2077 54.8196C82.0862 55.4501 81.7807 56.0305 81.3298 56.4875L79.5748 58.2425C78.9694 58.8514 78.6297 59.6751 78.6297 60.5338C78.6297 61.3924 78.9694 62.2161 79.5748 62.825L88.7723 72.0225C89.3812 72.6278 90.2049 72.9676 91.0635 72.9676C91.9221 72.9676 92.7458 72.6278 93.3548 72.0225L95.1098 70.2675C95.5635 69.7803 96.156 69.4442 96.807 69.3047C97.458 69.1652 98.1362 69.229 98.7498 69.4875L100.115 70.04C100.702 70.2888 101.203 70.705 101.556 71.2367C101.908 71.7684 102.097 72.3921 102.097 73.03V75.5C102.097 76.362 102.44 77.1886 103.049 77.7981C103.659 78.4076 104.485 78.75 105.347 78.75H118.347C119.209 78.75 120.036 78.4076 120.645 77.7981C121.255 77.1886 121.597 76.362 121.597 75.5V73.03C121.598 72.3921 121.786 71.7684 122.139 71.2367C122.491 70.705 122.992 70.2888 123.58 70.04L124.945 69.4875C125.537 69.2386 126.189 69.1706 126.819 69.2921C127.45 69.4136 128.03 69.719 128.487 70.17L130.242 71.925C130.851 72.5303 131.675 72.8701 132.534 72.8701C133.392 72.8701 134.216 72.5303 134.825 71.925L144.022 62.7275C144.628 62.1186 144.967 61.2949 144.967 60.4362C144.967 59.5776 144.628 58.7539 144.022 58.145L142.267 56.39C141.78 55.9362 141.444 55.3438 141.304 54.6927C141.165 54.0417 141.229 53.3636 141.487 52.75C141.682 52.295 141.877 51.84 142.04 51.385C142.289 50.7976 142.705 50.2963 143.236 49.9438C143.768 49.5913 144.392 49.403 145.03 49.4025H147.5C148.345 49.4029 149.157 49.0739 149.764 48.4853C150.371 47.8968 150.724 47.0949 150.75 46.25Z" fill="url(#paint3_linear_168_1544)"/>
<path d="M111.75 56C120.724 56 128 48.7246 128 39.75C128 30.7754 120.724 23.5 111.75 23.5C102.775 23.5 95.4998 30.7754 95.4998 39.75C95.4998 48.7246 102.775 56 111.75 56Z" fill="#4795EA"/>
<path d="M124.75 95C124.75 102.758 121.668 110.197 116.183 115.683C110.697 121.168 103.257 124.25 95.4999 124.25H30.4999C22.7423 124.504 15.2014 121.666 9.53618 116.361C3.87094 111.055 0.545393 103.716 0.291117 95.9587C0.0368406 88.2012 2.87467 80.6603 8.1803 74.9951C13.4859 69.3298 20.8248 66.0043 28.5824 65.75C30.6909 58.2447 35.195 51.6344 41.4084 46.9261C47.6219 42.2177 55.204 39.6694 62.9999 39.6694C70.7957 39.6694 78.3779 42.2177 84.5913 46.9261C90.8047 51.6344 95.3088 58.2447 97.4174 65.75C104.838 66.2375 111.794 69.5331 116.871 74.9666C121.949 80.4001 124.766 87.5635 124.75 95Z" fill="url(#paint4_linear_168_1544)"/>
<path d="M69.4998 78.75H62.9998C62.1378 78.75 61.3111 79.0924 60.7017 79.7019C60.0922 80.3114 59.7498 81.138 59.7498 82V101.5C59.7498 102.362 60.0922 103.189 60.7017 103.798C61.3111 104.408 62.1378 104.75 62.9998 104.75C63.8617 104.75 64.6884 104.408 65.2979 103.798C65.9073 103.189 66.2498 102.362 66.2498 101.5V98.25H69.4998C72.0856 98.25 74.5656 97.2228 76.394 95.3943C78.2225 93.5658 79.2498 91.0859 79.2498 88.5C79.2498 85.9141 78.2225 83.4342 76.394 81.6057C74.5656 79.7772 72.0856 78.75 69.4998 78.75ZM69.4998 91.75H66.2498V85.25H69.4998C70.3617 85.25 71.1884 85.5924 71.7979 86.2019C72.4073 86.8114 72.7498 87.638 72.7498 88.5C72.7498 89.362 72.4073 90.1886 71.7979 90.7981C71.1884 91.4076 70.3617 91.75 69.4998 91.75Z" fill="#B4CDE1"/>
<path d="M43.4998 78.75C40.9139 78.75 38.4339 79.7772 36.6055 81.6057C34.777 83.4342 33.7498 85.9141 33.7498 88.5V101.5C33.7498 102.362 34.0922 103.189 34.7017 103.798C35.3112 104.408 36.1378 104.75 36.9998 104.75C37.8617 104.75 38.6884 104.408 39.2979 103.798C39.9073 103.189 40.2498 102.362 40.2498 101.5V98.25H46.7498V101.5C46.7498 102.362 47.0922 103.189 47.7017 103.798C48.3112 104.408 49.1378 104.75 49.9998 104.75C50.8617 104.75 51.6884 104.408 52.2979 103.798C52.9073 103.189 53.2498 102.362 53.2498 101.5V88.5C53.2498 85.9141 52.2225 83.4342 50.394 81.6057C48.5656 79.7772 46.0856 78.75 43.4998 78.75ZM40.2498 91.75V88.5C40.2498 87.638 40.5922 86.8114 41.2017 86.2019C41.8112 85.5924 42.6378 85.25 43.4998 85.25C44.3617 85.25 45.1884 85.5924 45.7979 86.2019C46.4073 86.8114 46.7498 87.638 46.7498 88.5V91.75H40.2498Z" fill="#B4CDE1"/>
<path d="M88.9998 104.75C88.1378 104.75 87.3111 104.408 86.7017 103.798C86.0922 103.189 85.7498 102.362 85.7498 101.5V82C85.7498 81.138 86.0922 80.3114 86.7017 79.7019C87.3111 79.0924 88.1378 78.75 88.9998 78.75C89.8617 78.75 90.6884 79.0924 91.2979 79.7019C91.9073 80.3114 92.2498 81.138 92.2498 82V101.5C92.2498 102.362 91.9073 103.189 91.2979 103.798C90.6884 104.408 89.8617 104.75 88.9998 104.75Z" fill="#B4CDE1"/>
<defs>
<linearGradient id="paint0_linear_168_1544" x1="115" y1="95" x2="150.75" y2="95" gradientUnits="userSpaceOnUse">
<stop stop-color="#FE9661"/>
<stop offset="1" stop-color="#FFB369"/>
</linearGradient>
<linearGradient id="paint1_linear_168_1544" x1="111.75" y1="122.625" x2="141" y2="122.625" gradientUnits="userSpaceOnUse">
<stop stop-color="#FE9661"/>
<stop offset="1" stop-color="#FFB369"/>
</linearGradient>
<linearGradient id="paint2_linear_168_1544" x1="49.9999" y1="49.5" x2="49.9999" y2="20.25" gradientUnits="userSpaceOnUse">
<stop stop-color="#FE9661"/>
<stop offset="1" stop-color="#FFB369"/>
</linearGradient>
<linearGradient id="paint3_linear_168_1544" x1="84.1573" y1="67.3425" x2="139.342" y2="12.1575" gradientUnits="userSpaceOnUse">
<stop stop-color="#54A5FF"/>
<stop offset="1" stop-color="#8AD3FE"/>
</linearGradient>
<linearGradient id="paint4_linear_168_1544" x1="1.24987" y1="82" x2="124.75" y2="82" gradientUnits="userSpaceOnUse">
<stop stop-color="#D3E6F5"/>
<stop offset="1" stop-color="#F0F7FC"/>
</linearGradient>
</defs>
</svg>
