<svg width="46" height="52" viewBox="0 0 46 52" fill="none" xmlns="http://www.w3.org/2000/svg">
<path d="M41.1328 23.0547H4.57031V29.1484H41.1328V23.0547ZM35.0391 39.8125L30.4688 44.3828L35.0391 48.9531L42.5039 45.9062C42.5952 45.4186 42.6562 44.9008 42.6562 44.3828C42.6562 43.8646 42.5952 43.3468 42.5039 42.8594L35.0391 39.8125ZM3.19922 42.8594C3.10791 43.3468 3.04688 43.8646 3.04688 44.3828C3.04688 44.9008 3.10791 45.4186 3.19922 45.9062L10.6641 48.9531L15.2344 44.3828L10.6641 39.8125L3.19922 42.8594ZM41.1328 12.1875H4.57031C3.72826 12.1875 3.04688 12.8689 3.04688 13.7109V20.0078C3.04688 20.8499 3.72826 21.5312 4.57031 21.5312H41.1328C41.9749 21.5312 42.6562 20.8499 42.6562 20.0078V13.7109C42.6562 12.8689 41.9749 12.1875 41.1328 12.1875ZM22.8516 30.6719C22.0095 30.6719 21.3281 31.3533 21.3281 32.1953V41.3359C21.3281 42.178 22.0095 42.8594 22.8516 42.8594C23.6936 42.8594 24.375 42.178 24.375 41.3359V32.1953C24.375 31.3533 23.6936 30.6719 22.8516 30.6719ZM41.1328 4.57031H4.57031V10.6641H41.1328V4.57031Z" fill="white"/>
<path d="M44.1797 18.4844H1.52344C0.670211 18.4844 0 19.1546 0 20.0078V32.1953C0 33.0483 0.670211 33.7188 1.52344 33.7188H44.1797C45.0329 33.7188 45.7031 33.0483 45.7031 32.1953V20.0078C45.7031 19.1546 45.0329 18.4844 44.1797 18.4844ZM13.7109 27.625H7.61719C6.76396 27.625 6.09375 26.9546 6.09375 26.1016C6.09375 25.2483 6.76396 24.5781 7.61719 24.5781H13.7109C14.5642 24.5781 15.2344 25.2483 15.2344 26.1016C15.2344 26.9546 14.5642 27.625 13.7109 27.625ZM25.8984 27.625C25.0452 27.625 24.375 26.9546 24.375 26.1016C24.375 25.2483 25.0452 24.5781 25.8984 24.5781C26.7517 24.5781 27.4219 25.2483 27.4219 26.1016C27.4219 26.9546 26.7517 27.625 25.8984 27.625ZM31.9922 27.625C31.139 27.625 30.4688 26.9546 30.4688 26.1016C30.4688 25.2483 31.139 24.5781 31.9922 24.5781C32.8454 24.5781 33.5156 25.2483 33.5156 26.1016C33.5156 26.9546 32.8454 27.625 31.9922 27.625ZM38.0859 27.625C37.2327 27.625 36.5625 26.9546 36.5625 26.1016C36.5625 25.2483 37.2327 24.5781 38.0859 24.5781C38.9392 24.5781 39.6094 25.2483 39.6094 26.1016C39.6094 26.9546 38.9392 27.625 38.0859 27.625ZM35.0391 42.8594H42.5039C41.803 39.3859 38.7258 36.7656 35.0391 36.7656C32.6624 36.7656 30.4077 37.9234 28.9758 39.8125H16.7273C15.2954 37.9234 13.0407 36.7656 10.6641 36.7656C6.97724 36.7656 3.9001 39.3859 3.19922 42.8594H10.6641C11.5173 42.8594 12.1875 43.5296 12.1875 44.3828C12.1875 45.2358 11.5173 45.9062 10.6641 45.9062H3.19922C3.9001 49.3797 6.97734 52 10.6641 52C13.0407 52 15.2954 50.8422 16.7273 48.9531H28.9758C30.4077 50.8422 32.6624 52 35.0391 52C38.7259 52 41.803 49.3797 42.5039 45.9062H35.0391C34.1858 45.9062 33.5156 45.2358 33.5156 44.3828C33.5156 43.5296 34.1858 42.8594 35.0391 42.8594ZM44.1797 0H1.52344C0.670211 0 0 0.670211 0 1.52344V13.7109C0 14.564 0.670211 15.2344 1.52344 15.2344H44.1797C45.0329 15.2344 45.7031 14.564 45.7031 13.7109V1.52344C45.7031 0.670211 45.0329 0 44.1797 0ZM13.7109 9.14062H7.61719C6.76396 9.14062 6.09375 8.47021 6.09375 7.61719C6.09375 6.76396 6.76396 6.09375 7.61719 6.09375H13.7109C14.5642 6.09375 15.2344 6.76396 15.2344 7.61719C15.2344 8.47021 14.5642 9.14062 13.7109 9.14062ZM25.8984 9.14062C25.0452 9.14062 24.375 8.47021 24.375 7.61719C24.375 6.76396 25.0452 6.09375 25.8984 6.09375C26.7517 6.09375 27.4219 6.76396 27.4219 7.61719C27.4219 8.47021 26.7517 9.14062 25.8984 9.14062ZM31.9922 9.14062C31.139 9.14062 30.4688 8.47021 30.4688 7.61719C30.4688 6.76396 31.139 6.09375 31.9922 6.09375C32.8454 6.09375 33.5156 6.76396 33.5156 7.61719C33.5156 8.47021 32.8454 9.14062 31.9922 9.14062ZM38.0859 9.14062C37.2327 9.14062 36.5625 8.47021 36.5625 7.61719C36.5625 6.76396 37.2327 6.09375 38.0859 6.09375C38.9392 6.09375 39.6094 6.76396 39.6094 7.61719C39.6094 8.47021 38.9392 9.14062 38.0859 9.14062Z" fill="url(#paint0_linear_157_1387)"/>
<defs>
<linearGradient id="paint0_linear_157_1387" x1="22.8516" y1="0" x2="22.8516" y2="52" gradientUnits="userSpaceOnUse">
<stop stop-color="#4496FF"/>
<stop offset="1" stop-color="#B6D6FF"/>
</linearGradient>
</defs>
</svg>
