<svg width="56" height="55" viewBox="0 0 56 55" fill="none" xmlns="http://www.w3.org/2000/svg">
<path d="M27.9864 54.3697C24.3549 54.3697 20.6791 53.6394 17.1582 52.1124C10.4709 49.2132 5.33364 43.9019 2.67642 37.152C0.0192079 30.4021 0.174212 23.0105 3.11929 16.3491C9.16446 2.60598 25.3292 -3.72341 39.1024 2.25188C45.7897 5.15101 50.927 10.4624 53.5842 17.2122C56.2414 23.9621 56.0864 31.3538 53.1414 38.0151C48.6241 48.2395 38.5267 54.3697 27.9864 54.3697ZM28.2521 0.968302C18.0661 0.968302 8.34515 6.8772 4.00503 16.7475C1.17067 23.1654 1.0378 30.2915 3.5843 36.7979C6.1308 43.3043 11.0909 48.4387 17.5347 51.2271C20.9448 52.7099 24.4877 53.3959 27.9864 53.3959C38.1724 53.3959 47.8934 47.487 52.2335 37.6167C55.0679 31.1988 55.2007 24.0728 52.6542 17.5663C50.1077 11.0599 45.1476 5.92558 38.7038 3.13711C35.3159 1.67648 31.7508 0.968302 28.2521 0.968302Z" fill="black"/>
<path d="M38.1945 44.5437L9.80664 32.2611L19.0405 11.3033L47.4062 23.608L38.1945 44.5437Z" fill="#FED101"/>
<path d="M38.1947 45.0305C38.1283 45.0305 38.0619 45.0084 37.9954 44.9863L9.60755 32.7037C9.49683 32.6595 9.3861 32.5488 9.34181 32.4382C9.29752 32.3275 9.29752 32.1726 9.34181 32.0619L18.5756 11.1042C18.6864 10.8607 18.9742 10.7501 19.2178 10.8607L47.6057 23.1433C47.7164 23.1875 47.8271 23.2982 47.8714 23.4088C47.9157 23.5195 47.9157 23.6744 47.8714 23.7851L38.6376 44.7428C38.549 44.9199 38.3719 45.0305 38.1947 45.0305ZM10.449 31.9956L37.929 43.9019L46.7643 23.8515L19.2842 11.9451L10.449 31.9956Z" fill="black"/>
<path d="M28.3396 29.4063C28.1846 29.4063 28.0296 29.3177 27.941 29.185L21.4087 19.2704C21.2537 19.0491 21.3201 18.7393 21.5416 18.5844C21.763 18.4294 22.073 18.4958 22.228 18.7171L28.5832 28.3661L40.0314 26.4186C40.2971 26.3744 40.5407 26.5514 40.5849 26.817C40.6292 27.0825 40.4521 27.326 40.1863 27.3702L28.406 29.362C28.3839 29.4063 28.3617 29.4063 28.3396 29.4063Z" fill="black"/>
</svg>
