<svg width="285" height="256" viewBox="0 0 285 256" fill="none" xmlns="http://www.w3.org/2000/svg">
<path d="M147.999 255.922C147.888 255.922 147.778 255.877 147.689 255.811C147.578 255.723 147.512 255.612 147.512 255.479L144.39 227.373C134.026 226.067 123.973 223.168 114.474 218.698L96.8033 240.806C96.7147 240.917 96.604 240.983 96.4711 240.983C96.3383 241.006 96.2054 240.961 96.1168 240.873L60.2223 212.169C60.0008 211.992 59.9787 211.682 60.1558 211.483L68.2825 201.303C68.4596 201.082 68.7697 201.06 68.9689 201.237C69.1904 201.414 69.2125 201.724 69.0354 201.923L61.2187 211.705L96.3604 239.811L113.964 217.791C114.097 217.613 114.363 217.547 114.562 217.658C124.173 222.217 134.381 225.182 144.899 226.444C145.12 226.466 145.297 226.643 145.32 226.864L148.442 254.882L193.172 249.902L190.049 221.885C190.027 221.663 190.16 221.442 190.382 221.376C200.368 217.813 209.668 212.678 218.039 206.105C218.216 205.973 218.459 205.973 218.637 206.105L240.647 223.699L268.747 188.534L246.737 170.94C246.559 170.807 246.493 170.564 246.604 170.342C251.165 160.738 254.11 150.513 255.395 139.979C255.417 139.758 255.594 139.581 255.815 139.558L283.805 136.438L278.822 91.6897L250.833 94.8102C250.59 94.8323 250.39 94.6995 250.324 94.4782C246.759 84.4973 241.621 75.1802 235.067 66.7927C234.934 66.6156 234.934 66.3722 235.067 66.1952L252.671 44.1751L217.529 16.0691L199.925 38.0892C199.792 38.2662 199.527 38.3326 199.327 38.222C189.717 33.663 179.509 30.6975 168.991 29.4361C168.769 29.4139 168.592 29.2369 168.57 29.0156L165.448 0.998103L120.718 5.97751L123.818 34.0171C123.84 34.2384 123.708 34.4597 123.486 34.5261C113.499 38.0892 104.199 43.2235 95.829 49.7963C95.6518 49.9291 95.4082 49.9291 95.2311 49.7963L73.2205 32.2024L45.1204 67.3681L57.2108 77.0392C57.4322 77.2163 57.4543 77.5261 57.2772 77.7253C57.1001 77.9466 56.79 77.9687 56.5907 77.7917L44.124 67.8107C43.9025 67.6337 43.8804 67.3238 44.0576 67.1246L72.7776 31.1844C72.8662 31.0737 72.9769 31.0073 73.1098 31.0073C73.2426 30.9852 73.3755 31.0295 73.4641 31.118L95.5632 48.7783C103.845 42.3383 113.012 37.2925 122.822 33.7294L119.7 5.62343C119.677 5.35786 119.855 5.11442 120.142 5.09228L165.847 0.00222169C165.979 -0.019909 166.112 0.0243524 166.201 0.112875C166.312 0.201398 166.378 0.312052 166.378 0.444836L169.5 28.5508C179.863 29.8565 189.917 32.7557 199.416 37.2261L217.087 15.1175C217.175 15.0068 217.286 14.9404 217.419 14.9404C217.552 14.9183 217.684 14.9626 217.773 15.0511L253.645 43.7546C253.867 43.9317 253.889 44.2415 253.712 44.4407L236.041 66.5493C242.463 74.8261 247.534 84.0104 251.077 93.8364L279.177 90.6939C279.31 90.6717 279.443 90.716 279.531 90.8045C279.642 90.893 279.708 91.0037 279.708 91.1365L284.801 136.859C284.823 137.124 284.646 137.368 284.358 137.39L256.303 140.51C254.996 150.889 252.095 160.937 247.645 170.431L269.744 188.091C269.965 188.268 269.987 188.578 269.81 188.777L241.112 224.717C241.024 224.828 240.913 224.894 240.78 224.894C240.647 224.917 240.514 224.872 240.426 224.784L218.327 207.124C210.045 213.564 200.878 218.609 191.068 222.172L194.19 250.278C194.212 250.544 194.035 250.787 193.747 250.81L148.043 255.9C148.043 255.922 148.021 255.922 147.999 255.922ZM156.79 207.721C149.195 207.721 141.688 206.637 134.381 204.468C134.115 204.401 133.982 204.114 134.049 203.87C134.115 203.605 134.403 203.472 134.646 203.538C144.7 206.504 155.129 207.411 165.625 206.238C208.783 201.436 239.961 162.397 235.156 119.22C232.831 98.3068 222.49 79.5621 206.059 66.4165C189.629 53.2708 169.08 47.3177 148.176 49.6635C126.431 52.0979 107.211 63.0526 94.0353 80.5137C93.8803 80.735 93.5703 80.7793 93.3489 80.6023C93.1274 80.4473 93.0832 80.1375 93.2603 79.9162C106.591 62.2338 126.077 51.1242 148.065 48.6677C169.235 46.2997 190.049 52.3414 206.679 65.6419C223.309 78.9425 233.761 97.9306 236.13 119.11C241.001 162.818 209.425 202.343 165.736 207.212C162.769 207.566 159.779 207.721 156.79 207.721Z" fill="#8C7BFF"/>
<path d="M190.271 50.0619C190.005 50.0619 189.784 49.8406 189.784 49.575V26.382C189.784 17.5519 182.543 10.3815 173.663 10.3815C164.761 10.3815 157.543 17.5519 157.543 26.382V49.575C157.543 49.8406 157.321 50.0619 157.056 50.0619C156.79 50.0619 156.568 49.8406 156.568 49.575V26.382C156.568 17.0207 164.23 9.40776 173.663 9.40776C183.096 9.40776 190.758 17.0207 190.758 26.382V49.575C190.758 49.8406 190.559 50.0619 190.271 50.0619Z" fill="#8C7BFF"/>
<path d="M156.191 64.646C160.569 64.646 164.118 59.3055 164.118 52.7176C164.118 46.1297 160.569 40.7891 156.191 40.7891C151.813 40.7891 148.264 46.1297 148.264 52.7176C148.264 59.3055 151.813 64.646 156.191 64.646Z" fill="white"/>
<path d="M156.192 65.1329C151.542 65.1329 147.777 59.556 147.777 52.6954C147.777 45.8349 151.564 40.258 156.192 40.258C160.842 40.258 164.606 45.8349 164.606 52.6954C164.606 59.5781 160.842 65.1329 156.192 65.1329ZM156.192 41.276C152.095 41.276 148.752 46.4103 148.752 52.7176C148.752 59.0248 152.095 64.1591 156.192 64.1591C160.288 64.1591 163.632 59.0248 163.632 52.7176C163.632 46.4103 160.288 41.276 156.192 41.276Z" fill="black"/>
<path d="M176.476 32.5344L221.915 55.6388C244.036 66.8812 236.286 101.272 211.618 101.272H151.676V49.6635L176.476 32.5344Z" fill="black"/>
<path d="M186.861 49.4422H167.309V101.272H186.861V49.4422Z" fill="#FDA4FF"/>
<path d="M169.723 68.1427C179.189 68.1427 186.862 59.7405 186.862 49.3758C186.862 39.0112 179.189 30.609 169.723 30.609C160.257 30.609 152.584 39.0112 152.584 49.3758C152.584 59.7405 160.257 68.1427 169.723 68.1427Z" fill="#FDA4FF"/>
<path d="M173.443 60.0428C172.203 61.1715 170.631 61.9239 168.837 62.101C164.851 62.4993 161.264 59.91 160.268 56.1699L173.443 60.0428Z" fill="white"/>
<path d="M181.193 34.836C188.176 34.836 193.837 29.1783 193.837 22.1993C193.837 15.2203 188.176 9.56268 181.193 9.56268C174.21 9.56268 168.549 15.2203 168.549 22.1993C168.549 29.1783 174.21 34.836 181.193 34.836Z" fill="black"/>
<path d="M169.059 42.7587L151.721 50.9028C151.676 50.416 151.654 49.9512 151.654 49.4422C151.654 39.085 160.246 30.609 169.723 30.609C179.201 30.609 187.482 39.417 187.482 49.7963C187.482 50.5045 187.438 51.1905 187.372 51.8766L169.059 42.7587Z" fill="black"/>
<path d="M169.724 68.6295C160.003 68.6295 152.098 59.9986 152.098 49.3758C152.098 38.7531 160.003 30.1221 169.724 30.1221C178.803 30.1221 186.354 37.558 187.261 47.4062C187.284 47.6718 187.084 47.9152 186.819 47.9373C186.531 47.9595 186.309 47.7603 186.287 47.4947C185.424 38.1556 178.293 31.0959 169.724 31.0959C160.534 31.0959 153.072 39.2842 153.072 49.3758C153.072 59.4453 160.534 67.6558 169.724 67.6558C171.407 67.6558 173.068 67.3902 174.662 66.837C174.928 66.7484 175.193 66.8812 175.282 67.1468C175.37 67.4124 175.238 67.6779 174.972 67.7664C173.267 68.3418 171.495 68.6295 169.724 68.6295Z" fill="black"/>
<path d="M169.369 74.5827C168.683 74.5827 167.974 74.5606 167.266 74.5163C167 74.4942 166.801 74.2729 166.801 73.9852C166.823 73.7196 167.066 73.5204 167.332 73.5204C183.563 74.6491 188.612 62.4772 188.811 61.9682C188.922 61.7248 189.188 61.592 189.454 61.7026C189.697 61.8133 189.83 62.0789 189.719 62.3444C189.675 62.4551 184.671 74.5827 169.369 74.5827Z" fill="#8C7BFF"/>
<path d="M163.08 77.681C166.052 77.681 168.461 75.2733 168.461 72.3032C168.461 69.3332 166.052 66.9255 163.08 66.9255C160.108 66.9255 157.699 69.3332 157.699 72.3032C157.699 75.2733 160.108 77.681 163.08 77.681Z" fill="white"/>
<path d="M163.081 78.1679C159.848 78.1679 157.213 75.5343 157.213 72.3032C157.213 69.0722 159.848 66.4386 163.081 66.4386C166.314 66.4386 168.949 69.0722 168.949 72.3032C168.971 75.5343 166.336 78.1679 163.081 78.1679ZM163.081 67.4124C160.379 67.4124 158.187 69.6033 158.187 72.3032C158.187 75.0032 160.379 77.1941 163.081 77.1941C165.782 77.1941 167.975 75.0032 167.975 72.3032C167.975 69.6033 165.782 67.4124 163.081 67.4124Z" fill="black"/>
<path d="M190.272 50.0619C190.007 50.0619 189.785 49.8406 189.785 49.575V26.382C189.785 17.5519 182.544 10.3815 173.665 10.3815C173.399 10.3815 173.178 10.1602 173.178 9.89464C173.178 9.62907 173.399 9.40776 173.665 9.40776C183.098 9.40776 190.76 17.0207 190.76 26.382V49.575C190.76 49.8406 190.56 50.0619 190.272 50.0619Z" fill="#8C7BFF"/>
<path d="M191.07 65.3542C195.448 65.3542 198.997 60.0137 198.997 53.4258C198.997 46.8379 195.448 41.4973 191.07 41.4973C186.692 41.4973 183.143 46.8379 183.143 53.4258C183.143 60.0137 186.692 65.3542 191.07 65.3542Z" fill="white"/>
<path d="M191.069 65.8632C186.419 65.8632 182.654 60.2863 182.654 53.4258C182.654 46.5652 186.441 40.9883 191.069 40.9883C195.697 40.9883 199.483 46.5652 199.483 53.4258C199.483 60.2863 195.719 65.8632 191.069 65.8632ZM191.069 41.9842C186.972 41.9842 183.629 47.1185 183.629 53.4258C183.629 59.733 186.972 64.8673 191.069 64.8673C195.165 64.8673 198.509 59.733 198.509 53.4258C198.509 47.1185 195.165 41.9842 191.069 41.9842Z" fill="black"/>
<path d="M196.893 59.8879C199.266 59.8879 201.189 56.9947 201.189 53.4257C201.189 49.8568 199.266 46.9636 196.893 46.9636C194.521 46.9636 192.598 49.8568 192.598 53.4257C192.598 56.9947 194.521 59.8879 196.893 59.8879Z" fill="white"/>
<path d="M196.894 60.3748C194.259 60.3748 192.111 57.2544 192.111 53.4257C192.111 49.5971 194.259 46.4767 196.894 46.4767C199.529 46.4767 201.677 49.5971 201.677 53.4257C201.655 57.2544 199.507 60.3748 196.894 60.3748ZM196.894 47.4726C194.791 47.4726 193.108 50.1504 193.108 53.4479C193.108 56.7453 194.813 59.4232 196.894 59.4232C198.998 59.4232 200.681 56.7453 200.681 53.4479C200.681 50.1504 198.976 47.4726 196.894 47.4726Z" fill="black"/>
<path d="M172.713 205.641C200.658 200.816 216.38 180.345 216.38 180.345C211.509 170.741 212.616 168.085 213.723 157.374L218.993 105.898L202.541 86.2898H162.616C151.456 86.2898 142.155 94.6774 140.871 105.477L140.45 107.668C139.432 112.847 136.155 117.383 131.438 119.751C125.88 122.518 122.071 128.294 122.116 134.933C122.138 139.138 123.71 142.989 126.279 145.932C129.799 149.96 131.106 155.493 130.065 160.738L129.047 201.724C129.047 201.724 147.248 210.023 172.713 205.641Z" fill="#FED101"/>
<path d="M124.617 190.99C124.595 190.99 124.551 190.99 124.529 190.99C124.263 190.946 124.086 190.68 124.13 190.415L129.578 160.649C130.596 155.426 129.223 150.048 125.902 146.242C123.156 143.121 121.628 139.094 121.606 134.933C121.562 128.382 125.149 122.429 130.973 119.42C135.711 116.963 138.966 112.714 139.941 107.801L140.406 105.367C141.712 94.2126 151.278 85.7808 162.616 85.7808H166.911C167.177 85.7808 167.399 86.0021 167.399 86.2677C167.399 86.5333 167.177 86.7546 166.911 86.7546H162.616C151.765 86.7546 142.62 94.8101 141.358 105.521L140.871 107.978C139.852 113.201 136.398 117.693 131.393 120.283C125.902 123.137 122.514 128.759 122.558 134.933C122.58 138.85 124.02 142.657 126.61 145.6C130.131 149.628 131.593 155.316 130.508 160.826L125.06 190.592C125.038 190.835 124.839 190.99 124.617 190.99Z" fill="black"/>
<path d="M153.737 149.562C153.648 149.562 153.537 149.539 153.449 149.473C148.599 146.131 145.765 140.621 145.92 134.734C146.119 127.21 151.08 120.703 158.298 118.534C158.564 118.446 158.83 118.601 158.918 118.866C158.985 119.132 158.852 119.397 158.586 119.486C151.766 121.522 147.072 127.674 146.894 134.778C146.762 140.333 149.419 145.534 154.002 148.676C154.224 148.831 154.29 149.141 154.135 149.362C154.047 149.495 153.892 149.562 153.737 149.562Z" fill="black"/>
<path d="M82.7656 200.13C82.7656 200.13 132.81 200.551 150.812 200.263C158.474 200.152 171.317 195.571 175.79 187.803C176.034 187.383 177.03 186.343 177.03 186.343L82.7656 190.061V200.13Z" fill="black"/>
<path d="M89.7183 167.952L75.5243 165.23C75.5243 165.23 75.9672 156.953 67.442 153.788C65.4712 153.058 61.264 151.907 57.721 150.978C53.6909 149.916 49.7937 148.344 46.1843 146.264L42.0213 143.896C39.9398 142.701 37.2826 143.365 35.9983 145.401L35.7326 145.844C34.4261 147.902 35.024 150.624 37.0612 151.974L50.1479 160.605L44.1692 165.319C41.0913 167.731 37.4155 169.236 33.5404 169.678L17.9071 171.759C15.3163 172.113 13.3677 174.304 13.3455 176.937V177.38L4.84244 177.668C2.34023 177.822 0.413753 179.925 0.480183 182.426C0.52447 184.882 2.47309 186.874 4.93101 187.007L65.3605 190.016L84.8467 193.115L89.7183 167.952Z" fill="#FDA4FF"/>
<path d="M84.8031 193.602C84.781 193.602 84.7589 193.602 84.7367 193.602L65.2948 190.503L4.90955 187.494C2.20805 187.361 0.0601331 185.148 -0.00629728 182.426C-0.0727277 179.659 2.05304 177.358 4.82097 177.159L12.8591 176.893C12.8812 174.06 15.0291 171.626 17.8413 171.25L33.4746 169.169C37.2833 168.749 40.8705 167.266 43.8599 164.898L49.3072 160.605L36.774 152.306C34.5375 150.823 33.8732 147.791 35.3125 145.512L35.5782 145.069C36.9954 142.812 39.9405 142.081 42.2656 143.409L46.4285 145.777C50.0158 147.835 53.8687 149.407 57.8545 150.447C61.1761 151.31 65.5826 152.505 67.6198 153.279C75.2372 156.112 75.9679 162.973 76.0122 164.765L89.8297 167.421C89.9626 167.443 90.0733 167.51 90.1397 167.62C90.2061 167.731 90.2283 167.864 90.2061 167.996L85.2903 193.159C85.246 193.425 85.0467 193.602 84.8031 193.602ZM39.8076 143.763C38.479 143.763 37.1947 144.427 36.4197 145.644L36.154 146.087C35.0025 147.902 35.5339 150.358 37.3276 151.553L50.4144 160.206C50.5472 160.295 50.6358 160.428 50.6358 160.605C50.6358 160.76 50.5694 160.915 50.4586 161.003L44.4799 165.717C41.3355 168.196 37.5711 169.723 33.6075 170.187L17.9742 172.268C15.627 172.577 13.8555 174.591 13.8334 176.959V177.402C13.8334 177.668 13.6341 177.889 13.3683 177.889L4.86526 178.177C2.65092 178.331 0.923726 180.19 0.968013 182.448C1.0123 184.639 2.76163 186.431 4.95384 186.542L65.3833 189.552C65.4055 189.552 65.4276 189.552 65.4276 189.552L84.4488 192.584L89.1875 168.373L75.4586 165.739C75.215 165.695 75.06 165.474 75.06 165.23C75.0822 164.898 75.37 157.263 67.2877 154.275C65.6933 153.678 62.3497 152.726 57.611 151.487C53.5366 150.425 49.6172 148.809 45.9414 146.729L41.7784 144.361C41.1584 143.94 40.4719 143.763 39.8076 143.763Z" fill="black"/>
<path d="M51.5213 178.265L47.004 177.756C44.1254 177.446 41.4017 176.295 39.1652 174.459L26.8977 164.411C25.1263 162.973 22.5355 163.194 21.074 164.942C19.679 166.602 19.7676 169.059 21.3176 170.586L33.8951 183.112C34.9137 184.13 36.1316 184.926 37.4602 185.458L44.6347 188.357L51.5213 178.265Z" fill="#FDA4FF"/>
<path d="M39.565 176.539L35.0256 176.804C32.1248 176.959 29.2682 176.295 26.7439 174.857L12.9928 166.978C11.022 165.85 8.49769 166.514 7.32409 168.461C6.21691 170.32 6.72621 172.732 8.49769 173.994L22.9795 184.262C24.1531 185.103 25.4817 185.679 26.8768 185.989L34.4277 187.648L39.565 176.539Z" fill="#FDA4FF"/>
<path d="M26.8764 186.453C26.8321 186.453 26.8099 186.453 26.7656 186.431C25.282 186.099 23.9313 185.502 22.6913 184.617L8.20943 174.348C6.23867 172.954 5.66294 170.232 6.90297 168.173C8.18729 166.005 11.0438 165.252 13.236 166.514L23.7763 172.622C24.0199 172.755 24.0863 173.064 23.9534 173.286C23.8206 173.529 23.5106 173.595 23.2891 173.463L12.7488 167.355C11.0217 166.359 8.76302 166.956 7.74442 168.66C6.77011 170.298 7.23512 172.445 8.78516 173.529L23.267 183.798C24.3963 184.594 25.6363 185.148 26.9871 185.458C27.2528 185.524 27.4078 185.767 27.3635 186.033C27.2971 186.299 27.0978 186.453 26.8764 186.453Z" fill="black"/>
<path d="M40.9371 186.83C40.8928 186.83 40.8707 186.83 40.8264 186.808C36.5527 185.834 33.8069 184.44 31.5926 182.138L20.9416 170.918C19.2365 169.236 19.1258 166.469 20.6759 164.61C22.3145 162.685 25.2374 162.419 27.186 164.013L39.4535 174.06C41.6236 175.831 44.2586 176.937 47.0487 177.247L56.349 177.579C56.6147 177.579 56.8361 177.822 56.814 178.088C56.814 178.354 56.5925 178.575 56.3047 178.553L46.9601 178.221C43.9486 177.889 41.1364 176.716 38.8335 174.813L26.566 164.765C25.016 163.504 22.7131 163.703 21.4066 165.23C20.1887 166.691 20.2773 168.882 21.628 170.209L32.3012 181.452C34.3827 183.643 36.9292 184.904 41.0478 185.834C41.3136 185.9 41.4686 186.166 41.4243 186.409C41.3579 186.675 41.1586 186.83 40.9371 186.83Z" fill="black"/>
<path d="M56.1487 164.964C56.0601 164.964 55.9715 164.942 55.883 164.876L49.7271 160.892C49.5056 160.738 49.4392 160.45 49.5721 160.206C49.7271 159.985 50.0149 159.919 50.2585 160.051L56.4144 164.035C56.6358 164.19 56.7023 164.478 56.5694 164.721C56.4808 164.876 56.3258 164.964 56.1487 164.964Z" fill="black"/>
<path d="M82.7669 157.838H148.644L190.03 86.2677H202.563C217.687 86.2677 227.142 102.622 219.591 115.724L185.158 175.454C177.009 189.596 161.93 198.293 145.61 198.293H82.7227V157.838H82.7669Z" fill="#FED101"/>
<path d="M167.952 172.909C173.798 172.909 179.156 174.901 183.43 178.221C174.993 190.702 160.844 198.293 145.631 198.293H142.73C142.73 198.227 142.73 198.183 142.73 198.116C142.73 184.196 154.024 172.909 167.952 172.909Z" fill="#FCB503"/>
<path d="M145.632 198.78H82.2793V157.329H148.378L172.005 116.454C172.137 116.211 172.447 116.144 172.669 116.277C172.912 116.41 172.979 116.72 172.846 116.941L148.931 158.303H83.2536V197.784H145.654C161.752 197.784 176.743 189.131 184.759 175.189L219.192 115.458C222.647 109.461 222.647 102.29 219.17 96.315C215.694 90.3176 209.493 86.7546 202.563 86.7546H188.258C187.992 86.7546 187.771 86.5333 187.771 86.2677C187.771 86.0021 187.992 85.7808 188.258 85.7808H202.563C209.848 85.7808 216.358 89.5431 220.012 95.8503C223.665 102.158 223.665 109.682 220.034 115.989L185.601 175.72C177.408 189.95 162.084 198.78 145.632 198.78Z" fill="black"/>
<path d="M157.477 208.296C147.069 208.296 136.994 206.26 127.517 202.233C127.273 202.122 127.162 201.834 127.251 201.591C127.362 201.347 127.65 201.237 127.893 201.325C137.26 205.309 147.224 207.323 157.477 207.323C180.307 207.323 201.697 197.165 216.157 179.482C216.334 179.283 216.644 179.239 216.843 179.416C217.043 179.593 217.087 179.903 216.91 180.102C202.273 198.028 180.617 208.296 157.477 208.296Z" fill="black"/>
<path d="M3.66797 139.16V136.416L7.16663 133.008C15.6033 124.996 19.412 120.725 19.4562 115.746C19.4562 112.404 17.8398 109.306 12.9018 109.306C9.91242 109.306 7.41021 110.833 5.88231 112.094L4.46513 108.952C6.74591 107.026 10.001 105.61 13.8097 105.61C20.9177 105.61 23.9292 110.479 23.9292 115.215C23.9292 121.301 19.5005 126.236 12.5475 132.941L9.91242 135.376V135.486H24.7485V139.182H3.66797V139.16Z" fill="white"/>
<path d="M43.5485 139.16V130.175H28.2031V127.232L42.9285 106.163H47.7558V126.678H52.3838V130.175H47.7558V139.16H43.5485ZM43.5485 126.656V115.635C43.5485 113.909 43.5928 112.183 43.7035 110.457H43.5485C42.5299 112.382 41.7106 113.798 40.8028 115.325L32.7204 126.546V126.656H43.5485Z" fill="white"/>
<path d="M53.4473 141.174L67.6191 104.371H71.0735L56.8573 141.174H53.4473Z" fill="white"/>
<path d="M94.6339 106.141V109.085L80.2628 139.16H75.6348L89.9616 109.97V109.859H73.7969V106.163H94.6339V106.141Z" fill="white"/>
</svg>
