<svg width="49" height="48" viewBox="0 0 49 48" fill="none" xmlns="http://www.w3.org/2000/svg">
<path d="M24.6977 47.8946C21.5312 47.8946 18.2982 47.2529 15.2203 45.925C9.37441 43.4021 4.8793 38.7325 2.55424 32.8236C0.229174 26.9147 0.362024 20.4526 2.93067 14.6101C8.22295 2.57096 22.3505 -2.96171 34.4186 2.26113C40.2645 4.78403 44.7597 9.45361 47.0847 15.3625C49.4098 21.2714 49.2769 27.7336 46.7083 33.5761C42.7667 42.539 33.9315 47.8946 24.6977 47.8946ZM24.9413 1.30951C16.0839 1.30951 7.60293 6.44384 3.83854 15.0306C1.38062 20.6075 1.24777 26.8262 3.46211 32.4917C5.67646 38.1571 9.99442 42.6275 15.5967 45.0398C18.5639 46.3234 21.6419 46.9209 24.6977 46.9209C33.5551 46.9209 42.036 41.7866 45.8004 33.1999C48.2583 27.6229 48.3912 21.4042 46.1768 15.7387C43.9625 10.0733 39.6445 5.60287 34.0422 3.19062C31.075 1.90704 27.9749 1.30951 24.9413 1.30951Z" fill="black"/>
<path d="M36.8536 16.3584L33.8642 17.0223C33.4878 16.4912 33.067 15.9822 32.602 15.5396L33.7535 12.7068L31.4506 11.1134L29.1919 13.1716C28.5941 12.906 27.9962 12.6847 27.354 12.5077L26.9333 9.47575L24.1432 9.25444L23.2353 12.1536C22.5932 12.22 21.951 12.3306 21.331 12.5077L19.4488 10.0954L16.9244 11.2905L17.5888 14.2781C17.0573 14.6543 16.548 15.0748 16.1052 15.5396L13.2708 14.3888L11.6765 16.6904L13.7358 18.9477C13.4701 19.5452 13.2487 20.1427 13.0715 20.7845L10.0378 21.205L9.81641 23.9935L12.7172 24.9009C12.7836 25.5426 12.8944 26.1844 13.0715 26.8262L10.6579 28.7073L11.8536 31.2302L14.843 30.5663C15.2194 31.0975 15.6401 31.6065 16.1052 32.0491L14.9537 34.8818L17.2566 36.4752L19.5153 34.4171C20.1131 34.6826 20.711 34.9039 21.3531 35.081L21.7739 38.1129L24.5639 38.3342L25.4718 35.4351C26.114 35.3687 26.7562 35.258 27.3762 35.081L29.2584 37.4932L31.7827 36.2982L31.1184 33.3105C31.6499 32.9343 32.1592 32.5138 32.602 32.0491L35.4364 33.1999L37.0307 30.8983L34.9714 28.6409C35.2371 28.0434 35.4585 27.4459 35.6357 26.8041L38.6693 26.3836L38.8908 23.5951L35.99 22.6878C35.9236 22.046 35.8128 21.4042 35.6357 20.7624L38.0493 18.8813L36.8536 16.3584ZM29.0812 29.4819C23.8554 33.5097 16.6366 29.7253 17.013 23.1304C17.1237 21.1608 18.0981 19.3018 19.6702 18.0846C24.8961 14.0568 32.1149 17.8412 31.7384 24.4361C31.6277 26.4279 30.6534 28.2868 29.0812 29.4819Z" fill="white"/>
</svg>
