<svg width="211" height="126" viewBox="0 0 211 126" fill="none" xmlns="http://www.w3.org/2000/svg">
<path d="M189.846 47.8208C180.346 93.4101 138.362 126.097 90.5989 122.755C50.2092 119.923 17.5255 92.1487 6.56445 55.5666C21.2677 73.4925 43.0569 85.5537 68.0125 87.302C101.981 89.6921 132.782 72.3195 149.168 44.9881L128.088 43.5054L172.485 0.815216L210.461 49.2815L189.846 47.8208Z" fill="black"/>
<path d="M183.69 50.8306C174.19 96.4199 132.206 129.107 84.4426 125.765C44.053 122.932 11.3692 95.1584 0.408203 58.5763C15.1115 76.5022 36.9006 88.5635 61.8563 90.3118C95.8244 92.7019 126.626 75.3293 143.012 47.9979L121.931 46.5151L166.329 3.82497L204.305 52.2912L183.69 50.8306Z" fill="#4ADA85"/>
</svg>
