<svg width="76" height="76" viewBox="0 0 76 76" fill="none" xmlns="http://www.w3.org/2000/svg">
<path d="M75.6262 40.7101L74.1426 27.2989L65.7945 28.2284C64.7316 25.2407 63.2037 22.4966 61.2993 20.0622L66.5473 13.4893L56.0292 5.05755L50.7812 11.6304C47.9911 10.3025 44.9796 9.4173 41.8352 9.04108L40.9052 0.675659L27.5084 2.18056L28.4385 10.546C25.4491 11.6082 22.7254 13.1353 20.2897 15.0385L13.7352 9.79353L5.32069 20.3277L11.8752 25.5727C10.5465 28.3612 9.6608 31.371 9.28436 34.5135L0.714844 35.8414L2.41989 48.8542L10.768 47.9247C11.8309 50.9124 13.3588 53.6566 15.2631 56.091L10.0151 62.6638L20.5332 71.0956L25.7812 64.5227C28.5713 65.8506 31.5828 66.7358 34.7272 67.1121L35.6572 75.4774L49.054 73.9726L48.124 65.6072C51.1134 64.5449 53.837 63.0179 56.2728 61.1146L62.8272 66.3596L71.2418 55.8254L64.6873 50.5804C66.0159 47.7919 66.9016 44.7822 67.2781 41.6396L75.6262 40.7101ZM40.1745 54.9844C30.8521 56.0246 22.4376 49.2968 21.3968 39.9577C20.3561 30.6185 27.0656 22.2089 36.4101 21.1687C45.7325 20.1286 54.147 26.8563 55.1877 36.1954C56.2285 45.5346 49.4969 53.9443 40.1745 54.9844Z" fill="#FBB231"/>
</svg>
