<svg width="52" height="52" viewBox="0 0 52 52" fill="none" xmlns="http://www.w3.org/2000/svg">
<path d="M25.7603 51.1818C21.0216 51.1818 16.3937 49.8539 12.2971 47.2646C6.56196 43.6573 2.59828 38.014 1.11467 31.3748C-1.94113 17.6759 6.69484 3.9991 20.4016 0.856541C27.0447 -0.670477 33.8427 0.502446 39.6 4.10975C45.3352 7.71706 49.2988 13.3604 50.7824 19.9996C53.8382 33.6985 45.2023 47.3753 31.4955 50.5178C29.5912 50.9826 27.6647 51.1818 25.7603 51.1818ZM26.1146 1.21063C24.2767 1.21063 22.4388 1.40981 20.6009 1.83029C7.42555 4.84007 -0.878233 18.0078 2.06685 31.1756C3.48403 37.5493 7.31484 42.9713 12.8286 46.4458C18.3423 49.9203 24.8968 51.0269 31.2741 49.5662C44.4494 46.5564 52.7532 33.3887 49.8081 20.2209C48.3909 13.8473 44.5601 8.42524 39.0464 4.95072C35.127 2.49421 30.6762 1.21063 26.1146 1.21063Z" fill="black"/>
<path d="M37.4529 34.1633L33.6664 30.5338C33.1571 30.0691 32.0278 29.8256 30.677 30.4895C29.3927 31.1092 27.3555 32.1051 23.7018 27.3249C20.0481 22.5446 21.3989 20.6635 22.4839 19.7562C22.6389 19.6234 23.879 18.2291 23.2368 16.857L21.2882 13.2497C19.6496 10.4613 17.2581 12.5637 17.1252 12.6743C13.228 15.9497 14.2244 23.5626 19.5389 30.5117C24.8533 37.4829 31.8949 40.4484 36.08 37.5271C36.2129 37.4165 38.7372 35.4911 37.4529 34.1633Z" fill="white"/>
</svg>
