<svg width="48" height="48" viewBox="0 0 48 48" fill="none" xmlns="http://www.w3.org/2000/svg">
<path d="M22.6606 47.1198C22.5498 47.1198 22.4391 47.0756 22.3505 47.0092C22.2398 46.9207 22.1734 46.81 22.1734 46.6772L21.642 41.9855C19.9812 41.7421 18.3426 41.2773 16.7925 40.5913L13.8475 44.2871C13.7589 44.3977 13.6482 44.4641 13.5153 44.4641C13.3824 44.4863 13.2496 44.442 13.161 44.3535L6.76155 39.2413C6.54011 39.0642 6.51797 38.7544 6.69512 38.5552L9.6402 34.8594C8.6216 33.5094 7.80229 32.0267 7.20442 30.4333L2.51 30.9644C2.24428 30.9865 2.00071 30.8095 1.97856 30.5439L0.93782 22.6433C0.893533 22.3777 1.09282 22.1342 1.35855 22.09L6.20796 21.3376C6.45154 19.6556 6.91655 18.018 7.603 16.4688L3.90504 13.5254C3.68361 13.3484 3.66146 13.0385 3.83861 12.8394L8.95375 6.44359C9.04233 6.33293 9.15304 6.26653 9.2859 6.26653C9.41876 6.2444 9.55162 6.28866 9.6402 6.37718L13.3382 9.32058C14.6889 8.30257 16.1725 7.48373 17.7447 6.8862L17.2133 2.1945C17.1911 1.92893 17.3683 1.68549 17.6561 1.66336L25.7828 0.756006C25.9156 0.733875 26.0485 0.778137 26.1371 0.866659C26.2478 0.955182 26.3142 1.06584 26.3142 1.19862L26.8457 5.89032C28.5064 6.13376 30.145 6.59851 31.6951 7.28456L34.6402 3.58872C34.7287 3.47807 34.8394 3.41169 34.9723 3.41169C35.1052 3.38956 35.238 3.43382 35.3266 3.52234L41.7261 8.63453C41.9475 8.81158 41.9696 9.1214 41.7925 9.32058L38.8474 13.0164C39.866 14.3664 40.6853 15.8491 41.2832 17.4425L45.9776 16.9114C46.1105 16.8893 46.2433 16.9336 46.3319 17.0221C46.4426 17.1106 46.5091 17.2213 46.5091 17.354L47.4169 25.4981C47.4391 25.7637 47.2619 26.0071 46.9741 26.0293L42.2796 26.5604C42.0361 28.2423 41.5711 29.8579 40.8846 31.407L44.5826 34.3504C44.804 34.5274 44.8261 34.8373 44.649 35.0364L39.5339 41.4322C39.4453 41.5429 39.3346 41.6093 39.2017 41.6093C39.0689 41.6314 38.936 41.5872 38.8474 41.4986L35.1495 38.5552C33.7987 39.5732 32.3151 40.3921 30.7429 40.9896L31.2744 45.6813C31.2965 45.9469 31.1194 46.1903 30.8315 46.2125L22.7048 47.1198C22.7048 47.1198 22.6827 47.1198 22.6606 47.1198ZM16.6597 39.4847C16.7261 39.4847 16.7925 39.5069 16.859 39.529C18.5197 40.3257 20.3133 40.8347 22.1291 41.056C22.3505 41.0781 22.5277 41.2552 22.5498 41.4765L23.0591 46.0797L30.2115 45.283L29.7022 40.6798C29.68 40.4585 29.8129 40.2372 30.0343 40.1708C31.7615 39.5511 33.4001 38.6659 34.8395 37.5151C35.0166 37.3823 35.2602 37.3823 35.4373 37.5151L39.0467 40.3921L43.5418 34.7488L39.9324 31.8718C39.7553 31.739 39.6889 31.4955 39.7996 31.2742C40.5968 29.5923 41.106 27.8219 41.3275 25.985C41.3496 25.7637 41.5268 25.5867 41.7482 25.5645L46.3319 25.0555L45.5347 17.8852L40.951 18.3942C40.7296 18.4163 40.5082 18.2835 40.4417 18.0622C39.8217 16.3139 38.936 14.6983 37.7845 13.2377C37.6517 13.0607 37.6517 12.8172 37.7845 12.6402L40.6632 9.03287L35.0387 4.51823L32.1601 8.12551C32.0272 8.30256 31.7615 8.36895 31.5622 8.25829C29.8793 7.46159 28.1078 6.9526 26.2921 6.7313C26.0706 6.70917 25.8935 6.53211 25.8714 6.31081L25.3621 1.70761L18.2097 2.50431L18.719 7.10751C18.7412 7.32881 18.6083 7.55013 18.3869 7.61652C16.6597 8.23618 15.0211 9.12141 13.5817 10.2722C13.4046 10.405 13.161 10.405 12.9839 10.2722L9.37448 7.39522L4.87936 13.0385L8.48874 15.9155C8.66589 16.0483 8.73232 16.2917 8.6216 16.5131C7.82444 18.195 7.31513 19.9655 7.0937 21.8023C7.07156 22.0236 6.89441 22.2007 6.67298 22.2228L1.93428 22.9531L2.84216 29.9243L7.42585 29.4153C7.64729 29.3931 7.86872 29.5259 7.93515 29.7472C8.55517 31.4956 9.44091 33.1111 10.5924 34.5717C10.7252 34.7488 10.7252 34.9922 10.5924 35.1693L7.71372 38.7765L13.3382 43.2912L16.2168 39.6839C16.3718 39.5511 16.5268 39.4847 16.6597 39.4847ZM24.2327 34.7488C21.797 34.7488 19.4276 33.9299 17.5011 32.3808C15.2425 30.566 13.8253 27.9989 13.5153 25.1219C12.851 19.1909 17.1468 13.8131 23.0591 13.1713C25.9378 12.8615 28.75 13.6582 31.0086 15.4729C33.2673 17.2876 34.6844 19.8548 34.9945 22.7318C35.6588 28.6628 31.3629 34.0406 25.4506 34.6824C25.0299 34.7266 24.6313 34.7488 24.2327 34.7488ZM24.277 14.0566C23.9006 14.0566 23.5463 14.0787 23.1699 14.1229C17.789 14.7205 13.8917 19.6114 14.4896 25.0113C14.7775 27.6227 16.0618 29.9685 18.1211 31.6062C20.1805 33.2439 22.7491 33.9963 25.3399 33.7086C30.7208 33.1111 34.618 28.2202 34.0201 22.8203C33.7323 20.2089 32.448 17.863 30.3886 16.2253C28.6393 14.809 26.4914 14.0566 24.277 14.0566Z" fill="black"/>
</svg>
