<svg width="197" height="146" viewBox="0 0 197 146" fill="none" xmlns="http://www.w3.org/2000/svg">
<path d="M25.6642 106.001C20.1726 59.7475 49.557 15.4197 95.9032 3.40268C135.097 -6.75531 174.911 9.20093 196.966 40.4052C177.325 28.1006 152.834 23.5638 128.609 29.8489C95.6375 38.3913 71.9661 64.6383 65.146 95.7763L85.6065 90.487L57.0857 145.039L5.64648 111.157L25.6642 106.001Z" fill="black"/>
<path d="M19.9955 106.001C14.504 59.7475 43.8883 15.4197 90.2567 3.40268C129.451 -6.75531 169.265 9.20093 191.319 40.4052C171.678 28.1006 147.188 23.5638 122.963 29.8489C89.991 38.3913 66.3197 64.6384 59.4773 95.7541L79.9379 90.4649L51.4393 145.039L0 111.157L19.9955 106.001Z" fill="#4ADA85"/>
</svg>
