<svg width="278" height="197" viewBox="0 0 278 197" fill="none" xmlns="http://www.w3.org/2000/svg">
<path d="M53.2093 196.538L46.4803 135.3L46.6165 106.95L72.9878 118.978L82.3594 196.538H53.2093Z" fill="white"/>
<path d="M53.2094 197H82.3594C82.4957 197 82.6183 196.946 82.7 196.851C82.7817 196.756 82.8226 196.62 82.8089 196.497L73.4237 118.937C73.4101 118.774 73.3011 118.652 73.1649 118.584L46.8073 106.557C46.6711 106.489 46.5076 106.502 46.3714 106.584C46.2352 106.665 46.1671 106.815 46.1671 106.964L46.0172 135.314C46.0172 135.327 46.0172 135.355 46.0172 135.368L52.7599 196.606C52.7871 196.824 52.9778 197 53.2094 197ZM81.8554 196.09H53.618L46.9299 135.287L47.0661 107.658L72.5656 119.291L81.8554 196.09Z" fill="black"/>
<path d="M43.0478 196.538L13.639 196.674C17.4802 173.706 21.7165 123.463 22.3703 120.228C23.2149 116.029 58.2222 124.781 58.2222 124.781L53.7407 145.982L43.0478 196.538Z" fill="white"/>
<path d="M13.6389 197H43.3338C43.5517 197 43.7288 196.851 43.7833 196.633L54.4762 145.248C54.5307 145.004 54.3672 144.759 54.122 144.718C53.8768 144.664 53.6316 144.827 53.5908 145.072L42.9796 196.09H14.1837C16.7718 180.08 19.7005 151.459 21.4576 134.294C22.3022 126.059 22.9015 120.106 23.1194 119.073C23.1331 119.033 23.1467 118.91 23.3783 118.761C26.7428 116.654 49.804 121.859 58.4128 124.047C58.658 124.115 58.9032 123.966 58.9577 123.721C59.0258 123.477 58.8759 123.232 58.6307 123.178C57.3503 122.851 27.2604 115.254 22.8879 118C22.5201 118.231 22.2885 118.53 22.2204 118.897C22.0025 119.97 21.4304 125.624 20.5586 134.199C18.7878 151.554 15.8183 180.597 13.203 196.47C13.1757 196.606 13.2166 196.742 13.2983 196.837C13.3801 196.932 13.5027 197 13.6389 197Z" fill="black"/>
<path d="M34.0441 17.3357L34.2076 18.7355L34.5618 21.8069C33.4039 21.6438 29.9577 21.1681 25.5716 24.7152C25.3536 24.8919 25.1493 25.0686 24.9314 25.2588C20.1366 29.5126 20.518 32.8422 22.5476 37.857C26.5796 47.8051 30.0939 59.7918 14.8106 62.8224C-0.472771 65.8667 -3.10173 38.1832 4.86686 28.14C10.4244 21.1274 18.6655 18.5452 24.9722 17.6618C28.8407 17.1182 31.9737 17.1998 33.3222 17.2677C33.799 17.3085 34.0441 17.3357 34.0441 17.3357Z" fill="black"/>
<path d="M12.5357 63.5296C13.2985 63.5296 14.0885 63.4481 14.9058 63.285C20.0139 62.2657 23.4601 60.1592 25.1628 56.9927C27.9961 51.7604 25.7758 44.6255 22.9697 37.6944C20.9401 32.666 20.7494 29.581 25.2445 25.6127C25.4625 25.4224 25.6668 25.2457 25.8711 25.0826C30.0938 21.6443 33.4174 22.1199 34.5072 22.2694C34.6434 22.283 34.7932 22.2423 34.8886 22.1471C34.9839 22.052 35.0384 21.9161 35.0248 21.7666L34.5072 17.2818C34.4799 17.0643 34.3165 16.9013 34.0985 16.8877C34.0985 16.8877 33.8397 16.8605 33.3629 16.8333C31.851 16.7518 28.7316 16.6838 24.9176 17.2274C18.7743 18.0972 10.2336 20.6522 4.51259 27.8822C-1.03137 34.8812 -1.56262 49.7762 3.4501 57.9576C5.71127 61.6406 8.81699 63.5296 12.5357 63.5296ZM33.0905 21.2502C31.347 21.2502 28.5546 21.7258 25.299 24.3759C25.0811 24.5526 24.8631 24.7293 24.6452 24.9331C19.7823 29.2413 19.9866 32.7204 22.1388 38.0342C24.8631 44.7614 27.0289 51.6653 24.3727 56.5714C22.779 59.5205 19.6188 61.4231 14.7287 62.4016C9.21201 63.5024 5.98371 60.3359 4.22654 57.4819C-0.52737 49.7219 -0.0233841 35.0715 5.2209 28.4394C10.7649 21.454 19.0604 18.967 25.0402 18.1244C28.7725 17.5944 31.8237 17.6487 33.3085 17.7439C33.4311 17.7575 33.54 17.7575 33.6354 17.771L34.044 21.3045C33.7852 21.2773 33.4583 21.2502 33.0905 21.2502Z" fill="black"/>
<path d="M34.2074 18.7496L34.5615 21.821C33.4037 21.6579 29.9575 21.1823 25.5713 24.7294C24.6451 22.3918 24.8221 19.1709 24.972 17.676C28.8405 17.1324 31.9734 17.2139 33.322 17.2819L34.2074 18.7496Z" fill="#FEC524"/>
<path d="M107.709 36.24C107.709 36.24 111.537 27.4879 111.591 24.1447C111.632 20.815 110.692 16.2215 113.757 17.431C116.822 18.6406 116.509 22.0246 116.509 22.0246C116.509 22.0246 122.693 7.89064 126.03 8.82837C129.367 9.77969 123.319 19.8093 123.319 19.8093C123.319 19.8093 130.798 23.0438 130.512 27.651C130.375 29.839 124.436 40.752 121.821 42.3285C120.581 44.5029 106.456 38.4009 107.709 36.24Z" fill="white"/>
<path d="M120.513 43.2388C121.317 43.2388 121.862 43.0486 122.162 42.6681C124.913 40.847 130.838 29.9611 130.975 27.6915C131.234 23.4649 125.649 20.4479 123.973 19.6325C125.008 17.8521 128.278 11.8996 127.311 9.45333C127.106 8.9233 126.698 8.55637 126.153 8.40687C123.101 7.53709 118.647 16.3164 116.781 20.3256C116.481 19.1704 115.746 17.7434 113.921 17.0231C113.103 16.697 112.449 16.7106 111.959 17.0639C110.897 17.8114 110.992 19.8907 111.087 22.0787C111.115 22.7718 111.142 23.4921 111.142 24.1445C111.101 27.2702 107.518 35.5739 107.314 36.036C107.014 36.5796 107.232 37.2319 107.968 37.9522C108.526 38.4958 109.371 39.1074 110.474 39.7461C112.477 40.8877 115.092 42.0157 117.299 42.6545C118.62 43.0486 119.696 43.2388 120.513 43.2388ZM125.662 9.23588C125.744 9.23588 125.826 9.24947 125.894 9.26306C126.166 9.3446 126.343 9.50769 126.452 9.7659C127.229 11.7229 124.164 17.5124 122.924 19.5781C122.856 19.6868 122.843 19.8227 122.884 19.945C122.924 20.0674 123.02 20.1761 123.129 20.2169C123.197 20.244 130.321 23.3698 130.048 27.61C129.926 29.6893 124.109 40.4121 121.576 41.9342C121.508 41.9749 121.453 42.0293 121.412 42.0973C120.908 42.9806 115.283 41.4721 110.897 38.9443C109.861 38.3463 109.058 37.7755 108.567 37.2999C108.131 36.865 108.009 36.566 108.077 36.4573C108.091 36.4437 108.091 36.4301 108.104 36.4165C108.268 36.0496 111.973 27.542 112.014 24.1445C112.027 23.4649 111.986 22.7311 111.959 22.0244C111.877 20.2576 111.796 18.2463 112.449 17.7842C112.681 17.6211 113.049 17.6483 113.553 17.8521C116.263 18.9258 116.032 21.8613 116.018 21.9836C116.005 22.201 116.141 22.4049 116.359 22.4593C116.577 22.5136 116.795 22.4049 116.89 22.201C119.165 17.0775 123.428 9.23588 125.662 9.23588Z" fill="black"/>
<path d="M123.183 19.9316L119.873 25.558C119.328 26.4821 119.614 27.6373 120.5 28.1673C121.385 28.6837 122.543 28.3576 123.088 27.447L126.398 21.8206C126.943 20.8965 126.657 19.7277 125.771 19.2113C125.322 18.9531 124.818 18.8987 124.355 19.0346C123.878 19.1569 123.456 19.4831 123.183 19.9316Z" fill="white"/>
<path d="M121.412 28.8745C121.617 28.8745 121.835 28.8473 122.039 28.793C122.638 28.6299 123.142 28.2358 123.469 27.6922L126.779 22.0658C127.447 20.9378 127.093 19.4836 125.989 18.8449C125.458 18.5323 124.818 18.4508 124.218 18.6274C123.619 18.7905 123.101 19.1846 122.788 19.7418L119.478 25.3682C119.151 25.9118 119.056 26.5506 119.206 27.1486C119.356 27.7601 119.723 28.2766 120.268 28.5891C120.622 28.7658 121.017 28.8745 121.412 28.8745ZM124.859 19.4157C125.104 19.4157 125.335 19.4836 125.54 19.6059C126.207 20 126.411 20.8834 126.003 21.5901L122.693 27.2165C122.488 27.5563 122.175 27.8009 121.794 27.9096C121.426 28.0183 121.045 27.964 120.718 27.7737C120.391 27.5834 120.173 27.2709 120.077 26.9039C119.982 26.5234 120.05 26.1293 120.255 25.7895L123.565 20.1631C123.769 19.8234 124.082 19.5787 124.464 19.47C124.6 19.4293 124.722 19.4157 124.859 19.4157Z" fill="black"/>
<path d="M126.316 21.9708L123.115 27.3934C122.597 28.2767 122.87 29.4047 123.714 29.9076C124.572 30.4104 125.689 30.0978 126.207 29.2145L129.408 23.7919C129.926 22.9086 129.667 21.7806 128.809 21.2777C128.386 21.0331 127.882 20.9787 127.433 21.101C126.983 21.2369 126.575 21.5359 126.316 21.9708Z" fill="white"/>
<path d="M124.613 30.6001C124.818 30.6001 125.022 30.5729 125.226 30.5186C125.812 30.3555 126.302 29.975 126.616 29.4449L129.803 24.0224C130.457 22.9216 130.103 21.5218 129.04 20.883C128.523 20.584 127.91 20.5025 127.31 20.6656C126.725 20.8287 126.234 21.2092 125.921 21.7392L122.72 27.1618C122.407 27.6918 122.311 28.3033 122.461 28.9013C122.611 29.4993 122.965 29.9885 123.496 30.3011C123.837 30.505 124.218 30.6001 124.613 30.6001ZM127.937 21.4946C128.169 21.4946 128.387 21.549 128.591 21.6713C129.231 22.0518 129.422 22.8944 129.027 23.5603L125.826 28.9829C125.635 29.309 125.335 29.5401 124.968 29.6488C124.613 29.7439 124.259 29.7031 123.946 29.5265C123.633 29.3498 123.428 29.0508 123.333 28.6975C123.251 28.3441 123.306 27.9636 123.496 27.6374L126.697 22.2149C126.888 21.8887 127.188 21.6577 127.556 21.549C127.692 21.5082 127.814 21.4946 127.937 21.4946Z" fill="black"/>
<path d="M128.836 24.797L126.139 29.3769C125.703 30.1244 125.989 31.1029 126.779 31.5649C127.569 32.027 128.564 31.796 129.013 31.0485L131.479 26.8491C131.915 26.1016 131.86 24.7426 131.07 24.2805C130.675 24.0495 130.226 23.9951 129.831 24.0767C129.422 24.1718 129.054 24.43 128.836 24.797Z" fill="white"/>
<path d="M127.665 32.2582C128.373 32.2582 129.04 31.9185 129.408 31.2797L131.874 27.0803C132.146 26.6182 132.255 25.9931 132.187 25.4087C132.105 24.7156 131.792 24.1856 131.302 23.8866C130.825 23.6012 130.253 23.5196 129.722 23.642C129.177 23.7643 128.727 24.0904 128.455 24.5661L125.758 29.146C125.199 30.1109 125.553 31.3613 126.561 31.9592C126.902 32.1495 127.283 32.2582 127.665 32.2582ZM130.198 24.4981C130.416 24.4981 130.648 24.5525 130.839 24.6748C131.07 24.8107 131.234 25.1233 131.288 25.5174C131.343 25.9115 131.261 26.3464 131.097 26.6318L128.632 30.8312C128.319 31.3612 127.597 31.5243 127.024 31.1846C126.452 30.8448 126.234 30.1381 126.548 29.6081L129.231 25.0282C129.381 24.7699 129.626 24.5933 129.926 24.5253C130.021 24.4981 130.103 24.4981 130.198 24.4981Z" fill="black"/>
<path d="M116.509 22.0249C116.509 22.0249 117.34 25.4225 115.95 27.4474C115.95 27.4474 117.707 28.8608 118.279 30.9809C118.838 33.101 117.639 34.6503 117.639 34.6503" fill="white"/>
<path d="M117.626 35.1125C117.762 35.1125 117.898 35.0582 117.98 34.9358C118.034 34.8679 119.315 33.1827 118.702 30.8723C118.252 29.16 117.081 27.8961 116.522 27.366C117.721 25.1916 116.972 22.0522 116.945 21.9163C116.89 21.6717 116.645 21.5222 116.4 21.5902C116.154 21.6445 116.005 21.8891 116.073 22.1338C116.086 22.161 116.836 25.3683 115.582 27.1894C115.446 27.3796 115.487 27.6514 115.664 27.8009C115.678 27.8145 117.312 29.16 117.83 31.1034C118.32 32.9652 117.312 34.3243 117.271 34.3786C117.122 34.5825 117.162 34.8543 117.353 35.0174C117.421 35.0853 117.517 35.1125 117.626 35.1125Z" fill="black"/>
<path d="M123.033 45.4406L118.865 52.0863L102.765 41.0782L107.096 34.3102C110.27 30.5457 126.534 40.5889 123.033 45.4406Z" fill="#71FFCC"/>
<path d="M118.879 52.5486C118.906 52.5486 118.947 52.5486 118.974 52.535C119.097 52.5078 119.206 52.4399 119.26 52.3312L123.415 45.6991C124.913 43.6062 123.415 40.5076 119.41 37.3954C114.901 33.9027 108.785 31.6195 106.756 34.0386C106.742 34.0522 106.728 34.0658 106.715 34.0794L102.383 40.8473C102.247 41.0512 102.301 41.323 102.506 41.4589L118.606 52.4671C118.688 52.5214 118.784 52.5486 118.879 52.5486ZM109.357 33.9435C111.823 33.9435 115.8 35.751 118.852 38.1157C121.617 40.263 124.069 43.2392 122.666 45.1827C122.666 45.1962 122.652 45.1962 122.652 45.2098L118.743 51.4614L103.391 40.9697L107.464 34.6094C107.873 34.1473 108.527 33.9435 109.357 33.9435Z" fill="black"/>
<path d="M62.2678 48.689C68.0298 49.3685 80.3708 54.8862 91.7584 59.6971L102.805 39.5971C106.81 33.8348 123.715 46.6776 119.696 52.4535C119.696 52.4535 107.11 78.0577 99.4273 80.6942C90.2737 83.8335 61.4506 72.2818 61.4506 72.2818L62.2678 48.689Z" fill="white"/>
<path d="M95.3682 81.686C97.0027 81.686 98.433 81.5093 99.5772 81.1152C107.287 78.4651 119.397 54.0977 120.091 52.6707C121.004 51.3389 120.99 49.5993 120.05 47.6287C117.871 43.008 111.169 38.0883 106.524 37.6942C104.685 37.5447 103.282 38.1019 102.438 39.325C102.424 39.3386 102.424 39.3522 102.41 39.3658L91.5678 59.0989C90.2465 58.5417 88.9115 57.9709 87.5766 57.4001C77.6602 53.1871 67.4168 48.8246 62.3224 48.2131C62.1998 48.1995 62.0635 48.2403 61.9682 48.3218C61.8728 48.4033 61.8184 48.5257 61.8047 48.648L60.9874 72.2544C60.9874 72.4446 61.0964 72.6213 61.2735 72.6892C62.3087 73.1241 83.8444 81.686 95.3682 81.686ZM105.938 38.6047C106.102 38.6047 106.265 38.6183 106.442 38.6319C110.747 38.9853 117.19 43.7419 119.233 48.05C119.778 49.2188 120.241 50.8904 119.328 52.2086C119.315 52.2222 119.301 52.2494 119.288 52.263C119.165 52.5212 106.701 77.7312 99.2775 80.2726C90.8867 83.1538 64.9786 73.1921 61.9137 71.9825L62.7038 49.2052C67.8254 49.9934 77.6738 54.1928 87.2225 58.2563C88.68 58.8815 90.1511 59.5066 91.595 60.1182C91.8129 60.2133 92.0581 60.1182 92.1671 59.9143L103.201 39.8415C103.773 39.0124 104.699 38.6047 105.938 38.6047Z" fill="black"/>
<path d="M63.9161 49.0558C61.9273 48.3899 59.8024 47.8463 57.5821 47.3978C54.6671 46.8134 51.6159 46.4193 48.5783 46.2155C46.5214 46.0796 44.4646 46.0252 42.4758 46.066C39.5472 46.1339 36.7548 46.3786 34.2484 46.827C30.4208 47.5065 24.5499 48.9879 22.6293 50.5644C17.5893 54.6822 20.6269 77.4052 19.687 97.682C18.9787 112.917 16.4996 128.437 17.5212 129.103C17.4531 133.628 77.5376 134.96 77.6057 130.435L73.3558 92.5584C73.3558 92.5584 77.7692 83.4122 76.121 76.8073C74.4591 70.2024 69.787 65.2555 69.787 65.2555C69.787 65.2555 69.678 60.7435 68.6155 56.449" fill="white"/>
<path d="M53.9588 133.696C59.7479 133.696 64.9786 133.519 69.0105 133.166C77.02 132.473 78.0552 131.345 78.0688 130.448C78.0688 130.434 78.0688 130.407 78.0688 130.394L73.8326 92.6398C74.3638 91.4846 78.1506 83.0586 76.5705 76.6984C75.0312 70.5691 70.9993 65.9077 70.2365 65.0787C70.2092 64.2089 70.0049 60.1726 69.0514 56.3537C68.9969 56.1091 68.7381 55.9596 68.5065 56.0275C68.2613 56.0819 68.1115 56.3265 68.1796 56.5711C69.2149 60.7569 69.3375 65.2281 69.3375 65.2825C69.3375 65.3912 69.3783 65.5 69.46 65.5815C69.5009 65.6359 74.0777 70.5284 75.6851 76.9294C77.2788 83.3033 73.0016 92.2865 72.9608 92.368C72.9199 92.4496 72.9063 92.5311 72.9199 92.6126L77.1698 130.448C77.129 130.57 76.6113 131.603 68.9424 132.269C63.957 132.704 57.1053 132.881 49.6544 132.758C41.5496 132.636 33.5673 132.188 27.751 131.508C18.0933 130.394 17.998 129.13 17.998 129.116C17.998 128.994 17.9435 128.858 17.8481 128.776C17.5212 128.043 18.0252 122.96 18.5564 117.592C19.1285 111.884 19.8369 104.776 20.1638 97.709C20.4771 90.8595 20.3545 83.8741 20.2183 77.1333C19.9731 64.4671 19.7687 53.5269 22.9289 50.9311C24.5908 49.5721 29.9304 48.0636 34.3302 47.2889C36.782 46.854 39.5199 46.5958 42.4894 46.5415C44.5054 46.5007 46.5486 46.5551 48.551 46.691C51.6159 46.8948 54.6262 47.2889 57.5004 47.8597C59.7479 48.3082 61.8592 48.8518 63.7799 49.4906C64.0114 49.5721 64.2702 49.4362 64.352 49.2052C64.4337 48.9741 64.2975 48.7159 64.0659 48.6344C62.118 47.982 59.9658 47.4248 57.6774 46.9628C54.776 46.3784 51.7248 45.9843 48.6191 45.7804C46.5895 45.6445 44.519 45.5901 42.4758 45.6309C39.4655 45.6989 36.673 45.9571 34.1803 46.392C31.0337 46.9492 24.509 48.4713 22.3568 50.2244C18.8561 53.092 19.0468 63.706 19.3056 77.1469C19.4282 83.8741 19.5644 90.8459 19.2511 97.6682C18.9242 104.722 18.2159 111.802 17.6438 117.496C16.8129 125.787 16.6086 128.45 17.0717 129.266C17.1262 129.959 17.8617 131.291 27.6284 132.405C33.472 133.085 41.4951 133.533 49.6271 133.655C51.0982 133.683 52.5421 133.696 53.9588 133.696Z" fill="black"/>
<path d="M57.2959 59.3437C54.0267 59.7921 51.0845 55.253 51.0845 55.253C51.0845 55.253 49.1638 48.254 48.5781 46.229C51.6157 46.4329 54.6669 46.827 57.5819 47.4114C58.9304 51.0536 59.9384 58.9767 57.2959 59.3437Z" fill="#71FFCC"/>
<path d="M56.8328 59.8193C57.0098 59.8193 57.1869 59.8057 57.3504 59.7786C57.8952 59.697 58.372 59.3708 58.6989 58.8272C60.1564 56.4217 59.0258 50.0071 58.0042 47.2483C57.9497 47.0988 57.8271 46.9901 57.6637 46.9629C54.7623 46.3785 51.7111 45.9844 48.5917 45.7805C48.4419 45.7669 48.3057 45.8349 48.2103 45.9436C48.115 46.0523 48.0877 46.2154 48.1286 46.3513C48.7007 48.3491 50.6077 55.2938 50.635 55.3617C50.6486 55.4025 50.6622 55.4432 50.6895 55.484C50.8257 55.6743 53.55 59.8193 56.8328 59.8193ZM57.2414 58.8952C54.4762 59.2757 51.8609 55.5656 51.5204 55.0627C51.3297 54.3968 49.8858 49.1102 49.2047 46.7319C51.9562 46.9357 54.6669 47.3027 57.255 47.8055C58.3175 50.8905 59.0531 56.5033 57.9361 58.3652C57.7454 58.6777 57.5138 58.8544 57.2414 58.8952Z" fill="black"/>
<path d="M51.0981 55.2535C51.0981 55.2535 50.4579 62.6195 46.6984 62.538C40.7322 62.4021 34.2892 52.0055 34.2483 46.8411C36.7547 46.3927 39.5471 46.148 42.4757 46.0801L44.015 47.942L51.0981 55.2535Z" fill="#71FFCC"/>
<path d="M46.7666 62.9725C50.8258 62.9725 51.5205 55.593 51.5477 55.2804C51.5613 55.1445 51.5069 55.0222 51.4251 54.927L44.3556 47.6154L42.8299 45.7808C42.7482 45.672 42.612 45.6177 42.4758 45.6177C42.4758 45.6177 42.4758 45.6177 42.4622 45.6177C39.4518 45.6856 36.6594 45.9438 34.1667 46.3787C33.9487 46.4195 33.7853 46.6098 33.7989 46.8272C33.8398 52.3721 40.4871 62.823 46.6848 62.9725C46.7121 62.9725 46.7393 62.9725 46.7666 62.9725ZM50.6215 55.4027C50.4852 56.5307 49.6816 62.062 46.7666 62.062C46.7529 62.062 46.7257 62.062 46.7121 62.062C41.2635 61.9396 35.0521 52.4944 34.7251 47.2077C37.0136 46.8272 39.5472 46.5962 42.2851 46.5282L43.6881 48.2134L50.6215 55.4027Z" fill="black"/>
<path d="M40.1327 31.2393C40.1327 31.2393 39.8058 43.0357 38.3483 46.4468C38.3483 46.4468 43.5517 55.2262 51.0844 55.2398C56.3015 55.2533 54.3945 46.9904 54.3945 46.9904C54.3945 46.9904 54.0403 40.6981 56.7374 37.3005C59.4617 33.903 40.1327 31.2393 40.1327 31.2393Z" fill="white"/>
<path d="M51.0981 55.7014C52.3649 55.7014 53.3593 55.253 54.054 54.3832C55.9065 52.0592 54.9666 47.4521 54.8577 46.9357C54.8304 46.4328 54.6397 40.6841 57.1052 37.5855C57.5684 37.0012 57.5003 36.4711 57.364 36.1314C56.1381 33.0736 41.8219 31.0214 40.2009 30.7904C40.0783 30.7768 39.9421 30.804 39.8468 30.8991C39.7514 30.9807 39.6833 31.103 39.6833 31.2253C39.6833 31.3476 39.3428 42.9809 37.9398 46.2698C37.8853 46.4057 37.8989 46.5552 37.967 46.6775C38.1849 47.0444 43.3884 55.6878 51.0981 55.7014ZM40.5687 31.7689C46.5485 32.6251 55.7567 34.5957 56.5195 36.4847C56.574 36.607 56.6012 36.7837 56.3969 37.0283C53.6181 40.5211 53.9314 46.759 53.945 47.0308C53.945 47.058 53.945 47.0852 53.9587 47.1124C53.9723 47.1531 54.9939 51.7602 53.3457 53.8396C52.8144 54.4919 52.0789 54.8181 51.0981 54.8181C44.5189 54.8045 39.6697 47.6832 38.866 46.4328C40.1056 43.1168 40.5006 34.0385 40.5687 31.7689Z" fill="black"/>
<path d="M75.2355 103.241C75.2355 103.241 80.8203 94.8693 77.7419 94.0267C74.6498 93.1841 65.646 104.913 65.646 104.913" fill="white"/>
<path d="M65.6459 105.361C65.7821 105.361 65.9183 105.306 66.0001 105.184C69.4191 100.74 75.576 93.9039 77.6192 94.4611C77.878 94.529 78.0415 94.6785 78.1232 94.9096C78.6817 96.3909 76.4069 100.658 74.8541 102.996C74.7178 103.2 74.7723 103.485 74.9766 103.621C75.181 103.757 75.467 103.702 75.6032 103.499C76.0391 102.846 79.8668 97.0025 78.9677 94.597C78.777 94.0805 78.3956 93.7408 77.8508 93.5913C74.5544 92.6943 66.218 103.417 65.2781 104.64C65.1283 104.844 65.1691 105.116 65.3598 105.279C65.4552 105.333 65.5505 105.361 65.6459 105.361Z" fill="black"/>
<path d="M94.864 123.666L77.4694 122.389C75.5351 122.253 74.0776 120.568 74.2274 118.638L76.3796 89.3915C76.5159 87.4617 78.2049 86.0076 80.1392 86.1571L97.5339 87.4345C99.4681 87.5704 100.926 89.2556 100.776 91.1855L98.6236 120.432C98.4874 122.362 96.7983 123.816 94.864 123.666Z" fill="#BF92FB"/>
<path d="M95.1229 124.129C97.1798 124.129 98.9233 122.539 99.0732 120.46L101.225 91.2132C101.389 89.0387 99.7406 87.1361 97.5612 86.973L80.1665 85.6955C79.104 85.614 78.0824 85.9537 77.2788 86.6468C76.4751 87.3399 75.9847 88.3048 75.9166 89.3513L73.7644 118.598C73.601 120.772 75.2491 122.675 77.4286 122.838L94.8233 124.115C94.9322 124.129 95.0276 124.129 95.1229 124.129ZM79.8805 86.5925C79.9622 86.5925 80.0303 86.5925 80.112 86.606L97.5067 87.8835C99.1958 88.0059 100.463 89.4736 100.34 91.1588L98.1878 120.405C98.1333 121.221 97.7519 121.954 97.1389 122.498C96.526 123.028 95.7359 123.286 94.9186 123.232L77.5239 121.954C75.8349 121.832 74.5681 120.364 74.6907 118.679L76.8429 89.4328C76.8974 88.6174 77.2788 87.8835 77.8917 87.3399C78.4502 86.8507 79.1449 86.5925 79.8805 86.5925Z" fill="black"/>
<path d="M65.646 104.912L67.2398 117.497C67.2398 117.497 84.58 119.712 88.5438 116.98C91.2273 115.119 89.4973 114.113 89.4973 114.113C92.603 112.237 89.5109 110.511 89.5109 110.511C90.8867 110.131 92.0582 108.595 90.7777 107.522C89.5246 106.475 82.9181 107.1 82.6321 107.141C82.9454 107.032 90.41 105.578 89.4837 103.58C87.999 100.387 73.2605 102.779 73.2605 102.779" fill="white"/>
<path d="M79.7715 118.788C83.5855 118.788 87.1952 118.448 88.7889 117.347C89.9467 116.545 90.5188 115.744 90.4916 114.983C90.478 114.656 90.3554 114.385 90.2056 114.167C90.9684 113.596 91.3361 112.971 91.3225 112.305C91.3089 111.585 90.8321 110.987 90.4099 110.607C91.091 110.212 91.6086 109.587 91.7448 108.935C91.881 108.283 91.6494 107.644 91.0637 107.168C90.3826 106.597 88.5846 106.461 86.7321 106.461C88.5029 105.836 89.5245 105.184 89.865 104.477C90.0421 104.11 90.0421 103.73 89.8786 103.376C88.2985 99.9653 74.7179 102.072 73.1787 102.316C72.9335 102.357 72.77 102.588 72.7972 102.833C72.8381 103.078 73.0697 103.254 73.3149 103.213C78.8861 102.316 88.0806 101.664 89.0477 103.757C89.1022 103.866 89.1022 103.961 89.0477 104.083C88.8298 104.532 87.7401 105.469 82.9044 106.597C82.6592 106.652 82.5094 106.693 82.4685 106.706C82.2506 106.788 82.128 107.005 82.1825 107.236C82.237 107.454 82.4413 107.603 82.6728 107.589C86.0101 107.263 89.756 107.263 90.478 107.875C90.7913 108.147 90.9139 108.432 90.8458 108.758C90.7232 109.315 90.0966 109.873 89.3746 110.077C89.1976 110.131 89.075 110.28 89.0477 110.457C89.0205 110.634 89.1158 110.81 89.2793 110.906C89.5926 111.082 90.4099 111.68 90.4099 112.333C90.4235 112.903 89.7833 113.406 89.2384 113.732C89.1022 113.814 89.0205 113.963 89.0205 114.126C89.0205 114.29 89.1022 114.439 89.252 114.521C89.2657 114.521 89.5653 114.724 89.579 115.051C89.579 115.295 89.4291 115.825 88.2713 116.627C84.7978 119.019 70.1002 117.402 67.6347 117.116L66.0955 104.885C66.0682 104.64 65.8367 104.464 65.5915 104.491C65.3463 104.518 65.1692 104.749 65.1965 104.994L66.7902 117.578C66.8174 117.782 66.9809 117.945 67.1852 117.972C67.6075 117.986 73.9415 118.788 79.7715 118.788Z" fill="black"/>
<path d="M83.027 111.626C83.0406 111.626 83.0542 111.626 83.0815 111.626L89.5653 110.946C89.8105 110.919 90.0012 110.702 89.974 110.444C89.9467 110.199 89.7424 110.022 89.47 110.036L82.9861 110.715C82.7409 110.743 82.5502 110.96 82.5775 111.218C82.6047 111.449 82.7954 111.626 83.027 111.626Z" fill="black"/>
<path d="M82.9454 115.064C82.959 115.064 82.9726 115.064 82.9862 115.064L89.5246 114.548C89.7697 114.534 89.9604 114.317 89.9468 114.059C89.9332 113.814 89.7153 113.624 89.4565 113.637L82.9181 114.154C82.6729 114.167 82.4822 114.385 82.4959 114.643C82.5231 114.888 82.7138 115.064 82.9454 115.064Z" fill="black"/>
<path d="M66.6539 118.652L58.808 119.087L58.5083 101.677L66.545 101.297C71.4623 101.65 72.6474 118.679 66.6539 118.652Z" fill="#71FFCC"/>
<path d="M58.808 119.549C58.8216 119.549 58.8216 119.549 58.8352 119.549L66.6676 119.114C69.2693 119.114 70.9856 116.219 71.1491 111.571C71.3261 106.584 69.6234 101.066 66.5722 100.862C66.5586 100.862 66.5314 100.862 66.5177 100.862L58.481 101.243C58.2359 101.256 58.0452 101.46 58.0452 101.705L58.3448 119.114C58.3448 119.236 58.3993 119.359 58.4947 119.44C58.5764 119.508 58.6854 119.549 58.808 119.549ZM66.654 118.204C66.6403 118.204 66.6403 118.204 66.6267 118.204L59.2575 118.611L58.9714 102.113L66.5314 101.759C68.9151 101.95 70.3999 107.059 70.2364 111.531C70.1274 114.765 69.1194 118.204 66.654 118.204Z" fill="black"/>
<path d="M60.0066 119.861C60.0066 119.861 57.977 120.051 54.7351 120.241C43.906 120.867 18.9241 124.373 12.2224 117.089C5.24814 109.532 13.4074 71.0038 14.9603 62.2788C16.5949 53.0646 23.3784 50.0747 23.3784 50.0747L32.8726 64.7658C35.5424 71.9415 30.3662 100.916 30.3662 100.916L56.2607 100.44L60.1973 100.182C65.6459 100.345 65.4553 120.01 60.0066 119.861Z" fill="white"/>
<path d="M33.7988 122.634C46.099 122.634 58.8215 120.527 60.0474 120.323C61.0282 120.337 62.4176 119.793 63.4528 117.225C64.1475 115.512 64.5562 113.175 64.6379 110.647C64.7877 105.455 63.4528 99.8427 60.2109 99.7475L30.911 100.468C31.6329 96.3228 35.8011 71.3709 33.2948 64.6302C33.213 64.3991 32.9406 64.2768 32.709 64.3583C32.4775 64.4399 32.3549 64.7117 32.4366 64.9427C35.0247 71.9282 29.9575 100.563 29.9166 100.862C29.8894 100.998 29.9302 101.134 30.0256 101.242C30.1209 101.351 30.2435 101.406 30.3798 101.406L60.2109 100.672C60.9873 100.699 61.6956 101.256 62.295 102.357C64.311 106.081 64.1884 114.575 62.0634 118.026C61.4777 118.991 60.7966 119.467 60.0202 119.44C59.9929 119.44 59.9657 119.44 59.9248 119.44C59.5434 119.508 20.9945 125.977 12.5492 116.817C6.21519 109.954 12.7944 73.0154 15.5868 60.621C17.0307 54.2336 23.5281 50.537 23.5962 50.5098C23.8142 50.3875 23.8959 50.1157 23.7733 49.8983C23.6507 49.6808 23.3783 49.5993 23.1604 49.7216C22.8743 49.8847 16.2406 53.6492 14.715 60.4308C14.606 60.9064 4.03574 108.907 11.8954 117.442C15.614 121.451 24.577 122.634 33.7988 122.634Z" fill="black"/>
<path d="M40.1738 32.3808C40.1738 32.3808 40.0921 32.34 39.9423 32.2585C38.8253 31.6605 34.1667 28.8745 35.992 24.7702C38.0625 20.1223 43.1433 23.4791 43.1433 23.4791C43.1433 23.4791 47.8291 6.47767 59.8569 8.17646C61.5869 8.42108 63.1125 9.9432 64.3384 12.2264C68.8744 20.6252 69.4465 39.2031 62.159 41.2417C55.6343 43.0628 49.9405 40.5758 45.9766 37.7762" fill="white"/>
<path d="M57.6911 42.3149C59.1622 42.3149 60.7014 42.1246 62.2815 41.6761C64.1204 41.1597 65.5643 39.6919 66.5859 37.3C69.2694 31.0213 68.3567 18.7221 64.7334 12.0085C63.3576 9.45349 61.6958 7.98573 59.9114 7.72752C48.8916 6.16463 43.838 19.8365 42.8709 22.7992C41.9718 22.3235 40.0512 21.5081 38.2668 22.0245C37.0817 22.3643 36.1691 23.2341 35.5697 24.5931C33.5946 29.0235 38.5392 32.0134 39.6698 32.6386C39.6834 32.6522 39.697 32.6657 39.7243 32.6657C39.8741 32.7473 39.9695 32.7881 39.9695 32.7881C40.1874 32.8968 40.4598 32.8016 40.5688 32.5842C40.6778 32.3532 40.5824 32.0949 40.3645 31.9726C40.3645 31.9726 40.2964 31.9455 40.1874 31.8775C40.1738 31.8639 40.1602 31.8639 40.1466 31.8503C38.8525 31.1572 34.7661 28.6158 36.4006 24.9464C36.891 23.8456 37.5993 23.1525 38.512 22.8807C40.5007 22.2963 42.8572 23.832 42.8709 23.8456C42.9934 23.9272 43.1433 23.9408 43.2795 23.8864C43.4157 23.832 43.5247 23.7233 43.5519 23.5874C43.5928 23.4243 48.265 6.98005 59.7615 8.62448C61.2327 8.82833 62.6765 10.1466 63.9025 12.4434C67.4305 18.9667 68.3022 30.8718 65.7141 36.9467C64.8151 39.0668 63.5619 40.3714 61.9955 40.8063C55.4844 42.6274 49.8178 39.9637 46.1945 37.4088C45.9902 37.2593 45.7041 37.3136 45.5679 37.5175C45.4181 37.7213 45.4726 38.0067 45.6769 38.1426C48.6191 40.1948 52.8009 42.3149 57.6911 42.3149Z" fill="black"/>
<path d="M64.3382 12.24C60.3607 15.7056 50.526 15.1756 48.7961 16.0317C46.6302 17.1054 47.0116 27.1078 45.5678 26.673C44.1239 26.2381 43.1431 23.4928 43.1431 23.4928C43.1431 23.4928 38.0623 20.1496 35.9918 24.7839C34.1665 28.8882 38.8251 31.6742 39.9421 32.2722C39.9421 32.2722 37.7218 35.629 32.9679 30.4782C27.6963 24.7703 25.0538 11.9682 38.8251 4.03149C51.1526 -3.07624 66.1363 1.38138 66.0137 8.72015C65.9864 10.2151 65.3598 11.3567 64.3382 12.24Z" fill="black"/>
<path d="M37.749 33.7939C37.8443 33.7939 37.9397 33.7939 38.035 33.7803C39.547 33.658 40.2962 32.5572 40.3235 32.5164C40.3643 32.4621 40.378 32.3941 40.3916 32.3262C40.4188 32.1359 40.3235 31.9456 40.16 31.8641C38.866 31.171 34.7795 28.6296 36.4141 24.9602C36.9045 23.8594 37.6128 23.1663 38.5254 22.8945C40.2553 22.3916 42.2577 23.4789 42.7753 23.7779C43.0341 24.4302 43.9877 26.659 45.4452 27.0939C45.6631 27.1618 45.881 27.1211 46.0717 26.9988C46.712 26.5911 46.9299 25.1777 47.2977 22.5275C47.6246 20.1492 48.0605 16.8876 49.014 16.4255C49.4907 16.1809 50.921 16.0586 52.5692 15.8955C56.4786 15.5285 61.8318 15.0121 64.6515 12.5659C65.8366 11.533 66.4632 10.2419 66.4904 8.71979C66.5313 6.27353 65.0329 4.03113 62.2541 2.40029C56.9553 -0.711889 47.1478 -1.28268 38.6344 3.62342C31.2652 7.87719 29.0312 13.2182 28.4727 16.9419C27.5737 22.8129 30.0528 27.9365 32.6682 30.7633C34.4798 32.7882 36.1961 33.7939 37.749 33.7939ZM39.2201 32.3805C38.9477 32.598 38.5254 32.8426 37.9397 32.897C36.632 32.9921 35.0383 32.0544 33.2948 30.1789C30.9382 27.6239 28.4727 22.6499 29.3309 17.105C30.1073 12.0358 33.4718 7.65974 39.0567 4.43884C47.2704 -0.30418 56.6965 0.239433 61.7637 3.21571C64.2428 4.66988 65.5914 6.62688 65.5505 8.73338C65.5233 10.0109 65.0329 11.0437 64.0249 11.9135C61.4368 14.1695 56.0291 14.6859 52.4466 15.0257C50.5668 15.2024 49.2047 15.3383 48.5781 15.6508C47.2023 16.3304 46.7801 19.4425 46.3714 22.446C46.1807 23.8866 45.9083 25.8164 45.595 26.2377C44.6279 25.8572 43.7969 24.0497 43.5518 23.3566C43.5245 23.2614 43.4564 23.1799 43.3747 23.1255C43.2657 23.0576 40.6504 21.3588 38.253 22.0519C37.0679 22.3916 36.1553 23.2614 35.5559 24.6205C33.7988 28.5752 37.5991 31.3884 39.2201 32.3805Z" fill="black"/>
<path d="M54.8482 24.8896C54.7097 24.1519 55.0591 23.4676 55.6285 23.3613C56.1978 23.255 56.7716 23.7668 56.91 24.5045C57.0484 25.2423 56.6991 25.9265 56.1297 26.0329C55.5604 26.1392 54.9866 25.6274 54.8482 24.8896Z" fill="black"/>
<path d="M61.4883 22.81C61.3499 22.0723 61.6992 21.388 62.2686 21.2817C62.8379 21.1754 63.4117 21.6872 63.5501 22.425C63.6886 23.1627 63.3392 23.8469 62.7699 23.9533C62.2005 24.0596 61.6267 23.5478 61.4883 22.81Z" fill="black"/>
<path d="M56.3152 20.5844C56.3152 20.5844 54.3537 19.769 52.5829 21.9299L56.3152 20.5844Z" fill="white"/>
<path d="M52.5692 22.3919C52.7055 22.3919 52.8281 22.3375 52.9234 22.2288C54.449 20.3805 56.07 20.9921 56.1381 21.0193C56.3697 21.1144 56.6285 21.0057 56.7238 20.7746C56.8192 20.5436 56.7102 20.2854 56.4786 20.1902C56.3833 20.1495 54.1902 19.2797 52.2151 21.658C52.0516 21.8483 52.0789 22.1337 52.2832 22.2967C52.3649 22.3511 52.4739 22.3919 52.5692 22.3919Z" fill="black"/>
<path d="M63.8342 19.0215C63.8342 19.0215 61.8727 18.206 60.1019 20.3669L63.8342 19.0215Z" fill="white"/>
<path d="M60.102 20.8152C60.2382 20.8152 60.3608 20.7609 60.4561 20.6521C61.9817 18.8038 63.6027 19.4154 63.6708 19.4426C63.9024 19.5377 64.1612 19.429 64.2565 19.198C64.3519 18.9669 64.2429 18.7087 64.0113 18.6136C63.916 18.5728 61.7093 17.703 59.7478 20.0813C59.5843 20.2716 59.6116 20.557 59.8159 20.7201C59.8976 20.7744 59.993 20.8152 60.102 20.8152Z" fill="black"/>
<path d="M60.1564 24.5664C60.9328 26.5098 61.7228 28.4396 62.4993 30.3831C62.6219 30.6956 62.7581 31.0354 62.7172 31.3752C62.6763 31.8236 62.3494 32.1906 61.9544 32.4216C61.5594 32.6526 61.1235 32.7342 60.6876 32.8293" fill="white"/>
<path d="M60.7013 33.2775C60.7285 33.2775 60.7694 33.2775 60.7966 33.2639C61.2461 33.1687 61.7501 33.06 62.1996 32.8018C62.7581 32.4756 63.1259 31.9592 63.1804 31.4156C63.2212 30.9535 63.0578 30.5458 62.9216 30.206L60.5787 24.3894C60.4833 24.1584 60.2245 24.0496 59.9929 24.1448C59.7614 24.2399 59.6524 24.4981 59.7478 24.7291L62.077 30.5458C62.186 30.8176 62.295 31.0894 62.2677 31.3205C62.2405 31.6194 61.9681 31.8777 61.7365 32.0136C61.4096 32.2038 61.0009 32.2854 60.6059 32.3805C60.3607 32.4349 60.2109 32.6659 60.2518 32.9105C60.2926 33.1416 60.4833 33.2775 60.7013 33.2775Z" fill="black"/>
<path d="M57.5547 36.1724C58.985 36.9198 60.7422 37.0285 62.2542 36.4713L57.5547 36.1724Z" fill="white"/>
<path d="M60.2517 37.2734C60.9873 37.2734 61.7229 37.1511 62.4176 36.8929C62.6491 36.8113 62.7717 36.5395 62.69 36.3085C62.6083 36.0775 62.3494 35.9551 62.1043 36.0367C60.7149 36.5531 59.0939 36.4444 57.7726 35.7649C57.5547 35.6426 57.2823 35.7377 57.1597 35.9551C57.0507 36.1726 57.1324 36.4444 57.3504 36.5667C58.2358 37.0424 59.2437 37.2734 60.2517 37.2734Z" fill="black"/>
<path d="M53.8906 77.5956C54.0949 77.5956 54.2856 77.4597 54.3265 77.2422C56.0155 69.8083 55.1438 61.9124 51.861 55.0221C51.752 54.791 51.4796 54.6959 51.2616 54.8046C51.0301 54.9134 50.9347 55.1852 51.0437 55.4026C54.2311 62.1162 55.0893 69.7948 53.4411 77.0248C53.3866 77.2694 53.5364 77.5141 53.7816 77.5684C53.8225 77.5956 53.8497 77.5956 53.8906 77.5956Z" fill="black"/>
<path d="M55.9769 64.0804C55.3033 63.9217 54.8862 63.2483 55.0453 62.5762C55.2043 61.9042 55.8793 61.4881 56.5529 61.6468C57.2264 61.8054 57.6435 62.4789 57.4845 63.1509C57.3254 63.8229 56.6505 64.239 55.9769 64.0804Z" fill="#71FFCC"/>
<path d="M56.3438 68.595C55.8544 68.1068 55.8544 67.3151 56.3438 66.8268C56.8332 66.3386 57.6267 66.3386 58.1161 66.8268C58.6055 67.3151 58.6055 68.1068 58.1161 68.595C57.6267 69.0833 56.8332 69.0833 56.3438 68.595Z" fill="#71FFCC"/>
<path d="M56.8211 73.5833C56.3317 73.095 56.3317 72.3034 56.8211 71.8151C57.3105 71.3269 58.104 71.3269 58.5934 71.8151C59.0828 72.3034 59.0828 73.095 58.5934 73.5833C58.104 74.0716 57.3105 74.0716 56.8211 73.5833Z" fill="#71FFCC"/>
<path d="M46.5213 18.5731C46.9435 16.2084 48.7552 14.1019 51.0436 13.3408C52.3376 12.9059 53.7679 12.8652 55.1437 12.8244L55.7839 12.7972C57.4866 12.7293 59.2574 12.5526 60.7558 11.6692C62.2269 10.7994 63.48 8.93756 63.0305 7.07568L62.1451 7.29313C62.4993 8.7337 61.4777 10.1879 60.2926 10.8946C58.9713 11.6692 57.3367 11.8323 55.7566 11.8867L55.1164 11.9138C53.6726 11.9546 52.1742 12.009 50.7576 12.4846C48.1695 13.3544 46.1126 15.7463 45.6359 18.4236L46.5213 18.5731Z" fill="white"/>
<path d="M32.1914 20.0543L33.0768 19.8912C32.6681 17.7032 32.9542 15.3792 33.8804 13.3543C34.8067 11.3293 36.3868 9.60333 38.321 8.48892L37.8715 7.70068C35.7738 8.91022 34.0711 10.7857 33.0631 12.9737C32.0552 15.1754 31.7419 17.6896 32.1914 20.0543Z" fill="white"/>
<path d="M56.7373 5.41745L57.4048 4.80588C55.525 2.75374 52.4466 1.84319 49.7359 2.56348L49.9674 3.43326C52.3648 2.80811 55.0755 3.59634 56.7373 5.41745Z" fill="white"/>
<path d="M249.665 66.7697V91.8545C249.665 95.2814 246.871 98.0686 243.437 98.0686H148.775C145.34 98.0686 142.546 95.2814 142.546 91.8545V66.7697C142.546 63.3429 145.34 60.5557 148.775 60.5557H243.437C246.871 60.5709 249.665 63.3429 249.665 66.7697Z" fill="black"/>
<path d="M243.437 98.5866H148.775C145.065 98.5866 142.043 95.571 142.043 91.8699V66.7699C142.043 63.0689 145.065 60.0532 148.775 60.0532H243.437C247.146 60.0532 250.169 63.0689 250.169 66.7699V91.8547C250.169 95.571 247.146 98.5866 243.437 98.5866ZM148.775 61.0737C145.615 61.0737 143.05 63.6324 143.05 66.7851V91.8547C143.05 95.0074 145.615 97.5662 148.775 97.5662H243.437C246.597 97.5662 249.161 95.0074 249.161 91.8547V66.7699C249.161 63.6172 246.597 61.0584 243.437 61.0584H148.775V61.0737Z" fill="black"/>
<path d="M249.665 109.112V134.196C249.665 137.623 246.871 140.41 243.437 140.41H148.775C145.34 140.41 142.546 137.623 142.546 134.196V109.112C142.546 105.685 145.34 102.897 148.775 102.897H243.437C246.871 102.913 249.665 105.685 249.665 109.112Z" fill="black"/>
<path d="M243.437 140.928H148.775C145.065 140.928 142.043 137.913 142.043 134.212V109.127C142.043 105.426 145.065 102.41 148.775 102.41H243.437C247.146 102.41 250.169 105.426 250.169 109.127V134.196C250.169 137.913 247.146 140.928 243.437 140.928ZM148.775 103.415C145.615 103.415 143.05 105.974 143.05 109.127V134.196C143.05 137.349 145.615 139.908 148.775 139.908H243.437C246.597 139.908 249.161 137.349 249.161 134.196V109.112C249.161 105.959 246.597 103.4 243.437 103.4H148.775V103.415Z" fill="black"/>
<path d="M249.693 151.586L249.637 176.655C249.629 180.082 246.83 182.863 243.395 182.855L148.733 182.645C145.298 182.638 142.511 179.844 142.519 176.417L142.574 151.333C142.582 147.906 145.382 145.125 148.816 145.132L243.478 145.343C246.913 145.365 249.7 148.144 249.693 151.586Z" fill="black"/>
<path d="M243.394 183.373L148.732 183.163C145.023 183.155 142.007 180.133 142.015 176.432L142.071 151.347C142.079 147.646 145.108 144.637 148.818 144.645L243.479 144.855C247.189 144.864 250.205 147.886 250.196 151.587L250.141 176.657C250.132 180.373 247.103 183.382 243.394 183.373ZM148.815 145.651C145.655 145.644 143.085 148.197 143.078 151.349L143.022 176.419C143.015 179.572 145.574 182.136 148.734 182.143L243.396 182.353C246.556 182.36 249.126 179.807 249.133 176.654L249.189 151.57C249.196 148.417 246.637 145.852 243.477 145.845L148.815 145.635L148.815 145.651Z" fill="black"/>
<path d="M246.612 81.5288H148.011V145.254H246.612V81.5288Z" fill="black"/>
<path d="M246.612 145.756H148.012C147.737 145.756 147.508 145.528 147.508 145.254V81.529C147.508 81.2548 147.737 81.0264 148.012 81.0264H246.612C246.887 81.0264 247.116 81.2548 247.116 81.529V145.254C247.116 145.528 246.887 145.756 246.612 145.756ZM148.515 144.736H246.108V82.0316H148.515V144.736Z" fill="black"/>
<path d="M257.511 66.7693V91.8541C257.511 95.2809 254.718 98.0681 251.283 98.0681H156.606C153.171 98.0681 150.377 95.2809 150.377 91.8541V66.7693C150.377 63.3424 153.171 60.5552 156.606 60.5552H251.268C254.718 60.5704 257.511 63.3424 257.511 66.7693Z" fill="white"/>
<path d="M251.283 98.5861H156.606C152.896 98.5861 149.874 95.5705 149.874 91.8694V66.7694C149.874 63.0684 152.896 60.0527 156.606 60.0527H251.268C254.977 60.0527 258 63.0684 258 66.7694V91.8542C258.015 95.5705 254.992 98.5861 251.283 98.5861ZM156.606 61.0732C153.446 61.0732 150.881 63.6319 150.881 66.7847V91.8542C150.881 95.007 153.446 97.5657 156.606 97.5657H251.268C254.428 97.5657 256.992 95.007 256.992 91.8542V66.7694C256.992 63.6167 254.428 61.058 251.268 61.058H156.606V61.0732Z" fill="black"/>
<path d="M168.421 80.7061H159.415V89.6921H168.421V80.7061Z" fill="#71FFCC"/>
<path d="M182.267 80.7061H173.261V89.6921H182.267V80.7061Z" fill="#FEC524"/>
<path d="M196.113 80.7061H187.106V89.6921H196.113V80.7061Z" fill="#BF92FB"/>
<path d="M243.665 80.7061H234.659V89.6921H243.665V80.7061Z" fill="black"/>
<path d="M239.162 71.4603H163.918C163.643 71.4603 163.414 71.2318 163.414 70.9577C163.414 70.6835 163.643 70.4551 163.918 70.4551H239.162C239.437 70.4551 239.666 70.6835 239.666 70.9577C239.666 71.2318 239.437 71.4603 239.162 71.4603Z" fill="black"/>
<path d="M257.511 109.111V134.195C257.511 137.622 254.718 140.409 251.283 140.409H156.606C153.171 140.409 150.377 137.622 150.377 134.195V109.111C150.377 105.684 153.171 102.896 156.606 102.896H251.268C254.718 102.912 257.511 105.684 257.511 109.111Z" fill="white"/>
<path d="M251.283 140.927H156.606C152.896 140.927 149.874 137.912 149.874 134.211V109.126C149.874 105.425 152.896 102.409 156.606 102.409H251.268C254.977 102.409 258 105.425 258 109.126V134.195C258.015 137.912 254.992 140.927 251.283 140.927ZM156.606 103.414C153.446 103.414 150.881 105.973 150.881 109.126V134.195C150.881 137.348 153.446 139.907 156.606 139.907H251.268C254.428 139.907 256.992 137.348 256.992 134.195V109.111C256.992 105.958 254.428 103.399 251.268 103.399H156.606V103.414Z" fill="black"/>
<path d="M243.131 127.418C246.318 127.418 248.902 124.84 248.902 121.66C248.902 118.481 246.318 115.903 243.131 115.903C239.944 115.903 237.361 118.481 237.361 121.66C237.361 124.84 239.944 127.418 243.131 127.418Z" fill="#BF92FB"/>
<path d="M243.131 127.937C239.666 127.937 236.842 125.119 236.842 121.662C236.842 118.204 239.666 115.387 243.131 115.387C246.596 115.387 249.421 118.204 249.421 121.662C249.405 125.119 246.596 127.937 243.131 127.937ZM243.131 116.407C240.231 116.407 237.865 118.768 237.865 121.662C237.865 124.556 240.231 126.916 243.131 126.916C246.032 126.916 248.398 124.556 248.398 121.662C248.398 118.768 246.032 116.407 243.131 116.407Z" fill="black"/>
<path d="M226.324 127.418C229.511 127.418 232.094 124.84 232.094 121.66C232.094 118.481 229.511 115.903 226.324 115.903C223.137 115.903 220.553 118.481 220.553 121.66C220.553 124.84 223.137 127.418 226.324 127.418Z" fill="#FEC524"/>
<path d="M226.324 127.937C222.859 127.937 220.034 125.119 220.034 121.662C220.034 118.204 222.859 115.387 226.324 115.387C229.789 115.387 232.613 118.204 232.613 121.662C232.598 125.119 229.789 127.937 226.324 127.937ZM226.324 116.407C223.423 116.407 221.057 118.768 221.057 121.662C221.057 124.556 223.423 126.916 226.324 126.916C229.224 126.916 231.59 124.556 231.59 121.662C231.59 118.768 229.224 116.407 226.324 116.407Z" fill="black"/>
<path d="M161.936 112.958C162.145 112.074 161.596 111.188 160.71 110.98C159.824 110.771 158.936 111.318 158.727 112.202C158.518 113.087 159.066 113.972 159.952 114.181C160.839 114.39 161.727 113.843 161.936 112.958Z" fill="black"/>
<path d="M168.741 113.731C169.385 113.088 169.385 112.047 168.741 111.404C168.097 110.762 167.054 110.762 166.41 111.404C165.766 112.047 165.766 113.088 166.41 113.731C167.054 114.373 168.097 114.373 168.741 113.731Z" fill="black"/>
<path d="M175.977 113.731C176.621 113.089 176.621 112.048 175.977 111.405C175.333 110.763 174.289 110.763 173.646 111.405C173.002 112.048 173.002 113.089 173.646 113.731C174.289 114.374 175.333 114.374 175.977 113.731Z" fill="black"/>
<path d="M183.213 113.731C183.857 113.089 183.857 112.048 183.213 111.405C182.569 110.763 181.525 110.763 180.882 111.405C180.238 112.048 180.238 113.089 180.882 113.731C181.525 114.374 182.569 114.374 183.213 113.731Z" fill="black"/>
<path d="M190.449 113.732C191.093 113.09 191.093 112.048 190.449 111.406C189.805 110.763 188.761 110.763 188.117 111.406C187.474 112.048 187.474 113.09 188.117 113.732C188.761 114.374 189.805 114.374 190.449 113.732Z" fill="black"/>
<path d="M197.685 113.732C198.329 113.09 198.329 112.048 197.685 111.406C197.041 110.763 195.997 110.763 195.354 111.406C194.71 112.048 194.71 113.09 195.354 113.732C195.997 114.374 197.041 114.374 197.685 113.732Z" fill="black"/>
<path d="M161.945 125.075C162.154 124.191 161.605 123.305 160.719 123.096C159.833 122.888 158.945 123.435 158.736 124.319C158.526 125.203 159.075 126.089 159.961 126.298C160.847 126.507 161.735 125.959 161.945 125.075Z" fill="black"/>
<path d="M168.748 125.852C169.392 125.21 169.392 124.168 168.748 123.526C168.104 122.883 167.06 122.883 166.416 123.526C165.772 124.168 165.772 125.21 166.416 125.852C167.06 126.494 168.104 126.494 168.748 125.852Z" fill="black"/>
<path d="M175.984 125.852C176.628 125.21 176.628 124.168 175.984 123.526C175.34 122.883 174.296 122.883 173.652 123.526C173.009 124.168 173.009 125.21 173.652 125.852C174.296 126.494 175.34 126.494 175.984 125.852Z" fill="black"/>
<path d="M183.22 125.852C183.864 125.21 183.864 124.168 183.22 123.526C182.576 122.883 181.532 122.883 180.888 123.526C180.245 124.168 180.245 125.21 180.888 125.852C181.532 126.494 182.576 126.494 183.22 125.852Z" fill="black"/>
<path d="M190.456 125.853C191.1 125.21 191.1 124.169 190.456 123.526C189.812 122.884 188.768 122.884 188.124 123.526C187.48 124.169 187.48 125.21 188.124 125.853C188.768 126.495 189.812 126.495 190.456 125.853Z" fill="black"/>
<path d="M197.692 125.853C198.336 125.21 198.336 124.169 197.692 123.526C197.048 122.884 196.004 122.884 195.36 123.526C194.717 124.169 194.717 125.21 195.36 125.853C196.004 126.495 197.048 126.495 197.692 125.853Z" fill="black"/>
<path d="M165.126 119.791C165.77 119.149 165.77 118.107 165.127 117.465C164.483 116.822 163.439 116.822 162.795 117.465C162.151 118.107 162.151 119.149 162.795 119.791C163.439 120.433 164.483 120.433 165.126 119.791Z" fill="black"/>
<path d="M172.795 119.019C173.004 118.135 172.456 117.249 171.57 117.04C170.683 116.831 169.795 117.379 169.586 118.263C169.377 119.147 169.926 120.033 170.812 120.242C171.698 120.451 172.586 119.903 172.795 119.019Z" fill="black"/>
<path d="M180.032 119.02C180.241 118.136 179.692 117.25 178.806 117.041C177.92 116.832 177.032 117.38 176.823 118.264C176.614 119.148 177.162 120.034 178.049 120.243C178.935 120.452 179.823 119.904 180.032 119.02Z" fill="black"/>
<path d="M187.269 119.02C187.478 118.136 186.929 117.25 186.043 117.041C185.157 116.832 184.269 117.38 184.06 118.264C183.85 119.148 184.399 120.034 185.285 120.243C186.171 120.452 187.059 119.904 187.269 119.02Z" fill="black"/>
<path d="M194.505 119.021C194.714 118.137 194.166 117.251 193.279 117.043C192.393 116.834 191.505 117.381 191.296 118.265C191.087 119.15 191.636 120.035 192.522 120.244C193.408 120.453 194.296 119.905 194.505 119.021Z" fill="black"/>
<path d="M201.742 119.022C201.951 118.138 201.402 117.252 200.516 117.043C199.63 116.834 198.742 117.382 198.533 118.266C198.323 119.15 198.872 120.036 199.758 120.245C200.644 120.453 201.532 119.906 201.742 119.022Z" fill="black"/>
<path d="M165.123 131.901C165.766 131.259 165.766 130.217 165.123 129.575C164.479 128.932 163.435 128.932 162.791 129.575C162.147 130.217 162.147 131.259 162.791 131.901C163.435 132.543 164.479 132.543 165.123 131.901Z" fill="black"/>
<path d="M172.789 131.131C172.999 130.247 172.45 129.361 171.564 129.152C170.678 128.944 169.79 129.491 169.58 130.375C169.371 131.259 169.92 132.145 170.806 132.354C171.692 132.563 172.58 132.015 172.789 131.131Z" fill="black"/>
<path d="M180.026 131.133C180.235 130.249 179.686 129.363 178.8 129.154C177.914 128.945 177.026 129.493 176.817 130.377C176.608 131.261 177.156 132.147 178.042 132.356C178.929 132.564 179.817 132.017 180.026 131.133Z" fill="black"/>
<path d="M187.262 131.133C187.472 130.249 186.923 129.363 186.037 129.154C185.151 128.946 184.263 129.493 184.053 130.377C183.844 131.261 184.393 132.147 185.279 132.356C186.165 132.565 187.053 132.017 187.262 131.133Z" fill="black"/>
<path d="M194.499 131.135C194.708 130.251 194.16 129.365 193.274 129.156C192.387 128.947 191.499 129.495 191.29 130.379C191.081 131.263 191.63 132.149 192.516 132.357C193.402 132.566 194.29 132.019 194.499 131.135Z" fill="black"/>
<path d="M201.736 131.135C201.945 130.251 201.396 129.365 200.51 129.156C199.624 128.948 198.736 129.495 198.527 130.379C198.318 131.263 198.866 132.149 199.752 132.358C200.639 132.567 201.527 132.019 201.736 131.135Z" fill="black"/>
<path d="M257.511 151.466V176.536C257.511 179.963 254.718 182.75 251.283 182.75H156.606C153.171 182.75 150.377 179.963 150.377 176.536V151.451C150.377 148.024 153.171 145.237 156.606 145.237H251.268C254.718 145.252 257.511 148.024 257.511 151.466Z" fill="white"/>
<path d="M251.283 183.268H156.606C152.896 183.268 149.874 180.252 149.874 176.551V151.466C149.874 147.765 152.896 144.75 156.606 144.75H251.268C254.977 144.75 258 147.765 258 151.466V176.536C258.015 180.252 254.992 183.268 251.283 183.268ZM156.606 145.755C153.446 145.755 150.881 148.313 150.881 151.466V176.536C150.881 179.688 153.446 182.247 156.606 182.247H251.268C254.428 182.247 256.992 179.688 256.992 176.536V151.451C256.992 148.298 254.428 145.74 251.268 145.74H156.606V145.755Z" fill="black"/>
<path d="M245.346 169.321C248.29 168.104 249.688 164.736 248.468 161.799C247.249 158.861 243.873 157.466 240.929 158.683C237.985 159.9 236.586 163.268 237.806 166.205C239.026 169.143 242.401 170.538 245.346 169.321Z" fill="#BF92FB"/>
<path d="M243.131 170.277C239.666 170.277 236.842 167.459 236.842 164.002C236.842 160.545 239.666 157.727 243.131 157.727C246.596 157.727 249.421 160.545 249.421 164.002C249.405 167.459 246.596 170.277 243.131 170.277ZM243.131 158.747C240.231 158.747 237.865 161.108 237.865 164.002C237.865 166.896 240.231 169.257 243.131 169.257C246.032 169.257 248.398 166.896 248.398 164.002C248.398 161.108 246.032 158.747 243.131 158.747Z" fill="black"/>
<path d="M231.929 165.336C232.661 162.242 230.741 159.141 227.639 158.41C224.538 157.68 221.43 159.596 220.698 162.69C219.965 165.784 221.886 168.885 224.987 169.616C228.089 170.347 231.197 168.43 231.929 165.336Z" fill="#FEC524"/>
<path d="M226.324 170.278C222.859 170.278 220.034 167.46 220.034 164.003C220.034 160.545 222.859 157.728 226.324 157.728C229.789 157.728 232.613 160.545 232.613 164.003C232.598 167.46 229.789 170.278 226.324 170.278ZM226.324 158.748C223.423 158.748 221.057 161.109 221.057 164.003C221.057 166.896 223.423 169.257 226.324 169.257C229.224 169.257 231.59 166.896 231.59 164.003C231.59 161.109 229.224 158.748 226.324 158.748Z" fill="black"/>
<path d="M161.933 155.303C162.142 154.419 161.593 153.533 160.707 153.324C159.821 153.115 158.933 153.663 158.724 154.547C158.515 155.431 159.063 156.317 159.949 156.525C160.836 156.734 161.724 156.187 161.933 155.303Z" fill="black"/>
<path d="M168.74 156.073C169.384 155.43 169.384 154.389 168.74 153.747C168.096 153.104 167.053 153.104 166.409 153.747C165.765 154.389 165.765 155.43 166.409 156.073C167.053 156.715 168.096 156.715 168.74 156.073Z" fill="black"/>
<path d="M175.976 156.073C176.62 155.431 176.62 154.389 175.976 153.747C175.333 153.105 174.289 153.105 173.645 153.747C173.001 154.389 173.001 155.431 173.645 156.073C174.289 156.716 175.333 156.716 175.976 156.073Z" fill="black"/>
<path d="M183.212 156.073C183.856 155.431 183.856 154.389 183.212 153.747C182.568 153.105 181.524 153.105 180.881 153.747C180.237 154.389 180.237 155.431 180.881 156.073C181.524 156.716 182.568 156.716 183.212 156.073Z" fill="black"/>
<path d="M190.448 156.073C191.092 155.431 191.092 154.389 190.448 153.747C189.804 153.105 188.761 153.105 188.117 153.747C187.473 154.389 187.473 155.431 188.117 156.073C188.761 156.716 189.804 156.716 190.448 156.073Z" fill="black"/>
<path d="M197.684 156.075C198.328 155.432 198.328 154.391 197.684 153.749C197.041 153.106 195.997 153.106 195.353 153.749C194.709 154.391 194.709 155.432 195.353 156.075C195.997 156.717 197.041 156.717 197.684 156.075Z" fill="black"/>
<path d="M161.942 167.42C162.151 166.536 161.602 165.65 160.716 165.441C159.83 165.232 158.942 165.78 158.733 166.664C158.523 167.548 159.072 168.434 159.958 168.643C160.844 168.851 161.732 168.304 161.942 167.42Z" fill="black"/>
<path d="M168.747 168.193C169.391 167.551 169.391 166.51 168.747 165.867C168.103 165.225 167.059 165.225 166.416 165.867C165.772 166.51 165.772 167.551 166.416 168.193C167.059 168.836 168.103 168.836 168.747 168.193Z" fill="black"/>
<path d="M175.983 168.193C176.627 167.551 176.627 166.51 175.983 165.867C175.339 165.225 174.295 165.225 173.651 165.867C173.008 166.51 173.008 167.551 173.651 168.193C174.295 168.836 175.339 168.836 175.983 168.193Z" fill="black"/>
<path d="M183.219 168.194C183.863 167.552 183.863 166.51 183.219 165.868C182.575 165.225 181.531 165.225 180.887 165.868C180.244 166.51 180.244 167.551 180.887 168.194C181.531 168.836 182.575 168.836 183.219 168.194Z" fill="black"/>
<path d="M190.455 168.194C191.099 167.552 191.099 166.51 190.455 165.868C189.811 165.225 188.767 165.225 188.124 165.868C187.48 166.51 187.48 167.551 188.124 168.194C188.767 168.836 189.811 168.836 190.455 168.194Z" fill="black"/>
<path d="M197.691 168.194C198.335 167.552 198.335 166.51 197.691 165.868C197.047 165.225 196.003 165.225 195.359 165.868C194.716 166.51 194.716 167.551 195.359 168.194C196.003 168.836 197.047 168.836 197.691 168.194Z" fill="black"/>
<path d="M165.126 162.133C165.77 161.49 165.77 160.449 165.126 159.807C164.482 159.164 163.438 159.164 162.794 159.807C162.15 160.449 162.15 161.49 162.794 162.133C163.438 162.775 164.482 162.775 165.126 162.133Z" fill="black"/>
<path d="M172.792 161.363C173.002 160.479 172.453 159.593 171.567 159.384C170.681 159.175 169.793 159.723 169.583 160.607C169.374 161.491 169.923 162.377 170.809 162.586C171.695 162.794 172.583 162.247 172.792 161.363Z" fill="black"/>
<path d="M180.029 161.363C180.238 160.479 179.69 159.593 178.803 159.384C177.917 159.176 177.029 159.723 176.82 160.607C176.611 161.491 177.16 162.377 178.046 162.586C178.932 162.795 179.82 162.247 180.029 161.363Z" fill="black"/>
<path d="M187.266 161.365C187.475 160.481 186.926 159.595 186.04 159.386C185.154 159.177 184.266 159.725 184.057 160.609C183.847 161.493 184.396 162.379 185.282 162.587C186.168 162.796 187.056 162.249 187.266 161.365Z" fill="black"/>
<path d="M194.502 161.365C194.712 160.481 194.163 159.595 193.277 159.386C192.391 159.178 191.503 159.725 191.293 160.609C191.084 161.493 191.633 162.379 192.519 162.588C193.405 162.797 194.293 162.249 194.502 161.365Z" fill="black"/>
<path d="M201.739 161.366C201.948 160.482 201.399 159.596 200.513 159.387C199.627 159.179 198.739 159.726 198.53 160.61C198.321 161.494 198.869 162.38 199.756 162.589C200.642 162.798 201.53 162.25 201.739 161.366Z" fill="black"/>
<path d="M165.133 174.253C165.776 173.611 165.776 172.57 165.133 171.927C164.489 171.285 163.445 171.285 162.801 171.927C162.157 172.57 162.157 173.611 162.801 174.253C163.445 174.896 164.489 174.896 165.133 174.253Z" fill="black"/>
<path d="M172.801 173.479C173.01 172.595 172.462 171.709 171.576 171.501C170.689 171.292 169.801 171.839 169.592 172.723C169.383 173.608 169.932 174.493 170.818 174.702C171.704 174.911 172.592 174.364 172.801 173.479Z" fill="black"/>
<path d="M180.038 173.48C180.247 172.596 179.698 171.71 178.812 171.501C177.926 171.292 177.038 171.84 176.829 172.724C176.62 173.608 177.168 174.494 178.054 174.703C178.941 174.911 179.829 174.364 180.038 173.48Z" fill="black"/>
<path d="M187.275 173.481C187.484 172.597 186.935 171.711 186.049 171.503C185.163 171.294 184.275 171.841 184.066 172.725C183.856 173.609 184.405 174.495 185.291 174.704C186.177 174.913 187.065 174.365 187.275 173.481Z" fill="black"/>
<path d="M194.511 173.482C194.72 172.598 194.172 171.712 193.286 171.503C192.399 171.294 191.511 171.842 191.302 172.726C191.093 173.61 191.642 174.496 192.528 174.705C193.414 174.913 194.302 174.366 194.511 173.482Z" fill="black"/>
<path d="M201.748 173.483C201.957 172.599 201.408 171.713 200.522 171.504C199.636 171.296 198.748 171.843 198.539 172.727C198.33 173.611 198.878 174.497 199.764 174.706C200.651 174.915 201.539 174.367 201.748 173.483Z" fill="black"/>
<path d="M214.371 74.721H207.532C207.349 74.721 207.196 74.5687 207.196 74.3859V67.5626C207.196 67.3798 207.349 67.2275 207.532 67.2275H214.371C214.554 67.2275 214.707 67.3798 214.707 67.5626V74.3859C214.707 74.5535 214.554 74.721 214.371 74.721Z" fill="black"/>
<path d="M277.457 67.8944C277.457 75.8828 270.977 82.3481 262.97 82.3481C257.542 82.3481 217.695 82.3481 212.436 82.3481C204.768 82.3481 198.56 76.1536 198.56 68.5037C198.56 60.8537 204.768 54.6593 212.436 54.6593C212.69 54.6593 212.928 54.6593 213.165 54.6762V54.6593C213.165 41.3565 223.971 30.5586 237.304 30.5586C250.265 30.5586 260.833 40.7303 261.427 53.5084C261.936 53.4577 262.444 53.4238 262.953 53.4238C270.96 53.4407 277.457 59.906 277.457 67.8944Z" fill="white"/>
<path d="M262.97 82.9065H212.436C204.48 82.9065 198 76.4413 198 68.5036C198 60.5659 204.48 54.1007 212.436 54.1007C212.487 54.1007 212.555 54.1007 212.606 54.1007C212.911 40.7472 223.886 30 237.304 30C250.332 30 261.053 40.0194 261.952 52.916C262.292 52.8991 262.631 52.8821 262.953 52.8821C271.248 52.8821 278 59.6182 278 67.8943C278.017 76.1705 271.265 82.9065 262.97 82.9065ZM212.436 55.2177C205.091 55.2177 199.12 61.1752 199.12 68.5036C199.12 75.832 205.091 81.7895 212.436 81.7895H262.97C270.638 81.7895 276.897 75.5612 276.897 67.8943C276.897 60.2274 270.655 53.9992 262.97 53.9992C262.495 53.9992 262.003 54.033 261.494 54.0838C261.342 54.1007 261.189 54.0499 261.07 53.9484C260.952 53.8468 260.884 53.6945 260.867 53.5422C260.29 40.9672 249.942 31.117 237.304 31.117C224.31 31.117 213.725 41.678 213.725 54.6423C213.725 54.7946 213.657 54.947 213.556 55.0654C213.437 55.167 213.301 55.2347 213.131 55.2347C212.911 55.2178 212.673 55.2177 212.436 55.2177Z" fill="black"/>
<path d="M229.637 38.5803C231.435 37.9202 233.369 37.5479 235.405 37.5479L229.637 38.5803Z" fill="white"/>
<path d="M229.637 39.139C229.399 39.139 229.196 39.0036 229.111 38.7667C229.009 38.479 229.145 38.1574 229.45 38.0389C231.35 37.3281 233.369 36.9727 235.405 36.9727C235.71 36.9727 235.964 37.2265 235.964 37.5312C235.964 37.8358 235.71 38.0897 235.405 38.0897C233.488 38.0897 231.622 38.4282 229.84 39.0713C229.773 39.139 229.705 39.139 229.637 39.139Z" fill="black"/>
<path d="M220.46 46.8574C221.596 44.5557 223.242 42.5585 225.26 41.0015L220.46 46.8574Z" fill="white"/>
<path d="M220.46 47.416C220.375 47.416 220.29 47.3991 220.205 47.3652C219.917 47.2298 219.815 46.8913 219.951 46.6036C221.104 44.2511 222.818 42.1524 224.904 40.5615C225.159 40.3753 225.515 40.4092 225.701 40.6631C225.888 40.9169 225.854 41.2554 225.6 41.4585C223.649 42.9648 222.037 44.9111 220.969 47.1114C220.884 47.2975 220.68 47.416 220.46 47.416Z" fill="black"/>
<path d="M248.574 71.8685C255.165 65.2921 255.165 54.6297 248.574 48.0533C241.982 41.477 231.295 41.477 224.704 48.0533C218.112 54.6297 218.112 65.2921 224.704 71.8685C231.295 78.4449 241.982 78.4449 248.574 71.8685Z" fill="#71FFCC"/>
<path d="M236.643 77.3712C227.025 77.3712 219.204 69.552 219.204 59.9557C219.204 50.3594 227.025 42.5571 236.643 42.5571C246.261 42.5571 254.081 50.3594 254.081 59.9557C254.098 69.552 246.261 77.3712 236.643 77.3712ZM236.643 43.6911C227.652 43.6911 220.324 50.9856 220.324 59.9726C220.324 68.9596 227.635 76.2541 236.643 76.2541C245.634 76.2541 252.962 68.9596 252.962 59.9726C252.962 50.9856 245.65 43.6911 236.643 43.6911Z" fill="black"/>
<path d="M244.938 60.8021C244.463 60.8021 244.09 60.4298 244.09 59.9559C244.09 55.8601 240.748 52.526 236.643 52.526C236.168 52.526 235.795 52.1536 235.795 51.6797C235.795 51.2058 236.168 50.8335 236.643 50.8335C241.681 50.8335 245.786 54.9293 245.786 59.9559C245.786 60.4298 245.413 60.8021 244.938 60.8021Z" fill="black"/>
<path d="M236.643 69.079C231.605 69.079 227.5 64.9832 227.5 59.9566C227.5 59.4827 227.873 59.1104 228.348 59.1104C228.823 59.1104 229.196 59.4827 229.196 59.9566C229.196 64.0524 232.538 67.3865 236.643 67.3865C237.118 67.3865 237.491 67.7589 237.491 68.2327C237.491 68.7066 237.118 69.079 236.643 69.079Z" fill="black"/>
<path d="M247.5 60.6163L245.617 63.155C245.277 63.612 244.599 63.612 244.26 63.155L242.377 60.6163C241.969 60.0578 242.36 59.2793 243.055 59.2793H246.821C247.517 59.2793 247.907 60.0578 247.5 60.6163Z" fill="black"/>
<path d="M225.803 59.5675L227.686 57.0288C228.025 56.5718 228.704 56.5718 229.043 57.0288L230.926 59.5675C231.333 60.126 230.943 60.9045 230.248 60.9045H226.482C225.786 60.9045 225.396 60.126 225.803 59.5675Z" fill="black"/>
</svg>
