<svg width="21" height="19" viewBox="0 0 21 19" fill="none" xmlns="http://www.w3.org/2000/svg">
<path d="M15.6239 5.74212C13.762 5.74212 11.9843 4.6562 10.2652 3.60605C8.68349 2.63978 7.04785 1.64061 5.53221 1.64061C2.61932 1.64061 1.52979 3.28351 1.51962 3.30008C1.28268 3.68624 0.777615 3.80715 0.391417 3.57025C0.00525902 3.3333 -0.115695 2.8282 0.12125 2.44204C0.182444 2.34233 1.66416 0 5.53221 0C7.50931 0 9.34511 1.12148 11.1205 2.206C12.7162 3.18081 14.2234 4.10151 15.6239 4.10151C16.8198 4.10151 17.8434 3.80703 18.6662 3.22625C19.2292 2.82894 19.4778 2.44639 19.48 2.4427C19.7166 2.05629 20.2216 1.93481 20.6079 2.17146C20.9943 2.40808 21.1158 2.91302 20.8792 3.29938C20.8181 3.39917 19.3407 5.74212 15.6239 5.74212ZM20.8792 7.85206C21.1158 7.4657 20.9943 6.96076 20.6079 6.72415C20.2216 6.48753 19.7166 6.60898 19.48 6.99538C19.4778 6.99907 19.2292 7.38162 18.6662 7.77893C17.8434 8.35971 16.8198 8.6542 15.6239 8.6542C14.2234 8.6542 12.7162 7.73349 11.1205 6.75868C9.34511 5.67416 7.50931 4.55268 5.53221 4.55268C1.66416 4.55268 0.182444 6.89502 0.12125 6.99472C-0.115695 7.38088 0.00525902 7.88594 0.391417 8.12293C0.777615 8.35979 1.28268 8.23896 1.51962 7.85276C1.52979 7.83619 2.61932 6.19329 5.53221 6.19329C7.04785 6.19329 8.68349 7.19246 10.2652 8.15873C11.9843 9.20888 13.762 10.3329 15.6239 10.3329C19.3407 10.3329 20.8181 7.95185 20.8792 7.85206ZM20.8792 12.3637C21.1158 11.9774 20.9943 11.4724 20.6079 11.2358C20.2216 10.9992 19.7166 11.1206 19.48 11.507C19.4778 11.5107 19.2292 11.8933 18.6662 12.2906C17.8434 12.8714 16.8198 13.1659 15.6239 13.1659C14.2234 13.1659 12.7162 12.2452 11.1205 11.2703C9.34511 10.1858 7.50931 9.06435 5.53221 9.06435C1.66416 9.06435 0.182444 11.4067 0.12125 11.5064C-0.115695 11.8925 0.00525902 12.3976 0.391417 12.6346C0.777615 12.8715 1.28268 12.7506 1.51962 12.3644C1.52979 12.3479 2.61932 10.705 5.53221 10.705C7.04785 10.705 8.68349 11.7041 10.2652 12.6704C11.9843 13.7205 13.762 14.8446 15.6239 14.8446C19.3407 14.8445 20.8181 12.4635 20.8792 12.3637ZM14.3791 18.3665C14.5469 17.9456 14.3418 17.4684 13.921 17.3007C13.016 16.9399 12.0953 16.3774 11.1205 15.782C9.34511 14.6975 7.50931 13.576 5.53221 13.576C1.66416 13.576 0.182444 15.9183 0.12125 16.0181C-0.115695 16.4042 0.00525902 16.9093 0.391417 17.1463C0.777615 17.3831 1.28268 17.2622 1.51962 16.8761C1.52979 16.8595 2.61932 15.2166 5.53221 15.2166C7.04785 15.2166 8.68345 16.2157 10.2652 17.182C11.2554 17.7869 12.2792 18.4124 13.3134 18.8247C13.413 18.8644 13.5158 18.8832 13.6169 18.8832C13.9428 18.8832 14.2511 18.6876 14.3791 18.3665ZM20.9999 16.4441C20.9999 15.9911 20.6326 15.6238 20.1796 15.6238C19.8791 15.6238 19.617 15.7859 19.4742 16.027C19.3892 16.1515 18.8048 16.9491 17.4978 17.3894C17.0685 17.534 16.8377 17.9993 16.9823 18.4287C17.0977 18.7712 17.4171 18.9873 17.7596 18.9873C17.8464 18.9873 17.9348 18.9734 18.0216 18.9441C20.0032 18.2766 20.8444 16.9323 20.8792 16.8754L20.8772 16.8742C20.9545 16.749 20.9999 16.6021 20.9999 16.4441Z" fill="url(#paint0_linear_758_32132)"/>
<defs>
<linearGradient id="paint0_linear_758_32132" x1="10.5" y1="0" x2="10.5" y2="18.9873" gradientUnits="userSpaceOnUse">
<stop stop-color="#C19BFF"/>
<stop offset="1" stop-color="#FFADCB"/>
</linearGradient>
</defs>
</svg>
