<svg width="60" height="60" viewBox="0 0 60 60" fill="none" xmlns="http://www.w3.org/2000/svg">
<path d="M58.5137 25.3209L58.51 25.3188L52.3337 20.3544V1.12983C52.3337 0.535489 51.8529 0 51.2585 0H8.74523C8.15089 0 7.67005 0.534964 7.67005 1.12983V20.3544L1.498 25.3188L1.49012 25.3209C1.23367 25.5232 1.08233 25.8306 1.07812 26.1575V53.4895C1.07812 57.0498 3.99257 60 7.55339 60H52.4504C56.0112 60 58.9257 57.0498 58.9257 53.4895V26.1575C58.9215 25.8306 58.7701 25.5232 58.5137 25.3209ZM56.0301 26.0902L52.3337 28.6332V23.1164L56.0301 26.0902ZM50.1813 2.15247V30.114L32.4413 42.3183C30.9699 43.3221 29.0334 43.3221 27.562 42.3183L9.82252 30.114V2.15247H50.1813ZM7.67005 28.6332L3.97365 26.0902L7.67005 23.1164V28.6332ZM56.7732 53.4895C56.7732 55.8632 54.8241 57.8475 52.4504 57.8475H7.55339C5.17969 57.8475 3.23059 55.8632 3.23059 53.4895V28.2043L26.3333 44.0925C28.5457 45.598 31.4539 45.598 33.6662 44.0925L56.7732 28.2043V53.4895Z" fill="#2D3C58"/>
<path d="M17.1974 32.825H20.6347C20.9127 32.8287 21.1796 32.7184 21.3735 32.5192C21.5675 32.3206 21.671 32.051 21.6605 31.7735V31.2107H38.3421V31.7735C38.3316 32.051 38.4351 32.3206 38.629 32.5192C38.8229 32.7184 39.0899 32.8287 39.3679 32.825H42.8052C43.0858 32.8298 43.3559 32.7205 43.554 32.5223C43.7527 32.3237 43.862 32.0536 43.8578 31.7735V28.4082C43.8704 27.8144 43.3995 27.3225 42.8052 27.3093H42.2434V9.41697H42.8052C43.3995 9.40383 43.8704 8.91196 43.8578 8.31814V4.9528C43.862 4.67271 43.7527 4.4026 43.554 4.20396C43.3559 4.00585 43.0858 3.89654 42.8052 3.90127H39.3679C39.0899 3.89759 38.8229 4.00795 38.629 4.20711C38.4351 4.40575 38.3316 4.67534 38.3421 4.9528V5.51562H21.6605V4.9528C21.671 4.67534 21.5675 4.40575 21.3735 4.20711C21.1796 4.00795 20.9127 3.89759 20.6347 3.90127H17.1974C16.9167 3.89654 16.6466 4.00585 16.4485 4.20396C16.2499 4.4026 16.1406 4.67271 16.1448 4.9528V8.31814C16.1322 8.91196 16.603 9.40383 17.1974 9.41697H17.7591V27.3093H17.1974C16.603 27.3225 16.1322 27.8144 16.1448 28.4082V31.7735C16.1406 32.0536 16.2499 32.3237 16.4485 32.5223C16.6466 32.7205 16.9167 32.8298 17.1974 32.825ZM19.508 30.6726H18.2972V29.4618H19.508V30.6726ZM41.7053 30.6726H40.4946V29.4618H41.7053V30.6726ZM40.4946 6.05374H41.7053V7.2645H40.4946V6.05374ZM18.2972 6.05374H19.508V7.2645H18.2972V6.05374ZM19.9116 9.41697H20.6347C21.229 9.41697 21.6605 8.91248 21.6605 8.31814V7.66809H38.3421V8.31814C38.3421 8.91248 38.7735 9.41697 39.3679 9.41697H40.091V27.3093H39.3679C38.7735 27.3093 38.3421 27.8138 38.3421 28.4082V29.0582H21.6605V28.4082C21.6605 27.8138 21.229 27.3093 20.6347 27.3093H19.9116V9.41697Z" fill="#2D3C58"/>
<path d="M22.3657 27.0735C22.4472 27.0735 22.5281 27.0646 22.6074 27.0462L27.7958 25.8464C28.0769 25.7823 28.3344 25.6394 28.5378 25.435L38.1282 15.8256C38.9028 15.0468 38.9023 13.7882 38.1266 13.0105L35.3525 10.2363C34.5748 9.46016 33.3157 9.45963 32.5369 10.2348L22.928 19.8247C22.7241 20.0275 22.5812 20.284 22.5165 20.5646L21.3168 25.7545C21.2427 26.074 21.3189 26.4098 21.5228 26.6662C21.7272 26.9232 22.0373 27.0724 22.3652 27.0724L22.3657 27.0735ZM24.2118 22.7901L25.5729 24.1512L23.8024 24.5605L24.2118 22.7901ZM27.6964 23.231L25.132 20.6665L32.0003 13.8119L34.5511 16.3627L27.6964 23.231ZM36.4913 14.4188L36.0719 14.8392L33.5243 12.2916L33.9447 11.8717L36.4913 14.4188Z" fill="#2D3C58"/>
</svg>
