<svg width="60" height="60" viewBox="0 0 60 60" fill="none" xmlns="http://www.w3.org/2000/svg">
<g clip-path="url(#clip0_758_31529)">
<path d="M52.8918 15.0112C52.1622 15.0105 51.4369 15.1221 50.7413 15.3421C50.8073 14.8178 50.8407 14.2898 50.8413 13.7615C50.7114 6.03252 44.3407 -0.127827 36.6116 0.00201539C30.9716 0.0967419 25.9396 3.56788 23.848 8.80671C19.803 6.29845 14.4906 7.54439 11.9824 11.5894C11.1659 12.9062 10.7195 14.4188 10.6902 15.9679C9.60126 15.3392 8.36557 15.009 7.10813 15.0112C3.24309 15.0112 0.109863 18.1444 0.109863 22.0094C0.109863 25.8745 3.24309 29.0077 7.10813 29.0077C7.66024 29.0077 8.10788 28.5601 8.10788 28.0079C8.10788 27.4558 7.66024 27.0082 7.10813 27.0082C4.34769 26.9633 2.14636 24.6893 2.19122 21.9288C2.23609 19.1684 4.51015 16.9671 7.27059 17.0119C8.95092 17.0393 10.505 17.9091 11.4071 19.327C11.7095 19.789 12.3291 19.9183 12.7911 19.616C13.1904 19.3547 13.3493 18.8477 13.1706 18.4052C12.8558 17.6459 12.6915 16.8327 12.6867 16.0108C12.7269 12.3877 15.692 9.48079 19.3151 9.51241C20.9295 9.51878 22.4868 10.1098 23.699 11.176C24.1152 11.5389 24.7468 11.4957 25.1095 11.0795C25.2079 10.9668 25.2796 10.8333 25.3196 10.6891C27.1489 4.32369 33.792 0.646481 40.1573 2.47578C45.2113 3.92817 48.7296 8.50378 48.8348 13.7614C48.8305 14.8093 48.6842 15.852 48.3999 16.8606C48.2521 17.3926 48.5634 17.9437 49.0953 18.0915C49.3832 18.1715 49.6917 18.1186 49.9365 17.9473C50.8013 17.3375 51.8337 17.0103 52.8918 17.0105C55.6525 17.0105 57.8905 19.2486 57.8905 22.0093C57.8905 24.77 55.6525 27.0081 52.8918 27.0081C52.3397 27.0081 51.892 27.4557 51.892 28.0078C51.892 28.5599 52.3397 29.0076 52.8918 29.0076C56.7568 29.0076 59.8901 25.8743 59.8901 22.0093C59.8901 18.1444 56.7568 15.0112 52.8918 15.0112Z" fill="#2D3C58"/>
<path d="M46.9933 38.0054H13.0017C11.3452 38.0054 10.0024 39.3482 10.0024 41.0046V45.0036C10.0024 46.6601 11.3452 48.0029 13.0017 48.0029H46.9933C48.6497 48.0029 49.9925 46.6601 49.9925 45.0036V41.0046C49.9925 39.3482 48.6497 38.0054 46.9933 38.0054ZM47.993 45.0036C47.993 45.5557 47.5454 46.0034 46.9933 46.0034H13.0017C12.4496 46.0034 12.0019 45.5557 12.0019 45.0036V41.0046C12.0019 40.4525 12.4496 40.0049 13.0017 40.0049H46.9933C47.5454 40.0049 47.993 40.4525 47.993 41.0046V45.0036Z" fill="#2D3C58"/>
<path d="M44.22 41.0669C43.1546 41.0736 42.2944 41.939 42.2944 43.0043C42.2994 44.0771 43.1712 44.9435 44.244 44.9418C45.3141 44.9352 46.1761 44.0624 46.1695 42.9923C46.1628 41.9223 45.2901 41.0603 44.22 41.0669ZM44.244 43.0674C44.214 43.0674 44.194 43.0344 44.194 43.0045L44.244 42.9425V43.0674Z" fill="#2D3C58"/>
<path d="M33.7966 42.0044H14.8013C14.2492 42.0044 13.8015 42.452 13.8015 43.0041C13.8015 43.5563 14.2492 44.0039 14.8013 44.0039H33.7966C34.3487 44.0039 34.7963 43.5563 34.7963 43.0041C34.7963 42.452 34.3488 42.0044 33.7966 42.0044Z" fill="#2D3C58"/>
<path d="M39.97 42.0044H37.3107C36.7586 42.0044 36.3109 42.452 36.3109 43.0041C36.3109 43.5563 36.7586 44.0039 37.3107 44.0039H39.97C40.5221 44.0039 40.9698 43.5563 40.9698 43.0041C40.9698 42.452 40.5222 42.0044 39.97 42.0044Z" fill="#2D3C58"/>
<path d="M46.9933 50.0024H13.0017C11.3452 50.0024 10.0024 51.3452 10.0024 53.0017V57.0007C10.0024 58.6572 11.3452 60 13.0017 60H46.9933C48.6497 60 49.9925 58.6572 49.9925 57.0007V53.0017C49.9925 51.3452 48.6497 50.0024 46.9933 50.0024ZM47.993 57.0007C47.993 57.5528 47.5454 58.0005 46.9933 58.0005H13.0017C12.4496 58.0005 12.0019 57.5528 12.0019 57.0007V53.0017C12.0019 52.4496 12.4496 52.0019 13.0017 52.0019H46.9933C47.5454 52.0019 47.993 52.4496 47.993 53.0017V57.0007Z" fill="#2D3C58"/>
<path d="M44.22 53.0635C43.1546 53.0701 42.2944 53.9356 42.2944 55.0009C42.2994 56.0736 43.1712 56.9401 44.244 56.9384C45.3141 56.9318 46.1761 56.059 46.1695 54.9889C46.1628 53.9189 45.2901 53.0569 44.22 53.0635ZM44.244 55.064C44.214 55.064 44.194 55.031 44.194 55.001L44.244 54.939V55.064Z" fill="#2D3C58"/>
<path d="M33.7966 54.0015H14.8013C14.2492 54.0015 13.8015 54.4491 13.8015 55.0012C13.8015 55.5533 14.2492 56.001 14.8013 56.001H33.7966C34.3487 56.001 34.7963 55.5533 34.7963 55.0012C34.7963 54.4491 34.3488 54.0015 33.7966 54.0015Z" fill="#2D3C58"/>
<path d="M39.97 54.0015H37.3107C36.7586 54.0015 36.3109 54.4491 36.3109 55.0012C36.3109 55.5533 36.7586 56.001 37.3107 56.001H39.97C40.5221 56.001 40.9698 55.5533 40.9698 55.0012C40.9698 54.4491 40.5222 54.0015 39.97 54.0015Z" fill="#2D3C58"/>
<path d="M46.9933 26.0083H13.0017C11.3452 26.0083 10.0024 27.3511 10.0024 29.0076V33.0066C10.0024 34.663 11.3452 36.0058 13.0017 36.0058H46.9933C48.6497 36.0058 49.9925 34.663 49.9925 33.0066V29.0076C49.9925 27.3511 48.6497 26.0083 46.9933 26.0083ZM47.993 33.0066C47.993 33.5587 47.5454 34.0063 46.9933 34.0063H13.0017C12.4496 34.0063 12.0019 33.5587 12.0019 33.0066V29.0076C12.0019 28.4554 12.4496 28.0078 13.0017 28.0078H46.9933C47.5454 28.0078 47.993 28.4554 47.993 29.0076V33.0066Z" fill="#2D3C58"/>
<path d="M45.8555 30.7344C45.6628 29.6723 44.6457 28.9674 43.5836 29.1602C43.0803 29.2514 42.6329 29.5363 42.3374 29.9536C42.0406 30.3725 41.9246 30.893 42.0154 31.3982C42.1837 32.3289 42.9933 33.0059 43.939 33.0068C44.0482 33.0067 44.1572 32.9977 44.2649 32.9798C44.7783 32.8951 45.2358 32.6067 45.5336 32.18C45.8314 31.7611 45.9475 31.2399 45.8555 30.7344ZM43.888 31.0863L43.933 31.0073L43.938 31.1323C43.893 31.1323 43.89 31.1073 43.888 31.0863Z" fill="#2D3C58"/>
<path d="M33.5966 30.0073H14.6013C14.0492 30.0073 13.6016 30.455 13.6016 31.0071C13.6016 31.5592 14.0492 32.0068 14.6013 32.0068H33.5966C34.1487 32.0068 34.5964 31.5592 34.5964 31.0071C34.5964 30.455 34.1488 30.0073 33.5966 30.0073Z" fill="#2D3C58"/>
<path d="M39.3311 30.0073H36.6717C36.1196 30.0073 35.672 30.455 35.672 31.0071C35.672 31.5592 36.1196 32.0068 36.6717 32.0068H39.3311C39.8832 32.0068 40.3308 31.5592 40.3308 31.0071C40.3308 30.455 39.8833 30.0073 39.3311 30.0073Z" fill="#2D3C58"/>
<path d="M25.7055 16.3037L22.7062 13.3044C22.3158 12.9141 21.683 12.9141 21.2925 13.3044L18.2933 16.3037C17.9098 16.7008 17.9208 17.3338 18.3179 17.7173C18.7053 18.0915 19.3195 18.0915 19.7069 17.7173L20.9996 16.4247V23.009C20.9996 23.5611 21.4473 24.0088 21.9994 24.0088C22.5515 24.0088 22.9991 23.5611 22.9991 23.009V16.4247L24.2918 17.7173C24.689 18.1009 25.3219 18.0899 25.7055 17.6927C26.0796 17.3053 26.0796 16.6911 25.7055 16.3037Z" fill="#2D3C58"/>
<path d="M41.6771 19.3032C41.2897 18.929 40.6754 18.929 40.2879 19.3032L38.9952 20.5958V14.0115C38.9952 13.4594 38.5476 13.0117 37.9955 13.0117C37.4434 13.0117 36.9957 13.4594 36.9957 14.0115V20.5958L35.7031 19.3032C35.3059 18.9195 34.6731 18.9305 34.2894 19.3277C33.9152 19.7151 33.9152 20.3293 34.2894 20.7168L37.2887 23.7161C37.6791 24.1063 38.3119 24.1063 38.7023 23.7161L41.7016 20.7168C42.0852 20.3197 42.0742 19.6867 41.6771 19.3032Z" fill="#2D3C58"/>
</g>
<defs>
<clipPath id="clip0_758_31529">
<rect width="60" height="60" fill="white"/>
</clipPath>
</defs>
</svg>
