<svg width="28" height="20" viewBox="0 0 28 20" fill="none" xmlns="http://www.w3.org/2000/svg">
<path d="M21.6229 8.49435H20.0209C19.7539 8.49435 19.5354 8.71282 19.5354 8.97982C19.5354 9.24683 19.7539 9.46529 20.0209 9.46529H21.6229C21.8414 9.46529 22.021 9.64492 22.021 9.86338V16.8347C22.021 17.0532 21.8414 17.2328 21.6229 17.2328H20.0209C19.7539 17.2328 19.5354 17.4513 19.5354 17.7183C19.5354 17.9853 19.7539 18.2037 20.0209 18.2037H21.6229C22.3754 18.2037 22.9919 17.592 22.9919 16.8347V9.86338C22.9919 9.1109 22.3803 8.49435 21.6229 8.49435Z" fill="#FFC107"/>
<path d="M3.15076 9.46529H4.75281C5.01982 9.46529 5.23828 9.24683 5.23828 8.97982C5.23828 8.71282 5.01982 8.49435 4.75281 8.49435H3.15076C2.39828 8.49435 1.78174 9.10605 1.78174 9.86338V16.8347C1.78174 17.5872 2.39343 18.2037 3.15076 18.2037H4.75281C5.01982 18.2037 5.23828 17.9853 5.23828 17.7183C5.23828 17.4513 5.01982 17.2328 4.75281 17.2328H3.15076C2.9323 17.2328 2.75268 17.0532 2.75268 16.8347V9.86338C2.75268 9.64492 2.9323 9.46529 3.15076 9.46529Z" fill="#FFC107"/>
<path d="M12.8697 9.32943V8.97018C12.8697 8.70317 12.6513 8.48471 12.3843 8.48471C12.1173 8.48471 11.8988 8.70317 11.8988 8.97018V9.3537C10.6269 9.57216 9.67536 10.48 9.67536 11.5626C9.67536 12.6452 10.622 13.5433 11.8988 13.7618V16.3639C11.0784 16.2328 10.4473 15.7133 10.4473 15.1065C10.4473 14.8395 10.2288 14.621 9.96179 14.621C9.69478 14.621 9.47632 14.8395 9.47632 15.1065C9.47632 16.2474 10.5346 17.1892 11.8988 17.3397V17.6989C11.8988 17.9659 12.1173 18.1844 12.3843 18.1844C12.6513 18.1844 12.8697 17.9659 12.8697 17.6989V17.3154C14.1417 17.0969 15.0981 16.1891 15.0981 15.1065C15.0981 14.0239 14.1611 13.1209 12.8697 12.9073V10.3052C13.6902 10.4314 14.3213 10.9558 14.3213 11.5626C14.3213 11.8296 14.5398 12.0481 14.8068 12.0481C15.0738 12.0481 15.2922 11.8296 15.2922 11.5626C15.2922 10.4217 14.2339 9.47992 12.8697 9.32943ZM10.6463 11.5626C10.6463 11.0092 11.1803 10.5237 11.8988 10.3489V12.7763C11.1755 12.6015 10.6463 12.116 10.6463 11.5626ZM14.1271 15.1114C14.1271 15.6648 13.5931 16.1454 12.8697 16.325V13.8977C13.598 14.0725 14.1271 14.5579 14.1271 15.1162V15.1114Z" fill="#FFC107"/>
<path d="M27.1232 11.0237L23.8948 0.950186C23.6666 0.231691 22.8899 -0.166393 22.1762 0.0666319L1.79138 6.68358H1.36902C0.616546 6.68358 0 7.29527 0 8.0526V18.631C0 19.3835 0.611691 20 1.36902 20H23.4045C24.157 20 24.7735 19.3883 24.7735 18.631V13.1937C24.8075 13.1937 24.8415 13.1889 24.8754 13.1792L26.2348 12.7422C26.9533 12.5141 27.3465 11.7422 27.1183 11.0237H27.1232ZM23.8026 18.631C23.8026 18.8494 23.6229 19.0291 23.4045 19.0291H1.36902C1.15056 19.0291 0.970939 18.8494 0.970939 18.631V8.0526C0.970939 7.83414 1.15056 7.65452 1.36902 7.65452H11.4474C11.4474 7.65452 11.4522 7.65452 11.4571 7.65452H11.4619H13.1902C13.1902 7.65452 13.1951 7.65452 13.1999 7.65452C13.2048 7.65452 13.2048 7.65452 13.2096 7.65452H23.4045C23.6229 7.65452 23.8026 7.83414 23.8026 8.0526V18.631ZM25.9435 11.8198L24.7735 12.1937V8.0526C24.7735 7.44576 24.3754 6.93602 23.8268 6.7564L22.7491 3.21247C22.6374 2.86294 22.3996 2.58136 22.0743 2.41145C21.749 2.24639 21.3801 2.21241 21.0305 2.32406L19.5062 2.81439C19.2489 2.89692 19.1081 3.16878 19.1906 3.42608C19.2731 3.68338 19.545 3.81931 19.8023 3.74163L21.3267 3.25131C21.4286 3.21733 21.5354 3.22704 21.6277 3.27558C21.7199 3.32413 21.7927 3.40666 21.8218 3.4989L22.7879 6.67872H15.6807C15.1952 5.98936 14.2631 5.63982 13.2582 5.75148L13.1465 5.40679C13.064 5.15435 12.7921 5.01356 12.5348 5.09124C12.2775 5.17377 12.1367 5.44563 12.2193 5.70293L12.3115 5.98936C11.9086 6.15442 11.5493 6.38744 11.258 6.67872H4.93237L22.4675 0.989023C22.5695 0.955041 22.6763 0.96475 22.7685 1.0133C22.8608 1.06184 22.9336 1.14437 22.9627 1.24632L26.1911 11.3198C26.259 11.5286 26.1425 11.7519 25.9338 11.8198H25.9435Z" fill="#FFC107"/>
</svg>
