<svg width="50" height="50" viewBox="0 0 50 50" fill="none" xmlns="http://www.w3.org/2000/svg">
<g clip-path="url(#clip0_758_31472)">
<path d="M47.0845 0.212891H2.91553C1.30781 0.212891 0 1.5208 0 3.12842V18.1849C0 18.5943 0.331738 18.9261 0.741211 18.9261C1.15068 18.9261 1.48242 18.5943 1.48242 18.1849V16.3999H48.5175V46.8711C48.5175 47.6612 47.8746 48.3042 47.0844 48.3042H2.91553C2.12539 48.3042 1.48242 47.6613 1.48242 46.8711V21.8747C1.48242 21.4652 1.15068 21.1335 0.741211 21.1335C0.331738 21.1335 0 21.4652 0 21.8747V46.8712C0 48.4789 1.30781 49.7867 2.91553 49.7867H47.0845C48.6922 49.7867 50 48.4789 50 46.8712V15.6586V9.34561V3.12842C50 1.5208 48.6922 0.212891 47.0845 0.212891ZM48.5175 14.9174H1.53623V10.0869H48.5175V14.9174ZM48.5175 8.60439H1.48252V3.12842C1.48252 2.33828 2.12539 1.69541 2.91563 1.69541H47.0846C47.8747 1.69541 48.5177 2.33828 48.5177 3.12842V8.60439H48.5175Z" fill="#2D3C58"/>
<path d="M44.3577 2.92627C43.1429 2.92627 42.1547 3.91455 42.1547 5.1293C42.1547 6.34404 43.1429 7.33232 44.3577 7.33232C45.5724 7.33232 46.5607 6.34404 46.5607 5.1293C46.5607 3.91455 45.5724 2.92627 44.3577 2.92627ZM44.3577 5.85C43.9604 5.85 43.6371 5.52676 43.6371 5.12939C43.6371 4.73213 43.9603 4.40879 44.3577 4.40879C44.7551 4.40879 45.0783 4.73203 45.0783 5.12939C45.0783 5.52666 44.755 5.85 44.3577 5.85Z" fill="#2D3C58"/>
<path d="M38.3878 2.92627C37.1731 2.92627 36.1848 3.91455 36.1848 5.1293C36.1848 6.34404 37.1731 7.33232 38.3878 7.33232C39.6026 7.33232 40.5909 6.34404 40.5909 5.1293C40.5909 3.91455 39.6026 2.92627 38.3878 2.92627ZM38.3878 5.85C37.9906 5.85 37.6672 5.52676 37.6672 5.12939C37.6672 4.73213 37.9905 4.40879 38.3878 4.40879C38.7852 4.40879 39.1084 4.73203 39.1084 5.12939C39.1083 5.52666 38.7851 5.85 38.3878 5.85Z" fill="#2D3C58"/>
<path d="M32.4176 2.92627C31.2029 2.92627 30.2146 3.91455 30.2146 5.1293C30.2146 6.34404 31.2029 7.33232 32.4176 7.33232C33.6324 7.33232 34.6207 6.34404 34.6207 5.1293C34.6207 3.91455 33.6324 2.92627 32.4176 2.92627ZM32.4177 5.85C32.0205 5.85 31.6971 5.52676 31.6971 5.12939C31.6971 4.73213 32.0203 4.40879 32.4177 4.40879C32.8152 4.40879 33.1383 4.73203 33.1383 5.12939C33.1382 5.52666 32.815 5.85 32.4177 5.85Z" fill="#2D3C58"/>
<path d="M25.2544 2.92627H6.41677C5.20203 2.92627 4.21375 3.91455 4.21375 5.1293C4.21375 6.34404 5.20203 7.33232 6.41677 7.33232H25.2544C26.4691 7.33232 27.4574 6.34404 27.4574 5.1293C27.4574 3.91455 26.4691 2.92627 25.2544 2.92627ZM25.2544 5.85H6.41677C6.01941 5.85 5.69617 5.52676 5.69617 5.12939C5.69617 4.73213 6.01931 4.40879 6.41677 4.40879H25.2544C25.6517 4.40879 25.975 4.73203 25.975 5.12939C25.975 5.52666 25.6516 5.85 25.2544 5.85Z" fill="#2D3C58"/>
<path d="M18.4414 25.8774C17.9203 25.8774 17.5327 26.2916 17.5327 26.7861C17.5327 27.2675 17.9202 27.695 18.4414 27.695C18.9227 27.695 19.337 27.2675 19.337 26.7861C19.337 26.2916 18.9227 25.8774 18.4414 25.8774Z" fill="#2D3C58"/>
<path d="M24.5356 25.8242C24.2015 25.8242 24.0011 26.2252 23.1992 26.2252C22.2769 26.2252 21.8893 25.7708 21.8893 24.9955V23.9263C21.8894 23.1513 22.2769 22.6968 23.1858 22.6968C23.9743 22.6968 24.2148 23.0709 24.5089 23.0709C24.9231 23.0709 25.1905 22.5498 25.1905 22.2289C25.1905 21.7077 24.3085 21.1865 23.0522 21.1865C21.034 21.1865 20.1653 22.3894 20.1653 23.9263V24.9955C20.1653 26.5592 21.0472 27.7354 23.0654 27.7354C24.3217 27.7354 25.2708 27.1741 25.2708 26.6394C25.2709 26.3054 25.0035 25.8242 24.5356 25.8242Z" fill="#2D3C58"/>
<path d="M28.7851 21.1865C27.1945 21.1865 25.885 22.4562 25.885 23.8996V24.9954C25.885 26.4388 27.2214 27.7354 28.7851 27.7354C30.3354 27.7354 31.6852 26.4255 31.6852 24.9954V23.8996C31.6853 22.416 30.3355 21.1865 28.7851 21.1865ZM29.9612 24.9955C29.9612 25.6238 29.4266 26.2252 28.7852 26.2252C28.1303 26.2252 27.609 25.6238 27.609 24.9955V23.8997C27.609 23.2983 28.1304 22.6968 28.7852 22.6968C29.4266 22.6968 29.9612 23.2981 29.9612 23.8997V24.9955Z" fill="#2D3C58"/>
<path d="M39.8506 21.1865C39.0756 21.1865 38.3003 21.6141 37.8325 22.5229C37.5519 21.7345 36.9236 21.1865 36.1621 21.1865C35.2799 21.1865 34.6918 21.681 34.3978 22.2023V21.8014C34.3977 21.4807 34.05 21.2668 33.6359 21.2668C33.128 21.2668 32.7805 21.4807 32.7805 21.8015V27.0672C32.7805 27.3346 33.128 27.6151 33.6359 27.6151C34.1036 27.6151 34.5045 27.3346 34.5045 27.0672V23.8997C34.5045 23.1112 35.0259 22.6968 35.5471 22.6968C36.1084 22.6968 36.643 23.1512 36.643 23.8997V27.0806C36.643 27.4548 37.0974 27.6151 37.4984 27.6151C37.9259 27.6151 38.3671 27.4547 38.3671 27.0806V23.8862C38.3671 23.1112 38.8882 22.6833 39.423 22.6833C39.9575 22.6833 40.5055 23.0977 40.5055 23.8995V27.067C40.5055 27.3344 40.9065 27.6149 41.3609 27.6149C41.8288 27.6149 42.2297 27.3344 42.2297 27.067V23.8995C42.2297 22.162 41.0669 21.1865 39.8506 21.1865Z" fill="#2D3C58"/>
<path d="M18.4414 40.9263C17.9203 40.9263 17.5327 41.3404 17.5327 41.835C17.5327 42.3163 17.9202 42.7438 18.4414 42.7438C18.9227 42.7438 19.337 42.3163 19.337 41.835C19.337 41.3404 18.9227 40.9263 18.4414 40.9263Z" fill="#2D3C58"/>
<path d="M23.7873 36.2349C22.8919 36.2349 22.2504 36.7293 21.9965 37.2507V36.8497C21.9965 36.5289 21.6488 36.315 21.2346 36.315C20.7267 36.315 20.3793 36.5289 20.3793 36.8497V42.1154C20.3793 42.3828 20.7267 42.6634 21.2346 42.6634C21.7023 42.6634 22.1033 42.3828 22.1033 42.1154V38.9479C22.1033 38.1995 22.6514 37.745 23.1994 37.745C23.8409 37.745 24.3622 38.3464 24.3622 38.9479V42.1154C24.3622 42.4764 24.8166 42.6634 25.2176 42.6634C25.6451 42.6634 26.0862 42.4763 26.0862 42.1154V38.9479C26.086 37.4645 25.017 36.2349 23.7873 36.2349Z" fill="#2D3C58"/>
<path d="M32.0594 40.9126C31.6585 40.9126 31.2977 41.4205 30.4156 41.4205C29.4802 41.4205 28.8519 40.9126 28.8519 40.1374V39.937H31.565C32.1664 39.937 32.8081 39.8836 32.8081 38.7476C32.8081 37.2639 31.525 36.2349 30.0548 36.2349C28.4243 36.2349 27.1278 37.4644 27.1278 38.9079V40.0438C27.1278 41.6877 28.4644 42.7838 30.3622 42.7838C31.7923 42.7838 32.7143 42.1289 32.7143 41.6745C32.7143 41.407 32.4605 40.9126 32.0594 40.9126ZM28.8518 38.5471C28.8518 37.9056 29.4132 37.5046 30.0146 37.5046C30.656 37.5046 31.1908 37.9322 31.1908 38.5604C31.1908 38.8545 31.0839 38.9212 30.8031 38.9212H28.8518V38.5471Z" fill="#2D3C58"/>
<path d="M36.8167 41.2064H36.2956C35.7342 41.2064 35.5471 41.0193 35.5471 40.4981V37.5711H37.1242C37.4049 37.5711 37.5654 37.2638 37.5654 36.9431C37.5654 36.6357 37.4049 36.3148 37.1242 36.3148H35.5472V34.0161C35.5472 33.6953 35.1195 33.4814 34.6784 33.4814C34.2774 33.4814 33.823 33.6953 33.823 34.0161V40.498C33.823 42.0083 34.6917 42.6632 36.2956 42.6632H36.8167C37.3113 42.6632 37.5519 42.3022 37.5519 41.9281C37.5519 41.5673 37.3114 41.2064 36.8167 41.2064Z" fill="#2D3C58"/>
<path d="M13.0497 20.3037H6.33813C5.92866 20.3037 5.59692 20.6355 5.59692 21.0449V27.7564C5.59692 28.1658 5.92866 28.4977 6.33813 28.4977H13.0497C13.4591 28.4977 13.7909 28.1659 13.7909 27.7564V21.0449C13.791 20.6355 13.4591 20.3037 13.0497 20.3037ZM12.3084 27.0152H7.07935V21.7861H12.3084V27.0152Z" fill="#2D3C58"/>
<path d="M13.0497 35.1284H6.33813C5.92866 35.1284 5.59692 35.4602 5.59692 35.8696V42.5812C5.59692 42.9906 5.92866 43.3224 6.33813 43.3224H13.0497C13.4591 43.3224 13.7909 42.9906 13.7909 42.5812V35.8696C13.791 35.4602 13.4591 35.1284 13.0497 35.1284ZM12.3084 41.8399H7.07935V36.6108H12.3084V41.8399Z" fill="#2D3C58"/>
</g>
<defs>
<clipPath id="clip0_758_31472">
<rect width="50" height="50" fill="white"/>
</clipPath>
</defs>
</svg>
