<svg width="34" height="34" viewBox="0 0 34 34" fill="none" xmlns="http://www.w3.org/2000/svg">
<path d="M33.8386 26.0366C33.6277 25.4818 33.2342 25.0154 32.7229 24.7142C32.2115 24.4129 31.6129 24.2948 31.0254 24.3792L23.1544 25.5449C23.2211 24.9743 23.0922 24.398 22.7887 23.9102C22.4853 23.4224 22.0252 23.052 21.4839 22.8597L15.0058 20.7374C13.8828 20.3723 12.6725 20.3754 11.5514 20.7461L6.89992 22.2966C6.78691 21.7803 6.501 21.318 6.0895 20.9862C5.67801 20.6544 5.16558 20.4731 4.637 20.4722H2.3185C1.7038 20.4729 1.11447 20.7173 0.679814 21.152C0.245156 21.5867 0.000671225 22.176 0 22.7907V31.2918C0.000671225 31.9065 0.245156 32.4958 0.679814 32.9305C1.11447 33.3652 1.7038 33.6096 2.3185 33.6103H4.637C5.1434 33.6087 5.63529 33.441 6.0373 33.133C6.4393 32.8251 6.72924 32.3938 6.86268 31.9053L10.1552 31.3567C10.5694 31.2869 10.9952 31.3509 11.3706 31.5393L15.1231 33.4158C15.7691 33.7408 16.4731 33.9345 17.1944 33.9858C17.9156 34.0371 18.6399 33.945 19.3254 33.7147L32.2277 29.4135C32.5591 29.3031 32.8648 29.127 33.1265 28.8957C33.3883 28.6645 33.6007 28.3828 33.7511 28.0675C33.9015 27.7523 33.9867 27.4099 34.0018 27.061C34.0168 26.712 33.9613 26.3636 33.8386 26.0366ZM5.40985 31.2918C5.40958 31.4967 5.32807 31.6931 5.18319 31.838C5.03831 31.9829 4.84189 32.0644 4.637 32.0647H2.3185C2.11361 32.0644 1.91718 31.9829 1.7723 31.838C1.62742 31.6931 1.54591 31.4967 1.54564 31.2918V22.7907C1.54591 22.5858 1.62742 22.3894 1.7723 22.2445C1.91718 22.0996 2.11361 22.0181 2.3185 22.0178H4.637C4.84189 22.0181 5.03831 22.0996 5.18319 22.2445C5.32807 22.3894 5.40958 22.5858 5.40985 22.7907V31.2918ZM32.3559 27.4016C32.2954 27.5296 32.2095 27.644 32.1033 27.7377C31.9972 27.8315 31.8731 27.9026 31.7386 27.9469L18.8367 32.2481C18.3438 32.4139 17.8228 32.4803 17.304 32.4433C16.7852 32.4064 16.2789 32.2669 15.8144 32.0329L12.0619 30.1564C11.3946 29.821 10.6376 29.7073 9.90115 29.8319L6.95549 30.3227V23.9074L12.0404 22.2125C12.8464 21.9455 13.7167 21.9432 14.5242 22.2061L20.9789 24.3204C21.2136 24.4056 21.4077 24.5758 21.5228 24.7973C21.6378 25.0188 21.6655 25.2755 21.6003 25.5165C21.5351 25.7575 21.3817 25.9651 21.1706 26.0984C20.9595 26.2316 20.706 26.2807 20.4605 26.2359L13.4174 24.9556C13.2165 24.9207 13.01 24.9667 12.8428 25.0834C12.6756 25.2002 12.5613 25.3783 12.5249 25.579C12.4885 25.7796 12.5328 25.9865 12.6482 26.1546C12.7637 26.3227 12.9409 26.4384 13.1412 26.4764L20.1837 27.7568C20.5385 27.8216 20.9031 27.8097 21.2529 27.7218C21.6028 27.6339 21.9297 27.4721 22.2117 27.2472L31.2517 25.9081C31.4897 25.8734 31.7325 25.921 31.9397 26.0431C32.147 26.1652 32.3063 26.3545 32.3913 26.5795C32.4415 26.7117 32.4643 26.8528 32.4582 26.9942C32.4522 27.1356 32.4174 27.2741 32.3559 27.4016Z" fill="#2D3C58"/>
<path d="M17.1959 11.389C17.2959 11.4271 17.3873 11.4614 17.4631 11.4948C17.5737 11.5433 17.7009 11.5923 17.8375 11.6446C18.596 11.9345 18.9345 12.1256 18.9345 12.4923C18.9345 12.6529 18.7632 12.9021 18.436 13.0678C18.2042 13.185 17.3674 13.506 16.3009 12.7222C16.1358 12.6008 15.9292 12.5499 15.7266 12.5809C15.524 12.6118 15.3419 12.722 15.2205 12.8871C15.0991 13.0522 15.0483 13.2588 15.0793 13.4615C15.1102 13.6641 15.2203 13.8461 15.3855 13.9675C15.8654 14.3254 16.4169 14.5756 17.0023 14.701V15.4487C17.0043 15.6524 17.0866 15.847 17.2313 15.9904C17.376 16.1337 17.5715 16.2141 17.7752 16.2141C17.9788 16.2141 18.1743 16.1337 18.319 15.9904C18.4637 15.847 18.546 15.6524 18.548 15.4487V14.6604C18.7499 14.6092 18.9461 14.5378 19.1336 14.4471C19.9642 14.0269 20.4801 13.2776 20.4801 12.4923C20.4801 10.9998 19.1197 10.4799 18.3887 10.2007C18.2789 10.1586 18.1759 10.1197 18.0873 10.0807C17.9899 10.0376 17.8733 9.99293 17.7446 9.9441C17.0129 9.66617 16.616 9.44656 16.616 9.08299C16.616 8.92244 16.7873 8.6732 17.1144 8.5075C17.3463 8.39034 18.1831 8.06937 19.2495 8.85317C19.4148 8.97303 19.6207 9.02266 19.8224 8.99123C20.024 8.9598 20.2051 8.84985 20.326 8.6854C20.4469 8.52094 20.4978 8.31533 20.4677 8.11346C20.4375 7.91159 20.3287 7.72985 20.165 7.60792C19.685 7.25002 19.1335 6.99985 18.548 6.87448V6.17487C18.549 6.07275 18.5297 5.97145 18.4913 5.87682C18.4529 5.78219 18.3962 5.69611 18.3243 5.62355C18.2524 5.55099 18.1669 5.49339 18.0727 5.45408C17.9784 5.41477 17.8773 5.39453 17.7752 5.39453C17.673 5.39453 17.5719 5.41477 17.4777 5.45408C17.3834 5.49339 17.2979 5.55099 17.226 5.62355C17.1542 5.69611 17.0974 5.78219 17.059 5.87682C17.0206 5.97145 17.0014 6.07275 17.0023 6.17487V6.91092C16.8003 6.96341 16.6041 7.03623 16.4167 7.12828C15.5861 7.54851 15.0703 8.29753 15.0703 9.08299C15.0702 10.5818 16.5058 11.127 17.1959 11.389Z" fill="#2D3C58"/>
<path d="M17.7751 19.3138C19.4565 19.3138 21.1001 18.8152 22.4981 17.8811C23.8961 16.9469 24.9857 15.6192 25.6291 14.0659C26.2725 12.5125 26.4409 10.8032 26.1128 9.15413C25.7848 7.50507 24.9752 5.99032 23.7862 4.80143C22.5973 3.61253 21.0826 2.80288 19.4335 2.47487C17.7845 2.14686 16.0752 2.31521 14.5218 2.95864C12.9684 3.60208 11.6407 4.69169 10.7066 6.08969C9.77251 7.4877 9.27393 9.1313 9.27393 10.8127C9.27648 13.0665 10.173 15.2274 11.7667 16.8211C13.3604 18.4148 15.5213 19.3113 17.7751 19.3138ZM17.7751 3.85717C19.1508 3.85717 20.4956 4.2651 21.6394 5.02938C22.7832 5.79366 23.6747 6.87996 24.2012 8.15091C24.7276 9.42186 24.8654 10.8204 24.597 12.1696C24.3286 13.5188 23.6662 14.7582 22.6934 15.7309C21.7207 16.7037 20.4813 17.3661 19.1321 17.6345C17.7829 17.9029 16.3843 17.7651 15.1134 17.2387C13.8424 16.7123 12.7561 15.8208 11.9919 14.6769C11.2276 13.5331 10.8196 12.1883 10.8196 10.8127C10.8218 8.9686 11.5552 7.20067 12.8592 5.89672C14.1631 4.59276 15.9311 3.85928 17.7751 3.85717Z" fill="#2D3C58"/>
<path d="M29.5941 22.1784C29.6659 22.2502 29.7511 22.3071 29.8448 22.346C29.9386 22.3848 30.0391 22.4048 30.1405 22.4048C30.242 22.4048 30.3425 22.3848 30.4363 22.346C30.53 22.3071 30.6152 22.2502 30.687 22.1784L33.0055 19.8599C33.1476 19.7144 33.2267 19.5188 33.2255 19.3154C33.2243 19.1119 33.143 18.9172 32.9992 18.7734C32.8554 18.6295 32.6606 18.5482 32.4572 18.547C32.2538 18.5459 32.0581 18.6249 31.9126 18.7671L30.9134 19.7663V12.358C30.9144 12.2559 30.8951 12.1546 30.8567 12.0599C30.8183 11.9653 30.7615 11.8792 30.6897 11.8067C30.6178 11.7341 30.5323 11.6765 30.438 11.6372C30.3438 11.5979 30.2427 11.5776 30.1405 11.5776C30.0384 11.5776 29.9373 11.5979 29.8431 11.6372C29.7488 11.6765 29.6633 11.7341 29.5914 11.8067C29.5196 11.8792 29.4628 11.9653 29.4244 12.0599C29.386 12.1546 29.3667 12.2559 29.3677 12.358V19.7663L28.3685 18.767C28.297 18.6939 28.2118 18.6357 28.1176 18.5958C28.0235 18.5558 27.9224 18.535 27.8202 18.5344C27.718 18.5338 27.6166 18.5535 27.5221 18.5923C27.4275 18.6312 27.3416 18.6884 27.2693 18.7607C27.197 18.833 27.1398 18.9189 27.1009 19.0135C27.0621 19.108 27.0424 19.2094 27.043 19.3116C27.0436 19.4138 27.0644 19.5149 27.1044 19.609C27.1443 19.7031 27.2025 19.7884 27.2756 19.8598L29.5941 22.1784Z" fill="#2D3C58"/>
<path d="M28.5948 6.17523C28.7998 6.17523 28.9964 6.0938 29.1413 5.94886C29.2862 5.80392 29.3677 5.60734 29.3677 5.40237V0.765374C29.3657 0.561705 29.2834 0.367049 29.1387 0.223725C28.994 0.0804021 28.7985 0 28.5948 0C28.3912 0 28.1957 0.0804021 28.051 0.223725C27.9063 0.367049 27.824 0.561705 27.822 0.765374V5.40237C27.822 5.60733 27.9034 5.8039 28.0484 5.94884C28.1933 6.09377 28.3898 6.17521 28.5948 6.17523Z" fill="#2D3C58"/>
<path d="M31.6861 9.26637C31.8911 9.26637 32.0877 9.18494 32.2326 9.04C32.3776 8.89506 32.459 8.69848 32.459 8.49351V3.85651C32.46 3.75439 32.4407 3.65309 32.4023 3.55846C32.3639 3.46383 32.3072 3.37775 32.2353 3.30519C32.1635 3.23263 32.0779 3.17503 31.9837 3.13572C31.8894 3.09641 31.7883 3.07617 31.6862 3.07617C31.5841 3.07617 31.483 3.09641 31.3887 3.13572C31.2944 3.17503 31.2089 3.23263 31.1371 3.30519C31.0652 3.37775 31.0084 3.46383 30.97 3.55846C30.9316 3.65309 30.9124 3.75439 30.9134 3.85651V8.49351C30.9134 8.69847 30.9948 8.89504 31.1397 9.03998C31.2846 9.18491 31.4812 9.26635 31.6861 9.26637Z" fill="#2D3C58"/>
<path d="M6.18273 7.72096C6.38771 7.72096 6.58429 7.63953 6.72923 7.49459C6.87416 7.34965 6.95559 7.15307 6.95559 6.9481V2.3111C6.95658 2.20898 6.93732 2.10768 6.89892 2.01305C6.86053 1.91842 6.80376 1.83234 6.7319 1.75978C6.66004 1.68722 6.57451 1.62962 6.48026 1.59031C6.386 1.551 6.28489 1.53076 6.18277 1.53076C6.08065 1.53076 5.97954 1.551 5.88528 1.59031C5.79103 1.62962 5.7055 1.68722 5.63364 1.75978C5.56178 1.83234 5.50501 1.91842 5.46661 2.01305C5.42822 2.10768 5.40896 2.20898 5.40995 2.3111V6.9481C5.40995 7.15306 5.49136 7.34963 5.63629 7.49457C5.78121 7.6395 5.97777 7.72094 6.18273 7.72096Z" fill="#2D3C58"/>
<path d="M3.09139 12.3578C3.29636 12.3578 3.49294 12.2764 3.63788 12.1315C3.78282 11.9865 3.86424 11.79 3.86424 11.585V6.94799C3.86227 6.74432 3.77998 6.54967 3.63526 6.40634C3.49055 6.26302 3.2951 6.18262 3.09142 6.18262C2.88775 6.18262 2.6923 6.26302 2.54758 6.40634C2.40287 6.54967 2.32058 6.74432 2.3186 6.94799V11.585C2.3186 11.7899 2.40002 11.9865 2.54494 12.1315C2.68987 12.2764 2.88643 12.3578 3.09139 12.3578Z" fill="#2D3C58"/>
</svg>
