<svg width="16" height="16" viewBox="0 0 16 16" fill="none" xmlns="http://www.w3.org/2000/svg">
<g clip-path="url(#clip0_146_46069)">
<path d="M6 7.99997C6.79113 7.99997 7.56449 7.76538 8.22228 7.32585C8.88008 6.88632 9.39277 6.26161 9.69552 5.53071C9.99827 4.7998 10.0775 3.99553 9.92314 3.21961C9.7688 2.44369 9.38784 1.73095 8.82843 1.17154C8.26902 0.612134 7.55629 0.231171 6.78036 0.0768302C6.00444 -0.0775107 5.20017 0.00170263 4.46927 0.304453C3.73836 0.607204 3.11365 1.11989 2.67412 1.77769C2.2346 2.43549 2 3.20885 2 3.99997C2.00106 5.06051 2.42283 6.07731 3.17274 6.82723C3.92266 7.57715 4.93946 7.99891 6 7.99997ZM6 1.3333C6.52742 1.3333 7.04299 1.4897 7.48152 1.78272C7.92005 2.07574 8.26185 2.49221 8.46368 2.97948C8.66551 3.46675 8.71832 4.00293 8.61543 4.52021C8.51253 5.0375 8.25856 5.51265 7.88562 5.88559C7.51268 6.25853 7.03752 6.51251 6.52024 6.6154C6.00296 6.71829 5.46678 6.66548 4.97951 6.46365C4.49224 6.26182 4.07576 5.92002 3.78275 5.48149C3.48973 5.04296 3.33333 4.52739 3.33333 3.99997C3.33333 3.29273 3.61428 2.61445 4.11438 2.11435C4.61448 1.61426 5.29276 1.3333 6 1.3333Z" fill="white"/>
<path d="M6 9.33374C4.40924 9.3355 2.88414 9.96821 1.75931 11.093C0.634472 12.2179 0.00176457 13.743 0 15.3337C0 15.5106 0.0702379 15.6801 0.195262 15.8051C0.320286 15.9302 0.489856 16.0004 0.666667 16.0004C0.843478 16.0004 1.01305 15.9302 1.13807 15.8051C1.2631 15.6801 1.33333 15.5106 1.33333 15.3337C1.33333 14.0961 1.825 12.9091 2.70017 12.0339C3.57534 11.1587 4.76232 10.6671 6 10.6671C7.23768 10.6671 8.42466 11.1587 9.29983 12.0339C10.175 12.9091 10.6667 14.0961 10.6667 15.3337C10.6667 15.5106 10.7369 15.6801 10.8619 15.8051C10.987 15.9302 11.1565 16.0004 11.3333 16.0004C11.5101 16.0004 11.6797 15.9302 11.8047 15.8051C11.9298 15.6801 12 15.5106 12 15.3337C11.9982 13.743 11.3655 12.2179 10.2407 11.093C9.11586 9.96821 7.59076 9.3355 6 9.33374Z" fill="white"/>
</g>
<defs>
<clipPath id="clip0_146_46069">
<rect width="16" height="16" fill="white"/>
</clipPath>
</defs>
</svg>
