<svg width="51" height="33" viewBox="0 0 51 33" fill="none" xmlns="http://www.w3.org/2000/svg">
<path d="M22.5679 1.76712V5.27209C22.5695 5.69359 22.4168 6.10109 22.1386 6.41771C21.8603 6.73432 21.4758 6.93815 21.0576 6.99073C17.2483 7.45883 13.7445 9.31268 11.2145 12.1987C13.235 12.3541 15.1663 13.0954 16.7718 14.332C18.3772 15.5685 19.5871 17.2465 20.2532 19.1604C20.9193 21.0742 21.0126 23.1408 20.5218 25.1069C20.0309 27.073 18.9773 28.8533 17.4898 30.2295C16.0024 31.6057 14.1458 32.5182 12.1475 32.8551C10.1493 33.1919 8.09613 32.9386 6.2397 32.1261C4.38327 31.3136 2.80416 29.9772 1.69586 28.2807C0.587556 26.5842 -0.0017983 24.6012 5.41015e-06 22.5748C-0.00390812 16.9107 2.1155 11.4509 5.93994 7.27294C9.76437 3.09498 15.016 0.502384 20.6583 0.00681764C20.9019 -0.0147138 21.1473 0.0148888 21.3788 0.0937278C21.6102 0.172567 21.8227 0.298902 22.0025 0.464635C22.1822 0.630368 22.3254 0.83184 22.4228 1.05614C22.5202 1.28043 22.5696 1.5226 22.5679 1.76712Z" fill="url(#paint0_linear_212_2201)"/>
<path d="M50.3438 1.76712V5.27209C50.3454 5.69359 50.1927 6.10109 49.9144 6.41771C49.6362 6.73432 49.2517 6.93815 48.8335 6.99073C45.0242 7.45883 41.5204 9.31268 38.9904 12.1987C41.0109 12.3541 42.9422 13.0954 44.5476 14.332C46.1531 15.5685 47.363 17.2465 48.0291 19.1604C48.6952 21.0742 48.7885 23.1408 48.2977 25.1069C47.8068 27.073 46.7531 28.8533 45.2657 30.2295C43.7782 31.6057 41.9216 32.5182 39.9234 32.8551C37.9251 33.1919 35.872 32.9386 34.0156 32.1261C32.1591 31.3136 30.58 29.9772 29.4717 28.2807C28.3634 26.5842 27.7741 24.6012 27.7759 22.5748C27.772 16.9107 29.8914 11.4509 33.7158 7.27294C37.5403 3.09498 42.7919 0.502384 48.4342 0.00681764C48.6778 -0.0147138 48.9232 0.0148888 49.1546 0.0937278C49.3861 0.172567 49.5985 0.298902 49.7783 0.464635C49.9581 0.630368 50.1013 0.83184 50.1987 1.05614C50.2961 1.28043 50.3455 1.5226 50.3438 1.76712Z" fill="url(#paint1_linear_212_2201)"/>
<defs>
<linearGradient id="paint0_linear_212_2201" x1="11.284" y1="0" x2="11.284" y2="33" gradientUnits="userSpaceOnUse">
<stop stop-color="white"/>
<stop offset="1" stop-color="#F4F4F4"/>
</linearGradient>
<linearGradient id="paint1_linear_212_2201" x1="39.0599" y1="0" x2="39.0599" y2="33" gradientUnits="userSpaceOnUse">
<stop stop-color="white"/>
<stop offset="1" stop-color="#F4F4F4"/>
</linearGradient>
</defs>
</svg>
