<svg width="60" height="60" viewBox="0 0 60 60" fill="none" xmlns="http://www.w3.org/2000/svg">
<g clip-path="url(#clip0_908_5043)">
<path fill-rule="evenodd" clip-rule="evenodd" d="M26.1803 48.6985H4.04717C2.33552 48.6985 0.941406 47.3095 0.941406 45.5978V22.5689C0.941406 20.8644 2.33552 19.4681 4.04717 19.4681H5.7567V13.5998C5.7567 6.57337 11.5066 0.823486 18.5329 0.823486C25.5595 0.823486 31.3043 6.57325 31.3043 13.5998C31.3043 14.1196 30.8829 14.541 30.3632 14.541H24.9466C24.4268 14.541 24.0054 14.1196 24.0054 13.5998C24.0054 10.5941 21.5345 8.12231 18.5329 8.12231C15.5315 8.12231 13.0606 10.5941 13.0606 13.5998V19.4681H33.0188C34.7311 19.4681 36.1195 20.8638 36.1195 22.5689V25.9827C37.9407 25.3211 39.9058 24.9603 41.9542 24.9603C51.3965 24.9603 59.0623 32.6262 59.0623 42.0683C59.0623 51.5105 51.3965 59.1764 41.9542 59.1764C34.8625 59.1764 28.7728 54.8521 26.1803 48.6985ZM7.63905 19.4681H11.1782V13.5998C11.1782 9.56066 14.4995 6.23996 18.5329 6.23996C22.2482 6.23996 25.3594 9.05737 25.8271 12.6587H29.3814C28.9007 7.1036 24.2072 2.70584 18.5329 2.70584C12.5418 2.70584 7.63905 7.60855 7.63905 13.5998V19.4681ZM34.2372 26.7981V22.5689C34.2372 21.8989 33.6916 21.3504 33.0188 21.3504H4.04717C3.37376 21.3504 2.82376 21.8983 2.82376 22.5689V45.5978C2.82376 46.2713 3.37376 46.8162 4.04717 46.8162H25.5147C25.0794 45.3085 24.8462 43.7155 24.8462 42.0683C24.8462 35.4018 28.6674 29.6209 34.2372 26.7981ZM41.9542 26.8427C33.5509 26.8427 26.7286 33.665 26.7286 42.0683C26.7286 50.4716 33.5509 57.2941 41.9542 57.2941C50.3575 57.2941 57.18 50.4716 57.18 42.0683C57.18 33.665 50.3575 26.8427 41.9542 26.8427ZM45.5688 41.7556C49.3319 43.1118 52.111 46.5257 52.5506 50.6389C52.5789 50.9044 52.4932 51.1695 52.3147 51.3681C52.1362 51.5667 51.8818 51.6801 51.6147 51.6801H32.2938C32.0267 51.6801 31.7721 51.5667 31.5936 51.368C31.4152 51.1693 31.3295 50.9041 31.358 50.6384C31.7998 46.5251 34.5796 43.1115 38.3416 41.7554C36.9795 40.6817 36.1025 39.0175 36.1025 37.1551C36.1025 33.9315 38.7306 31.3009 41.9542 31.3009C45.1809 31.3009 47.8086 33.9316 47.8086 37.1551C47.8086 39.0175 46.9316 40.682 45.5688 41.7556ZM41.9542 43.0095C37.7922 43.0095 34.3067 45.9084 33.4054 49.7977H50.5036C49.6045 45.9083 46.1185 43.0095 41.9542 43.0095ZM41.9542 41.1271C44.1435 41.1271 45.9262 39.3423 45.9262 37.1551C45.9262 34.9681 44.1435 33.1833 41.9542 33.1833C39.7673 33.1833 37.9848 34.9682 37.9848 37.1551C37.9848 39.3422 39.7673 41.1271 41.9542 41.1271ZM18.5329 24.9247C21.3775 24.9247 23.6832 27.2353 23.6832 30.0798C23.6832 31.7418 22.9022 33.2171 21.6839 34.1591V40.0911C21.6839 41.8274 20.262 43.242 18.5329 43.242C16.7968 43.242 15.3821 41.8274 15.3821 40.0911V34.1593C14.1629 33.2173 13.3779 31.7417 13.3779 30.0798C13.3779 27.2356 15.6888 24.9247 18.5329 24.9247ZM18.5329 26.807C16.7273 26.807 15.2602 28.2742 15.2602 30.0798C15.2602 31.2591 15.8832 32.2903 16.8173 32.8663C17.0953 33.0377 17.2645 33.3409 17.2645 33.6675V40.0911C17.2645 40.7901 17.834 41.3596 18.5329 41.3596C19.2291 41.3596 19.8015 40.7901 19.8015 40.0911V33.6675C19.8015 33.3409 19.9707 33.0377 20.2487 32.8663C21.1826 32.2904 21.8008 31.2589 21.8008 30.0798C21.8008 28.2744 20.3383 26.807 18.5329 26.807Z" fill="#2D3C58"/>
</g>
<defs>
<clipPath id="clip0_908_5043">
<rect width="60" height="60" fill="white"/>
</clipPath>
</defs>
</svg>
