<svg width="40" height="40" viewBox="0 0 40 40" fill="none" xmlns="http://www.w3.org/2000/svg">
<g clip-path="url(#clip0_376_5976)">
<path d="M28.1445 10.0619C28.3886 10.3059 28.3886 10.7016 28.1445 10.9457C28.0225 11.0677 27.8625 11.1287 27.7025 11.1287C27.5425 11.1287 27.3826 11.0677 27.2606 10.9457C23.257 6.94211 16.7425 6.94211 12.7389 10.9457C12.4948 11.1898 12.0992 11.1898 11.855 10.9457C11.611 10.7016 11.611 10.3059 11.855 10.0619C16.3461 5.57086 23.6534 5.57086 28.1445 10.0619ZM19.9997 9.59313C17.699 9.59313 15.5359 10.4891 13.909 12.1159C13.665 12.36 13.665 12.7557 13.909 12.9998C14.1532 13.2439 14.5488 13.2439 14.7929 12.9998C16.1837 11.609 18.0329 10.843 19.9996 10.843C21.9664 10.843 23.8156 11.609 25.2064 12.9998C25.3284 13.1218 25.4883 13.1828 25.6483 13.1828C25.8082 13.1828 25.9682 13.1218 26.0903 12.9998C26.3343 12.7557 26.3343 12.36 26.0903 12.1159C24.4635 10.4891 22.3004 9.59313 19.9997 9.59313ZM19.9997 12.498C18.4748 12.498 17.0414 13.0918 15.9631 14.17C15.719 14.4141 15.719 14.8098 15.9631 15.0538C16.2072 15.298 16.6029 15.2978 16.847 15.0538C17.689 14.2117 18.8087 13.748 19.9996 13.748C21.1906 13.748 22.3102 14.2117 23.1523 15.0538C23.2743 15.1759 23.4343 15.2369 23.5943 15.2369C23.7543 15.2369 23.9142 15.1759 24.0362 15.0538C24.2803 14.8098 24.2803 14.4141 24.0362 14.17C22.9581 13.0918 21.5246 12.498 19.9997 12.498ZM22.1509 17.554C22.1509 18.7402 21.1858 19.7052 19.9997 19.7052C18.8136 19.7052 17.8486 18.7402 17.8486 17.554C17.8486 16.3678 18.8136 15.4028 19.9997 15.4028C21.1858 15.4028 22.1509 16.3679 22.1509 17.554ZM20.9009 17.554C20.9009 17.0571 20.4966 16.6528 19.9997 16.6528C19.5029 16.6528 19.0986 17.057 19.0986 17.554C19.0986 18.0509 19.5029 18.4552 19.9997 18.4552C20.4966 18.4552 20.9009 18.0509 20.9009 17.554ZM39.8363 32.2885V37.6779C39.8363 38.4845 39.1801 39.1406 38.3736 39.1406H28.6522C27.8457 39.1406 27.1896 38.4845 27.1896 37.6779V31.0012C27.1896 30.1947 27.8457 29.5385 28.6522 29.5385H30.1032C30.244 29.5385 30.3807 29.586 30.4911 29.6734L31.9472 30.8259H32.888V26.9209H20.6247V30.8259H24.8604C25.6669 30.8259 26.3232 31.482 26.3232 32.2886V37.678C26.3232 38.4845 25.667 39.1407 24.8604 39.1407H15.139C14.3325 39.1407 13.6764 38.4845 13.6764 37.678V31.0013C13.6764 30.1948 14.3325 29.5386 15.139 29.5386H16.59C16.7308 29.5386 16.8675 29.5861 16.9779 29.6735L18.434 30.8259H19.3747V26.9209H7.11144V30.8259H11.3471C12.1536 30.8259 12.8099 31.4821 12.8099 32.2887V37.678C12.8099 38.4846 12.1537 39.1408 11.3471 39.1408H1.62574C0.819258 39.1408 0.163086 38.4846 0.163086 37.678V31.0013C0.163086 30.1948 0.81918 29.5387 1.62574 29.5387H3.07676C3.21754 29.5387 3.35426 29.5862 3.46465 29.6736L4.92074 30.826H5.86144V26.296C5.86144 25.9509 6.14129 25.671 6.48644 25.671H19.3747V22.7023H11.5968C7.61613 22.7023 4.3777 19.4638 4.3777 15.4833C4.3777 13.7772 4.99152 12.117 6.10613 10.8084C7.10566 9.63508 8.44863 8.81375 9.93035 8.46016C10.1543 4.23125 13.6652 0.859375 17.9488 0.859375C20.3111 0.859375 22.564 1.91484 24.0826 3.70797C24.7274 3.37859 25.4407 3.20664 26.175 3.20664C28.7163 3.20664 30.7839 5.27414 30.7839 7.81555C30.7839 8.09523 30.7589 8.37258 30.7092 8.64516C32.0108 9.08859 33.1791 9.90727 34.046 10.9935C35.0621 12.2667 35.6218 13.8613 35.6218 15.4833C35.6218 19.4638 32.3833 22.7023 28.4027 22.7023H20.6247V25.671H33.513C33.8582 25.671 34.138 25.9509 34.138 26.296V30.826H38.3736C39.1801 30.8259 39.8363 31.482 39.8363 32.2885ZM11.5968 21.4521H28.4026C31.694 21.4521 34.3717 18.7745 34.3717 15.4831C34.3717 12.7229 32.4947 10.3377 29.8072 9.68273C29.6375 9.64133 29.4929 9.53086 29.4083 9.37797C29.3238 9.22508 29.3071 9.04383 29.3623 8.87805C29.4761 8.53633 29.5338 8.17883 29.5338 7.81547C29.5338 5.96336 28.027 4.45656 26.1749 4.45656C25.4956 4.45656 24.8413 4.65836 24.2827 5.04C24.0043 5.23031 23.6247 5.16531 23.4255 4.89281C22.1514 3.14992 20.104 2.10938 17.9488 2.10938C14.2104 2.10938 11.169 5.15078 11.169 8.88914L11.17 8.96719C11.1734 9.27633 10.9503 9.54148 10.645 9.59086C7.78473 10.0544 5.6277 12.5874 5.6277 15.483C5.6277 18.7745 8.30535 21.4521 11.5968 21.4521ZM11.3471 32.0759H4.70332C4.56254 32.0759 4.42582 32.0284 4.31543 31.9409L2.85934 30.7885H1.62574C1.51043 30.7885 1.41309 30.8859 1.41309 31.0012V37.6779C1.41309 37.7932 1.51043 37.8906 1.62574 37.8906H11.3471C11.4625 37.8906 11.5599 37.7932 11.5599 37.6779V32.2885C11.5599 32.1732 11.4625 32.0759 11.3471 32.0759ZM24.8604 32.0759H18.2166C18.0758 32.0759 17.9391 32.0284 17.8287 31.9409L16.3726 30.7885H15.139C15.0237 30.7885 14.9264 30.8859 14.9264 31.0012V37.6779C14.9264 37.7932 15.0237 37.8906 15.139 37.8906H24.8604C24.9757 37.8906 25.0732 37.7932 25.0732 37.6779V32.2885C25.0731 32.1732 24.9757 32.0759 24.8604 32.0759ZM38.5863 32.2885C38.5863 32.1732 38.4889 32.0758 38.3736 32.0758H31.7297C31.5889 32.0758 31.4522 32.0283 31.3418 31.9409L29.8857 30.7884H28.6521C28.5368 30.7884 28.4395 30.8859 28.4395 31.0011V37.6778C28.4395 37.7931 28.5368 37.8905 28.6521 37.8905H38.3736C38.4889 37.8905 38.5863 37.7931 38.5863 37.6778V32.2885Z" fill="#2D3C58"/>
</g>
<defs>
<clipPath id="clip0_376_5976">
<rect width="40" height="40" fill="white"/>
</clipPath>
</defs>
</svg>
