<svg width="40" height="35" viewBox="0 0 40 35" fill="none" xmlns="http://www.w3.org/2000/svg">
<path d="M35.7409 0H4.25898C1.91052 0 0 1.9106 0 4.25906V30.0543C0 32.4028 1.91052 34.3133 4.25898 34.3133H8.51022C8.8341 34.3133 9.09653 34.0509 9.09653 33.727C9.09653 33.4031 8.8341 33.1407 8.51022 33.1407H4.25898C2.55711 33.1407 1.17263 31.7561 1.17263 30.0543V5.97047H30.0209C30.3447 5.97047 30.6072 5.70803 30.6072 5.38415C30.6072 5.06027 30.3447 4.79784 30.0209 4.79784H1.17263V4.25898C1.17263 2.55711 2.55718 1.17263 4.25898 1.17263H35.7409C37.4428 1.17263 38.8273 2.55718 38.8273 4.25898V4.79784H32.5195C32.1956 4.79784 31.9332 5.06027 31.9332 5.38415C31.9332 5.70803 32.1956 5.97047 32.5195 5.97047H38.8273V30.0543C38.8273 31.7562 37.4427 33.1407 35.7409 33.1407H11.0088C10.685 33.1407 10.4225 33.4031 10.4225 33.727C10.4225 34.0509 10.685 34.3133 11.0088 34.3133H35.7409C38.0894 34.3133 39.9999 32.4028 39.9999 30.0543V4.25906C40 1.9106 38.0894 0 35.7409 0Z" fill="#2D3C58"/>
<path d="M30.6348 23.1982C30.6527 23.7315 31.0844 24.1493 31.6176 24.1493H34.8852C35.1531 24.1493 35.4037 24.0436 35.5907 23.8515C35.7775 23.6598 35.8764 23.4069 35.8694 23.1398C35.7606 18.9783 34.0575 15.083 31.0737 12.1717C28.0845 9.25511 24.1378 7.64893 19.9607 7.64893C15.7837 7.64893 11.8369 9.25519 8.84776 12.1717C5.86397 15.083 4.16085 18.9782 4.05211 23.1397C4.04507 23.407 4.14404 23.6598 4.3308 23.8515C4.51788 24.0436 4.76843 24.1493 5.03626 24.1493H8.3039C8.83705 24.1493 9.26881 23.7315 9.28663 23.1982C9.37568 20.5436 10.4459 18.0305 12.3001 16.122C12.5258 15.8898 12.5204 15.5185 12.2882 15.293C12.0558 15.0673 11.6846 15.0728 11.4592 15.3048C10.9734 15.8049 10.5367 16.3426 10.1507 16.9106L7.79083 15.2391C8.33618 14.4448 8.9626 13.6981 9.6668 13.011C11.1043 11.6085 12.7811 10.5341 14.6025 9.82407L15.4898 12.5848C14.798 12.8668 14.1307 13.214 13.4977 13.6265C13.2263 13.8033 13.1498 14.1665 13.3266 14.4378C13.5034 14.7092 13.8667 14.7858 14.1379 14.6089C15.8706 13.4797 17.8842 12.8828 19.9609 12.8828C22.7503 12.8828 25.3893 13.9515 27.3921 15.8919C29.3901 17.8282 30.5418 20.4228 30.6348 23.1982ZM9.53906 17.9144C8.69852 19.4627 8.20969 21.1885 8.12229 22.9767H5.23068C5.32456 20.5742 5.99359 18.2725 7.16543 16.2331L9.53906 17.9144ZM31.7993 22.9767C31.7119 21.1812 31.2247 19.458 30.385 17.9126L32.7561 16.2331C33.928 18.2725 34.597 20.5742 34.6909 22.9768H31.7993V22.9767ZM32.1308 15.2391L29.7726 16.9095C29.3202 16.2447 28.7975 15.6212 28.2078 15.0499C27.1021 13.9786 25.8216 13.147 24.4328 12.5814L25.3191 9.82407C27.1404 10.5341 28.8173 11.6085 30.2548 13.011C30.959 13.6981 31.5855 14.4448 32.1308 15.2391ZM16.5964 12.1955L15.7112 9.44164C17.0733 9.03325 18.5018 8.82147 19.9607 8.82147C21.4196 8.82147 22.8481 9.03325 24.2103 9.44164L23.3256 12.1938C22.2458 11.8754 21.1148 11.7103 19.9607 11.7103C18.812 11.7103 17.6806 11.8751 16.5964 12.1955Z" fill="#2D3C58"/>
<path d="M22.2613 19.433L18.7204 21.7338C17.625 22.2135 16.8574 23.3074 16.8574 24.5778C16.8574 26.2891 18.2496 27.6813 19.9609 27.6813C21.6335 27.6813 23.0004 26.3512 23.0615 24.6933L23.947 20.5953C24.0421 20.1551 23.864 19.7056 23.4933 19.4499C23.1224 19.1942 22.639 19.1876 22.2613 19.433ZM22.7671 20.5027L22.3213 22.5662C21.9709 22.1556 21.5156 21.8372 20.9972 21.6529L22.7671 20.5027ZM19.9609 26.5087C18.8962 26.5087 18.03 25.6425 18.03 24.5778C18.03 23.5131 18.8962 22.647 19.9609 22.647C21.0256 22.647 21.8917 23.5131 21.8917 24.5778C21.8917 25.6425 21.0256 26.5087 19.9609 26.5087Z" fill="#2D3C58"/>
<path d="M4.18836 2.47314C3.86448 2.47314 3.60205 2.73558 3.60205 3.05946C3.60205 3.38334 3.86448 3.64577 4.18836 3.64577H4.43462C4.75849 3.64577 5.02093 3.38334 5.02093 3.05946C5.02093 2.73558 4.75849 2.47314 4.43462 2.47314H4.18836Z" fill="#2D3C58"/>
<path d="M7.0619 2.47314C6.73802 2.47314 6.47559 2.73558 6.47559 3.05946C6.47559 3.38334 6.73802 3.64577 7.0619 3.64577H7.30815C7.63203 3.64577 7.89446 3.38334 7.89446 3.05946C7.89446 2.73558 7.63203 2.47314 7.30815 2.47314H7.0619Z" fill="#2D3C58"/>
<path d="M9.93543 2.47314C9.61155 2.47314 9.34912 2.73558 9.34912 3.05946C9.34912 3.38334 9.61155 3.64577 9.93543 3.64577H10.1817C10.5056 3.64577 10.768 3.38334 10.768 3.05946C10.768 2.73558 10.5056 2.47314 10.1817 2.47314H9.93543Z" fill="#2D3C58"/>
</svg>
