<svg width="60" height="60" viewBox="0 0 60 60" fill="none" xmlns="http://www.w3.org/2000/svg">
<path d="M6.5625 42.1875H24.8555C24.599 43.4227 24.4446 44.6769 24.3939 45.9375H19.6875C19.5021 45.9375 19.3208 45.9925 19.1666 46.0955C19.0125 46.1985 18.8923 46.3449 18.8213 46.5162C18.7504 46.6875 18.7318 46.876 18.768 47.0579C18.8042 47.2398 18.8935 47.4068 19.0246 47.5379L28.3996 56.9129C28.5699 57.0833 28.7993 57.1815 29.0402 57.1872C29.281 57.1929 29.5148 57.1057 29.6931 56.9436L40.0056 47.5686C40.1456 47.4413 40.2438 47.2747 40.2873 47.0905C40.3308 46.9064 40.3175 46.7134 40.2493 46.5369C40.1811 46.3605 40.0611 46.2088 39.905 46.1018C39.749 45.9948 39.5642 45.9375 39.375 45.9375H33.7683C33.818 44.6779 33.9659 43.4241 34.2107 42.1875H53.4375C54.6803 42.1861 55.8717 41.6918 56.7505 40.813C57.6293 39.9342 58.1236 38.7428 58.125 37.5V7.5C58.1236 6.25723 57.6293 5.06575 56.7505 4.18698C55.8717 3.3082 54.6803 2.8139 53.4375 2.8125H6.5625C5.31973 2.8139 4.12825 3.3082 3.24948 4.18698C2.3707 5.06575 1.8764 6.25723 1.875 7.5V37.5C1.8764 38.7428 2.3707 39.9342 3.24948 40.813C4.12825 41.6918 5.31973 42.1861 6.5625 42.1875ZM36.95 47.8125L29.0933 54.955L21.9507 47.8125H25.3125C25.5611 47.8125 25.7996 47.7137 25.9754 47.5379C26.1512 47.3621 26.25 47.1236 26.25 46.875C26.25 41.1888 28.5182 35.7927 32.6367 31.6807C35.0614 29.2413 38.0297 27.4113 41.2983 26.3407C39.8561 27.5558 38.5629 28.9375 37.446 30.457C35.3654 33.2511 31.875 39.0991 31.875 46.875C31.875 47.1236 31.9738 47.3621 32.1496 47.5379C32.3254 47.7137 32.5639 47.8125 32.8125 47.8125H36.95ZM53.4375 40.3125H34.6568C35.5466 37.1646 37.0013 34.2047 38.9498 31.5771C41.7839 27.7716 45.2627 25.3125 47.8125 25.3125C48.0611 25.3125 48.2996 25.2137 48.4754 25.0379C48.6512 24.8621 48.75 24.6236 48.75 24.375C48.75 24.1264 48.6512 23.8879 48.4754 23.7121C48.2996 23.5363 48.0611 23.4375 47.8125 23.4375C41.6393 23.4375 35.7793 25.8938 31.3125 30.3538C28.5182 33.1219 26.4613 36.5455 25.3296 40.3125H6.5625C5.81685 40.3116 5.10198 40.015 4.57472 39.4878C4.04746 38.9605 3.75087 38.2457 3.75 37.5V9.13629L27.6294 23.1346C28.3485 23.5556 29.1667 23.7775 30 23.7775C30.8333 23.7775 31.6515 23.5556 32.3706 23.1346L56.25 9.13629V37.5C56.2491 38.2457 55.9525 38.9605 55.4253 39.4878C54.898 40.015 54.1832 40.3116 53.4375 40.3125ZM6.5625 4.6875H53.4375C54.0948 4.68837 54.731 4.91908 55.2361 5.33966C55.7412 5.76025 56.0833 6.34423 56.2031 6.99047L31.4223 21.517C30.9908 21.7696 30.4999 21.9027 30 21.9027C29.5001 21.9027 29.0092 21.7696 28.5777 21.517L3.79688 6.99047C3.91673 6.34423 4.25882 5.76025 4.7639 5.33966C5.26898 4.91908 5.90524 4.68837 6.5625 4.6875Z" fill="#2D3C58"/>
</svg>
