<svg width="60" height="60" viewBox="0 0 60 60" fill="none" xmlns="http://www.w3.org/2000/svg">
<path d="M48.6223 52.2579L46.382 45.536C45.5991 43.1892 43.6017 41.457 41.1668 41.0137L34.6994 39.837V39.3357C35.8249 38.6824 36.8042 37.8086 37.5842 36.7741H39.5381C41.1388 36.7741 42.4413 35.4715 42.4413 33.8708V22.2579C42.4413 15.3211 36.7975 9.67725 29.8607 9.67725C22.9239 9.67725 17.28 15.3211 17.28 22.2579V29.0321C17.28 30.8979 18.6068 32.4589 20.3662 32.8228C20.9091 35.6041 22.6471 37.9576 25.022 39.3357V39.837L18.5536 41.0137C16.1197 41.457 14.1213 43.1892 13.3394 45.536L12.9523 46.6983L9.65614 43.4021C9.27872 43.0247 9.27872 42.4102 9.65614 42.0328L13.4787 38.2112L6.30388 31.0363L1.98387 35.3563C0.704517 36.6357 0 38.337 0 40.1466C0 41.9563 0.704517 43.6566 1.98387 44.936L15.0629 58.0151C16.3423 59.2944 18.0436 59.9999 19.8533 59.9999C21.6629 59.9999 23.3633 59.2944 24.6126 58.0441L29.3265 53.725L27.8565 52.2579H48.6223ZM40.5059 33.8708C40.5059 34.405 40.0713 34.8386 39.5381 34.8386H38.7242C39.0049 34.1989 39.2178 33.5244 39.3552 32.8228C39.7694 32.7366 40.1507 32.5721 40.5059 32.365V33.8708ZM39.5381 30.6986V27.3657C40.1139 27.7015 40.5059 28.3189 40.5059 29.0321C40.5059 29.7453 40.1139 30.3628 39.5381 30.6986ZM20.1833 30.6986C19.6074 30.3628 19.2155 29.7453 19.2155 29.0321C19.2155 28.3189 19.6074 27.7015 20.1833 27.3657V30.6986ZM20.1833 24.1934V25.2986C19.8387 25.3886 19.5155 25.524 19.2155 25.6992V22.2579C19.2155 16.3885 23.9913 11.6127 29.8607 11.6127C35.73 11.6127 40.5059 16.3885 40.5059 22.2579V25.6992C40.2059 25.524 39.8826 25.3876 39.5381 25.2986V24.1934H38.5704C35.7088 24.1934 33.0184 23.0786 30.9939 21.055L29.8607 19.9218L28.7275 21.055C26.7029 23.0786 24.0126 24.1934 21.151 24.1934H20.1833ZM22.1187 30.9676V26.0921C25.0249 25.8734 27.7346 24.6744 29.8607 22.6527C31.9868 24.6744 34.6965 25.8744 37.6026 26.0921V30.9676C37.6026 32.3786 37.2175 33.6986 36.5555 34.8386H29.8607V36.7741H34.9646C33.6 37.975 31.8165 38.7095 29.8607 38.7095C25.592 38.7095 22.1187 35.2363 22.1187 30.9676ZM32.7639 40.1989V40.2444L29.8607 43.1476L26.9575 40.2444V40.1989C27.8749 40.4873 28.8494 40.645 29.8607 40.645C30.872 40.645 31.8465 40.4873 32.7639 40.1989ZM15.1742 46.1476C15.7326 44.4715 17.16 43.2337 18.8991 42.9163L25.6636 41.6873L29.8607 45.8844L34.0568 41.6883L40.8204 42.9173C42.5594 43.2347 43.9868 44.4715 44.5452 46.1486L45.9378 50.3225H25.921L22.1516 46.5531L17.9632 50.3418C17.5984 50.7086 16.9607 50.7086 16.5949 50.3418L14.4813 48.2283L15.1742 46.1476ZM6.30291 33.7731L10.741 38.2112L9.69001 39.2621L5.25194 34.8241L6.30291 33.7731ZM23.2723 56.6486C22.3587 57.5602 21.1433 58.0644 19.8513 58.0644C18.5594 58.0644 17.3439 57.5602 16.4294 56.6467L3.35033 43.5686C2.43678 42.655 1.93355 41.4395 1.93355 40.1476C1.93355 38.8547 2.43678 37.6392 3.35033 36.7257L3.88259 36.1934L8.32066 40.6315L8.28582 40.6663C7.15452 41.7986 7.15452 43.6402 8.28582 44.7725L15.2255 51.7121C15.7742 52.2599 16.5029 52.5628 17.2791 52.5628C18.0552 52.5628 18.7839 52.2608 19.2968 51.746L19.3694 51.6812L23.8278 56.1396L23.2723 56.6486ZM25.2562 54.8292L20.8074 50.3805L22.0858 49.225L26.5268 53.666L25.2562 54.8292Z" fill="#2D3C58"/>
<path d="M56.9594 0H43.411C41.8104 0 40.5078 1.30258 40.5078 2.90323V10.6452C40.5078 12.2458 41.8104 13.5484 43.411 13.5484H45.9959L44.9952 19.3849L54.334 13.5484H56.9594C58.5601 13.5484 59.8627 12.2458 59.8627 10.6452V2.90323C59.8627 1.30258 58.5601 0 56.9594 0ZM57.9272 10.6452C57.9272 11.1784 57.4927 11.6129 56.9594 11.6129H53.7785L47.6323 15.4539L48.2914 11.6129H43.411C42.8778 11.6129 42.4433 11.1784 42.4433 10.6452V2.90323C42.4433 2.37 42.8778 1.93549 43.411 1.93549H56.9594C57.4927 1.93549 57.9272 2.37 57.9272 2.90323V10.6452Z" fill="#2D3C58"/>
<path d="M55.9918 3.87109H44.3789V5.80658H55.9918V3.87109Z" fill="#2D3C58"/>
<path d="M52.1209 7.74219H44.3789V9.67767H52.1209V7.74219Z" fill="#2D3C58"/>
<path d="M55.9941 7.74219H54.0586V9.67767H55.9941V7.74219Z" fill="#2D3C58"/>
<path d="M29.8617 2.90308C17.2171 2.90308 6.32517 11.6495 3.49355 23.8499L1.65968 20.7928L0 21.7886L3.40162 27.4567L9.06969 24.055L8.07388 22.3954L5.4513 23.9689C8.19388 12.8079 18.2303 4.83856 29.8617 4.83856C32.4039 4.83856 34.9123 5.21598 37.3171 5.96114L37.8901 4.11276C35.2994 3.30953 32.5984 2.90308 29.8617 2.90308Z" fill="#2D3C58"/>
<path d="M59.3944 21.4277L53.7263 18.0261L50.3257 23.6952L51.9854 24.691L53.6789 21.8681C54.5702 24.4761 55.026 27.2042 55.026 30C55.026 35.7552 53.0325 41.3816 49.4141 45.842L50.917 47.0613C54.815 42.2574 56.9615 36.1974 56.9615 30C56.9615 27.0397 56.4844 24.149 55.5544 21.3813L58.3986 23.0874L59.3944 21.4277Z" fill="#2D3C58"/>
</svg>
