<svg width="36" height="36" viewBox="0 0 36 36" fill="none" xmlns="http://www.w3.org/2000/svg">
<path d="M35.2499 14.25C34.8352 14.25 34.4999 14.5852 34.4999 15V27.75C34.4999 28.164 34.1639 28.5 33.7499 28.5H2.25C1.836 28.5 1.5 28.164 1.5 27.75V6.75C1.5 6.336 1.836 6 2.25 6H13.5C13.9147 6 14.25 5.66475 14.25 5.25C14.25 4.83525 13.9147 4.5 13.5 4.5H2.25C1.0095 4.5 0 5.5095 0 6.75V27.75C0 28.9905 1.0095 30 2.25 30H33.7499C34.9904 30 35.9999 28.9905 35.9999 27.75V15C35.9999 14.5852 35.6647 14.25 35.2499 14.25Z" fill="#2D3C58"/>
<path d="M24 34.5H22.5V32.25C22.5 31.8352 22.1647 31.5 21.75 31.5C21.3352 31.5 21 31.8352 21 32.25V34.5H15V32.25C15 31.8352 14.6647 31.5 14.25 31.5C13.8352 31.5 13.5 31.8352 13.5 32.25V34.5H12C11.5852 34.5 11.25 34.8352 11.25 35.25C11.25 35.6647 11.5852 36 12 36H24C24.4147 36 24.75 35.6647 24.75 35.25C24.75 34.8352 24.4147 34.5 24 34.5Z" fill="#2D3C58"/>
<path d="M11.25 23.2505C10.8352 23.2505 10.5 23.5857 10.5 24.0005C10.5 24.4152 10.8352 24.7505 11.25 24.7505H30.75C31.1647 24.7505 31.5 24.4152 31.5 24.0005C31.5 23.5857 31.1647 23.2505 30.75 23.2505H11.25Z" fill="#2D3C58"/>
<path d="M5.25 23.2505C4.83525 23.2505 4.5 23.5857 4.5 24.0005C4.5 24.4152 4.83525 24.7505 5.25 24.7505H7.49999C7.91474 24.7505 8.24999 24.4152 8.24999 24.0005C8.24999 23.5857 7.91474 23.2505 7.49999 23.2505H5.25Z" fill="#2D3C58"/>
<path d="M16.2322 12.1755L17.4292 12.4147C17.5072 12.6285 17.5935 12.8377 17.6887 13.0417L17.0122 14.0565C16.608 14.6625 16.6882 15.4762 17.2035 15.9907L18.51 17.2965C19.0237 17.811 19.836 17.8935 20.4435 17.4885L21.4635 16.809C21.669 16.9057 21.8767 16.9927 22.0845 17.07L22.3237 18.2685C22.4662 18.9825 23.0985 19.5 23.8267 19.5H25.674C26.4022 19.5 27.0337 18.9825 27.177 18.2677L27.4162 17.07C27.63 16.992 27.8392 16.9057 28.0432 16.8112L29.0587 17.4885C29.664 17.8905 30.4777 17.8102 30.9915 17.2957L32.298 15.99C32.8132 15.4747 32.8935 14.6617 32.4892 14.0557L31.8097 13.0365C31.9072 12.831 31.9942 12.6225 32.0715 12.4155L33.2692 12.1755C33.9825 12.033 34.5 11.4015 34.5 10.6732V8.82523C34.5 8.09773 33.9825 7.46623 33.2677 7.32298L32.0707 7.08373C31.9927 6.86924 31.9065 6.66074 31.812 6.45674L32.4877 5.44199C32.892 4.83599 32.8117 4.02224 32.2965 3.50774L30.99 2.202C30.4762 1.68825 29.664 1.605 29.0565 2.01L28.0365 2.68949C27.831 2.59274 27.6232 2.50574 27.4155 2.42849L27.1762 1.23C27.0337 0.517499 26.4015 0 25.6732 0H23.826C23.0977 0 22.4662 0.517499 22.323 1.2315L22.0837 2.42924C21.8745 2.50649 21.6652 2.59349 21.4605 2.69024L20.442 2.01C19.836 1.60725 19.0222 1.68825 18.5092 2.20275L17.2027 3.50849C16.6875 4.02374 16.6072 4.83674 17.0115 5.44274L17.6917 6.46199C17.5957 6.66674 17.5087 6.87449 17.4322 7.08299L16.2315 7.32298C15.5175 7.46623 15 8.09848 15 8.82598V10.674C15 11.4007 15.5175 12.033 16.2322 12.1755ZM16.5262 8.79448L18.153 8.46898C18.4245 8.41498 18.645 8.21398 18.7245 7.94848C18.8437 7.54873 19.0102 7.15124 19.2172 6.76574C19.3492 6.52199 19.335 6.22424 19.1812 5.99399L18.2625 4.56974L19.6102 3.25949L20.9917 4.18124C21.2227 4.33574 21.5205 4.35074 21.765 4.21649C22.149 4.00874 22.5472 3.84224 22.9477 3.72299C23.214 3.64424 23.415 3.42449 23.469 3.15149L23.8267 1.5L25.7062 1.5255L26.0302 3.14999C26.0842 3.42224 26.2852 3.64199 26.5507 3.72149C26.943 3.83849 27.342 4.00574 27.7335 4.21649C27.9772 4.34849 28.2757 4.33424 28.5052 4.18049L29.9295 3.26249L31.2397 4.61024L30.3217 5.98724C30.1672 6.21899 30.1537 6.51599 30.2865 6.76049C30.486 7.12874 30.651 7.52848 30.7762 7.94848C30.8557 8.21398 31.0755 8.41423 31.3477 8.46823L32.9722 8.79373L33 8.82598L32.9737 10.7055L31.35 11.0302C31.0777 11.0842 30.858 11.2852 30.7785 11.5507C30.6615 11.9422 30.495 12.3405 30.2827 12.7327C30.1507 12.9772 30.165 13.275 30.3187 13.5052L31.2375 14.9295L29.8897 16.2397L28.5127 15.321C28.2825 15.1672 27.9847 15.1537 27.7402 15.285C27.3705 15.4852 26.9707 15.6502 26.5515 15.7755C26.286 15.855 26.0857 16.0747 26.0317 16.347L25.6732 18L23.7937 17.9737L23.469 16.3492C23.415 16.077 23.214 15.8572 22.9485 15.7777C22.5562 15.6607 22.1572 15.4935 21.7657 15.2827C21.6547 15.2227 21.5317 15.1927 21.4095 15.1927C21.264 15.1927 21.1185 15.2355 20.9932 15.3187L19.569 16.2367L18.2587 14.889L19.1775 13.512C19.332 13.2802 19.3455 12.9832 19.2127 12.7387C19.0117 12.3682 18.8475 11.9692 18.7222 11.5507C18.6427 11.2852 18.423 11.085 18.1507 11.031L16.5 10.6732L16.5262 8.79448Z" fill="#2D3C58"/>
<path d="M24.75 14.25C27.2317 14.25 29.25 12.2317 29.25 9.74999C29.25 9.44699 29.22 9.14399 29.1607 8.85074C29.079 8.44499 28.6837 8.18249 28.2765 8.26424C27.8707 8.34674 27.6075 8.74274 27.69 9.14849C27.7305 9.34424 27.75 9.54674 27.75 9.74999C27.75 11.4045 26.4045 12.75 24.75 12.75C23.0955 12.75 21.75 11.4045 21.75 9.74999C21.75 8.09549 23.0955 6.75 24.75 6.75C24.9532 6.75 25.155 6.7695 25.3515 6.81C25.7557 6.8925 26.1525 6.62925 26.2357 6.2235C26.3175 5.81775 26.055 5.4225 25.6492 5.33925C25.3552 5.28 25.0522 5.25 24.75 5.25C22.2682 5.25 20.25 7.26825 20.25 9.74999C20.25 12.2317 22.2682 14.25 24.75 14.25Z" fill="#2D3C58"/>
</svg>
