<svg width="20" height="20" viewBox="0 0 20 20" fill="none" xmlns="http://www.w3.org/2000/svg">
<path fill-rule="evenodd" clip-rule="evenodd" d="M10.625 1.61875L17.3187 8.30625C17.3773 8.36435 17.4238 8.43348 17.4556 8.50964C17.4873 8.5858 17.5036 8.66749 17.5036 8.75C17.5036 8.83251 17.4873 8.9142 17.4556 8.99036C17.4238 9.06652 17.3773 9.13565 17.3187 9.19375L16.0687 10.4437L15.1813 9.55625L15.9937 8.75L9.74375 2.5H5V3.75H3.75V2.5C3.75 2.16848 3.8817 1.85054 4.11612 1.61612C4.35054 1.3817 4.66848 1.25 5 1.25H9.74375C10.0747 1.2514 10.3917 1.38401 10.625 1.61875ZM10 18.75C9.91775 18.7505 9.83621 18.7347 9.76006 18.7036C9.68391 18.6725 9.61465 18.6267 9.55625 18.5687L2.86875 11.875C2.63401 11.6417 2.5014 11.3247 2.5 10.9937V6.25C2.5 5.91848 2.6317 5.60054 2.86612 5.36612C3.10054 5.1317 3.41848 5 3.75 5H8.49375C8.82474 5.0014 9.14166 5.13401 9.375 5.36875L16.0687 12.0562C16.1273 12.1144 16.1738 12.1835 16.2056 12.2596C16.2373 12.3358 16.2536 12.4175 16.2536 12.5C16.2536 12.5825 16.2373 12.6642 16.2056 12.7404C16.1738 12.8165 16.1273 12.8856 16.0687 12.9437L10.4437 18.5687C10.3853 18.6267 10.3161 18.6725 10.2399 18.7036C10.1638 18.7347 10.0823 18.7505 10 18.75ZM3.75 6.25V10.9937L10 17.2437L14.7437 12.5L8.49375 6.25H3.75ZM6.25 10C6.94036 10 7.5 9.44036 7.5 8.75C7.5 8.05964 6.94036 7.5 6.25 7.5C5.55964 7.5 5 8.05964 5 8.75C5 9.44036 5.55964 10 6.25 10Z" fill="white"/>
</svg>
