<svg width="47" height="41" viewBox="0 0 47 41" fill="none" xmlns="http://www.w3.org/2000/svg">
<path d="M12.5737 36.7133H11.0421C10.5377 36.7133 10.125 36.3011 10.125 35.7973C10.125 35.2935 10.5377 34.8813 11.0421 34.8813H12.5737C13.0781 34.8813 13.4908 35.2935 13.4908 35.7973C13.4908 36.3011 13.0781 36.7133 12.5737 36.7133Z" fill="#2D3C58"/>
<path d="M25.3214 36.7133H17.049C16.5445 36.7133 16.1318 36.3011 16.1318 35.7973C16.1318 35.2935 16.5445 34.8813 17.049 34.8813H25.3214C25.8258 34.8813 26.2385 35.2935 26.2385 35.7973C26.2385 36.3011 25.8258 36.7133 25.3214 36.7133Z" fill="#2D3C58"/>
<path d="M12.5737 23.5143H11.0421C10.5377 23.5143 10.125 23.1021 10.125 22.5983C10.125 22.0946 10.5377 21.6824 11.0421 21.6824H12.5737C13.0781 21.6824 13.4908 22.0946 13.4908 22.5983C13.4908 23.1021 13.0781 23.5143 12.5737 23.5143Z" fill="#2D3C58"/>
<path d="M28.3482 27.8009H3.00815C1.34817 27.8009 0 26.4544 0 24.7965V20.2534C0 18.5955 1.34817 17.249 3.00815 17.249H14.5547C14.9124 17.249 15.2425 17.4597 15.3893 17.7803C16.4348 20.0427 18.7184 21.5082 21.2038 21.5082H30.4484C30.9528 21.5082 31.3655 21.9204 31.3655 22.4242V24.7965C31.3655 26.4544 30.0082 27.8009 28.3482 27.8009ZM3.00815 19.0809C2.357 19.0809 1.83424 19.6122 1.83424 20.2534V24.7965C1.83424 25.4469 2.36617 25.969 3.00815 25.969H28.3482C28.9993 25.969 29.5221 25.4377 29.5221 24.7965V23.3402H21.2038C18.1957 23.3402 15.426 21.6823 13.9861 19.0809H3.00815Z" fill="#2D3C58"/>
<path d="M28.3482 40.9999H3.00815C1.34817 40.9999 0 39.6534 0 37.9955V33.4523C0 31.7945 1.34817 30.448 3.00815 30.448H28.3482C30.0082 30.448 31.3563 31.7945 31.3563 33.4523V37.9955C31.3655 39.6534 30.0082 40.9999 28.3482 40.9999ZM3.00815 32.2799C2.357 32.2799 1.83424 32.8112 1.83424 33.4523V37.9955C1.83424 38.6458 2.36617 39.1679 3.00815 39.1679H28.3482C28.9993 39.1679 29.5221 38.6367 29.5221 37.9955V33.4523C29.5221 32.802 28.9901 32.2799 28.3482 32.2799H3.00815Z" fill="#2D3C58"/>
<path d="M27.0186 32.28H4.19153C3.68712 32.28 3.27441 31.8678 3.27441 31.364V26.885C3.27441 26.3812 3.68712 25.969 4.19153 25.969H27.0186C27.5231 25.969 27.9358 26.3812 27.9358 26.885V31.364C27.9358 31.8678 27.5231 32.28 27.0186 32.28ZM5.10865 30.448H26.1015V27.8009H5.10865V30.448Z" fill="#2D3C58"/>
<path d="M6.46557 36.64C6.41054 36.64 6.34634 36.6308 6.29131 36.6217C6.23629 36.6125 6.17209 36.5942 6.11706 36.5667C6.06203 36.5392 6.00701 36.5118 5.96115 36.4843C5.90612 36.4476 5.86027 36.411 5.82358 36.3652C5.7869 36.3194 5.74104 36.2736 5.71353 36.2278C5.67684 36.182 5.64933 36.1271 5.63099 36.0721C5.60347 36.0171 5.5943 35.9622 5.57596 35.8981C5.56679 35.834 5.55762 35.779 5.55762 35.7149C5.55762 35.6508 5.56679 35.5958 5.57596 35.5317C5.58513 35.4767 5.60347 35.4126 5.63099 35.3577C5.6585 35.3027 5.68601 35.2477 5.71353 35.2019C5.75021 35.1561 5.7869 35.1012 5.82358 35.0645C5.86027 35.0279 5.91529 34.9821 5.96115 34.9546C6.00701 34.918 6.06203 34.8905 6.11706 34.8722C6.17209 34.8447 6.22711 34.8356 6.29131 34.8172C6.41054 34.7898 6.52976 34.7898 6.64899 34.8172C6.70402 34.8264 6.76822 34.8447 6.82324 34.8722C6.87827 34.8997 6.9333 34.9272 6.97915 34.9546C7.02501 34.9913 7.08004 35.0279 7.11672 35.0645C7.16258 35.1103 7.19926 35.1561 7.23595 35.2019C7.27263 35.2477 7.30014 35.3027 7.31849 35.3577C7.346 35.4126 7.35517 35.4676 7.37351 35.5317C7.38269 35.5866 7.39186 35.6508 7.39186 35.7149C7.39186 35.779 7.38269 35.834 7.37351 35.8981C7.36434 35.953 7.346 36.0171 7.31849 36.0721C7.29097 36.1271 7.26346 36.182 7.23595 36.2278C7.19926 36.2736 7.16258 36.3286 7.11672 36.3652C7.07086 36.411 7.02501 36.4476 6.97915 36.4843C6.9333 36.5209 6.87827 36.5484 6.82324 36.5667C6.76822 36.5942 6.71319 36.6034 6.64899 36.6217C6.58479 36.64 6.52059 36.64 6.46557 36.64Z" fill="#2D3C58"/>
<path d="M6.46557 23.5141C6.41054 23.5141 6.34634 23.505 6.29131 23.4958C6.23629 23.4867 6.17209 23.4683 6.11706 23.4409C6.06203 23.4134 6.00701 23.3859 5.96115 23.3584C5.90612 23.3218 5.86027 23.2852 5.82358 23.2394C5.7869 23.1936 5.74104 23.1478 5.71353 23.102C5.67684 23.0562 5.64933 23.0012 5.63099 22.9462C5.60347 22.8913 5.5943 22.8363 5.57596 22.7722C5.56679 22.7173 5.55762 22.6531 5.55762 22.589C5.55762 22.5341 5.56679 22.4699 5.57596 22.415C5.58513 22.36 5.60347 22.2959 5.63099 22.241C5.6585 22.186 5.68601 22.131 5.71353 22.0852C5.75021 22.0394 5.7869 21.9845 5.82358 21.9478C5.86027 21.9112 5.91529 21.8654 5.96115 21.8379C6.00701 21.8013 6.06203 21.7738 6.11706 21.7555C6.17209 21.728 6.22711 21.7189 6.29131 21.7005C6.41054 21.6731 6.52976 21.6731 6.64899 21.7005C6.70402 21.7097 6.76822 21.728 6.82324 21.7555C6.87827 21.783 6.9333 21.8105 6.97915 21.8379C7.02501 21.8746 7.08004 21.9112 7.11672 21.9478C7.16258 21.9936 7.19926 22.0394 7.23595 22.0852C7.27263 22.131 7.30014 22.186 7.31849 22.241C7.33683 22.2959 7.35517 22.3509 7.37351 22.415C7.38269 22.4699 7.39186 22.5341 7.39186 22.589C7.39186 22.6531 7.38269 22.7081 7.37351 22.7722C7.36434 22.8272 7.346 22.8913 7.31849 22.9462C7.29097 23.0012 7.27263 23.0562 7.23595 23.102C7.19926 23.1478 7.16258 23.2027 7.11672 23.2394C7.07086 23.2852 7.02501 23.3218 6.97915 23.3584C6.9333 23.3951 6.87827 23.4225 6.82324 23.4409C6.76822 23.4683 6.71319 23.4775 6.64899 23.4958C6.58479 23.505 6.52059 23.5141 6.46557 23.5141Z" fill="#2D3C58"/>
<path d="M34.9144 27.8011C34.786 27.8011 34.6576 27.7736 34.5384 27.7187C34.2083 27.5721 33.9973 27.2424 33.9973 26.8851V23.3404H21.2035C16.6638 23.3404 12.9678 19.649 12.9678 15.115C12.9678 10.581 16.6638 6.88972 21.2035 6.88972C21.3319 6.88972 21.4695 6.88972 21.607 6.89888C22.8268 4.62729 24.7803 2.84117 27.174 1.84277C27.6417 1.65042 28.1828 1.87025 28.3754 2.33739C28.568 2.80453 28.3479 3.34495 27.8801 3.5373C25.7066 4.4441 23.964 6.11115 22.9827 8.2545C22.8176 8.62088 22.4324 8.83155 22.0289 8.7766C21.7538 8.73996 21.4786 8.72164 21.2035 8.72164C17.6726 8.72164 14.802 11.5886 14.802 15.115C14.802 18.6415 17.6726 21.5084 21.2035 21.5084H34.9144C35.4189 21.5084 35.8316 21.9206 35.8316 22.4244V24.8425L39.3258 21.7374C39.4909 21.5909 39.711 21.5084 39.9403 21.5084H40.4722C43.0401 21.5084 45.1312 19.4201 45.1312 16.8554C45.1312 14.6754 43.6454 12.816 41.5269 12.3305C41.1325 12.2389 40.8482 11.9 40.8207 11.5062C40.5731 8.01635 38.317 4.88376 35.0795 3.54646C34.6118 3.35411 34.3917 2.81369 34.5843 2.34655C34.7769 1.87941 35.318 1.65958 35.7857 1.85193C37.6841 2.63966 39.3258 3.93116 40.5364 5.58905C41.6461 7.10955 42.3523 8.87735 42.5907 10.7276C43.7371 11.1215 44.7735 11.8359 45.5439 12.7977C46.4701 13.9426 46.9837 15.3898 46.9837 16.8645C46.9837 20.4368 44.0765 23.3495 40.4905 23.3495H40.3071L35.5473 27.5813C35.3547 27.7278 35.1346 27.8011 34.9144 27.8011Z" fill="#2D3C58"/>
<path d="M36.7945 18.5773C35.7948 18.5773 34.8593 18.1742 34.2265 17.4781C33.8872 17.1026 33.9147 16.5255 34.2907 16.1866C34.6667 15.8477 35.2445 15.8752 35.5839 16.2507C35.8682 16.5621 36.3176 16.7545 36.7945 16.7545C37.2072 16.7545 37.4731 16.5072 37.5098 16.3332C37.5373 16.1866 37.308 15.9943 36.9504 15.866C36.1066 15.5546 35.3454 15.2157 35.3179 15.2065C35.272 15.1882 35.2354 15.1607 35.1895 15.1333C34.5383 14.7119 34.2082 13.97 34.3182 13.1914C34.4375 12.3762 35.0336 11.7076 35.8682 11.4602C37.1521 11.0755 38.3444 11.6892 38.8396 12.1106L37.6565 13.512L37.6657 13.5212C37.6565 13.512 37.0421 13.0265 36.3909 13.2189C36.235 13.2647 36.1433 13.3471 36.125 13.457C36.1158 13.512 36.1341 13.5486 36.1525 13.5761C36.3726 13.6769 36.9595 13.9242 37.5832 14.1532C39.0872 14.7119 39.4633 15.8111 39.3074 16.6629C39.1056 17.7712 38.0509 18.5773 36.7945 18.5773Z" fill="#2D3C58"/>
<path d="M23.5699 18.5772C23.1297 18.5772 22.7353 18.3024 22.5886 17.8902L20.7268 12.5502C20.5618 12.0739 20.8185 11.5518 21.2954 11.3869C21.7723 11.2221 22.2951 11.4785 22.4602 11.9548L23.5424 15.0782L24.5787 11.9731C24.7346 11.4968 25.2574 11.2312 25.7343 11.3961C26.2112 11.5518 26.4772 12.0739 26.3121 12.5502L24.5421 17.8719C24.4045 18.2933 24.0101 18.5772 23.5699 18.5772Z" fill="#2D3C58"/>
<path d="M28.8888 18.5773C28.3844 18.5773 27.9717 18.1651 27.9717 17.6613V12.248C27.9717 11.7442 28.3844 11.332 28.8888 11.332C29.3932 11.332 29.8059 11.7442 29.8059 12.248V17.6613C29.8059 18.1743 29.3932 18.5773 28.8888 18.5773Z" fill="#2D3C58"/>
<path d="M28.898 16.2325C28.6595 16.2325 28.4211 16.1409 28.256 15.9669C28.0817 15.7929 27.9809 15.5639 27.9809 15.3166C27.9809 15.3166 27.9717 14.1991 27.9717 13.7778C27.9717 13.4297 27.9717 12.2573 27.9717 12.2573C27.9717 12.01 28.0634 11.781 28.2376 11.6069C28.4119 11.4329 28.6412 11.3413 28.8888 11.3413H30.402C31.7686 11.3413 32.8783 12.4405 32.8783 13.7869C32.8783 15.1334 31.7686 16.2325 30.402 16.2325C29.9802 16.2234 28.9071 16.2325 28.898 16.2325C28.9071 16.2325 28.9071 16.2325 28.898 16.2325ZM29.8059 13.1641C29.8059 13.4114 29.8059 13.6495 29.8059 13.7778C29.8059 13.9243 29.8059 14.1533 29.8059 14.3915C30.0352 14.3915 30.2461 14.3915 30.3929 14.3915C30.7414 14.3915 31.0349 14.1075 31.0349 13.7778C31.0349 13.448 30.7414 13.1641 30.3929 13.1641H29.8059Z" fill="#2D3C58"/>
<path d="M31.4757 2.8319C31.4115 2.8319 31.3565 2.82274 31.2923 2.81358C31.2373 2.80442 31.1731 2.7861 31.118 2.75862C31.063 2.73114 31.008 2.70366 30.9621 2.67618C30.9071 2.63954 30.8612 2.60291 30.8246 2.55711C30.6503 2.38308 30.5586 2.15409 30.5586 1.90678C30.5586 1.65947 30.6595 1.43048 30.8246 1.25644C30.8704 1.21065 30.9163 1.17401 30.9621 1.14653C31.008 1.10989 31.063 1.08241 31.118 1.06409C31.1731 1.03661 31.2281 1.01829 31.2923 1.00913C31.4115 0.981656 31.5307 0.981656 31.65 1.00913C31.705 1.01829 31.7692 1.03661 31.8242 1.06409C31.8792 1.09157 31.9343 1.11905 31.9801 1.14653C32.026 1.18317 32.0718 1.21981 32.1177 1.25644C32.1636 1.30224 32.2002 1.34804 32.2277 1.39384C32.2644 1.43964 32.2919 1.49459 32.3103 1.54955C32.3378 1.60451 32.347 1.65947 32.3653 1.72358C32.3745 1.77854 32.3837 1.84266 32.3837 1.90678C32.3837 2.14493 32.2828 2.38308 32.1177 2.55711C32.0718 2.60291 32.026 2.63954 31.9801 2.67618C31.9343 2.71282 31.8792 2.7403 31.8242 2.75862C31.7692 2.7861 31.7142 2.79526 31.65 2.81358C31.5949 2.82274 31.5399 2.8319 31.4757 2.8319Z" fill="#2D3C58"/>
</svg>
