<svg width="40" height="40" viewBox="0 0 40 40" fill="none" xmlns="http://www.w3.org/2000/svg">
<path d="M24.3915 8.3844C25.979 8.3844 27.2704 7.09301 27.2704 5.50555C27.2704 3.91809 25.979 2.62671 24.3915 2.62671C22.8041 2.62671 21.5127 3.91809 21.5127 5.50555C21.5127 7.09301 22.8041 8.3844 24.3915 8.3844ZM24.3915 3.57162C25.4561 3.57162 26.3255 4.44095 26.3255 5.50555C26.3255 6.57016 25.4561 7.43948 24.3915 7.43948C23.3269 7.43948 22.4576 6.57016 22.4576 5.50555C22.4576 4.44095 23.3269 3.57162 24.3915 3.57162Z" fill="#2D3C58"/>
<path d="M3.67913 14.8791L2.8665 15.6918C2.68382 15.8744 2.68382 16.1768 2.8665 16.3595C2.961 16.454 3.08069 16.4981 3.20038 16.4981C3.32006 16.4981 3.43975 16.454 3.53425 16.3595L4.34687 15.5469C4.52956 15.3642 4.52956 15.0618 4.34687 14.8791C4.16419 14.6964 3.86182 14.6901 3.67913 14.8791Z" fill="#2D3C58"/>
<path d="M6.36859 14.8791L5.55596 15.6918C5.37327 15.8744 5.37327 16.1768 5.55596 16.3595C5.65045 16.454 5.77014 16.4981 5.88983 16.4981C6.00952 16.4981 6.12921 16.454 6.2237 16.3595L7.03633 15.5469C7.21901 15.3642 7.21901 15.0618 7.03633 14.8791C6.85364 14.6964 6.55757 14.6901 6.36859 14.8791Z" fill="#2D3C58"/>
<path d="M9.05901 14.8791L8.24639 15.6918C8.0637 15.8744 8.0637 16.1768 8.24639 16.3595C8.34088 16.454 8.46057 16.4981 8.58026 16.4981C8.69995 16.4981 8.81964 16.454 8.91413 16.3595L9.72676 15.5469C9.90944 15.3642 9.90944 15.0618 9.72676 14.8791C9.54407 14.6964 9.248 14.6901 9.05901 14.8791Z" fill="#2D3C58"/>
<path d="M11.7543 14.8791L10.9417 15.6918C10.759 15.8744 10.759 16.1768 10.9417 16.3595C11.0362 16.454 11.1559 16.4981 11.2756 16.4981C11.3953 16.4981 11.5149 16.454 11.6094 16.3595L12.4221 15.5469C12.6048 15.3642 12.6048 15.0618 12.4221 14.8791C12.2394 14.6964 11.937 14.6901 11.7543 14.8791Z" fill="#2D3C58"/>
<path d="M14.4448 14.8791L13.6321 15.6918C13.4494 15.8744 13.4494 16.1768 13.6321 16.3595C13.7266 16.454 13.8463 16.4981 13.966 16.4981C14.0857 16.4981 14.2054 16.454 14.2999 16.3595L15.1125 15.5469C15.2952 15.3642 15.2952 15.0618 15.1125 14.8791C14.9298 14.6964 14.6274 14.6901 14.4448 14.8791Z" fill="#2D3C58"/>
<path d="M17.1342 14.8791L16.3216 15.6918C16.1389 15.8744 16.1389 16.1768 16.3216 16.3595C16.4161 16.454 16.5358 16.4981 16.6555 16.4981C16.7751 16.4981 16.8948 16.454 16.9893 16.3595L17.802 15.5469C17.9846 15.3642 17.9846 15.0618 17.802 14.8791C17.6193 14.6964 17.3232 14.6901 17.1342 14.8791Z" fill="#2D3C58"/>
<path d="M3.67913 17.9469L2.8665 18.7595C2.68382 18.9422 2.68382 19.2446 2.8665 19.4273C2.961 19.5218 3.08069 19.5659 3.20038 19.5659C3.32006 19.5659 3.43975 19.5218 3.53425 19.4273L4.34687 18.6147C4.52956 18.432 4.52956 18.1296 4.34687 17.9469C4.15789 17.7579 3.86182 17.7579 3.67913 17.9469Z" fill="#2D3C58"/>
<path d="M6.36859 17.947L5.55596 18.7596C5.37327 18.9423 5.37327 19.2447 5.55596 19.4274C5.65045 19.5219 5.77014 19.566 5.88983 19.566C6.00952 19.566 6.12921 19.5219 6.2237 19.4274L7.03633 18.6147C7.21901 18.4321 7.21901 18.1297 7.03633 17.947C6.85364 17.7643 6.55127 17.758 6.36859 17.947Z" fill="#2D3C58"/>
<path d="M9.05901 17.9469L8.24639 18.7595C8.0637 18.9422 8.0637 19.2446 8.24639 19.4273C8.34088 19.5218 8.46057 19.5659 8.58026 19.5659C8.69995 19.5659 8.81964 19.5218 8.91413 19.4273L9.72676 18.6147C9.90944 18.432 9.90944 18.1296 9.72676 17.9469C9.54407 17.7579 9.248 17.7579 9.05901 17.9469Z" fill="#2D3C58"/>
<path d="M11.7543 17.9469L10.9417 18.7595C10.759 18.9422 10.759 19.2446 10.9417 19.4273C11.0362 19.5218 11.1559 19.5659 11.2756 19.5659C11.3953 19.5659 11.5149 19.5218 11.6094 19.4273L12.4221 18.6147C12.6048 18.432 12.6048 18.1296 12.4221 17.9469C12.2331 17.7579 11.937 17.7579 11.7543 17.9469Z" fill="#2D3C58"/>
<path d="M14.4448 17.947L13.6321 18.7596C13.4494 18.9423 13.4494 19.2447 13.6321 19.4274C13.7266 19.5219 13.8463 19.566 13.966 19.566C14.0857 19.566 14.2054 19.5219 14.2999 19.4274L15.1125 18.6147C15.2952 18.4321 15.2952 18.1297 15.1125 17.947C14.9298 17.7643 14.6274 17.758 14.4448 17.947Z" fill="#2D3C58"/>
<path d="M17.1342 17.9469L16.3216 18.7595C16.1389 18.9422 16.1389 19.2446 16.3216 19.4273C16.4161 19.5218 16.5358 19.5659 16.6555 19.5659C16.7751 19.5659 16.8948 19.5218 16.9893 19.4273L17.802 18.6147C17.9846 18.432 17.9846 18.1296 17.802 17.9469C17.6193 17.7579 17.3232 17.7579 17.1342 17.9469Z" fill="#2D3C58"/>
<path d="M3.67897 26.7979L2.86635 27.6105C2.67736 27.7932 2.67736 28.0956 2.86635 28.2783C2.96084 28.3728 3.08053 28.4169 3.20022 28.4169C3.31991 28.4169 3.4396 28.3728 3.53409 28.2783L4.34671 27.4656C4.5294 27.283 4.5294 26.9806 4.34671 26.7979C4.16403 26.6152 3.86166 26.6152 3.67897 26.7979Z" fill="#2D3C58"/>
<path d="M6.36859 26.7979L5.55596 27.6105C5.37327 27.7932 5.37327 28.0956 5.55596 28.2783C5.65045 28.3728 5.77014 28.4169 5.88983 28.4169C6.00952 28.4169 6.12921 28.3728 6.2237 28.2783L7.03633 27.4656C7.21901 27.283 7.21901 26.9806 7.03633 26.7979C6.85364 26.6152 6.55757 26.6152 6.36859 26.7979Z" fill="#2D3C58"/>
<path d="M9.05901 26.7979L8.24639 27.6105C8.0637 27.7932 8.0637 28.0956 8.24639 28.2783C8.34088 28.3728 8.46057 28.4169 8.58026 28.4169C8.69995 28.4169 8.81964 28.3728 8.91413 28.2783L9.72676 27.4656C9.90944 27.283 9.90944 26.9806 9.72676 26.7979C9.54407 26.6152 9.248 26.6152 9.05901 26.7979Z" fill="#2D3C58"/>
<path d="M11.7543 26.7979L10.9417 27.6105C10.759 27.7932 10.759 28.0956 10.9417 28.2783C11.0362 28.3728 11.1559 28.4169 11.2756 28.4169C11.3953 28.4169 11.5149 28.3728 11.6094 28.2783L12.4221 27.4656C12.6048 27.283 12.6048 26.9806 12.4221 26.7979C12.2394 26.6152 11.937 26.6152 11.7543 26.7979Z" fill="#2D3C58"/>
<path d="M14.4448 26.7979L13.6321 27.6105C13.4494 27.7932 13.4494 28.0956 13.6321 28.2783C13.7266 28.3728 13.8463 28.4169 13.966 28.4169C14.0857 28.4169 14.2054 28.3728 14.2999 28.2783L15.1125 27.4656C15.2952 27.283 15.2952 26.9806 15.1125 26.7979C14.9298 26.6152 14.6274 26.6152 14.4448 26.7979Z" fill="#2D3C58"/>
<path d="M17.1342 26.7979L16.3216 27.6105C16.1389 27.7932 16.1389 28.0956 16.3216 28.2783C16.4161 28.3728 16.5358 28.4169 16.6555 28.4169C16.7751 28.4169 16.8948 28.3728 16.9893 28.2783L17.802 27.4656C17.9846 27.283 17.9846 26.9806 17.802 26.7979C17.6193 26.6152 17.3232 26.6152 17.1342 26.7979Z" fill="#2D3C58"/>
<path d="M3.67913 29.8655L2.8665 30.6782C2.68382 30.8608 2.68382 31.1632 2.8665 31.3459C2.961 31.4404 3.08069 31.4845 3.20038 31.4845C3.32006 31.4845 3.43975 31.4404 3.53425 31.3459L4.34687 30.5333C4.52956 30.3506 4.52956 30.0482 4.34687 29.8655C4.16419 29.6828 3.86182 29.6828 3.67913 29.8655Z" fill="#2D3C58"/>
<path d="M6.36859 29.8655L5.55596 30.6782C5.37327 30.8608 5.37327 31.1632 5.55596 31.3459C5.65045 31.4404 5.77014 31.4845 5.88983 31.4845C6.00952 31.4845 6.12921 31.4404 6.2237 31.3459L7.03633 30.5333C7.21901 30.3506 7.21901 30.0482 7.03633 29.8655C6.85364 29.6828 6.55757 29.6828 6.36859 29.8655Z" fill="#2D3C58"/>
<path d="M9.05901 29.8655L8.24639 30.6782C8.0637 30.8608 8.0637 31.1632 8.24639 31.3459C8.34088 31.4404 8.46057 31.4845 8.58026 31.4845C8.69995 31.4845 8.81964 31.4404 8.91413 31.3459L9.72676 30.5333C9.90944 30.3506 9.90944 30.0482 9.72676 29.8655C9.54407 29.6828 9.248 29.6828 9.05901 29.8655Z" fill="#2D3C58"/>
<path d="M11.7543 29.8655L10.9417 30.6782C10.759 30.8608 10.759 31.1632 10.9417 31.3459C11.0362 31.4404 11.1559 31.4845 11.2756 31.4845C11.3953 31.4845 11.5149 31.4404 11.6094 31.3459L12.4221 30.5333C12.6048 30.3506 12.6048 30.0482 12.4221 29.8655C12.2394 29.6828 11.937 29.6828 11.7543 29.8655Z" fill="#2D3C58"/>
<path d="M14.4448 29.8655L13.6321 30.6782C13.4494 30.8608 13.4494 31.1632 13.6321 31.3459C13.7266 31.4404 13.8463 31.4845 13.966 31.4845C14.0857 31.4845 14.2054 31.4404 14.2999 31.3459L15.1125 30.5333C15.2952 30.3506 15.2952 30.0482 15.1125 29.8655C14.9298 29.6828 14.6274 29.6828 14.4448 29.8655Z" fill="#2D3C58"/>
<path d="M17.1342 29.8655L16.3216 30.6782C16.1389 30.8608 16.1389 31.1632 16.3216 31.3459C16.4161 31.4404 16.5358 31.4845 16.6555 31.4845C16.7751 31.4845 16.8948 31.4404 16.9893 31.3459L17.802 30.5333C17.9846 30.3506 17.9846 30.0482 17.802 29.8655C17.6193 29.6828 17.3232 29.6828 17.1342 29.8655Z" fill="#2D3C58"/>
<path d="M3.20038 4.5797C3.32006 4.5797 3.43975 4.5356 3.53425 4.44111L4.34687 3.62848C4.52956 3.4458 4.52956 3.14343 4.34687 2.96074C4.16419 2.77806 3.86182 2.77806 3.67913 2.96074L2.8665 3.77337C2.68382 3.95605 2.68382 4.25843 2.8665 4.44111C2.9547 4.5293 3.07439 4.5797 3.20038 4.5797Z" fill="#2D3C58"/>
<path d="M5.88983 4.5797C6.00952 4.5797 6.12921 4.5356 6.2237 4.44111L7.03633 3.62848C7.21901 3.4458 7.21901 3.14343 7.03633 2.96074C6.85364 2.77806 6.55127 2.77806 6.36859 2.96074L5.55596 3.77337C5.37327 3.95605 5.37327 4.25843 5.55596 4.44111C5.64415 4.5293 5.77014 4.5797 5.88983 4.5797Z" fill="#2D3C58"/>
<path d="M8.58026 4.5797C8.69995 4.5797 8.81964 4.5356 8.91413 4.44111L9.72676 3.62848C9.90944 3.4458 9.90944 3.14343 9.72676 2.96074C9.54407 2.77806 9.2417 2.77806 9.05901 2.96074L8.24639 3.77337C8.0637 3.95605 8.0637 4.25843 8.24639 4.44111C8.34088 4.5293 8.46057 4.5797 8.58026 4.5797Z" fill="#2D3C58"/>
<path d="M11.2756 4.5797C11.3953 4.5797 11.5149 4.5356 11.6094 4.44111L12.4221 3.62848C12.6048 3.4458 12.6048 3.14343 12.4221 2.96074C12.2394 2.77806 11.937 2.77806 11.7543 2.96074L10.9417 3.77337C10.759 3.95605 10.759 4.25843 10.9417 4.44111C11.0299 4.5293 11.1496 4.5797 11.2756 4.5797Z" fill="#2D3C58"/>
<path d="M13.966 4.5797C14.0857 4.5797 14.2054 4.5356 14.2999 4.44111L15.1125 3.62848C15.2952 3.4458 15.2952 3.14343 15.1125 2.96074C14.9298 2.77806 14.6274 2.77806 14.4448 2.96074L13.6321 3.77337C13.4494 3.95605 13.4494 4.25843 13.6321 4.44111C13.7203 4.5293 13.8463 4.5797 13.966 4.5797Z" fill="#2D3C58"/>
<path d="M16.6555 4.5797C16.7751 4.5797 16.8948 4.5356 16.9893 4.44111L17.802 3.62848C17.9846 3.4458 17.9846 3.14343 17.802 2.96074C17.6193 2.77806 17.3169 2.77806 17.1342 2.96074L16.3216 3.77337C16.1389 3.95605 16.1389 4.25843 16.3216 4.44111C16.4161 4.5293 16.5358 4.5797 16.6555 4.5797Z" fill="#2D3C58"/>
<path d="M4.34687 6.02227C4.16419 5.83958 3.86182 5.83958 3.67913 6.02227L2.8665 6.84119C2.68382 7.02388 2.68382 7.32625 2.8665 7.50893C2.961 7.60343 3.08069 7.64752 3.20038 7.64752C3.32006 7.64752 3.43975 7.60343 3.53425 7.50893L4.34687 6.69631C4.52956 6.50732 4.52956 6.21125 4.34687 6.02227Z" fill="#2D3C58"/>
<path d="M5.88983 7.64757C6.00952 7.64757 6.12921 7.60347 6.2237 7.50898L7.03633 6.69636C7.21901 6.51367 7.21901 6.2113 7.03633 6.02861C6.85364 5.84593 6.55127 5.84593 6.36859 6.02861L5.55596 6.84124C5.37327 7.02393 5.37327 7.3263 5.55596 7.50898C5.64415 7.59717 5.77014 7.64757 5.88983 7.64757Z" fill="#2D3C58"/>
<path d="M8.58026 7.64757C8.69995 7.64757 8.81964 7.60347 8.91413 7.50898L9.72676 6.69636C9.90944 6.51367 9.90944 6.2113 9.72676 6.02861C9.54407 5.84593 9.2417 5.84593 9.05901 6.02861L8.24639 6.84124C8.0637 7.02393 8.0637 7.3263 8.24639 7.50898C8.34088 7.59717 8.46057 7.64757 8.58026 7.64757Z" fill="#2D3C58"/>
<path d="M11.2756 7.64757C11.3953 7.64757 11.5149 7.60347 11.6094 7.50898L12.4221 6.69636C12.6048 6.51367 12.6048 6.2113 12.4221 6.02861C12.2394 5.84593 11.937 5.84593 11.7543 6.02861L10.9417 6.84124C10.759 7.02393 10.759 7.3263 10.9417 7.50898C11.0299 7.59717 11.1496 7.64757 11.2756 7.64757Z" fill="#2D3C58"/>
<path d="M13.966 7.64757C14.0857 7.64757 14.2054 7.60347 14.2999 7.50898L15.1125 6.69636C15.2952 6.51367 15.2952 6.2113 15.1125 6.02861C14.9298 5.84593 14.6274 5.84593 14.4448 6.02861L13.6321 6.84124C13.4494 7.02393 13.4494 7.3263 13.6321 7.50898C13.7203 7.59717 13.8463 7.64757 13.966 7.64757Z" fill="#2D3C58"/>
<path d="M16.6555 7.64757C16.7751 7.64757 16.8948 7.60347 16.9893 7.50898L17.802 6.69636C17.9846 6.51367 17.9846 6.2113 17.802 6.02861C17.6193 5.84593 17.3169 5.84593 17.1342 6.02861L16.3216 6.84124C16.1389 7.02393 16.1389 7.3263 16.3216 7.50898C16.4161 7.59717 16.5358 7.64757 16.6555 7.64757Z" fill="#2D3C58"/>
<path d="M24.3915 20.3031C25.979 20.3031 27.2704 19.0117 27.2704 17.4243C27.2704 15.8368 25.979 14.5454 24.3915 14.5454C22.8041 14.5454 21.5127 15.8368 21.5127 17.4243C21.5127 19.0117 22.8041 20.3031 24.3915 20.3031ZM24.3915 15.4903C25.4561 15.4903 26.3255 16.3596 26.3255 17.4243C26.3255 18.4889 25.4561 19.3582 24.3915 19.3582C23.3269 19.3582 22.4576 18.4889 22.4576 17.4243C22.4576 16.3596 23.3269 15.4903 24.3915 15.4903Z" fill="#2D3C58"/>
<path d="M37.1919 22.9867C37.1793 22.9741 37.173 22.9615 37.1604 22.9552C35.4595 20.9582 33.0532 19.7424 30.4578 19.5283V13.4808C30.4578 12.6241 29.7586 11.9248 28.8955 11.9248H27.2955V10.4697H28.8955C29.7586 10.4697 30.4578 9.77043 30.4578 8.90741V1.56226C30.4578 0.699238 29.7586 0 28.8955 0H1.56226C0.699238 0 0 0.699238 0 1.56226V8.90111C0 9.76413 0.699238 10.4634 1.56226 10.4634H3.16232V11.9185H1.56226C0.699238 11.9185 0 12.6178 0 13.4745V20.8196C0 21.6827 0.699238 22.3819 1.56226 22.3819H3.16232V23.8434H1.56226C0.699238 23.8434 0 24.5426 0 25.4056V32.7445C0 33.6075 0.699238 34.313 1.56226 34.313H21.1409C22.1488 36.0391 23.667 37.4565 25.5505 38.3195C25.9033 38.4833 26.2813 38.6345 26.6655 38.7542C27.6293 39.0565 28.631 39.214 29.6515 39.214C30.7602 39.214 31.8437 39.0313 32.8768 38.6723H32.8831C33.3933 38.4959 33.9036 38.2691 34.3949 38.0045C34.4075 37.9982 34.4264 37.9856 34.439 37.9793C37.5636 36.2344 39.5101 32.9398 39.5101 29.3617C39.5101 27.4845 38.9809 25.6576 37.9793 24.0828C37.7525 23.6985 37.4817 23.3331 37.1919 22.9867ZM33.7839 37.2423C33.5319 37.3746 33.2736 37.4943 33.0091 37.5951L28.8577 25.9915H30.7161L33.1351 33.9666C33.198 34.1682 33.3807 34.3005 33.5886 34.3005H33.5949C33.8028 34.3005 33.9855 34.1619 34.0422 33.9603L35.7304 28.0766C35.7682 27.938 35.743 27.7868 35.6611 27.6671C35.2832 27.1443 34.3634 25.5757 34.6532 24.6245C34.7981 24.1521 35.0942 23.7993 35.4973 23.6355C35.8312 23.4969 36.2029 23.5158 36.5368 23.667C36.7572 23.9316 36.9588 24.2087 37.1415 24.4922C37.425 25.8529 36.6438 28.127 36.6312 28.1648L33.7839 37.2423ZM26.5143 37.677C26.3884 37.6266 26.2561 37.5825 26.1301 37.5258L22.2496 25.3048H23.9064L27.2703 35.3399L26.5143 37.677ZM27.749 33.7902L24.908 25.3048H25.1411C25.3993 25.3048 25.6135 25.0907 25.6135 24.8324C25.6135 24.5741 25.3993 24.3599 25.1411 24.3599H24.2528H22.2622C23.9127 21.9158 26.6718 20.4291 29.6515 20.4291C31.8374 20.4291 33.9162 21.2354 35.5288 22.6591C35.3966 22.6843 35.2643 22.7221 35.132 22.7725C34.4642 23.0434 33.9729 23.6103 33.7461 24.3599C33.3303 25.7143 34.3634 27.4404 34.7603 28.0388L33.576 32.1649L31.7051 25.9915H31.9256C32.1838 25.9915 32.398 25.7773 32.398 25.519C32.398 25.2608 32.1838 25.0466 31.9256 25.0466H27.4026C27.1443 25.0466 26.9301 25.2608 26.9301 25.519C26.9301 25.7773 27.1443 25.9915 27.4026 25.9915H27.8624L29.0908 29.4247L27.749 33.7902ZM0.944916 8.90111V1.56226C0.944916 1.22209 1.22209 0.944916 1.56226 0.944916H28.9018C29.242 0.944916 29.5192 1.22209 29.5192 1.56226V8.90111C29.5192 9.24128 29.242 9.51845 28.9018 9.51845H1.56226C1.22209 9.51845 0.944916 9.24128 0.944916 8.90111ZM4.10094 10.4634H26.3506V11.9185H4.10094V10.4634ZM0.944916 20.8259V13.4808C0.944916 13.1406 1.22209 12.8698 1.56226 12.8698H3.62218H3.62848H3.63478H26.8167H26.823H26.8293H28.8955C29.2357 12.8698 29.5129 13.1469 29.5129 13.4808V19.4905C27.4026 19.522 25.4056 20.2212 23.7678 21.4433H1.56226C1.22209 21.437 0.944916 21.1598 0.944916 20.8259ZM4.10094 22.3819H22.6654C22.2244 22.8229 21.8213 23.3142 21.4622 23.8434H4.10094V22.3819ZM1.56226 33.3618C1.22209 33.3618 0.944916 33.0847 0.944916 32.7382V25.4056C0.944916 25.0655 1.22209 24.7883 1.56226 24.7883H20.9078C20.1771 26.1868 19.7928 27.7553 19.7928 29.3428C19.7928 30.7539 20.1015 32.1145 20.6559 33.3618H1.56226ZM20.7315 29.3428C20.7315 28.1459 20.9834 26.9679 21.4433 25.8781L24.9458 36.9147C22.3567 35.3021 20.7315 32.4421 20.7315 29.3428ZM27.4089 37.973L28.2152 35.4847V35.4784L29.6074 30.924L32.1082 37.91C30.5901 38.3447 28.9459 38.3636 27.4089 37.973ZM35.0186 36.4612L37.5258 28.4672C37.551 28.4042 37.8785 27.4404 38.0486 26.3317C38.3951 27.2892 38.5715 28.3034 38.5715 29.3428C38.5715 32.1649 37.236 34.7918 35.0186 36.4612Z" fill="#2D3C58"/>
<path d="M39.9577 22.2936C38.6285 19.3454 36.1087 18.0099 34.2378 17.4115C33.9858 17.3296 33.7212 17.4682 33.6456 17.7202C33.5637 17.9658 33.7023 18.2367 33.9543 18.3123C35.6488 18.8541 37.9166 20.051 39.1009 22.6841C39.1828 22.8605 39.3529 22.9613 39.5293 22.9613C39.5923 22.9613 39.6616 22.9487 39.7246 22.9172C39.964 22.8101 40.0647 22.5329 39.9577 22.2936Z" fill="#2D3C58"/>
<path d="M32.0138 17.8965C32.0264 17.8965 32.2217 17.9154 32.5493 17.9658C32.5745 17.9721 32.5997 17.9721 32.6311 17.9721C32.8579 17.9721 33.0595 17.8083 33.0973 17.5752C33.1414 17.317 32.965 17.0713 32.7067 17.0335C32.3099 16.9642 32.0768 16.9516 32.0768 16.9516C31.8185 16.9264 31.5917 17.128 31.5728 17.3926C31.5602 17.6508 31.7555 17.8776 32.0138 17.8965Z" fill="#2D3C58"/>
</svg>
