<svg width="82" height="24" viewBox="0 0 82 24" fill="none" xmlns="http://www.w3.org/2000/svg">
<g clip-path="url(#clip0_758_23445)">
<path d="M12.2977 0C5.50637 0 0 5.3737 0 12.0013C0 18.629 5.50637 24.0027 12.2977 24.0027C19.0889 24.0027 24.5953 18.629 24.5953 12.0013C24.5926 5.3737 19.0889 0 12.2977 0ZM17.9364 17.3078C17.7158 17.6603 17.2443 17.7733 16.8831 17.5553C13.9962 15.8332 10.362 15.443 6.0799 16.3983C5.6663 16.4897 5.25546 16.2395 5.16171 15.8359C5.06796 15.4322 5.32439 15.0313 5.73799 14.9398C10.4227 13.8957 14.4401 14.3478 17.6827 16.2799C18.0439 16.4951 18.157 16.9553 17.9364 17.3078ZM19.4419 14.041C19.1634 14.4823 18.5733 14.6196 18.1239 14.3478C14.8206 12.3646 9.78022 11.7915 5.87034 12.9485C5.36299 13.0992 4.82807 12.8194 4.67366 12.3243C4.52201 11.8291 4.80601 11.3071 5.31336 11.1564C9.78022 9.83518 15.3307 10.4756 19.1275 12.7521C19.577 13.0266 19.7176 13.6024 19.4419 14.041ZM19.5715 10.6371C15.6064 8.34174 9.06883 8.12916 5.28579 9.25126C4.67918 9.43155 4.03672 9.09519 3.85198 8.5032C3.66724 7.9112 4.0119 7.28423 4.61851 7.10394C8.9613 5.81769 16.1827 6.06525 20.7461 8.71039C21.292 9.02792 21.4713 9.71679 21.1487 10.2496C20.8233 10.7797 20.1147 10.9546 19.5715 10.6371ZM33.4546 11.0784C31.3315 10.5833 30.9537 10.2361 30.9537 9.50959C30.9537 8.82072 31.6182 8.35789 32.6053 8.35789C33.5621 8.35789 34.5134 8.71039 35.506 9.43424C35.5364 9.45577 35.575 9.46384 35.6108 9.45846C35.6467 9.45308 35.6797 9.43424 35.7018 9.40195L36.7386 7.97578C36.7799 7.91658 36.7689 7.83586 36.711 7.79011C35.5253 6.86176 34.1936 6.41238 32.6329 6.41238C30.3416 6.41238 28.7396 7.75513 28.7396 9.67642C28.7396 11.7376 30.121 12.4669 32.5088 13.0293C34.541 13.4867 34.8829 13.8688 34.8829 14.5523C34.8829 15.3111 34.1908 15.782 33.0741 15.782C31.836 15.782 30.8241 15.3757 29.6936 14.4178C29.666 14.3935 29.6274 14.3828 29.5916 14.3855C29.553 14.3882 29.5199 14.4043 29.4951 14.4339L28.3315 15.7847C28.2819 15.8412 28.2901 15.9247 28.3453 15.9731C29.6605 17.1194 31.2791 17.7249 33.0244 17.7249C35.495 17.7249 37.0915 16.4063 37.0915 14.3693C37.097 12.6472 36.041 11.6946 33.4546 11.0811V11.0784ZM42.6861 9.03599C41.6163 9.03599 40.7367 9.4477 40.0143 10.2899V9.34006C40.0143 9.26472 39.9508 9.20283 39.8764 9.20283H37.9766C37.8994 9.20283 37.8387 9.26472 37.8387 9.34006V19.8883C37.8387 19.9637 37.9021 20.0256 37.9766 20.0256H39.8764C39.9536 20.0256 40.0143 19.9637 40.0143 19.8883V16.5597C40.7394 17.3535 41.6163 17.741 42.6861 17.741C44.6769 17.741 46.6897 16.2476 46.6897 13.3898C46.6925 10.5294 44.6769 9.03599 42.6861 9.03599ZM44.4784 13.3872C44.4784 14.8429 43.5602 15.8574 42.2449 15.8574C40.9462 15.8574 39.9646 14.7972 39.9646 13.3872C39.9646 11.9798 40.9462 10.9169 42.2449 10.9169C43.5381 10.9169 44.4784 11.9556 44.4784 13.3872ZM51.8514 9.03599C49.2899 9.03599 47.2826 10.9627 47.2826 13.4194C47.2826 15.852 49.2761 17.7572 51.8211 17.7572C54.3937 17.7572 56.4065 15.8385 56.4065 13.3898C56.4038 10.9465 54.4047 9.03599 51.8514 9.03599ZM51.8514 15.8735C50.4893 15.8735 49.4608 14.8052 49.4608 13.3872C49.4608 11.9637 50.4535 10.9331 51.8184 10.9331C53.1887 10.9331 54.2255 12.0013 54.2255 13.4194C54.2255 14.8402 53.2273 15.8735 51.8514 15.8735ZM61.8771 9.20552H59.7843V7.11739C59.7843 7.04205 59.7236 6.98285 59.6464 6.98285H57.7466C57.6694 6.98285 57.606 7.04474 57.606 7.11739V9.20552H56.6905C56.6133 9.20552 56.5527 9.26741 56.5527 9.34275V10.9384C56.5527 11.0138 56.6133 11.0757 56.6905 11.0757H57.606V15.2008C57.606 16.8692 58.4552 17.7141 60.1344 17.7141C60.8155 17.7141 61.3835 17.5769 61.9157 17.2809C61.9598 17.2566 61.9846 17.2109 61.9846 17.1625V15.6448C61.9846 15.5991 61.9598 15.5533 61.9184 15.5291C61.8771 15.5049 61.8247 15.5022 61.7833 15.5237C61.4166 15.704 61.0637 15.7874 60.6666 15.7874C60.0572 15.7874 59.7843 15.5183 59.7843 14.9102V11.073H61.8771C61.9543 11.073 62.0149 11.0111 62.0149 10.9358V9.34006C62.0177 9.26741 61.957 9.20552 61.8771 9.20552ZM69.1647 9.21359V8.95796C69.1647 8.20451 69.4597 7.86815 70.1242 7.86815C70.5213 7.86815 70.8384 7.94618 71.1941 8.06189C71.2382 8.07535 71.285 8.06996 71.3181 8.04305C71.354 8.01615 71.376 7.97578 71.376 7.93273V6.36932C71.376 6.31012 71.3374 6.25631 71.2768 6.24016C70.899 6.12984 70.4192 6.01951 69.6968 6.01951C67.9404 6.01951 67.014 6.98554 67.014 8.80996V9.20283H66.1013C66.0241 9.20283 65.9607 9.26472 65.9607 9.33737V10.9411C65.9607 11.0165 66.0241 11.0784 66.1013 11.0784H67.014V17.4423C67.014 17.5177 67.0746 17.5795 67.1518 17.5795H69.0516C69.1288 17.5795 69.1922 17.5177 69.1922 17.4423V11.0703H70.968L73.6867 17.4316C73.3779 18.0989 73.0745 18.2334 72.6609 18.2334C72.3273 18.2334 71.9744 18.1366 71.6132 17.9428C71.5801 17.924 71.5387 17.9213 71.5029 17.9321C71.467 17.9455 71.4367 17.9697 71.4202 18.0047L70.7749 19.3851C70.7446 19.4497 70.7694 19.5278 70.8356 19.56C71.5084 19.9152 72.115 20.0686 72.865 20.0686C74.2685 20.0686 75.046 19.4309 75.7299 17.7141L79.0276 9.39657C79.0442 9.35352 79.0386 9.30777 79.0138 9.2701C78.989 9.23243 78.9449 9.2109 78.9008 9.2109H76.921C76.8604 9.2109 76.808 9.24857 76.7887 9.30239L74.762 14.9532L72.5424 9.29701C72.5231 9.24319 72.4707 9.2109 72.4128 9.2109L69.1647 9.21359ZM64.9404 9.20552H63.0407C62.9635 9.20552 62.9 9.26741 62.9 9.34275V17.4369C62.9 17.5123 62.9635 17.5742 63.0407 17.5742H64.9404C65.0177 17.5742 65.0811 17.5123 65.0811 17.4369V9.34006C65.0811 9.30508 65.0673 9.2701 65.0397 9.24319C65.0121 9.21897 64.9763 9.20552 64.9404 9.20552ZM64.0002 5.519C63.2475 5.519 62.6353 6.11369 62.6353 6.8483C62.6353 7.58291 63.2475 8.18029 64.0002 8.18029C64.753 8.18029 65.3623 7.5856 65.3623 6.8483C65.3623 6.11369 64.753 5.519 64.0002 5.519ZM80.6544 11.8076C79.9017 11.8076 79.3171 11.2183 79.3171 10.5025C79.3171 9.78675 79.91 9.18937 80.6627 9.18937C81.4154 9.18937 82 9.77868 82 10.4945C82 11.2102 81.4044 11.8076 80.6544 11.8076ZM80.6627 9.31853C79.9761 9.31853 79.4577 9.85133 79.4577 10.5025C79.4577 11.1537 79.9734 11.6784 80.6544 11.6784C81.3382 11.6784 81.8594 11.1483 81.8594 10.4945C81.8594 9.84326 81.3438 9.31853 80.6627 9.31853ZM80.9577 10.629L81.3355 11.1456H81.0156L80.6737 10.672H80.3815V11.1456H80.114V9.77598H80.7399C81.0653 9.77598 81.2803 9.94013 81.2803 10.2119C81.2859 10.4379 81.1507 10.5752 80.9577 10.629ZM80.7316 10.0101H80.3842V10.4433H80.7316C80.9053 10.4433 81.0101 10.3599 81.0101 10.2254C81.0101 10.0854 80.9053 10.0101 80.7316 10.0101Z" fill="#0774FF"/>
</g>
<defs>
<clipPath id="clip0_758_23445">
<rect width="82" height="24" fill="white"/>
</clipPath>
</defs>
</svg>
