<svg width="77" height="24" viewBox="0 0 77 24" fill="none" xmlns="http://www.w3.org/2000/svg">
<g clip-path="url(#clip0_758_23448)">
<mask id="mask0_758_23448" style="mask-type:luminance" maskUnits="userSpaceOnUse" x="0" y="0" width="77" height="24">
<path d="M77 0H0V24H77V0Z" fill="white"/>
</mask>
<g mask="url(#mask0_758_23448)">
<path d="M40.5717 6.03077C40.5717 6.89641 39.8735 7.59385 39.007 7.59385C38.1404 7.59385 37.4423 6.89641 37.4423 6.03077C37.4423 5.16513 38.1158 4.46769 39.007 4.46769C39.8982 4.49231 40.5717 5.18974 40.5717 6.03077ZM34.128 9.17743V9.56308C34.128 9.56308 33.3847 8.60308 31.7953 8.60308C29.1751 8.60308 27.1299 10.5969 27.1299 13.3579C27.1299 16.0985 29.1505 18.1128 31.7953 18.1128C33.4052 18.1128 34.128 17.1282 34.128 17.1282V17.5385C34.128 17.7313 34.2718 17.8749 34.4648 17.8749H36.4114V8.84103H34.4648C34.2718 8.84103 34.128 9.00923 34.128 9.17743ZM34.128 14.9662C33.7666 15.4954 33.0479 15.9508 32.1813 15.9508C30.6413 15.9508 29.4626 14.9908 29.4626 13.3538C29.4626 11.721 30.6413 10.761 32.1813 10.761C33.0233 10.761 33.7912 11.241 34.128 11.7456V14.9662ZM37.853 8.84103H40.161V17.8749H37.853V8.84103ZM72.3385 8.59897C70.7532 8.59897 70.0058 9.55897 70.0058 9.55897V4.49231H67.6977V17.8749H69.6444C69.8374 17.8749 69.9811 17.7067 69.9811 17.5385V17.1323C69.9811 17.1323 70.7286 18.1169 72.3138 18.1169C74.934 18.1169 76.9793 16.0985 76.9793 13.3621C76.9793 10.6174 74.9381 8.59897 72.3385 8.59897ZM71.9565 15.9262C71.0653 15.9262 70.3713 15.4708 70.0099 14.9415V11.721C70.3713 11.241 71.1393 10.7364 71.9565 10.7364C73.4966 10.7364 74.6753 11.6964 74.6753 13.3292C74.6712 14.9662 73.4966 15.9262 71.9565 15.9262ZM66.4944 12.5169V17.8995H64.1863V12.7795C64.1863 11.2903 63.7058 10.6913 62.408 10.6913C61.7099 10.6913 60.9911 11.0523 60.5312 11.5815V17.8749H58.2231V8.84103H60.0507C60.2437 8.84103 60.3874 9.00923 60.3874 9.17743V9.56308C61.061 8.86564 61.9522 8.60308 62.8392 8.60308C63.8495 8.60308 64.6915 8.89026 65.365 9.46872C66.1823 10.1374 66.4944 11.0031 66.4944 12.5169ZM52.6213 8.59897C51.0361 8.59897 50.2886 9.55897 50.2886 9.55897V4.49231H47.9805V17.8749H49.9272C50.1202 17.8749 50.264 17.7067 50.264 17.5385V17.1323C50.264 17.1323 51.0114 18.1169 52.5967 18.1169C55.2169 18.1169 57.2621 16.0985 57.2621 13.3621C57.2867 10.6174 55.2415 8.59897 52.6213 8.59897ZM52.2353 15.9262C51.3441 15.9262 50.65 15.4708 50.2886 14.9415V11.721C50.65 11.241 51.418 10.7364 52.2353 10.7364C53.7753 10.7364 54.954 11.6964 54.954 13.3292C54.954 14.9662 53.7753 15.9262 52.2353 15.9262ZM45.9805 8.59897C46.6786 8.59897 47.0401 8.71795 47.0401 8.71795V10.8554C47.0401 10.8554 45.118 10.2072 43.9147 11.5774V17.8954H41.6066V8.84103H43.5533C43.7463 8.84103 43.8901 9.00923 43.8901 9.17743V9.56308C44.3213 9.05846 45.2618 8.59897 45.9805 8.59897ZM22.0045 17.0585C21.8854 16.7713 21.7622 16.4595 21.6431 16.1928C21.4501 15.7621 21.257 15.3518 21.0886 14.9662L21.064 14.9415C19.4048 11.3395 17.6265 7.6882 15.7497 4.08205L15.6758 3.93846C15.4786 3.56513 15.2856 3.18769 15.1008 2.81026C14.8585 2.37949 14.6203 1.92 14.2343 1.48923C13.4704 0.529231 12.3615 0 11.1828 0C9.97952 0 8.89941 0.529231 8.10678 1.44C7.74538 1.87077 7.48254 2.33026 7.24023 2.76103C7.05131 3.13846 6.8624 3.5159 6.66527 3.88923L6.59134 4.03282C4.73914 7.63487 2.93621 11.2862 1.27703 14.8923L1.25239 14.9415C1.08401 15.3272 0.890984 15.7333 0.69796 16.1682C0.57886 16.4308 0.459761 16.7221 0.336554 17.0338C0.0244308 17.9241 -0.0741345 18.7651 0.0490721 19.6308C0.311913 21.4318 1.51523 22.9456 3.17441 23.6185C3.79866 23.881 4.44755 24.0041 5.12108 24.0041C5.3141 24.0041 5.5523 23.9795 5.74532 23.9549C6.53795 23.8605 7.35522 23.5938 8.15196 23.1385C9.13761 22.5846 10.074 21.7928 11.1336 20.64C12.1931 21.7928 13.1541 22.5846 14.1152 23.1385C14.9078 23.5938 15.7251 23.8605 16.5218 23.9549C16.7148 23.9795 16.9571 24.0041 17.146 24.0041C17.8196 24.0041 18.4931 23.8851 19.0927 23.6185C20.7765 22.9456 21.9552 21.4072 22.218 19.6308C22.4152 18.7856 22.3166 17.9446 22.0045 17.0585ZM11.1582 18.3056C9.86042 16.6728 9.01851 15.1344 8.73103 13.8379C8.61193 13.2841 8.58729 12.8041 8.6571 12.3733C8.70639 11.9877 8.85013 11.6513 9.04315 11.3641C9.49902 10.7159 10.2711 10.3056 11.1582 10.3056C12.0494 10.3056 12.842 10.6913 13.2732 11.3641C13.4663 11.6513 13.61 11.9877 13.6593 12.3733C13.7332 12.8041 13.7086 13.3087 13.5854 13.8379C13.302 15.1097 12.4601 16.6482 11.1582 18.3056ZM20.756 19.4338C20.5876 20.681 19.7457 21.7641 18.567 22.2441C17.9879 22.482 17.3637 22.5559 16.7395 22.482C16.1399 22.4082 15.5361 22.2195 14.9119 21.8585C14.0453 21.3785 13.1788 20.6318 12.1685 19.5282C13.7537 17.5836 14.7189 15.8031 15.0803 14.2195C15.2487 13.4728 15.2733 12.8 15.1994 12.1764C15.1049 11.5774 14.8872 11.0236 14.5505 10.5436C13.803 9.46051 12.5545 8.83692 11.1582 8.83692C9.76186 8.83692 8.51336 9.48513 7.76591 10.5436C7.42915 11.0236 7.21148 11.5774 7.11702 12.1764C7.02256 12.8 7.0431 13.4974 7.23612 14.2195C7.59753 15.8031 8.58318 17.6082 10.1438 19.5528C9.15814 20.6564 8.26695 21.4031 7.4004 21.8831C6.77615 22.2441 6.17244 22.4369 5.57283 22.5067C4.92394 22.5805 4.2997 22.482 3.74527 22.2687C2.56659 21.7887 1.72468 20.7056 1.5563 19.4585C1.48238 18.8595 1.53166 18.2564 1.77396 17.5836C1.84378 17.3415 1.96699 17.1036 2.08609 16.8164C2.25447 16.4308 2.44749 16.0246 2.64052 15.6144L2.66516 15.5651C4.32434 11.9836 6.10262 8.33231 7.95483 4.77949L8.02875 4.6359C8.22177 4.27487 8.4148 3.89333 8.60782 3.53231C8.80085 3.14667 9.01851 2.78564 9.28135 2.47385C9.7865 1.89949 10.46 1.58359 11.2034 1.58359C11.9508 1.58359 12.6202 1.89538 13.1254 2.47385C13.3882 2.78564 13.6059 3.14667 13.7989 3.53231C13.9919 3.89333 14.185 4.27897 14.378 4.6359L14.4519 4.77949C16.2754 8.34872 18.0331 11.9549 19.7169 15.5897V15.6144C19.91 16 20.0784 16.4308 20.2714 16.8164C20.3905 17.1036 20.5137 17.3456 20.5835 17.5836C20.7806 18.2113 20.8504 18.8103 20.756 19.4338Z" fill="#0774FF"/>
</g>
</g>
<defs>
<clipPath id="clip0_758_23448">
<rect width="77" height="24" fill="white"/>
</clipPath>
</defs>
</svg>
