<svg width="57" height="24" viewBox="0 0 57 24" fill="none" xmlns="http://www.w3.org/2000/svg">
<path fill-rule="evenodd" clip-rule="evenodd" d="M57 12.4005C57 8.29906 55.0367 5.06274 51.2842 5.06274C47.5158 5.06274 45.2358 8.29906 45.2358 12.3685C45.2358 17.1909 47.9275 19.6262 51.7908 19.6262C53.675 19.6262 55.1 19.1936 56.1767 18.5848V15.3805C55.1 15.9252 53.865 16.2617 52.2975 16.2617C50.7617 16.2617 49.4 15.7169 49.2258 13.8264H56.9683C56.9683 13.6182 57 12.785 57 12.4005ZM49.1783 10.8785C49.1783 9.06808 50.2708 8.31508 51.2683 8.31508C52.2342 8.31508 53.2633 9.06808 53.2633 10.8785H49.1783Z" fill="#0774FF"/>
<path fill-rule="evenodd" clip-rule="evenodd" d="M39.1242 5.06274C37.5725 5.06274 36.575 5.79973 36.0208 6.31241L35.815 5.31909H32.3317V24L36.29 23.1509L36.3058 18.6168C36.8758 19.0334 37.715 19.6262 39.1083 19.6262C41.9425 19.6262 44.5233 17.3191 44.5233 12.2403C44.5075 7.59412 41.895 5.06274 39.1242 5.06274ZM38.1742 16.1015C37.24 16.1015 36.6858 15.765 36.3058 15.3485L36.29 9.40453C36.7017 8.93991 37.2717 8.61949 38.1742 8.61949C39.615 8.61949 40.6125 10.2537 40.6125 12.3525C40.6125 14.4993 39.6308 16.1015 38.1742 16.1015Z" fill="#0774FF"/>
<path fill-rule="evenodd" clip-rule="evenodd" d="M26.885 4.11749L30.8592 3.25234V0L26.885 0.849132V4.11749Z" fill="#0774FF"/>
<path d="M30.8592 5.33508H26.885V19.3538H30.8592V5.33508Z" fill="#0774FF"/>
<path fill-rule="evenodd" clip-rule="evenodd" d="M22.6258 6.52068L22.3725 5.3351H18.9525V19.3538H22.9108V9.85312C23.845 8.61948 25.4283 8.84378 25.9192 9.02001V5.3351C25.4125 5.14284 23.56 4.79037 22.6258 6.52068Z" fill="#0774FF"/>
<path fill-rule="evenodd" clip-rule="evenodd" d="M14.7091 1.85846L10.8458 2.69157L10.83 15.5247C10.83 17.8958 12.5875 19.6422 14.9308 19.6422C16.2291 19.6422 17.1791 19.4018 17.7016 19.1135V15.8611C17.195 16.0694 14.6933 16.8064 14.6933 14.4352V8.74764H17.7016V5.33509H14.6933L14.7091 1.85846Z" fill="#0774FF"/>
<path fill-rule="evenodd" clip-rule="evenodd" d="M4.00583 9.40453C4.00583 8.7797 4.5125 8.53938 5.35167 8.53938C6.555 8.53938 8.075 8.90787 9.27833 9.56475V5.79973C7.96417 5.27102 6.66583 5.06274 5.35167 5.06274C2.1375 5.06274 0 6.76101 0 9.59679C0 14.0187 6.01667 13.2977 6.01667 15.2043C6.01667 15.9412 5.38333 16.1816 4.49667 16.1816C3.1825 16.1816 1.50417 15.6368 0.174167 14.8999V18.7129C1.64667 19.3538 3.135 19.6262 4.49667 19.6262C7.79 19.6262 10.0542 17.976 10.0542 15.1081C10.0383 10.3498 4.00583 11.1989 4.00583 9.40453Z" fill="#0774FF"/>
</svg>
