<svg width="57" height="22" viewBox="0 0 57 22" fill="none" xmlns="http://www.w3.org/2000/svg">
<path d="M4.10418 0.304871H0V4.40905H4.10418V0.304871Z" fill="#0774FF"/>
<path d="M4.00252 21.6928V6.90882H0.115723V21.6928H4.00252ZM29.8279 21.837V18.2148C29.2585 18.2148 28.7764 18.1864 28.4244 18.1274C28.0156 18.0683 27.7085 17.9218 27.5053 17.7186C27.2997 17.513 27.1697 17.2224 27.0965 16.842C27.0374 16.4758 27.0091 15.9938 27.0091 15.4102V10.238H29.8279V6.90645H27.0091V1.13887H23.1105V15.4409C23.1105 16.653 23.2121 17.6761 23.4176 18.4936C23.6232 19.297 23.9729 19.9538 24.4549 20.45C24.9369 20.9462 25.5796 21.2983 26.3546 21.5156C27.1438 21.7354 28.1361 21.837 29.3199 21.837H29.8279ZM52.1492 21.6928V0H48.2483V21.6928H52.1492ZM19.356 8.35485C18.2762 7.18526 16.7569 6.60165 14.8265 6.60165C13.8908 6.60165 13.0449 6.79068 12.2699 7.17109C11.5115 7.5515 10.8523 8.07604 10.3419 8.74944L10.1222 9.02588V8.77779V6.90882H6.28026V21.6928H10.1505V13.82V14.3611C10.1505 14.2737 10.1505 14.1862 10.1505 14.0988C10.1954 12.7118 10.5309 11.6888 11.1736 11.0319C11.8612 10.3301 12.6929 9.98045 13.6427 9.98045C14.7674 9.98045 15.6298 10.3301 16.1993 11.0035C16.7545 11.6746 17.0475 12.6244 17.0475 13.8365V13.8649V21.681H20.9769V13.2955C20.991 11.1878 20.4358 9.52443 19.356 8.35485ZM46.2328 14.2713C46.2328 13.2057 46.0438 12.2109 45.6775 11.2776C45.2971 10.3585 44.7726 9.53861 44.1134 8.83922C43.4423 8.13747 42.639 7.59639 41.7033 7.20417C40.7676 6.80958 39.7304 6.62056 38.6057 6.62056C37.5401 6.62056 36.5311 6.82612 35.5955 7.21834C34.6598 7.62711 33.8423 8.16819 33.1571 8.8534C32.4695 9.54097 31.9142 10.3585 31.522 11.2918C31.1133 12.2275 30.9242 13.234 30.9242 14.302C30.9242 15.3676 31.1133 16.3765 31.4937 17.3122C31.8741 18.2479 32.4128 19.0654 33.0862 19.7506C33.7572 20.4382 34.5913 20.9934 35.5553 21.3857C36.5193 21.7944 37.585 22 38.7262 22C42.027 22 44.0732 20.4949 45.2995 19.0938L42.4948 16.9602C41.9112 17.6619 40.5077 18.6117 38.7545 18.6117C37.6582 18.6117 36.7533 18.3637 36.0657 17.8533C35.3781 17.3571 34.9126 16.6554 34.6622 15.7929L34.6173 15.6606H46.2304L46.2328 14.2713ZM34.6504 12.9127C34.6504 11.8329 35.8932 9.94737 38.5655 9.9332C41.2378 9.9332 42.4948 11.8187 42.4948 12.8985L34.6504 12.9127Z" fill="#0774FF"/>
<path d="M56.5913 19.7625C56.5181 19.5876 56.4165 19.4411 56.2842 19.3088C56.1518 19.1765 56.0077 19.0749 55.8305 19.0016C55.6556 18.9284 55.4643 18.8859 55.2752 18.8859C55.0697 18.8859 54.8948 18.9308 54.72 19.0016C54.5451 19.0749 54.3986 19.1765 54.2663 19.3088C54.134 19.4411 54.0324 19.5853 53.9592 19.7625C53.8859 19.9373 53.8434 20.1287 53.8434 20.3177C53.8434 20.5233 53.8883 20.6981 53.9592 20.873C54.03 21.0478 54.134 21.1943 54.2663 21.3266C54.3986 21.4589 54.5428 21.5605 54.72 21.6338C54.8948 21.707 55.0862 21.7496 55.2752 21.7496C55.4808 21.7496 55.6556 21.7047 55.8305 21.6338C56.0053 21.5605 56.1518 21.4589 56.2842 21.3266C56.4165 21.1943 56.5181 21.0502 56.5913 20.873C56.6622 20.6981 56.7071 20.5091 56.7071 20.3177C56.7071 20.1287 56.6622 19.9397 56.5913 19.7625ZM56.3574 20.7856C56.2983 20.932 56.2109 21.062 56.1093 21.166C56.0077 21.2676 55.8754 21.355 55.7289 21.4141C55.5824 21.4731 55.4359 21.5015 55.2611 21.5015C55.1004 21.5015 54.9397 21.4731 54.7932 21.4141C54.6467 21.355 54.5168 21.2676 54.4128 21.166C54.3089 21.0644 54.2238 20.932 54.1647 20.7856C54.1057 20.6391 54.0773 20.4926 54.0773 20.3177C54.0773 20.157 54.1057 19.9964 54.1647 19.8499C54.2238 19.7034 54.3112 19.5734 54.4128 19.4695C54.5144 19.3679 54.6467 19.2804 54.7932 19.2214C54.9397 19.1623 55.0862 19.134 55.2611 19.134C55.4217 19.134 55.5824 19.1623 55.7289 19.2214C55.8754 19.2804 56.0053 19.3679 56.1093 19.4695C56.2109 19.5711 56.2983 19.7034 56.3574 19.8499C56.4165 19.9964 56.4448 20.1429 56.4448 20.3177C56.459 20.4949 56.4141 20.6391 56.3574 20.7856ZM55.5375 20.4359C55.6533 20.4217 55.7431 20.3768 55.814 20.3035C55.8872 20.2303 55.9297 20.1287 55.9297 19.9822C55.9297 19.8215 55.8848 19.7058 55.7832 19.616C55.6958 19.5285 55.5351 19.4837 55.3461 19.4837H54.7034V21.1352H55.0106V20.4642H55.2303L55.6391 21.1352H55.9604L55.5375 20.4359ZM55.3768 20.2019C55.3319 20.2019 55.2894 20.2019 55.2303 20.2019H55.0106V19.7341H55.2303C55.2752 19.7341 55.3178 19.7341 55.3768 19.7341C55.4217 19.7341 55.4643 19.7483 55.5092 19.7625C55.554 19.7766 55.5824 19.8074 55.5966 19.8357C55.6108 19.8641 55.6249 19.909 55.6249 19.968C55.6249 20.0271 55.6108 20.0696 55.5966 20.1003C55.5682 20.1287 55.5375 20.1594 55.5092 20.1736C55.4643 20.1878 55.4217 20.2019 55.3768 20.2019Z" fill="#0774FF"/>
</svg>
