<svg width="101" height="20" viewBox="0 0 101 20" fill="none" xmlns="http://www.w3.org/2000/svg">
<path d="M96.7117 2.53568C96.7117 1.38959 97.6333 0.4534 98.7612 0.4534C99.3083 0.4534 99.8133 0.680102 100.209 1.05374C100.604 1.44836 100.811 1.97313 100.811 2.51889C100.811 3.06465 100.604 3.58942 100.209 3.98405C99.8133 4.37867 99.3083 4.60117 98.7612 4.60117C97.6333 4.59698 96.7117 3.67758 96.7117 2.53568ZM96.5434 2.53568C96.5434 3.77414 97.5408 4.7859 98.7822 4.7859C99.384 4.7859 99.9311 4.55919 100.344 4.13098C100.756 3.69857 101 3.13602 101 2.53568C101 1.93535 100.773 1.3728 100.344 0.940386C99.91 0.507976 99.3672 0.285474 98.7822 0.285474C97.5408 0.281276 96.5434 1.29723 96.5434 2.53568ZM97.9363 3.8665H98.2562V2.81696H98.9716C99.0852 2.81696 99.1778 2.81696 99.2535 2.85475C99.3461 2.90932 99.405 3.02267 99.4219 3.1738L99.4598 3.58522C99.4598 3.67758 99.4598 3.73636 99.4598 3.77414C99.4766 3.81192 99.4766 3.82871 99.4976 3.84971H99.8932V3.79513C99.8385 3.77834 99.8175 3.71956 99.8006 3.644C99.7838 3.60621 99.7838 3.53065 99.7838 3.43829L99.767 3.11923C99.767 2.96809 99.7291 2.87573 99.6912 2.82116C99.6365 2.76658 99.5608 2.70781 99.464 2.67002C99.5776 2.61545 99.6533 2.53988 99.708 2.44332C99.7628 2.35096 99.7838 2.23761 99.7838 2.08648C99.7838 1.8052 99.6702 1.61629 99.464 1.50294C99.3503 1.44836 99.1988 1.42737 99.0305 1.42737H97.9574L97.9363 3.8665ZM98.2351 2.53568V1.68766H98.9884C99.102 1.68766 99.1946 1.70445 99.2535 1.74223C99.3672 1.79681 99.4219 1.93115 99.4219 2.09908C99.4219 2.267 99.384 2.38035 99.2914 2.43493C99.2157 2.4895 99.102 2.52729 98.9548 2.52729H98.2351V2.53568ZM9.1405 5.62972L0 19.9622H6.24517L15.0448 6.26784L9.1405 5.62972ZM46.7672 5.31067V0H28.9954C26.5714 0.151134 25.5151 1.31402 24.7282 2.13686C23.8823 3.01847 23.411 4.87406 23.411 4.87406V0.0377826H13.9548C13.2394 0.0377826 12.5619 0.335852 12.0569 1.04954C11.5308 1.74223 9.36775 5.30647 9.36775 5.30647H46.7672V5.31067ZM95.0957 5.31067V0H76.0825C73.6753 0.151134 72.6022 1.31402 71.8152 2.13686C70.9693 3.01847 70.498 4.87406 70.498 4.87406V5.30647H95.0957V5.31067ZM53.0124 0.0209912H47.6888V5.31067H53.0124V0.0209912ZM70.4433 0.0209912H65.1408V5.31067H70.4433V0.0209912ZM70.4433 7.22502L65.2165 6.90596V13.0395C65.2165 13.0395 65.1997 14.8027 63.4869 14.8027H54.5358C54.5358 14.8027 53.0124 14.6725 53.0124 13.0563V6.07893L47.7477 5.70529V15.105C48.5936 19.6054 52.6757 19.9622 52.6757 19.9622C52.6757 19.9622 53.0881 19.979 53.1639 20H65.2923C65.2923 20 70.4812 19.5886 70.4812 14.597L70.4433 7.22502ZM17.9948 19.9622H42.8535C47.1796 19.0974 47.6299 15.1595 47.6299 15.1595C47.8361 13.9966 47.7225 13.0395 47.7225 13.0395C47.592 12.2502 46.0855 8.76154 42.8535 8.46348C40.9176 8.27456 23.6719 6.90596 23.6719 6.90596C24.0085 8.6314 24.7829 9.51301 25.3089 10C26.5125 11.1461 28.4105 11.4819 28.4105 11.4819C28.8608 11.5197 41.7046 12.5903 41.7046 12.5903C42.117 12.6071 42.8913 12.7204 42.8703 13.7364C42.8703 13.8665 42.7567 14.7481 41.7803 14.7481H23.1879V6.86818L18.0159 6.49454C17.9948 6.49034 17.9948 19.9622 17.9948 19.9622ZM70.4812 20H89.5113C94.2877 19.7187 94.9653 15.1973 94.9653 15.1973C95.1336 14.0134 95.0031 13.0395 95.0031 13.0395C94.8727 11.9689 93.3493 8.74475 90.0962 8.42569C88.1772 8.23678 70.822 7.22502 70.822 7.22502C71.3313 9.00924 72.0256 9.5508 72.5517 10.0378C73.7552 11.2007 75.5396 11.4652 75.5396 11.4652C75.9899 11.5029 88.9642 12.5903 88.9642 12.5903C89.3766 12.6071 90.2225 12.6448 90.2225 13.6608C90.2225 13.9589 90.071 14.2779 89.8858 14.45C89.8858 14.45 89.4355 14.6935 89.002 14.6935H70.5359L70.4812 20Z" fill="#0774FF"/>
</svg>
