<svg width="79" height="24" viewBox="0 0 79 24" fill="none" xmlns="http://www.w3.org/2000/svg">
<g clip-path="url(#clip0_758_23434)">
<path fill-rule="evenodd" clip-rule="evenodd" d="M49.01 18.7687C44.4192 22.18 37.7651 24 32.036 24C24.0029 24 16.7711 21.0048 11.2999 16.0231C10.8701 15.6314 11.2552 15.0975 11.771 15.4026C17.6755 18.8658 24.9761 20.9493 32.5174 20.9493C37.6035 20.9493 43.1984 19.8885 48.3429 17.6871C49.1201 17.3543 49.77 18.2002 49.01 18.7687Z" fill="#0774FF"/>
<path fill-rule="evenodd" clip-rule="evenodd" d="M50.9186 16.5674C50.334 15.8117 47.0396 16.2103 45.5609 16.3871C45.1104 16.4426 45.0416 16.0474 45.4474 15.7631C48.0712 13.9015 52.3767 14.4388 52.8787 15.0628C53.3808 15.6903 52.748 20.041 50.2824 22.1176C49.9041 22.4365 49.5431 22.2667 49.7116 21.8437C50.2652 20.4501 51.5066 17.3266 50.9186 16.5674Z" fill="#0774FF"/>
<path fill-rule="evenodd" clip-rule="evenodd" d="M45.664 2.6208V0.811183C45.664 0.537313 45.8704 0.353577 46.118 0.353577H54.1545C54.4124 0.353577 54.6187 0.54078 54.6187 0.811183V2.3608C54.6153 2.6208 54.3986 2.96054 54.0135 3.49788L49.8491 9.49181C51.3965 9.45368 53.03 9.68595 54.433 10.4833C54.7494 10.6636 54.8354 10.927 54.8594 11.187V13.118C54.8594 13.3815 54.5706 13.69 54.268 13.5305C51.7954 12.2236 48.5114 12.0814 45.7775 13.5444C45.499 13.6969 45.2067 13.3919 45.2067 13.1284V11.2945C45.2067 10.9998 45.2101 10.4972 45.5024 10.05L50.3271 3.07495H46.1283C45.8704 3.07495 45.664 2.89121 45.664 2.6208Z" fill="#0774FF"/>
<path fill-rule="evenodd" clip-rule="evenodd" d="M16.3482 13.9119H13.9032C13.6693 13.8946 13.4836 13.7178 13.4664 13.4924V0.842415C13.4664 0.589346 13.6762 0.38828 13.9375 0.38828H16.2175C16.4548 0.398673 16.6439 0.582411 16.6611 0.811214V2.46483H16.7058C17.3007 0.866679 18.4183 0.121338 19.9245 0.121338C21.4548 0.121338 22.4108 0.866679 23.0986 2.46483C23.69 0.866679 25.0346 0.121338 26.4755 0.121338C27.5003 0.121338 28.6213 0.547741 29.3056 1.50455C30.0794 2.56883 29.9212 4.11499 29.9212 5.47047L29.9177 13.4543C29.9177 13.7074 29.708 13.9119 29.4466 13.9119H27.0051C26.7609 13.8946 26.5649 13.697 26.5649 13.4543V6.74968C26.5649 6.21581 26.613 4.88459 26.4961 4.37845C26.3139 3.52911 25.7671 3.28991 25.0587 3.28991C24.4672 3.28991 23.8482 3.68858 23.5972 4.32646C23.3462 4.96433 23.3702 6.03207 23.3702 6.74968V13.4543C23.3702 13.7074 23.1605 13.9119 22.8991 13.9119H20.4576C20.21 13.8946 20.0174 13.697 20.0174 13.4543L20.0139 6.74968C20.0139 5.33874 20.2443 3.26218 18.5077 3.26218C16.7505 3.26218 16.8193 5.28673 16.8193 6.74968V13.4543C16.8193 13.7074 16.6095 13.9119 16.3482 13.9119Z" fill="#0774FF"/>
<path fill-rule="evenodd" clip-rule="evenodd" d="M61.5376 0.121338C65.1656 0.121338 67.1292 3.26217 67.1292 7.25582C67.1292 11.1143 64.9593 14.1754 61.5376 14.1754C57.975 14.1754 56.0355 11.0345 56.0355 7.12062C56.0355 3.18244 57.9991 0.121338 61.5376 0.121338ZM61.5583 2.70403C59.7563 2.70403 59.6428 5.17926 59.6428 6.72194C59.6428 8.26809 59.6188 11.5684 61.5376 11.5684C63.4324 11.5684 63.5218 8.90597 63.5218 7.28355C63.5218 6.21581 63.4771 4.94006 63.1573 3.92778C62.8822 3.04724 62.3354 2.70403 61.5583 2.70403Z" fill="#0774FF"/>
<path fill-rule="evenodd" clip-rule="evenodd" d="M71.8335 13.9119H69.3988C69.1546 13.8946 68.9586 13.697 68.9586 13.4543L68.9552 0.80081C68.9758 0.568541 69.1787 0.38828 69.4263 0.38828H71.6925C71.9057 0.398673 72.0811 0.544275 72.1292 0.741877V2.6763H72.1739C72.8583 0.946418 73.8177 0.121338 75.5062 0.121338C76.6031 0.121338 77.6726 0.520011 78.3604 1.61202C79 2.6243 79 4.32646 79 5.5502V13.5132C78.9725 13.7351 78.7696 13.9119 78.5289 13.9119H76.077C75.8535 13.8946 75.6678 13.7282 75.6437 13.5132V6.64221C75.6437 5.259 75.8019 3.23444 74.1134 3.23444C73.5185 3.23444 72.9717 3.63658 72.7001 4.24672C72.3562 5.0198 72.3115 5.7894 72.3115 6.64221V13.4543C72.3081 13.7074 72.0948 13.9119 71.8335 13.9119Z" fill="#0774FF"/>
<path fill-rule="evenodd" clip-rule="evenodd" d="M39.2575 7.86942C39.2575 8.8297 39.2816 9.63051 38.8002 10.4833C38.4116 11.1767 37.7926 11.6031 37.1083 11.6031C36.1695 11.6031 35.6193 10.882 35.6193 9.81771C35.6193 7.71689 37.4866 7.33555 39.2575 7.33555V7.86942ZM41.7232 13.8772C41.5616 14.0228 41.3277 14.0332 41.1455 13.9362C40.3339 13.2567 40.186 12.9412 39.7424 12.2929C38.4013 13.6727 37.4487 14.0852 35.7121 14.0852C33.6523 14.0852 32.0532 12.806 32.0532 10.2441C32.0532 8.24383 33.1261 6.88141 34.6599 6.21581C35.9872 5.62646 37.8408 5.52246 39.2575 5.35953V5.04059C39.2575 4.45472 39.3023 3.76138 38.9584 3.25524C38.6626 2.8011 38.0918 2.6139 37.5863 2.6139C36.6544 2.6139 35.8256 3.09577 35.6227 4.09418C35.5815 4.31605 35.4198 4.53445 35.1963 4.54485L32.827 4.28831C32.6275 4.24325 32.404 4.08032 32.4624 3.77178C33.0058 0.873618 35.6055 0 37.9302 0C39.12 0 40.6743 0.318937 41.6131 1.22721C42.803 2.34696 42.6895 3.84111 42.6895 5.467V9.30811C42.6895 10.4625 43.164 10.9687 43.6111 11.5927C43.7658 11.8145 43.8002 12.0815 43.6008 12.2479C43.1021 12.6673 42.2149 13.4474 41.7266 13.8842L41.7232 13.8772Z" fill="#0774FF"/>
<path fill-rule="evenodd" clip-rule="evenodd" d="M7.20433 7.86936C7.20433 8.82964 7.2284 9.63045 6.74696 10.4833C6.35838 11.1766 5.74283 11.603 5.05506 11.603C4.11627 11.603 3.56949 10.8819 3.56949 9.81765C3.56949 7.71683 5.43677 7.33549 7.20433 7.33549V7.86936ZM9.66996 13.8772C9.50834 14.0228 9.2745 14.0332 9.09224 13.9361C8.28068 13.2566 8.13625 12.9412 7.6892 12.2929C6.34806 13.6726 5.39895 14.0852 3.6589 14.0852C1.60249 14.0852 0 12.806 0 10.2441C0 8.24377 1.07635 6.88135 2.60662 6.21575C3.93401 5.6264 5.78753 5.5224 7.20433 5.35947V5.04053C7.20433 4.45466 7.24903 3.76132 6.90859 3.25518C6.60941 2.80104 6.03857 2.61384 5.5365 2.61384C4.60458 2.61384 3.77238 3.09571 3.56949 4.09412C3.52823 4.31599 3.3666 4.53439 3.14652 4.54479L0.773734 4.28825C0.574282 4.24319 0.354197 4.08026 0.409219 3.77172C0.955991 0.873557 3.5523 -6.10352e-05 5.87694 -6.10352e-05C7.06677 -6.10352e-05 8.62112 0.318876 9.55992 1.22715C10.7498 2.3469 10.6363 3.84105 10.6363 5.46694V9.30805C10.6363 10.4625 11.1108 10.9686 11.5579 11.5926C11.7161 11.8145 11.7504 12.0814 11.551 12.2478C11.0524 12.6673 10.1652 13.4473 9.67684 13.8841L9.66996 13.8772Z" fill="#0774FF"/>
</g>
<defs>
<clipPath id="clip0_758_23434">
<rect width="79" height="24" fill="white"/>
</clipPath>
</defs>
</svg>
