<svg width="42" height="22" viewBox="0 0 42 22" fill="none" xmlns="http://www.w3.org/2000/svg">
<path d="M32.9745 0.486119L29.9517 12.7881L26.9185 0.486119H18.0248V5.02981C16.9573 1.05299 13.188 0.0570403 9.69786 0.00122528C5.44371 -0.0545898 0.98374 1.78731 0.819783 7.41242H6.70478C6.70478 5.71529 8.00771 4.74376 9.4746 4.76643C11.2764 4.75248 12.1066 5.52168 12.1485 6.71996C12.0857 7.75952 11.4717 8.48337 9.48856 8.48337H7.51061V12.5666H9.3089C10.3275 12.5666 11.7491 13.1213 11.8049 14.5742C11.8729 16.3062 10.6676 17.0684 9.18506 17.0824C6.53908 16.9847 6.11 14.9509 6.11 13.2032H0C0.0279075 14.3806 -0.263377 22.0551 9.3089 21.9993C13.8945 22.0412 17.0951 20.1156 18.037 17.4556V21.5284H24.0633V8.25662L27.3197 21.5284H32.5838L35.8524 8.27057V21.5423H41.8613V0.486119H32.9745ZM18.0405 12.7602C17.2922 11.2078 16.2369 10.5293 15.6404 10.3148C16.8875 9.76014 17.5416 9.00838 18.0405 7.51009V12.7602Z" fill="#0774FF"/>
</svg>
