<svg width="96" height="18" viewBox="0 0 96 18" fill="none" xmlns="http://www.w3.org/2000/svg">
<g clip-path="url(#clip0_758_23466)">
<path d="M18 0H0V18H18V0Z" fill="#0774FF"/>
<path d="M37.5 0H19.5V18H37.5V0Z" fill="#0774FF"/>
<path d="M57 0H39V18H57V0Z" fill="#0774FF"/>
<path d="M76.5 0H58.5V18H76.5V0Z" fill="#0774FF"/>
<path d="M96 0H87V18H96V0Z" fill="#DCDCE6"/>
<path d="M87 0H78V18H87V0Z" fill="#0774FF"/>
<path d="M8.99995 12.1312L11.7374 11.4375L12.8812 14.9625L8.99995 12.1312ZM15.2999 7.57498H10.4812L8.99995 3.03748L7.5187 7.57498H2.69995L6.59995 10.3875L5.1187 14.925L9.0187 12.1125L11.4187 10.3875L15.2999 7.57498Z" fill="white"/>
<path d="M28.5 12.1312L31.2375 11.4375L32.3812 14.9625L28.5 12.1312ZM34.8 7.57498H29.9812L28.5 3.03748L27.0187 7.57498H22.2L26.1 10.3875L24.6187 14.925L28.5187 12.1125L30.9187 10.3875L34.8 7.57498Z" fill="white"/>
<path d="M48 12.1312L50.7375 11.4375L51.8812 14.9625L48 12.1312ZM54.3 7.57498H49.4812L48 3.03748L46.5187 7.57498H41.7L45.6 10.3875L44.1187 14.925L48.0187 12.1125L50.4187 10.3875L54.3 7.57498Z" fill="white"/>
<path d="M67.5 12.1312L70.2375 11.4375L71.3812 14.9625L67.5 12.1312ZM73.8 7.57498H68.9812L67.5 3.03748L66.0187 7.57498H61.2L65.1 10.3875L63.6187 14.925L67.5187 12.1125L69.9187 10.3875L73.8 7.57498Z" fill="white"/>
<path d="M87 12.1312L89.7375 11.4375L90.8812 14.9625L87 12.1312ZM93.3 7.57498H88.4812L87 3.03748L85.5187 7.57498H80.7L84.6 10.3875L83.1187 14.925L87.0187 12.1125L89.4187 10.3875L93.3 7.57498Z" fill="white"/>
</g>
<defs>
<clipPath id="clip0_758_23466">
<rect width="96" height="18" fill="white"/>
</clipPath>
</defs>
</svg>
