<svg width="82" height="20" viewBox="0 0 82 20" fill="none" xmlns="http://www.w3.org/2000/svg">
<g clip-path="url(#clip0_758_23462)">
<path d="M21.4351 7.08844H29.6937V8.6269H26.4464V17.2754H24.6608V8.6269H21.4279V7.08844H21.4351ZM29.3409 9.89937H30.8674V11.3228H30.8962C30.9466 11.1215 31.0402 10.9274 31.177 10.7405C31.3138 10.5536 31.4794 10.3738 31.6738 10.2229C31.8682 10.0647 32.0842 9.9425 32.3218 9.84185C32.5594 9.7484 32.8042 9.69807 33.049 9.69807C33.2362 9.69807 33.373 9.70526 33.445 9.71245C33.517 9.71964 33.5891 9.73402 33.6683 9.74121V11.3084C33.5531 11.2869 33.4378 11.2725 33.3154 11.2581C33.193 11.2437 33.0778 11.2365 32.9626 11.2365C32.689 11.2365 32.4298 11.294 32.185 11.4019C31.9402 11.5097 31.7314 11.6751 31.5514 11.8836C31.3714 12.0992 31.2274 12.358 31.1194 12.6743C31.0114 12.9907 30.961 13.3501 30.961 13.7599V17.2682H29.3337V9.89937H29.3409ZM41.1493 17.2754H39.5508V16.2473H39.522C39.3204 16.6211 39.0252 16.9159 38.6292 17.1388C38.2332 17.3616 37.83 17.4766 37.4196 17.4766C36.4475 17.4766 35.7419 17.2394 35.3099 16.7577C34.8779 16.2761 34.6619 15.55 34.6619 14.5795V9.89937H36.2891V14.4213C36.2891 15.0683 36.4115 15.5284 36.6636 15.7944C36.9084 16.0604 37.2612 16.197 37.7076 16.197C38.0532 16.197 38.334 16.1467 38.5644 16.0388C38.7948 15.931 38.982 15.7944 39.1188 15.6147C39.2628 15.4421 39.3636 15.2265 39.4284 14.982C39.4932 14.7376 39.522 14.4716 39.522 14.1841V9.90656H41.1493V17.2754ZM43.9214 14.9102C43.9718 15.3846 44.1518 15.7153 44.4614 15.9094C44.7782 16.0963 45.1526 16.197 45.5918 16.197C45.743 16.197 45.9159 16.1826 46.1103 16.161C46.3047 16.1395 46.4919 16.0892 46.6575 16.0245C46.8303 15.9598 46.9671 15.8591 47.0823 15.7297C47.1903 15.6003 47.2407 15.435 47.2335 15.2265C47.2263 15.018 47.1471 14.8454 47.0031 14.716C46.8591 14.5795 46.6791 14.4788 46.4559 14.3925C46.2327 14.3135 45.9807 14.2416 45.6926 14.1841C45.4046 14.1265 45.1166 14.0618 44.8214 13.9971C44.519 13.9324 44.2238 13.8462 43.943 13.7527C43.6622 13.6593 43.4102 13.5298 43.187 13.3645C42.9638 13.2063 42.7838 12.9979 42.6541 12.7462C42.5173 12.4946 42.4525 12.1855 42.4525 11.8117C42.4525 11.4091 42.5533 11.0784 42.7477 10.8052C42.9422 10.532 43.1942 10.3163 43.4894 10.151C43.7918 9.98564 44.123 9.87061 44.4902 9.79872C44.8574 9.73402 45.2102 9.69807 45.5414 9.69807C45.923 9.69807 46.2903 9.74121 46.6359 9.82029C46.9815 9.89937 47.2983 10.0288 47.5791 10.2157C47.8599 10.3954 48.0903 10.6327 48.2775 10.9202C48.4647 11.2078 48.5799 11.56 48.6303 11.9698H46.9311C46.8519 11.5816 46.6791 11.3156 46.3983 11.1862C46.1175 11.0496 45.7934 10.9849 45.4334 10.9849C45.3182 10.9849 45.1814 10.9921 45.023 11.0137C44.8646 11.0352 44.7206 11.0712 44.5766 11.1215C44.4398 11.1718 44.3246 11.2509 44.2238 11.3516C44.1302 11.4522 44.0798 11.5816 44.0798 11.747C44.0798 11.9483 44.1518 12.1064 44.2886 12.2286C44.4254 12.3508 44.6054 12.4515 44.8286 12.5378C45.0518 12.6168 45.3038 12.6887 45.5918 12.7462C45.8799 12.8038 46.1751 12.8685 46.4775 12.9332C46.7727 12.9979 47.0607 13.0841 47.3487 13.1776C47.6367 13.271 47.8887 13.4004 48.1119 13.5658C48.3351 13.7311 48.5151 13.9324 48.6519 14.1769C48.7887 14.4213 48.8607 14.7304 48.8607 15.0899C48.8607 15.5284 48.7599 15.8951 48.5583 16.2042C48.3567 16.5061 48.0975 16.7577 47.7807 16.9447C47.4639 17.1316 47.1039 17.2754 46.7151 17.3616C46.3263 17.4479 45.9375 17.491 45.5558 17.491C45.0878 17.491 44.6558 17.4407 44.2598 17.3329C43.8638 17.225 43.5182 17.0669 43.2302 16.8584C42.9422 16.6427 42.7117 16.3767 42.5461 16.0604C42.3805 15.7441 42.2941 15.3631 42.2797 14.9245H43.9214V14.9102ZM49.2928 9.89937H50.524V7.68513H52.1513V9.89937H53.6201V11.1143H52.1513V15.0539C52.1513 15.2265 52.1585 15.3703 52.1729 15.4997C52.1873 15.6219 52.2233 15.7297 52.2737 15.816C52.3241 15.9022 52.4033 15.9669 52.5113 16.0101C52.6193 16.0532 52.7561 16.0748 52.9433 16.0748C53.0585 16.0748 53.1737 16.0748 53.2889 16.0676C53.4041 16.0604 53.5193 16.046 53.6345 16.0173V17.2754C53.4545 17.2969 53.2745 17.3113 53.1089 17.3329C52.9361 17.3544 52.7633 17.3616 52.5833 17.3616C52.1513 17.3616 51.8056 17.3185 51.5464 17.2394C51.2872 17.1603 51.0784 17.0381 50.9344 16.88C50.7832 16.7218 50.6896 16.5277 50.632 16.2905C50.5816 16.0532 50.5456 15.78 50.5384 15.4781V11.1287H49.3072V9.89937H49.2928ZM54.7721 9.89937H56.313V10.8986H56.3418C56.5722 10.4673 56.889 10.1654 57.2994 9.97845C57.7098 9.79153 58.149 9.69807 58.6315 9.69807C59.2147 9.69807 59.7187 9.79872 60.1507 10.0072C60.5827 10.2085 60.9427 10.4889 61.2308 10.8483C61.5188 11.2078 61.7276 11.6247 61.8716 12.0992C62.0156 12.5737 62.0876 13.0841 62.0876 13.6233C62.0876 14.1194 62.0228 14.601 61.8932 15.0611C61.7636 15.5284 61.5692 15.9382 61.31 16.2976C61.0507 16.6571 60.7195 16.9375 60.3163 17.1531C59.9131 17.3688 59.4451 17.4766 58.8979 17.4766C58.6603 17.4766 58.4227 17.4551 58.185 17.4119C57.9474 17.3688 57.717 17.2969 57.501 17.2035C57.285 17.11 57.0762 16.9878 56.8962 16.8368C56.709 16.6859 56.5578 16.5133 56.4282 16.3192H56.3994V20H54.7721V9.89937ZM60.4603 13.5946C60.4603 13.2639 60.4171 12.9403 60.3307 12.624C60.2443 12.3077 60.1147 12.0345 59.9419 11.7901C59.7691 11.5457 59.5531 11.3516 59.3011 11.2078C59.0419 11.064 58.7467 10.9849 58.4155 10.9849C57.7314 10.9849 57.213 11.2222 56.8674 11.6966C56.5218 12.1711 56.349 12.8038 56.349 13.5946C56.349 13.9684 56.3922 14.3135 56.4858 14.6298C56.5794 14.9461 56.709 15.2193 56.8962 15.4493C57.0762 15.6794 57.2922 15.8591 57.5442 15.9885C57.7962 16.1251 58.0914 16.1898 58.4227 16.1898C58.7971 16.1898 59.1067 16.1107 59.3659 15.9598C59.6251 15.8088 59.8339 15.6075 59.9995 15.3703C60.1651 15.1258 60.2875 14.8526 60.3595 14.5435C60.4243 14.2344 60.4603 13.9181 60.4603 13.5946ZM63.3332 7.08844H64.9605V8.6269H63.3332V7.08844ZM63.3332 9.89937H64.9605V17.2754H63.3332V9.89937ZM66.4149 7.08844H68.0422V17.2754H66.4149V7.08844ZM73.0319 17.4766C72.4415 17.4766 71.9159 17.376 71.4551 17.1819C70.9943 16.9878 70.6055 16.7146 70.2814 16.3767C69.9646 16.0316 69.7198 15.6219 69.5542 15.1474C69.3886 14.6729 69.3022 14.1481 69.3022 13.5802C69.3022 13.0194 69.3886 12.5018 69.5542 12.0273C69.7198 11.5529 69.9646 11.1431 70.2814 10.798C70.5983 10.4529 70.9943 10.1869 71.4551 9.99283C71.9159 9.79872 72.4415 9.69807 73.0319 9.69807C73.6223 9.69807 74.148 9.79872 74.6088 9.99283C75.0696 10.1869 75.4584 10.4601 75.7824 10.798C76.0992 11.1431 76.344 11.5529 76.5096 12.0273C76.6753 12.5018 76.7617 13.0194 76.7617 13.5802C76.7617 14.1481 76.6753 14.6729 76.5096 15.1474C76.344 15.6219 76.0992 16.0316 75.7824 16.3767C75.4656 16.7218 75.0696 16.9878 74.6088 17.1819C74.148 17.376 73.6223 17.4766 73.0319 17.4766ZM73.0319 16.1898C73.3919 16.1898 73.7088 16.1107 73.9752 15.9598C74.2416 15.8088 74.4576 15.6075 74.6304 15.3631C74.8032 15.1186 74.9256 14.8383 75.012 14.5291C75.0912 14.22 75.1344 13.9037 75.1344 13.5802C75.1344 13.2639 75.0912 12.9547 75.012 12.6384C74.9328 12.3221 74.8032 12.0489 74.6304 11.8045C74.4576 11.56 74.2416 11.3659 73.9752 11.215C73.7088 11.064 73.3919 10.9849 73.0319 10.9849C72.6719 10.9849 72.3551 11.064 72.0887 11.215C71.8223 11.3659 71.6063 11.5672 71.4335 11.8045C71.2607 12.0489 71.1383 12.3221 71.0519 12.6384C70.9727 12.9547 70.9295 13.2639 70.9295 13.5802C70.9295 13.9037 70.9727 14.22 71.0519 14.5291C71.1311 14.8383 71.2607 15.1186 71.4335 15.3631C71.6063 15.6075 71.8223 15.8088 72.0887 15.9598C72.3551 16.1179 72.6719 16.1898 73.0319 16.1898ZM77.2369 9.89937H78.4681V7.68513H80.0954V9.89937H81.5642V11.1143H80.0954V15.0539C80.0954 15.2265 80.1026 15.3703 80.117 15.4997C80.1314 15.6219 80.1674 15.7297 80.2178 15.816C80.2682 15.9022 80.3474 15.9669 80.4554 16.0101C80.5634 16.0532 80.7002 16.0748 80.8874 16.0748C81.0026 16.0748 81.1178 16.0748 81.233 16.0676C81.3482 16.0604 81.4634 16.046 81.5786 16.0173V17.2754C81.3986 17.2969 81.2186 17.3113 81.053 17.3329C80.8802 17.3544 80.7074 17.3616 80.5274 17.3616C80.0954 17.3616 79.7498 17.3185 79.4905 17.2394C79.2313 17.1603 79.0225 17.0381 78.8785 16.88C78.7273 16.7218 78.6337 16.5277 78.5761 16.2905C78.5257 16.0532 78.4897 15.78 78.4825 15.4781V11.1287H77.2513V9.89937H77.2369Z" fill="#0774FF"/>
<path d="M19.5342 7.08842H12.0748L9.77072 0L7.45944 7.08842L0 7.08124L6.041 11.4666L3.72972 18.5478L9.77072 14.1697L15.8045 18.5478L13.5004 11.4666L19.5342 7.08842Z" fill="#0774FF"/>
<path d="M14.0189 13.0697L13.5005 11.4666L9.77075 14.1696L14.0189 13.0697Z" fill="#005128"/>
</g>
<defs>
<clipPath id="clip0_758_23462">
<rect width="81.5642" height="20" fill="white"/>
</clipPath>
</defs>
</svg>
