<svg width="136" height="30" viewBox="0 0 136 30" fill="none" xmlns="http://www.w3.org/2000/svg">
<path d="M60.728 24V6.12H63.992V13.92H71.6V6.12H74.888V24H71.6V16.8H63.992V24H60.728ZM84.4496 24.288C83.1696 24.288 82.0016 23.992 80.9456 23.4C79.9056 22.808 79.0736 22 78.4496 20.976C77.8416 19.952 77.5376 18.784 77.5376 17.472C77.5376 16.16 77.8416 14.992 78.4496 13.968C79.0736 12.944 79.9056 12.136 80.9456 11.544C81.9856 10.952 83.1536 10.656 84.4496 10.656C85.7296 10.656 86.8896 10.952 87.9296 11.544C88.9696 12.136 89.7936 12.944 90.4016 13.968C91.0256 14.976 91.3376 16.144 91.3376 17.472C91.3376 18.784 91.0256 19.952 90.4016 20.976C89.7776 22 88.9456 22.808 87.9056 23.4C86.8656 23.992 85.7136 24.288 84.4496 24.288ZM84.4496 21.408C85.1536 21.408 85.7696 21.24 86.2976 20.904C86.8416 20.568 87.2656 20.104 87.5696 19.512C87.8896 18.904 88.0496 18.224 88.0496 17.472C88.0496 16.704 87.8896 16.032 87.5696 15.456C87.2656 14.864 86.8416 14.4 86.2976 14.064C85.7696 13.712 85.1536 13.536 84.4496 13.536C83.7296 13.536 83.0976 13.712 82.5536 14.064C82.0096 14.4 81.5776 14.864 81.2576 15.456C80.9536 16.032 80.8016 16.704 80.8016 17.472C80.8016 18.224 80.9536 18.904 81.2576 19.512C81.5776 20.104 82.0096 20.568 82.5536 20.904C83.0976 21.24 83.7296 21.408 84.4496 21.408ZM98.6898 24.288C97.2978 24.288 96.0818 23.96 95.0418 23.304C94.0178 22.632 93.3138 21.728 92.9298 20.592L95.2818 19.464C95.6178 20.2 96.0818 20.776 96.6738 21.192C97.2818 21.608 97.9538 21.816 98.6898 21.816C99.2658 21.816 99.7218 21.688 100.058 21.432C100.394 21.176 100.562 20.84 100.562 20.424C100.562 20.168 100.49 19.96 100.346 19.8C100.218 19.624 100.034 19.48 99.7938 19.368C99.5698 19.24 99.3218 19.136 99.0498 19.056L96.9138 18.456C95.8098 18.136 94.9698 17.648 94.3938 16.992C93.8338 16.336 93.5538 15.56 93.5538 14.664C93.5538 13.864 93.7538 13.168 94.1538 12.576C94.5698 11.968 95.1378 11.496 95.8578 11.16C96.5938 10.824 97.4338 10.656 98.3778 10.656C99.6098 10.656 100.698 10.952 101.642 11.544C102.586 12.136 103.258 12.968 103.658 14.04L101.258 15.168C101.034 14.576 100.658 14.104 100.13 13.752C99.6018 13.4 99.0098 13.224 98.3538 13.224C97.8258 13.224 97.4098 13.344 97.1058 13.584C96.8018 13.824 96.6498 14.136 96.6498 14.52C96.6498 14.76 96.7138 14.968 96.8418 15.144C96.9698 15.32 97.1458 15.464 97.3698 15.576C97.6098 15.688 97.8818 15.792 98.1858 15.888L100.274 16.512C101.346 16.832 102.17 17.312 102.746 17.952C103.338 18.592 103.634 19.376 103.634 20.304C103.634 21.088 103.426 21.784 103.01 22.392C102.594 22.984 102.018 23.448 101.282 23.784C100.546 24.12 99.6818 24.288 98.6898 24.288ZM112.002 24.144C110.53 24.144 109.386 23.744 108.57 22.944C107.77 22.128 107.37 20.984 107.37 19.512V13.752H105.114V10.944H105.354C105.994 10.944 106.49 10.776 106.842 10.44C107.194 10.104 107.37 9.616 107.37 8.976V7.968H110.514V10.944H113.514V13.752H110.514V19.344C110.514 19.776 110.586 20.144 110.73 20.448C110.89 20.752 111.13 20.984 111.45 21.144C111.786 21.304 112.21 21.384 112.722 21.384C112.834 21.384 112.962 21.376 113.106 21.36C113.266 21.344 113.418 21.328 113.562 21.312V24C113.338 24.032 113.082 24.064 112.794 24.096C112.506 24.128 112.242 24.144 112.002 24.144ZM115.964 24V10.944H119.108V24H115.964ZM115.964 9.48V6.12H119.108V9.48H115.964ZM128.203 24.288C126.859 24.288 125.683 23.984 124.675 23.376C123.667 22.768 122.883 21.944 122.323 20.904C121.763 19.864 121.483 18.712 121.483 17.448C121.483 16.136 121.763 14.976 122.323 13.968C122.899 12.944 123.675 12.136 124.651 11.544C125.643 10.952 126.747 10.656 127.963 10.656C128.987 10.656 129.883 10.824 130.651 11.16C131.435 11.496 132.099 11.96 132.643 12.552C133.187 13.144 133.603 13.824 133.891 14.592C134.179 15.344 134.323 16.16 134.323 17.04C134.323 17.264 134.307 17.496 134.275 17.736C134.259 17.976 134.219 18.184 134.155 18.36H124.075V15.96H132.379L130.891 17.088C131.035 16.352 130.995 15.696 130.771 15.12C130.563 14.544 130.211 14.088 129.715 13.752C129.235 13.416 128.651 13.248 127.963 13.248C127.307 13.248 126.723 13.416 126.211 13.752C125.699 14.072 125.307 14.552 125.035 15.192C124.779 15.816 124.683 16.576 124.747 17.472C124.683 18.272 124.787 18.984 125.059 19.608C125.347 20.216 125.763 20.688 126.307 21.024C126.867 21.36 127.507 21.528 128.227 21.528C128.947 21.528 129.555 21.376 130.051 21.072C130.563 20.768 130.963 20.36 131.251 19.848L133.795 21.096C133.539 21.72 133.139 22.272 132.595 22.752C132.051 23.232 131.403 23.608 130.651 23.88C129.915 24.152 129.099 24.288 128.203 24.288Z" fill="#121833"/>
<circle cx="15" cy="15" r="15" fill="#FFC107"/>
<circle cx="30" cy="15" r="15" fill="#121833"/>
</svg>
