<svg width="30" height="30" viewBox="0 0 30 30" fill="none" xmlns="http://www.w3.org/2000/svg">
<path d="M27.4697 15.9728L28.2464 13.0746C29.1528 9.69164 29.606 8.00013 29.2647 6.53631C28.9953 5.38048 28.389 4.33052 27.5228 3.51922C26.4258 2.49171 24.7342 2.03848 21.3513 1.132C17.9682 0.22552 16.2766 -0.227713 14.8129 0.113607C13.657 0.383099 12.607 0.989289 11.7958 1.85552C10.916 2.7948 10.4573 4.16984 9.77458 6.66919C9.65994 7.08893 9.53889 7.54069 9.40855 8.02709L8.632 10.9252C7.72552 14.3082 7.27229 15.9997 7.61361 17.4635C7.8831 18.6194 8.48929 19.6694 9.35552 20.4807C10.4526 21.5082 12.1441 21.9614 15.5271 22.8679C18.5764 23.6849 20.2513 24.1338 21.6242 23.9644C21.7745 23.9459 21.921 23.92 22.0655 23.8862C23.2212 23.6168 24.2712 23.0106 25.0825 22.1444C26.11 21.0473 26.5633 19.3559 27.4697 15.9728Z" fill="url(#paint0_linear_751_9240)"/>
<path d="M1.132 19.0749L1.90855 21.973C2.81503 25.3561 3.26827 27.0475 4.29577 28.1446C5.10708 29.0108 6.15703 29.617 7.31284 29.8865C8.77669 30.2278 10.4682 29.7746 13.8513 28.8682C17.2342 27.9616 18.9258 27.5084 20.0228 26.4809C20.1139 26.3956 20.202 26.3077 20.2873 26.2173C19.786 26.1752 19.2803 26.0945 18.7663 25.9923C17.722 25.7847 16.4812 25.4523 15.0138 25.0591L14.8163 25.0061C13.2197 24.5783 11.8856 24.2202 10.8204 23.8354C9.70024 23.4306 8.68242 22.9318 7.81813 22.1223C6.62707 21.0068 5.79357 19.563 5.423 17.9739C5.15411 16.8205 5.23098 15.6897 5.44063 14.5172C5.64153 13.3937 6.00235 12.0473 6.43464 10.4341L7.26452 7.33691C4.38336 8.11306 2.86685 8.57225 1.85552 9.51946C0.98929 10.3308 0.383099 11.3807 0.113607 12.5365C-0.227713 14.0004 0.22552 15.6918 1.132 19.0749Z" fill="url(#paint1_linear_751_9240)"/>
<defs>
<linearGradient id="paint0_linear_751_9240" x1="-40.16" y1="-38.9515" x2="22.6301" y2="19.4977" gradientUnits="userSpaceOnUse">
<stop stop-color="#033AA7"/>
<stop offset="1" stop-color="#0774FF"/>
</linearGradient>
<linearGradient id="paint1_linear_751_9240" x1="-44.1942" y1="-29.4451" x2="15.0118" y2="24.6743" gradientUnits="userSpaceOnUse">
<stop stop-color="#033AA7"/>
<stop offset="1" stop-color="#0774FF"/>
</linearGradient>
</defs>
</svg>
