<svg width="30" height="30" viewBox="0 0 30 30" fill="none" xmlns="http://www.w3.org/2000/svg">
<g id="target 1" clip-path="url(#clip0_751_9745)">
<g id="layer1">
<path id="path18398" d="M15 0.936996C7.23905 0.936996 0.9375 7.23854 0.9375 14.9995C0.9375 22.7604 7.23905 29.062 15 29.062C22.761 29.062 29.0625 22.7604 29.0625 14.9995C29.0625 12.8424 28.5744 10.7983 27.7048 8.97069L26.3086 10.3669C26.045 10.632 25.6855 10.7815 25.3116 10.7816H24.9234C25.476 12.0777 25.7822 13.503 25.7822 14.9995C25.7822 20.9483 20.9488 25.7816 15 25.7816C9.05123 25.7816 4.21783 20.9483 4.21783 14.9995C4.21783 9.05073 9.05123 4.21727 15 4.21727C16.4968 4.21727 17.9224 4.52329 19.2188 5.07606V4.68786C19.2188 4.31398 19.3683 3.95452 19.6335 3.69088L21.0287 2.29472C19.2011 1.42508 17.1571 0.936996 15 0.936996ZM23.8934 0.936996C23.7735 0.940573 23.6594 0.989985 23.5748 1.07514L20.2945 4.35546C20.2507 4.39902 20.2159 4.45084 20.1922 4.50788C20.1685 4.56491 20.1563 4.62604 20.1563 4.68781V7.77593L13.9664 13.9658C13.3989 14.5332 13.3989 15.4684 13.9664 16.0358C14.5338 16.6032 15.4662 16.6005 16.0336 16.0322L22.2226 9.84327H25.3116C25.3734 9.84327 25.4345 9.83109 25.4915 9.80737C25.5486 9.78366 25.6004 9.74893 25.6439 9.70513L28.9243 6.42475C28.9895 6.35909 29.0339 6.27559 29.0517 6.18475C29.0696 6.09391 29.0602 5.9998 29.0246 5.91431C28.9891 5.82882 28.929 5.75577 28.852 5.70437C28.775 5.65297 28.6845 5.62552 28.5919 5.62549H26.4404L26.814 5.252C27.3814 4.68457 27.3841 3.75213 26.8168 3.18471C26.5331 2.90099 26.157 2.75899 25.7813 2.75899C25.4057 2.75899 25.0305 2.90106 24.7468 3.18471L24.3742 3.55733V1.4031C24.3739 1.34069 24.3612 1.27894 24.3368 1.22149C24.3124 1.16405 24.2768 1.11208 24.232 1.06859C24.1872 1.0251 24.1342 0.99098 24.0761 0.968247C24.018 0.945513 23.9558 0.935417 23.8934 0.936996ZM15 7.49765C10.8634 7.49765 7.49817 10.8629 7.49817 14.9995C7.49817 19.1361 10.8634 22.4977 15 22.4977C19.1366 22.4977 22.4982 19.1361 22.4982 14.9995C22.4982 13.8061 22.212 12.6806 21.7145 11.6779L19.1464 14.246C19.1909 14.4909 19.2178 14.742 19.2178 14.9995C19.2178 17.3239 17.3244 19.2173 15 19.2173C12.6756 19.2173 10.7822 17.3239 10.7822 14.9995C10.7822 12.6751 12.6756 10.7816 15 10.7816C15.2575 10.7816 15.5086 10.8086 15.7535 10.853L18.3225 8.28405C17.3197 7.78554 16.1942 7.49765 15 7.49765Z" fill="url(#paint0_linear_751_9745)"/>
</g>
</g>
<defs>
<linearGradient id="paint0_linear_751_9745" x1="15" y1="0.936035" x2="15" y2="29.062" gradientUnits="userSpaceOnUse">
<stop stop-color="#0774FF"/>
<stop offset="1" stop-color="#033AA7"/>
</linearGradient>
<clipPath id="clip0_751_9745">
<rect width="30" height="30" fill="white"/>
</clipPath>
</defs>
</svg>
