<svg width="30" height="30" viewBox="0 0 30 30" fill="none" xmlns="http://www.w3.org/2000/svg">
<g id="icon">
<path id="Vector" d="M23.372 8.51023C22.955 5.98594 21.6279 3.71411 19.6534 2.1446C17.679 0.57509 15.2012 -0.177639 12.7107 0.0354687C10.2202 0.248576 7.89861 1.41198 6.2057 3.2953C4.51278 5.17862 3.57197 7.64452 3.56955 10.2047C3.57011 10.688 3.60515 11.1705 3.67439 11.6486C2.43905 12.2291 1.42001 13.2031 0.769283 14.4254C0.118555 15.6478 -0.128985 17.0529 0.0635878 18.4311C0.256161 19.8093 0.878527 21.0868 1.83785 22.0731C2.79716 23.0593 4.04202 23.7014 5.38672 23.9036C6.12561 23.9841 6.86959 24.004 7.61158 23.9633C7.48345 23.7604 7.34367 23.5814 7.22718 23.3666C6.29947 21.7158 5.81703 19.842 5.82936 17.9372C5.82936 12.5077 9.61512 8.09258 14.2745 8.09258C18.9339 8.09258 22.708 12.5077 22.708 17.9372C22.7329 19.8556 22.2585 21.7461 21.3335 23.4144L20.9491 23.9991H22.114C24.1707 24.031 26.1558 23.2262 27.6341 21.761C29.1124 20.2958 29.9632 18.2899 30 16.1831C29.975 14.303 29.2923 12.4946 28.076 11.0866C26.8597 9.67855 25.1905 8.76436 23.372 8.51023Z" fill="url(#paint0_linear_751_9615)"/>
<path id="Vector_2" d="M14.4719 10C10.9039 10 8 13.533 8 17.8859C8.01171 19.4175 8.39992 20.9189 9.12554 22.2387C9.77872 23.1726 10.5345 24.0187 11.3766 24.7588C11.6513 24.9126 11.9559 24.9952 12.2658 25H16.7905C17.1004 24.9952 17.405 24.9126 17.6797 24.7588C18.5017 24.0283 19.2386 23.1943 19.8745 22.2749C20.6109 20.9468 20.9997 19.4306 21 17.8859C20.9325 13.533 18.0398 10 14.4719 10Z" fill="url(#paint1_linear_751_9615)"/>
<path id="Vector_3" d="M17.0584 26H11.9788C11.4336 26 11 26.3367 11 26.7273V28.2088C11 29.2054 12.2389 30 13.7381 30H15.2619C16.7735 30 18 29.2054 18 28.2088V26.7273C18 26.3636 17.5664 26 17.0584 26Z" fill="url(#paint2_linear_751_9615)"/>
</g>
<defs>
<linearGradient id="paint0_linear_751_9615" x1="-20.6897" y1="-7.86207" x2="6.51325" y2="30.084" gradientUnits="userSpaceOnUse">
<stop stop-color="#033AA7"/>
<stop offset="1" stop-color="#0774FF"/>
</linearGradient>
<linearGradient id="paint1_linear_751_9615" x1="-0.965517" y1="5.08621" x2="16.9768" y2="22.4391" gradientUnits="userSpaceOnUse">
<stop stop-color="#033AA7"/>
<stop offset="1" stop-color="#0774FF"/>
</linearGradient>
<linearGradient id="paint2_linear_751_9615" x1="6.17241" y1="24.6897" x2="10.0567" y2="32.2752" gradientUnits="userSpaceOnUse">
<stop stop-color="#033AA7"/>
<stop offset="1" stop-color="#0774FF"/>
</linearGradient>
</defs>
</svg>
