<svg width="84" height="28" viewBox="0 0 84 28" fill="none" xmlns="http://www.w3.org/2000/svg">
<path d="M3.40989 14.8387C3.40989 15.4132 3.55977 15.9878 3.83456 16.5124L1.23655 13.9144C-0.412184 12.2657 -0.412184 9.59269 1.23655 7.94396L3.83456 5.34595C3.55977 5.84556 3.40989 6.42012 3.40989 7.01967V14.8387Z" fill="#F58420"/>
<path d="M16.4492 3.87204C15.9246 3.59725 15.3501 3.44736 14.7755 3.44736H6.93153C6.35697 3.44736 5.78241 3.59725 5.25781 3.87204L7.8808 1.27403C9.52954 -0.374709 12.2025 -0.374709 13.8512 1.27403L16.4492 3.87204Z" fill="#F58420"/>
<path d="M20.498 13.8894L17.875 16.5124C18.1498 15.9878 18.2997 15.4132 18.2997 14.8386V6.99464C18.2997 6.42008 18.1498 5.84552 17.875 5.32092L20.498 7.94391C22.1467 9.56767 22.1467 12.2406 20.498 13.8894Z" fill="#F58420"/>
<path d="M16.4516 17.9363L13.8536 20.5343C12.2049 22.183 9.53191 22.183 7.88317 20.5343L5.28516 17.9363C5.80975 18.2111 6.38432 18.361 6.95888 18.361H14.8029C15.3774 18.361 15.952 18.2111 16.4516 17.9363Z" fill="#F58420"/>
<path d="M5.13303 9.143L9.08001 5.19602C10.0543 4.22177 11.653 4.22177 12.6273 5.19602L16.5743 9.143C17.5485 10.1173 17.5485 11.716 16.5743 12.6903L12.6273 16.6373C11.653 17.6115 10.0543 17.6115 9.08001 16.6373L5.13303 12.6903C4.15878 11.6911 4.15878 10.1173 5.13303 9.143Z" fill="#F58420"/>
<path d="M83.0751 18.1861V18.0612C83.0751 18.0861 83.0751 18.1361 83.0751 18.1861ZM77.0547 18.1861C77.0547 18.1361 77.0547 18.1111 77.0547 18.0612V18.1861Z" fill="#163B4F"/>
<path d="M77.0573 0.249817V2.623C75.4585 1.09917 73.3601 0.249817 71.1618 0.249817C66.1406 0.249817 62.0938 4.69641 62.0938 10.1672C62.0938 15.638 66.1406 20.0846 71.1618 20.0846C73.3601 20.0846 75.4585 19.2353 77.0573 17.7115V18.0612C77.0573 18.1111 77.0573 18.1361 77.0573 18.1861C77.0823 21.6334 75.0838 23.0324 70.3624 22.9574C67.5646 22.5078 66.7152 21.9332 64.8666 20.9839L62.4435 25.3556C66.4404 27.9286 71.1118 28.703 76.5577 27.3291C80.7045 25.9801 82.9528 23.0074 83.0777 18.1611C83.0777 18.1111 83.0777 18.0862 83.0777 18.0362V0.249817H77.0573ZM72.7356 15.0885C70.2375 15.0885 68.1891 12.8652 68.1891 10.1173C68.1891 7.36937 70.2125 5.14607 72.7356 5.14607C74.7591 5.14607 76.4827 6.61994 77.0573 8.64339C77.3321 9.61765 77.3321 10.6419 77.0573 11.6161C76.4827 13.6396 74.7591 15.0885 72.7356 15.0885Z" fill="#163B4F"/>
<path d="M47.1998 11.0166C47.1998 16.987 42.3536 21.8333 36.3831 21.8333C30.4127 21.8333 25.5664 16.987 25.5664 11.0166C25.5664 4.92123 30.4127 0 36.3831 0C42.3536 0 47.1998 4.92123 47.1998 11.0166ZM36.3082 5.221C33.91 5.221 31.9865 7.76905 31.9865 10.8917C31.9865 14.0143 33.935 16.5623 36.3082 16.5623C38.6814 16.5623 40.6299 14.0143 40.6299 10.8917C40.6299 7.76905 38.7063 5.221 36.3082 5.221Z" fill="#163B4F"/>
<path d="M61.6917 0.574539L60.6925 6.61991C60.2428 6.42006 59.8182 6.2452 58.3693 6.3701C56.1959 6.79478 55.1717 8.26865 54.847 10.3421V21.1088H48.8516V0.624502H54.872V2.7229C56.2959 0.699445 58.5192 -0.199868 61.6917 0.574539Z" fill="#163B4F"/>
</svg>
