<svg width="105" height="28" viewBox="0 0 105 28" fill="none" xmlns="http://www.w3.org/2000/svg">
<path d="M28.3891 14.6482C28.3891 12.2804 28.3426 10.2839 28.2266 8.56607H33.3569L33.6355 11.1661H33.7516C35.0748 9.23929 37.2801 8.125 39.6016 8.125C43.4783 8.125 46.4033 10.6554 46.4033 16.2964V27.5554H40.4837V17.0625C40.4837 14.625 39.648 12.9768 37.5123 12.9768C36.1426 12.9768 34.9123 13.8589 34.5408 15.1821C34.3783 15.6232 34.3087 16.1107 34.3087 16.6214V27.5554H28.3891V14.6482Z" fill="#163B4F"/>
<path d="M49.2148 0H55.1345V27.5089H49.2148V0Z" fill="#163B4F"/>
<path d="M64.0232 3.31965C64.0232 4.92143 62.8161 6.24465 60.8197 6.24465C59.2179 6.36072 57.8482 5.13036 57.7786 3.52857C57.7786 3.4125 57.7786 3.36607 57.7786 3.25C57.7322 1.53215 58.9857 0.278574 60.8661 0.278574C62.4679 0.162502 63.9072 1.43929 64.0232 3.04108C64.0232 3.15715 64.0232 3.25 64.0232 3.31965ZM57.9411 27.5554V8.54286H63.8607V27.4857L57.9411 27.5554Z" fill="#163B4F"/>
<path d="M66.6039 14.6482C66.6039 12.2804 66.5575 10.2839 66.4414 8.56607H71.5718L71.8503 11.1661H71.9664C73.2896 9.23929 75.495 8.125 77.8164 8.125C81.6932 8.125 84.6182 10.6554 84.6182 16.2964V27.5554H78.6985V17.0625C78.6985 14.625 77.8628 12.9768 75.7271 12.9768C74.3575 12.9768 73.1271 13.8589 72.7557 15.1821C72.5932 15.6696 72.5235 16.1804 72.5235 16.6679V27.625H66.6039V14.6482Z" fill="#163B4F"/>
<path d="M91.9035 19.941C92.1356 22.3785 94.5035 23.5393 97.266 23.5393C99.0302 23.5393 100.795 23.3071 102.512 22.7732L103.278 26.7428C101.073 27.5786 98.7517 27.95 96.4302 27.9036C89.9767 27.9036 86.332 24.2125 86.332 18.2464C86.332 13.4411 89.3035 8.14819 95.8963 8.14819C102.025 8.14819 104.346 12.9071 104.346 17.5964C104.346 18.3625 104.3 19.1518 104.114 19.9178L91.9035 19.941ZM98.8677 15.9018C98.8677 14.4625 98.2642 12.025 95.5481 12.025C93.0642 12.025 92.066 14.3 91.9035 15.9018H98.8677Z" fill="#163B4F"/>
<path d="M17.0162 8.125C10.934 8.125 6.91797 12.0482 6.91797 18.1768C6.91797 18.3393 6.91797 18.5018 6.91797 18.6643C8.7519 19.7786 9.84297 21.7518 9.84297 23.9107C9.84297 24.3982 9.79654 24.9089 9.68047 25.35C11.6073 27.1143 14.0912 28.0661 16.6912 27.9964C21.7751 27.9964 26.6965 24.7929 26.6965 17.8982C26.6733 12.1411 22.8198 8.125 17.0162 8.125ZM16.8537 23.7482C14.3233 23.7482 12.9769 21.3107 12.9769 18.0607C12.9769 15.2982 14.0215 12.3732 16.8537 12.3732C19.5001 12.3732 20.6144 15.2518 20.6144 18.0607C20.5912 21.4268 19.1519 23.7482 16.8537 23.7482Z" fill="#163B4F"/>
<path d="M4.08571 27.834C6.34219 27.834 8.17143 26.0047 8.17143 23.7482C8.17143 21.4918 6.34219 19.6625 4.08571 19.6625C1.82924 19.6625 0 21.4918 0 23.7482C0 26.0047 1.82924 27.834 4.08571 27.834Z" fill="#0FA64B"/>
</svg>
