<svg width="48" height="28" viewBox="0 0 48 28" fill="none" xmlns="http://www.w3.org/2000/svg">
<path d="M47.8293 6.85029C47.8293 3.18287 44.8512 0 41.1903 0H11.9123C8.15649 0.00950109 5.11203 3.06885 5.12152 6.84078C5.12152 7.55337 5.23533 8.25645 5.46295 8.94053C4.17309 9.20656 2.98755 9.83363 2.04861 10.7552C0.730291 12.0664 0 13.8906 0 15.9048C0 17.9381 0.749259 19.7813 2.115 21.0829C3.03497 21.9665 4.62833 23.0021 7.10373 23.0021H11.8174C13.0599 23.0021 14.2739 22.6601 15.3456 22.014C15.706 25.4344 18.6082 28.0282 22.051 27.9997C24.5548 28.0187 26.9733 27.0971 28.8417 25.4249C29.8376 24.5413 30.7101 23.4677 31.4594 22.1565C32.3414 22.5746 33.2993 22.7836 34.2667 22.7836H41.4179C45.0599 22.7836 48 19.8288 48 16.1899L47.8293 6.85029ZM7.09425 17.672C6.01304 17.672 5.38708 17.121 5.38708 15.9903C5.38708 14.8217 6.00356 14.2516 7.09425 14.2516C8.18494 14.2516 8.77297 14.8217 8.77297 15.9903C8.78245 17.121 8.18494 17.672 7.09425 17.672ZM19.1108 17.672C18.722 17.672 18.2573 17.4915 17.9917 17.121C17.1855 15.9998 15.4499 13.5391 15.4499 13.5391C15.4499 13.5391 13.7143 15.9998 12.9081 17.121C12.652 17.482 12.1873 17.672 11.789 17.672C11.0207 17.6815 10.3948 17.0545 10.3853 16.2849C10.3853 16.2754 10.3853 16.2754 10.3853 16.2659C10.3853 15.8763 10.5181 15.6483 10.6698 15.4108L13.7996 11.4678L10.7931 7.74339C10.6034 7.49636 10.5086 7.19232 10.5086 6.88829C10.5086 6.1187 11.1251 5.49163 11.8933 5.49163C11.9028 5.49163 11.9028 5.49163 11.9123 5.49163C12.3485 5.49163 12.7564 5.69115 13.0314 6.04269L15.4689 9.38708L17.9063 6.04269C18.1719 5.70065 18.5892 5.49163 19.0255 5.49163C19.7937 5.49163 20.4197 6.1092 20.4197 6.87879C20.4197 6.88829 20.4197 6.88829 20.4197 6.89779C20.4292 7.21133 20.3248 7.51536 20.1352 7.75289L17.1097 11.4868L20.2395 15.4298C20.3912 15.6673 20.524 15.8953 20.524 16.2849C20.505 17.0545 19.8886 17.6815 19.1108 17.672ZM32.2087 7.42035L27.4001 18.3086C26.262 20.8549 24.6307 22.6601 22.0415 22.6601C21.2922 22.6601 20.6947 22.109 20.6947 21.368C20.6947 20.6174 21.2922 20.0758 22.0415 20.0758C23.7012 20.0758 24.479 18.7552 25.3231 16.6269L21.3397 7.42035C21.2733 7.24933 21.2353 7.06881 21.2353 6.86929C21.2353 6.0997 21.8518 5.47263 22.62 5.47263C22.6295 5.47263 22.6295 5.47263 22.639 5.47263C23.2175 5.46313 23.7297 5.82417 23.9289 6.35623L26.7742 13.5676L29.6194 6.35623C29.8281 5.81467 30.3402 5.47263 30.9093 5.47263C31.6775 5.47263 32.3035 6.0902 32.3035 6.85979C32.3035 6.86929 32.3035 6.86929 32.3035 6.87879C32.313 7.06881 32.275 7.24933 32.2087 7.42035ZM41.3989 17.463H34.2573C33.6028 17.4535 33.0717 16.9214 33.0717 16.2754C33.0717 15.9143 33.2045 15.7053 33.3563 15.4963L36.4386 11.3538L38.3924 8.7315L38.914 8.01892H34.5323C33.8874 8.01892 33.3657 7.49636 33.3657 6.85029C33.3657 6.20421 33.8874 5.68165 34.5323 5.68165H41.1808C41.8731 5.69115 42.4327 6.25172 42.4327 6.93579C42.4327 7.22083 42.3284 7.50586 42.1482 7.72439L36.6852 15.0782H41.3989C42.0533 15.0782 42.5845 15.6103 42.5845 16.2754C42.5845 16.9214 42.0533 17.463 41.3989 17.463Z" fill="#492055"/>
</svg>
