<svg width="70" height="29" viewBox="0 0 70 29" fill="none" xmlns="http://www.w3.org/2000/svg">
<path d="M9.30714 23.2961C9.30638 24.2163 9.03282 25.1157 8.52102 25.8805C8.00922 26.6452 7.28217 27.2411 6.43177 27.5927C5.58138 27.9444 4.64582 28.036 3.74337 27.856C2.84092 27.676 2.01209 27.2325 1.36165 26.5815C0.711222 25.9306 0.268391 25.1014 0.0891407 24.1988C-0.0901096 23.2962 0.00226888 22.3607 0.354598 21.5106C0.706928 20.6605 1.30339 19.9339 2.06858 19.4227C2.83377 18.9116 3.73334 18.6387 4.65357 18.6387C5.26501 18.6387 5.87045 18.7592 6.43529 18.9933C7.00014 19.2274 7.51331 19.5706 7.94549 20.0031C8.37766 20.4356 8.72036 20.9491 8.954 21.5141C9.18764 22.0791 9.30764 22.6847 9.30714 23.2961Z" fill="#FDCC0F"/>
<path d="M31.4308 25.4495C31.4308 26.8063 30.7753 27.4618 29.4185 27.4618H26.4457C25.0889 27.4618 24.4333 26.8063 24.4333 25.4495V13.3792C24.4333 11.7632 23.8654 10.6693 21.9865 10.6693C20.6099 10.6921 19.2652 11.0872 18.0952 11.8127V25.4571C18.0952 26.8139 17.4396 27.4695 16.0828 27.4695H13.11C11.7532 27.4695 11.0977 26.8139 11.0977 25.4571V7.62414C11.0977 6.27113 11.7532 5.61178 13.11 5.61178H14.2038C15.1681 5.61178 15.5607 6.09201 16.1705 7.18584C18.4687 5.78519 21.1018 5.02949 23.793 4.99817C29.7386 4.99817 31.4461 8.14628 31.4461 12.3425L31.4308 25.4495Z" fill="#231F20"/>
<path d="M51.1969 18.8484H40.3081C40.1328 21.6916 41.6192 22.5225 45.0303 22.5225C46.6831 22.565 48.3328 22.3582 49.9239 21.9088C51.6733 21.5277 52.6757 22.5644 52.6757 23.8755V24.7063C52.6757 25.8878 52.2374 26.612 51.1016 27.0236C48.8354 27.724 46.4762 28.0774 44.1041 28.0717C36.8894 28.0717 33.3906 24.3976 33.3906 16.5273C33.3906 8.65704 36.8436 4.98297 43.6239 4.98297C52.0621 4.98297 53.3731 10.6656 53.2016 16.8322C53.2016 18.1433 52.5461 18.8446 51.1893 18.8446M40.3081 14.5607H46.5167C46.8978 12.1558 46.3871 10.2311 43.7192 10.2311C41.36 10.2311 40.3081 11.8052 40.3081 14.5607Z" fill="#231F20"/>
<path d="M57.4466 2.92867C57.4466 1.65952 57.9687 1.1793 59.5466 0.741001L61.8333 0.127385C63.6437 -0.349024 64.4441 0.569494 64.4441 1.90725V5.58132H67.8742C69.231 5.58132 69.8866 6.23686 69.8866 7.59368V9.38879C69.8866 10.7456 69.231 11.4011 67.8742 11.4011H64.4441V19.7631C64.4441 21.4705 65.0996 22.431 67.3292 22.431H67.7675C68.0135 22.4205 68.259 22.4606 68.4889 22.5486C68.7188 22.6367 68.9283 22.7709 69.1043 22.9431C69.2804 23.1152 69.4193 23.3215 69.5126 23.5494C69.6058 23.7773 69.6514 24.0218 69.6465 24.268V25.7087C69.6621 26.2281 69.4894 26.7356 69.1602 27.1377C68.8309 27.5398 68.3674 27.8092 67.8551 27.8963C67.2066 28.0167 66.5481 28.0754 65.8885 28.0717C59.68 28.0717 57.4504 25.4914 57.4504 20.331V11.4126H55.7467C54.3899 11.4126 53.7344 10.757 53.7344 9.40022V8.38642C53.7344 7.24304 54.2146 6.68278 55.4837 6.33214L57.4504 5.80619L57.4466 2.92867Z" fill="#231F20"/>
</svg>
