<svg width="85" height="21" viewBox="0 0 85 21" fill="none" xmlns="http://www.w3.org/2000/svg">
<path id="Vector 24" d="M81.771 20.6883C82.0165 20.8148 82.318 20.7183 82.4445 20.4728L84.5053 16.4724C84.6317 16.227 84.5353 15.9254 84.2898 15.799C84.0443 15.6725 83.7428 15.769 83.6163 16.0145L81.7845 19.5704L78.2286 17.7386C77.9831 17.6121 77.6816 17.7086 77.5551 17.9541C77.4287 18.1996 77.5251 18.5011 77.7706 18.6275L81.771 20.6883ZM1.30172 11.643C1.68222 11.3551 2.07874 11.072 2.4906 10.7938L1.93091 9.96509C1.50494 10.2528 1.09379 10.5463 0.698278 10.8456L1.30172 11.643ZM5.02646 9.24849C5.86503 8.78564 6.74785 8.34021 7.67073 7.91313L7.25075 7.0056C6.30806 7.44185 5.40403 7.89788 4.54323 8.373L5.02646 9.24849ZM10.403 6.7475C11.3074 6.39173 12.2412 6.05198 13.2013 5.7289L12.8823 4.78113C11.9073 5.10927 10.9577 5.45471 10.0369 5.8169L10.403 6.7475ZM16.0483 4.84139C16.9906 4.56983 17.9528 4.31344 18.9324 4.07275L18.6938 3.10163C17.7018 3.34538 16.7268 3.60516 15.7714 3.8805L16.0483 4.84139ZM21.8453 3.41376C22.8112 3.21344 23.7905 3.02793 24.7807 2.85766L24.6113 1.87213C23.61 2.04429 22.6195 2.23191 21.6422 2.43459L21.8453 3.41376ZM27.7339 2.39968C28.7155 2.26372 29.7052 2.14259 30.7008 2.03669L30.5951 1.0423C29.589 1.14931 28.5889 1.27172 27.5967 1.40914L27.7339 2.39968ZM33.6779 1.76698C34.6695 1.69269 35.6648 1.63361 36.6616 1.59011L36.618 0.591062C35.6108 0.635018 34.6051 0.694717 33.6032 0.769778L33.6779 1.76698ZM39.6489 1.5068C40.646 1.49479 41.6426 1.49871 42.6365 1.51894L42.6568 0.519144C41.652 0.498696 40.6446 0.494735 39.6369 0.506876L39.6489 1.5068ZM45.6208 1.62958C46.6189 1.68355 47.612 1.75459 48.5981 1.84307L48.6875 0.847066C47.6893 0.757505 46.6844 0.685631 45.6748 0.631036L45.6208 1.62958ZM51.5653 2.16531C52.5596 2.2926 53.5441 2.43861 54.5166 2.60374L54.684 1.61786C53.6977 1.45036 52.6996 1.30236 51.6923 1.17341L51.5653 2.16531ZM57.4442 3.16746C58.4257 3.3797 59.3915 3.61296 60.3391 3.86765L60.5987 2.90193C59.6344 2.64275 58.6525 2.40564 57.6555 2.19005L57.4442 3.16746ZM63.1894 4.71777C64.1447 5.03253 65.0768 5.37147 65.9825 5.73504L66.355 4.80701C65.4286 4.43515 64.4767 4.08902 63.5024 3.768L63.1894 4.71777ZM68.6974 6.93872C69.6007 7.38036 70.4705 7.85033 71.3035 8.34917L71.8173 7.49124C70.9586 6.97701 70.0638 6.49365 69.1366 6.04035L68.6974 6.93872ZM73.762 9.98729C74.5631 10.5819 75.3182 11.2096 76.0234 11.8711L76.7075 11.1417C75.9728 10.4525 75.1881 9.8004 74.358 9.18431L73.762 9.98729ZM78.0288 14.0108C78.6507 14.7706 79.2145 15.5677 79.7155 16.4031L80.5731 15.8887C80.0461 15.0102 79.4542 14.1734 78.8026 13.3774L78.0288 14.0108ZM81.0224 19.0151C81.206 19.4657 81.3733 19.926 81.5238 20.3962L82.4762 20.0915C82.3179 19.5967 82.1418 19.1122 81.9485 18.6378L81.0224 19.0151Z" fill="#0774FF"/>
</svg>
