<svg width="32" height="30" viewBox="0 0 32 30" fill="none" xmlns="http://www.w3.org/2000/svg">
<g id="icon">
<path id="Vector" d="M22.5499 11.587L19.3596 5.73918H22.1807L28.7973 11.587H22.5499ZM9.74639 5.73918H6.9254L0.314801 11.587H6.56219L9.74639 5.73918ZM21.1697 11.587L17.9794 5.73918H11.1266L7.94241 11.587H21.1697ZM7.80925 12.7978L14.5107 29.6451L21.2907 12.7978H7.80925ZM0 12.7978L12.5674 28.0227L6.50769 12.7978H0ZM22.5984 12.7978L16.5447 27.829L29.1 12.7978H22.5984ZM2.01008 2.88021H3.0745V3.94462C3.0745 4.10517 3.13828 4.25915 3.25181 4.37268C3.36533 4.48621 3.51931 4.54999 3.67986 4.54999C3.84042 4.54999 3.9944 4.48621 4.10792 4.37268C4.22145 4.25915 4.28523 4.10517 4.28523 3.94462V2.88021H5.34935C5.5099 2.88021 5.66388 2.81643 5.77741 2.7029C5.89094 2.58937 5.95472 2.43539 5.95472 2.27484C5.95472 2.11428 5.89094 1.96031 5.77741 1.84678C5.66388 1.73325 5.5099 1.66947 5.34935 1.66947H4.28523V0.605368C4.28523 0.444814 4.22145 0.290837 4.10792 0.177308C3.9944 0.0637798 3.84042 0 3.67986 0C3.51931 0 3.36533 0.0637798 3.25181 0.177308C3.13828 0.290837 3.0745 0.444814 3.0745 0.605368V1.66949H2.01008C1.85164 1.67268 1.70077 1.73786 1.58985 1.85104C1.47893 1.96422 1.4168 2.11637 1.4168 2.27485C1.4168 2.43332 1.47893 2.58547 1.58985 2.69865C1.70077 2.81183 1.85164 2.87701 2.01008 2.88021ZM31.4064 18.7856H30.3423V17.7211C30.3418 17.5609 30.2778 17.4074 30.1643 17.2943C30.0509 17.1812 29.8972 17.1176 29.7369 17.1176C29.5767 17.1176 29.423 17.1812 29.3095 17.2943C29.1961 17.4074 29.1321 17.5609 29.1316 17.7211V18.7856H28.0669C27.9872 18.7853 27.9083 18.8008 27.8346 18.8311C27.761 18.8614 27.694 18.906 27.6376 18.9622C27.5812 19.0185 27.5364 19.0853 27.5059 19.1588C27.4754 19.2324 27.4596 19.3113 27.4596 19.3909C27.4596 19.4706 27.4754 19.5495 27.5059 19.623C27.5364 19.6966 27.5812 19.7634 27.6376 19.8196C27.694 19.8759 27.761 19.9204 27.8346 19.9508C27.9083 19.9811 27.9872 19.9965 28.0669 19.9963H29.1316V21.0604C29.1313 21.1401 29.1468 21.219 29.1771 21.2927C29.2074 21.3663 29.252 21.4333 29.3082 21.4897C29.3645 21.5461 29.4313 21.5909 29.5048 21.6214C29.5784 21.6519 29.6573 21.6676 29.7369 21.6676C29.8166 21.6676 29.8955 21.6519 29.969 21.6214C30.0426 21.5909 30.1094 21.5461 30.1657 21.4897C30.2219 21.4333 30.2664 21.3663 30.2968 21.2927C30.3271 21.219 30.3425 21.1401 30.3423 21.0604V19.9963H31.4064C31.5649 19.9932 31.7159 19.928 31.8268 19.8148C31.9378 19.7017 32 19.5495 32 19.3909C32 19.2324 31.9378 19.0802 31.8268 18.967C31.7159 18.8538 31.5649 18.7887 31.4064 18.7856Z" fill="url(#paint0_linear_751_9487)"/>
</g>
<defs>
<linearGradient id="paint0_linear_751_9487" x1="-4.74228e-07" y1="14.8226" x2="12.2068" y2="47.5194" gradientUnits="userSpaceOnUse">
<stop stop-color="#0774FF"/>
<stop offset="1" stop-color="#033AA7"/>
</linearGradient>
</defs>
</svg>
