<svg width="52" height="50" viewBox="0 0 52 50" fill="none" xmlns="http://www.w3.org/2000/svg">
<path d="M36.6755 12.0195C36.9954 12.3383 36.9954 12.8552 36.6755 13.1739C36.5155 13.3333 36.3058 13.413 36.0962 13.413C35.8865 13.413 35.6769 13.3333 35.5169 13.1739C30.2694 7.94476 21.7308 7.94476 16.4833 13.1739C16.1633 13.4928 15.6447 13.4928 15.3247 13.1739C15.0048 12.8552 15.0048 12.3383 15.3247 12.0195C21.2112 6.15375 30.7889 6.15375 36.6755 12.0195ZM26.0001 11.4073C22.9845 11.4073 20.1493 12.5775 18.0169 14.7024C17.697 15.0212 17.697 15.538 18.0169 15.8568C18.3369 16.1756 18.8555 16.1756 19.1755 15.8568C20.9984 14.0402 23.4221 13.0398 25.9999 13.0398C28.5778 13.0398 31.0015 14.0402 32.8244 15.8568C32.9844 16.0162 33.194 16.0959 33.4037 16.0959C33.6133 16.0959 33.823 16.0162 33.983 15.8568C34.3029 15.538 34.3029 15.0212 33.983 14.7024C31.8507 12.5775 29.0156 11.4073 26.0001 11.4073ZM26.0001 15.2014C24.0013 15.2014 22.1225 15.977 20.7092 17.3852C20.3893 17.704 20.3893 18.2208 20.7092 18.5396C21.0292 18.8585 21.5477 18.8583 21.8677 18.5396C22.9714 17.4397 24.439 16.834 25.9999 16.834C27.5609 16.834 29.0284 17.4397 30.1322 18.5396C30.2921 18.699 30.5018 18.7787 30.7114 18.7787C30.9211 18.7787 31.1308 18.699 31.2907 18.5396C31.6106 18.2208 31.6106 17.704 31.2907 17.3852C29.8776 15.977 27.9987 15.2014 26.0001 15.2014ZM28.8196 21.8051C28.8196 23.3544 27.5547 24.6149 26.0001 24.6149C24.4454 24.6149 23.1805 23.3544 23.1805 21.8051C23.1805 20.2558 24.4454 18.9954 26.0001 18.9954C27.5547 18.9954 28.8196 20.2559 28.8196 21.8051ZM27.1812 21.8051C27.1812 21.1561 26.6513 20.6281 26.0001 20.6281C25.3488 20.6281 24.8189 21.156 24.8189 21.8051C24.8189 22.4542 25.3488 22.9823 26.0001 22.9823C26.6513 22.9823 27.1812 22.4542 27.1812 21.8051ZM52 41.0501V48.0893C52 49.1428 51.1399 49.9998 50.0828 49.9998H37.341C36.2839 49.9998 35.4238 49.1428 35.4238 48.0893V39.3687C35.4238 38.3154 36.2838 37.4583 37.341 37.4583H39.2428C39.4273 37.4583 39.6065 37.5204 39.7512 37.6345L41.6597 39.1397H42.8928V34.0393H26.8192V39.1397H32.371C33.4281 39.1397 34.2882 39.9968 34.2882 41.0502V48.0894C34.2882 49.1429 33.4282 49.9999 32.371 49.9999H19.6291C18.572 49.9999 17.712 49.1429 17.712 48.0894V39.3688C17.712 38.3155 18.5719 37.4584 19.6291 37.4584H21.5309C21.7155 37.4584 21.8947 37.5205 22.0394 37.6346L23.9479 39.1398H25.1809V34.0395H9.10727V39.1398H14.659C15.7161 39.1398 16.5763 39.9969 16.5763 41.0503V48.0895C16.5763 49.143 15.7162 50 14.659 50H1.91712C0.86005 50 0 49.143 0 48.0895V39.3689C0 38.3156 0.859948 37.4585 1.91712 37.4585H3.81897C4.0035 37.4585 4.1827 37.5206 4.32739 37.6347L6.2359 39.1399H7.46889V33.2232C7.46889 32.7724 7.83568 32.4069 8.28808 32.4069H25.1809V28.5294H14.9862C9.76877 28.5294 5.52412 24.2996 5.52412 19.1005C5.52412 16.8722 6.32867 14.7037 7.7896 12.9946C9.0997 11.4621 10.8599 10.3893 12.802 9.92751C13.0955 4.40406 17.6973 0 23.3119 0C26.4082 0 29.3611 1.37857 31.3515 3.7206C32.1966 3.29039 33.1315 3.0658 34.094 3.0658C37.4249 3.0658 40.1349 5.7662 40.1349 9.08558C40.1349 9.45088 40.1021 9.81312 40.037 10.1691C41.7431 10.7483 43.2744 11.8176 44.4106 13.2364C45.7425 14.8993 46.476 16.982 46.476 19.1005C46.476 24.2996 42.2313 28.5294 37.0139 28.5294H26.8192V32.4069H43.712C44.1644 32.4069 44.5312 32.7724 44.5312 33.2232V39.1399H50.0829C51.14 39.1397 52 39.9968 52 41.0501ZM14.9862 26.8965H37.0138C41.3279 26.8965 44.8375 23.3992 44.8375 19.1003C44.8375 15.4951 42.3774 12.3798 38.8548 11.5243C38.6323 11.4703 38.4428 11.326 38.332 11.1263C38.2212 10.9266 38.1993 10.6899 38.2717 10.4733C38.4209 10.027 38.4964 9.56006 38.4964 9.08547C38.4964 6.6664 36.5215 4.69835 34.0939 4.69835C33.2035 4.69835 32.3459 4.96192 31.6138 5.46039C31.2488 5.70896 30.7514 5.62406 30.4903 5.26814C28.8203 2.99172 26.1368 1.63265 23.3119 1.63265C18.4119 1.63265 14.4256 5.60508 14.4256 10.4878L14.4269 10.5898C14.4313 10.9935 14.1389 11.3399 13.7388 11.4043C9.98975 12.0097 7.16251 15.3182 7.16251 19.1002C7.16251 23.3992 10.6721 26.8965 14.9862 26.8965ZM14.659 40.7724H5.95092C5.7664 40.7724 5.5872 40.7103 5.44251 40.5962L3.534 39.091H1.91712C1.76597 39.091 1.63839 39.2182 1.63839 39.3687V48.0893C1.63839 48.2399 1.76597 48.3671 1.91712 48.3671H14.659C14.8102 48.3671 14.9379 48.2399 14.9379 48.0893V41.0501C14.9379 40.8995 14.8102 40.7724 14.659 40.7724ZM32.371 40.7724H23.6629C23.4784 40.7724 23.2992 40.7103 23.1545 40.5962L21.246 39.091H19.6291C19.4779 39.091 19.3504 39.2182 19.3504 39.3687V48.0893C19.3504 48.2399 19.4779 48.3671 19.6291 48.3671H32.371C32.5222 48.3671 32.6498 48.2399 32.6498 48.0893V41.0501C32.6497 40.8995 32.5221 40.7724 32.371 40.7724ZM50.3616 41.0501C50.3616 40.8995 50.2339 40.7723 50.0828 40.7723H41.3747C41.1901 40.7723 41.0109 40.7102 40.8662 40.5961L38.9577 39.0909H37.3409C37.1897 39.0909 37.0621 39.2181 37.0621 39.3686V48.0892C37.0621 48.2398 37.1897 48.367 37.3409 48.367H50.0828C50.2339 48.367 50.3616 48.2398 50.3616 48.0892V41.0501Z" fill="white"/>
</svg>
