<svg width="308" height="194" viewBox="0 0 308 194" fill="none" xmlns="http://www.w3.org/2000/svg">
<mask id="mask0_361_4531" style="mask-type:luminance" maskUnits="userSpaceOnUse" x="-3" y="-4" width="335" height="202">
<path d="M332 197.6H-3V-3.66411H332V197.6Z" fill="white"/>
</mask>
<g mask="url(#mask0_361_4531)">
<path d="M376.514 22.2452C369.03 43.445 361.299 65.3694 347.597 83.9863C332.83 104.052 311.9 117.316 288.664 121.334C282.741 122.361 276.611 122.87 270.252 122.87C252.866 122.87 233.757 119.033 212.344 111.284C199.286 106.555 186.596 100.477 174.328 94.5996C164.593 89.937 154.523 85.1067 144.333 80.9875C138.812 78.7534 131.629 76.2041 124.889 76.2041C124.822 76.2041 124.755 76.2041 124.688 76.2041C121.325 76.2309 118.249 76.9018 115.543 78.2033C112.541 79.6457 109.861 81.92 107.583 84.9725C103.014 91.0909 99.9719 98.3767 97.0306 105.428C96.5616 106.548 96.0792 107.709 95.5968 108.836C91.6036 118.235 87.0744 128.888 81.634 138.891C69.9559 160.346 53.3265 173.394 26.0106 182.512C0.362961 191.072 -41.1838 189.791 -66.6036 179.647C-111.648 161.674 -119.266 149.001 -126.636 136.751C-128.733 133.262 -130.716 129.962 -133.55 126.587C-139.419 119.59 -137.409 111.922 -135.279 103.804C-134.448 100.631 -133.583 97.3435 -133.155 93.9824L-133.222 93.9757C-133.65 97.3368 -134.515 100.617 -135.346 103.791C-136.431 107.93 -137.456 111.841 -137.49 115.652C-137.523 119.939 -136.29 123.427 -133.604 126.634C-130.776 130.002 -128.793 133.303 -126.696 136.791C-123.078 142.809 -119.339 149.028 -110.857 156.012C-106.268 159.782 -100.76 163.412 -94.0066 167.108C-86.3887 171.281 -77.4308 175.4 -66.6304 179.714C-60.4798 182.17 -53.2639 184.149 -45.177 185.604C-37.3514 187.013 -29.0635 187.865 -20.5478 188.134C-12.0053 188.409 -3.67714 188.087 4.20206 187.174C12.3895 186.228 19.7327 184.679 26.024 182.579C39.5245 178.071 49.8492 172.925 58.5056 166.377C67.9191 159.259 75.5035 150.283 81.6809 138.925C87.128 128.922 91.6505 118.262 95.6504 108.863C96.1261 107.735 96.6152 106.575 97.0842 105.454C100.025 98.4102 103.061 91.1245 107.63 85.0195C117.104 72.3398 130.859 75.6204 144.306 81.0613C154.496 85.1805 164.567 90.0041 174.302 94.6667C186.569 100.544 199.259 106.629 212.324 111.358C225.892 116.269 238.193 119.536 249.925 121.341C256.571 122.361 263.09 122.904 269.294 122.951C275.961 123.005 282.48 122.481 288.677 121.415C300.49 119.375 311.632 115.028 321.795 108.507C331.678 102.167 340.381 93.9355 347.657 84.04C353.761 75.7479 359.228 66.0067 364.381 54.2663C369.037 43.653 372.876 32.7847 376.581 22.2788L376.514 22.2452Z" fill="url(#paint0_linear_361_4531)" fill-opacity="0.2"/>
<path d="M376.488 25.8546C366.881 47.2489 357.775 64.8796 344.583 81.3564C329.957 99.6647 308.919 112.472 285.335 117.43C260.766 122.595 235.105 120.563 209.055 111.385C195.28 106.474 181.947 99.8593 169.056 93.4725C160.139 89.0514 150.919 84.476 141.627 80.5044C136.146 78.163 128.99 75.446 122.277 75.2581C118.967 75.1642 115.925 75.7009 113.245 76.8414C110.271 78.1094 107.611 80.1757 105.326 82.9934C100.978 88.3604 97.9492 94.774 95.0146 100.98C94.3714 102.342 93.7081 103.744 93.0448 105.112C91.6915 107.89 90.3649 110.687 88.9579 113.639C85.6346 120.63 82.1975 127.855 78.412 134.913C66.5865 156.857 50.2653 170.295 23.8472 179.862C-1.09686 188.892 -41.6319 188.033 -66.5023 177.956C-110.092 160.292 -117.61 147.814 -124.879 135.751C-126.93 132.35 -128.866 129.13 -131.599 125.822C-137.475 118.704 -135.7 110.909 -133.824 102.657C-133.1 99.4702 -132.35 96.1762 -132.015 92.8084L-132.095 92.8017C-132.437 96.1628 -133.181 99.4568 -133.904 102.643C-135.78 110.909 -137.556 118.724 -131.66 125.876C-128.933 129.177 -126.997 132.39 -124.946 135.792C-121.369 141.729 -117.67 147.867 -109.409 154.737C-104.947 158.447 -99.5936 162.016 -93.0477 165.646C-85.6643 169.745 -76.9878 173.797 -66.5291 178.03C-53.1827 183.444 -35.3339 186.195 -17.8067 186.195C-2.63786 186.195 12.2964 184.135 23.8807 179.942C30.2792 177.628 35.8871 175.172 41.0327 172.448C46.4664 169.57 51.2569 166.444 55.6856 162.902C64.8512 155.562 72.3083 146.425 78.4857 134.96C82.2712 127.895 85.7083 120.67 89.0315 113.679C90.4385 110.721 91.7651 107.93 93.1185 105.153C93.7818 103.784 94.4451 102.382 95.0883 101.02C98.0163 94.821 101.045 88.4074 105.386 83.0471C114.88 71.3335 128.401 74.9361 141.593 80.5782C150.879 84.5498 160.098 89.1185 169.016 93.5396C181.907 99.9331 195.24 106.541 209.022 111.459C235.085 120.636 260.766 122.676 285.348 117.503C297.187 115.014 308.316 110.627 318.419 104.468C328.503 98.323 337.32 90.5609 344.643 81.4034C351.042 73.4132 356.904 64.571 362.566 54.3669C368.174 44.2635 372.991 33.838 376.562 25.8881L376.488 25.8546Z" fill="url(#paint1_linear_361_4531)" fill-opacity="0.2"/>
<path d="M376.468 29.4639C366.023 47.7924 354.941 63.4507 341.575 78.7266C327.029 95.4382 306.426 107.467 282.005 113.525C254.388 120.375 229.45 119.704 205.759 111.486C191.287 106.468 177.364 99.2891 163.904 92.3589C155.77 88.1659 147.362 83.8387 138.92 80.0214C133.526 77.5861 126.491 74.7416 119.872 74.3189C119.295 74.2854 118.726 74.2653 118.17 74.2653C112.046 74.2653 107.095 76.4859 103.075 81.0277C98.9207 85.7172 95.9124 91.3526 92.9979 96.8001C92.1872 98.3163 91.3497 99.8862 90.4988 101.409C87.7116 106.407 84.9445 111.888 82.0099 117.698C79.819 122.045 77.5477 126.534 75.196 130.961C63.3035 153.369 47.3039 167.209 21.7032 177.225C-2.54408 186.718 -42.0607 186.289 -66.3884 176.273C-108.538 158.917 -115.955 146.626 -123.131 134.745C-125.134 131.431 -127.023 128.298 -129.65 125.058C-135.526 117.812 -133.998 109.889 -132.383 101.496C-131.767 98.2962 -131.13 94.9888 -130.876 91.6209L-130.963 91.6142C-131.211 94.982 -131.847 98.2895 -132.464 101.483C-134.085 109.896 -135.619 117.839 -129.717 125.118C-127.097 128.345 -125.208 131.478 -123.204 134.792C-119.667 140.656 -116.009 146.714 -107.969 153.469C-103.627 157.119 -98.4345 160.621 -92.0896 164.19C-84.934 168.209 -76.5389 172.194 -66.4219 176.36C-60.4589 178.815 -53.5177 180.741 -45.7792 182.089C-38.3087 183.391 -30.4161 184.088 -22.3225 184.182C-14.2289 184.269 -6.34296 183.739 1.12083 182.606C8.85263 181.432 15.7871 179.654 21.7367 177.319C27.9677 174.877 33.4617 172.294 38.5336 169.409C43.8333 166.39 48.5233 163.137 52.8783 159.447C61.8094 151.886 69.1392 142.581 75.2898 131.002C77.6415 126.574 79.9061 122.079 82.1037 117.738C85.0316 111.935 87.8054 106.447 90.5859 101.456C91.4368 99.9331 92.2743 98.3633 93.085 96.8471C95.9928 91.3995 99.0078 85.7709 103.148 81.0948C112.662 70.3473 125.949 74.272 138.886 80.1154C147.322 83.9259 155.73 88.2598 163.864 92.4461C177.331 99.383 191.253 106.555 205.732 111.58C211.956 113.74 218.362 115.397 224.76 116.511C230.964 117.591 237.363 118.188 243.781 118.288C249.972 118.389 256.391 118.027 262.85 117.222C269.047 116.45 275.499 115.236 282.025 113.619C293.944 110.66 305.06 106.233 315.056 100.463C325.361 94.5124 334.298 87.22 341.635 78.7937C355.001 63.5111 366.09 47.8527 376.535 29.5176L376.468 29.4639Z" fill="url(#paint2_linear_361_4531)" fill-opacity="0.2"/>
<path d="M376.441 33.0732C365.868 47.6447 353.668 60.3579 339.537 75.077L338.559 76.0967C324.308 91.0506 304.161 102.328 278.674 109.621C265.395 113.424 250.555 116.806 234.743 116.806C224.351 116.806 213.544 115.343 202.469 111.58C187.42 106.467 173.022 98.7657 159.093 91.3123C151.636 87.3272 143.931 83.2013 136.226 79.5316C130.926 77.0091 124.012 74.0304 117.472 73.3729C110.672 72.6886 105.231 74.5403 100.836 79.0486C96.8565 83.1342 93.8616 88.0585 90.9672 92.8285C89.9957 94.4251 88.9974 96.0755 87.9656 97.6856C83.8853 104.046 79.8385 111.868 75.5505 120.153C74.3914 122.387 73.1988 124.702 71.9995 126.983C60.1338 149.592 43.9599 164.277 19.5518 174.589C-4.00536 184.538 -42.5103 184.538 -66.2752 174.589C-106.984 157.548 -114.301 145.446 -121.376 133.745C-123.326 130.518 -125.175 127.466 -127.694 124.306C-133.577 116.94 -132.29 108.883 -130.93 100.356C-130.421 97.1422 -129.892 93.8281 -129.731 90.4535L-129.831 90.4468C-129.992 93.8146 -130.521 97.1355 -131.031 100.342C-132.397 108.889 -133.684 116.96 -127.774 124.367C-125.255 127.526 -123.413 130.572 -121.463 133.799C-117.966 139.589 -114.348 145.566 -106.529 152.208C-102.308 155.791 -97.2694 159.232 -91.1255 162.741C-84.2044 166.686 -76.0907 170.597 -66.3154 174.689C-54.7445 179.533 -39.4752 182.203 -23.3081 182.203C-23.2746 182.203 -23.2478 182.203 -23.2143 182.203C-15.3484 182.196 -7.67695 181.566 -0.420853 180.311C7.07646 179.023 13.81 177.131 19.5921 174.689C31.7727 169.544 41.7356 163.425 50.0637 155.978C58.7469 148.21 65.9494 138.75 72.0933 127.043C73.2926 124.762 74.4852 122.448 75.6443 120.214C79.9323 111.928 83.9791 104.106 88.0527 97.7527C89.0845 96.1426 90.0895 94.4922 91.0543 92.8955C94.076 87.9109 96.9369 83.208 100.91 79.1291C110.444 69.3544 123.496 73.5943 136.179 79.6389C143.884 83.3087 151.589 87.4279 159.046 91.4196C172.975 98.8731 187.38 106.575 202.435 111.694C214.649 115.84 227.165 117.503 240.712 116.779C251.948 116.175 264.021 113.934 278.701 109.735C290.808 106.273 301.91 101.805 311.685 96.4579C322.238 90.6883 331.303 83.8722 338.626 76.1839L339.604 75.1642C353.734 60.4451 365.942 47.7319 376.515 33.1537L376.441 33.0732Z" fill="url(#paint3_linear_361_4531)" fill-opacity="0.2"/>
<path d="M376.428 36.6759C369.634 43.9483 362.083 50.3417 354.09 57.1109C348.081 62.2029 341.87 67.4626 335.551 73.4536C321.863 86.4418 302.165 96.9947 275.345 105.703C258.18 111.278 242.026 115.907 225.457 115.907C216.874 115.907 208.178 114.666 199.173 111.667C183.616 106.488 168.795 98.256 154.471 90.2993C147.63 86.5022 140.561 82.5708 133.52 79.0353C128.32 76.4255 121.52 73.3194 115.068 72.4204C113.802 72.246 112.582 72.1588 111.41 72.1588C106.378 72.1588 102.164 73.7756 98.5993 77.0629C94.7602 80.5984 91.9127 84.7109 88.9044 89.0582C87.7922 90.6683 86.6331 92.3321 85.4338 93.9623C80.1676 101.074 75.0287 110.996 69.5816 121.502L68.7977 123.011C56.798 146.137 40.9525 161.231 17.4087 171.945C-5.84702 182.532 -42.5563 182.948 -66.1604 172.905C-105.429 156.193 -112.645 144.265 -119.626 132.739C-121.442 129.734 -123.325 126.634 -125.744 123.548C-131.626 116.054 -130.588 107.87 -129.496 99.2019C-129.087 95.9817 -128.665 92.6474 -128.591 89.2729H-128.698C-128.772 92.6474 -129.194 95.975 -129.603 99.1952C-130.702 107.883 -131.747 116.088 -125.831 123.622C-123.412 126.701 -121.536 129.807 -119.72 132.806C-112.732 144.352 -105.503 156.294 -66.214 173.019C-54.824 177.869 -39.8696 180.425 -24.1045 180.224C-16.4598 180.123 -9.01611 179.385 -1.96771 178.024C5.30179 176.621 11.8276 174.616 17.4422 172.059C29.2543 166.686 39.0028 160.286 47.2371 152.503C55.6657 144.54 62.7409 134.92 68.8848 123.079L69.6687 121.569C75.1091 111.07 80.2547 101.154 85.5075 94.0496C86.7135 92.426 87.8659 90.7555 88.9781 89.1454C91.9864 84.7981 94.8272 80.6991 98.6596 77.1702C103.028 73.145 108.388 71.6355 115.048 72.5613C121.486 73.4535 128.274 76.5597 133.466 79.1627C140.508 82.6983 147.576 86.6229 154.417 90.4201C168.748 98.3834 183.575 106.615 199.139 111.794C205.578 113.934 211.977 115.236 218.683 115.766C224.774 116.249 230.978 116.075 237.644 115.249C250.703 113.626 263.969 109.533 275.385 105.83C288.028 101.724 298.802 97.3369 308.316 92.426C313.576 89.709 318.48 86.7973 322.895 83.7784C327.578 80.5716 331.866 77.13 335.632 73.5542C341.943 67.5632 348.154 62.3035 354.164 57.2115C362.157 50.4424 369.708 44.0422 376.509 36.7698L376.428 36.6759Z" fill="url(#paint4_linear_361_4531)" fill-opacity="0.2"/>
<path d="M376.408 40.2852C370.486 45.1022 364.033 49.161 357.199 53.4613C349.092 58.5667 340.704 63.8398 332.543 70.8237C316.544 84.5163 293.998 93.808 272.022 101.805C270.769 102.261 269.523 102.717 268.284 103.174C251.393 109.352 235.159 115.29 217.987 115.29C210.825 115.29 203.495 114.256 195.89 111.781C179.871 106.561 164.695 97.7998 150.015 89.3266C143.744 85.7038 137.259 81.967 130.82 78.5656C125.714 75.8687 119.035 72.6351 112.663 71.4946C111.028 71.2061 109.467 71.0585 107.986 71.0585C103.491 71.0585 99.6581 72.3935 96.355 75.0972C92.6231 78.1497 89.7823 81.7188 86.7807 85.4958C85.5412 87.059 84.2548 88.6758 82.8947 90.2524C77.0791 97.0216 71.3908 107.735 65.5886 119.047C53.4482 142.708 37.931 158.212 15.2582 169.309C3.23839 175.192 -12.52 178.178 -28.0908 178.178C-41.7588 178.178 -55.2861 175.877 -66.0463 171.221C-103.868 154.845 -110.99 143.091 -117.878 131.726C-119.646 128.808 -121.475 125.789 -123.794 122.783C-129.676 115.162 -128.892 106.843 -128.062 98.0413C-127.753 94.8076 -127.438 91.4667 -127.452 88.0854H-127.572C-127.559 91.46 -127.874 94.8009 -128.182 98.0279C-129.02 106.857 -129.81 115.189 -123.894 122.85C-121.576 125.856 -119.747 128.868 -117.985 131.78C-111.09 143.158 -103.955 154.932 -66.1133 171.321C-54.931 176.165 -40.325 178.614 -24.9954 178.211C-17.5785 178.017 -10.3492 177.172 -3.50852 175.702C3.52647 174.186 9.85799 172.066 15.2917 169.409C37.9913 158.3 53.5286 142.782 65.6824 119.093C71.4779 107.789 77.1662 97.0819 82.9684 90.3195C84.3285 88.7362 85.6149 87.1194 86.8544 85.5562C89.856 81.7792 92.6901 78.2168 96.4153 75.1777C100.784 71.6086 106.09 70.4413 112.629 71.6019C118.988 72.7357 125.654 75.9693 130.753 78.6596C137.192 82.0542 143.67 85.7977 149.942 89.4205C164.628 97.8937 179.81 106.662 195.837 111.882C202.074 113.914 208.238 115.041 214.69 115.337C220.473 115.598 226.375 115.176 232.734 114.048C244.599 111.949 256.117 107.736 268.311 103.274C269.55 102.818 270.803 102.362 272.049 101.906C281.449 98.4841 293.683 93.855 304.926 88.3873C316.249 82.8794 325.307 77.1568 332.61 70.9109C340.764 63.9338 349.146 58.6606 357.246 53.5552C364.08 49.2549 370.539 45.1894 376.469 40.3658L376.408 40.2852Z" fill="url(#paint5_linear_361_4531)" fill-opacity="0.2"/>
<path d="M376.394 43.8879C370.753 47.249 364.643 49.9057 358.177 52.7099C348.603 56.8694 338.694 61.1697 329.541 68.1871C314.962 79.3573 295.612 87.1059 275.131 95.3108C273.027 96.1561 270.849 97.0283 268.699 97.8937C265.476 99.1952 262.26 100.544 259.144 101.852C243.332 108.494 228.15 114.874 211.708 114.874C205.544 114.874 199.213 113.981 192.593 111.868C176.158 106.622 160.661 97.3302 145.68 88.3471C139.931 84.8988 133.995 81.3364 128.112 78.0759C123.101 75.2985 116.548 71.9306 110.244 70.5553C103.778 69.1398 98.4985 69.9784 94.1033 73.1114C90.4451 75.7211 87.5909 78.8139 84.5692 82.0811C83.2225 83.5369 81.8289 85.0463 80.3482 86.529C74.1373 92.7212 68.0403 103.905 62.3721 115.075C50.0843 139.3 34.8887 155.214 13.0936 166.666C-8.78864 178.164 -43.508 179.426 -65.9464 169.53C-102.307 153.503 -109.336 141.917 -116.129 130.706C-117.845 127.875 -119.62 124.95 -121.844 122.019C-127.734 114.263 -127.198 105.823 -126.628 96.8807C-126.421 93.6403 -126.213 90.2859 -126.307 86.9047L-126.441 86.9114C-126.347 90.2859 -126.555 93.6403 -126.762 96.874C-127.332 105.837 -127.868 114.303 -121.952 122.099C-119.734 125.024 -117.958 127.942 -116.243 130.774C-112.86 136.355 -109.362 142.125 -102.2 148.431C-98.3409 151.826 -93.7782 155.086 -88.2373 158.394C-82.013 162.11 -74.7368 165.793 -66 169.644C-55.0187 174.481 -40.7744 176.823 -25.8736 176.226C-18.6845 175.937 -11.6763 174.984 -5.03664 173.401C1.77055 171.778 7.89436 169.544 13.1606 166.773C34.9758 155.308 50.1915 139.381 62.4927 115.129C68.1542 103.972 74.2445 92.795 80.442 86.6162C81.9294 85.1336 83.323 83.6241 84.6697 82.1683C87.6847 78.9011 90.5322 75.8217 94.1837 73.2187C98.5454 70.1059 103.791 69.274 110.223 70.6828C116.508 72.0581 123.054 75.4192 128.059 78.1899C133.935 81.4504 139.878 85.0128 145.62 88.4611C160.607 97.4509 176.105 106.749 192.56 111.996C216.881 119.758 237.436 111.123 259.198 101.979C262.307 100.671 265.53 99.3227 268.746 98.0212C270.896 97.1557 273.074 96.2836 275.178 95.4383C295.666 87.2334 315.022 79.478 329.622 68.2945C338.767 61.2905 348.663 56.9902 358.231 52.8307C364.703 50.0197 370.813 47.363 376.461 43.9952L376.394 43.8879Z" fill="url(#paint6_linear_361_4531)" fill-opacity="0.2"/>
<path d="M376.381 47.4904C370.793 49.7781 364.763 51.3748 358.371 53.0587C347.551 55.9167 336.362 58.8685 326.526 65.5572C314.895 73.4669 300.215 79.4847 284.678 85.858C278.36 88.4476 271.834 91.1244 265.362 93.9958C260.879 95.9816 256.451 98.1217 252.176 100.195C236.967 107.548 222.388 114.599 206.194 114.599C200.767 114.599 195.166 113.807 189.297 111.975C172.473 106.716 156.701 96.8873 141.452 87.3809C136.199 84.107 130.765 80.7191 125.405 77.5995C120.494 74.7415 114.062 71.253 107.825 69.6294C101.466 67.9791 96.2402 68.4755 91.8517 71.1456C88.2136 73.3595 85.3192 76.0229 82.2573 78.8406C80.8369 80.1488 79.3696 81.4973 77.7951 82.8256C70.9946 88.5684 64.5492 100.356 59.149 111.123C46.7004 135.939 31.8264 152.255 10.9291 164.042C-10.2697 175.997 -43.9975 177.675 -65.8529 167.86C-100.76 152.188 -107.694 140.756 -114.401 129.7C-116.063 126.956 -117.785 124.118 -119.908 121.274C-125.791 113.384 -125.516 104.81 -125.215 95.7401C-125.108 92.493 -125 89.1319 -125.181 85.744L-125.322 85.7507C-125.141 89.1319 -125.255 92.4863 -125.356 95.7334C-125.65 104.837 -125.932 113.431 -120.016 121.361C-117.898 124.199 -116.177 127.037 -114.515 129.774C-111.165 135.295 -107.708 140.998 -100.767 147.197C-97.028 150.531 -92.6194 153.731 -87.2862 156.978C-81.2897 160.621 -74.3016 164.224 -65.9065 167.994C-55.1329 172.831 -41.2371 175.052 -26.7718 174.26C-19.8105 173.877 -13.0234 172.817 -6.59138 171.12C-0.0186844 169.383 5.90413 167.041 11.0028 164.17C31.9269 152.376 46.8143 136.033 59.2763 111.19C64.6698 100.436 71.1018 88.669 77.8889 82.9397C79.4634 81.6114 80.9307 80.2629 82.3511 78.9547C85.4063 76.1437 88.3007 73.487 91.9254 71.2798C96.2804 68.6298 101.466 68.1334 107.784 69.777C114.002 71.3938 120.427 74.8757 125.332 77.7337C130.692 80.8533 136.119 84.2412 141.371 87.5151C156.627 97.0282 172.406 106.863 189.25 112.123C195.132 113.961 200.754 114.753 206.194 114.753C222.415 114.753 237.007 107.695 252.23 100.336C256.511 98.2693 260.933 96.1292 265.415 94.1367C271.881 91.2653 278.413 88.5885 284.731 85.9989C300.275 79.6255 314.962 73.601 326.606 65.6847C336.422 59.0161 347.597 56.0642 358.405 53.2063C364.796 51.5157 370.833 49.9257 376.428 47.6313L376.381 47.4904Z" fill="url(#paint7_linear_361_4531)" fill-opacity="0.2"/>
<path d="M376.367 51.0998C370.726 52.5019 364.636 53.2064 358.197 53.9443C346.238 55.3196 333.876 56.7486 323.518 62.9207C314.017 68.5829 302.52 73.1583 290.353 78.0021C281.087 81.6852 271.506 85.4958 262.032 90.0846C256.685 92.6742 251.459 95.559 246.408 98.3499C231.581 106.541 217.383 114.391 201.203 114.391C196.339 114.391 191.3 113.686 186.007 112.063C168.828 106.803 152.815 96.4312 137.325 86.3948C132.534 83.2886 127.583 80.0818 122.706 77.1031C115.563 72.7357 110.223 70.1394 105.406 68.6836C99.155 66.7917 93.9893 66.946 89.6142 69.1599C85.9426 71.0182 82.9611 73.2992 79.8054 75.7144C78.3582 76.8213 76.8641 77.9618 75.2628 79.0956C72.0267 81.3833 68.7303 85.1201 65.186 90.5274C62.3854 94.7942 59.4508 100.074 55.94 107.145C43.3172 132.578 28.7715 149.31 8.77875 161.392C-11.7501 173.797 -44.4796 175.89 -65.7387 166.169C-99.1918 150.866 -106.039 139.582 -112.652 128.674C-114.26 126.017 -115.928 123.273 -117.952 120.516C-123.834 112.492 -123.814 103.791 -123.787 94.5795C-123.781 91.3191 -123.767 87.9512 -124.035 84.5633L-124.189 84.5767C-123.928 87.9579 -123.935 91.3258 -123.948 94.5795C-123.968 103.818 -123.995 112.546 -118.079 120.61C-116.062 123.36 -114.401 126.104 -112.786 128.754C-109.476 134.215 -106.053 139.857 -99.3325 145.949C-95.7145 149.229 -91.46 152.362 -86.3278 155.542C-80.5658 159.111 -73.8524 162.634 -65.8057 166.31C-55.2398 171.14 -41.6991 173.254 -27.6626 172.254C-13.9477 171.281 -0.98317 167.471 8.85243 161.527C19.2575 155.24 28.1216 147.727 35.9539 138.556C43.2904 129.962 49.8765 119.711 56.074 107.219C61.5077 96.2701 68.0469 84.3821 75.3432 79.2298C76.9445 78.096 78.4386 76.9555 79.8858 75.8419C83.0348 73.4334 86.0096 71.1524 89.6678 69.3075C94.0094 67.1137 99.1349 66.9594 105.346 68.8446C110.156 70.3004 115.476 72.89 122.612 77.2507C127.483 80.2294 132.434 83.4362 137.224 86.5424C152.722 96.5855 168.741 106.964 185.947 112.23C208.914 119.261 227.159 109.178 246.468 98.5042C251.52 95.7133 256.746 92.8285 262.086 90.2389C271.559 85.6568 281.134 81.8462 290.393 78.1631C302.574 73.3193 314.071 68.7439 323.585 63.075C333.91 56.9163 346.258 55.4941 358.204 54.1188C364.649 53.3741 370.74 52.6764 376.394 51.2675L376.367 51.0998Z" fill="url(#paint8_linear_361_4531)" fill-opacity="0.2"/>
<path d="M376.36 54.7024C370.598 55.3196 364.393 55.2257 357.821 55.1251C355.382 55.0848 352.93 55.0513 350.477 55.0513C339.838 55.0513 329.292 55.7624 320.515 60.2841C312.689 64.3161 303.544 67.7175 293.862 71.3134C282.338 75.5936 270.419 80.0214 258.701 86.1734C252.731 89.3064 246.956 92.9224 241.368 96.4177C222.856 108.004 205.362 118.946 182.709 112.157C165.196 106.91 148.962 95.9749 133.263 85.4019C128.915 82.4701 124.413 79.4445 119.997 76.6134C113.003 72.1319 107.75 69.3947 102.973 67.7376C96.8288 65.6042 91.7234 65.4231 87.3685 67.1741C83.5629 68.7037 80.4272 70.6492 77.104 72.7155C75.7104 73.581 74.2633 74.48 72.729 75.3722C69.2852 77.3715 65.8346 80.9539 62.1831 86.3411C59.282 90.6146 56.2804 95.9615 52.7361 103.173C39.9258 129.264 25.7016 146.405 6.62674 158.749C-13.5604 171.811 -44.6216 174.273 -65.6261 164.478C-97.6253 149.545 -104.379 138.401 -110.911 127.627C-112.466 125.064 -114.074 122.408 -115.997 119.744C-121.879 111.586 -122.114 102.751 -122.368 93.3988C-122.455 90.1316 -122.549 86.7571 -122.891 83.3691L-123.052 83.3825C-122.71 86.7638 -122.616 90.1383 -122.529 93.3988C-122.275 102.778 -122.04 111.633 -116.124 119.831C-114.208 122.495 -112.6 125.145 -111.045 127.701C-107.769 133.108 -104.386 138.697 -97.8799 144.681C-94.3825 147.901 -90.2821 150.98 -85.3509 154.087C-79.8167 157.575 -73.3847 161.017 -65.6864 164.606C-60.3867 167.081 -54.3969 168.812 -47.8845 169.758C-41.6669 170.657 -35.1612 170.818 -28.5416 170.235C-15.3225 169.067 -2.80016 165.029 6.72054 158.87C16.7839 152.356 25.427 144.56 33.1454 135.034C40.1938 126.339 46.6458 115.934 52.8835 103.227C56.4211 96.0219 59.416 90.6817 62.3171 86.4149C65.9619 81.0546 69.3923 77.4788 72.8094 75.4997C74.3504 74.6074 75.7908 73.7085 77.1911 72.843C80.5076 70.7834 83.6366 68.8446 87.4287 67.315C91.7502 65.5774 96.8154 65.7652 102.919 67.8852C107.69 69.5356 112.929 72.2728 119.91 76.7408C124.326 79.5719 128.821 82.5976 133.176 85.5294C148.881 96.1091 165.129 107.044 182.663 112.304C188.13 113.941 193.423 114.605 198.843 114.337C203.687 114.095 208.538 113.103 213.67 111.305C223.218 107.957 232.075 102.415 241.455 96.5452C247.036 93.0499 252.812 89.4406 258.775 86.3076C270.486 80.1623 282.399 75.7345 293.916 71.4543C303.604 67.8517 312.756 64.457 320.589 60.4183C331.342 54.8701 344.803 55.0781 357.814 55.2794C364.393 55.38 370.604 55.4739 376.373 54.8567L376.36 54.7024Z" fill="url(#paint9_linear_361_4531)" fill-opacity="0.2"/>
<path d="M335.222 54.5481C328.83 54.5481 322.794 55.3397 317.507 57.6543C311.069 60.472 303.772 62.9207 296.041 65.517C283.291 69.7972 268.845 74.641 255.372 82.2756C248.94 85.9184 242.776 90.2456 236.813 94.4319C218.897 107.004 201.979 118.879 179.42 112.264C161.592 107.031 145.163 95.5322 129.284 84.4157C125.351 81.6651 121.285 78.8138 117.305 76.1437C108.528 70.2534 98.672 64.5308 90.0089 64.5308C88.3339 64.5308 86.7058 64.7455 85.138 65.2151C81.0309 66.4428 77.6005 68.1066 73.9624 69.8643C72.7564 70.448 71.5102 71.0518 70.197 71.6623C66.5455 73.3596 62.9342 76.7945 59.1621 82.1615C56.1739 86.4149 53.112 91.8289 49.5275 99.2153C36.3285 126.372 22.8548 143.386 4.4767 156.119C-15.0337 169.631 -45.1234 172.502 -65.5115 162.801C-96.0635 148.263 -102.435 137.737 -109.175 126.601C-110.67 124.132 -112.217 121.576 -114.04 119C-119.916 110.701 -120.418 101.738 -120.947 92.2448C-121.128 88.9709 -121.323 85.5897 -121.738 82.2085L-121.912 82.2286C-121.49 85.6098 -121.302 88.9911 -121.122 92.2583C-120.592 101.771 -120.09 110.761 -114.18 119.1C-112.365 121.67 -110.817 124.219 -109.323 126.688C-106.08 132.041 -102.73 137.576 -96.4454 143.46C-93.0686 146.613 -89.1223 149.632 -84.3921 152.678C-79.0924 156.092 -72.9418 159.447 -65.5852 162.949C-60.3793 165.424 -54.5235 167.128 -48.1853 168.014C-42.1486 168.853 -35.8372 168.933 -29.4253 168.249C-16.702 166.887 -4.62189 162.627 4.58391 156.253C14.3123 149.518 22.7342 141.434 30.332 131.552C37.166 122.663 43.3166 112.411 49.695 99.2824C53.2795 91.9094 56.3347 86.4954 59.3162 82.2554C63.0682 76.9152 66.6527 73.4938 70.2774 71.8166C71.5906 71.2061 72.8368 70.6023 74.0428 70.0186C77.6742 68.2609 81.0979 66.5971 85.1916 65.3761C94.8061 62.5115 106.772 69.2806 117.211 76.2846C121.197 78.9614 125.258 81.806 129.191 84.5566C145.083 95.6865 161.525 107.192 179.38 112.432C184.827 114.028 190.073 114.612 195.42 114.203C200.197 113.84 204.954 112.687 209.966 110.681C219.292 106.951 227.855 100.939 236.913 94.5795C242.869 90.3999 249.033 86.0728 255.459 82.4299C268.919 74.8087 283.358 69.9582 296.101 65.6847C303.833 63.0884 311.136 60.6397 317.581 57.8153C328.71 52.9447 343.242 54.8433 357.299 56.6748C364.052 57.5536 370.424 58.3922 376.347 58.4862V58.3117C370.431 58.2111 364.059 57.3792 357.319 56.5004C349.895 55.5343 342.344 54.5481 335.222 54.5481Z" fill="url(#paint10_linear_361_4531)" fill-opacity="0.2"/>
<path d="M326.626 53.1461C322.271 53.1461 318.177 53.6828 314.505 55.0178C309.266 56.9164 303.477 58.6137 297.347 60.405C283.089 64.5779 266.935 69.3009 252.041 78.3711C245.254 82.5038 238.815 87.5287 232.584 92.3925C215.158 105.998 198.703 118.845 176.13 112.358C158 107.152 141.404 95.0693 125.351 83.3893C121.82 80.8199 118.169 78.1632 114.597 75.6541C107.998 71.0183 102.759 67.9054 98.1087 65.866C92.1658 63.2562 87.1877 62.3908 82.893 63.2294C78.1293 64.1552 74.2701 65.5506 69.8012 67.1675C69.1044 67.4224 68.3875 67.6773 67.6572 67.939C63.7846 69.321 60.0192 72.6016 56.1332 77.9619C53.078 82.1817 49.9558 87.6695 46.3177 95.2438C32.8909 123.159 19.7321 140.575 2.31882 153.476C-16.5149 167.424 -45.6264 170.711 -65.3981 161.104C-94.4962 146.969 -100.787 136.557 -107.447 125.534C-108.881 123.159 -110.368 120.704 -112.09 118.228C-117.96 109.788 -118.73 100.691 -119.541 91.0642C-119.815 87.7903 -120.104 84.4024 -120.599 81.0211L-120.78 81.048C-120.284 84.4292 -119.996 87.8104 -119.722 91.0843C-118.904 100.738 -118.14 109.862 -112.238 118.342C-110.516 120.811 -109.035 123.266 -107.601 125.641C-104.392 130.948 -101.076 136.436 -95.0054 142.225C-91.7425 145.338 -87.9503 148.297 -83.4278 151.269C-78.3559 154.603 -72.4867 157.877 -65.4785 161.285C-60.3664 163.767 -54.6513 165.445 -48.4873 166.27C-42.6315 167.055 -36.5211 167.048 -30.3169 166.263C-18.0894 164.713 -6.45818 160.225 2.43272 153.637C11.8261 146.68 20.0202 138.314 27.4974 128.063C34.0031 119.147 40.0331 108.749 46.4852 95.3377C50.1233 87.7769 53.2388 82.2958 56.2873 78.0827C60.1465 72.7559 63.8918 69.4954 67.7242 68.1268C68.4545 67.8652 69.1714 67.6102 69.8682 67.3553C74.3304 65.7452 78.1896 64.3498 82.9332 63.4239C87.1944 62.5921 92.1323 63.4508 98.0417 66.0471C102.678 68.0866 107.904 71.1927 114.497 75.8218C118.068 78.3309 121.72 80.9876 125.244 83.557C141.31 95.2505 157.92 107.34 176.077 112.552C181.53 114.122 186.756 114.619 192.056 114.069C196.793 113.579 201.49 112.264 206.408 110.05C215.566 105.924 223.881 99.4301 232.692 92.5535C238.916 87.6897 245.355 82.6648 252.135 78.5456C267.009 69.4954 283.156 64.7724 297.4 60.5995C303.531 58.8083 309.32 57.111 314.566 55.2124C326.036 51.0529 341.62 54.6824 356.689 58.1978C363.643 59.8213 370.209 61.3509 376.313 62.1291L376.333 61.948C370.243 61.1698 363.677 59.6402 356.729 58.0234C346.451 55.6015 335.932 53.1461 326.626 53.1461Z" fill="url(#paint11_linear_361_4531)" fill-opacity="0.2"/>
<path d="M319.907 51.3077C316.912 51.3077 314.098 51.6365 311.505 52.3879C307.324 53.5954 302.828 54.6957 298.065 55.863C282.474 59.6736 264.799 63.9941 248.719 74.4665C241.664 79.062 235.018 84.7846 228.599 90.3194C214.509 102.462 201.055 114.048 183.977 114.048C180.433 114.048 176.734 113.552 172.842 112.458C154.423 107.279 137.673 94.6063 121.473 82.3426C118.33 79.961 115.081 77.5056 111.898 75.1709C105.44 70.4211 100.287 67.1673 95.671 64.9132C90.5455 62.4108 86.1302 61.1831 82.2509 61.1831C81.7082 61.1831 81.1789 61.2099 80.6563 61.2569C74.8876 61.7869 70.211 62.914 65.1257 64.2222C61.032 65.2755 57.0991 68.395 53.0992 73.7554C49.9837 77.935 46.8079 83.5033 43.1028 91.2787C32.9657 112.572 20.7449 134.524 0.162514 150.839C-15.6763 163.392 -43.2401 170.375 -65.2965 159.427C-92.934 145.707 -99.1516 135.396 -105.731 124.481C-107.104 122.206 -108.525 119.852 -110.146 117.477C-116.015 108.889 -117.047 99.658 -118.146 89.89C-118.515 86.6161 -118.896 83.2282 -119.473 79.8402L-119.667 79.8738C-119.091 83.2483 -118.709 86.6363 -118.347 89.9102C-117.248 99.705 -116.21 108.956 -110.314 117.584C-108.699 119.952 -107.279 122.307 -105.905 124.581C-102.582 130.089 -99.4464 135.295 -93.5906 140.984C-90.4416 144.043 -86.8102 146.942 -82.482 149.853C-77.6379 153.107 -72.0501 156.3 -65.3903 159.608C-60.372 162.097 -54.7909 163.747 -48.8078 164.512C-43.1329 165.237 -37.2235 165.149 -31.227 164.257C-19.4953 162.513 -8.313 157.803 0.276405 151C9.33481 143.822 17.3078 135.168 24.6577 124.554C30.815 115.665 36.7244 105.119 43.2703 91.3727C46.9687 83.6106 50.1378 78.0557 53.2466 73.8828C57.2197 68.5628 61.1191 65.47 65.1659 64.4234C70.2445 63.1152 74.9144 61.9881 80.6697 61.4581C84.8907 61.069 89.7683 62.2632 95.5772 65.101C100.18 67.3485 105.326 70.6022 111.771 75.3386C114.947 77.6733 118.196 80.1354 121.339 82.5104C137.553 94.7807 154.316 107.467 172.768 112.653C178.249 114.196 183.475 114.612 188.747 113.928C193.458 113.317 198.107 111.841 202.965 109.406C211.99 104.877 220.11 97.8802 228.706 90.4737C235.125 84.9456 241.758 79.223 248.806 74.6342C264.859 64.1819 282.514 59.8615 298.091 56.0576C302.855 54.8902 307.358 53.79 311.545 52.5824C323.337 49.1676 339.953 54.5615 356.02 59.7809C363.195 62.1089 369.976 64.3094 376.274 65.7384L376.314 65.5505C370.029 64.1282 363.256 61.9278 356.08 59.5998C343.517 55.5007 330.6 51.3077 319.907 51.3077Z" fill="url(#paint12_linear_361_4531)" fill-opacity="0.2"/>
<path d="M314.164 49.181C312.174 49.181 310.278 49.3621 308.502 49.7512C305.293 50.4557 301.923 51.1064 298.352 51.7907C290.298 53.3405 281.173 55.0982 272.128 57.9091C261.75 61.1361 253.006 65.2754 245.395 70.5619C238.125 75.607 231.345 82.0139 224.792 88.2128C208.123 103.965 192.384 118.838 169.557 112.559C150.864 107.413 133.974 94.1232 117.639 81.2759C114.865 79.0955 112.004 76.8414 109.211 74.6946C104.507 71.0785 98.6514 66.5836 93.2177 63.4909C88.1257 60.5994 83.8176 59.1771 80.1259 59.1771C79.543 59.1771 78.9802 59.2107 78.4241 59.2845C75.8848 59.6065 73.4996 59.7004 71.1947 59.7943C68.4612 59.9017 65.6405 60.009 62.6054 60.5122C58.2906 61.2233 54.1902 64.1819 50.0764 69.5422C46.8604 73.7352 43.718 79.2163 39.9057 87.3138C27.9462 112.686 16.2481 132.753 -1.98264 148.21C-17.2385 161.151 -43.8442 168.577 -65.177 157.749C-91.3607 144.453 -97.5046 134.235 -104.01 123.414C-105.317 121.24 -106.67 118.993 -108.184 116.725C-114.047 107.99 -115.353 98.6248 -116.74 88.7092C-117.196 85.4353 -117.672 82.0474 -118.321 78.6662L-118.522 78.7064C-117.873 82.0742 -117.404 85.4622 -116.941 88.7361C-115.554 98.6718 -114.241 108.064 -108.352 116.839C-106.838 119.1 -105.484 121.348 -104.178 123.514C-100.888 128.989 -97.786 134.155 -92.1379 139.756C-89.1028 142.762 -85.6255 145.607 -81.4983 148.451C-76.882 151.631 -71.5689 154.731 -65.2575 157.937C-60.333 160.44 -54.8926 162.057 -49.0836 162.761C-43.5896 163.425 -37.8745 163.251 -32.0924 162.258C-20.8633 160.326 -10.1231 155.395 -1.84194 148.371C6.88145 140.971 14.6333 132.035 21.8492 121.046C29.3465 109.627 35.5374 97.0751 40.0934 87.4144C45.8956 75.1038 53.1181 62.3034 62.6389 60.7268C65.6539 60.2304 68.4746 60.1163 71.2015 60.009C73.513 59.9218 75.8982 59.8279 78.4509 59.4991C87.5696 58.3385 98.9998 67.1203 109.083 74.869C111.877 77.0158 114.745 79.27 117.512 81.4503C133.86 94.3111 150.764 107.615 169.497 112.774C175.018 114.29 180.257 114.632 185.524 113.814C190.227 113.082 194.843 111.432 199.647 108.775C208.572 103.838 216.518 96.3304 224.926 88.3805C231.479 82.1883 238.253 75.7881 245.509 70.7498C262.56 58.9088 281.602 55.2458 298.392 52.0121C301.963 51.3278 305.34 50.6771 308.549 49.9726C320.642 47.3227 338.284 54.5011 355.348 61.4447C362.759 64.4636 369.76 67.3149 376.266 69.3611L376.326 69.1665C369.834 67.1203 362.832 64.2691 355.429 61.2568C340.823 55.2927 325.808 49.181 314.164 49.181Z" fill="url(#paint13_linear_361_4531)" fill-opacity="0.2"/>
<path d="M309.033 46.8666C307.806 46.8666 306.627 46.9471 305.495 47.1215C303.197 47.4704 300.832 47.7924 298.326 48.1346C289.79 49.3086 280.122 50.6302 270.461 53.307C259.345 56.3864 250.052 60.7538 242.053 66.6575C234.616 72.1453 227.748 79.2298 221.095 86.0728C204.734 102.932 189.277 118.852 166.249 112.653C147.288 107.548 130.27 93.6269 113.821 80.1624C111.416 78.19 108.924 76.1505 106.492 74.2049C97.4131 66.9125 85.7684 58.4057 76.1875 57.2988C74.8542 57.1445 73.5477 56.9365 72.2814 56.7419C68.1207 56.0845 64.1878 55.4673 60.0338 56.7889C55.5515 58.2179 51.2299 61.3576 47.1898 66.1276C43.5249 70.4547 39.9874 76.2444 36.6776 83.3356C26.3663 105.434 14.715 128.439 -4.15224 145.56C-18.8319 158.883 -44.4728 166.766 -65.0753 156.052C-89.805 143.198 -95.8819 133.048 -102.314 122.307C-103.553 120.241 -104.826 118.107 -106.247 115.954C-112.103 107.065 -113.684 97.5583 -115.359 87.5018C-115.902 84.2279 -116.471 80.8467 -117.188 77.4788L-117.402 77.5258C-116.679 80.8869 -116.116 84.2682 -115.573 87.542C-113.892 97.6254 -112.304 107.152 -106.428 116.075C-105.014 118.221 -103.734 120.355 -102.502 122.421C-99.2453 127.862 -96.17 133.001 -90.7296 138.515C-87.8084 141.474 -84.4852 144.265 -80.559 147.036C-76.1705 150.135 -71.1388 153.154 -65.1758 156.247C-60.3451 158.756 -55.0454 160.353 -49.4107 160.99C-44.1043 161.594 -38.5835 161.339 -33.0158 160.239C-22.2891 158.119 -11.9846 152.96 -4.01155 145.721C4.37685 138.106 11.901 128.882 18.9896 117.51C25.8973 106.427 31.9072 94.063 36.8652 83.4295C43.7863 68.5964 51.6051 59.7072 60.0874 56.9969C64.1877 55.6887 68.0939 56.3059 72.2345 56.9566C73.5007 57.1579 74.814 57.3659 76.1473 57.5202C85.6747 58.6137 97.2858 67.107 106.337 74.3794C108.763 76.3316 111.255 78.3711 113.661 80.3368C130.129 93.8148 147.161 107.749 166.168 112.868C171.736 114.371 177.002 114.632 182.269 113.673C186.972 112.821 191.568 111.003 196.332 108.118C205.176 102.758 212.975 94.7339 221.222 86.2338C227.862 79.3909 234.73 72.3198 242.153 66.8387C260.082 53.6022 281.288 50.6973 298.326 48.3559C300.832 48.0138 303.197 47.6851 305.502 47.3429C317.89 45.4712 336.543 54.4543 354.593 63.1421C362.251 66.832 369.487 70.3139 376.2 72.9705L376.28 72.7693C369.574 70.1126 362.344 66.6307 354.686 62.9476C338.278 55.0245 321.334 46.8666 309.033 46.8666Z" fill="url(#paint14_linear_361_4531)" fill-opacity="0.2"/>
<path d="M304.323 44.4044C303.7 44.4044 303.09 44.4312 302.501 44.4782C301.067 44.599 299.62 44.713 298.085 44.8338C279.995 46.2762 257.477 48.0674 238.723 62.7396C231.159 68.6567 224.231 76.4054 217.525 83.8991C201.431 101.885 186.229 118.872 162.967 112.74C143.738 107.675 126.612 93.0969 110.057 79.0084C108 77.2574 105.876 75.446 103.799 73.7084C94.8945 66.2348 83.4509 57.3859 73.9637 55.3129C72.5835 55.011 71.2301 54.6488 69.9236 54.3066C66.8617 53.4948 63.9204 52.7099 60.8786 52.7099C59.7731 52.7099 58.6542 52.8105 57.5152 53.052C55.063 53.5686 52.6711 54.6085 50.3931 56.1314C48.2424 57.5671 46.1252 59.4925 44.0951 61.8406C40.4302 66.094 36.9596 71.8166 33.4823 79.3505C22.0454 104.093 11.1579 125.957 -6.29558 142.903C-19.9703 156.186 -44.1573 165.431 -64.9541 154.348C-88.2366 141.957 -94.2465 131.867 -100.611 121.187C-101.777 119.234 -102.977 117.215 -104.283 115.189C-110.125 106.139 -111.988 96.4982 -113.965 86.2874C-114.594 83.0203 -115.251 79.6457 -116.042 76.2913L-116.263 76.345C-115.472 79.6927 -114.822 83.0672 -114.186 86.3344C-112.209 96.5653 -110.34 106.226 -104.471 115.316C-103.164 117.342 -101.965 119.355 -100.799 121.307C-94.414 132.021 -88.3907 142.138 -65.0546 154.57C-55.8287 159.48 -45.0551 160.748 -33.8929 158.233C-23.6687 155.925 -13.8063 150.544 -6.12807 143.084C-1.85348 138.931 2.09952 134.436 5.95872 129.338C9.46282 124.709 12.8061 119.684 16.1762 113.988C22.7422 102.885 28.4305 90.8494 33.69 79.4646C41.0734 63.4976 48.6578 55.1787 57.5688 53.2936C61.8032 52.3946 65.7227 53.4412 69.87 54.5414C71.1832 54.8903 72.5366 55.2458 73.9235 55.5544C83.3638 57.6207 94.7739 66.4428 103.658 73.903C105.728 75.6406 107.859 77.4519 109.909 79.2029C118.09 86.1667 126.545 93.3652 135.336 99.4233C145.258 106.273 154.277 110.707 162.913 112.982C168.541 114.464 173.841 114.652 179.12 113.559C183.83 112.579 188.42 110.593 193.143 107.481C201.927 101.698 209.947 92.7413 217.699 84.0802C224.399 76.5932 231.327 68.858 238.871 62.9475C257.571 48.3089 280.049 46.5244 298.112 45.0887C299.647 44.9679 301.087 44.8539 302.528 44.7331C315.197 43.6597 334.868 54.4542 353.89 64.8998C361.802 69.2471 369.28 73.3462 376.214 76.5999L376.308 76.392C369.38 73.1449 361.91 69.0391 353.997 64.6985C335.82 54.7024 317.067 44.4044 304.323 44.4044Z" fill="url(#paint15_linear_361_4531)" fill-opacity="0.2"/>
<path d="M299.913 41.8417C299.772 41.8417 299.638 41.8417 299.498 41.8484C298.895 41.8618 298.292 41.8752 297.675 41.882C288.282 42.0698 277.642 42.2778 266.835 44.4581C254.32 46.9807 244.028 51.6902 235.392 58.8418C227.734 65.1816 220.766 73.5877 214.032 81.7121C198.18 100.839 183.206 118.906 159.669 112.841C140.178 107.816 122.959 92.5669 106.303 77.821C104.595 76.3048 102.819 74.7349 101.097 73.2255C92.3471 65.5506 81.0978 56.3595 71.7312 53.3406C70.3376 52.8911 68.9775 52.3879 67.6576 51.8982C63.9927 50.5363 60.502 49.2415 56.7366 49.2415C56.1604 49.2415 55.5775 49.2751 54.9879 49.3354C49.916 49.8923 45.3399 52.5758 40.9983 57.5403C37.3803 61.6796 33.8695 67.5163 30.2716 75.3857C19.2099 99.5508 8.76457 122.367 -8.44773 140.273C-21.5797 153.926 -44.822 163.627 -64.8483 152.678C-86.6702 140.743 -92.6265 130.686 -98.9312 120.046C-100.017 118.221 -101.136 116.33 -102.335 114.431C-108.171 105.213 -110.321 95.4249 -112.593 85.0665C-113.303 81.8127 -114.046 78.4516 -114.904 75.1106L-115.132 75.171C-114.274 78.5053 -113.537 81.8664 -112.82 85.1135C-110.542 95.4987 -108.392 105.307 -102.536 114.558C-101.337 116.45 -100.218 118.342 -99.1322 120.167C-92.8074 130.841 -86.8377 140.917 -64.9555 152.886C-55.9507 157.81 -45.5188 158.964 -34.8055 156.22C-25.0838 153.731 -15.6636 148.129 -8.28023 140.448C-4.15303 136.154 -0.320625 131.498 3.43137 126.225C6.79478 121.489 10.0376 116.329 13.334 110.466C19.565 99.3697 25.1193 87.2334 30.4927 75.4997C34.0839 67.6505 37.5813 61.8339 41.1859 57.7147C45.4806 52.7972 50.0098 50.1405 55.0214 49.5904C59.4166 49.1073 63.383 50.5766 67.5839 52.133C68.9038 52.6227 70.2706 53.1326 71.6709 53.5821C80.9973 56.5876 92.2198 65.7586 100.95 73.42C102.672 74.9295 104.447 76.4994 106.156 78.0155C114.37 85.2879 122.859 92.8017 131.723 99.1214C141.746 106.266 150.872 110.835 159.622 113.089C165.317 114.558 170.663 114.666 175.956 113.431C180.68 112.324 185.263 110.164 189.966 106.816C198.703 100.604 206.589 91.0843 214.22 81.8798C220.947 73.7622 227.908 65.3695 235.546 59.0431C254.943 42.9889 278.641 42.5193 297.682 42.1369C298.298 42.1235 298.901 42.1101 299.504 42.1033C299.638 42.1033 299.779 42.0966 299.913 42.0966C312.878 42.0966 333.339 54.5884 353.124 66.671C361.298 71.6623 369.01 76.3719 376.172 80.2093L376.286 80.0014C369.131 76.1706 361.419 71.4611 353.252 66.4697C333.433 54.3536 312.945 41.8417 299.913 41.8417Z" fill="url(#paint16_linear_361_4531)" fill-opacity="0.2"/>
<path d="M283.632 38.8765C277.568 38.8765 271.076 39.1918 264.55 40.2719C251.525 42.4254 240.892 47.2289 232.062 54.944C224.33 61.6998 217.355 70.75 210.608 79.4982C203.098 89.2394 195.332 99.316 186.662 105.944C176.974 113.351 167.072 115.639 156.378 112.942C136.627 107.964 119.321 92.0169 102.577 76.5933C101.204 75.3254 99.7835 74.0172 98.3966 72.7492C92.4872 67.3419 87.7503 63.3032 83.4958 60.0494C78.1157 55.9369 73.5396 53.0991 69.4995 51.3749C69.1042 51.2072 68.7089 51.0395 68.3136 50.8718C63.034 48.6109 58.0425 46.4775 52.4748 45.6322C51.8115 45.5316 51.1482 45.4779 50.4983 45.4779C46.0897 45.4779 41.9692 47.7992 37.9626 52.5289C33.5004 57.7886 29.7886 65.3896 27.055 71.4276C26.3984 72.8699 25.7485 74.3056 25.1053 75.7413C14.7471 98.6451 4.96508 120.288 -10.6124 137.643C-23.6104 152.128 -45.3921 161.876 -64.7417 150.994C-85.1164 139.535 -91.0191 129.499 -97.2769 118.872C-98.2752 117.182 -99.307 115.424 -100.392 113.673C-106.221 104.287 -108.66 94.3448 -111.233 83.8187C-112.024 80.5851 -112.841 77.2441 -113.766 73.9299L-114.007 73.997C-113.082 77.3045 -112.265 80.6454 -111.474 83.8791C-108.895 94.4253 -106.449 104.381 -100.6 113.8C-99.5147 115.551 -98.4829 117.302 -97.4846 118.993C-91.2134 129.653 -85.2906 139.716 -64.8623 151.209C-56.0719 156.153 -45.9951 157.193 -35.724 154.214C-26.5115 151.544 -17.5268 145.721 -10.4315 137.804C5.17278 120.415 14.9615 98.7659 25.3264 75.8352C25.9763 74.3996 26.6262 72.9639 27.2761 71.5215C30.003 65.5037 33.7081 57.9227 38.1502 52.6832C42.6928 47.3228 47.3627 45.0955 52.4346 45.867C57.9688 46.7123 62.9402 48.839 68.2131 51.0932C68.6084 51.2609 68.997 51.4286 69.399 51.5963C78.5043 55.4807 89.0836 64.5577 98.2224 72.9236C99.6093 74.1916 101.03 75.4998 102.403 76.7678C110.637 84.3554 119.153 92.2047 128.091 98.7793C138.215 106.233 147.441 110.936 156.305 113.17C159.226 113.908 162.12 114.277 164.908 114.283C164.914 114.283 164.921 114.283 164.928 114.283C167.581 114.283 170.227 113.948 172.793 113.284C177.537 112.049 182.126 109.715 186.81 106.132C195.506 99.4837 203.285 89.3937 210.802 79.6391C217.543 70.8976 224.511 61.8541 232.222 55.1185C252.249 37.6286 277.816 38.6819 296.482 39.4534C309.695 39.9968 331.382 54.461 352.36 68.4556C360.795 74.0775 368.755 79.3909 376.145 83.7986L376.272 83.5839C368.896 79.1762 360.929 73.8696 352.501 68.2476C331.496 54.2396 309.775 39.7553 296.496 39.2052C292.563 39.0509 288.221 38.8765 283.632 38.8765Z" fill="url(#paint17_linear_361_4531)" fill-opacity="0.2"/>
<path d="M274.44 35.4147C270.098 35.4147 265.656 35.6562 261.207 36.2868C255.137 37.1456 249.489 38.6886 244.424 40.869C238.648 43.3579 233.369 46.7794 228.732 51.0395C220.947 58.1978 213.979 67.8853 207.245 77.2575C199.842 87.5555 192.177 98.2024 183.541 105.273C173.886 113.17 163.923 115.712 153.089 113.042C133.076 108.111 115.69 91.4332 98.8796 75.3119C97.8143 74.2922 96.7557 73.2725 95.7038 72.2661C86.6454 63.6118 76.18 54.1323 67.2757 49.4093C66.7732 49.1409 66.2774 48.8793 65.7816 48.6109C60.5154 45.7999 55.5373 43.1499 49.9562 41.9155C47.169 41.2983 44.4421 41.5868 41.8492 42.7743C39.4774 43.8611 37.2262 45.6523 34.9616 48.2621C30.3922 53.5218 26.6268 61.2838 23.853 67.4626C22.5532 70.3541 21.2601 73.2792 20.0005 76.1036C10.4061 97.726 1.34772 118.148 -12.7625 135.014C-24.2865 148.793 -44.7885 160.809 -64.6205 149.317C-83.548 138.355 -89.4105 128.305 -95.6214 117.658C-96.5259 116.115 -97.4572 114.511 -98.4287 112.921C-104.258 103.341 -106.991 93.2378 -109.879 82.544C-110.743 79.3372 -111.641 76.0231 -112.619 72.7492L-112.867 72.823C-111.889 76.0969 -110.991 79.411 -110.127 82.6111C-107.232 93.3251 -104.499 103.442 -98.6498 113.049C-97.6783 114.646 -96.747 116.242 -95.8492 117.785C-89.6182 128.459 -83.7356 138.536 -64.7545 149.538C-60.3124 152.108 -55.5688 153.61 -50.651 153.999C-46.0749 154.362 -41.3581 153.765 -36.6346 152.222C-27.9313 149.377 -19.3821 143.326 -12.5682 135.181C1.56212 118.288 10.6339 97.8535 20.235 76.2109C21.4879 73.3865 22.7877 70.4615 24.0875 67.57C26.8546 61.4113 30.6133 53.6693 35.1559 48.4365C39.8191 43.0627 44.6431 41.0166 49.8959 42.1772C55.4368 43.4049 60.4015 46.0481 65.6543 48.8457C66.1501 49.1074 66.6459 49.3757 67.1484 49.6441C76.0259 54.3537 86.4712 63.8198 95.5162 72.4607C96.5681 73.467 97.6267 74.48 98.692 75.4998C106.946 83.4162 115.482 91.6009 124.487 98.4573C134.705 106.233 144.038 111.083 153.016 113.297C155.977 114.028 158.905 114.377 161.719 114.337C164.406 114.297 167.079 113.908 169.665 113.17C174.436 111.808 179.025 109.292 183.695 105.475C192.365 98.3902 200.03 87.7232 207.446 77.4118C214.18 68.053 221.135 58.3789 228.9 51.2341C247.821 33.8247 272.148 34.6834 293.468 36.8504C306.941 38.219 329.641 54.5348 351.59 70.3072C360.287 76.5598 368.501 82.4568 376.112 87.4347L376.253 87.2133C368.642 82.2421 360.434 76.3384 351.738 70.0925C329.762 54.3 307.035 37.9641 293.488 36.5887C287.619 35.985 281.146 35.4147 274.44 35.4147Z" fill="url(#paint18_linear_361_4531)" fill-opacity="0.2"/>
<path d="M267.346 31.7718C264.197 31.7718 261.021 31.9261 257.859 32.3018C251.768 33.0196 246.1 34.4956 241.015 36.6893C235.246 39.1783 229.993 42.6937 225.404 47.1349C217.585 54.6957 210.637 65.0139 203.924 74.9899C196.614 85.8514 189.05 97.0819 180.433 104.589C170.799 112.988 160.776 115.779 149.794 113.136C129.513 108.252 111.276 90.0377 95.1826 73.9634C94.4523 73.2322 93.722 72.5076 92.9984 71.7831C84.1745 62.9878 74.0106 53.1326 65.0393 47.4368C64.5234 47.1081 64.0075 46.7794 63.4983 46.4573C58.1584 43.0493 53.12 39.8291 47.425 38.2055C44.5373 37.3803 41.7233 37.5145 39.05 38.6148C36.638 39.6009 34.2528 41.4123 31.9614 43.9952C27.2781 49.2683 23.4524 57.1914 20.6451 63.4977C18.7691 67.7108 16.9266 71.9709 15.1377 76.0968C6.25348 96.5989 -2.13493 115.967 -14.9118 132.377C-25.9333 146.499 -45.5308 158.977 -64.5119 147.619C-81.9989 137.16 -87.8346 127.064 -94.0187 116.37C-94.816 114.994 -95.6401 113.565 -96.4843 112.15C-102.307 102.382 -105.342 92.104 -108.551 81.2223C-109.482 78.0625 -110.447 74.7886 -111.486 71.5617L-111.74 71.6422C-110.708 74.8691 -109.744 78.1363 -108.812 81.2961C-105.596 92.1912 -102.561 102.483 -96.7188 112.284C-95.8746 113.7 -95.0505 115.122 -94.2532 116.504C-88.0557 127.225 -82.1999 137.355 -64.6526 147.847C-60.3177 150.444 -55.7148 151.926 -50.9712 152.248C-46.576 152.55 -42.0602 151.866 -37.5511 150.209C-33.3435 148.659 -29.1828 146.291 -25.203 143.158C-21.4175 140.179 -17.8866 136.603 -14.7108 132.531C-8.88182 125.044 -3.61562 116.551 1.84489 105.797C6.66888 96.3037 10.8966 86.5357 15.3789 76.1907C17.1678 72.0648 19.0103 67.8047 20.8863 63.5916C23.6869 57.2988 27.4992 49.4025 32.1557 44.1562C36.9462 38.7624 41.9109 36.8973 47.3446 38.447C52.9994 40.0639 58.0244 43.2707 63.3442 46.6653C63.8534 46.994 64.3693 47.3228 64.8852 47.6448C73.8364 53.3272 83.9869 63.169 92.7974 71.9575C93.521 72.682 94.2513 73.4066 94.9816 74.1378C103.243 82.3897 111.792 90.9233 120.87 98.0681C131.182 106.179 140.615 111.191 149.721 113.378C152.722 114.102 155.684 114.424 158.531 114.344C161.245 114.27 163.938 113.82 166.544 113.015C171.341 111.526 175.944 108.829 180.601 104.77C189.244 97.2362 196.815 85.9923 204.138 75.1173C210.845 65.1548 217.786 54.8501 225.585 47.3094C243.909 29.5914 267.594 30.5374 290.454 34.2004C304.189 36.4008 327.9 54.5683 350.821 72.1386C359.779 79.0084 368.248 85.4891 376.087 91.0239L376.241 90.8025C368.402 85.2745 359.94 78.787 350.982 71.9239C328.028 54.3335 304.296 36.1459 290.488 33.932C283.453 32.8251 275.493 31.7718 267.346 31.7718Z" fill="url(#paint19_linear_361_4531)" fill-opacity="0.2"/>
<path d="M261.267 28.0082C259.023 28.0082 256.765 28.1021 254.514 28.3168C248.397 28.8938 242.708 30.3026 237.61 32.5098C231.848 35.0055 226.622 38.6148 222.066 43.2305C214.227 51.1804 207.319 62.1157 200.632 72.6955C193.41 84.1206 185.946 95.9348 177.343 103.898C167.722 112.801 157.632 115.853 146.496 113.237C125.948 108.4 107.65 89.3602 91.5029 72.5613L90.2901 71.3001C80.6288 61.257 71.2487 51.7171 62.8 45.4645C62.3243 45.1156 61.8486 44.7601 61.3797 44.4112C55.9191 40.3591 50.7669 36.5284 44.891 34.4889C41.9095 33.4557 39.0084 33.4356 36.248 34.4419C33.7623 35.3476 31.31 37.1188 28.9583 39.7151C24.1478 45.0083 20.2684 53.0857 17.4276 59.5261C15.0357 64.9535 12.7108 70.4749 10.4663 75.8151C2.25214 95.331 -5.50646 113.767 -17.0774 129.74C-28.0855 144.929 -46.2961 157.166 -64.3995 145.942C-80.4527 135.993 -86.2817 125.802 -92.4457 115.015C-93.1224 113.834 -93.8192 112.606 -94.5294 111.399C-100.358 101.409 -103.708 90.9367 -107.253 79.8538C-108.244 76.7543 -109.269 73.5475 -110.341 70.3877L-110.609 70.4816C-109.537 73.6414 -108.512 76.8483 -107.521 79.941C-103.97 91.0374 -100.62 101.523 -94.7773 111.539C-94.0671 112.754 -93.3703 113.975 -92.6936 115.155C-86.5095 125.977 -80.6671 136.194 -64.5469 146.184C-60.3125 148.807 -55.857 150.269 -51.301 150.538C-47.0867 150.786 -42.7786 150.008 -38.4839 148.23C-34.5041 146.586 -30.5645 144.097 -26.779 140.83C-23.2213 137.764 -19.8847 134.088 -16.8496 129.901C-11.6437 122.716 -6.70576 114.283 -1.74776 104.113C2.68764 95.0224 6.76795 85.3148 10.721 75.9224C12.9655 70.5822 15.2903 65.0609 17.6823 59.6335C20.5163 53.2132 24.3755 45.1626 29.1593 39.9029C34.0771 34.4889 39.1893 32.805 44.7905 34.7505C50.6262 36.7766 55.7651 40.5939 61.2055 44.6326C61.6812 44.9815 62.1501 45.337 62.6325 45.6859C71.0678 51.9251 80.4344 61.4516 90.0892 71.4879L91.3019 72.7492C99.5697 81.3499 108.119 90.2457 117.271 97.6992C127.676 106.166 137.217 111.338 146.436 113.505C149.478 114.223 152.486 114.525 155.361 114.404C158.101 114.29 160.821 113.787 163.441 112.908C168.271 111.291 172.881 108.406 177.538 104.106C186.167 96.1226 193.644 84.2883 200.874 72.8498C207.547 62.2902 214.455 51.3682 222.267 43.4317C240.853 24.5733 265.643 26.8677 287.438 31.5974C301.434 34.6365 326.15 54.669 350.056 74.0373C359.282 81.5176 367.998 88.5752 376.065 94.6601L376.233 94.432C368.166 88.3538 359.456 81.2895 350.23 73.8159C326.304 54.4207 301.561 34.3681 287.498 31.3223C280.094 29.7122 270.815 28.0082 261.267 28.0082Z" fill="url(#paint20_linear_361_4531)" fill-opacity="0.2"/>
<path d="M255.793 24.1707C242.668 24.1707 229.529 27.8471 218.735 39.3259C210.89 47.6649 204.022 59.2108 197.382 70.3742C190.247 82.3695 182.87 94.7808 174.274 103.194C164.66 112.606 154.496 115.92 143.2 113.324C122.376 108.541 104.025 88.6356 87.8307 71.0719L86.6917 69.8375C77.9214 60.3244 68.8496 50.4893 60.5617 43.4921C60.1597 43.1566 59.7644 42.8212 59.3691 42.479C53.7612 37.7292 48.4615 33.241 42.3578 30.7655C40.5354 30.0275 38.8001 29.6854 37.1452 29.6854C27.0349 29.6854 19.9263 42.479 14.2179 55.5478C11.3503 62.1157 8.60996 68.8379 5.96346 75.3387C-1.62094 93.9623 -8.77654 111.546 -19.2352 127.09C-23.4495 133.356 -30.3974 141.722 -39.5429 145.969C-48.0519 149.92 -56.38 149.343 -64.286 144.245C-78.9255 134.819 -84.7612 124.481 -90.9386 113.532C-91.4746 112.586 -92.024 111.606 -92.5801 110.634C-98.4292 100.389 -102.108 89.6956 -106 78.3778C-107.032 75.3723 -108.104 72.2661 -109.203 69.2002L-109.478 69.3008C-108.379 72.36 -107.307 75.4662 -106.275 78.4717C-102.376 89.8096 -98.6972 100.51 -92.8347 110.781C-92.2853 111.747 -91.7292 112.727 -91.1932 113.673C-84.9957 124.655 -79.1399 135.027 -64.4468 144.5C-60.3196 147.156 -56.0115 148.612 -51.6364 148.813C-47.6097 149.001 -43.4959 148.136 -39.4156 146.244C-35.6636 144.5 -31.9384 141.89 -28.3539 138.495C-25.024 135.342 -21.875 131.558 -18.9806 127.265C-14.2772 120.274 -9.78155 112.13 -5.22555 102.368C-1.15865 93.647 2.60676 84.4023 6.24486 75.4595C8.89136 68.9587 11.6316 62.2364 14.4925 55.6752C21.0786 40.5939 29.5273 25.8815 42.2573 31.0472C48.3208 33.5094 53.6004 37.9774 59.1882 42.7138C59.5835 43.0493 59.9855 43.3914 60.3808 43.7269C68.6553 50.7107 77.7204 60.5391 86.484 70.0455L87.623 71.2799C95.8908 80.2429 104.433 89.5144 113.653 97.2832C124.151 106.132 133.799 111.472 143.139 113.619C146.228 114.33 149.27 114.605 152.184 114.444C154.958 114.29 157.705 113.726 160.345 112.781C165.209 111.03 169.839 107.964 174.489 103.408C183.111 94.9687 190.495 82.544 197.644 70.5285C204.277 59.3785 211.131 47.8461 218.956 39.5339C237.79 19.5081 263.84 23.3724 284.429 28.9809C298.68 32.8586 324.408 54.7628 349.292 75.9492C358.779 84.0266 367.743 91.6612 376.045 98.2828L376.225 98.0547C367.931 91.4331 358.966 83.8052 349.479 75.7278C324.575 54.5213 298.82 32.597 284.503 28.6992C275.612 26.2706 265.702 24.1707 255.793 24.1707Z" fill="url(#paint21_linear_361_4531)" fill-opacity="0.2"/>
<path d="M250.655 20.2997C249.71 20.2997 248.765 20.3198 247.821 20.3668C241.65 20.662 235.921 21.9366 230.803 24.164C225.047 26.6663 219.868 30.4568 215.406 35.428C207.567 44.1495 200.753 56.2924 194.167 68.0395C187.112 80.6118 179.816 93.6202 171.233 102.496C161.625 112.425 151.381 116.007 139.917 113.438C118.819 108.708 100.012 87.4346 84.8967 70.3406C83.5567 68.8244 82.2033 67.2881 80.8901 65.7921C73.3861 57.2652 65.6275 48.4498 58.3379 41.533C58.0431 41.2513 57.7483 40.9695 57.4468 40.6877C51.9193 35.4347 46.2042 30.0006 39.8325 27.0622C36.2949 25.4319 32.8511 25.2307 29.6016 26.4785C25.9903 27.8605 22.5867 30.96 19.1965 35.9446C16.5567 39.829 13.9571 44.8002 11.0158 51.5962C7.70599 59.2443 4.61059 67.1338 1.61568 74.7751C-5.05752 91.7819 -11.9585 109.366 -21.3787 124.481C-29.0033 136.711 -38.0617 144.486 -46.8856 146.371C-52.7615 147.626 -58.5704 146.351 -64.1649 142.588C-77.4175 133.645 -83.3001 123.065 -89.5244 111.861C-89.8929 111.204 -90.2614 110.54 -90.6299 109.876C-96.5192 99.3293 -100.74 87.8439 -104.821 76.7408C-105.872 73.8829 -106.958 70.931 -108.063 68.0194L-108.345 68.1267C-107.239 71.0316 -106.154 73.9902 -105.109 76.8482C-101.022 87.9646 -96.7939 99.4568 -90.8979 110.023C-90.5294 110.687 -90.1609 111.345 -89.7924 112.009C-86.6501 117.664 -83.682 123.005 -79.7558 128.204C-75.307 134.094 -70.4093 138.744 -64.3525 142.822C-58.691 146.64 -52.795 147.928 -46.8387 146.653C-42.1152 145.64 -37.3783 143.03 -32.762 138.891C-28.6482 135.195 -24.7354 130.398 -21.1375 124.628C-16.9031 117.832 -12.8161 109.969 -8.64871 100.591C-4.93021 92.218 -1.46631 83.4026 1.87699 74.8691C4.87189 67.2344 7.96729 59.3449 11.2771 51.7036C15.5986 41.7142 21.6018 29.8463 29.6954 26.7536C32.8645 25.5393 36.2279 25.7338 39.6918 27.3305C46.0233 30.2488 51.7183 35.6628 57.2257 40.9024C57.5205 41.1842 57.8153 41.4659 58.1168 41.7477C65.393 48.6578 72.8032 57.0773 80.6489 65.9866C81.9621 67.476 83.3222 69.019 84.6555 70.5352C91.9384 78.7736 101.004 89.0246 110.43 97.1825C120.869 106.213 130.484 111.627 139.837 113.726C142.972 114.431 146.061 114.686 149.002 114.478C151.81 114.283 154.583 113.666 157.243 112.64C162.148 110.754 166.791 107.501 171.434 102.697C180.05 93.7946 187.353 80.7728 194.415 68.1804C200.994 56.4534 207.802 44.3239 215.62 35.6293C234.494 14.6308 260.685 19.6422 281.394 26.351C295.9 31.1076 322.66 54.897 348.548 77.9081C358.29 86.5625 367.489 94.7405 376.005 101.899L376.199 101.664C367.684 94.5124 358.491 86.3411 348.749 77.68C322.841 54.6487 296.054 30.8392 281.488 26.0626C273.703 23.5333 262.293 20.2997 250.655 20.2997Z" fill="url(#paint22_linear_361_4531)" fill-opacity="0.2"/>
<path d="M245.845 16.3617C245.389 16.3617 244.933 16.3684 244.478 16.3751C238.274 16.5294 232.532 17.7437 227.406 19.9844C221.658 22.4935 216.499 26.3779 212.077 31.5168C204.251 40.614 197.497 53.3473 190.965 65.6579C183.99 78.8139 176.774 92.4193 168.192 101.758C158.584 112.217 148.252 116.061 136.621 113.512C115.268 108.842 96.1532 86.2942 82.1971 69.8375C79.8588 67.0802 77.5004 64.2625 75.2224 61.532C68.6296 53.6358 62.3986 46.1823 56.1006 39.5473L55.578 38.9972C49.8763 32.9861 43.9803 26.767 37.3004 23.3321C33.6087 21.4335 30.0175 21.0914 26.6273 22.3191C22.949 23.6474 19.4851 26.7402 16.048 31.7785C13.3479 35.73 10.7282 40.7549 7.80032 47.6045C4.02821 56.3662 0.577713 65.517 -2.75219 74.3659C-8.84249 90.5274 -15.1338 107.232 -23.5423 121.817C-28.8085 130.955 -37.3376 142.333 -48.0576 144.688C-53.4444 145.868 -58.8245 144.587 -64.0572 140.877C-75.9564 132.451 -82.2142 120.979 -88.2643 109.876L-88.6797 109.118C-94.6494 98.1688 -99.2992 86.2875 -103.788 74.802C-104.807 72.1923 -105.865 69.4954 -106.924 66.8387L-107.212 66.9527C-106.153 69.6094 -105.101 72.3063 -104.076 74.9094C-99.5806 86.4082 -94.9308 98.2962 -88.9477 109.265L-88.5323 110.023C-85.4972 115.592 -82.3616 121.348 -78.556 126.648C-74.2881 132.592 -69.6048 137.335 -64.2381 141.139C-58.9317 144.902 -53.4645 146.204 -47.9839 145.003C-43.4279 144.003 -38.8585 141.28 -34.403 136.899C-30.5103 133.068 -26.7583 128.05 -23.2609 121.985C-14.839 107.373 -8.54099 90.6549 -2.45069 74.4867C0.879211 65.6445 4.3297 56.5004 8.09511 47.7387C11.0163 40.9092 13.6226 35.8977 16.3093 31.9663C19.7129 26.9884 23.1232 23.9292 26.7412 22.6277C30.051 21.4335 33.5551 21.769 37.1664 23.6273C43.7994 27.0354 49.6753 33.2343 55.3569 39.2253L55.8795 39.7754C62.1641 46.4037 68.3951 53.8572 74.9879 61.7467C77.2659 64.4772 79.6243 67.3016 81.9626 70.0589C90.2706 79.8605 98.4715 89.3132 107.369 97.2027C117.687 106.354 127.235 111.794 136.561 113.834C139.75 114.532 142.872 114.76 145.854 114.511C148.695 114.277 151.495 113.599 154.175 112.499C159.12 110.473 163.783 107.038 168.426 101.979C177.036 92.6072 184.265 78.9883 191.246 65.8122C197.765 53.515 204.512 40.7951 212.318 31.7248C231.48 9.45833 259.204 16.4891 278.393 23.7212C293.147 29.3231 320.932 55.0044 347.799 79.8403C357.802 89.0851 367.249 97.8199 375.992 105.508L376.2 105.273C367.456 97.5918 358.009 88.857 348.013 79.6122C321.126 54.7561 293.321 29.048 278.507 23.4327C272.457 21.1518 267.043 19.4813 261.958 18.3274C256.23 17.0191 250.823 16.3617 245.845 16.3617Z" fill="url(#paint23_linear_361_4531)" fill-opacity="0.2"/>
<path d="M241.268 12.3901C241.221 12.3901 241.181 12.3901 241.141 12.3901C234.91 12.4035 229.148 13.5574 224.009 15.8049C218.26 18.3207 213.128 22.299 208.739 27.6123C200.934 37.0785 194.254 50.3887 187.789 63.2562C180.888 76.9891 173.752 91.1983 165.169 101.007C155.555 111.996 145.143 116.115 133.331 113.619C113.378 109.332 95.7975 89.4071 79.4964 69.3679C76.2603 65.3896 73.0108 61.2771 69.8752 57.2988C64.6425 50.6638 59.2222 43.8007 53.8622 37.5883L53.7483 37.4541C47.8657 30.638 41.7821 23.5871 34.7672 19.6289C30.9348 17.4686 27.2029 16.9789 23.6787 18.1798C19.9334 19.4545 16.4159 22.5472 12.9185 27.6392C10.1715 31.6443 7.52501 36.7296 4.59041 43.6464C0.449814 53.3741 -3.25531 63.6386 -6.83311 73.5676C-12.4075 89.0381 -18.1762 105.032 -25.7003 119.187C-29.0838 125.554 -32.6549 130.787 -36.2997 134.725C-40.5475 139.307 -44.8891 142.118 -49.2039 143.077C-54.1217 144.171 -59.0797 142.863 -63.9439 139.2C-74.5567 131.196 -81.0222 119.067 -86.7239 108.359C-92.8879 96.7868 -98.067 84.2748 -103.079 72.1722C-103.963 70.0388 -104.874 67.8316 -105.785 65.6579L-106.087 65.7854C-105.182 67.959 -104.265 70.1662 -103.38 72.2996C-98.3685 84.409 -93.1827 96.9276 -87.012 108.514C-83.7491 114.639 -80.7609 120.133 -77.1898 125.333C-73.0827 131.324 -68.8148 135.946 -64.1449 139.461C-59.2003 143.185 -54.1552 144.513 -49.1436 143.399C-44.7618 142.427 -40.3599 139.582 -36.0719 134.953C-32.407 130.995 -28.8225 125.742 -25.4256 119.348C-17.8881 105.173 -12.1194 89.1656 -6.5383 73.6817C-2.96049 63.7526 0.7379 53.4949 4.87849 43.7738C7.8064 36.8772 10.4395 31.8053 13.1798 27.827C16.6303 22.7954 20.1009 19.7429 23.7725 18.4951C27.2096 17.321 30.8544 17.8041 34.5997 19.9174C41.5677 23.8487 47.6312 30.8795 53.4937 37.6755L53.6076 37.8097C58.9609 44.0154 64.3745 50.8785 69.6072 57.5067C72.7428 61.4851 75.9923 65.5976 79.2284 69.5826C86.585 78.626 95.1878 88.9643 104.273 97.2161C114.477 106.481 123.951 111.955 133.244 113.948C136.48 114.632 139.656 114.833 142.671 114.538C145.545 114.256 148.379 113.518 151.079 112.344C156.064 110.178 160.747 106.548 165.397 101.235C174.007 91.3929 181.156 77.1702 188.063 63.4172C194.522 50.5631 201.195 37.273 208.974 27.8337C217.235 17.8108 227.901 12.8127 241.194 12.8127C251.09 12.8127 262.44 15.5835 275.351 21.1115C290.359 27.5587 319.155 55.1385 347.007 81.8127C357.272 91.6411 366.967 100.926 375.938 109.138L376.159 108.896C367.188 100.691 357.5 91.4063 347.235 81.5779C319.363 54.8836 290.54 27.2836 275.478 20.8096C262.293 15.1407 251.09 12.3901 241.268 12.3901Z" fill="url(#paint24_linear_361_4531)" fill-opacity="0.2"/>
<path d="M236.853 8.39825C230.957 8.39825 225.497 9.48508 220.612 11.6319C214.87 14.1544 209.752 18.2199 205.41 23.7144C197.638 33.5428 191.018 47.43 184.627 60.8543C177.799 75.1843 170.738 90.0108 162.148 100.295C152.527 111.821 142.021 116.209 130.035 113.713C109.908 109.527 92.6959 89.2728 76.7968 68.8781C72.8103 63.766 68.8372 58.419 65.0048 53.2533C60.6632 47.4032 56.1742 41.3586 51.6316 35.6158C45.9969 28.4978 39.6185 20.4204 32.2418 15.9121C28.2687 13.4835 24.3961 12.8462 20.7312 14.0269C18.7614 14.6643 16.7983 15.8383 14.9089 17.5289C13.1937 19.0652 11.4718 21.0712 9.79681 23.493C7.03641 27.4915 4.2827 32.7847 1.3816 39.6747C-3.1208 50.3551 -7.047 61.7802 -10.8392 72.8295C-15.9178 87.6023 -21.1639 102.878 -27.8505 116.558C-31.1402 123.28 -34.5438 128.761 -37.9675 132.833C-42.0478 137.684 -46.2152 140.609 -50.3558 141.521C-54.8247 142.507 -59.3539 141.159 -63.8295 137.522C-72.4591 130.498 -79.1658 118.396 -84.7737 107.601C-91.4603 94.7271 -97.5104 80.8399 -103.366 67.4088C-103.795 66.4294 -104.217 65.4499 -104.646 64.4704L-104.954 64.6046C-104.525 65.584 -104.103 66.5635 -103.674 67.543C-97.8186 80.9807 -91.7685 94.868 -85.0752 107.756C-79.4539 118.577 -72.7271 130.72 -64.0506 137.784C-59.4946 141.487 -54.8649 142.856 -50.2955 141.85C-46.0812 140.924 -41.8535 137.959 -37.7263 133.048C-34.2825 128.955 -30.8655 123.454 -27.5624 116.705C-20.8624 103.006 -15.6096 87.7164 -10.531 72.9369C-6.73879 61.8942 -2.8126 50.4758 1.6831 39.8088C5.7165 30.2287 12.0949 17.1666 20.825 14.349C24.3894 13.2018 28.1682 13.819 32.0609 16.2006C39.384 20.6821 45.749 28.7259 51.3636 35.8238C55.8995 41.5598 60.3885 47.6045 64.7301 53.4545C68.5692 58.627 72.5356 63.9739 76.5288 69.086C83.6509 78.2167 92.0192 88.6757 101.212 97.2227C111.302 106.615 120.709 112.11 129.968 114.035C133.258 114.719 136.467 114.894 139.522 114.558C142.43 114.236 145.291 113.445 148.024 112.197C153.049 109.896 157.753 106.072 162.403 100.503C171.019 90.1852 178.087 75.3454 184.928 60.9952C191.32 47.5843 197.926 33.7173 205.671 23.9157C220.09 5.6812 241.898 3.90335 272.356 18.4614C287.619 25.7606 317.441 55.2458 346.277 83.7649C356.803 94.1702 366.739 103.999 375.938 112.727L376.166 112.485C366.974 103.764 357.038 93.9354 346.512 83.5301C317.655 54.9909 287.813 25.4856 272.504 18.1596C259.177 11.7862 247.828 8.5928 237.805 8.39825C237.483 8.39825 237.168 8.39825 236.853 8.39825Z" fill="url(#paint25_linear_361_4531)" fill-opacity="0.2"/>
</g>
<defs>
<linearGradient id="paint0_linear_361_4531" x1="119.546" y1="188.229" x2="119.546" y2="22.2452" gradientUnits="userSpaceOnUse">
<stop stop-color="white"/>
<stop offset="1" stop-color="white" stop-opacity="0"/>
</linearGradient>
<linearGradient id="paint1_linear_361_4531" x1="120.431" y1="186.195" x2="120.431" y2="25.8546" gradientUnits="userSpaceOnUse">
<stop stop-color="white"/>
<stop offset="1" stop-color="white" stop-opacity="0"/>
</linearGradient>
<linearGradient id="paint2_linear_361_4531" x1="121.302" y1="184.191" x2="121.302" y2="29.4639" gradientUnits="userSpaceOnUse">
<stop stop-color="white"/>
<stop offset="1" stop-color="white" stop-opacity="0"/>
</linearGradient>
<linearGradient id="paint3_linear_361_4531" x1="122.165" y1="182.203" x2="122.165" y2="33.0732" gradientUnits="userSpaceOnUse">
<stop stop-color="white"/>
<stop offset="1" stop-color="white" stop-opacity="0"/>
</linearGradient>
<linearGradient id="paint4_linear_361_4531" x1="123.027" y1="180.235" x2="123.027" y2="36.6759" gradientUnits="userSpaceOnUse">
<stop stop-color="white"/>
<stop offset="1" stop-color="white" stop-opacity="0"/>
</linearGradient>
<linearGradient id="paint5_linear_361_4531" x1="123.855" y1="178.254" x2="123.855" y2="40.2852" gradientUnits="userSpaceOnUse">
<stop stop-color="white"/>
<stop offset="1" stop-color="white" stop-opacity="0"/>
</linearGradient>
<linearGradient id="paint6_linear_361_4531" x1="124.684" y1="176.317" x2="124.684" y2="43.8879" gradientUnits="userSpaceOnUse">
<stop stop-color="white"/>
<stop offset="1" stop-color="white" stop-opacity="0"/>
</linearGradient>
<linearGradient id="paint7_linear_361_4531" x1="125.473" y1="174.417" x2="125.473" y2="47.4904" gradientUnits="userSpaceOnUse">
<stop stop-color="white"/>
<stop offset="1" stop-color="white" stop-opacity="0"/>
</linearGradient>
<linearGradient id="paint8_linear_361_4531" x1="126.102" y1="172.496" x2="126.102" y2="51.0998" gradientUnits="userSpaceOnUse">
<stop stop-color="white"/>
<stop offset="1" stop-color="white" stop-opacity="0"/>
</linearGradient>
<linearGradient id="paint9_linear_361_4531" x1="126.661" y1="170.578" x2="126.661" y2="54.7024" gradientUnits="userSpaceOnUse">
<stop stop-color="white"/>
<stop offset="1" stop-color="white" stop-opacity="0"/>
</linearGradient>
<linearGradient id="paint10_linear_361_4531" x1="127.217" y1="168.709" x2="127.217" y2="54.5481" gradientUnits="userSpaceOnUse">
<stop stop-color="white"/>
<stop offset="1" stop-color="white" stop-opacity="0"/>
</linearGradient>
<linearGradient id="paint11_linear_361_4531" x1="127.776" y1="166.855" x2="127.776" y2="53.1461" gradientUnits="userSpaceOnUse">
<stop stop-color="white"/>
<stop offset="1" stop-color="white" stop-opacity="0"/>
</linearGradient>
<linearGradient id="paint12_linear_361_4531" x1="128.323" y1="164.998" x2="128.323" y2="51.3077" gradientUnits="userSpaceOnUse">
<stop stop-color="white"/>
<stop offset="1" stop-color="white" stop-opacity="0"/>
</linearGradient>
<linearGradient id="paint13_linear_361_4531" x1="128.902" y1="163.157" x2="128.902" y2="49.181" gradientUnits="userSpaceOnUse">
<stop stop-color="white"/>
<stop offset="1" stop-color="white" stop-opacity="0"/>
</linearGradient>
<linearGradient id="paint14_linear_361_4531" x1="129.439" y1="161.309" x2="129.439" y2="46.8666" gradientUnits="userSpaceOnUse">
<stop stop-color="white"/>
<stop offset="1" stop-color="white" stop-opacity="0"/>
</linearGradient>
<linearGradient id="paint15_linear_361_4531" x1="130.023" y1="159.492" x2="130.023" y2="44.4044" gradientUnits="userSpaceOnUse">
<stop stop-color="white"/>
<stop offset="1" stop-color="white" stop-opacity="0"/>
</linearGradient>
<linearGradient id="paint16_linear_361_4531" x1="130.577" y1="157.674" x2="130.577" y2="41.8417" gradientUnits="userSpaceOnUse">
<stop stop-color="white"/>
<stop offset="1" stop-color="white" stop-opacity="0"/>
</linearGradient>
<linearGradient id="paint17_linear_361_4531" x1="131.133" y1="155.876" x2="131.133" y2="38.8765" gradientUnits="userSpaceOnUse">
<stop stop-color="white"/>
<stop offset="1" stop-color="white" stop-opacity="0"/>
</linearGradient>
<linearGradient id="paint18_linear_361_4531" x1="131.693" y1="154.102" x2="131.693" y2="35.4147" gradientUnits="userSpaceOnUse">
<stop stop-color="white"/>
<stop offset="1" stop-color="white" stop-opacity="0"/>
</linearGradient>
<linearGradient id="paint19_linear_361_4531" x1="132.25" y1="152.318" x2="132.25" y2="31.7718" gradientUnits="userSpaceOnUse">
<stop stop-color="white"/>
<stop offset="1" stop-color="white" stop-opacity="0"/>
</linearGradient>
<linearGradient id="paint20_linear_361_4531" x1="132.812" y1="150.583" x2="132.812" y2="28.0082" gradientUnits="userSpaceOnUse">
<stop stop-color="white"/>
<stop offset="1" stop-color="white" stop-opacity="0"/>
</linearGradient>
<linearGradient id="paint21_linear_361_4531" x1="133.374" y1="148.839" x2="133.374" y2="24.1707" gradientUnits="userSpaceOnUse">
<stop stop-color="white"/>
<stop offset="1" stop-color="white" stop-opacity="0"/>
</linearGradient>
<linearGradient id="paint22_linear_361_4531" x1="133.927" y1="147.129" x2="133.927" y2="20.2997" gradientUnits="userSpaceOnUse">
<stop stop-color="white"/>
<stop offset="1" stop-color="white" stop-opacity="0"/>
</linearGradient>
<linearGradient id="paint23_linear_361_4531" x1="134.494" y1="145.436" x2="134.494" y2="16.3617" gradientUnits="userSpaceOnUse">
<stop stop-color="white"/>
<stop offset="1" stop-color="white" stop-opacity="0"/>
</linearGradient>
<linearGradient id="paint24_linear_361_4531" x1="135.036" y1="143.781" x2="135.036" y2="12.3901" gradientUnits="userSpaceOnUse">
<stop stop-color="white"/>
<stop offset="1" stop-color="white" stop-opacity="0"/>
</linearGradient>
<linearGradient id="paint25_linear_361_4531" x1="135.606" y1="142.17" x2="135.606" y2="8.39825" gradientUnits="userSpaceOnUse">
<stop stop-color="white"/>
<stop offset="1" stop-color="white" stop-opacity="0"/>
</linearGradient>
</defs>
</svg>
