<svg width="51" height="50" viewBox="0 0 51 50" fill="none" xmlns="http://www.w3.org/2000/svg">
<path d="M31.1004 10.6905C33.1245 10.6905 34.7711 9.04396 34.7711 7.01986C34.7711 4.99577 33.1245 3.34918 31.1004 3.34918C29.0763 3.34918 27.4297 4.99577 27.4297 7.01986C27.4297 9.04396 29.0763 10.6905 31.1004 10.6905ZM31.1004 4.554C32.4578 4.554 33.5662 5.66243 33.5662 7.01986C33.5662 8.37729 32.4578 9.48573 31.1004 9.48573C29.7429 9.48573 28.6345 8.37729 28.6345 7.01986C28.6345 5.66243 29.7429 4.554 31.1004 4.554Z" fill="white"/>
<path d="M4.69131 18.9717L3.65517 20.0079C3.42224 20.2408 3.42224 20.6263 3.65517 20.8593C3.77565 20.9798 3.92826 21.036 4.08087 21.036C4.23348 21.036 4.38609 20.9798 4.50657 20.8593L5.54272 19.8231C5.77565 19.5902 5.77565 19.2047 5.54272 18.9717C5.30979 18.7388 4.92424 18.7308 4.69131 18.9717Z" fill="white"/>
<path d="M8.12002 18.9717L7.08388 20.0079C6.85095 20.2408 6.85095 20.6263 7.08388 20.8593C7.20436 20.9798 7.35697 21.036 7.50958 21.036C7.66219 21.036 7.8148 20.9798 7.93528 20.8593L8.97143 19.8231C9.20436 19.5902 9.20436 19.2047 8.97143 18.9717C8.7385 18.7388 8.36099 18.7308 8.12002 18.9717Z" fill="white"/>
<path d="M11.5507 18.9717L10.5145 20.0079C10.2816 20.2408 10.2816 20.6263 10.5145 20.8593C10.635 20.9798 10.7876 21.036 10.9402 21.036C11.0929 21.036 11.2455 20.9798 11.3659 20.8593L12.4021 19.8231C12.635 19.5902 12.635 19.2047 12.4021 18.9717C12.1692 18.7388 11.7917 18.7308 11.5507 18.9717Z" fill="white"/>
<path d="M14.9872 18.9717L13.9511 20.0079C13.7181 20.2408 13.7181 20.6263 13.9511 20.8593C14.0715 20.9798 14.2242 21.036 14.3768 21.036C14.5294 21.036 14.682 20.9798 14.8025 20.8593L15.8386 19.8231C16.0715 19.5902 16.0715 19.2047 15.8386 18.9717C15.6057 18.7388 15.2201 18.7308 14.9872 18.9717Z" fill="white"/>
<path d="M18.4179 18.9717L17.3817 20.0079C17.1488 20.2408 17.1488 20.6263 17.3817 20.8593C17.5022 20.9798 17.6548 21.036 17.8074 21.036C17.96 21.036 18.1127 20.9798 18.2331 20.8593L19.2693 19.8231C19.5022 19.5902 19.5022 19.2047 19.2693 18.9717C19.0363 18.7388 18.6508 18.7308 18.4179 18.9717Z" fill="white"/>
<path d="M21.8466 18.9717L20.8104 20.0079C20.5775 20.2408 20.5775 20.6263 20.8104 20.8593C20.9309 20.9798 21.0835 21.036 21.2361 21.036C21.3888 21.036 21.5414 20.9798 21.6618 20.8593L22.698 19.8231C22.9309 19.5902 22.9309 19.2047 22.698 18.9717C22.4651 18.7388 22.0875 18.7308 21.8466 18.9717Z" fill="white"/>
<path d="M4.69131 22.8834L3.65517 23.9195C3.42224 24.1524 3.42224 24.538 3.65517 24.7709C3.77565 24.8914 3.92826 24.9476 4.08087 24.9476C4.23348 24.9476 4.38609 24.8914 4.50657 24.7709L5.54272 23.7348C5.77565 23.5018 5.77565 23.1163 5.54272 22.8834C5.30175 22.6424 4.92424 22.6424 4.69131 22.8834Z" fill="white"/>
<path d="M8.12002 22.8835L7.08388 23.9197C6.85095 24.1526 6.85095 24.5382 7.08388 24.7711C7.20436 24.8916 7.35697 24.9478 7.50958 24.9478C7.66219 24.9478 7.8148 24.8916 7.93528 24.7711L8.97143 23.7349C9.20436 23.502 9.20436 23.1165 8.97143 22.8835C8.7385 22.6506 8.35295 22.6426 8.12002 22.8835Z" fill="white"/>
<path d="M11.5507 22.8834L10.5145 23.9195C10.2816 24.1524 10.2816 24.538 10.5145 24.7709C10.635 24.8914 10.7876 24.9476 10.9402 24.9476C11.0929 24.9476 11.2455 24.8914 11.3659 24.7709L12.4021 23.7348C12.635 23.5018 12.635 23.1163 12.4021 22.8834C12.1692 22.6424 11.7917 22.6424 11.5507 22.8834Z" fill="white"/>
<path d="M14.9872 22.8834L13.9511 23.9195C13.7181 24.1524 13.7181 24.538 13.9511 24.7709C14.0715 24.8914 14.2242 24.9476 14.3768 24.9476C14.5294 24.9476 14.682 24.8914 14.8025 24.7709L15.8386 23.7348C16.0715 23.5018 16.0715 23.1163 15.8386 22.8834C15.5977 22.6424 15.2201 22.6424 14.9872 22.8834Z" fill="white"/>
<path d="M18.4179 22.8835L17.3817 23.9197C17.1488 24.1526 17.1488 24.5382 17.3817 24.7711C17.5022 24.8916 17.6548 24.9478 17.8074 24.9478C17.96 24.9478 18.1127 24.8916 18.2331 24.7711L19.2693 23.7349C19.5022 23.502 19.5022 23.1165 19.2693 22.8835C19.0363 22.6506 18.6508 22.6426 18.4179 22.8835Z" fill="white"/>
<path d="M21.8466 22.8834L20.8104 23.9195C20.5775 24.1524 20.5775 24.538 20.8104 24.7709C20.9309 24.8914 21.0835 24.9476 21.2361 24.9476C21.3888 24.9476 21.5414 24.8914 21.6618 24.7709L22.698 23.7348C22.9309 23.5018 22.9309 23.1163 22.698 22.8834C22.4651 22.6424 22.0875 22.6424 21.8466 22.8834Z" fill="white"/>
<path d="M4.6905 34.1687L3.65436 35.2049C3.41339 35.4378 3.41339 35.8233 3.65436 36.0563C3.77484 36.1768 3.92745 36.233 4.08006 36.233C4.23267 36.233 4.38528 36.1768 4.50576 36.0563L5.5419 35.0201C5.77484 34.7872 5.77484 34.4016 5.5419 34.1687C5.30897 33.9358 4.92343 33.9358 4.6905 34.1687Z" fill="white"/>
<path d="M8.12002 34.1687L7.08388 35.2049C6.85095 35.4378 6.85095 35.8233 7.08388 36.0563C7.20436 36.1768 7.35697 36.233 7.50958 36.233C7.66219 36.233 7.8148 36.1768 7.93528 36.0563L8.97143 35.0201C9.20436 34.7872 9.20436 34.4016 8.97143 34.1687C8.7385 33.9358 8.36099 33.9358 8.12002 34.1687Z" fill="white"/>
<path d="M11.5507 34.1687L10.5145 35.2049C10.2816 35.4378 10.2816 35.8233 10.5145 36.0563C10.635 36.1768 10.7876 36.233 10.9402 36.233C11.0929 36.233 11.2455 36.1768 11.3659 36.0563L12.4021 35.0201C12.635 34.7872 12.635 34.4016 12.4021 34.1687C12.1692 33.9358 11.7917 33.9358 11.5507 34.1687Z" fill="white"/>
<path d="M14.9872 34.1687L13.9511 35.2049C13.7181 35.4378 13.7181 35.8233 13.9511 36.0563C14.0715 36.1768 14.2242 36.233 14.3768 36.233C14.5294 36.233 14.682 36.1768 14.8025 36.0563L15.8386 35.0201C16.0715 34.7872 16.0715 34.4016 15.8386 34.1687C15.6057 33.9358 15.2201 33.9358 14.9872 34.1687Z" fill="white"/>
<path d="M18.4179 34.1687L17.3817 35.2049C17.1488 35.4378 17.1488 35.8233 17.3817 36.0563C17.5022 36.1768 17.6548 36.233 17.8074 36.233C17.96 36.233 18.1127 36.1768 18.2331 36.0563L19.2693 35.0201C19.5022 34.7872 19.5022 34.4016 19.2693 34.1687C19.0363 33.9358 18.6508 33.9358 18.4179 34.1687Z" fill="white"/>
<path d="M21.8466 34.1687L20.8104 35.2049C20.5775 35.4378 20.5775 35.8233 20.8104 36.0563C20.9309 36.1768 21.0835 36.233 21.2361 36.233C21.3888 36.233 21.5414 36.1768 21.6618 36.0563L22.698 35.0201C22.9309 34.7872 22.9309 34.4016 22.698 34.1687C22.4651 33.9358 22.0875 33.9358 21.8466 34.1687Z" fill="white"/>
<path d="M4.69131 38.0803L3.65517 39.1164C3.42224 39.3494 3.42224 39.7349 3.65517 39.9678C3.77565 40.0883 3.92826 40.1445 4.08087 40.1445C4.23348 40.1445 4.38609 40.0883 4.50657 39.9678L5.54272 38.9317C5.77565 38.6987 5.77565 38.3132 5.54272 38.0803C5.30979 37.8473 4.92424 37.8473 4.69131 38.0803Z" fill="white"/>
<path d="M8.12002 38.0803L7.08388 39.1164C6.85095 39.3494 6.85095 39.7349 7.08388 39.9678C7.20436 40.0883 7.35697 40.1445 7.50958 40.1445C7.66219 40.1445 7.8148 40.0883 7.93528 39.9678L8.97143 38.9317C9.20436 38.6987 9.20436 38.3132 8.97143 38.0803C8.7385 37.8473 8.36099 37.8473 8.12002 38.0803Z" fill="white"/>
<path d="M11.5507 38.0803L10.5145 39.1164C10.2816 39.3494 10.2816 39.7349 10.5145 39.9678C10.635 40.0883 10.7876 40.1445 10.9402 40.1445C11.0929 40.1445 11.2455 40.0883 11.3659 39.9678L12.4021 38.9317C12.635 38.6987 12.635 38.3132 12.4021 38.0803C12.1692 37.8473 11.7917 37.8473 11.5507 38.0803Z" fill="white"/>
<path d="M14.9872 38.0803L13.9511 39.1164C13.7181 39.3494 13.7181 39.7349 13.9511 39.9678C14.0715 40.0883 14.2242 40.1445 14.3768 40.1445C14.5294 40.1445 14.682 40.0883 14.8025 39.9678L15.8386 38.9317C16.0715 38.6987 16.0715 38.3132 15.8386 38.0803C15.6057 37.8473 15.2201 37.8473 14.9872 38.0803Z" fill="white"/>
<path d="M18.4179 38.0803L17.3817 39.1164C17.1488 39.3494 17.1488 39.7349 17.3817 39.9678C17.5022 40.0883 17.6548 40.1445 17.8074 40.1445C17.96 40.1445 18.1127 40.0883 18.2331 39.9678L19.2693 38.9317C19.5022 38.6987 19.5022 38.3132 19.2693 38.0803C19.0363 37.8473 18.6508 37.8473 18.4179 38.0803Z" fill="white"/>
<path d="M21.8466 38.0803L20.8104 39.1164C20.5775 39.3494 20.5775 39.7349 20.8104 39.9678C20.9309 40.0883 21.0835 40.1445 21.2361 40.1445C21.3888 40.1445 21.5414 40.0883 21.6618 39.9678L22.698 38.9317C22.9309 38.6987 22.9309 38.3132 22.698 38.0803C22.4651 37.8473 22.0875 37.8473 21.8466 38.0803Z" fill="white"/>
<path d="M4.08087 5.83924C4.23348 5.83924 4.38609 5.78301 4.50657 5.66253L5.54272 4.62639C5.77565 4.39345 5.77565 4.00791 5.54272 3.77498C5.30979 3.54205 4.92424 3.54205 4.69131 3.77498L3.65517 4.81112C3.42224 5.04406 3.42224 5.4296 3.65517 5.66253C3.76762 5.77498 3.92023 5.83924 4.08087 5.83924Z" fill="white"/>
<path d="M7.50958 5.83924C7.66219 5.83924 7.8148 5.78301 7.93528 5.66253L8.97143 4.62639C9.20436 4.39345 9.20436 4.00791 8.97143 3.77498C8.7385 3.54205 8.35295 3.54205 8.12002 3.77498L7.08388 4.81112C6.85095 5.04406 6.85095 5.4296 7.08388 5.66253C7.19633 5.77498 7.35697 5.83924 7.50958 5.83924Z" fill="white"/>
<path d="M10.9402 5.83924C11.0929 5.83924 11.2455 5.78301 11.3659 5.66253L12.4021 4.62639C12.635 4.39345 12.635 4.00791 12.4021 3.77498C12.1692 3.54205 11.7836 3.54205 11.5507 3.77498L10.5145 4.81112C10.2816 5.04406 10.2816 5.4296 10.5145 5.66253C10.635 5.77498 10.7876 5.83924 10.9402 5.83924Z" fill="white"/>
<path d="M14.3768 5.83924C14.5294 5.83924 14.682 5.78301 14.8025 5.66253L15.8386 4.62639C16.0715 4.39345 16.0715 4.00791 15.8386 3.77498C15.6057 3.54205 15.2201 3.54205 14.9872 3.77498L13.9511 4.81112C13.7181 5.04406 13.7181 5.4296 13.9511 5.66253C14.0635 5.77498 14.2161 5.83924 14.3768 5.83924Z" fill="white"/>
<path d="M17.8074 5.83924C17.96 5.83924 18.1127 5.78301 18.2331 5.66253L19.2693 4.62639C19.5022 4.39345 19.5022 4.00791 19.2693 3.77498C19.0363 3.54205 18.6508 3.54205 18.4179 3.77498L17.3817 4.81112C17.1488 5.04406 17.1488 5.4296 17.3817 5.66253C17.4942 5.77498 17.6548 5.83924 17.8074 5.83924Z" fill="white"/>
<path d="M21.2361 5.83924C21.3888 5.83924 21.5414 5.78301 21.6618 5.66253L22.698 4.62639C22.9309 4.39345 22.9309 4.00791 22.698 3.77498C22.4651 3.54205 22.0795 3.54205 21.8466 3.77498L20.8104 4.81112C20.5775 5.04406 20.5775 5.4296 20.8104 5.66253C20.9309 5.77498 21.0835 5.83924 21.2361 5.83924Z" fill="white"/>
<path d="M5.54272 7.67873C5.30979 7.4458 4.92424 7.4458 4.69131 7.67873L3.65517 8.7229C3.42224 8.95584 3.42224 9.34138 3.65517 9.57431C3.77565 9.69479 3.92826 9.75102 4.08087 9.75102C4.23348 9.75102 4.38609 9.69479 4.50657 9.57431L5.54272 8.53817C5.77565 8.2972 5.77565 7.91969 5.54272 7.67873Z" fill="white"/>
<path d="M7.50958 9.75104C7.66219 9.75104 7.8148 9.69482 7.93528 9.57433L8.97143 8.53819C9.20436 8.30526 9.20436 7.91972 8.97143 7.68678C8.7385 7.45385 8.35295 7.45385 8.12002 7.68678L7.08388 8.72293C6.85095 8.95586 6.85095 9.3414 7.08388 9.57433C7.19633 9.68678 7.35697 9.75104 7.50958 9.75104Z" fill="white"/>
<path d="M10.9402 9.75104C11.0929 9.75104 11.2455 9.69482 11.3659 9.57433L12.4021 8.53819C12.635 8.30526 12.635 7.91972 12.4021 7.68678C12.1692 7.45385 11.7836 7.45385 11.5507 7.68678L10.5145 8.72293C10.2816 8.95586 10.2816 9.3414 10.5145 9.57433C10.635 9.68678 10.7876 9.75104 10.9402 9.75104Z" fill="white"/>
<path d="M14.3768 9.75104C14.5294 9.75104 14.682 9.69482 14.8025 9.57433L15.8386 8.53819C16.0715 8.30526 16.0715 7.91972 15.8386 7.68678C15.6057 7.45385 15.2201 7.45385 14.9872 7.68678L13.9511 8.72293C13.7181 8.95586 13.7181 9.3414 13.9511 9.57433C14.0635 9.68678 14.2161 9.75104 14.3768 9.75104Z" fill="white"/>
<path d="M17.8074 9.75104C17.96 9.75104 18.1127 9.69482 18.2331 9.57433L19.2693 8.53819C19.5022 8.30526 19.5022 7.91972 19.2693 7.68678C19.0363 7.45385 18.6508 7.45385 18.4179 7.68678L17.3817 8.72293C17.1488 8.95586 17.1488 9.3414 17.3817 9.57433C17.4942 9.68678 17.6548 9.75104 17.8074 9.75104Z" fill="white"/>
<path d="M21.2361 9.75104C21.3888 9.75104 21.5414 9.69482 21.6618 9.57433L22.698 8.53819C22.9309 8.30526 22.9309 7.91972 22.698 7.68678C22.4651 7.45385 22.0795 7.45385 21.8466 7.68678L20.8104 8.72293C20.5775 8.95586 20.5775 9.3414 20.8104 9.57433C20.9309 9.68678 21.0835 9.75104 21.2361 9.75104Z" fill="white"/>
<path d="M31.1004 25.8875C33.1245 25.8875 34.7711 24.2409 34.7711 22.2168C34.7711 20.1927 33.1245 18.5461 31.1004 18.5461C29.0763 18.5461 27.4297 20.1927 27.4297 22.2168C27.4297 24.2409 29.0763 25.8875 31.1004 25.8875ZM31.1004 19.751C32.4578 19.751 33.5662 20.8594 33.5662 22.2168C33.5662 23.5743 32.4578 24.6827 31.1004 24.6827C29.7429 24.6827 28.6345 23.5743 28.6345 22.2168C28.6345 20.8594 29.7429 19.751 31.1004 19.751Z" fill="white"/>
<path d="M47.4217 29.3092C47.4056 29.2932 47.3976 29.2771 47.3815 29.2691C45.2129 26.7229 42.1446 25.1727 38.8353 24.8996V17.1888C38.8353 16.0964 37.9438 15.2048 36.8434 15.2048H34.8032V13.3494H36.8434C37.9438 13.3494 38.8353 12.4578 38.8353 11.3574V1.99197C38.8353 0.891566 37.9438 0 36.8434 0H1.99197C0.891566 0 0 0.891566 0 1.99197V11.3494C0 12.4498 0.891566 13.3414 1.99197 13.3414H4.03213V15.1968H1.99197C0.891566 15.1968 0 16.0884 0 17.1807V26.5462C0 27.6466 0.891566 28.5382 1.99197 28.5382H4.03213V30.4016H1.99197C0.891566 30.4016 0 31.2932 0 32.3936V41.751C0 42.8514 0.891566 43.751 1.99197 43.751H26.9558C28.241 45.9518 30.1767 47.759 32.5783 48.8594C33.0281 49.0683 33.51 49.261 34 49.4137C35.2289 49.7992 36.506 50 37.8072 50C39.2209 50 40.6024 49.7671 41.9197 49.3092H41.9277C42.5783 49.0843 43.2289 48.7952 43.8554 48.4578C43.8715 48.4498 43.8956 48.4337 43.9116 48.4257C47.8956 46.2008 50.3775 42 50.3775 37.4378C50.3775 35.0442 49.7028 32.7149 48.4257 30.7068C48.1365 30.2169 47.7912 29.751 47.4217 29.3092ZM43.0763 47.4859C42.755 47.6546 42.4257 47.8072 42.0884 47.9357L36.7952 33.1406H39.1647L42.249 43.3092C42.3293 43.5663 42.5622 43.7349 42.8273 43.7349H42.8353C43.1004 43.7349 43.3333 43.5582 43.4056 43.3012L45.5582 35.7992C45.6064 35.6225 45.5743 35.4297 45.4699 35.2771C44.9879 34.6104 43.8153 32.6104 44.1847 31.3976C44.3695 30.7952 44.747 30.3454 45.261 30.1365C45.6867 29.9598 46.1606 29.9839 46.5863 30.1767C46.8675 30.5141 47.1245 30.8675 47.3574 31.2289C47.7189 32.9639 46.7229 35.8635 46.7068 35.9116L43.0763 47.4859ZM33.8072 48.0402C33.6466 47.9759 33.4779 47.9197 33.3173 47.8474L28.3695 32.2651H30.4819L34.7711 45.0602L33.8072 48.0402ZM35.3815 43.0843L31.759 32.2651H32.0562C32.3855 32.2651 32.6586 31.992 32.6586 31.6627C32.6586 31.3333 32.3855 31.0602 32.0562 31.0602H30.9237H28.3855C30.49 27.9438 34.008 26.0482 37.8072 26.0482C40.5944 26.0482 43.245 27.0763 45.3012 28.8916C45.1325 28.9237 44.9639 28.9719 44.7952 29.0361C43.9438 29.3815 43.3173 30.1044 43.0281 31.0602C42.498 32.7871 43.8153 34.988 44.3213 35.751L42.8112 41.012L40.4257 33.1406H40.7068C41.0361 33.1406 41.3092 32.8675 41.3092 32.5382C41.3092 32.2088 41.0361 31.9357 40.7068 31.9357H34.9398C34.6104 31.9357 34.3373 32.2088 34.3373 32.5382C34.3373 32.8675 34.6104 33.1406 34.9398 33.1406H35.5261L37.0924 37.5181L35.3815 43.0843ZM1.20482 11.3494V1.99197C1.20482 1.55823 1.55823 1.20482 1.99197 1.20482H36.8514C37.2851 1.20482 37.6386 1.55823 37.6386 1.99197V11.3494C37.6386 11.7831 37.2851 12.1365 36.8514 12.1365H1.99197C1.55823 12.1365 1.20482 11.7831 1.20482 11.3494ZM5.22892 13.3414H33.5984V15.1968H5.22892V13.3414ZM1.20482 26.5542V17.1888C1.20482 16.755 1.55823 16.4096 1.99197 16.4096H4.61847H4.62651H4.63454H34.1928H34.2008H34.2088H36.8434C37.2771 16.4096 37.6305 16.7631 37.6305 17.1888V24.8514C34.9398 24.8916 32.3936 25.7831 30.3052 27.3414H1.99197C1.55823 27.3333 1.20482 26.9799 1.20482 26.5542ZM5.22892 28.5382H28.8996C28.3373 29.1004 27.8233 29.7269 27.3655 30.4016H5.22892V28.5382ZM1.99197 42.5382C1.55823 42.5382 1.20482 42.1847 1.20482 41.743V32.3936C1.20482 31.9598 1.55823 31.6064 1.99197 31.6064H26.6586C25.7269 33.3896 25.2369 35.3896 25.2369 37.4137C25.2369 39.2129 25.6305 40.9478 26.3373 42.5382H1.99197ZM26.4337 37.4137C26.4337 35.8876 26.755 34.3855 27.3414 32.996L31.8072 47.0683C28.506 45.012 26.4337 41.3655 26.4337 37.4137ZM34.9478 48.4177L35.9759 45.245V45.2369L37.751 39.4297L40.9398 48.3373C39.004 48.8916 36.9076 48.9157 34.9478 48.4177ZM44.6506 46.49L47.8474 36.2972C47.8795 36.2169 48.2972 34.988 48.5141 33.5743C48.9558 34.7952 49.1807 36.0884 49.1807 37.4137C49.1807 41.012 47.4779 44.3614 44.6506 46.49Z" fill="white"/>
<path d="M50.9483 28.4256C49.2536 24.6666 46.0407 22.9638 43.6552 22.2007C43.3339 22.0963 42.9965 22.273 42.9001 22.5943C42.7957 22.9076 42.9724 23.253 43.2937 23.3493C45.4544 24.0401 48.3459 25.5662 49.856 28.9236C49.9604 29.1485 50.1773 29.277 50.4022 29.277C50.4825 29.277 50.5708 29.261 50.6511 29.2208C50.9564 29.0843 51.0849 28.7309 50.9483 28.4256Z" fill="white"/>
<path d="M40.8198 22.819C40.8359 22.819 41.0849 22.8431 41.5026 22.9074C41.5347 22.9154 41.5668 22.9154 41.607 22.9154C41.8961 22.9154 42.1532 22.7066 42.2013 22.4094C42.2576 22.0801 42.0327 21.7668 41.7034 21.7186C41.1973 21.6303 40.9001 21.6142 40.9001 21.6142C40.5708 21.5821 40.2817 21.8391 40.2576 22.1765C40.2415 22.5058 40.4905 22.7949 40.8198 22.819Z" fill="white"/>
</svg>
