<svg width="50" height="50" viewBox="0 0 50 50" fill="none" xmlns="http://www.w3.org/2000/svg">
<path d="M45.8542 11.2122C42.5452 6.20726 37.5465 2.55929 31.7707 0.93433C25.995 -0.690633 19.8275 -0.184195 14.3942 2.36118C8.9609 4.90656 4.62426 9.32109 2.17599 14.7988C-0.272281 20.2766 -0.66886 26.4521 1.05865 32.198C2.78617 37.9439 6.52254 42.8768 11.5856 46.0963C16.6487 49.3157 22.7008 50.6068 28.6369 49.734C34.5731 48.8611 39.9973 45.8825 43.9193 41.3419C47.8414 36.8013 49.9996 31.0016 50 25.0016C50.0021 20.0978 48.5602 15.3019 45.8542 11.2122ZM14.3795 14.3608C17.5912 14.726 20.8197 14.9244 24.052 14.9552V24.0653H13.0259C13.0836 20.7877 13.5381 17.5291 14.3795 14.3608ZM25.9245 14.9493C29.1602 14.9239 32.3925 14.7307 35.6082 14.3704C36.445 17.5361 36.8963 20.7913 36.9522 24.0653H25.9245V14.9493ZM25.9245 13.0767V1.94265C29.6123 2.51511 32.9995 6.43674 35.0464 12.5359C32.0787 12.8622 29.0217 13.043 25.9245 13.0709V13.0767ZM14.3832 35.6483C13.8481 33.678 13.4708 31.6682 13.2549 29.638C13.1249 28.4267 13.0489 27.1866 13.0222 25.9405H24.052V35.055C22.7439 35.0678 21.4347 35.0994 20.1464 35.162C18.1995 35.2615 16.2681 35.43 14.3832 35.6483ZM20.2411 37.034C21.4973 36.9714 22.7754 36.9334 24.052 36.9206V48.068C21.524 47.6737 19.0994 45.6931 17.1396 42.3905C16.2291 40.8288 15.486 39.1754 14.9225 37.4577C16.664 37.2662 18.4483 37.1239 20.2411 37.034ZM25.9245 25.9379H36.957C36.8978 29.2161 36.4417 32.475 35.5986 35.6435C32.3861 35.2819 29.1571 35.0871 25.9245 35.0598V25.9379ZM38.8236 24.0653C38.766 20.7109 38.3133 17.3749 37.4749 14.1264C39.8864 13.8044 42.2802 13.3612 44.6472 12.7985C46.7551 16.1912 47.9434 20.0741 48.0954 24.0653H38.8236ZM43.506 11.1352C41.4382 11.6098 39.2388 12.003 36.9382 12.309C35.6007 8.17338 33.656 4.89323 31.3608 2.76443C36.2153 4.1522 40.4814 7.09246 43.506 11.1352ZM24.052 1.94265V13.0709C20.9553 13.0409 17.8993 12.8601 14.9306 12.5332C16.9775 6.43674 20.3641 2.51511 24.052 1.94265ZM18.6275 2.74998C16.3269 4.87825 14.3816 8.16696 13.0409 12.3095C10.7404 12.0035 8.54146 11.6103 6.47311 11.1357C9.49811 7.08611 13.7678 4.14033 18.6275 2.74998ZM5.32979 12.7985C7.69427 13.3637 10.0858 13.809 12.4952 14.1329C11.6578 17.3793 11.2052 20.7131 11.147 24.0653H1.86827C2.02471 20.073 3.21766 16.1901 5.32979 12.7985ZM11.147 25.9379C11.1737 27.2508 11.254 28.5594 11.3925 29.8349C11.6071 31.8716 11.9755 33.8892 12.4947 35.8703C11.7991 35.9656 11.1133 36.0683 10.444 36.178C8.6704 36.4674 6.95408 36.8119 5.32979 37.2046C3.21766 33.8131 2.02471 29.9302 1.86827 25.9379H11.147ZM6.46562 38.861C7.83632 38.547 9.27068 38.2666 10.7457 38.0259C11.4915 37.9039 12.263 37.7937 13.0409 37.6899C13.659 39.6615 14.4935 41.5586 15.5292 43.3466C16.3594 44.78 17.3894 46.0879 18.5884 47.2307C13.7422 45.8389 9.48465 42.8994 6.46562 38.861ZM25.9245 48.0605V36.9323C29.0217 36.9623 32.0771 37.1431 35.0464 37.4673C32.9995 43.5665 29.6123 47.4881 25.9245 48.0605ZM31.3495 47.2532C33.6527 45.1217 35.6087 41.8378 36.9495 37.6878C39.25 37.9943 41.4478 38.3876 43.5146 38.8616C40.4873 42.9148 36.2137 45.8628 31.3495 47.2532ZM44.6296 37.2084C42.2685 36.6451 39.8806 36.2011 37.4749 35.8778C38.3133 32.629 38.766 29.2927 38.8236 25.9379H48.1087C47.9478 29.9332 46.7487 33.8176 44.6296 37.2084Z" fill="white"/>
</svg>
