<svg width="51" height="50" viewBox="0 0 51 50" fill="none" xmlns="http://www.w3.org/2000/svg">
<path d="M8.89852 5.08472C6.79598 5.08472 5.08496 6.79573 5.08496 8.89828C5.08496 11.0008 6.79598 12.7118 8.89852 12.7118C11.0011 12.7118 12.7121 11.0008 12.7121 8.89828C12.7121 6.79573 11.0011 5.08472 8.89852 5.08472ZM8.89852 11.0169C7.73072 11.0169 6.77988 10.0669 6.77988 8.89828C6.77988 7.72963 7.73072 6.77963 8.89852 6.77963C10.0663 6.77963 11.0172 7.72963 11.0172 8.89828C11.0172 10.0669 10.0663 11.0169 8.89852 11.0169Z" fill="white"/>
<path d="M42.3728 8.47458C42.8409 8.47458 43.2203 8.09516 43.2203 7.62712C43.2203 7.15908 42.8409 6.77966 42.3728 6.77966C41.9048 6.77966 41.5254 7.15908 41.5254 7.62712C41.5254 8.09516 41.9048 8.47458 42.3728 8.47458Z" fill="white"/>
<path d="M38.9832 8.47458C39.4512 8.47458 39.8307 8.09516 39.8307 7.62712C39.8307 7.15908 39.4512 6.77966 38.9832 6.77966C38.5152 6.77966 38.1357 7.15908 38.1357 7.62712C38.1357 8.09516 38.5152 8.47458 38.9832 8.47458Z" fill="white"/>
<path d="M44.0682 11.0169C44.5362 11.0169 44.9156 10.6375 44.9156 10.1695C44.9156 9.70144 44.5362 9.32202 44.0682 9.32202C43.6001 9.32202 43.2207 9.70144 43.2207 10.1695C43.2207 10.6375 43.6001 11.0169 44.0682 11.0169Z" fill="white"/>
<path d="M40.6775 11.0169C41.1456 11.0169 41.525 10.6375 41.525 10.1695C41.525 9.70144 41.1456 9.32202 40.6775 9.32202C40.2095 9.32202 39.8301 9.70144 39.8301 10.1695C39.8301 10.6375 40.2095 11.0169 40.6775 11.0169Z" fill="white"/>
<path d="M35.5926 8.47458C36.0606 8.47458 36.44 8.09516 36.44 7.62712C36.44 7.15908 36.0606 6.77966 35.5926 6.77966C35.1245 6.77966 34.7451 7.15908 34.7451 7.62712C34.7451 8.09516 35.1245 8.47458 35.5926 8.47458Z" fill="white"/>
<path d="M37.2889 11.0169C37.7569 11.0169 38.1363 10.6375 38.1363 10.1695C38.1363 9.70144 37.7569 9.32202 37.2889 9.32202C36.8208 9.32202 36.4414 9.70144 36.4414 10.1695C36.4414 10.6375 36.8208 11.0169 37.2889 11.0169Z" fill="white"/>
<path d="M32.2039 8.47458C32.6719 8.47458 33.0514 8.09516 33.0514 7.62712C33.0514 7.15908 32.6719 6.77966 32.2039 6.77966C31.7359 6.77966 31.3564 7.15908 31.3564 7.62712C31.3564 8.09516 31.7359 8.47458 32.2039 8.47458Z" fill="white"/>
<path d="M33.8982 11.0169C34.3663 11.0169 34.7457 10.6375 34.7457 10.1695C34.7457 9.70144 34.3663 9.32202 33.8982 9.32202C33.4302 9.32202 33.0508 9.70144 33.0508 10.1695C33.0508 10.6375 33.4302 11.0169 33.8982 11.0169Z" fill="white"/>
<path d="M28.8133 8.47458C29.2813 8.47458 29.6607 8.09516 29.6607 7.62712C29.6607 7.15908 29.2813 6.77966 28.8133 6.77966C28.3452 6.77966 27.9658 7.15908 27.9658 7.62712C27.9658 8.09516 28.3452 8.47458 28.8133 8.47458Z" fill="white"/>
<path d="M30.5076 11.0169C30.9757 11.0169 31.3551 10.6375 31.3551 10.1695C31.3551 9.70144 30.9757 9.32202 30.5076 9.32202C30.0396 9.32202 29.6602 9.70144 29.6602 10.1695C29.6602 10.6375 30.0396 11.0169 30.5076 11.0169Z" fill="white"/>
<path d="M50.8475 13.8915V3.90508C50.8475 1.75169 49.0958 0 46.9424 0H3.90508C1.75169 0 0 1.75169 0 3.90508V13.8907C0 15.1356 0.595763 16.2331 1.50593 16.9483C0.595763 17.6644 0 18.7627 0 20.0068V29.9924C0 31.2373 0.595763 32.3347 1.50593 33.05C0.595763 33.7661 0 34.8644 0 36.1085V46.0941C0 48.2483 1.75169 50 3.90508 50H46.9415C49.0949 50 50.8466 48.2483 50.8466 46.0949V36.1085C50.8466 34.8636 50.2508 33.7661 49.3407 33.0508C50.2517 32.3356 50.8475 31.2373 50.8475 29.9932V20.0068C50.8475 18.7619 50.2517 17.6644 49.3415 16.9492C50.2517 16.2339 50.8475 15.1356 50.8475 13.8915ZM49.1525 36.1085V46.0941C49.1525 47.3127 48.161 48.3042 46.9424 48.3042H3.90508C2.68644 48.3051 1.69492 47.3136 1.69492 46.0949V36.1085C1.69492 34.8898 2.68644 33.8983 3.90508 33.8983H46.9415C48.161 33.8983 49.1525 34.8898 49.1525 36.1085ZM49.1525 20.0068V29.9924C49.1525 31.211 48.161 32.2025 46.9424 32.2025H3.90508C2.68644 32.2034 1.69492 31.2119 1.69492 29.9932V20.0068C1.69492 18.7881 2.68644 17.7966 3.90508 17.7966H46.9415C48.161 17.7966 49.1525 18.7881 49.1525 20.0068ZM3.90508 16.1017C2.68644 16.1017 1.69492 15.1102 1.69492 13.8915V3.90508C1.69492 2.68644 2.68644 1.69492 3.90508 1.69492H46.9415C48.161 1.69492 49.1525 2.68644 49.1525 3.90508V13.8907C49.1525 15.1093 48.161 16.1008 46.9424 16.1008L3.90508 16.1017Z" fill="white"/>
<path d="M8.89852 28.8136C11.0011 28.8136 12.7121 27.1026 12.7121 25C12.7121 22.8975 11.0011 21.1865 8.89852 21.1865C6.79598 21.1865 5.08496 22.8975 5.08496 25C5.08496 27.1026 6.79598 28.8136 8.89852 28.8136ZM8.89852 22.8814C10.0663 22.8814 11.0172 23.8314 11.0172 25C11.0172 26.1687 10.0663 27.1187 8.89852 27.1187C7.73072 27.1187 6.77988 26.1687 6.77988 25C6.77988 23.8314 7.73072 22.8814 8.89852 22.8814Z" fill="white"/>
<path d="M42.3728 24.5763C42.8409 24.5763 43.2203 24.1968 43.2203 23.7288C43.2203 23.2608 42.8409 22.8813 42.3728 22.8813C41.9048 22.8813 41.5254 23.2608 41.5254 23.7288C41.5254 24.1968 41.9048 24.5763 42.3728 24.5763Z" fill="white"/>
<path d="M38.9832 24.5763C39.4512 24.5763 39.8307 24.1968 39.8307 23.7288C39.8307 23.2608 39.4512 22.8813 38.9832 22.8813C38.5152 22.8813 38.1357 23.2608 38.1357 23.7288C38.1357 24.1968 38.5152 24.5763 38.9832 24.5763Z" fill="white"/>
<path d="M44.0682 27.1186C44.5362 27.1186 44.9156 26.7392 44.9156 26.2712C44.9156 25.8031 44.5362 25.4237 44.0682 25.4237C43.6001 25.4237 43.2207 25.8031 43.2207 26.2712C43.2207 26.7392 43.6001 27.1186 44.0682 27.1186Z" fill="white"/>
<path d="M40.6775 27.1186C41.1456 27.1186 41.525 26.7392 41.525 26.2712C41.525 25.8031 41.1456 25.4237 40.6775 25.4237C40.2095 25.4237 39.8301 25.8031 39.8301 26.2712C39.8301 26.7392 40.2095 27.1186 40.6775 27.1186Z" fill="white"/>
<path d="M35.5926 24.5763C36.0606 24.5763 36.44 24.1968 36.44 23.7288C36.44 23.2608 36.0606 22.8813 35.5926 22.8813C35.1245 22.8813 34.7451 23.2608 34.7451 23.7288C34.7451 24.1968 35.1245 24.5763 35.5926 24.5763Z" fill="white"/>
<path d="M37.2889 27.1186C37.7569 27.1186 38.1363 26.7392 38.1363 26.2712C38.1363 25.8031 37.7569 25.4237 37.2889 25.4237C36.8208 25.4237 36.4414 25.8031 36.4414 26.2712C36.4414 26.7392 36.8208 27.1186 37.2889 27.1186Z" fill="white"/>
<path d="M32.2039 24.5763C32.6719 24.5763 33.0514 24.1968 33.0514 23.7288C33.0514 23.2608 32.6719 22.8813 32.2039 22.8813C31.7359 22.8813 31.3564 23.2608 31.3564 23.7288C31.3564 24.1968 31.7359 24.5763 32.2039 24.5763Z" fill="white"/>
<path d="M33.8982 27.1186C34.3663 27.1186 34.7457 26.7392 34.7457 26.2712C34.7457 25.8031 34.3663 25.4237 33.8982 25.4237C33.4302 25.4237 33.0508 25.8031 33.0508 26.2712C33.0508 26.7392 33.4302 27.1186 33.8982 27.1186Z" fill="white"/>
<path d="M28.8133 24.5763C29.2813 24.5763 29.6607 24.1968 29.6607 23.7288C29.6607 23.2608 29.2813 22.8813 28.8133 22.8813C28.3452 22.8813 27.9658 23.2608 27.9658 23.7288C27.9658 24.1968 28.3452 24.5763 28.8133 24.5763Z" fill="white"/>
<path d="M30.5076 27.1186C30.9757 27.1186 31.3551 26.7392 31.3551 26.2712C31.3551 25.8031 30.9757 25.4237 30.5076 25.4237C30.0396 25.4237 29.6602 25.8031 29.6602 26.2712C29.6602 26.7392 30.0396 27.1186 30.5076 27.1186Z" fill="white"/>
<path d="M8.89852 44.9152C11.0011 44.9152 12.7121 43.2042 12.7121 41.1016C12.7121 38.9991 11.0011 37.2881 8.89852 37.2881C6.79598 37.2881 5.08496 38.9991 5.08496 41.1016C5.08496 43.2042 6.79598 44.9152 8.89852 44.9152ZM8.89852 38.983C10.0663 38.983 11.0172 39.933 11.0172 41.1016C11.0172 42.2703 10.0663 43.2203 8.89852 43.2203C7.73072 43.2203 6.77988 42.2703 6.77988 41.1016C6.77988 39.933 7.73072 38.983 8.89852 38.983Z" fill="white"/>
<path d="M42.3728 40.678C42.8409 40.678 43.2203 40.2986 43.2203 39.8306C43.2203 39.3625 42.8409 38.9831 42.3728 38.9831C41.9048 38.9831 41.5254 39.3625 41.5254 39.8306C41.5254 40.2986 41.9048 40.678 42.3728 40.678Z" fill="white"/>
<path d="M38.9832 40.678C39.4512 40.678 39.8307 40.2986 39.8307 39.8306C39.8307 39.3625 39.4512 38.9831 38.9832 38.9831C38.5152 38.9831 38.1357 39.3625 38.1357 39.8306C38.1357 40.2986 38.5152 40.678 38.9832 40.678Z" fill="white"/>
<path d="M44.0682 43.2204C44.5362 43.2204 44.9156 42.8409 44.9156 42.3729C44.9156 41.9049 44.5362 41.5255 44.0682 41.5255C43.6001 41.5255 43.2207 41.9049 43.2207 42.3729C43.2207 42.8409 43.6001 43.2204 44.0682 43.2204Z" fill="white"/>
<path d="M40.6775 43.2204C41.1456 43.2204 41.525 42.8409 41.525 42.3729C41.525 41.9049 41.1456 41.5255 40.6775 41.5255C40.2095 41.5255 39.8301 41.9049 39.8301 42.3729C39.8301 42.8409 40.2095 43.2204 40.6775 43.2204Z" fill="white"/>
<path d="M35.5926 40.678C36.0606 40.678 36.44 40.2986 36.44 39.8306C36.44 39.3625 36.0606 38.9831 35.5926 38.9831C35.1245 38.9831 34.7451 39.3625 34.7451 39.8306C34.7451 40.2986 35.1245 40.678 35.5926 40.678Z" fill="white"/>
<path d="M37.2889 43.2204C37.7569 43.2204 38.1363 42.8409 38.1363 42.3729C38.1363 41.9049 37.7569 41.5255 37.2889 41.5255C36.8208 41.5255 36.4414 41.9049 36.4414 42.3729C36.4414 42.8409 36.8208 43.2204 37.2889 43.2204Z" fill="white"/>
<path d="M32.2039 40.678C32.6719 40.678 33.0514 40.2986 33.0514 39.8306C33.0514 39.3625 32.6719 38.9831 32.2039 38.9831C31.7359 38.9831 31.3564 39.3625 31.3564 39.8306C31.3564 40.2986 31.7359 40.678 32.2039 40.678Z" fill="white"/>
<path d="M33.8982 43.2204C34.3663 43.2204 34.7457 42.8409 34.7457 42.3729C34.7457 41.9049 34.3663 41.5255 33.8982 41.5255C33.4302 41.5255 33.0508 41.9049 33.0508 42.3729C33.0508 42.8409 33.4302 43.2204 33.8982 43.2204Z" fill="white"/>
<path d="M28.8133 40.678C29.2813 40.678 29.6607 40.2986 29.6607 39.8306C29.6607 39.3625 29.2813 38.9831 28.8133 38.9831C28.3452 38.9831 27.9658 39.3625 27.9658 39.8306C27.9658 40.2986 28.3452 40.678 28.8133 40.678Z" fill="white"/>
<path d="M30.5076 43.2204C30.9757 43.2204 31.3551 42.8409 31.3551 42.3729C31.3551 41.9049 30.9757 41.5255 30.5076 41.5255C30.0396 41.5255 29.6602 41.9049 29.6602 42.3729C29.6602 42.8409 30.0396 43.2204 30.5076 43.2204Z" fill="white"/>
</svg>
