<svg width="267" height="199" viewBox="0 0 267 199" fill="none" xmlns="http://www.w3.org/2000/svg">
<path d="M90.2093 196.538L83.4803 135.3L83.6165 106.95L109.988 118.978L119.359 196.538H90.2093Z" fill="white"/>
<path d="M90.2094 197H119.359C119.496 197 119.618 196.946 119.7 196.851C119.782 196.756 119.823 196.62 119.809 196.497L110.424 118.937C110.41 118.774 110.301 118.652 110.165 118.584L83.8073 106.557C83.6711 106.489 83.5076 106.502 83.3714 106.584C83.2352 106.665 83.1671 106.815 83.1671 106.964L83.0172 135.314C83.0172 135.327 83.0172 135.355 83.0172 135.368L89.7599 196.606C89.7871 196.824 89.9778 197 90.2094 197ZM118.855 196.09H90.618L83.9299 135.287L84.0661 107.658L109.566 119.291L118.855 196.09Z" fill="black"/>
<path d="M80.0478 196.538L50.639 196.674C54.4802 173.706 58.7165 123.463 59.3703 120.228C60.2149 116.029 95.2222 124.781 95.2222 124.781L90.7407 145.982L80.0478 196.538Z" fill="white"/>
<path d="M50.6389 197H80.3338C80.5517 197 80.7288 196.851 80.7833 196.633L91.4762 145.248C91.5307 145.004 91.3672 144.759 91.122 144.718C90.8768 144.664 90.6316 144.827 90.5908 145.072L79.9796 196.09H51.1837C53.7718 180.08 56.7005 151.459 58.4576 134.294C59.3022 126.059 59.9015 120.106 60.1194 119.073C60.1331 119.033 60.1467 118.91 60.3783 118.761C63.7428 116.654 86.804 121.859 95.4128 124.047C95.658 124.115 95.9032 123.966 95.9577 123.721C96.0258 123.477 95.8759 123.232 95.6307 123.178C94.3503 122.851 64.2604 115.254 59.8879 118C59.5201 118.231 59.2885 118.53 59.2204 118.897C59.0025 119.97 58.4304 125.624 57.5586 134.199C55.7878 151.554 52.8183 180.597 50.203 196.47C50.1757 196.606 50.2166 196.742 50.2983 196.837C50.3801 196.932 50.5027 197 50.6389 197Z" fill="black"/>
<path d="M71.0441 17.3357L71.2076 18.7355L71.5618 21.8069C70.4039 21.6438 66.9577 21.1681 62.5716 24.7152C62.3536 24.8919 62.1493 25.0686 61.9314 25.2588C57.1366 29.5126 57.518 32.8422 59.5476 37.857C63.5796 47.8051 67.0939 59.7918 51.8106 62.8224C36.5272 65.8667 33.8983 38.1832 41.8669 28.14C47.4244 21.1274 55.6655 18.5452 61.9722 17.6618C65.8407 17.1182 68.9737 17.1998 70.3222 17.2677C70.799 17.3085 71.0441 17.3357 71.0441 17.3357Z" fill="black"/>
<path d="M49.5357 63.5296C50.2985 63.5296 51.0885 63.4481 51.9058 63.285C57.0139 62.2657 60.4601 60.1592 62.1628 56.9927C64.9961 51.7604 62.7758 44.6255 59.9697 37.6944C57.9401 32.666 57.7494 29.581 62.2445 25.6127C62.4625 25.4224 62.6668 25.2457 62.8711 25.0826C67.0938 21.6443 70.4174 22.1199 71.5072 22.2694C71.6434 22.283 71.7932 22.2423 71.8886 22.1471C71.9839 22.052 72.0384 21.9161 72.0248 21.7666L71.5072 17.2818C71.4799 17.0643 71.3165 16.9013 71.0985 16.8877C71.0985 16.8877 70.8397 16.8605 70.3629 16.8333C68.851 16.7518 65.7316 16.6838 61.9176 17.2274C55.7743 18.0972 47.2336 20.6522 41.5126 27.8822C35.9686 34.8812 35.4374 49.7762 40.4501 57.9576C42.7113 61.6406 45.817 63.5296 49.5357 63.5296ZM70.0905 21.2502C68.347 21.2502 65.5546 21.7258 62.299 24.3759C62.0811 24.5526 61.8631 24.7293 61.6452 24.9331C56.7823 29.2413 56.9866 32.7204 59.1388 38.0342C61.8631 44.7614 64.0289 51.6653 61.3727 56.5714C59.779 59.5205 56.6188 61.4231 51.7287 62.4016C46.212 63.5024 42.9837 60.3359 41.2265 57.4819C36.4726 49.7219 36.9766 35.0715 42.2209 28.4394C47.7649 21.454 56.0604 18.967 62.0402 18.1244C65.7725 17.5944 68.8237 17.6487 70.3085 17.7439C70.4311 17.7575 70.54 17.7575 70.6354 17.771L71.044 21.3045C70.7852 21.2773 70.4583 21.2502 70.0905 21.2502Z" fill="black"/>
<path d="M71.2074 18.7496L71.5615 21.821C70.4037 21.6579 66.9575 21.1823 62.5713 24.7294C61.6451 22.3918 61.8221 19.1709 61.972 17.676C65.8405 17.1324 68.9734 17.2139 70.322 17.2819L71.2074 18.7496Z" fill="#FEC524"/>
<path d="M144.709 36.24C144.709 36.24 148.537 27.4879 148.591 24.1447C148.632 20.815 147.692 16.2215 150.757 17.431C153.822 18.6406 153.509 22.0246 153.509 22.0246C153.509 22.0246 159.693 7.89064 163.03 8.82837C166.367 9.77969 160.319 19.8093 160.319 19.8093C160.319 19.8093 167.798 23.0438 167.512 27.651C167.375 29.839 161.436 40.752 158.821 42.3285C157.581 44.5029 143.456 38.4009 144.709 36.24Z" fill="white"/>
<path d="M157.513 43.2388C158.317 43.2388 158.862 43.0486 159.162 42.6681C161.913 40.847 167.838 29.9611 167.975 27.6915C168.234 23.4649 162.649 20.4479 160.973 19.6325C162.008 17.8521 165.278 11.8996 164.311 9.45333C164.106 8.9233 163.698 8.55637 163.153 8.40687C160.101 7.53709 155.647 16.3164 153.781 20.3256C153.481 19.1704 152.746 17.7434 150.921 17.0231C150.103 16.697 149.449 16.7106 148.959 17.0639C147.897 17.8114 147.992 19.8907 148.087 22.0787C148.115 22.7718 148.142 23.4921 148.142 24.1445C148.101 27.2702 144.518 35.5739 144.314 36.036C144.014 36.5796 144.232 37.2319 144.968 37.9522C145.526 38.4958 146.371 39.1074 147.474 39.7461C149.477 40.8877 152.092 42.0157 154.299 42.6545C155.62 43.0486 156.696 43.2388 157.513 43.2388ZM162.662 9.23588C162.744 9.23588 162.826 9.24947 162.894 9.26306C163.166 9.3446 163.343 9.50769 163.452 9.7659C164.229 11.7229 161.164 17.5124 159.924 19.5781C159.856 19.6868 159.843 19.8227 159.884 19.945C159.924 20.0674 160.02 20.1761 160.129 20.2169C160.197 20.244 167.321 23.3698 167.048 27.61C166.926 29.6893 161.109 40.4121 158.576 41.9342C158.508 41.9749 158.453 42.0293 158.412 42.0973C157.908 42.9806 152.283 41.4721 147.897 38.9443C146.861 38.3463 146.058 37.7755 145.567 37.2999C145.131 36.865 145.009 36.566 145.077 36.4573C145.091 36.4437 145.091 36.4301 145.104 36.4165C145.268 36.0496 148.973 27.542 149.014 24.1445C149.027 23.4649 148.986 22.7311 148.959 22.0244C148.877 20.2576 148.796 18.2463 149.449 17.7842C149.681 17.6211 150.049 17.6483 150.553 17.8521C153.263 18.9258 153.032 21.8613 153.018 21.9836C153.005 22.201 153.141 22.4049 153.359 22.4593C153.577 22.5136 153.795 22.4049 153.89 22.201C156.165 17.0775 160.428 9.23588 162.662 9.23588Z" fill="black"/>
<path d="M160.183 19.9316L156.873 25.558C156.328 26.4821 156.614 27.6373 157.5 28.1673C158.385 28.6837 159.543 28.3576 160.088 27.447L163.398 21.8206C163.943 20.8965 163.657 19.7277 162.771 19.2113C162.322 18.9531 161.818 18.8987 161.355 19.0346C160.878 19.1569 160.456 19.4831 160.183 19.9316Z" fill="white"/>
<path d="M158.412 28.8745C158.617 28.8745 158.835 28.8473 159.039 28.793C159.638 28.6299 160.142 28.2358 160.469 27.6922L163.779 22.0658C164.447 20.9378 164.093 19.4836 162.989 18.8449C162.458 18.5323 161.818 18.4508 161.218 18.6274C160.619 18.7905 160.101 19.1846 159.788 19.7418L156.478 25.3682C156.151 25.9118 156.056 26.5506 156.206 27.1486C156.356 27.7601 156.723 28.2766 157.268 28.5891C157.622 28.7658 158.017 28.8745 158.412 28.8745ZM161.859 19.4157C162.104 19.4157 162.335 19.4836 162.54 19.6059C163.207 20 163.411 20.8834 163.003 21.5901L159.693 27.2165C159.488 27.5563 159.175 27.8009 158.794 27.9096C158.426 28.0183 158.045 27.964 157.718 27.7737C157.391 27.5834 157.173 27.2709 157.077 26.9039C156.982 26.5234 157.05 26.1293 157.255 25.7895L160.565 20.1631C160.769 19.8234 161.082 19.5787 161.464 19.47C161.6 19.4293 161.722 19.4157 161.859 19.4157Z" fill="black"/>
<path d="M163.316 21.9708L160.115 27.3934C159.597 28.2767 159.87 29.4047 160.714 29.9076C161.572 30.4104 162.689 30.0978 163.207 29.2145L166.408 23.7919C166.926 22.9086 166.667 21.7806 165.809 21.2777C165.386 21.0331 164.882 20.9787 164.433 21.101C163.983 21.2369 163.575 21.5359 163.316 21.9708Z" fill="white"/>
<path d="M161.613 30.6001C161.818 30.6001 162.022 30.5729 162.226 30.5186C162.812 30.3555 163.302 29.975 163.616 29.4449L166.803 24.0224C167.457 22.9216 167.103 21.5218 166.04 20.883C165.523 20.584 164.91 20.5025 164.31 20.6656C163.725 20.8287 163.234 21.2092 162.921 21.7392L159.72 27.1618C159.407 27.6918 159.311 28.3033 159.461 28.9013C159.611 29.4993 159.965 29.9885 160.496 30.3011C160.837 30.505 161.218 30.6001 161.613 30.6001ZM164.937 21.4946C165.169 21.4946 165.387 21.549 165.591 21.6713C166.231 22.0518 166.422 22.8944 166.027 23.5603L162.826 28.9829C162.635 29.309 162.335 29.5401 161.968 29.6488C161.613 29.7439 161.259 29.7031 160.946 29.5265C160.633 29.3498 160.428 29.0508 160.333 28.6975C160.251 28.3441 160.306 27.9636 160.496 27.6374L163.697 22.2149C163.888 21.8887 164.188 21.6577 164.556 21.549C164.692 21.5082 164.814 21.4946 164.937 21.4946Z" fill="black"/>
<path d="M165.836 24.797L163.139 29.3769C162.703 30.1244 162.989 31.1029 163.779 31.5649C164.569 32.027 165.564 31.796 166.013 31.0485L168.479 26.8491C168.915 26.1016 168.86 24.7426 168.07 24.2805C167.675 24.0495 167.226 23.9951 166.831 24.0767C166.422 24.1718 166.054 24.43 165.836 24.797Z" fill="white"/>
<path d="M164.665 32.2582C165.373 32.2582 166.04 31.9185 166.408 31.2797L168.874 27.0803C169.146 26.6182 169.255 25.9931 169.187 25.4087C169.105 24.7156 168.792 24.1856 168.302 23.8866C167.825 23.6012 167.253 23.5196 166.722 23.642C166.177 23.7643 165.727 24.0904 165.455 24.5661L162.758 29.146C162.199 30.1109 162.553 31.3613 163.561 31.9592C163.902 32.1495 164.283 32.2582 164.665 32.2582ZM167.198 24.4981C167.416 24.4981 167.648 24.5525 167.839 24.6748C168.07 24.8107 168.234 25.1233 168.288 25.5174C168.343 25.9115 168.261 26.3464 168.097 26.6318L165.632 30.8312C165.319 31.3612 164.597 31.5243 164.024 31.1846C163.452 30.8448 163.234 30.1381 163.548 29.6081L166.231 25.0282C166.381 24.7699 166.626 24.5933 166.926 24.5253C167.021 24.4981 167.103 24.4981 167.198 24.4981Z" fill="black"/>
<path d="M153.509 22.0249C153.509 22.0249 154.34 25.4225 152.95 27.4474C152.95 27.4474 154.707 28.8608 155.279 30.9809C155.838 33.101 154.639 34.6503 154.639 34.6503" fill="white"/>
<path d="M154.626 35.1125C154.762 35.1125 154.898 35.0582 154.98 34.9358C155.034 34.8679 156.315 33.1827 155.702 30.8723C155.252 29.16 154.081 27.8961 153.522 27.366C154.721 25.1916 153.972 22.0522 153.945 21.9163C153.89 21.6717 153.645 21.5222 153.4 21.5902C153.154 21.6445 153.005 21.8891 153.073 22.1338C153.086 22.161 153.836 25.3683 152.582 27.1894C152.446 27.3796 152.487 27.6514 152.664 27.8009C152.678 27.8145 154.312 29.16 154.83 31.1034C155.32 32.9652 154.312 34.3243 154.271 34.3786C154.122 34.5825 154.162 34.8543 154.353 35.0174C154.421 35.0853 154.517 35.1125 154.626 35.1125Z" fill="black"/>
<path d="M160.033 45.4406L155.865 52.0863L139.765 41.0782L144.096 34.3102C147.27 30.5457 163.534 40.5889 160.033 45.4406Z" fill="#71FFCC"/>
<path d="M155.879 52.5486C155.906 52.5486 155.947 52.5486 155.974 52.535C156.097 52.5078 156.206 52.4399 156.26 52.3312L160.415 45.6991C161.913 43.6062 160.415 40.5076 156.41 37.3954C151.901 33.9027 145.785 31.6195 143.756 34.0386C143.742 34.0522 143.728 34.0658 143.715 34.0794L139.383 40.8473C139.247 41.0512 139.301 41.323 139.506 41.4589L155.606 52.4671C155.688 52.5214 155.784 52.5486 155.879 52.5486ZM146.357 33.9435C148.823 33.9435 152.8 35.751 155.852 38.1157C158.617 40.263 161.069 43.2392 159.666 45.1827C159.666 45.1962 159.652 45.1962 159.652 45.2098L155.743 51.4614L140.391 40.9697L144.464 34.6094C144.873 34.1473 145.527 33.9435 146.357 33.9435Z" fill="black"/>
<path d="M99.2678 48.689C105.03 49.3685 117.371 54.8862 128.758 59.6971L139.805 39.5971C143.81 33.8348 160.715 46.6776 156.696 52.4535C156.696 52.4535 144.11 78.0577 136.427 80.6942C127.274 83.8335 98.4506 72.2818 98.4506 72.2818L99.2678 48.689Z" fill="white"/>
<path d="M132.368 81.686C134.003 81.686 135.433 81.5093 136.577 81.1152C144.287 78.4651 156.397 54.0977 157.091 52.6707C158.004 51.3389 157.99 49.5993 157.05 47.6287C154.871 43.008 148.169 38.0883 143.524 37.6942C141.685 37.5447 140.282 38.1019 139.438 39.325C139.424 39.3386 139.424 39.3522 139.41 39.3658L128.568 59.0989C127.246 58.5417 125.912 57.9709 124.577 57.4001C114.66 53.1871 104.417 48.8246 99.3224 48.2131C99.1998 48.1995 99.0635 48.2403 98.9682 48.3218C98.8728 48.4033 98.8184 48.5257 98.8047 48.648L97.9874 72.2544C97.9874 72.4446 98.0964 72.6213 98.2735 72.6892C99.3087 73.1241 120.844 81.686 132.368 81.686ZM142.938 38.6047C143.102 38.6047 143.265 38.6183 143.442 38.6319C147.747 38.9853 154.19 43.7419 156.233 48.05C156.778 49.2188 157.241 50.8904 156.328 52.2086C156.315 52.2222 156.301 52.2494 156.288 52.263C156.165 52.5212 143.701 77.7312 136.278 80.2726C127.887 83.1538 101.979 73.1921 98.9137 71.9825L99.7038 49.2052C104.825 49.9934 114.674 54.1928 124.222 58.2563C125.68 58.8815 127.151 59.5066 128.595 60.1182C128.813 60.2133 129.058 60.1182 129.167 59.9143L140.201 39.8415C140.773 39.0124 141.699 38.6047 142.938 38.6047Z" fill="black"/>
<path d="M100.916 49.0558C98.9273 48.3899 96.8024 47.8463 94.5821 47.3978C91.6671 46.8134 88.6159 46.4193 85.5783 46.2155C83.5214 46.0796 81.4646 46.0252 79.4758 46.066C76.5472 46.1339 73.7548 46.3786 71.2484 46.827C67.4208 47.5065 61.5499 48.9879 59.6293 50.5644C54.5893 54.6822 57.6269 77.4052 56.687 97.682C55.9787 112.917 53.4996 128.437 54.5212 129.103C54.4531 133.628 114.538 134.96 114.606 130.435L110.356 92.5584C110.356 92.5584 114.769 83.4122 113.121 76.8073C111.459 70.2024 106.787 65.2555 106.787 65.2555C106.787 65.2555 106.678 60.7435 105.616 56.449" fill="white"/>
<path d="M90.9588 133.696C96.7479 133.696 101.979 133.519 106.011 133.166C114.02 132.473 115.055 131.345 115.069 130.448C115.069 130.434 115.069 130.407 115.069 130.394L110.833 92.6398C111.364 91.4846 115.151 83.0586 113.57 76.6984C112.031 70.5691 107.999 65.9077 107.236 65.0787C107.209 64.2089 107.005 60.1726 106.051 56.3537C105.997 56.1091 105.738 55.9596 105.507 56.0275C105.261 56.0819 105.112 56.3265 105.18 56.5711C106.215 60.7569 106.337 65.2281 106.337 65.2825C106.337 65.3912 106.378 65.5 106.46 65.5815C106.501 65.6359 111.078 70.5284 112.685 76.9294C114.279 83.3033 110.002 92.2865 109.961 92.368C109.92 92.4496 109.906 92.5311 109.92 92.6126L114.17 130.448C114.129 130.57 113.611 131.603 105.942 132.269C100.957 132.704 94.1053 132.881 86.6544 132.758C78.5496 132.636 70.5673 132.188 64.751 131.508C55.0933 130.394 54.998 129.13 54.998 129.116C54.998 128.994 54.9435 128.858 54.8481 128.776C54.5212 128.043 55.0252 122.96 55.5564 117.592C56.1285 111.884 56.8369 104.776 57.1638 97.709C57.4771 90.8595 57.3545 83.8741 57.2183 77.1333C56.9731 64.4671 56.7687 53.5269 59.9289 50.9311C61.5908 49.5721 66.9304 48.0636 71.3302 47.2889C73.782 46.854 76.5199 46.5958 79.4894 46.5415C81.5054 46.5007 83.5486 46.5551 85.551 46.691C88.6159 46.8948 91.6262 47.2889 94.5004 47.8597C96.7479 48.3082 98.8592 48.8518 100.78 49.4906C101.011 49.5721 101.27 49.4362 101.352 49.2052C101.434 48.9741 101.297 48.7159 101.066 48.6344C99.118 47.982 96.9658 47.4248 94.6774 46.9628C91.776 46.3784 88.7248 45.9843 85.6191 45.7804C83.5895 45.6445 81.519 45.5901 79.4758 45.6309C76.4655 45.6989 73.673 45.9571 71.1803 46.392C68.0337 46.9492 61.509 48.4713 59.3568 50.2244C55.8561 53.092 56.0468 63.706 56.3056 77.1469C56.4282 83.8741 56.5644 90.8459 56.2511 97.6682C55.9242 104.722 55.2159 111.802 54.6438 117.496C53.8129 125.787 53.6086 128.45 54.0717 129.266C54.1262 129.959 54.8617 131.291 64.6284 132.405C70.472 133.085 78.4951 133.533 86.6271 133.655C88.0982 133.683 89.5421 133.696 90.9588 133.696Z" fill="black"/>
<path d="M94.2959 59.3437C91.0267 59.7921 88.0845 55.253 88.0845 55.253C88.0845 55.253 86.1638 48.254 85.5781 46.229C88.6157 46.4329 91.6669 46.827 94.5819 47.4114C95.9304 51.0536 96.9384 58.9767 94.2959 59.3437Z" fill="#71FFCC"/>
<path d="M93.8328 59.8193C94.0098 59.8193 94.1869 59.8057 94.3504 59.7786C94.8952 59.697 95.372 59.3708 95.6989 58.8272C97.1564 56.4217 96.0258 50.0071 95.0042 47.2483C94.9497 47.0988 94.8271 46.9901 94.6637 46.9629C91.7623 46.3785 88.7111 45.9844 85.5917 45.7805C85.4419 45.7669 85.3057 45.8349 85.2103 45.9436C85.115 46.0523 85.0877 46.2154 85.1286 46.3513C85.7007 48.3491 87.6077 55.2938 87.635 55.3617C87.6486 55.4025 87.6622 55.4432 87.6895 55.484C87.8257 55.6743 90.55 59.8193 93.8328 59.8193ZM94.2414 58.8952C91.4762 59.2757 88.8609 55.5656 88.5204 55.0627C88.3297 54.3968 86.8858 49.1102 86.2047 46.7319C88.9562 46.9357 91.6669 47.3027 94.255 47.8055C95.3175 50.8905 96.0531 56.5033 94.9361 58.3652C94.7454 58.6777 94.5138 58.8544 94.2414 58.8952Z" fill="black"/>
<path d="M88.0981 55.2535C88.0981 55.2535 87.4579 62.6195 83.6984 62.538C77.7322 62.4021 71.2892 52.0055 71.2483 46.8411C73.7547 46.3927 76.5471 46.148 79.4757 46.0801L81.015 47.942L88.0981 55.2535Z" fill="#71FFCC"/>
<path d="M83.7666 62.9725C87.8258 62.9725 88.5205 55.593 88.5477 55.2804C88.5613 55.1445 88.5069 55.0222 88.4251 54.927L81.3556 47.6154L79.8299 45.7808C79.7482 45.672 79.612 45.6177 79.4758 45.6177C79.4758 45.6177 79.4758 45.6177 79.4622 45.6177C76.4518 45.6856 73.6594 45.9438 71.1667 46.3787C70.9487 46.4195 70.7853 46.6098 70.7989 46.8272C70.8398 52.3721 77.4871 62.823 83.6848 62.9725C83.7121 62.9725 83.7393 62.9725 83.7666 62.9725ZM87.6215 55.4027C87.4852 56.5307 86.6816 62.062 83.7666 62.062C83.7529 62.062 83.7257 62.062 83.7121 62.062C78.2635 61.9396 72.0521 52.4944 71.7251 47.2077C74.0136 46.8272 76.5472 46.5962 79.2851 46.5282L80.6881 48.2134L87.6215 55.4027Z" fill="black"/>
<path d="M77.1327 31.2393C77.1327 31.2393 76.8058 43.0357 75.3483 46.4468C75.3483 46.4468 80.5517 55.2262 88.0844 55.2398C93.3015 55.2533 91.3945 46.9904 91.3945 46.9904C91.3945 46.9904 91.0403 40.6981 93.7374 37.3005C96.4617 33.903 77.1327 31.2393 77.1327 31.2393Z" fill="white"/>
<path d="M88.0981 55.7014C89.3649 55.7014 90.3593 55.253 91.054 54.3832C92.9065 52.0592 91.9666 47.4521 91.8577 46.9357C91.8304 46.4328 91.6397 40.6841 94.1052 37.5855C94.5684 37.0012 94.5003 36.4711 94.364 36.1314C93.1381 33.0736 78.8219 31.0214 77.2009 30.7904C77.0783 30.7768 76.9421 30.804 76.8468 30.8991C76.7514 30.9807 76.6833 31.103 76.6833 31.2253C76.6833 31.3476 76.3428 42.9809 74.9398 46.2698C74.8853 46.4057 74.8989 46.5552 74.967 46.6775C75.1849 47.0444 80.3884 55.6878 88.0981 55.7014ZM77.5687 31.7689C83.5485 32.6251 92.7567 34.5957 93.5195 36.4847C93.574 36.607 93.6012 36.7837 93.3969 37.0283C90.6181 40.5211 90.9314 46.759 90.945 47.0308C90.945 47.058 90.945 47.0852 90.9587 47.1124C90.9723 47.1531 91.9939 51.7602 90.3457 53.8396C89.8144 54.4919 89.0789 54.8181 88.0981 54.8181C81.5189 54.8045 76.6697 47.6832 75.866 46.4328C77.1056 43.1168 77.5006 34.0385 77.5687 31.7689Z" fill="black"/>
<path d="M112.236 103.241C112.236 103.241 117.82 94.8693 114.742 94.0267C111.65 93.1841 102.646 104.913 102.646 104.913" fill="white"/>
<path d="M102.646 105.361C102.782 105.361 102.918 105.306 103 105.184C106.419 100.74 112.576 93.9039 114.619 94.4611C114.878 94.529 115.041 94.6785 115.123 94.9096C115.682 96.3909 113.407 100.658 111.854 102.996C111.718 103.2 111.772 103.485 111.977 103.621C112.181 103.757 112.467 103.702 112.603 103.499C113.039 102.846 116.867 97.0025 115.968 94.597C115.777 94.0805 115.396 93.7408 114.851 93.5913C111.554 92.6943 103.218 103.417 102.278 104.64C102.128 104.844 102.169 105.116 102.36 105.279C102.455 105.333 102.551 105.361 102.646 105.361Z" fill="black"/>
<path d="M131.864 123.666L114.469 122.389C112.535 122.253 111.078 120.568 111.227 118.638L113.38 89.3915C113.516 87.4617 115.205 86.0076 117.139 86.1571L134.534 87.4345C136.468 87.5704 137.926 89.2556 137.776 91.1855L135.624 120.432C135.487 122.362 133.798 123.816 131.864 123.666Z" fill="#BF92FB"/>
<path d="M132.123 124.129C134.18 124.129 135.923 122.539 136.073 120.46L138.225 91.2132C138.389 89.0387 136.741 87.1361 134.561 86.973L117.167 85.6955C116.104 85.614 115.082 85.9537 114.279 86.6468C113.475 87.3399 112.985 88.3048 112.917 89.3513L110.764 118.598C110.601 120.772 112.249 122.675 114.429 122.838L131.823 124.115C131.932 124.129 132.028 124.129 132.123 124.129ZM116.88 86.5925C116.962 86.5925 117.03 86.5925 117.112 86.606L134.507 87.8835C136.196 88.0059 137.463 89.4736 137.34 91.1588L135.188 120.405C135.133 121.221 134.752 121.954 134.139 122.498C133.526 123.028 132.736 123.286 131.919 123.232L114.524 121.954C112.835 121.832 111.568 120.364 111.691 118.679L113.843 89.4328C113.897 88.6174 114.279 87.8835 114.892 87.3399C115.45 86.8507 116.145 86.5925 116.88 86.5925Z" fill="black"/>
<path d="M102.646 104.912L104.24 117.497C104.24 117.497 121.58 119.712 125.544 116.98C128.227 115.119 126.497 114.113 126.497 114.113C129.603 112.237 126.511 110.511 126.511 110.511C127.887 110.131 129.058 108.595 127.778 107.522C126.525 106.475 119.918 107.1 119.632 107.141C119.945 107.032 127.41 105.578 126.484 103.58C124.999 100.387 110.26 102.779 110.26 102.779" fill="white"/>
<path d="M116.771 118.788C120.585 118.788 124.195 118.448 125.789 117.347C126.947 116.545 127.519 115.744 127.492 114.983C127.478 114.656 127.355 114.385 127.206 114.167C127.968 113.596 128.336 112.971 128.323 112.305C128.309 111.585 127.832 110.987 127.41 110.607C128.091 110.212 128.609 109.587 128.745 108.935C128.881 108.283 128.649 107.644 128.064 107.168C127.383 106.597 125.585 106.461 123.732 106.461C125.503 105.836 126.524 105.184 126.865 104.477C127.042 104.11 127.042 103.73 126.879 103.376C125.299 99.9653 111.718 102.072 110.179 102.316C109.933 102.357 109.77 102.588 109.797 102.833C109.838 103.078 110.07 103.254 110.315 103.213C115.886 102.316 125.081 101.664 126.048 103.757C126.102 103.866 126.102 103.961 126.048 104.083C125.83 104.532 124.74 105.469 119.904 106.597C119.659 106.652 119.509 106.693 119.469 106.706C119.251 106.788 119.128 107.005 119.182 107.236C119.237 107.454 119.441 107.603 119.673 107.589C123.01 107.263 126.756 107.263 127.478 107.875C127.791 108.147 127.914 108.432 127.846 108.758C127.723 109.315 127.097 109.873 126.375 110.077C126.198 110.131 126.075 110.28 126.048 110.457C126.02 110.634 126.116 110.81 126.279 110.906C126.593 111.082 127.41 111.68 127.41 112.333C127.423 112.903 126.783 113.406 126.238 113.732C126.102 113.814 126.02 113.963 126.02 114.126C126.02 114.29 126.102 114.439 126.252 114.521C126.266 114.521 126.565 114.724 126.579 115.051C126.579 115.295 126.429 115.825 125.271 116.627C121.798 119.019 107.1 117.402 104.635 117.116L103.095 104.885C103.068 104.64 102.837 104.464 102.591 104.491C102.346 104.518 102.169 104.749 102.196 104.994L103.79 117.578C103.817 117.782 103.981 117.945 104.185 117.972C104.607 117.986 110.941 118.788 116.771 118.788Z" fill="black"/>
<path d="M120.027 111.626C120.041 111.626 120.054 111.626 120.081 111.626L126.565 110.946C126.811 110.919 127.001 110.702 126.974 110.444C126.947 110.199 126.742 110.022 126.47 110.036L119.986 110.715C119.741 110.743 119.55 110.96 119.577 111.218C119.605 111.449 119.795 111.626 120.027 111.626Z" fill="black"/>
<path d="M119.945 115.064C119.959 115.064 119.973 115.064 119.986 115.064L126.525 114.548C126.77 114.534 126.96 114.317 126.947 114.059C126.933 113.814 126.715 113.624 126.456 113.637L119.918 114.154C119.673 114.167 119.482 114.385 119.496 114.643C119.523 114.888 119.714 115.064 119.945 115.064Z" fill="black"/>
<path d="M103.654 118.652L95.808 119.087L95.5083 101.677L103.545 101.297C108.462 101.65 109.647 118.679 103.654 118.652Z" fill="#71FFCC"/>
<path d="M95.808 119.549C95.8216 119.549 95.8216 119.549 95.8352 119.549L103.668 119.114C106.269 119.114 107.986 116.219 108.149 111.571C108.326 106.584 106.623 101.066 103.572 100.862C103.559 100.862 103.531 100.862 103.518 100.862L95.481 101.243C95.2359 101.256 95.0452 101.46 95.0452 101.705L95.3448 119.114C95.3448 119.236 95.3993 119.359 95.4947 119.44C95.5764 119.508 95.6854 119.549 95.808 119.549ZM103.654 118.204C103.64 118.204 103.64 118.204 103.627 118.204L96.2575 118.611L95.9714 102.113L103.531 101.759C105.915 101.95 107.4 107.059 107.236 111.531C107.127 114.765 106.119 118.204 103.654 118.204Z" fill="black"/>
<path d="M97.0066 119.861C97.0066 119.861 94.977 120.051 91.7351 120.241C80.906 120.867 55.9241 124.373 49.2224 117.089C42.2481 109.532 50.4074 71.0038 51.9603 62.2788C53.5949 53.0646 60.3784 50.0747 60.3784 50.0747L69.8726 64.7658C72.5424 71.9415 67.3662 100.916 67.3662 100.916L93.2607 100.44L97.1973 100.182C102.646 100.345 102.455 120.01 97.0066 119.861Z" fill="white"/>
<path d="M70.7988 122.634C83.099 122.634 95.8215 120.527 97.0474 120.323C98.0282 120.337 99.4176 119.793 100.453 117.225C101.147 115.512 101.556 113.175 101.638 110.647C101.788 105.455 100.453 99.8427 97.2109 99.7475L67.911 100.468C68.6329 96.3228 72.8011 71.3709 70.2948 64.6302C70.213 64.3991 69.9406 64.2768 69.709 64.3583C69.4775 64.4399 69.3549 64.7117 69.4366 64.9427C72.0247 71.9282 66.9575 100.563 66.9166 100.862C66.8894 100.998 66.9302 101.134 67.0256 101.242C67.1209 101.351 67.2435 101.406 67.3798 101.406L97.2109 100.672C97.9873 100.699 98.6956 101.256 99.295 102.357C101.311 106.081 101.188 114.575 99.0634 118.026C98.4777 118.991 97.7966 119.467 97.0202 119.44C96.9929 119.44 96.9657 119.44 96.9248 119.44C96.5434 119.508 57.9945 125.977 49.5492 116.817C43.2152 109.954 49.7944 73.0154 52.5868 60.621C54.0307 54.2336 60.5281 50.537 60.5962 50.5098C60.8142 50.3875 60.8959 50.1157 60.7733 49.8983C60.6507 49.6808 60.3783 49.5993 60.1604 49.7216C59.8743 49.8847 53.2406 53.6492 51.715 60.4308C51.606 60.9064 41.0357 108.907 48.8954 117.442C52.614 121.451 61.577 122.634 70.7988 122.634Z" fill="black"/>
<path d="M77.1738 32.3808C77.1738 32.3808 77.0921 32.34 76.9423 32.2585C75.8253 31.6605 71.1667 28.8745 72.992 24.7702C75.0625 20.1223 80.1433 23.4791 80.1433 23.4791C80.1433 23.4791 84.8291 6.47767 96.8569 8.17646C98.5869 8.42108 100.112 9.9432 101.338 12.2264C105.874 20.6252 106.446 39.2031 99.159 41.2417C92.6343 43.0628 86.9405 40.5758 82.9766 37.7762" fill="white"/>
<path d="M94.6911 42.3149C96.1622 42.3149 97.7014 42.1246 99.2815 41.6761C101.12 41.1597 102.564 39.6919 103.586 37.3C106.269 31.0213 105.357 18.7221 101.733 12.0085C100.358 9.45349 98.6958 7.98573 96.9114 7.72752C85.8916 6.16463 80.838 19.8365 79.8709 22.7992C78.9718 22.3235 77.0512 21.5081 75.2668 22.0245C74.0817 22.3643 73.1691 23.2341 72.5697 24.5931C70.5946 29.0235 75.5392 32.0134 76.6698 32.6386C76.6834 32.6522 76.697 32.6657 76.7243 32.6657C76.8741 32.7473 76.9695 32.7881 76.9695 32.7881C77.1874 32.8968 77.4598 32.8016 77.5688 32.5842C77.6778 32.3532 77.5824 32.0949 77.3645 31.9726C77.3645 31.9726 77.2964 31.9455 77.1874 31.8775C77.1738 31.8639 77.1602 31.8639 77.1466 31.8503C75.8525 31.1572 71.7661 28.6158 73.4006 24.9464C73.891 23.8456 74.5993 23.1525 75.512 22.8807C77.5007 22.2963 79.8572 23.832 79.8709 23.8456C79.9934 23.9272 80.1433 23.9408 80.2795 23.8864C80.4157 23.832 80.5247 23.7233 80.5519 23.5874C80.5928 23.4243 85.265 6.98005 96.7615 8.62448C98.2327 8.82833 99.6765 10.1466 100.902 12.4434C104.43 18.9667 105.302 30.8718 102.714 36.9467C101.815 39.0668 100.562 40.3714 98.9955 40.8063C92.4844 42.6274 86.8178 39.9637 83.1945 37.4088C82.9902 37.2593 82.7041 37.3136 82.5679 37.5175C82.4181 37.7213 82.4726 38.0067 82.6769 38.1426C85.6191 40.1948 89.8009 42.3149 94.6911 42.3149Z" fill="black"/>
<path d="M101.338 12.24C97.3607 15.7056 87.526 15.1756 85.7961 16.0317C83.6302 17.1054 84.0116 27.1078 82.5678 26.673C81.1239 26.2381 80.1431 23.4928 80.1431 23.4928C80.1431 23.4928 75.0623 20.1496 72.9918 24.7839C71.1665 28.8882 75.8251 31.6742 76.9421 32.2722C76.9421 32.2722 74.7218 35.629 69.9679 30.4782C64.6963 24.7703 62.0538 11.9682 75.8251 4.03149C88.1526 -3.07624 103.136 1.38138 103.014 8.72015C102.986 10.2151 102.36 11.3567 101.338 12.24Z" fill="black"/>
<path d="M74.749 33.7939C74.8443 33.7939 74.9397 33.7939 75.035 33.7803C76.547 33.658 77.2962 32.5572 77.3235 32.5164C77.3643 32.4621 77.378 32.3941 77.3916 32.3262C77.4188 32.1359 77.3235 31.9456 77.16 31.8641C75.866 31.171 71.7795 28.6296 73.4141 24.9602C73.9045 23.8594 74.6128 23.1663 75.5254 22.8945C77.2553 22.3916 79.2577 23.4789 79.7753 23.7779C80.0341 24.4302 80.9877 26.659 82.4452 27.0939C82.6631 27.1618 82.881 27.1211 83.0717 26.9988C83.712 26.5911 83.9299 25.1777 84.2977 22.5275C84.6246 20.1492 85.0605 16.8876 86.014 16.4255C86.4907 16.1809 87.921 16.0586 89.5692 15.8955C93.4786 15.5285 98.8318 15.0121 101.651 12.5659C102.837 11.533 103.463 10.2419 103.49 8.71979C103.531 6.27353 102.033 4.03113 99.2541 2.40029C93.9553 -0.711889 84.1478 -1.28268 75.6344 3.62342C68.2652 7.87719 66.0312 13.2182 65.4727 16.9419C64.5737 22.8129 67.0528 27.9365 69.6682 30.7633C71.4798 32.7882 73.1961 33.7939 74.749 33.7939ZM76.2201 32.3805C75.9477 32.598 75.5254 32.8426 74.9397 32.897C73.632 32.9921 72.0383 32.0544 70.2948 30.1789C67.9382 27.6239 65.4727 22.6499 66.3309 17.105C67.1073 12.0358 70.4718 7.65974 76.0567 4.43884C84.2704 -0.30418 93.6965 0.239433 98.7637 3.21571C101.243 4.66988 102.591 6.62688 102.551 8.73338C102.523 10.0109 102.033 11.0437 101.025 11.9135C98.4368 14.1695 93.0291 14.6859 89.4466 15.0257C87.5668 15.2024 86.2047 15.3383 85.5781 15.6508C84.2023 16.3304 83.7801 19.4425 83.3714 22.446C83.1807 23.8866 82.9083 25.8164 82.595 26.2377C81.6279 25.8572 80.7969 24.0497 80.5518 23.3566C80.5245 23.2614 80.4564 23.1799 80.3747 23.1255C80.2657 23.0576 77.6504 21.3588 75.253 22.0519C74.0679 22.3916 73.1553 23.2614 72.5559 24.6205C70.7988 28.5752 74.5991 31.3884 76.2201 32.3805Z" fill="black"/>
<path d="M91.8482 24.8896C91.7097 24.1519 92.0591 23.4676 92.6285 23.3613C93.1978 23.255 93.7716 23.7668 93.91 24.5045C94.0484 25.2423 93.6991 25.9265 93.1297 26.0329C92.5604 26.1392 91.9866 25.6274 91.8482 24.8896Z" fill="black"/>
<path d="M98.4883 22.81C98.3499 22.0723 98.6992 21.388 99.2686 21.2817C99.8379 21.1754 100.412 21.6872 100.55 22.425C100.689 23.1627 100.339 23.8469 99.7699 23.9533C99.2005 24.0596 98.6267 23.5478 98.4883 22.81Z" fill="black"/>
<path d="M93.3152 20.5844C93.3152 20.5844 91.3537 19.769 89.5829 21.9299L93.3152 20.5844Z" fill="white"/>
<path d="M89.5692 22.3919C89.7055 22.3919 89.8281 22.3375 89.9234 22.2288C91.449 20.3805 93.07 20.9921 93.1381 21.0193C93.3697 21.1144 93.6285 21.0057 93.7238 20.7746C93.8192 20.5436 93.7102 20.2854 93.4786 20.1902C93.3833 20.1495 91.1902 19.2797 89.2151 21.658C89.0516 21.8483 89.0789 22.1337 89.2832 22.2967C89.3649 22.3511 89.4739 22.3919 89.5692 22.3919Z" fill="black"/>
<path d="M100.834 19.0215C100.834 19.0215 98.8727 18.206 97.1019 20.3669L100.834 19.0215Z" fill="white"/>
<path d="M97.102 20.8152C97.2382 20.8152 97.3608 20.7609 97.4561 20.6521C98.9817 18.8038 100.603 19.4154 100.671 19.4426C100.902 19.5377 101.161 19.429 101.257 19.198C101.352 18.9669 101.243 18.7087 101.011 18.6136C100.916 18.5728 98.7093 17.703 96.7478 20.0813C96.5843 20.2716 96.6116 20.557 96.8159 20.7201C96.8976 20.7744 96.993 20.8152 97.102 20.8152Z" fill="black"/>
<path d="M97.1564 24.5664C97.9328 26.5098 98.7228 28.4396 99.4993 30.3831C99.6219 30.6956 99.7581 31.0354 99.7172 31.3752C99.6763 31.8236 99.3494 32.1906 98.9544 32.4216C98.5594 32.6526 98.1235 32.7342 97.6876 32.8293" fill="white"/>
<path d="M97.7013 33.2775C97.7285 33.2775 97.7694 33.2775 97.7966 33.2639C98.2461 33.1687 98.7501 33.06 99.1996 32.8018C99.7581 32.4756 100.126 31.9592 100.18 31.4156C100.221 30.9535 100.058 30.5458 99.9216 30.206L97.5787 24.3894C97.4833 24.1584 97.2245 24.0496 96.9929 24.1448C96.7614 24.2399 96.6524 24.4981 96.7478 24.7291L99.077 30.5458C99.186 30.8176 99.295 31.0894 99.2677 31.3205C99.2405 31.6194 98.9681 31.8777 98.7365 32.0136C98.4096 32.2038 98.0009 32.2854 97.6059 32.3805C97.3607 32.4349 97.2109 32.6659 97.2518 32.9105C97.2926 33.1416 97.4833 33.2775 97.7013 33.2775Z" fill="black"/>
<path d="M94.5547 36.1724C95.985 36.9198 97.7422 37.0285 99.2542 36.4713L94.5547 36.1724Z" fill="white"/>
<path d="M97.2517 37.2734C97.9873 37.2734 98.7229 37.1511 99.4176 36.8929C99.6491 36.8113 99.7717 36.5395 99.69 36.3085C99.6083 36.0775 99.3494 35.9551 99.1043 36.0367C97.7149 36.5531 96.0939 36.4444 94.7726 35.7649C94.5547 35.6426 94.2823 35.7377 94.1597 35.9551C94.0507 36.1726 94.1324 36.4444 94.3504 36.5667C95.2358 37.0424 96.2437 37.2734 97.2517 37.2734Z" fill="black"/>
<path d="M90.8906 77.5956C91.0949 77.5956 91.2856 77.4597 91.3265 77.2422C93.0155 69.8083 92.1438 61.9124 88.861 55.0221C88.752 54.791 88.4796 54.6959 88.2616 54.8046C88.0301 54.9134 87.9347 55.1852 88.0437 55.4026C91.2311 62.1162 92.0893 69.7948 90.4411 77.0248C90.3866 77.2694 90.5364 77.5141 90.7816 77.5684C90.8225 77.5956 90.8497 77.5956 90.8906 77.5956Z" fill="black"/>
<path d="M92.9769 64.0804C92.3033 63.9217 91.8862 63.2483 92.0453 62.5762C92.2043 61.9042 92.8793 61.4881 93.5529 61.6468C94.2264 61.8054 94.6435 62.4789 94.4845 63.1509C94.3254 63.8229 93.6505 64.239 92.9769 64.0804Z" fill="#71FFCC"/>
<path d="M93.3438 68.595C92.8544 68.1068 92.8544 67.3151 93.3438 66.8268C93.8332 66.3386 94.6267 66.3386 95.1161 66.8268C95.6055 67.3151 95.6055 68.1068 95.1161 68.595C94.6267 69.0833 93.8332 69.0833 93.3438 68.595Z" fill="#71FFCC"/>
<path d="M93.8211 73.5833C93.3317 73.095 93.3317 72.3034 93.8211 71.8151C94.3105 71.3269 95.104 71.3269 95.5934 71.8151C96.0828 72.3034 96.0828 73.095 95.5934 73.5833C95.104 74.0716 94.3105 74.0716 93.8211 73.5833Z" fill="#71FFCC"/>
<path d="M83.5213 18.5731C83.9435 16.2084 85.7552 14.1019 88.0436 13.3408C89.3376 12.9059 90.7679 12.8652 92.1437 12.8244L92.7839 12.7972C94.4866 12.7293 96.2574 12.5526 97.7558 11.6692C99.2269 10.7994 100.48 8.93756 100.031 7.07568L99.1451 7.29313C99.4993 8.7337 98.4777 10.1879 97.2926 10.8946C95.9713 11.6692 94.3367 11.8323 92.7566 11.8867L92.1164 11.9138C90.6726 11.9546 89.1742 12.009 87.7576 12.4846C85.1695 13.3544 83.1126 15.7463 82.6359 18.4236L83.5213 18.5731Z" fill="white"/>
<path d="M69.1914 20.0543L70.0768 19.8912C69.6681 17.7032 69.9542 15.3792 70.8804 13.3543C71.8067 11.3293 73.3868 9.60333 75.321 8.48892L74.8715 7.70068C72.7738 8.91022 71.0711 10.7857 70.0631 12.9737C69.0552 15.1754 68.7419 17.6896 69.1914 20.0543Z" fill="white"/>
<path d="M93.7373 5.41745L94.4048 4.80588C92.525 2.75374 89.4466 1.84319 86.7359 2.56348L86.9674 3.43326C89.3648 2.80811 92.0755 3.59634 93.7373 5.41745Z" fill="white"/>
<rect x="35" y="166" width="91" height="33" fill="url(#paint0_linear_1073_1396)"/>
<path d="M219.354 135.48C196.377 135.48 172 131.98 172 125.398V102.014H173.401V125.398C173.401 129.459 192.314 134.08 219.354 134.08C246.533 134.08 265.306 129.599 265.306 125.398V102.014H266.707V125.398C266.707 131.98 242.33 135.48 219.354 135.48Z" fill="#4C5671"/>
<path d="M219.354 112.096C196.377 112.096 172 108.595 172 102.014C172 100.334 173.541 98.7937 176.623 97.5335L177.184 98.7937C174.802 99.9139 173.401 101.034 173.401 102.014C173.401 106.075 192.314 110.696 219.354 110.696C246.533 110.696 265.306 106.215 265.306 102.014C265.306 100.894 263.765 99.6339 260.963 98.5137L261.524 97.2534C265.026 98.6537 266.707 100.194 266.707 102.014C266.707 108.595 242.33 112.096 219.354 112.096Z" fill="#4C5671"/>
<path d="M219.354 104.395C196.377 104.395 172 100.894 172 94.313V70.9287H173.401V94.313C173.401 98.3737 192.314 102.995 219.354 102.995C246.533 102.995 265.306 98.5138 265.306 94.313V70.9287H266.707V94.313C266.707 100.894 242.33 104.395 219.354 104.395Z" fill="#4C5671"/>
<path d="M219.354 80.8703C196.377 80.8703 172 77.3697 172 70.7885C172 69.3882 172.981 68.128 175.082 67.0078L175.783 68.268C174.242 69.1082 173.401 69.9483 173.401 70.7885C173.401 74.8492 192.314 79.4701 219.354 79.4701C246.533 79.4701 265.306 74.9893 265.306 70.7885C265.306 69.9483 264.466 69.1082 262.785 68.268L263.485 67.0078C265.587 68.128 266.707 69.3882 266.707 70.7885C266.707 77.3697 242.33 80.8703 219.354 80.8703Z" fill="#4C5671"/>
<path d="M209.687 95.7131C208.006 95.7131 206.745 94.4529 206.745 92.7726C206.745 91.0923 208.006 89.832 209.687 89.832C211.368 89.832 212.629 91.0923 212.629 92.7726C212.629 94.4529 211.368 95.7131 209.687 95.7131ZM209.687 91.2323C208.846 91.2323 208.146 91.9324 208.146 92.7726C208.146 93.6127 208.846 94.3129 209.687 94.3129C210.527 94.3129 211.228 93.6127 211.228 92.7726C211.368 91.9324 210.667 91.2323 209.687 91.2323Z" fill="#4C5671"/>
<path d="M219.354 95.7131C217.673 95.7131 216.412 94.4529 216.412 92.7726C216.412 91.0923 217.673 89.832 219.354 89.832C221.035 89.832 222.296 91.0923 222.296 92.7726C222.296 94.4529 220.895 95.7131 219.354 95.7131ZM219.354 91.2323C218.513 91.2323 217.813 91.9324 217.813 92.7726C217.813 93.6127 218.513 94.3129 219.354 94.3129C220.194 94.3129 220.895 93.6127 220.895 92.7726C220.895 91.9324 220.194 91.2323 219.354 91.2323Z" fill="#4C5671"/>
<path d="M219.354 125.958C217.673 125.958 216.412 124.698 216.412 123.018C216.412 121.337 217.673 120.077 219.354 120.077C221.035 120.077 222.296 121.337 222.296 123.018C222.296 124.698 220.895 125.958 219.354 125.958ZM219.354 121.477C218.513 121.477 217.813 122.178 217.813 123.018C217.813 123.858 218.513 124.558 219.354 124.558C220.194 124.558 220.895 123.858 220.895 123.018C220.895 122.178 220.194 121.477 219.354 121.477Z" fill="#4C5671"/>
<path d="M228.881 125.958C227.199 125.958 225.938 124.698 225.938 123.018C225.938 121.337 227.199 120.077 228.881 120.077C230.562 120.077 231.823 121.337 231.823 123.018C231.823 124.698 230.422 125.958 228.881 125.958ZM228.881 121.477C228.04 121.477 227.339 122.178 227.339 123.018C227.339 123.858 228.04 124.558 228.881 124.558C229.721 124.558 230.422 123.858 230.422 123.018C230.422 122.178 229.721 121.477 228.881 121.477Z" fill="#4C5671"/>
<path d="M219.354 74.1492C196.377 74.1492 172 70.6486 172 64.0674V40.6831H173.401V64.0674C173.401 68.1281 192.314 72.749 219.354 72.749C246.533 72.749 265.306 68.2681 265.306 64.0674V40.6831H266.707V64.0674C266.707 70.6486 242.33 74.1492 219.354 74.1492Z" fill="#4C5671"/>
<path d="M219.354 50.6246C196.377 50.6246 172 47.124 172 40.5428C172 35.9219 184.049 33.5415 191.194 32.4213L191.334 33.8215C178.024 35.7819 173.261 38.7224 173.261 40.5428C173.261 44.6035 192.174 49.2243 219.214 49.2243C246.393 49.2243 265.166 44.7435 265.166 40.5428C265.166 38.5824 260.263 35.6419 246.533 33.6815L246.673 32.2812C254.098 33.4015 266.427 35.9219 266.427 40.5428C266.707 47.124 242.33 50.6246 219.354 50.6246Z" fill="#4C5671"/>
<path d="M209.687 64.487C208.006 64.487 206.745 63.2268 206.745 61.5465C206.745 59.8662 208.006 58.606 209.687 58.606C211.368 58.606 212.629 59.8662 212.629 61.5465C212.769 63.2268 211.368 64.487 209.687 64.487ZM209.687 60.0062C208.846 60.0062 208.146 60.7063 208.146 61.5465C208.146 62.3866 208.846 63.0868 209.687 63.0868C210.527 63.0868 211.228 62.3866 211.228 61.5465C211.368 60.7063 210.667 60.0062 209.687 60.0062Z" fill="#4C5671"/>
<path d="M228.88 64.487C227.199 64.487 225.798 63.2268 225.798 61.5465C225.798 59.8662 227.059 58.606 228.74 58.606C230.421 58.606 231.682 59.8662 231.682 61.5465C231.822 63.2268 230.421 64.487 228.88 64.487ZM228.88 60.0062C228.04 60.0062 227.339 60.7063 227.339 61.5465C227.339 62.3866 228.04 63.0868 228.88 63.0868C229.721 63.0868 230.421 62.3866 230.421 61.5465C230.421 60.7063 229.721 60.0062 228.88 60.0062Z" fill="#4C5671"/>
<path d="M219.354 46.1439C202.542 46.1439 185.449 43.7635 185.449 39.1427C185.449 37.6024 187.271 36.2021 190.913 35.0819L191.334 36.4822C187.971 37.4624 186.85 38.5826 186.85 39.1427C186.85 41.5231 199.179 44.7437 219.354 44.7437C239.528 44.7437 251.857 41.5231 251.857 39.1427C251.857 38.4425 250.456 37.3223 246.673 36.3422L247.093 34.9419C251.296 36.0621 253.258 37.4624 253.258 39.1427C253.258 43.7635 236.166 46.1439 219.354 46.1439Z" fill="#4C5671"/>
<path d="M218.653 46.1439C197.918 46.1439 191.614 43.3434 191.334 43.2033L190.913 43.0633V31.1611H192.314V42.0831C193.996 42.6432 201.141 44.7436 218.513 44.7436C236.166 44.7436 244.011 42.6432 245.972 42.0831V31.1611H247.373V43.0633L246.953 43.2033C246.813 43.3434 239.388 46.1439 218.653 46.1439Z" fill="#4C5671"/>
<path d="M219.354 37.3223C208.006 37.3223 191.053 35.6419 191.053 31.1611C191.053 26.6803 208.006 25 219.354 25C230.702 25 247.654 26.6803 247.654 31.1611C247.514 35.6419 230.702 37.3223 219.354 37.3223ZM219.354 26.2602C202.682 26.2602 192.454 29.0607 192.454 31.0211C192.454 32.9815 202.682 35.782 219.354 35.782C236.025 35.782 246.253 32.9815 246.253 31.0211C246.113 29.0607 235.885 26.2602 219.354 26.2602Z" fill="#4C5671"/>
<path d="M209.687 127.779C207.025 127.779 204.923 125.678 204.923 123.018C204.923 120.357 207.025 118.257 209.687 118.257C212.349 118.257 214.45 120.357 214.45 123.018C214.45 125.678 212.349 127.779 209.687 127.779ZM209.687 119.657C207.865 119.657 206.324 121.197 206.324 123.018C206.324 124.838 207.865 126.378 209.687 126.378C211.508 126.378 213.049 124.838 213.049 123.018C213.049 121.197 211.648 119.657 209.687 119.657Z" fill="#4C5671"/>
<path d="M228.88 97.5335C226.218 97.5335 224.117 95.4331 224.117 92.7726C224.117 90.1121 226.218 88.0117 228.88 88.0117C231.542 88.0117 233.644 90.1121 233.644 92.7726C233.504 95.293 231.402 97.5335 228.88 97.5335ZM228.88 89.412C227.059 89.412 225.518 90.9522 225.518 92.7726C225.518 94.5929 227.059 96.1332 228.88 96.1332C230.702 96.1332 232.243 94.5929 232.243 92.7726C232.103 90.9522 230.702 89.412 228.88 89.412Z" fill="#4C5671"/>
<path d="M219.354 66.3074C216.692 66.3074 214.59 64.207 214.59 61.5465C214.59 58.886 216.692 56.7856 219.354 56.7856C222.016 56.7856 224.117 58.886 224.117 61.5465C223.977 64.207 221.876 66.3074 219.354 66.3074ZM219.354 58.1859C217.532 58.1859 215.991 59.7262 215.991 61.5465C215.991 63.3668 217.532 64.9071 219.354 64.9071C221.175 64.9071 222.716 63.3668 222.716 61.5465C222.576 59.7262 221.175 58.1859 219.354 58.1859Z" fill="#4C5671"/>
<path d="M259.243 149.445V169.767C259.243 172.545 256.979 174.805 254.194 174.805H177.457C174.673 174.805 172.408 172.545 172.408 169.767V149.432C172.408 146.654 174.673 144.395 177.457 144.395H254.194C256.979 144.407 259.243 146.654 259.243 149.445Z" fill="black"/>
<path d="M254.194 175.224H177.457C174.45 175.224 172 172.78 172 169.78V149.445C172 146.445 174.45 144 177.457 144H254.194C257.201 144 259.652 146.445 259.652 149.445V169.767C259.652 172.78 257.201 175.224 254.194 175.224ZM177.457 144.815C174.896 144.815 172.817 146.889 172.817 149.445V169.767C172.817 172.323 174.896 174.397 177.457 174.397H254.194C256.756 174.397 258.835 172.323 258.835 169.767V149.432C258.835 146.877 256.756 144.803 254.194 144.803H177.457V144.815Z" fill="black"/>
<path d="M265.604 149.445V169.767C265.604 172.545 263.339 174.805 260.555 174.805H183.806C181.021 174.805 178.757 172.545 178.757 169.767V149.432C178.757 146.654 181.021 144.395 183.806 144.395H260.543C263.339 144.407 265.604 146.654 265.604 149.445Z" fill="white"/>
<path d="M260.555 175.224H183.806C180.799 175.224 178.348 172.78 178.348 169.78V149.445C178.348 146.445 180.799 144 183.806 144H260.543C263.55 144 266 146.445 266 149.445V169.767C266.012 172.78 263.562 175.224 260.555 175.224ZM183.806 144.815C181.244 144.815 179.165 146.889 179.165 149.445V169.767C179.165 172.323 181.244 174.397 183.806 174.397H260.543C263.104 174.397 265.183 172.323 265.183 169.767V149.432C265.183 146.877 263.104 144.803 260.543 144.803H183.806V144.815Z" fill="black"/>
<path d="M255.742 163.918C258.129 162.932 259.262 160.202 258.274 157.82C257.285 155.439 254.548 154.308 252.162 155.295C249.775 156.281 248.641 159.011 249.63 161.392C250.619 163.774 253.355 164.905 255.742 163.918Z" fill="#BF92FB"/>
<path d="M253.947 164.693C251.138 164.693 248.848 162.409 248.848 159.606C248.848 156.804 251.138 154.52 253.947 154.52C256.756 154.52 259.045 156.804 259.045 159.606C259.033 162.409 256.756 164.693 253.947 164.693ZM253.947 155.347C251.596 155.347 249.678 157.26 249.678 159.606C249.678 161.952 251.596 163.866 253.947 163.866C256.298 163.866 258.216 161.952 258.216 159.606C258.216 157.26 256.298 155.347 253.947 155.347Z" fill="black"/>
<path d="M244.866 160.687C245.46 158.179 243.903 155.665 241.389 155.073C238.874 154.481 236.355 156.034 235.761 158.543C235.168 161.051 236.724 163.565 239.239 164.157C241.753 164.749 244.272 163.196 244.866 160.687Z" fill="#FEC524"/>
<path d="M240.322 164.693C237.513 164.693 235.224 162.408 235.224 159.606C235.224 156.803 237.513 154.519 240.322 154.519C243.131 154.519 245.421 156.803 245.421 159.606C245.408 162.408 243.131 164.693 240.322 164.693ZM240.322 155.346C237.971 155.346 236.053 157.26 236.053 159.606C236.053 161.952 237.971 163.865 240.322 163.865C242.673 163.865 244.591 161.952 244.591 159.606C244.591 157.26 242.673 155.346 240.322 155.346Z" fill="black"/>
<path d="M188.124 152.554C188.293 151.837 187.849 151.119 187.13 150.95C186.412 150.781 185.692 151.224 185.522 151.941C185.353 152.658 185.798 153.376 186.516 153.545C187.234 153.714 187.954 153.271 188.124 152.554Z" fill="black"/>
<path d="M193.642 153.177C194.164 152.657 194.164 151.812 193.642 151.292C193.12 150.771 192.274 150.771 191.752 151.292C191.23 151.812 191.23 152.657 191.752 153.177C192.274 153.698 193.12 153.698 193.642 153.177Z" fill="black"/>
<path d="M199.508 153.178C200.03 152.657 200.03 151.813 199.508 151.292C198.986 150.771 198.14 150.771 197.618 151.292C197.096 151.813 197.096 152.657 197.618 153.178C198.14 153.698 198.986 153.698 199.508 153.178Z" fill="black"/>
<path d="M205.374 153.178C205.896 152.657 205.896 151.813 205.374 151.292C204.852 150.772 204.006 150.772 203.484 151.292C202.962 151.813 202.962 152.657 203.484 153.178C204.006 153.699 204.852 153.699 205.374 153.178Z" fill="black"/>
<path d="M211.24 153.179C211.762 152.658 211.762 151.814 211.24 151.293C210.718 150.772 209.872 150.772 209.35 151.293C208.828 151.814 208.828 152.658 209.35 153.179C209.872 153.699 210.718 153.699 211.24 153.179Z" fill="black"/>
<path d="M217.105 153.179C217.627 152.658 217.627 151.814 217.105 151.293C216.583 150.773 215.737 150.773 215.215 151.293C214.693 151.814 214.693 152.658 215.215 153.179C215.737 153.7 216.583 153.7 217.105 153.179Z" fill="black"/>
<path d="M188.131 162.376C188.301 161.659 187.856 160.941 187.138 160.772C186.419 160.603 185.699 161.047 185.53 161.763C185.36 162.48 185.805 163.198 186.523 163.367C187.242 163.537 187.962 163.093 188.131 162.376Z" fill="black"/>
<path d="M193.648 163.003C194.17 162.482 194.17 161.638 193.648 161.117C193.126 160.596 192.279 160.596 191.758 161.117C191.236 161.638 191.236 162.482 191.758 163.003C192.279 163.524 193.126 163.524 193.648 163.003Z" fill="black"/>
<path d="M199.514 163.003C200.035 162.483 200.035 161.638 199.514 161.118C198.992 160.597 198.145 160.597 197.623 161.118C197.102 161.638 197.102 162.483 197.623 163.003C198.145 163.524 198.992 163.524 199.514 163.003Z" fill="black"/>
<path d="M205.379 163.004C205.901 162.483 205.901 161.639 205.379 161.118C204.857 160.597 204.011 160.597 203.489 161.118C202.967 161.639 202.967 162.483 203.489 163.004C204.011 163.525 204.857 163.525 205.379 163.004Z" fill="black"/>
<path d="M211.245 163.004C211.767 162.484 211.767 161.639 211.245 161.119C210.723 160.598 209.877 160.598 209.355 161.119C208.833 161.639 208.833 162.484 209.355 163.004C209.877 163.525 210.723 163.525 211.245 163.004Z" fill="black"/>
<path d="M217.111 163.005C217.633 162.484 217.633 161.64 217.111 161.119C216.589 160.598 215.743 160.598 215.221 161.119C214.699 161.64 214.699 162.484 215.221 163.005C215.743 163.526 216.589 163.526 217.111 163.005Z" fill="black"/>
<path d="M190.712 158.09C191.234 157.57 191.234 156.725 190.712 156.205C190.19 155.684 189.344 155.684 188.822 156.205C188.3 156.725 188.3 157.57 188.822 158.09C189.344 158.611 190.19 158.611 190.712 158.09Z" fill="black"/>
<path d="M196.927 157.466C197.097 156.749 196.652 156.031 195.933 155.862C195.215 155.693 194.495 156.136 194.326 156.853C194.156 157.57 194.601 158.288 195.319 158.457C196.038 158.627 196.757 158.183 196.927 157.466Z" fill="black"/>
<path d="M202.793 157.467C202.963 156.751 202.518 156.033 201.8 155.863C201.081 155.694 200.362 156.138 200.192 156.855C200.022 157.571 200.467 158.29 201.185 158.459C201.904 158.628 202.624 158.184 202.793 157.467Z" fill="black"/>
<path d="M208.66 157.467C208.829 156.751 208.384 156.033 207.666 155.863C206.948 155.694 206.228 156.138 206.058 156.855C205.889 157.571 206.334 158.29 207.052 158.459C207.77 158.628 208.49 158.184 208.66 157.467Z" fill="black"/>
<path d="M214.526 157.468C214.696 156.752 214.251 156.034 213.532 155.864C212.814 155.695 212.094 156.139 211.925 156.856C211.755 157.572 212.2 158.291 212.918 158.46C213.636 158.629 214.356 158.185 214.526 157.468Z" fill="black"/>
<path d="M220.392 157.469C220.562 156.753 220.117 156.035 219.399 155.865C218.68 155.696 217.961 156.14 217.791 156.857C217.621 157.573 218.066 158.291 218.785 158.461C219.503 158.63 220.223 158.186 220.392 157.469Z" fill="black"/>
<path d="M190.718 167.916C191.24 167.395 191.24 166.551 190.718 166.03C190.196 165.509 189.35 165.509 188.828 166.03C188.306 166.551 188.306 167.395 188.828 167.916C189.35 168.436 190.196 168.436 190.718 167.916Z" fill="black"/>
<path d="M196.934 167.289C197.104 166.572 196.659 165.854 195.941 165.685C195.222 165.515 194.502 165.959 194.333 166.676C194.163 167.393 194.608 168.111 195.326 168.28C196.045 168.449 196.764 168.005 196.934 167.289Z" fill="black"/>
<path d="M202.801 167.29C202.97 166.573 202.525 165.855 201.807 165.686C201.089 165.516 200.369 165.96 200.199 166.677C200.03 167.394 200.474 168.112 201.193 168.281C201.911 168.45 202.631 168.006 202.801 167.29Z" fill="black"/>
<path d="M208.667 167.29C208.836 166.573 208.392 165.855 207.673 165.686C206.955 165.516 206.235 165.96 206.065 166.677C205.896 167.394 206.341 168.112 207.059 168.281C207.777 168.45 208.497 168.006 208.667 167.29Z" fill="black"/>
<path d="M214.533 167.291C214.703 166.574 214.258 165.856 213.54 165.687C212.821 165.517 212.102 165.961 211.932 166.678C211.762 167.395 212.207 168.113 212.925 168.282C213.644 168.451 214.364 168.007 214.533 167.291Z" fill="black"/>
<path d="M220.399 167.291C220.569 166.575 220.124 165.856 219.406 165.687C218.688 165.518 217.968 165.962 217.798 166.678C217.628 167.395 218.073 168.113 218.792 168.282C219.51 168.452 220.23 168.008 220.399 167.291Z" fill="black"/>
<path d="M15.6239 15.7485C13.762 15.7485 11.9843 14.6626 10.2652 13.6124C8.68349 12.6461 7.04785 11.647 5.53221 11.647C2.61932 11.647 1.52979 13.2899 1.51962 13.3064C1.28268 13.6926 0.777615 13.8135 0.391417 13.5766C0.00525904 13.3396 -0.115695 12.8345 0.12125 12.4484C0.182444 12.3487 1.66416 10.0063 5.53221 10.0063C7.50931 10.0063 9.3451 11.1278 11.1205 12.2123C12.7162 13.1872 14.2234 14.1079 15.6239 14.1079C16.8198 14.1079 17.8434 13.8134 18.6662 13.2326C19.2292 12.8353 19.4778 12.4527 19.48 12.449C19.7166 12.0626 20.2216 11.9412 20.6079 12.1778C20.9943 12.4144 21.1158 12.9194 20.8792 13.3057C20.8181 13.4055 19.3407 15.7485 15.6239 15.7485ZM20.8792 17.8584C21.1158 17.472 20.9943 16.9671 20.6079 16.7305C20.2216 16.4939 19.7166 16.6153 19.48 17.0017C19.4778 17.0054 19.2292 17.388 18.6662 17.7853C17.8434 18.3661 16.8198 18.6605 15.6239 18.6605C14.2234 18.6605 12.7162 17.7398 11.1205 16.765C9.3451 15.6805 7.50931 14.559 5.53221 14.559C1.66416 14.559 0.182444 16.9014 0.12125 17.0011C-0.115695 17.3872 0.00525904 17.8923 0.391417 18.1293C0.777615 18.3661 1.28268 18.2453 1.51962 17.8591C1.52979 17.8425 2.61932 16.1996 5.53221 16.1996C7.04785 16.1996 8.68349 17.1988 10.2652 18.1651C11.9843 19.2152 13.762 20.3393 15.6239 20.3393C19.3407 20.3392 20.8181 17.9582 20.8792 17.8584ZM20.8792 22.3701C21.1158 21.9837 20.9943 21.4788 20.6079 21.2422C20.2216 21.0055 19.7166 21.127 19.48 21.5134C19.4778 21.5171 19.2292 21.8996 18.6662 22.2969C17.8434 22.8777 16.8198 23.1722 15.6239 23.1722C14.2234 23.1722 12.7162 22.2515 11.1205 21.2767C9.3451 20.1922 7.50931 19.0707 5.53221 19.0707C1.66416 19.0707 0.182444 21.413 0.12125 21.5127C-0.115695 21.8989 0.00525904 22.404 0.391417 22.6409C0.777615 22.8778 1.28268 22.757 1.51962 22.3708C1.52979 22.3542 2.61932 20.7113 5.53221 20.7113C7.04785 20.7113 8.68349 21.7105 10.2652 22.6767C11.9843 23.7269 13.762 24.8509 15.6239 24.8509C19.3407 24.8509 20.8181 22.4699 20.8792 22.3701ZM14.3791 28.3728C14.5469 27.952 14.3418 27.4748 13.921 27.307C13.016 26.9462 12.0953 26.3838 11.1205 25.7883C9.3451 24.7038 7.50931 23.5824 5.53221 23.5824C1.66416 23.5824 0.182444 25.9247 0.12125 26.0244C-0.115695 26.4106 0.00525904 26.9156 0.391417 27.1526C0.777615 27.3895 1.28268 27.2686 1.51962 26.8824C1.52979 26.8659 2.61932 25.223 5.53221 25.223C7.04785 25.223 8.68345 26.2221 10.2652 27.1884C11.2554 27.7933 12.2792 28.4187 13.3134 28.831C13.413 28.8708 13.5158 28.8896 13.6169 28.8896C13.9428 28.8895 14.2511 28.694 14.3791 28.3728ZM20.9999 26.4505C20.9999 25.9974 20.6326 25.6302 20.1796 25.6302C19.8791 25.6302 19.617 25.7923 19.4742 26.0333C19.3892 26.1579 18.8048 26.9554 17.4978 27.3957C17.0685 27.5404 16.8377 28.0057 16.9823 28.435C17.0977 28.7775 17.4171 28.9937 17.7596 28.9937C17.8464 28.9937 17.9348 28.9797 18.0216 28.9505C20.0032 28.2829 20.8444 26.9386 20.8792 26.8817L20.8772 26.8805C20.9545 26.7554 20.9999 26.6084 20.9999 26.4505Z" fill="url(#paint1_linear_1073_1396)"/>
<defs>
<linearGradient id="paint0_linear_1073_1396" x1="80.5" y1="166" x2="80.5" y2="183" gradientUnits="userSpaceOnUse">
<stop stop-color="#F6F9FF" stop-opacity="0"/>
<stop offset="1" stop-color="#F6F9FF"/>
</linearGradient>
<linearGradient id="paint1_linear_1073_1396" x1="10.5" y1="10.0063" x2="10.5" y2="28.9937" gradientUnits="userSpaceOnUse">
<stop stop-color="#C19BFF"/>
<stop offset="1" stop-color="#FFADCB"/>
</linearGradient>
</defs>
</svg>
