<svg width="411" height="599" viewBox="0 0 411 599" fill="none" xmlns="http://www.w3.org/2000/svg">
<path d="M153.749 32.5894C95.8979 95.2272 99.7781 192.903 162.416 250.754C225.054 308.605 322.729 304.725 380.581 242.087C438.432 179.45 306.273 217.274 272.572 127.813C262.295 100.532 211.6 -30.0483 153.749 32.5894Z" fill="url(#paint0_linear_1294_1364)"/>
<path d="M310.217 555.458C331.147 472.801 281.108 388.827 198.451 367.897C115.793 346.967 31.8195 397.007 10.8895 479.664C-10.0405 562.321 88.0288 465.993 160.349 528.512C182.403 547.577 289.287 638.115 310.217 555.458Z" fill="url(#paint1_linear_1294_1364)"/>
<defs>
<linearGradient id="paint0_linear_1294_1364" x1="162" y1="7" x2="381.5" y2="256" gradientUnits="userSpaceOnUse">
<stop stop-color="#D6DAFF"/>
<stop offset="1" stop-color="white"/>
</linearGradient>
<linearGradient id="paint1_linear_1294_1364" x1="315.184" y1="581.882" x2="3.43985" y2="467.878" gradientUnits="userSpaceOnUse">
<stop stop-color="#D6DAFF"/>
<stop offset="1" stop-color="white"/>
</linearGradient>
</defs>
</svg>
