<svg width="40" height="40" viewBox="0 0 40 40" fill="none" xmlns="http://www.w3.org/2000/svg">
<path d="M19.8333 0C30.787 0 39.6667 8.87969 39.6667 19.8333C39.6667 30.787 30.787 39.6667 19.8333 39.6667C8.87969 39.6667 0 30.787 0 19.8333C0 8.87969 8.87969 0 19.8333 0ZM19.8333 2.08772C10.0327 2.08772 2.08772 10.0327 2.08772 19.8333C2.08772 29.634 10.0327 37.579 19.8333 37.579C29.634 37.579 37.579 29.634 37.579 19.8333C37.579 10.0327 29.634 2.08772 19.8333 2.08772ZM31.0101 8.65662C31.3864 9.03291 31.4542 9.71168 31.0101 10.1329L23.4307 17.7122C23.798 18.3339 24.0088 19.059 24.0088 19.8333C24.0088 22.1394 22.1394 24.0088 19.8333 24.0088C17.5273 24.0088 15.6579 22.1394 15.6579 19.8333C15.6579 17.5273 17.5273 15.6579 19.8333 15.6579C20.6077 15.6579 21.3328 15.8687 21.9545 16.236L29.5338 8.65662C29.9415 8.24897 30.6024 8.24897 31.0101 8.65662ZM19.8333 17.7456C18.6803 17.7456 17.7456 18.6803 17.7456 19.8333C17.7456 20.9864 18.6803 21.9211 19.8333 21.9211C20.9864 21.9211 21.9211 20.9864 21.9211 19.8333C21.9211 18.6803 20.9864 17.7456 19.8333 17.7456ZM32.1693 14.1715C32.9788 15.9325 33.4035 17.8539 33.4035 19.8333C33.4035 20.4098 32.9362 20.8772 32.3597 20.8772C31.7831 20.8772 31.3158 20.4098 31.3158 19.8333C31.3158 18.1565 30.9568 16.5323 30.2724 15.0435C30.0316 14.5197 30.2611 13.8998 30.7849 13.659C31.3087 13.4183 31.9285 13.6477 32.1693 14.1715ZM19.8333 6.26316C21.831 6.26316 23.7696 6.6958 25.5435 7.51973C26.0664 7.76258 26.2934 8.38331 26.0506 8.90617C25.8077 9.42904 25.187 9.65604 24.6641 9.41319C23.1642 8.71657 21.5257 8.35088 19.8333 8.35088C13.4918 8.35088 8.35088 13.4918 8.35088 19.8333C8.35088 20.4098 7.88353 20.8772 7.30702 20.8772C6.73051 20.8772 6.26316 20.4098 6.26316 19.8333C6.26316 12.3387 12.3387 6.26316 19.8333 6.26316Z" fill="#2D3C58"/>
</svg>
