<svg width="322" height="238" viewBox="0 0 322 238" fill="none" xmlns="http://www.w3.org/2000/svg">
<rect y="155" width="80" height="26" rx="13" fill="white"/>
<path d="M14.078 173V162.57H15.73V167.162H20.56V162.57H22.198V173H20.56V168.632H15.73V173H14.078ZM27.8593 173.168C27.1313 173.168 26.4639 172.995 25.8573 172.65C25.2599 172.305 24.7839 171.833 24.4293 171.236C24.0746 170.639 23.8973 169.962 23.8973 169.206C23.8973 168.441 24.0746 167.764 24.4293 167.176C24.7839 166.579 25.2599 166.112 25.8573 165.776C26.4546 165.431 27.1219 165.258 27.8593 165.258C28.6059 165.258 29.2733 165.431 29.8613 165.776C30.4586 166.112 30.9299 166.579 31.2753 167.176C31.6299 167.764 31.8073 168.441 31.8073 169.206C31.8073 169.971 31.6299 170.653 31.2753 171.25C30.9206 171.847 30.4446 172.319 29.8473 172.664C29.2499 173 28.5873 173.168 27.8593 173.168ZM27.8593 171.698C28.3073 171.698 28.7039 171.591 29.0493 171.376C29.3946 171.161 29.6653 170.867 29.8613 170.494C30.0666 170.111 30.1693 169.682 30.1693 169.206C30.1693 168.73 30.0666 168.305 29.8613 167.932C29.6653 167.559 29.3946 167.265 29.0493 167.05C28.7039 166.835 28.3073 166.728 27.8593 166.728C27.4206 166.728 27.0239 166.835 26.6693 167.05C26.3239 167.265 26.0486 167.559 25.8433 167.932C25.6473 168.305 25.5493 168.73 25.5493 169.206C25.5493 169.682 25.6473 170.111 25.8433 170.494C26.0486 170.867 26.3239 171.161 26.6693 171.376C27.0239 171.591 27.4206 171.698 27.8593 171.698ZM36.1517 173.168C35.3771 173.168 34.6957 172.977 34.1077 172.594C33.5291 172.211 33.1231 171.698 32.8897 171.054L34.1077 170.48C34.3131 170.909 34.5931 171.25 34.9477 171.502C35.3117 171.754 35.7131 171.88 36.1517 171.88C36.5251 171.88 36.8284 171.796 37.0617 171.628C37.2951 171.46 37.4117 171.231 37.4117 170.942C37.4117 170.755 37.3604 170.606 37.2577 170.494C37.1551 170.373 37.0244 170.275 36.8657 170.2C36.7164 170.125 36.5624 170.069 36.4037 170.032L35.2137 169.696C34.5604 169.509 34.0704 169.229 33.7437 168.856C33.4264 168.473 33.2677 168.03 33.2677 167.526C33.2677 167.069 33.3844 166.672 33.6177 166.336C33.8511 165.991 34.1731 165.725 34.5837 165.538C34.9944 165.351 35.4564 165.258 35.9697 165.258C36.6604 165.258 37.2764 165.431 37.8177 165.776C38.3591 166.112 38.7417 166.583 38.9657 167.19L37.7477 167.764C37.5984 167.4 37.3604 167.111 37.0337 166.896C36.7164 166.681 36.3571 166.574 35.9557 166.574C35.6104 166.574 35.3351 166.658 35.1297 166.826C34.9244 166.985 34.8217 167.195 34.8217 167.456C34.8217 167.633 34.8684 167.783 34.9617 167.904C35.0551 168.016 35.1764 168.109 35.3257 168.184C35.4751 168.249 35.6291 168.305 35.7877 168.352L37.0197 168.716C37.6451 168.893 38.1257 169.173 38.4617 169.556C38.7977 169.929 38.9657 170.377 38.9657 170.9C38.9657 171.348 38.8444 171.745 38.6017 172.09C38.3684 172.426 38.0417 172.692 37.6217 172.888C37.2017 173.075 36.7117 173.168 36.1517 173.168ZM43.7918 173.084C42.9985 173.084 42.3825 172.86 41.9438 172.412C41.5051 171.964 41.2858 171.334 41.2858 170.522V166.854H39.9558V165.426H40.1658C40.5205 165.426 40.7958 165.323 40.9918 165.118C41.1878 164.913 41.2858 164.633 41.2858 164.278V163.69H42.8678V165.426H44.5898V166.854H42.8678V170.452C42.8678 170.713 42.9098 170.937 42.9938 171.124C43.0778 171.301 43.2131 171.441 43.3998 171.544C43.5865 171.637 43.8291 171.684 44.1278 171.684C44.2025 171.684 44.2865 171.679 44.3798 171.67C44.4731 171.661 44.5618 171.651 44.6458 171.642V173C44.5151 173.019 44.3705 173.037 44.2118 173.056C44.0531 173.075 43.9131 173.084 43.7918 173.084ZM46.1896 173V165.426H47.7716V173H46.1896ZM46.1896 164.39V162.57H47.7716V164.39H46.1896ZM49.6213 173V165.426H51.1333V166.91L50.9513 166.714C51.1379 166.238 51.4366 165.879 51.8473 165.636C52.2579 165.384 52.7339 165.258 53.2753 165.258C53.8353 165.258 54.3299 165.379 54.7593 165.622C55.1886 165.865 55.5246 166.201 55.7673 166.63C56.0099 167.059 56.1313 167.554 56.1313 168.114V173H54.5633V168.534C54.5633 168.151 54.4933 167.829 54.3533 167.568C54.2133 167.297 54.0126 167.092 53.7513 166.952C53.4993 166.803 53.2099 166.728 52.8833 166.728C52.5566 166.728 52.2626 166.803 52.0013 166.952C51.7493 167.092 51.5533 167.297 51.4133 167.568C51.2733 167.839 51.2033 168.161 51.2033 168.534V173H49.6213ZM61.4784 176.08C60.9277 176.08 60.4191 175.991 59.9524 175.814C59.4857 175.637 59.0844 175.389 58.7484 175.072C58.4124 174.764 58.1604 174.4 57.9924 173.98L59.4484 173.378C59.5791 173.733 59.8171 174.027 60.1624 174.26C60.5171 174.493 60.9511 174.61 61.4644 174.61C61.8657 174.61 62.2251 174.531 62.5424 174.372C62.8597 174.223 63.1117 173.999 63.2984 173.7C63.4851 173.411 63.5784 173.061 63.5784 172.65V170.942L63.8584 171.264C63.5971 171.749 63.2331 172.118 62.7664 172.37C62.3091 172.622 61.7911 172.748 61.2124 172.748C60.5124 172.748 59.8824 172.585 59.3224 172.258C58.7624 171.931 58.3191 171.483 57.9924 170.914C57.6751 170.345 57.5164 169.705 57.5164 168.996C57.5164 168.277 57.6751 167.638 57.9924 167.078C58.3191 166.518 58.7577 166.075 59.3084 165.748C59.8591 165.421 60.4891 165.258 61.1984 165.258C61.7771 165.258 62.2904 165.384 62.7384 165.636C63.1957 165.879 63.5691 166.233 63.8584 166.7L63.6484 167.092V165.426H65.1464V172.65C65.1464 173.303 64.9877 173.887 64.6704 174.4C64.3624 174.923 63.9331 175.333 63.3824 175.632C62.8317 175.931 62.1971 176.08 61.4784 176.08ZM61.3944 171.278C61.8144 171.278 62.1877 171.18 62.5144 170.984C62.8411 170.779 63.0977 170.508 63.2844 170.172C63.4804 169.827 63.5784 169.439 63.5784 169.01C63.5784 168.581 63.4804 168.193 63.2844 167.848C63.0884 167.503 62.8271 167.232 62.5004 167.036C62.1737 166.831 61.8051 166.728 61.3944 166.728C60.9651 166.728 60.5824 166.831 60.2464 167.036C59.9104 167.232 59.6444 167.503 59.4484 167.848C59.2617 168.184 59.1684 168.571 59.1684 169.01C59.1684 169.43 59.2617 169.813 59.4484 170.158C59.6444 170.503 59.9104 170.779 60.2464 170.984C60.5824 171.18 60.9651 171.278 61.3944 171.278Z" fill="#2D3C58"/>
<rect x="242" width="80" height="26" rx="13" fill="white"/>
<path d="M256.578 18V7.57H259.994C261.077 7.57 262.015 7.78933 262.808 8.228C263.611 8.65733 264.231 9.264 264.67 10.048C265.109 10.832 265.328 11.742 265.328 12.778C265.328 13.8047 265.109 14.7147 264.67 15.508C264.231 16.292 263.611 16.9033 262.808 17.342C262.015 17.7807 261.077 18 259.994 18H256.578ZM258.23 16.53H260.022C260.759 16.53 261.399 16.376 261.94 16.068C262.491 15.76 262.915 15.326 263.214 14.766C263.513 14.206 263.662 13.5433 263.662 12.778C263.662 12.0127 263.508 11.3547 263.2 10.804C262.901 10.244 262.481 9.81 261.94 9.502C261.399 9.194 260.759 9.04 260.022 9.04H258.23V16.53ZM270.455 18.168C269.727 18.168 269.06 17.9953 268.453 17.65C267.856 17.3047 267.38 16.8333 267.025 16.236C266.67 15.6387 266.493 14.962 266.493 14.206C266.493 13.4407 266.67 12.764 267.025 12.176C267.38 11.5787 267.856 11.112 268.453 10.776C269.05 10.4307 269.718 10.258 270.455 10.258C271.202 10.258 271.869 10.4307 272.457 10.776C273.054 11.112 273.526 11.5787 273.871 12.176C274.226 12.764 274.403 13.4407 274.403 14.206C274.403 14.9713 274.226 15.6527 273.871 16.25C273.516 16.8473 273.04 17.3187 272.443 17.664C271.846 18 271.183 18.168 270.455 18.168ZM270.455 16.698C270.903 16.698 271.3 16.5907 271.645 16.376C271.99 16.1613 272.261 15.8673 272.457 15.494C272.662 15.1113 272.765 14.682 272.765 14.206C272.765 13.73 272.662 13.3053 272.457 12.932C272.261 12.5587 271.99 12.2647 271.645 12.05C271.3 11.8353 270.903 11.728 270.455 11.728C270.016 11.728 269.62 11.8353 269.265 12.05C268.92 12.2647 268.644 12.5587 268.439 12.932C268.243 13.3053 268.145 13.73 268.145 14.206C268.145 14.682 268.243 15.1113 268.439 15.494C268.644 15.8673 268.92 16.1613 269.265 16.376C269.62 16.5907 270.016 16.698 270.455 16.698ZM275.947 18V10.426H277.459V12.064L277.263 11.812C277.422 11.2987 277.711 10.9113 278.131 10.65C278.551 10.3887 279.032 10.258 279.573 10.258C280.18 10.258 280.717 10.4213 281.183 10.748C281.659 11.0653 281.977 11.49 282.135 12.022L281.687 12.064C281.911 11.4573 282.252 11.0047 282.709 10.706C283.176 10.4073 283.708 10.258 284.305 10.258C284.828 10.258 285.299 10.3793 285.719 10.622C286.149 10.8647 286.489 11.2007 286.741 11.63C286.993 12.0593 287.119 12.5493 287.119 13.1V18H285.537V13.534C285.537 13.1513 285.467 12.8293 285.327 12.568C285.197 12.2973 285.01 12.092 284.767 11.952C284.534 11.8027 284.259 11.728 283.941 11.728C283.624 11.728 283.344 11.8027 283.101 11.952C282.859 12.092 282.667 12.2973 282.527 12.568C282.387 12.8387 282.317 13.1607 282.317 13.534V18H280.749V13.534C280.749 13.1513 280.679 12.8293 280.539 12.568C280.409 12.2973 280.222 12.092 279.979 11.952C279.746 11.8027 279.466 11.728 279.139 11.728C278.822 11.728 278.542 11.8027 278.299 11.952C278.057 12.092 277.865 12.2973 277.725 12.568C277.595 12.8387 277.529 13.1607 277.529 13.534V18H275.947ZM291.081 18.168C290.567 18.168 290.115 18.0793 289.723 17.902C289.34 17.7153 289.041 17.4633 288.827 17.146C288.612 16.8193 288.505 16.4367 288.505 15.998C288.505 15.5873 288.593 15.2187 288.771 14.892C288.957 14.5653 289.242 14.29 289.625 14.066C290.007 13.842 290.488 13.6833 291.067 13.59L293.699 13.156V14.402L291.375 14.808C290.955 14.8827 290.647 15.018 290.451 15.214C290.255 15.4007 290.157 15.6433 290.157 15.942C290.157 16.2313 290.264 16.4693 290.479 16.656C290.703 16.8333 290.987 16.922 291.333 16.922C291.762 16.922 292.135 16.8287 292.453 16.642C292.779 16.4553 293.031 16.208 293.209 15.9C293.386 15.5827 293.475 15.2327 293.475 14.85V12.904C293.475 12.5307 293.335 12.2273 293.055 11.994C292.784 11.7513 292.42 11.63 291.963 11.63C291.543 11.63 291.174 11.742 290.857 11.966C290.549 12.1807 290.32 12.4607 290.171 12.806L288.855 12.148C288.995 11.7747 289.223 11.448 289.541 11.168C289.858 10.8787 290.227 10.6547 290.647 10.496C291.076 10.3373 291.529 10.258 292.005 10.258C292.602 10.258 293.129 10.37 293.587 10.594C294.053 10.818 294.413 11.1307 294.665 11.532C294.926 11.924 295.057 12.3813 295.057 12.904V18H293.545V16.628L293.867 16.67C293.689 16.978 293.461 17.244 293.181 17.468C292.91 17.692 292.597 17.8647 292.243 17.986C291.897 18.1073 291.51 18.168 291.081 18.168ZM296.906 18V10.426H298.488V18H296.906ZM296.906 9.39V7.57H298.488V9.39H296.906ZM300.338 18V10.426H301.85V11.91L301.668 11.714C301.855 11.238 302.153 10.8787 302.564 10.636C302.975 10.384 303.451 10.258 303.992 10.258C304.552 10.258 305.047 10.3793 305.476 10.622C305.905 10.8647 306.241 11.2007 306.484 11.63C306.727 12.0593 306.848 12.554 306.848 13.114V18H305.28V13.534C305.28 13.1513 305.21 12.8293 305.07 12.568C304.93 12.2973 304.729 12.092 304.468 11.952C304.216 11.8027 303.927 11.728 303.6 11.728C303.273 11.728 302.979 11.8027 302.718 11.952C302.466 12.092 302.27 12.2973 302.13 12.568C301.99 12.8387 301.92 13.1607 301.92 13.534V18H300.338Z" fill="#2D3C58"/>
<path d="M88.1101 119.009C88.927 119.009 89.6402 118.387 89.7179 117.557C89.8087 116.663 89.1733 115.872 88.2786 115.768C83.1698 115.223 79.6559 113.771 77.1922 111.191C73.5097 107.315 72.8873 100.625 75.7141 95.2571C78.5797 89.8377 85.3871 86.6872 90.5867 85.0017C91.3388 84.7554 91.8055 84.0164 91.7018 83.2255C91.248 79.9583 92.5576 76.4448 95.0342 74.2666C97.5757 72.0366 101.543 71.0902 104.668 71.9718C105.42 72.1793 106.224 71.8292 106.562 71.1161C107.832 68.5101 110.011 66.2153 112.669 64.6595C113.447 64.2057 113.706 63.2074 113.252 62.4425C112.798 61.6646 111.8 61.4053 111.035 61.859C108.208 63.5056 105.848 65.8523 104.253 68.562C100.351 67.9267 95.9289 69.1714 92.8948 71.8292C89.8995 74.4482 88.2397 78.3766 88.3694 82.3309C82.7808 84.3016 75.9863 87.8022 72.8484 93.7402C69.3864 100.301 70.2162 108.572 74.8453 113.434C77.8146 116.559 82.1065 118.374 87.9415 118.996C87.9934 118.996 88.0582 119.009 88.1101 119.009Z" fill="white"/>
<path d="M143.361 119.177C150.09 119.112 153.747 119.099 160.49 118.633C163.913 118.399 166.999 116.623 169.411 113.511C172.73 109.22 174.247 103.036 173.262 97.7459C171.745 89.5909 164.211 83.1861 156.003 82.7582C155.796 78.2983 152.723 74.0068 149.429 71.4786C145.902 68.7689 141.131 67.9262 136.89 69.1708C133.001 61.8066 123.82 57.3855 115.003 60.1212C114.147 60.3934 113.667 61.301 113.94 62.1567C114.212 63.0124 115.12 63.4921 115.975 63.2198C123.716 60.8083 131.821 65.2553 134.557 71.8157C134.907 72.6455 135.853 73.0344 136.683 72.6844C140.145 71.2193 144.463 71.7638 147.445 74.0587C150.35 76.2887 153.228 80.3986 152.697 84.1585C152.567 85.1309 153.306 86.0384 154.395 86.0125C161.566 85.6106 168.749 91.2763 170.072 98.3553C170.876 102.712 169.579 108.014 166.843 111.541C165.56 113.187 163.381 115.197 160.256 115.417C154.188 115.845 150.687 115.884 143.335 115.949C142.44 115.962 141.714 116.688 141.727 117.583C141.753 118.464 142.479 119.177 143.361 119.177Z" fill="white"/>
<path d="M95.7475 119.255C102.503 119.126 104.837 119.178 104.72 119.178C105.615 119.178 106.341 118.452 106.341 117.557C106.341 116.662 105.628 115.923 104.72 115.923C97.3813 115.885 95.4104 116.118 91.9353 115.91C91.0277 115.846 90.2756 116.533 90.2108 117.427C90.1589 118.322 90.8332 119.087 91.7279 119.152C93.6729 119.281 93.8544 119.281 95.7475 119.255Z" fill="white"/>
<path d="M119.801 130.418V111.048H113.538V130.521" fill="white"/>
<path d="M113.538 132.141C114.432 132.141 115.159 131.415 115.159 130.521V112.681H118.18V130.43C118.18 131.325 118.906 132.051 119.801 132.051C120.695 132.051 121.421 131.325 121.421 130.43V111.06C121.421 110.165 120.695 109.439 119.801 109.439H113.525C112.63 109.439 111.904 110.165 111.904 111.06V130.521C111.904 131.415 112.63 132.141 113.538 132.141Z" fill="white"/>
<path d="M113.538 130.52L110.452 130.572L117.026 138.182L123.003 130.364L119.801 130.416" fill="white"/>
<path d="M118.322 139.168L124.3 131.363C125.143 130.261 124.274 128.692 122.99 128.757L119.788 128.809C118.893 128.822 118.18 129.561 118.193 130.455C118.206 131.298 118.867 131.985 119.697 132.05L116.974 135.615L113.94 132.102C114.666 131.92 115.184 131.272 115.171 130.494C115.158 129.6 114.368 128.874 113.525 128.899L110.452 128.951C109.077 128.977 108.351 130.598 109.246 131.635L115.82 139.246C116.481 140.024 117.7 139.972 118.322 139.168Z" fill="white"/>
<path d="M128.242 114.158C127.931 140.192 128.021 132.491 128.008 133.969L134.271 134.06C134.297 132.037 134.18 141.385 134.505 114.353" fill="white"/>
<path d="M135.412 135.214C135.723 134.916 135.892 134.501 135.905 134.073L136.138 114.366C136.151 113.472 135.425 112.733 134.531 112.72C134.518 112.72 134.518 112.72 134.505 112.72C133.623 112.72 132.897 113.433 132.884 114.327L132.663 132.414L129.642 132.375L129.863 114.185C129.876 113.29 129.149 112.551 128.255 112.538C127.373 112.525 126.621 113.251 126.608 114.146L126.375 133.957C126.362 134.851 127.075 135.59 127.982 135.603L134.258 135.694C134.362 135.655 134.894 135.72 135.412 135.214Z" fill="white"/>
<path d="M134.505 114.342L137.708 114.433L131.808 106.537L125.156 114.057L128.242 114.161" fill="white"/>
<path d="M139.004 113.461L133.104 105.565C132.482 104.736 131.263 104.684 130.589 105.462L123.937 112.981C123.029 114.006 123.729 115.639 125.104 115.678L128.177 115.769C128.994 115.821 129.824 115.134 129.85 114.2C129.876 113.422 129.344 112.761 128.631 112.579L131.704 109.105L134.401 112.709C133.571 112.761 132.91 113.435 132.884 114.278C132.858 115.172 133.558 115.924 134.453 115.95L137.656 116.041C138.952 116.145 139.847 114.576 139.004 113.461Z" fill="white"/>
<path d="M98.0036 79.0123C98.263 78.0659 99.028 77.2491 99.9616 76.9249C100.804 76.6267 101.258 75.7062 100.96 74.8635C100.662 74.0208 99.7411 73.567 98.8983 73.8652C96.9533 74.5394 95.4103 76.1859 94.8657 78.1566C94.6323 79.0253 95.138 79.9199 96.0068 80.1533C96.8496 80.3737 97.7573 79.8939 98.0036 79.0123Z" fill="white"/>
<path d="M82.5345 109.157C82.7809 109.157 83.0402 109.105 83.2736 108.975C84.0646 108.561 84.3887 107.588 83.9738 106.784C82.5734 104.049 82.5086 100.639 83.8182 97.8644C84.2072 97.0476 83.8571 96.0881 83.0402 95.6992C82.2233 95.3232 81.2638 95.6603 80.8748 96.4771C79.1373 100.146 79.2151 104.671 81.0693 108.275C81.3805 108.833 81.9381 109.157 82.5345 109.157Z" fill="white"/>
<path d="M150.272 228.136C152.009 232.103 155.977 234.761 160.139 235.954C164.302 237.146 168.71 237.108 173.054 237.056C215.416 236.511 257.791 235.98 300.152 235.435C302.11 235.409 304.367 235.228 305.482 233.62C307.064 231.338 304.769 228.045 302.046 227.487C299.323 226.93 296.6 228.084 293.967 228.966C286.343 231.494 278.174 231.74 270.148 231.96C236.422 232.907 202.696 233.84 168.97 234.787C164.846 234.904 160.606 234.994 156.755 233.516C152.904 232.038 149.52 228.551 149.468 224.428" fill="white"/>
<path d="M228.733 99.0695C246.25 99.3288 264.079 99.64 280.716 104.852C285.811 106.447 290.829 108.534 294.888 111.879C298.947 115.224 301.968 119.956 302.214 125.078C300.995 120.592 301.41 115.859 301.021 111.231C300.632 106.602 302.123 103.4 298.233 100.625C295.549 98.7195 288.016 97.3841 284.683 97.034C275.97 96.1135 267.931 96.4765 259.178 96.8655C245.576 97.4878 232.363 97.1507 218.761 97.7601" fill="white"/>
<path d="M195.927 187.41C218.087 186.581 240.247 188.305 262.342 190.029C273.013 190.859 283.763 191.702 294.11 194.476C294.058 190.237 293.993 186.01 293.942 181.771C293.955 183.106 229.251 184.597 223.326 184.675C211.422 184.817 199.519 184.791 187.629 184.597C181.807 184.506 175.972 184.364 170.15 184.182C167.816 184.104 157.455 182.082 159.984 185.764C162.473 189.394 172.211 188.175 175.881 188.162C182.559 188.149 189.236 187.67 195.927 187.41Z" fill="white"/>
<path d="M293.488 144.901C293.06 141.089 292.645 137.278 292.217 133.466C250.802 136.059 209.257 136.928 167.738 136.046C163.744 135.955 157.857 134.736 154.136 135.942C156.963 141.245 171.161 140.739 176.296 141.128C204.705 143.28 233.789 138.509 262.303 139.987C267.567 140.26 272.819 140.752 278.031 141.543C279.587 141.789 293.358 143.617 293.488 144.901Z" fill="white"/>
<path d="M158.091 137.496L271.496 135.616C272.391 135.603 273.104 134.864 273.091 133.969C273.078 133.088 272.352 132.375 271.47 132.375C271.457 132.375 271.457 132.375 271.444 132.375L158.039 134.255C153.954 134.358 150.44 131.052 150.376 126.839C150.363 126.255 149.987 125.503 150.064 120.019C150.077 119.448 150.077 118.826 150.09 118.165C150.09 117.27 149.377 116.531 148.482 116.531H148.469C147.575 116.531 146.849 117.257 146.849 118.139C146.823 121.562 146.68 123.753 147.147 126.994C147.289 132.893 152.191 137.6 158.091 137.496Z" fill="white"/>
<path d="M277.02 135.515C277.033 135.515 277.033 135.515 277.046 135.515L293.047 135.255C295.925 135.204 298.622 134.037 300.632 131.962C302.616 129.914 303.692 127.217 303.666 124.365C304.107 118.414 304.004 112.398 303.368 106.499C303.239 100.898 298.713 96.4767 292.567 95.9841C261.849 93.5207 231.105 95.0376 201.373 96.5027C191.687 96.9824 181.664 97.4751 171.809 97.8251C170.915 97.851 170.214 98.603 170.24 99.5106C170.266 100.405 171.057 101.131 171.926 101.079C181.807 100.729 191.843 100.237 201.542 99.7569C231.17 98.2918 261.81 96.7879 292.321 99.2254C296.159 99.5365 300.062 102.181 300.127 106.641C300.127 106.693 300.127 106.745 300.139 106.797C300.762 112.553 300.866 118.414 300.438 124.222C300.438 124.274 300.438 124.326 300.438 124.365C300.477 126.374 299.725 128.28 298.324 129.732C296.924 131.184 295.044 132.001 293.021 132.027L277.02 132.286C276.125 132.299 275.412 133.038 275.425 133.933C275.412 134.815 276.138 135.515 277.02 135.515Z" fill="white"/>
<path d="M179.771 186.339C209.776 186.339 246.73 185.561 293.89 183.966C299.802 183.862 304.535 178.987 304.483 173.088C304.989 166.761 304.885 160.59 304.185 155.196C304.043 149.349 299.232 144.682 293.41 144.682C293.345 144.682 293.293 144.682 293.228 144.682L158.259 146.925C152.399 147.028 147.64 151.774 147.199 157.984C147.199 158.036 147.199 158.075 147.199 158.126L147.497 175.837C147.497 175.889 147.497 175.941 147.51 175.992C148.158 181.749 153.086 186.196 158.752 186.196C158.817 186.196 158.869 186.196 158.934 186.196C165.469 186.287 172.406 186.339 179.771 186.339ZM293.397 147.923C297.494 147.923 300.866 151.216 300.931 155.339C300.931 155.404 300.931 155.469 300.944 155.52C301.631 160.719 301.735 166.722 301.229 172.881C301.229 172.933 301.229 172.984 301.229 173.036C301.294 177.185 297.974 180.634 293.812 180.699C293.799 180.699 293.799 180.699 293.786 180.699C235.112 182.695 192.245 183.408 158.895 182.942C158.856 182.942 158.804 182.942 158.765 182.942C154.707 182.942 151.219 179.791 150.713 175.694L150.415 158.139C150.765 153.654 154.136 150.231 158.285 150.166L293.254 147.923C293.319 147.923 293.358 147.923 293.397 147.923Z" fill="white"/>
<path d="M206.197 235.631C232.623 235.631 256.805 234.84 280.262 233.232C281.157 233.167 281.831 232.402 281.766 231.508C281.701 230.613 280.923 229.926 280.041 230.004C243.618 232.493 205.38 233.025 159.725 231.663C155.381 231.534 152.061 228.344 151.984 224.247L151.685 206.537C151.62 202.375 154.94 198.939 159.102 198.874C198.793 196.631 252.06 196.502 294.032 196.631C294.071 196.631 294.123 196.631 294.162 196.631C298.285 196.631 301.657 199.925 301.734 204.048L302.033 221.758C302.072 223.767 301.32 225.673 299.919 227.125C298.519 228.578 296.639 229.381 294.629 229.42C292.619 229.511 290.648 229.589 288.69 229.667L285.682 229.783C284.787 229.822 284.087 230.574 284.126 231.469C284.165 232.363 284.917 233.063 285.811 233.025L288.82 232.908C290.791 232.83 292.762 232.752 294.732 232.662C297.572 232.61 300.256 231.443 302.266 229.381C304.263 227.307 305.339 224.584 305.3 221.706L305.002 203.996C304.898 198.045 300.01 193.312 294.032 193.39C252.034 193.261 198.715 193.39 158.998 195.633C153.112 195.737 148.353 200.651 148.457 206.589L148.755 224.299C148.846 230.068 153.63 234.723 159.647 234.904C176.024 235.384 191.467 235.631 206.197 235.631Z" fill="white"/>
<path d="M156.82 148.828C156.833 148.828 156.833 148.828 156.846 148.828C157.741 148.815 158.454 148.076 158.441 147.181L158.285 137.393C158.272 136.511 157.546 135.798 156.664 135.798C156.651 135.798 156.651 135.798 156.638 135.798C155.744 135.811 155.031 136.55 155.043 137.444L155.199 147.233C155.212 148.128 155.938 148.828 156.82 148.828Z" fill="white"/>
<path d="M293.643 147.468C293.656 147.468 293.656 147.468 293.669 147.468C294.564 147.455 295.277 146.716 295.264 145.822L295.095 135.436C295.082 134.555 294.356 133.842 293.475 133.842C293.462 133.842 293.462 133.842 293.449 133.842C292.554 133.855 291.841 134.594 291.854 135.488L292.022 145.873C292.035 146.755 292.761 147.468 293.643 147.468Z" fill="white"/>
<path d="M158.246 197.732C158.259 197.732 158.259 197.732 158.272 197.732C159.167 197.719 159.88 196.98 159.867 196.086L159.698 186.245C159.685 185.363 158.959 184.65 158.078 184.65C158.065 184.65 158.065 184.65 158.052 184.65C157.157 184.663 156.444 185.402 156.457 186.297L156.625 196.137C156.638 197.019 157.364 197.732 158.246 197.732Z" fill="white"/>
<path d="M294.136 195.399C294.149 195.399 294.149 195.399 294.162 195.399C295.056 195.386 295.77 194.647 295.757 193.753L295.601 184.288C295.588 183.406 294.862 182.693 293.98 182.693C293.967 182.693 293.967 182.693 293.954 182.693C293.06 182.706 292.346 183.445 292.359 184.34L292.515 193.804C292.528 194.699 293.254 195.399 294.136 195.399Z" fill="white"/>
<path d="M277.974 120.468C275.807 118.301 275.807 114.787 277.974 112.62C280.142 110.453 283.656 110.453 285.823 112.62C287.99 114.787 287.99 118.301 285.823 120.468C283.656 122.635 280.142 122.635 277.974 120.468Z" fill="white"/>
<path d="M257.346 118.033C256.642 115.05 258.489 112.062 261.472 111.357C264.454 110.653 267.444 112.5 268.148 115.482C268.852 118.465 267.005 121.454 264.022 122.158C261.039 122.862 258.05 121.015 257.346 118.033Z" fill="white"/>
<path d="M242.725 121.851C239.894 120.678 238.549 117.432 239.722 114.6C240.895 111.769 244.141 110.424 246.973 111.597C249.805 112.77 251.149 116.016 249.976 118.847C248.803 121.679 245.557 123.023 242.725 121.851Z" fill="white"/>
<path d="M280.834 171.048C278.003 169.875 276.658 166.629 277.831 163.797C279.004 160.966 282.25 159.621 285.082 160.794C287.914 161.967 289.259 165.213 288.086 168.045C286.913 170.876 283.666 172.221 280.834 171.048Z" fill="white"/>
<path d="M258.419 167.398C257.715 164.416 259.562 161.427 262.545 160.723C265.527 160.018 268.516 161.865 269.221 164.848C269.925 167.83 268.078 170.819 265.095 171.523C262.112 172.227 259.123 170.381 258.419 167.398Z" fill="white"/>
<path d="M243.8 171.23C240.968 170.057 239.624 166.811 240.797 163.979C241.97 161.148 245.216 159.803 248.048 160.976C250.88 162.149 252.224 165.395 251.051 168.226C249.878 171.058 246.632 172.402 243.8 171.23Z" fill="white"/>
<path d="M280.833 219.701C278.001 218.528 276.656 215.282 277.829 212.451C279.002 209.619 282.249 208.275 285.08 209.448C287.912 210.621 289.257 213.867 288.084 216.698C286.911 219.53 283.664 220.874 280.833 219.701Z" fill="white"/>
<path d="M258.431 216.05C257.727 213.068 259.574 210.079 262.557 209.375C265.54 208.671 268.529 210.518 269.233 213.5C269.938 216.483 268.09 219.471 265.108 220.176C262.125 220.88 259.136 219.033 258.431 216.05Z" fill="white"/>
<path d="M243.803 219.869C240.972 218.696 239.627 215.45 240.8 212.619C241.973 209.787 245.219 208.443 248.051 209.616C250.883 210.788 252.228 214.035 251.055 216.866C249.882 219.697 246.635 221.042 243.803 219.869Z" fill="white"/>
<path d="M293.267 232.83H317.696C318.591 232.83 319.317 232.104 319.317 231.21C319.317 230.315 318.591 229.589 317.696 229.589H293.267C292.372 229.589 291.646 230.315 291.646 231.21C291.646 232.104 292.372 232.83 293.267 232.83Z" fill="white"/>
<path d="M120.903 232.83H152.398C153.293 232.83 154.019 232.104 154.019 231.21C154.019 230.315 153.293 229.589 152.398 229.589H120.903C120.008 229.589 119.282 230.315 119.282 231.21C119.282 232.104 119.995 232.83 120.903 232.83Z" fill="white"/>
<path d="M154.006 106.185C154.019 106.185 154.019 106.185 154.032 106.185C154.927 106.172 155.64 105.433 155.627 104.539C155.575 101.272 154.084 98.0432 151.633 95.891C150.959 95.2946 149.935 95.3724 149.338 96.0466C148.742 96.7208 148.819 97.745 149.494 98.3414C151.27 99.8972 152.346 102.231 152.385 104.604C152.385 105.472 153.111 106.185 154.006 106.185Z" fill="white"/>
<path d="M174.208 114.962V123.234C174.208 123.908 174.895 124.465 175.738 124.465L222.651 123.739C223.494 123.739 224.181 123.182 224.181 122.508L224 114.962C224 114.288 223.312 113.73 222.47 113.73C209.373 113.056 193.113 113.238 175.738 113.73C174.882 113.743 174.208 114.288 174.208 114.962Z" fill="white"/>
<path d="M174.208 162.571V170.843C174.208 171.517 174.895 172.075 175.738 172.075L222.651 171.349C223.494 171.349 224.181 170.791 224.181 170.117L224 162.571C224 161.897 223.312 161.34 222.47 161.34C209.373 160.665 193.113 160.847 175.738 161.34C174.882 161.353 174.208 161.897 174.208 162.571Z" fill="white"/>
<path d="M174.208 210.178V218.449C174.208 219.124 174.895 219.681 175.738 219.681L222.651 218.955C223.494 218.955 224.181 218.398 224.181 217.723L224 210.178C224 209.504 223.312 208.946 222.47 208.946C209.373 208.272 193.113 208.453 175.738 208.946C174.882 208.959 174.208 209.504 174.208 210.178Z" fill="white"/>
<path d="M32.5 138.5L36.2952 134.149L30.6296 133.038L32.5 138.5ZM220.495 11.4424L225.467 13.8866L225.533 8.11348L220.506 10.4425L220.495 11.4424ZM34.2738 132.718C34.5926 131.446 34.9439 130.145 35.3286 128.82L34.3683 128.541C33.9802 129.878 33.6257 131.191 33.3038 132.475L34.2738 132.718ZM36.5238 124.953C36.9345 123.7 37.3737 122.428 37.8423 121.14L36.9025 120.798C36.4303 122.097 35.9875 123.379 35.5735 124.642L36.5238 124.953ZM39.2734 117.383C39.7632 116.154 40.279 114.911 40.8213 113.658L39.9035 113.261C39.3573 114.523 38.8378 115.774 38.3444 117.013L39.2734 117.383ZM42.4823 109.963C43.0437 108.761 43.6292 107.549 44.2393 106.331L43.3451 105.883C42.7309 107.11 42.1414 108.329 41.5761 109.54L42.4823 109.963ZM46.0899 102.756C46.7189 101.58 47.3707 100.399 48.0457 99.2131L47.1768 98.7182C46.4973 99.9114 45.8412 101.101 45.2081 102.284L46.0899 102.756ZM50.0911 95.7283C50.7786 94.5913 51.4875 93.4517 52.2183 92.3104L51.3762 91.7712C50.6407 92.9197 49.9272 94.0666 49.2354 95.2109L50.0911 95.7283ZM54.4467 88.9272C55.1933 87.8247 55.9605 86.7218 56.7487 85.6192L55.9352 85.0377C55.1421 86.1471 54.37 87.2571 53.6187 88.3665L54.4467 88.9272ZM59.1362 82.3669C59.9431 81.2964 60.77 80.2272 61.6173 79.1601L60.8341 78.5383C59.9816 79.612 59.1495 80.6879 58.3377 81.765L59.1362 82.3669ZM64.1557 76.0437C65.0149 75.0153 65.8935 73.9897 66.7918 72.9676L66.0406 72.3075C65.1368 73.3358 64.2528 74.3678 63.3883 75.4026L64.1557 76.0437ZM69.4879 69.9753C70.3952 68.9931 71.3212 68.0149 72.266 67.0415L71.5484 66.345C70.5978 67.3244 69.6662 68.3085 68.7534 69.2967L69.4879 69.9753ZM75.1161 64.177C76.0689 63.2426 77.0397 62.3135 78.0287 61.3901L77.3462 60.6591C76.3512 61.5881 75.3745 62.5229 74.4159 63.463L75.1161 64.177ZM81.0231 58.6624C82.0189 57.7774 83.0321 56.8985 84.0628 56.0262L83.4169 55.2629C82.3799 56.1403 81.3606 57.0246 80.3588 57.9149L81.0231 58.6624ZM87.1918 53.4431C88.228 52.6087 89.2811 51.7811 90.3511 50.9609L89.7427 50.1672C88.6663 50.9923 87.607 51.8248 86.5646 52.6643L87.1918 53.4431ZM93.6042 48.5289C94.6784 47.7459 95.7688 46.9704 96.8756 46.2029L96.3057 45.3811C95.1924 46.1531 94.0956 46.9332 93.0151 47.7209L93.6042 48.5289ZM100.242 43.9273C101.352 43.1962 102.477 42.4733 103.618 41.7588L103.088 40.9112C101.94 41.6298 100.808 42.3569 99.6918 43.0923L100.242 43.9273ZM107.086 39.6436C108.229 38.9647 109.387 38.2943 110.561 37.6329L110.07 36.7618C108.89 37.4269 107.725 38.1011 106.576 38.7838L107.086 39.6436ZM114.119 35.6807C115.293 35.0538 116.482 34.4358 117.685 33.8272L117.234 32.9348C116.024 33.5468 114.828 34.1682 113.648 34.7986L114.119 35.6807ZM121.321 32.0394C122.525 31.464 123.743 30.8978 124.975 30.3412L124.564 29.4298C123.325 29.9894 122.1 30.5586 120.89 31.1372L121.321 32.0394ZM128.676 28.7181C129.908 28.1933 131.154 27.678 132.414 27.1727L132.042 26.2445C130.775 26.7525 129.523 27.2705 128.284 27.7981L128.676 28.7181ZM136.167 25.7131C137.427 25.2379 138.701 24.7725 139.988 24.3173L139.655 23.3745C138.361 23.832 137.081 24.2998 135.814 24.7774L136.167 25.7131ZM143.78 23.0191C145.057 22.5962 146.347 22.1831 147.65 21.7802L147.355 20.8248C146.045 21.2297 144.749 21.6448 143.466 22.0699L143.78 23.0191ZM151.504 20.6293C152.789 20.259 154.087 19.8985 155.397 19.548L155.139 18.582C153.822 18.9341 152.519 19.2963 151.227 19.6684L151.504 20.6293ZM159.328 18.536C160.618 18.2168 161.92 17.9073 163.233 17.6077L163.01 16.6327C161.691 16.9337 160.384 17.2446 159.088 17.5653L159.328 18.536ZM167.208 16.7387C168.511 16.4661 169.825 16.2032 171.151 15.9501L170.963 14.9678C169.632 15.222 168.312 15.4861 167.003 15.7599L167.208 16.7387ZM175.122 15.2274C176.452 14.9971 177.794 14.7765 179.147 14.566L178.993 13.5779C177.635 13.7893 176.287 14.0107 174.951 14.2421L175.122 15.2274ZM183.104 13.9835C184.433 13.7988 185.773 13.6237 187.124 13.4584L187.003 12.4658C185.647 12.6318 184.301 12.8076 182.966 12.993L183.104 13.9835ZM191.154 12.9977C192.475 12.8572 193.806 12.726 195.146 12.6041L195.056 11.6082C193.71 11.7305 192.374 11.8622 191.048 12.0033L191.154 12.9977ZM199.199 12.2671C200.533 12.1663 201.877 12.0747 203.23 11.9926L203.169 10.9944C201.811 11.0769 200.462 11.1688 199.123 11.27L199.199 12.2671ZM207.243 11.7778C208.59 11.7154 209.946 11.6622 211.312 11.6183L211.28 10.6188C209.909 10.6628 208.548 10.7163 207.197 10.7789L207.243 11.7778ZM215.346 11.5165C216.677 11.4921 218.017 11.4764 219.365 11.4696L219.36 10.4697C218.007 10.4764 216.663 10.4921 215.328 10.5167L215.346 11.5165Z" fill="#2D3C58"/>
<path d="M36.9554 194.324L34.083 189.586L30.917 194.414L36.407 195.16L36.9554 194.324ZM137.5 219.5L132.513 216.591L132.487 222.364L137.5 219.5ZM37.2411 195.525C38.315 196.14 39.4694 196.776 40.7014 197.427L41.1686 196.543C39.9462 195.897 38.8019 195.267 37.7383 194.657L37.2411 195.525ZM44.2048 199.213C45.3382 199.771 46.5233 200.337 47.7585 200.907L48.1776 199.999C46.9499 199.432 45.7723 198.871 44.6466 198.316L44.2048 199.213ZM51.3491 202.514C52.5241 203.024 53.7372 203.535 54.9875 204.046L55.3657 203.12C54.1221 202.612 52.9155 202.103 51.7471 201.596L51.3491 202.514ZM58.6346 205.492C59.8325 205.953 61.0601 206.413 62.3167 206.868L62.6576 205.928C61.4072 205.475 60.1857 205.018 58.9939 204.559L58.6346 205.492ZM66.0283 208.174C67.2496 208.591 68.4954 209.003 69.7651 209.411L70.0704 208.458C68.8067 208.053 67.5668 207.643 66.3512 207.228L66.0283 208.174ZM73.5239 210.578C74.7631 210.95 76.0228 211.317 77.3026 211.677L77.5732 210.714C76.2992 210.356 75.0452 209.991 73.8118 209.62L73.5239 210.578ZM81.0994 212.707C82.353 213.036 83.6243 213.357 84.9128 213.67L85.149 212.698C83.8663 212.387 82.6007 212.067 81.3528 211.74L81.0994 212.707ZM88.7416 214.565C90.0075 214.85 91.2887 215.126 92.5849 215.393L92.7868 214.414C91.4964 214.148 90.2209 213.873 88.9607 213.59L88.7416 214.565ZM96.4416 216.153C97.718 216.393 99.0079 216.624 100.311 216.846L100.479 215.86C99.1813 215.639 97.8971 215.409 96.6264 215.17L96.4416 216.153ZM104.192 217.471C105.477 217.666 106.775 217.852 108.084 218.027L108.217 217.036C106.914 216.862 105.622 216.677 104.342 216.482L104.192 217.471ZM111.985 218.516C113.278 218.666 114.582 218.806 115.896 218.936L115.994 217.941C114.686 217.812 113.388 217.672 112.101 217.523L111.985 218.516ZM119.815 219.287C121.114 219.391 122.423 219.485 123.741 219.568L123.804 218.57C122.492 218.488 121.189 218.394 119.895 218.29L119.815 219.287ZM127.669 219.779C128.97 219.838 130.278 219.885 131.595 219.92L131.622 218.921C130.311 218.885 129.009 218.838 127.714 218.78L127.669 219.779Z" fill="#2D3C58"/>
</svg>
