<svg width="235" height="277" viewBox="0 0 235 277" fill="none" xmlns="http://www.w3.org/2000/svg">
<path d="M156.033 211.747C148.008 212.305 141.66 219.212 133.715 220.511C125.246 221.901 117.233 216.704 110.223 211.747C127.013 212.533 143.882 211.781 160.524 209.479L156.033 211.747Z" fill="white"/>
<path d="M95.7585 256.949C93.8892 256.744 91.7691 256.288 90.88 254.635C90.0594 253.119 90.7091 251.148 91.9287 249.917C93.1483 248.697 94.8125 248.059 96.431 247.444C97.8672 246.908 105.288 251.205 107.054 251.809C110.941 253.131 114.965 253.963 118.863 255.114C113.118 260.003 102.62 257.69 95.7585 256.949Z" fill="white"/>
<path d="M178.214 252.856C176.014 257.335 171.842 260.812 167.032 262.145C162.222 263.478 156.853 262.669 152.659 259.957C159.384 257.233 166.109 254.509 172.845 251.785L178.214 252.856Z" fill="white"/>
<path d="M147.256 264.447C154.369 261.404 162.154 258.406 176.915 252.468C181.178 250.725 181.292 244.684 177.051 242.792C150.402 230.905 122.111 217.935 94.7555 201.763C85.0898 196.053 75.6406 185.442 65.2225 180.348C54.8158 175.253 40.0778 174.923 32.0534 184.132C23.8124 193.58 26.6164 208.578 34.0937 217.628C41.5596 226.654 52.3538 231.486 63.6951 236.022C90.504 246.747 118.658 256.229 143.495 264.595C144.726 265.005 146.059 264.959 147.256 264.447ZM63.9801 182.912C73.8966 187.767 83.4826 198.424 93.3079 204.225C120.789 220.477 149.171 233.481 175.889 245.402C176.801 245.812 177.325 246.644 177.314 247.636C177.302 248.628 176.744 249.448 175.82 249.824L175.718 249.87C171.956 251.397 168.104 252.924 164.262 254.451C158.689 256.662 151.656 259.455 146.139 261.814C145.592 262.042 144.988 262.076 144.429 261.882C119.627 253.528 91.5184 244.057 64.778 233.367C53.79 228.968 43.3491 224.318 36.3164 215.804C29.6028 207.678 26.9926 194.309 34.2305 186.001C41.229 177.966 54.4055 178.228 63.9801 182.912Z" fill="white"/>
<path d="M177.872 245.824C192.382 242.826 207.268 236.33 219.795 227.543C223.636 224.842 228.446 221.104 231.615 216.066C234.955 210.744 235.889 204.567 234.123 199.541C231.125 191.004 221.562 187.357 213.936 187.505C205.718 187.699 198.036 191.346 191.254 194.56C174.612 202.447 147.484 213.73 130.785 221.639C130.067 221.981 129.771 222.825 130.102 223.543C130.444 224.261 131.287 224.557 132.005 224.227C148.59 216.363 175.809 205.045 192.473 197.147C199.004 194.059 206.402 190.548 214.005 190.366C220.878 190.206 229.016 193.626 231.433 200.498C232.914 204.715 232.082 209.969 229.199 214.562C226.303 219.166 221.778 222.677 218.154 225.218C205.935 233.789 191.425 240.114 177.291 243.043C176.516 243.203 176.025 243.955 176.185 244.73C176.345 245.493 177.108 245.983 177.872 245.824Z" fill="white"/>
<path d="M201.079 193.022C203.575 191.563 212.318 189.546 211.657 183.813C208.602 157.988 210.175 134.259 201.694 108.513C201.444 107.761 200.646 107.362 199.894 107.602C199.141 107.852 198.742 108.65 198.982 109.402C207.314 134.715 205.752 158.204 208.818 184.144C209.183 187.324 202.093 189.125 199.643 190.549C198.959 190.948 198.731 191.826 199.13 192.498C199.529 193.193 200.406 193.421 201.079 193.022Z" fill="white"/>
<path d="M197.226 104.011C197.773 103.441 197.762 102.541 197.192 101.994C194.764 99.6458 191.584 96.9903 190.251 96.2039L152.875 74.8345C152.784 74.7775 152.67 74.7091 151.519 74.0481C151.473 74.0253 151.257 73.8999 151.223 73.8771L149.798 73.0565C149.114 72.669 148.248 72.9084 147.849 73.5922C147.461 74.276 147.701 75.1536 148.385 75.5411L149.855 76.3845C150.037 76.4871 149.969 76.4415 150.106 76.5326C151.736 77.4672 151.246 77.1937 151.451 77.319C151.451 77.319 151.462 77.319 151.462 77.3304L188.803 98.6543C189.806 99.2583 192.77 101.697 195.209 104.045C195.767 104.592 196.668 104.569 197.226 104.011Z" fill="white"/>
<path d="M69.3258 129.255C70.1579 120.799 69.2916 114.77 70.1351 104.66C70.3858 101.617 71.3205 98.3008 79.5045 94.1295C81.18 93.2861 82.9126 92.4313 84.6793 91.5766C85.386 91.2346 85.6824 90.3799 85.3404 89.6733C84.9985 88.9666 84.1436 88.6703 83.4369 89.0122C81.6474 89.8784 79.9148 90.7446 78.2165 91.5879C69.1662 96.1923 67.616 100.478 67.2855 104.421C66.442 114.587 67.2969 120.776 66.4876 128.97C66.4078 129.757 66.9891 130.452 67.7642 130.532C68.5393 130.611 69.246 130.042 69.3258 129.255Z" fill="white"/>
<path d="M90.3671 88.8763C100.626 84.0667 112.411 78.8241 121.861 73.4219L122.579 73.0116C123.263 72.6127 123.479 71.7352 123.08 71.0513C122.681 70.3675 121.804 70.151 121.12 70.5499L120.424 70.9488C111.26 76.2028 99.4857 81.4454 89.1475 86.2892C88.4294 86.6197 88.1216 87.4745 88.4636 88.1925C88.7941 88.9105 89.649 89.2182 90.3671 88.8763Z" fill="white"/>
<path d="M149.593 75.5176C150.117 74.9363 150.072 74.0246 149.49 73.5003C148.909 72.9761 148.009 73.0216 147.473 73.6029C144.578 76.8055 139.722 78.629 135.094 78.2415C130.478 77.8654 126.021 75.2897 123.753 71.6768C123.331 71.0044 122.454 70.8106 121.781 71.2323C121.109 71.654 120.915 72.5316 121.337 73.204C124.106 77.6146 129.293 80.6463 134.855 81.1021C140.565 81.5466 146.151 79.3242 149.593 75.5176Z" fill="white"/>
<path d="M147.632 70.9603C148.419 70.9147 149.023 70.2423 148.977 69.4559C148.818 66.4357 148.704 63.9967 148.601 61.5806C148.453 58.0703 148.305 54.7537 147.997 49.796C149.604 48.964 151.166 47.9155 152.237 46.0236C153.229 44.2799 153.434 41.5104 152.693 39.7211C152.135 38.3648 151.2 37.8519 150.527 37.6696C149.125 37.2821 147.78 37.7494 146.709 38.1369L146.481 38.2166C135.482 42.0461 126.431 31.0707 123.057 26.17C122.465 25.3038 121.143 25.3608 120.63 26.2954C118.908 29.4409 116.287 31.9711 115.466 35.9372C113.585 45.0435 114.794 59.3695 122.465 64.5324C126.5 67.2449 132.529 66.7434 135.231 62.6063C135.664 61.9453 135.47 61.0563 134.809 60.6346C134.148 60.2015 133.259 60.3953 132.837 61.0563C131.036 63.8258 126.785 64.0081 124.06 62.1732C121.484 60.4409 119.627 57.2383 118.521 52.6453C117.256 47.4027 117.164 41.8181 118.259 36.5185C118.806 33.9086 120.47 31.8799 121.986 29.5663C129.668 39.7666 138.855 43.8924 147.427 40.9063C148.214 40.6328 149.16 40.2453 149.764 40.4163C149.855 40.4391 149.969 40.5986 150.06 40.8152C150.459 41.7953 150.322 43.6416 149.764 44.6218C148.977 46.0008 147.803 46.753 145.9 47.6648C145.375 47.9155 145.056 48.4626 145.09 49.0438C145.683 58.264 145.694 61.7059 146.128 69.6155C146.173 70.3563 146.789 70.9831 147.632 70.9603Z" fill="white"/>
<path d="M139.357 60.3267C141.489 59.0388 142.982 57.8079 144.076 55.0385C144.361 54.309 144.008 53.4771 143.267 53.1921C142.537 52.9072 141.705 53.2605 141.42 54.0013C140.611 56.0642 139.574 56.8734 137.864 57.9105C137.191 58.3208 136.986 59.1984 137.397 59.8708C137.807 60.5432 138.685 60.737 139.357 60.3267Z" fill="white"/>
<path d="M123.707 50.5249C123.411 49.8525 122.647 49.522 121.963 49.7499C121.268 49.1459 122.237 47.6984 122.727 46.9006C123.456 45.7153 124.163 44.2907 123.867 42.7179C123.719 41.9429 122.978 41.4301 122.203 41.5782C121.428 41.7264 120.915 42.4672 121.063 43.2422C121.177 43.8576 120.744 44.6896 120.299 45.4076C119.558 46.6157 118.84 47.801 118.863 49.294C118.886 50.4451 119.513 51.5734 120.47 52.1889C122.225 53.3058 124.425 52.1319 123.707 50.5249Z" fill="white"/>
<path d="M125.474 69.3873C125.656 67.8487 125.816 66.88 126.021 65.2616C126.112 64.4752 125.565 63.7686 124.779 63.666C123.981 63.5748 123.285 64.1333 123.183 64.9083C123 66.4469 122.841 67.4156 122.636 69.034C122.544 69.8204 123.092 70.527 123.878 70.6296C124.71 70.7208 125.383 70.1395 125.474 69.3873Z" fill="white"/>
<path d="M128.985 56.0188C129.441 55.3805 129.292 54.4916 128.654 54.0243C128.016 53.5684 127.115 53.7166 126.659 54.3548C126.078 55.164 124.95 55.6085 123.981 55.4261C123.206 55.278 122.453 55.7794 122.305 56.5544C122.157 57.3294 122.659 58.0816 123.434 58.2298C125.542 58.6287 127.754 57.7283 128.985 56.0188Z" fill="white"/>
<path d="M82.4112 141.943C82.8671 141.293 82.7075 140.404 82.0692 139.96C70.7165 131.982 61.2445 122.34 51.3507 108.698C50.8378 107.991 49.7322 107.855 49.0939 108.63C44.2952 114.476 44.4434 115.73 34.6066 123.936C34.4128 124.095 31.3011 126.945 31.1643 127.07C27.7562 130.193 28.3831 129.714 28.0412 129.988L28.0526 129.999C27.3801 130.717 27.4143 130.911 27.4941 131.355C27.5853 131.868 27.9386 132.29 28.4287 132.461C29.238 132.746 29.4432 132.563 31.0276 131.15C31.1415 131.048 31.2327 130.934 31.3125 130.808C33.1362 129.121 36.1454 126.375 36.4303 126.124C45.1045 118.898 46.0163 117.166 50.1539 111.878C59.8425 124.984 69.2347 134.41 80.4393 142.285C81.0662 142.752 81.9552 142.593 82.4112 141.943Z" fill="white"/>
<path d="M80.0631 184.428C80.3367 183.688 79.9605 182.867 79.2196 182.593C73.8966 180.633 58.885 171.196 55.2034 167.082C50.5187 161.862 46.2215 156.152 42.4259 150.112C38.5048 143.866 34.7662 137.461 32.0762 132.572C31.6316 131.74 30.8566 131.546 30.2069 131.808C29.466 132.105 28.9986 133.016 29.5799 133.985C29.5913 134.008 29.6141 134.042 29.6369 134.065C30.4462 135.524 31.2669 136.994 32.099 138.441C34.6294 142.875 37.2966 147.308 40.0094 151.628C43.8962 157.805 48.296 163.64 53.0833 168.985C57.0613 173.419 72.5402 183.175 78.2394 185.272C78.9575 185.545 79.7781 185.181 80.0631 184.428ZM32.0306 132.538C32.0306 132.538 32.042 132.572 32.0534 132.606C32.0534 132.583 32.042 132.56 32.0306 132.538Z" fill="white"/>
<path d="M102.712 267.661C108.832 265.325 114.064 260.994 118.681 257.165C119.285 256.663 119.376 255.763 118.863 255.159C118.361 254.555 117.461 254.463 116.857 254.976C112.195 258.84 107.373 262.84 101.697 265.006C96.9668 266.806 90.1164 267.467 85.1011 263.877C83.6535 262.84 82.2059 261.131 82.5137 259.421C82.7303 258.202 83.8587 257.119 84.9415 256.23C88.9652 252.879 93.5245 250.338 98.4941 248.685C99.2464 248.434 99.6454 247.625 99.3946 246.884C99.1438 246.132 98.3346 245.733 97.5937 245.984C92.2821 247.751 87.415 250.463 83.1178 254.042C81.6474 255.261 80.0973 256.8 79.7097 258.92C78.5585 265.222 89.3185 272.767 102.712 267.661Z" fill="white"/>
<path d="M187.253 276.598C188.906 276.598 190.581 276.382 192.211 275.823C196.36 274.376 199.631 270.353 199.084 266.079C198.674 262.853 196.315 260.392 193.75 258.374C188.746 254.442 182.819 251.49 176.618 249.827C175.855 249.621 175.068 250.077 174.874 250.841C174.669 251.604 175.125 252.391 175.889 252.585C181.713 254.146 187.287 256.915 191.995 260.619C193.875 262.101 195.961 264.073 196.258 266.443C196.634 269.35 194.115 272.142 191.277 273.133C188.062 274.239 184.403 273.658 181.246 272.94C180.71 272.814 180.175 272.689 179.627 272.541C172.663 270.763 166.029 267.914 159.908 264.061C157.743 262.705 155.611 261.189 153.571 259.548C152.955 259.058 152.055 259.161 151.565 259.776C151.075 260.392 151.177 261.292 151.793 261.782C153.924 263.48 156.136 265.064 158.392 266.478C164.775 270.489 171.671 273.464 178.898 275.299C179.445 275.458 180.026 275.595 180.608 275.732C182.659 276.176 184.939 276.598 187.253 276.598Z" fill="white"/>
<path d="M169.802 137.621L170.076 132.037C170.11 131.25 169.506 130.578 168.719 130.544C167.933 130.521 167.26 131.113 167.226 131.9L166.953 137.484C166.918 138.271 167.522 138.943 168.309 138.977C169.141 139.012 169.768 138.385 169.802 137.621Z" fill="white"/>
<path d="M138.138 244.649C139.676 244.649 140.121 242.541 138.719 241.914C102.529 225.901 84.7821 214.823 50.6327 195.038C49.9488 194.65 49.0825 194.878 48.6836 195.562C48.2846 196.246 48.524 197.112 49.2079 197.511C83.5283 217.399 101.264 228.454 137.568 244.524C137.75 244.615 137.944 244.649 138.138 244.649Z" fill="white"/>
<path d="M176.641 235.054C188.666 228.865 200.521 221.982 211.839 214.596C212.5 214.163 212.683 213.286 212.261 212.625C211.828 211.964 210.939 211.781 210.289 212.203C199.039 219.531 187.287 226.37 175.342 232.513C174.646 232.877 174.361 233.732 174.726 234.439C175.08 235.145 175.934 235.419 176.641 235.054Z" fill="white"/>
<path d="M143.745 254.874C144.156 254.201 143.95 253.324 143.278 252.913C142.605 252.503 141.728 252.708 141.317 253.381C140.827 254.167 139.619 254.532 138.776 254.133C137.932 253.734 137.453 252.572 137.761 251.694C138.217 250.395 136.758 249.278 135.63 250.03C134.809 250.577 133.886 251.181 133.019 251.238C132.472 251.284 131.891 250.919 131.868 250.634C131.823 250.076 131.446 249.586 130.922 249.403L106.017 240.696C105.276 240.434 104.455 240.833 104.193 241.573C103.931 242.314 104.33 243.135 105.071 243.397L129.269 251.865C129.988 253.54 132.279 254.794 135.026 253.666C136.234 257.871 141.648 258.259 143.745 254.874Z" fill="white"/>
<path d="M58.1439 221.708C58.3377 220.944 57.8704 220.169 57.1067 219.975C53.7898 219.155 51.02 216.362 50.2221 213.046C50.0397 212.282 49.2646 211.815 48.5009 211.997C47.7373 212.18 47.2585 212.955 47.4523 213.718C48.4896 218.049 52.1028 221.674 56.4228 222.745C57.1751 222.939 57.9502 222.483 58.1439 221.708Z" fill="white"/>
<path d="M150.357 226.713C151.371 224.696 153.89 223.545 156.079 224.08C156.66 224.217 157.264 223.989 157.606 223.499C158.461 222.234 160.672 222.052 162.496 221.698C165.357 221.14 168.298 219.18 167.978 216.194C167.899 215.407 167.192 214.837 166.405 214.929C165.619 215.008 165.049 215.715 165.14 216.501C165.266 217.698 163.351 218.621 161.949 218.895C159.886 219.294 157.492 219.533 155.862 221.151C152.625 220.775 149.285 222.496 147.803 225.425C147.45 226.132 147.735 226.987 148.43 227.34C149.148 227.705 150.003 227.42 150.357 226.713Z" fill="white"/>
<path d="M94.4477 134.191L94.6757 127.079C94.6985 126.293 94.0829 125.632 93.2965 125.609C92.567 125.563 91.8489 126.167 91.8261 126.988L91.5981 134.1C91.5753 134.886 92.1908 135.547 92.9773 135.57C93.7068 135.615 94.4249 135.011 94.4477 134.191Z" fill="white"/>
<path d="M88.3155 100.957C90.8915 98.8602 93.4219 96.9797 96.1575 96.9797C96.1575 96.9797 96.1575 96.9797 96.1689 96.9797C97.001 96.9797 97.9698 97.1392 99.0185 96.8201C100.398 96.4098 101.264 95.3841 102.085 94.7458C103.635 93.5605 105.869 93.2186 108 92.3752C110.497 91.3951 113.152 89.2525 113.095 86.2095C113.084 85.4345 112.446 84.8076 111.671 84.8076C111.659 84.8076 111.648 84.8076 111.648 84.8076C110.861 84.819 110.234 85.4687 110.246 86.255C110.269 87.8392 108.49 89.1043 106.963 89.7083C104.341 90.7341 102.221 90.8025 99.577 93.1274C98.3916 94.1646 98.2548 94.1988 96.8984 94.1304C92.7722 93.9594 89.9796 95.9083 86.5145 98.7234C85.899 99.2249 85.8078 100.125 86.3094 100.729C86.7995 101.368 87.7 101.459 88.3155 100.957Z" fill="white"/>
<path d="M65.8152 158.329C66.3281 157.736 66.2597 156.825 65.667 156.312C58.771 150.374 53.0719 142.886 49.185 134.657C48.8431 133.939 47.9996 133.643 47.2815 133.974C46.5634 134.316 46.2671 135.159 46.5976 135.877C50.6554 144.459 56.6053 152.277 63.7977 158.477C64.4018 158.99 65.3136 158.922 65.8152 158.329Z" fill="white"/>
<path d="M54.2687 158.044C54.6677 158.044 55.0666 157.885 55.3402 157.554C55.8531 156.962 55.7961 156.061 55.2034 155.537L53.3683 153.93C52.7756 153.406 51.8751 153.474 51.3508 154.067C50.8378 154.66 50.8948 155.56 51.4875 156.084L53.3227 157.691C53.5962 157.931 53.9382 158.044 54.2687 158.044Z" fill="white"/>
<path d="M184.061 112.719C184.346 111.99 183.993 111.158 183.252 110.861C182.522 110.576 181.69 110.93 181.394 111.67C181.189 112.183 180.63 112.377 180.402 112.445C178.328 113.015 177.462 110.462 178.465 108.935C179.183 107.841 178.168 106.416 176.892 106.77C172.994 107.864 172.572 107.032 171.466 105.208C170.919 104.331 170.201 103.362 169.095 102.849C167.739 102.222 165.778 102.507 164.98 104.057C164.616 104.752 164.889 105.619 165.585 105.983C166.28 106.348 167.146 106.075 167.511 105.379C167.522 105.391 167.739 105.368 167.91 105.448C169.528 106.189 169.722 110.679 175.205 110.064C175.102 111.727 175.752 113.403 177.051 114.429C179.297 116.207 183.013 115.397 184.061 112.719Z" fill="white"/>
<path d="M187.504 268.756C188.279 268.631 188.814 267.901 188.689 267.126C188.564 266.351 187.834 265.816 187.059 265.941C185.634 266.169 184.13 265.975 182.796 265.394C182.078 265.075 181.235 265.405 180.915 266.135C180.596 266.853 180.927 267.696 181.656 268.015C183.491 268.813 185.577 269.064 187.504 268.756Z" fill="white"/>
<path d="M74.0562 140.95C112.822 139.251 152.135 137.599 191.584 135.866C192.439 135.832 193.123 136.539 193.066 137.382C191.675 159.869 191.106 176.52 188.404 197.866C188.347 198.345 188.039 198.767 187.606 198.972C182.979 201.206 177.975 203.542 170.68 206.973C168.229 208.135 165.596 209.936 162.724 210.471C159.908 210.996 156.854 210.813 154.141 210.984C141.295 211.748 128.267 212.17 115.409 212.227C114.782 212.227 114.098 212.284 113.38 212.329C112.571 212.386 111.75 212.443 110.93 212.443C110.132 212.443 109.334 212.386 108.548 212.215C105.789 211.6 103.122 209.776 100.831 208.522C92.1909 203.781 87.0047 199.553 84.782 198.003C79.9263 194.63 79.4704 193.399 79.1398 188.942C79.1056 188.43 79.06 187.928 79.0031 187.484C76.9628 172.565 74.9225 158.98 72.6998 142.568C72.5858 141.736 73.2127 140.984 74.0562 140.95ZM133.92 181.967C139.574 181.933 144.144 179.198 144.122 175.859C144.099 172.519 139.505 169.841 133.852 169.875C128.198 169.909 123.627 172.645 123.65 175.984C123.662 179.323 128.267 182.002 133.92 181.967ZM94.8581 184.851C94.8695 185.364 95.2913 185.774 95.8042 185.774C96.3399 185.774 96.773 185.33 96.7502 184.794C96.4767 176.349 97.0694 167.858 98.5056 159.527C98.5968 159.014 98.2434 158.512 97.7305 158.421C97.2062 158.33 96.716 158.683 96.6249 159.196C95.1773 167.653 94.5732 176.28 94.8581 184.851Z" fill="white"/>
<path d="M30.6628 127.97C31.2556 127.457 31.3239 126.556 30.811 125.952L30.2867 125.348C28.349 123.069 25.9325 120.231 22.6726 120.026C22.1255 119.992 21.5898 119.992 21.0199 120.003C20.108 120.003 20.7691 120.003 19.5951 120.003C15.8108 119.855 12.038 119.217 8.42473 118.1C7.58125 117.838 6.48702 117.484 5.51816 117.006C5.36998 116.926 4.92545 116.709 5.09643 116.083C5.19901 115.706 5.58655 115.091 6.46422 115.114C6.90876 115.125 7.3305 115.182 7.71804 115.228C9.3594 115.49 10.9893 115.752 12.6307 116.014C17.3268 116.755 17.1216 116.732 17.2812 116.755C18.1475 116.892 18.991 117.029 19.8572 117.165C20.6323 117.291 21.3618 116.755 21.4872 115.969C21.6012 115.194 21.0655 114.464 20.2904 114.339C19.4355 114.213 18.592 114.077 17.7371 113.928C17.6346 113.917 17.2128 113.837 13.0752 113.188C11.4453 112.926 9.80393 112.675 8.17397 112.401C8.15118 112.401 8.07138 112.39 8.04858 112.39C7.59265 112.333 7.07973 112.276 6.57821 112.265C4.5721 112.162 2.82816 113.438 2.32663 115.365C1.8821 117.085 2.64579 118.784 4.24155 119.57C5.39278 120.14 6.6352 120.55 7.58126 120.835C11.4225 122.02 15.4461 122.704 19.5381 122.864H20.0054C20.7349 122.887 21.7266 122.841 22.4903 122.887C24.7927 123.035 26.9926 125.884 28.6453 127.833C28.9303 128.141 30.0587 128.483 30.6628 127.97Z" fill="white"/>
<path d="M4.7657 114.886C5.33561 114.886 5.87136 114.544 6.09932 113.986C6.38428 113.256 6.03092 112.424 5.29003 112.128C4.67452 111.889 3.56888 110.886 3.29532 110.008C3.19274 109.655 3.28393 109.518 3.32952 109.461C3.77406 108.812 4.60613 108.481 6.03092 108.356C7.23914 108.253 8.70952 108.401 10.1571 108.755C12.0264 109.21 13.8388 109.609 16.8479 110.293C17.623 110.475 18.3867 109.985 18.5577 109.222C18.7286 108.447 18.2499 107.683 17.4862 107.512C14.7848 106.908 12.6875 106.441 10.841 105.985C9.09706 105.563 7.30753 105.392 5.80295 105.518C4.33257 105.632 2.23529 106.008 0.970079 107.854C0.377367 108.732 0.240587 109.769 0.571138 110.852C1.11826 112.618 2.86219 114.236 4.24139 114.784C4.41236 114.852 4.59472 114.886 4.7657 114.886Z" fill="white"/>
<path d="M4.08193 108.446C4.74304 108.446 5.33577 107.979 5.47255 107.306C5.63213 106.531 5.13058 105.779 4.36689 105.619C3.83117 105.505 3.72859 104.913 3.71719 104.571C3.6944 103.83 4.03636 103.329 4.18453 103.283C4.76585 103.123 5.91708 102.998 8.20815 103.34C10.3054 103.67 12.3913 103.99 14.5 104.309C15.2751 104.423 16.0046 103.887 16.13 103.112C16.244 102.337 15.7082 101.608 14.9332 101.482C12.8359 101.163 10.7386 100.844 8.64126 100.514C6.3616 100.172 4.66327 100.183 3.42085 100.525C1.85928 100.958 0.799224 102.656 0.867614 104.651C0.936004 106.577 2.07585 108.047 3.78559 108.4C3.88818 108.434 3.99075 108.446 4.08193 108.446Z" fill="white"/>
<path d="M5.26733 102.768C5.60928 102.768 5.95122 102.643 6.22478 102.392C6.8061 101.857 6.85169 100.956 6.31597 100.375C5.95123 99.9762 5.97402 99.6685 6.03102 99.4291C6.22479 98.6769 7.18225 97.7993 8.1739 97.446C9.23395 97.3093 16.0273 97.4118 17.9081 97.56C18.6945 97.617 19.3784 97.0357 19.4468 96.2494C19.5038 95.463 18.9225 94.7791 18.136 94.7108C17.19 94.631 8.48166 94.3346 7.35323 94.7108C5.74607 95.235 3.78555 96.7166 3.27263 98.6997C2.93068 99.9876 3.26122 101.264 4.20728 102.301C4.49224 102.609 4.87979 102.768 5.26733 102.768Z" fill="white"/>
<path d="M39.2799 117.779C39.8156 117.198 39.7814 116.298 39.2001 115.762C37.4789 114.178 36.6127 111.876 35.7008 109.425C34.2646 105.596 32.5093 101.732 28.5085 100.262C27.323 99.8518 25.9552 99.8404 25.0548 99.7834C24.2113 99.7492 23.345 99.715 22.7523 99.5782C21.6923 99.3275 20.4727 98.7576 20.2447 97.9029C20.0851 97.3102 20.6436 95.954 21.4871 95.2702C21.6353 95.1448 21.9202 94.9624 22.4218 94.7915C23.3336 94.4496 24.4393 94.3014 25.3967 94.176C29.8193 93.6176 34.5838 95.3955 38.425 99.0768C41.9015 102.405 44.3521 106.872 46.7914 111.112C47.1903 111.796 48.0566 112.024 48.7405 111.636C49.4244 111.237 49.6524 110.371 49.2648 109.687C46.666 105.163 44.1584 100.615 40.4083 97.0139C35.9288 92.74 30.3322 90.6772 25.0434 91.3496C23.9264 91.4863 22.6383 91.6801 21.4643 92.1132C20.769 92.3525 20.1649 92.683 19.6862 93.0591C18.1816 94.2672 16.9506 96.6948 17.4863 98.6437C17.9536 100.422 19.6406 101.778 22.1026 102.359C22.9575 102.553 23.9605 102.598 24.9294 102.633C25.5791 102.667 26.7873 102.69 27.5396 102.952C30.5146 104.046 31.928 107.499 33.0222 110.428C34.0139 113.072 35.0283 115.808 37.251 117.859C37.8437 118.395 38.7442 118.361 39.2799 117.779Z" fill="white"/>
<path d="M217.698 247.74C218.484 247.74 219.122 247.113 219.122 246.326C219.122 245.54 218.495 244.89 217.709 244.89L179.331 244.605C178.567 244.605 177.895 245.232 177.895 246.019C177.895 246.805 178.522 247.455 179.308 247.455L217.698 247.74Z" fill="white"/>
<path d="M92.5784 248.024C93.3649 248.024 94.0032 247.386 94.0032 246.6C94.0032 245.813 93.3763 245.175 92.5784 245.164C92.4188 245.164 39.7358 244.879 39.8384 244.879C39.0519 244.879 38.4136 245.517 38.4136 246.304C38.4136 247.09 39.0405 247.728 39.8384 247.74L92.5784 248.024Z" fill="white"/>
<path d="M108.057 10.5553C106.815 8.36703 107.214 5.30123 110.656 2.77109C113.916 0.366318 118.213 -0.545444 122.168 0.320731C126.773 1.32367 128.688 3.87661 131.298 7.48947C132.564 9.23321 133.669 9.06225 135.675 8.76593C137.18 8.53799 139.049 8.26446 140.998 9.14204C143.928 10.4755 143.916 13.7236 146.173 14.2821C147.803 14.681 149.912 14.681 151.69 15.9119C154.038 17.553 154.676 20.5619 155.098 23.2402C155.999 29.0868 156.945 35.1273 156.09 41.2361C155.486 45.5669 154.312 47.0714 152.146 49.043C151.439 49.6813 150.778 50.2967 150.334 51.0147C149.239 52.7585 148.658 56.0408 148.635 58.3772C148.624 59.1522 147.997 59.7904 147.211 59.7904C146.515 59.7904 145.911 59.289 145.797 58.5937C145.626 57.5452 145.512 56.2688 145.398 55.0379C145.284 53.8526 145.182 52.6331 145.022 51.6758C144.874 50.7754 144.635 49.271 145.432 47.9831C146.253 46.6611 147.666 46.3192 148.613 45.8975C150.847 44.8831 151.553 42.41 150.47 40.9739C149.73 39.9938 149.16 40.1989 147.587 40.7802C146.709 41.0993 145.717 41.464 144.635 41.464C141.58 41.4754 138.103 41.4982 134.878 40.4041C131.732 39.3328 127.651 36.814 125.622 33.5773C122.909 29.2464 121.587 29.5313 116.481 31.6398C110.212 34.2269 105.629 25.8387 110.371 21.9295C108.81 21.0975 107.248 19.8211 106.393 17.8608C105.253 15.3192 106.074 12.1394 108.057 10.5553ZM149.011 27.024C149.285 27.8901 149.331 28.8247 149.148 29.7137C149.023 30.3063 149.479 30.8648 150.083 30.8648C150.527 30.8648 150.915 30.5571 151.018 30.1126C151.268 28.9045 151.211 27.6394 150.835 26.4541C150.676 25.9526 150.14 25.6791 149.638 25.8387C149.125 25.9868 148.852 26.5225 149.011 27.024ZM112.4 18.4648C112.89 18.4648 113.312 18.0887 113.346 17.5872C113.654 13.5869 116.31 9.76886 119.957 8.10489C120.436 7.88835 120.641 7.3185 120.424 6.83983C120.208 6.36115 119.638 6.15601 119.159 6.37255C114.839 8.35563 111.807 12.6979 111.443 17.4391C111.408 17.9861 111.842 18.4648 112.4 18.4648Z" fill="#202B3F"/>
</svg>
