<svg width="461" height="385" viewBox="0 0 461 385" fill="none" xmlns="http://www.w3.org/2000/svg">
<path d="M322.11 385C308.416 385 295.112 383.044 282.2 379.131C201.596 355.264 166.773 265.274 162.469 252.754C102.212 98.2064 62.6923 96.25 61.1272 96.25C34.9115 97.4238 -9.30304 180.762 -28.0845 248.841L-31.7533 261.971C-33.8334 269.416 -41.552 273.767 -48.9984 271.693L-114.749 253.384C-122.205 251.308 -126.563 243.578 -124.48 236.125L-120.818 223.019C-110.644 186.631 -55.0828 5.8689 56.0406 0H61.5185C133.905 0 194.554 69.2531 252.463 218.323L252.854 219.497C258.332 235.539 279.461 277.403 309.589 286.402C313.502 287.576 317.415 287.967 321.719 287.967C339.327 287.967 361.239 277.795 385.498 259.014L395.997 250.807C402.085 246.047 410.88 247.118 415.646 253.202L458.018 307.28C462.725 313.286 461.756 321.953 455.841 326.773L445.363 335.31C403.497 368.176 362.021 385 322.11 385Z" fill="url(#paint0_linear_308_2810)" fill-opacity="0.6"/>
<defs>
<linearGradient id="paint0_linear_308_2810" x1="340.303" y1="288.483" x2="114.643" y2="-76.3617" gradientUnits="userSpaceOnUse">
<stop stop-color="#EFF1FF"/>
<stop offset="1" stop-color="#EFE7FA"/>
</linearGradient>
</defs>
</svg>
