<svg width="439" height="389" viewBox="0 0 439 389" fill="none" xmlns="http://www.w3.org/2000/svg">
<path d="M400.925 389C387.114 389 373.697 387.023 360.674 383.07C279.383 358.955 244.262 268.031 239.921 255.38C179.15 99.2267 139.294 97.25 137.715 97.25C111.276 98.436 66.6841 182.64 47.7424 251.427L44.0423 264.693C41.9444 272.215 34.16 276.612 26.65 274.516L-39.6614 256.017C-47.1807 253.919 -51.5759 246.109 -49.4753 238.578L-45.7823 225.336C-35.5217 188.57 20.5138 5.92988 132.585 0H138.11C211.114 0 272.28 69.9726 330.683 220.591L331.078 221.778C336.602 237.986 357.912 280.286 388.297 289.378C392.244 290.564 396.19 290.959 400.531 290.959C418.288 290.959 440.387 280.681 464.853 261.705L475.442 253.412C481.583 248.603 490.452 249.686 495.259 255.833L537.993 310.473C542.74 316.541 541.763 325.298 535.797 330.169L525.23 338.794C483.006 372.001 441.177 389 400.925 389Z" fill="url(#paint0_linear_308_2820)" fill-opacity="0.6"/>
<defs>
<linearGradient id="paint0_linear_308_2820" x1="419.273" y1="291.481" x2="191.082" y2="-76.7795" gradientUnits="userSpaceOnUse">
<stop stop-color="#EFF1FF"/>
<stop offset="1" stop-color="#EFE7FA"/>
</linearGradient>
</defs>
</svg>
