<svg width="1917" height="1006" viewBox="0 0 1917 1006" fill="none" xmlns="http://www.w3.org/2000/svg">
<mask id="mask0_210_1987" style="mask-type:alpha" maskUnits="userSpaceOnUse" x="-7" y="0" width="1920" height="998">
<rect x="-7" width="1920" height="998" fill="url(#paint0_linear_210_1987)"/>
</mask>
<g mask="url(#mask0_210_1987)">
<path d="M1523.7 247.494C1238.45 228.76 1503.08 -11.1299 1671.06 -128.733L2167.72 158.017C2155.34 244.787 2108.98 441.761 2022.53 535.494C1914.47 652.661 1704.97 597.525 1792.72 445.537C1838.28 366.633 1880.26 270.912 1523.7 247.494Z" fill="url(#paint1_linear_210_1987)"/>
<path d="M694.952 529.791C1156.55 438.037 837.94 932.286 620.932 1190.88L-291.083 946.506C-308.375 803.245 -318.574 470.25 -221.039 284.352C-99.1196 51.9804 257.533 50.3924 182.751 329.483C143.928 474.374 117.948 644.484 694.952 529.791Z" fill="url(#paint2_linear_210_1987)"/>
<mask id="mask1_210_1987" style="mask-type:alpha" maskUnits="userSpaceOnUse" x="0" y="-447" width="1920" height="1356">
<rect x="1920" y="-447" width="1355.29" height="1920" rx="20" transform="rotate(90 1920 -447)" fill="url(#paint3_linear_210_1987)"/>
</mask>
<g mask="url(#mask1_210_1987)">
<mask id="mask2_210_1987" style="mask-type:luminance" maskUnits="userSpaceOnUse" x="-135" y="-433" width="2252" height="1353">
<path d="M-134 -433L2116.49 -433L2116.49 919.068L-134 919.067L-134 -433Z" fill="white"/>
</mask>
<g mask="url(#mask2_210_1987)">
<path d="M-433.046 745.012C-382.771 602.594 -330.829 455.309 -238.784 330.242C-139.583 195.441 1.02828 106.34 157.122 79.3438C196.911 72.4482 238.095 69.023 280.809 69.023C397.61 69.023 525.978 94.8024 669.829 146.857C757.553 178.631 842.802 219.463 925.215 258.943C990.614 290.266 1058.26 322.716 1126.72 350.388C1163.81 365.396 1212.06 382.522 1257.34 382.522C1257.79 382.522 1258.24 382.522 1258.69 382.522C1281.29 382.342 1301.95 377.835 1320.13 369.092C1340.29 359.402 1358.3 344.124 1373.6 323.617C1404.3 282.515 1424.73 233.57 1444.49 186.202C1447.64 178.676 1450.88 170.879 1454.12 163.307C1480.95 100.166 1511.38 28.5963 1547.93 -38.6015C1626.38 -182.732 1738.09 -270.391 1921.6 -331.64C2093.89 -389.147 2373 -380.539 2543.77 -312.395C2846.37 -191.655 2897.54 -106.52 2947.06 -24.2243C2961.14 -0.788518 2974.47 21.3854 2993.51 44.0551C3032.93 91.062 3019.43 142.576 3005.12 197.109C2999.54 218.427 2993.73 240.51 2990.85 263.09L2991.3 263.135C2994.18 240.555 2999.99 218.517 3005.57 197.199C3012.86 169.392 3019.75 143.117 3019.97 117.517C3020.2 88.7183 3011.91 65.2825 2993.87 43.7396C2974.87 21.115 2961.55 -1.0589 2947.46 -24.4948C2923.15 -64.9216 2898.04 -106.7 2841.06 -153.617C2810.23 -178.946 2773.23 -203.328 2727.86 -228.161C2676.68 -256.194 2616.5 -283.866 2543.95 -312.846C2502.63 -329.341 2454.15 -342.636 2399.83 -352.416C2347.25 -361.881 2291.58 -367.604 2234.37 -369.407C2176.98 -371.255 2121.04 -369.092 2068.1 -362.962C2013.1 -356.608 1963.77 -346.197 1921.51 -332.09C1830.81 -301.804 1761.45 -267.236 1703.3 -223.249C1640.06 -175.431 1589.11 -115.128 1547.61 -38.8268C1511.02 28.3709 1480.64 99.9854 1453.76 163.127C1450.57 170.699 1447.28 178.495 1444.13 186.022C1424.37 233.344 1403.98 282.289 1373.29 323.302C1309.64 408.482 1217.24 386.443 1126.9 349.893C1058.44 322.22 990.794 289.816 925.394 258.493C842.982 219.012 757.733 178.135 669.964 146.361C578.819 113.371 496.181 91.4222 417.369 79.2987C372.719 72.4482 328.925 68.7976 287.246 68.4822C242.461 68.1216 198.666 71.637 157.032 78.8029C77.6799 92.5039 2.82857 121.709 -65.4512 165.515C-131.841 208.106 -190.309 263.405 -239.189 329.882C-280.193 385.587 -316.921 451.027 -351.534 529.898C-382.816 601.197 -408.606 674.208 -433.497 744.786L-433.046 745.012Z" fill="url(#paint4_linear_210_1987)" fill-opacity="0.06"/>
<path d="M-432.865 720.764C-368.321 577.039 -307.153 458.598 -218.528 347.909C-120.272 224.916 21.059 138.88 179.493 105.574C344.544 70.8706 516.932 84.5265 691.93 146.181C784.47 179.171 874.04 223.609 960.639 266.515C1020.55 296.215 1082.48 326.952 1144.91 353.633C1181.73 369.362 1229.8 387.615 1274.9 388.877C1297.13 389.508 1317.57 385.902 1335.57 378.241C1355.55 369.723 1373.42 355.841 1388.77 336.913C1417.98 300.857 1438.33 257.771 1458.04 216.083C1462.36 206.934 1466.82 197.514 1471.27 188.32C1480.37 169.662 1489.28 150.868 1498.73 131.038C1521.06 84.076 1544.15 35.5368 1569.58 -11.8757C1649.02 -159.296 1758.66 -249.569 1936.14 -313.837C2103.71 -374.5 2376.02 -368.731 2543.09 -301.038C2835.93 -182.371 2886.43 -98.5431 2935.26 -17.5092C2949.04 5.34072 2962.04 26.9738 2980.41 49.1927C3019.88 97.0109 3007.95 149.381 2995.35 204.816C2990.49 226.223 2985.45 248.352 2983.2 270.977L2983.74 271.022C2986.03 248.442 2991.03 226.314 2995.89 204.906C3008.49 149.381 3020.42 96.8756 2980.81 48.8322C2962.49 26.6583 2949.49 5.07028 2935.71 -17.7797C2911.68 -57.6656 2886.83 -98.9037 2831.34 -145.054C2801.36 -169.977 2765.4 -193.954 2721.42 -218.336C2671.82 -245.873 2613.53 -273.095 2543.27 -301.534C2453.61 -337.904 2333.71 -356.382 2215.96 -356.382C2114.06 -356.382 2013.73 -342.546 1935.91 -314.378C1892.93 -298.829 1855.25 -282.334 1820.69 -264.036C1784.18 -244.702 1752 -223.7 1722.25 -199.903C1660.68 -150.598 1610.58 -89.214 1569.08 -12.1912C1543.65 35.2664 1520.56 83.8056 1498.24 130.767C1488.78 150.643 1479.87 169.391 1470.78 188.05C1466.32 197.244 1461.87 206.663 1457.55 215.812C1437.88 257.456 1417.53 300.542 1388.37 336.552C1324.59 415.242 1233.76 391.04 1145.13 353.137C1082.75 326.456 1020.82 295.765 960.909 266.064C874.31 223.113 784.74 178.721 692.155 145.685C517.067 84.0308 344.544 70.3298 179.403 105.078C99.8711 121.799 25.1096 151.274 -42.7652 192.647C-110.505 233.93 -169.738 286.075 -218.933 347.594C-261.918 401.271 -301.301 460.672 -339.335 529.221C-377.008 597.095 -409.37 667.132 -433.36 720.539L-432.865 720.764Z" fill="url(#paint5_linear_210_1987)" fill-opacity="0.06"/>
<path d="M-432.73 696.518C-362.56 573.39 -288.114 468.199 -198.319 365.577C-100.603 253.31 37.8022 172.502 201.863 131.805C387.394 85.7892 554.92 90.2961 714.075 145.506C811.296 179.217 904.826 227.441 995.251 273.997C1049.89 302.165 1106.38 331.235 1163.09 356.879C1199.33 373.239 1246.59 392.348 1291.06 395.187C1294.93 395.413 1298.75 395.548 1302.49 395.548C1343.63 395.548 1376.89 380.63 1403.9 350.119C1431.8 318.615 1452.01 280.757 1471.59 244.161C1477.04 233.976 1482.66 223.43 1488.38 213.199C1507.1 179.623 1525.69 142.802 1545.41 103.772C1560.12 74.5672 1575.38 44.4161 1591.18 14.6706C1671.07 -135.86 1778.56 -228.837 1950.54 -296.125C2113.43 -359.897 2378.9 -357.013 2542.33 -289.725C2825.49 -173.131 2875.31 -90.5652 2923.52 -10.7481C2936.97 11.5159 2949.67 32.5631 2967.31 54.3314C3006.78 103.006 2996.52 156.232 2985.67 212.613C2981.53 234.111 2977.26 256.33 2975.55 278.955L2976.13 279C2977.8 256.375 2982.07 234.156 2986.22 212.703C2997.11 156.187 3007.41 102.826 2967.76 53.9257C2950.16 32.2476 2937.47 11.2004 2924.01 -11.0636C2900.25 -50.4539 2875.67 -91.1511 2821.66 -136.536C2792.49 -161.053 2757.61 -184.579 2714.99 -208.556C2666.92 -235.552 2610.52 -262.323 2542.55 -290.311C2502.49 -306.806 2455.86 -319.741 2403.88 -328.8C2353.69 -337.543 2300.67 -342.23 2246.3 -342.861C2191.93 -343.447 2138.95 -339.886 2088.81 -332.27C2036.87 -324.383 1990.28 -312.44 1950.31 -296.756C1908.46 -280.35 1871.55 -262.999 1837.47 -243.619C1801.87 -223.338 1770.36 -201.48 1741.11 -176.692C1681.11 -125.899 1631.87 -63.3888 1590.55 14.4002C1574.75 44.1457 1559.54 74.3418 1544.78 103.501C1525.11 142.486 1506.47 179.352 1487.79 212.884C1482.08 223.114 1476.45 233.66 1471 243.846C1451.47 280.442 1431.22 318.255 1403.4 349.668C1339.49 421.868 1250.23 395.503 1163.32 356.248C1106.65 330.649 1050.16 301.534 995.521 273.411C905.051 226.81 811.521 178.631 714.255 144.875C672.441 130.362 629.411 119.23 586.427 111.749C544.748 104.493 501.763 100.482 458.644 99.8057C417.055 99.1296 373.936 101.563 330.546 106.972C288.912 112.155 245.568 120.312 201.728 131.174C121.655 151.049 46.9843 180.794 -20.1705 219.554C-89.3956 259.53 -149.439 308.52 -198.724 365.126C-288.519 467.793 -363.01 572.984 -433.181 696.157L-432.73 696.518Z" fill="url(#paint6_linear_210_1987)" fill-opacity="0.06"/>
<path d="M-432.551 672.271C-361.525 574.381 -279.563 488.975 -184.637 390.094L-178.065 383.244C-82.3296 282.785 53.0148 207.024 224.232 158.034C313.442 132.48 413.138 109.766 519.362 109.766C589.172 109.766 661.773 119.591 736.174 144.874C837.266 179.217 933.992 230.956 1027.57 281.028C1077.66 307.798 1129.42 335.516 1181.19 360.169C1216.79 377.114 1263.24 397.125 1307.17 401.542C1352.85 406.139 1389.4 393.7 1418.93 363.413C1445.66 335.967 1465.78 302.886 1485.23 270.842C1491.75 260.116 1498.46 249.029 1505.39 238.212C1532.8 195.487 1559.99 142.936 1588.79 87.2763C1596.58 72.2684 1604.59 56.7196 1612.65 41.3962C1692.36 -110.486 1801.02 -209.142 1964.99 -278.413C2123.24 -345.25 2381.91 -345.25 2541.56 -278.413C2815.04 -163.938 2864.19 -82.6334 2911.72 -4.03318C2924.82 17.645 2937.24 38.1513 2954.17 59.3788C2993.69 108.864 2985.04 162.992 2975.91 220.275C2972.49 241.863 2968.93 264.127 2967.85 286.797L2968.53 286.842C2969.61 264.217 2973.16 241.908 2976.58 220.365C2985.76 162.947 2994.41 108.729 2954.71 58.9731C2937.78 37.7457 2925.41 17.2844 2912.31 -4.39374C2888.81 -43.2882 2864.51 -83.4446 2811.98 -128.063C2783.63 -152.13 2749.78 -175.25 2708.5 -198.821C2662.01 -225.322 2607.5 -251.597 2541.83 -279.089C2464.1 -311.629 2361.52 -329.566 2252.91 -329.566C2252.69 -329.566 2252.51 -329.566 2252.28 -329.566C2199.44 -329.521 2147.91 -325.284 2099.16 -316.857C2048.8 -308.203 2003.56 -295.494 1964.72 -279.089C1882.89 -244.521 1815.96 -203.418 1760.01 -153.392C1701.68 -101.202 1653.29 -37.6547 1612.02 40.9905C1603.96 56.314 1595.95 71.8628 1588.16 86.8707C1559.36 142.531 1532.17 195.081 1504.81 237.761C1497.87 248.578 1491.12 259.665 1484.64 270.391C1464.34 303.877 1445.12 335.471 1418.43 362.873C1354.38 428.538 1266.7 400.055 1181.5 359.447C1129.74 334.795 1077.98 307.122 1027.88 280.306C934.307 230.235 837.536 178.496 736.399 144.108C654.346 116.256 570.268 105.078 479.258 109.946C403.776 114.002 322.669 129.055 224.052 157.268C142.719 180.524 68.1381 210.54 2.4687 246.46C-68.4217 285.219 -129.32 331.009 -178.516 382.658L-185.087 389.508C-280.013 488.389 -362.021 573.795 -433.046 671.73L-432.551 672.271Z" fill="url(#paint7_linear_210_1987)" fill-opacity="0.06"/>
<path d="M-432.461 648.069C-386.821 599.214 -336.095 556.263 -282.398 510.789C-242.024 476.581 -200.3 441.247 -157.856 401.001C-65.9007 313.747 66.4279 242.854 246.602 184.355C361.917 146.902 470.436 115.805 581.745 115.805C639.403 115.805 697.826 124.143 758.319 144.288C862.832 179.082 962.393 234.381 1058.62 287.833C1104.58 313.342 1152.06 339.752 1199.37 363.504C1234.3 381.035 1279.98 401.902 1323.33 407.942C1331.83 409.113 1340.03 409.699 1347.9 409.699C1381.7 409.699 1410.02 398.838 1433.96 376.754C1459.75 353.003 1478.88 325.375 1499.09 296.171C1506.56 285.354 1514.35 274.177 1522.41 263.225C1557.78 215.452 1592.31 148.795 1628.9 78.2175L1634.16 68.077C1714.78 -87.2755 1821.23 -188.681 1979.39 -260.656C2135.62 -331.774 2382.23 -334.569 2540.8 -267.1C2804.6 -154.834 2853.08 -74.7012 2899.98 2.72717C2912.17 22.918 2924.82 43.7399 2941.07 64.4716C2980.59 114.814 2973.61 169.798 2966.28 228.027C2963.53 249.66 2960.69 272.059 2960.2 294.729L2960.92 294.729C2961.41 272.059 2964.25 249.705 2967 228.072C2974.38 169.707 2981.4 114.588 2941.65 63.9758C2925.41 43.2891 2912.8 22.4223 2900.61 2.27645C2853.66 -75.2871 2805.09 -155.51 2541.16 -267.867C2464.64 -300.451 2364.18 -317.623 2258.27 -316.271C2206.91 -315.595 2156.91 -310.637 2109.56 -301.488C2060.72 -292.069 2016.88 -278.593 1979.17 -261.422C1899.81 -225.322 1834.32 -182.326 1779.01 -130.046C1722.38 -76.5491 1674.85 -11.9203 1633.58 67.6263L1628.31 77.7668C1591.77 148.3 1557.2 214.911 1521.91 262.639C1513.81 273.546 1506.07 284.768 1498.6 295.585C1478.39 324.789 1459.3 352.327 1433.56 376.033C1404.21 403.074 1368.2 413.215 1323.46 406.995C1280.21 401.001 1234.61 380.134 1199.73 362.647C1152.42 338.896 1104.94 312.531 1058.98 287.022C962.709 233.525 863.102 178.225 758.544 143.432C715.29 129.055 672.305 120.312 627.25 116.751C586.336 113.506 544.657 114.678 499.873 120.222C412.148 131.128 323.029 158.62 246.332 183.498C161.399 211.081 89.0231 240.556 25.1091 273.546C-10.2234 291.799 -43.1707 311.359 -72.8323 331.64C-104.294 353.183 -133.1 376.303 -158.396 400.325C-200.795 440.571 -242.519 475.905 -282.893 510.113C-336.59 555.587 -387.316 598.583 -433.001 647.438L-432.461 648.069Z" fill="url(#paint8_linear_210_1987)" fill-opacity="0.06"/>
<path d="M-432.326 623.821C-392.537 591.461 -349.193 564.195 -303.283 535.306C-248.821 501.008 -192.469 465.584 -137.647 418.667C-30.1631 326.682 121.295 264.261 268.927 210.539C277.344 207.474 285.716 204.41 294.043 201.345C407.512 159.837 516.571 119.951 631.931 119.951C680.047 119.951 729.288 126.891 780.374 143.522C887.992 178.585 989.939 237.445 1088.56 294.367C1130.68 318.705 1174.25 343.808 1217.51 366.658C1251.81 384.776 1296.68 406.499 1339.49 414.161C1350.47 416.099 1360.96 417.09 1370.9 417.09C1401.1 417.09 1426.85 408.121 1449.04 389.959C1474.11 369.452 1493.19 345.476 1513.36 320.102C1521.69 309.601 1530.33 298.739 1539.46 288.148C1578.53 242.673 1616.75 170.698 1655.72 94.7122C1737.28 -64.2459 1841.53 -168.4 1993.84 -242.944C2074.59 -282.469 2180.45 -302.525 2285.05 -302.525C2376.87 -302.525 2467.75 -287.066 2540.03 -255.789C2794.11 -145.775 2841.96 -66.8147 2888.23 9.53204C2900.11 29.137 2912.4 49.418 2927.97 69.6089C2967.49 120.807 2962.22 176.693 2956.64 235.823C2954.57 257.546 2952.46 279.991 2952.55 302.705L2953.36 302.705C2953.27 280.036 2955.38 257.591 2957.45 235.913C2963.08 176.602 2968.39 120.627 2928.65 69.1582C2913.07 48.9673 2900.79 28.7314 2888.95 9.17147C2842.63 -67.2654 2794.7 -146.361 2540.48 -256.465C2465.36 -289.004 2367.24 -305.455 2264.26 -302.75C2214.43 -301.444 2165.87 -295.765 2119.91 -285.895C2072.65 -275.709 2030.12 -261.467 1993.61 -243.62C1841.12 -168.986 1736.74 -64.7417 1655.09 94.3967C1616.16 170.338 1577.95 242.268 1538.97 287.697C1529.83 298.333 1521.19 309.195 1512.86 319.696C1492.7 345.07 1473.66 369.002 1448.63 389.418C1419.29 413.394 1383.64 421.236 1339.71 413.439C1297 405.823 1252.21 384.1 1217.96 366.027C1174.7 343.222 1131.18 318.074 1089.05 293.736C990.389 236.814 888.397 177.909 780.734 142.846C738.83 129.19 697.421 121.618 654.076 119.635C615.233 117.877 575.579 120.717 532.864 128.288C453.152 142.395 375.78 170.698 293.862 200.669C285.536 203.734 277.119 206.798 268.747 209.863C205.598 232.848 123.41 263.946 47.8837 300.677C-28.1829 337.679 -89.0359 376.122 -138.097 418.081C-192.874 464.953 -249.181 500.377 -303.598 534.675C-349.508 563.564 -392.897 590.876 -432.731 623.28L-432.326 623.821Z" fill="url(#paint9_linear_210_1987)" fill-opacity="0.06"/>
<path d="M-432.236 599.619C-394.337 577.04 -353.289 559.193 -309.854 540.354C-245.535 512.411 -178.966 483.522 -117.482 436.38C-19.5408 361.34 110.447 309.286 248.042 254.166C262.176 248.488 276.804 242.629 291.252 236.815C312.902 228.071 334.507 219.013 355.436 210.224C461.659 165.606 563.651 122.745 674.105 122.745C715.514 122.745 758.049 128.74 802.518 142.936C912.927 178.18 1017.04 240.601 1117.68 300.948C1156.3 324.113 1196.17 348.045 1235.69 369.948C1269.36 388.607 1313.38 411.232 1355.73 420.471C1399.17 429.98 1434.64 424.347 1464.16 403.299C1488.74 385.768 1507.91 364.991 1528.21 343.042C1537.26 333.262 1546.62 323.122 1556.57 313.162C1598.29 271.563 1639.25 196.433 1677.33 121.393C1759.88 -41.3504 1861.96 -148.254 2008.38 -225.186C2155.38 -302.434 2388.62 -310.907 2539.36 -244.431C2783.63 -136.761 2830.84 -58.9271 2876.48 16.383C2888 35.4021 2899.93 55.0522 2914.87 74.7473C2954.44 126.847 2950.84 183.544 2947.01 243.62C2945.62 265.389 2944.22 287.923 2944.85 310.638L2945.75 310.593C2945.12 287.923 2946.52 265.389 2947.91 243.666C2951.74 183.453 2955.34 126.577 2915.59 74.2064C2900.7 54.5564 2888.77 34.9514 2877.25 15.9323C2854.52 -21.565 2831.02 -60.3242 2782.91 -102.689C2756.98 -125.494 2726.33 -147.397 2689.1 -169.616C2647.29 -194.585 2598.41 -219.327 2539.72 -245.197C2465.95 -277.692 2370.26 -293.421 2270.15 -289.41C2221.86 -287.472 2174.78 -281.072 2130.17 -270.436C2084.44 -259.529 2043.3 -244.521 2007.93 -225.907C1861.37 -148.885 1759.16 -41.8911 1676.52 121.033C1638.49 195.983 1597.57 271.067 1555.94 312.576C1545.95 322.536 1536.58 332.677 1527.54 342.456C1507.28 364.405 1488.15 385.092 1463.62 402.578C1434.32 423.49 1399.08 429.079 1355.87 419.614C1313.65 410.375 1269.68 387.796 1236.05 369.182C1196.58 347.279 1156.66 323.347 1118.08 300.182C1017.4 239.789 913.287 177.324 802.743 142.08C639.358 89.9353 501.268 147.939 355.076 209.368C334.191 218.156 312.541 227.215 290.937 235.959C276.489 241.772 261.861 247.631 247.727 253.31C110.087 308.429 -19.9459 360.529 -118.022 435.659C-179.461 482.711 -245.94 511.6 -310.214 539.543C-353.693 558.426 -394.743 576.274 -432.686 598.898L-432.236 599.619Z" fill="url(#paint10_linear_210_1987)" fill-opacity="0.06"/>
<path d="M-432.146 575.417C-394.608 560.049 -354.099 549.323 -311.159 538.01C-238.469 518.811 -163.302 498.981 -97.2281 454.047C-19.0909 400.911 79.5256 360.484 183.903 317.668C226.348 300.272 270.187 282.289 313.666 263C343.778 249.659 373.53 235.282 402.246 221.356C504.418 171.961 602.359 124.593 711.148 124.593C747.606 124.593 785.234 129.911 824.663 142.215C937.683 177.549 1043.64 243.575 1146.08 307.438C1181.37 329.431 1217.87 352.191 1253.88 373.148C1286.87 392.348 1330.08 415.783 1371.98 426.69C1414.7 437.777 1449.8 434.442 1479.29 416.505C1503.73 401.632 1523.17 383.74 1543.74 364.811C1553.28 356.022 1563.14 346.963 1573.72 338.04C1619.4 299.461 1662.7 220.275 1698.98 147.939C1782.61 -18.7709 1882.53 -128.379 2022.91 -207.565C2165.33 -287.877 2391.9 -299.145 2538.73 -233.209C2773.23 -127.928 2819.81 -51.1303 2864.87 23.1432C2876.03 41.5764 2887.6 60.6406 2901.87 79.7498C2941.38 132.751 2939.54 190.349 2937.51 251.282C2936.79 273.095 2936.07 295.675 2937.29 318.435L2938.23 318.39C2937.02 295.675 2937.78 273.141 2938.46 251.327C2940.44 190.169 2942.33 132.435 2902.59 79.1639C2888.36 60.0998 2876.8 41.0356 2865.63 22.6475C2843.13 -14.4442 2819.9 -52.7528 2773.27 -94.3965C2748.16 -116.796 2718.54 -138.294 2682.71 -160.107C2642.43 -184.579 2595.48 -208.781 2539.09 -234.11C2466.71 -266.605 2373.36 -281.523 2276.18 -276.205C2229.42 -273.636 2183.82 -266.515 2140.61 -255.112C2096.46 -243.439 2056.67 -227.71 2022.42 -208.421C1881.85 -129.19 1781.84 -19.4019 1698.12 147.488C1661.89 219.734 1618.68 298.785 1573.09 337.273C1562.51 346.197 1552.65 355.256 1543.11 364.044C1522.59 382.928 1503.14 400.776 1478.79 415.603C1449.53 433.405 1414.7 436.741 1372.25 425.699C1330.48 414.837 1287.32 391.446 1254.37 372.247C1218.36 351.29 1181.91 328.53 1146.62 306.536C1044.13 242.629 938.133 176.558 824.978 141.224C785.459 128.875 747.696 123.557 711.148 123.557C602.179 123.557 504.148 170.969 401.886 220.41C373.124 234.291 343.418 248.668 313.307 262.053C269.872 281.343 225.987 299.325 183.543 316.722C79.1205 359.537 -19.5408 400.009 -97.7679 453.191C-163.707 497.989 -238.784 517.819 -311.385 537.019C-354.324 548.376 -394.878 559.057 -432.461 574.471L-432.146 575.417Z" fill="url(#paint11_linear_210_1987)" fill-opacity="0.06"/>
<path d="M-432.056 551.171C-394.158 541.751 -353.243 537.019 -309.989 532.062C-229.647 522.822 -146.604 513.223 -77.0184 471.759C-13.1944 433.721 64.0424 402.984 145.78 370.444C208.029 345.702 272.393 320.102 336.037 289.275C371.955 271.879 407.062 252.499 441 233.75C540.606 178.721 635.982 125.991 744.681 125.991C777.358 125.991 811.206 130.723 846.763 141.63C962.168 176.964 1069.74 246.64 1173.8 314.063C1205.99 334.93 1239.25 356.473 1272.02 376.484C1320 405.824 1355.87 423.265 1388.23 433.045C1430.23 445.755 1464.93 444.718 1494.32 429.845C1518.98 417.361 1539.01 402.038 1560.21 385.813C1569.94 378.377 1579.97 370.715 1590.73 363.098C1612.47 347.73 1634.61 322.626 1658.43 286.301C1677.24 257.637 1696.95 222.168 1720.54 174.665C1805.34 3.80901 1903.05 -108.593 2037.36 -189.762C2175.27 -273.094 2395.15 -287.156 2537.96 -221.851C2762.7 -119.049 2808.7 -43.2428 2853.12 30.0392C2863.92 47.8865 2875.13 66.3197 2888.72 84.843C2928.24 138.745 2928.11 197.2 2927.93 259.079C2927.88 280.983 2927.79 303.607 2929.59 326.367L2930.63 326.277C2928.87 303.562 2928.92 280.938 2929.01 259.079C2929.14 197.02 2929.32 138.385 2889.58 84.212C2876.03 65.7338 2864.87 47.3006 2854.02 29.4983C2831.79 -7.18775 2808.79 -45.0907 2763.64 -86.0133C2739.34 -108.052 2710.75 -129.099 2676.28 -150.462C2637.57 -174.438 2592.47 -198.1 2538.41 -222.797C2467.43 -255.247 2376.47 -269.444 2282.17 -262.729C2190.04 -256.194 2102.94 -230.594 2036.87 -190.663C1966.97 -148.434 1907.42 -97.9566 1854.8 -36.3474C1805.52 21.3859 1761.27 90.2511 1719.64 174.169C1683.14 247.722 1639.21 327.584 1590.19 362.197C1579.43 369.814 1569.4 377.475 1559.67 384.957C1538.52 401.137 1518.53 416.46 1493.96 428.854C1464.79 443.591 1430.36 444.628 1388.64 431.964C1356.32 422.184 1320.58 404.787 1272.65 375.492C1239.92 355.482 1206.66 333.939 1174.48 313.072C1070.37 245.604 962.753 175.882 847.168 140.503C692.874 93.2707 570.313 161.009 440.594 232.714C406.657 251.463 371.55 270.842 335.677 288.239C272.033 319.021 207.714 344.62 145.51 369.363C63.6826 401.903 -13.5545 432.64 -77.4686 470.723C-146.829 512.096 -229.782 521.651 -310.034 530.89C-353.334 535.892 -394.247 540.58 -432.236 550.044L-432.056 551.171Z" fill="url(#paint12_linear_210_1987)" fill-opacity="0.06"/>
<path d="M-432.01 526.968C-393.302 522.822 -351.623 523.453 -307.468 524.129C-291.085 524.399 -274.611 524.625 -258.137 524.625C-186.662 524.625 -115.816 519.848 -56.8533 489.471C-4.28204 462.385 57.1564 439.535 122.195 415.378C199.612 386.624 279.685 356.878 358.407 315.55C398.511 294.503 437.309 270.211 474.847 246.73C599.209 168.896 716.73 95.3885 868.908 140.998C986.564 176.242 1095.62 249.705 1201.08 320.733C1230.29 340.428 1260.54 360.754 1290.2 379.773C1337.19 409.88 1372.48 428.268 1404.57 439.4C1445.84 453.731 1480.14 454.948 1509.4 443.185C1534.96 432.91 1556.03 419.84 1578.35 405.959C1587.72 400.145 1597.44 394.105 1607.74 388.111C1630.88 374.681 1654.06 350.614 1678.59 314.424C1698.08 285.715 1718.24 249.795 1742.05 201.346C1828.11 26.0727 1923.67 -89.0784 2051.81 -172.005C2187.43 -259.754 2396.09 -276.295 2537.2 -210.494C2752.16 -110.171 2797.53 -35.3111 2841.42 37.0696C2851.86 54.2859 2862.66 72.1332 2875.58 90.0255C2915.1 144.829 2916.67 204.185 2918.39 267.011C2918.97 288.96 2919.6 311.629 2921.9 334.389L2922.98 334.299C2920.68 311.584 2920.05 288.915 2919.47 267.011C2917.75 204.005 2916.18 144.514 2876.44 89.4396C2863.56 71.5473 2852.76 53.7451 2842.32 36.5738C2820.31 0.248282 2797.58 -37.2941 2753.87 -77.4956C2730.38 -99.1287 2702.83 -119.815 2669.71 -140.682C2632.53 -164.118 2589.32 -187.238 2537.6 -211.35C2502 -227.981 2461.76 -239.609 2418.01 -245.963C2376.24 -252.002 2332.54 -253.084 2288.07 -249.163C2199.26 -241.321 2115.14 -214.19 2051.18 -172.816C1983.58 -129.055 1925.51 -76.6845 1873.66 -12.6866C1826.31 45.7227 1782.97 115.625 1741.06 200.985C1717.3 249.389 1697.18 285.264 1677.69 313.928C1653.2 349.938 1630.16 373.96 1607.2 387.255C1596.85 393.249 1587.17 399.288 1577.77 405.102C1555.49 418.938 1534.47 431.963 1508.99 442.239C1479.96 453.912 1445.93 452.65 1404.93 438.408C1372.88 427.321 1337.69 408.933 1290.79 378.917C1261.12 359.898 1230.92 339.572 1201.67 319.877C1096.16 248.803 987.014 175.341 869.223 140.007C832.496 129.01 796.938 124.548 760.525 126.351C727.983 127.973 695.395 134.644 660.918 146.722C596.779 169.211 537.276 206.438 474.262 245.874C436.769 269.355 397.971 293.602 357.912 314.649C279.235 355.932 199.207 385.677 121.836 414.431C56.7514 438.633 -4.732 461.438 -57.3485 488.57C-129.589 525.842 -220.014 524.444 -307.423 523.092C-351.623 522.416 -393.347 521.785 -432.1 525.932L-432.01 526.968Z" fill="url(#paint13_linear_210_1987)" fill-opacity="0.06"/>
<path d="M-155.65 528.006C-112.711 528.006 -72.157 522.687 -36.6441 507.139C6.61029 488.21 55.6259 471.76 107.567 454.318C193.221 425.564 290.262 393.024 380.777 341.736C423.986 317.263 465.395 288.194 505.454 260.071C625.81 175.612 739.46 95.8397 891.008 140.278C1010.78 175.431 1121.14 252.68 1227.82 327.359C1254.24 345.837 1281.56 364.991 1308.29 382.929C1367.26 422.499 1433.47 460.943 1491.66 460.943C1502.92 460.943 1513.85 459.501 1524.39 456.346C1551.98 448.099 1575.02 436.921 1599.46 425.113C1607.56 421.192 1615.94 417.136 1624.76 413.035C1649.29 401.632 1673.55 378.557 1698.89 342.502C1718.96 313.928 1739.53 277.558 1763.61 227.937C1852.28 45.4979 1942.8 -68.7969 2066.26 -154.338C2197.33 -245.107 2399.47 -264.396 2536.43 -199.226C2741.68 -101.562 2784.48 -30.8488 2829.76 43.9656C2839.8 60.551 2850.19 77.7222 2862.44 95.0287C2901.91 150.779 2905.29 210.991 2908.84 274.764C2910.06 296.757 2911.36 319.472 2914.15 342.187L2915.32 342.051C2912.49 319.337 2911.23 296.622 2910.01 274.673C2906.46 210.766 2903.08 150.373 2863.38 94.3526C2851.19 77.0912 2840.79 59.9651 2830.75 43.3797C2808.97 7.41469 2786.46 -29.7672 2744.24 -69.2926C2721.56 -90.475 2695.05 -110.756 2663.27 -131.217C2627.67 -154.157 2586.35 -176.692 2536.93 -200.218C2501.95 -216.848 2462.62 -228.296 2420.04 -234.245C2379.48 -239.878 2337.08 -240.419 2294.01 -235.822C2208.54 -226.673 2127.38 -198.055 2065.54 -155.239C2000.18 -109.99 1943.61 -55.6819 1892.57 10.7046C1846.66 70.421 1805.34 139.286 1762.49 227.486C1738.41 277.017 1717.88 313.388 1697.85 341.871C1672.65 377.746 1648.57 400.731 1624.22 411.998C1615.4 416.1 1607.02 420.156 1598.92 424.077C1574.53 435.885 1551.53 447.062 1524.03 455.264C1459.44 474.509 1379.05 429.034 1308.92 381.982C1282.14 364 1254.87 344.891 1228.45 326.412C1121.68 251.643 1011.23 174.35 891.278 139.151C854.685 128.425 819.443 124.504 783.525 127.253C751.433 129.686 719.476 137.438 685.808 150.914C623.155 175.972 565.632 216.354 504.779 259.079C464.765 287.157 423.356 316.227 380.192 340.699C289.767 391.897 192.771 424.482 107.162 453.191C55.2209 470.633 6.16009 487.083 -37.1395 506.057C-111.901 538.777 -209.527 526.022 -303.957 513.719C-349.327 507.815 -392.132 502.181 -431.92 501.55L-431.92 502.722C-392.177 503.398 -349.372 508.986 -304.093 514.89C-254.222 521.38 -203.495 528.006 -155.65 528.006Z" fill="url(#paint14_linear_210_1987)" fill-opacity="0.06"/>
<path d="M-97.9036 537.424C-68.6473 537.424 -41.1463 533.819 -16.481 524.85C18.7167 512.096 57.6054 500.693 98.7892 488.66C194.57 460.627 303.089 428.898 403.146 367.965C448.741 340.203 491.995 306.446 533.854 273.771C650.925 182.371 761.469 96.0645 913.107 139.646C1034.9 174.62 1146.39 255.789 1254.24 334.254C1277.96 351.515 1302.49 369.362 1326.48 386.218C1370.81 417.361 1406.01 438.273 1437.25 451.974C1477.17 469.506 1510.61 475.32 1539.46 469.686C1571.47 463.466 1597.39 454.092 1627.41 443.23C1632.09 441.518 1636.91 439.805 1641.82 438.047C1667.83 428.763 1693.13 406.725 1719.23 370.715C1739.76 342.366 1760.73 305.5 1785.17 254.617C1875.37 67.0853 1963.77 -49.9135 2080.75 -136.581C2207.27 -230.279 2402.84 -252.363 2535.67 -187.824C2731.14 -92.8641 2773.41 -22.9172 2818.15 51.131C2827.78 67.0854 2837.77 83.5807 2849.34 100.211C2888.77 156.908 2893.94 218.021 2899.39 282.695C2901.24 304.689 2903.17 327.448 2906.5 350.163L2907.72 349.983C2904.39 327.268 2902.45 304.553 2900.61 282.56C2895.11 217.706 2889.98 156.412 2850.33 99.4449C2838.76 82.8596 2828.81 66.3643 2819.18 50.4099C2797.62 14.7604 2775.34 -22.1059 2734.56 -61.0004C2712.64 -81.9124 2687.17 -101.788 2656.79 -121.753C2622.71 -144.153 2583.29 -166.146 2536.21 -189.041C2501.86 -205.717 2463.47 -216.984 2422.06 -222.527C2382.72 -227.8 2341.67 -227.755 2299.99 -222.482C2217.85 -212.071 2139.71 -181.92 2079.99 -137.663C2016.88 -90.9263 1961.84 -34.7253 1911.6 34.14C1867.9 94.0366 1827.39 163.893 1784.05 253.986C1759.61 304.779 1738.68 341.6 1718.2 369.903C1692.27 405.688 1667.11 427.592 1641.37 436.786C1636.46 438.543 1631.64 440.256 1626.96 441.969C1596.99 452.785 1571.06 462.159 1539.19 468.379C1510.57 473.967 1477.39 468.199 1437.7 450.757C1406.55 437.056 1371.44 416.189 1327.15 385.091C1303.16 368.236 1278.63 350.388 1254.96 333.127C1147.02 254.572 1035.44 173.358 913.467 138.339C876.829 127.793 841.721 124.458 806.119 128.154C774.297 131.444 742.745 140.277 709.708 155.15C648.179 182.867 592.322 226.494 533.134 272.69C491.32 305.365 448.066 339.121 402.516 366.793C302.594 427.591 194.12 459.32 98.4294 487.353C57.2453 499.386 18.3566 510.789 -16.8861 523.543C-93.9427 551.486 -198.636 527.103 -299.863 503.487C-346.583 492.581 -390.692 482.305 -431.696 477.077L-431.831 478.294C-390.918 483.522 -346.808 493.798 -300.133 504.659C-231.087 520.929 -160.422 537.424 -97.9036 537.424Z" fill="url(#paint15_linear_210_1987)" fill-opacity="0.06"/>
<path d="M-52.7579 549.773C-32.6385 549.773 -13.7342 547.565 3.6845 542.517C31.7707 534.405 61.9723 527.014 93.9743 519.172C198.712 493.573 317.448 464.548 425.471 394.196C472.867 363.323 517.516 324.88 560.636 287.698C655.291 206.123 745.671 128.289 860.401 128.289C884.211 128.289 909.057 131.624 935.207 138.97C1058.94 173.764 1171.46 258.899 1280.3 341.285C1301.41 357.284 1323.24 373.779 1344.62 389.463C1388.01 421.372 1422.62 443.231 1453.63 458.374C1488.06 475.185 1517.72 483.432 1543.78 483.432C1547.43 483.432 1550.99 483.252 1554.5 482.936C1593.25 479.376 1624.67 471.804 1658.83 463.016C1686.33 455.94 1712.75 434.983 1739.62 398.973C1760.55 370.895 1781.89 333.488 1806.78 281.253C1874.88 138.204 1956.98 -9.26113 2095.25 -118.869C2201.65 -203.193 2386.82 -250.109 2534.99 -176.557C2720.66 -84.3909 2762.43 -15.12 2806.63 58.2071C2815.85 73.4855 2825.39 89.3047 2836.29 105.259C2875.72 162.947 2882.65 224.962 2890.03 290.582C2892.5 312.576 2895.07 335.336 2898.94 358.096L2900.25 357.87C2896.37 335.201 2893.81 312.441 2891.38 290.447C2884 224.647 2877.02 162.497 2837.41 104.538C2826.56 88.6286 2817.02 72.8094 2807.8 57.5311C2785.47 20.5295 2764.41 -14.444 2725.07 -52.6624C2703.91 -73.2138 2679.52 -92.6836 2650.44 -112.244C2617.9 -134.102 2580.36 -155.555 2535.62 -177.774C2501.91 -194.494 2464.42 -205.581 2424.22 -210.719C2386.1 -215.587 2346.4 -215.001 2306.12 -209.006C2227.3 -197.289 2152.18 -165.65 2094.48 -119.95C2033.63 -71.7266 1980.07 -13.5877 1930.69 57.7113C1889.33 117.428 1849.63 188.276 1805.65 280.622C1780.81 332.767 1759.52 370.084 1738.63 398.117C1711.94 433.856 1685.75 454.633 1658.56 461.664C1624.44 470.452 1593.07 478.024 1554.41 481.584C1526.05 484.198 1493.28 476.176 1454.26 457.112C1423.34 442.014 1388.77 420.155 1345.47 388.337C1324.14 372.653 1302.31 356.112 1281.2 340.158C1172.27 257.727 1059.66 172.502 935.702 137.663C898.884 127.298 863.777 124.503 828.354 129.1C796.712 133.202 765.476 143.117 732.843 159.477C672.215 189.898 617.663 236.905 559.916 286.661C516.796 323.798 472.237 362.242 424.886 393.069C317.043 463.286 198.442 492.311 93.7939 517.865C61.7919 525.707 31.5456 533.098 3.41448 541.21C-75.8028 564.15 -187.427 527.915 -295.361 492.851C-343.566 477.212 -389.116 462.43 -431.425 452.83L-431.696 454.092C-389.476 463.647 -343.971 478.429 -295.766 494.068C-211.373 521.605 -124.593 549.773 -52.7579 549.773Z" fill="url(#paint16_linear_210_1987)" fill-opacity="0.06"/>
<path d="M-14.1841 564.06C-0.816229 564.06 11.9216 562.843 23.8493 560.229C45.4089 555.497 68.0488 551.125 92.039 546.528C146.141 536.117 207.444 524.309 268.207 505.425C337.928 483.747 396.665 455.94 447.797 420.425C496.632 386.534 542.182 343.493 586.202 301.849C698.186 196.027 803.914 96.1095 957.263 138.294C1082.84 172.862 1196.31 262.143 1306.04 348.45C1324.68 363.098 1343.9 378.241 1362.67 392.663C1394.26 416.955 1433.6 447.151 1470.1 467.928C1504.31 487.353 1533.25 496.907 1558.05 496.907C1561.97 496.907 1565.75 496.682 1569.49 496.186C1586.54 494.023 1602.57 493.392 1618.05 492.761C1636.42 492.04 1655.36 491.319 1675.75 487.939C1704.74 483.161 1732.29 463.286 1759.92 427.276C1781.53 399.108 1802.64 362.287 1828.25 307.888C1908.59 137.438 1987.18 2.63672 2109.65 -101.202C2212.14 -188.14 2390.87 -238.031 2534.18 -165.29C2710.08 -75.9634 2751.35 -7.32344 2795.06 65.3727C2803.83 79.9751 2812.93 95.0731 2823.1 110.306C2862.48 168.986 2871.26 231.902 2880.58 298.514C2883.64 320.508 2886.83 343.268 2891.2 365.982L2892.55 365.712C2888.18 343.087 2885.03 320.328 2881.93 298.334C2872.61 231.587 2863.79 168.49 2824.22 109.54C2814.05 94.352 2804.96 79.254 2796.18 64.6967C2774.08 27.9205 2753.24 -6.78262 2715.3 -44.4152C2694.91 -64.6061 2671.55 -83.7153 2643.83 -102.824C2612.81 -124.187 2577.12 -145.009 2534.72 -166.552C2501.64 -183.363 2465.09 -194.224 2426.07 -198.956C2389.16 -203.418 2350.77 -202.247 2311.92 -195.576C2236.49 -182.596 2164.34 -149.471 2108.7 -102.284C2050.1 -52.5727 1998.02 7.45906 1949.55 81.2819C1899.18 157.989 1857.59 242.313 1826.99 307.212C1788.01 389.914 1739.49 475.905 1675.53 486.496C1655.27 489.832 1636.33 490.598 1618.01 491.319C1602.48 491.905 1586.45 492.536 1569.31 494.744C1508.05 502.541 1431.26 443.546 1363.52 391.491C1344.75 377.069 1325.49 361.926 1306.9 347.279C1197.07 260.882 1083.52 171.51 957.668 136.852C920.58 126.666 885.382 124.368 850.004 129.866C818.407 134.779 787.396 145.866 755.124 163.713C695.171 196.884 641.789 247.316 585.301 300.722C541.282 342.321 495.777 385.317 447.031 419.163C332.482 498.71 204.564 523.318 91.769 545.041C67.7787 549.638 45.0939 554.01 23.5344 558.742C-57.7083 576.544 -176.219 528.32 -290.859 481.674C-340.64 461.393 -387.675 442.239 -431.38 428.493L-431.785 429.8C-388.17 443.546 -341.135 462.7 -291.399 482.936C-193.278 523.002 -92.4112 564.06 -14.1841 564.06Z" fill="url(#paint17_linear_210_1987)" fill-opacity="0.06"/>
<path d="M20.2931 579.608C28.53 579.608 36.4516 579.067 44.0583 577.896C59.4968 575.552 75.3852 573.389 92.2187 571.09C149.561 563.203 214.511 554.325 279.415 536.342C354.086 515.656 416.515 486.316 470.256 446.655C520.217 409.789 566.352 362.196 611.047 316.226C720.961 202.967 824.799 96.0189 979.497 137.663C1106.88 171.96 1221.2 265.478 1331.7 355.931C1347.86 369.182 1364.6 382.883 1380.94 395.953C1441.93 444.943 1520.16 502.09 1584.52 509.526C1593.48 510.563 1602.25 511.96 1610.76 513.267C1638.71 517.684 1665.13 521.83 1693.04 512.951C1723.15 503.352 1752.18 482.26 1779.32 450.216C1803.94 421.146 1827.71 382.252 1849.94 334.614C1919.21 186.157 1997.48 31.6156 2124.23 -83.4003C2222.85 -172.907 2395.1 -225.863 2533.51 -153.888C2699.64 -67.536 2740.46 0.653308 2783.67 72.8086C2792 86.6899 2800.55 101.022 2810.09 115.489C2849.43 175.205 2860.05 239.068 2871.3 306.626C2874.95 328.62 2878.78 351.335 2883.59 373.959L2885.03 373.644C2880.17 351.064 2876.39 328.349 2872.74 306.356C2861.45 238.617 2850.78 174.619 2811.31 114.678C2801.81 100.256 2793.21 85.9237 2784.93 72.0424C2763.06 35.4916 2742.4 0.968783 2705.85 -36.0779C2686.22 -55.9533 2663.9 -74.7019 2637.52 -93.3154C2608.04 -114.137 2574.24 -134.418 2534.18 -155.195C2501.73 -172.051 2466.13 -182.777 2428.27 -187.059C2392.63 -191.115 2355.54 -189.402 2318.13 -182.011C2246.07 -167.769 2176.85 -133.111 2123.29 -84.4819C2066.93 -33.3287 2016.39 28.6411 1968.77 105.033C1922.36 179.487 1881.99 262.549 1848.68 333.983C1802.19 433.63 1749.66 493.347 1692.68 511.554C1665.13 520.343 1638.89 516.196 1611.08 511.825C1602.57 510.473 1593.75 509.076 1584.79 508.039C1520.79 500.693 1442.78 443.635 1381.98 394.781C1365.68 381.666 1348.94 367.965 1332.78 354.76C1222.15 264.216 1107.73 170.608 980.037 136.22C942.634 126.125 907.257 124.367 871.879 130.812C840.282 136.536 809.405 148.75 777.403 168.129C717.99 204.139 665.599 258.042 610.192 315.144C565.587 361.114 519.452 408.617 469.581 445.438C349.135 534.359 206.679 553.874 92.2187 569.603C75.3852 571.902 59.4968 574.11 44.0134 576.408C-39.2098 588.983 -164.517 528.635 -285.773 470.271C-337.22 445.483 -385.83 422.092 -430.93 404.245L-431.47 405.597C-386.416 423.444 -337.85 446.835 -286.404 471.578C-176.175 524.804 -62.3448 579.608 20.2931 579.608Z" fill="url(#paint18_linear_210_1987)" fill-opacity="0.06"/>
<path d="M51.9345 596.149C56.1205 596.149 60.2165 595.969 64.1772 595.654C73.8093 594.842 83.5314 594.076 93.8388 593.265C215.365 583.575 366.643 571.542 492.626 472.976C543.442 433.225 589.982 381.171 635.037 330.829C743.15 209.999 845.278 95.8846 1001.55 137.078C1130.73 171.105 1245.77 269.039 1356.99 363.684C1370.81 375.447 1385.08 387.616 1399.03 399.289C1458.85 449.495 1535.73 508.941 1599.46 522.867C1608.73 524.896 1617.83 527.329 1626.6 529.628C1647.17 535.081 1666.93 540.354 1687.37 540.354C1694.79 540.354 1702.31 539.678 1709.96 538.056C1726.43 534.585 1742.5 527.6 1757.81 517.369C1772.25 507.724 1786.48 494.79 1800.12 479.015C1824.74 450.442 1848.05 411.998 1871.41 361.386C1948.24 195.171 2021.38 48.2919 2138.63 -65.5521C2230.5 -154.789 2392.98 -216.893 2532.7 -142.44C2689.1 -59.1974 2729.48 8.58629 2772.24 80.336C2780.07 93.451 2788.13 107.017 2796.9 120.628C2836.15 181.426 2848.66 246.19 2861.94 314.784C2866.17 336.733 2870.58 359.403 2875.89 381.937L2877.38 381.577C2872.07 359.087 2867.7 336.418 2863.43 314.469C2850.15 245.739 2837.59 180.84 2798.16 119.771C2789.39 106.16 2781.33 92.6398 2773.5 79.5247C2730.6 7.54969 2690.14 -60.4142 2533.37 -143.927C2471.39 -176.917 2399.02 -185.435 2324.03 -168.535C2255.34 -153.031 2189.09 -116.886 2137.51 -66.769C2108.79 -38.8713 2082.24 -8.67516 2056.31 25.5772C2032.77 56.6747 2010.31 90.4314 1987.67 128.695C1943.56 203.284 1905.35 284.138 1870.02 360.619C1820.42 467.883 1769.46 523.769 1709.6 536.433C1681.15 542.472 1654.82 535.442 1626.96 528.05C1618.14 525.707 1609.05 523.318 1599.73 521.245C1536.31 507.364 1459.66 448.098 1399.98 397.982C1386.07 386.309 1371.76 374.14 1357.98 362.377C1303.03 315.596 1246.22 267.237 1187.17 226.539C1120.51 180.524 1059.93 150.734 1001.91 135.455C964.103 125.495 928.501 124.233 893.033 131.579C861.391 138.159 830.559 151.5 798.827 172.412C739.82 211.261 685.943 271.428 633.866 329.612C588.857 379.909 542.317 431.873 491.635 471.579C366.013 569.919 215.005 581.908 93.6586 591.552C83.3515 592.364 73.6745 593.13 63.9972 593.941C-21.1163 601.152 -153.265 528.636 -281.048 458.464C-334.204 429.259 -384.436 401.722 -431.021 379.864L-431.651 381.261C-385.111 403.074 -334.925 430.656 -281.768 459.816C-159.657 526.969 -33.6741 596.149 51.9345 596.149Z" fill="url(#paint19_linear_210_1987)" fill-opacity="0.06"/>
<path d="M81.5517 613.365C82.497 613.365 83.3971 613.365 84.3422 613.32C88.3932 613.23 92.444 613.14 96.5851 613.095C159.689 611.833 231.164 610.436 303.765 595.788C387.843 578.843 456.979 547.204 514.996 499.161C566.443 456.571 613.253 400.099 658.488 345.521C764.981 217.029 865.578 95.6588 1023.7 136.401C1154.63 170.158 1270.31 272.599 1382.2 371.661C1393.68 381.846 1405.61 392.393 1417.17 402.533C1475.96 454.092 1551.53 515.836 1614.45 536.117C1623.81 539.137 1632.95 542.517 1641.82 545.807C1666.44 554.956 1689.89 563.654 1715.18 563.654C1719.05 563.654 1722.97 563.429 1726.93 563.024C1761 559.283 1791.74 541.255 1820.91 507.904C1845.22 480.097 1868.8 440.887 1892.97 388.021C1967.28 225.683 2037.45 72.4033 2153.08 -47.8856C2241.3 -139.601 2397.44 -204.77 2531.98 -131.218C2678.57 -51.0404 2718.59 16.5179 2760.94 87.9972C2768.23 100.256 2775.75 112.965 2783.81 125.72C2823.01 187.645 2837.46 253.4 2852.72 322.987C2857.49 344.845 2862.48 367.425 2868.24 389.869L2869.77 389.463C2864.01 367.064 2859.06 344.484 2854.25 322.671C2838.94 252.904 2824.49 187.014 2785.16 124.864C2777.1 112.154 2769.58 99.4447 2762.29 87.186C2719.8 15.4813 2679.7 -52.2122 2532.7 -132.615C2472.2 -165.696 2402.12 -173.448 2330.15 -155.014C2264.84 -138.294 2201.56 -100.661 2151.96 -49.0574C2124.23 -20.2133 2098.49 11.0646 2073.28 46.4887C2050.69 78.3074 2028.9 112.965 2006.76 152.356C1964.9 226.9 1927.58 308.429 1891.49 387.255C1867.36 439.985 1843.87 479.06 1819.65 506.733C1790.8 539.768 1760.37 557.615 1726.71 561.311C1697.18 564.556 1670.53 554.686 1642.31 544.23C1633.44 540.94 1624.26 537.514 1614.86 534.495C1552.2 514.304 1476.81 452.695 1418.16 401.226C1406.6 391.086 1394.67 380.539 1383.19 370.354C1328.01 321.499 1270.98 271.022 1211.43 228.567C1144.1 180.569 1082.8 149.877 1024.01 134.734C985.754 124.863 949.836 124.142 914.278 132.435C882.546 139.871 851.76 154.384 820.163 176.873C761.47 218.607 708.493 282.56 657.227 344.394C612.038 398.928 565.272 455.309 513.961 497.809C383.657 605.659 224.458 608.813 96.54 611.382C92.3991 611.473 88.3483 611.563 84.2975 611.608C83.3971 611.608 82.4521 611.653 81.5517 611.653C-5.5423 611.653 -143.002 527.734 -275.916 446.565C-330.828 413.034 -382.634 381.396 -430.75 355.616L-431.515 357.013C-383.444 382.748 -331.638 414.386 -276.771 447.917C-143.632 529.312 -5.99226 613.365 81.5517 613.365Z" fill="url(#paint20_linear_210_1987)" fill-opacity="0.06"/>
<path d="M190.926 633.286C231.66 633.286 275.274 631.168 319.113 623.912C406.612 609.445 478.043 577.175 537.366 525.346C589.307 479.962 636.163 419.164 681.488 360.394C731.944 294.954 784.11 227.26 842.353 182.732C907.437 132.976 973.961 117.608 1045.8 135.725C1178.49 169.167 1294.75 276.295 1407.23 379.909C1416.45 388.427 1425.99 397.215 1435.31 405.733C1475.01 442.059 1506.83 469.19 1535.41 491.049C1571.56 518.676 1602.3 537.74 1629.44 549.323C1632.09 550.45 1634.75 551.576 1637.41 552.703C1672.87 567.891 1706.41 582.223 1743.81 587.902C1748.27 588.578 1752.72 588.938 1757.09 588.938C1786.7 588.938 1814.38 573.345 1841.3 541.571C1871.28 506.237 1896.21 455.174 1914.58 414.612C1918.99 404.922 1923.35 395.277 1927.67 385.633C1997.26 231.767 2062.97 86.375 2167.62 -30.2183C2254.94 -127.522 2401.27 -193.007 2531.26 -119.905C2668.13 -42.9276 2707.78 24.4954 2749.82 95.8846C2756.53 107.242 2763.46 119.05 2770.75 130.813C2809.91 193.864 2826.3 260.657 2843.58 331.37C2848.89 353.093 2854.38 375.537 2860.59 397.801L2862.21 397.351C2856 375.132 2850.51 352.687 2845.2 330.964C2827.87 260.116 2811.44 193.233 2772.15 129.957C2764.86 118.194 2757.93 106.431 2751.22 95.0733C2709.09 23.4588 2669.3 -44.1445 2532.07 -121.348C2473.01 -154.563 2405.32 -161.549 2336.32 -141.538C2274.43 -123.601 2214.07 -84.4812 2166.41 -31.2999C2061.58 85.5187 1995.82 230.956 1926.19 385.002C1921.82 394.646 1917.46 404.291 1913.09 413.981C1894.77 454.408 1869.88 505.336 1840.04 540.534C1809.52 576.544 1778.15 591.507 1744.08 586.324C1706.9 580.646 1673.5 566.359 1638.08 551.216C1635.43 550.089 1632.81 548.962 1630.11 547.836C1568.95 521.741 1497.88 460.762 1436.48 404.561C1427.16 396.043 1417.62 387.255 1408.4 378.737C1353.08 327.764 1295.87 275.033 1235.83 230.866C1167.82 180.794 1105.84 149.201 1046.29 134.193C1026.67 129.235 1007.22 126.757 988.499 126.712C988.455 126.712 988.409 126.712 988.364 126.712C970.541 126.712 952.762 128.965 935.523 133.427C903.656 141.72 872.824 157.404 841.363 181.47C782.94 226.134 730.683 293.917 680.182 359.447C634.903 418.172 588.092 478.925 536.286 524.174C401.752 641.669 229.994 634.593 104.597 629.41C15.8373 625.76 -129.859 528.591 -270.785 434.577C-327.452 396.809 -380.924 361.115 -430.57 331.505L-431.425 332.947C-381.869 362.557 -328.352 398.207 -271.73 435.974C-130.624 530.078 15.2973 627.382 104.507 631.078C130.928 632.114 160.094 633.286 190.926 633.286Z" fill="url(#paint21_linear_210_1987)" fill-opacity="0.06"/>
<path d="M252.679 656.541C281.845 656.541 311.687 654.919 341.573 650.682C382.352 644.914 420.296 634.548 454.323 619.9C493.122 603.18 528.589 580.195 559.736 551.576C612.038 503.487 658.848 438.408 704.083 375.447C753.819 306.266 805.31 234.741 863.327 187.239C928.186 134.193 995.116 117.112 1067.9 135.049C1202.34 168.175 1319.14 280.216 1432.07 388.517C1439.23 395.367 1446.34 402.218 1453.41 408.978C1514.26 467.117 1584.56 530.799 1644.38 562.528C1647.76 564.33 1651.09 566.088 1654.42 567.891C1689.8 586.775 1723.24 604.577 1760.73 612.87C1779.46 617.016 1797.78 615.078 1815.19 607.101C1831.13 599.8 1846.25 587.766 1861.46 570.235C1892.16 534.9 1917.46 482.756 1936.09 441.247C1944.82 421.823 1953.51 402.173 1961.97 383.199C2026.43 237.941 2087.28 100.752 2182.07 -12.5515C2259.49 -105.123 2397.22 -185.841 2530.45 -108.638C2657.6 -34.9958 2696.98 32.5174 2738.71 104.042C2744.78 114.408 2751.04 125.179 2757.56 135.86C2796.72 200.219 2815.09 268.093 2834.49 339.932C2840.29 361.475 2846.32 383.739 2852.9 405.733L2854.56 405.237C2847.99 383.244 2841.96 360.98 2836.15 339.482C2816.71 267.507 2798.34 199.543 2759.05 135.004C2752.52 124.278 2746.27 113.551 2740.24 103.185C2698.38 31.4808 2658.86 -36.2127 2531.35 -110.126C2501.5 -127.387 2469.64 -137.483 2436.6 -140.097C2405.86 -142.53 2374.17 -138.519 2342.44 -128.153C2283.97 -109.044 2226.54 -68.3919 2180.76 -13.6783C2085.84 99.8052 2024.9 237.085 1960.4 382.477C1951.98 401.451 1943.25 421.101 1934.52 440.526C1915.93 481.899 1890.68 533.909 1860.16 569.063C1828.83 605.163 1796.43 618.909 1761.14 611.112C1723.91 602.864 1690.56 585.107 1655.27 566.314C1651.94 564.556 1648.61 562.753 1645.24 560.95C1585.6 529.312 1515.43 465.72 1454.67 407.671C1447.6 400.911 1440.49 394.105 1433.33 387.255C1377.88 334.073 1320.54 279.089 1260.04 233.029C1191.4 180.794 1128.71 148.209 1068.39 133.336C1048.5 128.424 1028.83 126.08 1009.92 126.351C991.875 126.621 973.916 129.235 956.543 134.193C924.496 143.342 893.664 160.243 862.292 185.887C804.05 233.479 752.558 305.139 702.732 374.41C657.498 437.281 610.777 502.27 558.611 550.269C431.503 667.223 268.072 661.454 124.851 646.897C34.3366 637.703 -118.157 528.095 -265.609 422.138C-324.032 380.134 -379.213 340.518 -430.345 307.077L-431.29 308.564C-380.158 341.96 -325.022 381.621 -266.599 423.58C-118.967 529.672 33.7065 639.415 124.716 648.654C164.145 652.71 207.624 656.541 252.679 656.541Z" fill="url(#paint22_linear_210_1987)" fill-opacity="0.06"/>
<path d="M300.344 681.014C321.499 681.014 342.833 679.978 364.078 677.454C404.992 672.631 443.07 662.716 477.233 647.979C515.986 631.258 551.274 607.642 582.105 577.806C634.632 527.014 681.307 457.698 726.407 390.68C775.512 317.714 826.329 242.268 884.211 191.836C948.935 135.41 1016.27 116.661 1090.04 134.418C1226.29 167.229 1348.8 289.591 1456.92 397.576C1461.82 402.488 1466.73 407.356 1471.59 412.223C1530.87 471.309 1599.15 537.515 1659.42 575.778C1662.88 577.987 1666.35 580.195 1669.77 582.358C1705.64 605.253 1739.49 626.886 1777.75 637.793C1797.15 643.337 1816.05 642.435 1834.01 635.044C1850.21 628.419 1866.24 616.25 1881.63 598.899C1913.09 563.475 1938.79 510.248 1957.65 467.883C1970.25 439.58 1982.63 410.961 1994.65 383.244C2054.33 245.513 2110.68 115.399 2196.52 5.16094C2270.56 -89.7091 2402.21 -173.537 2529.72 -97.2356C2647.2 -26.9732 2686.4 40.8556 2727.95 112.695C2733.3 121.935 2738.84 131.534 2744.51 141.044C2783.63 206.664 2804.01 275.71 2825.57 348.811C2831.83 370.039 2838.31 392.032 2845.29 413.711L2847 413.17C2840.07 391.492 2833.59 369.543 2827.33 348.316C2805.72 275.124 2785.34 205.988 2746.09 140.142C2740.42 130.633 2734.88 121.078 2729.52 111.794C2687.89 39.7739 2648.55 -28.2802 2530.67 -98.7679C2501.55 -116.21 2470.63 -126.17 2438.76 -128.333C2409.23 -130.361 2378.9 -125.764 2348.61 -114.632C2320.34 -104.221 2292.39 -88.312 2265.65 -67.2648C2240.22 -47.2542 2216.5 -23.2325 2195.17 4.12436C2156.01 54.4213 2120.63 111.478 2083.95 183.724C2051.54 247.496 2023.14 313.117 1993.03 382.613C1981.01 410.33 1968.63 438.949 1956.03 467.252C1937.22 509.527 1911.61 562.573 1880.32 597.817C1848.14 634.052 1814.79 646.582 1778.29 636.171C1740.3 625.309 1706.54 603.766 1670.8 580.961C1667.38 578.753 1663.92 576.545 1660.45 574.381C1600.32 536.208 1532.13 470.092 1472.94 411.052C1468.08 406.184 1463.17 401.317 1458.27 396.404C1402.77 340.969 1345.34 283.642 1284.35 235.643C1215.08 181.155 1151.7 147.488 1090.54 132.796C1070.37 127.929 1050.48 125.765 1031.35 126.306C1013.12 126.802 995.025 129.821 977.517 135.23C945.29 145.235 914.368 163.353 883.086 190.619C825.023 241.232 774.162 316.767 724.967 389.824C679.912 456.751 633.281 525.977 580.89 576.635C457.788 695.662 298.679 689.307 145.105 664.699C52.8349 649.917 -106.455 527.87 -260.433 409.834C-320.611 363.684 -377.503 320.147 -430.165 282.965L-431.2 284.453C-378.539 321.59 -321.691 365.171 -261.513 411.277C-107.31 529.447 52.1149 651.629 144.88 666.502C192.14 673.938 245.612 681.014 300.344 681.014Z" fill="url(#paint23_linear_210_1987)" fill-opacity="0.06"/>
<path d="M341.168 706.297C356.247 706.297 371.415 705.666 386.538 704.224C427.632 700.348 465.845 690.883 500.098 676.056C538.806 659.29 573.914 635.043 604.521 604.036C657.182 550.629 703.587 477.167 748.507 406.093C797.028 329.341 847.169 249.974 904.961 196.477C969.595 136.671 1037.38 116.165 1112.19 133.741C1250.23 166.236 1373.15 294.142 1481.63 406.994L1489.77 415.467C1554.68 482.935 1617.69 547.023 1674.45 589.028C1677.64 591.371 1680.84 593.76 1683.99 596.103C1720.67 623.325 1755.29 649.059 1794.76 662.76C1814.79 669.701 1834.28 669.836 1852.82 663.076C1869.52 656.992 1885.99 645.093 1901.79 627.652C1934.11 592.092 1960.17 537.829 1979.26 494.563C1995.32 458.103 2010.94 421.011 2026.02 385.136C2081.2 254.03 2133.32 130.181 2211.06 22.872C2285.01 -79.164 2407.34 -161.37 2528.96 -85.9693C2636.8 -19.1321 2675.96 49.3275 2717.37 121.798C2721.92 129.73 2726.6 137.978 2731.37 146.091C2770.53 213.198 2793.03 283.551 2816.84 358.004C2823.5 378.826 2830.39 400.369 2837.59 421.597L2839.39 420.966C2832.19 399.738 2825.3 378.195 2818.64 357.419C2794.79 282.875 2772.28 212.432 2733.03 145.144C2728.26 136.987 2723.58 128.784 2719.04 120.852C2677.49 48.1558 2638.24 -20.4842 2529.95 -87.5918C2501.5 -105.214 2471.57 -115.039 2440.97 -116.842C2412.65 -118.509 2383.71 -113.281 2354.86 -101.338C2328.13 -90.296 2301.66 -73.5754 2276.23 -51.6268C2252.33 -31.0304 2229.91 -6.33262 2209.53 21.7904C2174.55 70.0592 2141.38 126.711 2108.07 195.035C2078.28 256.104 2050.87 321.318 2024.31 384.415C2009.23 420.29 1993.61 457.381 1977.54 493.842C1958.51 536.973 1932.58 591.056 1900.44 626.39C1867.41 662.76 1833.06 674.073 1795.43 661.003C1756.23 647.392 1721.71 621.748 1685.16 594.616C1681.97 592.273 1678.81 589.884 1675.57 587.54C1618.91 545.626 1555.98 481.628 1491.12 414.205L1482.98 405.732C1427.43 347.954 1370 288.193 1308.52 238.121C1238.62 181.244 1174.52 146.496 1112.59 131.939C1092.16 127.116 1071.95 125.088 1052.64 125.899C1034.23 126.666 1015.96 130.046 998.356 135.95C965.904 146.811 934.938 166.191 903.656 195.08C845.683 248.712 795.452 328.214 746.887 405.056C702.057 475.995 655.652 549.367 603.17 602.683C478.313 729.372 311.777 713.959 165.36 682.185C71.3344 661.769 -94.7066 527.193 -255.302 397.079C-317.28 346.827 -375.838 299.415 -430.03 258.537L-431.155 260.07C-376.963 300.902 -318.45 348.359 -256.472 398.566C-95.7418 528.86 70.4792 663.571 164.955 684.033C214.691 694.849 277.029 706.297 341.168 706.297Z" fill="url(#paint24_linear_210_1987)" fill-opacity="0.06"/>
<path d="M377.941 732.077C466.116 732.077 554.38 707.379 626.891 630.266C679.597 574.246 725.732 496.682 770.337 421.687C818.272 341.104 867.828 257.727 925.576 201.21C990.165 137.979 1058.44 115.715 1134.33 133.156C1274.22 165.29 1397.5 299.01 1506.29 417L1513.94 425.293C1572.86 489.201 1633.8 555.272 1689.48 602.279C1692.18 604.532 1694.84 606.785 1697.49 609.084C1735.17 640.993 1770.77 671.144 1811.77 687.774C1824.02 692.732 1835.67 695.03 1846.79 695.03C1914.71 695.03 1962.47 609.084 2000.81 521.29C2020.08 477.167 2038.49 432.008 2056.27 388.337C2107.22 263.225 2155.29 145.1 2225.55 40.675C2253.86 -1.41937 2300.54 -57.6203 2361.97 -86.1489C2419.14 -112.695 2475.08 -108.819 2528.19 -74.5662C2626.54 -11.2444 2665.74 58.2068 2707.24 131.759C2710.84 138.114 2714.54 144.694 2718.27 151.229C2757.56 220.049 2782.28 291.889 2808.43 367.92C2815.36 388.111 2822.56 408.978 2829.94 429.575L2831.79 428.899C2824.4 408.347 2817.2 387.48 2810.27 367.289C2784.08 291.123 2759.37 219.238 2719.98 150.238C2716.29 143.748 2712.56 137.168 2708.95 130.813C2667.32 57.035 2627.98 -12.6415 2529.28 -76.2788C2501.55 -94.1261 2472.61 -103.906 2443.22 -105.258C2416.17 -106.52 2388.53 -100.706 2361.12 -87.9967C2335.91 -76.2788 2310.89 -58.747 2286.81 -35.9422C2264.44 -14.7598 2243.28 10.6591 2223.84 39.5032C2192.24 86.465 2162.04 141.179 2131.43 206.754C2104.11 265.343 2078.82 327.448 2054.38 387.525C2036.6 431.197 2018.19 476.356 1998.97 520.434C1954.72 621.748 1897.97 720.585 1812.45 685.882C1771.72 669.341 1736.25 639.325 1698.71 607.507C1696.05 605.253 1693.35 602.955 1690.7 600.701C1635.11 553.785 1574.21 487.758 1515.34 423.896L1507.69 415.603C1452.15 355.391 1394.76 293.106 1332.82 240.916C1262.29 181.47 1197.48 145.595 1134.74 131.173C1113.99 126.396 1093.55 124.548 1073.97 125.63C1055.34 126.666 1036.89 130.452 1019.15 136.807C986.474 148.57 955.372 169.166 924.135 199.768C866.208 256.465 816.607 339.932 768.581 420.651C724.022 495.555 677.977 573.029 625.405 628.869C498.882 763.4 323.885 737.44 185.57 699.762C89.8337 673.713 -83.0042 526.563 -250.17 384.235C-313.904 329.972 -374.128 278.684 -429.895 234.201L-431.11 235.733C-375.388 280.216 -315.165 331.459 -251.431 385.722C-84.1294 528.185 88.8884 675.47 185.074 701.655C244.802 717.97 311.372 732.077 377.941 732.077Z" fill="url(#paint25_linear_210_1987)" fill-opacity="0.06"/>
<path d="M412.463 758.082C418.809 758.082 425.156 757.947 431.502 757.632C472.956 755.649 511.44 747.086 545.827 732.123C584.491 715.312 619.283 689.848 649.26 656.452C701.921 597.862 747.696 516.288 791.941 437.372C839.336 352.913 888.352 265.524 946.009 205.898C1010.55 139.196 1079.37 115.129 1156.39 132.391C1298.12 164.164 1424.46 307.078 1526.01 421.913C1535.01 432.099 1544.1 442.42 1552.92 452.47C1603.33 509.753 1655.45 568.973 1704.42 615.439C1706.4 617.332 1708.39 619.225 1710.41 621.118C1747.54 656.407 1785.94 692.913 1828.74 712.653C1852.51 723.605 1875.64 724.957 1897.47 716.574C1921.73 707.29 1944.6 686.468 1967.37 652.982C1985.11 626.887 2002.57 593.491 2022.33 547.836C2044.56 496.458 2065.36 443.456 2085.48 392.123C2130.31 277.873 2176.67 159.748 2239.95 58.2074C2291.17 -23.9532 2352.03 -76.1881 2411.3 -88.8525C2450.78 -97.2803 2489.8 -88.7172 2527.38 -63.4336C2616.41 -3.3567 2655.93 67.717 2697.75 142.982C2700.22 147.399 2702.7 151.861 2705.17 156.322C2744.74 227.171 2773.09 304.329 2800.5 378.918C2807.57 398.117 2814.86 417.948 2822.29 437.507L2824.18 436.786C2816.75 417.271 2809.46 397.396 2802.44 378.197C2774.98 303.518 2746.58 226.314 2706.97 155.331C2704.5 150.869 2702.02 146.452 2699.55 141.991C2678.44 103.997 2658.5 68.1226 2632.12 33.1942C2602.24 -6.37632 2569.33 -37.6091 2528.64 -65.011C2490.61 -90.6552 2451 -99.3084 2410.99 -90.7453C2379.26 -83.9399 2347.43 -66.4081 2316.42 -38.6006C2288.79 -13.7677 2262.5 18.4566 2238.33 57.2158C2209.88 102.871 2182.43 155.691 2154.43 218.698C2129.45 274.944 2106.18 334.164 2083.72 391.492C2063.6 442.78 2042.81 495.781 2020.57 547.115C1991.54 614.223 1951.21 693.95 1896.84 714.726C1875.55 722.884 1852.96 721.577 1829.69 710.85C1787.15 691.245 1748.89 654.875 1711.9 619.676C1709.92 617.783 1707.94 615.89 1705.91 613.997C1657.03 567.576 1607.25 511.015 1554.54 451.163C1545.72 441.158 1536.58 430.792 1527.63 420.606C1478.7 365.262 1417.8 296.397 1354.47 241.593C1284.35 180.93 1219.76 144.559 1156.93 130.453C1135.86 125.72 1115.11 124.008 1095.35 125.405C1076.49 126.712 1057.86 130.858 1039.99 137.754C1007.04 150.418 975.851 172.277 944.659 204.546C886.776 264.352 837.716 351.831 790.275 436.426C746.076 515.206 700.346 596.691 647.82 655.1C521.027 796.166 345.083 762.499 205.958 717.43C108.512 685.476 -71.2574 525.662 -245.175 371.076C-310.619 312.937 -372.418 257.998 -429.626 209.909L-430.931 211.487C-373.723 259.53 -311.97 314.424 -246.525 372.608C-72.4725 527.33 107.476 687.279 205.328 719.368C257.629 736.359 334.281 758.082 412.463 758.082Z" fill="url(#paint26_linear_210_1987)" fill-opacity="0.06"/>
<path d="M444.78 784.537C447.841 784.537 450.901 784.492 453.962 784.447C495.641 783.41 534.214 775.253 568.647 760.2C607.265 743.344 641.923 717.249 671.629 682.726C724.201 621.613 769.571 536.072 813.455 453.37C860.311 364.99 908.786 273.59 966.444 210.855C1030.99 140.592 1100.39 114.768 1178.53 131.894C1321.98 163.262 1450.39 314.738 1544.14 425.293C1559.85 443.816 1575.7 462.745 1591 481.088C1635.29 534.134 1677.15 584.205 1719.46 628.779L1722.97 632.474C1761.27 672.856 1800.88 714.635 1845.76 737.71C1870.56 750.465 1894.68 752.763 1917.46 744.516C1942.17 735.592 1965.44 714.815 1988.53 680.968C2006.67 654.423 2024.26 620.666 2043.93 574.651C2069.27 515.791 2092.45 454.317 2114.82 394.871C2155.74 286.3 2198 174.078 2254.49 76.0986C2289.87 14.7147 2347.16 -61.7222 2419.18 -77.5413C2455.37 -85.4735 2491.51 -76.8653 2526.66 -51.9422C2606.6 4.66437 2648.64 81.7322 2689.28 156.321L2692.08 161.414C2732.18 234.967 2763.42 314.784 2793.57 391.942C2800.41 409.473 2807.53 427.591 2814.64 445.438L2816.57 444.672C2809.46 426.825 2802.39 408.707 2795.51 391.221C2765.31 313.972 2734.07 234.11 2693.88 160.423L2691.08 155.33C2670.7 117.923 2649.63 79.2534 2624.07 43.649C2595.39 3.71791 2563.93 -28.1458 2527.88 -53.6999C2492.23 -78.9836 2455.5 -87.7269 2418.69 -79.6596C2388.08 -72.9443 2357.38 -54.6464 2327.45 -25.2164C2301.3 0.517998 2276.09 34.2295 2252.6 74.9718C2196.02 173.132 2153.71 285.444 2112.8 394.06C2090.43 453.461 2067.25 514.89 2041.95 573.75C2022.33 619.63 2004.82 653.296 1986.77 679.707C1963.91 713.148 1941 733.699 1916.69 742.443C1894.46 750.465 1870.92 748.211 1846.66 735.727C1802.1 712.832 1762.62 671.189 1724.45 630.942L1720.94 627.246C1678.72 582.718 1636.86 532.647 1592.58 479.646C1577.27 461.303 1561.43 442.329 1545.72 423.805C1489.91 357.96 1434.82 294.457 1375.04 241.456C1305.73 179.982 1241.59 143.431 1178.94 129.73C1157.51 125.043 1136.54 123.511 1116.51 125.179C1097.42 126.756 1078.61 131.308 1060.6 138.699C1027.39 152.31 996.06 175.385 964.868 209.367C907.031 272.329 858.465 363.818 811.565 452.334C767.77 534.945 722.445 620.396 670.009 681.329C541.281 830.913 355.03 783.68 226.122 735.096C127.01 697.464 -59.6451 524.94 -240.135 358.095C-307.334 295.99 -370.798 237.31 -429.536 185.661L-430.931 187.238C-372.193 238.842 -308.729 297.522 -241.575 359.627C-60.9502 526.607 125.841 699.311 225.357 737.034C266.001 752.358 302.369 763.58 336.531 771.332C375.015 780.12 411.338 784.537 444.78 784.537Z" fill="url(#paint27_linear_210_1987)" fill-opacity="0.06"/>
<path d="M475.522 811.218C475.837 811.218 476.107 811.218 476.377 811.218C518.236 811.128 556.945 803.376 591.468 788.278C630.086 771.377 664.563 744.651 694.045 708.957C746.481 645.364 791.356 555.948 834.791 469.505C881.151 377.249 929.086 281.794 986.744 215.903C1051.33 142.08 1121.28 114.408 1200.63 131.173C1334.67 159.972 1452.78 293.827 1562.28 428.448C1584.02 455.174 1605.85 482.801 1626.92 509.527C1662.07 554.1 1698.48 600.205 1734.49 641.939L1735.26 642.841C1774.78 688.631 1815.64 735.998 1862.77 762.589C1888.52 777.101 1913.59 780.391 1937.26 772.324C1962.42 763.76 1986.05 742.984 2009.55 708.776C2028 681.87 2045.78 647.708 2065.49 601.242C2093.31 535.892 2118.2 466.937 2142.24 400.235C2179.68 296.306 2218.44 188.862 2268.98 93.7661C2291.71 50.9957 2315.7 15.842 2340.19 -10.6135C2368.72 -41.3956 2397.89 -60.2794 2426.88 -66.7243C2459.91 -74.0705 2493.22 -65.2821 2525.9 -40.6744C2597.19 13.0928 2640.63 94.5774 2678.93 166.507C2720.34 244.251 2755.13 328.305 2788.8 409.609C2794.74 423.941 2800.86 438.769 2806.99 453.371L2809.01 452.515C2802.93 437.912 2796.77 423.085 2790.83 408.753C2757.16 327.403 2722.32 243.305 2680.87 165.471C2658.95 124.323 2638.87 87.4114 2614.88 52.483C2587.29 12.2364 2558.62 -18.816 2527.25 -42.4321C2494.03 -67.4454 2460.14 -76.369 2426.47 -68.8876C2397.04 -62.3526 2367.46 -43.2434 2338.66 -12.1458C2314.04 14.4448 2289.96 49.7338 2267.14 92.6844C2216.5 187.915 2177.75 295.449 2140.25 399.468C2116.22 466.17 2091.37 535.081 2063.56 600.386C2043.89 646.716 2026.2 680.789 2007.79 707.515C1984.61 741.316 1961.3 761.822 1936.63 770.205C1913.54 778.092 1889.06 774.847 1863.89 760.651C1817.08 734.24 1776.35 687.008 1736.97 641.353L1736.2 640.452C1700.24 598.763 1663.87 552.658 1628.72 508.13C1607.65 481.404 1585.82 453.776 1564.08 427.006C1514.66 366.253 1456.87 296.801 1395.84 241.367C1327.29 179.127 1263.64 142.35 1201.22 128.965C1179.48 124.368 1158.14 123.016 1137.89 124.999C1118.58 126.892 1099.54 131.849 1081.4 139.736C1047.91 154.294 1016.45 178.676 985.213 214.37C927.376 280.486 879.35 376.033 832.945 468.424C789.556 554.776 744.726 644.057 692.47 707.469C636.973 774.802 565.317 808.379 476.018 808.379C409.538 808.379 333.291 789.765 246.558 752.628C145.736 709.317 -47.7166 524.039 -234.822 344.845C-303.777 278.819 -368.907 216.443 -429.175 161.279L-430.66 162.902C-370.392 218.021 -305.308 280.396 -236.353 346.422C-49.1121 525.751 144.52 711.165 245.702 754.656C334.281 792.74 409.538 811.218 475.522 811.218Z" fill="url(#paint28_linear_210_1987)" fill-opacity="0.06"/>
<path d="M505.183 838.034C544.792 838.034 581.475 830.733 614.287 816.311C652.861 799.365 687.248 772.053 716.414 735.142C768.626 669.116 813.096 575.823 856.035 485.641C901.9 389.373 949.34 289.771 1007.04 220.68C1071.68 143.252 1142.25 113.777 1222.77 130.543C1357.98 158.666 1473.61 294.729 1580.42 431.738C1607.2 466.081 1633.89 502.001 1659.64 536.704C1688.81 576.004 1718.96 616.611 1749.48 655.19C1787.33 703.008 1830.18 757.271 1879.74 787.557C1906.43 803.872 1932.44 808.154 1957.06 800.222C1970.3 795.94 1983.49 788.053 1996.18 776.696C2007.7 766.375 2019.27 752.899 2030.52 736.629C2049.06 709.768 2067.56 674.209 2087.05 627.923C2117.3 556.174 2143.68 479.421 2169.15 405.193C2203.27 305.951 2238.51 203.329 2283.43 111.434C2305.53 66.2745 2328.4 29.4532 2351.4 2.09638C2378.81 -30.4884 2406.8 -50.1385 2434.62 -56.2678C2464.64 -62.893 2495.07 -53.8341 2525.13 -29.4068C2583.11 17.7804 2628.16 99.0847 2665.83 171.601C2710.75 258.088 2751.4 351.38 2790.74 441.608C2793.62 448.189 2796.45 454.769 2799.33 461.349L2801.4 460.447C2798.52 453.867 2795.69 447.287 2792.81 440.707C2753.47 350.434 2712.82 257.141 2667.86 170.564C2630.1 97.8678 2584.91 16.2931 2526.62 -31.1645C2496.01 -56.0425 2464.91 -65.2366 2434.21 -58.4762C2405.9 -52.2567 2377.5 -32.3363 2349.78 0.654173C2326.64 28.1462 2303.69 65.1027 2281.5 110.442C2236.49 202.473 2201.2 305.185 2167.08 404.472C2141.6 478.655 2115.23 555.362 2085.03 627.022C2057.93 691.38 2015.08 779.129 1956.43 798.058C1932.49 805.765 1907.1 801.619 1880.95 785.619C1831.76 755.513 1789 701.476 1751.28 653.793C1720.81 615.259 1690.65 574.652 1661.49 535.352C1635.69 500.604 1609.05 464.684 1582.22 430.341C1534.38 369.002 1478.16 298.74 1416.41 241.322C1348.62 178.226 1285.43 141.314 1223.23 128.379C1201.13 123.782 1179.57 122.611 1159.04 124.864C1139.51 127.027 1120.29 132.345 1101.92 140.728C1068.17 156.187 1036.57 181.876 1005.33 219.283C947.45 288.599 899.964 388.292 854.009 484.694C811.07 574.787 766.691 667.944 714.659 733.79C617.798 856.287 471.291 868.231 266.676 770.431C164.144 721.396 -36.1944 523.318 -229.917 331.73C-300.627 261.828 -367.377 195.802 -429.175 137.168L-430.705 138.79C-368.952 197.38 -302.202 263.406 -231.492 333.308C-37.6348 525.031 162.839 723.244 265.686 772.459C355.211 815.275 431.457 836.727 498.792 838.034C500.953 838.034 503.068 838.034 505.183 838.034Z" fill="url(#paint29_linear_210_1987)" fill-opacity="0.06"/>
</g>
</g>
<g filter="url(#filter0_f_210_1987)">
<path d="M677.945 432.945C702.235 408.654 702.235 369.272 677.945 344.981C653.654 320.691 614.272 320.691 589.982 344.981C565.691 369.272 565.691 408.654 589.982 432.945C614.272 457.235 653.654 457.235 677.945 432.945Z" fill="url(#paint30_linear_210_1987)"/>
</g>
</g>
<defs>
<filter id="filter0_f_210_1987" x="471.764" y="226.764" width="324.399" height="324.398" filterUnits="userSpaceOnUse" color-interpolation-filters="sRGB">
<feFlood flood-opacity="0" result="BackgroundImageFix"/>
<feBlend mode="normal" in="SourceGraphic" in2="BackgroundImageFix" result="shape"/>
<feGaussianBlur stdDeviation="50" result="effect1_foregroundBlur_210_1987"/>
</filter>
<linearGradient id="paint0_linear_210_1987" x1="953" y1="0" x2="953" y2="998" gradientUnits="userSpaceOnUse">
<stop stop-color="#2870FE"/>
<stop offset="1" stop-color="#3A91FF"/>
</linearGradient>
<linearGradient id="paint1_linear_210_1987" x1="1734.5" y1="371.5" x2="1508" y2="371.5" gradientUnits="userSpaceOnUse">
<stop stop-color="#1668FF"/>
<stop offset="1" stop-color="#0C64FF"/>
</linearGradient>
<linearGradient id="paint2_linear_210_1987" x1="187.703" y1="1074.8" x2="187.703" y2="386.371" gradientUnits="userSpaceOnUse">
<stop stop-color="#0170FF"/>
<stop offset="1" stop-color="#0F68FA"/>
</linearGradient>
<linearGradient id="paint3_linear_210_1987" x1="2597.65" y1="-447" x2="2597.65" y2="1473" gradientUnits="userSpaceOnUse">
<stop stop-color="#2987FF"/>
<stop offset="1" stop-color="#0755F0"/>
</linearGradient>
<linearGradient id="paint4_linear_210_1987" x1="1293.24" y1="-370.046" x2="1293.24" y2="745.012" gradientUnits="userSpaceOnUse">
<stop stop-color="white"/>
<stop offset="1" stop-color="white" stop-opacity="0"/>
</linearGradient>
<linearGradient id="paint5_linear_210_1987" x1="1287.3" y1="-356.382" x2="1287.29" y2="720.764" gradientUnits="userSpaceOnUse">
<stop stop-color="white"/>
<stop offset="1" stop-color="white" stop-opacity="0"/>
</linearGradient>
<linearGradient id="paint6_linear_210_1987" x1="1281.44" y1="-342.923" x2="1281.44" y2="696.518" gradientUnits="userSpaceOnUse">
<stop stop-color="white"/>
<stop offset="1" stop-color="white" stop-opacity="0"/>
</linearGradient>
<linearGradient id="paint7_linear_210_1987" x1="1275.64" y1="-329.566" x2="1275.64" y2="672.271" gradientUnits="userSpaceOnUse">
<stop stop-color="white"/>
<stop offset="1" stop-color="white" stop-opacity="0"/>
</linearGradient>
<linearGradient id="paint8_linear_210_1987" x1="1269.86" y1="-316.345" x2="1269.86" y2="648.069" gradientUnits="userSpaceOnUse">
<stop stop-color="white"/>
<stop offset="1" stop-color="white" stop-opacity="0"/>
</linearGradient>
<linearGradient id="paint9_linear_210_1987" x1="1264.3" y1="-303.038" x2="1264.3" y2="623.821" gradientUnits="userSpaceOnUse">
<stop stop-color="white"/>
<stop offset="1" stop-color="white" stop-opacity="0"/>
</linearGradient>
<linearGradient id="paint10_linear_210_1987" x1="1258.72" y1="-290.024" x2="1258.72" y2="599.62" gradientUnits="userSpaceOnUse">
<stop stop-color="white"/>
<stop offset="1" stop-color="white" stop-opacity="0"/>
</linearGradient>
<linearGradient id="paint11_linear_210_1987" x1="1253.42" y1="-277.259" x2="1253.42" y2="575.418" gradientUnits="userSpaceOnUse">
<stop stop-color="white"/>
<stop offset="1" stop-color="white" stop-opacity="0"/>
</linearGradient>
<linearGradient id="paint12_linear_210_1987" x1="1249.2" y1="-264.357" x2="1249.2" y2="551.171" gradientUnits="userSpaceOnUse">
<stop stop-color="white"/>
<stop offset="1" stop-color="white" stop-opacity="0"/>
</linearGradient>
<linearGradient id="paint13_linear_210_1987" x1="1245.44" y1="-251.471" x2="1245.44" y2="526.968" gradientUnits="userSpaceOnUse">
<stop stop-color="white"/>
<stop offset="1" stop-color="white" stop-opacity="0"/>
</linearGradient>
<linearGradient id="paint14_linear_210_1987" x1="1241.7" y1="-238.911" x2="1241.7" y2="528.006" gradientUnits="userSpaceOnUse">
<stop stop-color="white"/>
<stop offset="1" stop-color="white" stop-opacity="0"/>
</linearGradient>
<linearGradient id="paint15_linear_210_1987" x1="1237.94" y1="-226.46" x2="1237.94" y2="537.424" gradientUnits="userSpaceOnUse">
<stop stop-color="white"/>
<stop offset="1" stop-color="white" stop-opacity="0"/>
</linearGradient>
<linearGradient id="paint16_linear_210_1987" x1="1234.28" y1="-213.982" x2="1234.27" y2="549.774" gradientUnits="userSpaceOnUse">
<stop stop-color="white"/>
<stop offset="1" stop-color="white" stop-opacity="0"/>
</linearGradient>
<linearGradient id="paint17_linear_210_1987" x1="1230.38" y1="-201.615" x2="1230.38" y2="564.06" gradientUnits="userSpaceOnUse">
<stop stop-color="white"/>
<stop offset="1" stop-color="white" stop-opacity="0"/>
</linearGradient>
<linearGradient id="paint18_linear_210_1987" x1="1226.78" y1="-189.202" x2="1226.78" y2="579.608" gradientUnits="userSpaceOnUse">
<stop stop-color="white"/>
<stop offset="1" stop-color="white" stop-opacity="0"/>
</linearGradient>
<linearGradient id="paint19_linear_210_1987" x1="1222.86" y1="-176.998" x2="1222.86" y2="596.15" gradientUnits="userSpaceOnUse">
<stop stop-color="white"/>
<stop offset="1" stop-color="white" stop-opacity="0"/>
</linearGradient>
<linearGradient id="paint20_linear_210_1987" x1="1219.13" y1="-164.784" x2="1219.13" y2="613.365" gradientUnits="userSpaceOnUse">
<stop stop-color="white"/>
<stop offset="1" stop-color="white" stop-opacity="0"/>
</linearGradient>
<linearGradient id="paint21_linear_210_1987" x1="1215.39" y1="-152.702" x2="1215.39" y2="633.286" gradientUnits="userSpaceOnUse">
<stop stop-color="white"/>
<stop offset="1" stop-color="white" stop-opacity="0"/>
</linearGradient>
<linearGradient id="paint22_linear_210_1987" x1="1211.64" y1="-140.787" x2="1211.64" y2="656.541" gradientUnits="userSpaceOnUse">
<stop stop-color="white"/>
<stop offset="1" stop-color="white" stop-opacity="0"/>
</linearGradient>
<linearGradient id="paint23_linear_210_1987" x1="1207.9" y1="-128.799" x2="1207.9" y2="681.014" gradientUnits="userSpaceOnUse">
<stop stop-color="white"/>
<stop offset="1" stop-color="white" stop-opacity="0"/>
</linearGradient>
<linearGradient id="paint24_linear_210_1987" x1="1204.12" y1="-117.144" x2="1204.12" y2="706.297" gradientUnits="userSpaceOnUse">
<stop stop-color="white"/>
<stop offset="1" stop-color="white" stop-opacity="0"/>
</linearGradient>
<linearGradient id="paint25_linear_210_1987" x1="1200.34" y1="-105.427" x2="1200.34" y2="732.077" gradientUnits="userSpaceOnUse">
<stop stop-color="white"/>
<stop offset="1" stop-color="white" stop-opacity="0"/>
</linearGradient>
<linearGradient id="paint26_linear_210_1987" x1="1196.62" y1="-93.9433" x2="1196.62" y2="758.082" gradientUnits="userSpaceOnUse">
<stop stop-color="white"/>
<stop offset="1" stop-color="white" stop-opacity="0"/>
</linearGradient>
<linearGradient id="paint27_linear_210_1987" x1="1192.82" y1="-82.567" x2="1192.82" y2="784.537" gradientUnits="userSpaceOnUse">
<stop stop-color="white"/>
<stop offset="1" stop-color="white" stop-opacity="0"/>
</linearGradient>
<linearGradient id="paint28_linear_210_1987" x1="1189.18" y1="-71.4503" x2="1189.18" y2="811.218" gradientUnits="userSpaceOnUse">
<stop stop-color="white"/>
<stop offset="1" stop-color="white" stop-opacity="0"/>
</linearGradient>
<linearGradient id="paint29_linear_210_1987" x1="1185.35" y1="-60.6273" x2="1185.35" y2="838.034" gradientUnits="userSpaceOnUse">
<stop stop-color="white"/>
<stop offset="1" stop-color="white" stop-opacity="0"/>
</linearGradient>
<linearGradient id="paint30_linear_210_1987" x1="589.982" y1="344.981" x2="677.945" y2="432.945" gradientUnits="userSpaceOnUse">
<stop stop-color="#8FB7EE"/>
<stop offset="1" stop-color="#4194FE"/>
</linearGradient>
</defs>
</svg>
