<svg width="806" height="632" viewBox="0 0 806 632" fill="none" xmlns="http://www.w3.org/2000/svg">
<path d="M228.244 632C250.749 632 272.611 628.788 293.83 622.365C426.29 583.187 483.516 435.464 490.59 414.911C589.613 161.212 654.557 158 657.129 158C700.21 159.927 772.87 296.731 803.734 408.488L809.764 430.042C813.182 442.262 825.866 449.405 838.103 446L946.154 415.945C958.406 412.537 965.568 399.848 962.145 387.612L956.127 366.098C939.408 306.366 848.102 9.63414 665.488 0H656.486C537.529 0 437.863 113.683 342.698 358.39L342.055 360.317C333.054 386.651 298.331 455.374 248.82 470.146C242.389 472.073 235.959 472.715 228.887 472.715C199.951 472.715 163.942 456.016 124.076 425.187L106.823 411.714C96.8172 403.9 82.3649 405.659 74.5315 415.646L4.89972 504.418C-2.83459 514.277 -1.24304 528.505 8.47766 536.418L25.6965 550.431C94.4979 604.382 162.656 632 228.244 632Z" fill="url(#paint0_linear_396_948)" fill-opacity="0.6"/>
<defs>
<linearGradient id="paint0_linear_396_948" x1="198.347" y1="473.562" x2="568.601" y2="-125.713" gradientUnits="userSpaceOnUse">
<stop stop-color="white"/>
<stop offset="1" stop-color="#EFF7FF"/>
</linearGradient>
</defs>
</svg>
