<svg width="420" height="354" viewBox="0 0 420 354" fill="none" xmlns="http://www.w3.org/2000/svg">
<mask id="mask0_1240_1429" style="mask-type:alpha" maskUnits="userSpaceOnUse" x="0" y="0" width="420" height="355">
<rect y="0.000976562" width="420" height="354" rx="10" fill="url(#paint0_linear_1240_1429)"/>
</mask>
<g mask="url(#mask0_1240_1429)">
<mask id="mask1_1240_1429" style="mask-type:luminance" maskUnits="userSpaceOnUse" x="89" y="-141" width="375" height="626">
<path d="M464 -140L464 484.18L89 484.18L88.9999 -140L464 -140Z" fill="white"/>
</mask>
<g mask="url(#mask1_1240_1429)">
<path d="M137.275 -222.941C176.775 -208.997 217.625 -194.591 252.313 -169.062C289.7 -141.548 314.413 -102.549 321.9 -59.2562C323.813 -48.2207 324.763 -36.7982 324.763 -24.9513C324.763 7.44367 317.613 43.047 303.175 82.9446C294.363 107.275 283.038 130.919 272.088 153.777C263.4 171.915 254.4 190.678 246.725 209.666C242.563 219.952 237.813 233.335 237.813 245.893C237.813 246.018 237.813 246.143 237.813 246.268C237.863 252.534 239.113 258.264 241.538 263.308C244.225 268.9 248.463 273.894 254.15 278.138C265.55 286.652 279.125 292.32 292.263 297.8C294.35 298.674 296.513 299.573 298.613 300.471C316.125 307.912 335.975 316.351 354.613 326.487C394.588 348.246 418.9 379.23 435.888 430.126C451.838 477.913 449.45 555.324 430.55 602.687C397.063 686.614 373.45 700.808 350.625 714.54C344.125 718.448 337.975 722.143 331.688 727.423C318.65 738.359 304.363 734.614 289.238 730.644C283.325 729.096 277.2 727.486 270.938 726.687L270.925 726.812C277.188 727.611 283.3 729.221 289.213 730.769C296.925 732.791 304.213 734.701 311.313 734.764C319.3 734.826 325.8 732.529 331.775 727.523C338.05 722.255 344.2 718.56 350.7 714.653C361.913 707.911 373.5 700.946 386.513 685.141C393.538 676.59 400.3 666.329 407.188 653.745C414.963 639.551 422.638 622.861 430.675 602.737C435.25 591.277 438.938 577.832 441.65 562.764C444.275 548.184 445.863 532.741 446.363 516.875C446.875 500.958 446.275 485.441 444.575 470.76C442.813 455.505 439.925 441.823 436.013 430.101C427.613 404.947 418.025 385.709 405.825 369.581C392.563 352.041 375.838 337.91 354.675 326.4C336.038 316.251 316.175 307.824 298.663 300.372C296.563 299.485 294.4 298.574 292.313 297.7C279.188 292.22 265.613 286.565 254.238 278.051C230.613 260.399 236.725 234.77 246.863 209.716C254.538 190.728 263.525 171.965 272.213 153.826C283.163 130.969 294.5 107.325 303.313 82.982C312.463 57.7027 318.55 34.7828 321.913 12.924C323.813 0.540289 324.825 -11.6063 324.913 -23.1661C325.013 -35.5873 324.038 -47.7339 322.05 -59.2812C318.25 -81.2898 310.15 -102.05 298 -120.988C286.188 -139.401 270.85 -155.617 252.413 -169.174C236.963 -180.547 218.813 -190.734 196.938 -200.333C177.163 -209.01 156.913 -216.163 137.338 -223.066L137.275 -222.941Z" fill="url(#paint1_linear_1240_1429)" fill-opacity="0.2"/>
<path d="M144 -222.892C183.862 -204.99 216.712 -188.025 247.412 -163.445C281.525 -136.193 305.387 -96.9945 314.625 -53.0522C324.25 -7.27478 320.462 40.5374 303.362 89.0737C294.212 114.74 281.888 139.582 269.987 163.601C261.75 180.216 253.225 197.394 245.825 214.709C241.463 224.92 236.4 238.253 236.05 250.761C235.875 256.928 236.875 262.596 239 267.589C241.362 273.132 245.213 278.088 250.463 282.345C260.462 290.447 272.413 296.089 283.975 301.557C286.513 302.756 289.125 303.991 291.675 305.227C296.85 307.749 302.062 310.221 307.562 312.842C320.587 319.034 334.05 325.438 347.2 332.492C388.087 354.525 413.125 384.935 430.95 434.158C447.775 480.635 446.175 556.16 427.4 602.499C394.488 683.718 371.238 697.724 348.763 711.269C342.425 715.089 336.425 718.697 330.263 723.79C317 734.738 302.475 731.43 287.1 727.935C281.163 726.587 275.025 725.188 268.75 724.564L268.738 724.714C275 725.351 281.138 726.736 287.075 728.085C302.475 731.58 317.038 734.888 330.363 723.903C336.513 718.822 342.5 715.214 348.838 711.394C359.9 704.728 371.338 697.837 384.138 682.445C391.05 674.13 397.7 664.156 404.463 651.96C412.1 638.203 419.65 622.036 427.537 602.549C437.625 577.682 442.75 544.426 442.75 511.769C442.75 483.506 438.912 455.68 431.1 434.096C426.787 422.174 422.212 411.725 417.137 402.138C411.775 392.013 405.95 383.088 399.35 374.836C385.675 357.758 368.65 343.864 347.287 332.354C334.125 325.301 320.662 318.897 307.637 312.705C302.125 310.083 296.925 307.612 291.75 305.09C289.2 303.854 286.588 302.618 284.05 301.42C272.5 295.965 260.55 290.322 250.563 282.233C228.737 264.543 235.45 239.351 245.963 214.771C253.362 197.469 261.875 180.291 270.112 163.676C282.025 139.657 294.337 114.815 303.5 89.1361C320.6 40.5749 324.4 -7.27484 314.762 -53.0771C310.125 -75.1357 301.95 -95.871 290.475 -114.696C279.025 -133.484 264.562 -149.913 247.5 -163.557C232.612 -175.479 216.137 -186.402 197.125 -196.951C178.3 -207.4 158.875 -216.375 144.062 -223.029L144 -222.892Z" fill="url(#paint2_linear_1240_1429)" fill-opacity="0.2"/>
<path d="M150.725 -222.854C184.875 -203.392 214.05 -182.744 242.513 -157.839C273.65 -130.737 296.063 -92.3501 307.35 -46.8473C320.113 4.61011 318.863 51.0741 303.55 95.2161C294.2 122.181 280.825 148.122 267.913 173.201C260.1 188.356 252.038 204.023 244.925 219.753C240.388 229.802 235.088 242.91 234.3 255.244C234.238 256.317 234.2 257.378 234.2 258.414C234.2 269.824 238.338 279.05 246.8 286.54C255.538 294.28 266.038 299.885 276.188 305.315C279.013 306.826 281.938 308.386 284.775 309.972C294.088 315.165 304.3 320.321 315.125 325.788C323.225 329.871 331.588 334.102 339.838 338.484C381.588 360.643 407.375 390.453 426.038 438.153C443.725 483.332 442.925 556.96 424.263 602.288C391.925 680.822 369.025 694.642 346.888 708.011C340.713 711.744 334.875 715.264 328.838 720.158C315.338 731.106 300.575 728.26 284.938 725.251C278.975 724.103 272.813 722.917 266.538 722.443L266.525 722.605C272.8 723.067 278.963 724.253 284.913 725.401C300.588 728.422 315.388 731.281 328.95 720.283C334.963 715.402 340.8 711.881 346.975 708.149C357.9 701.557 369.188 694.741 381.775 679.761C388.575 671.672 395.1 661.997 401.75 650.175C409.238 636.842 416.663 621.2 424.425 602.35C429 591.24 432.588 578.307 435.1 563.888C437.525 549.969 438.825 535.263 439 520.183C439.163 505.103 438.175 490.41 436.063 476.503C433.875 462.097 430.563 449.176 426.213 438.091C421.663 426.481 416.85 416.245 411.475 406.795C405.85 396.92 399.788 388.181 392.913 380.067C378.825 363.426 361.488 349.769 339.913 338.309C331.663 333.928 323.288 329.708 315.2 325.614C304.388 320.158 294.163 314.99 284.863 309.809C282.025 308.224 279.1 306.663 276.275 305.153C266.125 299.735 255.638 294.117 246.925 286.403C226.9 268.676 234.213 243.921 245.1 219.815C252.2 204.098 260.275 188.431 268.075 173.276C281 148.184 294.363 122.243 303.725 95.2661C307.75 83.6688 310.838 71.7344 312.913 59.8126C314.925 48.2528 316.038 36.3309 316.225 24.3716C316.413 12.8368 315.738 0.877447 314.238 -11.1567C312.8 -22.7041 310.538 -34.7258 307.525 -46.8848C302.013 -69.0931 293.763 -89.8034 283.013 -108.429C271.925 -127.629 258.338 -144.282 242.638 -157.951C214.163 -182.856 184.988 -203.517 150.825 -222.979L150.725 -222.854Z" fill="url(#paint3_linear_1240_1429)" fill-opacity="0.2"/>
<path d="M157.451 -222.804C184.601 -203.105 208.288 -180.372 235.713 -154.044L237.613 -152.222C265.476 -125.669 286.488 -88.131 300.076 -40.6434C307.163 -15.9009 313.463 11.7503 313.463 41.2116C313.463 60.5737 310.738 80.7098 303.726 101.345C294.201 129.383 279.851 156.211 265.963 182.164C258.538 196.058 250.851 210.414 244.013 224.771C239.313 234.645 233.763 247.528 232.538 259.712C231.263 272.383 234.713 282.52 243.113 290.709C250.726 298.124 259.901 303.705 268.788 309.097C271.763 310.908 274.838 312.768 277.838 314.69C289.688 322.293 304.263 329.833 319.701 337.822C323.863 339.982 328.176 342.204 332.426 344.439C374.551 366.547 401.913 396.682 421.126 442.16C439.663 486.053 439.663 557.796 421.126 602.075C389.376 677.926 366.826 691.558 345.026 704.74C339.013 708.373 333.326 711.819 327.438 716.512C313.713 727.473 298.701 725.076 282.813 722.542C276.826 721.593 270.651 720.607 264.363 720.307L264.351 720.495C270.626 720.794 276.813 721.781 282.788 722.729C298.713 725.276 313.751 727.673 327.551 716.662C333.438 711.968 339.113 708.535 345.126 704.903C355.913 698.386 367.051 691.645 379.426 677.077C386.101 669.212 392.513 659.824 399.051 648.377C406.401 635.481 413.688 620.364 421.313 602.15C430.338 580.591 435.313 552.141 435.313 522.018C435.313 521.955 435.313 521.905 435.313 521.843C435.301 507.187 434.126 492.894 431.788 479.374C429.388 465.405 425.863 452.859 421.313 442.085C411.726 419.39 400.326 400.827 386.451 385.31C371.976 369.131 354.351 355.711 332.538 344.264C328.288 342.029 323.976 339.807 319.813 337.647C304.376 329.658 289.801 322.118 277.963 314.528C274.963 312.605 271.888 310.733 268.913 308.935C259.626 303.305 250.863 297.975 243.263 290.572C225.051 272.808 232.951 248.489 244.213 224.858C251.051 210.502 258.726 196.146 266.163 182.251C280.051 156.298 294.401 129.458 303.938 101.408C311.663 78.65 314.763 55.3306 313.413 30.0888C312.288 9.15375 308.113 -13.3417 300.288 -40.6933C293.838 -63.2512 285.513 -83.9365 275.551 -102.15C264.801 -121.812 252.101 -138.702 237.776 -152.347L235.876 -154.169C208.451 -180.497 184.763 -203.242 157.601 -222.942L157.451 -222.804Z" fill="url(#paint4_linear_1240_1429)" fill-opacity="0.2"/>
<path d="M164.162 -222.779C177.712 -210.12 189.625 -196.051 202.237 -181.158C211.725 -169.961 221.525 -158.388 232.687 -146.616C256.887 -121.112 276.55 -84.4105 292.775 -34.4387C303.162 -2.45562 311.787 27.6423 311.787 58.5143C311.787 74.5058 309.475 90.7096 303.887 107.488C294.237 136.474 278.9 164.088 264.075 190.778C257 203.524 249.675 216.694 243.087 229.814C238.225 239.502 232.437 252.173 230.762 264.194C230.437 266.554 230.275 268.826 230.275 271.01C230.275 280.386 233.287 288.238 239.412 294.879C246 302.032 253.662 307.338 261.762 312.943C264.762 315.015 267.862 317.175 270.9 319.409C284.15 329.221 302.637 338.796 322.212 348.945L325.025 350.406C368.112 372.764 396.237 402.288 416.2 446.155C435.925 489.486 436.7 557.884 417.987 601.863C386.85 675.03 364.625 688.475 343.15 701.483C337.55 704.866 331.775 708.374 326.025 712.88C312.062 723.841 296.812 721.906 280.662 719.871C274.662 719.109 268.45 718.323 262.162 718.186L262.162 718.385C268.45 718.523 274.65 719.309 280.65 720.071C296.837 722.118 312.125 724.065 326.162 713.042C331.9 708.536 337.687 705.04 343.275 701.657C364.787 688.637 387.037 675.167 418.2 601.963C427.237 580.741 432 552.878 431.625 523.504C431.437 509.26 430.062 495.391 427.525 482.258C424.912 468.713 421.175 456.554 416.412 446.093C406.4 424.084 394.475 405.921 379.975 390.578C365.137 374.874 347.212 361.691 325.15 350.244L322.337 348.783C302.775 338.647 284.3 329.059 271.062 319.272C268.037 317.025 264.925 314.878 261.925 312.805C253.825 307.2 246.187 301.907 239.612 294.767C232.112 286.627 229.3 276.64 231.025 264.232C232.687 252.235 238.475 239.589 243.325 229.914C249.912 216.794 257.225 203.624 264.3 190.878C279.137 164.176 294.475 136.549 304.125 107.55C308.112 95.5532 310.537 83.6314 311.525 71.1353C312.425 59.7877 312.1 48.2278 310.562 35.8066C307.537 11.4761 299.912 -13.2414 293.012 -34.5135C285.362 -58.0701 277.187 -78.1437 268.037 -95.8704C262.975 -105.67 257.55 -114.808 251.925 -123.035C245.95 -131.761 239.537 -139.75 232.875 -146.766C221.712 -158.526 211.912 -170.098 202.425 -181.296C189.812 -196.189 177.887 -210.258 164.337 -222.929L164.162 -222.779Z" fill="url(#paint5_linear_1240_1429)" fill-opacity="0.2"/>
<path d="M170.888 -222.742C179.863 -211.707 187.425 -199.685 195.438 -186.951C204.95 -171.846 214.775 -156.217 227.788 -141.012C253.3 -111.201 270.613 -69.1936 285.513 -28.2474C286.363 -25.913 287.213 -23.5909 288.063 -21.2815C299.575 10.1897 310.638 40.4374 310.638 72.4329C310.638 85.7779 308.713 99.435 304.1 113.604C294.375 143.452 278.05 171.728 262.263 199.079C255.513 210.764 248.55 222.848 242.213 234.845C237.188 244.357 231.163 256.803 229.038 268.675C228.5 271.721 228.225 274.63 228.225 277.389C228.225 285.765 230.713 292.906 235.75 299.06C241.438 306.014 248.088 311.307 255.125 316.899C258.038 319.209 261.05 321.606 263.988 324.14C276.6 334.976 296.563 345.574 317.638 356.385C361.725 379.005 390.613 407.917 411.288 450.162C422.25 472.558 427.813 501.919 427.813 530.931C427.813 556.398 423.525 581.602 414.85 601.651C384.338 672.121 362.438 685.391 341.263 698.224C335.825 701.52 330.2 704.928 324.6 709.247C310.4 720.207 294.9 718.747 278.5 717.199C272.475 716.625 266.25 716.038 259.95 716.063L259.95 716.288C266.238 716.263 272.463 716.849 278.475 717.424C294.925 718.984 310.45 720.457 324.725 709.434C330.325 705.115 335.938 701.707 341.363 698.424C362.563 685.578 384.5 672.283 415.038 601.775C424.063 580.94 428.625 553.726 427.875 525.164C427.513 511.344 425.938 497.874 423.2 485.129C420.375 472.021 416.425 460.224 411.475 450.1C390.775 407.805 361.863 378.856 317.725 356.21C296.663 345.412 276.713 334.813 264.113 324.003C261.163 321.469 258.15 319.072 255.238 316.762C248.2 311.17 241.563 305.889 235.9 298.948C229.25 290.809 227.075 280.922 229.238 268.738C231.35 256.891 237.375 244.47 242.388 234.97C248.713 222.973 255.688 210.901 262.438 199.216C278.225 171.852 294.563 143.565 304.288 113.704C308.075 102.082 310.175 90.5966 310.725 78.5749C311.213 67.8015 310.425 56.8035 308.325 44.9565C304.413 22.848 296.563 1.38868 288.25 -21.3315C287.4 -23.6409 286.55 -25.9753 285.7 -28.2973C279.325 -45.8118 270.7 -68.6069 260.513 -89.5544C250.25 -110.652 239.588 -127.529 227.95 -141.137C214.95 -156.329 205.125 -171.946 195.613 -187.039C187.6 -199.772 180.025 -211.806 171.038 -222.854L170.888 -222.742Z" fill="url(#paint6_linear_1240_1429)" fill-opacity="0.2"/>
<path d="M177.6 -222.717C183.863 -212.206 188.813 -200.821 194.038 -188.774C201.788 -170.935 209.8 -152.472 222.875 -135.419C243.688 -108.255 258.125 -72.2019 273.413 -34.0395C274.988 -30.1197 276.613 -26.0625 278.225 -22.0553C280.65 -16.0507 283.163 -10.0585 285.6 -4.25366C297.975 25.2077 309.863 53.4955 309.863 84.1303C309.863 95.6152 308.2 107.412 304.263 119.746C294.488 150.368 277.175 179.243 260.438 207.156C254.013 217.867 247.375 228.928 241.3 239.888C236.125 249.226 229.85 261.435 227.288 273.182C224.65 285.229 226.213 295.066 232.05 303.255C236.913 310.071 242.675 315.389 248.763 321.019C251.475 323.528 254.288 326.125 257.05 328.884C268.588 340.456 289.425 351.816 310.238 362.377C355.375 385.272 385.025 413.585 406.363 454.194C427.788 494.966 430.138 559.656 411.7 601.464C381.838 669.212 360.25 682.307 339.363 694.966C334.088 698.162 328.638 701.47 323.175 705.614C308.725 716.587 293 715.589 276.338 714.528C270.3 714.141 264.05 713.754 257.75 713.928L257.763 714.178C264.05 714.003 270.3 714.39 276.325 714.777C293.025 715.838 308.8 716.837 323.325 705.814C328.775 701.682 334.213 698.374 339.488 695.178C349.888 688.874 360.638 682.357 372.388 669.012C378.713 661.822 384.788 653.32 390.95 642.996C397.875 631.399 404.738 617.842 411.913 601.563C420.925 581.103 425.288 554.563 424.175 526.799C423.638 513.404 421.863 500.346 418.913 487.975C415.888 475.292 411.725 463.882 406.563 454.07C385.2 413.423 355.525 385.073 310.338 362.153C289.55 351.604 268.725 340.257 257.213 328.709C254.45 325.938 251.638 323.341 248.925 320.832C242.838 315.214 237.1 309.909 232.25 303.105C226.45 294.978 224.9 285.204 227.525 273.22C230.088 261.51 236.35 249.313 241.513 239.988C247.588 229.04 254.225 217.967 260.65 207.269C277.4 179.343 294.725 150.468 304.5 119.808C318.963 74.4929 302.875 36.1932 285.838 -4.35351C283.4 -10.1459 280.888 -16.1506 278.463 -22.1427C276.85 -26.1499 275.225 -30.2071 273.65 -34.1269C258.363 -72.3018 243.913 -108.367 223.075 -135.569C210.025 -152.609 202.013 -171.047 194.263 -188.874C189.025 -200.933 184.075 -212.318 177.8 -222.842L177.6 -222.717Z" fill="url(#paint7_linear_1240_1429)" fill-opacity="0.2"/>
<path d="M184.312 -222.692C188.575 -212.28 191.55 -201.045 194.687 -189.136C200.012 -168.975 205.512 -148.127 217.975 -129.801C232.712 -108.13 243.925 -80.778 255.8 -51.8285C260.625 -40.0565 265.612 -27.8975 270.962 -15.8383C274.662 -7.48681 278.65 0.764899 282.512 8.72944C296.212 37.0673 309.35 64.2316 309.35 94.4044C309.35 104.516 307.875 114.952 304.462 125.888C294.662 157.234 276.35 186.621 258.637 215.034C252.537 224.821 246.225 234.945 240.412 244.932C235.087 254.082 228.587 266.067 225.562 277.689C222.487 289.536 223.412 299.273 228.387 307.45C232.512 314.228 237.475 319.621 242.725 325.326C245.162 327.973 247.675 330.707 250.15 333.64C260.85 346.311 282.812 358.32 302.875 368.382C349.112 391.577 379.512 419.29 401.475 458.227C423.75 497.725 426.875 560.567 408.587 601.289C379.387 666.328 358.087 679.249 337.487 691.745C332.375 694.841 327.087 698.049 321.787 702.007C307.087 712.967 291.112 712.455 274.212 711.894C268.162 711.694 261.9 711.494 255.587 711.831L255.6 712.093C261.9 711.756 268.15 711.969 274.2 712.156C291.162 712.705 307.175 713.229 321.95 702.206C327.237 698.262 332.525 695.053 337.625 691.957C347.912 685.715 358.537 679.274 370.087 666.341C376.3 659.375 382.262 651.161 388.312 641.224C395.1 630.051 401.812 617.031 408.837 601.389C417.85 581.315 421.987 555.424 420.512 528.472C419.8 515.501 417.825 502.856 414.662 490.871C411.425 478.625 407.062 467.589 401.712 458.089C379.737 419.103 349.287 391.365 303 368.145C282.962 358.096 261.037 346.111 250.362 333.466C247.887 330.532 245.375 327.798 242.937 325.151C237.7 319.459 232.75 314.066 228.637 307.312C223.7 299.198 222.775 289.536 225.837 277.764C228.85 266.179 235.337 254.207 240.662 245.069C246.475 235.082 252.787 224.97 258.887 215.183C276.612 186.758 294.937 157.359 304.737 125.975C308.162 115.015 309.637 104.541 309.637 94.4044C309.637 64.1816 296.487 36.9923 282.775 8.62952C278.925 0.652533 274.937 -7.5866 271.225 -15.9382C265.875 -27.9849 260.887 -40.1564 256.062 -51.9284C244.187 -80.8904 232.962 -108.254 218.212 -129.951C205.787 -148.239 200.287 -169.062 194.962 -189.198C191.812 -201.108 188.85 -212.355 184.575 -222.779L184.312 -222.692Z" fill="url(#paint8_linear_1240_1429)" fill-opacity="0.2"/>
<path d="M191.037 -222.666C193.65 -212.155 194.962 -200.808 196.337 -188.811C198.9 -166.528 201.562 -143.495 213.062 -124.196C223.612 -106.494 232.137 -85.0721 241.162 -62.4019C248.025 -45.1371 255.125 -27.2855 263.675 -9.63366C268.5 0.328254 273.875 10.0655 279.075 19.4781C294.337 47.1043 308.962 73.5571 308.962 103.705C308.962 112.768 307.65 122.156 304.625 132.018C294.825 164.026 275.5 193.862 256.8 222.724C251.012 231.649 245.037 240.875 239.487 249.963C231.35 263.27 226.512 273.22 223.8 282.196C220.275 293.843 220.562 303.468 224.687 311.619C228.15 318.46 232.4 324.016 236.9 329.895C238.962 332.592 241.087 335.376 243.2 338.359C247.462 344.389 254.425 350.531 264.5 357.135C272.45 362.353 282.287 367.821 295.462 374.362C342.85 397.881 374.025 424.983 396.537 462.234C419.65 500.484 423.55 561.466 405.437 601.077C376.925 663.408 355.9 676.166 335.575 688.487C330.625 691.483 325.512 694.592 320.375 698.362C305.425 709.322 289.212 709.285 272.05 709.235C265.975 709.222 259.7 709.197 253.387 709.697L253.412 709.984C259.712 709.497 265.987 709.51 272.05 709.534C289.262 709.572 305.525 709.622 320.55 698.599C325.675 694.841 330.787 691.745 335.725 688.737C345.9 682.57 356.412 676.191 367.762 663.67C373.875 656.929 379.712 649.001 385.637 639.439C392.287 628.703 398.85 616.195 405.7 601.202C414.7 581.515 418.637 556.286 416.775 530.133C414.962 504.579 407.862 480.423 396.787 462.097C385.075 442.71 371.075 426.194 353.987 411.601C337.975 397.931 318.875 385.66 295.6 374.112C275.2 363.988 253.05 351.804 243.45 338.21C241.337 335.226 239.212 332.442 237.137 329.746C232.65 323.878 228.4 318.336 224.962 311.52C220.875 303.43 220.587 293.88 224.1 282.308C226.812 273.345 231.637 263.433 239.762 250.138C245.312 241.062 251.287 231.837 257.075 222.911C275.787 194.036 295.125 164.188 304.937 132.13C318.037 89.3364 299.25 55.3434 279.362 19.3657C274.162 9.95307 268.787 0.215888 263.962 -9.73351C255.425 -27.3854 248.325 -45.2244 241.462 -62.4768C232.437 -85.172 223.912 -106.594 213.35 -124.321C201.875 -143.558 199.225 -166.565 196.662 -188.823C195.275 -200.833 193.975 -212.18 191.35 -222.716L191.037 -222.666Z" fill="url(#paint9_linear_1240_1429)" fill-opacity="0.2"/>
<path d="M197.751 -222.654C198.901 -211.918 198.726 -200.358 198.538 -188.112C198.463 -183.568 198.401 -178.999 198.401 -174.43C198.401 -154.606 199.726 -134.957 208.151 -118.603C215.663 -104.022 222.001 -86.9822 228.701 -68.9434C236.676 -47.4716 244.926 -25.2632 256.388 -3.42944C262.226 7.69349 268.963 18.4543 275.476 28.8657C297.063 63.3579 317.451 95.9526 304.801 138.16C295.026 170.792 274.651 201.04 254.951 230.289C249.488 238.391 243.851 246.78 238.576 255.006C230.226 268.039 225.126 277.826 222.038 286.727C218.063 298.175 217.726 307.687 220.988 315.801C223.838 322.892 227.463 328.734 231.313 334.926C232.926 337.523 234.601 340.219 236.263 343.078C239.988 349.495 246.663 355.924 256.701 362.727C264.663 368.133 274.626 373.725 288.063 380.329C336.676 404.198 368.613 430.701 391.613 466.241C415.951 503.854 420.538 561.728 402.288 600.865C374.463 660.486 353.701 673.07 333.626 685.241C328.851 688.137 323.901 691.134 318.938 694.716C303.738 705.677 287.276 706.114 269.851 706.588C263.763 706.751 257.476 706.925 251.163 707.562L251.188 707.862C257.488 707.225 263.776 707.05 269.851 706.888C287.326 706.413 303.826 705.977 319.101 694.954C324.063 691.383 329.001 688.387 333.763 685.491C343.838 679.386 354.251 673.082 365.401 660.961C371.401 654.444 377.138 646.804 382.926 637.616C389.426 627.305 395.838 615.321 402.526 600.977C407.138 591.102 410.363 579.942 412.126 567.808C413.801 556.223 414.101 544.102 413.013 531.768C410.838 507.138 403.313 483.806 391.838 466.067C379.701 447.316 365.176 431.212 347.426 416.831C331.226 403.698 311.838 391.677 288.163 380.055C274.738 373.463 264.788 367.883 256.838 362.478C246.851 355.687 240.188 349.295 236.501 342.928C234.838 340.057 233.163 337.373 231.551 334.764C227.713 328.585 224.101 322.755 221.251 315.689C218.013 307.637 218.363 298.2 222.313 286.827C225.388 277.939 230.488 268.176 238.813 255.168C244.088 246.942 249.726 238.565 255.188 230.451C274.901 201.189 295.276 170.917 305.076 138.247C308.126 128.06 309.363 118.198 308.863 108.099C308.413 99.0735 306.563 90.0353 303.213 80.4728C296.976 62.6837 286.651 46.1804 275.713 28.7034C269.201 18.3045 262.476 7.54365 256.638 -3.56677C245.188 -25.3881 236.938 -47.5839 228.963 -69.0433C222.251 -87.0945 215.926 -104.147 208.401 -118.741C198.063 -138.777 198.451 -163.856 198.826 -188.099C199.013 -200.358 199.188 -211.931 198.038 -222.679L197.751 -222.654Z" fill="url(#paint10_linear_1240_1429)" fill-opacity="0.2"/>
<path d="M197.463 -146.005C197.463 -134.096 198.938 -122.848 203.251 -112.998C208.501 -101.001 213.063 -87.4069 217.901 -73.0007C225.876 -49.2444 234.901 -22.3298 249.126 2.77479C255.913 14.759 263.976 26.244 271.776 37.3544C295.201 70.7355 317.326 102.257 305.001 144.289C295.251 177.508 273.826 208.118 253.113 237.704C247.988 245.032 242.676 252.609 237.701 260.025C226.726 276.378 216.063 294.741 216.063 310.883C216.063 314.004 216.463 317.037 217.338 319.958C219.626 327.611 222.726 334.002 226.001 340.781C227.088 343.028 228.213 345.35 229.351 347.797C232.513 354.6 238.913 361.329 248.913 368.357C256.838 373.925 266.926 379.63 280.688 386.309C331.288 410.901 362.988 436.006 386.713 470.248C411.888 506.601 417.238 562.665 399.163 600.652C372.076 657.577 352.463 669.449 331.713 682.008C327.113 684.792 322.351 687.675 317.551 691.071C302.088 702.019 285.388 702.955 267.701 703.942C261.601 704.279 255.301 704.641 249.001 705.415L249.038 705.739C255.338 704.953 261.638 704.603 267.726 704.266C285.451 703.28 302.201 702.344 317.738 691.333C322.526 687.95 327.276 685.066 331.876 682.283C341.851 676.24 352.163 669.999 363.126 658.289C369.001 651.997 374.626 644.644 380.301 635.831C386.663 625.957 392.913 614.497 399.438 600.79C404.051 591.09 407.226 580.179 408.876 568.37C410.438 557.122 410.588 545.362 409.313 533.416C406.776 509.709 398.838 487.201 386.963 470.049C374.413 451.923 359.351 436.231 340.938 422.074C324.376 409.341 305.276 397.881 280.813 385.997C267.076 379.318 256.988 373.625 249.088 368.07C239.138 361.079 232.763 354.401 229.638 347.647C228.501 345.2 227.376 342.878 226.288 340.631C223.013 333.865 219.913 327.486 217.638 319.858C212.301 301.944 224.913 279.649 237.963 260.199C242.951 252.772 248.251 245.206 253.376 237.879C274.113 208.267 295.551 177.633 305.313 144.364C308.288 134.215 309.376 124.44 308.613 114.478C307.938 105.577 305.788 96.7139 302.051 87.3762C295.101 69.999 283.901 54.0449 272.051 37.1671C264.263 26.0692 256.201 14.5843 249.413 2.61249C235.213 -22.4671 226.176 -49.3693 218.213 -73.1131C213.376 -87.5192 208.813 -101.126 203.551 -113.136C194.476 -133.871 198.013 -160.948 201.426 -187.138C203.063 -199.722 204.626 -211.594 204.801 -222.629L204.476 -222.629C204.288 -211.606 202.738 -199.734 201.101 -187.176C199.301 -173.344 197.463 -159.275 197.463 -146.005Z" fill="url(#paint11_linear_1240_1429)" fill-opacity="0.2"/>
<path d="M194.85 -129.989C194.85 -121.874 195.85 -114.247 198.338 -107.406C201.875 -97.6435 205.038 -86.8577 208.375 -75.4352C216.15 -48.87 224.95 -18.7721 241.85 8.97901C249.55 21.6249 258.913 33.6216 267.975 45.2314C293.325 77.7012 317.263 108.361 305.175 150.418C295.475 184.199 272.963 215.121 251.2 245.032C246.413 251.61 241.463 258.414 236.788 265.068C228.15 277.364 222.35 287.126 218.55 295.79C213.688 306.863 212.075 316.138 213.638 324.14C215.363 333.016 217.963 340.207 220.975 348.533C221.45 349.831 221.925 351.167 222.413 352.528C224.988 359.743 231.1 366.759 241.088 374C248.95 379.692 259.175 385.51 273.288 392.288C325.3 417.305 357.75 441.823 381.788 474.268C407.775 509.359 413.9 563.601 396 600.44C369.663 654.656 350.263 666.378 329.725 678.787C325.3 681.459 320.725 684.23 316.113 687.438C300.388 698.374 283.438 699.809 265.5 701.32C259.4 701.832 253.088 702.369 246.788 703.292L246.838 703.629C253.138 702.706 259.438 702.169 265.538 701.657C283.525 700.134 300.525 698.711 316.325 687.713C320.925 684.505 325.5 681.746 329.925 679.074C339.813 673.094 350.038 666.915 360.825 655.605C366.625 649.525 372.138 642.46 377.675 634.033C383.888 624.583 389.988 613.648 396.338 600.59C400.963 591.065 404.088 580.416 405.625 568.931C407.088 558.021 407.075 546.636 405.613 535.076C402.725 512.293 394.363 490.622 382.088 474.056C369.125 456.554 353.538 441.286 334.438 427.355C317.825 415.233 298.45 403.998 273.463 391.976C259.375 385.198 249.163 379.393 241.313 373.713C231.388 366.522 225.313 359.544 222.763 352.403C222.275 351.042 221.8 349.707 221.325 348.408C218.325 340.094 215.725 332.904 214 324.065C212.45 316.126 214.05 306.925 218.888 295.915C222.688 287.276 228.475 277.539 237.1 265.255C241.775 258.601 246.725 251.798 251.513 245.231C273.3 215.296 295.825 184.349 305.538 150.518C308.463 140.356 309.388 130.619 308.363 120.745C307.45 111.919 305 103.168 300.875 94.0049C293.188 76.9398 281.088 61.4476 268.275 45.0316C259.213 33.4343 249.85 21.4376 242.175 8.80421C225.313 -18.9094 216.513 -48.9949 208.738 -75.535C205.4 -86.9575 202.238 -97.7434 198.7 -107.518C190.95 -128.89 197.713 -157.927 204.263 -186.002C207.288 -198.96 210.138 -211.194 211.588 -222.567L211.25 -222.604C209.8 -211.257 206.95 -199.023 203.938 -186.077C199.425 -166.928 194.85 -147.328 194.85 -129.989Z" fill="url(#paint12_linear_1240_1429)" fill-opacity="0.2"/>
<path d="M191.426 -117.467C191.426 -111.887 192.039 -106.644 193.439 -101.813C195.689 -94.0229 197.739 -85.6464 199.914 -76.7706C207.014 -47.7212 215.064 -14.7894 234.576 15.1712C243.139 28.3165 253.801 40.7002 264.114 52.6595C286.739 78.9125 308.326 103.98 308.326 135.8C308.326 142.404 307.401 149.295 305.364 156.548C295.714 190.866 272.101 222.074 249.251 252.26C244.814 258.115 240.239 264.169 235.889 270.099C227.039 282.133 220.976 291.733 216.776 300.334C212.114 309.884 209.826 318.111 209.826 325.339C209.826 326.35 209.876 327.336 209.964 328.31C210.951 339.058 213.051 347.772 215.489 357.247C217.451 364.874 223.264 372.202 233.251 379.655C241.039 385.46 251.414 391.377 265.901 398.281C305.576 417.168 346.476 439.938 376.876 478.288C400.264 507.799 413.276 559.157 392.876 600.253C367.314 651.748 348.101 663.333 327.764 675.591C323.526 678.151 319.139 680.797 314.714 683.818C298.714 694.754 281.514 696.676 263.314 698.724C257.214 699.41 250.901 700.122 244.589 701.195L244.651 701.557C250.939 700.484 257.251 699.772 263.351 699.098C281.601 697.051 298.839 695.116 314.914 684.13C319.326 681.122 323.714 678.475 327.951 675.916C338.214 669.724 347.914 663.882 358.514 652.971C364.214 647.104 369.614 640.338 375.039 632.273C381.101 623.248 387.051 612.836 393.214 600.428C397.851 591.077 400.926 580.679 402.351 569.531C403.701 558.957 403.539 547.947 401.876 536.774C398.626 514.915 389.851 494.08 377.176 478.076C363.801 461.198 347.676 446.343 327.901 432.648C311.339 421.176 291.689 410.165 266.076 397.969C251.614 391.078 241.264 385.173 233.489 379.38C223.576 371.978 217.814 364.712 215.864 357.172C213.426 347.71 211.326 339.008 210.339 328.285C209.614 320.42 211.839 311.332 217.126 300.509C221.314 291.933 227.376 282.345 236.201 270.336C240.551 264.419 245.139 258.364 249.564 252.51C272.426 222.299 296.064 191.065 305.726 156.685C308.601 146.474 309.376 136.737 308.101 126.912C306.964 118.136 304.214 109.472 299.676 100.422C291.239 83.6063 278.201 68.4762 264.401 52.4597C254.101 40.5004 243.439 28.1417 234.889 15.0089C215.414 -14.9018 207.364 -47.7961 200.276 -76.8205C198.101 -85.6963 196.051 -94.0853 193.801 -101.888C187.439 -123.859 197.489 -154.818 207.214 -184.754C211.551 -198.124 215.651 -210.757 218.313 -222.492L217.963 -222.567C215.313 -210.857 211.214 -198.236 206.876 -184.866C199.239 -161.459 191.426 -137.391 191.426 -117.467Z" fill="url(#paint13_linear_1240_1429)" fill-opacity="0.2"/>
<path d="M187.463 -106.769C187.463 -103.061 187.8 -99.5286 188.525 -96.2204C189.838 -90.2407 191.05 -83.9615 192.325 -77.3077C195.213 -62.3024 198.488 -45.2997 203.725 -28.4469C209.738 -9.10979 217.45 7.18134 227.3 21.3627C236.7 34.9074 248.638 47.5408 260.188 59.7498C289.538 90.809 317.25 120.133 305.55 162.665C295.963 197.494 271.2 228.965 247.263 259.4C243.2 264.568 239 269.899 235 275.105C228.263 283.868 219.888 294.779 214.125 304.903C208.738 314.39 206.088 322.417 206.088 329.296C206.088 330.382 206.15 331.431 206.288 332.467C206.888 337.198 207.063 341.642 207.238 345.937C207.438 351.03 207.638 356.285 208.575 361.941C209.9 369.98 215.413 377.62 225.4 385.285C233.213 391.277 243.425 397.132 258.513 404.235C305.788 426.518 343.175 448.315 371.975 482.282C396.088 510.708 409.925 560.28 389.75 600.028C364.975 648.814 345.938 660.261 325.775 672.383C321.725 674.817 317.538 677.339 313.313 680.16C297.038 691.083 279.588 693.518 261.113 696.102C255.013 696.951 248.7 697.837 242.4 699.048L242.475 699.422C248.75 698.211 255.063 697.338 261.163 696.476C279.675 693.892 297.175 691.445 313.525 680.472C317.738 677.651 321.925 675.129 325.963 672.695C336.163 666.566 345.788 660.786 356.225 650.262C361.825 644.607 367.125 638.128 372.425 630.438C378.35 621.837 384.125 611.937 390.1 600.178C394.763 591.002 397.775 580.866 399.088 570.042C400.325 559.806 400 549.157 398.15 538.384C394.55 517.461 385.363 497.45 372.275 482.02C358.488 465.767 341.838 451.323 321.363 437.878C300.088 423.909 276.7 412.374 258.7 403.885C235.763 393.075 211.913 379.617 208.975 361.878C208.05 356.26 207.838 351.005 207.638 345.924C207.475 341.617 207.3 337.173 206.688 332.417C204.525 315.427 220.888 294.13 235.325 275.342C239.325 270.136 243.525 264.793 247.588 259.637C271.55 229.177 296.338 197.681 305.95 162.777C308.775 152.491 309.413 142.728 307.888 132.916C306.525 124.153 303.45 115.552 298.5 106.601C289.3 89.9727 275.313 75.1671 260.5 59.5001C248.963 47.2911 237.038 34.6703 227.65 21.1505C205.588 -10.6202 198.763 -46.0987 192.738 -77.3826C191.463 -84.0364 190.25 -90.3281 188.938 -96.3077C184 -118.841 197.375 -151.71 210.313 -183.506C215.938 -197.313 221.25 -210.358 225.063 -222.48L224.7 -222.592C220.888 -210.495 215.575 -197.45 209.963 -183.656C198.85 -156.441 187.463 -128.466 187.463 -106.769Z" fill="url(#paint14_linear_1240_1429)" fill-opacity="0.2"/>
<path d="M183.151 -97.206C183.151 -94.9215 183.301 -92.7244 183.626 -90.6147C184.276 -86.3328 184.876 -81.9261 185.513 -77.2573C187.701 -61.3531 190.163 -43.3392 195.151 -25.3379C200.888 -4.62755 209.026 12.6872 220.026 27.5926C230.251 41.4494 243.451 54.2451 256.201 66.6413C287.613 97.1263 317.276 125.926 305.726 168.832C296.213 204.161 270.276 235.869 245.188 266.516C241.513 270.998 237.713 275.642 234.088 280.173C220.501 297.089 204.651 318.785 202.588 336.637C202.301 339.121 201.913 341.555 201.551 343.915C200.326 351.667 199.176 358.995 201.638 366.735C204.301 375.086 210.151 383.138 219.038 390.666C227.101 397.494 237.888 404.086 251.101 410.253C292.276 429.465 335.138 451.174 367.038 486.328C391.863 513.679 406.551 561.454 386.588 599.841C362.638 645.918 343.726 657.241 323.713 669.225C319.863 671.535 315.888 673.906 311.876 676.553C295.313 687.464 277.601 690.41 258.863 693.531C252.763 694.542 246.463 695.603 240.188 696.939L240.276 697.338C246.538 695.99 252.838 694.941 258.938 693.93C277.726 690.797 295.476 687.838 312.101 676.89C316.101 674.256 320.076 671.872 323.926 669.575C334.063 663.508 343.638 657.778 353.913 647.641C359.426 642.198 364.626 636.006 369.788 628.691C375.563 620.514 381.188 611.139 386.951 600.028C391.626 591.028 394.601 581.153 395.788 570.654C396.913 560.767 396.438 550.481 394.388 540.107C390.438 520.121 380.826 500.921 367.338 486.066C353.151 470.436 335.963 456.417 314.776 443.209C294.126 430.339 271.088 419.141 251.276 409.903C223.638 397.008 207.076 382.439 202.026 366.635C199.588 358.995 200.738 351.717 201.951 344.002C202.326 341.643 202.713 339.196 203.001 336.712C205.038 318.96 220.863 297.326 234.413 280.461C238.051 275.942 241.851 271.298 245.513 266.816C270.626 236.131 296.588 204.398 306.126 168.982C308.926 158.608 309.413 148.796 307.626 138.984C306.038 130.22 302.651 121.657 297.276 112.781C287.288 96.3024 272.338 81.7714 256.501 66.4041C243.751 54.0329 230.576 41.2372 220.363 27.4053C195.701 -6.00078 190.288 -45.5115 185.926 -77.2573C185.288 -81.9261 184.676 -86.3328 184.038 -90.6271C180.551 -113.709 197.288 -148.464 213.476 -182.095C220.351 -196.363 226.838 -209.846 231.788 -222.354L231.413 -222.504C226.463 -210.008 219.976 -196.538 213.113 -182.269C198.351 -151.697 183.151 -120.126 183.151 -97.206Z" fill="url(#paint15_linear_1240_1429)" fill-opacity="0.2"/>
<path d="M178.563 -88.4306C178.563 -87.2696 178.613 -86.1336 178.701 -85.0351C178.926 -82.3636 179.138 -79.6671 179.363 -76.8084C182.051 -43.1027 185.388 -1.14525 212.726 33.7964C223.751 47.8904 238.188 60.7984 252.151 73.2945C285.663 103.28 317.313 131.605 305.888 174.949C296.451 210.776 269.288 242.685 243.038 273.532C239.776 277.364 236.401 281.321 233.163 285.191C219.238 301.782 202.751 323.104 198.888 340.781C198.326 343.352 197.651 345.874 197.013 348.308C195.501 354.013 194.038 359.494 194.038 365.161C194.038 367.221 194.226 369.306 194.676 371.428C195.638 375.997 197.576 380.454 200.413 384.698C203.088 388.705 206.676 392.65 211.051 396.433C218.976 403.261 229.638 409.728 243.676 416.207C289.776 437.516 330.513 457.802 362.088 490.322C386.838 515.801 404.063 560.867 383.413 599.616C360.326 642.996 341.526 654.194 321.626 666.054C317.988 668.226 314.226 670.46 310.451 672.895C293.588 683.78 275.626 687.251 256.601 690.933C250.513 692.107 244.226 693.33 237.976 694.803L238.076 695.215C244.313 693.742 250.601 692.531 256.688 691.345C275.751 687.663 293.751 684.18 310.688 673.244C314.463 670.81 318.213 668.575 321.851 666.403C341.813 654.506 360.663 643.284 383.826 599.803C392.976 582.613 395.338 562.54 390.651 541.742C386.351 522.692 376.326 504.316 362.426 490.01C354.688 482.045 346.313 474.68 336.813 467.489C328.188 460.96 318.826 454.731 308.213 448.452C287.526 436.218 265.101 425.619 243.888 415.82C214.138 402.063 198.638 387.931 195.126 371.328C193.451 363.439 195.401 356.136 197.451 348.408C198.101 345.961 198.763 343.44 199.338 340.856C203.188 323.266 219.626 302.007 233.526 285.453C236.763 281.596 240.138 277.626 243.401 273.806C256.376 258.564 269.788 242.809 281.076 226.431C293.838 207.943 302.101 191.14 306.338 175.048C309.101 164.562 309.451 154.688 307.413 144.851C305.588 136.075 301.888 127.523 296.088 118.722C285.313 102.356 268.626 87.4135 252.488 72.97C238.538 60.4864 224.126 47.5783 213.113 33.5218C185.838 -1.31994 182.513 -43.2025 179.838 -76.8583C179.613 -79.717 179.401 -82.401 179.176 -85.085C177.176 -108.691 197.288 -145.343 216.751 -180.784C224.851 -195.527 232.488 -209.459 238.551 -222.38L238.163 -222.554C232.113 -209.646 224.463 -195.727 216.376 -180.984C197.751 -147.116 178.563 -112.174 178.563 -88.4306Z" fill="url(#paint16_linear_1240_1429)" fill-opacity="0.2"/>
<path d="M173.788 -80.2161C173.788 -79.9539 173.788 -79.7043 173.801 -79.4421C173.826 -78.3186 173.851 -77.1951 173.863 -76.0466C174.213 -58.5445 174.601 -38.7206 178.663 -18.5845C183.363 4.73487 192.138 23.9097 205.463 40.0011C217.276 54.2698 232.938 67.2528 248.076 79.7988C283.713 109.335 317.376 137.236 306.076 181.091C296.713 217.406 268.301 249.488 240.826 280.523C238.001 283.706 235.076 287.014 232.263 290.222C217.963 306.526 200.838 327.486 195.213 344.938C194.376 347.535 193.438 350.069 192.526 352.528C189.988 359.357 187.576 365.861 187.576 372.876C187.576 373.95 187.638 375.036 187.751 376.135C188.788 385.585 193.788 394.111 203.038 402.2C210.751 408.942 221.626 415.483 236.288 422.187C281.313 442.797 323.826 462.259 357.188 494.329C382.626 518.797 400.701 562.103 380.301 599.416C358.063 640.076 339.326 651.174 319.501 662.921C316.101 664.943 312.576 667.028 309.038 669.262C291.863 680.135 273.626 684.143 254.326 688.375C248.263 689.698 242.001 691.084 235.776 692.682L235.888 693.106C242.101 691.508 248.363 690.135 254.413 688.799C273.763 684.555 292.038 680.547 309.276 669.637C312.801 667.402 316.326 665.317 319.726 663.295C339.613 651.511 358.388 640.388 380.688 599.616C389.863 582.838 392.013 563.401 386.901 543.44C382.263 525.326 371.826 507.774 357.513 494.017C349.513 486.327 340.838 479.187 331.013 472.196C322.188 465.929 312.576 459.887 301.651 453.745C280.976 442.135 258.363 431.787 236.501 421.775C221.876 415.084 211.038 408.567 203.363 401.851C194.201 393.849 189.251 385.41 188.226 376.072C187.326 367.883 190.063 360.493 192.963 352.665C193.876 350.206 194.826 347.66 195.663 345.05C201.263 327.673 218.351 306.763 232.626 290.497C235.438 287.289 238.363 283.981 241.188 280.797C254.738 265.492 268.738 249.676 280.513 233.16C293.826 214.484 302.338 197.482 306.538 181.178C309.276 170.567 309.476 160.605 307.176 150.743C305.113 141.942 301.088 133.403 294.851 124.64C283.276 108.361 265.538 93.6681 248.388 79.4493C233.263 66.9157 217.626 53.9453 205.838 39.7139C175.926 3.57386 175.051 -40.5806 174.338 -76.0591C174.313 -77.2075 174.288 -78.331 174.276 -79.4545C174.276 -79.7042 174.263 -79.9664 174.263 -80.2161C174.263 -104.372 197.538 -142.497 220.051 -179.361C229.351 -194.591 238.126 -208.96 245.276 -222.304L244.888 -222.517C237.751 -209.184 228.976 -194.816 219.676 -179.598C197.101 -142.672 173.788 -104.497 173.788 -80.2161Z" fill="url(#paint17_linear_1240_1429)" fill-opacity="0.2"/>
<path d="M168.263 -49.8809C168.263 -38.5832 168.851 -26.4866 170.863 -14.3276C174.876 9.94056 183.826 29.752 198.201 46.2054C210.788 60.6115 227.651 73.6069 243.951 86.1779C262.101 100.172 280.876 114.641 293.226 130.794C307.026 148.846 311.288 167.296 306.263 187.22C296.988 224.022 267.276 256.267 238.538 287.464C236.176 290.023 233.738 292.669 231.376 295.253C221.301 306.264 213.776 315.09 207.713 323.017C200.051 333.041 194.763 341.568 191.551 349.095C191.238 349.832 190.926 350.568 190.613 351.305C186.401 361.142 182.426 370.442 180.851 380.816C180.663 382.052 180.563 383.288 180.563 384.499C180.563 392.713 184.888 400.39 193.701 407.856C203.501 416.17 217.663 423.086 228.913 428.179C231.601 429.402 234.276 430.613 236.951 431.812C279.626 451.111 319.951 469.337 352.288 498.362C379.276 522.58 397.438 563.164 377.163 599.217C355.813 637.179 337.113 648.178 317.313 659.837C314.163 661.697 310.888 663.62 307.626 665.642C290.138 676.503 271.613 681.047 252.001 685.841C245.976 687.314 239.751 688.837 233.576 690.559L233.701 691.009C239.863 689.286 246.088 687.763 252.113 686.29C271.763 681.484 290.313 676.927 307.863 666.029C311.126 664.007 314.388 662.084 317.538 660.224C337.401 648.54 356.151 637.504 377.563 599.442C386.776 583.063 388.713 564.288 383.163 545.15C378.188 527.985 367.338 511.245 352.588 498.025C320.188 468.95 279.851 450.712 237.126 431.4C234.451 430.189 231.776 428.978 229.088 427.767C217.876 422.686 203.751 415.783 193.988 407.506C184.001 399.042 179.851 390.341 181.288 380.891C182.863 370.58 186.826 361.317 191.026 351.492C191.338 350.756 191.651 350.032 191.963 349.283C199.201 332.317 216.113 312.606 231.701 295.578C234.063 292.994 236.501 290.347 238.863 287.788C253.001 272.446 267.626 256.579 279.876 239.926C293.763 221.063 302.526 203.873 306.688 187.358C308.063 181.915 308.751 176.522 308.763 171.329C308.763 171.316 308.763 171.304 308.763 171.291C308.763 166.348 308.138 161.417 306.901 156.635C304.601 147.797 300.251 139.246 293.576 130.52C281.188 114.316 262.388 99.8226 244.213 85.8159C227.926 73.2575 211.076 60.2745 198.526 45.9058C165.938 8.59229 167.901 -39.0452 169.338 -73.8245C170.351 -98.4421 197.301 -138.852 223.376 -177.938C233.851 -193.655 243.751 -208.485 251.963 -222.255L251.563 -222.492C243.351 -208.747 233.463 -193.904 222.988 -178.2C196.888 -139.064 169.901 -98.5919 168.876 -73.8494C168.588 -66.5215 168.263 -58.4322 168.263 -49.8809Z" fill="url(#paint18_linear_1240_1429)" fill-opacity="0.2"/>
<path d="M161.813 -32.7536C161.813 -24.6642 162.263 -16.3876 163.438 -8.09844C165.038 3.21168 167.913 13.7354 171.975 23.173C176.613 33.9338 182.988 43.7709 190.925 52.4096C204.263 66.9155 222.313 79.8985 239.775 92.4445C258.963 106.239 278.8 120.52 291.975 136.612C306.688 154.6 311.425 173.164 306.45 193.349C297.263 230.638 266.188 263.033 236.15 294.354C234.25 296.339 232.35 298.312 230.475 300.272C214.35 317.149 196.688 336.649 187.888 353.24C187.388 354.176 186.9 355.1 186.4 356.023C181.163 365.835 176.225 375.111 173.925 385.51C172.775 390.703 173.313 395.784 175.525 400.615C177.55 405.034 180.888 409.229 185.75 413.448C195.55 421.962 210.013 428.978 221.525 434.146C226.913 436.568 232.363 438.977 237.625 441.324C277.913 459.2 315.963 476.078 347.388 502.369C373.063 523.84 395.45 562.04 374.038 598.992C353.613 634.258 334.888 645.181 315.05 656.753C312.175 658.439 309.188 660.174 306.225 661.984C288.375 672.845 269.55 677.938 249.625 683.319C243.65 684.929 237.475 686.602 231.375 688.424L231.513 688.886C237.613 687.064 243.788 685.391 249.75 683.78C269.713 678.388 288.563 673.294 306.463 662.396C309.438 660.586 312.413 658.851 315.288 657.178C335.175 645.568 353.95 634.608 374.45 599.241C379.238 590.965 382.038 582.126 382.763 572.963C383.438 564.437 382.325 555.649 379.45 546.848C374.15 530.632 362.875 514.702 347.7 502.007C316.225 475.679 278.15 458.776 237.825 440.887C232.563 438.552 227.113 436.131 221.725 433.709C210.25 428.553 195.825 421.55 186.075 413.086C176.063 404.397 172.25 395.409 174.413 385.622C176.7 375.298 181.625 366.048 186.838 356.261C187.325 355.337 187.825 354.413 188.325 353.477C197.1 336.936 214.738 317.474 230.838 300.621C232.713 298.661 234.6 296.689 236.5 294.704C251.25 279.324 266.5 263.42 279.275 246.642C293.763 227.604 302.8 210.215 306.925 193.487C308.288 187.969 308.938 182.514 308.863 177.271C308.788 172.265 308.063 167.284 306.688 162.465C304.15 153.577 299.463 145.026 292.35 136.324C279.15 120.171 259.275 105.889 240.063 92.07C222.625 79.524 204.6 66.566 191.288 52.0975C158.85 16.8438 160.45 -28.4842 164.488 -68.207C167.038 -93.3116 197.438 -135.606 226.825 -176.502C238.475 -192.706 249.463 -208.011 258.738 -222.192L258.325 -222.454C249.063 -208.273 238.063 -192.981 226.425 -176.777C197 -135.831 166.563 -93.4863 164 -68.2444C162.875 -57.3088 161.813 -45.2497 161.813 -32.7536Z" fill="url(#paint19_linear_1240_1429)" fill-opacity="0.2"/>
<path d="M155.026 -19.5334C155.026 -13.6661 155.313 -7.74895 156.013 -1.85668C157.351 9.49092 160.101 20.0521 164.188 29.5272C168.826 40.2755 175.376 50.0627 183.651 58.614C197.738 73.1823 216.963 86.1278 235.551 98.6364C255.788 112.256 276.713 126.35 290.701 142.404C306.351 160.355 311.551 179.031 306.626 199.491C297.526 237.279 263.588 271.26 233.638 301.245C232.276 302.606 230.926 303.967 229.576 305.315C213.188 321.756 194.826 340.694 184.213 357.409C183.601 358.37 182.988 359.332 182.388 360.28C176.038 370.23 170.038 379.617 167.013 390.229C165.476 395.609 165.726 400.852 167.776 405.833C169.613 410.327 172.988 414.771 177.801 419.041C187.626 427.767 202.388 434.895 214.138 440.125C221.988 443.621 229.926 447.054 237.613 450.387C275.813 466.94 311.901 482.57 342.476 506.376C368.788 526.912 392.038 563.426 370.876 598.792C351.388 631.374 332.576 642.248 312.651 653.77C310.088 655.255 307.426 656.791 304.788 658.364C286.588 669.212 267.438 674.867 247.163 680.847C241.276 682.582 235.176 684.38 229.163 686.315L229.313 686.789C235.326 684.867 241.413 683.069 247.301 681.334C267.601 675.342 286.776 669.687 305.038 658.801C307.676 657.228 310.326 655.692 312.901 654.207C332.876 642.66 351.751 631.749 371.301 599.054C376.138 590.977 378.901 582.401 379.501 573.563C380.063 565.373 378.788 556.96 375.701 548.558C372.813 540.718 368.401 532.966 362.563 525.551C357.013 518.498 350.351 511.919 342.763 506.001C328.813 495.141 312.988 485.329 292.951 475.154C275.263 466.166 257.063 458.289 237.788 449.938C230.101 446.604 222.163 443.171 214.313 439.676C202.588 434.458 187.876 427.355 178.101 418.679C168.051 409.753 164.576 400.503 167.463 390.378C170.476 379.842 176.451 370.479 182.776 360.567C183.388 359.619 184.001 358.657 184.601 357.696C195.188 341.018 213.526 322.105 229.901 305.689C231.251 304.341 232.601 302.981 233.963 301.62C249.338 286.228 265.238 270.298 278.551 253.383C293.663 234.171 303.001 216.594 307.076 199.629C308.426 194.036 309.026 188.518 308.876 183.213C308.738 178.157 307.901 173.139 306.401 168.282C303.626 159.344 298.601 150.768 291.038 142.092C277.001 125.988 256.051 111.881 235.788 98.2369C217.226 85.7408 198.026 72.8078 183.976 58.2769C150.963 24.1342 152.726 -19.9954 159.551 -62.5894C163.651 -88.1808 197.501 -132.36 230.238 -175.067C243.038 -191.757 255.113 -207.537 265.426 -222.142L265.013 -222.43C254.713 -207.824 242.626 -192.057 229.838 -175.366C197.063 -132.597 163.176 -88.3805 159.051 -62.6518C156.988 -49.5441 155.026 -34.7135 155.026 -19.5334Z" fill="url(#paint20_linear_1240_1429)" fill-opacity="0.2"/>
<path d="M148.013 -8.21093C148.013 -4.02892 148.188 0.17805 148.588 4.37257C149.663 15.7701 152.288 26.3687 156.401 35.8687C161.051 46.6046 167.776 56.3418 176.376 64.8306C191.188 79.4365 211.563 92.3071 231.276 104.766C252.563 118.223 274.576 132.13 289.413 148.159C306.001 166.085 311.688 184.885 306.813 205.633C297.801 243.92 262.326 278.013 231.026 308.099L228.676 310.358C209.963 328.36 192.188 345.837 180.538 361.578C179.888 362.465 179.226 363.351 178.576 364.225C171.026 374.399 163.888 383.999 160.088 394.947C158.163 400.502 158.126 405.908 160.001 411.051C161.688 415.682 164.988 420.251 169.826 424.633C179.688 433.596 194.738 440.824 206.738 446.117C216.851 450.574 227.138 454.906 237.088 459.088C273.451 474.393 307.801 488.849 337.563 510.408C365.863 530.919 388.663 564.849 367.751 598.58C349.213 628.49 330.226 639.351 310.126 650.836C307.926 652.097 305.638 653.395 303.388 654.719C284.776 665.579 265.263 671.821 244.613 678.425C238.838 680.272 232.863 682.182 226.976 684.18L227.151 684.679C233.038 682.682 239.013 680.772 244.776 678.924C265.451 672.308 284.988 666.066 303.651 655.18C305.913 653.857 308.188 652.559 310.388 651.298C330.551 639.776 349.588 628.89 368.201 598.854C373.088 590.965 375.813 582.663 376.313 574.174C376.776 566.322 375.326 558.295 372.013 550.293C368.951 542.878 364.313 535.538 358.226 528.484C352.513 521.856 345.663 515.639 337.863 509.984C324.476 500.284 308.763 491.083 289.813 481.846C272.876 473.581 254.788 465.979 237.288 458.614C227.338 454.432 217.051 450.1 206.938 445.643C194.976 440.363 179.976 433.172 170.176 424.259C160.088 415.096 156.951 405.571 160.576 395.134C164.351 384.261 171.463 374.686 178.988 364.55C179.638 363.663 180.301 362.789 180.951 361.891C192.576 346.174 210.326 328.722 229.026 310.733L231.376 308.473C247.401 293.068 263.976 277.139 277.863 260.087C293.638 240.7 303.276 222.923 307.313 205.746C308.651 200.078 309.213 194.473 308.988 189.117C308.776 184.012 307.838 178.943 306.201 174.062C303.188 165.062 297.813 156.473 289.801 147.797C274.926 131.718 252.876 117.786 231.563 104.316C211.888 91.8826 191.538 79.012 176.751 64.4561C141.613 29.8266 145.888 -16.3628 154.701 -56.9719C160.363 -83.0502 197.688 -129.102 233.776 -173.644C247.713 -190.834 260.863 -207.075 272.201 -222.105L271.776 -222.417C260.451 -207.387 247.288 -191.158 233.363 -173.968C197.226 -129.389 159.863 -83.2873 154.188 -57.0843C151.188 -43.2899 148.013 -26.0001 148.013 -8.21093Z" fill="url(#paint21_linear_1240_1429)" fill-opacity="0.2"/>
<path d="M140.863 1.98872C140.863 26.4441 147.713 50.9245 169.101 71.0356C184.638 85.6539 206.151 98.4495 226.951 110.821C249.301 124.116 272.426 137.86 288.101 153.877C305.638 171.791 311.813 190.728 306.976 211.776C298.063 250.575 260.976 284.767 228.251 314.94L225.951 317.063C208.226 333.404 189.901 350.306 176.863 365.749C176.238 366.498 175.613 367.234 174.976 367.971C166.126 378.419 157.763 388.294 153.151 399.667C151.776 403.062 151.138 406.295 151.138 409.379C151.138 428.217 174.976 441.462 199.326 452.098C211.563 457.441 224.088 462.546 236.201 467.477C270.901 481.609 303.663 494.941 332.626 514.428C344.301 522.281 359.888 535.226 367.801 552.266C375.163 568.12 374.088 583.637 364.588 598.368C347.026 625.645 327.763 636.518 307.363 648.028C305.601 649.027 303.776 650.05 301.963 651.086C282.876 661.985 262.951 668.838 241.863 676.091C236.263 678.014 230.476 680.011 224.763 682.058L224.951 682.57C230.651 680.523 236.438 678.525 242.038 676.603C263.163 669.337 283.101 662.484 302.238 651.561C304.038 650.537 305.863 649.501 307.626 648.502C328.088 636.955 347.413 626.044 365.063 598.668C370.013 590.978 372.726 582.951 373.101 574.799C373.451 567.296 371.838 559.631 368.313 552.029C365.063 545.038 360.201 538.097 353.876 531.419C348.001 525.214 340.951 519.347 332.951 513.954C319.926 505.19 304.751 496.814 286.563 488.325C270.313 480.748 253.088 473.732 236.426 466.953C224.313 462.022 211.788 456.916 199.563 451.586C171.463 439.314 144.051 423.573 153.676 399.854C158.263 388.556 166.588 378.719 175.413 368.308C176.038 367.571 176.676 366.822 177.301 366.086C190.313 350.668 208.626 333.778 226.338 317.449L228.638 315.327C245.338 299.923 262.613 284.006 277.088 266.828C293.576 247.267 303.526 229.29 307.526 211.888C308.851 206.133 309.363 200.466 309.063 195.035C308.776 189.867 307.726 184.749 305.963 179.83C302.701 170.767 296.988 162.141 288.501 153.477C272.776 137.411 249.626 123.654 227.238 110.334C206.463 97.9752 184.976 85.2044 169.488 70.6236C132.176 35.5322 139.376 -13.0041 149.826 -51.3662C157.051 -77.9189 197.863 -125.856 237.338 -172.22C252.388 -189.897 266.613 -206.6 278.951 -222.067L278.526 -222.404C266.188 -206.949 251.976 -190.246 236.926 -172.57C197.413 -126.168 156.563 -78.181 149.301 -51.5035C144.776 -34.9378 140.863 -16.4745 140.863 1.98872Z" fill="url(#paint22_linear_1240_1429)" fill-opacity="0.2"/>
<path d="M133.65 11.563C133.65 13.3232 133.687 15.0834 133.775 16.8436C134.325 28.341 136.7 39.0145 140.85 48.552C145.512 59.2754 152.575 68.9252 161.837 77.2393C178.087 91.8451 200.712 104.541 222.6 116.812C246.025 129.958 270.262 143.552 286.8 159.544C305.3 177.445 311.975 196.533 307.187 217.892C298.375 257.203 258.737 292.244 226.887 320.408C224.062 322.904 221.2 325.426 218.412 327.873C202.525 341.854 186.1 356.31 173.212 369.893C172.687 370.442 172.162 370.991 171.637 371.553C161.85 381.852 151.725 392.5 146.25 404.372C143.212 410.964 142.837 417.38 145.162 423.435C147.737 430.163 153.512 436.505 162.8 442.822C170.037 447.74 179.3 452.584 191.962 458.064C206.212 464.231 220.912 469.999 235.15 475.579C266.837 488.012 299.6 500.871 327.762 518.422C350.55 532.629 365.037 549.507 368.55 565.948C370.887 576.896 368.512 587.719 361.5 598.143C344.837 622.835 325.125 633.796 304.25 645.393C303.025 646.08 301.787 646.766 300.55 647.453C280.9 658.426 259.5 666.291 238.812 673.893C233.487 675.853 227.987 677.876 222.562 679.935L222.762 680.46C228.175 678.4 233.687 676.378 239.012 674.43C259.725 666.815 281.137 658.938 300.825 647.952C302.062 647.266 303.287 646.579 304.525 645.893C315.062 640.038 325.012 634.508 334.7 627.192C345.675 618.903 354.337 609.778 361.937 598.492C369.05 587.944 371.45 576.958 369.075 565.86C367.187 557.059 362.325 548.233 354.612 539.632C347.725 531.967 338.787 524.677 328.037 517.973C315.375 510.083 300.725 502.468 283.25 494.704C267.65 487.775 251.225 481.321 235.325 475.092C221.1 469.512 206.4 463.744 192.162 457.577C173.55 449.525 151.437 438.34 145.675 423.26C143.412 417.355 143.775 411.088 146.75 404.634C152.187 392.837 162.275 382.226 172.037 371.965C172.562 371.416 173.087 370.866 173.612 370.304C186.487 356.747 202.175 342.94 218.775 328.322C221.55 325.875 224.425 323.341 227.25 320.857C242.6 307.287 261.7 290.397 276.9 272.832C293.725 253.383 303.812 235.469 307.725 218.042C309.037 212.2 309.512 206.445 309.125 200.964C308.762 195.734 307.612 190.565 305.7 185.609C302.187 176.471 296.125 167.82 287.175 159.169C270.587 143.115 246.325 129.508 222.862 116.35C201.012 104.092 178.412 91.4082 162.212 76.8399C123.087 41.6735 132.425 -7.12493 144.925 -45.7117C153.787 -72.7388 198.112 -122.598 240.987 -170.835C257.112 -188.986 272.35 -206.126 285.687 -221.993L285.25 -222.355C271.925 -206.488 256.7 -189.361 240.562 -171.209C197.65 -122.935 153.287 -73.0259 144.387 -45.8865C139.675 -31.3805 133.65 -10.121 133.65 11.563Z" fill="url(#paint23_linear_1240_1429)" fill-opacity="0.2"/>
<path d="M126.314 20.5265C126.314 21.3754 126.326 22.2243 126.339 23.0731C126.626 34.633 128.889 45.3314 133.064 54.8814C137.739 65.5923 144.976 75.2047 154.551 83.4439C171.501 98.0248 195.226 110.608 218.164 122.78C242.676 135.775 268.026 149.22 285.426 165.212C304.914 183.113 312.076 202.363 307.326 224.034C298.626 263.82 256.614 299.435 225.951 325.439C220.814 329.795 215.564 334.19 210.476 338.434C195.764 350.718 181.876 362.328 169.514 374.062L168.489 375.036C157.289 385.66 145.701 396.645 139.301 409.091C135.764 415.97 135.126 422.661 137.414 428.978C139.889 435.831 145.651 442.285 155.039 448.689C162.401 453.72 171.764 458.601 184.526 464.057C200.851 471.085 217.901 477.514 234.389 483.718C264.501 495.066 295.626 506.788 322.801 522.455C339.826 532.267 361.026 548.159 365.414 568.133C367.614 578.169 365.226 588.194 358.314 597.943C342.614 620.114 321.239 631.774 300.551 643.047L299.139 643.821C278.739 654.944 256.601 663.607 235.201 671.971C230.339 673.869 225.314 675.841 220.364 677.814L220.576 678.35C225.526 676.378 230.551 674.418 235.401 672.508C256.826 664.132 278.976 655.468 299.414 644.32L300.826 643.546C311.201 637.891 321.926 632.049 331.801 624.958C342.876 617.006 351.714 608.28 358.801 598.28C365.814 588.393 368.239 578.207 366.001 567.995C364.139 559.506 359.064 550.993 350.901 542.691C343.764 535.438 334.414 528.447 323.114 521.931C295.889 506.239 264.739 494.504 234.614 483.157C218.139 476.952 201.101 470.523 184.776 463.507C172.051 458.065 162.714 453.208 155.389 448.203C146.114 441.861 140.414 435.507 137.989 428.766C135.764 422.599 136.389 416.07 139.851 409.341C146.201 396.982 157.751 386.034 168.914 375.448L169.939 374.474C182.289 362.765 196.176 351.155 210.876 338.871C215.964 334.627 221.226 330.232 226.364 325.876C244.626 310.396 262.239 295.116 276.939 278.538C293.989 259.313 304.126 241.524 307.926 224.147C309.226 218.204 309.651 212.387 309.189 206.832C308.751 201.539 307.489 196.321 305.439 191.327C301.664 182.114 295.264 173.426 285.839 164.775C268.376 148.733 243.001 135.263 218.451 122.255C195.539 110.109 171.839 97.5379 154.939 82.9945C113.451 47.2913 126.551 -4.36583 140.026 -40.1189C150.464 -67.6078 198.314 -119.377 244.589 -169.437C261.814 -188.075 278.089 -205.677 292.414 -221.968L291.976 -222.355C277.664 -206.064 261.389 -188.462 244.164 -169.836C197.851 -119.739 149.951 -67.9324 139.489 -40.3311C135.239 -29.0584 132.126 -18.9716 129.976 -9.49657C127.539 1.17689 126.314 11.2512 126.314 20.5265Z" fill="url(#paint24_linear_1240_1429)" fill-opacity="0.2"/>
<path d="M118.913 29.0531C118.913 29.1404 118.913 29.2153 118.913 29.2902C118.938 40.9 121.088 51.6359 125.275 61.2108C129.963 71.9218 137.375 81.4842 147.275 89.661C164.913 104.204 189.713 116.651 213.688 128.697C239.275 141.555 265.75 154.85 284.025 170.842C304.5 188.756 312.175 208.155 307.525 230.164C299.538 267.34 262.413 300.097 225.075 330.47C217.663 336.499 210 342.554 202.588 348.396C190.225 358.146 177.438 368.245 165.863 378.232L165.613 378.444C152.913 389.405 139.775 400.74 132.4 413.81C128.375 420.951 127.463 427.904 129.7 434.471C132.075 441.449 137.838 448.003 147.325 454.519C154.788 459.638 164.263 464.569 177.15 470.036C195.275 477.751 214.4 484.655 232.9 491.321C261.725 501.707 291.525 512.456 317.9 526.475C329.763 532.779 339.513 539.433 346.85 546.224C355.388 554.139 360.625 562.228 362.413 570.267C364.45 579.43 362.013 588.668 355.188 597.731C340.275 617.505 317.675 629.552 297.725 640.176C276.163 651.66 252.85 661.31 230.3 670.648C226.325 672.296 222.213 673.994 218.163 675.691L218.4 676.253C222.45 674.568 226.563 672.858 230.538 671.21C253.1 661.872 276.425 652.21 298.013 640.712C309.425 634.633 319.663 629.065 329.35 622.411C340.513 614.759 349.125 606.807 355.675 598.106C362.613 588.893 365.088 579.493 363.013 570.155C361.2 561.991 355.9 553.789 347.275 545.799C339.9 538.971 330.113 532.292 318.2 525.963C291.788 511.919 261.963 501.171 233.113 490.772C214.613 484.105 195.5 477.215 177.388 469.5C164.538 464.044 155.088 459.138 147.675 454.032C138.3 447.603 132.613 441.137 130.288 434.296C128.1 427.892 129 421.101 132.938 414.122C140.263 401.139 153.363 389.842 166.025 378.919L166.275 378.706C177.838 368.732 190.625 358.645 202.975 348.896C210.388 343.053 218.05 336.999 225.475 330.969C242.325 317.262 261.588 301.233 276.963 284.305C294.225 265.293 304.425 247.641 308.138 230.326C309.413 224.297 309.788 218.379 309.238 212.762C308.713 207.406 307.338 202.126 305.15 197.095C301.113 187.807 294.35 179.081 284.45 170.417C266.113 154.376 239.613 141.056 213.988 128.185C190.038 116.151 165.275 103.717 147.688 89.224C129.013 73.8317 119.7 53.9578 119.7 29.1904C119.7 10.7521 124.863 -10.3951 135.163 -34.451C147.175 -62.4144 198.563 -116.069 248.263 -167.963C266.575 -187.088 283.875 -205.152 299.175 -221.867L298.725 -222.279C283.438 -205.564 266.138 -187.513 247.825 -168.388C198.088 -116.456 146.663 -62.7515 134.6 -34.6883C124.038 -10.1205 118.913 10.752 118.913 29.0531Z" fill="url(#paint25_linear_1240_1429)" fill-opacity="0.2"/>
<path d="M111.475 37.2797C111.475 48.2653 113.5 58.4395 117.5 67.54C122.2 78.2384 129.775 87.7759 140.013 95.8653C158.325 110.346 184.2 122.68 209.213 134.589C235.913 147.31 263.538 160.468 282.7 176.472C304.175 194.398 312.35 213.973 307.7 236.306C299.9 273.807 262.163 305.877 224.163 335.501C214.638 342.928 204.675 350.331 195.05 357.472C184.15 365.561 172.888 373.925 162.188 382.389C148.925 392.888 133.875 404.772 125.475 418.517C120.95 425.919 119.763 433.135 121.963 439.963C123.15 443.634 125.338 447.291 128.488 450.812C131.35 454.007 135.088 457.216 139.6 460.337C147.05 465.48 156.913 470.611 169.75 476.016C189.65 484.405 210.938 491.72 231.525 498.786C259.05 508.249 287.513 518.023 313 530.482C325.525 536.611 335.738 542.953 343.325 549.332C352.363 556.935 357.813 564.7 359.513 572.414C361.35 580.741 358.838 589.18 352.063 597.519C338.975 613.598 316.425 626.094 296.313 636.543C272.325 649.001 246.45 660.274 221.425 671.185C219.6 671.984 217.775 672.77 215.95 673.569L216.2 674.143C218.025 673.344 219.85 672.558 221.675 671.759C246.713 660.848 272.588 649.576 296.6 637.104C316.763 626.631 339.388 614.097 352.55 597.931C359.45 589.442 362 580.816 360.125 572.302C358.4 564.45 352.875 556.573 343.725 548.883C336.1 542.466 325.85 536.1 313.275 529.945C287.75 517.462 259.263 507.674 231.725 498.212C211.15 491.146 189.875 483.831 170 475.454C152.15 467.939 127.813 456.055 122.563 439.789C120.425 433.147 121.575 426.107 126.013 418.854C134.363 405.209 149.35 393.35 162.575 382.888C173.263 374.437 184.525 366.073 195.425 357.984C205.063 350.83 215.025 343.44 224.55 336C241.563 322.73 261.05 307.138 276.975 290.01C294.475 271.21 304.713 253.683 308.3 236.431C309.575 230.301 309.9 224.322 309.275 218.629C308.675 213.211 307.2 207.881 304.875 202.787C300.588 193.425 293.463 184.661 283.088 175.998C263.863 159.944 236.213 146.773 209.475 134.028C184.488 122.118 158.65 109.809 140.388 95.3784C106.413 68.5137 103.1 27.8795 130.225 -28.871C143.825 -57.3086 198.763 -112.873 251.9 -166.603C271.288 -186.214 289.6 -204.727 305.863 -221.867L305.413 -222.292C289.163 -205.164 270.85 -186.651 251.463 -167.039C198.288 -113.273 143.313 -57.6706 129.663 -29.1456C117.788 -4.31566 111.838 16.8316 111.475 35.507C111.475 36.1063 111.475 36.6929 111.475 37.2797Z" fill="url(#paint26_linear_1240_1429)" fill-opacity="0.2"/>
</g>
</g>
<defs>
<linearGradient id="paint0_linear_1240_1429" x1="210" y1="0.000976562" x2="210" y2="354.001" gradientUnits="userSpaceOnUse">
<stop stop-color="#0774FF"/>
<stop offset="1" stop-color="#033AA7"/>
</linearGradient>
<linearGradient id="paint1_linear_1240_1429" x1="446.54" y1="255.849" x2="137.275" y2="255.849" gradientUnits="userSpaceOnUse">
<stop stop-color="white"/>
<stop offset="1" stop-color="white" stop-opacity="0"/>
</linearGradient>
<linearGradient id="paint2_linear_1240_1429" x1="442.75" y1="254.2" x2="144" y2="254.2" gradientUnits="userSpaceOnUse">
<stop stop-color="white"/>
<stop offset="1" stop-color="white" stop-opacity="0"/>
</linearGradient>
<linearGradient id="paint3_linear_1240_1429" x1="439.018" y1="252.578" x2="150.725" y2="252.578" gradientUnits="userSpaceOnUse">
<stop stop-color="white"/>
<stop offset="1" stop-color="white" stop-opacity="0"/>
</linearGradient>
<linearGradient id="paint4_linear_1240_1429" x1="435.313" y1="250.968" x2="157.451" y2="250.968" gradientUnits="userSpaceOnUse">
<stop stop-color="white"/>
<stop offset="1" stop-color="white" stop-opacity="0"/>
</linearGradient>
<linearGradient id="paint5_linear_1240_1429" x1="431.645" y1="249.364" x2="164.162" y2="249.364" gradientUnits="userSpaceOnUse">
<stop stop-color="white"/>
<stop offset="1" stop-color="white" stop-opacity="0"/>
</linearGradient>
<linearGradient id="paint6_linear_1240_1429" x1="427.955" y1="247.822" x2="170.888" y2="247.822" gradientUnits="userSpaceOnUse">
<stop stop-color="white"/>
<stop offset="1" stop-color="white" stop-opacity="0"/>
</linearGradient>
<linearGradient id="paint7_linear_1240_1429" x1="424.346" y1="246.276" x2="177.6" y2="246.276" gradientUnits="userSpaceOnUse">
<stop stop-color="white"/>
<stop offset="1" stop-color="white" stop-opacity="0"/>
</linearGradient>
<linearGradient id="paint8_linear_1240_1429" x1="420.805" y1="244.807" x2="184.312" y2="244.807" gradientUnits="userSpaceOnUse">
<stop stop-color="white"/>
<stop offset="1" stop-color="white" stop-opacity="0"/>
</linearGradient>
<linearGradient id="paint9_linear_1240_1429" x1="417.227" y1="243.634" x2="191.037" y2="243.634" gradientUnits="userSpaceOnUse">
<stop stop-color="white"/>
<stop offset="1" stop-color="white" stop-opacity="0"/>
</linearGradient>
<linearGradient id="paint10_linear_1240_1429" x1="413.653" y1="242.591" x2="197.751" y2="242.591" gradientUnits="userSpaceOnUse">
<stop stop-color="white"/>
<stop offset="1" stop-color="white" stop-opacity="0"/>
</linearGradient>
<linearGradient id="paint11_linear_1240_1429" x1="410.17" y1="241.555" x2="197.463" y2="241.555" gradientUnits="userSpaceOnUse">
<stop stop-color="white"/>
<stop offset="1" stop-color="white" stop-opacity="0"/>
</linearGradient>
<linearGradient id="paint12_linear_1240_1429" x1="406.716" y1="240.512" x2="194.85" y2="240.512" gradientUnits="userSpaceOnUse">
<stop stop-color="white"/>
<stop offset="1" stop-color="white" stop-opacity="0"/>
</linearGradient>
<linearGradient id="paint13_linear_1240_1429" x1="403.256" y1="239.495" x2="191.426" y2="239.495" gradientUnits="userSpaceOnUse">
<stop stop-color="white"/>
<stop offset="1" stop-color="white" stop-opacity="0"/>
</linearGradient>
<linearGradient id="paint14_linear_1240_1429" x1="399.825" y1="238.415" x2="187.463" y2="238.415" gradientUnits="userSpaceOnUse">
<stop stop-color="white"/>
<stop offset="1" stop-color="white" stop-opacity="0"/>
</linearGradient>
<linearGradient id="paint15_linear_1240_1429" x1="396.383" y1="237.417" x2="183.151" y2="237.417" gradientUnits="userSpaceOnUse">
<stop stop-color="white"/>
<stop offset="1" stop-color="white" stop-opacity="0"/>
</linearGradient>
<linearGradient id="paint16_linear_1240_1429" x1="392.998" y1="236.33" x2="178.563" y2="236.33" gradientUnits="userSpaceOnUse">
<stop stop-color="white"/>
<stop offset="1" stop-color="white" stop-opacity="0"/>
</linearGradient>
<linearGradient id="paint17_linear_1240_1429" x1="389.61" y1="235.295" x2="173.788" y2="235.295" gradientUnits="userSpaceOnUse">
<stop stop-color="white"/>
<stop offset="1" stop-color="white" stop-opacity="0"/>
</linearGradient>
<linearGradient id="paint18_linear_1240_1429" x1="386.26" y1="234.259" x2="168.263" y2="234.259" gradientUnits="userSpaceOnUse">
<stop stop-color="white"/>
<stop offset="1" stop-color="white" stop-opacity="0"/>
</linearGradient>
<linearGradient id="paint19_linear_1240_1429" x1="382.954" y1="233.216" x2="161.813" y2="233.216" gradientUnits="userSpaceOnUse">
<stop stop-color="white"/>
<stop offset="1" stop-color="white" stop-opacity="0"/>
</linearGradient>
<linearGradient id="paint20_linear_1240_1429" x1="379.63" y1="232.18" x2="155.026" y2="232.18" gradientUnits="userSpaceOnUse">
<stop stop-color="white"/>
<stop offset="1" stop-color="white" stop-opacity="0"/>
</linearGradient>
<linearGradient id="paint21_linear_1240_1429" x1="376.397" y1="231.131" x2="148.013" y2="231.131" gradientUnits="userSpaceOnUse">
<stop stop-color="white"/>
<stop offset="1" stop-color="white" stop-opacity="0"/>
</linearGradient>
<linearGradient id="paint22_linear_1240_1429" x1="373.147" y1="230.083" x2="140.863" y2="230.083" gradientUnits="userSpaceOnUse">
<stop stop-color="white"/>
<stop offset="1" stop-color="white" stop-opacity="0"/>
</linearGradient>
<linearGradient id="paint23_linear_1240_1429" x1="369.962" y1="229.052" x2="133.65" y2="229.052" gradientUnits="userSpaceOnUse">
<stop stop-color="white"/>
<stop offset="1" stop-color="white" stop-opacity="0"/>
</linearGradient>
<linearGradient id="paint24_linear_1240_1429" x1="366.808" y1="227.998" x2="126.314" y2="227.998" gradientUnits="userSpaceOnUse">
<stop stop-color="white"/>
<stop offset="1" stop-color="white" stop-opacity="0"/>
</linearGradient>
<linearGradient id="paint25_linear_1240_1429" x1="363.724" y1="226.987" x2="118.913" y2="226.987" gradientUnits="userSpaceOnUse">
<stop stop-color="white"/>
<stop offset="1" stop-color="white" stop-opacity="0"/>
</linearGradient>
<linearGradient id="paint26_linear_1240_1429" x1="360.722" y1="225.926" x2="111.475" y2="225.926" gradientUnits="userSpaceOnUse">
<stop stop-color="white"/>
<stop offset="1" stop-color="white" stop-opacity="0"/>
</linearGradient>
</defs>
</svg>
