<svg width="51" height="33" viewBox="0 0 51 33" fill="none" xmlns="http://www.w3.org/2000/svg">
<path d="M22.5679 1.76712V5.27209C22.5695 5.69359 22.4168 6.10109 22.1386 6.41771C21.8603 6.73432 21.4758 6.93815 21.0576 6.99073C17.2483 7.45883 13.7445 9.31268 11.2145 12.1987C13.235 12.3541 15.1663 13.0954 16.7718 14.332C18.3772 15.5685 19.5871 17.2465 20.2532 19.1604C20.9193 21.0742 21.0126 23.1408 20.5218 25.1069C20.0309 27.073 18.9773 28.8533 17.4898 30.2295C16.0024 31.6057 14.1458 32.5182 12.1475 32.8551C10.1493 33.1919 8.09613 32.9386 6.2397 32.1261C4.38327 31.3136 2.80416 29.9772 1.69586 28.2807C0.587556 26.5842 -0.0017983 24.6012 5.41015e-06 22.5748C-0.00390812 16.9107 2.1155 11.4509 5.93994 7.27294C9.76437 3.09498 15.016 0.502384 20.6583 0.00681764C20.9019 -0.0147138 21.1473 0.0148888 21.3788 0.0937278C21.6102 0.172567 21.8227 0.298902 22.0025 0.464635C22.1822 0.630368 22.3254 0.83184 22.4228 1.05614C22.5202 1.28043 22.5696 1.5226 22.5679 1.76712Z" fill="#2D3C58"/>
<path d="M50.3433 1.76712V5.27209C50.3449 5.69359 50.1922 6.10109 49.914 6.41771C49.6357 6.73432 49.2512 6.93815 48.833 6.99073C45.0237 7.45883 41.5199 9.31268 38.9899 12.1987C41.0104 12.3541 42.9417 13.0954 44.5472 14.332C46.1526 15.5685 47.3625 17.2465 48.0286 19.1604C48.6947 21.0742 48.788 23.1408 48.2972 25.1069C47.8063 27.073 46.7526 28.8533 45.2652 30.2295C43.7778 31.6057 41.9212 32.5182 39.9229 32.8551C37.9247 33.1919 35.8715 32.9386 34.0151 32.1261C32.1587 31.3136 30.5795 29.9772 29.4712 28.2807C28.3629 26.5842 27.7736 24.6012 27.7754 22.5748C27.7715 16.9107 29.8909 11.4509 33.7153 7.27294C37.5398 3.09498 42.7914 0.502384 48.4337 0.00681764C48.6773 -0.0147138 48.9227 0.0148888 49.1542 0.0937278C49.3856 0.172567 49.5981 0.298902 49.7778 0.464635C49.9576 0.630368 50.1008 0.83184 50.1982 1.05614C50.2956 1.28043 50.345 1.5226 50.3433 1.76712Z" fill="#2D3C58"/>
</svg>
