<svg width="760" height="451" viewBox="0 0 760 451" fill="none" xmlns="http://www.w3.org/2000/svg">
<path d="M733.889 173.783C635.124 527.61 256.227 737.642 -112.455 642.812C-481.137 547.983 -699.872 184.232 -601.107 -169.595C-502.342 -523.422 -123.444 -733.454 245.237 -638.625C613.919 -543.795 832.655 -180.044 733.889 173.783Z" stroke="white" stroke-opacity="0.06" stroke-width="2"/>
<path d="M561.01 129.316C487.829 391.49 207.071 547.131 -66.1319 476.86C-339.335 406.589 -501.409 137.046 -428.227 -125.128C-355.046 -387.302 -74.2882 -542.943 198.915 -472.672C472.118 -402.401 634.192 -132.858 561.01 129.316Z" stroke="white" stroke-opacity="0.06" stroke-width="2"/>
<path d="M384.289 83.8612C337.259 252.346 156.823 352.387 -18.7799 307.22C-194.383 262.053 -298.536 88.8113 -251.507 -79.6734C-204.477 -248.158 -24.0405 -348.2 151.562 -303.032C327.165 -257.865 431.319 -84.6235 384.289 83.8612Z" stroke="white" stroke-opacity="0.06" stroke-width="2"/>
<path d="M215.251 40.3827C193.237 119.251 108.759 166.111 26.5136 144.956C-55.7323 123.801 -104.484 42.6739 -82.469 -36.1948C-60.4541 -115.063 24.023 -161.923 106.269 -140.768C188.515 -119.613 237.266 -38.4859 215.251 40.3827Z" stroke="white" stroke-opacity="0.06" stroke-width="2"/>
</svg>
