<svg width="309" height="354" viewBox="0 0 309 354" fill="none" xmlns="http://www.w3.org/2000/svg">
<path d="M26.2748 -222.942C65.7748 -208.997 106.625 -194.591 141.312 -169.062C178.7 -141.548 203.412 -102.55 210.9 -59.2565C212.812 -48.2209 213.762 -36.7985 213.762 -24.9515C213.762 7.44343 206.612 43.0468 192.175 82.9443C183.362 107.275 172.037 130.919 161.087 153.776C152.4 171.915 143.4 190.678 135.725 209.665C131.562 219.952 126.812 233.334 126.812 245.893C126.812 246.018 126.812 246.142 126.812 246.267C126.862 252.534 128.112 258.264 130.537 263.307C133.225 268.9 137.462 273.894 143.15 278.138C154.55 286.652 168.125 292.319 181.262 297.8C183.35 298.674 185.512 299.572 187.612 300.471C205.125 307.911 224.975 316.35 243.612 326.487C283.587 348.246 307.9 379.23 324.887 430.126C340.837 477.913 338.45 555.324 319.55 602.687C286.062 686.614 262.45 700.808 239.625 714.54C233.125 718.447 226.975 722.142 220.687 727.423C207.65 738.359 193.362 734.614 178.237 730.644C172.325 729.096 166.2 727.485 159.937 726.687L159.925 726.811C166.187 727.61 172.3 729.221 178.212 730.769C185.925 732.791 193.212 734.701 200.312 734.763C208.3 734.826 214.8 732.529 220.775 727.523C227.05 722.255 233.2 718.56 239.7 714.652C250.912 707.911 262.5 700.945 275.512 685.141C282.537 676.59 289.3 666.328 296.187 653.745C303.962 639.551 311.637 622.86 319.675 602.737C324.25 591.277 327.937 577.832 330.65 562.764C333.275 548.183 334.862 532.741 335.362 516.875C335.875 500.958 335.275 485.441 333.575 470.76C331.812 455.505 328.925 441.823 325.012 430.101C316.612 404.946 307.025 385.709 294.825 369.58C281.562 352.041 264.837 337.91 243.675 326.4C225.037 316.25 205.175 307.824 187.662 300.371C185.562 299.485 183.4 298.574 181.312 297.7C168.187 292.219 154.612 286.564 143.237 278.051C119.612 260.399 125.725 234.77 135.862 209.715C143.537 190.728 152.525 171.965 161.212 153.826C172.162 130.969 183.5 107.325 192.312 82.9818C201.462 57.7025 207.55 34.7826 210.912 12.9238C212.812 0.540044 213.825 -11.6065 213.912 -23.1663C214.012 -35.5875 213.037 -47.7341 211.05 -59.2814C207.25 -81.29 199.15 -102.05 187 -120.988C175.187 -139.401 159.85 -155.617 141.412 -169.175C125.962 -180.547 107.812 -190.734 85.9373 -200.334C66.1623 -209.01 45.9123 -216.163 26.3373 -223.066L26.2748 -222.942Z" fill="url(#paint0_linear_232_20602)" fill-opacity="0.2"/>
<path d="M33 -222.892C72.8625 -204.99 105.712 -188.025 136.412 -163.445C170.525 -136.193 194.387 -96.9947 203.625 -53.0524C213.25 -7.27502 209.462 40.5372 192.362 89.0734C183.212 114.74 170.888 139.582 158.987 163.601C150.75 180.216 142.225 197.394 134.825 214.708C130.463 224.92 125.4 238.253 125.05 250.761C124.875 256.928 125.875 262.596 128 267.589C130.362 273.132 134.213 278.088 139.463 282.345C149.462 290.447 161.413 296.089 172.975 301.557C175.513 302.755 178.125 303.991 180.675 305.227C185.85 307.749 191.062 310.221 196.562 312.842C209.587 319.034 223.05 325.438 236.2 332.491C277.087 354.525 302.125 384.935 319.95 434.158C336.775 480.634 335.175 556.16 316.4 602.499C283.488 683.718 260.238 697.724 237.763 711.269C231.425 715.089 225.425 718.697 219.263 723.79C206 734.738 191.475 731.43 176.1 727.935C170.163 726.586 164.025 725.188 157.75 724.564L157.738 724.714C164 725.35 170.138 726.736 176.075 728.084C191.475 731.58 206.038 734.888 219.363 723.902C225.513 718.822 231.5 715.214 237.838 711.394C248.9 704.728 260.338 697.837 273.138 682.444C280.05 674.13 286.7 664.156 293.463 651.959C301.1 638.202 308.65 622.036 316.537 602.549C326.625 577.682 331.75 544.426 331.75 511.768C331.75 483.505 327.912 455.68 320.1 434.095C315.787 422.174 311.212 411.725 306.137 402.137C300.775 392.013 294.95 383.087 288.35 374.836C274.675 357.758 257.65 343.864 236.287 332.354C223.125 325.301 209.662 318.897 196.637 312.705C191.125 310.083 185.925 307.611 180.75 305.09C178.2 303.854 175.588 302.618 173.05 301.42C161.5 295.964 149.55 290.322 139.563 282.232C117.737 264.543 124.45 239.351 134.963 214.771C142.362 197.469 150.875 180.291 159.112 163.675C171.025 139.657 183.337 114.815 192.5 89.1359C209.6 40.5747 213.4 -7.27508 203.762 -53.0774C199.125 -75.136 190.95 -95.8712 179.475 -114.697C168.025 -133.484 153.562 -149.913 136.5 -163.557C121.612 -175.479 105.137 -186.402 86.125 -196.951C67.3 -207.4 47.875 -216.375 33.0625 -223.029L33 -222.892Z" fill="url(#paint1_linear_232_20602)" fill-opacity="0.2"/>
<path d="M39.7248 -222.854C73.8748 -203.392 103.05 -182.744 131.512 -157.839C162.65 -130.737 185.062 -92.3501 196.35 -46.8473C209.112 4.61011 207.862 51.0741 192.55 95.2161C183.2 122.181 169.825 148.122 156.912 173.201C149.1 188.356 141.037 204.023 133.925 219.753C129.387 229.802 124.087 242.91 123.3 255.244C123.237 256.317 123.2 257.378 123.2 258.414C123.2 269.824 127.337 279.05 135.8 286.54C144.537 294.28 155.037 299.885 165.187 305.315C168.012 306.826 170.937 308.386 173.775 309.972C183.087 315.165 193.3 320.321 204.125 325.788C212.225 329.871 220.587 334.102 228.837 338.484C270.587 360.643 296.375 390.453 315.037 438.153C332.725 483.332 331.925 556.96 313.262 602.288C280.925 680.822 258.025 694.642 235.887 708.011C229.712 711.744 223.875 715.264 217.837 720.158C204.337 731.106 189.575 728.26 173.937 725.251C167.975 724.103 161.812 722.917 155.537 722.443L155.525 722.605C161.8 723.067 167.962 724.253 173.912 725.401C189.587 728.422 204.387 731.281 217.95 720.283C223.962 715.402 229.8 711.881 235.975 708.149C246.9 701.557 258.187 694.741 270.775 679.761C277.575 671.672 284.1 661.997 290.75 650.175C298.237 636.842 305.662 621.2 313.425 602.35C318 591.24 321.587 578.307 324.1 563.888C326.525 549.969 327.825 535.263 328 520.183C328.162 505.103 327.175 490.41 325.062 476.503C322.875 462.097 319.562 449.176 315.212 438.091C310.662 426.481 305.85 416.245 300.475 406.795C294.85 396.92 288.787 388.181 281.912 380.067C267.825 363.426 250.487 349.769 228.912 338.309C220.662 333.928 212.287 329.708 204.2 325.614C193.387 320.158 183.162 314.99 173.862 309.809C171.025 308.224 168.1 306.663 165.275 305.153C155.125 299.735 144.637 294.117 135.925 286.403C115.9 268.676 123.212 243.921 134.1 219.815C141.2 204.098 149.275 188.431 157.075 173.276C170 148.184 183.362 122.243 192.725 95.2661C196.75 83.6688 199.837 71.7344 201.912 59.8126C203.925 48.2528 205.037 36.3309 205.225 24.3716C205.412 12.8368 204.737 0.877447 203.237 -11.1567C201.8 -22.7041 199.537 -34.7258 196.525 -46.8848C191.012 -69.0931 182.762 -89.8034 172.012 -108.429C160.925 -127.629 147.337 -144.282 131.637 -157.951C103.162 -182.856 73.9873 -203.517 39.8248 -222.979L39.7248 -222.854Z" fill="url(#paint2_linear_232_20602)" fill-opacity="0.2"/>
<path d="M46.45 -222.805C73.6 -203.106 97.2875 -180.373 124.712 -154.045L126.612 -152.222C154.475 -125.67 175.487 -88.1315 189.075 -40.6439C196.162 -15.9014 202.462 11.7498 202.462 41.2111C202.462 60.5732 199.737 80.7093 192.725 101.345C183.2 129.383 168.85 156.21 154.962 182.164C147.537 196.058 139.85 210.414 133.012 224.77C128.312 234.645 122.762 247.528 121.537 259.712C120.262 272.383 123.712 282.519 132.112 290.709C139.725 298.124 148.9 303.704 157.787 309.097C160.762 310.907 163.837 312.767 166.837 314.69C178.687 322.292 193.262 329.832 208.7 337.822C212.862 339.981 217.175 342.203 221.425 344.438C263.55 366.547 290.912 396.682 310.125 442.16C328.662 486.052 328.662 557.795 310.125 602.075C278.375 677.925 255.825 691.557 234.025 704.74C228.013 708.373 222.325 711.818 216.437 716.512C202.713 727.473 187.7 725.076 171.812 722.542C165.825 721.593 159.65 720.607 153.363 720.307L153.35 720.494C159.625 720.794 165.812 721.78 171.788 722.729C187.713 725.275 202.75 727.672 216.55 716.662C222.437 711.968 228.113 708.535 234.125 704.902C244.912 698.386 256.05 691.645 268.425 677.076C275.1 669.212 281.513 659.824 288.05 648.376C295.4 635.481 302.687 620.363 310.312 602.15C319.337 580.59 324.312 552.14 324.312 522.017C324.312 521.955 324.312 521.905 324.312 521.843C324.3 507.187 323.125 492.893 320.787 479.373C318.387 465.404 314.862 452.858 310.312 442.085C300.725 419.39 289.325 400.826 275.45 385.309C260.975 369.131 243.35 355.711 221.537 344.263C217.287 342.029 212.975 339.807 208.812 337.647C193.375 329.657 178.8 322.117 166.962 314.527C163.962 312.605 160.887 310.732 157.912 308.935C148.625 303.305 139.862 297.974 132.262 290.571C114.05 272.807 121.95 248.489 133.212 224.858C140.05 210.501 147.725 196.145 155.162 182.251C169.05 156.298 183.4 129.458 192.937 101.407C200.662 78.6495 203.762 55.3301 202.412 30.0883C201.287 9.15326 197.112 -13.3422 189.287 -40.6938C182.837 -63.2516 174.512 -83.937 164.55 -102.151C153.8 -121.812 141.1 -138.703 126.775 -152.347L124.875 -154.17C97.45 -180.498 73.7625 -203.243 46.6 -222.942L46.45 -222.805Z" fill="url(#paint3_linear_232_20602)" fill-opacity="0.2"/>
<path d="M53.1619 -222.779C66.7119 -210.121 78.6244 -196.052 91.2369 -181.159C100.724 -169.961 110.524 -158.389 121.687 -146.617C145.887 -121.113 165.549 -84.4108 181.774 -34.4389C192.162 -2.45587 200.787 27.6421 200.787 58.5141C200.787 74.5056 198.474 90.7094 192.887 107.487C183.237 136.474 167.899 164.088 153.074 190.778C145.999 203.524 138.674 216.694 132.087 229.814C127.224 239.501 121.437 252.172 119.762 264.194C119.437 266.553 119.274 268.825 119.274 271.01C119.274 280.385 122.287 288.237 128.412 294.879C134.999 302.032 142.662 307.337 150.762 312.943C153.762 315.015 156.862 317.174 159.899 319.409C173.149 329.221 191.637 338.796 211.212 348.945L214.024 350.406C257.112 372.764 285.237 402.288 305.199 446.155C324.924 489.486 325.699 557.883 306.987 601.863C275.849 675.03 253.624 688.474 232.149 701.482C226.549 704.865 220.774 708.373 215.024 712.88C201.062 723.84 185.812 721.905 169.662 719.871C163.662 719.109 157.449 718.323 151.162 718.185L151.162 718.385C157.449 718.522 163.649 719.309 169.649 720.07C185.837 722.118 201.124 724.065 215.162 713.042C220.899 708.536 226.687 705.04 232.274 701.657C253.787 688.637 276.037 675.167 307.199 601.963C316.237 580.741 320.999 552.877 320.624 523.504C320.437 509.26 319.062 495.39 316.524 482.258C313.912 468.713 310.174 456.554 305.412 446.093C295.399 424.084 283.474 405.92 268.974 390.578C254.137 374.874 236.212 361.691 214.149 350.244L211.337 348.783C191.774 338.646 173.299 329.059 160.062 319.272C157.037 317.025 153.924 314.877 150.924 312.805C142.824 307.2 135.187 301.907 128.612 294.766C121.112 286.627 118.299 276.64 120.024 264.231C121.687 252.235 127.474 239.589 132.324 229.914C138.912 216.794 146.224 203.624 153.299 190.878C168.137 164.175 183.474 136.549 193.124 107.55C197.112 95.553 199.537 83.6311 200.524 71.135C201.424 59.7874 201.099 48.2276 199.562 35.8064C196.537 11.4758 188.912 -13.2417 182.012 -34.5137C174.362 -58.0703 166.187 -78.1439 157.037 -95.8707C151.974 -105.67 146.549 -114.808 140.924 -123.035C134.949 -131.761 128.537 -139.751 121.874 -146.766C110.712 -158.526 100.912 -170.098 91.4244 -181.296C78.8119 -196.189 66.8869 -210.258 53.3369 -222.929L53.1619 -222.779Z" fill="url(#paint4_linear_232_20602)" fill-opacity="0.2"/>
<path d="M59.8873 -222.742C68.8624 -211.707 76.4248 -199.685 84.4373 -186.951C93.9498 -171.846 103.775 -156.217 116.787 -141.012C142.3 -111.201 159.612 -69.1936 174.512 -28.2474C175.362 -25.913 176.212 -23.5909 177.062 -21.2815C188.575 10.1897 199.637 40.4374 199.637 72.4329C199.637 85.7779 197.712 99.435 193.1 113.604C183.375 143.452 167.05 171.728 151.262 199.079C144.512 210.764 137.55 222.848 131.212 234.845C126.187 244.357 120.162 256.803 118.037 268.675C117.5 271.721 117.225 274.63 117.225 277.389C117.225 285.765 119.712 292.906 124.75 299.06C130.437 306.014 137.087 311.307 144.125 316.899C147.037 319.209 150.05 321.606 152.987 324.14C165.6 334.976 185.562 345.574 206.637 356.385C250.725 379.005 279.612 407.917 300.287 450.162C311.25 472.558 316.812 501.919 316.812 530.931C316.812 556.398 312.525 581.602 303.85 601.651C273.337 672.121 251.437 685.391 230.262 698.224C224.825 701.52 219.2 704.928 213.6 709.247C199.4 720.207 183.9 718.747 167.5 717.199C161.475 716.625 155.25 716.038 148.95 716.063L148.95 716.288C155.237 716.263 161.462 716.849 167.475 717.424C183.925 718.984 199.45 720.457 213.725 709.434C219.325 705.115 224.937 701.707 230.362 698.424C251.562 685.578 273.5 672.283 304.037 601.775C313.062 580.94 317.625 553.726 316.875 525.164C316.512 511.344 314.937 497.874 312.2 485.129C309.375 472.021 305.425 460.224 300.475 450.1C279.775 407.805 250.862 378.856 206.725 356.21C185.662 345.412 165.712 334.813 153.112 324.003C150.162 321.469 147.15 319.072 144.237 316.762C137.2 311.17 130.562 305.889 124.9 298.948C118.25 290.809 116.075 280.922 118.237 268.738C120.35 256.891 126.375 244.47 131.387 234.97C137.712 222.973 144.687 210.901 151.437 199.216C167.225 171.852 183.562 143.565 193.287 113.704C197.075 102.082 199.175 90.5966 199.725 78.5749C200.212 67.8015 199.425 56.8035 197.325 44.9565C193.412 22.848 185.562 1.38868 177.25 -21.3315C176.4 -23.6409 175.55 -25.9753 174.7 -28.2973C168.325 -45.8118 159.7 -68.6069 149.512 -89.5544C139.25 -110.652 128.587 -127.529 116.95 -141.137C103.95 -156.329 94.1248 -171.946 84.6123 -187.039C76.5998 -199.772 69.0248 -211.806 60.0373 -222.854L59.8873 -222.742Z" fill="url(#paint5_linear_232_20602)" fill-opacity="0.2"/>
<path d="M66.6003 -222.717C72.8628 -212.206 77.8128 -200.821 83.0378 -188.774C90.7878 -170.935 98.8003 -152.472 111.875 -135.419C132.688 -108.255 147.125 -72.2024 162.413 -34.04C163.988 -30.1202 165.613 -26.063 167.225 -22.0558C169.65 -16.0511 172.163 -10.059 174.6 -4.25414C186.975 25.2072 198.863 53.4951 198.863 84.1298C198.863 95.6148 197.2 107.412 193.263 119.746C183.488 150.368 166.175 179.242 149.438 207.156C143.013 217.867 136.375 228.927 130.3 239.888C125.125 249.226 118.85 261.435 116.288 273.182C113.65 285.228 115.213 295.065 121.05 303.255C125.913 310.071 131.675 315.389 137.763 321.019C140.475 323.528 143.288 326.125 146.05 328.883C157.588 340.456 178.425 351.816 199.238 362.377C244.375 385.272 274.025 413.585 295.363 454.194C316.788 494.965 319.138 559.655 300.7 601.463C270.838 669.212 249.25 682.307 228.363 694.965C223.088 698.161 217.638 701.469 212.175 705.614C197.725 716.587 182 715.588 165.338 714.527C159.3 714.14 153.05 713.753 146.75 713.928L146.763 714.178C153.05 714.003 159.3 714.39 165.325 714.777C182.025 715.838 197.8 716.837 212.325 705.814C217.775 701.681 223.213 698.373 228.488 695.177C238.888 688.873 249.638 682.357 261.388 669.012C267.713 661.821 273.788 653.32 279.95 642.996C286.875 631.399 293.738 617.842 300.913 601.563C309.925 581.102 314.288 554.562 313.175 526.799C312.638 513.404 310.863 500.346 307.913 487.975C304.888 475.291 300.725 463.881 295.563 454.069C274.2 413.422 244.525 385.072 199.338 362.152C178.55 351.604 157.725 340.256 146.213 328.709C143.45 325.937 140.638 323.341 137.925 320.832C131.838 315.214 126.1 309.908 121.25 303.105C115.45 294.978 113.9 285.203 116.525 273.219C119.088 261.509 125.35 249.313 130.513 239.988C136.588 229.04 143.225 217.967 149.65 207.268C166.4 179.342 183.725 150.468 193.5 119.808C207.963 74.4924 191.875 36.1928 174.838 -4.354C172.4 -10.1464 169.888 -16.1511 167.463 -22.1432C165.85 -26.1504 164.225 -30.2076 162.65 -34.1274C147.363 -72.3023 132.913 -108.367 112.075 -135.569C99.0253 -152.609 91.0128 -171.048 83.2628 -188.874C78.0253 -200.933 73.0753 -212.318 66.8003 -222.842L66.6003 -222.717Z" fill="url(#paint6_linear_232_20602)" fill-opacity="0.2"/>
<path d="M73.3117 -222.692C77.5742 -212.281 80.5492 -201.046 83.6867 -189.136C89.0117 -168.975 94.5117 -148.128 106.974 -129.802C121.712 -108.13 132.924 -80.7785 144.799 -51.829C149.624 -40.057 154.612 -27.898 159.962 -15.8388C163.662 -7.4873 167.649 0.764411 171.512 8.72895C185.212 37.0668 198.349 64.2311 198.349 94.4039C198.349 104.516 196.874 114.952 193.462 125.888C183.662 157.234 165.349 186.62 147.637 215.033C141.537 224.82 135.224 234.944 129.412 244.931C124.087 254.082 117.587 266.066 114.562 277.688C111.487 289.535 112.412 299.272 117.387 307.449C121.512 314.228 126.474 319.621 131.724 325.326C134.162 327.972 136.674 330.706 139.149 333.64C149.849 346.311 171.812 358.32 191.874 368.382C238.112 391.576 268.512 419.29 290.474 458.226C312.749 497.724 315.874 560.567 297.587 601.288C268.387 666.328 247.087 679.248 226.487 691.745C221.374 694.841 216.087 698.049 210.787 702.006C196.087 712.967 180.112 712.455 163.212 711.893C157.162 711.693 150.899 711.494 144.587 711.831L144.599 712.093C150.899 711.756 157.149 711.968 163.199 712.155C180.162 712.705 196.174 713.229 210.949 702.206C216.237 698.261 221.524 695.053 226.624 691.957C236.912 685.715 247.537 679.273 259.087 666.34C265.299 659.375 271.262 651.16 277.312 641.223C284.099 630.051 290.812 617.03 297.837 601.388C306.849 581.315 310.987 555.424 309.512 528.471C308.799 515.501 306.824 502.855 303.662 490.871C300.424 478.624 296.062 467.589 290.712 458.089C268.737 419.103 238.287 391.364 191.999 368.145C171.962 358.095 150.037 346.111 139.362 333.465C136.887 330.531 134.374 327.797 131.937 325.151C126.699 319.458 121.749 314.065 117.637 307.312C112.699 299.198 111.774 289.535 114.837 277.763C117.849 266.178 124.337 254.207 129.662 245.069C135.474 235.082 141.787 224.97 147.887 215.183C165.612 186.758 183.937 157.359 193.737 125.975C197.162 115.014 198.637 104.541 198.637 94.4039C198.637 64.1812 185.487 36.9918 171.774 8.62903C167.924 0.652045 163.937 -7.58709 160.224 -15.9387C154.874 -27.9853 149.887 -40.1569 145.062 -51.9289C133.187 -80.8909 121.962 -108.255 107.212 -129.951C94.7867 -148.24 89.2867 -169.063 83.9617 -189.199C80.8117 -201.108 77.8492 -212.356 73.5743 -222.78L73.3117 -222.692Z" fill="url(#paint7_linear_232_20602)" fill-opacity="0.2"/>
<path d="M80.0374 -222.666C82.6499 -212.155 83.9623 -200.808 85.3373 -188.811C87.8998 -166.528 90.5624 -143.495 102.062 -124.196C112.612 -106.494 121.137 -85.0721 130.162 -62.4019C137.025 -45.1371 144.125 -27.2855 152.675 -9.63366C157.5 0.328254 162.875 10.0655 168.075 19.4781C183.337 47.1043 197.962 73.5571 197.962 103.705C197.962 112.768 196.65 122.156 193.625 132.018C183.825 164.026 164.5 193.862 145.8 222.724C140.012 231.649 134.037 240.875 128.487 249.963C120.35 263.27 115.512 273.22 112.8 282.196C109.275 293.843 109.562 303.468 113.687 311.619C117.15 318.46 121.4 324.016 125.9 329.895C127.962 332.592 130.087 335.376 132.2 338.359C136.462 344.389 143.425 350.531 153.5 357.135C161.45 362.353 171.287 367.821 184.462 374.362C231.85 397.881 263.025 424.983 285.537 462.234C308.65 500.484 312.55 561.466 294.437 601.077C265.925 663.408 244.9 676.166 224.575 688.487C219.625 691.483 214.512 694.592 209.375 698.362C194.425 709.322 178.212 709.285 161.05 709.235C154.975 709.222 148.7 709.197 142.387 709.697L142.412 709.984C148.712 709.497 154.987 709.51 161.05 709.534C178.262 709.572 194.525 709.622 209.55 698.599C214.675 694.841 219.787 691.745 224.725 688.737C234.9 682.57 245.412 676.191 256.762 663.67C262.875 656.929 268.712 649.001 274.637 639.439C281.287 628.703 287.85 616.195 294.7 601.202C303.7 581.515 307.637 556.286 305.775 530.133C303.962 504.579 296.862 480.423 285.787 462.097C274.075 442.71 260.075 426.194 242.987 411.601C226.975 397.931 207.875 385.66 184.6 374.112C164.2 363.988 142.05 351.804 132.45 338.21C130.337 335.226 128.212 332.442 126.137 329.746C121.65 323.878 117.4 318.336 113.962 311.52C109.875 303.43 109.587 293.88 113.1 282.308C115.812 273.345 120.637 263.433 128.762 250.138C134.312 241.062 140.287 231.837 146.075 222.911C164.787 194.036 184.125 164.188 193.937 132.13C207.037 89.3364 188.25 55.3434 168.362 19.3657C163.162 9.95307 157.787 0.215888 152.962 -9.73351C144.425 -27.3854 137.325 -45.2244 130.462 -62.4768C121.437 -85.172 112.912 -106.594 102.35 -124.321C90.8749 -143.558 88.2249 -166.565 85.6624 -188.823C84.2749 -200.833 82.9749 -212.18 80.3499 -222.716L80.0374 -222.666Z" fill="url(#paint8_linear_232_20602)" fill-opacity="0.2"/>
<path d="M86.7503 -222.654C87.9003 -211.918 87.7253 -200.359 87.5378 -188.112C87.4628 -183.568 87.4003 -178.999 87.4003 -174.43C87.4003 -154.606 88.7253 -134.957 97.1503 -118.603C104.663 -104.023 111 -86.9825 117.7 -68.9437C125.675 -47.4719 133.925 -25.2635 145.388 -3.42968C151.225 7.69324 157.963 18.454 164.475 28.8654C186.063 63.3576 206.45 95.9523 193.8 138.159C184.025 170.792 163.65 201.039 143.95 230.288C138.488 238.39 132.85 246.779 127.575 255.006C119.225 268.039 114.125 277.826 111.038 286.727C107.063 298.174 106.725 307.687 109.988 315.801C112.838 322.892 116.463 328.734 120.313 334.926C121.925 337.523 123.6 340.219 125.263 343.078C128.988 349.494 135.663 355.923 145.7 362.727C153.663 368.132 163.625 373.725 177.063 380.329C225.675 404.198 257.613 430.7 280.613 466.241C304.95 503.854 309.538 561.728 291.288 600.864C263.463 660.486 242.7 673.07 222.625 685.241C217.85 688.137 212.9 691.133 207.938 694.716C192.738 705.677 176.275 706.114 158.85 706.588C152.763 706.75 146.475 706.925 140.163 707.562L140.188 707.861C146.488 707.225 152.775 707.05 158.85 706.888C176.325 706.413 192.825 705.976 208.1 694.953C213.063 691.383 218 688.387 222.763 685.491C232.838 679.386 243.25 673.082 254.4 660.96C260.4 654.444 266.138 646.804 271.925 637.616C278.425 627.305 284.838 615.32 291.525 600.977C296.138 591.102 299.363 579.942 301.125 567.808C302.8 556.223 303.1 544.101 302.013 531.768C299.838 507.137 292.313 483.806 280.838 466.066C268.7 447.316 254.175 431.212 236.425 416.831C220.225 403.698 200.838 391.677 177.163 380.054C163.738 373.463 153.788 367.883 145.838 362.477C135.85 355.686 129.188 349.295 125.5 342.928C123.838 340.057 122.163 337.373 120.55 334.764C116.713 328.584 113.1 322.755 110.25 315.689C107.013 307.637 107.363 298.199 111.313 286.827C114.388 277.938 119.488 268.176 127.813 255.168C133.088 246.942 138.725 238.565 144.188 230.451C163.9 201.189 184.275 170.916 194.075 138.247C197.125 128.06 198.363 118.198 197.863 108.099C197.413 99.0732 195.563 90.035 192.213 80.4726C185.975 62.6835 175.65 46.1802 164.713 28.7031C158.2 18.3043 151.475 7.5434 145.638 -3.56701C134.188 -25.3884 125.938 -47.5842 117.963 -69.0435C111.25 -87.0948 104.925 -104.147 97.4003 -118.741C87.0628 -138.777 87.4503 -163.857 87.8253 -188.1C88.0128 -200.359 88.1878 -211.931 87.0378 -222.679L86.7503 -222.654Z" fill="url(#paint9_linear_232_20602)" fill-opacity="0.2"/>
<path d="M86.4626 -146.005C86.4626 -134.096 87.9376 -122.848 92.2501 -112.999C97.5001 -101.002 102.063 -87.4073 106.9 -73.0012C114.875 -49.2449 123.9 -22.3303 138.125 2.7743C144.913 14.7586 152.975 26.2435 160.775 37.3539C184.2 70.7351 206.325 102.256 194 144.288C184.25 177.507 162.825 208.117 142.113 237.703C136.988 245.031 131.675 252.609 126.7 260.024C115.725 276.378 105.063 294.741 105.063 310.882C105.063 314.003 105.463 317.037 106.338 319.958C108.625 327.61 111.725 334.002 115 340.78C116.088 343.028 117.213 345.349 118.35 347.796C121.513 354.6 127.913 361.328 137.913 368.357C145.838 373.924 155.925 379.629 169.688 386.308C220.288 410.901 251.988 436.005 275.713 470.248C300.888 506.6 306.238 562.664 288.163 600.652C261.075 657.577 241.463 669.449 220.713 682.007C216.113 684.791 211.35 687.675 206.55 691.071C191.088 702.019 174.388 702.955 156.7 703.941C150.6 704.278 144.3 704.64 138 705.414L138.038 705.739C144.338 704.952 150.638 704.603 156.725 704.266C174.45 703.28 191.2 702.343 206.738 691.333C211.525 687.95 216.275 685.066 220.875 682.282C230.85 676.24 241.163 669.998 252.125 658.289C258 651.997 263.625 644.644 269.3 635.831C275.663 625.956 281.913 614.496 288.438 600.789C293.05 591.089 296.225 580.179 297.875 568.369C299.438 557.121 299.588 545.362 298.313 533.415C295.775 509.709 287.838 487.201 275.963 470.048C263.413 451.922 248.35 436.23 229.938 422.074C213.375 409.34 194.275 397.88 169.813 385.996C156.075 379.317 145.988 373.625 138.088 368.07C128.138 361.079 121.763 354.4 118.638 347.646C117.5 345.2 116.375 342.878 115.288 340.631C112.013 333.865 108.913 327.485 106.638 319.858C101.3 301.944 113.913 279.648 126.963 260.199C131.95 252.771 137.25 245.206 142.375 237.878C163.113 208.267 184.55 177.632 194.313 144.363C197.288 134.214 198.375 124.44 197.613 114.478C196.938 105.577 194.788 96.7134 191.05 87.3757C184.1 69.9985 172.9 54.0444 161.05 37.1666C153.263 26.0687 145.2 14.5838 138.413 2.61201C124.213 -22.4676 115.175 -49.3697 107.213 -73.1136C102.375 -87.5196 97.8126 -101.127 92.5501 -113.136C83.4751 -133.871 87.0126 -160.948 90.4251 -187.139C92.0626 -199.722 93.6251 -211.594 93.8001 -222.63L93.4751 -222.63C93.2876 -211.607 91.7377 -199.735 90.1002 -187.176C88.3002 -173.344 86.4626 -159.275 86.4626 -146.005Z" fill="url(#paint10_linear_232_20602)" fill-opacity="0.2"/>
<path d="M83.8502 -129.989C83.8502 -121.875 84.8501 -114.247 87.3376 -107.406C90.8751 -97.644 94.0377 -86.8582 97.3751 -75.4357C105.15 -48.8705 113.95 -18.7726 130.85 8.97852C138.55 21.6244 147.913 33.6212 156.975 45.2309C182.325 77.7007 206.263 108.361 194.175 150.418C184.475 184.198 161.963 215.12 140.2 245.031C135.413 251.61 130.463 258.413 125.788 265.067C117.15 277.364 111.35 287.126 107.55 295.789C102.688 306.862 101.075 316.138 102.638 324.14C104.363 333.016 106.963 340.206 109.975 348.533C110.45 349.831 110.925 351.167 111.413 352.527C113.988 359.743 120.1 366.759 130.088 373.999C137.95 379.692 148.175 385.509 162.288 392.288C214.3 417.305 246.75 441.823 270.788 474.268C296.775 509.359 302.9 563.6 285 600.439C258.663 654.656 239.263 666.378 218.725 678.787C214.3 681.458 209.725 684.229 205.113 687.438C189.388 698.373 172.438 699.809 154.5 701.319C148.4 701.831 142.088 702.368 135.788 703.292L135.838 703.629C142.138 702.705 148.438 702.168 154.538 701.656C172.525 700.133 189.525 698.71 205.325 687.712C209.925 684.504 214.5 681.745 218.925 679.074C228.813 673.094 239.038 666.915 249.825 655.604C255.625 649.525 261.138 642.459 266.675 634.033C272.888 624.583 278.988 613.647 285.338 600.589C289.963 591.064 293.088 580.416 294.625 568.931C296.088 558.02 296.075 546.635 294.613 535.075C291.725 512.293 283.363 490.621 271.088 474.055C258.125 456.553 242.538 441.286 223.438 427.354C206.825 415.233 187.45 403.997 162.463 391.976C148.375 385.197 138.163 379.392 130.313 373.712C120.388 366.522 114.313 359.543 111.763 352.403C111.275 351.042 110.8 349.706 110.325 348.408C107.325 340.094 104.725 332.903 103 324.065C101.45 316.125 103.05 306.925 107.888 295.914C111.688 287.276 117.475 277.538 126.1 265.254C130.775 258.601 135.725 251.797 140.513 245.231C162.3 215.295 184.825 184.348 194.538 150.518C197.463 140.356 198.388 130.619 197.363 120.744C196.45 111.918 194 103.167 189.875 94.0044C182.188 76.9393 170.088 61.4471 157.275 45.0311C148.213 33.4338 138.85 21.4371 131.175 8.80372C114.313 -18.9098 105.513 -48.9954 97.7377 -75.5355C94.4002 -86.958 91.2377 -97.7439 87.7002 -107.519C79.9502 -128.89 86.7127 -157.927 93.2627 -186.003C96.2876 -198.961 99.1376 -211.195 100.588 -222.567L100.25 -222.605C98.8001 -211.257 95.9501 -199.023 92.9376 -186.078C88.4251 -166.928 83.8502 -147.329 83.8502 -129.989Z" fill="url(#paint11_linear_232_20602)" fill-opacity="0.2"/>
<path d="M80.425 -117.467C80.425 -111.887 81.0375 -106.644 82.4375 -101.813C84.6875 -94.0231 86.7375 -85.6466 88.9125 -76.7708C96.0125 -47.7214 104.063 -14.7897 123.575 15.171C132.138 28.3162 142.8 40.7 153.113 52.6592C175.738 78.9122 197.325 103.979 197.325 135.8C197.325 142.404 196.4 149.295 194.363 156.548C184.713 190.865 161.1 222.074 138.25 252.26C133.813 258.114 129.238 264.169 124.888 270.099C116.038 282.133 109.975 291.733 105.775 300.334C101.113 309.884 98.8251 318.111 98.8251 325.339C98.8251 326.35 98.875 327.336 98.9626 328.31C99.95 339.058 102.05 347.772 104.488 357.247C106.45 364.874 112.263 372.202 122.25 379.655C130.038 385.46 140.413 391.377 154.9 398.28C194.575 417.168 235.475 439.938 265.875 478.288C289.263 507.799 302.275 559.157 281.875 600.253C256.313 651.748 237.1 663.332 216.763 675.591C212.525 678.15 208.138 680.797 203.713 683.818C187.713 694.754 170.513 696.676 152.313 698.723C146.213 699.41 139.9 700.122 133.588 701.195L133.65 701.557C139.938 700.484 146.25 699.772 152.35 699.098C170.6 697.051 187.838 695.116 203.913 684.13C208.325 681.121 212.713 678.475 216.95 675.916C227.213 669.724 236.913 663.882 247.513 652.971C253.213 647.104 258.613 640.338 264.038 632.273C270.1 623.247 276.05 612.836 282.213 600.427C286.85 591.077 289.925 580.678 291.35 569.531C292.7 558.957 292.538 547.946 290.875 536.774C287.625 514.915 278.85 494.08 266.175 478.076C252.8 461.198 236.675 446.342 216.9 432.648C200.338 421.175 180.688 410.165 155.075 397.968C140.613 391.077 130.263 385.173 122.488 379.38C112.575 371.977 106.813 364.712 104.863 357.172C102.425 347.709 100.325 339.008 99.3376 328.285C98.6125 320.42 100.838 311.332 106.125 300.509C110.313 291.933 116.375 282.345 125.2 270.336C129.55 264.419 134.138 258.364 138.563 252.509C161.425 222.299 185.063 191.065 194.725 156.685C197.6 146.474 198.375 136.736 197.1 126.912C195.963 118.136 193.213 109.472 188.675 100.422C180.238 83.6061 167.2 68.476 153.4 52.4595C143.1 40.5002 132.438 28.1414 123.888 15.0087C104.413 -14.9021 96.3625 -47.7964 89.275 -76.8208C87.1 -85.6966 85.05 -94.0856 82.8 -101.888C76.4375 -123.859 86.4875 -154.818 96.2125 -184.754C100.55 -198.124 104.65 -210.757 107.313 -222.492L106.963 -222.567C104.313 -210.857 100.213 -198.236 95.875 -184.866C88.2375 -161.46 80.425 -137.391 80.425 -117.467Z" fill="url(#paint12_linear_232_20602)" fill-opacity="0.2"/>
<path d="M76.4627 -106.77C76.4627 -103.062 76.8002 -99.529 77.5252 -96.2209C78.8377 -90.2412 80.0503 -83.962 81.3253 -77.3082C84.2128 -62.3029 87.4877 -45.3002 92.7252 -28.4474C98.7377 -9.11028 106.45 7.18086 116.3 21.3622C125.7 34.9069 137.638 47.5404 149.188 59.7493C178.538 90.8085 206.25 120.133 194.55 162.664C184.963 197.494 160.2 228.965 136.263 259.4C132.2 264.568 128 269.898 124 275.104C117.263 283.868 108.888 294.778 103.125 304.902C97.7378 314.39 95.0878 322.417 95.0878 329.295C95.0878 330.381 95.1503 331.43 95.2878 332.466C95.8878 337.198 96.0627 341.642 96.2377 345.936C96.4377 351.029 96.6378 356.285 97.5753 361.94C98.9003 369.979 104.413 377.619 114.4 385.284C122.213 391.277 132.425 397.131 147.513 404.235C194.788 426.518 232.175 448.314 260.975 482.282C285.088 510.707 298.925 560.28 278.75 600.027C253.975 648.813 234.938 660.261 214.775 672.382C210.725 674.817 206.538 677.338 202.313 680.16C186.038 691.083 168.588 693.517 150.113 696.101C144.013 696.95 137.7 697.836 131.4 699.047L131.475 699.422C137.75 698.211 144.063 697.337 150.163 696.476C168.675 693.892 186.175 691.445 202.525 680.472C206.738 677.65 210.925 675.129 214.963 672.694C225.163 666.565 234.788 660.785 245.225 650.261C250.825 644.606 256.125 638.127 261.425 630.437C267.35 621.836 273.125 611.937 279.1 600.177C283.763 591.002 286.775 580.865 288.088 570.042C289.325 559.805 289 549.157 287.15 538.383C283.55 517.461 274.363 497.45 261.275 482.02C247.488 465.766 230.838 451.323 210.363 437.878C189.088 423.909 165.7 412.374 147.7 403.885C124.763 393.074 100.913 379.617 97.9753 361.878C97.0503 356.26 96.8378 351.004 96.6378 345.924C96.4753 341.617 96.3003 337.173 95.6878 332.416C93.5253 315.426 109.888 294.129 124.325 275.341C128.325 270.136 132.525 264.793 136.588 259.637C160.55 229.177 185.338 197.681 194.95 162.777C197.775 152.49 198.413 142.728 196.888 132.916C195.525 124.152 192.45 115.551 187.5 106.6C178.3 89.9722 164.313 75.1666 149.5 59.4996C137.963 47.2907 126.038 34.6698 116.65 21.15C94.5877 -10.6207 87.7627 -46.0992 81.7377 -77.3831C80.4627 -84.0369 79.2502 -90.3285 77.9377 -96.3082C73.0002 -118.841 86.3752 -151.711 99.3127 -183.506C104.938 -197.313 110.25 -210.359 114.063 -222.48L113.7 -222.592C109.888 -210.496 104.575 -197.45 98.9627 -183.656C87.8502 -156.442 76.4627 -128.466 76.4627 -106.77Z" fill="url(#paint13_linear_232_20602)" fill-opacity="0.2"/>
<path d="M72.1499 -97.2063C72.1499 -94.9217 72.3 -92.7247 72.625 -90.615C73.2749 -86.3331 73.875 -81.9264 74.5125 -77.2575C76.7 -61.3534 79.1624 -43.3395 84.1499 -25.3381C89.8875 -4.6278 98.0249 12.687 109.025 27.5924C119.25 41.4492 132.45 54.2448 145.2 66.6411C176.612 97.126 206.275 125.926 194.725 168.832C185.212 204.16 159.275 235.869 134.187 266.516C130.512 270.998 126.712 275.642 123.087 280.173C109.5 297.088 93.65 318.785 91.5875 336.637C91.3 339.121 90.9125 341.555 90.55 343.914C89.325 351.667 88.175 358.995 90.6375 366.735C93.3 375.086 99.15 383.138 108.037 390.666C116.1 397.494 126.887 404.085 140.1 410.252C181.275 429.465 224.137 451.174 256.037 486.327C280.862 513.679 295.55 561.454 275.587 599.841C251.637 645.918 232.725 657.241 212.712 669.225C208.862 671.534 204.887 673.906 200.875 676.553C184.312 687.463 166.6 690.409 147.862 693.53C141.762 694.542 135.462 695.603 129.187 696.938L129.275 697.338C135.537 695.99 141.837 694.941 147.937 693.93C166.725 690.796 184.475 687.838 201.1 676.89C205.1 674.256 209.075 671.871 212.925 669.574C223.062 663.507 232.637 657.777 242.912 647.641C248.425 642.198 253.625 636.006 258.787 628.691C264.562 620.514 270.187 611.139 275.95 600.028C280.625 591.027 283.6 581.153 284.787 570.654C285.912 560.767 285.437 550.481 283.387 540.107C279.437 520.121 269.825 500.921 256.337 486.065C242.15 470.436 224.962 456.417 203.775 443.209C183.125 430.339 160.087 419.141 140.275 409.903C112.637 397.007 96.075 382.439 91.025 366.635C88.5875 358.995 89.7375 351.717 90.95 344.002C91.325 341.642 91.7125 339.196 92 336.711C94.0375 318.96 109.862 297.326 123.412 280.46C127.05 275.941 130.85 271.297 134.512 266.816C159.625 236.131 185.587 204.398 195.125 168.982C197.925 158.608 198.412 148.796 196.625 138.984C195.037 130.22 191.65 121.656 186.275 112.78C176.287 96.3021 161.337 81.7712 145.5 66.4039C132.75 54.0327 119.575 41.2369 109.362 27.4051C84.7 -6.00103 79.2874 -45.5117 74.9249 -77.2575C74.2874 -81.9264 73.675 -86.333 73.0375 -90.6274C69.55 -113.71 86.2875 -148.464 102.475 -182.095C109.35 -196.364 115.837 -209.846 120.787 -222.354L120.412 -222.504C115.462 -210.008 108.975 -196.538 102.112 -182.27C87.35 -151.697 72.1499 -120.126 72.1499 -97.2063Z" fill="url(#paint14_linear_232_20602)" fill-opacity="0.2"/>
<path d="M67.5623 -88.4311C67.5623 -87.2701 67.6123 -86.1341 67.6998 -85.0356C67.9248 -82.3641 68.1373 -79.6676 68.3623 -76.8089C71.0498 -43.1031 74.3873 -1.14574 101.725 33.7959C112.75 47.8899 127.187 60.7979 141.15 73.294C174.662 103.28 206.312 131.605 194.887 174.948C185.45 210.776 158.287 242.684 132.037 273.531C128.775 277.364 125.4 281.321 122.162 285.191C108.237 301.782 91.7498 323.104 87.8873 340.78C87.3248 343.352 86.6498 345.874 86.0123 348.308C84.4998 354.013 83.0373 359.493 83.0373 365.161C83.0373 367.221 83.2248 369.305 83.6748 371.428C84.6373 375.997 86.5748 380.453 89.4123 384.698C92.0873 388.705 95.6748 392.65 100.05 396.432C107.975 403.261 118.637 409.727 132.675 416.206C178.775 437.516 219.512 457.802 251.087 490.321C275.837 515.8 293.062 560.866 272.412 599.615C249.325 642.996 230.525 654.194 210.625 666.053C206.987 668.225 203.225 670.46 199.45 672.894C182.587 683.78 164.625 687.25 145.6 690.933C139.512 692.106 133.225 693.33 126.975 694.803L127.075 695.215C133.312 693.742 139.6 692.531 145.687 691.345C164.75 687.662 182.75 684.179 199.687 673.244C203.462 670.809 207.212 668.575 210.85 666.403C230.812 654.506 249.662 643.283 272.825 599.803C281.975 582.613 284.337 562.539 279.65 541.741C275.35 522.691 265.325 504.316 251.425 490.009C243.687 482.045 235.312 474.679 225.812 467.489C217.187 460.96 207.825 454.731 197.212 448.451C176.525 436.217 154.1 425.619 132.887 415.819C103.137 402.062 87.6373 387.931 84.1248 371.328C82.4498 363.438 84.3998 356.135 86.4498 348.408C87.0998 345.961 87.7623 343.439 88.3373 340.855C92.1873 323.266 108.625 302.006 122.525 285.453C125.762 281.596 129.137 277.626 132.4 273.806C145.375 258.563 158.787 242.809 170.075 226.43C182.837 207.942 191.1 191.139 195.337 175.048C198.1 164.562 198.45 154.687 196.412 144.85C194.587 136.074 190.887 127.523 185.087 118.722C174.312 102.356 157.625 87.413 141.487 72.9695C127.537 60.4859 113.125 47.5778 102.112 33.5213C74.8373 -1.32043 71.5123 -43.203 68.8373 -76.8588C68.6123 -79.7175 68.3998 -82.4015 68.1748 -85.0854C66.1748 -108.692 86.2873 -145.344 105.75 -180.785C113.85 -195.528 121.487 -209.46 127.55 -222.38L127.162 -222.555C121.112 -209.647 113.462 -195.728 105.375 -180.985C86.7498 -147.117 67.5623 -112.175 67.5623 -88.4311Z" fill="url(#paint15_linear_232_20602)" fill-opacity="0.2"/>
<path d="M62.7876 -80.2165C62.7876 -79.9544 62.7876 -79.7048 62.8001 -79.4426C62.8251 -78.3191 62.8501 -77.1955 62.8626 -76.047C63.2126 -58.545 63.6001 -38.7211 67.6626 -18.585C72.3626 4.73438 81.1376 23.9092 94.4626 40.0006C106.275 54.2694 121.938 67.2523 137.075 79.7983C172.713 109.335 206.375 137.235 195.075 181.09C185.713 217.405 157.3 249.488 129.825 280.522C127 283.706 124.075 287.014 121.263 290.222C106.963 306.526 89.8376 327.486 84.2126 344.938C83.3751 347.534 82.4376 350.068 81.5251 352.528C78.9876 359.356 76.5751 365.86 76.5751 372.876C76.5751 373.95 76.6376 375.036 76.7501 376.134C77.7876 385.584 82.7876 394.111 92.0376 402.2C99.7501 408.941 110.625 415.483 125.288 422.186C170.313 442.797 212.825 462.259 246.188 494.329C271.625 518.797 289.7 562.102 269.3 599.416C247.063 640.075 228.325 651.173 208.5 662.92C205.1 664.942 201.575 667.027 198.038 669.262C180.863 680.135 162.625 684.142 143.325 688.374C137.263 689.697 131 691.083 124.775 692.681L124.888 693.105C131.1 691.508 137.363 690.134 143.413 688.799C162.763 684.554 181.038 680.547 198.275 669.636C201.8 667.402 205.325 665.317 208.725 663.295C228.613 651.51 247.388 640.387 269.688 599.616C278.863 582.838 281.013 563.401 275.9 543.439C271.263 525.326 260.825 507.774 246.513 494.017C238.513 486.327 229.838 479.186 220.013 472.196C211.188 465.929 201.575 459.887 190.65 453.745C169.975 442.135 147.363 431.786 125.5 421.774C110.875 415.083 100.038 408.567 92.3626 401.85C83.2001 393.848 78.2501 385.409 77.2251 376.072C76.3251 367.883 79.0626 360.492 81.9626 352.665C82.8751 350.206 83.8251 347.659 84.6626 345.05C90.2626 327.673 107.35 306.763 121.625 290.497C124.438 287.288 127.363 283.98 130.188 280.797C143.738 265.492 157.738 249.675 169.513 233.159C182.825 214.484 191.338 197.481 195.538 181.178C198.275 170.567 198.475 160.605 196.175 150.743C194.113 141.942 190.088 133.403 183.85 124.639C172.275 108.361 154.538 93.6676 137.388 79.4488C122.263 66.9152 106.625 53.9448 94.8376 39.7134C64.9251 3.57337 64.0501 -40.5811 63.3376 -76.0596C63.3126 -77.208 63.2876 -78.3315 63.2751 -79.455C63.2751 -79.7047 63.2626 -79.9668 63.2626 -80.2165C63.2626 -104.372 86.5376 -142.497 109.05 -179.361C118.35 -194.591 127.125 -208.96 134.275 -222.305L133.888 -222.517C126.75 -209.185 117.975 -194.816 108.675 -179.599C86.1001 -142.672 62.7876 -104.497 62.7876 -80.2165Z" fill="url(#paint16_linear_232_20602)" fill-opacity="0.2"/>
<path d="M57.2625 -49.8814C57.2625 -38.5837 57.85 -26.4871 59.8625 -14.3281C63.875 9.94007 72.825 29.7515 87.2 46.2049C99.7875 60.611 116.65 73.6065 132.95 86.1774C151.1 100.172 169.875 114.64 182.225 130.794C196.025 148.845 200.287 167.296 195.262 187.22C185.987 224.021 156.275 256.267 127.537 287.463C125.175 290.022 122.737 292.669 120.375 295.253C110.3 306.263 102.775 315.089 96.7125 323.016C89.05 333.041 83.7625 341.567 80.55 349.095C80.2375 349.831 79.925 350.568 79.6125 351.304C75.4 361.141 71.425 370.442 69.85 380.816C69.6625 382.051 69.5625 383.287 69.5625 384.498C69.5625 392.712 73.8875 400.39 82.7 407.855C92.5 416.169 106.662 423.085 117.912 428.178C120.6 429.402 123.275 430.613 125.95 431.811C168.625 451.111 208.95 469.337 241.287 498.361C268.275 522.579 286.437 563.164 266.162 599.216C244.812 637.179 226.112 648.177 206.312 659.837C203.162 661.697 199.887 663.619 196.625 665.642C179.137 676.502 160.613 681.046 141 685.84C134.975 687.313 128.75 688.836 122.575 690.559L122.7 691.008C128.863 689.286 135.088 687.763 141.113 686.29C160.763 681.483 179.312 676.927 196.862 666.029C200.125 664.006 203.387 662.084 206.537 660.224C226.4 648.539 245.15 637.504 266.562 599.441C275.775 583.063 277.712 564.287 272.162 545.15C267.187 527.985 256.337 511.244 241.587 498.024C209.187 468.95 168.85 450.711 126.125 431.399C123.45 430.188 120.775 428.977 118.087 427.766C106.875 422.686 92.75 415.782 82.9875 407.506C73 399.042 68.85 390.341 70.2875 380.891C71.8625 370.579 75.825 361.316 80.025 351.492C80.3375 350.755 80.65 350.031 80.9625 349.282C88.2 332.317 105.112 312.605 120.7 295.577C123.062 292.993 125.5 290.347 127.862 287.788C142 272.445 156.625 256.579 168.875 239.926C182.762 221.063 191.525 203.873 195.687 187.357C197.062 181.914 197.75 176.521 197.762 171.328C197.762 171.316 197.762 171.303 197.762 171.291C197.762 166.347 197.137 161.416 195.9 156.635C193.6 147.797 189.25 139.245 182.575 130.519C170.187 114.316 151.387 99.8221 133.212 85.8154C116.925 73.257 100.075 60.274 87.525 45.9053C54.9375 8.59181 56.9 -39.0456 58.3375 -73.8249C59.35 -98.4426 86.3 -138.852 112.375 -177.938C122.85 -193.655 132.75 -208.486 140.962 -222.255L140.562 -222.492C132.35 -208.748 122.462 -193.905 111.987 -178.2C85.8875 -139.064 58.9 -98.5924 57.875 -73.8499C57.5875 -66.522 57.2625 -58.4327 57.2625 -49.8814Z" fill="url(#paint17_linear_232_20602)" fill-opacity="0.2"/>
<path d="M50.8123 -32.7536C50.8123 -24.6642 51.2623 -16.3876 52.4373 -8.09844C54.0372 3.21168 56.9123 13.7354 60.9748 23.173C65.6123 33.9338 71.9872 43.7709 79.9247 52.4096C93.2622 66.9155 111.312 79.8985 128.775 92.4445C147.962 106.239 167.8 120.52 180.975 136.612C195.687 154.6 200.425 173.164 195.45 193.349C186.262 230.638 155.187 263.033 125.15 294.354C123.25 296.339 121.35 298.312 119.475 300.272C103.35 317.149 85.6873 336.649 76.8873 353.24C76.3873 354.176 75.8998 355.1 75.3998 356.023C70.1623 365.835 65.2248 375.111 62.9248 385.51C61.7748 390.703 62.3123 395.784 64.5248 400.615C66.5498 405.034 69.8873 409.229 74.7498 413.448C84.5498 421.962 99.0123 428.978 110.525 434.146C115.912 436.568 121.362 438.977 126.625 441.324C166.912 459.2 204.962 476.078 236.387 502.369C262.062 523.84 284.45 562.04 263.037 598.992C242.612 634.258 223.887 645.181 204.05 656.753C201.175 658.439 198.187 660.174 195.225 661.984C177.375 672.845 158.55 677.938 138.625 683.319C132.65 684.929 126.475 686.602 120.375 688.424L120.512 688.886C126.612 687.064 132.787 685.391 138.75 683.78C158.712 678.388 177.562 673.294 195.462 662.396C198.437 660.586 201.412 658.851 204.287 657.178C224.175 645.568 242.95 634.608 263.45 599.241C268.237 590.965 271.037 582.126 271.762 572.963C272.437 564.437 271.325 555.649 268.45 546.848C263.15 530.632 251.875 514.702 236.7 502.007C205.225 475.679 167.15 458.776 126.825 440.887C121.562 438.552 116.112 436.131 110.725 433.709C99.2498 428.553 84.8248 421.55 75.0748 413.086C65.0623 404.397 61.2498 395.409 63.4123 385.622C65.6998 375.298 70.6248 366.048 75.8373 356.261C76.3248 355.337 76.8248 354.413 77.3248 353.477C86.0998 336.936 103.737 317.474 119.837 300.621C121.712 298.661 123.6 296.689 125.5 294.704C140.25 279.324 155.5 263.42 168.275 246.642C182.762 227.604 191.8 210.215 195.925 193.487C197.287 187.969 197.937 182.514 197.862 177.271C197.787 172.265 197.062 167.284 195.687 162.465C193.15 153.577 188.462 145.026 181.35 136.324C168.15 120.171 148.275 105.889 129.062 92.07C111.625 79.524 93.5998 66.566 80.2873 52.0975C47.8498 16.8438 49.4497 -28.4842 53.4872 -68.207C56.0372 -93.3116 86.4372 -135.606 115.825 -176.502C127.475 -192.706 138.462 -208.011 147.737 -222.192L147.325 -222.454C138.062 -208.273 127.062 -192.981 115.425 -176.777C85.9998 -135.831 55.5623 -93.4863 52.9998 -68.2444C51.8748 -57.3088 50.8123 -45.2497 50.8123 -32.7536Z" fill="url(#paint18_linear_232_20602)" fill-opacity="0.2"/>
<path d="M44.0251 -19.5334C44.0251 -13.6661 44.3127 -7.74895 45.0126 -1.85668C46.3501 9.49092 49.1001 20.0521 53.1876 29.5272C57.8251 40.2755 64.3751 50.0627 72.6501 58.614C86.7376 73.1823 105.963 86.1278 124.55 98.6364C144.788 112.256 165.713 126.35 179.7 142.404C195.35 160.355 200.55 179.031 195.625 199.491C186.525 237.279 152.588 271.26 122.638 301.245C121.275 302.606 119.925 303.967 118.575 305.315C102.188 321.756 83.8251 340.694 73.2126 357.409C72.6001 358.37 71.9877 359.332 71.3877 360.28C65.0377 370.23 59.0377 379.617 56.0127 390.229C54.4752 395.609 54.7251 400.852 56.7751 405.833C58.6126 410.327 61.9876 414.771 66.8001 419.041C76.6251 427.767 91.3877 434.895 103.138 440.125C110.988 443.621 118.925 447.054 126.613 450.387C164.813 466.94 200.9 482.57 231.475 506.376C257.788 526.912 281.038 563.426 259.875 598.792C240.388 631.374 221.575 642.248 201.65 653.77C199.088 655.255 196.425 656.791 193.788 658.364C175.588 669.212 156.438 674.867 136.163 680.847C130.275 682.582 124.175 684.38 118.163 686.315L118.313 686.789C124.325 684.867 130.413 683.069 136.3 681.334C156.6 675.342 175.775 669.687 194.038 658.801C196.675 657.228 199.325 655.692 201.9 654.207C221.875 642.66 240.75 631.749 260.3 599.054C265.138 590.977 267.9 582.401 268.5 573.563C269.063 565.373 267.788 556.96 264.7 548.558C261.813 540.718 257.4 532.966 251.563 525.551C246.013 518.498 239.35 511.919 231.763 506.001C217.813 495.141 201.988 485.329 181.95 475.154C164.263 466.166 146.063 458.289 126.788 449.938C119.1 446.604 111.163 443.171 103.313 439.676C91.5877 434.458 76.8752 427.355 67.1002 418.679C57.0502 409.753 53.5752 400.503 56.4626 390.378C59.4751 379.842 65.4502 370.479 71.7751 360.567C72.3877 359.619 73.0002 358.657 73.6002 357.696C84.1877 341.018 102.525 322.105 118.9 305.689C120.25 304.341 121.6 302.981 122.963 301.62C138.338 286.228 154.238 270.298 167.55 253.383C182.663 234.171 192 216.594 196.075 199.629C197.425 194.036 198.025 188.518 197.875 183.213C197.738 178.157 196.9 173.139 195.4 168.282C192.625 159.344 187.6 150.768 180.038 142.092C166 125.988 145.05 111.881 124.788 98.2369C106.225 85.7408 87.0252 72.8078 72.9751 58.2769C39.9626 24.1342 41.7251 -19.9954 48.5501 -62.5894C52.6501 -88.1808 86.5001 -132.36 119.238 -175.067C132.038 -191.757 144.113 -207.537 154.425 -222.142L154.013 -222.43C143.713 -207.824 131.625 -192.057 118.838 -175.366C86.0626 -132.597 52.1751 -88.3805 48.0501 -62.6518C45.9876 -49.5441 44.0251 -34.7135 44.0251 -19.5334Z" fill="url(#paint19_linear_232_20602)" fill-opacity="0.2"/>
<path d="M37.013 -8.21093C37.013 -4.02892 37.1879 0.17805 37.5879 4.37257C38.6629 15.7701 41.2879 26.3687 45.4004 35.8687C50.0504 46.6046 56.7755 56.3418 65.3754 64.8306C80.188 79.4365 100.563 92.3071 120.275 104.766C141.563 118.223 163.575 132.13 178.413 148.159C195 166.085 200.688 184.885 195.813 205.633C186.8 243.92 151.325 278.013 120.025 308.099L117.675 310.358C98.963 328.36 81.188 345.837 69.538 361.578C68.888 362.465 68.2255 363.351 67.5755 364.225C60.0255 374.399 52.888 383.999 49.088 394.947C47.163 400.502 47.1255 405.908 49.0005 411.051C50.688 415.682 53.988 420.251 58.8255 424.633C68.688 433.596 83.738 440.824 95.738 446.117C105.85 450.574 116.138 454.906 126.088 459.088C162.45 474.393 196.8 488.849 226.563 510.408C254.863 530.919 277.663 564.849 256.75 598.58C238.213 628.49 219.225 639.351 199.125 650.836C196.925 652.097 194.638 653.395 192.388 654.719C173.775 665.579 154.263 671.821 133.613 678.425C127.838 680.272 121.863 682.182 115.975 684.18L116.15 684.679C122.038 682.682 128.013 680.772 133.775 678.924C154.45 672.308 173.988 666.066 192.65 655.18C194.913 653.857 197.188 652.559 199.388 651.298C219.55 639.776 238.588 628.89 257.2 598.854C262.088 590.965 264.813 582.663 265.313 574.174C265.775 566.322 264.325 558.295 261.013 550.293C257.95 542.878 253.313 535.538 247.225 528.484C241.513 521.856 234.663 515.639 226.863 509.984C213.475 500.284 197.763 491.083 178.813 481.846C161.875 473.581 143.788 465.979 126.288 458.614C116.338 454.432 106.05 450.1 95.938 445.643C83.9755 440.363 68.9755 433.172 59.1754 424.259C49.088 415.096 45.9505 405.571 49.5755 395.134C53.3505 384.261 60.463 374.686 67.9879 364.55C68.638 363.663 69.3005 362.789 69.9505 361.891C81.5755 346.174 99.3255 328.722 118.025 310.733L120.375 308.473C136.4 293.068 152.975 277.139 166.863 260.087C182.638 240.7 192.275 222.923 196.313 205.746C197.65 200.078 198.213 194.473 197.988 189.117C197.775 184.012 196.838 178.943 195.2 174.062C192.188 165.062 186.813 156.473 178.8 147.797C163.925 131.718 141.875 117.786 120.563 104.316C100.888 91.8826 80.538 79.012 65.7504 64.4561C30.6129 29.8266 34.888 -16.3628 43.7005 -56.9719C49.363 -83.0502 86.6879 -129.102 122.775 -173.644C136.713 -190.834 149.863 -207.075 161.2 -222.105L160.775 -222.417C149.45 -207.387 136.288 -191.158 122.363 -173.968C86.2254 -129.389 48.8629 -83.2873 43.1879 -57.0843C40.1879 -43.2899 37.013 -26.0001 37.013 -8.21093Z" fill="url(#paint20_linear_232_20602)" fill-opacity="0.2"/>
<path d="M29.8626 1.98847C29.8626 26.4439 36.7126 50.9243 58.1001 71.0353C73.6376 85.6536 95.1501 98.4493 115.95 110.821C138.3 124.116 161.425 137.86 177.1 153.877C194.638 171.79 200.813 190.728 195.975 211.776C187.063 250.575 149.975 284.767 117.25 314.94L114.95 317.062C97.2251 333.403 78.9001 350.306 65.8626 365.748C65.2376 366.497 64.6126 367.234 63.9751 367.97C55.1251 378.419 46.7626 388.294 42.1501 399.666C40.7751 403.062 40.1377 406.295 40.1377 409.379C40.1377 428.216 63.9751 441.461 88.3251 452.097C100.563 457.44 113.088 462.546 125.2 467.477C159.9 481.609 192.663 494.941 221.625 514.428C233.3 522.28 248.888 535.226 256.8 552.266C264.163 568.12 263.088 583.637 253.588 598.368C236.025 625.645 216.763 636.518 196.363 648.028C194.6 649.026 192.775 650.05 190.963 651.086C171.875 661.984 151.95 668.838 130.863 676.091C125.263 678.013 119.475 680.011 113.763 682.058L113.95 682.57C119.65 680.523 125.438 678.525 131.038 676.603C152.163 669.337 172.1 662.484 191.238 651.561C193.038 650.537 194.863 649.501 196.625 648.502C217.088 636.955 236.413 626.044 254.063 598.667C259.013 590.978 261.725 582.951 262.1 574.799C262.45 567.296 260.838 559.631 257.313 552.029C254.063 545.038 249.2 538.097 242.875 531.418C237 525.214 229.95 519.347 221.95 513.954C208.925 505.19 193.75 496.814 175.563 488.325C159.313 480.747 142.088 473.732 125.425 466.953C113.313 462.022 100.788 456.916 88.5626 451.586C60.4626 439.314 33.0501 423.572 42.6751 399.854C47.2626 388.556 55.5876 378.719 64.4126 368.307C65.0376 367.571 65.6751 366.822 66.3001 366.085C79.3126 350.668 97.6251 333.778 115.338 317.449L117.638 315.327C134.338 299.922 151.613 284.006 166.088 266.828C182.575 247.266 192.525 229.29 196.525 211.888C197.85 206.133 198.363 200.465 198.063 195.035C197.775 189.867 196.725 184.749 194.963 179.83C191.7 170.767 185.988 162.141 177.5 153.477C161.775 137.411 138.625 123.654 116.238 110.334C95.4626 97.9749 73.9751 85.2042 58.4876 70.6234C21.1751 35.5319 28.3751 -13.0043 38.8251 -51.3664C46.0501 -77.9191 86.8626 -125.856 126.338 -172.22C141.388 -189.897 155.613 -206.6 167.95 -222.067L167.525 -222.404C155.188 -206.95 140.975 -190.247 125.925 -172.57C86.4126 -126.168 45.5626 -78.1813 38.3001 -51.5038C33.7751 -34.938 29.8626 -16.4748 29.8626 1.98847Z" fill="url(#paint21_linear_232_20602)" fill-opacity="0.2"/>
<path d="M22.6499 11.5628C22.6499 13.3229 22.6875 15.0832 22.7749 16.8434C23.325 28.3408 25.7 39.0143 29.85 48.5518C34.5125 59.2752 41.575 68.9249 50.8375 77.239C67.0875 91.8449 89.7125 104.541 111.6 116.812C135.025 129.957 159.262 143.552 175.8 159.544C194.3 177.445 200.975 196.532 196.187 217.892C187.375 257.203 147.737 292.244 115.887 320.407C113.062 322.904 110.2 325.426 107.412 327.872C91.525 341.854 75.1 356.31 62.2125 369.892C61.6875 370.442 61.1625 370.991 60.6375 371.553C50.85 381.852 40.725 392.5 35.25 404.372C32.2125 410.963 31.8375 417.38 34.1625 423.434C36.7375 430.163 42.5125 436.505 51.8 442.822C59.0375 447.74 68.3 452.584 80.9625 458.064C95.2125 464.231 109.912 469.998 124.15 475.579C155.837 488.012 188.6 500.87 216.762 518.422C239.55 532.629 254.037 549.506 257.55 565.947C259.887 576.895 257.512 587.719 250.5 598.143C233.837 622.835 214.125 633.796 193.25 645.393C192.025 646.08 190.787 646.766 189.55 647.453C169.9 658.426 148.5 666.291 127.812 673.893C122.487 675.853 116.987 677.875 111.562 679.935L111.762 680.459C117.175 678.4 122.687 676.377 128.012 674.43C148.725 666.815 170.137 658.938 189.825 647.952C191.062 647.266 192.287 646.579 193.525 645.892C204.062 640.038 214.012 634.507 223.7 627.192C234.675 618.903 243.337 609.777 250.937 598.492C258.05 587.943 260.45 576.958 258.075 565.86C256.187 557.059 251.325 548.233 243.612 539.632C236.725 531.967 227.787 524.677 217.037 517.973C204.375 510.083 189.725 502.468 172.25 494.703C156.65 487.775 140.225 481.321 124.325 475.092C110.1 469.511 95.4 463.744 81.1625 457.577C62.55 449.525 40.4375 438.34 34.675 423.26C32.4125 417.355 32.775 411.088 35.75 404.634C41.1875 392.837 51.275 382.226 61.0375 371.965C61.5625 371.415 62.0875 370.866 62.6125 370.304C75.4875 356.747 91.175 342.94 107.775 328.322C110.55 325.875 113.425 323.341 116.25 320.857C131.6 307.287 150.7 290.397 165.9 272.832C182.725 253.383 192.812 235.469 196.725 218.042C198.037 212.199 198.512 206.444 198.125 200.964C197.762 195.733 196.612 190.565 194.7 185.609C191.187 176.471 185.125 167.82 176.175 159.169C159.587 143.115 135.325 129.508 111.862 116.35C90.0125 104.091 67.4124 91.408 51.2125 76.8396C12.0875 41.6733 21.4249 -7.12517 33.9249 -45.712C42.7874 -72.739 87.1125 -122.599 129.987 -170.835C146.112 -188.986 161.35 -206.126 174.687 -221.993L174.25 -222.355C160.925 -206.488 145.7 -189.361 129.562 -171.21C86.65 -122.936 42.2875 -73.0261 33.3875 -45.8868C28.675 -31.3808 22.6499 -10.1213 22.6499 11.5628Z" fill="url(#paint22_linear_232_20602)" fill-opacity="0.2"/>
<path d="M15.3127 20.5263C15.3127 21.3751 15.3252 22.224 15.3377 23.0729C15.6252 34.6328 17.8877 45.3312 22.0627 54.8811C26.7377 65.5921 33.9752 75.2045 43.5502 83.4437C60.5002 98.0245 84.2252 110.608 107.163 122.78C131.675 135.775 157.025 149.22 174.425 165.211C193.913 183.113 201.075 202.363 196.325 224.034C187.625 263.819 145.613 299.435 114.95 325.438C109.813 329.795 104.563 334.189 99.4753 338.434C84.7627 350.718 70.8752 362.328 58.5127 374.062L57.4877 375.036C46.2877 385.659 34.7002 396.645 28.3002 409.091C24.7627 415.97 24.1252 422.661 26.4127 428.978C28.8877 435.831 34.6502 442.285 44.0377 448.689C51.4002 453.72 60.7627 458.601 73.5252 464.056C89.8502 471.085 106.9 477.514 123.388 483.718C153.5 495.066 184.625 506.788 211.8 522.455C228.825 532.267 250.025 548.159 254.413 568.132C256.613 578.169 254.225 588.193 247.313 597.943C231.613 620.114 210.238 631.774 189.55 643.046L188.138 643.82C167.738 654.943 145.6 663.607 124.2 671.971C119.338 673.868 114.313 675.841 109.363 677.813L109.575 678.35C114.525 676.378 119.55 674.418 124.4 672.508C145.825 664.131 167.975 655.468 188.413 644.32L189.825 643.546C200.2 637.891 210.925 632.048 220.8 624.958C231.875 617.006 240.713 608.28 247.8 598.28C254.813 588.393 257.238 578.207 255 567.995C253.138 559.506 248.063 550.992 239.9 542.691C232.763 535.438 223.413 528.447 212.113 521.93C184.888 506.239 153.738 494.504 123.613 483.156C107.138 476.952 90.1002 470.523 73.7752 463.507C61.0502 458.064 51.7128 453.208 44.3877 448.202C35.1128 441.861 29.4127 435.506 26.9877 428.765C24.7627 422.598 25.3877 416.069 28.8502 409.341C35.2002 396.982 46.7502 386.034 57.9127 375.448L58.9377 374.474C71.2877 362.764 85.1752 351.155 99.8752 338.871C104.963 334.626 110.225 330.232 115.363 325.875C133.625 310.396 151.238 295.116 165.938 278.537C182.988 259.313 193.125 241.524 196.925 224.146C198.225 218.204 198.65 212.387 198.188 206.832C197.75 201.539 196.488 196.32 194.438 191.327C190.663 182.114 184.263 173.426 174.838 164.774C157.375 148.733 132 135.263 107.45 122.255C84.5377 110.109 60.8377 97.5377 43.9377 82.9942C2.45021 47.2911 15.5502 -4.36608 29.0252 -40.1191C39.4627 -67.6081 87.3127 -119.378 133.588 -169.437C150.813 -188.075 167.088 -205.677 181.413 -221.968L180.975 -222.355C166.663 -206.064 150.388 -188.462 133.163 -169.836C86.8502 -119.74 38.9502 -67.9326 28.4877 -40.3313C24.2377 -29.0586 21.1252 -18.9719 18.9752 -9.49682C16.5377 1.17665 15.3127 11.2509 15.3127 20.5263Z" fill="url(#paint23_linear_232_20602)" fill-opacity="0.2"/>
<path d="M7.91237 29.0528C7.91237 29.1401 7.91237 29.215 7.91237 29.2899C7.93737 40.8997 10.0874 51.6356 14.2749 61.2106C18.9624 71.9215 26.3749 81.484 36.2749 89.6607C53.9124 104.204 78.7124 116.65 102.687 128.697C128.275 141.555 154.75 154.85 173.025 170.842C193.5 188.756 201.175 208.155 196.525 230.164C188.537 267.34 151.412 300.097 114.075 330.469C106.662 336.499 98.9999 342.554 91.5874 348.396C79.2249 358.146 66.4374 368.245 54.8624 378.232L54.6124 378.444C41.9124 389.405 28.7749 400.74 21.3999 413.81C17.3749 420.951 16.4624 427.904 18.6999 434.47C21.0749 441.449 26.8374 448.003 36.3249 454.519C43.7874 459.637 53.2624 464.568 66.1499 470.036C84.2749 477.751 103.4 484.655 121.9 491.321C150.725 501.707 180.525 512.456 206.9 526.475C218.762 532.779 228.512 539.433 235.85 546.224C244.387 554.138 249.625 562.228 251.412 570.267C253.45 579.43 251.012 588.668 244.187 597.731C229.275 617.505 206.675 629.552 186.725 640.175C165.162 651.66 141.85 661.31 119.3 670.648C115.325 672.296 111.212 673.993 107.162 675.691L107.4 676.253C111.45 674.568 115.562 672.857 119.537 671.21C142.1 661.872 165.425 652.21 187.012 640.712C198.425 634.633 208.662 629.065 218.35 622.411C229.512 614.759 238.125 606.807 244.675 598.106C251.612 588.893 254.087 579.492 252.012 570.155C250.2 561.99 244.9 553.789 236.275 545.799C228.9 538.971 219.112 532.292 207.2 525.963C180.787 511.919 150.962 501.17 122.112 490.771C103.612 484.105 84.4999 477.214 66.3874 469.499C53.5374 464.044 44.0874 459.138 36.6749 454.032C27.2999 447.603 21.6124 441.137 19.2874 434.296C17.0999 427.892 17.9999 421.1 21.9374 414.122C29.2624 401.139 42.3624 389.842 55.0249 378.918L55.2749 378.706C66.8374 368.732 79.6249 358.645 91.9749 348.895C99.3874 343.053 107.05 336.998 114.475 330.969C131.325 317.262 150.587 301.233 165.962 284.305C183.225 265.293 193.425 247.641 197.137 230.326C198.412 224.296 198.787 218.379 198.237 212.762C197.712 207.406 196.337 202.125 194.15 197.095C190.112 187.807 183.35 179.081 173.45 170.417C155.112 154.376 128.612 141.056 102.987 128.185C79.0374 116.151 54.2749 103.717 36.6874 89.2238C18.0124 73.8315 8.69988 53.9576 8.69988 29.1901C8.69988 10.7518 13.8624 -10.3954 24.1624 -34.4513C36.1749 -62.4146 87.5623 -116.069 137.262 -167.963C155.575 -187.088 172.875 -205.152 188.175 -221.868L187.725 -222.28C172.437 -205.564 155.137 -187.513 136.825 -168.388C87.0874 -116.456 35.6624 -62.7517 23.5999 -34.6885C13.0374 -10.1208 7.91237 10.7518 7.91237 29.0528Z" fill="url(#paint24_linear_232_20602)" fill-opacity="0.2"/>
<path d="M0.474551 37.2794C0.474551 48.265 2.49955 58.4392 6.49955 67.5397C11.1995 78.2382 18.7746 87.7756 29.0121 95.8651C47.3246 110.346 73.1995 122.68 98.2121 134.589C124.912 147.31 152.537 160.468 171.7 176.472C193.175 194.398 201.35 213.972 196.7 236.306C188.9 273.806 151.162 305.877 113.162 335.5C103.637 342.928 93.6746 350.331 84.0496 357.471C73.1496 365.561 61.8871 373.925 51.1871 382.389C37.9246 392.887 22.8746 404.772 14.4746 418.516C9.94957 425.919 8.76206 433.135 10.9621 439.963C12.1496 443.633 14.3371 447.291 17.4871 450.811C20.3496 454.007 24.0871 457.215 28.5996 460.336C36.0496 465.48 45.9121 470.61 58.7496 476.016C78.6496 484.405 99.9371 491.72 120.525 498.786C148.05 508.248 176.512 518.023 202 530.482C214.525 536.611 224.737 542.953 232.325 549.332C241.362 556.934 246.812 564.699 248.512 572.414C250.35 580.741 247.837 589.18 241.062 597.519C227.975 613.598 205.425 626.094 185.312 636.542C161.325 649.001 135.45 660.274 110.425 671.184C108.6 671.983 106.775 672.77 104.95 673.569L105.2 674.143C107.025 673.344 108.85 672.558 110.675 671.759C135.712 660.848 161.587 649.575 185.6 637.104C205.762 626.63 228.387 614.097 241.55 597.931C248.45 589.442 251 580.816 249.125 572.302C247.4 564.45 241.875 556.572 232.725 548.883C225.1 542.466 214.85 536.099 202.275 529.945C176.75 517.461 148.262 507.674 120.725 498.212C100.15 491.146 78.8746 483.831 58.9996 475.454C41.1496 467.939 16.8121 456.054 11.5621 439.788C9.42457 433.147 10.5746 426.106 15.0121 418.853C23.3621 405.209 38.3496 393.349 51.5746 382.888C62.2621 374.437 73.5246 366.073 84.4246 357.983C94.0621 350.83 104.025 343.44 113.55 336C130.562 322.73 150.05 307.138 165.975 290.01C183.475 271.21 193.712 253.683 197.3 236.43C198.575 230.301 198.9 224.321 198.275 218.629C197.675 213.211 196.2 207.88 193.875 202.787C189.587 193.424 182.462 184.661 172.087 175.997C152.862 159.943 125.212 146.773 98.4746 134.027C73.4871 122.118 47.6496 109.809 29.3871 95.3782C-4.58793 68.5134 -7.90045 27.8793 19.2245 -28.8712C32.8246 -57.3088 87.7621 -112.873 140.9 -166.603C160.287 -186.215 178.6 -204.728 194.862 -221.868L194.412 -222.292C178.162 -205.165 159.85 -186.651 140.462 -167.04C87.287 -113.273 32.3121 -57.6708 18.662 -29.1458C6.78705 -4.31591 0.837053 16.8313 0.474551 35.5068C0.474551 36.106 0.474551 36.6927 0.474551 37.2794Z" fill="url(#paint25_linear_232_20602)" fill-opacity="0.2"/>
<defs>
<linearGradient id="paint0_linear_232_20602" x1="335.54" y1="255.849" x2="26.2748" y2="255.849" gradientUnits="userSpaceOnUse">
<stop stop-color="white"/>
<stop offset="1" stop-color="white" stop-opacity="0"/>
</linearGradient>
<linearGradient id="paint1_linear_232_20602" x1="331.75" y1="254.2" x2="33" y2="254.2" gradientUnits="userSpaceOnUse">
<stop stop-color="white"/>
<stop offset="1" stop-color="white" stop-opacity="0"/>
</linearGradient>
<linearGradient id="paint2_linear_232_20602" x1="328.017" y1="252.578" x2="39.7248" y2="252.578" gradientUnits="userSpaceOnUse">
<stop stop-color="white"/>
<stop offset="1" stop-color="white" stop-opacity="0"/>
</linearGradient>
<linearGradient id="paint3_linear_232_20602" x1="324.312" y1="250.967" x2="46.45" y2="250.967" gradientUnits="userSpaceOnUse">
<stop stop-color="white"/>
<stop offset="1" stop-color="white" stop-opacity="0"/>
</linearGradient>
<linearGradient id="paint4_linear_232_20602" x1="320.645" y1="249.364" x2="53.1619" y2="249.364" gradientUnits="userSpaceOnUse">
<stop stop-color="white"/>
<stop offset="1" stop-color="white" stop-opacity="0"/>
</linearGradient>
<linearGradient id="paint5_linear_232_20602" x1="316.955" y1="247.822" x2="59.8874" y2="247.822" gradientUnits="userSpaceOnUse">
<stop stop-color="white"/>
<stop offset="1" stop-color="white" stop-opacity="0"/>
</linearGradient>
<linearGradient id="paint6_linear_232_20602" x1="313.346" y1="246.275" x2="66.6003" y2="246.275" gradientUnits="userSpaceOnUse">
<stop stop-color="white"/>
<stop offset="1" stop-color="white" stop-opacity="0"/>
</linearGradient>
<linearGradient id="paint7_linear_232_20602" x1="309.804" y1="244.806" x2="73.3118" y2="244.806" gradientUnits="userSpaceOnUse">
<stop stop-color="white"/>
<stop offset="1" stop-color="white" stop-opacity="0"/>
</linearGradient>
<linearGradient id="paint8_linear_232_20602" x1="306.227" y1="243.634" x2="80.0374" y2="243.634" gradientUnits="userSpaceOnUse">
<stop stop-color="white"/>
<stop offset="1" stop-color="white" stop-opacity="0"/>
</linearGradient>
<linearGradient id="paint9_linear_232_20602" x1="302.653" y1="242.591" x2="86.7503" y2="242.591" gradientUnits="userSpaceOnUse">
<stop stop-color="white"/>
<stop offset="1" stop-color="white" stop-opacity="0"/>
</linearGradient>
<linearGradient id="paint10_linear_232_20602" x1="299.169" y1="241.555" x2="86.4627" y2="241.555" gradientUnits="userSpaceOnUse">
<stop stop-color="white"/>
<stop offset="1" stop-color="white" stop-opacity="0"/>
</linearGradient>
<linearGradient id="paint11_linear_232_20602" x1="295.716" y1="240.512" x2="83.8502" y2="240.512" gradientUnits="userSpaceOnUse">
<stop stop-color="white"/>
<stop offset="1" stop-color="white" stop-opacity="0"/>
</linearGradient>
<linearGradient id="paint12_linear_232_20602" x1="292.255" y1="239.495" x2="80.425" y2="239.495" gradientUnits="userSpaceOnUse">
<stop stop-color="white"/>
<stop offset="1" stop-color="white" stop-opacity="0"/>
</linearGradient>
<linearGradient id="paint13_linear_232_20602" x1="288.825" y1="238.415" x2="76.4627" y2="238.415" gradientUnits="userSpaceOnUse">
<stop stop-color="white"/>
<stop offset="1" stop-color="white" stop-opacity="0"/>
</linearGradient>
<linearGradient id="paint14_linear_232_20602" x1="285.382" y1="237.417" x2="72.15" y2="237.417" gradientUnits="userSpaceOnUse">
<stop stop-color="white"/>
<stop offset="1" stop-color="white" stop-opacity="0"/>
</linearGradient>
<linearGradient id="paint15_linear_232_20602" x1="281.997" y1="236.33" x2="67.5623" y2="236.33" gradientUnits="userSpaceOnUse">
<stop stop-color="white"/>
<stop offset="1" stop-color="white" stop-opacity="0"/>
</linearGradient>
<linearGradient id="paint16_linear_232_20602" x1="278.61" y1="235.294" x2="62.7876" y2="235.294" gradientUnits="userSpaceOnUse">
<stop stop-color="white"/>
<stop offset="1" stop-color="white" stop-opacity="0"/>
</linearGradient>
<linearGradient id="paint17_linear_232_20602" x1="275.259" y1="234.258" x2="57.2625" y2="234.258" gradientUnits="userSpaceOnUse">
<stop stop-color="white"/>
<stop offset="1" stop-color="white" stop-opacity="0"/>
</linearGradient>
<linearGradient id="paint18_linear_232_20602" x1="271.954" y1="233.216" x2="50.8123" y2="233.216" gradientUnits="userSpaceOnUse">
<stop stop-color="white"/>
<stop offset="1" stop-color="white" stop-opacity="0"/>
</linearGradient>
<linearGradient id="paint19_linear_232_20602" x1="268.629" y1="232.18" x2="44.0251" y2="232.18" gradientUnits="userSpaceOnUse">
<stop stop-color="white"/>
<stop offset="1" stop-color="white" stop-opacity="0"/>
</linearGradient>
<linearGradient id="paint20_linear_232_20602" x1="265.397" y1="231.131" x2="37.013" y2="231.131" gradientUnits="userSpaceOnUse">
<stop stop-color="white"/>
<stop offset="1" stop-color="white" stop-opacity="0"/>
</linearGradient>
<linearGradient id="paint21_linear_232_20602" x1="262.147" y1="230.083" x2="29.8626" y2="230.083" gradientUnits="userSpaceOnUse">
<stop stop-color="white"/>
<stop offset="1" stop-color="white" stop-opacity="0"/>
</linearGradient>
<linearGradient id="paint22_linear_232_20602" x1="258.962" y1="229.052" x2="22.65" y2="229.052" gradientUnits="userSpaceOnUse">
<stop stop-color="white"/>
<stop offset="1" stop-color="white" stop-opacity="0"/>
</linearGradient>
<linearGradient id="paint23_linear_232_20602" x1="255.807" y1="227.998" x2="15.3127" y2="227.998" gradientUnits="userSpaceOnUse">
<stop stop-color="white"/>
<stop offset="1" stop-color="white" stop-opacity="0"/>
</linearGradient>
<linearGradient id="paint24_linear_232_20602" x1="252.723" y1="226.987" x2="7.91238" y2="226.987" gradientUnits="userSpaceOnUse">
<stop stop-color="white"/>
<stop offset="1" stop-color="white" stop-opacity="0"/>
</linearGradient>
<linearGradient id="paint25_linear_232_20602" x1="249.721" y1="225.925" x2="0.474575" y2="225.925" gradientUnits="userSpaceOnUse">
<stop stop-color="white"/>
<stop offset="1" stop-color="white" stop-opacity="0"/>
</linearGradient>
</defs>
</svg>
