<svg width="61" height="51" viewBox="0 0 61 51" fill="none" xmlns="http://www.w3.org/2000/svg">
<path d="M59.1585 47.1668C58.673 47.1668 58.279 47.5563 58.279 48.0379V49.2576H1.75892V18.3015C1.75892 17.8199 1.365 17.4304 0.879462 17.4304C0.393926 17.4304 0 17.8199 0 18.3015V50.1288C0 50.6101 0.393926 51 0.879462 51H59.1585C59.644 51 60.038 50.6101 60.038 50.1288V48.0379C60.038 47.5563 59.644 47.1668 59.1585 47.1668Z" fill="#2D3C58"/>
<path d="M59.1585 0H0.879462C0.393926 0 0 0.39375 0 0.880708V14.2675C0 14.7541 0.393926 15.1482 0.879462 15.1482C1.365 15.1482 1.75892 14.7541 1.75892 14.2675V11.1556H52.5039C52.9894 11.1556 53.3834 10.7615 53.3834 10.2749C53.3834 9.78797 52.9894 9.39422 52.5039 9.39422H1.75892V1.76142H58.279V9.39422H56.2563C55.7707 9.39422 55.3768 9.78797 55.3768 10.2749C55.3768 10.7615 55.7707 11.1556 56.2563 11.1556H58.279V44.3092C58.279 44.7957 58.673 45.1899 59.1585 45.1899C59.644 45.1899 60.038 44.7957 60.038 44.3092V0.880708C60.038 0.39375 59.644 0 59.1585 0Z" fill="#2D3C58"/>
<path d="M3.87305 5.48728C3.87305 7.0891 5.03149 8.39234 6.45532 8.39234C7.87916 8.39234 9.0376 7.0891 9.0376 5.48728C9.0376 3.88546 7.87916 2.58221 6.45532 2.58221C5.03149 2.58221 3.87305 3.88546 3.87305 5.48728ZM7.31608 5.48728C7.31608 6.02108 6.93018 6.45563 6.45532 6.45563C5.98047 6.45563 5.59457 6.02108 5.59457 5.48728C5.59457 4.95307 5.98047 4.51892 6.45532 4.51892C6.93018 4.51892 7.31608 4.95307 7.31608 5.48728Z" fill="#2D3C58"/>
<path d="M10.9746 5.48728C10.9746 7.0891 12.133 8.39234 13.5569 8.39234C14.9807 8.39234 16.1392 7.0891 16.1392 5.48728C16.1392 3.88546 14.9807 2.58221 13.5569 2.58221C12.133 2.58221 10.9746 3.88546 10.9746 5.48728ZM14.4176 5.48728C14.4176 6.02108 14.0317 6.45563 13.5569 6.45563C13.082 6.45563 12.6961 6.02108 12.6961 5.48728C12.6961 4.95307 13.082 4.51892 13.5569 4.51892C14.0317 4.51892 14.4176 4.95307 14.4176 5.48728Z" fill="#2D3C58"/>
<path d="M17.4297 5.48728C17.4297 7.0891 18.7329 8.39234 20.3347 8.39234C21.9366 8.39234 23.2398 7.0891 23.2398 5.48728C23.2398 3.88546 21.9366 2.58221 20.3347 2.58221C18.7329 2.58221 17.4297 3.88546 17.4297 5.48728ZM21.3031 5.48728C21.3031 6.02108 20.869 6.45563 20.3347 6.45563C19.8005 6.45563 19.3664 6.02108 19.3664 5.48728C19.3664 4.95307 19.8005 4.51892 20.3347 4.51892C20.869 4.51892 21.3031 4.95307 21.3031 5.48728Z" fill="#2D3C58"/>
<path d="M30.0196 44.5443C34.9104 44.5443 39.2901 42.4035 42.1934 39.0477C42.2288 39.0133 42.2617 38.9754 42.2908 38.9346C44.5065 36.323 45.836 32.9944 45.836 29.3734C45.836 25.7524 44.5065 22.4234 42.2915 19.8122C42.262 19.7717 42.2292 19.7334 42.1938 19.6991C39.2901 16.3429 34.9107 14.2025 30.0196 14.2025C25.1288 14.2025 20.7494 16.3429 17.8458 19.6987C17.8099 19.7331 17.7771 19.771 17.7477 19.8122C15.5326 22.4234 14.2031 25.7524 14.2031 29.3734C14.2031 32.9944 15.5326 36.323 17.7477 38.9343C17.7771 38.9751 17.8099 39.013 17.8454 39.0477C20.749 42.4035 25.1288 44.5443 30.0196 44.5443ZM20.009 38.7872C20.6584 38.5679 21.378 38.3672 22.1606 38.1882C22.3389 38.1475 22.5198 38.1085 22.7026 38.0709C22.9633 38.7142 23.2547 39.3257 23.5751 39.8993C24.0026 40.6643 24.4704 41.3412 24.9706 41.9255C23.0872 41.226 21.3989 40.1472 20.009 38.7872ZM22.9171 29.3734C22.9171 26.9396 23.2793 24.6329 23.9049 22.6381C24.7255 22.7651 25.5787 22.8674 26.4579 22.944C27.6262 23.041 28.8244 23.0904 30.0196 23.0904C31.2148 23.0904 32.4129 23.041 33.5842 22.9437C34.462 22.8674 35.3144 22.7651 36.1343 22.6381C36.7598 24.6329 37.1221 26.9396 37.1221 29.3734C37.1221 31.8068 36.7598 34.1136 36.1343 36.1083C35.3136 35.9813 34.4605 35.879 33.5813 35.8024C31.245 35.6085 28.7975 35.6081 26.4549 35.8031C25.5772 35.879 24.7248 35.9813 23.9049 36.1083C23.2793 34.1136 22.9171 31.8068 22.9171 29.3734ZM30.0196 15.92C32.2134 15.92 34.2132 17.9205 35.5277 20.9908C34.8488 21.0892 34.1468 21.17 33.4261 21.2326C31.1928 21.4183 28.843 21.4183 26.6161 21.2334C25.8939 21.17 25.1907 21.0892 24.5114 20.9908C25.826 17.9205 27.8258 15.92 30.0196 15.92ZM26.6131 37.5138C28.8464 37.3281 31.1961 37.3281 33.4231 37.5134C34.1453 37.5764 34.8484 37.6573 35.5277 37.7557C34.2132 40.826 32.2134 42.8268 30.0196 42.8268C27.8258 42.8268 25.826 40.826 24.5114 37.7557C25.1903 37.6573 25.8924 37.5764 26.6131 37.5138ZM35.0685 41.9255C35.5688 41.3409 36.0365 40.6643 36.4637 39.8993C36.7845 39.3257 37.0758 38.7142 37.3365 38.0709C37.519 38.1081 37.6988 38.1471 37.8763 38.1879C38.6604 38.3672 39.3808 38.5675 40.0302 38.7872C38.6403 40.1472 36.952 41.226 35.0685 41.9255ZM41.2698 37.3989C40.3969 37.0662 39.3983 36.7703 38.2904 36.5169C38.1662 36.4883 38.0401 36.4608 37.9136 36.4336C38.5661 34.285 38.9126 31.8737 38.9126 29.3734C38.9126 26.8727 38.5661 24.4615 37.9136 22.3129C38.0405 22.2857 38.1669 22.2578 38.2919 22.2298C39.399 21.9762 40.3969 21.6806 41.2698 21.3479C43.0126 23.5899 44.0455 26.3682 44.0455 29.3734C44.0455 32.3782 43.0126 35.1566 41.2698 37.3989ZM40.0302 19.9596C39.3808 20.1786 38.6612 20.3793 37.8786 20.5582C37.7003 20.599 37.5193 20.638 37.3365 20.6755C37.0758 20.0322 36.7845 19.4211 36.464 18.8472C36.0365 18.0822 35.5688 17.4056 35.0685 16.8209C36.952 17.5204 38.6403 18.5992 40.0302 19.9596ZM24.9706 16.8209C24.4704 17.4056 24.0026 18.0822 23.5755 18.8472C23.2547 19.4211 22.9633 20.0322 22.7026 20.6755C22.5202 20.6383 22.3404 20.5993 22.1628 20.5593C21.3787 20.3793 20.6584 20.1789 20.009 19.9596C21.3989 18.5992 23.0872 17.5204 24.9706 16.8209ZM18.7694 21.3479C19.6423 21.6806 20.6409 21.9762 21.7488 22.2298C21.873 22.2585 21.9991 22.2857 22.1255 22.3129C21.4731 24.4615 21.1266 26.8727 21.1266 29.3734C21.1266 31.8737 21.4731 34.285 22.1255 36.4336C21.9987 36.4608 21.8722 36.4887 21.7473 36.5173C20.6401 36.7703 19.6423 37.0662 18.7694 37.3989C17.0266 35.1566 15.9937 32.3782 15.9937 29.3734C15.9937 26.3682 17.0266 23.5899 18.7694 21.3479Z" fill="#2D3C58"/>
<path d="M27.7579 32.742V26.6505C27.7579 26.1932 27.469 25.8228 27.1124 25.8228C26.7557 25.8228 26.4668 26.1932 26.4668 26.6505V32.742C26.4668 33.1993 26.7557 33.5696 27.1124 33.5696C27.469 33.5696 27.7579 33.1993 27.7579 32.742Z" fill="#2D3C58"/>
<path d="M31.1106 33.5696C31.5351 33.5696 31.8794 33.1993 31.8794 32.742V30.5237H34.092C34.5167 30.5237 34.8608 30.1533 34.8608 29.6961V26.6504C34.8608 26.1935 34.5167 25.8228 34.092 25.8228H31.1106C30.6858 25.8228 30.3418 26.1935 30.3418 26.6504V32.742C30.3418 33.1993 30.6858 33.5696 31.1106 33.5696ZM31.8794 27.4784H33.3232V28.8688H31.8794V27.4784Z" fill="#2D3C58"/>
</svg>
