<svg width="53" height="60" viewBox="0 0 53 60" fill="none" xmlns="http://www.w3.org/2000/svg">
<path d="M42.3512 25.1879C42.3512 16.2909 35.1095 9.06207 26.2254 9.06207C17.3414 9.06207 10.0996 16.2909 10.0996 25.1879C10.0996 34.072 17.3284 41.3137 26.2254 41.3137C35.1224 41.3137 42.3512 34.072 42.3512 25.1879ZM26.2254 39.2317C18.4793 39.2317 12.1687 32.934 12.1687 25.175C12.1687 17.4159 18.4793 11.1311 26.2254 11.1311C33.9715 11.1311 40.2822 17.4289 40.2822 25.1879C40.2822 32.9469 33.9715 39.2317 26.2254 39.2317Z" fill="#2D3C58"/>
<path d="M45.9851 41.8698C46.567 41.5723 47.0843 41.1844 47.4852 40.6413C48.5326 39.2058 48.2869 37.3307 48.0542 35.5074C47.899 34.3306 47.7438 33.1021 48.0154 32.2745C48.2611 31.4986 49.0887 30.6321 49.8775 29.8045C51.106 28.5113 52.4897 27.0501 52.4897 25.2008C52.4897 23.3516 51.119 21.8645 49.8905 20.5713C49.1016 19.7307 48.274 18.8772 48.0283 18.1013C47.7567 17.2737 47.9119 16.0452 48.0671 14.8684C48.2999 13.045 48.5326 11.1699 47.4981 9.73453C46.4506 8.28618 44.5755 7.93702 42.7651 7.58787C41.6012 7.36803 40.3986 7.14819 39.7132 6.64385C39.0278 6.15245 38.4588 5.09205 37.9028 4.05752C37.0622 2.50571 36.0924 0.747004 34.3724 0.17801C32.7172 -0.365121 31.0231 0.436644 29.3808 1.21255C28.2816 1.72981 27.1566 2.26001 26.2513 2.26001C25.3461 2.26001 24.2211 1.72981 23.1219 1.21255C21.4795 0.436644 19.7855 -0.365121 18.1302 0.17801C16.3974 0.734073 15.4922 2.42812 14.5999 4.05752C14.0438 5.07912 13.4619 6.15245 12.7894 6.64385C12.0911 7.14819 10.9014 7.38096 9.73756 7.58787C7.92713 7.92409 6.05203 8.28618 5.00456 9.73453C3.9571 11.1699 4.2028 13.045 4.43557 14.8684C4.59075 16.0452 4.74593 17.2737 4.47437 18.1013C4.22866 18.8772 3.40103 19.7437 2.6122 20.5713C1.38369 21.8645 0 23.3257 0 25.175C0 27.0242 1.39662 28.4855 2.6122 29.7786C3.40103 30.6192 4.22866 31.4727 4.47437 32.2486C4.74593 33.0762 4.59075 34.3047 4.43557 35.4815C4.2028 37.3049 3.97003 39.18 5.00456 40.6154C5.40545 41.1585 5.92271 41.5594 6.50464 41.8439L0.866423 51.6073C0.659516 51.9694 0.68538 52.422 0.944013 52.7583C1.20265 53.0945 1.62939 53.2367 2.03028 53.1333L10.3583 50.8961L12.5955 59.2241C12.6989 59.625 13.0481 59.9224 13.4619 59.9871C13.5136 59.9871 13.5524 60 13.5912 60C13.9533 60 14.3025 59.806 14.4835 59.4827L19.7726 50.3142C20.8976 50.1848 22.0356 49.6546 23.1348 49.1374C24.234 48.6201 25.359 48.0899 26.2643 48.0899C27.1695 48.0899 28.2945 48.6201 29.3937 49.1374C30.4929 49.6546 31.6309 50.1978 32.756 50.3142L38.045 59.4827C38.2261 59.806 38.5752 60 38.9373 60C38.9761 60 39.0278 60 39.0666 59.9871C39.4804 59.9353 39.8167 59.6379 39.9331 59.2241L42.1702 50.8961L50.4983 53.1333C50.8991 53.2367 51.3259 53.0945 51.5845 52.7583C51.8431 52.422 51.869 51.9694 51.6621 51.6073L45.9851 41.8698ZM13.9016 56.3015L12.0523 49.3831C11.9101 48.827 11.3411 48.5037 10.785 48.646L3.86658 50.4952L8.47026 42.5164C8.87114 42.6069 9.28495 42.6845 9.69877 42.7621C10.8626 42.9819 12.0653 43.2017 12.7506 43.7061C13.436 44.1975 14.005 45.2579 14.5611 46.2924C15.3111 47.6761 16.1517 49.215 17.5483 49.9391L13.9016 56.3015ZM26.2255 46.0338C24.8547 46.0338 23.5098 46.6674 22.2166 47.2752C20.9364 47.883 19.6174 48.5037 18.751 48.2192C17.8069 47.9089 17.0957 46.5898 16.3974 45.3225C15.7249 44.094 15.0396 42.8267 13.9792 42.0508C12.9058 41.2749 11.4704 41.0033 10.0867 40.7447C8.67717 40.4731 7.21588 40.2016 6.63396 39.4257C6.07789 38.6627 6.25894 37.1885 6.43998 35.7789C6.62103 34.3694 6.80207 32.921 6.38826 31.6408C5.98737 30.4252 5.00456 29.3778 4.06055 28.382C3.05188 27.3216 2.00441 26.2224 2.00441 25.2008C2.00441 24.1792 3.05188 23.08 4.06055 22.0196C5.0175 21.011 6.0003 19.9764 6.38826 18.7608C6.80207 17.4806 6.62103 16.0323 6.43998 14.6227C6.25894 13.2002 6.07789 11.7389 6.63396 10.976C7.20295 10.1871 8.66423 9.91557 10.0867 9.65694C11.4704 9.3983 12.9058 9.12674 13.9792 8.35084C15.0396 7.58787 15.7249 6.30763 16.3974 5.07912C17.0957 3.79888 17.8069 2.49278 18.751 2.18242C19.6303 1.89792 20.9493 2.51865 22.2166 3.12643C23.5098 3.73422 24.8547 4.36788 26.2255 4.36788C27.5962 4.36788 28.9411 3.73422 30.2343 3.12643C31.5145 2.51865 32.8336 1.89792 33.7 2.18242C34.644 2.49278 35.3552 3.81181 36.0536 5.07912C36.726 6.30763 37.4114 7.57494 38.4718 8.35084C39.5451 9.12674 40.9805 9.3983 42.3642 9.65694C43.7738 9.9285 45.2351 10.2001 45.817 10.976C46.373 11.7389 46.192 13.2132 46.011 14.6227C45.8299 16.0323 45.6489 17.4806 46.0627 18.7608C46.4636 19.9764 47.4464 21.0239 48.3904 22.0196C49.3991 23.08 50.4465 24.1792 50.4465 25.2008C50.4465 26.2224 49.3991 27.3216 48.3904 28.382C47.4334 29.3907 46.4506 30.4252 46.0627 31.6408C45.6489 32.921 45.8299 34.3694 46.011 35.7789C46.192 37.2014 46.373 38.6627 45.817 39.4257C45.248 40.2145 43.7867 40.4861 42.3642 40.7447C40.9805 41.0033 39.5451 41.2749 38.4718 42.0508C37.4114 42.8138 36.726 44.094 36.0536 45.3225C35.3552 46.6028 34.644 47.9089 33.7 48.2192C32.8206 48.5037 31.5016 47.883 30.2343 47.2752C28.9411 46.6674 27.5962 46.0338 26.2255 46.0338ZM41.6659 48.646C41.1098 48.5037 40.5409 48.827 40.3986 49.3831L38.5494 56.3015L34.8897 49.965C36.2734 49.2538 37.0881 47.7666 37.8769 46.3183C38.433 45.2967 39.0149 44.2233 39.6874 43.7319C40.3857 43.2276 41.5754 42.9948 42.7392 42.7879C43.1531 42.7103 43.5669 42.6327 43.9678 42.5422L48.5714 50.5211L41.6659 48.646Z" fill="#2D3C58"/>
<path d="M35.9255 18.8513C35.5246 18.4504 34.8651 18.4504 34.4642 18.8513L23.9895 29.3259L18.0022 23.3386C17.6013 22.9377 16.9418 22.9377 16.5409 23.3386C16.14 23.7394 16.14 24.399 16.5409 24.7998L23.2654 31.5243C23.4594 31.7183 23.718 31.8217 24.0025 31.8217C24.287 31.8217 24.5456 31.7183 24.7396 31.5243L35.9255 20.3125C36.3264 19.9117 36.3264 19.2521 35.9255 18.8513Z" fill="#2D3C58"/>
</svg>
