<svg width="60" height="60" viewBox="0 0 60 60" fill="none" xmlns="http://www.w3.org/2000/svg">
<path d="M36.2675 34.853H15.1792C14.6498 34.853 14.2969 35.2059 14.2969 35.7353V40.853C14.2969 41.3824 14.6498 41.7353 15.1792 41.7353H36.2675C36.7969 41.7353 37.1498 41.3824 37.1498 40.853V35.7353C37.1498 35.2941 36.7086 34.853 36.2675 34.853ZM35.3851 39.9706H16.0616V36.6177H35.3851V39.9706Z" fill="#2D3C58"/>
<path d="M15.1792 26.0294C14.6498 26.0294 14.2969 26.4706 14.2969 26.9118C14.2969 27.4412 14.6498 27.7941 15.1792 27.7941C15.7086 27.7941 16.0616 27.4412 16.0616 26.9118C16.0616 26.4706 15.7086 26.0294 15.1792 26.0294Z" fill="#2D3C58"/>
<path d="M19.5855 26.0294C19.0561 26.0294 18.7031 26.4706 18.7031 26.9118C18.7031 27.4412 19.0561 27.7941 19.5855 27.7941C20.1149 27.7941 20.4678 27.3529 20.4678 26.9118C20.4678 26.4706 20.0267 26.0294 19.5855 26.0294Z" fill="#2D3C58"/>
<path d="M23.9995 26.0294C23.4701 26.0294 23.1172 26.4706 23.1172 26.9118C23.1172 27.4412 23.4701 27.7941 23.9995 27.7941C24.529 27.7941 24.8819 27.3529 24.8819 26.9118C24.8819 26.4706 24.4407 26.0294 23.9995 26.0294Z" fill="#2D3C58"/>
<path d="M51.8828 38.4706V32.6471C51.8828 30.7059 50.2946 29.1177 48.3534 29.1177H33.1769C32.2946 29.1177 31.5887 28.5 31.4122 27.6177L30.7063 24.8824C30.3534 23.2059 28.9416 22.0588 27.2652 22.0588H13.4122C11.471 22.0588 9.88281 23.6471 9.88281 25.5882V51.7059C9.88281 53.6471 11.471 55.2353 13.4122 55.2353H40.7652C42.6181 57.0882 45.1769 58.1471 48.0005 58.1471C53.6475 58.2353 58.2358 53.6471 58.2358 47.9118C58.2358 43.6765 55.5887 39.9706 51.8828 38.4706ZM11.6475 51.7941V31.7647H25.2358C25.7652 31.7647 26.1181 31.4118 26.1181 30.8824C26.1181 30.353 25.7652 30 25.2358 30H11.6475V25.5882C11.6475 24.6177 12.4416 23.8235 13.4122 23.8235H27.2652C28.1475 23.8235 28.8534 24.4412 29.0299 25.3235L29.7358 28.0588C30.0887 29.7353 31.5005 30.8824 33.1769 30.8824H48.3534C49.324 30.8824 50.1181 31.6765 50.1181 32.6471V37.853C49.4122 37.6765 48.7063 37.5882 47.9122 37.5882C42.2652 37.5882 37.5887 42.1765 37.5887 47.9118C37.5887 49.9412 38.2063 51.8824 39.2652 53.4706H13.4122C12.3534 53.5588 11.6475 52.7647 11.6475 51.7941ZM47.9122 56.4706C43.2358 56.4706 39.3534 52.6765 39.3534 47.9118C39.3534 43.2353 43.1475 39.353 47.9122 39.353C52.6769 39.353 56.4711 43.2353 56.4711 47.9118C56.4711 52.6765 52.6769 56.4706 47.9122 56.4706Z" fill="#2D3C58"/>
<path d="M47.9109 42.4412C45.705 42.4412 43.7639 43.7647 42.8815 45.6176L42.6168 45.1765C42.4403 44.7353 41.9109 44.5588 41.4697 44.7353C41.0286 44.9118 40.8521 45.4412 41.0286 45.8823L42.2639 48.3529C42.4403 48.7941 42.9697 48.9706 43.4109 48.7941C46.7639 47.2059 45.6168 47.7353 45.8815 47.647C46.3227 47.4706 46.4991 46.9412 46.3227 46.5C46.1462 46.0588 45.6168 45.8823 45.1756 46.0588L44.558 46.4118C45.1756 45.1765 46.4109 44.2059 47.9109 44.2059C49.9403 44.2059 51.705 45.8823 51.705 48C51.705 50.0294 50.0286 51.7941 47.9109 51.7941C47.3815 51.7941 47.0286 52.147 47.0286 52.6765C47.0286 53.2059 47.3815 53.5588 47.9109 53.5588C50.9109 53.5588 53.4697 51.0882 53.4697 48C53.4697 44.9118 50.9991 42.4412 47.9109 42.4412Z" fill="#2D3C58"/>
<path d="M32.7381 46.7647H15.1792C14.6498 46.7647 14.2969 47.1177 14.2969 47.6471C14.2969 48.1765 14.6498 48.5294 15.1792 48.5294H32.7381C33.2675 48.5294 33.6204 48.1765 33.6204 47.6471C33.6204 47.1177 33.1792 46.7647 32.7381 46.7647Z" fill="#2D3C58"/>
<path d="M54.8833 15.8824C55.9421 9.79413 49.8539 4.94119 44.1186 7.23531C39.0892 -0.264691 27.9715 -0.0882199 23.295 7.58825C18.795 3.79413 11.8244 7.23531 12.0009 13.1471C6.26562 13.2353 1.76562 18 1.76562 23.5588C1.76562 27.2647 3.79504 30.7059 6.97151 32.4706C7.41268 32.7353 7.9421 32.5588 8.2068 32.1177C8.47151 31.6765 8.29504 31.1471 7.85386 30.8824C5.2068 29.3824 3.53033 26.5588 3.53033 23.4706C3.53033 18.6177 7.67739 14.4706 12.8833 15C13.5009 15.0883 13.9421 14.4706 13.8539 13.9412C13.2362 10.7647 15.6186 7.85296 18.8833 7.85296C20.3833 7.85296 21.795 8.55884 22.7656 9.7059C23.2068 10.1471 23.9127 10.1471 24.2656 9.52943C26.0303 5.82354 29.7362 3.52943 33.795 3.52943C40.2362 3.52943 42.8833 8.73531 42.9715 8.82354C43.2362 9.17649 43.7656 9.44119 44.2068 9.17649C48.795 6.7059 54.1774 10.853 53.0303 15.9706C52.9421 16.2353 53.0303 16.6765 53.295 16.9412C57.1774 20.1177 57.5303 25.9412 54.0009 29.5588C53.648 29.9118 53.648 30.4412 54.0009 30.7941C54.3539 31.1471 54.8833 31.1471 55.2362 30.7941C59.3833 26.5588 59.2068 19.853 54.8833 15.8824Z" fill="#2D3C58"/>
<path d="M29.6498 8.91181C31.1498 7.1471 33.4439 6.52945 35.5615 7.41181C36.0027 7.58828 36.5321 7.41181 36.7086 6.97063C36.8851 6.52945 36.7086 6.00004 36.2674 5.82357C33.5321 4.67651 30.3557 5.47063 28.3262 7.85298C27.9733 8.20592 28.0615 8.82357 28.4145 9.08828C28.7674 9.35298 29.3851 9.26475 29.6498 8.91181Z" fill="#2D3C58"/>
<path d="M38.2105 22.9412C38.6517 22.9412 39.0928 22.5883 39.0928 22.0589C39.0928 21.6177 38.7399 21.1765 38.2105 21.1765C37.6811 21.1765 37.3281 21.6177 37.3281 22.0589C37.3281 22.5883 37.6811 22.9412 38.2105 22.9412Z" fill="#2D3C58"/>
<path d="M42.6167 22.9412C43.0579 22.9412 43.4991 22.5883 43.4991 22.0589C43.4991 21.6177 43.1461 21.1765 42.6167 21.1765C42.0873 21.1765 41.7344 21.6177 41.7344 22.0589C41.7344 22.5883 42.0873 22.9412 42.6167 22.9412Z" fill="#2D3C58"/>
<path d="M47.0308 22.9412C47.5602 22.9412 47.9131 22.5883 47.9131 22.0589C47.9131 21.6177 47.5602 21.1765 47.0308 21.1765C46.5014 21.1765 46.1484 21.6177 46.1484 22.0589C46.1484 22.5883 46.5014 22.9412 47.0308 22.9412Z" fill="#2D3C58"/>
</svg>
