<svg width="64" height="61" viewBox="0 0 64 61" fill="none" xmlns="http://www.w3.org/2000/svg">
<path d="M48.4987 8.9834C48.5263 8.98541 48.5538 8.98741 48.5818 8.98741C48.6294 8.98741 48.677 8.9834 48.7235 8.97689C49.9698 9.00243 50.9673 10.0189 50.9688 11.2652C50.9688 11.8315 51.428 12.2907 51.9943 12.2907C52.5606 12.2907 53.0198 11.8315 53.0198 11.2652C53.0172 9.22675 51.5982 7.46321 49.6073 7.02457V6.03915C49.6073 5.47283 49.1482 5.01367 48.5818 5.01367C48.0155 5.01367 47.5564 5.47283 47.5564 6.03915V7.07114C45.4513 7.63395 44.0894 9.67039 44.3733 11.831C44.6572 13.9916 46.4988 15.607 48.678 15.607C49.9433 15.607 50.9688 16.6329 50.9688 17.8983C50.9688 19.1631 49.9433 20.1891 48.678 20.1891C47.4127 20.1891 46.3872 19.1631 46.3872 17.8983C46.3872 17.332 45.928 16.8728 45.3617 16.8728C44.7954 16.8728 44.3362 17.332 44.3362 17.8983C44.3387 19.8631 45.6586 21.5821 47.5564 22.0923V23.2159C47.5564 23.7823 48.0155 24.2414 48.5818 24.2414C49.1482 24.2414 49.6073 23.7823 49.6073 23.2159V22.1394C51.773 21.6652 53.2336 19.6353 52.9947 17.4311C52.7564 15.2269 50.8952 13.5565 48.678 13.557C47.4477 13.5575 46.4367 12.5861 46.3882 11.3568C46.3401 10.1276 47.272 9.07954 48.4987 8.9839V8.9834Z" fill="#2D3C58"/>
<path d="M48.7369 0C42.4282 0 37.0445 4.11644 35.0276 9.6284H9.57532C9.01151 9.6284 8.55385 10.1366 8.54984 10.6999L8.30749 46.6739H1.05252C0.486202 46.6739 0 47.084 0 47.6513V52.2164C0.0130187 56.5141 3.3979 60.0447 7.6911 60.239V60.2615H39.3528V60.2314C39.6092 60.241 39.7148 60.2615 39.8771 60.2615H39.8991C44.3425 60.2545 47.9412 56.6503 47.9412 52.2069V29.1255C48.1976 29.1396 48.469 29.1471 48.7343 29.1471C56.7624 29.1471 63.2954 22.6016 63.2954 14.573C63.2954 6.54495 56.7654 0 48.7369 0ZM8.08117 58.2105H8.07466C4.75737 58.206 2.06598 55.5236 2.05096 52.2059V48.7248H31.7899V52.1913C31.7914 54.3314 32.6461 56.3829 34.1643 57.8916C34.272 57.9992 34.4057 58.0823 34.5183 58.2105H8.08117ZM45.8902 52.2059C45.8907 55.5176 43.2094 58.204 39.8981 58.2105H39.8786C36.5538 58.2045 33.8574 55.5166 33.8409 52.1923V47.6513C33.8494 47.3889 33.7492 47.135 33.5634 46.9498C33.3777 46.7645 33.1238 46.6649 32.8619 46.6739H10.3585L10.5938 11.6794H34.4582C34.2765 12.6182 34.1823 13.5716 34.1773 14.5275C34.1753 16.5489 34.5969 18.5478 35.4151 20.3959H25.7291C25.1623 20.3959 24.7037 20.8551 24.7037 21.4214C24.7037 21.9877 25.1623 22.4469 25.7291 22.4469H36.5277C38.6433 25.7737 42.0252 28.0931 45.8902 28.8692V52.2059ZM48.7369 27.0966C41.8289 27.0966 36.2283 21.4965 36.2288 14.5881C36.2288 7.67959 41.8289 2.0795 48.7374 2.0795C55.6453 2.0795 61.2454 7.68009 61.2454 14.5881C61.2379 21.493 55.6423 27.0891 48.7369 27.0966Z" fill="#2D3C58"/>
<path d="M19.1475 27.2209C17.3374 27.2209 15.8652 28.6465 15.8652 30.399C15.8652 32.1516 17.3374 33.5771 19.1475 33.5771C20.9576 33.5771 22.4302 32.1516 22.4302 30.399C22.4302 28.6465 20.9576 27.2209 19.1475 27.2209ZM19.1475 31.5262C18.468 31.5262 17.9162 31.0204 17.9162 30.399C17.9162 29.7771 18.4685 29.2719 19.1475 29.2719C19.8265 29.2719 20.3793 29.7776 20.3793 30.399C20.3793 31.0204 19.8265 31.5262 19.1475 31.5262Z" fill="#2D3C58"/>
<path d="M24.7051 30.3944C24.7051 30.9607 25.1637 31.4199 25.7306 31.4199H39.4023C39.9686 31.4199 40.4278 30.9607 40.4278 30.3944C40.4278 29.8281 39.9686 29.3689 39.4023 29.3689H25.7306C25.1637 29.3689 24.7051 29.8281 24.7051 30.3944Z" fill="#2D3C58"/>
<path d="M19.1475 18.3066C17.3374 18.3066 15.8652 19.7327 15.8652 21.4852C15.8652 23.2378 17.3374 24.6633 19.1475 24.6633C20.9576 24.6633 22.4302 23.2378 22.4302 21.4852C22.4302 19.7327 20.9576 18.3066 19.1475 18.3066ZM19.1475 22.6124C18.468 22.6124 17.9162 22.1066 17.9162 21.4852C17.9162 20.8638 18.4685 20.3576 19.1475 20.3576C19.8265 20.3576 20.3793 20.8633 20.3793 21.4852C20.3793 22.1066 19.8265 22.6129 19.1475 22.6129V22.6124Z" fill="#2D3C58"/>
<path d="M19.1475 36.1343C17.3374 36.1343 15.8652 37.5598 15.8652 39.3124C15.8652 41.0649 17.3374 42.4905 19.1475 42.4905C20.9576 42.4905 22.4302 41.0649 22.4302 39.3124C22.4302 37.5598 20.9576 36.1343 19.1475 36.1343ZM19.1475 40.4395C18.468 40.4395 17.9162 39.9343 17.9162 39.3124C17.9162 38.691 18.4685 38.1852 19.1475 38.1852C19.8265 38.1852 20.3793 38.691 20.3793 39.3124C20.3793 39.9338 19.8265 40.4395 19.1475 40.4395Z" fill="#2D3C58"/>
<path d="M39.4023 38.3418H25.7306C25.1637 38.3418 24.7051 38.801 24.7051 39.3673C24.7051 39.9336 25.1637 40.3928 25.7306 40.3928H39.4023C39.9686 40.3928 40.4278 39.9336 40.4278 39.3673C40.4278 38.801 39.9686 38.3418 39.4023 38.3418Z" fill="#2D3C58"/>
</svg>
