<svg width="60" height="60" viewBox="0 0 60 60" fill="none" xmlns="http://www.w3.org/2000/svg">
<path fill-rule="evenodd" clip-rule="evenodd" d="M43.126 41.25H44.0635C47.0702 41.2309 49.9638 40.1011 52.1879 38.0777C54.412 36.0542 55.8096 33.2801 56.112 30.2885C56.4144 27.297 55.6003 24.2992 53.8261 21.8716C52.052 19.444 49.4431 17.7579 46.501 17.1375C45.6915 13.3622 43.6119 9.97869 40.6091 7.55149C37.6063 5.1243 33.862 3.80023 30.001 3.80023C26.1399 3.80023 22.3956 5.1243 19.3928 7.55149C16.39 9.97869 14.3104 13.3622 13.501 17.1375C10.5589 17.7579 7.94994 19.444 6.1758 21.8716C4.40166 24.2992 3.58754 27.297 3.88995 30.2885C4.19236 33.2801 5.58996 36.0542 7.81405 38.0777C10.0381 40.1011 12.9317 41.2309 15.9385 41.25H16.876V37.5H15.9385C13.7007 37.5895 11.519 36.7864 9.87339 35.2674C8.22776 33.7483 7.25297 31.6378 7.16346 29.4C7.07395 27.1622 7.87705 24.9806 9.39609 23.3349C10.9151 21.6893 13.0257 20.7145 15.2635 20.625H16.876L16.9135 19.0875C17.3294 15.9308 18.8787 13.033 21.2727 10.9338C23.6666 8.83466 26.742 7.67727 29.926 7.67727C33.1099 7.67727 36.1853 8.83466 38.5793 10.9338C40.9732 13.033 42.5225 15.9308 42.9385 19.0875L43.126 20.625H44.7385C46.9762 20.7145 49.0868 21.6893 50.6058 23.3349C52.1249 24.9806 52.928 27.1622 52.8385 29.4C52.749 31.6378 51.7742 33.7483 50.1285 35.2674C48.4829 36.7864 46.3012 37.5895 44.0635 37.5H43.126V41.25ZM23.2697 36.3937L20.626 33.75L30.001 24.375L39.376 33.75L36.7322 36.3937L31.876 31.5562V54.375H28.126V31.5562L23.2697 36.3937Z" fill="#2D3C58"/>
</svg>
