<svg width="69" height="60" viewBox="0 0 69 60" fill="none" xmlns="http://www.w3.org/2000/svg">
<path d="M23.6094 19.7629C23.6094 20.2263 23.9219 20.6465 24.3745 20.7651C27.7258 21.7026 31.1094 22.1767 34.4822 22.1767C37.8658 22.1767 41.2387 21.7026 44.6007 20.7651C45.0533 20.6358 45.3658 20.2263 45.3658 19.7629C45.3658 19.5474 45.3227 14.5259 41.4758 13.3728C40.3227 13.028 39.0512 12.3922 38.0706 11.8427C38.4477 11.2823 38.771 10.625 38.9973 9.89224C39.7516 9.3319 40.1611 8.20043 40.2796 7.55388C40.5059 6.41164 40.1611 5.625 39.6439 5.19396L39.6546 4.80603C39.7085 3.52371 39.2775 2.32759 38.437 1.45474C37.5426 0.517242 36.2818 0 34.8809 0H34.1051C32.7042 0 31.4434 0.517242 30.549 1.45474C29.7085 2.33836 29.2775 3.52371 29.3314 4.80603L29.3421 5.21552C28.8033 5.65733 28.4801 6.43319 28.6956 7.55388C28.8141 8.20043 29.2236 9.3319 29.9779 9.90302C30.2042 10.6358 30.5167 11.2823 30.9046 11.8534C29.9133 12.403 28.6525 13.028 27.4995 13.3836C23.6525 14.5366 23.6094 19.5582 23.6094 19.7629ZM30.7214 6.84267C31.1633 6.70259 31.4758 6.28233 31.4542 5.80819L31.4111 4.71983C31.3788 3.99784 31.6051 3.37284 32.0469 2.89871C32.5426 2.38147 33.2645 2.09052 34.0943 2.09052H34.8702C35.6891 2.09052 36.4219 2.38147 36.9176 2.89871C37.3701 3.37284 37.5857 3.99784 37.5533 4.7306L37.5102 5.80819C37.4887 6.27155 37.812 6.68103 38.243 6.84267C38.243 6.90733 38.243 7.01509 38.2107 7.16595C38.1137 7.65086 37.8766 8.07112 37.7473 8.21121C37.4133 8.32974 37.1546 8.59914 37.0684 8.95474C36.6374 10.722 35.5706 11.9504 34.4714 11.9504C33.3723 11.9504 32.3055 10.722 31.8745 8.95474C31.7883 8.60991 31.5296 8.32974 31.1956 8.21121C31.0663 8.07112 30.8292 7.65086 30.7322 7.17672C30.7214 7.01509 30.7107 6.9181 30.7214 6.84267ZM32.4133 13.3944C33.049 13.8039 33.7495 14.0302 34.4822 14.0302C35.215 14.0302 35.9154 13.8039 36.5512 13.3944C37.6719 14.0409 39.3314 14.9138 40.8723 15.3772C42.5426 15.8836 43.049 17.8664 43.2107 18.9871C37.424 20.4634 31.562 20.4634 25.7753 18.9871C25.937 17.8664 26.4434 15.8836 28.1137 15.3772C29.6331 14.9138 31.2926 14.0409 32.4133 13.3944Z" fill="#2D3C58"/>
<path d="M41.4778 51.1853C40.314 50.8297 39.0209 50.1832 38.0726 49.6552C38.4498 49.0948 38.773 48.4375 38.9885 47.7047C39.7429 47.1444 40.1523 46.0129 40.2709 45.3664C40.4864 44.2672 40.1739 43.4806 39.6243 43.0388L39.6351 42.6293C39.689 41.347 39.2579 40.1509 38.4174 39.2672C37.523 38.3297 36.2623 37.8125 34.8614 37.8125H34.0855C32.6847 37.8125 31.4239 38.3297 30.5295 39.2672C29.689 40.1509 29.2579 41.3362 29.3118 42.6185L29.3226 43.028C28.7838 43.4698 28.4605 44.2457 28.6761 45.3664C28.7946 46.0129 29.2041 47.1444 29.9584 47.7155C30.1847 48.4483 30.4972 49.0948 30.8851 49.6659C29.9368 50.194 28.6437 50.8405 27.4799 51.1961C23.6329 52.3599 23.5898 57.3815 23.5898 57.5862C23.5898 58.0496 23.9023 58.4698 24.3549 58.5884C27.7062 59.5259 31.0898 60 34.4627 60C37.8463 60 41.2192 59.5366 44.5812 58.5884C45.0338 58.459 45.3463 58.0496 45.3463 57.5862C45.3571 57.3599 45.314 52.3384 41.4778 51.1853ZM30.7235 44.6552C31.1761 44.5151 31.4778 44.0948 31.4562 43.6207L31.4131 42.5323C31.3808 41.8103 31.6071 41.1853 32.0489 40.7112C32.5446 40.194 33.2666 39.903 34.0963 39.903H34.8722C35.6911 39.903 36.4239 40.194 36.9196 40.7112C37.3722 41.1853 37.5877 41.8103 37.5554 42.5431L37.5123 43.6207C37.4907 44.0948 37.7924 44.5151 38.245 44.6552C38.245 44.7198 38.245 44.8276 38.2127 44.9677C38.1157 45.4526 37.8786 45.8728 37.7493 46.0129C37.4153 46.1315 37.1567 46.4009 37.0704 46.7565C36.6394 48.5237 35.5726 49.7522 34.4735 49.7522C33.3743 49.7522 32.3075 48.5237 31.8765 46.7565C31.7903 46.4116 31.5317 46.1315 31.2084 46.0237C31.0791 45.8836 30.842 45.4634 30.745 44.9784C30.7235 44.8276 30.7127 44.7198 30.7235 44.6552ZM25.7666 56.7996C25.9282 55.6789 26.4347 53.6853 28.1049 53.1897C29.6459 52.7263 31.3054 51.8534 32.4153 51.2069C33.0511 51.6164 33.7515 51.8427 34.4842 51.8427C35.217 51.8427 35.9174 51.6164 36.5532 51.2069C37.6739 51.8534 39.3334 52.7263 40.8743 53.1897C42.5446 53.6961 43.051 55.6789 43.2127 56.7996C37.4153 58.2759 31.5532 58.2759 25.7666 56.7996Z" fill="#2D3C58"/>
<path d="M65.0754 32.2845C63.9116 31.9289 62.6185 31.2823 61.6702 30.7543C62.0473 30.194 62.3706 29.5367 62.5969 28.8039C63.3512 28.2435 63.7499 27.1121 63.8792 26.4655C64.0948 25.3233 63.7607 24.5367 63.2435 24.1056L63.2542 23.7177C63.3081 22.4354 62.8771 21.2392 62.0366 20.3556C61.1422 19.4181 59.8814 18.9009 58.4805 18.9009H57.7047C56.3038 18.9009 55.043 19.4181 54.1486 20.3448C53.3081 21.2285 52.8771 22.4138 52.931 23.6961L52.9417 24.1056C52.4029 24.5474 52.0797 25.3341 52.2952 26.444C52.4245 27.0905 52.8232 28.222 53.5775 28.7823C53.8038 29.5259 54.1163 30.1724 54.4935 30.7328C53.5452 31.2608 52.2629 31.9073 51.0991 32.2522C47.2521 33.416 47.209 38.4375 47.209 38.6423C47.209 39.1056 47.5215 39.5259 47.9741 39.6444C51.3254 40.5819 54.709 41.056 58.0818 41.056C61.4654 41.056 64.8383 40.5927 68.2004 39.6444C68.6529 39.5151 68.9654 39.1056 68.9654 38.6423C68.9654 38.4591 68.9223 33.4375 65.0754 32.2845ZM54.3211 25.7435C54.7629 25.6035 55.0646 25.1832 55.0538 24.7091L55.0107 23.6207C54.9784 22.8987 55.2047 22.2737 55.6465 21.7996C56.1422 21.2823 56.8642 20.9914 57.6831 20.9914H58.459C59.2779 20.9914 60.0107 21.2823 60.5064 21.7996C60.959 22.2737 61.1745 22.8987 61.1422 23.6315L61.0991 24.7091C61.0775 25.1724 61.4008 25.5819 61.8318 25.7328C61.8318 25.7974 61.8318 25.9052 61.7995 26.0561C61.7025 26.541 61.4654 26.9612 61.3361 27.1013C61.0021 27.2198 60.7435 27.4892 60.6573 27.8448C60.2262 29.6121 59.1594 30.8405 58.0603 30.8405C56.9611 30.8405 55.8943 29.6121 55.4633 27.8448C55.3771 27.5 55.1185 27.2198 54.7844 27.1013C54.6551 26.9612 54.418 26.541 54.3211 26.0668C54.3211 25.9267 54.3211 25.819 54.3211 25.7435ZM49.3749 37.8879C49.5366 36.7673 50.0538 34.7737 51.7133 34.278C53.2435 33.8147 54.8922 32.9418 56.0129 32.306C56.6486 32.7048 57.3491 32.9311 58.0926 32.9311C58.8254 32.9311 59.5258 32.7048 60.1616 32.2953C61.2823 32.9418 62.931 33.8147 64.4827 34.278C66.1529 34.7845 66.6594 36.7673 66.821 37.8879C61.0129 39.3642 55.1616 39.3642 49.3749 37.8879Z" fill="#2D3C58"/>
<path d="M21.7565 38.6746C21.7565 38.4591 21.7134 33.4375 17.8664 32.2845C16.7026 31.9289 15.4095 31.2823 14.4612 30.7543C14.8384 30.194 15.1616 29.5367 15.3879 28.8039C16.1422 28.2435 16.5409 27.1121 16.6703 26.4655C16.8858 25.3233 16.5517 24.5367 16.0345 24.1056L16.0453 23.7177C16.0991 22.4354 15.6681 21.2392 14.8276 20.3556C13.9332 19.4181 12.6724 18.9009 11.2716 18.9009H10.4849C9.08405 18.9009 7.82327 19.4181 6.92888 20.3556C6.08836 21.2392 5.65733 22.4246 5.71121 23.7069L5.72198 24.1164C5.18319 24.5582 4.85991 25.3341 5.07543 26.4548C5.19396 27.1013 5.60345 28.2328 6.35776 28.8039C6.58405 29.5474 6.89655 30.194 7.27371 30.7543C6.32543 31.2823 5.03233 31.9289 3.87931 32.2737C0.0431034 33.4375 0 38.4591 0 38.6746C0 39.1379 0.3125 39.5582 0.765086 39.6767C4.11638 40.6142 7.5 41.0884 10.8728 41.0884C14.2565 41.0884 17.6293 40.625 20.9914 39.6767C21.444 39.5582 21.7565 39.1379 21.7565 38.6746ZM7.11207 25.7435C7.55388 25.6035 7.86638 25.1832 7.84483 24.7091L7.80172 23.6207C7.7694 22.8987 7.99569 22.2737 8.4375 21.7996C8.93319 21.2823 9.65517 20.9914 10.4849 20.9914H11.2608C12.0797 20.9914 12.8125 21.2823 13.3082 21.7996C13.7608 22.2737 13.9763 22.8987 13.944 23.6315L13.9009 24.7091C13.8793 25.1724 14.2026 25.5927 14.6336 25.7435C14.6336 25.8082 14.6336 25.916 14.6013 26.0668C14.5043 26.5517 14.2672 26.972 14.1379 27.1013C13.8039 27.2198 13.5453 27.4892 13.459 27.8448C13.028 29.6121 11.9612 30.8405 10.8621 30.8405C9.76293 30.8405 8.70689 29.6013 8.27586 27.8448C8.18965 27.5 7.93103 27.2198 7.59698 27.1013C7.46767 26.9612 7.2306 26.541 7.13362 26.0668C7.11207 25.9267 7.11207 25.819 7.11207 25.7435ZM2.15517 37.8879C2.31681 36.7673 2.82328 34.7737 4.49353 34.278C6.02371 33.8147 7.67241 32.9526 8.7931 32.306C9.42888 32.7048 10.1293 32.9311 10.8728 32.9311C11.6056 32.9311 12.306 32.7048 12.9418 32.2953C14.0625 32.9418 15.7112 33.8147 17.2629 34.278C18.9332 34.7845 19.4397 36.7673 19.6013 37.8879C13.8039 39.3642 7.95259 39.3642 2.15517 37.8879Z" fill="#2D3C58"/>
<path d="M11.853 18.2219C12.0039 18.3082 12.1763 18.3405 12.3379 18.3405C12.7151 18.3405 13.0707 18.1357 13.2647 17.7909C16.0341 12.5969 20.5923 8.60988 26.0987 6.56246C26.6375 6.35772 26.9177 5.75427 26.7129 5.21548C26.5082 4.67669 25.9155 4.39652 25.366 4.60126C19.3746 6.83186 14.4177 11.1638 11.4112 16.8103C11.1526 17.3168 11.3466 17.9525 11.853 18.2219Z" fill="#2D3C58"/>
<path d="M24.5577 52.1875C24.8055 51.6703 24.59 51.0453 24.0727 50.7974C20.0857 48.8793 16.7021 45.9052 14.2883 42.1875C13.9758 41.7026 13.3292 41.5625 12.8443 41.875C12.3594 42.1875 12.2193 42.834 12.5318 43.319C15.1503 47.3599 18.8249 50.5927 23.1568 52.6724C23.3077 52.7478 23.4585 52.7802 23.6094 52.7802C24.0081 52.7802 24.3852 52.5647 24.5577 52.1875Z" fill="#2D3C58"/>
<path d="M56.1206 41.875C55.6357 41.5625 54.9891 41.7026 54.6766 42.1875C52.2736 45.8944 48.9008 48.8685 44.9029 50.7974C44.3857 51.0453 44.1594 51.6703 44.418 52.1875C44.6012 52.5647 44.9676 52.7802 45.3663 52.7802C45.5171 52.7802 45.668 52.7478 45.8189 52.6724C50.1615 50.5819 53.8361 47.3491 56.4439 43.319C56.7456 42.834 56.6055 42.1875 56.1206 41.875Z" fill="#2D3C58"/>
<path d="M42.8552 6.56246C48.3724 8.60988 52.9306 12.5969 55.6892 17.7909C55.8724 18.1465 56.2388 18.3405 56.616 18.3405C56.7776 18.3405 56.95 18.2974 57.1009 18.2219C57.6073 17.9525 57.8013 17.3168 57.5319 16.8103C54.5254 11.1638 49.5686 6.83186 43.5772 4.60126C43.0384 4.39652 42.4349 4.67669 42.241 5.21548C42.0362 5.76505 42.3164 6.35772 42.8552 6.56246Z" fill="#2D3C58"/>
</svg>
