<svg width="60" height="60" viewBox="0 0 60 60" fill="none" xmlns="http://www.w3.org/2000/svg">
<path d="M56.4844 28.7393V21.6655C56.4844 18.1902 53.7191 15.3502 50.2734 15.2262V10.8843C50.2734 8.62266 48.4335 6.7827 46.1719 6.7827H34.8799L33.4218 2.72954C33.0499 1.69595 32.2973 0.870008 31.3027 0.403953C30.308 -0.0622186 29.1916 -0.111906 28.1596 0.263797L7.66875 7.72173C6.63773 8.09696 5.8152 8.85153 5.35254 9.84645C4.88988 10.8414 4.84289 11.9566 5.22035 12.987L6.04359 15.234C2.67621 15.4423 0 18.2466 0 21.6655V53.5405C0 57.0945 2.89137 59.9858 6.44531 59.9858H50.0391C53.593 59.9858 56.4844 57.0945 56.4844 53.5405V46.2324C58.4693 45.9471 60 44.236 60 42.1733V32.7983C60 30.7357 58.4693 29.0245 56.4844 28.7393ZM56.4844 42.1733C56.4844 42.4964 56.2215 42.7593 55.8984 42.7593H46.5234C43.6157 42.7593 41.25 40.3936 41.25 37.4858C41.25 34.5781 43.6157 32.2124 46.5234 32.2124H55.8984C56.2215 32.2124 56.4844 32.4752 56.4844 32.7983V42.1733ZM8.52141 11.7776C8.44863 11.579 8.50195 11.4113 8.54027 11.3289C8.57859 11.2466 8.67246 11.0977 8.87121 11.0254L29.3619 3.56743C29.5609 3.49513 29.7286 3.54891 29.811 3.58747C29.8934 3.62602 30.0421 3.72048 30.1137 3.9197L31.1438 6.78282H30.3516C28.09 6.78282 26.25 8.62278 26.25 10.8844V15.2203H9.78269L8.52141 11.7776ZM46.7578 10.8843V15.2202H29.7656V10.8843C29.7656 10.5612 30.0285 10.2983 30.3516 10.2983H46.1719C46.495 10.2983 46.7578 10.5612 46.7578 10.8843ZM50.0391 56.4702H6.44531C4.82988 56.4702 3.51562 55.1559 3.51562 53.5405V21.6655C3.51562 20.0501 4.82988 18.7358 6.44531 18.7358H50.0391C51.6545 18.7358 52.9688 20.0501 52.9688 21.6655V28.6968H46.5234C41.6771 28.6968 37.7344 32.6395 37.7344 37.4858C37.7344 42.3321 41.6771 46.2749 46.5234 46.2749H52.9688V53.5405C52.9688 55.1559 51.6545 56.4702 50.0391 56.4702Z" fill="#2D3C58"/>
<path d="M46.5234 39.2437C47.4943 39.2437 48.2812 38.4567 48.2812 37.4858C48.2812 36.515 47.4943 35.728 46.5234 35.728C45.5526 35.728 44.7656 36.515 44.7656 37.4858C44.7656 38.4567 45.5526 39.2437 46.5234 39.2437Z" fill="#2D3C58"/>
</svg>
