<svg width="50" height="50" viewBox="0 0 50 50" fill="none" xmlns="http://www.w3.org/2000/svg">
<path d="M49.2143 33.3831C48.7698 29.2294 45.9307 25.8794 42.1516 24.6374C43.5879 23.615 44.5276 21.9379 44.5276 20.0446C44.5276 18.2515 43.6847 16.6525 42.3755 15.6197V9.80562H44.1182C44.4266 9.80562 44.7062 9.62417 44.8318 9.34243C44.9574 9.06069 44.9054 8.73149 44.6992 8.5021L39.4731 2.68833C39.3248 2.52349 39.1137 2.42935 38.892 2.42935C38.6703 2.42935 38.4592 2.52349 38.311 2.68833L33.0848 8.5021C32.8786 8.73149 32.8267 9.06069 32.9523 9.34243C33.0779 9.62417 33.3575 9.80562 33.6659 9.80562H35.4084V15.6198C34.0993 16.6526 33.2566 18.2515 33.2566 20.0446C33.2566 21.938 34.1962 23.6151 35.6327 24.6374C34.7933 24.9146 33.991 25.302 33.2397 25.7917L32.9242 25.4763C32.6957 25.2478 32.35 25.1835 32.0547 25.3148L30.4643 26.0211C29.8326 25.664 29.1697 25.3721 28.4831 25.1458V8.82905H30.2258C30.5343 8.82905 30.8138 8.64761 30.9394 8.36587C31.065 8.08413 31.013 7.75493 30.8068 7.52554L25.5806 1.71187C25.4325 1.54702 25.2212 1.45288 24.9996 1.45288C24.7781 1.45288 24.5668 1.54702 24.4187 1.71187L19.1925 7.52554C18.9863 7.75493 18.9343 8.08413 19.0599 8.36587C19.1855 8.64761 19.465 8.82905 19.7735 8.82905H21.516V25.1458C20.8295 25.3721 20.1665 25.6641 19.535 26.0211L17.9446 25.3148C17.6493 25.1837 17.3036 25.2479 17.075 25.4764L16.7597 25.7917C16.0083 25.302 15.2062 24.9147 14.3667 24.6375C15.8032 23.6152 16.7429 21.9381 16.7429 20.0447C16.7429 18.2515 15.9 16.6526 14.5909 15.6197V9.80562H16.3335C16.6419 9.80562 16.9215 9.62417 17.0471 9.34243C17.1727 9.06069 17.1207 8.73149 16.9146 8.5021L11.6884 2.68833C11.5402 2.52349 11.329 2.42935 11.1074 2.42935C10.8857 2.42935 10.6745 2.52349 10.5263 2.68833L5.30062 8.5021C5.09446 8.73149 5.04251 9.06069 5.1681 9.34243C5.29368 9.62417 5.57327 9.80562 5.88167 9.80562H7.62425V15.6198C6.31517 16.6526 5.47239 18.2515 5.47239 20.0446C5.47239 21.9379 6.41194 23.615 7.84837 24.6374C4.06917 25.8794 1.23011 29.2294 0.785674 33.3832C0.762139 33.6036 0.833233 33.8236 0.981378 33.9885C1.12952 34.1534 1.34075 34.2475 1.56243 34.2475H12.1613V37.3403C12.1613 37.6635 12.3603 37.9533 12.6618 38.0694L14.2842 38.6939C14.5249 39.5596 14.8695 40.3907 15.3122 41.1738L14.6062 42.7635C14.4749 43.0589 14.5392 43.4045 14.7677 43.6331L17.0754 45.9408C17.304 46.1694 17.6498 46.2335 17.945 46.1024L19.5355 45.396C20.3187 45.8388 21.1495 46.1833 22.0145 46.4238L22.6391 48.0466C22.7551 48.3483 23.045 48.5472 23.3682 48.5472H26.6317C26.9549 48.5472 27.2447 48.3482 27.3608 48.0466L27.9853 46.4243C28.8509 46.1836 29.6821 45.8391 30.4652 45.3962L32.0549 46.1023C32.3502 46.2335 32.6959 46.1692 32.9244 45.9408L35.2321 43.6331C35.4606 43.4045 35.5248 43.0589 35.3937 42.7635L34.6873 41.1731C35.1301 40.3898 35.4745 39.559 35.7151 38.6941L37.3379 38.0695C37.6396 37.9535 37.8385 37.6636 37.8385 37.3404V34.2477H48.4373C48.659 34.2477 48.8702 34.1536 49.0184 33.9886C49.1666 33.8236 49.2378 33.6036 49.2143 33.3831ZM36.1898 8.24312H35.4188L38.8921 4.37925L42.3655 8.24312H41.5944C41.1629 8.24312 40.8131 8.59292 40.8131 9.02437V14.7466C40.2133 14.5285 39.5664 14.4091 38.8922 14.4091C38.2179 14.4091 37.571 14.5285 36.9711 14.7467V9.02437C36.971 8.59292 36.6212 8.24312 36.1898 8.24312ZM34.8192 20.0446C34.8192 17.7988 36.6462 15.9716 38.8921 15.9716C41.138 15.9716 42.9651 17.7987 42.9651 20.0446C42.9651 22.29 41.1387 24.1167 38.8934 24.1174C38.893 24.1174 38.8925 24.1174 38.8921 24.1174C38.8917 24.1174 38.8914 24.1174 38.891 24.1174C36.6457 24.1168 34.8192 22.29 34.8192 20.0446ZM24.9999 3.40269L28.4733 7.26655H27.7022C27.2707 7.26655 26.9209 7.61636 26.9209 8.0478V22.9276C26.8304 22.8914 26.7332 22.8698 26.6318 22.8698H23.3683C23.2668 22.8698 23.1696 22.8914 23.079 22.9276V8.0478C23.079 7.61636 22.7292 7.26655 22.2978 7.26655H21.5267L24.9999 3.40269ZM8.4055 8.24312H7.63441L11.1077 4.37925L14.5811 8.24312H13.81C13.3785 8.24312 13.0287 8.59292 13.0287 9.02437V14.7466C12.4289 14.5285 11.7821 14.4091 11.1078 14.4091C10.4335 14.4091 9.78665 14.5285 9.18675 14.7467V9.02437C9.18675 8.59292 8.83694 8.24312 8.4055 8.24312ZM7.03489 20.0446C7.03489 17.7988 8.86194 15.9716 11.1078 15.9716C13.3537 15.9716 15.1808 17.7987 15.1808 20.0446C15.1808 22.29 13.3542 24.1168 11.1089 24.1174C11.1086 24.1174 11.1082 24.1174 11.1078 24.1174C11.1075 24.1174 11.107 24.1174 11.1066 24.1174C8.86126 24.1167 7.03489 22.29 7.03489 20.0446ZM11.1068 25.6799H11.1077H11.1088C12.7209 25.6801 14.2653 26.1092 15.6265 26.9252L14.7677 27.784C14.5392 28.0126 14.4749 28.3582 14.6062 28.6536L15.3124 30.2438C14.8762 31.0154 14.5358 31.8335 14.2957 32.685H2.47474C3.31487 28.6358 6.88353 25.6804 11.1068 25.6799ZM36.2761 36.8039L34.7786 37.3802C34.5382 37.4727 34.3589 37.6779 34.2992 37.9285C34.0652 38.9122 33.6768 39.849 33.1449 40.7129C33.0098 40.9323 32.9916 41.2042 33.0961 41.4396L33.748 42.9074L32.1989 44.4565L30.7318 43.8048C30.4961 43.7001 30.2242 43.7184 30.0049 43.8537C29.1414 44.3855 28.2043 44.774 27.2198 45.0083C26.9692 45.0678 26.764 45.2472 26.6715 45.4876L26.0953 46.9846H23.9046L23.3283 45.4872C23.2358 45.2467 23.0306 45.0674 22.78 45.0078C21.7962 44.7737 20.8594 44.3853 19.9955 43.8534C19.7761 43.7183 19.5042 43.7001 19.2689 43.8046L17.8011 44.4566L16.252 42.9075L16.9036 41.4404C17.0082 41.2048 16.99 40.933 16.8548 40.7135C16.3231 39.8501 15.9346 38.913 15.7002 37.9283C15.6406 37.6777 15.4613 37.4726 15.2208 37.3801L13.7239 36.804V34.6132L15.2212 34.0369C15.4616 33.9444 15.6409 33.7392 15.7006 33.4886C15.9347 32.5045 16.3232 31.5677 16.8551 30.704C16.9902 30.4845 17.0084 30.2126 16.9038 29.9772L16.2521 28.5096L17.8012 26.9605L19.269 27.6124C19.5043 27.7168 19.7763 27.6987 19.9957 27.5635C20.8595 27.0316 21.7963 26.6432 22.7801 26.4091C23.0307 26.3495 23.2359 26.1702 23.3284 25.9297L23.9048 24.4323H26.0955L26.6719 25.9297C26.7644 26.1702 26.9695 26.3495 27.2201 26.4091C28.2039 26.6432 29.1408 27.0317 30.0046 27.5635C30.224 27.6986 30.4958 27.7167 30.7313 27.6124L32.1991 26.9605L33.7482 28.5095L33.0966 29.9767C32.992 30.2122 33.0103 30.4841 33.1454 30.7035C33.6774 31.5671 34.0658 32.5042 34.3 33.4885C34.3596 33.7391 34.539 33.9443 34.7794 34.0368L36.2765 34.613V36.8039H36.2761ZM35.7044 32.685C35.4644 31.8334 35.124 31.0149 34.6876 30.2433L35.3937 28.6535C35.5249 28.3582 35.4607 28.0125 35.2322 27.7839L34.3735 26.9252C35.7347 26.1092 37.279 25.6801 38.8911 25.6799H38.8922H38.8932C43.1164 25.6804 46.685 28.6358 47.5252 32.685H35.7044ZM24.9999 28.3652C20.9508 28.3652 17.6567 31.6593 17.6567 35.7084C17.6567 39.7575 20.9508 43.0517 24.9999 43.0517C29.0491 43.0517 32.3432 39.7576 32.3432 35.7084C32.3432 31.6593 29.0491 28.3652 24.9999 28.3652ZM24.9999 41.4892C21.8123 41.4892 19.2192 38.8959 19.2192 35.7084C19.2192 32.5209 21.8124 29.9277 24.9999 29.9277C28.1874 29.9277 30.7807 32.5209 30.7807 35.7084C30.7807 38.8959 28.1875 41.4892 24.9999 41.4892Z" fill="#2D3C58"/>
</svg>
