<svg width="57" height="56" viewBox="0 0 57 56" fill="none" xmlns="http://www.w3.org/2000/svg">
<path d="M25.0325 50.248C24.6343 50.248 24.3125 49.9262 24.3125 49.528V40.1443C24.3125 39.7461 24.6343 39.4243 25.0325 39.4243C25.4307 39.4243 25.7525 39.7461 25.7525 40.1443V49.528C25.7525 49.9262 25.4307 50.248 25.0325 50.248Z" fill="#2D3C58"/>
<path d="M31.97 50.248C31.5718 50.248 31.25 49.9262 31.25 49.528V40.1443C31.25 39.7461 31.5718 39.4243 31.97 39.4243C32.3682 39.4243 32.69 39.7461 32.69 40.1443V49.528C32.69 49.9262 32.3682 50.248 31.97 50.248Z" fill="#2D3C58"/>
<path d="M31.9647 45.5558H25.0325C24.6343 45.5558 24.3125 45.2339 24.3125 44.8358C24.3125 44.4376 24.6343 44.1158 25.0325 44.1158H31.9647C32.3628 44.1158 32.6847 44.4376 32.6847 44.8358C32.6847 45.2339 32.3628 45.5558 31.9647 45.5558Z" fill="#2D3C58"/>
<path d="M16.5247 50.0299C16.1265 50.0299 15.8047 49.708 15.8047 49.3099V40.1443C15.8047 39.7461 16.1265 39.4243 16.5247 39.4243C16.9228 39.4243 17.2447 39.7461 17.2447 40.1443V49.3091C17.2447 49.7073 16.9221 50.0299 16.5247 50.0299Z" fill="#2D3C58"/>
<path d="M21.9484 46.0641H16.5247C16.1265 46.0641 15.8047 45.7423 15.8047 45.3441V40.1443C15.8047 39.7461 16.1265 39.4243 16.5247 39.4243H21.9484C22.3466 39.4243 22.6684 39.7461 22.6684 40.1443V45.3441C22.6684 45.7423 22.3466 46.0641 21.9484 46.0641ZM17.2447 44.6241H21.2284V40.8643H17.2447V44.6241Z" fill="#2D3C58"/>
<path d="M35.0559 50.0299C34.6578 50.0299 34.3359 49.708 34.3359 49.3099V40.1443C34.3359 39.7461 34.6578 39.4243 35.0559 39.4243C35.4541 39.4243 35.7759 39.7461 35.7759 40.1443V49.3091C35.7759 49.7073 35.4541 50.0299 35.0559 50.0299Z" fill="#2D3C58"/>
<path d="M40.4797 46.0641H35.0559C34.6578 46.0641 34.3359 45.7423 34.3359 45.3441V40.1443C34.3359 39.7461 34.6578 39.4243 35.0559 39.4243H40.4797C40.8779 39.4243 41.1997 39.7461 41.1997 40.1443V45.3441C41.1997 45.7423 40.8779 46.0641 40.4797 46.0641ZM35.7759 44.6241H39.7597V40.8643H35.7759V44.6241Z" fill="#2D3C58"/>
<path d="M55.5012 55.2074H1.50125C1.10309 55.2074 0.78125 54.8855 0.78125 54.4874V35.1842C0.78125 34.786 1.10309 34.4642 1.50125 34.4642H55.5012C55.8994 34.4642 56.2212 34.786 56.2212 35.1842V54.4881C56.2212 54.8855 55.8994 55.2074 55.5012 55.2074ZM2.22125 53.7674H54.7812V35.9042H2.22125V53.7674Z" fill="#2D3C58"/>
<path d="M48.7045 35.9042H8.29813C7.89997 35.9042 7.57812 35.5823 7.57812 35.1842V1.49539C7.57812 1.09723 7.89997 0.775391 8.29813 0.775391H38.3272C38.7253 0.775391 39.0472 1.09723 39.0472 1.49539V11.0419H48.7045C49.1027 11.0419 49.4245 11.3637 49.4245 11.7619V35.1842C49.4245 35.5816 49.1027 35.9042 48.7045 35.9042ZM9.01813 34.4642H47.9845V12.4811H38.3272C37.929 12.4811 37.6072 12.1593 37.6072 11.7611V2.21539H9.01813V34.4642Z" fill="#2D3C58"/>
<path d="M48.7067 12.4811H38.3294C37.9312 12.4811 37.6094 12.1593 37.6094 11.7611V1.49536C37.6094 1.2052 37.7836 0.942405 38.0522 0.830805C38.3193 0.719925 38.6296 0.779685 38.8355 0.983444L49.2129 11.2499C49.4203 11.4551 49.4836 11.7654 49.3727 12.0354C49.2619 12.3054 48.9983 12.4811 48.7067 12.4811ZM39.0494 11.0411H46.955L39.0494 3.21976V11.0411Z" fill="#2D3C58"/>
<path d="M16.8637 14.027C16.7046 14.027 16.5448 13.9744 16.4116 13.8664L11.6812 10.0368C11.5127 9.89997 11.4141 9.69405 11.4141 9.47733C11.4141 9.26061 11.5127 9.05469 11.6812 8.91789L16.4116 5.08821C16.7205 4.83837 17.1748 4.88661 17.4239 5.19477C17.6745 5.50365 17.6262 5.95725 17.3173 6.20709L13.2781 9.47733L17.3173 12.7476C17.6269 12.9981 17.6745 13.4517 17.4239 13.7599C17.2821 13.9356 17.074 14.027 16.8637 14.027Z" fill="#2D3C58"/>
<path d="M25.4084 14.027C25.1982 14.027 24.9901 13.9356 24.8482 13.7599C24.5977 13.451 24.6459 12.9974 24.9548 12.7476L28.994 9.47731L24.9548 6.20707C24.6452 5.95651 24.5977 5.50291 24.8482 5.19475C25.0981 4.88587 25.5524 4.83835 25.8606 5.08819L30.591 8.91787C30.7594 9.05467 30.8581 9.26059 30.8581 9.47731C30.8581 9.69403 30.7594 9.89995 30.591 10.0368L25.8606 13.8664C25.7281 13.9744 25.5675 14.027 25.4084 14.027Z" fill="#2D3C58"/>
<path d="M40.1974 19.1023H16.7981C16.4 19.1023 16.0781 18.7805 16.0781 18.3823C16.0781 17.9841 16.4 17.6623 16.7981 17.6623H40.1974C40.5956 17.6623 40.9174 17.9841 40.9174 18.3823C40.9174 18.7805 40.5956 19.1023 40.1974 19.1023Z" fill="#2D3C58"/>
<path d="M44.8681 22.4366H12.1341C11.7359 22.4366 11.4141 22.1147 11.4141 21.7166C11.4141 21.3184 11.7359 20.9966 12.1341 20.9966H44.8681C45.2663 20.9966 45.5881 21.3184 45.5881 21.7166C45.5881 22.1147 45.2663 22.4366 44.8681 22.4366Z" fill="#2D3C58"/>
<path d="M44.8681 25.7716H12.1341C11.7359 25.7716 11.4141 25.4498 11.4141 25.0516C11.4141 24.6534 11.7359 24.3316 12.1341 24.3316H44.8681C45.2663 24.3316 45.5881 24.6534 45.5881 25.0516C45.5881 25.4498 45.2663 25.7716 44.8681 25.7716Z" fill="#2D3C58"/>
<path d="M44.8681 29.1081H12.1341C11.7359 29.1081 11.4141 28.7863 11.4141 28.3881C11.4141 27.9899 11.7359 27.6681 12.1341 27.6681H44.8681C45.2663 27.6681 45.5881 27.9899 45.5881 28.3881C45.5881 28.7863 45.2663 29.1081 44.8681 29.1081Z" fill="#2D3C58"/>
<path d="M44.8681 32.4432H12.1341C11.7359 32.4432 11.4141 32.1213 11.4141 31.7232C11.4141 31.325 11.7359 31.0032 12.1341 31.0032H44.8681C45.2663 31.0032 45.5881 31.325 45.5881 31.7232C45.5881 32.1213 45.2663 32.4432 44.8681 32.4432Z" fill="#2D3C58"/>
<path d="M20.0794 15.1127C19.6812 15.1127 19.3594 14.7909 19.3594 14.3927V13.9859C19.3594 13.5878 19.6812 13.2659 20.0794 13.2659C20.4775 13.2659 20.7994 13.5878 20.7994 13.9859V14.3927C20.7994 14.7902 20.4775 15.1127 20.0794 15.1127Z" fill="#2D3C58"/>
<path d="M20.0807 13.1277C19.6832 13.1277 19.3614 12.8059 19.3607 12.4084L19.3571 9.78908C19.3571 9.59828 19.432 9.41468 19.5673 9.27932C19.7027 9.14396 19.8856 9.06836 20.0771 9.06836H22.9794V5.67572H19.2916V7.3418C19.2916 7.73996 18.9697 8.0618 18.5716 8.0618C18.1734 8.0618 17.8516 7.73996 17.8516 7.3418V4.95572C17.8516 4.55756 18.1734 4.23572 18.5716 4.23572H23.6994C24.0976 4.23572 24.4194 4.55756 24.4194 4.95572V9.78836C24.4194 10.1865 24.0976 10.5084 23.6994 10.5084H20.7978L20.8007 12.407C20.8014 12.8044 20.4796 13.127 20.0807 13.1277Z" fill="#2D3C58"/>
</svg>
