<svg width="50" height="50" viewBox="0 0 50 50" fill="none" xmlns="http://www.w3.org/2000/svg">
<g clip-path="url(#clip0_495_4523)">
<path d="M44.5311 49.2188H36.7186C36.5114 49.2188 36.3127 49.1365 36.1662 48.99C36.0196 48.8435 35.9373 48.6448 35.9373 48.4376V33.2657C35.9373 33.0585 36.0196 32.8598 36.1662 32.7133C36.3127 32.5668 36.5114 32.4845 36.7186 32.4845C36.9258 32.4845 37.1245 32.5668 37.271 32.7133C37.4175 32.8598 37.4998 33.0585 37.4998 33.2657V47.6563H43.7498V14.8438C43.7498 14.6366 43.8321 14.4379 43.9787 14.2914C44.1252 14.1449 44.3239 14.0626 44.5311 14.0626H46.5514L40.6248 8.13601L34.6983 14.0626H36.7186C36.9258 14.0626 37.1245 14.1449 37.271 14.2914C37.4175 14.4379 37.4998 14.6366 37.4998 14.8438V24.547C37.4998 24.7542 37.4175 24.9529 37.271 25.0994C37.1245 25.2459 36.9258 25.3282 36.7186 25.3282C36.5114 25.3282 36.3127 25.2459 36.1662 25.0994C36.0196 24.9529 35.9373 24.7542 35.9373 24.547V15.6251H32.8123C32.6578 15.625 32.5068 15.5792 32.3784 15.4934C32.2499 15.4075 32.1498 15.2855 32.0907 15.1428C32.0316 15 32.0161 14.843 32.0463 14.6915C32.0764 14.5399 32.1508 14.4007 32.26 14.2915L40.0725 6.47898C40.219 6.33252 40.4177 6.25024 40.6248 6.25024C40.832 6.25024 41.0307 6.33252 41.1772 6.47898L48.9897 14.2915C49.0989 14.4007 49.1733 14.5399 49.2034 14.6915C49.2335 14.843 49.2181 15 49.159 15.1428C49.0998 15.2855 48.9997 15.4075 48.8713 15.4934C48.7428 15.5792 48.5918 15.625 48.4373 15.6251H45.3123V48.4376C45.3123 48.6448 45.23 48.8435 45.0835 48.99C44.937 49.1365 44.7383 49.2188 44.5311 49.2188Z" fill="#2D3C58"/>
<path d="M13.2811 49.2188H5.46858C5.26138 49.2188 5.06267 49.1365 4.91616 48.99C4.76964 48.8435 4.68733 48.6448 4.68733 48.4376V15.6251H1.56233C1.40784 15.625 1.25683 15.5792 1.12838 15.4934C0.999936 15.4075 0.899827 15.2855 0.84071 15.1428C0.781593 15 0.766122 14.843 0.796253 14.6915C0.826384 14.5399 0.900764 14.4007 1.00999 14.2915L8.82249 6.47898C8.969 6.33252 9.16767 6.25024 9.37483 6.25024C9.58199 6.25024 9.78067 6.33252 9.92718 6.47898L17.7397 14.2915C17.8489 14.4007 17.9233 14.5399 17.9534 14.6915C17.9835 14.843 17.9681 15 17.909 15.1428C17.8498 15.2855 17.7497 15.4075 17.6213 15.4934C17.4928 15.5792 17.3418 15.625 17.1873 15.6251H14.0623V24.547C14.0623 24.7542 13.98 24.9529 13.8335 25.0994C13.687 25.2459 13.4883 25.3282 13.2811 25.3282C13.0739 25.3282 12.8752 25.2459 12.7287 25.0994C12.5821 24.9529 12.4998 24.7542 12.4998 24.547V14.8438C12.4998 14.6366 12.5821 14.4379 12.7287 14.2914C12.8752 14.1449 13.0739 14.0626 13.2811 14.0626H15.3014L9.37483 8.13601L3.44827 14.0626H5.46858C5.67578 14.0626 5.8745 14.1449 6.02101 14.2914C6.16752 14.4379 6.24983 14.6366 6.24983 14.8438V47.6563H12.4998V33.2657C12.4998 33.0585 12.5821 32.8598 12.7287 32.7133C12.8752 32.5668 13.0739 32.4845 13.2811 32.4845C13.4883 32.4845 13.687 32.5668 13.8335 32.7133C13.98 32.8598 14.0623 33.0585 14.0623 33.2657V48.4376C14.0623 48.6448 13.98 48.8435 13.8335 48.99C13.687 49.1365 13.4883 49.2188 13.2811 49.2188Z" fill="#2D3C58"/>
<path d="M28.9061 17.8126C28.6989 17.8126 28.5002 17.7303 28.3537 17.5838C28.2071 17.4372 28.1248 17.2385 28.1248 17.0313V9.37508C28.1248 9.16788 28.2071 8.96916 28.3537 8.82265C28.5002 8.67614 28.6989 8.59383 28.9061 8.59383H30.9264L24.9998 2.66726L19.0733 8.59383H21.0936C21.3008 8.59383 21.4995 8.67614 21.646 8.82265C21.7925 8.96916 21.8748 9.16788 21.8748 9.37508V17.0313C21.8748 17.2385 21.7925 17.4372 21.646 17.5838C21.4995 17.7303 21.3008 17.8126 21.0936 17.8126C20.8864 17.8126 20.6877 17.7303 20.5412 17.5838C20.3946 17.4372 20.3123 17.2385 20.3123 17.0313V10.1563H17.1873C17.0328 10.1563 16.8818 10.1105 16.7534 10.0246C16.6249 9.93876 16.5248 9.81676 16.4657 9.67403C16.4066 9.53129 16.3911 9.37424 16.4213 9.22271C16.4514 9.07118 16.5258 8.93199 16.635 8.82273L24.4475 1.01023C24.594 0.863772 24.7927 0.781494 24.9998 0.781494C25.207 0.781494 25.4057 0.863772 25.5522 1.01023L33.3647 8.82273C33.4739 8.93199 33.5483 9.07118 33.5784 9.22271C33.6085 9.37424 33.5931 9.53129 33.534 9.67403C33.4748 9.81676 33.3747 9.93876 33.2463 10.0246C33.1178 10.1105 32.9668 10.1563 32.8123 10.1563H29.6873V17.0313C29.6873 17.2385 29.605 17.4372 29.4585 17.5838C29.312 17.7303 29.1133 17.8126 28.9061 17.8126Z" fill="#2D3C58"/>
<path d="M28.9062 49.2188H21.0938C20.8865 49.2188 20.6878 49.1364 20.5413 48.9899C20.3948 48.8434 20.3125 48.6447 20.3125 48.4375V40.7813C20.3125 40.574 20.3948 40.3753 20.5413 40.2288C20.6878 40.0823 20.8865 40 21.0938 40C21.301 40 21.4997 40.0823 21.6462 40.2288C21.7927 40.3753 21.875 40.574 21.875 40.7813V47.6562H28.125V40.7813C28.125 40.574 28.2073 40.3753 28.3538 40.2288C28.5003 40.0823 28.699 40 28.9062 40C29.1135 40 29.3122 40.0823 29.4587 40.2288C29.6052 40.3753 29.6875 40.574 29.6875 40.7813V48.4375C29.6875 48.6447 29.6052 48.8434 29.4587 48.9899C29.3122 49.1364 29.1135 49.2188 28.9062 49.2188Z" fill="#2D3C58"/>
<path d="M21.0936 33.5939C20.9391 33.5939 20.7881 33.548 20.6596 33.4622C20.5312 33.3764 20.4311 33.2543 20.372 33.1116C20.3128 32.9689 20.2974 32.8118 20.3275 32.6603C20.3576 32.5088 20.432 32.3696 20.5412 32.2603L28.3537 24.4478C28.5011 24.3055 28.6984 24.2268 28.9033 24.2285C29.1081 24.2303 29.3041 24.3125 29.4489 24.4573C29.5938 24.6022 29.6759 24.7981 29.6777 25.003C29.6795 25.2078 29.6007 25.4052 29.4584 25.5525L21.6459 33.365C21.4994 33.5115 21.3008 33.5939 21.0936 33.5939Z" fill="#2D3C58"/>
<path d="M21.875 28.125C21.4115 28.125 20.9583 27.9875 20.5729 27.73C20.1875 27.4725 19.8871 27.1064 19.7097 26.6782C19.5323 26.2499 19.4859 25.7787 19.5763 25.324C19.6667 24.8694 19.8899 24.4517 20.2177 24.124C20.5455 23.7962 20.9631 23.573 21.4178 23.4825C21.8724 23.3921 22.3437 23.4385 22.7719 23.6159C23.2002 23.7933 23.5662 24.0937 23.8238 24.4791C24.0813 24.8646 24.2188 25.3177 24.2188 25.7813C24.2188 26.4029 23.9718 26.999 23.5323 27.4385C23.0927 27.8781 22.4966 28.125 21.875 28.125ZM21.875 25C21.7205 25 21.5694 25.0458 21.441 25.1317C21.3125 25.2175 21.2124 25.3395 21.1532 25.4823C21.0941 25.625 21.0786 25.7821 21.1088 25.9337C21.1389 26.0852 21.2133 26.2244 21.3226 26.3337C21.4318 26.4429 21.571 26.5173 21.7226 26.5475C21.8741 26.5776 22.0312 26.5622 22.174 26.503C22.3167 26.4439 22.4387 26.3438 22.5246 26.2153C22.6104 26.0868 22.6563 25.9358 22.6563 25.7813C22.6563 25.5741 22.5739 25.3753 22.4274 25.2288C22.2809 25.0823 22.0822 25 21.875 25Z" fill="#2D3C58"/>
<path d="M28.125 34.375C27.6615 34.375 27.2083 34.2375 26.8229 33.98C26.4375 33.7225 26.1371 33.3564 25.9597 32.9282C25.7823 32.4999 25.7359 32.0287 25.8263 31.574C25.9167 31.1194 26.1399 30.7017 26.4677 30.374C26.7955 30.0462 27.2131 29.823 27.6678 29.7325C28.1224 29.6421 28.5936 29.6885 29.0219 29.8659C29.4502 30.0433 29.8162 30.3437 30.0738 30.7291C30.3313 31.1146 30.4688 31.5677 30.4688 32.0313C30.4688 32.6529 30.2218 33.249 29.7823 33.6885C29.3427 34.1281 28.7466 34.375 28.125 34.375ZM28.125 31.25C27.9705 31.25 27.8194 31.2958 27.691 31.3817C27.5625 31.4675 27.4624 31.5895 27.4032 31.7323C27.3441 31.875 27.3286 32.0321 27.3588 32.1837C27.3889 32.3352 27.4633 32.4744 27.5726 32.5837C27.6818 32.6929 27.821 32.7673 27.9726 32.7975C28.1241 32.8276 28.2812 32.8122 28.424 32.753C28.5667 32.6939 28.6887 32.5938 28.7746 32.4653C28.8604 32.3368 28.9063 32.1858 28.9063 32.0313C28.9063 31.8241 28.8239 31.6253 28.6774 31.4788C28.5309 31.3323 28.3322 31.25 28.125 31.25Z" fill="#2D3C58"/>
<path d="M25 42.1875C22.3732 42.1875 19.8054 41.4086 17.6213 39.9492C15.4372 38.4898 13.735 36.4156 12.7297 33.9888C11.7245 31.5619 11.4615 28.8915 11.974 26.3152C12.4864 23.7389 13.7513 21.3724 15.6087 19.515C17.4662 17.6576 19.8327 16.3927 22.409 15.8802C24.9853 15.3677 27.6557 15.6308 30.0825 16.636C32.5094 17.6412 34.5836 19.3435 36.043 21.5276C37.5023 23.7117 38.2813 26.2795 38.2813 28.9063C38.2773 32.4275 36.8768 35.8033 34.3869 38.2932C31.8971 40.783 28.5212 42.1836 25 42.1875ZM25 17.1875C22.6823 17.1875 20.4166 17.8748 18.4894 19.1625C16.5623 20.4501 15.0603 22.2804 14.1733 24.4217C13.2863 26.563 13.0543 28.9193 13.5064 31.1925C13.9586 33.4657 15.0747 35.5538 16.7136 37.1927C18.3525 38.8316 20.4406 39.9477 22.7138 40.3998C24.987 40.852 27.3433 40.6199 29.4846 39.733C31.6259 38.846 33.4561 37.344 34.7438 35.4168C36.0315 33.4897 36.7188 31.224 36.7188 28.9063C36.7154 25.7993 35.4797 22.8205 33.2828 20.6235C31.0858 18.4265 28.107 17.1908 25 17.1875Z" fill="#2D3C58"/>
</g>
<defs>
<clipPath id="clip0_495_4523">
<rect width="50" height="50" fill="white"/>
</clipPath>
</defs>
</svg>
