<svg width="60" height="60" viewBox="0 0 60 60" fill="none" xmlns="http://www.w3.org/2000/svg">
<path d="M33.6381 30.2453C34.9512 29.1825 35.7928 27.559 35.7928 25.7419C35.7928 22.5478 33.1942 19.9491 30 19.9491C26.8058 19.9491 24.2072 22.5478 24.2072 25.7419C24.2072 27.559 25.0488 29.1824 26.3619 30.2453C22.706 31.5876 19.9863 34.8999 19.5496 38.9801C19.5203 39.2532 19.6085 39.5258 19.792 39.73C19.9755 39.9342 20.2372 40.0508 20.5118 40.0508H39.4879C39.7625 40.0508 40.0241 39.9342 40.2076 39.73C40.3911 39.5258 40.4793 39.2532 40.45 38.9801C40.0136 34.8999 37.294 31.5876 33.6381 30.2453ZM26.1428 25.7419C26.1428 23.6149 27.8731 21.8846 30.0001 21.8846C32.1271 21.8846 33.8574 23.6149 33.8574 25.7419C33.8574 27.8684 32.1277 29.5985 30.0013 29.5991C30.001 29.5991 30.0005 29.5991 30.0001 29.5991C29.9998 29.5991 29.9993 29.5991 29.9989 29.5991C27.8725 29.5985 26.1428 27.8684 26.1428 25.7419ZM21.657 38.1154C22.5589 34.2974 25.9723 31.5358 29.9975 31.5346H30C30 31.5346 30.0017 31.5346 30.0025 31.5346C34.0276 31.5358 37.441 34.2974 38.3429 38.1154H21.657ZM10.1666 23.1795C10.3337 23.1795 10.5007 23.1363 10.6505 23.0498L19.8494 17.7388C20.1487 17.5659 20.3332 17.2465 20.3332 16.9007V6.27868C20.3332 5.93296 20.1487 5.61348 19.8494 5.44062L10.6505 0.129647C10.351 -0.0432157 9.98226 -0.0432157 9.68274 0.129647L0.483871 5.44062C0.184476 5.61348 0 5.93296 0 6.27868V16.9007C0 17.2465 0.184476 17.5659 0.483871 17.7388L9.68274 23.0498C9.8325 23.1362 9.99956 23.1795 10.1666 23.1795ZM6.16875 8.16409L13.4323 3.9705L14.1644 4.39316L6.90097 8.58687L6.16875 8.16409ZM5.20113 9.84034L5.93335 10.2631V12.2109L5.20113 11.7882V9.84034ZM16.1 5.51066L17.4301 6.27856L10.1666 10.4723L8.83645 9.70437L16.1 5.51066ZM11.1344 20.5356V12.1485L18.3977 7.95493V16.3421L11.1344 20.5356ZM10.1666 2.08509L11.4968 2.85312L4.23339 7.04659L2.90323 6.27868L10.1666 2.08509ZM1.93548 7.95481L3.26564 8.72272V12.3467C3.26564 12.6924 3.45012 13.0119 3.74952 13.1847L6.41722 14.7249C6.56698 14.8113 6.73403 14.8546 6.90109 14.8546C7.06815 14.8546 7.2352 14.8114 7.38496 14.7249C7.68436 14.552 7.86883 14.2326 7.86883 13.8868V11.3804L9.19899 12.1484V20.5355L1.93548 16.342V7.95481ZM59.5161 5.44062L50.3173 0.129647C50.0177 -0.0432157 49.6489 -0.0432157 49.3495 0.129647L40.1506 5.44062C39.8512 5.61348 39.6668 5.93296 39.6668 6.27868V16.9007C39.6668 17.2465 39.8512 17.5659 40.1506 17.7388L49.3495 23.0498C49.4993 23.1362 49.6663 23.1795 49.8334 23.1795C50.0004 23.1795 50.1675 23.1363 50.3173 23.0498L59.5161 17.7388C59.8155 17.5659 60 17.2465 60 16.9007V6.27868C60 5.93296 59.8155 5.61348 59.5161 5.44062ZM49.8334 10.4723L48.5032 9.70437L55.7666 5.51078L57.0968 6.27868L49.8334 10.4723ZM45.8355 8.16409L53.0989 3.9705L53.831 4.39316L46.5677 8.58687L45.8355 8.16409ZM44.8679 9.84034L45.6001 10.2631V12.2109L44.8679 11.7882V9.84034ZM49.8334 2.08509L51.1635 2.85312L43.9002 7.04671L42.57 6.27868L49.8334 2.08509ZM41.6023 7.95481L42.9324 8.72284V12.3468C42.9324 12.6925 43.1169 13.012 43.4163 13.1849L46.084 14.725C46.2337 14.8114 46.4008 14.8547 46.5679 14.8547C46.7349 14.8547 46.902 14.8115 47.0517 14.725C47.3511 14.5522 47.5356 14.2327 47.5356 13.887V11.3805L48.8658 12.1484V20.5355L41.6024 16.3419V7.95481H41.6023ZM50.8011 20.5356V12.1485L58.0645 7.95481V16.342L50.8011 20.5356ZM17.9898 41.8731C17.5268 41.6058 16.935 41.7643 16.6679 42.2273L12.8719 48.8021C12.2453 48.5688 11.568 48.4407 10.8611 48.4407C7.67419 48.4407 5.08149 51.0335 5.08149 54.2203C5.08149 57.4071 7.67419 60 10.8612 60C14.0482 60 16.6408 57.4072 16.6408 54.2204C16.6408 52.4332 15.8252 50.8332 14.5469 49.7722L18.344 43.1951C18.6114 42.7322 18.4527 42.1403 17.9898 41.8731ZM10.8612 58.0645C8.74161 58.0645 7.0171 56.34 7.0171 54.2204C7.0171 52.1008 8.74161 50.3763 10.8612 50.3763C12.9808 50.3763 14.7053 52.1008 14.7053 54.2204C14.7053 56.34 12.9808 58.0645 10.8612 58.0645ZM30.9677 48.5233V42.7112C30.9677 42.1767 30.5344 41.7434 30 41.7434C29.4656 41.7434 29.0323 42.1767 29.0323 42.7112V48.5233C26.3047 48.9853 24.2204 51.3634 24.2204 54.2203C24.2204 57.4072 26.8131 60 30 60C33.1869 60 35.7796 57.4072 35.7796 54.2204C35.7796 51.3634 33.6953 48.9853 30.9677 48.5233ZM30 58.0645C27.8804 58.0645 26.1559 56.34 26.1559 54.2204C26.1559 52.1008 27.8804 50.3763 30 50.3763C32.1196 50.3763 33.8441 52.1008 33.8441 54.2204C33.8441 56.34 32.1196 58.0645 30 58.0645ZM49.1388 48.4407C48.432 48.4407 47.7546 48.5688 47.1279 48.8021L43.332 42.2273C43.0648 41.7645 42.473 41.6059 42.01 41.8731C41.5472 42.1403 41.3886 42.7322 41.6558 43.195L45.4531 49.772C44.1748 50.8331 43.3592 52.4331 43.3592 54.2203C43.3592 57.4072 45.9519 59.9999 49.1388 59.9999C52.3257 59.9999 54.9184 57.4071 54.9184 54.2203C54.9184 51.0335 52.3258 48.4407 49.1388 48.4407ZM49.1388 58.0645C47.0192 58.0645 45.2947 56.34 45.2947 54.2204C45.2947 52.1008 47.0192 50.3763 49.1388 50.3763C51.2584 50.3763 52.9829 52.1008 52.9829 54.2204C52.9829 56.34 51.2585 58.0645 49.1388 58.0645ZM20.8574 24.6103C21.3882 24.5447 21.8707 24.9221 21.936 25.4526L22.3133 28.5198C22.3498 28.8156 22.2478 29.1116 22.0372 29.3222C21.8546 29.5047 21.608 29.6056 21.353 29.6056C21.3137 29.6056 21.2742 29.6032 21.2348 29.5984L18.1677 29.2211C17.6372 29.1559 17.26 28.6728 17.3254 28.1424C17.3907 27.6118 17.8746 27.2351 18.404 27.3001L18.6808 27.3341L15.2573 23.9105C14.8794 23.5326 14.8794 22.9199 15.2573 22.542C15.6352 22.1641 16.2479 22.1641 16.6258 22.542L20.0494 25.9656L20.0154 25.6887C19.9498 25.1584 20.3269 24.6755 20.8574 24.6103ZM37.9629 29.3222C37.7522 29.1115 37.6504 28.8156 37.6868 28.5198L38.0641 25.4526C38.1293 24.922 38.613 24.5448 39.1427 24.6103C39.6732 24.6755 40.0504 25.1584 39.985 25.6889L39.951 25.9658L43.3747 22.5422C43.7527 22.1643 44.3654 22.1643 44.7432 22.5422C45.1212 22.9201 45.1211 23.5328 44.7432 23.9107L41.3196 27.3343L41.5963 27.3003C42.126 27.2349 42.6097 27.6122 42.675 28.1426C42.7403 28.6731 42.3631 29.156 41.8327 29.2213L38.7654 29.5986C38.726 29.6035 38.6866 29.6059 38.6473 29.6059C38.3921 29.6058 38.1455 29.5049 37.9629 29.3222Z" fill="#2D3C58"/>
</svg>
