<svg width="60" height="60" viewBox="0 0 60 60" fill="none" xmlns="http://www.w3.org/2000/svg">
<path d="M55.2982 3.52991H4.7018C2.10926 3.52991 0 5.63916 0 8.23182V51.7681C0 54.3608 2.10926 56.4701 4.7018 56.4701H55.2982C57.8907 56.4701 60 54.3608 60 51.7681V16.4683V8.23182C60 5.63916 57.8907 3.52991 55.2982 3.52991ZM57.6562 51.7681C57.6562 53.0685 56.5985 54.1263 55.2982 54.1263H4.7018C3.40148 54.1263 2.34375 53.0685 2.34375 51.7681V17.6402H57.6562V51.7681ZM57.6562 15.2965H2.34375V8.23182C2.34375 6.93151 3.40148 5.87366 4.7018 5.87366H55.2982C56.5985 5.87366 57.6562 6.93151 57.6562 8.23182V15.2965Z" fill="#2D3C58"/>
<path d="M52.9423 9.41321H51.7656C51.1184 9.41321 50.5938 9.93797 50.5938 10.5851C50.5938 11.2322 51.1184 11.757 51.7656 11.757H52.9423C53.5894 11.757 54.1142 11.2322 54.1142 10.5851C54.1142 9.93797 53.5894 9.41321 52.9423 9.41321Z" fill="#2D3C58"/>
<path d="M45.8876 9.41321H44.7109C44.0638 9.41321 43.5391 9.93797 43.5391 10.5851C43.5391 11.2322 44.0638 11.757 44.7109 11.757H45.8876C46.5347 11.757 47.0595 11.2322 47.0595 10.5851C47.0595 9.93797 46.5347 9.41321 45.8876 9.41321Z" fill="#2D3C58"/>
<path d="M38.825 9.41321H37.6484C37.0013 9.41321 36.4766 9.93797 36.4766 10.5851C36.4766 11.2322 37.0013 11.757 37.6484 11.757H38.825C39.4721 11.757 39.9969 11.2322 39.9969 10.5851C39.9969 9.93797 39.4721 9.41321 38.825 9.41321Z" fill="#2D3C58"/>
<path d="M35.293 44.713H24.7031C24.0559 44.713 23.5312 45.2377 23.5312 45.8849V50.5915C23.5312 51.2386 24.0559 51.7634 24.7031 51.7634H35.293C35.9401 51.7634 36.4649 51.2386 36.4649 50.5915V45.8849C36.4649 45.2377 35.9401 44.713 35.293 44.713ZM34.1211 49.4196H25.875V47.0568H34.1211V49.4196Z" fill="#2D3C58"/>
<path d="M34.5813 32.5881L31.5238 35.6456C31.0628 35.424 30.5466 35.2997 30.0018 35.2997C28.058 35.2997 26.4766 36.881 26.4766 38.8248C26.4766 40.7686 28.058 42.35 30.0018 42.35C31.9456 42.35 33.527 40.7686 33.527 38.8248C33.527 38.2801 33.4027 37.7639 33.1811 37.3029L36.2385 34.2453C36.6961 33.7877 36.6961 33.0457 36.2385 32.588C35.7809 32.1306 35.039 32.1306 34.5813 32.5881ZM30.0018 40.0064C29.3502 40.0064 28.8203 39.4765 28.8203 38.8249C28.8203 38.1735 29.3502 37.6435 30.0018 37.6435C30.6534 37.6435 31.1833 38.1735 31.1833 38.8249C31.1833 39.4764 30.6534 40.0064 30.0018 40.0064Z" fill="#2D3C58"/>
<path d="M12.6805 45.2666C12.8038 45.2336 11.7427 45.5177 18.1045 43.8131C18.7297 43.6455 19.1007 43.003 18.9331 42.3779C17.0015 35.1458 22.4224 27.9647 29.9975 27.9647C37.577 27.9647 43.0011 35.1539 41.0618 42.3779C40.8942 43.003 41.2652 43.6455 41.8904 43.8131C47.7866 45.3929 47.337 45.2774 47.4528 45.2938C48.0315 45.3753 48.5946 45.0147 48.7489 44.4364C52.0375 32.1171 42.7768 20.0122 29.9976 20.0121C17.199 20.012 7.96169 32.133 11.246 44.4365C11.413 45.0621 12.0553 45.4336 12.6805 45.2666ZM46.7472 42.6881L43.5788 41.8391C43.8663 40.2192 43.8575 38.5772 43.573 36.9888L46.7377 36.1408C47.1569 38.2794 47.1715 40.5029 46.7472 42.6881ZM46.1313 33.877L42.9667 34.725C42.419 33.2065 41.6055 31.7799 40.5465 30.5217L42.8648 28.2034C44.3252 29.8819 45.4249 31.8144 46.1313 33.877ZM35.538 23.2632C37.6071 23.9711 39.5287 25.078 41.208 26.5453L38.8903 28.863C37.6149 27.7867 36.189 26.9785 34.6872 26.4385L35.538 23.2632ZM33.2734 22.6598L32.4225 25.8357C30.8195 25.5519 29.1758 25.5519 27.5727 25.8357L26.7218 22.6598C28.8781 22.2429 31.1128 22.242 33.2734 22.6598ZM24.457 23.2632L25.3078 26.4385C23.806 26.9785 22.3801 27.7867 21.1047 28.863L18.787 26.5453C20.4662 25.078 22.3878 23.9711 24.457 23.2632ZM17.1303 28.2034L19.4486 30.5217C18.3896 31.7799 17.5761 33.2065 17.0285 34.725L13.8637 33.877C14.5701 31.8144 15.6698 29.8819 17.1303 28.2034ZM13.2574 36.141L16.4222 36.9889C16.1375 38.5773 16.1288 40.2193 16.4162 41.8392L13.2478 42.6882C12.8236 40.5029 12.8381 38.2794 13.2574 36.141Z" fill="#2D3C58"/>
<path d="M22.3512 9.41321H7.05469C6.40758 9.41321 5.88281 9.93797 5.88281 10.5851C5.88281 11.2322 6.40758 11.757 7.05469 11.757H22.3512C22.9983 11.757 23.523 11.2322 23.523 10.5851C23.523 9.93797 22.9984 9.41321 22.3512 9.41321Z" fill="#2D3C58"/>
</svg>
