<svg width="47" height="47" viewBox="0 0 47 47" fill="none" xmlns="http://www.w3.org/2000/svg">
<path d="M23.5 0C36.4787 0 47 10.5213 47 23.5C47 36.4787 36.4787 47 23.5 47C10.5213 47 0 36.4787 0 23.5C0 10.5213 10.5213 0 23.5 0ZM23.5 2.47368C11.8875 2.47368 2.47368 11.8875 2.47368 23.5C2.47368 35.1125 11.8875 44.5263 23.5 44.5263C35.1125 44.5263 44.5263 35.1125 44.5263 23.5C44.5263 11.8875 35.1125 2.47368 23.5 2.47368ZM36.743 10.257C37.1889 10.7029 37.2693 11.5071 36.743 12.0062L27.7624 20.9867C28.1976 21.7233 28.4474 22.5825 28.4474 23.5C28.4474 26.2324 26.2324 28.4474 23.5 28.4474C20.7676 28.4474 18.5526 26.2324 18.5526 23.5C18.5526 20.7676 20.7676 18.5526 23.5 18.5526C24.4175 18.5526 25.2767 18.8024 26.0133 19.2376L34.9938 10.257C35.4769 9.77398 36.26 9.77398 36.743 10.257ZM23.5 21.0263C22.1338 21.0263 21.0263 22.1338 21.0263 23.5C21.0263 24.8662 22.1338 25.9737 23.5 25.9737C24.8662 25.9737 25.9737 24.8662 25.9737 23.5C25.9737 22.1338 24.8662 21.0263 23.5 21.0263ZM38.1166 16.7915C39.0757 18.878 39.5789 21.1547 39.5789 23.5C39.5789 24.1831 39.0252 24.7368 38.3421 24.7368C37.659 24.7368 37.1053 24.1831 37.1053 23.5C37.1053 21.5131 36.6799 19.5887 35.869 17.8246C35.5837 17.204 35.8555 16.4695 36.4762 16.1842C37.0968 15.8989 37.8313 16.1708 38.1166 16.7915ZM23.5 7.42105C25.867 7.42105 28.1639 7.93367 30.2659 8.90993C30.8854 9.19768 31.1544 9.93316 30.8666 10.5527C30.5789 11.1722 29.8434 11.4412 29.2239 11.1534C27.4467 10.328 25.5052 9.89474 23.5 9.89474C15.986 9.89474 9.89474 15.986 9.89474 23.5C9.89474 24.1831 9.34098 24.7368 8.6579 24.7368C7.97481 24.7368 7.42105 24.1831 7.42105 23.5C7.42105 14.6198 14.6198 7.42105 23.5 7.42105Z" fill="#2D3C58"/>
</svg>
