<svg width="60" height="60" viewBox="0 0 60 60" fill="none" xmlns="http://www.w3.org/2000/svg">
<path fill-rule="evenodd" clip-rule="evenodd" d="M15.5326 55.0439C11.174 55.0439 9.97895 50.58 11.8067 50.58C12.2285 50.58 12.58 50.9315 12.58 51.3532C12.58 52.478 13.9508 53.4271 15.5326 53.4271C17.1494 53.4271 18.5203 52.478 18.5203 51.3532C18.5203 49.9824 17.6064 49.6661 15.392 49.2794C13.529 48.9279 10.9983 48.471 10.9983 45.6239C10.9983 43.6204 13.0369 41.9684 15.5326 41.9684C19.8911 41.9684 21.0862 46.4323 19.2935 46.4323C18.8717 46.4323 18.5203 46.0808 18.5203 45.6239C18.5203 44.4991 17.1494 43.5501 15.5326 43.5501C13.9508 43.5501 12.58 44.4991 12.58 45.6239C12.58 46.9947 13.4939 47.3111 15.6732 47.6977C17.5361 48.0492 20.102 48.5061 20.102 51.3532C20.102 53.3919 18.0633 55.0439 15.5326 55.0439ZM51.1037 38.594H6.99125C5.23378 38.594 3.79266 40.0351 3.79266 41.7575V55.2197C3.79266 56.9772 5.23378 58.3831 6.99125 58.3831H53.0018C54.7593 58.3831 56.1652 56.9772 56.1652 55.2197V41.7575C56.1652 40.0351 54.7593 38.594 53.0018 38.594H51.1037ZM50.3304 37.0123V11.529H43.7224C41.8946 11.529 40.3832 10.0176 40.3832 8.18981V1.58172H15.8489C12.4394 1.58172 9.66261 4.39367 9.66261 7.80316V37.0123H50.3304ZM51.9122 10.8612V37.0123H53.0018C55.638 37.0123 57.7821 39.1564 57.7821 41.7575V55.2197C57.7821 57.8559 55.638 60 53.0018 60H6.99125C4.35505 60 2.21094 57.8559 2.21094 55.2197V41.7575C2.21094 39.1564 4.35505 37.0123 6.99125 37.0123H8.08088V7.80316C8.08088 3.51494 11.5607 0 15.8489 0H41.1916C41.4376 0 41.6134 0.105448 41.7891 0.246046L51.631 10.0879C51.8419 10.2988 51.9825 10.5448 51.9122 10.8612ZM42 2.74165V8.18981C42 9.13884 42.7733 9.91213 43.7224 9.91213H49.2057L42 2.74165ZM44.5659 32.478H16.5167C15.4623 32.478 15.4623 30.8612 16.5167 30.8612H44.5659C45.6204 30.8612 45.6204 32.478 44.5659 32.478ZM44.5659 26.3269H16.5167C15.4623 26.3269 15.4623 24.7452 16.5167 24.7452H44.5659C45.6204 24.7452 45.6204 26.3269 44.5659 26.3269ZM44.5659 20.2109H16.5167C15.4623 20.2109 15.4623 18.594 16.5167 18.594H44.5659C45.6204 18.594 45.6204 20.2109 44.5659 20.2109ZM34.689 14.6221C33.986 14.6221 33.6345 13.7434 34.1266 13.2513L37.3252 10.0527L34.1266 6.81898C33.3884 6.08084 34.5132 4.95606 35.2514 5.6942L39.0475 9.45518C39.3287 9.77153 39.3287 10.2988 39.0475 10.6151L35.2514 14.3761C35.1108 14.5167 34.8999 14.6221 34.689 14.6221ZM26.2883 14.6221C26.0774 14.6221 25.8665 14.5167 25.7259 14.3761L21.9649 10.6151C21.6485 10.2988 21.6485 9.77153 21.9649 9.45518L25.7259 5.6942C26.464 4.95606 27.5888 6.08084 26.8507 6.81898L23.6521 10.0527L26.8507 13.2513C27.3427 13.7434 26.9913 14.6221 26.2883 14.6221ZM29.4869 14.7627C28.9596 14.7627 28.573 14.2355 28.7136 13.7434L30.7522 6.15114C30.9983 5.13181 32.5449 5.5536 32.2637 6.53779L30.2601 14.1652C30.1547 14.5167 29.8384 14.7627 29.4869 14.7627ZM29.7329 55.0439C21.6134 55.0439 21.6134 41.9684 29.7329 41.9684C35.3568 41.9684 37.2549 48.3656 34.7944 52.3023C35.638 53.181 36.8682 54.0246 36.1301 54.7627C35.8137 55.0791 35.2865 55.0791 34.9702 54.7627L33.7751 53.5325C32.7558 54.4464 31.4201 55.0439 29.7329 55.0439ZM29.7329 43.5501C23.7224 43.5501 23.6872 53.4271 29.7329 53.4271C30.9631 53.4271 31.9122 53.0404 32.6152 52.4077C32.0528 51.8453 31.0686 51.1072 31.7716 50.4042C32.4394 49.7364 33.1424 50.6503 33.6345 51.1424C35.1459 48.225 33.8805 43.5501 29.7329 43.5501ZM48.1863 55.0088H41.051C40.5941 55.0088 40.2426 54.6573 40.2426 54.2355V42.7768C40.2426 41.7223 41.8594 41.7223 41.8594 42.7768V53.4271H48.1863C49.2408 53.4271 49.2408 55.0088 48.1863 55.0088Z" fill="#2D3C58"/>
</svg>
