<svg width="50" height="60" viewBox="0 0 50 60" fill="none" xmlns="http://www.w3.org/2000/svg">
<path d="M25.0002 60C24.6337 60.0013 24.27 59.9361 23.9264 59.8075C17.9715 57.5892 12.9961 53.3438 9.14166 47.1895C8.99655 46.9575 8.94865 46.6767 9.00851 46.4091C9.06836 46.1414 9.23106 45.9087 9.46081 45.7621C9.69057 45.6156 9.96855 45.5672 10.2336 45.6277C10.4987 45.6881 10.7291 45.8524 10.8742 46.0844C14.4818 51.8446 19.1119 55.8105 24.6375 57.8675C24.873 57.9524 25.1304 57.9524 25.3659 57.8675C45.5502 50.3463 47.7582 20.2141 47.9529 11.1585C47.9607 10.8816 47.8619 10.6123 47.6774 10.4072C47.4929 10.2022 47.2369 10.0773 46.9631 10.0586C37.3904 9.40679 28.8208 4.36786 25.5811 2.23536C25.4077 2.12259 25.2059 2.06262 24.9996 2.06262C24.7934 2.06262 24.5916 2.12259 24.4182 2.23536C21.1795 4.36682 12.6119 9.40369 3.03719 10.0566C2.76758 10.074 2.51487 10.1953 2.33112 10.3953C2.14737 10.5953 2.04657 10.8588 2.04949 11.1316C2.16424 16.4903 3.02079 30.1409 8.46748 41.6549C8.5846 41.9026 8.5995 42.1871 8.5089 42.4459C8.4183 42.7046 8.22963 42.9164 7.98439 43.0347C7.73915 43.153 7.45742 43.168 7.2012 43.0765C6.94497 42.985 6.73523 42.7945 6.61811 42.5468C0.998266 30.6697 0.1161 16.6693 0.000321687 11.2009C-0.0111133 10.3938 0.282683 9.6126 0.82183 9.01661C1.36098 8.42062 2.10489 8.05469 2.90194 7.99341C11.9951 7.3726 20.1979 2.54784 23.3024 0.501226C23.8101 0.17391 24.3999 0 25.0022 0C25.6045 0 26.1943 0.17391 26.702 0.501226C29.8055 2.54577 38.0124 7.37259 47.1004 7.99134C47.8869 8.04829 48.6229 8.40357 49.1608 8.98585C49.6986 9.56813 49.9984 10.3343 50 11.1306C49.7951 20.5876 47.4724 51.8332 26.0708 59.8075C25.728 59.9352 25.3655 60.0003 25.0002 60Z" fill="#2D3C58"/>
<path d="M25.4176 53.3334L24.9845 53.1259C10.4825 46.3554 7.39199 23.9985 6.73201 14.6994L6.66602 13.766L7.58276 13.6032C13.6942 12.4189 19.5544 10.1753 24.902 6.97265L25.4176 6.66669L25.9383 6.97265C31.2826 10.1774 37.1401 12.4234 43.2493 13.6104L44.166 13.7733L44.099 14.7067C43.4431 24.0068 40.3516 46.3658 25.8517 53.1332L25.4176 53.3334ZM8.8625 15.4773C9.61837 24.7816 12.7213 44.7001 25.4176 51.0392C38.1149 44.7032 41.2168 24.7826 41.9726 15.4804C36.1509 14.2394 30.5626 12.0744 25.4176 9.06666C20.2723 12.0741 14.6841 14.2391 8.8625 15.4804V15.4773Z" fill="#2D3C58"/>
<path d="M28 38.8889V41.1111H22V38.8889H28ZM29 36.6667H21C20.7348 36.6667 20.4804 36.7837 20.2929 36.9921C20.1054 37.2005 20 37.4831 20 37.7778V42.2222C20 42.5169 20.1054 42.7995 20.2929 43.0079C20.4804 43.2163 20.7348 43.3334 21 43.3334H29C29.2652 43.3334 29.5196 43.2163 29.7071 43.0079C29.8946 42.7995 30 42.5169 30 42.2222V37.7778C30 37.4831 29.8946 37.2005 29.7071 36.9921C29.5196 36.7837 29.2652 36.6667 29 36.6667Z" fill="#2D3C58"/>
<path d="M17.9755 29.1666H15.1184C14.8658 29.1666 14.6236 29.0525 14.445 28.8493C14.2664 28.6462 14.166 28.3706 14.166 28.0833C14.166 27.796 14.2664 27.5204 14.445 27.3173C14.6236 27.1141 14.8658 27 15.1184 27H17.9755C18.2281 27 18.4704 26.8858 18.649 26.6827C18.8276 26.4795 18.9279 26.204 18.9279 25.9166C18.9279 25.6293 18.8276 25.3538 18.649 25.1506C18.4704 24.9474 18.2281 24.8333 17.9755 24.8333H17.0232C16.2654 24.8333 15.5387 24.4909 15.0029 23.8814C14.467 23.2719 14.166 22.4453 14.166 21.5833C14.166 20.7214 14.467 19.8947 15.0029 19.2852C15.5387 18.6757 16.2654 18.3333 17.0232 18.3333H19.8803C20.1329 18.3333 20.3751 18.4474 20.5537 18.6506C20.7323 18.8538 20.8327 19.1293 20.8327 19.4166C20.8327 19.704 20.7323 19.9795 20.5537 20.1827C20.3751 20.3858 20.1329 20.5 19.8803 20.5H17.0232C16.7706 20.5 16.5283 20.6141 16.3497 20.8173C16.1711 21.0204 16.0708 21.296 16.0708 21.5833C16.0708 21.8706 16.1711 22.1462 16.3497 22.3493C16.5283 22.5525 16.7706 22.6666 17.0232 22.6666H17.9755C18.7333 22.6666 19.46 23.0091 19.9958 23.6185C20.5317 24.228 20.8327 25.0547 20.8327 25.9166C20.8327 26.7786 20.5317 27.6052 19.9958 28.2147C19.46 28.8242 18.7333 29.1666 17.9755 29.1666Z" fill="#2D3C58"/>
<path d="M25.9517 29.1666H22.7374C22.4533 29.1666 22.1808 29.0525 21.9798 28.8493C21.7789 28.6462 21.666 28.3706 21.666 28.0833C21.666 27.796 21.7789 27.5204 21.9798 27.3173C22.1808 27.1141 22.4533 27 22.7374 27H25.9517C26.2359 27 26.5084 26.8858 26.7093 26.6827C26.9103 26.4795 27.0232 26.204 27.0232 25.9166C27.0232 25.6293 26.9103 25.3538 26.7093 25.1506C26.5084 24.9474 26.2359 24.8333 25.9517 24.8333H24.8803C24.0278 24.8333 23.2103 24.4909 22.6075 23.8814C22.0047 23.2719 21.666 22.4453 21.666 21.5833C21.666 20.7214 22.0047 19.8947 22.6075 19.2852C23.2103 18.6757 24.0278 18.3333 24.8803 18.3333H28.0946C28.3787 18.3333 28.6513 18.4474 28.8522 18.6506C29.0531 18.8538 29.166 19.1293 29.166 19.4166C29.166 19.704 29.0531 19.9795 28.8522 20.1827C28.6513 20.3858 28.3787 20.5 28.0946 20.5H24.8803C24.5961 20.5 24.3236 20.6141 24.1227 20.8173C23.9218 21.0204 23.8089 21.296 23.8089 21.5833C23.8089 21.8706 23.9218 22.1462 24.1227 22.3493C24.3236 22.5525 24.5961 22.6666 24.8803 22.6666H25.9517C26.8042 22.6666 27.6218 23.0091 28.2246 23.6185C28.8274 24.228 29.166 25.0547 29.166 25.9166C29.166 26.7786 28.8274 27.6052 28.2246 28.2147C27.6218 28.8242 26.8042 29.1666 25.9517 29.1666Z" fill="#2D3C58"/>
<path d="M35.5556 29.1666H32.7778C32.0411 29.1666 31.3345 28.8813 30.8136 28.3734C30.2927 27.8655 30 27.1766 30 26.4583V19.4166C30 19.1293 30.1171 18.8538 30.3254 18.6506C30.5338 18.4474 30.8164 18.3333 31.1111 18.3333C31.4058 18.3333 31.6884 18.4474 31.8968 18.6506C32.1052 18.8538 32.2222 19.1293 32.2222 19.4166V26.4583C32.2222 26.602 32.2808 26.7397 32.3849 26.8413C32.4891 26.9429 32.6304 27 32.7778 27H35.5556C35.8502 27 36.1329 27.1141 36.3412 27.3173C36.5496 27.5204 36.6667 27.796 36.6667 28.0833C36.6667 28.3706 36.5496 28.6462 36.3412 28.8493C36.1329 29.0525 35.8502 29.1666 35.5556 29.1666Z" fill="#2D3C58"/>
<path d="M22.9358 36.6667C22.9767 36.1346 23.2063 35.6338 23.584 35.2527C23.9618 34.8716 24.4634 34.6345 25.0006 34.5833C25.5379 34.6345 26.0395 34.8716 26.4173 35.2527C26.795 35.6338 27.0246 36.1346 27.0655 36.6667H29.1673C29.117 35.5856 28.6632 34.5613 27.8937 33.7918C27.1241 33.0222 26.0934 32.562 25.0006 32.5C23.9079 32.562 22.8772 33.0222 22.1076 33.7918C21.3381 34.5613 20.8843 35.5856 20.834 36.6667H22.9358Z" fill="#2D3C58"/>
</svg>
