<svg width="112" height="111" viewBox="0 0 112 111" fill="none" xmlns="http://www.w3.org/2000/svg">
<path d="M0.812816 110.982C0.557901 110.982 0.345456 110.769 0.345456 110.514C0.345456 110.259 0.557901 110.047 0.812816 110.047L110.108 109.834V0.935301H1.25891V40.4518C1.25891 40.7068 1.04647 40.9194 0.791552 40.9194C0.536637 40.9194 0.324219 40.7068 0.324219 40.4518V0.46765C0.324219 0.212568 0.536637 0 0.791552 0H110.575C110.83 0 111.042 0.212568 111.042 0.46765V110.302C111.042 110.557 110.83 110.769 110.575 110.769L0.812816 110.982Z" fill="black"/>
<path d="M104.392 103.117H5.71875V79.3092C5.71875 65.3222 17.0412 53.9923 31.019 53.9923H79.0917C93.0696 53.9923 104.392 65.3222 104.392 79.3092V103.117Z" fill="#8C7BFF"/>
<path d="M53.1736 22.6385L78.6864 35.0525C91.1135 41.1107 86.7586 59.6041 72.9083 59.6041H39.2383V31.864L53.1736 22.6385Z" fill="black"/>
<path d="M58.3558 31.7365H47.7344V59.6042H58.3558V31.7365Z" fill="#FDA4FF"/>
<path d="M49.0522 41.7909C54.2026 41.7909 58.3778 37.2703 58.3778 31.6939C58.3778 26.1175 54.2026 21.5969 49.0522 21.5969C43.9018 21.5969 39.7266 26.1175 39.7266 31.6939C39.7266 37.2703 43.9018 41.7909 49.0522 41.7909Z" fill="#FDA4FF"/>
<path d="M51.069 37.4333C50.4105 38.0285 49.5395 38.4536 48.5624 38.5386C46.3956 38.7512 44.4412 37.3695 43.9102 35.3501L51.069 37.4333Z" fill="white"/>
<path d="M55.2968 23.8927C59.098 23.8927 62.1794 20.8472 62.1794 17.0905C62.1794 13.3337 59.098 10.2883 55.2968 10.2883C51.4956 10.2883 48.4141 13.3337 48.4141 17.0905C48.4141 20.8472 51.4956 23.8927 55.2968 23.8927Z" fill="black"/>
<path d="M48.6911 28.144L39.769 32.4804C39.7478 32.2253 39.7266 31.9703 39.7266 31.6939C39.7266 26.1246 43.8902 21.5969 49.0522 21.5969C54.193 21.5969 58.6965 26.3372 58.6965 31.9065C58.6965 32.2891 58.6752 32.6505 58.6327 33.0331L48.6911 28.144Z" fill="black"/>
<path d="M49.0508 42.2586C43.6551 42.2586 39.2578 37.5183 39.2578 31.6939C39.2578 25.8695 43.6551 21.1293 49.0508 21.1293C54.0854 21.1293 58.2702 25.2106 58.78 30.6098C58.8013 30.8649 58.6101 31.0987 58.3552 31.12C58.1002 31.1412 57.8666 30.9499 57.8454 30.6948C57.378 25.7633 53.5968 22.0646 49.0508 22.0646C44.1649 22.0646 40.1925 26.3797 40.1925 31.6939C40.1925 37.0081 44.1649 41.3233 49.0508 41.3233C49.943 41.3233 50.8352 41.1745 51.6636 40.8981C51.9186 40.8131 52.1735 40.9406 52.2585 41.1957C52.3434 41.4508 52.216 41.7059 51.9611 41.7909C51.0264 42.0885 50.0492 42.2586 49.0508 42.2586Z" fill="black"/>
</svg>
