<svg width="47" height="47" viewBox="0 0 47 47" fill="none" xmlns="http://www.w3.org/2000/svg">
<path d="M8.84236 13.0728C7.69525 14.6246 6.82429 16.3464 6.25073 18.1319L1.13119 17.7281L0.472656 25.9545L5.5922 26.3583C5.86836 28.2289 6.46316 30.057 7.33412 31.7788L3.42542 35.1161L8.77863 41.3869L12.6873 38.0496C14.2593 39.1975 15.9587 40.069 17.7644 40.6429L17.3608 45.7658L25.5818 46.4248L25.9854 41.3019C27.8548 41.0256 29.6816 40.4304 31.4023 39.5588L34.7375 43.4701L40.9404 38.3897L37.669 34.2021C38.8161 32.6504 39.6871 30.9286 40.2606 29.143L45.3802 29.5469L46.0387 21.3205L40.9191 20.9166C40.643 19.046 40.0482 17.2179 39.1772 15.4961L43.0859 12.1588L37.7327 5.90927L33.824 9.24659C32.252 8.09872 30.5526 7.22719 28.747 6.65326L29.1506 1.53036L20.9296 0.871399L20.526 5.99429C18.6566 6.27063 16.8297 6.86583 15.109 7.73736L11.7739 3.8261L5.50723 9.16156L8.84236 13.0728ZM16.511 15.7299C20.8871 12.01 27.4511 12.5414 31.1686 16.899C34.8862 21.2567 34.3551 27.8251 30.0003 31.5663C25.6243 35.2862 19.0602 34.7548 15.3427 30.3971C11.6252 26.0182 12.135 19.4499 16.511 15.7299Z" fill="white"/>
<path d="M25.5606 46.9137C25.5394 46.9137 25.5394 46.9137 25.5181 46.9137L17.2971 46.2547C17.1697 46.2547 17.0635 46.191 16.9785 46.0847C16.8935 45.9997 16.851 45.8721 16.8723 45.7446L17.2546 40.9831C15.6402 40.4304 14.1107 39.6439 12.7087 38.6661L9.07612 41.7696C8.88494 41.9396 8.58754 41.9184 8.4176 41.727L3.06438 35.4563C2.97941 35.3713 2.93693 35.2437 2.95817 35.1162C2.95817 34.9886 3.02189 34.8823 3.12811 34.7973L6.76065 31.6938C6.01715 30.1633 5.48607 28.5265 5.18867 26.826L0.430271 26.4434C0.302814 26.4434 0.1966 26.3796 0.111628 26.2733C0.0266563 26.1883 -0.0158295 26.0608 0.00541341 25.9332L0.663938 17.7068C0.685181 17.4517 0.918858 17.2604 1.17377 17.2817L5.93218 17.6643C6.48449 16.0488 7.27047 14.5183 8.24764 13.1153L5.14619 9.48043C5.06121 9.3954 5.01873 9.26786 5.03997 9.14032C5.03997 9.01278 5.10371 8.90649 5.20992 8.82147L11.4766 3.486C11.6678 3.31595 11.9652 3.33721 12.1351 3.52852L15.2366 7.16343C16.7661 6.41945 18.4018 5.88803 20.1012 5.59043L20.4836 0.8289C20.4836 0.701359 20.5473 0.595074 20.6535 0.510047C20.7385 0.42502 20.8659 0.382506 20.9934 0.403763L29.2144 1.06272C29.4693 1.08398 29.6605 1.31781 29.6393 1.57289L29.2569 6.33442C30.8713 6.8871 32.4008 7.6736 33.8029 8.65141L37.4354 5.54792C37.6266 5.37786 37.924 5.39912 38.0939 5.59043L43.4471 11.8612C43.5321 11.9462 43.5746 12.0738 43.5534 12.2013C43.5534 12.3288 43.4896 12.4351 43.3834 12.5202L39.7509 15.6237C40.4944 17.1541 41.0255 18.7909 41.3229 20.4915L46.0813 20.8741C46.2087 20.8741 46.3149 20.9379 46.3999 21.0441C46.4849 21.1292 46.5274 21.2567 46.5061 21.3843L45.8476 29.6106C45.8263 29.8657 45.6139 30.057 45.3378 30.0358L40.5794 29.6532C40.027 31.2899 39.2411 32.8204 38.2426 34.2234L41.2804 38.1346C41.4291 38.326 41.4078 38.6235 41.2166 38.7936L35.0137 43.874C34.8225 44.044 34.5251 44.0015 34.3552 43.8102L31.2537 40.1753C29.7242 40.9193 28.0885 41.4507 26.3891 41.7483L26.0067 46.5098C26.0067 46.7224 25.7943 46.9137 25.5606 46.9137ZM17.8495 45.3407L25.1357 45.9146L25.5181 41.2594C25.5394 41.0468 25.7093 40.8768 25.9218 40.8343C27.7699 40.5579 29.533 39.984 31.19 39.1337C31.3812 39.0274 31.6149 39.0912 31.7636 39.24L34.8013 42.8111L40.3032 38.3047L37.3292 34.4785C37.2017 34.3084 37.2017 34.0746 37.3292 33.9045C38.4338 32.3953 39.2835 30.7373 39.8571 28.9729C39.9208 28.7604 40.1333 28.6328 40.3457 28.6541L44.9979 29.0367L45.5714 21.7456L40.9192 21.363C40.7068 21.3417 40.5369 21.1717 40.4944 20.9591C40.2182 19.1098 39.6447 17.3455 38.7949 15.6874C38.6887 15.4961 38.7525 15.2623 38.9012 15.1135L42.4487 12.095L37.7116 6.52573L34.164 9.5442C33.994 9.693 33.7604 9.693 33.5904 9.56546C32.0822 8.4601 30.4253 7.60983 28.6621 7.03589C28.4497 6.97212 28.3222 6.75956 28.3434 6.54699L28.7258 1.89174L21.4395 1.31781L21.0571 5.97305C21.0359 6.18562 20.8659 6.35568 20.6535 6.39819C18.8054 6.67453 17.0422 7.24846 15.3853 8.09874C15.1941 8.20502 14.9604 8.14125 14.8117 7.99245L11.774 4.44256L6.20833 9.18283L9.24608 12.7327C9.39478 12.9028 9.39477 13.1366 9.26731 13.3067C8.16268 14.8159 7.31296 16.4739 6.7394 18.2382C6.67567 18.4508 6.46325 18.5784 6.25082 18.5571L1.59863 18.1745L1.02507 25.4656L5.67726 25.8482C5.88969 25.8694 6.05963 26.0395 6.10212 26.2521C6.37827 28.1014 6.95183 29.8657 7.80155 31.5238C7.90776 31.7151 7.84403 31.9489 7.69533 32.0977L4.14778 35.1162L8.88493 40.6855L12.4325 37.667C12.6025 37.5182 12.8361 37.5182 13.0061 37.6457C14.5143 38.7511 16.1713 39.6014 17.9344 40.1753C18.1469 40.2391 18.2743 40.4516 18.2531 40.6642L17.8495 45.3407ZM23.2664 34.4997C20.1862 34.4997 17.1272 33.2031 14.9817 30.6735C13.091 28.4628 12.1988 25.6569 12.4325 22.7659C12.6662 19.875 14.0045 17.2392 16.2137 15.3686C20.781 11.4786 27.6424 12.0312 31.5299 16.6015C33.4205 18.8122 34.3127 21.6181 34.079 24.509C33.8454 27.3999 32.507 30.0358 30.2978 31.9064C28.2585 33.6494 25.7518 34.4997 23.2664 34.4997ZM16.8085 16.0913C14.7905 17.8131 13.5584 20.2151 13.3459 22.851C13.1335 25.4868 13.962 28.0589 15.6827 30.0783C19.2302 34.2446 25.5181 34.7548 29.6817 31.2049C31.6998 29.4831 32.9319 27.0811 33.1443 24.4452C33.3568 21.8094 32.5283 19.2373 30.8076 17.2179C27.2601 13.0516 20.9722 12.5414 16.8085 16.0913Z" fill="black"/>
</svg>
