<svg width="136" height="85" viewBox="0 0 136 85" fill="none" xmlns="http://www.w3.org/2000/svg">
<path d="M99.4182 0.191315H0.46875V12.6903H99.4182V0.191315Z" fill="#FDA4FF"/>
<path d="M99.4168 55.6291H0.467343C0.212428 55.6291 0 55.4166 0 55.1615V0.46765C0 0.212568 0.212428 0 0.467343 0H99.4168C99.6717 0 99.8841 0.212568 99.8841 0.46765V55.1402C99.8841 55.4166 99.6717 55.6291 99.4168 55.6291ZM0.934688 54.6938H98.9494V0.935299H0.934688V54.6938Z" fill="black"/>
<path d="M86.5027 10.2245C86.3753 10.2245 86.2266 10.1608 86.1416 10.0545C85.9717 9.86317 86.0142 9.56558 86.2054 9.39552L92.8119 4.01754C93.0031 3.84749 93.3005 3.89 93.4704 4.08131C93.6404 4.27263 93.5979 4.57022 93.4067 4.74028L86.8001 10.1183C86.7152 10.182 86.609 10.2245 86.5027 10.2245Z" fill="white"/>
<path d="M93.1093 10.2245C93.0031 10.2245 92.8969 10.182 92.8119 10.1183L86.2054 4.74028C86.0142 4.57022 85.9717 4.27263 86.1416 4.08131C86.3116 3.89 86.609 3.84749 86.8001 4.01754L93.4067 9.39552C93.5979 9.56558 93.6404 9.86317 93.4704 10.0545C93.3855 10.1608 93.258 10.2245 93.1093 10.2245Z" fill="white"/>
<path d="M117.114 14.7097H18.1641V27.2087H117.114V14.7097Z" fill="#FDA4FF"/>
<path d="M117.389 70.105H18.44C18.1851 70.105 17.9727 69.8925 17.9727 69.6374V14.9648C17.9727 14.7097 18.1851 14.4972 18.44 14.4972H117.389C117.644 14.4972 117.857 14.7097 117.857 14.9648V69.6374C117.857 69.8925 117.644 70.105 117.389 70.105ZM18.9073 69.1697H116.922V15.4325H18.9073V69.1697Z" fill="black"/>
<path d="M104.475 24.7004C104.348 24.7004 104.199 24.6367 104.114 24.5304C103.944 24.3391 103.987 24.0415 104.178 23.8714L110.785 18.4934C110.976 18.3234 111.273 18.3659 111.443 18.5572C111.613 18.7485 111.571 19.0461 111.379 19.2162L104.773 24.5942C104.688 24.6792 104.582 24.7004 104.475 24.7004Z" fill="white"/>
<path d="M111.082 24.7004C110.976 24.7004 110.87 24.6579 110.785 24.5942L104.178 19.2162C103.987 19.0461 103.944 18.7485 104.114 18.5572C104.284 18.3659 104.582 18.3234 104.773 18.4934L111.379 23.8714C111.571 24.0415 111.613 24.3391 111.443 24.5304C111.358 24.6367 111.231 24.7004 111.082 24.7004Z" fill="white"/>
<path d="M135.36 29.3557H36.4102V41.8547H135.36V29.3557Z" fill="#FDA4FF"/>
<path d="M135.358 84.4959H36.4087C36.1538 84.4959 35.9414 84.2833 35.9414 84.0283V29.3557C35.9414 29.1006 36.1538 28.888 36.4087 28.888H135.358C135.613 28.888 135.826 29.1006 135.826 29.3557V84.0283C135.826 84.2833 135.613 84.4959 135.358 84.4959ZM36.8761 83.5606H134.891V29.8233H36.8761V83.5606Z" fill="black"/>
<path d="M122.444 39.0913C122.317 39.0913 122.168 39.0275 122.083 38.9213C121.913 38.7299 121.956 38.4324 122.147 38.2623L128.753 32.8843C128.944 32.7143 129.242 32.7568 129.412 32.9481C129.582 33.1394 129.539 33.437 129.348 33.607L122.742 38.985C122.657 39.0488 122.55 39.0913 122.444 39.0913Z" fill="white"/>
<path d="M129.051 39.0913C128.944 39.0913 128.838 39.0488 128.753 38.985L122.147 33.607C121.956 33.437 121.913 33.1394 122.083 32.9481C122.253 32.7568 122.55 32.7143 122.742 32.8843L129.348 38.2623C129.539 38.4324 129.582 38.7299 129.412 38.9213C129.327 39.0275 129.199 39.0913 129.051 39.0913Z" fill="white"/>
</svg>
