<svg width="61" height="62" viewBox="0 0 61 62" fill="none" xmlns="http://www.w3.org/2000/svg">
<path d="M9.30356 40.5181C10.3232 42.8351 11.6828 44.9183 13.3397 46.7463L9.53722 52.2731L18.3955 58.3738L22.198 52.847C24.4922 53.7398 26.9352 54.2713 29.4631 54.3988L30.6739 60.9884L41.2529 59.0328L40.0421 52.4432C42.3575 51.4228 44.4606 50.0624 46.2662 48.4044L51.7894 52.2093L57.8861 43.3452L52.3629 39.5403C53.2551 37.2445 53.7862 34.8 53.9137 32.2704L60.499 31.0588L58.8208 20.728L51.9806 21.6845C50.9609 19.3675 49.6013 17.2844 47.9444 15.4563L51.7469 9.9295L42.8886 3.82879L39.0861 9.35557C36.7919 8.46278 34.3489 7.93136 31.821 7.80382L30.6102 1.2142L20.0312 3.16983L21.2421 9.75945C18.9266 10.7798 16.8235 12.1402 15.0179 13.7982L9.49475 9.99327L3.39804 18.8574L8.9212 22.6623C8.029 24.9581 7.49791 27.4026 7.37046 29.9322L0.785156 31.1438L2.73949 41.7297L9.30356 40.5181ZM17.2909 33.5884C15.9313 26.2122 20.8172 19.155 28.1673 17.7945C35.5386 16.4341 42.5912 21.3232 43.9507 28.678C45.3103 36.0542 40.4244 43.1114 33.0744 44.4719C25.7243 45.8323 18.6504 40.9432 17.2909 33.5884Z" fill="white"/>
<path d="M30.6545 61.4773C30.4421 61.4773 30.2297 61.3285 30.1872 61.0947L29.0401 54.8664C26.7459 54.7177 24.5153 54.2287 22.3486 53.4422L18.7585 58.6714C18.6098 58.884 18.3124 58.9478 18.1 58.799L9.24171 52.6983C9.1355 52.6345 9.07176 52.5282 9.05052 52.4007C9.02928 52.2731 9.05053 52.1456 9.1355 52.0606L12.7255 46.8314C11.2173 45.1096 9.96395 43.1752 9.00802 41.092L2.78386 42.2399C2.52895 42.2824 2.29528 42.1124 2.23155 41.8573L0.277192 31.2714C0.25595 31.1438 0.277198 31.0163 0.362169 30.9313C0.425898 30.825 0.532118 30.7612 0.659575 30.7399L6.88373 29.5921C7.03243 27.2963 7.52103 25.0644 8.30702 22.8962L3.08127 19.3038C2.97506 19.24 2.91132 19.1337 2.89008 19.0062C2.86884 18.8786 2.89008 18.7511 2.97506 18.6661L9.07176 9.80197C9.22046 9.5894 9.51785 9.52563 9.73028 9.67443L14.956 13.2668C16.6767 11.7576 18.6098 10.5034 20.6916 9.54688L19.5445 3.31863C19.5233 3.19109 19.5445 3.06355 19.6295 2.97853C19.6932 2.87224 19.7994 2.80847 19.9269 2.78721L30.5059 0.831584C30.7608 0.78907 30.9944 0.959126 31.0582 1.21421L32.2053 7.44246C34.4995 7.59126 36.73 8.08016 38.8968 8.86667L42.4869 3.63749C42.6356 3.42492 42.9329 3.36115 43.1454 3.50995L52.0037 9.61066C52.1099 9.67443 52.1736 9.78071 52.1948 9.90825C52.2161 10.0358 52.1948 10.1633 52.1099 10.2484L48.5198 15.4775C50.0493 17.2206 51.2814 19.1337 52.2373 21.2381L58.7377 20.3241C58.9926 20.2816 59.2263 20.4516 59.2687 20.7067L60.9469 31.0375C60.9894 31.2926 60.8195 31.5264 60.5646 31.569L54.3404 32.7168C54.1917 35.0126 53.7031 37.2445 52.9171 39.4127L58.1429 43.0051C58.2491 43.0689 58.3128 43.1752 58.334 43.3027C58.3553 43.4303 58.334 43.5578 58.2491 43.6428L52.1524 52.5069C52.0037 52.7195 51.7062 52.7833 51.4938 52.6345L46.2681 49.0421C44.5474 50.5513 42.6143 51.8055 40.5325 52.762L41.6796 58.9903C41.7009 59.1178 41.6796 59.2454 41.5946 59.3304C41.5309 59.4367 41.4247 59.5004 41.2972 59.5217L30.7183 61.4773C30.7183 61.4773 30.6758 61.4773 30.6545 61.4773ZM22.1786 52.4007C22.2423 52.4007 22.2848 52.4007 22.3486 52.4432C24.6216 53.336 27.022 53.8461 29.4649 53.9737C29.6774 53.9949 29.8686 54.1437 29.911 54.3563L31.0369 60.4995L40.6812 58.7139L39.5553 52.5707C39.5128 52.3581 39.6191 52.1456 39.8315 52.0606C42.062 51.0827 44.1225 49.7436 45.9282 48.1068C46.0981 47.958 46.3318 47.9367 46.5017 48.0643L51.6425 51.6142L57.2082 43.5366L52.0674 39.9867C51.8975 39.8591 51.8125 39.6253 51.8974 39.434C52.7896 37.1595 53.2995 34.7575 53.4269 32.3129C53.4482 32.1004 53.5969 31.9091 53.8093 31.8666L59.9485 30.7399L58.419 21.3232L52.0249 22.216C51.8125 22.2372 51.6213 22.1309 51.5363 21.9396C50.5592 19.7077 49.2209 17.6457 47.5851 15.8389C47.4364 15.6689 47.4152 15.435 47.5426 15.265L51.0902 10.1208L43.0179 4.55153L39.4703 9.69568C39.3429 9.86574 39.1092 9.95076 38.918 9.86574C36.645 8.97295 34.2446 8.46279 31.8017 8.33525C31.5892 8.31399 31.3981 8.16519 31.3556 7.95262L30.2297 1.8094L20.5854 3.59497L21.7113 9.7382C21.7538 9.95077 21.6475 10.1633 21.4351 10.2484C19.2046 11.2262 17.1441 12.5654 15.3384 14.2021C15.1685 14.3509 14.9348 14.3722 14.7649 14.2446L9.62407 10.6948L4.05844 18.7724L9.19921 22.3222C9.36915 22.4498 9.45414 22.6836 9.36916 22.8749C8.47696 25.1494 7.96712 27.5514 7.83966 29.996C7.81842 30.2085 7.66973 30.3998 7.4573 30.4424L1.3181 31.569L3.10251 41.2196L9.24171 40.0929C9.45414 40.0504 9.66655 40.1567 9.75152 40.3693C10.7287 42.6013 12.067 44.6632 13.7027 46.47C13.8514 46.6401 13.8727 46.8739 13.7452 47.0439L10.1976 52.1881L18.2699 57.7574L21.8175 52.6132C21.8812 52.4644 22.0299 52.4007 22.1786 52.4007ZM30.6333 45.1733C24.0055 45.1733 18.0787 40.4331 16.8467 33.6734C16.1669 29.996 16.9741 26.2548 19.0984 23.1725C21.2227 20.0903 24.4304 18.0071 28.1054 17.3269C35.7104 15.9239 43.0392 20.9831 44.4412 28.593C45.121 32.2704 44.3137 36.0116 42.1894 39.0939C40.0652 42.1761 36.8575 44.2593 33.1825 44.9395C32.3115 45.0883 31.4618 45.1733 30.6333 45.1733ZM17.7601 33.5033C19.0559 40.6031 25.8961 45.3221 33.0125 44.0042C36.4538 43.3665 39.4279 41.4321 41.4247 38.5625C43.4003 35.6928 44.1438 32.2067 43.5277 28.7631C42.2319 21.6633 35.3917 16.9443 28.2753 18.2622C24.834 18.8999 21.86 20.8343 19.8632 23.7039C17.8663 26.5736 17.1228 30.0597 17.7601 33.5033Z" fill="black"/>
</svg>
