<svg width="390" height="330" viewBox="0 0 390 330" fill="none" xmlns="http://www.w3.org/2000/svg">
<path d="M308.913 92.5187L340.098 119.111C346.917 124.935 350.847 133.438 350.847 142.408V207.837H301.351V189.79C301.351 177.631 306.194 165.961 314.798 157.352L320.682 151.464V129.973L295.212 108.738C290.793 105.06 290.305 98.4281 294.15 94.1342L294.744 93.4752C298.419 89.3727 304.707 88.9475 308.913 92.5187Z" fill="#955B50"/>
<path d="M350.867 208.305H301.371C301.117 208.305 300.904 208.092 300.904 207.837V189.79C300.904 177.418 305.726 165.77 314.478 157.033L320.214 151.294V130.186L294.914 109.099C292.683 107.228 291.324 104.614 291.111 101.702C290.899 98.7894 291.855 96.0048 293.788 93.8366L294.383 93.1776C298.27 88.8413 304.792 88.3949 309.21 92.1786L340.395 118.771C347.341 124.68 351.314 133.311 351.314 142.408V207.837C351.335 208.092 351.122 208.305 350.867 208.305ZM301.839 207.369H350.4V142.408C350.4 133.566 346.534 125.212 339.821 119.472L308.637 92.88C304.6 89.4364 298.652 89.8403 295.105 93.7941L294.51 94.4531C292.747 96.4299 291.876 98.9808 292.067 101.638C292.258 104.295 293.49 106.676 295.53 108.376L321 129.612C321.106 129.697 321.17 129.824 321.17 129.973V151.464C321.17 151.591 321.127 151.698 321.042 151.804L315.158 157.692C306.576 166.259 301.86 177.674 301.86 189.79V207.369H301.839Z" fill="black"/>
<path d="M301.203 102.254L358.58 151.485V242.146H332.069C323.529 242.146 315.436 238.426 309.87 231.942L308.235 230.029C303.689 224.736 301.203 217.976 301.203 211.004V102.254Z" fill="#955B50"/>
<path d="M327.523 164.112C327.523 174.953 318.601 183.732 307.618 183.732H301.16V14.5061L327.523 36.8045V164.112Z" fill="black"/>
<path d="M70.4614 0.476601H82.5911V178.311H70.4614C64.216 178.311 59.1602 173.146 59.1602 166.79V12.0191C59.1602 5.64201 64.216 0.476601 70.4614 0.476601Z" fill="black"/>
<path d="M327.353 167.215V12.4655C327.353 6.19469 322.361 1.09305 316.222 1.09305H77.8339C71.6947 1.09305 66.7026 6.19469 66.7026 12.4655V167.236C66.7026 173.507 71.6947 178.588 77.8339 178.588H316.243C322.361 178.588 327.353 173.486 327.353 167.215ZM327.417 167.215C327.417 173.507 322.403 178.63 316.243 178.63H77.8339C71.6735 178.63 66.6602 173.507 66.6602 167.215V12.4655C66.6602 6.17344 71.6735 1.05054 77.8339 1.05054H316.243C322.403 1.05054 327.417 6.17344 327.417 12.4655V167.215Z" fill="black"/>
<path d="M327.46 167.215C327.46 173.55 322.426 178.694 316.223 178.694H77.8352C71.6535 178.694 66.5977 173.55 66.5977 167.215V12.4655C66.5977 6.13092 71.6322 0.986771 77.8352 0.986771H316.244C322.426 0.986771 327.482 6.13092 327.482 12.4655V167.215H327.46ZM316.244 178.63C322.405 178.63 327.418 173.507 327.418 167.215V12.4655C327.418 6.17344 322.405 1.05054 316.244 1.05054H77.8352C71.6747 1.05054 66.6614 6.17344 66.6614 12.4655V167.236C66.6614 173.528 71.6747 178.651 77.8352 178.651H316.244V178.63Z" fill="black"/>
<path d="M327.483 12.4655C327.483 6.13092 322.448 0.98677 316.245 0.98677H77.8359C71.633 0.98677 66.5984 6.13092 66.5984 12.4655V167.236C66.5984 173.571 71.633 178.715 77.8359 178.715H316.245C322.448 178.715 327.483 173.571 327.483 167.236V12.4655ZM316.245 0.880486C322.512 0.880486 327.589 6.08841 327.589 12.4655V167.236C327.589 173.635 322.512 178.821 316.245 178.821H77.8359C71.5692 178.821 66.4922 173.635 66.4922 167.236V12.4655C66.4922 6.06715 71.5692 0.880486 77.8359 0.880486H316.245Z" fill="black"/>
<path d="M327.587 12.4655C327.587 6.06715 322.489 0.859229 316.222 0.859229H77.8344C71.5678 0.859229 66.4695 6.06715 66.4695 12.4655V167.236C66.4695 173.635 71.5678 178.821 77.8344 178.821H316.244C322.51 178.821 327.608 173.614 327.608 167.236V12.4655H327.587ZM316.244 0.752945C322.574 0.752945 327.715 6.00338 327.715 12.4655V167.236C327.715 173.677 322.574 178.949 316.244 178.949H77.8344C71.5041 178.949 66.3633 173.699 66.3633 167.236V12.4655C66.3633 6.00338 71.5041 0.752945 77.8344 0.752945H316.244Z" fill="black"/>
<path d="M327.52 44.0744C327.265 44.0744 327.053 43.8618 327.053 43.6067V12.0191C327.053 5.91835 322.188 0.965512 316.219 0.965512H262.92C262.666 0.965512 262.453 0.752941 262.453 0.497859C262.453 0.242777 262.666 0.0302124 262.92 0.0302124H316.24C322.719 0.0302124 328.009 5.40819 328.009 12.0191V43.6067C327.987 43.8618 327.796 44.0744 327.52 44.0744Z" fill="black"/>
<path d="M316.24 178.779H77.8311C71.352 178.779 66.0625 173.401 66.0625 166.79V12.0191C66.0625 5.40819 71.3307 0.0302124 77.8311 0.0302124L206.351 0.476601C206.606 0.476601 206.818 0.689171 206.818 0.944254C206.818 1.19934 206.606 1.41191 206.351 1.41191L77.8311 0.965512C71.8618 0.965512 67.0184 5.91835 67.0184 12.0191V166.79C67.0184 172.891 71.8831 177.844 77.8523 177.844H316.24C322.209 177.844 327.074 172.891 327.074 166.79V51.4292C327.074 51.1741 327.286 50.9616 327.541 50.9616C327.796 50.9616 328.009 51.1741 328.009 51.4292V166.769C327.988 173.401 322.719 178.779 316.24 178.779Z" fill="black"/>
<path d="M231.654 146.086H77.983C77.7281 146.086 77.5156 145.873 77.5156 145.618V75.0881C77.5156 74.833 77.7281 74.6204 77.983 74.6204H231.654C231.909 74.6204 232.121 74.833 232.121 75.0881V145.618C232.121 145.873 231.909 146.086 231.654 146.086ZM78.4503 145.151H231.187V75.5557H78.4503V145.151Z" fill="black"/>
<path d="M222.283 91.7747H202.995C202.74 91.7747 202.527 91.5621 202.527 91.307C202.527 91.052 202.74 90.8394 202.995 90.8394H222.283C222.538 90.8394 222.751 91.052 222.751 91.307C222.751 91.5621 222.538 91.7747 222.283 91.7747Z" fill="black"/>
<path d="M198.281 91.7747H182.413C182.158 91.7747 181.945 91.5621 181.945 91.307C181.945 91.052 182.158 90.8394 182.413 90.8394H198.26C198.515 90.8394 198.727 91.052 198.727 91.307C198.748 91.5621 198.536 91.7747 198.281 91.7747Z" fill="black"/>
<path d="M134.212 91.7747H87.4986C87.2437 91.7747 87.0312 91.5621 87.0312 91.307C87.0312 91.052 87.2437 90.8394 87.4986 90.8394H134.212C134.467 90.8394 134.679 91.052 134.679 91.307C134.679 91.5621 134.467 91.7747 134.212 91.7747Z" fill="black"/>
<path d="M222.283 103.402H172.745C172.49 103.402 172.277 103.19 172.277 102.935C172.277 102.679 172.49 102.467 172.745 102.467H222.262C222.517 102.467 222.729 102.679 222.729 102.935C222.75 103.19 222.538 103.402 222.283 103.402Z" fill="black"/>
<path d="M114.115 103.402H87.2642C87.0093 103.402 86.7969 103.19 86.7969 102.935C86.7969 102.679 87.0093 102.467 87.2642 102.467H114.115C114.37 102.467 114.583 102.679 114.583 102.935C114.583 103.19 114.37 103.402 114.115 103.402Z" fill="black"/>
<path d="M222.286 115.008H205.44C205.185 115.008 204.973 114.796 204.973 114.541C204.973 114.286 205.185 114.073 205.44 114.073H222.286C222.541 114.073 222.753 114.286 222.753 114.541C222.753 114.796 222.541 115.008 222.286 115.008Z" fill="black"/>
<path d="M194.881 115.008H165.651C165.396 115.008 165.184 114.796 165.184 114.541C165.184 114.286 165.396 114.073 165.651 114.073H194.881C195.136 114.073 195.349 114.286 195.349 114.541C195.349 114.796 195.157 115.008 194.881 115.008Z" fill="black"/>
<path d="M120.235 115.008H87.0533C86.7984 115.008 86.5859 114.796 86.5859 114.541C86.5859 114.286 86.7984 114.073 87.0533 114.073H120.235C120.49 114.073 120.702 114.286 120.702 114.541C120.702 114.796 120.49 115.008 120.235 115.008Z" fill="black"/>
<path d="M222.285 128.974H161.53C161.275 128.974 161.062 128.762 161.062 128.506C161.062 128.251 161.275 128.039 161.53 128.039H222.285C222.539 128.039 222.752 128.251 222.752 128.506C222.752 128.762 222.539 128.974 222.285 128.974Z" fill="black"/>
<path d="M114.774 128.974H85.608C85.3531 128.974 85.1406 128.762 85.1406 128.506C85.1406 128.251 85.3531 128.039 85.608 128.039H114.774C115.029 128.039 115.242 128.251 115.242 128.506C115.242 128.762 115.029 128.974 114.774 128.974Z" fill="black"/>
<path d="M313.012 145.916L241.848 145.937L241.699 75.1093L312.884 75.0881L313.012 145.916Z" fill="#8C7BFF"/>
<path d="M307.723 140.665H247.117L262.773 121.704L271.568 130.271L287.16 108.568L307.723 140.665Z" fill="white"/>
<path d="M271.543 102.305C272.096 98.649 269.564 95.2337 265.887 94.677C262.209 94.1202 258.78 96.6329 258.228 100.289C257.675 103.945 260.207 107.361 263.884 107.917C267.562 108.474 270.991 105.962 271.543 102.305Z" fill="white"/>
<path d="M315.201 13.6346H77.0469V51.578H315.201V13.6346Z" fill="#4ADA85"/>
<path d="M299.525 26.2399H94.2969V39.079H299.525V26.2399Z" fill="white"/>
<path d="M314.565 72.4097L315.563 71.6657C317.071 70.5391 326.822 70.8792 328.564 70.6879L327.523 105.273L312.568 86.5668C309.211 82.1028 310.104 75.7683 314.565 72.4097Z" fill="black"/>
<path d="M316.881 69.2637L317.879 68.5197C322.34 65.1611 328.692 66.0539 332.049 70.5179L352.782 98.088C356.881 103.551 359.112 110.204 359.112 117.028V168.023H334.938V110.077L314.884 83.4208C311.528 78.9568 312.42 72.6223 316.881 69.2637Z" fill="#955B50"/>
<path d="M359.091 168.491H334.938C334.683 168.491 334.471 168.278 334.471 168.023V110.226L314.502 83.6971C312.803 81.4439 312.081 78.6592 312.484 75.8533C312.888 73.0474 314.333 70.5816 316.605 68.8811L317.604 68.1371C322.256 64.6297 328.905 65.565 332.41 70.2415L353.143 97.8116C357.286 103.317 359.559 110.141 359.559 117.028V168.023C359.559 168.278 359.367 168.491 359.091 168.491ZM335.405 167.555H358.624V117.028C358.624 110.332 356.415 103.721 352.379 98.3643L331.645 70.7942C328.459 66.5428 322.384 65.6925 318.135 68.8811L317.137 69.6251C315.076 71.1768 313.738 73.43 313.377 75.9809C313.015 78.5317 313.674 81.0612 315.225 83.1232L335.278 109.779C335.342 109.864 335.363 109.949 335.363 110.056V167.555H335.405Z" fill="black"/>
<path d="M319.766 283.894H376.761L364.822 218.38L315.688 236.789L319.766 283.894Z" fill="#955B50"/>
<path d="M321.042 314.057L378.249 295.564L372.577 261.17L317.855 267.526L321.042 314.057Z" fill="#020202"/>
<path d="M305.536 122.321C309.211 118.197 315.52 117.772 319.726 121.364L327.543 127.274L327.31 155.248L306.024 137.583C301.606 133.906 301.117 127.274 304.962 122.98L305.536 122.321Z" fill="black"/>
<path d="M322.699 119.175L353.883 145.767C360.702 151.591 364.632 160.094 364.632 169.065V234.493H315.136V216.446C315.136 204.287 319.98 192.617 328.583 184.008L334.467 178.12V156.629L308.997 135.394C304.578 131.716 304.09 125.084 307.935 120.79L308.53 120.131C312.205 116.029 318.493 115.604 322.699 119.175Z" fill="#955B50"/>
<path d="M373.621 267.122C373.409 267.122 373.196 266.973 373.154 266.74L364.168 217.977C364.168 217.955 364.168 217.913 364.168 217.891V169.065C364.168 160.222 360.302 151.868 353.589 146.128L322.404 119.536C318.368 116.093 312.42 116.496 308.873 120.45L308.278 121.109C306.515 123.086 305.644 125.637 305.835 128.294C306.026 130.951 307.258 133.332 309.298 135.032L334.768 156.268C334.874 156.353 334.938 156.48 334.938 156.629V178.12C334.938 178.247 334.895 178.354 334.81 178.46L328.926 184.348C320.344 192.915 315.628 204.33 315.628 216.446V221.399C315.628 221.654 315.415 221.867 315.161 221.867C314.906 221.867 314.693 221.654 314.693 221.399V216.446C314.693 204.075 319.515 192.426 328.267 183.689L334.003 177.95V156.863L308.703 135.776C306.472 133.906 305.113 131.291 304.9 128.379C304.688 125.467 305.644 122.682 307.577 120.514L308.172 119.855C312.059 115.519 318.581 115.072 322.999 118.856L354.184 145.448C361.13 151.358 365.103 159.988 365.103 169.086V217.87L374.067 266.591C374.11 266.846 373.94 267.08 373.685 267.144C373.685 267.122 373.642 267.122 373.621 267.122Z" fill="black"/>
<path d="M321.977 315.397C321.744 315.397 321.531 315.205 321.51 314.971L315.392 237.512C311.016 234.833 308.127 230.709 307.872 230.327C303.262 224.949 300.734 218.104 300.734 211.026V178.333C300.734 178.077 300.947 177.865 301.202 177.865C301.457 177.865 301.669 178.077 301.669 178.333V211.026C301.669 217.891 304.133 224.545 308.594 229.753C308.615 229.774 308.615 229.774 308.637 229.795C308.658 229.838 311.653 234.217 316.093 236.853C316.22 236.938 316.305 237.065 316.327 237.214L322.466 314.929C322.487 315.184 322.296 315.418 322.041 315.439C321.999 315.397 321.977 315.397 321.977 315.397Z" fill="black"/>
<path d="M389.72 263.147L291.535 283.894L294.977 330H389.72V263.147Z" fill="#8C7BFF"/>
<path d="M86.1196 139.241L105.302 125.084C109.614 121.896 115.732 122.958 118.706 127.444L119.641 128.868C122.424 133.034 121.425 138.667 117.389 141.643L104.027 151.506C101.903 153.079 101.138 155.885 102.158 158.33L111.292 178.673L88.5413 177.95L80.4902 159.712C77.4312 152.399 79.7467 143.939 86.1196 139.241Z" fill="black"/>
<path d="M168.181 175.016C169.434 175.931 170.411 177.163 171.24 178.481L151.781 178.758L156.518 175.038C159.344 172.827 163.422 172.742 166.63 174.124C167.182 174.357 167.692 174.676 168.181 175.016Z" fill="black"/>
<path d="M33.2881 212.067L52.1731 204.096L21.1584 130.547C18.9917 125.382 13.0437 122.98 7.88163 125.148L7.6692 125.233C2.50718 127.422 0.10673 133.374 2.27351 138.54L33.2881 212.067Z" fill="#955B50"/>
<path d="M69.1018 190.088L49.6221 198.314L15.8884 118.324C13.6791 113.074 16.1433 107.016 21.3903 104.784L21.8364 104.593C27.0834 102.382 33.1376 104.848 35.3681 110.098L69.1018 190.088Z" fill="#955B50"/>
<path d="M68.2523 188.259L87.116 180.288L61.2209 118.898C59.0542 113.733 53.1062 111.331 47.9441 113.499L47.7317 113.584C42.5697 115.752 40.1692 121.704 42.336 126.87L68.2523 188.259Z" fill="#955B50"/>
<path d="M29.125 202.183L105.153 170.085L131.303 231.453L124.314 250.181C116.688 270.587 94.0008 281.003 73.5652 273.457L69.3378 271.905C61.1593 268.887 54.6165 262.616 51.2389 254.602L29.125 202.183Z" fill="#955B50"/>
<path d="M50.5156 252.54L82.0188 327.237L149.231 301.495L116.772 224.566L50.5156 252.54Z" fill="#955B50"/>
<path d="M83.5926 138.327L102.796 124.149C107.109 120.96 113.226 122.023 116.2 126.508L117.135 127.933C119.918 132.099 118.92 137.732 114.883 140.708L101.522 150.592C99.3974 152.165 98.6326 154.971 99.6523 157.416L117.942 200.78L99.0575 208.751L77.9845 158.776C74.9043 151.485 77.2198 143.025 83.5926 138.327Z" fill="#955B50"/>
<path d="M165.143 175.612L166.162 176.313C172.11 180.394 172.132 189.152 166.205 193.255L163.634 195.04C159.45 197.931 154.67 200.865 151.781 205.052L123.507 250.372L104.324 237.214L131.218 196.316C135.764 189.662 141.499 183.902 148.127 179.31L153.48 175.612C156.985 173.21 161.616 173.188 165.143 175.612Z" fill="#955B50"/>
<path d="M137.546 273.818L149.23 301.495L82.0175 327.237L64.832 286.509L137.546 273.818Z" fill="black"/>
<path d="M44.5264 186.665C44.3352 186.665 44.1653 186.559 44.1015 186.389L15.4661 118.495C14.3402 115.837 14.319 112.904 15.4024 110.247C16.4858 107.569 18.5463 105.485 21.2017 104.38L21.669 104.189C27.1497 101.872 33.4801 104.444 35.7956 109.928L63.4751 175.548C63.5813 175.782 63.4538 176.058 63.2202 176.164C62.9865 176.271 62.7103 176.143 62.6041 175.909L34.9459 110.289C32.8428 105.294 27.0435 102.935 22.0514 105.039L21.5841 105.23C19.1624 106.251 17.2718 108.164 16.2946 110.587C15.2962 113.032 15.3174 115.71 16.3371 118.133L44.9725 186.027C45.0787 186.261 44.9513 186.538 44.7176 186.644C44.6539 186.665 44.5901 186.665 44.5264 186.665Z" fill="black"/>
<path d="M64.9597 180.713C64.7685 180.713 64.5985 180.607 64.5348 180.437L41.9111 127.04C40.8065 124.425 40.7852 121.556 41.8474 118.941C42.9095 116.326 44.9276 114.264 47.5405 113.18L47.7742 113.095C53.1486 110.821 59.3728 113.35 61.6458 118.728L86.2451 177.036C86.3513 177.27 86.2238 177.546 85.9901 177.652C85.7565 177.759 85.4803 177.631 85.3741 177.397L60.7961 119.068C58.7355 114.158 53.0636 111.862 48.1565 113.924L47.9229 114.009C45.5437 115.008 43.6955 116.879 42.7396 119.26C41.7624 121.641 41.7837 124.276 42.7821 126.657L65.3845 180.054C65.4907 180.288 65.3845 180.564 65.1296 180.671C65.0871 180.713 65.0234 180.713 64.9597 180.713Z" fill="black"/>
<path d="M81.381 327.704C81.1898 327.704 81.0198 327.598 80.9561 327.407L1.8263 138.689C0.721668 136.074 0.700425 133.204 1.78381 130.59C2.84596 127.975 4.86403 125.913 7.47691 124.829L7.71058 124.744C13.085 122.47 19.3092 124.999 21.5822 130.377L45.0344 186.006C45.1406 186.24 45.0131 186.516 44.7794 186.623C44.5458 186.729 44.2696 186.601 44.1634 186.368L20.7112 130.738C18.6507 125.828 12.9788 123.532 8.07171 125.594L7.83804 125.679C5.45884 126.678 3.6107 128.549 2.65477 130.93C1.6776 133.311 1.69884 135.946 2.69726 138.327L81.6359 326.62L148.593 301.218L125.63 246.801C125.566 246.652 125.587 246.503 125.672 246.376L151.525 204.904C154.265 200.886 158.45 198.016 162.508 195.21L165.928 192.851C168.626 190.98 170.176 188.026 170.155 184.752C170.155 181.479 168.583 178.524 165.885 176.674L164.866 175.973C161.53 173.677 157.048 173.699 153.734 175.994L148.381 179.693C142.093 184.051 136.506 189.769 131.769 196.677L122.868 210.941C122.783 211.089 122.613 211.174 122.443 211.153C122.274 211.132 122.125 211.026 122.04 210.877L99.2038 157.565C98.0991 154.929 98.9276 151.889 101.222 150.188L114.584 140.325C118.429 137.498 119.363 132.163 116.708 128.188L115.773 126.763C114.414 124.702 112.311 123.341 109.889 122.916C107.467 122.491 105.024 123.065 103.049 124.531L83.8451 138.71C77.621 143.301 75.3905 151.464 78.3857 158.585C78.4919 158.819 78.3645 159.095 78.1308 159.201C77.8971 159.308 77.621 159.18 77.5148 158.946C74.3496 151.421 76.7075 142.791 83.2716 137.945L102.475 123.766C104.663 122.151 107.361 121.513 110.038 121.981C112.714 122.448 115.03 123.958 116.538 126.232L117.473 127.656C120.404 132.056 119.363 137.945 115.115 141.069L101.753 150.932C99.7986 152.378 99.0975 154.95 100.032 157.182L122.507 209.665L130.941 196.146C135.763 189.11 141.435 183.307 147.807 178.906L153.161 175.208C156.793 172.678 161.7 172.678 165.354 175.186L166.374 175.888C169.348 177.929 171.047 181.138 171.047 184.731C171.047 188.323 169.369 191.554 166.416 193.595L162.996 195.954C159.024 198.697 154.903 201.524 152.269 205.371L126.543 246.609L149.656 301.303C149.698 301.431 149.698 301.558 149.656 301.665C149.613 301.792 149.507 301.877 149.401 301.92L81.5721 327.662C81.4872 327.704 81.4447 327.704 81.381 327.704Z" fill="black"/>
<path d="M136.634 172.104C146.653 172.104 154.775 163.977 154.775 153.951C154.775 143.925 146.653 135.798 136.634 135.798C126.614 135.798 118.492 143.925 118.492 153.951C118.492 163.977 126.614 172.104 136.634 172.104Z" fill="#FED101"/>
<path d="M128.796 109.29C131.409 104.146 135.211 98.4706 140.225 92.2849C143.9 87.7572 146.598 83.9309 148.318 80.8274C150.039 77.7239 150.91 74.2166 150.91 70.284C150.91 64.6935 149.274 60.2721 145.982 57.0198C142.71 53.7675 138.334 52.152 132.896 52.152C127.67 52.152 123.039 53.6187 118.982 56.5734C114.924 59.5281 111.504 63.6519 108.722 68.9449L88.5195 52.8109C93.193 43.1391 99.5021 35.6567 107.447 30.3637C115.392 25.0708 124.824 22.4349 135.7 22.4349C148.488 22.4349 158.727 26.1336 166.46 33.5522C174.192 40.9709 178.058 51.2379 178.058 64.3959C178.058 70.6029 177.315 76.0446 175.807 80.7211C174.298 85.4189 172.471 89.3727 170.305 92.625C168.138 95.8773 165.334 99.6185 161.893 103.849C157.771 108.844 154.776 113.032 152.886 116.433C150.995 119.834 150.06 123.958 150.06 128.804H124.866C124.866 120.939 126.183 114.434 128.796 109.29Z" fill="#FED101"/>
<path d="M136.612 172.551C133.256 172.551 129.857 171.637 126.798 169.745C122.592 167.109 119.639 163.006 118.514 158.16C117.388 153.313 118.216 148.318 120.85 144.109C126.288 135.394 137.781 132.737 146.49 138.178C150.697 140.814 153.649 144.917 154.775 149.763C155.901 154.61 155.073 159.605 152.438 163.814C148.912 169.447 142.815 172.551 136.612 172.551ZM121.657 144.598C119.151 148.594 118.365 153.334 119.427 157.947C120.489 162.539 123.293 166.45 127.287 168.958C135.55 174.124 146.469 171.594 151.631 163.325C154.138 159.329 154.924 154.589 153.862 149.976C152.8 145.384 149.995 141.473 146.002 138.965C137.738 133.799 126.819 136.329 121.657 144.598Z" fill="black"/>
<path d="M150.059 129.25H124.865C124.61 129.25 124.397 129.038 124.397 128.783C124.397 120.875 125.736 114.243 128.37 109.056C130.983 103.912 134.849 98.173 139.841 91.966C143.473 87.4808 146.171 83.6546 147.892 80.5723C149.57 77.5539 150.42 74.089 150.42 70.2628C150.42 64.821 148.805 60.4846 145.64 57.3174C142.475 54.1714 138.163 52.5771 132.873 52.5771C127.775 52.5771 123.186 54.0438 119.235 56.9135C115.263 59.8044 111.843 63.907 109.124 69.1149C109.06 69.2425 108.932 69.3275 108.805 69.3487C108.678 69.37 108.529 69.3487 108.423 69.2637L88.2419 53.151C88.0719 53.0235 88.0082 52.7684 88.1144 52.5771C92.8091 42.8627 99.2245 35.2528 107.212 29.9386C115.199 24.6244 124.801 21.9248 135.741 21.9248C148.593 21.9248 159.044 25.7085 166.819 33.1696C174.616 40.6308 178.545 51.1316 178.545 64.3534C178.545 70.5816 177.781 76.1084 176.272 80.8274C174.764 85.5252 172.895 89.5853 170.707 92.8588C168.54 96.0898 165.715 99.8948 162.252 104.125C158.174 109.078 155.157 113.287 153.288 116.645C151.44 119.961 150.505 124.043 150.505 128.783C150.526 129.059 150.314 129.25 150.059 129.25ZM125.332 128.315H149.57C149.634 123.617 150.611 119.536 152.459 116.199C154.35 112.798 157.409 108.525 161.509 103.53C164.929 99.3209 167.754 95.5584 169.9 92.3486C172.024 89.1389 173.872 85.1851 175.338 80.5511C176.825 75.9384 177.568 70.4754 177.568 64.3534C177.568 51.3867 173.723 41.1197 166.118 33.8498C158.513 26.5587 148.274 22.8601 135.677 22.8601C124.928 22.8601 115.497 25.4959 107.679 30.7251C99.9255 35.8905 93.6801 43.2666 89.0704 52.6621L108.508 68.1796C111.269 63.078 114.668 59.0392 118.64 56.1483C122.762 53.151 127.541 51.6418 132.831 51.6418C138.375 51.6418 142.9 53.3211 146.256 56.6584C149.613 59.9957 151.312 64.566 151.312 70.2628C151.312 74.2591 150.42 77.8727 148.678 81.04C146.936 84.1648 144.217 88.0335 140.542 92.5612C135.571 98.7044 131.747 104.401 129.177 109.482C126.692 114.434 125.396 120.769 125.332 128.315Z" fill="black"/>
<path d="M164.824 275.689L189.19 329.766L57.2501 329.809L46.7773 304.959L164.824 275.689Z" fill="#8C7BFF"/>
<path d="M216.379 243.952H274.16L287.5 255.814V197.294H216.379V243.952Z" fill="#FED101"/>
<path d="M228.191 244.42C227.936 244.42 227.723 244.207 227.723 243.952V233.366H216.401C216.146 233.366 215.934 233.154 215.934 232.899C215.934 232.644 216.146 232.431 216.401 232.431H228.191C228.446 232.431 228.658 232.644 228.658 232.899V243.952C228.658 244.207 228.446 244.42 228.191 244.42Z" fill="white"/>
<path d="M157.069 291.886C157.005 291.886 156.941 291.865 156.878 291.844C156.708 291.759 156.602 291.61 156.602 291.419V232.899C156.602 232.644 156.814 232.431 157.069 232.431H216.379C216.634 232.431 216.846 232.644 216.846 232.899C216.846 233.154 216.634 233.366 216.379 233.366H157.536V290.377L170.091 279.196C170.176 279.111 170.282 279.069 170.409 279.069H227.723V243.931C227.723 243.676 227.935 243.463 228.19 243.463C228.445 243.463 228.657 243.676 228.657 243.931V279.536C228.657 279.791 228.445 280.004 228.19 280.004H170.579L157.388 291.759C157.303 291.844 157.175 291.886 157.069 291.886Z" fill="black"/>
<path d="M210.94 262.148C213.263 262.148 215.147 260.264 215.147 257.939C215.147 255.615 213.263 253.73 210.94 253.73C208.618 253.73 206.734 255.615 206.734 257.939C206.734 260.264 208.618 262.148 210.94 262.148Z" fill="#4ADA85"/>
<path d="M195.03 262.148C197.353 262.148 199.236 260.264 199.236 257.939C199.236 255.615 197.353 253.73 195.03 253.73C192.707 253.73 190.824 255.615 190.824 257.939C190.824 260.264 192.707 262.148 195.03 262.148Z" fill="#4ADA85"/>
<path d="M179.12 262.148C181.443 262.148 183.326 260.264 183.326 257.939C183.326 255.615 181.443 253.73 179.12 253.73C176.797 253.73 174.914 255.615 174.914 257.939C174.914 260.264 176.797 262.148 179.12 262.148Z" fill="#4ADA85"/>
<path d="M234.522 222.079C234.883 221.399 235.393 220.634 236.073 219.805C236.561 219.188 236.944 218.678 237.177 218.274C237.411 217.87 237.538 217.381 237.538 216.871C237.538 216.127 237.305 215.532 236.88 215.107C236.434 214.682 235.839 214.448 235.095 214.448C234.394 214.448 233.757 214.639 233.205 215.043C232.653 215.447 232.185 215.978 231.803 216.701L229.062 214.554C229.7 213.257 230.549 212.258 231.633 211.557C232.716 210.855 233.991 210.494 235.478 210.494C237.22 210.494 238.601 210.983 239.663 211.982C240.704 212.981 241.235 214.342 241.235 216.106C241.235 216.935 241.128 217.658 240.937 218.295C240.725 218.912 240.491 219.443 240.194 219.89C239.896 220.315 239.514 220.825 239.047 221.399C238.494 222.058 238.07 222.632 237.815 223.078C237.56 223.525 237.432 224.077 237.432 224.736H234.012C233.97 223.652 234.161 222.781 234.522 222.079Z" fill="white"/>
<path d="M237.494 226.394H233.883V229.413H237.494V226.394Z" fill="white"/>
<path d="M251.772 222.079C252.133 221.399 252.643 220.634 253.323 219.805C253.811 219.188 254.194 218.678 254.427 218.274C254.661 217.87 254.788 217.381 254.788 216.871C254.788 216.127 254.555 215.532 254.13 215.107C253.684 214.682 253.089 214.448 252.345 214.448C251.644 214.448 251.007 214.639 250.455 215.043C249.903 215.447 249.435 215.978 249.053 216.701L246.312 214.554C246.95 213.257 247.799 212.258 248.883 211.557C249.966 210.855 251.241 210.494 252.728 210.494C254.47 210.494 255.851 210.983 256.913 211.982C257.954 212.981 258.485 214.342 258.485 216.106C258.485 216.935 258.378 217.658 258.187 218.295C257.975 218.912 257.741 219.443 257.444 219.89C257.146 220.315 256.764 220.825 256.297 221.399C255.744 222.058 255.319 222.632 255.065 223.078C254.81 223.525 254.682 224.077 254.682 224.736H251.241C251.241 223.652 251.411 222.781 251.772 222.079Z" fill="white"/>
<path d="M254.744 226.394H251.133V229.413H254.744V226.394Z" fill="white"/>
<path d="M269.022 222.079C269.383 221.399 269.893 220.634 270.573 219.805C271.061 219.188 271.444 218.678 271.677 218.274C271.911 217.87 272.038 217.381 272.038 216.871C272.038 216.127 271.805 215.532 271.38 215.107C270.934 214.682 270.339 214.448 269.595 214.448C268.894 214.448 268.257 214.639 267.705 215.043C267.153 215.447 266.685 215.978 266.303 216.701L263.562 214.554C264.2 213.257 265.049 212.258 266.133 211.557C267.216 210.855 268.491 210.494 269.978 210.494C271.72 210.494 273.101 210.983 274.163 211.982C275.204 212.981 275.735 214.342 275.735 216.106C275.735 216.935 275.628 217.658 275.437 218.295C275.225 218.912 274.991 219.443 274.694 219.89C274.396 220.315 274.014 220.825 273.547 221.399C272.994 222.058 272.569 222.632 272.315 223.078C272.06 223.525 271.932 224.077 271.932 224.736H268.512C268.491 223.652 268.682 222.781 269.022 222.079Z" fill="white"/>
<path d="M272.018 226.394H268.406V229.413H272.018V226.394Z" fill="white"/>
</svg>
