<svg width="453" height="297" viewBox="0 0 453 297" fill="none" xmlns="http://www.w3.org/2000/svg">
<path d="M345.633 297C335.047 297 324.762 295.491 314.781 292.472C252.471 274.061 225.551 204.64 222.224 194.982C175.643 75.7592 145.093 74.25 143.883 74.25C123.618 75.1555 89.4381 139.445 74.9193 191.963L72.0832 202.092C70.4752 207.835 64.5084 211.192 58.7521 209.592L7.92453 195.468C2.16099 193.866 -1.20791 187.903 0.402175 182.153L3.23288 172.043C11.0976 143.973 54.0486 4.52744 139.951 0H144.186C200.144 0 247.027 53.4238 291.793 168.421L292.095 169.326C296.33 181.701 312.664 213.997 335.954 220.939C338.979 221.844 342.004 222.146 345.331 222.146C358.942 222.146 375.881 214.299 394.634 199.811L402.75 193.479C407.457 189.807 414.255 190.634 417.94 195.327L450.695 237.045C454.333 241.677 453.585 248.364 449.012 252.082L440.912 258.668C408.548 284.021 376.486 297 345.633 297Z" fill="url(#paint0_linear_345_4660)"/>
<defs>
<linearGradient id="paint0_linear_345_4660" x1="359.697" y1="222.544" x2="-52.0442" y2="245.714" gradientUnits="userSpaceOnUse">
<stop stop-color="#E9F2FC"/>
<stop offset="1" stop-color="#F4F9FF"/>
</linearGradient>
</defs>
</svg>
