<svg width="424" height="318" viewBox="0 0 424 318" fill="none" xmlns="http://www.w3.org/2000/svg">
<path d="M2.59235 271.074C3.29908 270.191 4.07648 269.378 4.53586 268.354C5.13658 266.905 4.92454 265.244 4.46516 263.76C4.00578 262.276 3.29905 260.862 2.91034 259.343C1.92092 255.632 2.94569 251.427 5.52526 248.565C6.09064 247.929 6.76206 247.364 7.22143 246.657C8.31687 244.996 8.31684 242.876 8.03415 240.897C7.75146 238.954 7.18608 236.975 7.29209 234.996C7.43344 232.593 8.59954 230.296 10.4724 228.777C12.2746 227.292 14.7128 226.762 17.045 226.727C17.0803 226.727 17.0803 226.727 17.1157 226.727C17.151 226.727 17.151 226.727 17.1863 226.727C19.5186 226.727 21.9568 227.222 23.7943 228.706C25.6672 230.19 26.8686 232.487 27.0453 234.89C27.1866 236.869 26.6566 238.812 26.3739 240.791C26.0912 242.77 26.1265 244.89 27.2573 246.516C27.752 247.222 28.3881 247.788 28.9888 248.424C31.6037 251.251 32.6991 255.42 31.7451 259.166C31.3563 260.686 30.6849 262.099 30.2256 263.618C29.7662 265.103 29.5895 266.799 30.2256 268.212C30.6849 269.237 31.4977 270.05 32.2044 270.933C34.8193 274.149 35.9501 278.99 33.6886 282.488C32.7698 283.866 31.427 284.926 30.0489 285.81C27.8933 287.188 25.4905 288.319 22.9816 288.884C21.8861 289.131 20.72 289.344 19.6246 289.061C18.8825 288.884 18.3171 288.99 17.5397 288.99C16.7623 288.99 16.1969 288.884 15.4548 289.096C14.3594 289.379 13.1933 289.202 12.0979 288.955C9.55363 288.425 7.18608 287.365 4.99521 285.987C3.58175 285.103 2.23895 284.078 1.32019 282.7C-1.04736 279.202 0.0127754 274.325 2.59235 271.074Z" fill="url(#paint0_linear_1217_2248)"/>
<path opacity="0.3" d="M16.2316 282.099C14.1114 279.308 5.41861 267.717 5.41861 267.717L16.2669 279.343L16.6556 256.48C15.0301 254.289 8.5282 245.667 8.5282 245.667L16.691 254.431L16.9383 240.543C16.2316 239.589 11.0725 232.734 11.0725 232.734L16.9737 239.059L17.1503 229.306L17.3624 241.816L23.0162 235.632C23.0162 235.632 18.4931 241.78 17.3977 243.3L17.6097 257.399L25.7018 248.565C25.7018 248.565 19.1999 257.399 17.6451 259.519L17.9984 282.665L29.0234 270.58C29.0234 270.58 19.1645 284.007 18.0338 285.562L18.1044 288.99H18.0691V292.736H16.1256V288.99H16.1609L16.2316 282.099Z" fill="white"/>
<path d="M25.7031 292.7H8.45888L11.6745 306.34H22.4168L25.7031 292.7Z" fill="#43457B"/>
<path d="M8.45888 291.676H25.7031V292.701H8.45888V291.676Z" fill="url(#paint1_linear_1217_2248)"/>
<path d="M304.615 317.507L328.608 179.129H410.13C417.656 179.129 423.734 185.242 423.734 192.733V317.471H304.615V317.507Z" fill="url(#paint2_linear_1217_2248)"/>
<path d="M119.628 274.431C121.148 273.689 122.632 272.806 124.081 271.781C167.616 241.745 210.02 165.1 219.03 153.545C224.013 147.114 244.119 133.156 262.318 135.205C265.039 135.523 267.901 135.983 270.056 138.032C270.304 138.244 270.551 138.491 270.798 138.704C280.127 147.785 289.103 145.559 295.287 141.778C299.421 139.622 302.813 136.654 305.11 134.887C305.534 134.816 305.994 134.816 306.418 134.852C311.047 135.135 320.411 135.806 330.553 136.831C341.436 137.926 353.203 139.446 361.013 141.424C362.744 141.848 361.967 141.106 363.274 141.601C363.274 141.601 389.459 149.128 399.07 191.461C399.07 191.461 425.926 270.898 409.106 278.248C395.254 284.29 367.691 285.174 367.691 285.174L367.126 317.577H212.528C215.744 288.743 217.228 277.364 217.476 261.498C217.476 261.428 217.476 261.322 217.476 261.251C217.546 259.908 217.582 258.035 217.44 256.162C217.334 253.3 217.087 251.145 216.698 249.766C216.663 249.59 216.592 249.413 216.557 249.272C213.2 240.544 165.849 287.93 135.106 286.87L119.628 274.431Z" fill="url(#paint3_linear_1217_2248)"/>
<path d="M165.85 0.148682C193.553 0.148682 215.992 13.7179 215.992 30.4675C215.992 36.7574 212.812 42.588 207.37 47.4644C209.102 57.606 206.911 77.1825 202.034 71.458C196.769 65.3094 182.988 60.9983 178.712 59.7615C174.613 60.4329 170.267 60.7863 165.814 60.7863C138.11 60.7863 115.672 47.2171 115.672 30.4675C115.707 13.7179 138.146 0.148682 165.85 0.148682ZM194.72 34.1072C196.557 34.1072 198.077 32.5877 198.077 30.7502C198.077 28.9127 196.557 27.3932 194.72 27.3932C192.882 27.3932 191.363 28.9127 191.363 30.7502C191.363 32.623 192.882 34.1072 194.72 34.1072ZM175.496 34.1072C177.334 34.1072 178.853 32.5877 178.853 30.7502C178.853 28.9127 177.334 27.3932 175.496 27.3932C173.659 27.3932 172.139 28.9127 172.139 30.7502C172.139 32.623 173.624 34.1072 175.496 34.1072ZM156.238 34.1072C158.075 34.1072 159.595 32.5877 159.595 30.7502C159.595 28.9127 158.075 27.3932 156.238 27.3932C154.4 27.3932 152.881 28.9127 152.881 30.7502C152.881 32.623 154.4 34.1072 156.238 34.1072ZM136.98 34.1072C138.817 34.1072 140.336 32.5877 140.336 30.7502C140.336 28.9127 138.817 27.3932 136.98 27.3932C135.142 27.3932 133.623 28.9127 133.623 30.7502C133.623 32.623 135.142 34.1072 136.98 34.1072Z" fill="#43457B"/>
<g opacity="0.1">
<path d="M270.798 138.668C280.126 147.75 289.102 145.523 295.286 141.742C299.42 139.587 302.812 136.619 305.109 134.852C305.533 134.781 305.993 134.781 306.417 134.816C311.046 135.099 320.41 135.771 330.552 136.795C341.435 137.891 353.202 139.41 361.012 141.389C361.295 145.912 345.499 141.954 333.944 141.354C321.647 140.682 310.975 154.852 289.809 154.393C269.702 153.969 263.66 137.219 263.129 135.276C265.214 135.523 267.935 135.947 270.126 137.961C270.303 138.209 270.55 138.456 270.798 138.668Z" fill="#221F1F"/>
</g>
<path opacity="0.1" d="M367.656 285.138L265.887 295.174L367.091 311.429L367.656 285.138Z" fill="#221F1F"/>
<path opacity="0.1" d="M361.473 177.609C361.473 177.609 354.971 227.434 360.978 246.445C329.882 245.562 272.99 271.428 272.99 271.428L352.78 239.731C352.815 239.766 354.158 202.062 361.473 177.609Z" fill="#221F1F"/>
<path opacity="0.1" d="M261.609 278.178L266.097 296.941L280.727 297.365L268.677 294.044L263.482 274.396L260.797 274.609L261.609 278.178Z" fill="#221F1F"/>
<path d="M315.073 84.568C313.73 89.9038 311.433 95.0276 308.182 99.6214C307.122 101.141 306.098 102.696 305.037 104.816C303.695 107.466 303.483 116.76 300.408 117.254C298.323 117.608 298.571 110.258 297.228 108.774C295.885 107.325 295.179 105.452 294.578 103.614C291.645 94.4269 290.691 84.0026 283.588 77.1827C279.666 73.4016 274.012 71.3168 268.287 71.2461C262.103 71.1401 256.697 75.3805 250.796 75.1331C239.523 74.6384 227.191 66.193 222.562 57.0408C219.028 50.0795 218.851 41.4927 222.632 34.39C226.413 27.2874 234.258 21.9515 242.668 21.3508C244.612 21.2095 246.591 21.3155 248.287 22.1282C249.665 22.7643 250.725 23.8244 251.821 24.8138C256.909 29.4076 263.093 32.8705 269.842 34.9554C278.217 37.535 287.263 37.9237 295.956 39.5492C300.974 40.4679 306.204 41.9874 309.419 45.5917C313.518 50.1855 315.744 60.7511 316.204 68.0658C316.946 74.5324 316.557 78.5608 315.073 84.568Z" fill="#43457B"/>
<path d="M262.103 129.268L266.555 138.279C270.902 147.078 280.867 151.53 290.301 148.88L294.471 147.714C301.22 145.841 305.567 139.304 304.719 132.378L301.044 101.635L264.435 112.801L262.103 129.268Z" fill="#F8AC9B"/>
<path opacity="0.5" d="M297.121 108.879C297.121 108.879 293.941 130.894 286.131 134.816C278.322 138.739 265.283 135.735 265.283 135.735L262.103 129.304C262.103 129.304 270.407 132.237 275.848 130.647C281.29 129.021 280.69 129.269 281.29 129.021C281.891 128.774 281.891 128.774 281.891 128.774C281.891 128.774 291.573 125.558 297.121 108.879Z" fill="#F8AC9B"/>
<path d="M238.674 74.4616C236.024 66.8996 239.735 64.4614 245.176 63.578C250.229 62.7652 256.767 63.3306 260.972 62.4119C265.424 61.4224 269.806 60.9984 274.364 60.5744C282.138 59.8323 285.495 66.4049 286.768 70.8573C286.803 70.928 286.803 70.9987 286.838 71.1047C288.004 75.3804 289.312 85.5927 291.149 88.8437C293.022 92.1653 295.814 75.9458 302.316 74.2143C303.764 73.8256 305.107 73.5429 306.733 73.8963C309.842 74.5323 312.281 77.0412 312.846 80.0802C313.588 84.2146 311.68 88.4196 309.136 91.8119C306.591 95.2396 303.376 98.1372 300.973 101.671C296.132 108.667 294.648 117.643 288.782 123.898C282.209 130.894 271.007 132.732 262.032 129.339C253.056 125.947 246.448 117.926 243.622 108.95C240.159 97.5718 242.561 85.5927 238.674 74.4616Z" fill="#F8AC9B"/>
<path opacity="0.5" d="M265.85 67.0056C255.39 66.8643 247.652 64.4614 245.178 63.578C250.231 62.7652 256.768 63.3306 260.973 62.4119C265.426 61.4224 269.808 60.9984 274.366 60.5744C282.14 59.8323 285.497 66.4049 286.769 70.8573C286.805 70.928 286.805 70.9987 286.84 71.1047C283.589 67.7477 276.027 67.147 265.85 67.0056Z" fill="#F8AC9B"/>
<path d="M272.279 33.8245L263.798 32.729L257.579 29.2307L272.773 30.9622C282.173 32.093 289.912 38.9483 292.032 48.0298L295.565 63.0478C303.375 62.5885 310.513 67.2882 312.244 74.6029C314.188 82.8363 308.499 91.2465 299.558 93.3667C290.618 95.4869 281.784 90.5044 279.841 82.271C277.897 74.0375 283.586 65.6274 292.526 63.5072L289.028 48.7719C287.191 40.8211 280.441 34.8139 272.279 33.8245Z" fill="url(#paint4_linear_1217_2248)"/>
<path d="M255.882 115.946C255.953 115.946 255.988 115.911 256.023 115.911L255.281 113.155C255.211 113.155 250.405 114.356 240.051 113.296C239.027 112.978 238.284 112.342 237.754 111.282C234.327 104.533 237.825 90.6806 240.758 83.8607C240.546 82.3412 240.299 80.7864 239.981 79.1609C239.521 80.221 230.263 103.331 234.963 112.589C235.882 114.391 237.33 115.593 239.203 116.088L239.451 116.123C249.769 117.218 254.963 116.158 255.882 115.946Z" fill="url(#paint5_linear_1217_2248)"/>
<path d="M252.243 115.699C252.314 118.067 256.589 119.728 261.784 119.374C266.978 119.021 271.113 116.83 271.042 114.498C270.971 112.13 266.696 110.469 261.501 110.823C256.271 111.141 252.137 113.332 252.243 115.699Z" fill="#43457B"/>
<path d="M146.769 290.827L225.252 289.767L312.18 296.622V306.234L173.872 306.375L146.769 290.827Z" fill="url(#paint6_linear_1217_2248)"/>
<path d="M135 213.405L12.5943 209.094L79.3098 306.34L200.762 306.376L135 213.405Z" fill="url(#paint7_linear_1217_2248)"/>
<path d="M260.974 275.138C260.974 275.138 234.365 270.156 226.733 270.262C219.1 270.333 209.1 270.721 203.905 276.729C198.711 282.736 191.82 294.22 194.965 294.644C198.11 295.068 200.124 295.174 202.103 294.079C204.047 293.019 212.916 285.492 220.054 285.845C227.192 286.199 228.676 290.58 231.362 290.828C234.047 291.075 241.821 291.181 244.366 289.98C246.91 288.778 265.32 292.948 265.32 292.948L260.974 275.138Z" fill="#F8AC9B"/>
<path d="M3.79388 306.27H338.82V317.507H3.79388V306.27Z" fill="url(#paint8_linear_1217_2248)"/>
<path d="M173.726 106.229L168.531 109.091L173.726 111.918L176.588 117.148L179.45 111.918L184.645 109.091L179.45 106.229L176.588 100.999L173.726 106.229Z" fill="#0755F0"/>
<path d="M182.066 124.003L178.78 125.805L182.066 127.607L183.869 130.894L185.671 127.607L188.957 125.805L185.671 124.003L183.869 120.752L182.066 124.003Z" fill="#0755F0"/>
<path d="M163.091 119.833L158.073 122.554L163.091 125.311L165.812 130.293L168.568 125.311L173.551 122.554L168.568 119.833L165.812 114.816L163.091 119.833Z" fill="#0755F0"/>
<path d="M74.3944 29L95.8438 42.5693L74.3944 56.9866L52.9451 42.5693L74.3944 29Z" fill="url(#paint9_linear_1217_2248)"/>
<path d="M61.2473 33.6289H88.5625V60.4141H61.2473V33.6289Z" fill="url(#paint10_linear_1217_2248)"/>
<path d="M74.3923 59.6368L97.7852 43.8767V70.8385C97.7852 72.6407 96.301 74.0895 94.4635 74.0895H54.3211C52.4836 74.0895 50.9995 72.6407 50.9995 70.8385V43.8767L74.3923 59.6368Z" fill="url(#paint11_linear_1217_2248)"/>
<defs>
<linearGradient id="paint0_linear_1217_2248" x1="34.8539" y1="257.965" x2="-0.0290163" y2="257.965" gradientUnits="userSpaceOnUse">
<stop stop-color="#A2ED94"/>
<stop offset="1" stop-color="#69C7B3"/>
</linearGradient>
<linearGradient id="paint1_linear_1217_2248" x1="12.5087" y1="296.756" x2="21.6456" y2="287.619" gradientUnits="userSpaceOnUse">
<stop stop-color="#A2ED94"/>
<stop offset="1" stop-color="#69C7B3"/>
</linearGradient>
<linearGradient id="paint2_linear_1217_2248" x1="423.739" y1="248.33" x2="304.624" y2="248.33" gradientUnits="userSpaceOnUse">
<stop stop-color="#5E6398"/>
<stop offset="0.9995" stop-color="#292E6F"/>
</linearGradient>
<linearGradient id="paint3_linear_1217_2248" x1="441.534" y1="299.016" x2="192.794" y2="189.264" gradientUnits="userSpaceOnUse">
<stop stop-color="#033AA7"/>
<stop offset="1" stop-color="#0774FF"/>
</linearGradient>
<linearGradient id="paint4_linear_1217_2248" x1="307.523" y1="54.4907" x2="265.872" y2="64.3203" gradientUnits="userSpaceOnUse">
<stop stop-color="#FB40B7"/>
<stop offset="1" stop-color="#C639AF"/>
</linearGradient>
<linearGradient id="paint5_linear_1217_2248" x1="251.482" y1="96.7208" x2="231.992" y2="101.32" gradientUnits="userSpaceOnUse">
<stop stop-color="#FB40B7"/>
<stop offset="1" stop-color="#C639AF"/>
</linearGradient>
<linearGradient id="paint6_linear_1217_2248" x1="234.638" y1="297.652" x2="180.615" y2="306.966" gradientUnits="userSpaceOnUse">
<stop stop-color="#3A3C63"/>
<stop offset="1" stop-color="#40447B"/>
</linearGradient>
<linearGradient id="paint7_linear_1217_2248" x1="200.768" y1="257.732" x2="12.6063" y2="257.732" gradientUnits="userSpaceOnUse">
<stop stop-color="#3A3C63"/>
<stop offset="1" stop-color="#40447B"/>
</linearGradient>
<linearGradient id="paint8_linear_1217_2248" x1="109.982" y1="232.179" x2="197.045" y2="345.36" gradientUnits="userSpaceOnUse">
<stop stop-color="#5E6398"/>
<stop offset="0.9995" stop-color="#292E6F"/>
</linearGradient>
<linearGradient id="paint9_linear_1217_2248" x1="95.8451" y1="42.9938" x2="52.9592" y2="42.9938" gradientUnits="userSpaceOnUse">
<stop offset="0.00050512" stop-color="#FEBF00"/>
<stop offset="0.9841" stop-color="#FFDF00"/>
</linearGradient>
<linearGradient id="paint10_linear_1217_2248" x1="88.5757" y1="47.0261" x2="61.2665" y2="47.0261" gradientUnits="userSpaceOnUse">
<stop stop-color="#C7E9F9"/>
<stop offset="0.9995" stop-color="#F1F9FE"/>
</linearGradient>
<linearGradient id="paint11_linear_1217_2248" x1="97.7968" y1="58.9757" x2="51.0034" y2="58.9757" gradientUnits="userSpaceOnUse">
<stop offset="0.00050512" stop-color="#FEBF00"/>
<stop offset="0.9841" stop-color="#FFDF00"/>
</linearGradient>
</defs>
</svg>
