<svg width="50" height="40" viewBox="0 0 50 40" fill="none" xmlns="http://www.w3.org/2000/svg">
<path d="M49.9544 22.0494C49.7781 20.3428 49.0846 18.7308 47.9668 17.4293C46.849 16.1277 45.3603 15.1986 43.6999 14.7665C44.077 12.7693 43.7008 10.7032 42.6438 8.96715C41.5868 7.23112 39.924 5.9483 37.9766 5.36643C36.0833 4.80553 34.0517 4.94102 32.2497 5.74836C31.5836 4.78436 30.7931 3.91245 29.8989 3.1552C24.2778 -1.60223 15.8343 -0.899589 11.0768 4.7216C9.93545 6.06991 9.07312 7.63135 8.53978 9.31541C8.00643 10.9995 7.81267 12.7726 7.96973 14.5321C5.80566 14.6831 3.86719 15.5138 2.44141 16.9168C0.866895 18.4655 0 20.596 0 22.9163C0.00357913 24.8496 0.668997 26.7234 1.88555 28.2259C2.95254 29.5374 4.52852 31.0663 7.26689 31.2495C7.30244 31.252 7.31435 31.2528 9.58437 31.2535C9.7478 31.2554 9.90762 31.2055 10.0409 31.111C10.1743 31.0165 10.2743 30.8822 10.3266 30.7274C10.3668 30.6093 10.3784 30.4833 10.3603 30.3598C10.3422 30.2364 10.2949 30.119 10.2224 30.0175C10.1499 29.9159 10.0543 29.8331 9.94341 29.7759C9.83254 29.7187 9.70963 29.6887 9.58486 29.6884C8.76084 29.6884 7.525 29.6875 7.35098 29.6865C5.23965 29.538 4.01748 28.3662 3.10068 27.2393C2.11029 26.0159 1.56854 24.4903 1.56553 22.9163C1.56553 21.0195 2.26641 19.2854 3.53906 18.0335C4.87695 16.7176 6.7084 16.0391 8.83867 16.075L8.93359 16.0766C9.03603 16.0782 9.13759 16.0574 9.23115 16.0157C9.32471 15.9739 9.40802 15.9122 9.47525 15.8349C9.54247 15.7576 9.59199 15.6665 9.62034 15.5681C9.64869 15.4696 9.65518 15.3662 9.63936 15.265L9.62461 15.1711C9.20185 12.4798 9.72448 9.72523 11.1036 7.37583C12.4827 5.02644 14.6332 3.22737 17.1891 2.28465C19.7451 1.34194 22.5487 1.3138 25.1231 2.20504C27.6975 3.09627 29.8836 4.85182 31.3096 7.17307L31.3499 7.23869C31.4452 7.39344 31.5966 7.5053 31.7726 7.55081C31.9485 7.59633 32.1352 7.57196 32.2936 7.48283L32.3606 7.44504C33.1398 7.00838 33.9985 6.73228 34.8861 6.63305C35.7737 6.53382 36.6722 6.61348 37.5285 6.86731C38.3682 7.11563 39.1502 7.52835 39.829 8.08148C40.5078 8.63461 41.0699 9.31713 41.4826 10.0894C42.3189 11.6701 42.4953 13.5176 41.9732 15.228L41.972 15.2323C41.9433 15.3285 41.9355 15.4297 41.9492 15.5292C41.9629 15.6286 41.9977 15.7239 42.0513 15.8088C42.1049 15.8936 42.1761 15.966 42.26 16.0211C42.3439 16.0762 42.4386 16.1126 42.5378 16.128C43.7367 16.3058 44.8692 16.7905 45.8255 17.5351C46.5385 18.0978 47.1326 18.7967 47.5732 19.5911C48.0138 20.3854 48.2921 21.2594 48.3919 22.1622C48.4918 23.0651 48.4113 23.9788 48.155 24.8502C47.8987 25.7217 47.4717 26.5335 46.8989 27.2385C45.7343 28.67 44.5684 29.6343 42.6659 29.6863C42.535 29.6863 40.8076 29.688 40.1393 29.6884C40.0145 29.6887 39.8915 29.7187 39.7806 29.776C39.6698 29.8333 39.5741 29.9161 39.5016 30.0177C39.4292 30.1194 39.382 30.2368 39.3639 30.3603C39.3459 30.4837 39.3575 30.6098 39.3979 30.7279C39.4502 30.8827 39.5502 31.017 39.6835 31.1115C39.8168 31.206 39.9766 31.2559 40.14 31.254C42.6693 31.2523 42.6851 31.2519 42.6986 31.2516C45.3577 31.1818 46.9277 29.6831 48.113 28.2261C48.8131 27.3695 49.3364 26.3825 49.6525 25.3222C49.9686 24.262 50.0712 23.1496 49.9544 22.0494Z" fill="#2D3C58"/>
<path d="M36.8839 13.8325H13.1153C12.952 13.8325 12.7903 13.8647 12.6394 13.9272C12.4886 13.9897 12.3515 14.0813 12.236 14.1967C12.1206 14.3122 12.029 14.4493 11.9665 14.6001C11.904 14.751 11.8718 14.9127 11.8718 15.076V20.1143C11.8718 20.2776 11.904 20.4392 11.9665 20.5901C12.029 20.741 12.1206 20.8781 12.236 20.9935C12.3515 21.109 12.4886 21.2006 12.6394 21.2631C12.7903 21.3256 12.952 21.3577 13.1153 21.3577H36.884C37.0473 21.3577 37.209 21.3256 37.3599 21.2631C37.5107 21.2006 37.6478 21.109 37.7633 20.9935C37.8788 20.8781 37.9703 20.741 38.0328 20.5901C38.0953 20.4392 38.1275 20.2776 38.1275 20.1143V15.0761C38.1275 14.7463 37.9965 14.43 37.7633 14.1967C37.5301 13.9635 37.2137 13.8325 36.8839 13.8325ZM36.5617 19.7922H13.4375V15.3977H36.5625L36.5617 19.7922Z" fill="#2D3C58"/>
<path d="M15.9031 18.3781H25.6823C25.8843 18.3807 26.0799 18.3068 26.2297 18.1713C26.3795 18.0358 26.4726 17.8487 26.4903 17.6474C26.4974 17.5405 26.4825 17.4332 26.4464 17.3322C26.4104 17.2313 26.354 17.1388 26.2808 17.0605C26.2075 16.9822 26.119 16.9198 26.0206 16.8772C25.9223 16.8345 25.8162 16.8125 25.709 16.8126H15.93C15.728 16.81 15.5325 16.8839 15.3827 17.0194C15.2328 17.1549 15.1398 17.342 15.1221 17.5432C15.115 17.6502 15.1299 17.7574 15.1659 17.8584C15.2019 17.9593 15.2583 18.0518 15.3315 18.1301C15.4048 18.2084 15.4933 18.2708 15.5916 18.3134C15.6899 18.3561 15.796 18.3781 15.9031 18.3781Z" fill="#2D3C58"/>
<path d="M29.5326 18.3781H29.9548C30.1568 18.3807 30.3523 18.3068 30.5021 18.1713C30.6519 18.0358 30.745 17.8487 30.7627 17.6474C30.7698 17.5405 30.7549 17.4332 30.7188 17.3322C30.6828 17.2313 30.6264 17.1388 30.5532 17.0605C30.4799 16.9822 30.3914 16.9198 30.293 16.8772C30.1947 16.8345 30.0886 16.8125 29.9814 16.8126H29.5592C29.3572 16.81 29.1617 16.8839 29.0118 17.0194C28.862 17.1549 28.7689 17.342 28.7512 17.5432C28.7441 17.6502 28.759 17.7575 28.7951 17.8585C28.8311 17.9594 28.8875 18.0519 28.9608 18.1302C29.034 18.2085 29.1226 18.2709 29.2209 18.3135C29.3193 18.3561 29.4254 18.3781 29.5326 18.3781Z" fill="#2D3C58"/>
<path d="M32.465 18.3781H32.8874C33.0893 18.3806 33.2848 18.3068 33.4346 18.1713C33.5844 18.0358 33.6775 17.8487 33.6952 17.6474C33.7023 17.5405 33.6874 17.4332 33.6514 17.3322C33.6153 17.2312 33.559 17.1387 33.4857 17.0605C33.4125 16.9822 33.3239 16.9198 33.2255 16.8772C33.1272 16.8345 33.0211 16.8125 32.9139 16.8126H32.4917C32.2897 16.81 32.0941 16.8839 31.9443 17.0194C31.7945 17.1549 31.7014 17.342 31.6837 17.5432C31.6766 17.6502 31.6915 17.7575 31.7276 17.8584C31.7636 17.9594 31.82 18.0519 31.8932 18.1302C31.9665 18.2084 32.055 18.2708 32.1534 18.3135C32.2517 18.3561 32.3578 18.3781 32.465 18.3781Z" fill="#2D3C58"/>
<path d="M36.8839 22.7249H13.1153C12.952 22.7249 12.7903 22.757 12.6394 22.8195C12.4886 22.882 12.3515 22.9736 12.236 23.0891C12.1206 23.2045 12.029 23.3416 11.9665 23.4925C11.904 23.6433 11.8718 23.805 11.8718 23.9683V29.0066C11.8718 29.1699 11.904 29.3316 11.9665 29.4824C12.029 29.6333 12.1206 29.7704 12.236 29.8858C12.3515 30.0013 12.4886 30.0929 12.6394 30.1554C12.7903 30.2179 12.952 30.2501 13.1153 30.2501H36.884C37.0473 30.2501 37.209 30.2179 37.3599 30.1554C37.5107 30.0929 37.6478 30.0013 37.7633 29.8858C37.8788 29.7704 37.9703 29.6333 38.0328 29.4824C38.0953 29.3316 38.1275 29.1699 38.1275 29.0066V23.9683C38.1275 23.6385 37.9964 23.3222 37.7632 23.089C37.53 22.8559 37.2137 22.7249 36.8839 22.7249ZM36.5617 28.6845H13.4375V24.29H36.5625L36.5617 28.6845Z" fill="#2D3C58"/>
<path d="M15.9031 27.2702H25.6823C25.8843 27.2728 26.0798 27.1989 26.2297 27.0634C26.3795 26.9279 26.4726 26.7408 26.4903 26.5395C26.4974 26.4326 26.4824 26.3253 26.4464 26.2243C26.4104 26.1234 26.354 26.0309 26.2807 25.9526C26.2075 25.8744 26.1189 25.812 26.0206 25.7693C25.9223 25.7267 25.8162 25.7046 25.709 25.7047H15.93C15.728 25.7021 15.5325 25.776 15.3826 25.9115C15.2328 26.047 15.1397 26.2342 15.1221 26.4354C15.115 26.5424 15.1299 26.6496 15.1659 26.7505C15.202 26.8515 15.2583 26.9439 15.3316 27.0222C15.4048 27.1005 15.4933 27.1629 15.5916 27.2055C15.6899 27.2482 15.796 27.2702 15.9031 27.2702Z" fill="#2D3C58"/>
<path d="M29.5326 27.2702H29.9548C30.1568 27.2728 30.3523 27.1989 30.5021 27.0634C30.6519 26.9279 30.745 26.7408 30.7627 26.5395C30.7698 26.4326 30.7549 26.3253 30.7188 26.2243C30.6828 26.1234 30.6264 26.0309 30.5531 25.9526C30.4799 25.8744 30.3914 25.812 30.293 25.7693C30.1947 25.7267 30.0886 25.7046 29.9814 25.7047H29.5591C29.3571 25.7021 29.1616 25.776 29.0118 25.9115C28.862 26.047 28.7689 26.2342 28.7512 26.4354C28.7441 26.5424 28.7591 26.6497 28.7951 26.7506C28.8312 26.8516 28.8876 26.944 28.9608 27.0223C29.0341 27.1006 29.1226 27.163 29.221 27.2056C29.3193 27.2482 29.4254 27.2702 29.5326 27.2702Z" fill="#2D3C58"/>
<path d="M32.465 27.2702H32.8873C33.0893 27.2727 33.2848 27.1989 33.4346 27.0634C33.5844 26.9279 33.6775 26.7407 33.6952 26.5395C33.7023 26.4326 33.6874 26.3253 33.6513 26.2243C33.6153 26.1233 33.5589 26.0309 33.4857 25.9526C33.4124 25.8743 33.3239 25.8119 33.2255 25.7693C33.1272 25.7266 33.0211 25.7046 32.9139 25.7047H32.4916C32.2896 25.7021 32.0941 25.776 31.9443 25.9115C31.7945 26.047 31.7014 26.2342 31.6837 26.4354C31.6766 26.5424 31.6915 26.6496 31.7276 26.7506C31.7636 26.8515 31.82 26.944 31.8933 27.0223C31.9665 27.1005 32.0551 27.1629 32.1534 27.2056C32.2517 27.2482 32.3578 27.2702 32.465 27.2702Z" fill="#2D3C58"/>
<path d="M36.884 31.6172H13.1153C12.7856 31.6175 12.4695 31.7487 12.2364 31.9818C12.0033 32.2149 11.8722 32.531 11.8718 32.8606V37.8989C11.8722 38.2286 12.0033 38.5447 12.2364 38.7778C12.4695 39.0109 12.7856 39.142 13.1153 39.1424H36.884C37.2137 39.142 37.5298 39.0109 37.7629 38.7778C37.996 38.5447 38.1271 38.2286 38.1275 37.8989V32.8606C38.1271 32.531 37.996 32.2149 37.7629 31.9818C37.5298 31.7487 37.2137 31.6175 36.884 31.6172ZM36.5618 37.5769H13.4375V33.1823H36.5625L36.5618 37.5769Z" fill="#2D3C58"/>
<path d="M15.9031 36.1625H25.7091C25.8126 36.1637 25.9153 36.1443 26.0113 36.1054C26.1073 36.0666 26.1946 36.0092 26.2682 35.9364C26.3419 35.8636 26.4003 35.7769 26.4402 35.6813C26.4801 35.5858 26.5006 35.4833 26.5006 35.3797C26.5006 35.2762 26.4801 35.1737 26.4402 35.0781C26.4003 34.9826 26.3419 34.8959 26.2682 34.8231C26.1946 34.7503 26.1073 34.6928 26.0113 34.654C25.9153 34.6152 25.8126 34.5958 25.7091 34.597H15.9031C15.697 34.5993 15.5001 34.6828 15.3552 34.8293C15.2103 34.9759 15.129 35.1736 15.129 35.3797C15.129 35.5858 15.2103 35.7836 15.3552 35.9302C15.5001 36.0767 15.697 36.1602 15.9031 36.1625Z" fill="#2D3C58"/>
<path d="M29.5326 36.1625H29.9819C30.188 36.1602 30.3848 36.0767 30.5297 35.9302C30.6747 35.7836 30.7559 35.5858 30.7559 35.3797C30.7559 35.1736 30.6747 34.9759 30.5297 34.8293C30.3848 34.6828 30.188 34.5993 29.9819 34.597H29.5326C29.4291 34.5958 29.3264 34.6152 29.2304 34.654C29.1344 34.6928 29.0471 34.7503 28.9735 34.8231C28.8999 34.8959 28.8414 34.9826 28.8015 35.0781C28.7616 35.1737 28.7411 35.2762 28.7411 35.3797C28.7411 35.4833 28.7616 35.5858 28.8015 35.6813C28.8414 35.7769 28.8999 35.8636 28.9735 35.9364C29.0471 36.0092 29.1344 36.0666 29.2304 36.1054C29.3264 36.1443 29.4291 36.1637 29.5326 36.1625Z" fill="#2D3C58"/>
<path d="M32.465 36.1625H32.9142C33.0177 36.1637 33.1205 36.1443 33.2164 36.1054C33.3124 36.0666 33.3998 36.0092 33.4734 35.9364C33.547 35.8636 33.6054 35.7769 33.6453 35.6813C33.6852 35.5858 33.7058 35.4833 33.7058 35.3797C33.7058 35.2762 33.6852 35.1737 33.6453 35.0781C33.6054 34.9826 33.547 34.8959 33.4734 34.8231C33.3998 34.7503 33.3124 34.6928 33.2164 34.654C33.1205 34.6152 33.0177 34.5958 32.9142 34.597H32.465C32.2589 34.5993 32.062 34.6828 31.9171 34.8293C31.7722 34.9759 31.6909 35.1736 31.6909 35.3797C31.6909 35.5858 31.7722 35.7836 31.9171 35.9302C32.062 36.0767 32.2589 36.1602 32.465 36.1625Z" fill="#2D3C58"/>
</svg>
