<svg width="40" height="40" viewBox="0 0 40 40" fill="none" xmlns="http://www.w3.org/2000/svg">
<g clip-path="url(#clip0_758_23666)">
<path d="M7 4.33325C5.346 4.33325 4 5.67925 4 7.33325C4 8.98725 5.346 10.3333 7 10.3333C8.654 10.3333 10 8.98725 10 7.33325C10 5.67925 8.654 4.33325 7 4.33325ZM7 8.99992C6.08133 8.99992 5.33333 8.25259 5.33333 7.33325C5.33333 6.41392 6.08133 5.66659 7 5.66659C7.91867 5.66659 8.66667 6.41392 8.66667 7.33325C8.66667 8.25259 7.91867 8.99992 7 8.99992Z" fill="#2D3C58"/>
<path d="M33.3333 6.99984C33.7015 6.99984 34 6.70136 34 6.33317C34 5.96498 33.7015 5.6665 33.3333 5.6665C32.9651 5.6665 32.6666 5.96498 32.6666 6.33317C32.6666 6.70136 32.9651 6.99984 33.3333 6.99984Z" fill="#2D3C58"/>
<path d="M30.6667 6.99984C31.0349 6.99984 31.3333 6.70136 31.3333 6.33317C31.3333 5.96498 31.0349 5.6665 30.6667 5.6665C30.2985 5.6665 30 5.96498 30 6.33317C30 6.70136 30.2985 6.99984 30.6667 6.99984Z" fill="#2D3C58"/>
<path d="M34.6667 8.99984C35.0349 8.99984 35.3333 8.70136 35.3333 8.33317C35.3333 7.96498 35.0349 7.6665 34.6667 7.6665C34.2985 7.6665 34 7.96498 34 8.33317C34 8.70136 34.2985 8.99984 34.6667 8.99984Z" fill="#2D3C58"/>
<path d="M32 8.99984C32.3682 8.99984 32.6667 8.70136 32.6667 8.33317C32.6667 7.96498 32.3682 7.6665 32 7.6665C31.6319 7.6665 31.3334 7.96498 31.3334 8.33317C31.3334 8.70136 31.6319 8.99984 32 8.99984Z" fill="#2D3C58"/>
<path d="M28 6.99984C28.3682 6.99984 28.6667 6.70136 28.6667 6.33317C28.6667 5.96498 28.3682 5.6665 28 5.6665C27.6319 5.6665 27.3334 5.96498 27.3334 6.33317C27.3334 6.70136 27.6319 6.99984 28 6.99984Z" fill="#2D3C58"/>
<path d="M29.3333 8.99984C29.7015 8.99984 30 8.70136 30 8.33317C30 7.96498 29.7015 7.6665 29.3333 7.6665C28.9651 7.6665 28.6666 7.96498 28.6666 8.33317C28.6666 8.70136 28.9651 8.99984 29.3333 8.99984Z" fill="#2D3C58"/>
<path d="M25.3333 6.99984C25.7015 6.99984 26 6.70136 26 6.33317C26 5.96498 25.7015 5.6665 25.3333 5.6665C24.9651 5.6665 24.6666 5.96498 24.6666 6.33317C24.6666 6.70136 24.9651 6.99984 25.3333 6.99984Z" fill="#2D3C58"/>
<path d="M26.6667 8.99984C27.0349 8.99984 27.3333 8.70136 27.3333 8.33317C27.3333 7.96498 27.0349 7.6665 26.6667 7.6665C26.2985 7.6665 26 7.96498 26 8.33317C26 8.70136 26.2985 8.99984 26.6667 8.99984Z" fill="#2D3C58"/>
<path d="M22.6667 6.99984C23.0349 6.99984 23.3333 6.70136 23.3333 6.33317C23.3333 5.96498 23.0349 5.6665 22.6667 5.6665C22.2985 5.6665 22 5.96498 22 6.33317C22 6.70136 22.2985 6.99984 22.6667 6.99984Z" fill="#2D3C58"/>
<path d="M24 8.99984C24.3682 8.99984 24.6667 8.70136 24.6667 8.33317C24.6667 7.96498 24.3682 7.6665 24 7.6665C23.6319 7.6665 23.3334 7.96498 23.3334 8.33317C23.3334 8.70136 23.6319 8.99984 24 8.99984Z" fill="#2D3C58"/>
<path d="M40 11.2613V3.40525C40 1.71125 38.622 0.333252 36.928 0.333252H3.072C1.378 0.333252 0 1.71125 0 3.40525V11.2606C0 12.2399 0.468667 13.1033 1.18467 13.6659C0.468667 14.2293 0 15.0933 0 16.0719V23.9272C0 24.9066 0.468667 25.7699 1.18467 26.3326C0.468667 26.8959 0 27.7599 0 28.7386V36.5939C0 38.2886 1.378 39.6666 3.072 39.6666H36.9273C38.6213 39.6666 39.9993 38.2886 39.9993 36.5946V28.7386C39.9993 27.7593 39.5307 26.8959 38.8147 26.3333C39.5313 25.7706 40 24.9066 40 23.9279V16.0719C40 15.0926 39.5313 14.2293 38.8153 13.6666C39.5313 13.1039 40 12.2399 40 11.2613ZM38.6667 28.7386V36.5939C38.6667 37.5526 37.8867 38.3326 36.928 38.3326H3.072C2.11333 38.3333 1.33333 37.5532 1.33333 36.5946V28.7386C1.33333 27.7799 2.11333 26.9999 3.072 26.9999H36.9273C37.8867 26.9999 38.6667 27.7799 38.6667 28.7386ZM38.6667 16.0719V23.9272C38.6667 24.8859 37.8867 25.6659 36.928 25.6659H3.072C2.11333 25.6666 1.33333 24.8866 1.33333 23.9279V16.0719C1.33333 15.1133 2.11333 14.3333 3.072 14.3333H36.9273C37.8867 14.3333 38.6667 15.1133 38.6667 16.0719ZM3.072 12.9999C2.11333 12.9999 1.33333 12.2199 1.33333 11.2613V3.40525C1.33333 2.44658 2.11333 1.66659 3.072 1.66659H36.9273C37.8867 1.66659 38.6667 2.44658 38.6667 3.40525V11.2606C38.6667 12.2193 37.8867 12.9993 36.928 12.9993L3.072 12.9999Z" fill="#2D3C58"/>
<path d="M7 23C8.654 23 10 21.654 10 20C10 18.346 8.654 17 7 17C5.346 17 4 18.346 4 20C4 21.654 5.346 23 7 23ZM7 18.3333C7.91867 18.3333 8.66667 19.0807 8.66667 20C8.66667 20.9193 7.91867 21.6667 7 21.6667C6.08133 21.6667 5.33333 20.9193 5.33333 20C5.33333 19.0807 6.08133 18.3333 7 18.3333Z" fill="#2D3C58"/>
<path d="M33.3333 19.6666C33.7015 19.6666 34 19.3681 34 18.9999C34 18.6317 33.7015 18.3333 33.3333 18.3333C32.9651 18.3333 32.6666 18.6317 32.6666 18.9999C32.6666 19.3681 32.9651 19.6666 33.3333 19.6666Z" fill="#2D3C58"/>
<path d="M30.6667 19.6666C31.0349 19.6666 31.3333 19.3681 31.3333 18.9999C31.3333 18.6317 31.0349 18.3333 30.6667 18.3333C30.2985 18.3333 30 18.6317 30 18.9999C30 19.3681 30.2985 19.6666 30.6667 19.6666Z" fill="#2D3C58"/>
<path d="M34.6667 21.6666C35.0349 21.6666 35.3333 21.3681 35.3333 20.9999C35.3333 20.6317 35.0349 20.3333 34.6667 20.3333C34.2985 20.3333 34 20.6317 34 20.9999C34 21.3681 34.2985 21.6666 34.6667 21.6666Z" fill="#2D3C58"/>
<path d="M32 21.6666C32.3682 21.6666 32.6667 21.3681 32.6667 20.9999C32.6667 20.6317 32.3682 20.3333 32 20.3333C31.6319 20.3333 31.3334 20.6317 31.3334 20.9999C31.3334 21.3681 31.6319 21.6666 32 21.6666Z" fill="#2D3C58"/>
<path d="M28 19.6666C28.3682 19.6666 28.6667 19.3681 28.6667 18.9999C28.6667 18.6317 28.3682 18.3333 28 18.3333C27.6319 18.3333 27.3334 18.6317 27.3334 18.9999C27.3334 19.3681 27.6319 19.6666 28 19.6666Z" fill="#2D3C58"/>
<path d="M29.3333 21.6666C29.7015 21.6666 30 21.3681 30 20.9999C30 20.6317 29.7015 20.3333 29.3333 20.3333C28.9651 20.3333 28.6666 20.6317 28.6666 20.9999C28.6666 21.3681 28.9651 21.6666 29.3333 21.6666Z" fill="#2D3C58"/>
<path d="M25.3333 19.6666C25.7015 19.6666 26 19.3681 26 18.9999C26 18.6317 25.7015 18.3333 25.3333 18.3333C24.9651 18.3333 24.6666 18.6317 24.6666 18.9999C24.6666 19.3681 24.9651 19.6666 25.3333 19.6666Z" fill="#2D3C58"/>
<path d="M26.6667 21.6666C27.0349 21.6666 27.3333 21.3681 27.3333 20.9999C27.3333 20.6317 27.0349 20.3333 26.6667 20.3333C26.2985 20.3333 26 20.6317 26 20.9999C26 21.3681 26.2985 21.6666 26.6667 21.6666Z" fill="#2D3C58"/>
<path d="M22.6667 19.6666C23.0349 19.6666 23.3333 19.3681 23.3333 18.9999C23.3333 18.6317 23.0349 18.3333 22.6667 18.3333C22.2985 18.3333 22 18.6317 22 18.9999C22 19.3681 22.2985 19.6666 22.6667 19.6666Z" fill="#2D3C58"/>
<path d="M24 21.6666C24.3682 21.6666 24.6667 21.3681 24.6667 20.9999C24.6667 20.6317 24.3682 20.3333 24 20.3333C23.6319 20.3333 23.3334 20.6317 23.3334 20.9999C23.3334 21.3681 23.6319 21.6666 24 21.6666Z" fill="#2D3C58"/>
<path d="M7 35.6665C8.654 35.6665 10 34.3205 10 32.6665C10 31.0125 8.654 29.6665 7 29.6665C5.346 29.6665 4 31.0125 4 32.6665C4 34.3205 5.346 35.6665 7 35.6665ZM7 30.9998C7.91867 30.9998 8.66667 31.7472 8.66667 32.6665C8.66667 33.5858 7.91867 34.3332 7 34.3332C6.08133 34.3332 5.33333 33.5858 5.33333 32.6665C5.33333 31.7472 6.08133 30.9998 7 30.9998Z" fill="#2D3C58"/>
<path d="M33.3333 32.3333C33.7015 32.3333 34 32.0349 34 31.6667C34 31.2985 33.7015 31 33.3333 31C32.9651 31 32.6666 31.2985 32.6666 31.6667C32.6666 32.0349 32.9651 32.3333 33.3333 32.3333Z" fill="#2D3C58"/>
<path d="M30.6667 32.3333C31.0349 32.3333 31.3333 32.0349 31.3333 31.6667C31.3333 31.2985 31.0349 31 30.6667 31C30.2985 31 30 31.2985 30 31.6667C30 32.0349 30.2985 32.3333 30.6667 32.3333Z" fill="#2D3C58"/>
<path d="M34.6667 34.3333C35.0349 34.3333 35.3333 34.0349 35.3333 33.6667C35.3333 33.2985 35.0349 33 34.6667 33C34.2985 33 34 33.2985 34 33.6667C34 34.0349 34.2985 34.3333 34.6667 34.3333Z" fill="#2D3C58"/>
<path d="M32 34.3333C32.3682 34.3333 32.6667 34.0349 32.6667 33.6667C32.6667 33.2985 32.3682 33 32 33C31.6319 33 31.3334 33.2985 31.3334 33.6667C31.3334 34.0349 31.6319 34.3333 32 34.3333Z" fill="#2D3C58"/>
<path d="M28 32.3333C28.3682 32.3333 28.6667 32.0349 28.6667 31.6667C28.6667 31.2985 28.3682 31 28 31C27.6319 31 27.3334 31.2985 27.3334 31.6667C27.3334 32.0349 27.6319 32.3333 28 32.3333Z" fill="#2D3C58"/>
<path d="M29.3333 34.3333C29.7015 34.3333 30 34.0349 30 33.6667C30 33.2985 29.7015 33 29.3333 33C28.9651 33 28.6666 33.2985 28.6666 33.6667C28.6666 34.0349 28.9651 34.3333 29.3333 34.3333Z" fill="#2D3C58"/>
<path d="M25.3333 32.3333C25.7015 32.3333 26 32.0349 26 31.6667C26 31.2985 25.7015 31 25.3333 31C24.9651 31 24.6666 31.2985 24.6666 31.6667C24.6666 32.0349 24.9651 32.3333 25.3333 32.3333Z" fill="#2D3C58"/>
<path d="M26.6667 34.3333C27.0349 34.3333 27.3333 34.0349 27.3333 33.6667C27.3333 33.2985 27.0349 33 26.6667 33C26.2985 33 26 33.2985 26 33.6667C26 34.0349 26.2985 34.3333 26.6667 34.3333Z" fill="#2D3C58"/>
<path d="M22.6667 32.3333C23.0349 32.3333 23.3333 32.0349 23.3333 31.6667C23.3333 31.2985 23.0349 31 22.6667 31C22.2985 31 22 31.2985 22 31.6667C22 32.0349 22.2985 32.3333 22.6667 32.3333Z" fill="#2D3C58"/>
<path d="M24 34.3333C24.3682 34.3333 24.6667 34.0349 24.6667 33.6667C24.6667 33.2985 24.3682 33 24 33C23.6319 33 23.3334 33.2985 23.3334 33.6667C23.3334 34.0349 23.6319 34.3333 24 34.3333Z" fill="#2D3C58"/>
</g>
<defs>
<clipPath id="clip0_758_23666">
<rect width="40" height="40" fill="white"/>
</clipPath>
</defs>
</svg>
