<svg width="40" height="40" viewBox="0 0 40 40" fill="none" xmlns="http://www.w3.org/2000/svg">
<g clip-path="url(#clip0_758_23797)">
<path d="M39.9999 24.9991H38.3334V5.83316C38.3334 5.37297 37.9602 4.99976 37.5 4.99976H31.6671V3.33325H37.5C38.8809 3.33325 39.9999 4.45229 39.9999 5.83316V24.9991Z" fill="#2D3C58"/>
<path d="M37.5 33.3322H2.50125C1.12069 33.3322 0.00134277 32.2128 0.00134277 30.8323V5.83316C0.00134277 4.45229 1.12069 3.33325 2.50125 3.33325H8.33448V4.99976H2.50125C2.04107 4.99976 1.66815 5.37297 1.66815 5.83316V30.8323C1.66815 31.2925 2.04107 31.6654 2.50125 31.6654H37.5C37.9602 31.6654 38.3334 31.2925 38.3334 30.8323V28.3324H4.16807V26.6656H39.1668C39.627 26.6656 39.9999 27.0388 39.9999 27.499V30.8323C39.9999 32.2128 38.8809 33.3322 37.5 33.3322Z" fill="#2D3C58"/>
<path d="M10.8344 38.332H29.1671V39.9985H10.8344V38.332Z" fill="#2D3C58"/>
<path d="M12.5009 39.9985V38.332C12.9513 38.361 13.3922 38.1947 13.7111 37.8755C14.0303 37.5566 14.1967 37.1156 14.1677 36.6652V32.4988H15.8342V36.6652C15.8604 37.5572 15.5177 38.4202 14.8869 39.0513C14.2559 39.6821 13.3929 40.0248 12.5009 39.9985Z" fill="#2D3C58"/>
<path d="M27.5003 39.9985C26.6086 40.0248 25.7453 39.6821 25.1146 39.0513C24.4835 38.4202 24.1408 37.5572 24.1673 36.6652V32.4988H25.8338V36.6652C25.8051 37.1156 25.9715 37.5563 26.2904 37.8752C26.6096 38.1944 27.0502 38.3607 27.5003 38.332V39.9985Z" fill="#2D3C58"/>
<path d="M20.0007 24.9991C13.0975 24.9991 7.5011 19.403 7.5011 12.4996C7.5011 5.59612 13.0975 0 20.0007 0C26.9041 0 32.5002 5.59612 32.5002 12.4996C32.4926 19.3996 26.9007 24.9912 20.0007 24.9991ZM20.0007 1.66651C14.0179 1.66651 9.16791 6.5168 9.16791 12.4996C9.16791 18.4823 14.0179 23.3326 20.0007 23.3326C25.9837 23.3326 30.8337 18.4823 30.8337 12.4996C30.8267 6.51955 25.9807 1.67352 20.0007 1.66651Z" fill="#2D3C58"/>
<path d="M20.0006 24.9991C16.6759 24.9991 14.1677 19.6252 14.1677 12.4996C14.1677 5.37396 16.6759 0 20.0006 0C23.3257 0 25.8339 5.37396 25.8339 12.4996C25.8339 19.6252 23.3257 24.9991 20.0006 24.9991ZM20.0006 1.66651C18.0299 1.66651 15.8342 6.11551 15.8342 12.4996C15.8342 18.8836 18.0299 23.3326 20.0006 23.3326C21.9714 23.3326 24.1674 18.8836 24.1674 12.4996C24.1674 6.11551 21.9714 1.66651 20.0006 1.66651Z" fill="#2D3C58"/>
<path d="M8.33447 11.6663H31.6671V13.3331H8.33447V11.6663Z" fill="#2D3C58"/>
<path d="M10.001 5.83325H30.0003V7.49976H10.001V5.83325Z" fill="#2D3C58"/>
<path d="M10.001 17.4993H30.0003V19.1658H10.001V17.4993Z" fill="#2D3C58"/>
</g>
<defs>
<clipPath id="clip0_758_23797">
<rect width="40" height="40" fill="white"/>
</clipPath>
</defs>
</svg>
