<svg width="40" height="40" viewBox="0 0 40 40" fill="none" xmlns="http://www.w3.org/2000/svg">
<g clip-path="url(#clip0_758_23781)">
<path d="M23.9503 5.87549H7.56592C7.24232 5.87549 6.97998 6.13775 6.97998 6.46143C6.97998 6.7851 7.24232 7.04736 7.56592 7.04736H23.9504C24.274 7.04736 24.5363 6.7851 24.5363 6.46143C24.5363 6.13775 24.274 5.87549 23.9503 5.87549Z" fill="#2D3C58"/>
<path d="M23.9503 8.76562H7.56592C7.24232 8.76562 6.97998 9.02789 6.97998 9.35156C6.97998 9.67523 7.24232 9.9375 7.56592 9.9375H23.9504C24.274 9.9375 24.5363 9.67523 24.5363 9.35156C24.5363 9.02789 24.274 8.76562 23.9503 8.76562Z" fill="#2D3C58"/>
<path d="M23.9503 19.1807C24.2739 19.1807 24.5362 18.9184 24.5362 18.5947C24.5362 18.2711 24.2739 18.0088 23.9503 18.0088H7.56592C7.24232 18.0088 6.97998 18.2711 6.97998 18.5947C6.97998 18.9184 7.24232 19.1807 7.56592 19.1807H23.9503Z" fill="#2D3C58"/>
<path d="M37.6123 13.0625C38.9288 13.0625 40 11.9914 40 10.6748V5.13798C40 3.82134 38.9289 2.75024 37.6123 2.75024H6.41914C5.10258 2.75024 4.03141 3.82134 4.03141 5.13798V10.6748C4.03141 11.9914 5.1025 13.0625 6.41914 13.0625H6.97992V14.8438H6.41914C5.10258 14.8438 4.03141 15.9149 4.03141 17.2316V18.7926C4.03141 19.1163 4.29375 19.3785 4.61734 19.3785C4.94094 19.3785 5.20328 19.1163 5.20328 18.7926V17.2316C5.20328 16.5612 5.74867 16.0157 6.41914 16.0157H37.6123C38.2827 16.0157 38.8281 16.5611 38.8281 17.2316V22.7684C38.8281 23.4388 38.2827 23.9842 37.6123 23.9842H23.3603V23.1824C23.3603 21.9259 22.3375 20.8912 21.0691 20.8912H2.29117C1.02687 20.8911 0 21.9216 0 23.1823V34.9467C0 36.2052 1.02516 37.2379 2.29117 37.2379H21.0691C22.3341 37.2379 23.3603 36.2066 23.3603 34.9467V28.1092H37.6123C38.2827 28.1092 38.8282 28.6546 38.8282 29.3251V34.8619C38.8282 35.5323 38.2828 36.0777 37.6123 36.0777H24.7191C24.3955 36.0777 24.1331 36.34 24.1331 36.6637C24.1331 36.9874 24.3955 37.2496 24.7191 37.2496H37.6123C38.9288 37.2496 40 36.1785 40 34.8619V29.3251C40 28.0084 38.9289 26.9374 37.6123 26.9374H37.2884V25.1559H37.6123C38.9288 25.1559 40 24.0849 40 22.7683V17.2314C40 15.9148 38.9289 14.8437 37.6123 14.8437H37.2884V13.0624H37.6123V13.0625ZM2.29117 22.063H21.0691C21.3384 22.063 21.5857 22.1586 21.779 22.3176L12.2255 29.5888C11.9045 29.8332 11.4559 29.8332 11.1348 29.5888L9.84953 28.6106C9.84906 28.6102 9.84852 28.6098 9.84805 28.6094L1.58133 22.3176C1.77461 22.1586 2.02195 22.063 2.29117 22.063ZM1.17188 34.9467V23.4786L8.54969 29.0938L1.22094 35.2739C1.18922 35.1704 1.17188 35.0606 1.17188 34.9467ZM21.0691 36.066H2.29117C2.23187 36.066 2.17398 36.06 2.11719 36.0511L9.50516 29.8211L10.425 30.5212C11.1639 31.0837 12.1962 31.0838 12.9353 30.5212L13.9149 29.7756L21.5675 35.9475C21.4171 36.0227 21.2483 36.066 21.0691 36.066ZM22.1884 34.9429L14.8753 29.0447L22.1884 23.4786V34.9429ZM36.1166 26.9374H23.3603V25.1559H36.1166V26.9374ZM36.1166 14.8438H8.1518V13.0624H36.1166V14.8438ZM6.41914 11.8906C5.74875 11.8906 5.20328 11.3452 5.20328 10.6748V5.13798C5.20328 4.46759 5.74867 3.92212 6.41914 3.92212H37.6123C38.2827 3.92212 38.8281 4.46751 38.8281 5.13798V10.6748C38.8281 11.3452 38.2827 11.8906 37.6123 11.8906H6.41914Z" fill="#2D3C58"/>
<path d="M34.2547 5.27075C32.8014 5.27075 31.6191 6.4531 31.6191 7.9063C31.6191 9.3595 32.8014 10.5418 34.2547 10.5418C35.7079 10.5418 36.8902 9.3595 36.8902 7.9063C36.8902 6.4531 35.7079 5.27075 34.2547 5.27075ZM34.2547 9.36997C33.4476 9.36997 32.791 8.71341 32.791 7.90638C32.791 7.09927 33.4476 6.44271 34.2547 6.44271C35.0617 6.44271 35.7183 7.09927 35.7183 7.90638C35.7183 8.71341 35.0617 9.36997 34.2547 9.36997Z" fill="#2D3C58"/>
<path d="M36.8902 19.9983C36.8902 18.545 35.7079 17.3628 34.2547 17.3628C32.8014 17.3628 31.6191 18.5451 31.6191 19.9983C31.6191 21.4515 32.8014 22.6338 34.2547 22.6338C35.7079 22.6338 36.8902 21.4515 36.8902 19.9983ZM32.791 19.9983C32.791 19.1912 33.4476 18.5347 34.2547 18.5347C35.0617 18.5347 35.7183 19.1912 35.7183 19.9983C35.7183 20.8054 35.0617 21.4619 34.2547 21.4619C33.4476 21.4619 32.791 20.8054 32.791 19.9983Z" fill="#2D3C58"/>
<path d="M36.8902 32.0936C36.8902 30.6403 35.7079 29.458 34.2547 29.458C32.8014 29.458 31.6191 30.6404 31.6191 32.0936C31.6191 33.5468 32.8014 34.729 34.2547 34.729C35.7079 34.7291 36.8902 33.5468 36.8902 32.0936ZM32.791 32.0936C32.791 31.2864 33.4476 30.6299 34.2547 30.6299C35.0617 30.6299 35.7183 31.2864 35.7183 32.0936C35.7183 32.9006 35.0617 33.5571 34.2547 33.5571C33.4476 33.5572 32.791 32.9006 32.791 32.0936Z" fill="#2D3C58"/>
</g>
<defs>
<clipPath id="clip0_758_23781">
<rect width="40" height="40" fill="white"/>
</clipPath>
</defs>
</svg>
