<svg width="37" height="39" viewBox="0 0 37 39" fill="none" xmlns="http://www.w3.org/2000/svg">
<path d="M11.876 34.6016H3.66546C3.26054 34.6016 2.93237 34.9297 2.93237 35.3346C2.93237 35.7396 3.26054 36.0677 3.66546 36.0677H11.876C12.2809 36.0677 12.6091 35.7396 12.6091 35.3346C12.6091 34.9297 12.2809 34.6016 11.876 34.6016Z" fill="#293B42"/>
<path d="M6.01132 25.218H3.66546C3.26054 25.218 2.93237 25.5462 2.93237 25.9511C2.93237 26.356 3.26054 26.6842 3.66546 26.6842H6.01132C6.41623 26.6842 6.7444 26.356 6.7444 25.9511C6.7444 25.5462 6.41623 25.218 6.01132 25.218Z" fill="#293B42"/>
<path d="M11.8759 25.218H9.53008C9.12517 25.218 8.797 25.5462 8.797 25.9511C8.797 26.356 9.12517 26.6842 9.53008 26.6842H11.8759C12.2809 26.6842 12.609 26.356 12.609 25.9511C12.609 25.5462 12.2809 25.218 11.8759 25.218Z" fill="#293B42"/>
<path d="M34.1617 22.2857H28.8835C28.689 22.2857 28.5026 22.363 28.3651 22.5005L25.6001 25.2656C25.5253 25.2399 25.4482 25.2181 25.3647 25.2181H20.2331V20.2331H30.6429C33.3106 20.2331 35.4812 18.0625 35.4812 15.3947C35.4812 12.9739 33.6937 10.9625 31.3653 10.6108C31.1698 7.08227 28.307 4.25303 24.7647 4.11099C24.1711 1.72676 22.0125 0 19.5 0C16.9663 0 14.8229 1.72217 14.2338 4.115C14.1336 4.1087 14.0317 4.10526 13.9286 4.10526C11.5532 4.10526 9.59765 5.93683 9.39978 8.2615C7.23661 9.31416 5.86466 11.4882 5.86466 13.9286C5.86466 17.287 8.48858 20.0533 11.8338 20.2262L11.8428 20.2264C11.8544 20.2269 11.8642 20.2331 11.8759 20.2331H18.7669V25.218H15.5414V24.7782C15.5414 23.4037 14.4231 22.2857 13.0489 22.2857H2.49248C1.11824 22.2857 0 23.4037 0 24.7782V27.1241C0 28.4484 1.04095 29.5241 2.34586 29.6017V31.684C1.04095 31.7616 0 32.8373 0 34.1617V36.5075C0 37.8821 1.11824 39 2.49248 39H13.0489C14.4231 39 15.5414 37.8821 15.5414 36.5075V34.1617C15.5414 32.8373 14.5004 31.7616 13.1955 31.684V29.6017C14.5004 29.5241 15.5414 28.4484 15.5414 27.1241V26.6842H24.1814L23.6734 27.1922C23.536 27.3297 23.4586 27.5164 23.4586 27.7105V36.5075C23.4586 37.8821 24.5769 39 25.9511 39H34.1617C35.5359 39 36.6541 37.8821 36.6541 36.5075V24.7782C36.6541 23.4037 35.5359 22.2857 34.1617 22.2857ZM7.33083 13.9286C7.33083 11.9275 8.53211 10.1601 10.3914 9.42642C10.7205 9.29641 10.9098 8.95049 10.8416 8.60342C10.8456 8.62289 10.8491 8.64523 10.8496 8.65038C10.8496 6.95284 12.2307 5.57143 13.9286 5.57143C14.1866 5.57143 14.4268 5.60064 14.6428 5.65849C14.8492 5.71405 15.0714 5.6751 15.2484 5.55311C15.4251 5.43112 15.5393 5.23754 15.5611 5.02392C15.767 2.99591 17.4602 1.46617 19.5 1.46617C21.4948 1.46617 23.1837 2.95696 23.4289 4.934C23.4761 5.31657 23.814 5.5932 24.1963 5.57602C24.2768 5.57144 24.3612 5.57144 24.4463 5.57144C27.4496 5.56629 29.9098 7.99176 29.9098 10.9963C29.9098 11.0816 29.9101 11.1623 29.9052 11.2477C29.8937 11.4487 29.9685 11.6463 30.1071 11.7929C30.2454 11.9395 30.4413 12.0226 30.6429 12.0226C32.5022 12.0226 34.015 13.5351 34.015 15.3947C34.015 17.2544 32.5022 18.7669 30.6429 18.7669H22.5789V13.1955H24.4764C24.7559 13.1955 25.011 13.0369 25.1341 12.786C25.2576 12.5352 25.2275 12.2362 25.0568 12.0146L20.0804 5.56342C19.8027 5.20375 19.1973 5.20375 18.9195 5.56342L13.9432 12.0146C13.7725 12.2362 13.7424 12.5352 13.8658 12.786C13.989 13.0369 14.2441 13.1955 14.5236 13.1955H16.421V18.7669H12.1692C12.0909 18.7675 12.0149 18.7668 11.9333 18.7627L11.918 18.7623H11.9137C9.34393 18.6295 7.33083 16.5058 7.33083 13.9286ZM17.1541 11.7293H16.015L19.5 7.21171L22.985 11.7293H21.8459C21.441 11.7293 21.1128 12.0575 21.1128 12.4624V18.7669H17.8872V12.4624C17.8872 12.0575 17.559 11.7293 17.1541 11.7293ZM11.7293 31.6692H3.81203V29.6165H11.7293V31.6692ZM14.0752 34.1617V36.5075C14.0752 37.0734 13.6147 37.5338 13.0489 37.5338H2.49248C1.92664 37.5338 1.46617 37.0734 1.46617 36.5075V34.1617C1.46617 33.5958 1.92664 33.1353 2.49248 33.1353H13.0489C13.6147 33.1353 14.0752 33.5958 14.0752 34.1617ZM14.0752 27.1241C14.0752 27.6899 13.6147 28.1504 13.0489 28.1504H2.49248C1.92664 28.1504 1.46617 27.6899 1.46617 27.1241V24.7782C1.46617 24.2124 1.92664 23.7519 2.49248 23.7519H13.0489C13.6147 23.7519 14.0752 24.2124 14.0752 24.7782V27.1241ZM35.188 36.5075C35.188 37.0734 34.7275 37.5338 34.1617 37.5338H25.9511C25.3853 37.5338 24.9248 37.0734 24.9248 36.5075V28.0141L29.187 23.7519H34.1617C34.7275 23.7519 35.188 24.2124 35.188 24.7782V36.5075Z" fill="#293B42"/>
<path d="M32.4022 34.0151H27.7105C27.3056 34.0151 26.9774 34.3433 26.9774 34.7482C26.9774 35.1531 27.3056 35.4813 27.7105 35.4813H32.4022C32.8071 35.4813 33.1353 35.1531 33.1353 34.7482C33.1353 34.3433 32.8071 34.0151 32.4022 34.0151Z" fill="#293B42"/>
<path d="M32.4022 30.4963H27.7105C27.3056 30.4963 26.9774 30.8245 26.9774 31.2294C26.9774 31.6343 27.3056 31.9625 27.7105 31.9625H32.4022C32.8071 31.9625 33.1353 31.6343 33.1353 31.2294C33.1353 30.8245 32.8071 30.4963 32.4022 30.4963Z" fill="#293B42"/>
</svg>
