<svg width="645" height="298" viewBox="0 0 645 298" fill="none" xmlns="http://www.w3.org/2000/svg">
<mask id="mask0_1260_2192" style="mask-type:luminance" maskUnits="userSpaceOnUse" x="-8" y="-27" width="654" height="394">
<path d="M646 366.409H-8V-26.5059H646V366.409Z" fill="white"/>
</mask>
<g mask="url(#mask0_1260_2192)">
<path d="M732.902 24.0756C718.292 65.4627 703.198 108.264 676.449 144.609C647.621 183.783 606.759 209.676 561.397 217.521C549.834 219.525 537.866 220.52 525.453 220.52C491.511 220.52 454.207 213.029 412.403 197.901C386.91 188.668 362.136 176.802 338.187 165.329C319.182 156.226 299.522 146.796 279.628 138.755C268.85 134.393 254.828 129.416 241.67 129.416C241.539 129.416 241.408 129.416 241.277 129.416C234.711 129.469 228.707 130.778 223.423 133.319C217.563 136.135 212.331 140.575 207.884 146.534C198.963 158.479 193.025 172.702 187.283 186.468C186.367 188.655 185.426 190.921 184.484 193.121C176.688 211.47 167.846 232.268 157.225 251.796C134.427 293.681 101.962 319.155 48.635 336.954C-1.43524 353.666 -82.5444 351.165 -132.17 331.362C-220.107 296.274 -234.979 271.534 -249.367 247.618C-253.461 240.808 -257.332 234.364 -262.865 227.776C-274.323 214.116 -270.399 199.146 -266.24 183.298C-264.618 177.103 -262.931 170.685 -262.094 164.124L-262.224 164.111C-263.061 170.672 -264.749 177.077 -266.371 183.272C-268.49 191.353 -270.491 198.988 -270.556 206.428C-270.622 214.797 -268.215 221.607 -262.97 227.868C-257.45 234.442 -253.578 240.886 -249.484 247.697C-242.421 259.445 -235.123 271.586 -218.563 285.22C-209.604 292.581 -198.852 299.666 -185.667 306.883C-170.795 315.029 -153.307 323.071 -132.222 331.493C-120.215 336.286 -106.128 340.15 -90.34 342.992C-75.0626 345.742 -58.8826 347.406 -42.258 347.93C-25.581 348.467 -9.32248 347.838 6.0596 346.057C22.0434 344.21 36.379 341.184 48.6612 337.085C75.0174 328.284 95.1736 318.238 112.073 305.455C130.45 291.559 145.257 274.035 157.317 251.862C167.951 232.334 176.78 211.522 184.589 193.173C185.517 190.973 186.472 188.707 187.388 186.52C193.13 172.768 199.055 158.544 207.976 146.626C226.471 121.872 253.324 128.277 279.575 138.899C299.47 146.94 319.129 156.357 338.135 165.46C362.084 176.933 386.858 188.812 412.364 198.045C438.851 207.633 462.866 214.011 485.769 217.534C498.744 219.525 511.471 220.586 523.583 220.677C536.598 220.782 549.324 219.761 561.423 217.678C584.483 213.697 606.235 205.21 626.078 192.479C645.371 180.102 662.362 164.032 676.567 144.714C688.483 128.526 699.156 109.509 709.214 86.5885C718.305 65.8687 725.8 44.6513 733.033 24.1411L732.902 24.0756Z" fill="url(#paint0_linear_1260_2192)" fill-opacity="0.2"/>
<path d="M732.852 31.122C714.095 72.8889 696.32 107.308 670.565 139.475C642.011 175.217 600.94 200.22 554.899 209.898C506.934 219.983 456.838 216.015 405.983 198.098C379.09 188.511 353.061 175.597 327.895 163.128C310.486 154.497 292.488 145.565 274.346 137.812C263.646 133.241 249.677 127.936 236.571 127.57C230.109 127.386 224.171 128.434 218.939 130.661C213.131 133.136 207.938 137.17 203.478 142.671C194.989 153.148 189.077 165.669 183.348 177.784C182.092 180.443 180.797 183.18 179.503 185.852C176.86 191.274 174.271 196.736 171.524 202.499C165.036 216.146 158.326 230.251 150.936 244.03C127.85 286.871 95.9867 313.104 44.4122 331.781C-4.28461 349.41 -83.4186 347.733 -131.972 328.061C-217.07 293.576 -231.746 269.216 -245.938 245.667C-249.94 239.027 -253.72 232.74 -259.057 226.283C-270.528 212.387 -267.062 197.168 -263.399 181.059C-261.987 174.837 -260.522 168.407 -259.868 161.832L-260.025 161.819C-260.692 168.38 -262.144 174.811 -263.556 181.032C-267.219 197.168 -270.685 212.426 -259.175 226.388C-253.851 232.832 -250.071 239.105 -246.068 245.745C-239.084 257.336 -231.864 269.32 -215.736 282.732C-207.025 289.975 -196.574 296.942 -183.795 304.028C-169.38 312.03 -152.442 319.941 -132.024 328.205C-105.969 338.775 -71.1234 344.145 -36.9061 344.145C-7.293 344.145 21.8623 340.124 44.4777 331.938C56.9691 327.419 67.917 322.626 77.9625 317.308C88.5703 311.69 97.9225 305.586 106.568 298.671C124.462 284.343 139.02 266.504 151.08 244.121C158.47 230.33 165.18 216.224 171.668 202.577C174.414 196.801 177.004 191.353 179.646 185.931C180.941 183.259 182.236 180.522 183.492 177.863C189.208 165.761 195.12 153.24 203.596 142.775C222.13 119.908 248.526 126.941 274.28 137.956C292.409 145.709 310.407 154.628 327.817 163.259C352.983 175.741 379.012 188.642 405.917 198.242C456.799 216.159 506.934 220.14 554.925 210.043C578.037 205.183 599.763 196.618 619.488 184.595C639.173 172.598 656.386 157.444 670.683 139.567C683.174 123.968 694.619 106.706 705.672 86.785C716.62 67.0607 726.024 46.7077 732.996 31.1875L732.852 31.122Z" fill="url(#paint1_linear_1260_2192)" fill-opacity="0.2"/>
<path d="M732.812 38.1683C712.421 73.9498 690.786 104.519 664.692 134.341C636.295 166.966 596.074 190.449 548.397 202.276C494.482 215.648 445.798 214.338 399.547 198.294C371.294 188.498 344.114 174.484 317.836 160.954C301.957 152.769 285.542 144.321 269.061 136.869C258.531 132.114 244.797 126.561 231.874 125.736C230.749 125.671 229.638 125.631 228.552 125.631C216.597 125.631 206.931 129.966 199.083 138.833C190.973 147.988 185.1 158.99 179.41 169.625C177.828 172.585 176.193 175.649 174.532 178.622C169.09 188.38 163.688 199.08 157.959 210.422C153.682 218.909 149.248 227.671 144.657 236.315C121.44 280.06 90.2048 307.079 40.2261 326.634C-7.11038 345.166 -84.2562 344.328 -131.75 324.774C-214.036 290.891 -228.516 266.897 -242.524 243.702C-246.435 237.232 -250.124 231.116 -255.251 224.79C-266.722 210.645 -263.74 195.177 -260.588 178.793C-259.384 172.545 -258.142 166.088 -257.645 159.514L-257.815 159.501C-258.299 166.075 -259.541 172.532 -260.745 178.766C-263.91 195.19 -266.905 210.697 -255.382 224.908C-250.268 231.208 -246.579 237.324 -242.668 243.794C-235.762 255.241 -228.62 267.068 -212.924 280.256C-204.448 287.381 -194.311 294.218 -181.925 301.186C-167.955 309.031 -151.566 316.811 -131.815 324.944C-120.174 329.738 -106.623 333.496 -91.5156 336.129C-76.9314 338.67 -61.5232 340.032 -45.7225 340.215C-29.9219 340.386 -14.5267 339.351 0.0444031 337.138C15.1387 334.846 28.6765 331.375 40.2915 326.817C52.4559 322.05 63.1815 317.007 73.0831 311.375C83.4294 305.482 92.5854 299.13 101.087 291.926C118.523 277.166 132.833 259 144.84 236.394C149.431 227.75 153.852 218.975 158.142 210.501C163.858 199.172 169.273 188.458 174.702 178.714C176.363 175.741 177.998 172.676 179.58 169.716C185.257 159.081 191.143 148.093 199.227 138.964C217.8 117.982 243.738 125.644 268.995 137.052C285.463 144.491 301.878 152.952 317.758 161.125C344.048 174.667 371.229 188.668 399.495 198.478C411.646 202.695 424.15 205.93 436.642 208.104C448.754 210.213 461.245 211.378 473.776 211.575C485.862 211.771 498.392 211.064 511.002 209.492C523.101 207.986 535.697 205.616 548.437 202.459C571.706 196.683 593.406 188.039 612.921 176.776C633.038 165.158 650.487 150.922 664.809 134.472C690.904 104.636 712.551 74.0676 732.943 38.273L732.812 38.1683Z" fill="url(#paint2_linear_1260_2192)" fill-opacity="0.2"/>
<path d="M732.759 45.2147C712.119 73.6617 688.3 98.4809 660.714 127.216L658.805 129.207C630.984 158.4 591.652 180.417 541.896 194.653C515.971 202.08 486.999 208.681 456.13 208.681C435.843 208.681 414.745 205.825 393.124 198.478C363.746 188.498 335.637 173.462 308.444 158.911C293.886 151.132 278.844 143.077 263.802 135.913C253.455 130.988 239.957 125.173 227.191 123.889C213.915 122.553 203.294 126.168 194.713 134.97C186.944 142.946 181.097 152.559 175.446 161.871C173.55 164.988 171.601 168.21 169.586 171.354C161.621 183.77 153.72 199.041 145.349 215.216C143.086 219.577 140.758 224.096 138.417 228.549C115.252 272.686 83.677 301.356 36.0266 321.487C-9.96272 340.91 -85.1335 340.91 -131.528 321.487C-211.002 288.22 -225.286 264.592 -239.098 241.751C-242.904 235.451 -246.515 229.492 -251.433 223.323C-262.917 208.942 -260.406 193.213 -257.75 176.566C-256.756 170.293 -255.723 163.823 -255.409 157.235L-255.605 157.222C-255.919 163.796 -256.952 170.28 -257.946 176.54C-260.615 193.226 -263.126 208.982 -251.59 223.441C-246.672 229.61 -243.075 235.556 -239.268 241.856C-232.44 253.159 -225.377 264.828 -210.113 277.794C-201.873 284.788 -192.036 291.507 -180.042 298.357C-166.53 306.058 -150.69 313.694 -131.607 321.683C-109.018 331.139 -79.2083 336.352 -47.6462 336.352C-47.5808 336.352 -47.5285 336.352 -47.4631 336.352C-32.1072 336.339 -17.1306 335.108 -2.9649 332.658C11.6716 330.144 24.817 326.45 36.105 321.683C59.8845 311.637 79.3345 299.693 95.5929 285.155C112.545 269.988 126.606 251.521 138.6 228.667C140.941 224.214 143.27 219.695 145.532 215.334C153.904 199.159 161.804 183.888 169.757 171.485C171.771 168.341 173.733 165.119 175.616 162.002C181.515 152.271 187.101 143.09 194.857 135.127C213.47 116.044 238.95 124.322 263.71 136.122C278.752 143.286 293.794 151.328 308.352 159.121C335.546 173.672 363.668 188.707 393.058 198.7C416.903 206.795 441.337 210.043 467.784 208.628C489.72 207.449 513.29 203.075 541.948 194.876C565.584 188.118 587.257 179.395 606.341 168.957C626.942 157.693 644.639 144.386 658.936 129.377L660.845 127.386C688.431 98.6511 712.263 73.832 732.903 45.3718L732.759 45.2147Z" fill="url(#paint3_linear_1260_2192)" fill-opacity="0.2"/>
<path d="M732.735 52.2475C719.472 66.4448 704.731 78.9264 689.126 92.1414C677.394 102.082 665.268 112.35 652.934 124.046C626.211 149.402 587.756 170.004 535.397 187.004C501.886 197.888 470.35 206.925 438.003 206.925C421.248 206.925 404.27 204.502 386.69 198.648C356.319 188.537 327.386 172.466 299.421 156.933C286.066 149.52 272.267 141.845 258.52 134.943C248.37 129.848 235.093 123.784 222.497 122.029C220.025 121.689 217.645 121.518 215.356 121.518C205.533 121.518 197.305 124.675 190.347 131.092C182.852 137.995 177.293 146.023 171.42 154.51C169.249 157.654 166.986 160.902 164.644 164.084C154.364 177.967 144.331 197.338 133.697 217.848L132.167 220.795C108.741 265.941 77.8063 295.41 31.8432 316.326C-13.5575 336.993 -85.2228 337.805 -131.304 318.199C-207.966 285.574 -222.053 262.287 -235.682 239.786C-239.227 233.918 -242.902 227.867 -247.624 221.843C-259.108 207.213 -257.081 191.235 -254.949 174.313C-254.151 168.026 -253.327 161.517 -253.183 154.929H-253.392C-253.536 161.517 -254.36 168.013 -255.158 174.3C-257.303 191.261 -259.344 207.279 -247.794 221.987C-243.072 227.998 -239.41 234.062 -235.865 239.917C-222.223 262.457 -208.109 285.77 -131.408 318.421C-109.172 327.891 -79.9777 332.881 -49.2005 332.488C-34.2762 332.291 -19.7443 330.851 -5.98418 328.192C8.20761 325.455 20.9475 321.538 31.9086 316.548C54.9686 306.058 74 293.563 90.0753 278.37C106.53 262.824 120.342 244.042 132.337 220.926L133.867 217.979C144.488 197.482 154.534 178.124 164.788 164.255C167.143 161.085 169.392 157.824 171.564 154.68C177.437 146.193 182.983 138.191 190.464 131.302C198.993 123.444 209.457 120.497 222.458 122.304C235.028 124.046 248.278 130.11 258.415 135.192C272.162 142.094 285.961 149.756 299.316 157.169C327.294 172.715 356.24 188.786 386.625 198.897C399.195 203.075 411.686 205.615 424.779 206.65C436.669 207.593 448.781 207.253 461.796 205.642C487.289 202.472 513.187 194.483 535.476 187.253C560.157 179.238 581.19 170.672 599.764 161.085C610.031 155.781 619.606 150.096 628.226 144.203C637.369 137.942 645.74 131.223 653.091 124.243C665.412 112.547 677.537 102.279 689.27 92.3379C704.875 79.1228 719.616 66.6281 732.892 52.4308L732.735 52.2475Z" fill="url(#paint4_linear_1260_2192)" fill-opacity="0.2"/>
<path d="M732.695 59.294C721.132 68.6978 708.536 76.6215 695.195 85.0168C679.368 94.9838 662.992 105.278 647.06 118.912C615.825 145.644 571.811 163.783 528.909 179.395C526.463 180.286 524.03 181.176 521.61 182.067C488.635 194.129 456.943 205.72 423.419 205.72C409.436 205.72 395.126 203.703 380.281 198.871C349.006 188.681 319.38 171.576 290.722 155.034C278.479 147.962 265.818 140.667 253.248 134.026C243.281 128.761 230.24 122.449 217.801 120.222C214.609 119.659 211.562 119.371 208.671 119.371C199.894 119.371 192.413 121.977 185.964 127.255C178.679 133.214 173.133 140.182 167.273 147.556C164.853 150.607 162.342 153.764 159.686 156.842C148.333 170.057 137.228 190.973 125.901 213.055C102.2 259.249 71.9065 289.516 27.6438 311.179C4.17828 322.665 -26.5859 328.493 -56.9838 328.493C-83.667 328.493 -110.076 324.001 -131.082 314.912C-204.919 282.941 -218.823 259.995 -232.269 237.808C-235.722 232.111 -239.293 226.217 -243.819 220.35C-255.303 205.472 -253.772 189.231 -252.151 172.048C-251.549 165.735 -250.934 159.212 -250.96 152.611H-251.196C-251.17 159.199 -251.784 165.722 -252.386 172.021C-254.021 189.257 -255.564 205.524 -244.015 220.481C-239.489 226.348 -235.918 232.229 -232.478 237.913C-219.019 260.126 -205.089 283.112 -131.213 315.108C-109.382 324.564 -80.8679 329.345 -50.9409 328.559C-36.4613 328.179 -22.348 326.529 -8.9933 323.66C4.74069 320.701 17.1013 316.562 27.7092 311.375C72.0242 289.686 102.357 259.393 126.084 213.147C137.398 191.078 148.503 170.175 159.83 156.973C162.486 153.882 164.997 150.725 167.417 147.674C173.277 140.3 178.809 133.345 186.082 127.412C194.61 120.445 204.969 118.166 217.735 120.432C230.148 122.645 243.163 128.958 253.117 134.21C265.687 140.837 278.335 148.145 290.578 155.218C319.249 171.759 348.889 188.877 380.176 199.067C392.354 203.035 404.387 205.236 416.983 205.812C428.271 206.323 439.795 205.498 452.208 203.297C475.372 199.198 497.857 190.973 521.662 182.263C524.082 181.373 526.528 180.482 528.961 179.592C547.312 172.912 571.196 163.875 593.145 153.201C615.25 142.448 632.934 131.276 647.191 119.083C663.11 105.462 679.473 95.1671 695.286 85.2002C708.628 76.8049 721.237 68.868 732.813 59.4511L732.695 59.294Z" fill="url(#paint5_linear_1260_2192)" fill-opacity="0.2"/>
<path d="M732.668 66.3272C721.655 72.8889 709.726 78.0753 697.104 83.55C678.413 91.6702 659.067 100.066 641.2 113.765C612.738 135.572 574.963 150.699 534.977 166.717C530.87 168.367 526.619 170.07 522.42 171.759C516.129 174.3 509.851 176.933 503.768 179.487C472.9 192.453 443.26 204.908 411.162 204.908C399.128 204.908 386.768 203.166 373.845 199.041C341.759 188.799 311.505 170.659 282.258 153.122C271.036 146.39 259.447 139.436 247.963 133.07C238.179 127.648 225.387 121.073 213.078 118.388C200.456 115.625 190.149 117.262 181.569 123.378C174.427 128.473 168.855 134.511 162.956 140.889C160.327 143.731 157.606 146.678 154.715 149.573C142.59 161.662 130.687 183.495 119.622 205.301C95.6331 252.595 65.9676 283.662 23.4184 306.019C-19.3009 328.467 -87.0815 330.929 -130.886 311.611C-201.872 280.322 -215.592 257.703 -228.856 235.818C-232.204 230.291 -235.67 224.58 -240.013 218.857C-251.51 203.717 -250.464 187.24 -249.352 169.782C-248.946 163.456 -248.541 156.907 -248.724 150.306L-248.986 150.319C-248.803 156.907 -249.208 163.456 -249.614 169.769C-250.725 187.266 -251.772 203.795 -240.222 219.014C-235.893 224.724 -232.426 230.422 -229.078 235.949C-222.473 246.846 -215.645 258.109 -201.662 270.42C-194.128 277.048 -185.221 283.413 -174.404 289.87C-162.252 297.126 -148.047 304.316 -130.991 311.834C-109.553 321.277 -81.7448 325.848 -52.6549 324.682C-38.6201 324.119 -24.9384 322.259 -11.9761 319.168C1.31319 315.999 13.2683 311.637 23.5492 306.228C66.1377 283.845 95.8423 252.752 119.857 205.406C130.91 183.625 142.8 161.806 154.899 149.743C157.802 146.849 160.523 143.902 163.152 141.06C169.038 134.681 174.597 128.67 181.726 123.588C190.241 117.511 200.482 115.887 213.039 118.637C225.308 121.322 238.087 127.884 247.858 133.293C259.329 139.658 270.931 146.613 282.141 153.345C311.401 170.895 341.655 189.048 373.779 199.29C421.26 214.443 461.389 197.587 503.873 179.736C509.942 177.182 516.234 174.549 522.512 172.008C526.711 170.319 530.962 168.616 535.069 166.966C575.067 150.948 612.856 135.808 641.357 113.975C659.211 100.301 678.53 91.906 697.208 83.7857C709.844 78.298 721.773 73.1115 732.799 66.5367L732.668 66.3272Z" fill="url(#paint6_linear_1260_2192)" fill-opacity="0.2"/>
<path d="M732.641 73.3602C721.732 77.8264 709.96 80.9435 697.482 84.2309C676.358 89.8103 654.514 95.573 635.313 108.631C612.606 124.072 583.948 135.821 553.615 148.263C541.281 153.318 528.541 158.544 515.906 164.15C507.155 168.027 498.509 172.205 490.164 176.252C460.473 190.606 432.01 204.371 400.396 204.371C389.801 204.371 378.866 202.826 367.408 199.25C334.565 188.982 303.774 169.795 274.004 151.236C263.749 144.845 253.142 138.231 242.678 132.14C233.09 126.561 220.533 119.75 208.356 116.581C195.943 113.359 185.74 114.328 177.173 119.541C170.07 123.863 164.42 129.063 158.442 134.563C155.669 137.117 152.805 139.75 149.731 142.343C136.455 153.554 123.872 176.566 113.329 197.587C89.0267 246.033 59.9892 277.886 19.1927 300.897C-22.1925 324.237 -88.0372 327.511 -130.704 308.35C-198.851 277.755 -212.389 255.437 -225.482 233.853C-228.726 228.496 -232.087 222.956 -236.234 217.403C-247.718 202.001 -247.182 185.262 -246.593 167.555C-246.384 161.216 -246.174 154.654 -246.528 148.04L-246.802 148.053C-246.449 154.654 -246.671 161.203 -246.868 167.542C-247.443 185.315 -247.993 202.092 -236.443 217.573C-232.31 223.113 -228.948 228.653 -225.704 233.997C-219.164 244.776 -212.415 255.909 -198.864 268.01C-191.565 274.52 -182.959 280.767 -172.547 287.106C-160.84 294.218 -147.198 301.251 -130.809 308.612C-109.776 318.055 -82.6482 322.39 -54.4085 320.844C-40.8184 320.098 -27.5684 318.029 -15.0116 314.715C-2.18007 311.323 9.38266 306.752 19.3365 301.146C60.1854 278.121 89.2491 246.217 113.578 197.718C124.107 176.723 136.664 153.751 149.914 142.566C152.988 139.972 155.852 137.34 158.625 134.786C164.59 129.298 170.24 124.112 177.317 119.803C185.819 114.629 195.943 113.66 208.277 116.869C220.415 120.025 232.959 126.823 242.534 132.402C252.998 138.492 263.592 145.107 273.847 151.498C303.63 170.07 334.434 189.27 367.317 199.538C378.801 203.127 389.775 204.673 400.396 204.673C432.063 204.673 460.551 190.894 490.269 176.527C498.627 172.493 507.26 168.315 516.01 164.425C528.632 158.819 541.385 153.594 553.72 148.538C584.065 136.096 612.737 124.334 635.47 108.88C654.632 95.8612 676.45 90.0984 697.548 84.519C710.026 81.2185 721.811 78.1145 732.733 73.6353L732.641 73.3602Z" fill="url(#paint7_linear_1260_2192)" fill-opacity="0.2"/>
<path d="M732.616 80.4067C721.603 83.144 709.713 84.5192 697.143 85.9599C673.795 88.6449 649.663 91.4346 629.441 103.484C610.893 114.538 588.448 123.47 564.695 132.926C546.605 140.117 527.901 147.556 509.406 156.514C498.968 161.57 488.766 167.202 478.903 172.65C449.957 188.642 422.241 203.965 390.652 203.965C381.156 203.965 371.32 202.59 360.987 199.421C327.45 189.153 296.189 168.904 265.948 149.311C256.596 143.247 246.929 136.987 237.407 131.171C223.464 122.645 213.039 117.577 203.635 114.734C191.431 111.041 181.346 111.342 172.805 115.664C165.637 119.292 159.817 123.745 153.656 128.46C150.831 130.621 147.914 132.848 144.788 135.061C138.47 139.527 132.035 146.823 125.115 157.379C119.648 165.709 113.919 176.016 107.065 189.821C82.4222 239.472 54.0256 272.136 14.9949 295.724C-25.0823 319.941 -88.9781 324.027 -130.481 305.049C-195.789 275.175 -209.157 253.145 -222.067 231.849C-225.206 226.663 -228.463 221.306 -232.413 215.923C-243.898 200.259 -243.858 183.272 -243.806 165.29C-243.793 158.924 -243.767 152.35 -244.29 145.735L-244.591 145.762C-244.081 152.363 -244.094 158.937 -244.12 165.29C-244.159 183.324 -244.211 200.364 -232.662 216.107C-228.725 221.476 -225.481 226.833 -222.329 232.007C-215.867 242.668 -209.183 253.682 -196.064 265.575C-189.001 271.979 -180.695 278.095 -170.676 284.304C-159.427 291.271 -146.321 298.147 -130.612 305.325C-109.985 314.754 -83.5499 318.88 -56.1473 316.929C-29.3725 315.03 -4.06271 307.59 15.1387 295.986C35.452 283.714 52.7568 269.045 68.0473 251.142C82.3699 234.364 95.2276 214.352 107.327 189.965C117.934 168.59 130.701 145.382 144.945 135.323C148.071 133.11 150.988 130.883 153.813 128.709C159.96 124.007 165.768 119.554 172.91 115.952C181.385 111.67 191.392 111.368 203.517 115.049C212.908 117.891 223.294 122.946 237.224 131.46C246.733 137.275 256.399 143.535 265.752 149.599C296.006 169.206 327.28 189.467 360.869 199.748C405.708 213.474 441.324 193.789 479.021 172.951C488.883 167.503 499.086 161.871 509.51 156.816C528.005 147.87 546.697 140.431 564.773 133.241C588.553 123.785 610.998 114.852 629.572 103.785C649.728 91.762 673.834 88.9854 697.156 86.3005C709.739 84.8467 721.629 83.4846 732.668 80.7342L732.616 80.4067Z" fill="url(#paint8_linear_1260_2192)" fill-opacity="0.2"/>
<path d="M732.6 87.4402C721.351 88.6451 709.239 88.4618 696.408 88.2653C691.647 88.1867 686.859 88.1212 682.072 88.1212C661.301 88.1212 640.713 89.5095 623.578 98.337C608.301 106.208 590.447 112.849 571.546 119.869C549.048 128.225 525.779 136.869 502.902 148.879C491.248 154.995 479.973 162.055 469.064 168.878C432.924 191.497 398.772 212.859 354.549 199.604C320.358 189.362 288.665 168.014 258.018 147.373C249.529 141.649 240.74 135.743 232.12 130.216C218.464 121.467 208.21 116.123 198.884 112.888C186.889 108.723 176.922 108.369 168.42 111.788C160.991 114.774 154.87 118.572 148.382 122.606C145.661 124.296 142.836 126.051 139.841 127.793C133.117 131.696 126.381 138.689 119.253 149.206C113.589 157.549 107.729 167.988 100.81 182.067C75.8009 233.002 48.0321 266.465 10.7933 290.564C-28.6167 316.064 -89.2556 320.871 -130.261 301.749C-192.732 272.595 -205.916 250.841 -218.669 229.806C-221.704 224.803 -224.843 219.617 -228.597 214.417C-240.081 198.491 -240.539 181.242 -241.036 162.985C-241.206 156.606 -241.389 150.018 -242.056 143.404L-242.37 143.431C-241.703 150.032 -241.52 156.619 -241.35 162.985C-240.853 181.295 -240.395 198.583 -228.845 214.588C-225.105 219.787 -221.965 224.961 -218.931 229.951C-212.535 240.507 -205.929 251.417 -193.229 263.099C-186.401 269.386 -178.396 275.398 -168.769 281.462C-157.965 288.272 -145.408 294.991 -130.379 301.998C-120.033 306.831 -108.339 310.21 -95.6256 312.057C-83.4874 313.812 -70.7867 314.126 -57.8636 312.987C-32.0568 310.708 -7.61028 302.823 10.9764 290.8C30.6226 278.083 47.4958 262.864 62.564 244.266C76.3241 227.292 88.9201 206.978 101.098 182.172C108.004 168.106 113.851 157.68 119.514 149.351C126.63 138.886 133.327 131.905 139.998 128.041C143.006 126.299 145.818 124.544 148.552 122.855C155.026 118.834 161.135 115.049 168.538 112.063C176.975 108.671 186.863 109.037 198.779 113.176C208.092 116.398 218.321 121.742 231.95 130.464C240.57 135.991 249.346 141.898 257.848 147.622C288.508 168.276 320.227 189.624 354.457 199.893C365.13 203.088 375.464 204.385 386.045 203.861C395.502 203.389 404.972 201.451 414.992 197.941C433.63 191.406 450.922 180.587 469.234 169.127C480.13 162.304 491.405 155.257 503.046 149.141C525.91 137.144 549.166 128.5 571.651 120.144C590.564 113.111 608.432 106.483 623.722 98.599C644.716 87.7676 670.993 88.1736 696.395 88.5666C709.239 88.763 721.364 88.9464 732.626 87.7414L732.6 87.4402Z" fill="url(#paint9_linear_1260_2192)" fill-opacity="0.2"/>
<path d="M652.291 87.1385C639.813 87.1385 628.028 88.684 617.707 93.2025C605.138 98.7033 590.893 103.484 575.799 108.552C550.908 116.908 522.707 126.365 496.404 141.269C483.847 148.381 471.813 156.829 460.172 165.001C425.196 189.545 392.169 212.727 348.129 199.814C313.323 189.598 281.25 167.149 250.251 145.447C242.573 140.077 234.633 134.511 226.864 129.298C209.729 117.799 190.488 106.627 173.576 106.627C170.306 106.627 167.128 107.046 164.067 107.963C156.049 110.36 149.352 113.608 142.249 117.039C139.895 118.179 137.462 119.358 134.898 120.549C127.77 123.863 120.72 130.569 113.356 141.046C107.522 149.35 101.544 159.919 94.5466 174.339C68.779 227.357 42.4751 260.571 6.59662 285.43C-31.4924 311.807 -90.2346 317.413 -130.037 298.475C-189.682 270.093 -202.121 249.543 -215.279 227.802C-218.196 222.982 -221.218 217.992 -224.776 212.963C-236.247 196.762 -237.228 179.264 -238.261 160.732C-238.614 154.34 -238.993 147.739 -239.804 141.138L-240.145 141.177C-239.32 147.778 -238.954 154.379 -238.601 160.758C-237.568 179.33 -236.587 196.88 -225.05 213.16C-221.506 218.176 -218.484 223.153 -215.567 227.972C-209.236 238.424 -202.696 249.229 -190.427 260.715C-183.835 266.871 -176.131 272.765 -166.897 278.711C-156.55 285.377 -144.543 291.926 -130.181 298.763C-120.018 303.596 -108.586 306.922 -96.2122 308.651C-84.4271 310.288 -72.1057 310.445 -59.5882 309.109C-34.7493 306.451 -11.166 298.134 6.80591 285.692C25.7981 272.542 42.2397 256.76 57.0724 237.468C70.414 220.114 82.4214 200.102 94.8736 174.47C101.871 160.077 107.836 149.507 113.656 141.23C120.981 130.804 127.979 124.125 135.055 120.851C137.619 119.659 140.052 118.48 142.406 117.341C149.496 113.909 156.18 110.661 164.171 108.277C182.941 102.685 206.302 115.9 226.681 129.573C234.463 134.799 242.39 140.352 250.068 145.722C281.094 167.45 313.192 189.912 348.05 200.141C358.684 203.258 368.926 204.398 379.364 203.599C388.69 202.891 397.976 200.639 407.76 196.723C425.968 189.441 442.684 177.705 460.368 165.289C471.996 157.13 484.03 148.682 496.573 141.57C522.851 126.692 551.039 117.223 575.917 108.88C591.011 103.811 605.268 99.0307 617.851 93.5168C639.577 84.0083 667.948 87.7148 695.39 91.2903C708.574 93.006 721.013 94.6432 732.576 94.8265V94.486C721.026 94.2896 708.587 92.6655 695.429 90.9498C680.936 89.0638 666.195 87.1385 652.291 87.1385Z" fill="url(#paint10_linear_1260_2192)" fill-opacity="0.2"/>
<path d="M635.507 84.4011C627.005 84.4011 619.013 85.4489 611.845 88.0552C601.616 91.7617 590.315 95.0753 578.347 98.5723C550.513 106.719 518.977 115.939 489.9 133.646C476.65 141.714 464.08 151.524 451.916 161.02C417.895 187.581 385.77 212.662 341.704 199.997C306.309 189.833 273.91 166.245 242.57 143.443C235.677 138.427 228.549 133.24 221.577 128.342C208.693 119.292 198.465 113.215 189.387 109.233C177.785 104.139 168.067 102.449 159.682 104.086C150.383 105.894 142.848 108.618 134.124 111.774C132.764 112.272 131.364 112.77 129.939 113.28C122.378 115.978 115.027 122.383 107.441 132.848C101.476 141.086 95.3811 151.799 88.2787 166.586C62.0664 221.083 36.3773 255.083 2.38232 280.269C-34.3856 307.498 -91.2182 313.916 -129.817 295.161C-186.624 267.565 -198.906 247.238 -211.907 225.72C-214.706 221.083 -217.61 216.29 -220.972 211.457C-232.43 194.981 -233.934 177.221 -235.517 158.426C-236.053 152.035 -236.615 145.421 -237.583 138.82L-237.937 138.872C-236.969 145.473 -236.406 152.074 -235.87 158.466C-234.274 177.312 -232.783 195.125 -221.26 211.679C-217.898 216.499 -215.007 221.293 -212.208 225.929C-205.943 236.289 -199.468 247.003 -187.618 258.305C-181.248 264.382 -173.845 270.158 -165.016 275.96C-155.114 282.47 -143.656 288.861 -129.974 295.514C-119.994 300.36 -108.837 303.635 -96.8033 305.246C-85.3714 306.778 -73.4424 306.765 -61.3304 305.233C-37.4594 302.207 -14.7525 293.445 2.60468 280.584C20.9428 267.002 36.9397 250.67 51.537 230.657C64.2377 213.251 76.0096 192.95 88.6057 166.769C95.7081 152.009 101.79 141.308 107.742 133.083C115.276 122.684 122.588 116.319 130.069 113.647C131.495 113.136 132.895 112.639 134.255 112.141C142.966 108.998 150.5 106.273 159.761 104.466C168.08 102.842 177.72 104.518 189.256 109.587C198.308 113.569 208.51 119.633 221.381 128.67C228.352 133.568 235.481 138.754 242.361 143.771C273.727 166.599 306.152 190.2 341.599 200.377C352.246 203.441 362.449 204.411 372.795 203.337C382.042 202.38 391.211 199.813 400.812 195.491C418.693 187.437 434.925 174.759 452.125 161.334C464.276 151.838 476.846 142.029 490.083 133.987C519.121 116.319 550.644 107.099 578.452 98.9521C590.42 95.4551 601.721 92.1416 611.963 88.435C634.356 80.3148 664.78 87.4004 694.197 94.2633C707.774 97.4328 720.592 100.419 732.508 101.938L732.547 101.585C720.658 100.065 707.839 97.0792 694.275 93.9227C674.21 89.1947 653.675 84.4011 635.507 84.4011Z" fill="url(#paint11_linear_1260_2192)" fill-opacity="0.2"/>
<path d="M622.39 80.8126C616.543 80.8126 611.05 81.4544 605.988 82.9213C597.826 85.2788 589.049 87.4267 579.749 89.7056C549.312 97.1448 514.807 105.579 483.415 126.024C469.642 134.996 456.666 146.168 444.136 156.973C416.628 180.679 390.364 203.297 357.023 203.297C350.104 203.297 342.883 202.328 335.284 200.193C299.327 190.082 266.627 165.342 235 141.4C228.865 136.751 222.521 131.957 216.308 127.399C203.699 118.126 193.641 111.774 184.629 107.374C174.622 102.488 166.003 100.092 158.429 100.092C157.37 100.092 156.336 100.144 155.316 100.236C144.054 101.27 134.925 103.471 124.997 106.025C117.005 108.081 109.327 114.171 101.518 124.636C95.436 132.795 89.2361 143.666 82.0028 158.846C62.2128 200.416 38.3549 243.27 -1.82687 275.122C-32.748 299.627 -86.5591 313.261 -129.618 291.887C-183.573 265.103 -195.712 244.973 -208.556 223.664C-211.238 219.224 -214.011 214.626 -217.176 209.99C-228.634 193.226 -230.648 175.204 -232.794 156.134C-233.513 149.743 -234.258 143.129 -235.383 136.515L-235.763 136.58C-234.638 143.168 -233.892 149.782 -233.186 156.174C-231.041 175.296 -229.013 193.357 -217.503 210.2C-214.351 214.823 -211.578 219.42 -208.896 223.86C-202.409 234.613 -196.287 244.776 -184.855 255.883C-178.708 261.855 -171.618 267.513 -163.169 273.197C-153.712 279.549 -142.803 285.783 -129.802 292.24C-120.005 297.099 -109.109 300.321 -97.4286 301.814C-86.3499 303.229 -74.8133 303.059 -63.1067 301.317C-40.2036 297.911 -18.3731 288.717 -1.60452 275.437C16.0796 261.423 31.6449 244.527 45.9936 223.808C58.0141 206.454 69.5507 185.865 82.3298 159.029C89.55 143.876 95.7368 133.031 101.806 124.885C109.562 114.499 117.175 108.461 125.075 106.418C134.99 103.864 144.107 101.663 155.342 100.629C163.583 99.869 173.105 102.2 184.445 107.74C193.431 112.128 203.477 118.48 216.06 127.727C222.26 132.285 228.604 137.091 234.738 141.728C266.392 165.682 299.118 190.449 335.14 200.573C345.84 203.586 356.042 204.398 366.336 203.062C375.531 201.87 384.609 198.988 394.092 194.234C411.71 185.394 427.563 171.733 444.345 157.274C456.876 146.482 469.825 135.31 483.585 126.352C514.925 105.946 549.391 97.5115 579.802 90.0854C589.101 87.8065 597.891 85.6586 606.066 83.3011C629.087 76.6346 661.525 87.1648 692.891 97.3544C706.9 101.899 720.137 106.195 732.432 108.985L732.511 108.618C720.242 105.841 707.018 101.545 693.009 97.0007C668.484 88.9984 643.266 80.8126 622.39 80.8126Z" fill="url(#paint12_linear_1260_2192)" fill-opacity="0.2"/>
<path d="M611.178 76.6608C607.293 76.6608 603.592 77.0145 600.126 77.7741C593.86 79.1493 587.281 80.4197 580.309 81.7556C564.587 84.7811 546.772 88.2126 529.114 93.7003C508.853 100 491.784 108.081 476.925 118.402C462.733 128.251 449.496 140.758 436.704 152.86C404.161 183.612 373.436 212.649 328.872 200.39C292.379 190.344 259.405 164.399 227.516 139.318C222.1 135.061 216.515 130.66 211.061 126.469C201.879 119.41 190.447 110.635 179.839 104.597C169.898 98.9522 161.488 96.1756 154.281 96.1756C153.143 96.1756 152.044 96.2411 150.958 96.3852C146.001 97.0139 141.344 97.1972 136.845 97.3806C131.508 97.5901 126.002 97.7997 120.076 98.782C111.653 100.17 103.648 105.946 95.6168 116.411C89.3384 124.596 83.2039 135.297 75.7614 151.105C52.4136 200.639 29.5759 239.812 -6.01479 269.988C-35.7979 295.253 -87.7386 309.751 -129.385 288.612C-180.502 262.654 -192.496 242.707 -205.197 221.581C-207.748 217.338 -210.39 212.95 -213.346 208.523C-224.791 191.471 -227.341 173.187 -230.049 153.829C-230.938 147.438 -231.867 140.824 -233.136 134.223L-233.528 134.302C-232.26 140.876 -231.344 147.49 -230.441 153.882C-227.734 173.279 -225.17 191.615 -213.673 208.746C-210.717 213.16 -208.075 217.547 -205.524 221.778C-199.102 232.465 -193.046 242.55 -182.019 253.486C-176.094 259.353 -169.306 264.907 -161.248 270.46C-152.236 276.668 -141.864 282.719 -129.542 288.979C-119.929 293.864 -109.308 297.021 -97.9672 298.396C-87.2416 299.693 -76.0844 299.352 -64.7963 297.414C-42.8742 293.642 -21.907 284.015 -5.74011 270.303C11.2901 255.856 26.4236 238.411 40.5108 216.958C55.1473 194.666 67.2332 170.162 76.1276 151.302C87.4549 127.268 101.555 102.279 120.142 99.2011C126.028 98.2319 131.534 98.0092 136.858 97.7997C141.371 97.6294 146.027 97.4461 151.011 96.8043C168.812 94.5385 191.127 111.683 210.812 126.81C216.267 131.001 221.865 135.402 227.267 139.658C259.182 164.766 292.183 190.737 328.755 200.809C339.533 203.769 349.761 204.437 360.042 202.839C369.224 201.411 378.236 198.19 387.615 193.003C405.037 183.364 420.55 168.708 436.966 153.188C449.758 141.099 462.982 128.604 477.147 118.768C510.436 95.6517 547.609 88.5007 580.388 82.1878C587.359 80.8519 593.952 79.5815 600.217 78.2063C623.826 73.0329 658.266 87.0469 691.581 100.602C706.047 106.496 719.716 112.062 732.417 116.057L732.534 115.677C719.86 111.683 706.191 106.116 691.738 100.236C663.223 88.5924 633.911 76.6608 611.178 76.6608Z" fill="url(#paint13_linear_1260_2192)" fill-opacity="0.2"/>
<path d="M601.161 72.1427C598.767 72.1427 596.465 72.2999 594.255 72.6404C589.768 73.3215 585.151 73.9501 580.259 74.6181C563.595 76.9101 544.721 79.4902 525.859 84.716C504.16 90.7276 486.018 99.2539 470.4 110.779C455.881 121.493 442.474 135.323 429.486 148.683C397.545 181.596 367.369 212.675 322.413 200.574C285.397 190.607 252.173 163.43 220.062 137.144C215.366 133.293 210.501 129.312 205.753 125.514C188.029 111.277 165.296 94.6699 146.592 92.5088C143.989 92.2076 141.438 91.8016 138.966 91.4218C130.843 90.1382 123.165 88.9333 115.056 91.5135C106.305 94.3031 97.8687 100.433 89.9815 109.745C82.8267 118.192 75.9205 129.495 69.459 143.339C49.3289 186.481 26.5827 231.391 -10.2505 264.815C-38.9088 290.826 -88.966 306.215 -129.187 285.299C-177.465 260.205 -189.329 240.389 -201.886 219.42C-204.305 215.387 -206.791 211.222 -209.564 207.017C-220.996 189.664 -224.082 171.105 -227.352 151.472C-228.412 145.081 -229.524 138.48 -230.923 131.905L-231.342 131.997C-229.929 138.558 -228.83 145.159 -227.771 151.551C-224.488 171.236 -221.388 189.834 -209.917 207.253C-207.157 211.444 -204.659 215.609 -202.252 219.643C-195.895 230.265 -189.891 240.297 -179.27 251.063C-173.567 256.839 -167.08 262.288 -159.415 267.697C-150.847 273.748 -141.024 279.641 -129.383 285.679C-119.952 290.577 -109.606 293.695 -98.606 294.939C-88.2466 296.118 -77.4687 295.62 -66.5992 293.472C-45.6581 289.333 -25.5411 279.261 -9.97588 265.13C6.40028 250.264 21.0891 232.256 34.9278 210.056C48.4133 188.419 60.146 164.281 69.8252 143.522C83.3369 114.564 98.6012 97.2107 115.16 91.9194C123.165 89.3655 130.791 90.5704 138.875 91.8409C141.347 92.2338 143.91 92.6398 146.513 92.941C165.113 95.0759 187.781 111.657 205.452 125.854C210.187 129.666 215.052 133.647 219.748 137.485C251.899 163.797 285.148 191 322.256 200.993C333.126 203.926 343.407 204.437 353.687 202.564C362.87 200.901 371.842 197.352 381.142 191.72C398.408 181.255 413.633 165.591 429.735 148.997C442.697 135.638 456.104 121.833 470.596 111.133C505.599 85.2923 546.997 79.6212 580.259 75.0503C585.151 74.3823 589.768 73.7406 594.268 73.0726C618.453 69.4185 654.868 86.9556 690.105 103.916C705.055 111.12 719.182 117.917 732.288 123.104L732.445 122.711C719.352 117.524 705.239 110.727 690.288 103.537C658.255 88.0689 625.176 72.1427 601.161 72.1427Z" fill="url(#paint14_linear_1260_2192)" fill-opacity="0.2"/>
<path d="M591.968 67.336C590.751 67.336 589.561 67.3884 588.41 67.48C585.611 67.7158 582.786 67.9384 579.79 68.1742C544.474 70.9901 500.513 74.487 463.902 103.131C449.134 114.682 435.61 129.809 422.516 144.439C391.098 179.553 361.42 212.715 316.006 200.744C278.466 190.855 245.034 162.395 212.713 134.891C208.698 131.473 204.551 127.937 200.496 124.544C183.113 109.954 160.772 92.679 142.251 88.632C139.557 88.0426 136.915 87.3354 134.364 86.6674C128.386 85.0826 122.644 83.5503 116.706 83.5503C114.548 83.5503 112.363 83.7467 110.14 84.2182C105.353 85.2267 100.683 87.2568 96.2357 90.2298C92.0371 93.0326 87.9038 96.7915 83.9406 101.376C76.7858 109.679 70.0104 120.851 63.2218 135.559C40.8943 183.862 19.6393 226.545 -14.4341 259.629C-41.1304 285.561 -88.3492 303.609 -128.95 281.972C-174.403 257.782 -186.135 238.084 -198.561 217.233C-200.837 213.422 -203.179 209.48 -205.729 205.524C-217.135 187.856 -220.771 169.036 -224.63 149.102C-225.859 142.723 -227.141 136.135 -228.685 129.587L-229.116 129.692C-227.573 136.227 -226.304 142.815 -225.061 149.193C-221.203 169.167 -217.553 188.026 -206.095 205.773C-203.545 209.728 -201.203 213.658 -198.928 217.469C-186.462 238.385 -174.703 258.136 -129.146 282.405C-111.135 291.992 -90.102 294.467 -68.3107 289.556C-48.3506 285.05 -29.0968 274.546 -14.1071 259.982C-5.76208 251.875 1.95511 243.1 9.48918 233.146C16.33 224.109 22.8569 214.299 29.4362 203.18C42.2546 181.504 53.3595 158.008 63.6273 135.782C78.0415 104.611 92.8481 88.37 110.244 84.6897C118.511 82.9347 126.163 84.9779 134.259 87.1258C136.823 87.8069 139.465 88.501 142.173 89.1035C160.602 93.1374 182.878 110.36 200.222 124.924C204.263 128.316 208.423 131.853 212.425 135.271C228.396 148.866 244.903 162.919 262.064 174.746C281.436 188.118 299.041 196.775 315.901 201.215C326.889 204.11 337.235 204.476 347.542 202.342C356.737 200.429 365.697 196.553 374.918 190.476C392.066 179.186 407.723 161.701 422.857 144.793C435.937 130.176 449.461 115.075 464.189 103.537C500.696 74.9585 544.579 71.4747 579.843 68.6719C582.838 68.4361 585.65 68.2135 588.462 67.9777C613.197 65.8822 651.6 86.9555 688.734 107.348C704.181 115.835 718.779 123.837 732.316 130.189L732.499 129.783C718.975 123.444 704.391 115.429 688.943 106.955C653.457 87.4401 616.846 67.336 591.968 67.336Z" fill="url(#paint15_linear_1260_2192)" fill-opacity="0.2"/>
<path d="M583.358 62.3327C583.084 62.3327 582.822 62.3327 582.548 62.3458C581.37 62.3719 580.193 62.3981 578.99 62.4112C560.652 62.778 539.881 63.184 518.783 67.4406C494.349 72.3651 474.258 81.5593 457.398 95.5209C442.448 107.898 428.844 124.309 415.699 140.169C384.752 177.509 355.518 212.78 309.568 200.94C271.518 191.13 237.903 161.36 205.386 132.573C202.05 129.613 198.584 126.548 195.223 123.601C178.14 108.618 156.179 90.675 137.893 84.7812C135.172 83.9037 132.517 82.9214 129.94 81.9653C122.786 79.3066 115.971 76.7789 108.62 76.7789C107.495 76.7789 106.357 76.8443 105.206 76.9622C95.3045 78.0493 86.3709 83.2882 77.895 92.9801C70.8318 101.061 63.9779 112.456 56.9539 127.819C35.3589 174.995 14.9671 219.538 -18.6354 254.494C-44.2722 281.147 -89.6467 300.086 -128.743 278.711C-171.344 255.411 -182.972 235.779 -195.281 215.006C-197.4 211.444 -199.584 207.751 -201.925 204.044C-213.318 186.049 -217.517 166.94 -221.951 146.718C-223.337 140.366 -224.789 133.804 -226.463 127.282L-226.908 127.399C-225.234 133.909 -223.795 140.47 -222.396 146.809C-217.948 167.084 -213.75 186.232 -202.318 204.293C-199.976 207.986 -197.792 211.68 -195.673 215.242C-183.326 236.08 -171.671 255.752 -128.952 279.117C-111.373 288.73 -91.007 290.983 -70.0921 285.626C-51.113 280.767 -32.7225 269.831 -18.3084 254.835C-10.2511 246.453 -2.76932 237.363 4.55548 227.069C11.1216 217.822 17.4524 207.751 23.8877 196.304C36.0521 174.641 46.8954 150.948 57.3856 128.041C64.3965 112.718 71.2242 101.362 78.2613 93.3206C86.6456 83.7204 95.4876 78.5339 105.271 77.4599C113.852 76.5169 121.595 79.3852 129.796 82.4237C132.373 83.3798 135.042 84.3752 137.775 85.2527C155.983 91.1203 177.892 109.024 194.935 123.981C198.296 126.928 201.763 129.993 205.098 132.953C221.134 147.15 237.706 161.819 255.011 174.156C274.579 188.105 292.394 197.024 309.476 201.425C320.594 204.293 331.032 204.503 341.365 202.093C350.587 199.932 359.534 195.714 368.716 189.179C385.772 177.051 401.167 158.466 416.065 140.497C429.198 124.649 442.788 108.264 457.699 95.9138C495.566 64.5723 541.83 63.6555 579.003 62.909C580.206 62.8828 581.383 62.8566 582.561 62.8435C582.822 62.8435 583.097 62.8304 583.358 62.8304C608.668 62.8304 648.615 87.2173 687.24 110.805C703.197 120.55 718.253 129.744 732.235 137.235L732.457 136.829C718.488 129.351 703.433 120.157 687.488 110.412C648.798 86.7589 608.799 62.3327 583.358 62.3327Z" fill="url(#paint16_linear_1260_2192)" fill-opacity="0.2"/>
<path d="M551.573 56.5437C539.736 56.5437 527.061 57.1593 514.321 59.2679C488.894 63.4721 468.136 72.8497 450.896 87.9115C435.802 101.1 422.186 118.768 409.014 135.847C394.352 154.864 379.192 174.536 362.266 187.476C343.353 201.935 324.02 206.402 303.145 201.137C264.585 191.418 230.799 160.286 198.112 130.176C195.431 127.701 192.658 125.147 189.95 122.671C178.414 112.115 169.166 104.231 160.86 97.8784C150.357 89.8498 141.423 84.3097 133.536 80.9437C132.765 80.6163 131.993 80.2889 131.221 79.9614C120.914 75.5477 111.169 71.3828 100.3 69.7326C99.0051 69.5361 97.7101 69.4313 96.4414 69.4313C87.8347 69.4313 79.7905 73.963 71.9687 83.1965C63.2574 93.4647 56.0111 108.304 50.6744 120.091C49.3926 122.907 48.1239 125.71 46.8682 128.513C26.6465 173.226 7.54968 215.478 -22.8613 249.36C-48.2365 277.637 -90.7596 296.667 -128.535 275.424C-168.311 253.054 -179.834 233.46 -192.051 212.714C-194 209.414 -196.014 205.982 -198.133 202.564C-209.513 184.241 -214.274 164.831 -219.297 144.282C-220.84 137.969 -222.436 131.446 -224.241 124.976L-224.712 125.107C-222.907 131.564 -221.311 138.087 -219.768 144.4C-214.732 164.988 -209.958 184.425 -198.539 202.813C-196.42 206.231 -194.406 209.65 -192.457 212.95C-180.214 233.762 -168.651 253.407 -128.77 275.843C-111.609 285.495 -91.9368 287.526 -71.8852 281.71C-53.9002 276.498 -36.3599 265.129 -22.5081 249.675C7.95517 215.727 27.0651 173.462 47.2998 128.696C48.5686 125.893 49.8373 123.09 51.1061 120.275C56.4297 108.526 63.6629 93.7266 72.3349 83.4977C81.2032 73.033 90.3199 68.6848 100.221 70.191C111.026 71.8412 120.731 75.993 131.025 80.3937C131.797 80.7211 132.555 81.0485 133.34 81.3759C151.116 88.9592 171.769 106.68 189.61 123.012C192.318 125.487 195.091 128.041 197.772 130.517C213.847 145.329 230.472 160.653 247.921 173.488C267.685 188.039 285.696 197.22 303.001 201.582C308.704 203.023 314.354 203.743 319.795 203.756C319.809 203.756 319.822 203.756 319.835 203.756C325.014 203.756 330.181 203.101 335.191 201.804C344.451 199.395 353.411 194.837 362.554 187.843C379.532 174.864 394.718 155.165 409.393 136.122C422.552 119.057 436.155 101.402 451.21 88.252C490.306 54.1076 540.22 56.1639 576.661 57.6701C602.454 58.7309 644.794 86.9684 685.748 114.289C702.216 125.265 717.755 135.638 732.182 144.242L732.43 143.823C718.029 135.218 702.477 124.859 686.022 113.883C645.017 86.5362 602.611 58.2594 576.687 57.1855C569.009 56.8842 560.533 56.5437 551.573 56.5437Z" fill="url(#paint17_linear_1260_2192)" fill-opacity="0.2"/>
<path d="M533.628 49.7856C525.152 49.7856 516.48 50.2571 507.795 51.4882C495.945 53.1646 484.918 56.177 475.03 60.4336C463.755 65.2926 453.448 71.9722 444.396 80.2889C429.198 94.2635 415.594 113.176 402.449 131.473C387.995 151.577 373.032 172.362 356.172 186.166C337.324 201.582 317.874 206.546 296.723 201.333C257.653 191.707 223.711 159.147 190.893 127.674C188.813 125.684 186.747 123.693 184.693 121.728C167.009 104.833 146.578 86.3267 129.195 77.1063C128.214 76.5824 127.246 76.0716 126.278 75.5477C115.997 70.06 106.278 64.8866 95.3828 62.4767C89.9416 61.2718 84.618 61.835 79.556 64.1532C74.9257 66.2749 70.5308 69.7719 66.1098 74.8667C57.1892 85.1348 49.8383 100.288 44.4232 112.351C41.8857 117.996 39.3612 123.706 36.9022 129.22C18.1716 171.432 0.487442 211.3 -27.059 244.226C-49.5566 271.128 -89.5814 294.585 -128.298 272.149C-165.249 250.749 -176.694 231.129 -188.819 210.344C-190.585 207.331 -192.403 204.201 -194.3 201.097C-205.68 182.394 -211.016 162.67 -216.654 141.793C-218.341 135.533 -220.094 129.063 -222.003 122.671L-222.487 122.815C-220.578 129.207 -218.825 135.677 -217.138 141.924C-211.487 162.84 -206.15 182.591 -194.732 201.346C-192.835 204.463 -191.017 207.58 -189.264 210.593C-177.1 231.43 -165.615 251.102 -128.56 272.582C-119.888 277.598 -110.627 280.532 -101.026 281.291C-92.0928 281.998 -82.8845 280.833 -73.6631 277.82C-56.6721 272.267 -39.9821 260.454 -26.6797 244.554C0.906006 211.575 18.6163 171.681 37.36 129.429C39.8059 123.916 42.3434 118.205 44.881 112.56C50.283 100.537 57.6209 85.423 66.4891 75.2072C75.5928 64.7164 85.0104 60.7217 95.2651 62.9875C106.082 65.3843 115.775 70.5446 126.029 76.0061C126.997 76.5169 127.965 77.0408 128.946 77.5647C146.277 86.7589 166.669 105.239 184.327 122.108C186.38 124.073 188.447 126.05 190.527 128.041C206.641 143.496 223.305 159.474 240.885 172.86C260.832 188.039 279.052 197.509 296.579 201.831C302.361 203.258 308.077 203.939 313.57 203.861C318.815 203.782 324.034 203.023 329.083 201.582C338.396 198.923 347.356 194.012 356.473 186.559C373.398 172.729 388.362 151.904 402.841 131.774C415.987 113.503 429.564 94.6172 444.723 80.6687C481.661 46.6815 529.155 48.358 570.775 52.5883C597.079 55.2602 641.394 87.1125 684.244 117.904C701.222 130.111 717.258 141.623 732.117 151.341L732.392 150.909C717.533 141.204 701.51 129.678 684.532 117.485C641.63 86.6541 597.262 54.7625 570.815 52.0776C559.357 50.8988 546.721 49.7856 533.628 49.7856Z" fill="url(#paint18_linear_1260_2192)" fill-opacity="0.2"/>
<path d="M519.779 42.6736C513.632 42.6736 507.432 42.9748 501.258 43.7082C489.368 45.1096 478.303 47.991 468.375 52.2738C457.113 57.1328 446.858 63.9958 437.899 72.6661C422.634 87.4266 409.07 107.57 395.964 127.046C381.694 148.25 366.927 170.175 350.106 184.83C331.297 201.228 311.729 206.676 290.291 201.516C250.698 191.981 215.094 156.423 183.676 125.042C182.25 123.614 180.824 122.2 179.412 120.785C162.185 103.615 142.343 84.375 124.829 73.2554C123.822 72.6137 122.814 71.972 121.82 71.3433C111.396 64.6899 101.559 58.4033 90.4414 55.2338C84.8039 53.6228 79.3103 53.8847 74.0914 56.0327C69.3826 57.9579 64.7261 61.4942 60.2527 66.5366C51.1098 76.831 43.6411 92.2988 38.1606 104.61C34.4982 112.835 30.9012 121.152 27.4089 129.207C10.0648 169.232 -6.31139 207.043 -31.2549 239.079C-52.7715 266.648 -91.0305 291.009 -128.086 268.836C-162.225 248.417 -173.618 228.706 -185.691 207.829C-187.247 205.144 -188.856 202.354 -190.504 199.591C-201.87 180.521 -207.796 160.456 -214.061 139.213C-215.879 133.044 -217.763 126.653 -219.79 120.353L-220.287 120.51C-218.273 126.81 -216.389 133.188 -214.571 139.357C-208.293 160.627 -202.368 180.718 -190.962 199.853C-189.314 202.616 -187.705 205.393 -186.148 208.091C-174.049 229.02 -162.617 248.797 -128.361 269.281C-119.898 274.35 -110.912 277.244 -101.651 277.873C-93.071 278.462 -84.2551 277.126 -75.4523 273.891C-67.238 270.866 -59.1153 266.242 -51.3458 260.126C-43.9556 254.311 -37.0625 247.33 -30.8625 239.38C-19.4829 224.764 -9.20204 208.183 1.45815 187.188C10.8757 168.655 19.1292 149.586 27.8798 129.39C31.3721 121.335 34.9691 113.018 38.6315 104.793C44.0989 92.5083 51.5415 77.0929 60.632 66.851C69.9843 56.3208 79.6765 52.6798 90.2844 55.7052C101.324 58.8617 111.134 65.1221 121.519 71.7493C122.514 72.391 123.521 73.0328 124.528 73.6615C142.003 84.7548 161.819 103.968 179.019 121.126C180.432 122.54 181.858 123.955 183.283 125.382C199.411 141.492 216.101 158.151 233.824 172.1C253.954 187.934 272.371 197.718 290.147 201.988C296.007 203.402 301.788 204.031 307.347 203.874C312.644 203.73 317.903 202.852 322.991 201.28C332.356 198.373 341.342 193.108 350.433 185.184C367.306 170.476 382.086 148.525 396.383 127.294C409.476 107.845 423.027 87.7278 438.252 73.0066C474.026 38.417 520.263 40.2637 564.892 47.4147C591.706 51.7106 637.996 87.1778 682.743 121.479C700.231 134.891 716.764 147.543 732.068 158.348L732.369 157.916C717.065 147.124 700.545 134.459 683.057 121.06C638.245 86.7193 591.916 51.2129 564.958 46.8908C551.224 44.7298 535.685 42.6736 519.779 42.6736Z" fill="url(#paint19_linear_1260_2192)" fill-opacity="0.2"/>
<path d="M507.913 35.326C503.531 35.326 499.123 35.5094 494.729 35.9285C482.787 37.0548 471.682 39.8053 461.728 44.1142C450.479 48.9864 440.277 56.0327 431.382 65.0435C416.079 80.5637 402.593 101.912 389.539 122.566C375.439 144.871 360.868 167.935 344.073 183.481C325.29 200.861 305.592 206.82 283.853 201.713C243.737 192.269 208.015 155.1 176.492 122.304L174.125 119.842C155.263 100.236 136.951 81.6115 120.457 69.4049C119.529 68.7238 118.6 68.0297 117.685 67.3486C107.024 59.4379 96.9658 51.9594 85.4947 47.9779C79.6741 45.9609 74.0104 45.9216 68.6215 47.8862C63.7688 49.6543 58.9815 53.112 54.3904 58.1806C44.999 68.5143 37.4256 84.2833 31.8797 96.8566C27.2102 107.452 22.6714 118.231 18.2896 128.656C2.25352 166.756 -12.8931 202.747 -35.4823 233.932C-56.9727 263.584 -92.5242 287.473 -127.866 265.561C-159.206 246.138 -170.586 226.244 -182.619 205.183C-183.94 202.878 -185.301 200.481 -186.687 198.124C-198.067 178.622 -204.607 158.178 -211.526 136.541C-213.462 130.49 -215.463 124.23 -217.556 118.061L-218.079 118.244C-215.986 124.413 -213.985 130.673 -212.049 136.711C-205.117 158.374 -198.577 178.845 -187.171 198.399C-185.785 200.77 -184.424 203.153 -183.103 205.458C-171.03 226.584 -159.625 246.531 -128.154 266.033C-119.888 271.154 -111.189 274.009 -102.295 274.533C-94.0676 275.017 -85.6572 273.498 -77.2729 270.027C-69.5034 266.819 -61.8123 261.96 -54.4221 255.581C-47.4767 249.596 -40.9628 242.419 -35.0376 234.246C-24.8744 220.219 -15.2344 203.756 -5.55524 183.9C3.10371 166.154 11.0695 147.202 18.7867 128.866C23.1685 118.441 27.7072 107.662 32.3768 97.0661C37.9096 84.5321 45.4437 68.8155 54.7828 58.5473C64.3835 47.9779 74.3636 44.6905 85.2985 48.4887C96.6911 52.444 106.724 59.8963 117.344 67.7808C118.273 68.4619 119.189 69.156 120.13 69.8371C136.598 82.0175 154.884 100.615 173.732 120.209L176.1 122.671C192.241 139.462 208.931 156.829 226.798 171.379C247.111 187.908 265.737 198.006 283.735 202.236C289.673 203.638 295.546 204.227 301.158 203.991C306.507 203.769 311.818 202.787 316.932 201.071C326.363 197.914 335.362 192.283 344.452 183.887C361.299 168.302 375.897 145.198 390.01 122.868C403.038 102.253 416.523 80.9304 431.775 65.4364C468.058 28.6203 516.455 33.0995 559.004 42.333C586.328 48.266 634.58 87.3742 681.249 125.186C699.261 139.789 716.278 153.567 732.026 165.446L732.353 165.001C716.605 153.135 699.601 139.344 681.589 124.754C634.881 86.8896 586.576 47.7421 559.121 41.796C544.668 38.6527 526.552 35.326 507.913 35.326Z" fill="url(#paint20_linear_1260_2192)" fill-opacity="0.2"/>
<path d="M497.225 27.8348C471.602 27.8348 445.952 35.0121 424.88 57.4213C409.563 73.7011 396.156 96.2413 383.194 118.035C369.264 141.453 354.863 165.683 338.081 182.106C319.311 200.482 299.469 206.952 277.416 201.883C236.763 192.545 200.937 153.686 169.323 119.397L167.099 116.987C149.977 98.4155 132.267 79.215 116.087 65.5547C115.302 64.8998 114.531 64.245 113.759 63.577C102.811 54.3042 92.4647 45.5422 80.5488 40.7093C76.9911 39.2686 73.6033 38.6007 70.3726 38.6007C50.6349 38.6007 36.757 63.577 25.6128 89.0903C20.0146 101.912 14.6649 115.036 9.49829 127.727C-5.30827 164.085 -19.2777 198.412 -39.6956 228.759C-47.9229 240.991 -61.4869 257.324 -79.3411 265.614C-95.9527 273.328 -112.211 272.202 -127.646 262.248C-156.225 243.847 -167.618 223.664 -179.678 202.289C-180.724 200.442 -181.797 198.53 -182.882 196.631C-194.301 176.632 -201.482 155.755 -209.082 133.66C-211.096 127.792 -213.189 121.728 -215.334 115.743L-215.87 115.939C-213.725 121.912 -211.632 127.976 -209.618 133.843C-202.005 155.978 -194.824 176.868 -183.379 196.919C-182.307 198.805 -181.221 200.718 -180.175 202.564C-168.076 224.004 -156.644 244.253 -127.959 262.746C-119.902 267.932 -111.492 270.774 -102.95 271.167C-95.0894 271.534 -87.0583 269.844 -79.0926 266.151C-71.7678 262.746 -64.4953 257.651 -57.4975 251.024C-50.9967 244.868 -44.8491 237.481 -39.1986 229.099C-30.0164 215.452 -21.2397 199.552 -12.3453 180.495C-4.40576 163.469 2.94521 145.421 10.0476 127.963C15.2142 115.272 20.5639 102.148 26.1491 89.3391C39.0067 59.8967 55.5006 31.1746 80.3526 41.2594C92.19 46.0661 102.497 54.7888 113.406 64.0354C114.177 64.6903 114.962 65.3582 115.734 66.0131C131.888 79.6472 149.585 98.8346 166.694 117.393L168.917 119.803C185.058 137.301 201.735 155.401 219.733 170.568C240.229 187.843 259.065 198.268 277.298 202.459C283.328 203.848 289.266 204.385 294.956 204.07C300.371 203.769 305.734 202.669 310.888 200.822C320.384 197.404 329.422 191.419 338.499 182.526C355.333 166.049 369.748 141.793 383.704 118.336C396.653 96.5688 410.034 74.0547 425.311 57.8273C462.079 18.7323 512.934 26.2763 553.129 37.2255C580.95 44.7957 631.178 87.5579 679.757 128.919C698.278 144.688 715.779 159.592 731.985 172.519L732.338 172.074C716.145 159.147 698.644 144.256 680.123 128.487C631.505 87.0864 581.225 44.2849 553.273 36.6754C535.916 31.9342 516.571 27.8348 497.225 27.8348Z" fill="url(#paint21_linear_1260_2192)" fill-opacity="0.2"/>
<path d="M487.195 20.2776C485.351 20.2776 483.507 20.3169 481.663 20.4086C469.616 20.9849 458.432 23.4734 448.439 27.8216C437.204 32.7069 427.093 40.1068 418.382 49.8118C403.078 66.8381 389.776 90.544 376.918 113.477C363.145 138.021 348.901 163.417 332.145 180.744C313.388 200.128 293.389 207.122 271.009 202.106C229.82 192.872 193.105 151.341 163.596 117.969C160.98 115.01 158.338 112.01 155.774 109.09C141.125 92.4431 125.978 75.2334 111.747 61.7302C111.172 61.1801 110.596 60.6301 110.007 60.08C99.2164 49.8249 88.0592 39.2162 75.6201 33.4796C68.7139 30.297 61.9907 29.9041 55.6469 32.3401C48.5968 35.0382 41.9522 41.089 35.3337 50.8202C30.1802 58.4035 25.1051 68.1085 19.363 81.376C12.9015 96.3067 6.85852 111.709 1.01176 126.627C-12.0159 159.828 -25.4883 194.156 -43.8788 223.664C-58.7638 247.54 -76.448 262.719 -93.6744 266.4C-105.146 268.849 -116.486 266.36 -127.408 259.013C-153.28 241.554 -164.764 220.9 -176.915 199.028C-177.635 197.744 -178.354 196.448 -179.074 195.151C-190.571 174.562 -198.811 152.14 -206.777 130.464C-208.831 124.885 -210.95 119.122 -213.108 113.438L-213.657 113.647C-211.499 119.318 -209.38 125.094 -207.34 130.674C-199.361 152.376 -191.107 174.811 -179.597 195.439C-178.877 196.736 -178.158 198.019 -177.439 199.316C-171.304 210.357 -165.51 220.782 -157.845 230.933C-149.16 242.432 -139.598 251.508 -127.774 259.471C-116.721 266.924 -105.211 269.438 -93.5828 266.95C-84.3614 264.972 -75.1138 259.877 -66.1017 251.796C-58.0706 244.58 -50.4319 235.215 -43.4079 223.952C-35.1414 210.684 -27.1626 195.334 -19.0268 177.025C-11.7674 160.679 -5.00502 143.47 1.52191 126.81C7.36867 111.905 13.4116 96.5032 19.8731 81.5855C28.3097 62.0838 40.0294 38.9149 55.8301 32.8771C62.0169 30.5065 68.5831 30.8864 75.3454 34.0035C87.706 39.7007 98.824 50.2702 109.576 60.4991C110.151 61.0491 110.727 61.5992 111.315 62.1493C125.52 75.6394 139.987 92.0764 155.303 109.469C157.867 112.377 160.522 115.389 163.125 118.349C177.343 134.433 195.041 154.445 213.444 170.371C233.823 188 252.593 198.57 270.852 202.669C276.974 204.044 283.004 204.542 288.746 204.136C294.226 203.756 299.641 202.551 304.834 200.547C314.409 196.867 323.473 190.515 332.537 181.137C349.358 163.757 363.616 138.336 377.402 113.752C390.246 90.8583 403.536 67.1786 418.8 50.2047C455.646 9.21051 506.776 18.9941 547.206 32.0913C575.525 41.3772 627.766 87.8198 678.307 132.743C697.326 149.638 715.285 165.604 731.909 179.579L732.289 179.12C715.664 165.159 697.718 149.206 678.7 132.298C628.119 87.3352 575.826 40.8533 547.39 31.5281C532.191 26.5905 509.915 20.2776 487.195 20.2776Z" fill="url(#paint22_linear_1260_2192)" fill-opacity="0.2"/>
<path d="M477.805 12.5895C476.915 12.5895 476.026 12.6026 475.136 12.6157C463.024 12.9169 451.815 15.2875 441.808 19.662C430.586 24.5603 420.514 32.1436 411.881 42.176C396.604 59.9358 383.419 84.7942 370.666 108.828C357.05 134.511 342.963 161.072 326.207 179.303C307.451 199.722 287.281 207.227 264.574 202.25C222.888 193.134 185.571 149.114 158.325 116.987C153.76 111.604 149.156 106.103 144.709 100.773C131.838 85.3574 119.674 70.8065 107.379 57.8533L106.359 56.7794C95.2275 45.0443 83.7171 32.9032 70.6763 26.1974C63.4692 22.4909 56.4583 21.823 49.8399 24.2198C42.6589 26.813 35.8966 32.8508 29.1866 42.6868C23.9153 50.401 18.801 60.2108 13.0851 73.583C5.72101 90.688 -1.01518 108.553 -7.51595 125.828C-19.4057 157.379 -31.6878 189.991 -48.1032 218.464C-58.3841 236.302 -75.0349 258.515 -95.9629 263.112C-106.479 265.417 -116.983 262.916 -127.198 255.673C-150.428 239.223 -162.645 216.827 -174.456 195.151L-175.267 193.671C-186.921 172.296 -195.999 149.101 -204.762 126.679C-206.751 121.584 -208.817 116.319 -210.884 111.133L-211.446 111.355C-209.38 116.542 -207.326 121.807 -205.325 126.889C-196.548 149.337 -187.471 172.545 -175.79 193.959L-174.979 195.439C-169.054 206.31 -162.933 217.547 -155.503 227.894C-147.171 239.498 -138.028 248.758 -127.551 256.184C-117.192 263.531 -106.519 266.072 -95.8191 263.728C-86.9247 261.776 -78.0041 256.459 -69.3059 247.906C-61.7064 240.428 -54.3816 230.631 -47.5538 218.791C-31.1123 190.266 -18.8171 157.628 -6.92735 126.063C-0.42659 108.801 6.3096 90.9499 13.6606 73.845C19.3634 60.5121 24.4516 50.7285 29.6967 43.0535C36.3413 33.3354 42.999 27.3631 50.0622 24.8222C56.5237 22.4909 63.3646 23.1458 70.4147 26.7737C83.3639 33.4271 94.8351 45.5289 105.927 57.2247L106.947 58.2986C119.216 71.2386 131.381 85.7896 144.251 101.192C148.699 106.522 153.303 112.036 157.868 117.419C174.087 136.554 190.097 155.008 207.467 170.41C227.61 188.275 246.249 198.897 264.457 202.878C270.683 204.24 276.778 204.686 282.599 204.201C288.144 203.743 293.612 202.42 298.844 200.272C308.497 196.317 317.601 189.611 326.665 179.736C343.473 161.439 357.586 134.852 371.216 109.129C383.942 85.1217 397.114 60.2894 412.352 42.582C449.761 -0.887512 503.886 12.8383 541.347 26.9571C570.149 37.8932 624.392 88.0292 676.843 136.515C696.371 154.563 714.814 171.615 731.884 186.625L732.289 186.166C715.22 171.17 696.777 154.118 677.261 136.07C624.771 87.5446 570.489 37.3562 541.57 26.3939C529.758 21.9409 519.19 18.6797 509.262 16.427C498.078 13.873 487.523 12.5895 477.805 12.5895Z" fill="url(#paint23_linear_1260_2192)" fill-opacity="0.2"/>
<path d="M468.871 4.83569C468.779 4.83569 468.701 4.83569 468.622 4.83569C456.458 4.86188 445.209 7.11458 435.176 11.5021C423.954 16.4136 413.935 24.1802 405.367 34.5532C390.129 53.0333 377.088 79.0181 364.466 104.138C350.994 130.948 337.063 158.688 320.308 177.836C301.538 199.289 281.212 207.331 258.152 202.459C219.199 194.09 184.878 155.191 153.054 116.07C146.736 108.303 140.392 100.275 134.271 92.5082C124.056 79.5551 113.474 66.1566 103.01 54.0287L102.787 53.7667C91.3033 40.46 79.4266 26.6949 65.7318 18.9675C58.2501 14.7502 50.9645 13.7942 44.0844 16.1386C36.7727 18.627 29.9057 24.6648 23.0779 34.6056C17.7151 42.4246 12.5486 52.3522 6.81953 65.8554C-1.26392 84.8463 -8.49718 104.885 -15.4819 124.269C-26.3645 154.471 -37.6263 185.695 -52.3152 213.33C-58.9206 225.759 -65.8922 235.975 -73.0077 243.663C-81.3004 252.608 -89.7763 258.096 -98.1998 259.969C-107.801 262.104 -117.48 259.55 -126.976 252.398C-147.695 236.774 -160.317 213.094 -171.448 192.191C-183.481 169.598 -193.592 145.172 -203.376 121.545C-205.103 117.38 -206.882 113.071 -208.66 108.827L-209.249 109.076C-207.483 113.32 -205.691 117.629 -203.965 121.793C-194.181 145.434 -184.057 169.873 -172.01 192.492C-165.64 204.45 -159.807 215.176 -152.835 225.327C-144.817 237.022 -136.485 246.046 -127.368 252.909C-117.715 260.178 -107.866 262.771 -98.0821 260.597C-89.5278 258.698 -80.9342 253.145 -72.563 244.108C-65.4082 236.381 -58.4105 226.126 -51.7789 213.644C-37.0639 185.97 -25.802 154.72 -14.9064 124.491C-7.92165 105.108 -0.701492 85.0821 7.38194 66.1043C13.0979 52.6404 18.2384 42.7389 23.5881 34.9723C30.3243 25.1494 37.0997 19.1902 44.2675 16.7541C50.9776 14.4621 58.0931 15.4051 65.4048 19.5307C79.0081 27.2057 90.8454 40.9315 102.29 54.1989L102.513 54.4609C112.964 66.5758 123.532 79.9742 133.748 92.9142C139.869 100.681 146.213 108.709 152.531 116.489C166.893 134.144 183.687 154.327 201.424 170.436C221.345 188.524 239.84 199.211 257.982 203.101C264.299 204.437 270.499 204.83 276.385 204.253C281.997 203.703 287.529 202.263 292.801 199.97C302.532 195.74 311.675 188.655 320.753 178.282C337.56 159.068 351.517 131.302 365.002 104.453C377.611 79.3586 390.639 53.4131 405.825 34.9854C421.953 15.4182 442.776 5.66081 468.727 5.66081C488.046 5.66081 510.203 11.0699 535.408 21.862C564.708 34.4484 620.925 88.2909 675.299 140.365C695.338 159.553 714.264 177.679 731.779 193.71L732.21 193.239C714.696 177.221 695.782 159.094 675.744 139.907C621.331 87.7932 565.061 33.9114 535.657 21.2726C509.916 10.2055 488.046 4.83569 468.871 4.83569Z" fill="url(#paint24_linear_1260_2192)" fill-opacity="0.2"/>
<path d="M460.251 -2.95709C448.741 -2.95709 438.081 -0.835358 428.545 3.35574C417.336 8.28029 407.343 16.2172 398.867 26.9438C383.694 46.1311 370.771 73.2423 358.293 99.4497C344.964 127.425 331.178 156.37 314.409 176.448C295.626 198.949 275.117 207.515 251.717 202.642C212.424 194.47 178.822 154.929 147.783 115.114C140 105.134 132.244 94.6954 124.762 84.6106C116.286 73.1899 107.523 61.3893 98.6546 50.1781C87.6543 36.282 75.2022 20.513 60.8011 11.7117C53.0446 6.97058 45.4844 5.72633 38.3297 8.03143C34.4841 9.27567 30.6517 11.5677 26.9632 14.8681C23.6147 17.8674 20.2531 21.7835 16.9831 26.5116C11.5941 34.3175 6.21825 44.6511 0.554611 58.1019C-8.23515 78.9527 -15.9 101.257 -23.3033 122.828C-33.2179 151.668 -43.4596 181.49 -56.5134 208.196C-62.9357 221.319 -69.5804 232.019 -76.2642 239.969C-84.2299 249.439 -92.3657 255.149 -100.449 256.93C-109.174 258.855 -118.016 256.223 -126.753 249.124C-143.6 235.412 -156.693 211.784 -167.641 190.711C-180.695 165.577 -192.506 138.466 -203.938 112.246C-204.775 110.333 -205.599 108.421 -206.436 106.509L-207.038 106.771C-206.201 108.683 -205.377 110.595 -204.54 112.508C-193.108 138.741 -181.297 165.852 -168.23 191.012C-157.256 212.138 -144.123 235.844 -127.185 249.635C-118.29 256.865 -109.252 259.537 -100.331 257.572C-92.1041 255.765 -83.8506 249.976 -75.7934 240.388C-69.0702 232.399 -62.3994 221.659 -55.951 208.484C-42.871 181.739 -32.6163 151.891 -22.7016 123.038C-15.2983 101.48 -7.63347 79.1884 1.1432 58.3639C9.01736 39.6611 21.4695 14.1609 38.5128 8.66011C45.4713 6.42049 52.8485 7.62544 60.4479 12.2749C74.7444 21.0238 87.1703 36.7274 98.1314 50.5842C106.987 61.7823 115.75 73.5828 124.226 85.0035C131.721 95.1015 139.464 105.54 147.26 115.52C161.164 133.345 177.501 153.764 195.447 170.45C215.145 188.786 233.509 199.512 251.586 203.271C258.008 204.607 264.274 204.947 270.238 204.293C275.915 203.664 281.5 202.118 286.837 199.682C296.647 195.19 305.829 187.725 314.906 176.854C331.727 156.711 345.527 127.74 358.881 99.7248C371.36 73.5435 384.256 46.4717 399.377 27.3367C427.525 -8.26144 470.1 -11.7322 529.562 16.6887C559.358 30.9384 617.577 88.5005 673.874 144.177C694.422 164.49 713.82 183.678 731.779 200.717L732.224 200.246C714.278 183.219 694.88 164.032 674.332 143.718C617.996 88.0028 559.738 30.4014 529.85 16.0993C503.834 3.65698 481.676 -2.57727 462.109 -2.95709C461.481 -2.95709 460.866 -2.95709 460.251 -2.95709Z" fill="url(#paint25_linear_1260_2192)" fill-opacity="0.2"/>
</g>
<defs>
<linearGradient id="paint0_linear_1260_2192" x1="231.238" y1="348.115" x2="231.238" y2="24.0756" gradientUnits="userSpaceOnUse">
<stop stop-color="white"/>
<stop offset="1" stop-color="white" stop-opacity="0"/>
</linearGradient>
<linearGradient id="paint1_linear_1260_2192" x1="232.968" y1="344.145" x2="232.968" y2="31.122" gradientUnits="userSpaceOnUse">
<stop stop-color="white"/>
<stop offset="1" stop-color="white" stop-opacity="0"/>
</linearGradient>
<linearGradient id="paint2_linear_1260_2192" x1="234.667" y1="340.233" x2="234.667" y2="38.1683" gradientUnits="userSpaceOnUse">
<stop stop-color="white"/>
<stop offset="1" stop-color="white" stop-opacity="0"/>
</linearGradient>
<linearGradient id="paint3_linear_1260_2192" x1="236.353" y1="336.352" x2="236.353" y2="45.2147" gradientUnits="userSpaceOnUse">
<stop stop-color="white"/>
<stop offset="1" stop-color="white" stop-opacity="0"/>
</linearGradient>
<linearGradient id="paint4_linear_1260_2192" x1="238.036" y1="332.509" x2="238.036" y2="52.2475" gradientUnits="userSpaceOnUse">
<stop stop-color="white"/>
<stop offset="1" stop-color="white" stop-opacity="0"/>
</linearGradient>
<linearGradient id="paint5_linear_1260_2192" x1="239.651" y1="328.642" x2="239.651" y2="59.294" gradientUnits="userSpaceOnUse">
<stop stop-color="white"/>
<stop offset="1" stop-color="white" stop-opacity="0"/>
</linearGradient>
<linearGradient id="paint6_linear_1260_2192" x1="241.27" y1="324.861" x2="241.27" y2="66.3272" gradientUnits="userSpaceOnUse">
<stop stop-color="white"/>
<stop offset="1" stop-color="white" stop-opacity="0"/>
</linearGradient>
<linearGradient id="paint7_linear_1260_2192" x1="242.809" y1="321.151" x2="242.809" y2="73.3602" gradientUnits="userSpaceOnUse">
<stop stop-color="white"/>
<stop offset="1" stop-color="white" stop-opacity="0"/>
</linearGradient>
<linearGradient id="paint8_linear_1260_2192" x1="244.039" y1="317.402" x2="244.039" y2="80.4067" gradientUnits="userSpaceOnUse">
<stop stop-color="white"/>
<stop offset="1" stop-color="white" stop-opacity="0"/>
</linearGradient>
<linearGradient id="paint9_linear_1260_2192" x1="245.128" y1="313.657" x2="245.128" y2="87.4402" gradientUnits="userSpaceOnUse">
<stop stop-color="white"/>
<stop offset="1" stop-color="white" stop-opacity="0"/>
</linearGradient>
<linearGradient id="paint10_linear_1260_2192" x1="246.216" y1="310.007" x2="246.216" y2="87.1385" gradientUnits="userSpaceOnUse">
<stop stop-color="white"/>
<stop offset="1" stop-color="white" stop-opacity="0"/>
</linearGradient>
<linearGradient id="paint11_linear_1260_2192" x1="247.305" y1="306.388" x2="247.305" y2="84.4011" gradientUnits="userSpaceOnUse">
<stop stop-color="white"/>
<stop offset="1" stop-color="white" stop-opacity="0"/>
</linearGradient>
<linearGradient id="paint12_linear_1260_2192" x1="248.374" y1="302.762" x2="248.374" y2="80.8126" gradientUnits="userSpaceOnUse">
<stop stop-color="white"/>
<stop offset="1" stop-color="white" stop-opacity="0"/>
</linearGradient>
<linearGradient id="paint13_linear_1260_2192" x1="249.503" y1="299.169" x2="249.503" y2="76.6608" gradientUnits="userSpaceOnUse">
<stop stop-color="white"/>
<stop offset="1" stop-color="white" stop-opacity="0"/>
</linearGradient>
<linearGradient id="paint14_linear_1260_2192" x1="250.552" y1="295.562" x2="250.552" y2="72.1427" gradientUnits="userSpaceOnUse">
<stop stop-color="white"/>
<stop offset="1" stop-color="white" stop-opacity="0"/>
</linearGradient>
<linearGradient id="paint15_linear_1260_2192" x1="251.692" y1="292.015" x2="251.692" y2="67.336" gradientUnits="userSpaceOnUse">
<stop stop-color="white"/>
<stop offset="1" stop-color="white" stop-opacity="0"/>
</linearGradient>
<linearGradient id="paint16_linear_1260_2192" x1="252.775" y1="288.466" x2="252.775" y2="62.3327" gradientUnits="userSpaceOnUse">
<stop stop-color="white"/>
<stop offset="1" stop-color="white" stop-opacity="0"/>
</linearGradient>
<linearGradient id="paint17_linear_1260_2192" x1="253.859" y1="284.955" x2="253.859" y2="56.5437" gradientUnits="userSpaceOnUse">
<stop stop-color="white"/>
<stop offset="1" stop-color="white" stop-opacity="0"/>
</linearGradient>
<linearGradient id="paint18_linear_1260_2192" x1="254.952" y1="281.492" x2="254.952" y2="49.7856" gradientUnits="userSpaceOnUse">
<stop stop-color="white"/>
<stop offset="1" stop-color="white" stop-opacity="0"/>
</linearGradient>
<linearGradient id="paint19_linear_1260_2192" x1="256.041" y1="278.008" x2="256.041" y2="42.6735" gradientUnits="userSpaceOnUse">
<stop stop-color="white"/>
<stop offset="1" stop-color="white" stop-opacity="0"/>
</linearGradient>
<linearGradient id="paint20_linear_1260_2192" x1="257.137" y1="274.621" x2="257.137" y2="35.326" gradientUnits="userSpaceOnUse">
<stop stop-color="white"/>
<stop offset="1" stop-color="white" stop-opacity="0"/>
</linearGradient>
<linearGradient id="paint21_linear_1260_2192" x1="258.234" y1="271.216" x2="258.234" y2="27.8348" gradientUnits="userSpaceOnUse">
<stop stop-color="white"/>
<stop offset="1" stop-color="white" stop-opacity="0"/>
</linearGradient>
<linearGradient id="paint22_linear_1260_2192" x1="259.316" y1="267.879" x2="259.316" y2="20.2776" gradientUnits="userSpaceOnUse">
<stop stop-color="white"/>
<stop offset="1" stop-color="white" stop-opacity="0"/>
</linearGradient>
<linearGradient id="paint23_linear_1260_2192" x1="260.421" y1="264.573" x2="260.421" y2="12.5895" gradientUnits="userSpaceOnUse">
<stop stop-color="white"/>
<stop offset="1" stop-color="white" stop-opacity="0"/>
</linearGradient>
<linearGradient id="paint24_linear_1260_2192" x1="261.481" y1="261.342" x2="261.481" y2="4.83569" gradientUnits="userSpaceOnUse">
<stop stop-color="white"/>
<stop offset="1" stop-color="white" stop-opacity="0"/>
</linearGradient>
<linearGradient id="paint25_linear_1260_2192" x1="262.593" y1="258.197" x2="262.593" y2="-2.95709" gradientUnits="userSpaceOnUse">
<stop stop-color="white"/>
<stop offset="1" stop-color="white" stop-opacity="0"/>
</linearGradient>
</defs>
</svg>
