<svg width="1041" height="642" viewBox="0 0 1041 642" fill="none" xmlns="http://www.w3.org/2000/svg">
<path d="M665.666 659C652.19 644.582 644.759 626.536 642.91 603.833C641.292 583.885 644.084 563.191 646.768 543.172L647.177 540.168C653.879 490.139 659.675 432.127 643.515 376.782C626.128 317.242 588.226 271.764 539.516 252.012C518.911 243.656 498.645 239.762 478.663 239.229C417.508 237.558 359.072 267.248 302.077 296.192C283.446 305.65 264.193 315.428 245.313 323.838C224.158 333.26 205.616 339.963 188.638 344.336C176.336 347.501 165.669 348.425 156.941 347.056C148.745 345.776 142.043 342.452 137.012 337.171C129.954 329.776 125.972 318.326 125.172 303.143C124.496 290.183 126.114 274.111 129.972 255.354C137.047 221.095 150.078 184.542 159.607 157.856C163.589 146.691 167.038 137.038 168.887 130.691C174.452 111.561 179.892 89.2664 177.918 68.9633C175.714 46.3133 164.763 30.5081 144.425 20.641C119.981 8.78264 91.6256 5.81361 62.2925 3.59128C27.3416 0.960045 -8.33811 0.906709 -42.8267 0.853374C-45.8845 0.835595 -48.9422 0.835595 -52 0.835595V0C-48.9422 0 -45.8845 0.0177786 -42.8267 0.0177786C-8.32033 0.0711145 27.3772 0.142229 62.3458 2.77346C75.2168 3.73351 90.1322 4.99579 104.443 7.53813C120.248 10.3472 133.439 14.3829 144.781 19.8943C155.59 25.139 163.945 32.2504 169.616 41.0331C174.629 48.8201 177.705 58.1894 178.736 68.8744C180.727 89.3198 175.269 111.703 169.687 130.904C167.821 137.286 164.389 146.94 160.389 158.123C150.878 184.791 137.847 221.308 130.79 255.514C126.932 274.2 125.314 290.218 125.99 303.09C126.772 318.077 130.683 329.367 137.599 336.603C147.767 347.252 164.852 349.581 188.372 343.536C226.113 333.811 264.513 314.308 301.633 295.445C339.321 276.297 378.272 256.51 417.756 246.038C439.054 240.385 458.698 237.86 477.827 238.305C488.209 238.553 498.538 239.709 508.547 241.754C519.053 243.887 529.56 247.087 539.782 251.23C552.867 256.528 565.293 263.71 576.706 272.564C587.497 280.938 597.506 290.894 606.466 302.148C623.124 323.109 636.208 348.834 644.297 376.533C651.515 401.228 654.946 427.914 654.804 458.119C654.661 486.725 651.284 515.687 647.995 540.257L647.586 543.261C642.341 582.267 636.386 626.465 666.27 658.431L665.666 659Z" fill="url(#paint0_linear_281_1908)" fill-opacity="0.1"/>
<path d="M690.643 650.359C681.683 641.897 675.141 632.225 670.643 620.811C661.292 597.006 662.785 570.231 664.243 544.328C664.314 543.154 664.368 541.981 664.439 540.825C665.505 521.909 666.021 507.33 666.092 493.516C666.519 447.861 662.217 413.139 652.154 380.942C647.923 367.413 642.626 354.363 636.421 342.203C621.435 312.743 593.933 273.719 547.924 255.105C545.204 254.003 542.431 252.972 539.711 252.047C489.507 234.837 442.343 247.567 406.859 260.581C376.708 271.639 345.97 288.013 316.228 303.854C277.882 324.282 238.238 345.385 199.145 355.554C188.282 358.363 178.647 359.43 170.505 358.719C162.771 358.043 156.158 355.732 150.86 351.856C145.047 347.625 140.638 341.385 137.741 333.313C135.092 325.953 133.634 316.832 133.385 306.219C133.03 288.351 136.052 266.323 142.647 238.891C148.247 215.548 155.447 192.524 161.207 174.035C165.189 161.27 168.638 150.229 170.38 142.851C175.234 122.245 179.429 100.484 177.225 81.1058C174.665 58.4736 163.891 42.4373 144.318 32.0901C129.314 24.1609 111.323 18.7384 87.661 15.0049C79.0921 13.6715 70.7189 12.6759 63.6789 11.8759C30.5592 8.12457 -5.76054 6.7734 -50.5957 7.59122L-50.6135 6.80896C-5.74276 6.00892 30.6125 7.36009 63.8034 11.0758C70.8611 11.8759 79.2344 12.8715 87.821 14.2049C111.572 17.9561 129.652 23.4142 144.727 31.379C155.163 36.8904 163.269 44.1796 168.816 53.0511C173.794 61.0159 176.816 70.1542 178.042 80.9813C180.247 100.484 176.051 122.317 171.18 142.993C169.438 150.407 165.989 161.447 161.989 174.23C150.594 210.73 133.385 265.879 134.185 306.165C134.683 328.104 140.461 343.251 151.34 351.198C162.025 358.986 178.025 360.194 198.931 354.772C237.935 344.62 277.526 323.535 315.837 303.143C345.597 287.302 376.37 270.91 406.574 259.834C431.178 250.82 451.889 245.7 471.782 243.745C495.96 241.38 518.271 243.833 539.977 251.283C542.715 252.225 545.506 253.256 548.226 254.358C567.408 262.11 585.079 274.199 600.759 290.253C614.821 304.672 627.07 322.024 637.132 341.829C643.354 354.043 648.652 367.128 652.901 380.693C658.412 398.33 662.163 416.819 664.403 437.229C666.252 454.066 667.052 472.484 666.857 493.499C666.785 507.312 666.27 521.909 665.203 540.843C665.132 542.016 665.079 543.172 665.008 544.345C663.568 570.16 662.057 596.846 671.354 620.509C675.799 631.816 682.27 641.399 691.159 649.773L690.643 650.359Z" fill="url(#paint1_linear_281_1908)" fill-opacity="0.1"/>
<path d="M715.621 641.737C706.412 634.146 699.425 625.434 694.234 615.105C683.408 593.539 682.608 568.738 681.826 544.737C681.79 543.652 681.755 542.568 681.719 541.483C681.221 525.198 680.528 510.406 679.621 496.255C677.328 460.946 673.452 423.06 660.83 385.085C656.297 371.466 650.821 358.435 644.599 346.345C629.044 316.068 601.115 276.209 556.404 258.181C553.667 257.079 550.875 256.048 548.138 255.141C500.903 239.336 454.93 252.812 416.192 268.066C388.121 279.124 358.788 295.498 330.415 311.321C290.913 333.349 250.06 356.141 209.705 366.737C198.914 369.564 189.296 370.649 181.101 369.973C173.296 369.333 166.558 367.075 161.083 363.271C155.181 359.164 150.541 353.119 147.323 345.314C144.354 338.132 142.488 329.207 141.759 318.788C139.021 279.587 153.065 227.495 163.341 189.467C167.127 175.422 170.398 163.279 171.945 154.941C180.336 109.392 184.549 66.5988 144.283 43.4866C129.368 34.9173 111.732 28.7659 88.8346 24.1435C82.0435 22.8101 74.5058 21.5122 65.137 20.0899C29.3506 14.7386 -9.10243 12.8007 -49.191 14.3297L-49.2266 13.583C-9.10243 12.054 29.4039 13.9919 65.2437 19.3432C74.6303 20.7655 82.168 22.0456 88.9768 23.4145C111.981 28.0548 129.67 34.2417 144.674 42.8466C163.714 53.7804 174.434 70.2256 177.421 93.1067C179.981 112.77 176.496 134.495 172.71 155.083C171.163 163.474 167.892 175.617 164.087 189.68C153.847 227.655 139.803 279.676 142.541 318.771C144.052 340.496 150.274 354.861 161.545 362.702C172.567 370.364 188.709 371.484 209.509 366.044C249.776 355.466 290.575 332.709 330.042 310.699C358.432 294.858 387.801 278.484 415.908 267.408C441.419 257.346 461.276 251.674 480.28 248.972C504.725 245.505 527 247.301 548.387 254.465C551.142 255.39 553.933 256.421 556.689 257.523C575.64 265.168 593.257 277.453 609.044 294.058C622.786 308.512 634.982 326.007 645.275 346.061C651.515 358.186 657.008 371.253 661.559 384.907C667.283 402.135 671.603 420.5 674.75 441.07C677.879 461.551 679.408 481.321 680.386 496.255C681.31 510.406 682.003 525.216 682.483 541.501C682.519 542.586 682.555 543.67 682.59 544.755C683.372 568.667 684.172 593.397 694.928 614.82C700.065 625.043 706.999 633.683 716.119 641.204L715.621 641.737Z" fill="url(#paint2_linear_281_1908)" fill-opacity="0.1"/>
<path d="M740.599 633.096C731.141 626.358 723.692 618.607 717.826 609.38C712.172 600.491 707.959 590.108 704.919 577.645C702.217 566.533 700.67 554.817 699.177 543.474L698.999 542.141C697.346 529.625 695.355 514.726 693.132 498.992C688.617 467.151 682.999 427.54 669.488 389.245C664.635 375.538 658.999 362.506 652.742 350.523C636.599 319.446 608.244 278.733 564.831 261.275C562.076 260.172 559.284 259.159 556.511 258.252C509.596 242.945 464.281 259.159 425.49 275.569C399.446 286.591 372.797 302.148 344.584 318.628C303.926 342.363 261.9 366.915 220.247 377.956C209.545 380.765 199.945 381.885 191.714 381.28C183.838 380.694 176.994 378.507 171.341 374.791C165.314 370.826 160.479 364.977 156.923 357.421C153.634 350.417 151.341 341.669 150.132 331.447C145.581 293.205 157.279 241.878 165.83 204.401C169.261 189.342 172.23 176.346 173.492 167.101C178.79 128.539 185.367 80.5727 144.248 54.936C129.599 45.8155 111.857 38.7396 89.9903 33.3172C83.0748 31.6282 75.6438 30.0459 66.5772 28.3214C29.0486 21.281 -9.42227 18.8454 -47.7686 21.0677L-47.8042 20.3743C-28.711 19.2721 -9.26227 19.3254 10.0087 20.5699C29.1197 21.7966 48.1951 24.179 66.7194 27.6458C75.786 29.3703 83.2348 30.9526 90.1681 32.6416C112.106 38.0818 129.919 45.1755 144.639 54.3493C162.914 65.7454 173.456 82.4039 176.852 105.267C179.892 125.802 176.745 148.754 174.221 167.19C172.941 176.453 169.99 189.485 166.541 204.543C158.008 241.985 146.328 293.241 150.861 331.358C153.385 352.586 160.23 366.613 171.767 374.204C183.127 381.689 199.394 382.738 220.087 377.28C261.633 366.257 303.624 341.741 344.246 318.024C372.477 301.543 399.143 285.969 425.241 274.929C443.979 266.999 466.165 258.341 488.761 254.145C513.4 249.558 535.64 250.696 556.778 257.594C559.551 258.501 562.36 259.514 565.133 260.635C583.889 268.173 601.435 280.671 617.311 297.792C630.697 312.228 642.839 329.864 653.417 350.203C659.675 362.222 665.328 375.289 670.199 389.014C683.728 427.362 689.346 467.026 693.879 498.886C696.101 514.62 698.092 529.518 699.746 542.034L699.923 543.368C702.892 565.964 705.986 589.326 718.483 608.989C724.297 618.127 731.692 625.825 741.061 632.51L740.599 633.096Z" fill="url(#paint3_linear_281_1908)" fill-opacity="0.1"/>
<path d="M765.558 624.456C755.852 618.589 747.941 611.78 741.399 603.673C726.768 585.503 721.417 563.813 716.243 542.817C712.919 529.305 709.754 515.882 706.608 501.748C705.452 496.592 704.35 491.49 703.159 486.067C696.617 455.968 689.826 424.855 678.11 393.423C672.919 379.591 667.124 366.577 660.848 354.701C636.493 308.317 607.017 277.915 573.24 264.386C570.466 263.266 567.658 262.27 564.884 261.399C520.227 247.194 477.863 263.568 434.77 283.107C410.681 294.04 385.455 309.437 358.753 325.757C316.957 351.288 273.74 377.689 230.771 389.192C220.14 392.001 210.576 393.156 202.309 392.605C194.363 392.072 187.376 389.956 181.545 386.311C175.412 382.471 170.345 376.818 166.47 369.511C162.861 362.666 160.158 354.114 158.47 344.087C155.661 327.446 155.661 307.037 158.47 281.667C160.887 259.799 164.958 238.02 168.549 218.819C171.501 202.978 174.061 189.307 175.003 179.244L175.021 179.048C178.789 138.566 183.074 92.662 144.159 66.3852C129.456 56.4648 112.105 48.66 91.1101 42.5086C84.3724 40.5351 77.0302 38.6506 67.9814 36.5883C30.0083 28.0012 -9.54694 24.9789 -46.3822 27.8412L-46.4355 27.1834C-27.5557 25.7078 -8.03583 25.7611 11.5729 27.3256C30.435 28.819 49.4571 31.7347 68.1414 35.9483C77.1902 38.0284 84.5501 39.9129 91.3056 41.8863C112.372 48.0555 129.794 55.8959 144.55 65.8519C162.061 77.6747 172.425 94.511 176.265 117.339C179.607 137.286 177.634 158.55 175.714 179.102L175.696 179.297C174.754 189.395 172.194 203.085 169.243 218.926C162.327 255.941 152.852 306.628 159.163 343.963C162.665 364.693 170.114 378.364 181.936 385.76C193.652 393.085 210.043 394.027 230.629 388.569C273.491 377.102 316.673 350.719 358.432 325.206C385.152 308.886 410.414 293.454 434.521 282.52C454.254 273.559 475.356 264.403 497.205 259.372C521.987 253.665 544.209 254.127 565.133 260.777C567.924 261.648 570.751 262.679 573.542 263.781C592.102 271.213 609.595 283.924 625.524 301.561C638.519 315.944 650.626 333.722 661.488 354.399C667.763 366.293 673.577 379.342 678.768 393.192C690.519 424.66 697.292 455.808 703.852 485.925C705.026 491.348 706.146 496.45 707.301 501.606C710.448 515.722 713.594 529.145 716.936 542.657C722.092 563.582 727.425 585.201 741.967 603.246C748.456 611.3 756.296 618.056 765.949 623.887L765.558 624.456Z" fill="url(#paint4_linear_281_1908)" fill-opacity="0.1"/>
<path d="M790.536 615.816C780.563 610.802 772.207 604.953 765.007 597.948C749.167 582.516 741.381 564.151 733.541 543.492C728.67 530.656 724.279 517.891 720.136 504.504C716.936 494.192 713.95 483.596 710.768 472.396C703.87 448.074 696.741 422.918 686.786 397.601C681.239 383.627 675.266 370.613 669.026 358.897C643.782 311.321 614.395 280.564 581.72 267.497C578.929 266.377 576.102 265.381 573.311 264.528C527.196 250.234 483.303 271.568 444.565 290.414L444.103 290.645C421.934 301.419 398.166 316.602 372.993 332.673C351.89 346.15 330.059 360.106 307.962 372.16C282.949 385.814 261.153 395.059 241.331 400.428C230.789 403.237 221.243 404.428 212.923 403.93C204.887 403.45 197.776 401.405 191.749 397.85C185.492 394.152 180.212 388.694 176.034 381.6C172.087 374.915 168.994 366.542 166.843 356.71C158.754 319.873 165.83 271.586 171.518 232.793C173.918 216.383 175.998 202.196 176.567 191.387L176.656 189.822C178.736 149.998 181.101 104.858 144.141 77.8347C129.51 67.1497 112.55 58.5982 92.2835 51.7001C85.5991 49.4245 78.1325 47.1844 69.4392 44.8376C30.8973 34.5971 -8.67573 31.0592 -44.9599 34.5971L-45.031 33.9926C-26.2578 32.1614 -6.66685 32.1792 13.1908 34.0815C31.8929 35.8594 50.8794 39.2907 69.5992 44.2509C78.2925 46.5977 85.7769 48.8378 92.4791 51.1134C112.817 58.0471 129.83 66.6164 144.496 77.3369C181.723 104.538 179.358 149.856 177.261 189.84L177.172 191.404C176.603 202.249 174.523 216.437 172.123 232.864C166.452 271.604 159.376 319.819 167.447 356.568C171.892 376.818 179.945 390.134 192.069 397.316C204.318 404.552 220.371 405.388 241.154 399.823C285.384 387.876 329.74 359.537 372.637 332.14C397.81 316.05 421.597 300.867 443.801 290.076L444.263 289.845C463.907 280.298 484.227 270.413 505.898 264.475C530.68 257.683 552.778 257.505 573.471 263.923C576.28 264.777 579.124 265.79 581.933 266.91C600.315 274.253 617.737 287.178 633.737 305.312C646.502 319.766 658.217 337.189 669.559 358.577C675.817 370.311 681.808 383.36 687.354 397.352C697.328 422.686 704.474 447.861 711.354 472.2C714.519 483.4 717.523 493.979 720.723 504.29C724.865 517.66 729.239 530.407 734.11 543.243C741.932 563.831 749.683 582.143 765.434 597.486C772.581 604.455 780.883 610.269 790.803 615.247L790.536 615.816Z" fill="url(#paint5_linear_281_1908)" fill-opacity="0.1"/>
<path d="M815.513 607.175C805.238 603.015 796.438 598.108 788.598 592.224C780.509 586.126 773.434 578.961 766.945 570.303C761.701 563.298 756.883 555.475 750.821 544.133C744.474 532.292 738.856 520.22 733.647 507.224C727.834 492.735 722.59 477.303 717.043 460.964C710.501 441.674 703.728 421.727 695.443 401.761C689.452 387.396 683.479 374.738 677.168 363.057C650.626 313.597 622.164 283.338 590.146 270.591C587.337 269.471 584.493 268.475 581.684 267.64C537.311 254.252 495.303 276.227 458.236 295.605C456.618 296.459 455.001 297.294 453.401 298.13C433.081 308.708 410.823 323.571 387.25 339.305C365.704 353.688 343.41 368.569 320.637 381.512C294.806 396.197 272.3 406.046 251.855 411.611C241.402 414.42 231.873 415.646 223.518 415.22C215.394 414.811 208.122 412.837 201.9 409.353C195.518 405.779 190.025 400.499 185.545 393.672C181.278 387.147 177.794 378.951 175.18 369.315C165.349 332.958 170.469 284.956 174.576 246.376C176.372 229.54 177.918 214.997 178.078 203.512L178.114 201.112C178.647 161.732 179.252 117.09 144.052 89.2666C129.528 77.7816 112.941 68.4834 93.4033 60.8564C86.6834 58.2429 79.3234 55.6828 70.8613 53.0694C31.9816 41.1755 -7.59147 37.1219 -43.5734 41.3355L-43.6445 40.7843C-24.9247 38.5976 -5.2626 38.5976 14.7728 40.8199C33.386 42.8822 52.3192 46.8113 71.039 52.5538C79.519 55.185 86.8967 57.7274 93.6344 60.3586C113.243 68.0212 129.865 77.3372 144.443 88.8577C160.265 101.356 170.292 118.281 175.074 140.593C179.269 160.168 178.985 181.004 178.718 201.147L178.683 203.548C178.523 215.068 176.976 229.611 175.18 246.465C171.074 284.991 165.954 332.958 175.767 369.209C181.118 388.961 189.758 401.957 202.203 408.908C214.825 415.966 231.02 416.678 251.713 411.113C297.348 398.668 344.939 366.898 386.93 338.878C410.521 323.144 432.779 308.264 453.134 297.668C454.734 296.832 456.352 295.996 457.969 295.143C475.836 285.791 496.085 275.213 516.902 268.92C540.724 261.719 561.987 261.133 581.88 267.142C584.706 267.977 587.568 268.991 590.395 270.111C599.995 273.933 609.399 279.409 618.395 286.378C626.466 292.654 634.43 300.299 642.021 309.153C654.306 323.411 665.968 340.976 677.701 362.844C684.012 374.542 690.003 387.218 695.994 401.584C704.279 421.567 711.07 441.532 717.612 460.822C723.159 477.16 728.403 492.592 734.216 507.064C739.425 520.025 745.025 532.079 751.354 543.919C761.878 563.582 772.296 579.245 788.971 591.815C796.758 597.682 805.522 602.553 815.745 606.695L815.513 607.175Z" fill="url(#paint6_linear_281_1908)" fill-opacity="0.1"/>
<path d="M840.491 598.535C829.878 595.21 820.634 591.281 812.207 586.481C803.194 581.361 795.194 575.334 787.709 568.044C781.203 561.698 774.981 554.302 768.118 544.79C760.332 533.981 753.487 522.585 747.176 509.962C738.27 492.148 730.608 472.378 722.501 451.452C716.741 436.589 710.786 421.229 704.101 405.921C697.701 391.325 691.55 378.667 685.31 367.235C666.288 332.158 639.248 289.845 598.591 273.684C595.764 272.564 592.902 271.586 590.075 270.75C546.982 258.092 506.396 280.991 470.592 301.205C467.872 302.734 465.294 304.192 462.698 305.65C444.192 315.979 423.499 330.415 401.579 345.705C358.468 375.786 309.615 409.868 262.416 422.846C251.82 425.727 242.131 426.953 233.598 426.527C225.26 426.1 217.74 424.073 211.251 420.482C204.958 416.997 199.412 411.913 194.789 405.37C190.327 399.077 186.558 391.183 183.572 381.938C178.398 365.919 175.714 346.274 175.341 321.9C175.021 300.69 176.496 278.875 177.794 259.621C178.896 243.229 179.945 227.744 179.661 215.654L179.589 212.934C178.683 173.804 177.67 129.446 144.034 100.733C129.83 88.5907 113.19 78.2791 94.5768 70.0654C87.8569 67.0964 80.568 64.2518 72.3192 61.3539C33.2439 47.7888 -6.34688 43.2019 -42.1511 48.1088L-42.2222 47.5932C-23.5201 45.0331 -3.80468 45.0331 16.3907 47.5754C34.9506 49.9044 53.8304 54.3846 72.497 60.8561C80.7813 63.754 88.0702 66.6163 94.8079 69.5854C113.457 77.8346 130.15 88.1818 144.39 100.342C159.501 113.25 169.385 130.335 174.594 152.576C179.181 172.132 179.661 192.88 180.123 212.934L180.194 215.654C180.478 227.78 179.429 243.265 178.327 259.674C175.732 298.094 172.496 345.918 184.087 381.813C190.185 400.694 199.145 413.193 211.518 420.055C224.638 427.327 241.242 428.091 262.273 422.384C309.366 409.441 358.201 375.378 401.277 345.332C423.214 330.024 443.925 315.588 462.45 305.241C465.045 303.801 467.605 302.343 470.343 300.814C487.534 291.107 507.018 280.12 527.196 273.382C550.324 265.648 570.947 264.652 590.253 270.324C593.097 271.142 595.977 272.137 598.822 273.257C608.386 277.062 617.773 282.591 626.751 289.702C634.751 296.049 642.662 303.854 650.27 312.904C665.915 331.536 678.057 352.71 685.808 367.022C692.048 378.471 698.199 391.129 704.617 405.743C711.283 421.069 717.257 436.429 723.017 451.31C731.123 472.236 738.785 491.988 747.674 509.766C753.967 522.371 760.812 533.732 768.581 544.523C782.749 564.204 795.887 576.632 812.491 586.054C820.882 590.819 830.109 594.748 840.669 598.055L840.491 598.535Z" fill="url(#paint7_linear_281_1908)" fill-opacity="0.1"/>
<path d="M865.451 589.895C854.446 587.423 844.758 584.437 835.78 580.756C816.509 572.845 800.953 561.947 785.38 545.448C776.171 535.688 768.083 524.967 760.669 512.718C748.314 492.29 738.163 468.609 727.39 443.541C722.696 432.607 717.843 421.3 712.723 410.099C705.754 394.952 699.621 382.649 693.434 371.431C672.51 333.278 645.897 292.21 607.017 276.813C604.191 275.693 601.293 274.715 598.448 273.915C556.262 261.861 515.053 286.983 481.951 307.144C478.503 309.241 475.232 311.233 471.978 313.188C455.249 323.18 436.156 337.1 415.943 351.839C371.748 384.054 321.65 420.571 272.94 434.083C262.54 436.927 252.958 438.208 244.442 437.887C236.051 437.567 228.407 435.683 221.74 432.269C215.198 428.927 209.367 424.02 204.389 417.673C199.536 411.486 195.34 403.717 191.909 394.561C185.936 378.649 182.363 359.146 180.994 334.914C179.803 313.793 180.425 291.854 180.994 272.511C181.474 255.994 181.918 240.385 181.189 227.78L181.047 225.237C178.772 186.178 176.194 141.891 143.981 112.183C129.936 99.2226 113.688 88.1288 95.7322 79.2395C89.0123 75.9149 81.8301 72.7681 73.759 69.5857C34.6127 54.385 -4.97815 49.2825 -40.7468 54.865L-40.8179 54.4028C-4.97814 48.8203 34.7193 53.905 73.9368 69.159C82.0256 72.3236 89.2256 75.4882 95.9455 78.8306C113.954 87.7199 130.221 98.8315 144.318 111.828C158.772 125.162 168.549 142.496 174.185 164.79C179.145 184.418 180.354 205.148 181.527 225.22L181.669 227.762C182.416 240.403 181.954 256.012 181.474 272.529C180.372 310.948 178.985 358.773 192.371 394.401C206.398 431.772 232.709 444.59 272.798 433.621C321.437 420.127 371.481 383.645 415.641 351.448C435.872 336.709 454.965 322.771 471.712 312.762C474.965 310.824 478.236 308.832 481.685 306.717C498.342 296.565 517.222 285.062 536.902 277.809C559.515 269.471 579.693 268.048 598.573 273.435C601.435 274.235 604.333 275.231 607.195 276.351C616.724 280.12 626.093 285.72 635.053 292.992C642.981 299.428 650.857 307.375 658.448 316.637C673.132 334.523 685.079 355.181 693.861 371.182C700.065 382.418 706.199 394.721 713.168 409.886C718.287 421.104 723.141 432.412 727.834 443.328C738.59 468.378 748.741 492.041 761.078 512.451C768.474 524.683 776.545 535.368 785.736 545.11C801.256 561.556 816.74 572.418 835.958 580.294C844.9 583.957 854.571 586.943 865.54 589.415L865.451 589.895Z" fill="url(#paint8_linear_281_1908)" fill-opacity="0.1"/>
<path d="M890.41 581.236C878.926 579.618 868.775 577.591 859.37 574.996C837.077 568.862 819.584 559.955 802.677 546.07C792.046 537.341 782.731 527.314 774.198 515.42C758.073 492.93 745.416 465.693 732.029 436.874C728.58 429.478 725.025 421.815 721.416 414.241C713.789 398.383 707.691 386.471 701.611 375.573C680.421 337.367 654.554 295.303 615.479 279.871C612.634 278.751 609.737 277.773 606.857 276.991C565.31 265.47 525.008 291.978 492.635 313.277C488.689 315.872 484.973 318.308 481.311 320.673C466.324 330.273 448.885 343.554 430.449 357.599C408.76 374.115 384.192 392.836 359.285 408.783C330.734 427.06 305.935 439.007 283.499 445.283C273.295 448.11 263.819 449.425 255.322 449.212C255.286 449.212 255.233 449.212 255.197 449.212C246.806 448.981 239.091 447.239 232.282 444.038C225.491 440.856 219.357 436.109 214.06 429.958C208.833 423.895 204.211 416.215 200.318 407.166C193.509 391.325 189.064 371.893 186.7 347.749C184.638 326.664 184.442 304.565 184.264 285.062C184.104 268.528 183.962 252.918 182.771 239.887L182.611 238.055C179.002 198.854 174.913 154.443 143.98 123.597C130.132 109.783 114.292 97.9422 96.9229 88.395C90.3273 84.7682 83.0207 81.2125 75.2341 77.8168C47.8744 66.0651 5.83023 53.6912 -39.3605 61.6027L-39.4316 61.176C-20.7118 57.9047 -0.85416 57.8514 19.5723 61.0515C38.1144 63.9495 56.8876 69.4608 75.3764 77.4256C83.1807 80.8214 90.4874 84.3771 97.1006 88.0217C114.505 97.5866 130.363 109.463 144.247 123.312C158.131 137.144 167.82 154.798 173.882 177.27C179.233 197.058 181.136 217.894 183.002 238.038L183.162 239.869C184.371 252.918 184.513 268.546 184.656 285.08C185.029 325.615 185.456 371.555 200.673 407.006C216.353 443.523 243.393 455.915 283.339 444.874C333.597 430.811 384.885 391.752 430.129 357.279C448.582 343.216 466.022 329.935 481.027 320.335C484.689 317.988 488.422 315.535 492.351 312.957C508.582 302.29 526.964 290.182 546.288 282.36C568.528 273.346 588.368 271.461 606.946 276.617C609.826 277.4 612.741 278.377 615.603 279.515C625.097 283.266 634.448 288.92 643.407 296.334C651.265 302.841 659.105 310.948 666.696 320.424C680.349 337.456 691.709 356.905 701.967 375.413C708.047 386.311 714.145 398.241 721.771 414.099C725.398 421.673 728.953 429.318 732.385 436.731C745.771 465.551 758.429 492.77 774.518 515.206C783.033 527.082 792.313 537.074 802.926 545.768C819.797 559.599 837.219 568.489 859.459 574.605C868.846 577.182 878.979 579.209 890.445 580.827L890.41 581.236Z" fill="url(#paint9_linear_281_1908)" fill-opacity="0.1"/>
<path d="M915.371 572.578C903.246 571.849 892.633 570.765 882.944 569.253C870.642 567.333 859.833 564.702 849.931 561.253C839.229 557.52 829.416 552.755 819.958 546.728C807.923 539.048 797.363 529.696 787.71 518.176C767.532 494.103 752.439 463.595 736.439 431.291C734.359 427.078 732.19 422.722 730.057 418.437C723.799 405.975 716.99 392.658 709.755 379.787C690.626 345.67 664.439 298.965 623.924 283.018C621.062 281.898 618.146 280.938 615.249 280.155C574.129 269.079 534.52 297.152 502.716 319.713C498.485 322.7 494.503 325.544 490.609 328.211C477.312 337.331 461.632 349.83 445.01 363.057C400.957 398.152 346.113 441.816 294.042 456.519C284.015 459.311 274.647 460.679 266.185 460.573C257.687 460.466 249.811 458.866 242.789 455.844C235.767 452.821 229.331 448.252 223.678 442.261C218.043 436.305 212.994 428.749 208.674 419.789C191.518 384.338 189.367 338.131 187.465 297.347C186.701 280.92 185.972 265.399 184.301 252.03L184.247 251.585C179.323 212.028 173.741 167.19 143.91 135.064C130.292 120.397 114.879 107.792 98.0613 97.5868C91.4836 93.5866 84.2836 89.7286 76.657 86.084C49.3505 73.1412 7.32417 59.5761 -37.9555 68.3587L-38.0266 67.9854C-19.2712 64.3408 0.639771 64.2874 21.173 67.8076C39.7328 70.99 58.4527 77.0169 76.817 85.7284C84.4614 89.373 91.6791 93.2488 98.2568 97.249C115.092 107.472 130.559 120.112 144.194 134.797C157.581 149.216 167.234 167.279 173.741 190.071C179.483 210.161 182.096 231.193 184.621 251.55L184.674 251.994C186.345 265.381 187.056 280.902 187.838 297.347C189.741 338.096 191.909 384.267 209.012 419.646C226.274 455.346 254.042 467.275 293.918 456.164C345.917 441.496 400.708 397.85 444.743 362.773C461.365 349.528 477.063 337.029 490.361 327.909C494.254 325.242 498.254 322.415 502.467 319.411C534.36 296.796 574.04 268.67 615.355 279.782C618.253 280.546 621.186 281.524 624.066 282.662C641.933 289.702 658.59 303.285 674.964 324.193C689.292 342.487 700.83 363.057 710.092 379.609C717.346 392.481 724.137 405.797 730.412 418.277C732.563 422.562 734.714 426.918 736.794 431.131C752.776 463.417 767.87 493.908 788.012 517.944C797.647 529.447 808.172 538.763 820.172 546.426C838.323 558 857.7 564.933 883.016 568.898C892.687 570.409 903.282 571.494 915.406 572.223L915.371 572.578Z" fill="url(#paint10_linear_281_1908)" fill-opacity="0.1"/>
<path d="M915.939 563.866C912.686 563.778 909.575 563.653 906.535 563.493C878.162 562 856.793 557.004 837.238 547.332C823.798 540.683 812.011 532.025 801.22 520.86C790.234 509.517 779.567 495.241 768.616 477.249C758.821 461.177 749.647 443.559 740.776 426.527L738.714 422.562C732.367 410.437 725.185 396.712 717.896 383.929C717.256 382.791 716.599 381.636 715.923 380.462C697.025 347.056 671.123 301.312 632.35 286.093C629.47 284.973 626.537 284.013 623.622 283.267C582.733 272.582 543.675 302.396 512.298 326.344C507.942 329.669 503.854 332.798 499.871 335.713C488.263 344.247 474.378 355.821 459.676 368.071C437.419 386.631 412.174 407.663 385.686 426.029C355.055 447.274 328.513 460.91 304.548 467.72C293.9 470.724 284.051 472.111 274.984 471.862C249.971 471.186 230.86 458.119 216.994 432.394C197.883 396.961 193.989 350.399 190.558 309.294C189.207 293.063 187.927 277.737 185.812 264.137C179.696 224.775 172.745 180.168 143.839 146.496C130.523 130.993 115.501 117.623 99.1989 106.76C92.6745 102.405 85.5634 98.2267 78.079 94.3154C39.5904 74.3856 -1.12036 67.5586 -36.5512 75.1145L-36.6223 74.7767C-17.8313 70.7765 2.15073 70.6876 22.7728 74.5456C41.3326 78.0124 59.9992 84.5727 78.239 94.0132C85.7412 97.9245 92.8522 102.12 99.3944 106.476C115.732 117.357 130.772 130.762 144.105 146.282C156.905 161.199 166.505 179.546 173.474 202.392C179.803 223.175 183.18 244.918 186.167 264.101C188.283 277.702 189.563 293.045 190.932 309.277C194.363 350.327 198.256 396.872 217.331 432.234C236.14 467.115 264.638 478.618 304.477 467.4C358.344 452.074 414.414 405.352 459.463 367.822C474.165 355.572 488.067 343.998 499.676 335.447C503.64 332.531 507.747 329.402 512.102 326.077C527.676 314.201 545.311 300.725 564.173 291.587C585.986 281.009 605.471 278.182 623.728 282.947C626.644 283.711 629.595 284.653 632.493 285.791C649.737 292.565 665.861 305.756 681.79 326.113C695.461 343.607 706.501 363.11 716.243 380.302C716.901 381.476 717.559 382.631 718.216 383.769C725.505 396.552 732.687 410.295 739.034 422.42L741.096 426.384C759.585 461.87 777.043 495.401 801.487 520.629C812.26 531.758 824.011 540.381 837.415 547.03C856.918 556.684 878.233 561.662 906.57 563.155C916.455 563.671 927.193 563.813 940.348 563.582V563.92C931.21 564.08 923.246 564.062 915.939 563.866Z" fill="url(#paint11_linear_281_1908)" fill-opacity="0.1"/>
<path d="M909.806 557.911C888.295 557.324 870.731 554.124 854.517 547.972C839.691 542.337 826.678 534.372 814.731 523.598C802.127 512.237 790.091 497.712 777.914 479.222C767.158 462.884 757.327 445.087 747.372 426.758C746.092 424.411 744.829 422.082 743.549 419.753C737.843 409.264 731.958 398.436 726.038 388.143C724.687 385.796 723.336 383.396 721.896 380.871C703.425 348.354 678.11 303.819 640.795 289.222C637.897 288.085 634.946 287.142 632.012 286.413C591.195 276.084 552.564 307.783 521.524 333.26C517.187 336.816 513.098 340.176 509.169 343.269C499.213 351.128 487.765 361.101 474.503 372.675C452.014 392.303 426.521 414.544 399.196 434.278C367.41 457.248 339.908 471.862 315.09 478.974C305.437 481.711 296.282 483.169 287.873 483.258C279.268 483.365 271.162 482.067 263.766 479.4C256.229 476.68 249.206 472.449 242.895 466.831C236.478 461.124 230.575 453.781 225.349 445.016C215.909 429.158 208.745 409.673 203.447 385.44C198.789 364.124 196.158 342.185 193.616 320.975C191.714 305.045 189.9 289.987 187.358 276.297C178.949 230.997 169.883 190.836 143.803 157.981C130.914 141.731 116.301 127.597 100.354 115.97C93.7765 111.187 86.7543 106.689 79.5188 102.6C41.1547 80.9637 0.426109 73.6211 -35.1647 81.8704L-35.2358 81.5859C-16.3915 77.2124 3.64386 77.1235 24.337 81.3015C42.9502 85.0528 61.5634 92.1286 79.6611 102.316C86.9143 106.423 93.9365 110.921 100.532 115.703C116.479 127.348 131.127 141.5 144.034 157.767C156.247 173.146 165.776 191.707 173.171 214.481C179.714 234.606 183.749 255.176 187.66 276.208C190.202 289.916 192.016 304.974 193.918 320.922C198.896 362.399 204.531 409.406 225.633 444.839C245.918 478.92 275.162 489.979 315.019 478.636C370.912 462.599 430.681 410.473 474.325 372.391C487.587 360.817 499.036 350.843 508.991 342.985C512.92 339.891 517.009 336.531 521.329 332.976C536.635 320.424 553.986 306.183 572.742 296.281C594.484 284.813 613.897 281.471 632.101 286.076C635.052 286.822 638.003 287.765 640.919 288.902C657.523 295.392 673.079 308.139 688.51 327.838C701.772 344.798 712.616 363.857 722.181 380.693C723.621 383.218 724.972 385.618 726.323 387.965C732.243 398.259 738.145 409.086 743.834 419.575C745.096 421.904 746.376 424.251 747.656 426.58C769.434 466.653 788.207 499.223 814.962 523.349C826.873 534.087 839.851 542.034 854.642 547.652C875.619 555.617 898.908 558.64 930.108 557.413C939.921 557.022 950.783 556.275 965.29 554.942L965.326 555.244C950.819 556.559 939.957 557.324 930.144 557.715C922.926 558.017 916.188 558.071 909.806 557.911Z" fill="url(#paint12_linear_281_1908)" fill-opacity="0.1"/>
<path d="M911.442 554.337C896.882 553.946 883.975 552.044 871.78 548.577C855.513 543.919 841.273 536.648 828.242 526.301C814.393 515.313 801.327 501.144 788.314 482.974C776.456 466.422 765.789 448.164 756.03 430.883C753.416 426.26 750.785 421.567 748.225 417.015C743.638 408.819 738.892 400.357 734.181 392.268C732.225 388.907 730.252 385.405 728.136 381.707C709.043 348.123 685.292 306.344 649.239 292.263C646.341 291.125 643.373 290.183 640.404 289.472C622.271 285.027 602.911 288.903 581.222 301.312C562.538 312.015 545.453 327.056 530.378 340.336C526.182 344.034 522.218 347.519 518.449 350.701C510.147 357.724 500.583 366.471 489.525 376.605C467.996 396.286 441.223 420.784 412.992 442.048C379.961 466.938 351.375 482.654 325.633 490.103C316.157 492.823 307.109 494.317 298.735 494.512C290.06 494.726 281.829 493.57 274.273 491.081C266.487 488.521 259.162 484.467 252.513 479.027C245.687 473.427 239.358 466.209 233.705 457.551C223.305 441.621 215.198 422.029 208.905 397.637C203.358 376.142 199.892 353.83 196.532 332.265C194.114 316.726 191.838 302.041 188.887 288.352C180.07 247.283 169.332 204.259 143.75 169.359C131.057 152.078 117.243 137.607 101.528 125.126C95.0391 120.006 88.1236 115.188 80.977 110.832C42.755 87.5599 2.00867 79.684 -33.7599 88.6444L-33.8311 88.3955C-14.9512 83.6664 5.15532 83.5597 25.9374 88.0577C44.6039 92.1112 63.1638 99.7027 81.1014 110.619C88.2658 114.992 95.1813 119.81 101.688 124.948C117.439 137.447 131.27 151.936 143.963 169.27C169.581 204.223 180.336 247.265 189.154 288.352C192.087 302.059 194.381 316.744 196.798 332.283C203.323 374.293 210.718 421.887 233.936 457.48C255.66 490.779 285.633 501.393 325.562 489.926C383.695 473.125 444.761 417.264 489.365 376.48C500.44 366.346 510.005 357.599 518.307 350.577C522.076 347.394 526.04 343.892 530.218 340.212C545.293 326.931 562.395 311.873 581.098 301.17C602.84 288.725 622.271 284.831 640.475 289.294C643.444 290.023 646.413 290.965 649.328 292.103C665.381 298.361 680.457 310.717 695.425 329.882C708.332 346.417 718.981 365.137 728.367 381.654C730.465 385.352 732.456 388.854 734.412 392.214C739.105 400.304 743.852 408.766 748.456 416.962C750.998 421.496 753.63 426.207 756.261 430.829C776.012 465.782 797.86 501.944 828.42 526.158C841.433 536.47 855.638 543.741 871.869 548.382C894.606 554.817 919.833 555.866 953.646 551.777C964.917 550.408 976.419 548.648 990.214 546.408L990.25 546.657C976.455 548.897 964.952 550.657 953.681 552.026C937.93 553.893 924.064 554.675 911.442 554.337Z" fill="url(#paint13_linear_281_1908)" fill-opacity="0.1"/>
<path d="M916.722 552.275C906.98 552.008 897.824 550.995 889.024 549.199C880.615 547.475 872.491 544.986 864.882 541.786C856.793 538.39 848.989 534.105 841.718 529.021C826.625 518.407 812.563 504.593 798.696 486.743C785.327 469.533 773.985 450.955 764.634 435.061C760.741 428.429 756.865 421.709 753.132 415.202C749.576 409.015 745.896 402.615 742.287 396.463C739.816 392.268 737.274 387.77 734.59 383.04C715.905 350.061 692.635 309.01 657.648 295.41C654.733 294.272 651.746 293.347 648.759 292.636C607.64 282.894 567.924 320.424 538.911 347.839C534.965 351.555 531.249 355.075 527.729 358.275C521.116 364.302 513.525 371.591 504.76 380.018C461.792 421.3 396.85 483.685 336.139 501.393C326.842 504.095 317.9 505.606 309.562 505.908C300.833 506.229 292.495 505.215 284.762 502.904C276.709 500.504 269.1 496.61 262.131 491.348C254.896 485.89 248.122 478.778 242.025 470.209C230.647 454.155 221.562 434.403 214.256 409.797C207.785 388.054 203.447 365.297 199.269 343.305C196.407 328.265 193.705 314.077 190.398 300.512C180.461 259.55 167.91 216.722 143.679 180.844C131.412 162.692 117.99 147.474 102.648 134.3C96.2656 128.824 89.439 123.704 82.3813 119.064C44.3549 94.1202 3.59075 85.7109 -32.3734 95.3824L-32.4268 95.1869C-13.4936 90.0844 6.68406 89.96 27.5195 94.7957C37.0127 97.0003 46.6304 100.254 56.0881 104.45C65.0836 108.432 73.9725 113.303 82.5235 118.904C89.599 123.544 96.4256 128.682 102.808 134.158C118.168 147.349 131.608 162.586 143.874 180.755C168.141 216.65 180.674 259.515 190.629 300.477C193.918 314.042 196.62 328.229 199.5 343.27C208.034 388.001 216.851 434.261 242.238 470.102C265.42 502.637 296.122 512.807 336.104 501.197C396.743 483.525 461.667 421.158 504.618 379.876C513.4 371.449 520.974 364.16 527.605 358.133C531.125 354.932 534.84 351.412 538.787 347.697C567.835 320.264 607.604 282.68 648.83 292.441C651.817 293.152 654.804 294.076 657.737 295.214C673.31 301.277 687.959 313.313 702.537 332.051C715.123 348.23 725.576 366.666 734.803 382.952C737.487 387.698 740.03 392.179 742.501 396.374C746.11 402.526 749.79 408.926 753.345 415.113C757.078 421.62 760.936 428.34 764.847 434.972C788.723 475.614 810.963 507.135 841.86 528.861C856.118 538.817 871.549 545.395 889.078 549.004C913.646 554.017 940.81 553.111 977.166 546.035C990.161 543.51 1003.42 540.47 1015.12 537.786L1015.17 537.999C1003.48 540.683 990.214 543.724 977.219 546.266C960.508 549.519 945.984 551.422 932.846 552.097C927.264 552.346 921.913 552.417 916.722 552.275Z" fill="url(#paint14_linear_281_1908)" fill-opacity="0.1"/>
<path d="M923.868 551.226C911.886 550.906 900.508 549.342 889.984 546.604C877.611 543.368 865.913 538.372 855.246 531.741C835.638 519.545 817.54 502.282 799.905 478.956C784.349 458.368 771.123 435.825 758.34 414.029C755.763 409.62 753.078 405.068 750.465 400.659C747.549 395.734 744.509 390.365 741.309 384.676C731.425 367.146 720.225 347.27 706.519 330.505C690.661 311.09 674.519 299.73 657.186 295.765C638.821 291.57 619.23 296.654 597.293 311.357C578.52 323.927 561.169 341.51 547.213 355.644C543.64 359.271 540.244 362.702 537.062 365.813C532.173 370.596 526.698 376.142 520.351 382.578C495.445 407.788 461.347 442.297 424.174 470.262C403.836 485.552 384.654 497.25 367.108 505.055C347.748 513.66 329.775 517.785 313.65 517.34C312.726 517.322 311.802 517.269 310.877 517.216C299.446 516.522 288.691 513.447 278.931 508.095C268.513 502.371 258.931 493.872 250.433 482.832C222.664 446.741 212.105 399.664 201.9 354.133C198.647 339.643 195.589 325.971 191.998 312.655C176.407 254.946 153.741 189.716 103.874 143.509C62.5235 105.214 12.1239 89.7467 -30.9691 102.138L-31.0225 101.978C-19.2892 98.6005 -6.93375 97.2493 5.70615 97.9605C17.4749 98.6183 29.546 101.072 41.5992 105.232C63.7146 112.877 85.2789 126.068 103.963 143.367C126.239 163.99 144.55 189.645 159.963 221.789C171.909 246.679 182.131 275.533 192.14 312.584C195.731 325.9 198.807 339.572 202.06 354.061C212.265 399.575 222.825 446.652 250.558 482.707C266.984 504.042 287.268 515.598 310.877 517.02C342.059 518.905 380.139 503.135 424.05 470.102C461.223 442.154 495.32 407.628 520.209 382.436C526.556 376.018 532.031 370.453 536.92 365.671C540.102 362.56 543.48 359.128 547.053 355.501C561.009 341.367 578.377 323.767 597.168 311.197C607.479 304.299 617.044 299.623 626.43 296.885C637.097 293.792 647.443 293.347 657.203 295.588C674.572 299.57 690.732 310.948 706.625 330.38C720.332 347.146 731.55 367.04 741.434 384.57C744.634 390.259 747.674 395.628 750.589 400.552C753.203 404.962 755.869 409.513 758.465 413.922C784.527 458.369 811.496 504.326 855.318 531.581C902.144 560.702 957.61 551.528 1000.7 540.31C1013.73 536.914 1026.87 533.039 1039.58 529.287L1040.04 529.145L1040.1 529.305L1039.64 529.447C1026.93 533.199 1013.79 537.074 1000.76 540.47C971.494 548.097 947.903 551.528 926.499 551.28C925.628 551.262 924.739 551.244 923.868 551.226Z" fill="url(#paint15_linear_281_1908)" fill-opacity="0.1"/>
<defs>
<linearGradient id="paint0_linear_281_1908" x1="-14.7911" y1="10.8483" x2="770.229" y2="273.994" gradientUnits="userSpaceOnUse">
<stop stop-color="white"/>
<stop offset="1" stop-color="white" stop-opacity="0"/>
</linearGradient>
<linearGradient id="paint1_linear_281_1908" x1="-12.1871" y1="17.1848" x2="789.005" y2="301.099" gradientUnits="userSpaceOnUse">
<stop stop-color="white"/>
<stop offset="1" stop-color="white" stop-opacity="0"/>
</linearGradient>
<linearGradient id="paint2_linear_281_1908" x1="-9.57897" y1="23.4255" x2="806.48" y2="328.971" gradientUnits="userSpaceOnUse">
<stop stop-color="white"/>
<stop offset="1" stop-color="white" stop-opacity="0"/>
</linearGradient>
<linearGradient id="paint3_linear_281_1908" x1="-6.9382" y1="29.689" x2="822.418" y2="357.661" gradientUnits="userSpaceOnUse">
<stop stop-color="white"/>
<stop offset="1" stop-color="white" stop-opacity="0"/>
</linearGradient>
<linearGradient id="paint4_linear_281_1908" x1="-4.35113" y1="35.9631" x2="836.658" y2="387.139" gradientUnits="userSpaceOnUse">
<stop stop-color="white"/>
<stop offset="1" stop-color="white" stop-opacity="0"/>
</linearGradient>
<linearGradient id="paint5_linear_281_1908" x1="-1.73187" y1="42.2369" x2="849.109" y2="417.278" gradientUnits="userSpaceOnUse">
<stop stop-color="white"/>
<stop offset="1" stop-color="white" stop-opacity="0"/>
</linearGradient>
<linearGradient id="paint6_linear_281_1908" x1="0.874863" y1="48.4994" x2="859.723" y2="448.122" gradientUnits="userSpaceOnUse">
<stop stop-color="white"/>
<stop offset="1" stop-color="white" stop-opacity="0"/>
</linearGradient>
<linearGradient id="paint7_linear_281_1908" x1="3.51471" y1="54.772" x2="868.285" y2="479.491" gradientUnits="userSpaceOnUse">
<stop stop-color="white"/>
<stop offset="1" stop-color="white" stop-opacity="0"/>
</linearGradient>
<linearGradient id="paint8_linear_281_1908" x1="6.13466" y1="61.054" x2="874.619" y2="511.29" gradientUnits="userSpaceOnUse">
<stop stop-color="white"/>
<stop offset="1" stop-color="white" stop-opacity="0"/>
</linearGradient>
<linearGradient id="paint9_linear_281_1908" x1="8.73928" y1="67.2886" x2="878.669" y2="543.384" gradientUnits="userSpaceOnUse">
<stop stop-color="white"/>
<stop offset="1" stop-color="white" stop-opacity="0"/>
</linearGradient>
<linearGradient id="paint10_linear_281_1908" x1="11.3646" y1="73.5612" x2="880.269" y2="575.731" gradientUnits="userSpaceOnUse">
<stop stop-color="white"/>
<stop offset="1" stop-color="white" stop-opacity="0"/>
</linearGradient>
<linearGradient id="paint11_linear_281_1908" x1="13.9882" y1="79.8175" x2="879.386" y2="607.979" gradientUnits="userSpaceOnUse">
<stop stop-color="white"/>
<stop offset="1" stop-color="white" stop-opacity="0"/>
</linearGradient>
<linearGradient id="paint12_linear_281_1908" x1="16.5968" y1="86.1331" x2="878.455" y2="638.929" gradientUnits="userSpaceOnUse">
<stop stop-color="white"/>
<stop offset="1" stop-color="white" stop-opacity="0"/>
</linearGradient>
<linearGradient id="paint13_linear_281_1908" x1="19.22" y1="92.4957" x2="878.015" y2="668.416" gradientUnits="userSpaceOnUse">
<stop stop-color="white"/>
<stop offset="1" stop-color="white" stop-opacity="0"/>
</linearGradient>
<linearGradient id="paint14_linear_281_1908" x1="21.8427" y1="98.8522" x2="877.612" y2="696.828" gradientUnits="userSpaceOnUse">
<stop stop-color="white"/>
<stop offset="1" stop-color="white" stop-opacity="0"/>
</linearGradient>
<linearGradient id="paint15_linear_281_1908" x1="24.4654" y1="105.242" x2="876.907" y2="724.431" gradientUnits="userSpaceOnUse">
<stop stop-color="white"/>
<stop offset="1" stop-color="white" stop-opacity="0"/>
</linearGradient>
</defs>
</svg>
