<svg width="420" height="194" viewBox="0 0 420 194" fill="none" xmlns="http://www.w3.org/2000/svg">
<mask id="mask0_249_23943" style="mask-type:luminance" maskUnits="userSpaceOnUse" x="-3" y="-31" width="426" height="256">
<path d="M423 224.936H-3V-31H423V224.936Z" fill="white"/>
</mask>
<g mask="url(#mask0_249_23943)">
<path d="M479.606 1.94737C470.089 28.9059 460.257 56.7859 442.834 80.4599C424.056 105.977 397.439 122.843 367.892 127.953C360.36 129.258 352.565 129.907 344.479 129.907C322.37 129.907 298.071 125.027 270.841 115.173C254.235 109.159 238.098 101.43 222.498 93.9563C210.119 88.0271 197.313 81.8846 184.354 76.6465C177.334 73.8056 168.2 70.5637 159.629 70.5637C159.544 70.5637 159.459 70.5637 159.374 70.5637C155.097 70.5979 151.186 71.451 147.744 73.106C143.927 74.9402 140.519 77.8323 137.622 81.714C131.811 89.4944 127.943 98.7593 124.203 107.726C123.607 109.15 122.993 110.626 122.38 112.059C117.302 124.012 111.542 137.559 104.624 150.279C89.7737 177.562 68.6271 194.155 33.891 205.749C1.27644 216.635 -51.5561 215.005 -83.881 202.106C-141.161 179.251 -150.848 163.136 -160.22 147.558C-162.887 143.121 -165.409 138.924 -169.013 134.633C-176.476 125.735 -173.92 115.984 -171.211 105.661C-170.155 101.626 -169.055 97.4455 -168.51 93.1714L-168.595 93.1629C-169.141 97.437 -170.24 101.609 -171.296 105.644C-172.676 110.908 -173.98 115.881 -174.023 120.727C-174.065 126.179 -172.498 130.615 -169.081 134.693C-165.486 138.975 -162.964 143.173 -160.297 147.609C-155.696 155.261 -150.942 163.17 -140.156 172.051C-134.319 176.845 -127.316 181.461 -118.728 186.161C-109.041 191.468 -97.6493 196.706 -83.9151 202.191C-76.0937 205.314 -66.9177 207.831 -56.634 209.682C-46.6827 211.473 -36.1434 212.557 -25.3145 212.898C-14.4515 213.248 -3.86111 212.838 6.1584 211.678C16.5698 210.475 25.9078 208.505 33.9081 205.834C51.0759 200.101 64.2052 193.558 75.213 185.231C87.1836 176.18 96.8282 164.765 104.684 150.322C111.61 137.602 117.361 124.046 122.448 112.094C123.053 110.66 123.675 109.184 124.271 107.76C128.011 98.802 131.871 89.5371 137.682 81.7737C149.729 65.6498 167.22 69.8215 184.32 76.7403C197.279 81.9785 210.085 88.1124 222.464 94.0416C238.064 101.515 254.201 109.253 270.815 115.267C288.068 121.512 303.711 125.667 318.629 127.962C327.081 129.258 335.371 129.949 343.261 130.009C351.738 130.077 360.028 129.412 367.909 128.055C382.93 125.462 397.099 119.934 410.023 111.641C422.59 103.579 433.658 93.1117 442.911 80.5282C450.672 69.9836 457.625 57.5963 464.177 42.6667C470.098 29.1704 474.98 15.3499 479.692 1.99002L479.606 1.94737Z" fill="url(#paint0_linear_249_23943)" fill-opacity="0.2"/>
<path d="M479.573 6.53711C467.355 33.7431 455.777 56.163 439.001 77.1156C420.402 100.397 393.649 116.683 363.658 122.988C332.416 129.557 299.784 126.972 266.658 115.301C249.141 109.056 232.186 100.645 215.794 92.523C204.454 86.9009 192.73 81.0826 180.913 76.0322C173.944 73.0548 164.844 69.5997 156.307 69.3608C152.098 69.2413 148.23 69.9238 144.822 71.3741C141.039 72.9865 137.657 75.6141 134.752 79.1972C129.222 86.0222 125.371 94.178 121.639 102.069C120.821 103.801 119.978 105.584 119.134 107.325C117.413 110.856 115.726 114.414 113.937 118.168C109.711 127.057 105.341 136.245 100.527 145.22C85.4889 173.126 64.7342 190.214 31.1398 202.379C-0.580139 213.862 -52.1261 212.77 -83.7524 199.956C-139.183 177.494 -148.743 161.626 -157.987 146.286C-160.594 141.961 -163.057 137.866 -166.533 133.66C-174.005 124.609 -171.747 114.696 -169.361 104.202C-168.441 100.15 -167.487 95.961 -167.061 91.6784L-167.163 91.6698C-167.598 95.944 -168.543 100.133 -169.464 104.185C-171.849 114.696 -174.107 124.634 -166.609 133.729C-163.142 137.926 -160.679 142.012 -158.072 146.338C-153.523 153.888 -148.82 161.694 -138.314 170.43C-132.64 175.148 -125.833 179.686 -117.509 184.301C-108.12 189.514 -97.0862 194.667 -83.7865 200.05C-66.8146 206.935 -44.1173 210.432 -21.829 210.432C-2.53973 210.432 16.4514 207.813 31.1824 202.481C39.319 199.538 46.4503 196.416 52.9936 192.952C59.9034 189.292 65.9951 185.317 71.6269 180.812C83.2822 171.479 92.765 159.86 100.62 145.28C105.434 136.296 109.805 127.108 114.031 118.219C115.82 114.457 117.507 110.908 119.228 107.376C120.072 105.635 120.915 103.852 121.733 102.121C125.456 94.2377 129.307 86.0819 134.828 79.2655C146.901 64.37 164.094 68.9513 180.87 76.126C192.679 81.1765 204.403 86.9862 215.743 92.6083C232.135 100.738 249.09 109.142 266.616 115.395C299.758 127.066 332.416 129.659 363.675 123.082C378.73 119.917 392.882 114.337 405.73 106.506C418.553 98.691 429.765 88.8204 439.077 77.1754C447.214 67.0147 454.669 55.7706 461.868 42.7947C469 29.9467 475.126 16.6892 479.667 6.57977L479.573 6.53711Z" fill="url(#paint1_linear_249_23943)" fill-opacity="0.2"/>
<path d="M479.547 11.127C466.264 34.4342 452.172 54.3461 435.175 73.7716C416.678 95.0228 390.479 110.319 359.424 118.023C324.304 126.733 292.593 125.88 262.466 115.429C244.063 109.048 226.358 99.9197 209.241 91.1069C198.898 85.7749 188.206 80.2723 177.47 75.4181C170.612 72.3213 161.666 68.704 153.248 68.1666C152.515 68.1239 151.791 68.0983 151.084 68.0983C143.297 68.0983 137 70.9221 131.888 76.6978C126.606 82.6611 122.781 89.8273 119.074 96.7546C118.043 98.6826 116.978 100.679 115.896 102.616C112.352 108.971 108.833 115.941 105.102 123.329C102.315 128.857 99.4272 134.565 96.4367 140.195C81.3137 168.69 60.9679 186.289 28.413 199.026C-2.42088 211.098 -52.6719 210.552 -83.608 197.815C-137.207 175.745 -146.639 160.116 -155.764 145.007C-158.311 140.793 -160.714 136.809 -164.054 132.688C-171.526 123.474 -169.583 113.399 -167.53 102.726C-166.746 98.657 -165.937 94.4512 -165.613 90.1685L-165.724 90.16C-166.039 94.4426 -166.848 98.6485 -167.632 102.709C-169.694 113.407 -171.645 123.508 -164.139 132.765C-160.808 136.868 -158.405 140.852 -155.858 145.067C-151.359 152.523 -146.707 160.227 -136.483 168.818C-130.962 173.458 -124.359 177.912 -116.291 182.45C-107.191 187.561 -96.5158 192.628 -83.6506 197.926C-76.0678 201.048 -67.241 203.497 -57.4004 205.212C-47.9006 206.867 -37.8641 207.754 -27.5719 207.873C-17.2798 207.984 -7.25171 207.31 2.23956 205.868C12.0717 204.376 20.8898 202.115 28.4556 199.146C36.3792 196.041 43.3656 192.756 49.8152 189.088C56.5546 185.249 62.5186 181.111 68.0566 176.419C79.4137 166.804 88.7346 154.971 96.556 140.247C99.5465 134.616 102.426 128.9 105.221 123.38C108.944 116.001 112.471 109.022 116.007 102.675C117.089 100.739 118.154 98.7423 119.185 96.8143C122.883 89.887 126.717 82.7293 131.982 76.7831C144.081 63.1161 160.976 68.1069 177.428 75.5375C188.155 80.3832 198.847 85.8944 209.19 91.2178C226.316 100.039 244.02 109.159 262.432 115.549C270.347 118.296 278.492 120.403 286.629 121.819C294.518 123.193 302.655 123.952 310.817 124.08C318.689 124.208 326.852 123.747 335.065 122.724C342.946 121.742 351.151 120.198 359.449 118.142C374.606 114.38 388.741 108.749 401.453 101.413C414.556 93.8455 425.922 84.572 435.252 73.8569C452.249 54.4228 466.35 34.511 479.632 11.1953L479.547 11.127Z" fill="url(#paint2_linear_249_23943)" fill-opacity="0.2"/>
<path d="M479.513 15.7167C466.069 34.2464 450.554 50.413 432.585 69.1304L431.341 70.4272C413.219 89.4432 387.599 103.784 355.189 113.058C338.303 117.895 319.431 122.194 299.324 122.194C286.109 122.194 272.366 120.335 258.283 115.549C239.147 109.048 220.837 99.254 203.124 89.7759C193.642 84.7084 183.844 79.4617 174.046 74.7951C167.306 71.5874 158.514 67.7996 150.198 66.9635C141.55 66.0933 134.632 68.4479 129.043 74.1809C123.982 79.3764 120.174 85.6383 116.493 91.7039C115.258 93.7344 113.988 95.833 112.676 97.8805C107.487 105.968 102.341 115.915 96.8884 126.451C95.4144 129.292 93.8979 132.236 92.3728 135.136C77.2839 163.886 56.7166 182.561 25.6782 195.674C-4.27809 208.325 -53.2425 208.325 -83.463 195.674C-135.231 174.004 -144.534 158.614 -153.531 143.736C-156.011 139.632 -158.362 135.75 -161.566 131.732C-169.046 122.365 -167.411 112.119 -165.681 101.276C-165.033 97.1895 -164.36 92.9751 -164.156 88.6839L-164.284 88.6754C-164.488 92.958 -165.161 97.181 -165.809 101.259C-167.547 112.128 -169.183 122.391 -161.668 131.809C-158.465 135.827 -156.122 139.7 -153.642 143.804C-149.195 151.166 -144.594 158.768 -134.651 167.214C-129.284 171.769 -122.877 176.146 -115.064 180.607C-106.263 185.624 -95.9448 190.597 -83.5141 195.802C-68.8001 201.961 -49.383 205.356 -28.8242 205.356C-28.7816 205.356 -28.7475 205.356 -28.7049 205.356C-18.7025 205.348 -8.94705 204.546 0.280121 202.951C9.814 201.313 18.3766 198.907 25.7294 195.802C41.2187 189.258 53.888 181.478 64.4783 172.008C75.5202 162.129 84.6792 150.1 92.4921 135.213C94.0172 132.312 95.5337 129.369 97.0077 126.528C102.46 115.992 107.607 106.045 112.787 97.9658C114.099 95.9184 115.377 93.8197 116.604 91.7893C120.446 85.4506 124.084 79.4702 129.137 74.2832C141.261 61.8533 157.858 67.245 173.986 74.9316C183.784 79.5982 193.582 84.8363 203.065 89.9124C220.778 99.3905 239.096 109.184 258.24 115.694C273.772 120.966 289.688 123.082 306.915 122.16C321.203 121.392 336.556 118.543 355.223 113.203C370.619 108.8 384.737 103.119 397.167 96.3193C410.586 88.9825 422.114 80.3148 431.426 70.5381L432.67 69.2413C450.639 50.5239 466.162 34.3573 479.607 15.819L479.513 15.7167Z" fill="url(#paint3_linear_249_23943)" fill-opacity="0.2"/>
<path d="M479.496 20.298C470.857 29.5458 461.255 37.676 451.09 46.2839C443.448 52.7591 435.55 59.4476 427.516 67.0659C410.109 83.5823 385.06 97.0019 350.955 108.075C329.127 115.165 308.585 121.051 287.515 121.051C276.601 121.051 265.542 119.473 254.091 115.66C234.307 109.073 215.461 98.6057 197.246 88.4877C188.547 83.6591 179.558 78.6598 170.603 74.1639C163.992 70.8452 155.344 66.8953 147.139 65.7521C145.529 65.5303 143.978 65.4194 142.487 65.4194C136.089 65.4194 130.73 67.4754 126.197 71.6557C121.315 76.1516 117.694 81.3813 113.869 86.9095C112.454 88.9569 110.98 91.0727 109.455 93.1458C102.759 102.189 96.2239 114.806 89.2971 128.166L88.3002 130.086C73.0409 159.493 52.8911 178.688 22.9518 192.312C-6.62108 205.775 -53.3022 206.303 -83.3181 193.532C-133.254 172.281 -142.43 157.113 -151.308 142.456C-153.617 138.634 -156.011 134.693 -159.086 130.768C-166.567 121.239 -165.246 110.831 -163.858 99.8086C-163.338 95.7137 -162.801 91.4737 -162.707 87.1825H-162.844C-162.938 91.4737 -163.474 95.7051 -163.994 99.8001C-165.391 110.848 -166.72 121.282 -159.197 130.862C-156.122 134.778 -153.736 138.728 -151.427 142.541C-142.541 157.224 -133.348 172.409 -83.3863 193.677C-68.9023 199.845 -49.8856 203.096 -29.8381 202.84C-20.1167 202.712 -10.651 201.773 -1.68799 200.042C7.55621 198.259 15.8547 195.708 22.9944 192.457C38.0152 185.624 50.4118 177.485 60.8829 167.589C71.6011 157.462 80.5982 145.229 88.411 130.171L89.4079 128.252C96.3261 114.9 102.869 102.291 109.549 93.2567C111.083 91.1921 112.548 89.0679 113.962 87.0204C117.788 81.4922 121.4 76.2796 126.274 71.7922C131.829 66.6735 138.645 64.754 147.114 65.9313C155.302 67.0659 163.932 71.0159 170.535 74.326C179.49 78.8219 188.478 83.8126 197.177 88.6413C215.402 98.7678 234.256 109.236 254.048 115.822C262.236 118.543 270.373 120.198 278.901 120.872C286.646 121.486 294.535 121.265 303.013 120.215C319.618 118.151 336.488 112.947 351.006 108.237C367.083 103.016 380.783 97.437 392.882 91.1921C399.57 87.737 405.807 84.0345 411.421 80.1954C417.377 76.1175 422.83 71.741 427.618 67.1939C435.644 59.5755 443.542 52.8871 451.184 46.4119C461.349 37.8039 470.951 29.6652 479.598 20.4174L479.496 20.298Z" fill="url(#paint4_linear_249_23943)" fill-opacity="0.2"/>
<path d="M479.471 24.8878C471.939 31.0132 463.734 36.1746 455.044 41.6431C444.735 48.1353 434.068 54.8408 423.69 63.7218C403.345 81.1339 374.675 92.9496 346.729 103.119C345.136 103.699 343.551 104.279 341.975 104.859C320.496 112.716 299.852 120.266 278.015 120.266C268.907 120.266 259.587 118.953 249.916 115.805C229.545 109.167 210.247 98.0257 191.58 87.2508C183.605 82.6439 175.358 77.8921 167.17 73.5668C160.678 70.1372 152.183 66.0252 144.081 64.5749C142.002 64.2081 140.017 64.0204 138.134 64.0204C132.417 64.0204 127.544 65.7181 123.343 69.1561C118.598 73.0378 114.985 77.5764 111.168 82.3795C109.592 84.3672 107.956 86.4233 106.227 88.4281C98.8312 97.0361 91.5977 110.66 84.2194 125.044C68.7811 155.133 49.0488 174.849 20.2171 188.96C4.93222 196.441 -15.1068 200.238 -34.9073 200.238C-52.2881 200.238 -69.49 197.312 -83.1731 191.391C-131.269 170.566 -140.325 155.62 -149.084 141.168C-151.333 137.457 -153.659 133.618 -156.607 129.796C-164.088 120.104 -163.091 109.526 -162.034 98.3328C-161.642 94.2208 -161.242 89.9722 -161.259 85.6725H-161.412C-161.395 89.9637 -161.796 94.2122 -162.188 98.3157C-163.253 109.543 -164.258 120.139 -156.735 129.881C-153.787 133.703 -151.461 137.534 -149.22 141.236C-140.453 155.705 -131.379 170.677 -83.2583 191.519C-69.0384 197.678 -50.4648 200.792 -30.9711 200.28C-21.5394 200.033 -12.3463 198.958 -3.64743 197.09C5.29857 195.162 13.35 192.466 20.2597 189.088C49.1255 174.96 68.8833 155.227 84.3386 125.104C91.7084 110.729 98.9419 97.1128 106.32 88.5134C108.05 86.5 109.686 84.444 111.262 82.4563C115.079 77.6532 118.683 73.1231 123.42 69.2585C128.975 64.7199 135.723 63.2355 144.038 64.7114C152.124 66.1532 160.601 70.2652 167.085 73.6862C175.273 78.003 183.511 82.7634 191.486 87.3702C210.162 98.1451 229.468 109.295 249.848 115.933C257.78 118.518 265.619 119.951 273.823 120.326C281.176 120.659 288.682 120.121 296.768 118.688C311.857 116.018 326.503 110.66 342.009 104.987C343.585 104.407 345.178 103.827 346.763 103.247C358.717 98.8959 374.274 93.0093 388.571 86.0564C402.97 79.0523 414.489 71.7752 423.776 63.8327C434.144 54.9602 444.803 48.2547 455.104 41.7625C463.794 36.294 472.007 31.1241 479.547 24.9902L479.471 24.8878Z" fill="url(#paint5_linear_249_23943)" fill-opacity="0.2"/>
<path d="M479.454 29.4691C472.28 33.7432 464.51 37.1216 456.288 40.6876C444.113 45.9769 431.512 51.4454 419.873 60.369C401.334 74.5735 376.728 84.427 350.682 94.8606C348.007 95.9356 345.238 97.0446 342.503 98.1451C338.405 99.8002 334.315 101.515 330.354 103.179C310.246 111.624 290.94 119.738 270.032 119.738C262.194 119.738 254.142 118.603 245.724 115.916C224.825 109.244 205.118 97.4285 186.067 86.0052C178.757 81.6202 171.208 77.0902 163.728 72.944C157.355 69.4121 149.022 65.1294 141.005 63.3805C132.783 61.5805 126.069 62.6469 120.48 66.6309C115.828 69.9496 112.199 73.8824 108.356 78.0371C106.644 79.8884 104.872 81.8079 102.989 83.6933C95.0908 91.5676 87.3376 105.789 80.1297 119.994C64.504 150.8 45.1806 171.036 17.465 185.598C-10.3613 200.221 -54.5119 201.825 -83.0454 189.241C-129.283 168.86 -138.221 154.127 -146.86 139.871C-149.041 136.271 -151.299 132.551 -154.128 128.823C-161.617 118.961 -160.935 108.229 -160.211 96.8569C-159.947 92.7364 -159.683 88.4708 -159.802 84.171L-159.973 84.1796C-159.853 88.4708 -160.117 92.7364 -160.381 96.8484C-161.106 108.246 -161.787 119.012 -154.264 128.926C-151.444 132.645 -149.186 136.356 -147.005 139.956C-142.702 147.054 -138.255 154.391 -129.147 162.411C-124.24 166.727 -118.438 170.873 -111.391 175.079C-103.476 179.806 -94.2237 184.489 -83.1136 189.386C-69.1493 195.537 -51.0358 198.515 -32.0873 197.755C-22.9453 197.388 -14.0334 196.177 -5.59009 194.164C3.06624 192.099 10.8535 189.258 17.5502 185.735C45.2914 171.155 64.6403 150.902 80.283 120.062C87.4824 105.874 95.2271 91.6614 103.108 83.8042C105 81.9188 106.772 79.9993 108.484 78.148C112.318 73.9933 115.939 70.0775 120.583 66.7674C126.129 62.8089 132.8 61.7511 140.979 63.5426C148.971 65.2915 157.295 69.5656 163.66 73.089C171.132 77.2352 178.689 81.7652 185.991 86.1503C205.05 97.5821 224.757 109.406 245.682 116.078C276.609 125.948 302.749 114.969 330.422 103.341C334.375 101.677 338.473 99.9623 342.563 98.3072C345.298 97.2067 348.067 96.0976 350.742 95.0227C376.796 84.5891 401.41 74.727 419.975 60.5055C431.605 51.599 444.189 46.1305 456.356 40.8412C464.586 37.2666 472.356 33.8882 479.539 29.6056L479.454 29.4691Z" fill="url(#paint6_linear_249_23943)" fill-opacity="0.2"/>
<path d="M479.436 34.0502C472.33 36.9593 464.662 38.9897 456.534 41.131C442.774 44.7653 428.546 48.5191 416.039 57.0247C401.248 67.0829 382.581 74.7354 362.823 82.84C354.788 86.1331 346.49 89.537 338.26 93.1884C332.56 95.7136 326.928 98.435 321.492 101.071C302.152 110.421 283.612 119.388 263.02 119.388C256.118 119.388 248.996 118.381 241.532 116.052C220.138 109.363 200.082 96.8653 180.691 84.7766C174.011 80.6134 167.101 76.3051 160.285 72.3381C154.04 68.7038 145.861 64.2676 137.929 62.2031C129.843 60.1044 123.198 60.7357 117.617 64.1311C112.991 66.9464 109.31 70.3333 105.417 73.9164C103.61 75.58 101.744 77.2948 99.7423 78.9839C91.0945 86.2866 82.8982 101.276 76.0311 114.968C60.201 146.525 41.2866 167.273 14.7127 182.262C-12.2446 197.465 -55.1343 199.598 -82.9265 187.117C-127.316 167.188 -136.134 152.651 -144.662 138.591C-146.775 135.102 -148.965 131.493 -151.666 127.876C-159.146 117.844 -158.797 106.941 -158.414 95.4065C-158.277 91.2774 -158.141 87.0032 -158.371 82.695L-158.55 82.7035C-158.32 87.0033 -158.465 91.2688 -158.593 95.3979C-158.967 106.975 -159.325 117.903 -151.802 127.987C-149.11 131.596 -146.92 135.204 -144.807 138.685C-140.547 145.706 -136.151 152.958 -127.324 160.841C-122.57 165.081 -116.964 169.15 -110.182 173.279C-102.557 177.912 -93.6702 182.493 -82.9947 187.287C-69.2945 193.438 -51.624 196.262 -33.2293 195.255C-24.3771 194.769 -15.7463 193.421 -7.56711 191.263C0.791016 189.053 8.32271 186.076 14.8064 182.425C41.4144 167.427 60.3458 146.645 76.193 115.054C83.0516 101.378 91.2308 86.4146 99.8616 79.129C101.864 77.4398 103.73 75.725 105.536 74.0614C109.421 70.4869 113.102 67.1085 117.711 64.3018C123.249 60.9319 129.843 60.3006 137.878 62.3908C145.784 64.4468 153.955 68.8745 160.192 72.5088C167.008 76.4758 173.909 80.784 180.589 84.9472C199.989 97.0445 220.053 109.551 241.473 116.24C248.953 118.577 256.101 119.584 263.02 119.584C283.646 119.584 302.203 110.609 321.56 101.25C327.005 98.6227 332.628 95.9013 338.328 93.3675C346.55 89.7162 354.857 86.3122 362.891 83.0192C382.657 74.9146 401.333 67.2535 416.141 57.1867C428.623 48.7067 442.834 44.953 456.577 41.3187C464.705 39.1689 472.382 37.147 479.496 34.2293L479.436 34.0502Z" fill="url(#paint7_linear_249_23943)" fill-opacity="0.2"/>
<path d="M479.42 38.64C472.246 40.423 464.501 41.3188 456.314 42.2572C441.105 44.0061 425.386 45.8233 412.214 53.672C400.133 60.8723 385.512 66.6906 370.04 72.8501C358.257 77.5337 346.073 82.3794 334.026 88.2148C327.227 91.5078 320.581 95.1762 314.157 98.7252C295.303 109.142 277.249 119.123 256.673 119.123C250.487 119.123 244.08 118.227 237.35 116.163C215.504 109.474 195.142 96.2853 175.443 83.5226C169.351 79.5727 163.055 75.4948 156.853 71.7069C147.77 66.1531 140.98 62.8515 134.854 61.0003C126.905 58.5945 120.336 58.7907 114.772 61.606C110.103 63.9691 106.312 66.8697 102.299 69.9409C100.459 71.3486 98.5588 72.7989 96.5225 74.2407C92.4073 77.1498 88.2155 81.9017 83.7084 88.7778C80.147 94.2037 76.4153 100.918 71.9508 109.91C55.8991 142.251 37.4022 163.528 11.9785 178.893C-14.1267 194.667 -55.7469 197.329 -82.7809 184.967C-125.321 165.507 -134.029 151.158 -142.438 137.286C-144.483 133.908 -146.604 130.419 -149.177 126.912C-156.658 116.709 -156.632 105.644 -156.598 93.9306C-156.59 89.7845 -156.573 85.5018 -156.913 81.1936L-157.109 81.2107C-156.777 85.5104 -156.786 89.793 -156.803 93.9306C-156.828 105.678 -156.862 116.777 -149.339 127.032C-146.775 130.529 -144.662 134.019 -142.608 137.389C-138.399 144.333 -134.046 151.508 -125.5 159.254C-120.899 163.426 -115.489 167.41 -108.963 171.454C-101.636 175.992 -93.0986 180.471 -82.8661 185.146C-69.4301 191.289 -52.2111 193.976 -34.3617 192.705C-16.9213 191.468 -0.435104 186.622 12.0723 179.063C25.3038 171.07 36.5758 161.515 46.5357 149.853C55.8651 138.924 64.2402 125.888 72.1212 110.003C79.0309 96.0805 87.3465 80.9632 96.6247 74.4113C98.661 72.9695 100.561 71.5192 102.401 70.103C106.406 67.0403 110.189 64.1397 114.84 61.7937C120.361 59.004 126.879 58.8078 134.777 61.205C140.895 63.0563 147.66 66.3493 156.733 71.8946C162.927 75.6824 169.224 79.7603 175.315 83.7103C195.022 96.4815 215.394 109.679 237.273 116.376C266.479 125.317 289.679 112.495 314.234 98.9214C320.658 95.3724 327.304 91.704 334.094 88.411C346.141 82.5842 358.317 77.7384 370.091 73.0548C385.581 66.8953 400.201 61.0771 412.299 53.8682C425.429 46.0366 441.131 44.228 456.322 42.4791C464.518 41.5321 472.263 40.6449 479.454 38.8533L479.42 38.64Z" fill="url(#paint8_linear_249_23943)" fill-opacity="0.2"/>
<path d="M479.411 43.2213C472.083 44.0061 464.194 43.8867 455.836 43.7588C452.735 43.7076 449.616 43.6649 446.498 43.6649C432.968 43.6649 419.558 44.5692 408.396 50.3192C398.445 55.4465 386.815 59.7718 374.504 64.3445C359.85 69.7874 344.692 75.418 329.791 83.2411C322.2 87.2251 314.855 91.8235 307.75 96.2682C284.209 111.002 261.963 124.916 233.157 116.282C210.886 109.611 190.242 95.7051 170.28 82.26C164.75 78.5319 159.025 74.6843 153.41 71.0841C144.515 65.3853 137.835 61.9046 131.761 59.7974C123.948 57.0845 117.456 56.8541 111.918 59.0808C107.078 61.0259 103.091 63.4999 98.8649 66.1275C97.0927 67.2281 95.2524 68.3712 93.3013 69.5059C88.922 72.0482 84.5342 76.6038 79.8908 83.4544C76.2017 88.8887 72.3847 95.6881 67.8776 104.859C51.5874 138.037 33.4994 159.834 9.24298 175.531C-16.4278 192.142 -55.9265 195.273 -82.6367 182.817C-123.328 163.827 -131.916 149.656 -140.223 135.955C-142.2 132.696 -144.245 129.318 -146.69 125.931C-154.171 115.557 -154.469 104.322 -154.793 92.4292C-154.903 88.2745 -155.023 83.9833 -155.457 79.6751L-155.662 79.6921C-155.227 83.9918 -155.108 88.283 -154.997 92.4292C-154.673 104.356 -154.375 115.617 -146.852 126.042C-144.415 129.429 -142.37 132.799 -140.394 136.049C-136.227 142.925 -131.925 150.032 -123.652 157.642C-119.205 161.737 -113.99 165.652 -107.72 169.602C-100.682 174.039 -92.5029 178.415 -82.7134 182.979C-75.9741 186.127 -68.3572 188.328 -60.0757 189.531C-52.1692 190.674 -43.8963 190.879 -35.4785 190.137C-18.6685 188.652 -2.74466 183.517 9.36226 175.685C22.1593 167.401 33.1501 157.488 42.9651 145.374C51.9282 134.317 60.1329 121.085 68.0651 104.927C72.5636 95.7649 76.3721 88.974 80.0612 83.5482C84.6961 76.7318 89.0583 72.1847 93.4035 69.668C95.3632 68.5333 97.1949 67.3901 98.9756 66.2896C103.193 63.6705 107.172 61.205 111.994 59.2599C117.49 57.0503 123.931 57.2892 131.692 59.9851C137.759 62.0837 144.421 65.5645 153.299 71.2462C158.914 74.8464 164.631 78.694 170.169 82.4221C190.14 95.8758 210.801 109.782 233.097 116.47C240.05 118.552 246.781 119.396 253.673 119.055C259.833 118.748 266.002 117.485 272.528 115.199C284.669 110.942 295.932 103.895 307.86 96.4303C314.958 91.9855 322.302 87.3958 329.885 83.4117C344.778 75.5971 359.926 69.9666 374.572 64.5237C386.892 59.9424 398.53 55.6256 408.49 50.4899C422.165 43.4346 439.281 43.699 455.827 43.955C464.194 44.0829 472.092 44.2024 479.428 43.4175L479.411 43.2213Z" fill="url(#paint9_linear_249_23943)" fill-opacity="0.2"/>
<path d="M427.098 43.0251C418.97 43.0251 411.294 44.0318 404.571 46.975C396.384 50.5581 387.105 53.672 377.273 56.9736C361.06 62.4165 342.691 68.576 325.557 78.2845C317.378 82.9169 309.539 88.4195 301.957 93.743C279.174 109.73 257.661 124.831 228.974 116.419C206.302 109.765 185.411 95.1421 165.219 81.0059C160.218 77.5081 155.046 73.8824 149.985 70.487C138.824 62.9966 126.291 55.7195 115.275 55.7195C113.145 55.7195 111.074 55.9925 109.081 56.5897C103.858 58.1509 99.4957 60.2666 94.8693 62.5018C93.3357 63.244 91.751 64.0118 90.0811 64.7881C85.4377 66.9465 80.8454 71.3145 76.0487 78.1395C72.2487 83.5482 68.3551 90.4329 63.7969 99.8257C47.0125 134.36 29.8788 155.995 6.50841 172.187C-18.3018 189.369 -56.5652 193.02 -82.4915 180.684C-121.343 162.197 -129.445 148.812 -138.016 134.65C-139.916 131.511 -141.884 128.26 -144.202 124.984C-151.674 114.431 -152.313 103.033 -152.986 90.9618C-153.216 86.7986 -153.463 82.4989 -153.991 78.1992L-154.213 78.2248C-153.676 82.5245 -153.438 86.8242 -153.208 90.9789C-152.534 103.076 -151.895 114.508 -144.381 125.112C-142.072 128.38 -140.104 131.621 -138.204 134.761C-134.08 141.569 -129.82 148.607 -121.828 156.089C-117.534 160.099 -112.516 163.938 -106.501 167.811C-99.7616 172.153 -91.9402 176.419 -82.5852 180.872C-75.9652 184.02 -68.5187 186.187 -60.4588 187.313C-52.7823 188.379 -44.7564 188.482 -36.6028 187.612C-20.4233 185.88 -5.06175 180.463 6.64473 172.358C19.0158 163.793 29.7254 153.512 39.3871 140.946C48.0775 129.642 55.8989 116.607 64.0099 99.911C68.5681 90.5353 72.4532 83.6506 76.2446 78.2589C81.0158 71.4681 85.574 67.1171 90.1833 64.9844C91.8533 64.208 93.438 63.4402 94.9716 62.698C99.5894 60.4628 103.943 58.3471 109.149 56.7944C121.375 53.1516 136.592 61.7596 149.866 70.6661C154.935 74.0701 160.098 77.6873 165.1 81.1851C185.309 95.3383 206.217 109.969 228.923 116.632C235.85 118.663 242.521 119.405 249.32 118.884C255.395 118.424 261.444 116.956 267.817 114.406C279.677 109.662 290.565 102.018 302.084 93.9307C309.659 88.6157 317.497 83.1131 325.668 78.4807C342.784 68.7893 361.145 62.6212 377.35 57.1868C387.182 53.8853 396.469 50.7714 404.665 47.1798C418.817 40.9861 437.297 43.4004 455.172 45.7295C463.76 46.847 471.862 47.9134 479.394 48.0329V47.8111C471.871 47.6831 463.768 46.6252 455.197 45.5077C445.757 44.2792 436.155 43.0251 427.098 43.0251Z" fill="url(#paint10_linear_249_23943)" fill-opacity="0.2"/>
<path d="M416.167 41.2421C410.629 41.2421 405.423 41.9246 400.754 43.6223C394.091 46.0366 386.73 48.195 378.934 50.4729C360.804 55.7793 340.262 61.7852 321.322 73.3194C312.691 78.5746 304.504 84.9644 296.58 91.1496C274.419 108.451 253.494 124.788 224.79 116.538C201.735 109.918 180.631 94.5535 160.217 79.7007C155.727 76.4333 151.084 73.0549 146.543 69.8642C138.151 63.9692 131.488 60.0107 125.575 57.4172C118.018 54.0986 111.687 52.9981 106.226 54.0645C100.168 55.2418 95.2608 57.0163 89.578 59.0723C88.6919 59.3965 87.7803 59.7207 86.8516 60.0534C81.927 61.8108 77.1388 65.9825 72.1972 72.799C68.3121 78.1651 64.3417 85.1436 59.7154 94.7753C42.6413 130.274 25.908 152.421 3.76453 168.826C-20.1852 186.562 -57.2046 190.743 -82.3471 178.526C-119.349 160.551 -127.35 147.31 -135.819 133.294C-137.642 130.274 -139.533 127.151 -141.723 124.003C-149.187 113.271 -150.166 101.703 -151.197 89.4604C-151.547 85.2972 -151.913 80.9889 -152.543 76.6892L-152.773 76.7233C-152.143 81.023 -151.777 85.3228 -151.427 89.486C-150.388 101.762 -149.417 113.365 -141.91 124.148C-139.721 127.288 -137.838 130.41 -136.015 133.43C-131.934 140.178 -127.716 147.157 -119.997 154.519C-115.848 158.478 -111.025 162.24 -105.274 166.019C-98.8248 170.259 -91.3613 174.422 -82.4493 178.756C-75.9486 181.913 -68.681 184.046 -60.8426 185.095C-53.3961 186.093 -45.6259 186.085 -37.7364 185.086C-22.1874 183.116 -7.39668 177.408 3.90936 169.031C15.8544 160.184 26.2744 149.546 35.7827 136.51C44.0556 125.172 51.7236 111.949 59.9284 94.8947C64.5547 85.2801 68.5165 78.3101 72.3931 72.9525C77.3007 66.1788 82.0633 62.0326 86.9368 60.2922C87.8654 59.9595 88.7771 59.6353 89.6632 59.3112C95.3375 57.2637 100.245 55.4892 106.277 54.3119C111.696 53.254 117.975 54.346 125.49 57.6476C131.386 60.2411 138.031 64.191 146.415 70.0775C150.956 73.2682 155.599 76.6465 160.081 79.914C180.512 94.7838 201.633 110.157 224.722 116.786C231.658 118.782 238.303 119.413 245.042 118.714C251.066 118.091 257.039 116.419 263.292 113.604C274.939 108.357 285.512 100.099 296.716 91.3543C304.631 85.1692 312.819 78.7793 321.441 73.5412C340.356 62.0326 360.889 56.0267 379.002 50.7203C386.798 48.4424 394.159 46.284 400.831 43.8697C415.417 38.5804 435.234 43.1958 454.396 47.6661C463.24 49.7307 471.589 51.6758 479.351 52.6654L479.377 52.435C471.632 51.4454 463.282 49.5003 454.447 47.4443C441.377 44.3645 428.001 41.2421 416.167 41.2421Z" fill="url(#paint11_linear_249_23943)" fill-opacity="0.2"/>
<path d="M407.621 38.9045C403.813 38.9045 400.234 39.3225 396.937 40.278C391.621 41.8136 385.904 43.2127 379.846 44.6972C360.02 49.5429 337.544 55.037 317.096 68.3541C308.125 74.198 299.673 81.4751 291.511 88.5134C273.593 103.955 256.485 118.688 234.768 118.688C230.26 118.688 225.557 118.057 220.607 116.666C197.186 110.08 175.886 93.9648 155.284 78.3698C151.289 75.3412 147.156 72.2188 143.109 69.2499C134.896 63.2098 128.344 59.0722 122.474 56.2057C115.956 53.0236 110.341 51.4624 105.408 51.4624C104.718 51.4624 104.045 51.4965 103.381 51.5562C96.0449 52.2302 90.0979 53.6635 83.6313 55.327C78.4255 56.6664 73.4243 60.6334 68.3379 67.4498C64.3761 72.7648 60.3376 79.8457 55.626 89.7333C42.7352 116.811 27.1948 144.725 1.02132 165.473C-19.12 181.435 -54.1712 190.316 -82.2191 176.393C-117.364 158.947 -125.271 145.834 -133.637 131.954C-135.384 129.062 -137.19 126.068 -139.252 123.048C-146.715 112.128 -148.028 100.389 -149.425 87.9673C-149.893 83.8041 -150.379 79.4959 -151.112 75.1876L-151.359 75.2303C-150.626 79.5215 -150.141 83.8297 -149.68 87.993C-148.283 100.448 -146.963 112.213 -139.465 123.184C-137.412 126.196 -135.605 129.19 -133.859 132.082C-129.633 139.086 -125.646 145.706 -118.199 152.941C-114.195 156.831 -109.577 160.517 -104.073 164.219C-97.9129 168.357 -90.8072 172.418 -82.3384 176.623C-75.9569 179.789 -68.8597 181.887 -61.2514 182.86C-54.0349 183.781 -46.5203 183.67 -38.8949 182.536C-23.9764 180.317 -9.75648 174.329 1.16615 165.678C12.6852 156.55 22.824 145.544 32.1705 132.048C40.0003 120.744 47.515 107.333 55.839 89.8527C60.542 79.9822 64.572 72.9183 68.5253 67.6119C73.5777 60.8467 78.5363 56.9138 83.6824 55.583C90.1405 53.9194 96.079 52.4861 103.398 51.8122C108.765 51.3174 114.968 52.8359 122.355 56.4446C128.208 59.3026 134.751 63.4402 142.947 69.4632C146.986 72.4321 151.118 75.563 155.114 78.583C175.732 94.1866 197.049 110.319 220.514 116.914C227.483 118.876 234.129 119.405 240.834 118.535C246.823 117.758 252.736 115.881 258.913 112.785C270.39 107.026 280.716 98.128 291.647 88.7096C299.809 81.6799 308.244 74.4028 317.207 68.5674C337.621 55.2758 360.071 49.7818 379.88 44.9446C385.938 43.4601 391.663 42.061 396.988 40.5254C411.984 36.183 433.113 43.0421 453.544 49.6794C462.669 52.6397 471.291 55.4379 479.3 57.2551L479.351 57.0162C471.359 55.2076 462.746 52.4094 453.621 49.449C437.646 44.2365 421.219 38.9045 407.621 38.9045Z" fill="url(#paint12_linear_249_23943)" fill-opacity="0.2"/>
<path d="M400.32 36.2C397.789 36.2 395.378 36.4303 393.12 36.9251C389.039 37.8209 384.754 38.6485 380.213 39.5186C369.972 41.4893 358.367 43.7245 346.865 47.2991C333.668 51.4026 322.549 56.6663 312.871 63.3889C303.626 69.8043 295.004 77.9516 286.672 85.8344C265.474 105.866 245.46 124.779 216.433 116.794C192.662 110.251 171.183 93.3504 150.411 77.0132C146.884 74.2406 143.246 71.3741 139.693 68.6441C133.712 64.0458 126.265 58.3299 119.356 54.397C112.881 50.7201 107.402 48.9115 102.708 48.9115C101.966 48.9115 101.251 48.9541 100.544 49.048C97.3145 49.4575 94.2814 49.5769 91.3505 49.6963C87.8743 49.8328 84.2874 49.9693 80.4278 50.6092C74.941 51.5135 69.7267 55.2757 64.4955 62.0921C60.4058 67.4241 56.41 74.3941 51.5621 84.6913C36.3539 116.956 21.478 142.473 -1.70496 162.129C-21.105 178.586 -54.9379 188.03 -82.0656 174.26C-115.362 157.351 -123.175 144.358 -131.448 130.598C-133.109 127.833 -134.83 124.976 -136.755 122.092C-144.21 110.984 -145.872 99.0749 -147.636 86.4658C-148.215 82.3025 -148.82 77.9943 -149.646 73.6946L-149.902 73.7458C-149.075 78.0284 -148.479 82.3367 -147.891 86.4999C-146.127 99.1346 -144.458 111.078 -136.968 122.237C-135.043 125.112 -133.322 127.97 -131.661 130.726C-127.477 137.687 -123.532 144.256 -116.35 151.38C-112.491 155.202 -108.069 158.819 -102.82 162.436C-96.9501 166.48 -90.1937 170.421 -82.1678 174.499C-75.9056 177.681 -68.9874 179.737 -61.6006 180.633C-54.6142 181.478 -47.3466 181.256 -39.9938 179.993C-25.7143 177.536 -12.0568 171.266 -1.52603 162.334C9.567 152.924 19.4246 141.56 28.6007 127.586C38.1346 113.066 46.007 97.1041 51.8006 84.8192C59.179 69.1645 68.3635 52.887 80.4704 50.8822C84.3044 50.2509 87.8914 50.1058 91.359 49.9693C94.2984 49.8584 97.3315 49.739 100.578 49.321C112.173 47.8451 126.708 59.0124 139.531 68.8659C143.084 71.5959 146.73 74.4624 150.249 77.235C171.038 93.5893 192.534 110.507 216.356 117.067C223.376 118.995 230.039 119.43 236.736 118.389C242.717 117.46 248.587 115.361 254.696 111.983C266.045 105.704 276.149 96.1572 286.842 86.0477C295.174 78.1734 303.788 70.0347 313.015 63.6278C334.699 48.5702 358.913 43.9122 380.264 39.8001C384.805 38.93 389.099 38.1024 393.18 37.2067C408.559 33.8369 430.992 42.9652 452.692 51.795C462.115 55.634 471.019 59.2598 479.292 61.8618L479.368 61.6144C471.112 59.0124 462.209 55.3866 452.794 51.5561C434.221 43.9719 415.128 36.2 400.32 36.2Z" fill="url(#paint13_linear_249_23943)" fill-opacity="0.2"/>
<path d="M393.794 33.2569C392.235 33.2569 390.735 33.3593 389.295 33.5811C386.373 34.0247 383.365 34.4342 380.179 34.8693C369.325 36.3623 357.03 38.0429 344.744 41.4469C330.61 45.3627 318.792 50.9165 308.62 58.4239C299.162 65.4025 290.429 74.4114 281.969 83.1132C261.163 104.552 241.507 124.797 212.224 116.914C188.113 110.422 166.472 92.7193 145.555 75.5972C142.497 73.0891 139.327 70.4956 136.234 68.0215C124.69 58.7481 109.882 47.9306 97.6984 46.5229C96.0029 46.3267 94.3415 46.0622 92.7312 45.8148C87.4403 44.9788 82.4391 44.1939 77.1567 45.8746C71.4568 47.6917 65.9614 51.6843 60.8238 57.75C56.1634 63.2526 51.6648 70.615 47.4559 79.6325C34.3436 107.734 19.5274 136.988 -4.46495 158.759C-23.1323 175.702 -55.7383 185.726 -81.9373 172.102C-113.385 155.756 -121.112 142.849 -129.291 129.19C-130.868 126.563 -132.486 123.85 -134.293 121.111C-141.739 109.807 -143.75 97.7186 -145.88 84.9303C-146.57 80.7671 -147.294 76.4674 -148.206 72.1847L-148.479 72.2445C-147.558 76.5186 -146.843 80.8183 -146.153 84.9815C-144.014 97.8039 -141.995 109.918 -134.523 121.265C-132.725 123.995 -131.098 126.708 -129.53 129.335C-125.389 136.254 -121.479 142.789 -114.56 149.801C-110.846 153.564 -106.62 157.113 -101.627 160.636C-96.0464 164.578 -89.6479 168.417 -82.0651 172.349C-75.9222 175.54 -69.1829 177.571 -62.0176 178.381C-55.2697 179.149 -48.2492 178.825 -41.1691 177.425C-27.5286 174.73 -14.4248 168.169 -4.28604 158.964C6.381 149.281 15.949 137.551 24.9631 123.09C33.7473 108.997 41.3897 93.2738 47.6945 79.7519C56.4957 60.8895 66.4385 49.5856 77.2248 46.139C82.439 44.4754 87.4062 45.2603 92.6716 46.0878C94.2818 46.3438 95.9518 46.6082 97.6473 46.8045C109.763 48.1951 124.528 58.9955 136.038 68.2433C139.123 70.7259 142.292 73.3194 145.351 75.819C166.293 92.9582 187.951 110.677 212.122 117.187C219.202 119.098 225.899 119.43 232.596 118.211C238.577 117.127 244.421 114.815 250.479 111.147C261.725 104.33 271.643 94.127 282.131 83.3179C290.574 74.6161 299.307 65.6243 308.747 58.6543C331.547 41.8223 358.513 38.1282 380.179 35.1508C383.365 34.7158 386.373 34.2977 389.304 33.8627C405.057 31.4825 428.777 42.9057 451.73 53.9536C461.468 58.6458 470.67 63.0734 479.207 66.4518L479.309 66.1959C470.781 62.8175 461.588 58.3898 451.849 53.7062C430.984 43.6309 409.437 33.2569 393.794 33.2569Z" fill="url(#paint14_linear_249_23943)" fill-opacity="0.2"/>
<path d="M387.804 30.1259C387.012 30.1259 386.237 30.16 385.487 30.2198C383.664 30.3733 381.823 30.5183 379.872 30.6719C356.868 32.5061 328.232 34.7839 304.385 53.4416C294.766 60.9662 285.956 70.8197 277.428 80.349C256.963 103.221 237.631 124.822 208.049 117.025C183.597 110.584 161.82 92.0453 140.767 74.1298C138.151 71.9031 135.45 69.5997 132.809 67.3901C121.486 57.8864 106.934 46.6338 94.8696 43.9976C93.1145 43.6137 91.3934 43.153 89.732 42.7179C85.8384 41.6857 82.0981 40.6875 78.23 40.6875C76.8242 40.6875 75.4014 40.8155 73.953 41.1226C70.8347 41.7795 67.793 43.1018 64.8962 45.0384C62.1613 46.8641 59.469 49.3125 56.8874 52.2985C52.227 57.7072 47.8136 64.9843 43.3918 74.5649C28.8481 106.028 15.0031 133.831 -7.19148 155.381C-24.5808 172.273 -55.338 184.029 -81.7841 169.935C-111.391 154.178 -119.034 141.347 -127.128 127.765C-128.61 125.283 -130.135 122.715 -131.797 120.138C-139.226 108.63 -141.595 96.3706 -144.108 83.3861C-144.909 79.2314 -145.744 74.9402 -146.749 70.6746L-147.03 70.7429C-146.025 75 -145.198 79.2911 -144.389 83.4458C-141.876 96.4559 -139.499 108.741 -132.035 120.301C-130.374 122.877 -128.849 125.436 -127.366 127.919C-119.247 141.543 -111.587 154.408 -81.9119 170.217C-70.1799 176.461 -56.4797 178.074 -42.2854 174.875C-29.2839 171.94 -16.7424 165.098 -6.97849 155.611C-1.54272 150.33 3.48407 144.614 8.39159 138.131C12.8475 132.244 17.099 125.854 21.3846 118.611C29.7342 104.492 36.9677 89.1873 43.6559 74.7099C53.0449 54.4057 62.6896 43.827 74.0212 41.4297C79.4058 40.2865 84.39 41.6174 89.6639 43.0165C91.3338 43.4602 93.0548 43.9123 94.8185 44.3047C106.823 46.9323 121.333 58.1509 132.63 67.6375C135.263 69.8471 137.972 72.1505 140.579 74.3772C150.982 83.2325 161.735 92.3865 172.913 100.09C185.531 108.801 196.999 114.44 207.981 117.332C215.138 119.217 221.877 119.456 228.591 118.065C234.581 116.82 240.417 114.295 246.423 110.336C257.593 102.982 267.792 91.5931 277.649 80.5794C286.169 71.0585 294.979 61.2221 304.572 53.7061C328.352 35.0911 356.936 32.8217 379.906 30.9961C381.857 30.8425 383.689 30.6975 385.521 30.5439C401.632 29.1789 426.647 42.9056 450.835 56.1887C460.897 61.7169 470.406 66.9295 479.224 71.0671L479.343 70.8026C470.534 66.6735 461.034 61.4524 450.972 55.9327C427.857 43.2213 404.009 30.1259 387.804 30.1259Z" fill="url(#paint15_linear_249_23943)" fill-opacity="0.2"/>
<path d="M382.198 26.867C382.019 26.867 381.849 26.867 381.67 26.8755C380.903 26.8926 380.136 26.9097 379.352 26.9182C367.407 27.1571 353.878 27.4216 340.135 30.1942C324.22 33.4019 311.133 39.3908 300.151 48.4851C290.412 56.547 281.551 67.2366 272.989 77.5679C252.83 101.89 233.788 124.865 203.857 117.153C179.073 110.763 157.176 91.3713 135.996 72.6198C133.823 70.6917 131.565 68.6954 129.376 66.7759C118.249 57.0163 103.943 45.3285 92.0325 41.4895C90.2603 40.9179 88.5308 40.2781 86.8523 39.6553C82.1919 37.9234 77.753 36.2769 72.9647 36.2769C72.232 36.2769 71.4908 36.3196 70.741 36.3964C64.2914 37.1045 58.4722 40.5169 52.9512 46.83C48.3504 52.0938 43.886 59.5159 39.3107 69.523C25.2442 100.252 11.9615 129.267 -9.92636 152.037C-26.6256 169.398 -56.1814 181.734 -81.6477 167.811C-109.397 152.634 -116.972 139.846 -124.989 126.315C-126.369 123.995 -127.792 121.589 -129.317 119.174C-136.738 107.453 -139.473 95.0056 -142.361 81.8335C-143.264 77.6958 -144.21 73.4217 -145.301 69.1732L-145.59 69.25C-144.5 73.49 -143.563 77.7641 -142.651 81.8932C-139.754 95.0995 -137.019 107.572 -129.573 119.337C-128.048 121.742 -126.625 124.148 -125.245 126.469C-117.202 140.042 -109.61 152.856 -81.7841 168.075C-70.3332 174.337 -57.0675 175.805 -43.4441 172.315C-31.0815 169.15 -19.1024 162.027 -9.71336 152.258C-4.46504 146.798 0.408401 140.878 5.17961 134.172C9.45665 128.149 13.5803 121.589 17.7722 114.133C25.6958 100.022 32.7588 84.5891 39.5919 69.668C44.1586 59.6865 48.606 52.29 53.1898 47.0518C58.6511 40.7984 64.4106 37.4201 70.7836 36.7206C76.3727 36.1063 81.4166 37.9746 86.7586 39.9539C88.437 40.5766 90.1751 41.225 91.9558 41.7966C103.816 45.6186 118.087 57.2807 129.188 67.0233C131.378 68.9428 133.636 70.9391 135.808 72.8672C146.254 82.115 157.049 91.6699 168.321 99.7063C181.066 108.792 192.671 114.602 203.798 117.468C211.04 119.337 217.839 119.473 224.57 117.903C230.576 116.496 236.404 113.749 242.385 109.492C253.495 101.592 263.523 89.4859 273.227 77.7812C281.781 67.4584 290.634 56.7859 300.346 48.741C325.012 28.3259 355.147 27.7287 379.361 27.2424C380.145 27.2253 380.912 27.2083 381.678 27.1997C381.849 27.1997 382.028 27.1912 382.198 27.1912C398.684 27.1912 424.704 43.0763 449.864 58.441C460.258 64.7882 470.065 70.7771 479.173 75.6569L479.318 75.3924C470.218 70.5211 460.412 64.5322 450.026 58.185C424.824 42.7777 398.77 26.867 382.198 26.867Z" fill="url(#paint16_linear_249_23943)" fill-opacity="0.2"/>
<path d="M361.494 23.0963C353.783 23.0963 345.527 23.4973 337.229 24.8708C320.666 27.6093 307.145 33.7176 295.915 43.5285C286.083 52.1194 277.214 63.628 268.634 74.7526C259.083 87.1399 249.209 99.9538 238.184 108.383C225.864 117.801 213.271 120.71 199.673 117.281C174.557 110.95 152.549 90.6718 131.258 71.0586C129.511 69.4462 127.705 67.7827 125.941 66.1703C118.427 59.2941 112.403 54.1583 106.993 50.0207C100.151 44.7911 94.3322 41.1824 89.1946 38.9899C88.692 38.7766 88.1893 38.5633 87.6866 38.3501C80.9728 35.475 74.6254 32.7621 67.5453 31.6872C66.7018 31.5592 65.8584 31.491 65.0319 31.491C59.4258 31.491 54.186 34.4428 49.091 40.4573C43.4167 47.1457 38.6966 56.8116 35.2204 64.4896C34.3855 66.3238 33.559 68.1495 32.7411 69.9752C19.5692 99.1006 7.12999 126.622 -12.679 148.692C-29.2078 167.111 -56.9063 179.507 -81.5121 165.67C-107.421 151.098 -114.928 138.336 -122.885 124.822C-124.155 122.672 -125.467 120.437 -126.847 118.211C-134.259 106.275 -137.361 93.6322 -140.632 80.2467C-141.638 76.1347 -142.677 71.8862 -143.853 67.6718L-144.16 67.7571C-142.984 71.9629 -141.944 76.2115 -140.939 80.3235C-137.659 93.7345 -134.549 106.395 -127.111 118.373C-125.731 120.599 -124.419 122.826 -123.149 124.976C-115.175 138.532 -107.643 151.329 -81.6655 165.943C-70.4872 172.23 -57.6731 173.552 -44.612 169.764C-32.897 166.369 -21.4716 158.964 -12.449 148.897C7.39412 126.784 19.8418 99.2542 33.0223 70.0946C33.8487 68.2689 34.6752 66.4433 35.5016 64.6091C38.9692 56.9566 43.6808 47.3163 49.3296 40.6535C55.1061 33.8371 61.0446 31.0047 67.4942 31.9858C74.5317 33.0607 80.8536 35.7651 87.5588 38.6316C88.0615 38.8449 88.5556 39.0582 89.0668 39.2714C100.646 44.211 114.099 55.7537 125.72 66.3921C127.484 68.0045 129.29 69.6681 131.036 71.2804C141.507 80.9292 152.336 90.9107 163.702 99.2713C176.576 108.749 188.308 114.73 199.58 117.571C203.294 118.509 206.975 118.978 210.519 118.987C210.528 118.987 210.537 118.987 210.545 118.987C213.919 118.987 217.284 118.56 220.548 117.716C226.58 116.146 232.416 113.177 238.371 108.621C249.43 100.167 259.322 87.3361 268.881 74.9318C277.453 63.8157 286.313 52.3156 296.12 43.7503C321.586 21.5095 354.099 22.8489 377.835 23.83C394.637 24.521 422.216 42.9142 448.892 60.7103C459.619 67.8594 469.741 74.6161 479.138 80.2211L479.3 79.9481C469.919 74.3431 459.789 67.595 449.071 60.4458C422.361 42.6327 394.739 24.2139 377.852 23.5143C372.851 23.3181 367.33 23.0963 361.494 23.0963Z" fill="url(#paint17_linear_249_23943)" fill-opacity="0.2"/>
<path d="M349.804 18.6943C344.283 18.6943 338.634 19.0014 332.977 19.8033C325.258 20.8953 318.076 22.8575 311.635 25.6301C304.29 28.7952 297.577 33.1461 291.681 38.5634C281.781 47.6662 272.92 59.9852 264.357 71.9033C254.943 84.9987 245.196 98.5377 234.213 107.53C221.936 117.571 209.267 120.804 195.49 117.409C170.041 111.138 147.931 89.9297 126.555 69.4292C125.2 68.1325 123.854 66.8358 122.516 65.5561C110.997 54.5509 97.6889 42.4963 86.3658 36.4903C85.7268 36.1491 85.0963 35.8164 84.4658 35.4751C77.7691 31.9005 71.4388 28.5307 64.3416 26.961C60.7973 26.1761 57.3296 26.543 54.0324 28.053C51.0163 29.435 48.1536 31.7129 45.2738 35.0315C39.4632 41.7199 34.675 51.5905 31.1477 59.4477C29.4948 63.1247 27.8504 66.8443 26.2487 70.4359C14.048 97.9319 2.52901 123.901 -15.4141 145.348C-30.0685 162.871 -56.1397 178.151 -81.3589 163.537C-105.428 149.597 -112.883 136.817 -120.781 123.278C-121.931 121.316 -123.115 119.277 -124.351 117.255C-131.763 105.073 -135.239 92.2246 -138.912 78.6259C-140.011 74.548 -141.152 70.3335 -142.396 66.1703L-142.711 66.2642C-141.468 70.4274 -140.326 74.6418 -139.227 78.7112C-135.546 92.3355 -132.07 105.201 -124.632 117.417C-123.397 119.448 -122.212 121.478 -121.071 123.44C-113.147 137.013 -105.666 149.827 -81.5293 163.818C-75.8805 167.086 -69.8484 168.997 -63.5947 169.492C-57.7756 169.952 -51.7775 169.193 -45.7709 167.231C-34.7034 163.614 -23.8319 155.918 -15.167 145.562C2.80165 124.08 14.3377 98.094 26.5469 70.5724C28.1401 66.9808 29.793 63.2612 31.4459 59.5843C34.9647 51.7526 39.7444 41.9076 45.5209 35.2533C51.4509 28.4198 57.5853 25.8178 64.2649 27.2937C71.311 28.8549 77.6243 32.2162 84.304 35.7737C84.9344 36.1064 85.5649 36.4477 86.2039 36.7889C97.4929 42.7778 110.776 54.8153 122.278 65.8035C123.615 67.0832 124.961 68.3714 126.316 69.6681C136.813 79.7349 147.667 90.143 159.118 98.8618C172.111 108.749 183.979 114.918 195.396 117.733C199.162 118.663 202.885 119.106 206.464 119.055C209.88 119.004 213.28 118.509 216.568 117.571C222.635 115.839 228.471 112.64 234.409 107.785C245.434 98.7765 255.181 85.2119 264.613 72.0995C273.175 60.1985 282.019 47.8965 291.894 38.8108C315.954 16.6724 346.89 17.7644 374.001 20.5199C391.135 22.2603 420 43.0082 447.912 63.065C458.971 71.016 469.417 78.515 479.095 84.8451L479.274 84.5636C469.595 78.242 459.158 70.7345 448.099 62.792C420.154 42.7096 391.254 21.9361 374.027 20.1872C366.563 19.4194 358.333 18.6943 349.804 18.6943Z" fill="url(#paint18_linear_249_23943)" fill-opacity="0.2"/>
<path d="M340.782 14.0617C336.778 14.0617 332.739 14.258 328.718 14.7357C320.973 15.6485 313.765 17.5254 307.299 20.3151C299.963 23.4802 293.283 27.9505 287.447 33.5982C277.504 43.2128 268.669 56.3338 260.132 69.0197C250.837 82.8316 241.218 97.1129 230.261 106.659C218.009 117.34 205.263 120.889 191.299 117.528C165.509 111.317 142.317 88.1551 121.852 67.7144C120.924 66.7845 119.995 65.8631 119.075 64.9417C107.854 53.7574 94.9292 41.225 83.5209 33.9821C82.8649 33.564 82.2088 33.146 81.5613 32.7365C74.7709 28.4027 68.3638 24.3077 61.1218 22.2432C57.4497 21.1938 53.8713 21.3644 50.4718 22.7635C47.4046 24.0176 44.3715 26.321 41.4577 29.6056C35.5022 36.3111 30.6373 46.3864 27.0674 54.4057C24.6818 59.7633 22.3388 65.1806 20.0639 70.4273C8.76642 96.4986 -1.90062 121.128 -18.1483 141.995C-32.1637 159.954 -57.0847 175.822 -81.2218 161.378C-103.459 148.078 -110.88 135.239 -118.744 121.64C-119.758 119.891 -120.806 118.074 -121.879 116.274C-129.283 103.853 -133.143 90.7827 -137.224 76.9451C-138.408 72.9269 -139.635 68.7637 -140.956 64.6602L-141.279 64.7626C-139.967 68.8661 -138.74 73.0208 -137.556 77.039C-133.466 90.8936 -129.607 103.98 -122.177 116.445C-121.104 118.245 -120.056 120.053 -119.042 121.811C-111.161 135.443 -103.715 148.326 -81.4007 161.668C-75.8883 164.97 -70.035 166.855 -64.0029 167.265C-58.4138 167.649 -52.6713 166.779 -46.9373 164.671C-41.5868 162.701 -36.2958 159.689 -31.235 155.705C-26.4212 151.917 -21.9311 147.37 -17.8927 142.192C-10.4803 132.671 -3.78352 121.87 3.16028 108.195C9.29468 96.1232 14.6708 83.7018 20.3707 70.5467C22.6455 65.3001 24.9885 59.8828 27.3741 54.5252C30.9355 46.5229 35.7833 36.4817 41.7047 29.8103C47.7966 22.9512 54.1099 20.5796 61.0196 22.5503C68.2105 24.6063 74.6005 28.6842 81.3654 33.001C82.0129 33.419 82.6689 33.837 83.325 34.2465C94.7077 41.4725 107.615 53.9877 118.819 65.1636C119.739 66.0849 120.668 67.0063 121.597 67.9362C132.102 78.4296 142.973 89.2812 154.518 98.367C167.63 108.681 179.627 115.054 191.205 117.835C195.022 118.756 198.788 119.166 202.409 119.064C205.86 118.97 209.285 118.398 212.599 117.374C218.699 115.481 224.553 112.051 230.474 106.89C241.465 97.3091 251.092 83.0108 260.405 69.1818C268.933 56.5129 277.76 43.409 287.677 33.82C310.979 11.2891 341.098 12.492 370.168 17.15C387.634 19.9483 417.786 43.0507 446.933 65.3939C458.324 74.1298 469.094 82.371 479.062 89.4092L479.258 89.1277C469.289 82.098 458.529 73.8483 447.138 65.1209C417.948 42.7521 387.77 19.6241 370.21 16.8088C361.264 15.4011 351.143 14.0617 340.782 14.0617Z" fill="url(#paint19_linear_249_23943)" fill-opacity="0.2"/>
<path d="M333.054 9.2758C330.2 9.2758 327.329 9.39523 324.466 9.66823C316.687 10.4019 309.454 12.1935 302.97 15.0002C295.643 18.1738 288.997 22.7636 283.204 28.6331C273.235 38.7425 264.451 52.6484 255.948 66.102C246.764 80.6307 237.272 95.6541 226.333 105.781C214.098 117.101 201.267 120.983 187.107 117.656C160.976 111.505 137.708 87.2935 117.175 65.9314L115.632 64.3276C103.347 51.5564 91.4185 39.425 80.6748 31.474C80.0699 31.0303 79.465 30.5782 78.8686 30.1346C71.9248 24.9817 65.3729 20.1104 57.9009 17.5169C54.1095 16.2031 50.4203 16.1775 46.9101 17.4572C43.7492 18.6089 40.6308 20.8612 37.6403 24.1627C31.5229 30.8938 26.5899 41.1654 22.9774 49.3553C19.9357 56.257 16.9793 63.2782 14.1251 70.069C3.67958 94.8863 -6.18658 118.33 -20.9006 138.643C-34.899 157.957 -58.0564 173.518 -81.0774 159.246C-101.491 146.594 -108.904 133.635 -116.742 119.917C-117.603 118.415 -118.489 116.854 -119.392 115.318C-126.804 102.616 -131.064 89.2983 -135.571 75.2048C-136.832 71.2634 -138.136 67.1855 -139.499 63.1673L-139.84 63.2867C-138.477 67.3049 -137.173 71.3828 -135.912 75.3157C-131.397 89.4263 -127.137 102.761 -119.707 115.498C-118.804 117.042 -117.918 118.594 -117.057 120.096C-109.193 133.857 -101.764 146.85 -81.2648 159.553C-75.8802 162.888 -70.2144 164.748 -64.4208 165.089C-59.0617 165.405 -53.5834 164.415 -48.122 162.155C-43.0611 160.065 -38.0514 156.899 -33.2376 152.745C-28.7135 148.846 -24.4705 144.171 -20.611 138.847C-13.9909 129.711 -7.71165 118.987 -1.40686 106.054C4.23338 94.4938 9.42207 82.1492 14.4489 70.2056C17.3031 63.4147 20.2595 56.3936 23.3011 49.4918C26.9051 41.3275 31.8126 31.09 37.8959 24.4016C44.1496 17.5169 50.6504 15.3756 57.7731 17.8497C65.194 20.4261 71.7288 25.2803 78.6471 30.4161C79.252 30.8597 79.8484 31.3119 80.4618 31.7555C91.1885 39.6895 103.099 51.8038 115.377 64.5664L116.919 66.1703C127.433 77.1073 138.304 88.4196 149.942 97.8978C163.174 108.664 175.306 115.242 187.03 117.997C190.898 118.91 194.724 119.294 198.379 119.14C201.863 118.995 205.322 118.356 208.654 117.238C214.797 115.182 220.658 111.514 226.58 106.045C237.554 95.893 247.062 80.8439 256.255 66.2983C264.741 52.8702 273.525 38.9814 283.459 28.889C307.094 4.90784 338.618 7.8255 366.333 13.84C384.132 17.7046 415.562 43.1787 445.961 67.8083C457.693 77.3205 468.778 86.2954 479.036 94.0331L479.249 93.7431C468.991 86.0138 457.915 77.0305 446.183 67.5268C415.758 42.8631 384.294 17.3634 366.41 13.4902C356.995 11.4427 345.195 9.2758 333.054 9.2758Z" fill="url(#paint20_linear_249_23943)" fill-opacity="0.2"/>
<path d="M326.093 4.39586C309.403 4.39586 292.695 9.07095 278.969 23.6678C268.992 34.2721 260.259 48.9543 251.816 63.1502C242.742 78.4039 233.362 94.1866 222.431 104.885C210.204 116.854 197.28 121.068 182.915 117.767C156.435 111.684 133.098 86.372 112.506 64.0374L111.057 62.4677C99.9045 50.3704 88.3684 37.8637 77.8292 28.9657C77.318 28.5391 76.8153 28.1126 76.3126 27.6775C69.1814 21.6374 62.442 15.93 54.6803 12.782C52.3629 11.8436 50.1562 11.4085 48.0518 11.4085C35.1951 11.4085 26.1554 27.6775 18.8963 44.2962C15.2498 52.6483 11.7651 61.1965 8.3997 69.4632C-1.24493 93.1458 -10.3443 115.506 -23.644 135.273C-29.0031 143.241 -37.8383 153.879 -49.4681 159.28C-60.2885 164.304 -70.8789 163.571 -80.9325 157.087C-99.5487 145.101 -106.97 131.954 -114.825 118.031C-115.507 116.828 -116.205 115.583 -116.912 114.346C-124.35 101.319 -129.028 87.72 -133.978 73.3279C-135.29 69.5059 -136.653 65.5559 -138.051 61.6572L-138.4 61.7852C-137.003 65.6754 -135.639 69.6253 -134.327 73.4473C-129.369 87.865 -124.691 101.472 -117.236 114.533C-116.538 115.762 -115.83 117.008 -115.149 118.21C-107.268 132.176 -99.8213 145.365 -81.137 157.411C-75.8887 160.79 -70.4103 162.641 -64.8467 162.897C-59.7262 163.136 -54.4949 162.035 -49.3063 159.629C-44.5351 157.411 -39.7979 154.093 -35.2397 149.776C-31.0053 145.766 -27.0009 140.955 -23.3203 135.495C-17.3392 126.605 -11.6223 116.248 -5.8287 103.835C-0.657074 92.7448 4.13118 80.9889 8.75754 69.6168C12.1229 61.3501 15.6076 52.8018 19.2457 44.4583C27.6208 25.2802 38.3645 6.5713 54.5525 13.1403C62.2631 16.2713 68.9769 21.953 76.0826 27.9761C76.5852 28.4026 77.0965 28.8377 77.5991 29.2643C88.1213 38.1452 99.6489 50.6434 110.793 62.7321L112.241 64.3019C122.755 75.6995 133.618 87.4896 145.342 97.3687C158.692 108.621 170.961 115.412 182.838 118.142C186.766 119.046 190.634 119.396 194.34 119.192C197.867 118.995 201.361 118.279 204.717 117.076C210.903 114.849 216.79 110.95 222.703 105.158C233.668 94.4255 243.058 78.6257 252.148 63.3464C260.583 49.1675 269.299 34.5024 279.25 23.9323C303.2 -1.53333 336.326 3.38066 362.508 10.5127C380.63 15.4438 413.347 43.2981 444.99 70.2396C457.054 80.5111 468.454 90.2196 479.01 98.6399L479.24 98.3498C468.693 89.9295 457.293 80.2296 445.229 69.958C413.56 42.991 380.809 15.111 362.602 10.1544C351.296 7.06612 338.694 4.39586 326.093 4.39586Z" fill="url(#paint21_linear_249_23943)" fill-opacity="0.2"/>
<path d="M319.559 -0.526718C318.357 -0.526718 317.156 -0.501129 315.955 -0.441406C308.108 -0.06604 300.823 1.5549 294.314 4.38725C286.995 7.56938 280.409 12.3895 274.735 18.7111C264.767 29.8017 256.102 45.2431 247.727 60.1812C238.755 76.1687 229.477 92.7106 218.563 103.997C206.345 116.624 193.318 121.179 178.74 117.912C151.911 111.897 127.995 84.8449 108.774 63.1074C107.07 61.1794 105.349 59.2257 103.679 57.3233C94.1365 46.4801 84.2704 35.2701 75.0006 26.4745C74.6257 26.1162 74.2509 25.7579 73.8675 25.3996C66.8385 18.7197 59.5709 11.8094 51.4684 8.07272C46.9698 5.99963 42.5905 5.74371 38.4583 7.33051C33.8661 9.08794 29.5379 13.0293 25.2268 19.368C21.8699 24.3076 18.5641 30.6292 14.8239 39.2713C10.615 48.9968 6.67874 59.0295 2.8703 68.7465C-5.61563 90.3731 -14.3912 112.733 -26.3703 131.954C-36.0661 147.506 -47.5851 157.394 -58.806 159.791C-66.278 161.387 -73.6649 159.766 -80.7791 154.98C-97.6316 143.608 -105.112 130.154 -113.027 115.907C-113.496 115.071 -113.964 114.226 -114.433 113.382C-121.922 99.9707 -127.29 85.3653 -132.478 71.2462C-133.816 67.6119 -135.196 63.8582 -136.602 60.1556L-136.96 60.2921C-135.554 63.9861 -134.174 67.7484 -132.845 71.3827C-127.648 85.5188 -122.271 100.133 -114.774 113.569C-114.305 114.414 -113.837 115.25 -113.368 116.095C-109.372 123.286 -105.598 130.077 -100.605 136.689C-94.9478 144.179 -88.7197 150.091 -81.0176 155.278C-73.8182 160.133 -66.3206 161.771 -58.7464 160.15C-52.7397 158.861 -46.7161 155.543 -40.8458 150.279C-35.6145 145.578 -30.6389 139.479 -26.0636 132.142C-20.679 123.5 -15.4818 113.501 -10.1823 101.575C-5.45374 90.9276 -1.04889 79.7176 3.20259 68.866C7.01103 59.1575 10.9473 49.1248 15.1561 39.4078C20.6515 26.7048 28.2855 11.6132 38.5776 7.68028C42.6076 6.13612 46.8846 6.38354 51.2895 8.41397C59.3409 12.125 66.5829 19.0097 73.5863 25.6726C73.9612 26.0309 74.3361 26.3892 74.7195 26.7475C83.9722 35.5346 93.3953 46.2412 103.372 57.5707C105.042 59.4646 106.772 61.4268 108.467 63.3548C117.728 73.8311 129.256 86.8668 141.244 97.2407C154.518 108.724 166.744 115.608 178.638 118.279C182.625 119.174 186.553 119.499 190.293 119.234C193.863 118.987 197.39 118.202 200.773 116.897C207.01 114.499 212.914 110.362 218.818 104.253C229.775 92.9325 239.062 76.3734 248.042 60.3604C256.408 45.4479 265.065 30.0235 275.008 18.967C299.008 -7.73558 332.313 -1.36278 358.648 7.16841C377.094 13.217 411.123 43.4686 444.044 72.7306C456.433 83.7358 468.131 94.1354 478.959 103.238L479.207 102.94C468.378 93.8453 456.688 83.4543 444.3 72.4405C411.353 43.153 377.29 12.8758 358.768 6.80157C348.868 3.58533 334.358 -0.526718 319.559 -0.526718Z" fill="url(#paint22_linear_249_23943)" fill-opacity="0.2"/>
<path d="M313.441 -5.53438C312.862 -5.53438 312.283 -5.52585 311.703 -5.51732C303.814 -5.32109 296.512 -3.77695 289.994 -0.927536C282.684 2.26314 276.124 7.20268 270.501 13.7376C260.549 25.3059 251.961 41.4981 243.654 57.1528C234.785 73.8825 225.609 91.1837 214.695 103.059C202.477 116.359 189.339 121.248 174.548 118.006C147.395 112.068 123.088 83.3947 105.34 62.4677C102.367 58.9614 99.3679 55.3783 96.4711 51.9061C88.0874 41.8649 80.1638 32.3868 72.155 23.9494L71.4905 23.2498C64.24 15.6059 56.7424 7.69749 48.2479 3.32953C43.5534 0.915192 38.9867 0.480118 34.6755 2.04132C29.9981 3.7305 25.5932 7.66338 21.2225 14.0703C17.7889 19.0952 14.4576 25.485 10.7343 34.1954C5.93758 45.3371 1.54977 56.9736 -2.68468 68.2263C-10.4294 88.7779 -18.4296 110.021 -29.1222 128.567C-35.819 140.187 -46.6649 154.656 -60.2969 157.65C-67.147 159.152 -73.9886 157.522 -80.6427 152.804C-95.7742 142.089 -103.732 127.501 -111.425 113.382L-111.954 112.418C-119.545 98.4949 -125.458 83.3862 -131.166 68.7808C-132.461 65.4622 -133.807 62.0326 -135.154 58.6543L-135.52 58.7993C-134.174 62.1777 -132.836 65.6072 -131.533 68.9173C-125.816 83.5398 -119.903 98.657 -112.294 112.606L-111.766 113.57C-107.907 120.65 -103.919 127.97 -99.08 134.71C-93.6527 142.268 -87.6972 148.3 -80.8727 153.137C-74.1249 157.923 -67.1726 159.578 -60.2032 158.051C-54.4096 156.78 -48.599 153.316 -42.9332 147.745C-37.983 142.874 -33.2118 136.493 -28.7644 128.781C-18.0548 110.2 -10.046 88.94 -2.30127 68.3798C1.93317 57.1357 6.32097 45.5077 11.1092 34.366C14.8239 25.6812 18.1382 19.3085 21.5547 14.3092C25.8829 7.97903 30.2196 4.08879 34.8204 2.43375C39.0293 0.915192 43.4852 1.34177 48.0775 3.70491C56.5123 8.03876 63.9844 15.9216 71.2093 23.5399L71.8739 24.2395C79.8656 32.6683 87.7892 42.1464 96.1729 52.1791C99.0697 55.6513 102.069 59.2429 105.042 62.7493C115.607 75.2133 126.036 87.2338 137.35 97.2664C150.471 108.903 162.612 115.822 174.472 118.415C178.527 119.303 182.498 119.593 186.289 119.277C189.901 118.978 193.463 118.117 196.871 116.718C203.159 114.141 209.089 109.773 214.993 103.341C225.941 91.4226 235.134 74.1043 244.012 57.349C252.302 41.7113 260.882 25.5362 270.807 14.002C295.175 -14.313 330.43 -5.37228 354.832 3.82434C373.593 10.9479 408.925 43.6053 443.09 75.1877C455.811 86.9437 467.824 98.0513 478.943 107.828L479.207 107.529C468.088 97.7613 456.075 86.6537 443.363 74.8977C409.172 43.2896 373.814 10.5981 354.977 3.45749C347.283 0.556885 340.399 -1.56737 333.932 -3.03473C326.647 -4.69832 319.772 -5.53438 313.441 -5.53438Z" fill="url(#paint23_linear_249_23943)" fill-opacity="0.2"/>
<path d="M307.623 -10.5849C307.563 -10.5849 307.512 -10.5849 307.461 -10.5849C299.537 -10.5678 292.21 -9.10045 285.675 -6.24251C278.365 -3.0433 271.839 2.01569 266.258 8.77238C256.332 20.8099 247.838 37.7358 239.616 54.0986C230.84 71.5619 221.767 89.631 210.852 102.104C198.626 116.078 185.386 121.316 170.365 118.142C144.993 112.691 122.636 87.3532 101.907 61.8705C97.792 56.8115 93.6598 51.5819 89.6724 46.5229C83.0183 38.0855 76.1256 29.3581 69.3096 21.4583L69.1648 21.2876C61.6842 12.6199 53.948 3.65367 45.0276 -1.37973C40.1542 -4.12677 35.4085 -4.74953 30.927 -3.22246C26.1643 -1.60153 21.6913 2.33136 17.2439 8.80652C13.7507 13.8996 10.3853 20.3663 6.65353 29.1619C1.38817 41.5322 -3.32341 54.5849 -7.87309 67.211C-14.9617 86.8839 -22.2974 107.222 -31.8654 125.223C-36.168 133.319 -40.7092 139.974 -45.344 144.981C-50.7457 150.808 -56.2667 154.383 -61.7536 155.603C-68.0073 156.993 -74.3121 155.33 -80.4976 150.672C-93.9933 140.494 -102.215 125.07 -109.466 111.454C-117.304 96.7375 -123.89 80.8268 -130.263 65.4365C-131.388 62.7236 -132.546 59.9169 -133.705 57.1528L-134.088 57.3148C-132.938 60.079 -131.771 62.8857 -130.646 65.5986C-124.273 80.9974 -117.679 96.9166 -109.832 111.65C-105.683 119.439 -101.883 126.426 -97.3416 133.038C-92.1189 140.656 -86.6916 146.534 -80.7532 151.004C-74.4654 155.739 -68.0499 157.428 -61.6769 156.012C-56.1048 154.775 -50.5072 151.158 -45.0544 145.271C-40.3939 140.238 -35.8357 133.558 -31.5161 125.428C-21.9311 107.401 -14.5954 87.046 -7.4982 67.3561C-2.94852 54.7299 1.75452 41.6857 7.01988 29.324C10.7431 20.554 14.0915 14.1044 17.5762 9.04538C21.964 2.64699 26.3773 -1.2347 31.0463 -2.82149C35.417 -4.31445 40.0519 -3.70021 44.8146 -1.01288C53.6754 3.98639 61.386 12.9271 68.841 21.5692L68.9859 21.7398C75.7933 29.6311 82.6775 38.3586 89.3316 46.7874C93.319 51.8464 97.4512 57.076 101.566 62.1435C110.921 73.6436 121.861 86.7901 133.414 97.2835C146.39 109.065 158.437 116.026 170.255 118.56C174.37 119.43 178.408 119.686 182.242 119.311C185.897 118.953 189.501 118.014 192.935 116.521C199.274 113.766 205.229 109.15 211.142 102.394C222.09 89.8784 231.181 71.7923 239.965 54.3033C248.178 37.9576 256.664 21.0573 266.556 9.05392C277.061 -3.69168 290.625 -10.0474 307.529 -10.0474C320.113 -10.0474 334.546 -6.52402 350.964 0.505676C370.049 8.70415 406.668 43.7758 442.085 77.6959C455.138 90.194 467.466 102.001 478.875 112.443L479.156 112.136C467.747 101.703 455.428 89.8955 442.375 77.3973C406.932 43.4517 370.279 8.35437 351.126 0.121765C334.358 -7.08708 320.113 -10.5849 307.623 -10.5849Z" fill="url(#paint24_linear_249_23943)" fill-opacity="0.2"/>
<path d="M302.008 -15.661C294.51 -15.661 287.566 -14.279 281.355 -11.549C274.054 -8.34128 267.544 -3.17136 262.024 3.81567C252.14 16.3139 243.723 33.9734 235.595 51.0443C226.913 69.267 217.933 88.1209 207.01 101.199C194.775 115.856 181.416 121.435 166.174 118.262C140.579 112.938 118.692 87.1825 98.4736 61.2476C93.4042 54.7469 88.3519 47.9475 83.4784 41.3785C77.9574 33.9393 72.249 26.2527 66.4725 18.95C59.3072 9.89841 51.1961 -0.373138 41.8156 -6.10609C36.7633 -9.19438 31.8387 -10.0049 27.1783 -8.50337C24.6734 -7.6929 22.177 -6.19995 19.7744 -4.05009C17.5933 -2.09645 15.4036 0.454391 13.2736 3.53415C9.76338 8.61873 6.26164 15.3498 2.57249 24.1114C-3.15295 37.693 -8.14567 52.2216 -12.968 66.2725C-19.4261 85.0582 -26.0973 104.484 -34.6003 121.879C-38.7836 130.427 -43.1117 137.397 -47.4655 142.575C-52.6542 148.744 -57.9536 152.463 -63.2189 153.623C-68.9018 154.877 -74.6613 153.163 -80.3527 148.539C-91.3264 139.607 -99.855 124.216 -106.986 110.49C-115.489 94.1183 -123.183 76.4587 -130.629 59.3793C-131.174 58.1338 -131.711 56.8882 -132.257 55.6426L-132.648 55.8133C-132.103 57.0588 -131.566 58.3044 -131.021 59.5499C-123.575 76.6379 -115.881 94.2975 -107.37 110.686C-100.221 124.447 -91.6672 139.888 -80.6338 148.871C-74.8402 153.581 -68.9529 155.321 -63.1423 154.041C-57.7832 152.864 -52.4071 149.093 -47.1588 142.848C-42.7795 137.644 -38.4343 130.649 -34.2339 122.066C-25.7139 104.646 -19.0342 85.2032 -12.5761 66.409C-7.75375 52.3667 -2.76103 37.8466 2.95589 24.282C8.08493 12.0995 16.196 -4.51077 27.2975 -8.09387C31.8302 -9.5527 36.6355 -8.76782 41.5856 -5.73926C50.8979 -0.0404205 58.9919 10.1885 66.1317 19.2145C71.8997 26.5086 77.6081 34.1952 83.1291 41.6344C88.011 48.212 93.0549 55.0113 98.1328 61.5121C107.19 73.1231 117.831 86.4232 129.52 97.2919C142.352 109.236 154.314 116.223 166.088 118.671C170.272 119.541 174.353 119.763 178.238 119.337C181.936 118.927 185.574 117.92 189.05 116.334C195.44 113.407 201.421 108.545 207.334 101.464C218.29 88.3427 227.279 69.4717 235.978 51.2235C244.106 34.1696 252.507 16.5357 262.356 4.07161C280.691 -19.1161 308.423 -21.3769 347.155 -2.86424C366.564 6.41769 404.486 43.9123 441.157 80.1783C454.541 93.4102 467.177 105.908 478.875 117.007L479.164 116.7C467.475 105.61 454.84 93.1116 441.455 79.8798C404.759 43.5881 366.811 6.06792 347.343 -3.24815C330.397 -11.3528 315.964 -15.4136 303.218 -15.661C302.809 -15.661 302.408 -15.661 302.008 -15.661Z" fill="url(#paint25_linear_249_23943)" fill-opacity="0.2"/>
</g>
<defs>
<linearGradient id="paint0_linear_249_23943" x1="152.834" y1="213.019" x2="152.834" y2="1.94737" gradientUnits="userSpaceOnUse">
<stop stop-color="white"/>
<stop offset="1" stop-color="white" stop-opacity="0"/>
</linearGradient>
<linearGradient id="paint1_linear_249_23943" x1="153.96" y1="210.432" x2="153.96" y2="6.53711" gradientUnits="userSpaceOnUse">
<stop stop-color="white"/>
<stop offset="1" stop-color="white" stop-opacity="0"/>
</linearGradient>
<linearGradient id="paint2_linear_249_23943" x1="155.067" y1="207.885" x2="155.067" y2="11.127" gradientUnits="userSpaceOnUse">
<stop stop-color="white"/>
<stop offset="1" stop-color="white" stop-opacity="0"/>
</linearGradient>
<linearGradient id="paint3_linear_249_23943" x1="156.166" y1="205.356" x2="156.166" y2="15.7167" gradientUnits="userSpaceOnUse">
<stop stop-color="white"/>
<stop offset="1" stop-color="white" stop-opacity="0"/>
</linearGradient>
<linearGradient id="paint4_linear_249_23943" x1="157.261" y1="202.854" x2="157.261" y2="20.298" gradientUnits="userSpaceOnUse">
<stop stop-color="white"/>
<stop offset="1" stop-color="white" stop-opacity="0"/>
</linearGradient>
<linearGradient id="paint5_linear_249_23943" x1="158.313" y1="200.335" x2="158.313" y2="24.8878" gradientUnits="userSpaceOnUse">
<stop stop-color="white"/>
<stop offset="1" stop-color="white" stop-opacity="0"/>
</linearGradient>
<linearGradient id="paint6_linear_249_23943" x1="159.368" y1="197.872" x2="159.368" y2="29.4691" gradientUnits="userSpaceOnUse">
<stop stop-color="white"/>
<stop offset="1" stop-color="white" stop-opacity="0"/>
</linearGradient>
<linearGradient id="paint7_linear_249_23943" x1="160.371" y1="195.455" x2="160.371" y2="34.0502" gradientUnits="userSpaceOnUse">
<stop stop-color="white"/>
<stop offset="1" stop-color="white" stop-opacity="0"/>
</linearGradient>
<linearGradient id="paint8_linear_249_23943" x1="161.172" y1="193.013" x2="161.172" y2="38.64" gradientUnits="userSpaceOnUse">
<stop stop-color="white"/>
<stop offset="1" stop-color="white" stop-opacity="0"/>
</linearGradient>
<linearGradient id="paint9_linear_249_23943" x1="161.883" y1="190.574" x2="161.883" y2="43.2213" gradientUnits="userSpaceOnUse">
<stop stop-color="white"/>
<stop offset="1" stop-color="white" stop-opacity="0"/>
</linearGradient>
<linearGradient id="paint10_linear_249_23943" x1="162.591" y1="188.196" x2="162.591" y2="43.0251" gradientUnits="userSpaceOnUse">
<stop stop-color="white"/>
<stop offset="1" stop-color="white" stop-opacity="0"/>
</linearGradient>
<linearGradient id="paint11_linear_249_23943" x1="163.302" y1="185.839" x2="163.302" y2="41.2421" gradientUnits="userSpaceOnUse">
<stop stop-color="white"/>
<stop offset="1" stop-color="white" stop-opacity="0"/>
</linearGradient>
<linearGradient id="paint12_linear_249_23943" x1="163.996" y1="183.477" x2="163.996" y2="38.9045" gradientUnits="userSpaceOnUse">
<stop stop-color="white"/>
<stop offset="1" stop-color="white" stop-opacity="0"/>
</linearGradient>
<linearGradient id="paint13_linear_249_23943" x1="164.733" y1="181.136" x2="164.733" y2="36.2" gradientUnits="userSpaceOnUse">
<stop stop-color="white"/>
<stop offset="1" stop-color="white" stop-opacity="0"/>
</linearGradient>
<linearGradient id="paint14_linear_249_23943" x1="165.415" y1="178.787" x2="165.415" y2="33.2569" gradientUnits="userSpaceOnUse">
<stop stop-color="white"/>
<stop offset="1" stop-color="white" stop-opacity="0"/>
</linearGradient>
<linearGradient id="paint15_linear_249_23943" x1="166.156" y1="176.477" x2="166.156" y2="30.1259" gradientUnits="userSpaceOnUse">
<stop stop-color="white"/>
<stop offset="1" stop-color="white" stop-opacity="0"/>
</linearGradient>
<linearGradient id="paint16_linear_249_23943" x1="166.864" y1="174.165" x2="166.864" y2="26.867" gradientUnits="userSpaceOnUse">
<stop stop-color="white"/>
<stop offset="1" stop-color="white" stop-opacity="0"/>
</linearGradient>
<linearGradient id="paint17_linear_249_23943" x1="167.57" y1="171.878" x2="167.57" y2="23.0963" gradientUnits="userSpaceOnUse">
<stop stop-color="white"/>
<stop offset="1" stop-color="white" stop-opacity="0"/>
</linearGradient>
<linearGradient id="paint18_linear_249_23943" x1="168.281" y1="169.622" x2="168.281" y2="18.6943" gradientUnits="userSpaceOnUse">
<stop stop-color="white"/>
<stop offset="1" stop-color="white" stop-opacity="0"/>
</linearGradient>
<linearGradient id="paint19_linear_249_23943" x1="168.989" y1="167.353" x2="168.989" y2="14.0617" gradientUnits="userSpaceOnUse">
<stop stop-color="white"/>
<stop offset="1" stop-color="white" stop-opacity="0"/>
</linearGradient>
<linearGradient id="paint20_linear_249_23943" x1="169.705" y1="165.147" x2="169.705" y2="9.2758" gradientUnits="userSpaceOnUse">
<stop stop-color="white"/>
<stop offset="1" stop-color="white" stop-opacity="0"/>
</linearGradient>
<linearGradient id="paint21_linear_249_23943" x1="170.42" y1="162.929" x2="170.42" y2="4.39586" gradientUnits="userSpaceOnUse">
<stop stop-color="white"/>
<stop offset="1" stop-color="white" stop-opacity="0"/>
</linearGradient>
<linearGradient id="paint22_linear_249_23943" x1="171.123" y1="160.755" x2="171.123" y2="-0.526718" gradientUnits="userSpaceOnUse">
<stop stop-color="white"/>
<stop offset="1" stop-color="white" stop-opacity="0"/>
</linearGradient>
<linearGradient id="paint23_linear_249_23943" x1="171.843" y1="158.602" x2="171.843" y2="-5.53438" gradientUnits="userSpaceOnUse">
<stop stop-color="white"/>
<stop offset="1" stop-color="white" stop-opacity="0"/>
</linearGradient>
<linearGradient id="paint24_linear_249_23943" x1="172.534" y1="156.497" x2="172.534" y2="-10.5849" gradientUnits="userSpaceOnUse">
<stop stop-color="white"/>
<stop offset="1" stop-color="white" stop-opacity="0"/>
</linearGradient>
<linearGradient id="paint25_linear_249_23943" x1="173.258" y1="154.449" x2="173.258" y2="-15.661" gradientUnits="userSpaceOnUse">
<stop stop-color="white"/>
<stop offset="1" stop-color="white" stop-opacity="0"/>
</linearGradient>
</defs>
</svg>
