<svg width="957" height="666" viewBox="0 0 957 666" fill="none" xmlns="http://www.w3.org/2000/svg">
<path d="M378.975 666C392.594 651.428 400.104 633.191 401.972 610.247C403.607 590.087 400.787 569.173 398.074 548.942L397.661 545.905C390.887 495.345 385.03 436.717 401.362 380.784C418.933 320.611 457.237 274.651 506.466 254.689C527.289 246.244 547.77 242.309 567.965 241.77C629.769 240.081 688.825 270.087 746.426 299.338C765.255 308.897 784.712 318.779 803.793 327.277C825.173 336.8 843.912 343.574 861.07 347.994C873.503 351.192 884.283 352.126 893.104 350.743C901.387 349.449 908.16 346.089 913.245 340.753C920.377 333.279 924.402 321.707 925.21 306.363C925.893 293.265 924.258 277.022 920.359 258.067C913.209 223.443 900.039 186.502 890.409 159.533C886.385 148.25 882.899 138.493 881.031 132.079C875.407 112.746 869.909 90.2146 871.904 69.6958C874.132 46.8052 885.199 30.8322 905.753 20.8602C930.456 8.87593 959.113 5.87536 988.758 3.62943C1024.08 0.970243 1060.14 0.916341 1094.99 0.862438C1098.08 0.844471 1101.17 0.844471 1104.26 0.844471V0C1101.17 0 1098.08 0.0179675 1094.99 0.0179675C1060.12 0.0718699 1024.04 0.14374 988.704 2.80292C975.696 3.77317 960.622 5.04886 946.159 7.61821C930.187 10.4571 916.856 14.5357 905.393 20.1056C894.47 25.406 886.025 32.593 880.294 41.4689C875.227 49.3387 872.119 58.8075 871.077 69.606C869.065 90.2685 874.581 112.89 880.222 132.294C882.109 138.745 885.576 148.501 889.619 159.803C899.231 186.754 912.4 223.659 919.533 258.228C923.432 277.112 925.066 293.301 924.384 306.309C923.593 321.456 919.641 332.865 912.652 340.178C902.375 350.941 885.109 353.294 861.339 347.185C823.197 337.357 784.389 317.647 746.875 298.583C708.786 279.232 669.421 259.235 629.518 248.652C607.994 242.938 588.141 240.387 568.809 240.836C558.317 241.087 547.878 242.255 537.763 244.322C527.145 246.478 516.527 249.712 506.196 253.898C492.973 259.253 480.414 266.511 468.88 275.459C457.974 283.922 447.859 293.984 438.804 305.357C421.969 326.541 408.746 352.54 400.571 380.533C393.277 405.49 389.809 432.459 389.953 462.986C390.097 491.895 393.51 521.164 396.834 545.995L397.247 549.032C402.547 588.452 408.566 633.12 378.365 665.425L378.975 666Z" fill="url(#paint0_linear_281_1942)" fill-opacity="0.1"/>
<path d="M353.733 657.268C362.788 648.715 369.399 638.941 373.945 627.406C383.395 603.347 381.886 576.288 380.413 550.11C380.341 548.924 380.287 547.738 380.215 546.57C379.137 527.453 378.616 512.719 378.544 498.759C378.113 452.618 382.461 417.528 392.63 384.989C396.906 371.315 402.26 358.127 408.53 345.838C423.676 316.065 451.47 276.627 497.967 257.815C500.716 256.701 503.519 255.659 506.268 254.725C557.005 237.332 604.67 250.197 640.531 263.349C671.003 274.525 702.067 291.073 732.125 307.082C770.878 327.726 810.943 349.054 850.452 359.331C861.429 362.17 871.167 363.248 879.396 362.529C887.211 361.847 893.895 359.511 899.249 355.594C905.124 351.318 909.579 345.011 912.508 336.854C915.185 329.415 916.658 320.198 916.91 309.471C917.269 291.414 914.215 269.152 907.549 241.429C901.89 217.837 894.613 194.57 888.792 175.883C884.768 162.983 881.282 151.825 879.522 144.368C874.617 123.544 870.377 101.552 872.604 81.9674C875.192 59.0948 886.079 42.8882 905.86 32.4311C921.024 24.4176 939.206 18.9375 963.12 15.1644C971.779 13.8168 980.242 12.8106 987.356 12.0021C1020.83 8.21097 1057.53 6.84545 1102.84 7.67195L1102.86 6.88138C1057.52 6.07284 1020.77 7.43837 987.231 11.1936C980.098 12.0021 971.636 13.0083 962.958 14.3558C938.955 18.147 920.683 23.663 905.447 31.7124C894.901 37.2823 886.708 44.649 881.103 53.6147C876.072 61.6642 873.018 70.8995 871.778 81.8416C869.55 101.552 873.79 123.616 878.713 144.512C880.474 152.005 883.959 163.162 888.002 176.081C899.518 212.968 916.91 268.703 916.101 309.418C915.598 331.589 909.759 346.898 898.764 354.929C887.966 362.799 871.796 364.021 850.667 358.541C811.249 348.281 771.238 326.972 732.52 306.363C702.444 290.354 671.344 273.788 640.819 262.594C615.953 253.485 595.022 248.31 574.918 246.334C550.483 243.944 527.936 246.424 505.998 253.952C503.232 254.904 500.411 255.946 497.662 257.06C478.276 264.894 460.417 277.112 444.571 293.337C430.36 307.908 417.981 325.444 407.812 345.46C401.523 357.804 396.169 371.028 391.875 384.737C386.306 402.561 382.515 421.247 380.251 441.874C378.383 458.889 377.574 477.503 377.772 498.741C377.844 512.701 378.365 527.453 379.443 546.588C379.514 547.774 379.568 548.942 379.64 550.128C381.096 576.216 382.623 603.186 373.226 627.1C368.735 638.528 362.195 648.212 353.211 656.675L353.733 657.268Z" fill="url(#paint1_linear_281_1942)" fill-opacity="0.1"/>
<path d="M328.49 648.553C337.796 640.881 344.857 632.077 350.103 621.638C361.045 599.844 361.853 574.779 362.644 550.523C362.68 549.427 362.716 548.331 362.752 547.235C363.255 530.777 363.955 515.828 364.872 501.526C367.189 465.842 371.106 427.554 383.862 389.175C388.444 375.412 393.977 362.242 400.266 350.024C415.986 319.425 444.212 279.142 489.397 260.923C492.164 259.809 494.985 258.767 497.752 257.851C545.489 241.878 591.95 255.497 631.099 270.913C659.468 282.089 689.113 298.637 717.787 314.628C757.709 336.89 798.996 359.924 839.78 370.633C850.685 373.49 860.405 374.586 868.688 373.903C876.575 373.256 883.384 370.974 888.918 367.129C894.883 362.979 899.572 356.87 902.824 348.982C905.824 341.723 907.711 332.703 908.448 322.174C911.214 282.556 897.021 229.912 886.636 191.479C882.809 177.285 879.504 165.013 877.94 156.586C869.46 110.554 865.202 67.306 905.896 43.9483C920.97 35.288 938.793 29.0712 961.934 24.3997C968.797 23.0521 976.415 21.7405 985.883 20.3031C1022.05 14.8949 1060.91 12.9364 1101.43 14.4816L1101.46 13.727C1060.91 12.1818 1022 14.1403 985.775 19.5485C976.289 20.9859 968.671 22.2795 961.79 23.663C938.541 28.3525 920.665 34.6052 905.501 43.3015C886.259 54.3515 875.425 70.9714 872.407 94.0955C869.82 113.967 873.341 135.924 877.168 156.73C878.731 165.211 882.037 177.482 885.882 191.695C896.23 230.073 910.424 282.646 907.657 322.156C906.13 344.113 899.842 358.63 888.451 366.554C877.312 374.298 860.998 375.43 839.977 369.932C799.283 359.241 758.05 336.243 718.165 313.999C689.472 297.99 659.792 281.442 631.386 270.248C605.605 260.079 585.536 254.347 566.33 251.616C541.626 248.113 519.114 249.927 497.5 257.168C494.716 258.102 491.895 259.145 489.11 260.259C469.958 267.985 452.153 280.4 436.199 297.182C422.311 311.789 409.986 329.469 399.583 349.737C393.277 361.99 387.725 375.196 383.126 388.995C377.34 406.406 372.975 424.966 369.795 445.755C366.632 466.453 365.087 486.433 364.099 501.526C363.165 515.828 362.464 530.795 361.979 547.253C361.943 548.349 361.907 549.445 361.871 550.541C361.081 574.707 360.272 599.7 349.403 621.351C344.21 631.682 337.203 640.414 327.987 648.014L328.49 648.553Z" fill="url(#paint2_linear_281_1942)" fill-opacity="0.1"/>
<path d="M303.246 639.821C312.805 633.012 320.333 625.178 326.262 615.853C331.975 606.869 336.233 596.376 339.305 583.781C342.036 572.551 343.599 560.711 345.108 549.247L345.288 547.9C346.959 535.251 348.971 520.194 351.217 504.293C355.78 472.113 361.458 432.081 375.112 393.38C380.017 379.527 385.713 366.357 392.037 354.246C408.35 322.839 437.007 281.694 480.881 264.05C483.666 262.936 486.487 261.912 489.289 260.995C536.703 245.525 582.5 261.912 621.702 278.496C648.023 289.635 674.955 305.357 703.468 322.013C744.557 345.999 787.03 370.812 829.125 381.97C839.941 384.809 849.643 385.941 857.962 385.33C865.921 384.737 872.838 382.527 878.551 378.772C884.642 374.765 889.529 368.854 893.122 361.218C896.446 354.139 898.763 345.299 899.985 334.967C904.585 296.319 892.763 244.447 884.121 206.572C880.653 191.353 877.653 178.219 876.377 168.876C871.023 129.905 864.376 81.4285 905.932 55.5194C920.736 46.3021 938.667 39.1511 960.766 33.671C967.755 31.9641 975.265 30.365 984.428 28.6221C1022.35 21.507 1061.23 19.0455 1099.99 21.2914L1100.02 20.5907C1080.73 19.4767 1061.07 19.5306 1041.6 20.7883C1022.28 22.0281 1003 24.4357 984.284 27.9394C975.121 29.6822 967.593 31.2813 960.586 32.9882C938.415 38.4863 920.413 45.6553 905.537 54.9265C887.067 66.4436 876.413 83.2792 872.981 106.385C869.909 127.138 873.089 150.334 875.641 168.966C876.934 178.327 879.917 191.497 883.402 206.716C892.026 244.555 903.83 296.355 899.249 334.878C896.697 356.331 889.78 370.507 878.12 378.179C866.639 385.743 850.2 386.804 829.287 381.288C787.299 370.148 744.863 345.371 703.809 321.402C675.278 304.746 648.329 289.007 621.954 277.849C603.017 269.835 580.595 261.085 557.76 256.845C532.858 252.209 510.382 253.359 489.02 260.331C486.217 261.247 483.378 262.271 480.576 263.403C461.621 271.021 443.888 283.652 427.844 300.955C414.315 315.545 402.044 333.368 391.354 353.923C385.03 366.069 379.317 379.275 374.394 393.146C360.721 431.902 355.044 471.987 350.462 504.185C348.217 520.086 346.204 535.143 344.533 547.792L344.354 549.14C341.353 571.976 338.227 595.585 325.597 615.457C319.722 624.693 312.248 632.473 302.779 639.228L303.246 639.821Z" fill="url(#paint3_linear_281_1942)" fill-opacity="0.1"/>
<path d="M278.022 631.089C287.831 625.16 295.826 618.278 302.438 610.085C317.224 591.722 322.632 569.802 327.861 548.583C331.22 534.927 334.418 521.362 337.598 507.078C338.766 501.867 339.88 496.71 341.084 491.23C347.696 460.811 354.559 429.368 366.399 397.602C371.645 383.623 377.502 370.471 383.844 358.469C408.458 311.592 438.247 280.867 472.383 267.194C475.186 266.062 478.024 265.056 480.827 264.176C525.959 249.82 568.773 266.368 612.324 286.114C636.668 297.164 662.163 312.724 689.149 329.218C731.388 355.019 775.064 381.701 818.489 393.326C829.233 396.165 838.899 397.332 847.254 396.775C855.285 396.236 862.345 394.098 868.238 390.415C874.437 386.534 879.557 380.82 883.474 373.436C887.121 366.518 889.852 357.876 891.559 347.742C894.398 330.925 894.398 310.298 891.559 284.658C889.116 262.558 885.001 240.548 881.372 221.143C878.39 205.134 875.802 191.317 874.85 181.148L874.832 180.95C871.023 140.038 866.693 93.6463 906.022 67.0904C920.88 57.0645 938.416 49.1768 959.634 42.9601C966.443 40.9657 973.863 39.0611 983.008 36.9769C1021.38 28.2986 1061.36 25.2441 1098.59 28.1369L1098.64 27.4721C1079.56 25.9808 1059.83 26.0347 1040.02 27.6159C1020.95 29.1251 1001.73 32.0718 982.847 36.3301C973.702 38.4323 966.264 40.3368 959.436 42.3312C938.146 48.5659 920.539 56.4896 905.627 66.5513C887.93 78.4997 877.455 95.5149 873.575 118.585C870.197 138.745 872.191 160.234 874.131 181.004L874.149 181.202C875.102 191.407 877.689 205.242 880.671 221.251C887.66 258.66 897.236 309.885 890.858 347.616C887.319 368.566 879.791 382.383 867.843 389.858C856.003 397.261 839.438 398.213 818.633 392.697C775.316 381.108 731.675 354.444 689.472 328.661C662.468 312.167 636.938 296.571 612.575 285.521C592.633 276.465 571.306 267.212 549.226 262.127C524.18 256.36 501.722 256.827 480.576 263.547C477.755 264.427 474.898 265.469 472.078 266.583C453.321 274.094 435.641 286.94 419.544 304.764C406.41 319.3 394.175 337.267 383.197 358.163C376.855 370.184 370.98 383.372 365.734 397.368C353.858 429.171 347.013 460.65 340.383 491.087C339.197 496.567 338.065 501.723 336.898 506.934C333.718 521.2 330.538 534.766 327.16 548.421C321.95 569.569 316.56 591.417 301.863 609.654C295.305 617.793 287.382 624.621 277.626 630.514L278.022 631.089Z" fill="url(#paint4_linear_281_1942)" fill-opacity="0.1"/>
<path d="M252.779 622.357C262.858 617.29 271.303 611.379 278.579 604.3C294.587 588.704 302.456 570.144 310.38 549.266C315.302 536.293 319.74 523.392 323.926 509.863C327.16 499.442 330.179 488.733 333.395 477.414C340.366 452.834 347.57 427.41 357.632 401.824C363.237 387.702 369.274 374.55 375.58 362.709C401.092 314.628 430.791 283.545 463.813 270.339C466.634 269.207 469.491 268.201 472.312 267.338C518.917 252.892 563.276 274.453 602.425 293.499L602.892 293.732C625.296 304.621 649.317 319.965 674.758 336.207C696.084 349.827 718.147 363.931 740.479 376.113C765.758 389.912 787.785 399.255 807.818 404.681C818.472 407.52 828.12 408.724 836.528 408.221C844.649 407.736 851.835 405.67 857.926 402.076C864.25 398.339 869.586 392.823 873.808 385.654C877.797 378.898 880.923 370.435 883.097 360.499C891.272 323.271 884.121 274.471 878.372 235.266C875.946 218.682 873.844 204.344 873.27 193.42L873.18 191.839C871.078 151.592 868.688 105.972 906.04 78.6617C920.827 67.8633 937.967 59.2209 958.449 52.2495C965.204 49.9497 972.75 47.6858 981.536 45.3141C1020.49 34.9648 1060.48 31.3893 1097.15 34.9648L1097.22 34.354C1078.25 32.5033 1058.45 32.5213 1038.38 34.4438C1019.48 36.2405 1000.29 39.7083 981.374 44.7212C972.588 47.0929 965.024 49.3568 958.251 51.6566C937.697 58.6639 920.503 67.3242 905.681 78.1586C868.059 105.649 870.449 151.448 872.569 191.857L872.659 193.438C873.234 204.398 875.336 218.736 877.761 235.338C883.492 274.489 890.643 323.217 882.486 360.356C877.995 380.821 869.856 394.278 857.603 401.537C845.224 408.85 829 409.694 807.997 404.07C763.297 391.996 718.47 363.356 675.117 335.668C649.677 319.408 625.638 304.064 603.197 293.157L602.73 292.924C582.877 283.275 562.342 273.285 540.44 267.284C515.395 260.421 493.063 260.241 472.15 266.727C469.311 267.59 466.437 268.614 463.598 269.746C445.021 277.166 427.413 290.229 411.243 308.555C398.344 323.163 386.504 340.771 375.041 362.386C368.717 374.244 362.662 387.433 357.057 401.573C346.977 427.177 339.755 452.619 332.802 477.216C329.604 488.535 326.568 499.226 323.333 509.647C319.147 523.159 314.728 536.041 309.805 549.014C301.9 569.82 294.066 588.327 278.148 603.833C270.925 610.876 262.535 616.751 252.51 621.782L252.779 622.357Z" fill="url(#paint5_linear_281_1942)" fill-opacity="0.1"/>
<path d="M227.536 613.625C237.921 609.421 246.814 604.462 254.737 598.514C262.912 592.352 270.063 585.111 276.621 576.36C281.921 569.281 286.79 561.376 292.916 549.912C299.33 537.946 305.008 525.746 310.272 512.612C316.147 497.968 321.447 482.373 327.053 465.861C333.664 446.366 340.509 426.206 348.882 406.029C354.937 391.511 360.973 378.718 367.351 366.914C394.175 316.928 422.94 286.348 455.297 273.465C458.136 272.333 461.011 271.327 463.849 270.482C508.694 256.953 551.148 279.161 588.609 298.745C590.243 299.608 591.878 300.452 593.495 301.297C614.031 311.987 636.525 327.008 660.349 342.909C682.124 357.445 704.654 372.484 727.669 385.564C753.774 400.405 776.52 410.359 797.181 415.983C807.746 418.822 817.376 420.061 825.82 419.63C834.031 419.217 841.379 417.223 847.667 413.701C854.117 410.09 859.669 404.753 864.196 397.854C868.508 391.26 872.03 382.977 874.671 373.238C884.606 336.495 879.432 287.983 875.282 248.993C873.467 231.978 871.904 217.281 871.742 205.674L871.706 203.248C871.167 163.45 870.557 118.334 906.13 90.2148C920.809 78.6078 937.572 69.2108 957.317 61.5028C964.108 58.8615 971.546 56.2742 980.098 53.633C1019.39 41.6128 1059.38 37.5162 1095.75 41.7745L1095.82 41.2175C1076.9 39.0075 1057.03 39.0075 1036.78 41.2534C1017.97 43.3376 998.837 47.3085 979.919 53.1119C971.349 55.7711 963.892 58.3405 957.083 60.9997C937.266 68.7436 920.467 78.1586 905.735 89.8015C889.745 102.433 879.612 119.538 874.779 142.087C870.539 161.869 870.826 182.927 871.096 203.284L871.131 205.71C871.293 217.353 872.856 232.05 874.671 249.083C878.821 288.019 883.995 336.495 874.078 373.13C868.67 393.092 859.938 406.227 847.362 413.252C834.606 420.385 818.238 421.104 797.325 415.48C751.205 402.902 703.109 370.795 660.672 342.478C636.831 326.577 614.337 311.538 593.765 300.829C592.148 299.985 590.513 299.14 588.878 298.278C570.822 288.827 550.358 278.136 529.319 271.776C505.244 264.499 483.756 263.906 463.652 269.979C460.795 270.824 457.902 271.848 455.046 272.98C445.344 276.843 435.84 282.377 426.749 289.42C418.592 295.763 410.543 303.489 402.871 312.436C390.456 326.846 378.67 344.598 366.812 366.698C360.434 378.521 354.38 391.332 348.325 405.849C339.952 426.045 333.089 446.222 326.478 465.717C320.872 482.229 315.572 497.825 309.697 512.45C304.433 525.548 298.773 537.73 292.377 549.697C281.741 569.569 271.213 585.398 254.36 598.101C246.491 604.03 237.633 608.953 227.303 613.14L227.536 613.625Z" fill="url(#paint6_linear_281_1942)" fill-opacity="0.1"/>
<path d="M202.293 604.893C213.019 601.533 222.362 597.562 230.878 592.711C239.987 587.536 248.072 581.445 255.636 574.078C262.211 567.664 268.5 560.189 275.435 550.577C283.304 539.653 290.221 528.135 296.599 515.379C305.6 497.375 313.344 477.395 321.537 456.248C327.358 441.227 333.377 425.703 340.132 410.233C346.6 395.482 352.816 382.689 359.122 371.136C378.347 335.686 405.674 292.923 446.763 276.591C449.62 275.459 452.512 274.471 455.369 273.626C498.92 260.834 539.937 283.976 576.122 304.405C578.871 305.95 581.476 307.423 584.099 308.896C602.802 319.336 623.715 333.925 645.868 349.377C689.436 379.778 738.808 414.222 786.509 427.338C797.217 430.249 807.009 431.489 815.633 431.057C824.059 430.626 831.659 428.578 838.217 424.948C844.577 421.427 850.182 416.288 854.854 409.676C859.363 403.316 863.172 395.338 866.191 385.995C871.419 369.806 874.132 349.952 874.509 325.319C874.832 303.884 873.341 281.837 872.03 262.379C870.916 245.813 869.856 230.163 870.143 217.945L870.215 215.196C871.131 175.65 872.155 130.821 906.148 101.803C920.503 89.5317 937.32 79.1106 956.131 70.8096C962.922 67.809 970.288 64.9343 978.625 62.0056C1018.12 48.2964 1058.13 43.6608 1094.31 48.6198L1094.38 48.0987C1075.48 45.5114 1055.56 45.5114 1035.15 48.0808C1016.39 50.4345 997.31 54.9623 978.445 61.5025C970.073 64.4312 962.706 67.3239 955.897 70.3245C937.05 78.6614 920.18 89.1185 905.789 101.408C890.517 114.453 880.528 131.719 875.264 154.197C870.628 173.961 870.143 194.929 869.676 215.196L869.604 217.945C869.317 230.199 870.377 245.849 871.491 262.433C874.114 301.26 877.384 349.593 865.669 385.869C859.507 404.951 850.452 417.582 837.947 424.517C824.688 431.866 807.907 432.638 786.653 426.871C739.06 413.791 689.706 379.365 646.173 349C624.002 333.53 603.071 318.94 584.35 308.483C581.727 307.028 579.14 305.555 576.373 304.009C559 294.199 539.308 283.095 518.916 276.286C495.542 268.47 474.701 267.464 455.189 273.195C452.315 274.022 449.404 275.028 446.529 276.16C436.863 280.005 427.377 285.593 418.304 292.78C410.219 299.194 402.224 307.082 394.534 316.227C378.724 335.057 366.453 356.456 358.619 370.92C352.313 382.491 346.097 395.284 339.611 410.053C332.873 425.541 326.837 441.065 321.016 456.104C312.823 477.252 305.079 497.214 296.096 515.181C289.736 527.92 282.819 539.401 274.968 550.307C260.648 570.197 247.371 582.757 230.59 592.279C222.11 597.095 212.786 601.065 202.113 604.407L202.293 604.893Z" fill="url(#paint7_linear_281_1942)" fill-opacity="0.1"/>
<path d="M177.068 596.161C188.189 593.663 197.981 590.645 207.054 586.925C226.53 578.93 242.251 567.916 257.989 551.242C267.296 541.378 275.471 530.543 282.963 518.164C295.449 497.519 305.708 473.587 316.596 448.252C321.339 437.202 326.244 425.775 331.418 414.456C338.461 399.147 344.659 386.714 350.912 375.376C372.058 336.818 398.954 295.313 438.247 279.754C441.104 278.622 444.032 277.633 446.907 276.825C489.541 264.643 531.188 290.031 564.641 310.406C568.127 312.526 571.432 314.539 574.72 316.515C591.627 326.613 610.923 340.681 631.351 355.576C676.015 388.133 726.645 425.038 775.873 438.694C786.383 441.569 796.067 442.862 804.673 442.539C813.153 442.215 820.879 440.311 827.616 436.861C834.228 433.483 840.121 428.524 845.152 422.11C850.057 415.857 854.297 408.005 857.764 398.752C863.801 382.671 867.412 362.961 868.796 338.471C869.999 317.126 869.371 294.954 868.796 275.405C868.311 258.714 867.861 242.938 868.598 230.199L868.742 227.63C871.041 188.155 873.647 143.398 906.202 113.375C920.395 100.277 936.817 89.0649 954.963 80.0811C961.754 76.7212 969.013 73.541 977.169 70.3248C1016.73 54.9626 1056.74 49.8059 1092.89 55.4477L1092.96 54.9806C1056.74 49.3388 1016.62 54.4775 976.99 69.8936C968.815 73.0918 961.539 76.29 954.747 79.6679C936.547 88.6516 920.108 99.8813 905.86 113.015C891.254 126.491 881.372 144.009 875.677 166.541C870.664 186.377 869.442 207.327 868.257 227.612L868.113 230.181C867.358 242.956 867.825 258.732 868.311 275.423C869.424 314.251 870.826 362.583 857.297 398.59C843.122 436.358 816.531 449.312 776.017 438.227C726.86 424.589 676.285 387.72 631.656 355.181C611.21 340.286 591.914 326.199 574.99 316.084C571.702 314.125 568.396 312.113 564.911 309.975C548.076 299.715 528.996 288.09 509.107 280.76C486.253 272.333 465.861 270.896 446.781 276.34C443.888 277.148 440.96 278.154 438.067 279.286C428.437 283.095 418.969 288.755 409.914 296.104C401.901 302.608 393.942 310.64 386.27 320.001C371.43 338.076 359.356 358.954 350.481 375.125C344.21 386.48 338.012 398.914 330.969 414.24C325.795 425.577 320.89 437.005 316.147 448.037C305.277 473.353 295.018 497.268 282.549 517.894C275.075 530.256 266.919 541.054 257.63 550.901C241.945 567.52 226.296 578.499 206.875 586.458C197.837 590.159 188.064 593.178 176.978 595.675L177.068 596.161Z" fill="url(#paint8_linear_281_1942)" fill-opacity="0.1"/>
<path d="M151.843 587.41C163.45 585.775 173.709 583.727 183.213 581.103C205.743 574.905 223.422 565.903 240.508 551.87C251.252 543.048 260.666 532.915 269.29 520.894C285.586 498.166 298.378 470.639 311.907 441.514C315.392 434.04 318.986 426.296 322.633 418.642C330.34 402.615 336.503 390.576 342.647 379.562C364.063 340.95 390.205 298.439 429.695 282.843C432.57 281.712 435.498 280.723 438.409 279.933C480.396 268.29 521.126 295.079 553.843 316.604C557.832 319.228 561.587 321.689 565.288 324.079C580.434 333.781 598.059 347.203 616.69 361.397C638.609 378.089 663.439 397.009 688.61 413.126C717.464 431.596 742.527 443.67 765.201 450.013C775.514 452.87 785.09 454.199 793.678 453.984C793.714 453.984 793.768 453.984 793.804 453.984C802.284 453.75 810.081 451.989 816.962 448.755C823.826 445.539 830.024 440.742 835.378 434.525C840.66 428.398 845.331 420.636 849.266 411.491C856.147 395.482 860.639 375.843 863.028 351.443C865.113 330.134 865.31 307.8 865.49 288.09C865.652 271.38 865.795 255.605 866.999 242.435L867.161 240.584C870.808 200.966 874.94 156.083 906.202 124.909C920.198 110.949 936.206 98.9824 953.759 89.3339C960.425 85.6685 967.809 82.0751 975.678 78.6433C1003.33 66.7668 1045.82 54.2614 1091.49 62.2569L1091.56 61.8257C1072.64 58.5197 1052.57 58.4658 1031.93 61.6999C1013.19 64.6286 994.22 70.1986 975.535 78.248C967.647 81.6798 960.263 85.2733 953.579 88.9566C935.99 98.6231 919.964 110.625 905.932 124.622C891.901 138.601 882.109 156.442 875.982 179.153C870.574 199.151 868.652 220.209 866.765 240.566L866.604 242.417C865.382 255.605 865.238 271.398 865.095 288.108C864.717 329.074 864.286 375.502 848.907 411.329C833.06 448.234 805.733 460.757 765.363 449.6C714.571 435.387 662.738 395.913 617.013 361.074C598.364 346.862 580.739 333.44 565.575 323.737C561.874 321.366 558.101 318.886 554.131 316.281C537.727 305.5 519.15 293.265 499.621 285.359C477.144 276.249 457.094 274.345 438.319 279.555C435.408 280.346 432.462 281.334 429.569 282.484C419.975 286.275 410.525 291.989 401.47 299.481C393.529 306.057 385.605 314.251 377.934 323.827C364.135 341.04 352.655 360.697 342.288 379.401C336.144 390.415 329.981 402.471 322.273 418.498C318.608 426.152 315.015 433.878 311.547 441.37C298.019 470.496 285.227 498.004 268.967 520.679C260.361 532.681 250.982 542.779 240.257 551.565C223.206 565.544 205.599 574.527 183.123 580.708C173.637 583.313 163.396 585.362 151.808 586.997L151.843 587.41Z" fill="url(#paint9_linear_281_1942)" fill-opacity="0.1"/>
<path d="M126.618 578.66C138.871 577.924 149.597 576.828 159.389 575.3C171.822 573.36 182.745 570.701 192.753 567.215C203.568 563.442 213.486 558.627 223.044 552.536C235.207 544.774 245.88 535.323 255.635 523.68C276.027 499.352 291.281 468.52 307.451 435.873C309.553 431.615 311.745 427.213 313.901 422.882C320.225 410.287 327.106 396.83 334.418 383.821C353.75 349.342 380.215 302.141 421.161 286.024C424.053 284.892 427 283.922 429.928 283.131C471.485 271.938 511.514 300.308 543.656 323.109C547.932 326.128 551.957 329.002 555.891 331.698C569.33 340.915 585.177 353.546 601.975 366.914C646.496 402.382 701.923 446.51 754.547 461.369C764.68 464.19 774.148 465.573 782.7 465.465C791.288 465.358 799.247 463.74 806.344 460.686C813.441 457.631 819.945 453.014 825.658 446.959C831.353 440.94 836.456 433.303 840.822 424.248C858.159 388.421 860.333 341.723 862.256 300.506C863.028 283.904 863.765 268.218 865.454 254.707L865.508 254.258C870.484 214.28 876.126 168.966 906.274 136.499C920.036 121.676 935.613 108.937 952.609 98.6236C959.257 94.5809 966.533 90.6819 974.241 86.9986C1001.84 73.9183 1044.31 60.2091 1090.07 69.085L1090.14 68.7077C1071.19 65.0244 1051.07 64.9705 1030.31 68.5281C1011.56 71.7442 992.638 77.8352 974.079 86.6393C966.353 90.3226 959.059 94.2395 952.411 98.2822C935.397 108.613 919.766 121.388 905.986 136.229C892.457 150.801 882.702 169.056 876.126 192.09C870.323 212.394 867.682 233.649 865.13 254.222L865.076 254.671C863.388 268.2 862.669 283.886 861.878 300.506C859.956 341.687 857.764 388.349 840.48 424.104C823.035 460.183 794.971 472.239 754.672 461.009C702.12 446.186 646.748 402.076 602.245 366.626C585.446 353.24 569.582 340.609 556.143 331.392C552.208 328.697 548.166 325.84 543.908 322.804C511.676 299.949 471.575 271.524 429.82 282.754C426.892 283.527 423.927 284.515 421.017 285.665C402.961 292.78 386.126 306.507 369.579 327.637C355.098 346.125 343.438 366.914 334.077 383.641C326.747 396.65 319.883 410.108 313.541 422.721C311.367 427.051 309.193 431.453 307.091 435.711C290.939 468.34 275.686 499.154 255.33 523.446C245.592 535.071 234.956 544.486 222.828 552.23C204.485 563.927 184.901 570.934 159.317 574.941C149.543 576.468 138.835 577.564 126.582 578.301L126.618 578.66Z" fill="url(#paint10_linear_281_1942)" fill-opacity="0.1"/>
<path d="M126.043 569.856C129.331 569.766 132.475 569.64 135.547 569.478C164.222 567.969 185.818 562.92 205.581 553.146C219.163 546.426 231.075 537.676 241.981 526.392C253.084 514.929 263.864 500.501 274.931 482.318C284.831 466.076 294.102 448.27 303.067 431.057L305.151 427.05C311.565 414.796 318.823 400.926 326.19 388.007C326.837 386.857 327.501 385.689 328.184 384.503C347.282 350.742 373.46 304.512 412.644 289.132C415.555 288 418.52 287.03 421.466 286.275C462.789 275.477 502.261 305.608 533.972 329.81C538.374 333.17 542.506 336.333 546.531 339.279C558.263 347.904 572.295 359.6 587.153 371.98C609.647 390.738 635.159 411.993 661.929 430.554C692.886 452.025 719.71 465.806 743.928 472.688C754.69 475.724 764.644 477.126 773.807 476.874C799.086 476.191 818.399 462.985 832.413 436.986C851.727 401.177 855.662 354.12 859.129 312.58C860.495 296.175 861.789 280.687 863.927 266.942C870.107 227.162 877.132 182.082 906.345 148.051C919.802 132.384 934.984 118.872 951.459 107.894C958.053 103.492 965.24 99.2698 972.803 95.317C1011.7 75.1755 1052.84 68.276 1088.65 75.9121L1088.72 75.5707C1069.73 71.5281 1049.54 71.4382 1028.7 75.3372C1009.94 78.8408 991.075 85.4708 972.642 95.0115C965.06 98.9644 957.873 103.205 951.262 107.607C934.75 118.603 919.551 132.15 906.076 147.836C893.14 162.911 883.438 181.453 876.395 204.541C869.999 225.545 866.586 247.519 863.567 266.906C861.429 280.651 860.136 296.157 858.752 312.562C855.285 354.048 851.35 401.087 832.072 436.825C813.063 472.077 784.263 483.702 744 472.364C689.562 456.876 632.896 409.658 587.368 371.728C572.51 359.349 558.46 347.652 546.728 339.01C542.722 336.063 538.572 332.901 534.17 329.541C518.431 317.539 500.608 303.919 481.546 294.684C459.501 283.993 439.81 281.136 421.358 285.952C418.412 286.724 415.429 287.677 412.501 288.827C395.073 295.672 378.778 309.004 362.68 329.577C348.863 347.257 337.706 366.967 327.861 384.342C327.196 385.527 326.531 386.695 325.866 387.845C318.5 400.764 311.242 414.653 304.828 426.906L302.743 430.913C284.058 466.776 266.415 500.663 241.711 526.159C230.824 537.406 218.948 546.121 205.401 552.84C185.692 562.597 164.15 567.628 135.512 569.137C125.522 569.658 114.67 569.802 101.375 569.568V569.91C110.61 570.071 118.659 570.053 126.043 569.856Z" fill="url(#paint11_linear_281_1942)" fill-opacity="0.1"/>
<path d="M132.242 563.837C153.982 563.244 171.732 560.01 188.118 553.793C203.102 548.098 216.253 540.048 228.327 529.16C241.065 517.679 253.228 502.999 265.535 484.313C276.405 467.801 286.341 449.816 296.402 431.291C297.695 428.919 298.971 426.566 300.265 424.212C306.032 413.611 311.979 402.669 317.962 392.266C319.327 389.894 320.692 387.468 322.148 384.917C340.815 352.055 366.399 307.046 404.111 292.295C407.039 291.145 410.022 290.193 412.986 289.456C454.237 279.017 493.279 311.053 524.648 336.8C529.032 340.394 533.164 343.79 537.135 346.916C547.196 354.858 558.766 364.937 572.169 376.634C594.897 396.47 620.661 418.947 648.275 438.891C680.399 462.105 708.194 476.875 733.275 484.062C743.031 486.829 752.283 488.302 760.781 488.392C769.477 488.5 777.67 487.188 785.144 484.493C792.762 481.744 799.859 477.467 806.237 471.79C812.723 466.022 818.687 458.602 823.97 449.744C833.51 433.717 840.75 414.024 846.104 389.535C850.812 367.992 853.471 345.82 856.04 324.385C857.962 308.286 859.795 293.067 862.364 279.232C870.862 233.451 880.025 192.863 906.382 159.659C919.408 143.237 934.176 128.953 950.292 117.202C956.94 112.369 964.036 107.823 971.349 103.69C1010.12 81.824 1051.28 74.4034 1087.25 82.7403L1087.32 82.4528C1068.28 78.0328 1048.03 77.943 1027.12 82.1653C1008.31 85.9565 989.495 93.1075 971.205 103.403C963.875 107.553 956.778 112.099 950.112 116.932C933.996 128.701 919.192 143.003 906.148 159.443C893.805 174.985 884.175 193.743 876.701 216.76C870.09 237.099 866.011 257.887 862.059 279.143C859.489 292.996 857.657 308.214 855.734 324.331C850.704 366.249 845.008 413.755 823.682 449.564C803.182 484.008 773.628 495.183 733.347 483.72C676.86 467.514 616.457 414.833 572.349 376.347C558.946 364.65 547.376 354.57 537.314 346.628C533.344 343.502 529.212 340.106 524.846 336.513C509.377 323.828 491.841 309.436 472.887 299.428C450.914 287.839 431.294 284.461 412.896 289.115C409.914 289.869 406.932 290.821 403.985 291.971C387.204 298.53 371.484 311.412 355.889 331.32C342.486 348.461 331.526 367.722 321.86 384.737C320.405 387.289 319.04 389.714 317.674 392.086C311.691 402.489 305.726 413.431 299.977 424.032C298.702 426.386 297.408 428.758 296.114 431.111C274.105 471.61 255.133 504.526 228.093 528.908C216.056 539.761 202.94 547.792 187.992 553.47C166.792 561.519 143.256 564.574 111.724 563.334C101.807 562.939 90.8294 562.184 76.1688 560.837L76.1328 561.142C90.7934 562.472 101.771 563.244 111.688 563.639C118.983 563.945 125.792 563.999 132.242 563.837Z" fill="url(#paint12_linear_281_1942)" fill-opacity="0.1"/>
<path d="M130.589 560.226C145.303 559.83 158.347 557.908 170.672 554.404C187.111 549.697 201.502 542.348 214.672 531.891C228.668 520.787 241.873 506.467 255.025 488.104C267.008 471.377 277.788 452.924 287.652 435.46C290.293 430.788 292.952 426.045 295.539 421.445C300.174 413.162 304.971 404.609 309.732 396.434C311.709 393.038 313.703 389.499 315.841 385.762C335.137 351.821 359.14 309.598 395.576 295.367C398.505 294.217 401.505 293.265 404.506 292.546C422.831 288.055 442.397 291.971 464.316 304.513C483.199 315.329 500.465 330.53 515.7 343.951C519.94 347.689 523.947 351.21 527.756 354.426C536.146 361.523 545.812 370.364 556.987 380.605C578.745 400.495 605.802 425.254 634.333 446.743C667.715 471.898 696.605 487.781 722.62 495.309C732.196 498.058 741.341 499.568 749.803 499.765C758.571 499.981 766.889 498.813 774.525 496.297C782.395 493.71 789.797 489.614 796.516 484.116C803.415 478.456 809.811 471.161 815.525 462.411C826.035 446.312 834.228 426.512 840.588 401.86C846.194 380.138 849.697 357.589 853.093 335.794C855.536 320.091 857.836 305.249 860.818 291.414C869.73 249.91 880.581 206.428 906.435 171.158C919.263 153.694 933.223 139.068 949.106 126.455C955.663 121.281 962.652 116.411 969.875 112.009C1008.5 88.49 1049.68 80.5304 1085.83 89.586L1085.9 89.3344C1066.82 84.5551 1046.5 84.4473 1025.5 88.993C1006.63 93.0896 987.877 100.762 969.749 111.794C962.509 116.214 955.52 121.083 948.944 126.276C933.026 138.907 919.048 153.55 906.22 171.068C880.33 206.392 869.46 249.892 860.549 291.414C857.584 305.267 855.267 320.109 852.823 335.812C846.229 378.269 838.755 426.368 815.291 462.339C793.336 495.992 763.045 506.719 722.692 495.13C663.942 478.15 602.227 421.697 557.149 380.479C545.956 370.238 536.29 361.398 527.899 354.301C524.091 351.084 520.084 347.545 515.862 343.826C500.626 330.404 483.343 315.185 464.442 304.369C442.469 291.792 422.831 287.857 404.434 292.367C401.433 293.103 398.433 294.056 395.486 295.206C379.263 301.53 364.027 314.018 348.899 333.386C335.856 350.096 325.094 369.016 315.607 385.708C313.487 389.445 311.475 392.985 309.499 396.38C304.756 404.556 299.959 413.108 295.305 421.391C292.736 425.973 290.077 430.734 287.418 435.406C267.457 470.73 245.377 507.276 214.492 531.747C201.341 542.168 186.985 549.517 170.582 554.207C147.603 560.711 122.109 561.771 87.9363 557.638C76.5455 556.255 64.9212 554.476 50.9792 552.212L50.9432 552.464C64.8852 554.728 76.5096 556.506 87.9003 557.89C103.819 559.777 117.833 560.567 130.589 560.226Z" fill="url(#paint13_linear_281_1942)" fill-opacity="0.1"/>
<path d="M125.252 558.141C135.098 557.872 144.351 556.848 153.244 555.033C161.742 553.29 169.953 550.775 177.643 547.54C185.817 544.109 193.705 539.779 201.053 534.64C216.306 523.913 230.518 509.953 244.532 491.913C258.043 474.521 269.505 455.745 278.956 439.682C282.89 432.98 286.807 426.188 290.58 419.612C294.173 413.359 297.892 406.891 301.54 400.674C304.037 396.434 306.606 391.888 309.319 387.109C328.202 353.779 351.72 312.292 387.078 298.547C390.024 297.397 393.043 296.463 396.061 295.744C437.618 285.898 477.755 323.828 507.076 351.533C511.065 355.289 514.82 358.846 518.377 362.08C525.061 368.171 532.732 375.538 541.59 384.055C585.015 425.775 650.646 488.823 712.002 506.718C721.398 509.449 730.435 510.977 738.862 511.282C747.683 511.606 756.109 510.581 763.925 508.246C772.064 505.82 779.753 501.885 786.796 496.567C794.109 491.051 800.954 483.864 807.116 475.203C818.615 458.979 827.796 439.017 835.18 414.15C841.72 392.176 846.104 369.177 850.326 346.952C853.218 331.751 855.949 317.413 859.291 303.704C869.334 262.307 882.019 219.023 906.507 182.765C918.904 164.42 932.468 149.04 947.974 135.726C954.424 130.192 961.323 125.018 968.455 120.328C1006.89 95.1198 1048.08 86.6211 1084.43 96.3954L1084.48 96.1978C1065.35 91.0411 1044.96 90.9154 1023.9 95.8025C1014.31 98.0305 1004.59 101.319 995.028 105.559C985.937 109.584 976.953 114.507 968.312 120.166C961.161 124.856 954.262 130.049 947.812 135.582C932.289 148.914 918.706 164.312 906.309 182.675C881.785 218.952 869.119 262.271 859.057 303.668C855.734 317.377 853.003 331.715 850.092 346.916C841.468 392.122 832.557 438.873 806.901 475.096C783.472 507.976 752.444 518.254 712.038 506.521C650.754 488.661 585.14 425.631 541.733 383.911C532.858 375.394 525.204 368.028 518.503 361.937C514.945 358.702 511.19 355.145 507.202 351.39C477.845 323.666 437.654 285.683 395.989 295.547C392.971 296.266 389.953 297.2 386.988 298.35C371.249 304.477 356.445 316.641 341.713 335.578C328.992 351.929 318.428 370.561 309.103 387.019C306.391 391.816 303.821 396.344 301.324 400.585C297.677 406.801 293.958 413.27 290.364 419.522C286.591 426.098 282.693 432.89 278.74 439.592C254.611 480.666 232.135 512.522 200.909 534.478C186.5 544.54 170.905 551.188 153.19 554.835C128.361 559.902 100.908 558.986 64.1663 551.835C51.0328 549.283 37.6298 546.211 25.8079 543.498L25.754 543.713C37.5759 546.427 50.979 549.499 64.1124 552.068C81.0009 555.356 95.6796 557.279 108.957 557.962C114.598 558.213 120.006 558.285 125.252 558.141Z" fill="url(#paint14_linear_281_1942)" fill-opacity="0.1"/>
<path d="M118.03 557.081C130.14 556.758 141.638 555.177 152.274 552.41C164.779 549.14 176.601 544.091 187.381 537.389C207.198 525.063 225.488 507.617 243.311 484.044C259.031 463.237 272.398 440.455 285.316 418.427C287.921 413.971 290.634 409.371 293.275 404.915C296.222 399.938 299.294 394.512 302.528 388.762C312.518 371.046 323.836 350.959 337.689 334.015C353.715 314.395 370.028 302.914 387.546 298.907C406.105 294.667 425.904 299.805 448.075 314.664C467.047 327.367 484.583 345.137 498.686 359.421C502.297 363.087 505.729 366.554 508.945 369.699C513.886 374.532 519.42 380.138 525.834 386.642C551.005 412.12 585.464 446.995 623.032 475.258C643.586 490.71 662.972 502.532 680.705 510.42C700.27 519.116 718.434 523.285 734.73 522.835C735.664 522.817 736.598 522.763 737.533 522.71C749.085 522.009 759.955 518.9 769.818 513.492C780.347 507.707 790.031 499.118 798.619 487.961C826.682 451.487 837.354 403.909 847.667 357.894C850.955 343.251 854.045 329.434 857.674 315.976C873.431 257.654 896.338 191.731 946.734 145.034C988.524 106.332 1039.46 90.7 1083.01 103.223L1083.06 103.062C1071.21 99.6478 1058.72 98.2823 1045.95 99.001C1034.05 99.6658 1021.85 102.145 1009.67 106.35C987.321 114.076 965.527 127.408 946.644 144.89C924.132 165.732 905.627 191.659 890.05 224.144C877.977 249.299 867.646 278.46 857.531 315.904C853.901 329.362 850.793 343.179 847.505 357.822C837.193 403.819 826.521 451.397 798.493 487.835C781.892 509.396 761.392 521.075 737.533 522.512C706.019 524.417 667.535 508.479 623.158 475.096C585.59 446.851 551.13 411.958 525.977 386.498C519.563 380.012 514.03 374.388 509.089 369.555C505.873 366.411 502.459 362.943 498.848 359.278C484.744 344.993 467.191 327.206 448.2 314.503C437.78 307.531 428.114 302.806 418.628 300.039C407.848 296.913 397.391 296.463 387.528 298.727C369.974 302.752 353.643 314.251 337.581 333.89C323.729 350.833 312.392 370.939 302.402 388.654C299.168 394.404 296.096 399.83 293.15 404.807C290.509 409.263 287.814 413.863 285.191 418.319C258.852 463.237 231.596 509.683 187.309 537.227C139.985 566.658 83.93 557.387 40.3793 546.049C27.2098 542.618 13.9326 538.701 1.08655 534.91L0.619507 534.766L0.565552 534.927L1.03271 535.071C13.8787 538.862 27.156 542.779 40.3254 546.211C69.8983 553.919 93.7397 557.387 115.371 557.135C116.252 557.117 117.15 557.099 118.03 557.081Z" fill="url(#paint15_linear_281_1942)" fill-opacity="0.1"/>
<defs>
<linearGradient id="paint0_linear_281_1942" x1="1066.66" y1="10.9635" x2="273.301" y2="276.904" gradientUnits="userSpaceOnUse">
<stop stop-color="white"/>
<stop offset="1" stop-color="white" stop-opacity="0"/>
</linearGradient>
<linearGradient id="paint1_linear_281_1942" x1="1064.03" y1="17.3674" x2="254.326" y2="304.297" gradientUnits="userSpaceOnUse">
<stop stop-color="white"/>
<stop offset="1" stop-color="white" stop-opacity="0"/>
</linearGradient>
<linearGradient id="paint2_linear_281_1942" x1="1061.39" y1="23.6741" x2="236.665" y2="332.465" gradientUnits="userSpaceOnUse">
<stop stop-color="white"/>
<stop offset="1" stop-color="white" stop-opacity="0"/>
</linearGradient>
<linearGradient id="paint3_linear_281_1942" x1="1058.72" y1="30.0043" x2="220.558" y2="361.46" gradientUnits="userSpaceOnUse">
<stop stop-color="white"/>
<stop offset="1" stop-color="white" stop-opacity="0"/>
</linearGradient>
<linearGradient id="paint4_linear_281_1942" x1="1056.11" y1="36.345" x2="206.167" y2="391.251" gradientUnits="userSpaceOnUse">
<stop stop-color="white"/>
<stop offset="1" stop-color="white" stop-opacity="0"/>
</linearGradient>
<linearGradient id="paint5_linear_281_1942" x1="1053.46" y1="42.6858" x2="193.584" y2="421.711" gradientUnits="userSpaceOnUse">
<stop stop-color="white"/>
<stop offset="1" stop-color="white" stop-opacity="0"/>
</linearGradient>
<linearGradient id="paint6_linear_281_1942" x1="1050.83" y1="49.0145" x2="182.857" y2="452.882" gradientUnits="userSpaceOnUse">
<stop stop-color="white"/>
<stop offset="1" stop-color="white" stop-opacity="0"/>
</linearGradient>
<linearGradient id="paint7_linear_281_1942" x1="1048.16" y1="55.3538" x2="174.204" y2="484.584" gradientUnits="userSpaceOnUse">
<stop stop-color="white"/>
<stop offset="1" stop-color="white" stop-opacity="0"/>
</linearGradient>
<linearGradient id="paint8_linear_281_1942" x1="1045.51" y1="61.7025" x2="167.803" y2="516.721" gradientUnits="userSpaceOnUse">
<stop stop-color="white"/>
<stop offset="1" stop-color="white" stop-opacity="0"/>
</linearGradient>
<linearGradient id="paint9_linear_281_1942" x1="1042.88" y1="68.0033" x2="163.71" y2="549.156" gradientUnits="userSpaceOnUse">
<stop stop-color="white"/>
<stop offset="1" stop-color="white" stop-opacity="0"/>
</linearGradient>
<linearGradient id="paint10_linear_281_1942" x1="1040.23" y1="74.3428" x2="162.093" y2="581.846" gradientUnits="userSpaceOnUse">
<stop stop-color="white"/>
<stop offset="1" stop-color="white" stop-opacity="0"/>
</linearGradient>
<linearGradient id="paint11_linear_281_1942" x1="1037.58" y1="80.6651" x2="162.985" y2="614.437" gradientUnits="userSpaceOnUse">
<stop stop-color="white"/>
<stop offset="1" stop-color="white" stop-opacity="0"/>
</linearGradient>
<linearGradient id="paint12_linear_281_1942" x1="1034.94" y1="87.0483" x2="163.926" y2="645.716" gradientUnits="userSpaceOnUse">
<stop stop-color="white"/>
<stop offset="1" stop-color="white" stop-opacity="0"/>
</linearGradient>
<linearGradient id="paint13_linear_281_1942" x1="1032.29" y1="93.4782" x2="164.371" y2="675.516" gradientUnits="userSpaceOnUse">
<stop stop-color="white"/>
<stop offset="1" stop-color="white" stop-opacity="0"/>
</linearGradient>
<linearGradient id="paint14_linear_281_1942" x1="1029.64" y1="99.9021" x2="164.778" y2="704.229" gradientUnits="userSpaceOnUse">
<stop stop-color="white"/>
<stop offset="1" stop-color="white" stop-opacity="0"/>
</linearGradient>
<linearGradient id="paint15_linear_281_1942" x1="1026.99" y1="106.36" x2="165.49" y2="732.126" gradientUnits="userSpaceOnUse">
<stop stop-color="white"/>
<stop offset="1" stop-color="white" stop-opacity="0"/>
</linearGradient>
</defs>
</svg>
