<svg width="499" height="393" viewBox="0 0 499 393" fill="none" xmlns="http://www.w3.org/2000/svg">
<path d="M357.266 393C343.291 393 329.715 391.003 316.539 387.009C234.284 362.646 198.748 270.787 194.355 258.006C132.865 100.247 92.5358 98.25 90.9387 98.25C64.1861 99.4482 19.0662 184.518 -0.0998535 254.012L-3.84383 267.415C-5.96655 275.014 -13.8432 279.456 -21.4421 277.339L-88.5389 258.65C-96.1473 256.53 -100.595 248.64 -98.4691 241.031L-94.7323 227.653C-84.3502 190.509 -27.651 5.99085 85.7479 0H91.338C165.207 0 227.097 70.6921 286.192 222.86L286.592 224.058C292.181 240.433 313.743 283.168 344.489 292.353C348.482 293.552 352.475 293.951 356.867 293.951C374.835 293.951 397.196 283.567 421.952 264.396L432.665 256.018C438.879 251.159 447.853 252.253 452.718 258.464L495.957 313.665C500.76 319.795 499.772 328.643 493.736 333.564L483.043 342.277C440.319 375.826 397.994 393 357.266 393Z" fill="url(#paint0_linear_415_3924)" fill-opacity="0.6"/>
<defs>
<linearGradient id="paint0_linear_415_3924" x1="375.831" y1="294.478" x2="145.452" y2="-77.8876" gradientUnits="userSpaceOnUse">
<stop stop-color="#F8FBFF"/>
<stop offset="1" stop-color="#EFE7FA"/>
</linearGradient>
</defs>
</svg>
