<svg width="40" height="40" viewBox="0 0 40 40" fill="none" xmlns="http://www.w3.org/2000/svg">
<g clip-path="url(#clip0_758_23823)">
<path d="M28.1447 10.0619C28.3888 10.3059 28.3888 10.7016 28.1447 10.9457C28.0227 11.0677 27.8627 11.1287 27.7028 11.1287C27.5428 11.1287 27.3829 11.0677 27.2608 10.9457C23.2572 6.94211 16.7428 6.94211 12.7392 10.9457C12.495 11.1898 12.0994 11.1898 11.8553 10.9457C11.6112 10.7016 11.6112 10.3059 11.8553 10.0619C16.3463 5.57086 23.6536 5.57086 28.1447 10.0619ZM20 9.59313C17.6993 9.59313 15.5361 10.4891 13.9093 12.1159C13.6652 12.36 13.6652 12.7557 13.9093 12.9998C14.1534 13.2439 14.549 13.2439 14.7932 12.9998C16.184 11.609 18.0331 10.843 19.9999 10.843C21.9667 10.843 23.8158 11.609 25.2066 12.9998C25.3286 13.1218 25.4886 13.1828 25.6486 13.1828C25.8085 13.1828 25.9685 13.1218 26.0905 12.9998C26.3346 12.7557 26.3346 12.36 26.0905 12.1159C24.4637 10.4891 22.3007 9.59313 20 9.59313ZM20 12.498C18.475 12.498 17.0416 13.0918 15.9633 14.17C15.7193 14.4141 15.7193 14.8098 15.9633 15.0538C16.2075 15.298 16.6031 15.2978 16.8472 15.0538C17.6893 14.2117 18.809 13.748 19.9999 13.748C21.1908 13.748 22.3104 14.2117 23.1525 15.0538C23.2746 15.1759 23.4346 15.2369 23.5945 15.2369C23.7545 15.2369 23.9144 15.1759 24.0365 15.0538C24.2805 14.8098 24.2805 14.4141 24.0365 14.17C22.9583 13.0918 21.5248 12.498 20 12.498ZM22.1511 17.554C22.1511 18.7402 21.1861 19.7052 20 19.7052C18.8139 19.7052 17.8488 18.7402 17.8488 17.554C17.8488 16.3678 18.8139 15.4028 20 15.4028C21.1861 15.4028 22.1511 16.3679 22.1511 17.554ZM20.9011 17.554C20.9011 17.0571 20.4968 16.6528 20 16.6528C19.5031 16.6528 19.0988 17.057 19.0988 17.554C19.0988 18.0509 19.5031 18.4552 20 18.4552C20.4968 18.4552 20.9011 18.0509 20.9011 17.554ZM39.8365 32.2885V37.6779C39.8365 38.4845 39.1804 39.1406 38.3738 39.1406H28.6525C27.846 39.1406 27.1898 38.4845 27.1898 37.6779V31.0012C27.1898 30.1947 27.8459 29.5385 28.6525 29.5385H30.1035C30.2443 29.5385 30.381 29.586 30.4914 29.6734L31.9475 30.8259H32.8883V26.9209H20.625V30.8259H24.8607C25.6672 30.8259 26.3234 31.482 26.3234 32.2886V37.678C26.3234 38.4845 25.6672 39.1407 24.8607 39.1407H15.1393C14.3328 39.1407 13.6766 38.4845 13.6766 37.678V31.0013C13.6766 30.1948 14.3327 29.5386 15.1393 29.5386H16.5903C16.7311 29.5386 16.8678 29.5861 16.9782 29.6735L18.4343 30.8259H19.375V26.9209H7.11169V30.8259H11.3474C12.1539 30.8259 12.8101 31.4821 12.8101 32.2887V37.678C12.8101 38.4846 12.154 39.1408 11.3474 39.1408H1.62599C0.819502 39.1408 0.16333 38.4846 0.16333 37.678V31.0013C0.16333 30.1948 0.819424 29.5387 1.62599 29.5387H3.077C3.21778 29.5387 3.3545 29.5862 3.46489 29.6736L4.92099 30.826H5.86169V26.296C5.86169 25.9509 6.14153 25.671 6.48669 25.671H19.375V22.7023H11.597C7.61638 22.7023 4.37794 19.4638 4.37794 15.4833C4.37794 13.7772 4.99177 12.117 6.10638 10.8084C7.10591 9.63508 8.44888 8.81375 9.9306 8.46016C10.1545 4.23125 13.6654 0.859375 17.949 0.859375C20.3114 0.859375 22.5643 1.91484 24.0829 3.70797C24.7276 3.37859 25.4409 3.20664 26.1752 3.20664C28.7165 3.20664 30.7841 5.27414 30.7841 7.81555C30.7841 8.09523 30.7591 8.37258 30.7094 8.64516C32.0111 9.08859 33.1793 9.90727 34.0462 10.9935C35.0624 12.2667 35.622 13.8613 35.622 15.4833C35.622 19.4638 32.3836 22.7023 28.4029 22.7023H20.625V25.671H33.5133C33.8584 25.671 34.1383 25.9509 34.1383 26.296V30.826H38.3739C39.1804 30.8259 39.8365 31.482 39.8365 32.2885ZM11.597 21.4521H28.4029C31.6943 21.4521 34.3719 18.7745 34.3719 15.4831C34.3719 12.7229 32.495 10.3377 29.8075 9.68273C29.6377 9.64133 29.4931 9.53086 29.4086 9.37797C29.324 9.22508 29.3073 9.04383 29.3625 8.87805C29.4764 8.53633 29.534 8.17883 29.534 7.81547C29.534 5.96336 28.0272 4.45656 26.1751 4.45656C25.4958 4.45656 24.8415 4.65836 24.2829 5.04C24.0045 5.23031 23.625 5.16531 23.4258 4.89281C22.1517 3.14992 20.1043 2.10938 17.949 2.10938C14.2106 2.10938 11.1693 5.15078 11.1693 8.88914L11.1703 8.96719C11.1736 9.27633 10.9505 9.54148 10.6453 9.59086C7.78497 10.0544 5.62794 12.5874 5.62794 15.483C5.62794 18.7745 8.3056 21.4521 11.597 21.4521ZM11.3474 32.0759H4.70356C4.56278 32.0759 4.42606 32.0284 4.31567 31.9409L2.85958 30.7885H1.62599C1.51067 30.7885 1.41333 30.8859 1.41333 31.0012V37.6779C1.41333 37.7932 1.51067 37.8906 1.62599 37.8906H11.3474C11.4627 37.8906 11.5601 37.7932 11.5601 37.6779V32.2885C11.5601 32.1732 11.4627 32.0759 11.3474 32.0759ZM24.8607 32.0759H18.2168C18.0761 32.0759 17.9393 32.0284 17.829 31.9409L16.3729 30.7885H15.1393C15.024 30.7885 14.9266 30.8859 14.9266 31.0012V37.6779C14.9266 37.7932 15.024 37.8906 15.1393 37.8906H24.8607C24.976 37.8906 25.0734 37.7932 25.0734 37.6779V32.2885C25.0733 32.1732 24.9759 32.0759 24.8607 32.0759ZM38.5865 32.2885C38.5865 32.1732 38.4891 32.0758 38.3738 32.0758H31.73C31.5892 32.0758 31.4525 32.0283 31.3421 31.9409L29.886 30.7884H28.6524C28.5371 30.7884 28.4397 30.8859 28.4397 31.0011V37.6778C28.4397 37.7931 28.5371 37.8905 28.6524 37.8905H38.3738C38.4891 37.8905 38.5865 37.7931 38.5865 37.6778V32.2885Z" fill="#2D3C58"/>
</g>
<defs>
<clipPath id="clip0_758_23823">
<rect width="40" height="40" fill="white"/>
</clipPath>
</defs>
</svg>
