<svg width="47" height="40" viewBox="0 0 47 40" fill="none" xmlns="http://www.w3.org/2000/svg">
<g clip-path="url(#clip0_758_23747)">
<path d="M12.5737 35.7133H11.0421C10.5377 35.7133 10.125 35.3011 10.125 34.7973C10.125 34.2935 10.5377 33.8813 11.0421 33.8813H12.5737C13.0781 33.8813 13.4908 34.2935 13.4908 34.7973C13.4908 35.3011 13.0781 35.7133 12.5737 35.7133Z" fill="#2D3C58"/>
<path d="M25.3216 35.7133H17.0492C16.5448 35.7133 16.1321 35.3011 16.1321 34.7973C16.1321 34.2935 16.5448 33.8813 17.0492 33.8813H25.3216C25.826 33.8813 26.2387 34.2935 26.2387 34.7973C26.2387 35.3011 25.826 35.7133 25.3216 35.7133Z" fill="#2D3C58"/>
<path d="M12.5737 22.5143H11.0421C10.5377 22.5143 10.125 22.1021 10.125 21.5983C10.125 21.0946 10.5377 20.6824 11.0421 20.6824H12.5737C13.0781 20.6824 13.4908 21.0946 13.4908 21.5983C13.4908 22.1021 13.0781 22.5143 12.5737 22.5143Z" fill="#2D3C58"/>
<path d="M28.3482 26.8009H3.00815C1.34817 26.8009 0 25.4544 0 23.7965V19.2534C0 17.5955 1.34817 16.249 3.00815 16.249H14.5547C14.9124 16.249 15.2425 16.4597 15.3893 16.7803C16.4348 19.0427 18.7184 20.5082 21.2038 20.5082H30.4484C30.9528 20.5082 31.3655 20.9204 31.3655 21.4242V23.7965C31.3655 25.4544 30.0082 26.8009 28.3482 26.8009ZM3.00815 18.0809C2.357 18.0809 1.83424 18.6122 1.83424 19.2534V23.7965C1.83424 24.4469 2.36617 24.969 3.00815 24.969H28.3482C28.9993 24.969 29.5221 24.4377 29.5221 23.7965V22.3402H21.2038C18.1957 22.3402 15.426 20.6823 13.9861 18.0809H3.00815Z" fill="#2D3C58"/>
<path d="M28.3482 39.9999H3.00815C1.34817 39.9999 0 38.6534 0 36.9955V32.4523C0 30.7945 1.34817 29.448 3.00815 29.448H28.3482C30.0082 29.448 31.3563 30.7945 31.3563 32.4523V36.9955C31.3655 38.6534 30.0082 39.9999 28.3482 39.9999ZM3.00815 31.2799C2.357 31.2799 1.83424 31.8112 1.83424 32.4523V36.9955C1.83424 37.6458 2.36617 38.1679 3.00815 38.1679H28.3482C28.9993 38.1679 29.5221 37.6367 29.5221 36.9955V32.4523C29.5221 31.802 28.9901 31.2799 28.3482 31.2799H3.00815Z" fill="#2D3C58"/>
<path d="M27.0184 31.28H4.19129C3.68687 31.28 3.27417 30.8678 3.27417 30.364V25.885C3.27417 25.3812 3.68687 24.969 4.19129 24.969H27.0184C27.5228 24.969 27.9355 25.3812 27.9355 25.885V30.364C27.9355 30.8678 27.5228 31.28 27.0184 31.28ZM5.10841 29.448H26.1013V26.8009H5.10841V29.448Z" fill="#2D3C58"/>
<path d="M6.46569 35.64C6.41066 35.64 6.34646 35.6308 6.29143 35.6217C6.23641 35.6125 6.17221 35.5942 6.11718 35.5667C6.06215 35.5392 6.00713 35.5118 5.96127 35.4843C5.90624 35.4476 5.86039 35.411 5.8237 35.3652C5.78702 35.3194 5.74116 35.2736 5.71365 35.2278C5.67696 35.182 5.64945 35.1271 5.63111 35.0721C5.6036 35.0171 5.59442 34.9622 5.57608 34.8981C5.56691 34.834 5.55774 34.779 5.55774 34.7149C5.55774 34.6508 5.56691 34.5958 5.57608 34.5317C5.58525 34.4767 5.6036 34.4126 5.63111 34.3577C5.65862 34.3027 5.68614 34.2477 5.71365 34.2019C5.75033 34.1561 5.78702 34.1012 5.8237 34.0645C5.86039 34.0279 5.91542 33.9821 5.96127 33.9546C6.00713 33.918 6.06215 33.8905 6.11718 33.8722C6.17221 33.8447 6.22724 33.8356 6.29143 33.8172C6.41066 33.7898 6.52989 33.7898 6.64911 33.8172C6.70414 33.8264 6.76834 33.8447 6.82336 33.8722C6.87839 33.8997 6.93342 33.9272 6.97927 33.9546C7.02513 33.9913 7.08016 34.0279 7.11684 34.0645C7.1627 34.1103 7.19938 34.1561 7.23607 34.2019C7.27275 34.2477 7.30027 34.3027 7.31861 34.3577C7.34612 34.4126 7.35529 34.4676 7.37364 34.5317C7.38281 34.5866 7.39198 34.6508 7.39198 34.7149C7.39198 34.779 7.38281 34.834 7.37364 34.8981C7.36446 34.953 7.34612 35.0171 7.31861 35.0721C7.2911 35.1271 7.26358 35.182 7.23607 35.2278C7.19938 35.2736 7.1627 35.3286 7.11684 35.3652C7.07099 35.411 7.02513 35.4476 6.97927 35.4843C6.93342 35.5209 6.87839 35.5484 6.82336 35.5667C6.76834 35.5942 6.71331 35.6034 6.64911 35.6217C6.58491 35.64 6.52071 35.64 6.46569 35.64Z" fill="#2D3C58"/>
<path d="M6.46569 22.5141C6.41066 22.5141 6.34646 22.505 6.29143 22.4958C6.23641 22.4867 6.17221 22.4683 6.11718 22.4409C6.06215 22.4134 6.00713 22.3859 5.96127 22.3584C5.90624 22.3218 5.86039 22.2852 5.8237 22.2394C5.78702 22.1936 5.74116 22.1478 5.71365 22.102C5.67696 22.0562 5.64945 22.0012 5.63111 21.9462C5.6036 21.8913 5.59442 21.8363 5.57608 21.7722C5.56691 21.7173 5.55774 21.6531 5.55774 21.589C5.55774 21.5341 5.56691 21.4699 5.57608 21.415C5.58525 21.36 5.6036 21.2959 5.63111 21.241C5.65862 21.186 5.68614 21.131 5.71365 21.0852C5.75033 21.0394 5.78702 20.9845 5.8237 20.9478C5.86039 20.9112 5.91542 20.8654 5.96127 20.8379C6.00713 20.8013 6.06215 20.7738 6.11718 20.7555C6.17221 20.728 6.22724 20.7189 6.29143 20.7005C6.41066 20.6731 6.52989 20.6731 6.64911 20.7005C6.70414 20.7097 6.76834 20.728 6.82336 20.7555C6.87839 20.783 6.93342 20.8105 6.97927 20.8379C7.02513 20.8746 7.08016 20.9112 7.11684 20.9478C7.1627 20.9936 7.19938 21.0394 7.23607 21.0852C7.27275 21.131 7.30027 21.186 7.31861 21.241C7.33695 21.2959 7.35529 21.3509 7.37364 21.415C7.38281 21.4699 7.39198 21.5341 7.39198 21.589C7.39198 21.6531 7.38281 21.7081 7.37364 21.7722C7.36446 21.8272 7.34612 21.8913 7.31861 21.9462C7.2911 22.0012 7.27275 22.0562 7.23607 22.102C7.19938 22.1478 7.1627 22.2027 7.11684 22.2394C7.07099 22.2852 7.02513 22.3218 6.97927 22.3584C6.93342 22.3951 6.87839 22.4225 6.82336 22.4409C6.76834 22.4683 6.71331 22.4775 6.64911 22.4958C6.58491 22.505 6.52071 22.5141 6.46569 22.5141Z" fill="#2D3C58"/>
<path d="M34.9147 26.8011C34.7863 26.8011 34.6579 26.7736 34.5387 26.7187C34.2085 26.5721 33.9976 26.2424 33.9976 25.8851V22.3404H21.2038C16.664 22.3404 12.968 18.649 12.968 14.115C12.968 9.58104 16.664 5.88972 21.2038 5.88972C21.3321 5.88972 21.4697 5.88972 21.6073 5.89888C22.8271 3.62729 24.7805 1.84117 27.1742 0.842773C27.6419 0.650421 28.183 0.870252 28.3756 1.33739C28.5682 1.80453 28.3481 2.34495 27.8804 2.5373C25.7068 3.4441 23.9643 5.11115 22.983 7.2545C22.8179 7.62088 22.4327 7.83155 22.0292 7.7766C21.754 7.73996 21.4789 7.72164 21.2038 7.72164C17.6728 7.72164 14.8023 10.5886 14.8023 14.115C14.8023 17.6415 17.6728 20.5084 21.2038 20.5084H34.9147C35.4191 20.5084 35.8318 20.9206 35.8318 21.4244V23.8425L39.326 20.7374C39.4911 20.5909 39.7112 20.5084 39.9405 20.5084H40.4724C43.0404 20.5084 45.1314 18.4201 45.1314 15.8554C45.1314 13.6754 43.6457 11.816 41.5271 11.3305C41.1328 11.2389 40.8484 10.9 40.8209 10.5062C40.5733 7.01635 38.3172 3.88376 35.0798 2.54646C34.612 2.35411 34.3919 1.81369 34.5845 1.34655C34.7771 0.879411 35.3182 0.659581 35.786 0.851933C37.6844 1.63966 39.326 2.93116 40.5366 4.58905C41.6463 6.10955 42.3525 7.87735 42.591 9.72759C43.7374 10.1215 44.7737 10.8359 45.5441 11.7977C46.4704 12.9426 46.984 14.3898 46.984 15.8645C46.984 19.4368 44.0767 22.3495 40.4908 22.3495H40.3073L35.5475 26.5813C35.3549 26.7278 35.1348 26.8011 34.9147 26.8011Z" fill="#2D3C58"/>
<path d="M36.7948 17.5773C35.7952 17.5773 34.8597 17.1742 34.2269 16.4781C33.8876 16.1026 33.9151 15.5255 34.2911 15.1866C34.6671 14.8477 35.2449 14.8752 35.5842 15.2507C35.8685 15.5621 36.3179 15.7545 36.7948 15.7545C37.2075 15.7545 37.4735 15.5072 37.5102 15.3332C37.5377 15.1866 37.3084 14.9943 36.9507 14.866C36.107 14.5546 35.3458 14.2157 35.3183 14.2065C35.2724 14.1882 35.2357 14.1607 35.1899 14.1333C34.5387 13.7119 34.2085 12.97 34.3186 12.1914C34.4378 11.3762 35.0339 10.7076 35.8685 10.4602C37.1525 10.0755 38.3448 10.6892 38.84 11.1106L37.6569 12.512L37.6661 12.5212C37.6569 12.512 37.0424 12.0265 36.3913 12.2189C36.2354 12.2647 36.1437 12.3471 36.1253 12.457C36.1161 12.512 36.1345 12.5486 36.1528 12.5761C36.3729 12.6769 36.9599 12.9242 37.5835 13.1532C39.0876 13.7119 39.4636 14.8111 39.3077 15.6629C39.106 16.7712 38.0513 17.5773 36.7948 17.5773Z" fill="#2D3C58"/>
<path d="M23.57 17.5772C23.1298 17.5772 22.7354 17.3024 22.5887 16.8902L20.727 11.5502C20.5619 11.0739 20.8187 10.5518 21.2956 10.3869C21.7725 10.2221 22.2952 10.4785 22.4603 10.9548L23.5425 14.0782L24.5789 10.9731C24.7348 10.4968 25.2575 10.2312 25.7344 10.3961C26.2113 10.5518 26.4773 11.0739 26.3122 11.5502L24.5422 16.8719C24.4046 17.2933 24.0102 17.5772 23.57 17.5772Z" fill="#2D3C58"/>
<path d="M28.8893 17.5773C28.3849 17.5773 27.9722 17.1651 27.9722 16.6613V11.248C27.9722 10.7442 28.3849 10.332 28.8893 10.332C29.3937 10.332 29.8064 10.7442 29.8064 11.248V16.6613C29.8064 17.1743 29.3937 17.5773 28.8893 17.5773Z" fill="#2D3C58"/>
<path d="M28.8985 15.2325C28.66 15.2325 28.4216 15.1409 28.2565 14.9669C28.0822 14.7929 27.9813 14.5639 27.9813 14.3166C27.9813 14.3166 27.9722 13.1991 27.9722 12.7778C27.9722 12.4297 27.9722 11.2573 27.9722 11.2573C27.9722 11.01 28.0639 10.781 28.2381 10.6069C28.4124 10.4329 28.6417 10.3413 28.8893 10.3413H30.4025C31.769 10.3413 32.8788 11.4405 32.8788 12.7869C32.8788 14.1334 31.769 15.2325 30.4025 15.2325C29.9807 15.2234 28.9076 15.2325 28.8985 15.2325C28.9076 15.2325 28.9076 15.2325 28.8985 15.2325ZM29.8064 12.1641C29.8064 12.4114 29.8064 12.6495 29.8064 12.7778C29.8064 12.9243 29.8064 13.1533 29.8064 13.3915C30.0357 13.3915 30.2466 13.3915 30.3934 13.3915C30.7419 13.3915 31.0353 13.1075 31.0353 12.7778C31.0353 12.448 30.7419 12.1641 30.3934 12.1641H29.8064Z" fill="#2D3C58"/>
<path d="M31.4756 1.8319C31.4114 1.8319 31.3564 1.82274 31.2922 1.81358C31.2371 1.80442 31.1729 1.7861 31.1179 1.75862C31.0629 1.73114 31.0079 1.70366 30.962 1.67618C30.907 1.63954 30.8611 1.60291 30.8244 1.55711C30.6502 1.38308 30.5585 1.15409 30.5585 0.906776C30.5585 0.659467 30.6594 0.430476 30.8244 0.256444C30.8703 0.210646 30.9161 0.174007 30.962 0.146529C31.0079 0.10989 31.0629 0.0824113 31.1179 0.0640921C31.1729 0.0366133 31.228 0.0182941 31.2922 0.0091345C31.4114 -0.0183443 31.5306 -0.0183443 31.6498 0.0091345C31.7049 0.0182941 31.7691 0.0366133 31.8241 0.0640921C31.8791 0.091571 31.9342 0.11905 31.98 0.146529C32.0259 0.183167 32.0717 0.219805 32.1176 0.256444C32.1634 0.302242 32.2001 0.34804 32.2276 0.393838C32.2643 0.439636 32.2918 0.494594 32.3102 0.549551C32.3377 0.604509 32.3469 0.659467 32.3652 0.723584C32.3744 0.778541 32.3835 0.842659 32.3835 0.906776C32.3835 1.14493 32.2827 1.38308 32.1176 1.55711C32.0717 1.60291 32.0259 1.63954 31.98 1.67618C31.9342 1.71282 31.8791 1.7403 31.8241 1.75862C31.7691 1.7861 31.714 1.79526 31.6498 1.81358C31.5948 1.82274 31.5398 1.8319 31.4756 1.8319Z" fill="#2D3C58"/>
</g>
<defs>
<clipPath id="clip0_758_23747">
<rect width="46.9565" height="40" fill="white"/>
</clipPath>
</defs>
</svg>
