<svg width="388" height="381" viewBox="0 0 388 381" fill="none" xmlns="http://www.w3.org/2000/svg">
<path d="M11.9549 115.523L24.6314 110.341L132.417 374.013L119.74 379.195C109.997 383.178 98.944 378.689 95.0521 369.169L1.3603 139.973C-2.53134 130.453 2.21198 119.506 11.9549 115.523Z" fill="#8C7BFF"/>
<path d="M137.568 64.1746L21.1931 111.747C11.4502 115.73 6.70685 126.677 10.5987 136.197L104.29 365.392C108.182 374.913 119.236 379.402 128.979 375.419L245.354 327.846C255.097 323.863 259.84 312.917 255.949 303.396L162.257 74.2014C158.365 64.6809 147.312 60.1917 137.568 64.1746Z" fill="white"/>
<path d="M121.758 377.317C119.198 377.317 116.639 376.806 114.208 375.786C109.401 373.769 105.668 370.001 103.696 365.176L10.3249 136.766C8.35253 131.941 8.37709 126.637 10.3941 121.831C12.4112 117.025 16.1792 113.292 21.004 111.319L137.401 63.7379C147.36 59.666 158.775 64.4573 162.847 74.4172L256.218 302.827C260.29 312.787 255.499 324.202 245.539 328.274L129.143 375.855C126.759 376.83 124.258 377.317 121.758 377.317ZM137.754 64.6023L21.3575 112.184C16.7634 114.062 13.1759 117.616 11.2553 122.193C9.33502 126.769 9.31153 131.819 11.1895 136.413L104.56 364.823C106.438 369.417 109.992 373.004 114.569 374.925C119.145 376.846 124.196 376.869 128.789 374.991L245.186 327.41C254.669 323.533 259.231 312.663 255.354 303.18L161.983 74.7705C158.106 65.2866 147.237 60.7259 137.754 64.6023Z" fill="black"/>
<path d="M125.378 362.838C118.466 362.838 111.902 358.725 109.129 351.942L23.473 142.404C21.7013 138.07 21.7235 133.306 23.5353 128.988C25.3472 124.671 28.7317 121.317 33.0659 119.546L134.554 78.0587C138.888 76.2874 143.653 76.3098 147.97 78.1207C152.287 79.9327 155.641 83.3174 157.413 87.6516L243.069 297.189C246.726 306.136 242.422 316.39 233.476 320.048L131.988 361.535C129.824 362.419 127.583 362.838 125.378 362.838ZM141.188 77.6798C139.062 77.6798 136.935 78.0943 134.907 78.9231L33.4194 120.41C29.3161 122.087 26.1119 125.262 24.3965 129.35C22.6812 133.437 22.6603 137.948 24.3376 142.051L109.994 351.589C113.456 360.058 123.165 364.131 131.634 360.671L233.123 319.184C241.592 315.721 245.667 306.013 242.204 297.543L156.548 88.0046C154.871 83.9018 151.696 80.6974 147.609 78.9821C145.541 78.1144 143.365 77.6798 141.188 77.6798Z" fill="black"/>
<path d="M120.793 222.195C119.65 222.195 118.507 221.967 117.422 221.511C115.275 220.61 113.608 218.928 112.727 216.773L110.863 212.214C109.045 207.766 111.184 202.667 115.633 200.849L132.594 193.915C134.748 193.035 137.117 193.045 139.264 193.946C141.411 194.847 143.078 196.53 143.959 198.684L145.823 203.244C147.641 207.692 145.501 212.79 141.053 214.609L124.092 221.542C123.027 221.977 121.91 222.195 120.793 222.195ZM135.892 194.196C134.895 194.196 133.898 194.391 132.947 194.779L115.986 201.713C112.014 203.337 110.104 207.889 111.727 211.861L113.591 216.42C114.378 218.344 115.866 219.847 117.783 220.651C119.7 221.455 121.814 221.465 123.738 220.678L140.7 213.745C144.671 212.121 146.582 207.569 144.958 203.597L143.094 199.037C142.308 197.114 140.819 195.611 138.903 194.807C137.933 194.4 136.913 194.196 135.892 194.196Z" fill="black"/>
<path d="M134.954 256.849C133.81 256.849 132.668 256.621 131.582 256.165C129.435 255.264 127.768 253.581 126.887 251.427L125.023 246.867C123.205 242.419 125.345 237.321 129.793 235.502L146.754 228.569C148.909 227.689 151.278 227.699 153.424 228.6C155.571 229.501 157.238 231.184 158.119 233.338L159.983 237.898C161.801 242.346 159.662 247.444 155.213 249.263L138.252 256.196C137.187 256.631 136.07 256.849 134.954 256.849ZM150.052 228.85C149.055 228.85 148.058 229.044 147.107 229.433L130.146 236.367C126.174 237.99 124.264 242.542 125.887 246.515L127.751 251.074C128.538 252.998 130.026 254.5 131.943 255.305C133.86 256.109 135.975 256.119 137.898 255.332L154.86 248.398C158.831 246.775 160.742 242.222 159.118 238.251L157.254 233.691C156.468 231.768 154.979 230.265 153.063 229.461C152.093 229.054 151.073 228.85 150.052 228.85Z" fill="black"/>
<path d="M149.067 291.36C147.924 291.36 146.781 291.132 145.695 290.676C143.548 289.775 141.881 288.092 141 285.937L139.136 281.378C137.318 276.93 139.458 271.832 143.906 270.013L160.867 263.079C163.022 262.199 165.391 262.209 167.538 263.11C169.684 264.011 171.352 265.694 172.233 267.849L174.096 272.409C175.915 276.856 173.775 281.955 169.327 283.773L152.365 290.707C151.301 291.142 150.183 291.36 149.067 291.36ZM164.166 263.361C163.169 263.361 162.171 263.555 161.221 263.944L144.259 270.877C140.288 272.501 138.377 277.053 140.001 281.025L141.865 285.585C142.651 287.509 144.14 289.011 146.056 289.815C147.973 290.62 150.088 290.63 152.012 289.843L168.973 282.909C172.945 281.285 174.855 276.733 173.232 272.762L171.368 268.202C170.581 266.278 169.093 264.776 167.176 263.971C166.207 263.565 165.186 263.361 164.166 263.361Z" fill="black"/>
<path d="M175.208 298.166L158.247 305.099C154.03 306.823 152.009 311.638 153.733 315.855L155.597 320.415C157.32 324.631 162.136 326.652 166.353 324.928L183.314 317.995C187.531 316.271 189.552 311.456 187.828 307.239L185.964 302.679C184.24 298.463 179.425 296.442 175.208 298.166Z" fill="#FCB503"/>
<path d="M82.0822 238.019C80.9391 238.019 79.7966 237.791 78.7106 237.335C76.5641 236.434 74.8969 234.751 74.0158 232.596L72.152 228.037C70.3337 223.589 72.4735 218.491 76.9215 216.672L93.8831 209.738C98.3326 207.919 103.43 210.059 105.248 214.508L107.112 219.068C107.993 221.222 107.982 223.591 107.081 225.738C106.18 227.884 104.497 229.551 102.343 230.432L85.381 237.366C84.316 237.801 83.1991 238.019 82.0822 238.019ZM97.1709 210.024C96.1918 210.024 95.197 210.21 94.2363 210.603L77.2748 217.536C73.3031 219.16 71.3928 223.712 73.0164 227.684L74.8802 232.243C75.6667 234.168 77.1552 235.67 79.0717 236.474C80.9888 237.278 83.1037 237.288 85.0274 236.501L101.989 229.568C103.913 228.782 105.416 227.293 106.22 225.376C107.024 223.46 107.034 221.345 106.247 219.421L104.384 214.861C103.153 211.85 100.239 210.024 97.1709 210.024Z" fill="black"/>
<path d="M96.2622 272.668C92.8258 272.668 89.5624 270.622 88.1837 267.25L86.3201 262.691C84.5015 258.243 86.6413 253.144 91.0896 251.326L108.051 244.392C112.5 242.574 117.597 244.714 119.416 249.161L121.28 253.721C123.098 258.169 120.958 263.267 116.51 265.086L99.5485 272.02C98.4729 272.459 97.3585 272.667 96.2622 272.668ZM111.339 244.677C110.36 244.677 109.365 244.863 108.404 245.256L91.4429 252.19C89.5188 252.976 88.0162 254.465 87.2117 256.382C86.4075 258.298 86.3977 260.413 87.1844 262.338L89.048 266.897C90.6716 270.868 95.223 272.779 99.1952 271.155L116.157 264.222C120.128 262.598 122.039 258.046 120.415 254.075L118.551 249.515C117.321 246.504 114.407 244.677 111.339 244.677Z" fill="black"/>
<path d="M110.368 307.178C106.931 307.179 103.668 305.133 102.289 301.76L100.425 297.201C98.6071 292.753 100.747 287.655 105.195 285.836L122.157 278.903C124.312 278.022 126.681 278.032 128.827 278.933C130.974 279.834 132.641 281.517 133.522 283.672L135.386 288.232C136.266 290.387 136.255 292.755 135.355 294.902C134.454 297.048 132.771 298.716 130.616 299.597L113.655 306.531C112.578 306.97 111.464 307.178 110.368 307.178ZM125.454 279.184C124.458 279.184 123.46 279.378 122.51 279.767L105.548 286.701C101.576 288.324 99.666 292.876 101.29 296.848L103.153 301.408C104.777 305.379 109.328 307.289 113.301 305.666L130.262 298.732C132.186 297.946 133.689 296.458 134.493 294.541C135.297 292.624 135.307 290.509 134.521 288.585L132.657 284.026C131.87 282.102 130.382 280.599 128.465 279.795C127.496 279.388 126.475 279.184 125.454 279.184Z" fill="black"/>
<path d="M136.497 313.989L119.536 320.922C115.319 322.646 113.298 327.462 115.022 331.678L116.886 336.238C118.609 340.455 123.425 342.476 127.642 340.752L144.603 333.818C148.82 332.095 150.841 327.279 149.117 323.062L147.253 318.503C145.529 314.286 140.714 312.265 136.497 313.989Z" fill="#1EC15F"/>
<path d="M158.52 206.772C155.084 206.772 151.82 204.727 150.441 201.355L148.578 196.795C146.759 192.347 148.899 187.249 153.347 185.43L170.309 178.497C174.758 176.678 179.855 178.818 181.674 183.266L183.538 187.826C185.356 192.274 183.216 197.372 178.768 199.191L161.807 206.124C160.731 206.564 159.616 206.772 158.52 206.772ZM173.597 178.782C172.617 178.782 171.623 178.968 170.662 179.361L153.7 186.295C149.729 187.918 147.818 192.47 149.442 196.443L151.306 201.002C152.929 204.973 157.481 206.884 161.453 205.26L178.415 198.327C182.386 196.703 184.297 192.151 182.673 188.179L180.809 183.619C179.579 180.609 176.664 178.782 173.597 178.782Z" fill="black"/>
<path d="M172.672 241.431C171.529 241.431 170.386 241.203 169.3 240.747C167.154 239.846 165.486 238.163 164.606 236.009L162.742 231.449C160.924 227.001 163.063 221.903 167.511 220.084L184.473 213.151C186.627 212.27 188.996 212.28 191.143 213.182C193.289 214.083 194.957 215.765 195.838 217.92L197.702 222.479C199.52 226.927 197.38 232.026 192.932 233.844L175.971 240.778C174.906 241.213 173.789 241.431 172.672 241.431ZM187.771 213.432C186.774 213.432 185.777 213.626 184.826 214.015L167.865 220.948C163.893 222.572 161.983 227.124 163.606 231.096L165.47 235.656C166.257 237.579 167.745 239.082 169.662 239.886C171.578 240.69 173.694 240.701 175.617 239.914L192.578 232.98C196.55 231.357 198.46 226.805 196.837 222.833L194.973 218.273C194.186 216.35 192.698 214.847 190.781 214.043C189.812 213.636 188.792 213.432 187.771 213.432Z" fill="black"/>
<path d="M186.794 275.937C183.357 275.937 180.094 273.891 178.715 270.519L176.851 265.96C175.033 261.512 177.173 256.413 181.621 254.595L198.582 247.661C200.737 246.781 203.106 246.791 205.253 247.692C207.399 248.593 209.067 250.276 209.947 252.43L211.811 256.99C212.692 259.145 212.681 261.514 211.78 263.66C210.879 265.807 209.196 267.474 207.042 268.355L190.08 275.289C189.004 275.729 187.89 275.937 186.794 275.937ZM201.88 247.942C200.883 247.942 199.886 248.137 198.935 248.525L181.974 255.459C178.002 257.083 176.092 261.635 177.716 265.607L179.579 270.166C181.202 274.137 185.755 276.047 189.727 274.425L206.688 267.491C208.612 266.704 210.115 265.216 210.919 263.299C211.723 261.383 211.733 259.268 210.946 257.343L209.083 252.784C208.296 250.86 206.808 249.357 204.891 248.553C203.921 248.146 202.901 247.942 201.88 247.942Z" fill="black"/>
<path d="M212.923 282.747L195.961 289.681C191.745 291.404 189.724 296.22 191.448 300.437L193.311 304.996C195.035 309.213 199.851 311.234 204.068 309.51L221.029 302.577C225.246 300.853 227.267 296.037 225.543 291.82L223.679 287.261C221.955 283.044 217.14 281.023 212.923 282.747Z" fill="#FF7DCE"/>
<path d="M75.9742 204.052C70.7822 204.052 65.8516 200.962 63.7687 195.866L49.2215 160.279C46.474 153.558 49.7068 145.856 56.4276 143.108L134.395 111.236C137.65 109.905 141.229 109.922 144.473 111.283C147.716 112.644 150.235 115.187 151.566 118.443L166.113 154.029C167.444 157.285 167.427 160.864 166.066 164.107C164.705 167.35 162.163 169.869 158.907 171.2L80.94 203.073C79.3141 203.737 77.6308 204.052 75.9742 204.052ZM134.748 112.101L56.7808 143.973C50.5367 146.525 47.5333 153.682 50.0859 159.926L64.6331 195.513C67.1854 201.757 74.3424 204.761 80.5865 202.208L158.554 170.336C161.578 169.1 163.941 166.759 165.205 163.746C166.47 160.733 166.485 157.408 165.249 154.383L150.701 118.796C149.465 115.771 147.124 113.409 144.111 112.144C141.098 110.879 137.772 110.864 134.748 112.101Z" fill="black"/>
<path d="M81.5829 164.155L77.9766 162.641C82.555 151.732 91.1079 143.258 102.06 138.781C113.012 134.304 125.051 134.36 135.961 138.938L134.448 142.545C124.501 138.37 113.524 138.32 103.54 142.401C93.5548 146.483 85.7571 154.209 81.5829 164.155Z" fill="#020202"/>
<path d="M130.723 151.417C123.147 148.237 114.785 148.199 107.179 151.308C99.5734 154.417 93.6336 160.302 90.454 167.879L86.8477 166.365C90.4316 157.825 97.1263 151.192 105.699 147.687C114.272 144.183 123.697 144.227 132.237 147.811L130.723 151.417Z" fill="#020202"/>
<path d="M98.8251 171.391L95.2188 169.877C97.8642 163.573 102.807 158.677 109.135 156.09C115.464 153.503 122.421 153.535 128.725 156.181L127.212 159.787C121.871 157.546 115.977 157.519 110.615 159.71C105.254 161.902 101.066 166.05 98.8251 171.391Z" fill="#020202"/>
<path d="M123.632 168.312C117.308 165.658 110.003 168.644 107.349 174.969L103.742 173.455C107.23 165.143 116.833 161.217 125.145 164.706L123.632 168.312Z" fill="#020202"/>
<path d="M120.246 176.385C118.372 175.598 116.209 176.483 115.423 178.357L111.816 176.843C113.437 172.981 117.898 171.157 121.76 172.778L120.246 176.385Z" fill="#020202"/>
<path d="M135.808 91.553L41.4302 130.133C39.4771 130.931 38.5323 133.183 39.3306 135.136C40.129 137.089 42.3803 138.034 44.3334 137.235L138.711 98.6554C140.664 97.857 141.609 95.6057 140.81 93.6526C140.012 91.6994 137.761 90.7546 135.808 91.553Z" fill="#020202"/>
<path d="M212.281 17.7082L184.794 3.87483L154.006 17.9522L149.297 59.2406L186.505 77.9667C197.869 83.6859 210.924 85.0811 223.24 81.8924L244.481 76.3928L237.322 48.7416C233.835 35.2729 224.709 23.9627 212.281 17.7082Z" fill="#955B50"/>
<path d="M223.769 25.7439L184.82 66.571L241.47 120.614L280.418 79.7865L223.769 25.7439Z" fill="#955B50"/>
<path d="M215.238 95.6137L241.449 120.619L280.396 79.7938L263.836 63.9964L215.238 95.6137Z" fill="black"/>
<path d="M166.949 1.20082L161.004 2.74016L164.853 17.6047L167.949 16.8029C171.518 15.8789 175.302 16.2831 178.595 17.9405L199.859 28.6423L201.69 12.3072L183.039 2.92028C178.061 0.41517 172.343 -0.195867 166.949 1.20082Z" fill="#955B50"/>
<path d="M140.243 62.5686L113.121 69.5905C108.706 70.7336 104.201 68.0812 103.058 63.6664L102.98 63.3675C101.837 58.9527 104.49 54.4473 108.905 53.3041L136.026 46.2822L140.243 62.5686Z" fill="#955B50"/>
<path d="M152.77 9.11552L151.294 12.3779C148.999 17.4521 148.508 23.1586 149.904 28.55L153.999 44.3659C155.109 48.6531 159.484 51.2287 163.771 50.1188L164.433 49.9473C168.721 48.8372 171.296 44.462 170.186 40.1748L165.947 23.8003C164.645 18.7704 165.102 13.4463 167.244 8.71232L167.659 7.79439C169.055 4.70851 166.254 1.38092 162.975 2.22986L160.051 2.98694C156.822 3.82296 154.145 6.0762 152.77 9.11552Z" fill="#955B50"/>
<path d="M143.223 21.8819L141.747 25.1443C139.452 30.2185 138.961 35.925 140.357 41.3164L144.452 57.1323C145.562 61.4195 149.937 63.9951 154.224 62.8852L154.886 62.7137C159.174 61.6036 161.749 57.2284 160.639 52.9412L156.4 36.5667C155.097 31.5368 155.555 26.2127 157.696 21.4787L158.112 20.5608C159.508 17.4749 156.707 14.1473 153.428 14.9963L150.504 15.7533C147.275 16.5894 144.598 18.8426 143.223 21.8819Z" fill="#955B50"/>
<path d="M133.718 37.7192L131.617 42.363C129.889 46.1821 129.52 50.4771 130.571 54.5349L133.374 65.3605C134.483 69.6477 138.859 72.2233 143.146 71.1134L143.808 70.9419C148.096 69.8318 150.671 65.4566 149.561 61.1693L146.758 50.3438C145.708 46.286 146.077 41.991 147.805 38.1719L149.181 35.1298C150.447 32.3295 147.906 29.3099 144.93 30.0801L141.844 30.879C138.24 31.8122 135.252 34.3271 133.718 37.7192Z" fill="#955B50"/>
<path d="M110.962 70.3484C109.445 70.3484 107.949 69.9444 106.607 69.1543C104.624 67.987 103.214 66.1173 102.638 63.8901L102.505 63.3777C101.928 61.1509 102.254 58.8321 103.421 56.8491C104.588 54.8663 106.458 53.4565 108.685 52.8802L129.994 47.3629C130.245 47.2962 130.498 47.4486 130.563 47.6975C130.627 47.9472 130.477 48.2023 130.227 48.2664L108.919 53.7837C106.933 54.2981 105.266 55.5546 104.226 57.3228C103.185 59.0909 102.895 61.1581 103.409 63.1436L103.542 63.656C104.056 65.6415 105.313 67.3085 107.081 68.3494C108.848 69.3899 110.916 69.679 112.902 69.1659L133.013 63.9591C133.264 63.8924 133.518 64.0444 133.582 64.2937C133.647 64.5437 133.497 64.7985 133.247 64.8626L113.136 70.0695C112.416 70.2564 111.687 70.3484 110.962 70.3484Z" fill="black"/>
<path d="M152.218 63.6088C148.444 63.6088 144.991 61.0684 144.002 57.2493L139.907 41.4334C138.489 35.958 138.992 30.1048 141.323 24.9519L142.799 21.6897C144.155 18.6915 146.737 16.415 149.881 15.4447C150.128 15.3681 150.389 15.5068 150.465 15.7533C150.541 15.9999 150.403 16.2613 150.157 16.3369C147.268 17.2281 144.896 19.3197 143.65 22.0743L142.174 25.3365C139.93 30.2961 139.446 35.9297 140.811 41.1989L144.906 57.0148C145.949 61.0461 150.078 63.4772 154.109 62.4331L154.771 62.2617C158.803 61.2176 161.233 57.0891 160.189 53.0582L159.47 50.2784C159.405 50.0284 159.555 49.7736 159.805 49.7094C160.057 49.6434 160.309 49.7952 160.374 50.0441L161.093 52.8239C162.266 57.3537 159.535 61.9926 155.005 63.1654L154.343 63.3368C153.633 63.5212 152.92 63.6088 152.218 63.6088Z" fill="black"/>
<path d="M141.14 71.8372C137.366 71.8376 133.913 69.2968 132.924 65.4777L130.121 54.652C129.048 50.5057 129.429 46.0731 131.194 42.1706L133.295 37.5266C134.573 34.7017 136.832 32.4406 139.655 31.1595C139.89 31.0536 140.167 31.1567 140.273 31.3921C140.38 31.6268 140.276 31.9036 140.041 32.0103C137.424 33.1975 135.33 35.293 134.145 37.9114L132.045 42.5556C130.367 46.2646 130.005 50.4776 131.025 54.4177L133.828 65.2434C134.872 69.2747 139.001 71.7045 143.032 70.6617L143.694 70.4903C147.152 69.5943 149.528 66.3595 149.345 62.7986C149.331 62.541 149.529 62.3214 149.787 62.308C150.039 62.2947 150.264 62.4926 150.277 62.7504C150.483 66.7525 147.813 70.3878 143.928 71.394L143.265 71.5655C142.555 71.7496 141.842 71.8372 141.14 71.8372Z" fill="black"/>
<path d="M215.061 84.1128C214.069 84.1128 213.057 84.037 212.049 83.8571C211.795 83.812 211.626 83.5695 211.671 83.3155C211.716 83.0615 211.956 82.892 212.213 82.9379C218.304 84.0258 224.829 81.0216 224.894 80.9905C225.129 80.8819 225.405 80.9822 225.515 81.2157C225.624 81.4491 225.523 81.7272 225.29 81.8362C225.057 81.9457 220.355 84.1128 215.061 84.1128Z" fill="black"/>
<path d="M241.464 121.281L202.226 83.4461C196.674 82.6122 191.315 80.9092 186.297 78.3838L155.483 62.8757C155.253 62.7595 155.16 62.479 155.276 62.2488C155.391 62.0181 155.672 61.9256 155.903 62.0413L186.716 77.5495C191.691 80.0531 197.005 81.7332 202.511 82.5442L202.659 82.566L241.436 119.957L279.736 79.8095L223.428 26.0917C220.05 22.8983 216.229 20.2175 212.072 18.1251L182.826 3.33659C177.949 0.882278 172.351 0.284154 167.065 1.6529L160.166 3.43882C157.057 4.24436 154.515 6.38416 153.192 9.3094L151.717 12.5703C149.473 17.5304 148.99 23.1645 150.354 28.434L154.449 44.2495C154.954 46.2022 156.19 47.841 157.928 48.8641C159.667 49.8872 161.699 50.1721 163.652 49.6669L164.314 49.4955C166.267 48.9898 167.906 47.7542 168.93 46.0157C169.953 44.2776 170.238 42.2451 169.732 40.2924L165.493 23.9176C165.186 22.7336 164.974 21.5039 164.863 20.2628C164.703 18.4828 165.85 16.8639 167.591 16.4133L167.831 16.3508C171.511 15.3984 175.407 15.8147 178.803 17.5236L200.067 28.2253C200.297 28.3415 200.39 28.622 200.274 28.8523C200.158 29.0825 199.878 29.175 199.647 29.0597L178.383 18.3579C175.19 16.7509 171.525 16.3606 168.065 17.255L167.824 17.3174C166.528 17.6525 165.674 18.8562 165.793 20.1794C165.899 21.3697 166.103 22.5484 166.397 23.6833L170.636 40.0581C171.204 42.2525 170.884 44.5369 169.734 46.4896C168.584 48.4429 166.742 49.8316 164.548 50.3992L163.886 50.5707C161.692 51.1396 159.408 50.8187 157.454 49.6688C155.501 48.5193 154.113 46.678 153.545 44.484L149.45 28.6685C148.032 23.1927 148.535 17.3395 150.866 12.1855L152.341 8.92462C153.781 5.74032 156.548 3.41152 159.932 2.53507L166.831 0.749154C172.336 -0.676954 178.166 -0.0532225 183.246 2.50268L212.493 17.2914C216.73 19.4242 220.626 22.1575 224.071 25.4148L281.056 79.7786L241.464 121.281Z" fill="black"/>
<path d="M218.974 125.91L76.5472 162.786C72.1126 163.934 67.5869 161.27 66.4387 156.835L44.8801 73.5694C43.7319 69.1348 46.3961 64.6091 50.8307 63.4609L193.257 26.5848C197.692 25.4366 202.218 28.1009 203.366 32.5354L224.924 115.801C226.072 120.236 223.408 124.762 218.974 125.91Z" fill="#FED101"/>
<path d="M74.4434 163.524C72.9021 163.524 71.3827 163.113 70.0194 162.311C68.0053 161.125 66.5735 159.226 65.9877 156.963L44.4235 73.6758C43.8377 71.4131 44.1683 69.0576 45.354 67.0437C46.5396 65.0294 48.4386 63.5978 50.7013 63.012L193.149 26.1304C195.411 25.5431 197.767 25.8752 199.781 27.0606C201.796 28.2461 203.227 30.145 203.813 32.4078L225.378 115.695C226.587 120.366 223.771 125.15 219.1 126.359L76.6517 163.241C75.9205 163.43 75.1793 163.524 74.4434 163.524ZM195.356 26.7817C194.698 26.7817 194.036 26.865 193.383 27.0342L50.9352 63.9157C48.9142 64.4391 47.2178 65.7186 46.1585 67.5176C45.0994 69.3166 44.8043 71.4205 45.3277 73.4415L66.8918 156.729C67.4151 158.75 68.6938 160.447 70.4933 161.506C72.2926 162.565 74.3964 162.861 76.4176 162.337L218.866 125.455C223.038 124.375 225.554 120.101 224.473 115.929L202.909 32.6421C202.386 30.6204 201.107 28.9244 199.307 27.8653C198.09 27.1487 196.732 26.7817 195.356 26.7817Z" fill="black"/>
<path d="M86.0662 100.24L68.3726 104.821C66.7871 105.232 65.169 104.279 64.7584 102.694L61.3415 89.497C60.9309 87.9115 61.8835 86.2932 63.469 85.8828L81.1627 81.3016C82.7482 80.891 84.3665 81.8437 84.7768 83.4291L88.1937 96.626C88.6043 98.2117 87.6517 99.8298 86.0662 100.24Z" fill="#8C7BFF"/>
<path d="M64.7527 103.143C64.5451 103.143 64.3555 103.003 64.3009 102.793C64.2363 102.543 64.3863 102.288 64.6359 102.224L70.9255 100.595L67.835 88.6576L61.6855 90.2496C61.4349 90.3171 61.1811 90.1643 61.1165 89.915C61.052 89.6653 61.2021 89.4102 61.4516 89.3461L68.0528 87.6368C68.1717 87.6052 68.2994 87.623 68.4067 87.6865C68.5133 87.749 68.5906 87.8516 68.6219 87.9714L71.9465 100.813C72.0111 101.062 71.861 101.318 71.6115 101.382L64.8698 103.127C64.8306 103.138 64.7914 103.143 64.7527 103.143Z" fill="black"/>
<path d="M81.4439 98.8202C81.2363 98.8202 81.0467 98.6808 80.9921 98.4706L77.6672 85.6293C77.6361 85.5093 77.6543 85.3821 77.717 85.2754C77.7798 85.1683 77.8825 85.0912 78.0023 85.0601L84.5233 83.3718C84.7741 83.3051 85.028 83.4575 85.0922 83.7064C85.1567 83.9562 85.0067 84.2112 84.7571 84.2753L78.6882 85.8468L81.779 97.7842L87.7528 96.2377C88.0036 96.1716 88.2576 96.3234 88.3218 96.5723C88.3863 96.822 88.2363 97.0771 87.9867 97.1412L81.561 98.805C81.5218 98.8156 81.4825 98.8202 81.4439 98.8202Z" fill="black"/>
<path d="M63.5528 98.9138C63.3452 98.9138 63.1555 98.7743 63.1009 98.5641C63.0364 98.3144 63.1864 98.0594 63.436 97.9952L74.7684 95.0609L73.7633 91.179C73.6987 90.9292 73.8488 90.6742 74.0983 90.6101L85.6388 87.6224C85.8907 87.5568 86.1434 87.7081 86.2078 87.957C86.2723 88.2068 86.1223 88.4618 85.8727 88.5259L74.7843 91.397L75.7894 95.2789C75.854 95.5286 75.7039 95.7837 75.4544 95.8478L63.6698 98.899C63.6307 98.9091 63.5913 98.9138 63.5528 98.9138Z" fill="black"/>
<path d="M91.6741 110.103L68.2383 116.17L70.399 124.517L93.8348 118.45L91.6741 110.103Z" fill="#8C7BFF"/>
<path d="M128.627 100.537L105.191 106.604L107.352 114.951L130.788 108.884L128.627 100.537Z" fill="#8C7BFF"/>
<path d="M165.58 90.9713L142.145 97.0379L144.305 105.385L167.741 99.3183L165.58 90.9713Z" fill="#8C7BFF"/>
<path d="M170.666 110.619L147.23 116.685L148.897 123.123L172.333 117.056L170.666 110.619Z" fill="#8C7BFF"/>
<path d="M202.534 81.4053L179.098 87.4718L181.258 95.8189L204.694 89.7523L202.534 81.4053Z" fill="#8C7BFF"/>
<path d="M91.0153 62.5721L56.6641 71.4642L57.9937 76.6009L92.345 67.7088L91.0153 62.5721Z" fill="#FCB503"/>
<path d="M135.359 51.0929L101.008 59.985L102.337 65.1217L136.689 56.2296L135.359 51.0929Z" fill="#FCB503"/>
<path d="M208.017 102.594L182.555 109.186L186.544 124.596L212.006 118.004L208.017 102.594Z" fill="#FCB503"/>
<path d="M180.705 38.2779L175.951 37.4588C170.202 36.4685 165.348 41.742 166.81 47.3891L167.029 48.2345C167.82 51.2916 170.33 53.6013 173.442 54.1376L182.312 55.6658C188.63 56.7541 195.106 56.4859 201.312 54.8793L223.295 49.1877L218.658 31.278L193.698 37.7403C189.454 38.8388 185.025 39.0223 180.705 38.2779Z" fill="#955B50"/>
<path d="M190.011 56.7949C187.421 56.7949 184.826 56.5721 182.235 56.1257L173.365 54.5973C170.079 54.0312 167.415 51.5796 166.579 48.3515L166.36 47.5062C165.633 44.6999 166.372 41.7513 168.335 39.619C170.298 37.4861 173.173 36.5054 176.032 36.9987L180.787 37.818C185.071 38.5556 189.376 38.3774 193.583 37.2883L215.333 31.6571C215.585 31.5904 215.838 31.7428 215.902 31.9917C215.967 32.2414 215.817 32.4965 215.567 32.5606L193.817 38.1918C189.481 39.3148 185.044 39.4994 180.628 38.7381L175.873 37.9188C173.331 37.483 170.769 38.3529 169.022 40.2514C167.274 42.1499 166.617 44.7742 167.264 47.2719L167.483 48.1172C168.227 50.991 170.598 53.1731 173.523 53.6773L182.394 55.2056C188.688 56.2903 195.014 56.0277 201.197 54.4274L223.18 48.7359C223.431 48.6688 223.684 48.8216 223.749 49.0705C223.813 49.3202 223.663 49.5753 223.414 49.6394L201.431 55.3309C197.664 56.3062 193.844 56.7949 190.011 56.7949Z" fill="black"/>
<path d="M269.185 63.3173L219.383 112.282L243.097 136.402L292.9 87.4378L269.185 63.3173Z" fill="white"/>
<path d="M243.088 136.859C242.967 136.859 242.846 136.812 242.755 136.719L219.04 112.6C218.953 112.512 218.905 112.393 218.906 112.269C218.907 112.145 218.957 112.027 219.046 111.94L268.845 62.9756C269.029 62.7946 269.324 62.7973 269.505 62.9811L293.22 87.1C293.307 87.1885 293.355 87.3075 293.354 87.4315C293.353 87.5551 293.303 87.6736 293.214 87.7602L243.415 136.725C243.324 136.814 243.206 136.859 243.088 136.859ZM220.033 112.279L243.093 135.732L292.227 87.4219L269.167 63.9686L220.033 112.279Z" fill="black"/>
<path d="M238.816 116.437C238.071 116.437 237.338 116.238 236.679 115.851C235.705 115.278 235.014 114.36 234.73 113.267C234.447 112.174 234.607 111.035 235.18 110.063C235.753 109.089 236.67 108.397 237.764 108.114C238.857 107.831 239.995 107.991 240.968 108.563C241.942 109.137 242.633 110.054 242.917 111.147C243.2 112.241 243.04 113.378 242.467 114.351C241.894 115.325 240.977 116.016 239.883 116.3C239.53 116.392 239.172 116.437 238.816 116.437ZM238.829 108.912C238.552 108.912 238.273 108.947 237.998 109.018C237.146 109.239 236.431 109.778 235.985 110.536C235.539 111.295 235.414 112.181 235.635 113.033C235.855 113.885 236.394 114.6 237.153 115.046C237.911 115.492 238.798 115.616 239.649 115.396C240.501 115.175 241.216 114.637 241.662 113.878C242.109 113.12 242.233 112.233 242.013 111.382C241.792 110.53 241.253 109.815 240.495 109.368C239.982 109.066 239.41 108.912 238.829 108.912Z" fill="black"/>
<path d="M386.59 134.073L351.202 143.235L293.215 81.0176L233.465 139.766L312.72 223.606C323.811 234.885 340.078 239.391 355.393 235.426L386.59 227.349L386.59 134.073Z" fill="url(#paint0_linear_1327_1433)"/>
<path d="M344.35 237.298C332.49 237.298 320.889 232.581 312.385 223.933L233.124 140.087C232.949 139.902 232.954 139.612 233.136 139.434L292.885 80.6851C292.976 80.5966 293.102 80.5519 293.223 80.5511C293.349 80.5538 293.468 80.6076 293.554 80.6997L351.351 142.714L386.471 133.621C386.722 133.554 386.975 133.707 387.04 133.955C387.104 134.205 386.954 134.46 386.705 134.524L351.316 143.687C351.151 143.73 350.974 143.678 350.858 143.553L293.198 81.687L234.117 139.778L313.057 223.285C323.991 234.403 340.17 238.885 355.274 234.975L386.471 226.897C386.722 226.831 386.975 226.983 387.04 227.232C387.104 227.482 386.954 227.737 386.705 227.801L355.508 235.878C351.823 236.833 348.073 237.298 344.35 237.298Z" fill="url(#paint1_linear_1327_1433)"/>
<path d="M270.418 155.524C270.297 155.524 270.177 155.478 270.086 155.385L244.205 129.204C244.024 129.021 244.026 128.725 244.209 128.544C244.392 128.362 244.688 128.364 244.869 128.548L270.75 154.729C270.931 154.912 270.929 155.208 270.746 155.389C270.655 155.479 270.536 155.524 270.418 155.524Z" fill="black"/>
<path d="M363.809 156.623C363.687 156.623 363.566 156.576 363.474 156.482L350.867 143.561C350.687 143.376 350.691 143.081 350.875 142.901C351.06 142.722 351.356 142.725 351.536 142.909L364.143 155.83C364.323 156.015 364.319 156.31 364.135 156.49C364.044 156.579 363.926 156.623 363.809 156.623Z" fill="black"/>
<defs>
<linearGradient id="paint0_linear_1327_1433" x1="266.5" y1="98.1478" x2="404.5" y2="247.648" gradientUnits="userSpaceOnUse">
<stop stop-color="#0750C7"/>
<stop offset="1" stop-color="#0555CF"/>
</linearGradient>
<linearGradient id="paint1_linear_1327_1433" x1="268" y1="102.148" x2="379" y2="144.148" gradientUnits="userSpaceOnUse">
<stop/>
<stop offset="1" stop-opacity="0"/>
</linearGradient>
</defs>
</svg>
