<svg width="117" height="128" viewBox="0 0 117 128" fill="none" xmlns="http://www.w3.org/2000/svg">
<path d="M56.896 55.0789C66.6066 45.3683 66.6066 29.6244 56.896 19.9138C47.1854 10.2033 31.4415 10.2033 21.731 19.9138C12.0204 29.6244 12.0204 45.3683 21.731 55.0789C31.4415 64.7894 47.1854 64.7894 56.896 55.0789Z" fill="black"/>
<path d="M53.2046 53.3493C62.9151 43.6387 62.9151 27.8948 53.2046 18.1842C43.494 8.47369 27.7501 8.47369 18.0396 18.1842C8.32899 27.8948 8.32899 43.6387 18.0396 53.3493C27.7501 63.0598 43.494 63.0598 53.2046 53.3493Z" fill="white"/>
<path d="M35.6784 61.1063C34.1606 61.1063 32.6318 60.9695 31.1067 60.6931C24.4486 59.4863 18.659 55.7584 14.8042 50.1975C10.9498 44.6359 9.49133 37.9065 10.6982 31.2483C13.1891 17.5041 26.3985 8.34723 40.1425 10.8403C53.887 13.332 63.0422 26.5404 60.5508 40.285C59.344 46.9432 55.6166 52.7325 50.0552 56.5871C45.768 59.5589 40.7864 61.1063 35.6784 61.1063ZM35.6134 11.3656C24.0487 11.3656 13.751 19.6422 11.617 31.4154C10.4546 37.8275 11.8591 44.3092 15.5717 49.6654C19.284 55.0217 24.8604 58.6117 31.273 59.7739C44.5106 62.1757 57.2325 53.3562 59.6322 40.1181C62.0315 26.8805 53.2139 14.1586 39.9762 11.7593C38.5113 11.4937 37.0524 11.3656 35.6134 11.3656Z" fill="black"/>
<path d="M46.706 46.2741L43.9014 44.1339C42.3787 46.0667 40.4559 47.6016 38.9932 48.2404L36.1812 44.709C37.7592 43.9733 39.6421 42.6847 41.0335 40.7443C42.2534 39.0426 42.4388 37.3827 41.2578 36.4814C40.1361 35.6253 38.7424 36.0401 36.4205 37.6861C33.0673 40.0695 30.0287 41.1225 27.165 38.9372C24.567 36.9547 23.8569 33.5494 25.5272 29.8817L22.7227 27.7415L24.8203 24.8158L27.4184 26.7984C28.9412 24.8656 30.3176 23.8376 31.4965 23.2128L34.2118 26.6242C33.3304 27.1525 31.6669 28.008 30.1256 30.1573C28.7344 32.0977 29.1114 33.3555 29.9381 33.9863C30.9123 34.7298 32.2815 34.1579 35.0457 32.3411C38.8327 29.7346 41.4839 29.5407 44.141 31.5684C46.7684 33.5733 47.6639 37.1663 45.7927 41.0501L48.8041 43.3481L46.706 46.2741Z" fill="#4ADA85"/>
<path d="M93.2416 103.728C106.2 90.77 106.2 69.7602 93.2417 56.8018C80.2832 43.8433 59.2734 43.8433 46.3149 56.8018C33.3565 69.7602 33.3565 90.77 46.3149 103.728C59.2734 116.687 80.2832 116.687 93.2416 103.728Z" fill="black"/>
<path d="M88.3119 101.42C101.27 88.4619 101.27 67.4521 88.3119 54.4936C75.3535 41.5352 54.3437 41.5352 41.3852 54.4937C28.4268 67.4521 28.4268 88.4619 41.3852 101.42C54.3437 114.379 75.3535 114.379 88.3119 101.42Z" fill="white"/>
<path d="M64.8673 111.61C62.8818 111.61 60.872 111.433 58.8505 111.067C40.5937 107.757 28.433 90.2122 31.7422 71.9551C35.0511 53.6985 52.597 41.5374 70.8535 44.8466C89.1103 48.1562 101.271 65.7014 97.962 83.9585C95.0192 100.194 80.8153 111.61 64.8673 111.61ZM64.8377 45.2379C49.3296 45.2379 35.5225 56.335 32.661 72.1221C29.4436 89.8721 41.2669 106.931 59.0169 110.148C76.7687 113.366 93.8257 101.542 97.0433 83.7919C100.261 66.042 88.4371 48.9831 70.6871 45.766C68.7239 45.4098 66.7661 45.2379 64.8377 45.2379Z" fill="black"/>
<path d="M54.7815 95.5564L56.6977 91.256C53.7196 89.8733 51.1351 87.8487 49.8555 86.1457L53.5761 81.4079C55.0168 83.2306 57.2692 85.2794 60.2169 86.4892C62.8018 87.55 65.0146 87.2802 65.8214 85.4695C66.588 83.7494 65.6208 82.0674 62.7692 79.5585C58.6426 75.9373 56.3407 72.3153 58.2974 67.9246C60.0725 63.9411 64.2764 61.9717 69.5526 63.0126L71.4689 58.7123L75.9132 60.5361L74.138 64.5196C77.1162 65.9023 78.8746 67.3737 80.0484 68.7122L76.4537 73.2874C75.4966 72.3056 73.8741 70.4084 70.609 69.0684C67.6613 67.8586 66.144 68.7352 65.5791 70.0026C64.9134 71.4964 66.0771 73.0984 69.2864 76.1291C73.8358 80.2451 74.9032 83.6279 73.0876 87.702C71.2922 91.7308 66.9021 93.9984 61.2834 92.7634L59.2257 97.3806L54.7815 95.5564Z" fill="#4ADA85"/>
</svg>
