<svg width="102" height="100" viewBox="0 0 102 100" fill="none" xmlns="http://www.w3.org/2000/svg">
<path d="M77.8301 74.8752C91.1766 61.5287 91.1766 39.8897 77.8301 26.5432C64.4835 13.1966 42.8446 13.1966 29.498 26.5432C16.1515 39.8897 16.1515 61.5287 29.498 74.8752C42.8446 88.2217 64.4835 88.2217 77.8301 74.8752Z" fill="black"/>
<path d="M72.7558 72.498C86.1024 59.1515 86.1024 37.5125 72.7558 24.166C59.4093 10.8195 37.7703 10.8195 24.4238 24.166C11.0773 37.5125 11.0773 59.1515 24.4238 72.498C37.7703 85.8446 59.4093 85.8446 72.7558 72.498Z" fill="white"/>
<path d="M48.6638 82.9826C46.5877 82.9826 44.4977 82.7957 42.4116 82.4177C33.3064 80.7672 25.3889 75.6698 20.1175 68.0643C14.8461 60.4592 12.8519 51.2562 14.5024 42.1512C16.1526 33.0461 21.25 25.1284 28.8555 19.8573C36.4608 14.5857 45.6639 12.5923 54.7689 14.2419C63.8741 15.8924 71.7914 20.9898 77.0628 28.5953C82.3342 36.2004 84.3283 45.4034 82.6779 54.5089C81.0276 63.6139 75.9302 71.5311 68.3247 76.8023C62.462 80.866 55.6485 82.9826 48.6638 82.9826ZM48.5186 14.6115C41.7212 14.6115 35.0925 16.6704 29.3872 20.6247C21.987 25.7541 17.027 33.458 15.421 42.3181C13.8152 51.1775 15.7554 60.1324 20.8848 67.5326C26.0139 74.9328 33.7182 79.8926 42.578 81.4984C51.4377 83.1047 60.3927 81.1643 67.7929 76.0351C75.193 70.9059 80.1531 63.2018 81.7591 54.3421C83.3649 45.4823 81.4247 36.5278 76.2953 29.127C71.1662 21.7268 63.4621 16.7671 54.6023 15.1611C52.5728 14.7935 50.5382 14.6115 48.5186 14.6115Z" fill="black"/>
<path d="M51.4051 69.1008L50.2648 64.3877C46.966 65.1321 43.5846 65.1056 41.47 64.5208L41.5263 58.3165C43.8477 58.8977 46.9731 59.1529 50.1384 58.2864C52.9142 57.5266 54.5494 55.9151 54.0692 53.9306C53.6131 52.0455 51.7664 51.2814 47.8629 51.0276C42.2199 50.668 38.0647 49.1606 36.9004 44.3485C35.8441 39.9828 38.0351 35.7333 42.9937 33.265V33.2648L41.8533 28.5519L46.6254 27.2456L47.6818 31.6113C50.9808 30.867 53.3403 30.9616 55.1393 31.3155L55.0834 37.3079C53.6852 37.1088 51.1689 36.5811 47.6627 37.541C44.4975 38.4075 43.8109 40.0766 44.147 41.4656C44.5432 43.1027 46.4995 43.678 51.0231 44.1324C57.3223 44.6296 60.3199 46.7184 61.4004 51.1834C62.4688 55.5987 60.3133 60.2089 54.953 62.7341L56.1775 67.7942L51.4051 69.1008Z" fill="#4ADA85"/>
</svg>
