<svg width="46" height="81" viewBox="0 0 46 81" fill="none" xmlns="http://www.w3.org/2000/svg">
<path d="M14.7695 72.0354C16.8573 74.4931 18.3818 77.4452 19.1475 80.694C19.9133 77.4452 21.4378 74.4931 23.5256 72.0354C21.4378 69.5777 19.9133 66.6258 19.1475 63.3769C18.3818 66.6258 16.8573 69.5779 14.7695 72.0354Z" fill="#FED101"/>
<path d="M0.507812 8.73355C2.59554 11.1912 4.12007 14.1434 4.88582 17.3922C5.65158 14.1434 7.17611 11.1915 9.26384 8.73355C7.17611 6.27585 5.65158 3.32394 4.88582 0.0748749C4.12007 3.32394 2.59554 6.27585 0.507812 8.73355Z" fill="#FED101"/>
<path d="M29.293 43.2937C33.151 47.8355 35.9683 53.2906 37.3834 59.2941C38.7985 53.2906 41.6157 47.8355 45.4737 43.2937C41.6157 38.7521 38.7985 33.2972 37.3834 27.2933C35.968 33.297 33.151 38.7521 29.293 43.2937Z" fill="#FED101"/>
</svg>
