<svg width="16" height="16" viewBox="0 0 16 16" fill="none" xmlns="http://www.w3.org/2000/svg">
<path d="M15.3184 0.681045C15.234 0.597091 15.1275 0.538964 15.0112 0.513499C14.895 0.488034 14.7739 0.49629 14.6621 0.537295L0.912134 5.53729C0.793552 5.58227 0.691459 5.66226 0.619416 5.76664C0.547373 5.87102 0.508789 5.99484 0.508789 6.12167C0.508789 6.24849 0.547373 6.37232 0.619416 6.4767C0.691459 6.58107 0.793552 6.66107 0.912134 6.70604L6.28088 8.84979L10.2434 4.87479L11.1246 5.75604L7.14338 9.73729L9.29338 15.106C9.3397 15.2223 9.41986 15.322 9.5235 15.3922C9.62713 15.4624 9.74946 15.4999 9.87463 15.4998C10.0009 15.4972 10.1235 15.4564 10.2261 15.3828C10.3288 15.3091 10.4067 15.2061 10.4496 15.0873L15.4496 1.33729C15.4922 1.22672 15.5025 1.10631 15.4792 0.990122C15.456 0.87393 15.4002 0.766739 15.3184 0.681045Z" fill="#2D3C58"/>
</svg>
