<svg width="55" height="55" viewBox="0 0 55 55" fill="none" xmlns="http://www.w3.org/2000/svg">
<path d="M23.2891 40.3242C23.3331 40.3306 23.3779 40.3334 23.421 40.3334C23.8806 40.3334 24.2825 39.9955 24.3484 39.5268C24.4207 39.0141 24.0637 38.5399 23.551 38.4675C19.9053 37.9521 18.7142 36.8498 18.7142 36.5275V32.7431C20.7092 33.8276 24.0043 34.3403 27.1517 34.3403C30.2997 34.3403 33.5944 33.8276 35.5892 32.7432V36.5275C35.5892 36.8498 34.399 37.9521 30.7516 38.4675C30.2389 38.5399 29.8818 39.0141 29.9551 39.5268C30.021 39.9955 30.422 40.3334 30.8816 40.3334C30.9255 40.3334 30.9695 40.3306 31.0153 40.3242C35.0527 39.7538 37.4642 38.3339 37.4642 36.5275V30.2836C37.4642 30.2828 37.4638 30.282 37.4638 30.2812C37.4638 30.2799 37.4642 30.2786 37.4642 30.2772V17.7775C37.4642 14.9861 32.1194 13.7153 27.1517 13.7153C22.185 13.7153 16.8392 14.9861 16.8392 17.7775V30.2772C16.8392 30.2786 16.8397 30.2799 16.8397 30.2812C16.8397 30.282 16.8392 30.2828 16.8392 30.2836V36.5275C16.8392 38.3339 19.2507 39.7538 23.2891 40.3242ZM35.5892 24.0278C35.5892 24.6623 32.6321 26.215 27.1517 26.215C21.6714 26.215 18.7142 24.6623 18.7142 24.0278V20.243C20.7092 21.3274 24.0043 21.8397 27.1517 21.8397C30.2997 21.8397 33.5944 21.3274 35.5892 20.2432V24.0278ZM27.1517 32.4653C21.6714 32.4653 18.7142 30.9126 18.7142 30.2772V26.4933C20.7092 27.5777 24.0043 28.09 27.1517 28.09C30.2997 28.09 33.5944 27.5777 35.5892 26.4935V30.2772C35.5892 30.9126 32.6321 32.4653 27.1517 32.4653ZM27.1517 15.5903C32.6321 15.5903 35.5892 17.1431 35.5892 17.7775C35.5892 18.412 32.6321 19.9647 27.1517 19.9647C21.6714 19.9647 18.7142 18.412 18.7142 17.7775C18.7142 17.1431 21.6714 15.5903 27.1517 15.5903Z" fill="white"/>
<path d="M1.70022 45.9909C0.890665 46.8338 0.386324 47.9724 0.386324 49.2304C0.386324 51.815 2.48929 53.9179 5.07382 53.9179C6.33096 53.9179 7.46861 53.4142 8.31124 52.6057C10.6381 53.736 13.3248 54.3281 16.2579 54.3281C19.6642 54.3281 23.3775 53.5525 27.1527 52.0372C30.9277 53.5525 34.6393 54.329 38.0447 54.329C40.9779 54.329 43.6662 53.736 45.9927 52.6056C46.8354 53.4142 47.973 53.9179 49.2306 53.9179C51.8161 53.9179 53.9181 51.815 53.9181 49.2304C53.9181 47.9719 53.4138 46.833 52.6038 45.99C55.0456 40.9617 54.8571 34.178 52.0372 27.1516C54.8571 20.1266 55.0456 13.3432 52.6038 8.31493C53.4138 7.47196 53.9181 6.33304 53.9181 5.07453C53.9181 2.49 51.8161 0.387034 49.2306 0.387034C47.9721 0.387034 46.8334 0.891375 45.9907 1.70104C40.9635 -0.741582 34.1764 -0.554128 27.151 2.26696C20.1281 -0.554013 13.3426 -0.740781 8.3133 1.70093C7.47045 0.891375 6.33187 0.387034 5.07382 0.387034C2.48929 0.387034 0.386324 2.49 0.386324 5.07453C0.386324 6.33258 0.890665 7.47116 1.70022 8.31401C-0.741491 13.3424 -0.553694 20.1273 2.26636 27.1534C-0.553694 34.178 -0.741491 40.9625 1.70022 45.9909ZM5.07382 52.0429C3.52292 52.0429 2.26132 50.7813 2.26132 49.2304C2.26132 47.6795 3.52292 46.4179 5.07382 46.4179C6.62473 46.4179 7.88632 47.6795 7.88632 49.2304C7.88632 50.7813 6.62473 52.0429 5.07382 52.0429ZM27.151 4.29142C31.9478 6.3446 36.6192 9.5597 40.6833 13.6219C44.7456 17.6842 47.9588 22.3558 50.0128 27.1517C47.9588 31.9493 44.7456 36.6207 40.6833 40.6831C36.6192 44.7453 31.9478 47.9604 27.1527 50.0135C22.3552 47.9596 17.6835 44.7454 13.6212 40.6831C9.55888 36.6207 6.34469 31.9492 4.2907 27.1533C6.34469 22.3557 9.55888 17.6842 13.6212 13.6219C17.6835 9.55959 22.3551 6.3454 27.151 4.29142ZM49.2306 52.0429C47.6797 52.0429 46.4181 50.7813 46.4181 49.2304C46.4181 47.6795 47.6797 46.4179 49.2306 46.4179C50.7815 46.4179 52.0431 47.6795 52.0431 49.2304C52.0431 50.7813 50.7815 52.0429 49.2306 52.0429ZM51.0389 44.9072C50.4821 44.6734 49.8715 44.5429 49.2306 44.5429C46.6452 44.5429 44.5431 46.6459 44.5431 49.2304C44.5431 49.8719 44.6738 50.4832 44.9081 51.0406C40.8004 52.9277 35.3789 52.8969 29.6203 50.9496C34.0199 48.8064 38.2664 45.7505 42.0089 42.0087C45.7498 38.2679 48.8057 34.0225 50.9487 29.6206C52.8952 35.381 52.9259 40.8001 51.0389 44.9072ZM49.2306 2.26203C50.7815 2.26203 52.0431 3.52363 52.0431 5.07453C52.0431 6.62544 50.7815 7.88703 49.2306 7.88703C47.6797 7.88703 46.4181 6.62544 46.4181 5.07453C46.4181 3.52363 47.6797 2.26203 49.2306 2.26203ZM44.908 3.26477C44.6738 3.82198 44.5431 4.43321 44.5431 5.07453C44.5431 7.65907 46.6452 9.76203 49.2306 9.76203C49.8715 9.76203 50.4821 9.63157 51.0389 9.39777C52.9259 13.5048 52.8951 18.9239 50.9486 24.6831C48.8055 20.2825 45.7498 16.0371 42.0089 12.2962C38.2665 8.55457 34.0203 5.49877 29.6195 3.35563C35.3787 1.40968 40.7994 1.37912 44.908 3.26477ZM5.07382 2.26203C6.62473 2.26203 7.88632 3.52363 7.88632 5.07453C7.88632 6.62544 6.62473 7.88703 5.07382 7.88703C3.52292 7.88703 2.26132 6.62544 2.26132 5.07453C2.26132 3.52363 3.52292 2.26203 5.07382 2.26203ZM3.26348 9.39697C3.82092 9.63134 4.43227 9.76203 5.07382 9.76203C7.65836 9.76203 9.76132 7.65907 9.76132 5.07453C9.76132 4.43309 9.63063 3.82175 9.39637 3.26442C13.504 1.37969 18.9231 1.40933 24.6825 3.35563C20.2816 5.49888 16.0357 8.55525 12.2955 12.2962C8.55454 16.0364 5.49817 20.2824 3.35492 24.6844C1.40828 18.9237 1.3775 13.504 3.26348 9.39697ZM3.35492 29.6218C5.49817 34.0226 8.55454 38.2686 12.2955 42.0087C16.0358 45.7498 20.282 48.8063 24.6842 50.9497C18.9231 52.8972 13.5022 52.9271 9.39614 51.041C9.63052 50.4835 9.76132 49.8721 9.76132 49.2304C9.76132 46.6459 7.65836 44.5429 5.07382 44.5429C4.43227 44.5429 3.82092 44.6736 3.26348 44.908C1.3775 40.8009 1.40828 35.3812 3.35492 29.6218Z" fill="white"/>
<path d="M27.1517 40.5908C27.6695 40.5908 28.0892 40.1711 28.0892 39.6533C28.0892 39.1356 27.6695 38.7158 27.1517 38.7158C26.634 38.7158 26.2142 39.1356 26.2142 39.6533C26.2142 40.1711 26.634 40.5908 27.1517 40.5908Z" fill="white"/>
</svg>
