<svg width="69" height="60" viewBox="0 0 69 60" fill="none" xmlns="http://www.w3.org/2000/svg">
<path d="M66.2879 15.8333C67.6299 15.8333 68.7229 14.7403 68.7229 13.3983V2.43506C68.7229 1.09307 67.6299 0 66.2879 0H19.7835C18.4416 0 17.3485 1.09307 17.3485 2.43506V13.3983C17.3485 14.7403 18.4416 15.8333 19.7835 15.8333H20.974V19.145H19.7835C18.4416 19.145 17.3485 20.2381 17.3485 21.5801V28.8961C11.8074 29.1775 7.37013 33.6905 7.24026 39.2749C2.94372 40.7251 0 44.7836 0 49.3507C0 55.2165 4.77273 60 10.6493 60C13.0087 60 15.303 59.21 17.1645 57.7597C19.026 59.21 21.3203 60 23.6796 60C26.2554 60 28.6905 59.0909 30.6169 57.4242C32.5433 59.0909 34.9784 60 37.5541 60C41.7424 60 45.368 57.5541 47.0996 54.026H66.2879C67.6299 54.026 68.7229 52.9329 68.7229 51.5909V40.6385C68.7229 39.2965 67.6299 38.2035 66.2879 38.2035H65.0974V34.9784H66.2879C67.6299 34.9784 68.7229 33.8853 68.7229 32.5433V21.5801C68.7229 20.2381 67.6299 19.145 66.2879 19.145H65.0974V15.8333H66.2879ZM18.9719 13.3983V2.43506C18.9719 1.99134 19.3398 1.62338 19.7835 1.62338H66.2879C66.7316 1.62338 67.0996 1.99134 67.0996 2.43506V13.3983C67.0996 13.842 66.7316 14.21 66.2879 14.21H64.2857H21.7857H19.7835C19.329 14.21 18.9719 13.842 18.9719 13.3983ZM37.5541 58.3766C35.1515 58.3766 32.8896 57.4459 31.1905 55.7468C31.0281 55.5844 30.8225 55.5087 30.6169 55.5087C30.4113 55.5087 30.2056 55.5844 30.0433 55.7468C28.3442 57.4459 26.0822 58.3766 23.6796 58.3766C21.4827 58.3766 19.3615 57.5649 17.7056 56.1039C17.4026 55.8333 16.9372 55.8333 16.6342 56.1039C14.9784 57.5758 12.8571 58.3766 10.6602 58.3766C5.68182 58.3766 1.6342 54.329 1.6342 49.3507C1.6342 45.2922 4.37229 41.7208 8.29004 40.6494C8.65801 40.5519 8.8961 40.2164 8.88528 39.8377L8.86364 39.513C8.86364 34.5346 12.9113 30.487 17.8896 30.487C20.6602 30.487 23.2467 31.7424 24.9784 33.9394C25.2489 34.2857 25.7576 34.3507 26.1147 34.0801C27.5541 32.9654 29.2641 32.3701 31.0714 32.3701C35.2922 32.3701 38.8312 35.671 39.1234 39.881C39.145 40.2273 39.3939 40.5303 39.7403 40.6061C43.7662 41.6126 46.5801 45.2056 46.5801 49.3507C46.5693 54.329 42.5216 58.3766 37.5541 58.3766ZM67.0996 40.6385V51.5909C67.0996 52.0346 66.7316 52.4026 66.2879 52.4026H47.7489C48.0411 51.4394 48.2035 50.4113 48.2035 49.3507C48.2035 45.2381 45.8658 41.5909 42.3052 39.8268H64.2965H66.2987C66.7316 39.8268 67.0996 40.1948 67.0996 40.6385ZM63.474 38.2035H40.4978C40.2164 37.0346 39.7186 35.9416 39.0584 34.9784H63.474V38.2035ZM67.0996 21.5801V32.5433C67.0996 32.987 66.7316 33.355 66.2879 33.355H64.632C64.5238 33.3009 64.4048 33.2684 64.2857 33.2684H37.5649C35.8333 31.6991 33.5498 30.7468 31.0606 30.7468C29.145 30.7468 27.316 31.2987 25.7359 32.3485C23.961 30.4004 21.5693 29.1991 18.961 28.9286V21.5801C18.961 21.1364 19.329 20.7684 19.7727 20.7684H21.7749H64.2749H66.277C66.7316 20.7684 67.0996 21.1364 67.0996 21.5801ZM63.474 19.145H22.5974V15.8333H63.474V19.145Z" fill="white"/>
<path d="M22.4242 7.04538C22.868 7.04538 23.2359 6.67741 23.2359 6.23369V4.58867C23.2359 4.14494 22.868 3.77698 22.4242 3.77698C21.9805 3.77698 21.6125 4.14494 21.6125 4.58867V6.23369C21.6125 6.68823 21.9805 7.04538 22.4242 7.04538Z" fill="white"/>
<path d="M26.1471 7.04538C26.5909 7.04538 26.9588 6.67741 26.9588 6.23369V4.58867C26.9588 4.14494 26.5909 3.77698 26.1471 3.77698C25.7034 3.77698 25.3354 4.14494 25.3354 4.58867V6.23369C25.3354 6.68823 25.7034 7.04538 26.1471 7.04538Z" fill="white"/>
<path d="M29.8702 7.04538C30.3139 7.04538 30.6818 6.67741 30.6818 6.23369V4.58867C30.6818 4.14494 30.3139 3.77698 29.8702 3.77698C29.4264 3.77698 29.0585 4.14494 29.0585 4.58867V6.23369C29.0585 6.68823 29.4264 7.04538 29.8702 7.04538Z" fill="white"/>
<path d="M33.5931 7.04538C34.0368 7.04538 34.4047 6.67741 34.4047 6.23369V4.58867C34.4047 4.14494 34.0368 3.77698 33.5931 3.77698C33.1493 3.77698 32.7814 4.14494 32.7814 4.58867V6.23369C32.7814 6.68823 33.1493 7.04538 33.5931 7.04538Z" fill="white"/>
<path d="M22.4242 12.0562C22.868 12.0562 23.2359 11.6883 23.2359 11.2446V9.59953C23.2359 9.15581 22.868 8.78784 22.4242 8.78784C21.9805 8.78784 21.6125 9.15581 21.6125 9.59953V11.2446C21.6125 11.6883 21.9805 12.0562 22.4242 12.0562Z" fill="white"/>
<path d="M26.1471 12.0562C26.5909 12.0562 26.9588 11.6883 26.9588 11.2446V9.59953C26.9588 9.15581 26.5909 8.78784 26.1471 8.78784C25.7034 8.78784 25.3354 9.15581 25.3354 9.59953V11.2446C25.3354 11.6883 25.7034 12.0562 26.1471 12.0562Z" fill="white"/>
<path d="M29.8702 12.0562C30.3139 12.0562 30.6818 11.6883 30.6818 11.2446V9.59953C30.6818 9.15581 30.3139 8.78784 29.8702 8.78784C29.4264 8.78784 29.0585 9.15581 29.0585 9.59953V11.2446C29.0585 11.6883 29.4264 12.0562 29.8702 12.0562Z" fill="white"/>
<path d="M33.5931 12.0562C34.0368 12.0562 34.4047 11.6883 34.4047 11.2446V9.59953C34.4047 9.15581 34.0368 8.78784 33.5931 8.78784C33.1493 8.78784 32.7814 9.15581 32.7814 9.59953V11.2446C32.7814 11.6883 33.1493 12.0562 33.5931 12.0562Z" fill="white"/>
<path d="M61.3311 11.212C63.0519 11.212 64.448 9.81593 64.448 8.09515C64.448 6.37438 63.0519 4.97827 61.3311 4.97827C59.6103 4.97827 58.2142 6.37438 58.2142 8.09515C58.2142 9.80511 59.6212 11.212 61.3311 11.212ZM61.3311 6.60165C62.1536 6.60165 62.8246 7.27264 62.8246 8.09515C62.8246 8.91767 62.1536 9.58866 61.3311 9.58866C60.5086 9.58866 59.8376 8.91767 59.8376 8.09515C59.8376 7.27264 60.5086 6.60165 61.3311 6.60165Z" fill="white"/>
<path d="M52.5866 11.212C54.3074 11.212 55.7035 9.81593 55.7035 8.09515C55.7035 6.37438 54.3074 4.97827 52.5866 4.97827C50.8658 4.97827 49.4697 6.37438 49.4697 8.09515C49.4697 9.80511 50.8767 11.212 52.5866 11.212ZM52.5866 6.60165C53.4091 6.60165 54.0801 7.27264 54.0801 8.09515C54.0801 8.91767 53.4091 9.58866 52.5866 9.58866C51.7641 9.58866 51.0931 8.91767 51.0931 8.09515C51.0931 7.27264 51.7641 6.60165 52.5866 6.60165Z" fill="white"/>
<path d="M38.474 8.73373H46.0173C46.4611 8.73373 46.829 8.36576 46.829 7.92204C46.829 7.47832 46.4611 7.11035 46.0173 7.11035H38.474C38.0303 7.11035 37.6624 7.47832 37.6624 7.92204C37.6624 8.36576 38.0303 8.73373 38.474 8.73373Z" fill="white"/>
<path d="M22.4242 22.922C21.9805 22.922 21.6125 23.29 21.6125 23.7337V25.3787C21.6125 25.8224 21.9805 26.1904 22.4242 26.1904C22.868 26.1904 23.2359 25.8224 23.2359 25.3787V23.7337C23.2359 23.29 22.8788 22.922 22.4242 22.922Z" fill="white"/>
<path d="M26.1471 22.922C25.7034 22.922 25.3354 23.29 25.3354 23.7337V25.3787C25.3354 25.8224 25.7034 26.1904 26.1471 26.1904C26.5909 26.1904 26.9588 25.8224 26.9588 25.3787V23.7337C26.9588 23.29 26.6017 22.922 26.1471 22.922Z" fill="white"/>
<path d="M29.8702 22.922C29.4264 22.922 29.0585 23.29 29.0585 23.7337V25.3787C29.0585 25.8224 29.4264 26.1904 29.8702 26.1904C30.3139 26.1904 30.6818 25.8224 30.6818 25.3787V23.7337C30.6818 23.29 30.3247 22.922 29.8702 22.922Z" fill="white"/>
<path d="M33.5931 22.922C33.1493 22.922 32.7814 23.29 32.7814 23.7337V25.3787C32.7814 25.8224 33.1493 26.1904 33.5931 26.1904C34.0368 26.1904 34.4047 25.8224 34.4047 25.3787V23.7337C34.4047 23.29 34.0476 22.922 33.5931 22.922Z" fill="white"/>
<path d="M61.3311 24.1233C59.6103 24.1233 58.2142 25.5194 58.2142 27.2402C58.2142 28.961 59.6103 30.3571 61.3311 30.3571C63.0519 30.3571 64.448 28.961 64.448 27.2402C64.448 25.5194 63.0519 24.1233 61.3311 24.1233ZM61.3311 28.7229C60.5086 28.7229 59.8376 28.0519 59.8376 27.2294C59.8376 26.4068 60.5086 25.7358 61.3311 25.7358C62.1536 25.7358 62.8246 26.4068 62.8246 27.2294C62.8246 28.0519 62.1536 28.7229 61.3311 28.7229Z" fill="white"/>
<path d="M52.5866 24.1233C50.8658 24.1233 49.4697 25.5194 49.4697 27.2402C49.4697 28.961 50.8658 30.3571 52.5866 30.3571C54.3074 30.3571 55.7035 28.961 55.7035 27.2402C55.7035 25.5194 54.3074 24.1233 52.5866 24.1233ZM52.5866 28.7229C51.7641 28.7229 51.0931 28.0519 51.0931 27.2294C51.0931 26.4068 51.7641 25.7358 52.5866 25.7358C53.4091 25.7358 54.0801 26.4068 54.0801 27.2294C54.0801 28.0519 53.4091 28.7229 52.5866 28.7229Z" fill="white"/>
<path d="M46.0282 26.2446H38.474C38.0303 26.2446 37.6624 26.6126 37.6624 27.0563C37.6624 27.5 38.0303 27.868 38.474 27.868H46.0173C46.4611 27.868 46.829 27.5 46.829 27.0563C46.829 26.6126 46.4719 26.2446 46.0282 26.2446Z" fill="white"/>
<path d="M61.3311 43.171C59.6103 43.171 58.2142 44.5671 58.2142 46.2879C58.2142 48.0087 59.6103 49.4048 61.3311 49.4048C63.0519 49.4048 64.448 48.0087 64.448 46.2879C64.448 44.5671 63.0519 43.171 61.3311 43.171ZM61.3311 47.7814C60.5086 47.7814 59.8376 47.1104 59.8376 46.2879C59.8376 45.4654 60.5086 44.7944 61.3311 44.7944C62.1536 44.7944 62.8246 45.4654 62.8246 46.2879C62.8246 47.1104 62.1536 47.7814 61.3311 47.7814Z" fill="white"/>
<path d="M52.5866 43.171C50.8658 43.171 49.4697 44.5671 49.4697 46.2879C49.4697 48.0087 50.8658 49.4048 52.5866 49.4048C54.3074 49.4048 55.7035 48.0087 55.7035 46.2879C55.7035 44.5671 54.3074 43.171 52.5866 43.171ZM52.5866 47.7814C51.7641 47.7814 51.0931 47.1104 51.0931 46.2879C51.0931 45.4654 51.7641 44.7944 52.5866 44.7944C53.4091 44.7944 54.0801 45.4654 54.0801 46.2879C54.0801 47.1104 53.4091 47.7814 52.5866 47.7814Z" fill="white"/>
<path d="M33.7878 46.5259C32.9436 46.5259 32.251 45.8333 32.251 44.9892C32.251 44.145 32.9436 43.4524 33.7878 43.4524C34.5021 43.4524 35.1298 43.961 35.2921 44.6537C35.3895 45.0974 35.8332 45.3679 36.2661 45.2705C36.699 45.1731 36.9804 44.7402 36.883 44.2965C36.5583 42.8463 35.2921 41.829 33.7986 41.829C32.0562 41.829 30.6384 43.2467 30.6384 44.9892C30.6384 46.7316 32.0562 48.1493 33.7986 48.1493C34.6428 48.1493 35.3354 48.842 35.3354 49.6861C35.3354 50.5303 34.6428 51.2229 33.7986 51.2229C33.041 51.2229 32.3917 50.6601 32.2834 49.9242C32.2185 49.4805 31.7964 49.1775 31.3635 49.2424C30.9198 49.3073 30.6168 49.7294 30.6817 50.1623C30.9198 51.6883 32.2618 52.8463 33.8094 52.8463C35.5518 52.8463 36.9696 51.4285 36.9696 49.6861C36.9588 47.9437 35.541 46.5259 33.7878 46.5259Z" fill="white"/>
<path d="M19.4481 42.1213C19.026 41.9589 18.5607 42.1645 18.3983 42.5866L15.6061 49.7944L12.8139 42.5866C12.6516 42.1645 12.1862 41.9589 11.7641 42.1213C11.342 42.2836 11.1364 42.749 11.2987 43.171L14.8485 52.3269C14.9676 52.6407 15.2706 52.8464 15.6061 52.8464C15.9416 52.8464 16.2446 52.6407 16.3637 52.3269L19.9135 43.171C20.0758 42.7598 19.8702 42.2836 19.4481 42.1213Z" fill="white"/>
<path d="M25.7576 41.829H22.9978C22.5541 41.829 22.1862 42.1969 22.1862 42.6407V42.8896V46.9697V52.0454C22.1862 52.4892 22.5541 52.8571 22.9978 52.8571C23.4416 52.8571 23.8095 52.4892 23.8095 52.0454V47.7814H25.7576C27.4026 47.7814 28.7338 46.4502 28.7338 44.8052C28.7338 43.1601 27.4026 41.829 25.7576 41.829ZM25.7576 46.1472H23.8095V43.4415H25.7576C26.5043 43.4415 27.1104 44.0476 27.1104 44.7943C27.1104 45.5411 26.5043 46.1472 25.7576 46.1472Z" fill="white"/>
<path d="M21.7748 33.2035C17.2618 31.7316 14.6212 33.355 13.2034 34.9676C12.9112 35.3031 12.9437 35.8225 13.2792 36.1147C13.4307 36.2554 13.6255 36.3204 13.8095 36.3204C14.0367 36.3204 14.264 36.223 14.4155 36.039C16.0064 34.2208 18.3116 33.7879 21.2662 34.7511C21.6883 34.8918 22.1536 34.6537 22.2835 34.2316C22.435 33.8095 22.2077 33.3442 21.7748 33.2035Z" fill="white"/>
<path d="M12.0021 39.3722C12.0671 39.3831 12.1212 39.3939 12.1861 39.3939C12.5541 39.3939 12.8896 39.145 12.9761 38.7662C12.987 38.7445 13.0519 38.4523 13.2142 38.0411C13.3766 37.6298 13.1818 37.1536 12.7597 36.9913C12.3484 36.8181 11.8723 37.0237 11.7099 37.4458C11.4935 37.9978 11.4069 38.3657 11.3961 38.409C11.2987 38.8419 11.5692 39.2748 12.0021 39.3722Z" fill="white"/>
</svg>
