<svg width="60" height="60" viewBox="0 0 60 60" fill="none" xmlns="http://www.w3.org/2000/svg">
<path d="M12.4609 6.32812H6.04172C2.71031 6.32812 0 9.03844 0 12.3697V43.8802C0 46.2238 1.37414 48.3757 3.50051 49.3627C3.66012 49.4368 3.82793 49.4719 3.99305 49.4719C4.43508 49.4719 4.85848 49.2205 5.05676 48.7931C5.32922 48.206 5.07422 47.5092 4.48723 47.2369C3.18516 46.6324 2.34375 45.315 2.34375 43.88V12.3697C2.34375 10.3307 4.00266 8.67176 6.04172 8.67176H12.4609C13.108 8.67176 13.6328 8.14699 13.6328 7.49988C13.6328 6.85277 13.108 6.32812 12.4609 6.32812Z" fill="white"/>
<path d="M53.9583 6.32812H43.9179C43.8344 2.82469 40.9606 0 37.4376 0H22.5625C18.987 0 16.0781 2.90883 16.0781 6.48434V13.2032H8.04693C7.39982 13.2032 6.87506 13.7279 6.87506 14.375C6.87506 15.0221 7.39982 15.5469 8.04693 15.5469H16.0781V19.2969H8.04693C7.39982 19.2969 6.87506 19.8217 6.87506 20.4688C6.87506 21.1159 7.39982 21.6407 8.04693 21.6407H16.0781V25.3907H8.04693C7.39982 25.3907 6.87506 25.9154 6.87506 26.5625C6.87506 27.2096 7.39982 27.7344 8.04693 27.7344H16.0781V31.4844H8.04693C7.39982 31.4844 6.87506 32.0092 6.87506 32.6563C6.87506 33.3034 7.39982 33.8282 8.04693 33.8282H16.0781V40.1694C12.6931 40.5266 10.0464 43.3963 10.0464 46.8725C10.0464 47.0559 10.054 47.2399 10.0692 47.4236C7.99818 48.6166 6.70361 50.8179 6.70361 53.2588C6.70361 56.9759 9.72928 59.9999 13.4483 59.9999H44.3476C49.2818 59.9999 53.2962 55.9879 53.2962 51.0562C53.2962 46.1246 49.2818 42.1126 44.3476 42.1126C43.8531 42.1126 43.3622 42.1528 42.8788 42.2326C41.7946 38.7696 39.2751 35.8496 35.9623 34.2825C35.3769 34.0056 34.6786 34.2557 34.4018 34.8408C34.1251 35.4258 34.375 36.1245 34.9601 36.4012C37.6776 37.6868 39.7445 40.0798 40.6367 42.9176C39.8574 43.2736 39.1269 43.7414 38.4797 44.3037C37.6827 44.996 37.0204 45.8143 36.5108 46.7357C36.1977 47.3021 36.403 48.0151 36.9694 48.3284C37.1492 48.4277 37.3436 48.4748 37.5354 48.4748C37.948 48.4748 38.3483 48.2564 38.5621 47.8698C38.9383 47.1893 39.4278 46.5848 40.0167 46.0731C40.7686 45.42 41.6713 44.9391 42.6273 44.6822C43.1853 44.5323 43.7628 44.4564 44.3476 44.4564C47.9896 44.4564 50.9524 47.4171 50.9524 51.0562C50.9524 54.6954 47.9897 57.6562 44.3478 57.6562H13.4485C11.0217 57.6562 9.04748 55.6836 9.04748 53.2589C9.04748 51.46 10.1261 49.8602 11.7955 49.1835C12.3267 48.968 12.6242 48.3998 12.4985 47.8405C12.4267 47.5206 12.3901 47.1948 12.3901 46.8727C12.3901 44.4479 14.3644 42.4753 16.7911 42.4753C17.4611 42.4753 18.104 42.6216 18.702 42.9102C18.9971 43.0526 19.3382 43.0648 19.6426 42.9443C19.9473 42.8237 20.1873 42.581 20.305 42.2753C21.3274 39.6165 23.4109 37.4319 26.0212 36.2818C26.6134 36.0209 26.882 35.3292 26.621 34.7368C26.3601 34.1447 25.6687 33.876 25.076 34.137C22.2537 35.3804 19.937 37.6178 18.5821 40.3712C18.5289 40.3566 18.4753 40.3433 18.4218 40.33V6.48434C18.4219 4.20129 20.2794 2.34375 22.5625 2.34375H37.4376C39.7206 2.34375 41.5781 4.20129 41.5781 6.48434V35.2748C41.5781 35.922 42.1029 36.4467 42.75 36.4467C43.3971 36.4467 43.9219 35.922 43.9219 35.2748V33.8282H51.9531C52.6002 33.8282 53.125 33.3034 53.125 32.6563C53.125 32.0092 52.6002 31.4844 51.9531 31.4844H43.9219V27.7344H51.9531C52.6002 27.7344 53.125 27.2096 53.125 26.5625C53.125 25.9154 52.6002 25.3907 51.9531 25.3907H43.9219V21.6407H51.9531C52.6002 21.6407 53.125 21.1159 53.125 20.4688C53.125 19.8217 52.6002 19.2969 51.9531 19.2969H43.9219V15.5469H51.9531C52.6002 15.5469 53.125 15.0221 53.125 14.375C53.125 13.7279 52.6002 13.2032 51.9531 13.2032H43.9219V8.67188H53.9584C55.9974 8.67188 57.6563 10.3308 57.6563 12.3698V43.8803C57.6563 44.7831 57.3274 45.6523 56.7305 46.3279C56.3019 46.8128 56.3475 47.5534 56.8326 47.982C57.0554 48.1789 57.3324 48.2757 57.6081 48.2757C57.9324 48.2757 58.2551 48.1419 58.4867 47.8799C59.4626 46.7756 60 45.3552 60 43.8803V12.3697C60 9.03844 57.2897 6.32812 53.9583 6.32812Z" fill="white"/>
<path d="M35.1562 7.5H24.8438C24.1966 7.5 23.6719 8.02477 23.6719 8.67188C23.6719 9.31898 24.1966 9.84375 24.8438 9.84375H35.1562C35.8034 9.84375 36.3281 9.31898 36.3281 8.67188C36.3281 8.02465 35.8034 7.5 35.1562 7.5Z" fill="white"/>
<path d="M35.1562 19.6875H24.8438C24.1966 19.6875 23.6719 20.2123 23.6719 20.8594C23.6719 21.5065 24.1966 22.0312 24.8438 22.0312H35.1562C35.8034 22.0312 36.3281 21.5065 36.3281 20.8594C36.3281 20.2121 35.8034 19.6875 35.1562 19.6875Z" fill="white"/>
<path d="M35.1562 13.5938H24.8438C24.1966 13.5938 23.6719 14.1185 23.6719 14.7656C23.6719 15.4127 24.1966 15.9375 24.8438 15.9375H35.1562C35.8034 15.9375 36.3281 15.4127 36.3281 14.7656C36.3281 14.1184 35.8034 13.5938 35.1562 13.5938Z" fill="white"/>
<path d="M35.1562 25.7812H24.8438C24.1966 25.7812 23.6719 26.306 23.6719 26.9531C23.6719 27.6002 24.1966 28.125 24.8438 28.125H35.1562C35.8034 28.125 36.3281 27.6002 36.3281 26.9531C36.3281 26.3059 35.8034 25.7812 35.1562 25.7812Z" fill="white"/>
<path d="M30.4035 33.0289C30.3918 33.0289 30.38 33.0291 30.3685 33.0293L30.3597 33.029C29.7126 33.029 29.1879 33.5538 29.1879 34.2009C29.1879 34.848 29.7126 35.3728 30.3597 35.3728C30.3654 35.3728 30.371 35.3728 30.3765 35.3727L30.3889 35.3728C30.3914 35.3728 30.3938 35.3728 30.3963 35.3728C31.04 35.3728 31.564 34.853 31.5681 34.2082C31.572 33.5611 31.0508 33.0331 30.4035 33.0289Z" fill="white"/>
<path d="M36.1362 50.7239C35.4891 50.7239 34.9644 51.2486 34.9644 51.8958V51.914C34.9644 52.5611 35.4891 53.0859 36.1362 53.0859C36.7833 53.0859 37.3081 52.5611 37.3081 51.914V51.8958C37.3081 51.2485 36.7833 50.7239 36.1362 50.7239Z" fill="white"/>
<path d="M12.8279 36.5188C10.9994 36.5188 9.51196 38.0063 9.51196 39.8347C9.51196 40.4818 10.0367 41.0066 10.6838 41.0066C11.3309 41.0066 11.8557 40.4818 11.8557 39.8347C11.8557 39.2987 12.2919 38.8625 12.8279 38.8625C13.475 38.8625 13.9998 38.3378 13.9998 37.6907C13.9998 37.0434 13.475 36.5188 12.8279 36.5188Z" fill="white"/>
<path d="M47.1228 36.5188C46.4757 36.5188 45.9509 37.0434 45.9509 37.6907C45.9509 38.3378 46.4757 38.8625 47.1228 38.8625C47.6588 38.8625 48.095 39.2987 48.095 39.8347C48.095 40.4818 48.6198 41.0066 49.2669 41.0066C49.914 41.0066 50.4387 40.4818 50.4387 39.8347C50.4387 38.0063 48.9513 36.5188 47.1228 36.5188Z" fill="white"/>
</svg>
