<svg width="157" height="137" viewBox="0 0 157 137" fill="none" xmlns="http://www.w3.org/2000/svg">
<circle cx="89.4325" cy="77.8187" r="16.1405" fill="#033AA7"/>
<path d="M0.682943 77.2808C0.682943 78.7535 1.87685 79.9474 3.34961 79.9474C4.82237 79.9474 6.01628 78.7535 6.01628 77.2808C6.01628 75.808 4.82237 74.6141 3.34961 74.6141C1.87685 74.6141 0.682943 75.808 0.682943 77.2808ZM151.327 77.2808C151.327 78.7535 152.521 79.9474 153.994 79.9474C155.467 79.9474 156.661 78.7535 156.661 77.2808C156.661 75.808 155.467 74.6141 153.994 74.6141C152.521 74.6141 151.327 75.808 151.327 77.2808ZM3.34961 77.7808H153.994V76.7808H3.34961V77.7808Z" fill="#033AA7"/>
<path d="M0.682943 77.2808C0.682943 78.7535 1.87685 79.9474 3.34961 79.9474C4.82237 79.9474 6.01628 78.7535 6.01628 77.2808C6.01628 75.808 4.82237 74.6141 3.34961 74.6141C1.87685 74.6141 0.682943 75.808 0.682943 77.2808ZM151.327 77.2808C151.327 78.7535 152.521 79.9474 153.994 79.9474C155.467 79.9474 156.661 78.7535 156.661 77.2808C156.661 75.808 155.467 74.6141 153.994 74.6141C152.521 74.6141 151.327 75.808 151.327 77.2808ZM3.34961 77.7808H153.994V76.7808H3.34961V77.7808Z" fill="#033AA7"/>
<path d="M45.5231 0.690599C44.2477 1.42698 43.8107 3.05789 44.547 4.33333C45.2834 5.60878 46.9143 6.04578 48.1898 5.3094C49.4652 4.57302 49.9022 2.94211 49.1658 1.66667C48.4295 0.39122 46.7986 -0.0457809 45.5231 0.690599ZM120.845 131.153C119.57 131.889 119.133 133.52 119.869 134.795C120.606 136.071 122.237 136.508 123.512 135.771C124.787 135.035 125.224 133.404 124.488 132.129C123.752 130.853 122.121 130.416 120.845 131.153ZM46.4234 3.25L121.746 133.712L122.612 133.212L47.2895 2.75L46.4234 3.25Z" fill="#033AA7"/>
<path d="M134.272 1.22868C132.996 0.492305 131.365 0.929305 130.629 2.20475C129.893 3.4802 130.33 5.11111 131.605 5.84749C132.881 6.58387 134.511 6.14687 135.248 4.87142C135.984 3.59597 135.547 1.96506 134.272 1.22868ZM58.9495 131.691C57.6741 130.954 56.0432 131.391 55.3068 132.667C54.5704 133.942 55.0074 135.573 56.2829 136.309C57.5583 137.046 59.1892 136.609 59.9256 135.333C60.662 134.058 60.225 132.427 58.9495 131.691ZM132.505 3.28809L57.1832 133.75L58.0492 134.25L133.371 3.78809L132.505 3.28809Z" fill="#033AA7"/>
</svg>
