<svg width="73" height="64" viewBox="0 0 73 64" fill="none" xmlns="http://www.w3.org/2000/svg">
<path d="M0.333333 35.9138C0.333333 37.3866 1.52724 38.5805 3 38.5805C4.47276 38.5805 5.66667 37.3866 5.66667 35.9138C5.66667 34.4411 4.47276 33.2472 3 33.2472C1.52724 33.2472 0.333333 34.4411 0.333333 35.9138ZM67.084 35.9138C67.084 37.3866 68.2779 38.5805 69.7506 38.5805C71.2234 38.5805 72.4173 37.3866 72.4173 35.9138C72.4173 34.4411 71.2234 33.2472 69.7506 33.2472C68.2779 33.2472 67.084 34.4411 67.084 35.9138ZM3 36.4138H69.7506V35.4138H3V36.4138Z" fill="white"/>
<path d="M0.333333 35.9138C0.333333 37.3866 1.52724 38.5805 3 38.5805C4.47276 38.5805 5.66667 37.3866 5.66667 35.9138C5.66667 34.4411 4.47276 33.2472 3 33.2472C1.52724 33.2472 0.333333 34.4411 0.333333 35.9138ZM67.084 35.9138C67.084 37.3866 68.2779 38.5805 69.7506 38.5805C71.2234 38.5805 72.4173 37.3866 72.4173 35.9138C72.4173 34.4411 71.2234 33.2472 69.7506 33.2472C68.2779 33.2472 67.084 34.4411 67.084 35.9138ZM3 36.4138H69.7506V35.4138H3V36.4138Z" fill="white"/>
<path d="M20.945 0.690599C19.6695 1.42698 19.2325 3.05789 19.9689 4.33333C20.7053 5.60878 22.3362 6.04578 23.6117 5.3094C24.8871 4.57302 25.3241 2.94211 24.5877 1.66667C23.8513 0.39122 22.2204 -0.0457809 20.945 0.690599ZM54.3203 58.4983C53.0449 59.2347 52.6078 60.8656 53.3442 62.1411C54.0806 63.4165 55.7115 63.8535 56.987 63.1171C58.2624 62.3808 58.6994 60.7499 57.963 59.4744C57.2267 58.199 55.5957 57.762 54.3203 58.4983ZM21.8453 3.25L55.2206 61.0577L56.0866 60.5577L22.7113 2.75L21.8453 3.25Z" fill="white"/>
<path d="M61.7542 0.929124C60.4788 0.192745 58.8479 0.629745 58.1115 1.90519C57.3751 3.18064 57.8121 4.81155 59.0876 5.54793C60.363 6.28431 61.9939 5.84731 62.7303 4.57186C63.4667 3.29641 63.0297 1.6655 61.7542 0.929124ZM28.3789 58.7369C27.1035 58.0005 25.4726 58.4375 24.7362 59.7129C23.9998 60.9884 24.4368 62.6193 25.7122 63.3557C26.9877 64.092 28.6186 63.655 29.355 62.3796C30.0914 61.1041 29.6544 59.4732 28.3789 58.7369ZM59.9879 2.98853L26.6126 60.7963L27.4786 61.2963L60.8539 3.48853L59.9879 2.98853Z" fill="white"/>
</svg>
