<svg width="30" height="30" viewBox="0 0 30 30" fill="none" xmlns="http://www.w3.org/2000/svg">
<path d="M24.375 20.625C23.7129 20.6282 23.0643 20.8131 22.5 21.1594L19.6031 18.2531C20.2772 17.3023 20.6392 16.1655 20.6392 15C20.6392 13.8345 20.2772 12.6977 19.6031 11.7469L22.5 8.84063C23.0643 9.18693 23.7129 9.37177 24.375 9.375C25.1167 9.375 25.8417 9.15507 26.4584 8.74301C27.0751 8.33096 27.5557 7.74529 27.8396 7.06006C28.1234 6.37484 28.1976 5.62084 28.0529 4.89341C27.9083 4.16598 27.5511 3.4978 27.0267 2.97335C26.5022 2.4489 25.834 2.09175 25.1066 1.94706C24.3792 1.80236 23.6252 1.87662 22.9399 2.16045C22.2547 2.44428 21.669 2.92493 21.257 3.54161C20.8449 4.1583 20.625 4.88332 20.625 5.625C20.6282 6.28712 20.8131 6.93566 21.1594 7.5L18.2531 10.3969C17.3023 9.72281 16.1655 9.36076 15 9.36076C13.8345 9.36076 12.6977 9.72281 11.7469 10.3969L8.84063 7.5C9.18693 6.93566 9.37177 6.28712 9.375 5.625C9.375 4.88332 9.15507 4.1583 8.74301 3.54161C8.33096 2.92493 7.74529 2.44428 7.06006 2.16045C6.37484 1.87662 5.62084 1.80236 4.89341 1.94706C4.16598 2.09175 3.4978 2.4489 2.97335 2.97335C2.4489 3.4978 2.09175 4.16598 1.94706 4.89341C1.80236 5.62084 1.87662 6.37484 2.16045 7.06006C2.44428 7.74529 2.92493 8.33096 3.54161 8.74301C4.1583 9.15507 4.88332 9.375 5.625 9.375C6.28712 9.37177 6.93566 9.18693 7.5 8.84063L10.3969 11.7469C9.72281 12.6977 9.36075 13.8345 9.36075 15C9.36075 16.1655 9.72281 17.3023 10.3969 18.2531L7.5 21.1594C6.93566 20.8131 6.28712 20.6282 5.625 20.625C4.88332 20.625 4.1583 20.8449 3.54161 21.257C2.92493 21.669 2.44428 22.2547 2.16045 22.9399C1.87662 23.6252 1.80236 24.3792 1.94706 25.1066C2.09175 25.834 2.4489 26.5022 2.97335 27.0267C3.4978 27.5511 4.16598 27.9083 4.89341 28.0529C5.62084 28.1976 6.37484 28.1234 7.06006 27.8396C7.74529 27.5557 8.33096 27.0751 8.74301 26.4584C9.15507 25.8417 9.375 25.1167 9.375 24.375C9.37177 23.7129 9.18693 23.0643 8.84063 22.5L11.7469 19.6031C12.6977 20.2772 13.8345 20.6392 15 20.6392C16.1655 20.6392 17.3023 20.2772 18.2531 19.6031L21.1594 22.5C20.8131 23.0643 20.6282 23.7129 20.625 24.375C20.625 25.1167 20.8449 25.8417 21.257 26.4584C21.669 27.0751 22.2547 27.5557 22.9399 27.8396C23.6252 28.1234 24.3792 28.1976 25.1066 28.0529C25.834 27.9083 26.5022 27.5511 27.0267 27.0267C27.5511 26.5022 27.9083 25.834 28.0529 25.1066C28.1976 24.3792 28.1234 23.6252 27.8396 22.9399C27.5557 22.2547 27.0751 21.669 26.4584 21.257C25.8417 20.8449 25.1167 20.625 24.375 20.625ZM24.375 3.75C24.7458 3.75 25.1084 3.85997 25.4167 4.066C25.725 4.27202 25.9654 4.56486 26.1073 4.90747C26.2492 5.25008 26.2863 5.62708 26.214 5.9908C26.1416 6.35451 25.9631 6.6886 25.7008 6.95083C25.4386 7.21305 25.1045 7.39163 24.7408 7.46397C24.3771 7.53632 24.0001 7.49919 23.6575 7.35728C23.3149 7.21536 23.022 6.97504 22.816 6.6667C22.61 6.35835 22.5 5.99584 22.5 5.625C22.5 5.12772 22.6975 4.65081 23.0492 4.29918C23.4008 3.94755 23.8777 3.75 24.375 3.75ZM3.75 5.625C3.75 5.25416 3.85997 4.89165 4.066 4.58331C4.27202 4.27497 4.56486 4.03464 4.90747 3.89273C5.25008 3.75081 5.62708 3.71368 5.9908 3.78603C6.35451 3.85838 6.6886 4.03695 6.95083 4.29918C7.21305 4.5614 7.39163 4.89549 7.46397 5.25921C7.53632 5.62292 7.49919 5.99992 7.35728 6.34253C7.21536 6.68515 6.97504 6.97798 6.6667 7.18401C6.35835 7.39004 5.99584 7.5 5.625 7.5C5.12772 7.5 4.65081 7.30246 4.29918 6.95083C3.94755 6.5992 3.75 6.12228 3.75 5.625ZM5.625 26.25C5.25416 26.25 4.89165 26.14 4.58331 25.934C4.27497 25.728 4.03464 25.4351 3.89273 25.0925C3.75081 24.7499 3.71368 24.3729 3.78603 24.0092C3.85838 23.6455 4.03695 23.3114 4.29918 23.0492C4.5614 22.787 4.89549 22.6084 5.25921 22.536C5.62292 22.4637 5.99992 22.5008 6.34253 22.6427C6.68514 22.7846 6.97798 23.025 7.18401 23.3333C7.39003 23.6417 7.5 24.0042 7.5 24.375C7.5 24.8723 7.30246 25.3492 6.95083 25.7008C6.5992 26.0525 6.12228 26.25 5.625 26.25ZM15 18.75C14.2583 18.75 13.5333 18.5301 12.9166 18.118C12.2999 17.706 11.8193 17.1203 11.5355 16.4351C11.2516 15.7498 11.1774 14.9958 11.3221 14.2684C11.4668 13.541 11.8239 12.8728 12.3484 12.3484C12.8728 11.8239 13.541 11.4668 14.2684 11.3221C14.9958 11.1774 15.7498 11.2516 16.4351 11.5355C17.1203 11.8193 17.706 12.2999 18.118 12.9166C18.5301 13.5333 18.75 14.2583 18.75 15C18.75 15.9946 18.3549 16.9484 17.6517 17.6517C16.9484 18.3549 15.9946 18.75 15 18.75ZM24.375 26.25C24.0042 26.25 23.6416 26.14 23.3333 25.934C23.025 25.728 22.7846 25.4351 22.6427 25.0925C22.5008 24.7499 22.4637 24.3729 22.536 24.0092C22.6084 23.6455 22.787 23.3114 23.0492 23.0492C23.3114 22.787 23.6455 22.6084 24.0092 22.536C24.3729 22.4637 24.7499 22.5008 25.0925 22.6427C25.4351 22.7846 25.728 23.025 25.934 23.3333C26.14 23.6417 26.25 24.0042 26.25 24.375C26.25 24.8723 26.0525 25.3492 25.7008 25.7008C25.3492 26.0525 24.8723 26.25 24.375 26.25Z" fill="white"/>
<path d="M24.375 20.625C23.7129 20.6282 23.0643 20.8131 22.5 21.1594L19.6031 18.2531C20.2772 17.3023 20.6392 16.1655 20.6392 15C20.6392 13.8345 20.2772 12.6977 19.6031 11.7469L22.5 8.84063C23.0643 9.18693 23.7129 9.37177 24.375 9.375C25.1167 9.375 25.8417 9.15507 26.4584 8.74301C27.0751 8.33096 27.5557 7.74529 27.8396 7.06006C28.1234 6.37484 28.1976 5.62084 28.0529 4.89341C27.9083 4.16598 27.5511 3.4978 27.0267 2.97335C26.5022 2.4489 25.834 2.09175 25.1066 1.94706C24.3792 1.80236 23.6252 1.87662 22.9399 2.16045C22.2547 2.44428 21.669 2.92493 21.257 3.54161C20.8449 4.1583 20.625 4.88332 20.625 5.625C20.6282 6.28712 20.8131 6.93566 21.1594 7.5L18.2531 10.3969C17.3023 9.72281 16.1655 9.36076 15 9.36076C13.8345 9.36076 12.6977 9.72281 11.7469 10.3969L8.84063 7.5C9.18693 6.93566 9.37177 6.28712 9.375 5.625C9.375 4.88332 9.15507 4.1583 8.74301 3.54161C8.33096 2.92493 7.74529 2.44428 7.06006 2.16045C6.37484 1.87662 5.62084 1.80236 4.89341 1.94706C4.16598 2.09175 3.4978 2.4489 2.97335 2.97335C2.4489 3.4978 2.09175 4.16598 1.94706 4.89341C1.80236 5.62084 1.87662 6.37484 2.16045 7.06006C2.44428 7.74529 2.92493 8.33096 3.54161 8.74301C4.1583 9.15507 4.88332 9.375 5.625 9.375C6.28712 9.37177 6.93566 9.18693 7.5 8.84063L10.3969 11.7469C9.72281 12.6977 9.36075 13.8345 9.36075 15C9.36075 16.1655 9.72281 17.3023 10.3969 18.2531L7.5 21.1594C6.93566 20.8131 6.28712 20.6282 5.625 20.625C4.88332 20.625 4.1583 20.8449 3.54161 21.257C2.92493 21.669 2.44428 22.2547 2.16045 22.9399C1.87662 23.6252 1.80236 24.3792 1.94706 25.1066C2.09175 25.834 2.4489 26.5022 2.97335 27.0267C3.4978 27.5511 4.16598 27.9083 4.89341 28.0529C5.62084 28.1976 6.37484 28.1234 7.06006 27.8396C7.74529 27.5557 8.33096 27.0751 8.74301 26.4584C9.15507 25.8417 9.375 25.1167 9.375 24.375C9.37177 23.7129 9.18693 23.0643 8.84063 22.5L11.7469 19.6031C12.6977 20.2772 13.8345 20.6392 15 20.6392C16.1655 20.6392 17.3023 20.2772 18.2531 19.6031L21.1594 22.5C20.8131 23.0643 20.6282 23.7129 20.625 24.375C20.625 25.1167 20.8449 25.8417 21.257 26.4584C21.669 27.0751 22.2547 27.5557 22.9399 27.8396C23.6252 28.1234 24.3792 28.1976 25.1066 28.0529C25.834 27.9083 26.5022 27.5511 27.0267 27.0267C27.5511 26.5022 27.9083 25.834 28.0529 25.1066C28.1976 24.3792 28.1234 23.6252 27.8396 22.9399C27.5557 22.2547 27.0751 21.669 26.4584 21.257C25.8417 20.8449 25.1167 20.625 24.375 20.625ZM24.375 3.75C24.7458 3.75 25.1084 3.85997 25.4167 4.066C25.725 4.27202 25.9654 4.56486 26.1073 4.90747C26.2492 5.25008 26.2863 5.62708 26.214 5.9908C26.1416 6.35451 25.9631 6.6886 25.7008 6.95083C25.4386 7.21305 25.1045 7.39163 24.7408 7.46397C24.3771 7.53632 24.0001 7.49919 23.6575 7.35728C23.3149 7.21536 23.022 6.97504 22.816 6.6667C22.61 6.35835 22.5 5.99584 22.5 5.625C22.5 5.12772 22.6975 4.65081 23.0492 4.29918C23.4008 3.94755 23.8777 3.75 24.375 3.75ZM3.75 5.625C3.75 5.25416 3.85997 4.89165 4.066 4.58331C4.27202 4.27497 4.56486 4.03464 4.90747 3.89273C5.25008 3.75081 5.62708 3.71368 5.9908 3.78603C6.35451 3.85838 6.6886 4.03695 6.95083 4.29918C7.21305 4.5614 7.39163 4.89549 7.46397 5.25921C7.53632 5.62292 7.49919 5.99992 7.35728 6.34253C7.21536 6.68515 6.97504 6.97798 6.6667 7.18401C6.35835 7.39004 5.99584 7.5 5.625 7.5C5.12772 7.5 4.65081 7.30246 4.29918 6.95083C3.94755 6.5992 3.75 6.12228 3.75 5.625ZM5.625 26.25C5.25416 26.25 4.89165 26.14 4.58331 25.934C4.27497 25.728 4.03464 25.4351 3.89273 25.0925C3.75081 24.7499 3.71368 24.3729 3.78603 24.0092C3.85838 23.6455 4.03695 23.3114 4.29918 23.0492C4.5614 22.787 4.89549 22.6084 5.25921 22.536C5.62292 22.4637 5.99992 22.5008 6.34253 22.6427C6.68514 22.7846 6.97798 23.025 7.18401 23.3333C7.39003 23.6417 7.5 24.0042 7.5 24.375C7.5 24.8723 7.30246 25.3492 6.95083 25.7008C6.5992 26.0525 6.12228 26.25 5.625 26.25ZM15 18.75C14.2583 18.75 13.5333 18.5301 12.9166 18.118C12.2999 17.706 11.8193 17.1203 11.5355 16.4351C11.2516 15.7498 11.1774 14.9958 11.3221 14.2684C11.4668 13.541 11.8239 12.8728 12.3484 12.3484C12.8728 11.8239 13.541 11.4668 14.2684 11.3221C14.9958 11.1774 15.7498 11.2516 16.4351 11.5355C17.1203 11.8193 17.706 12.2999 18.118 12.9166C18.5301 13.5333 18.75 14.2583 18.75 15C18.75 15.9946 18.3549 16.9484 17.6517 17.6517C16.9484 18.3549 15.9946 18.75 15 18.75ZM24.375 26.25C24.0042 26.25 23.6416 26.14 23.3333 25.934C23.025 25.728 22.7846 25.4351 22.6427 25.0925C22.5008 24.7499 22.4637 24.3729 22.536 24.0092C22.6084 23.6455 22.787 23.3114 23.0492 23.0492C23.3114 22.787 23.6455 22.6084 24.0092 22.536C24.3729 22.4637 24.7499 22.5008 25.0925 22.6427C25.4351 22.7846 25.728 23.025 25.934 23.3333C26.14 23.6417 26.25 24.0042 26.25 24.375C26.25 24.8723 26.0525 25.3492 25.7008 25.7008C25.3492 26.0525 24.8723 26.25 24.375 26.25Z" fill="white"/>
</svg>
