<svg width="57" height="57" viewBox="0 0 57 57" fill="none" xmlns="http://www.w3.org/2000/svg">
<path d="M9.97813 5.70001C7.62118 5.70001 5.70312 7.61806 5.70312 9.97501C5.70312 12.332 7.62118 14.25 9.97813 14.25C12.3351 14.25 14.2531 12.332 14.2531 9.97501C14.2531 7.61806 12.3351 5.70001 9.97813 5.70001ZM9.97813 12.35C8.66903 12.35 7.60313 11.2851 7.60313 9.97501C7.60313 8.66496 8.66903 7.60001 9.97813 7.60001C11.2872 7.60001 12.3531 8.66496 12.3531 9.97501C12.3531 11.2851 11.2872 12.35 9.97813 12.35Z" fill="#2D3C58"/>
<path d="M47.4969 9.49985C48.0215 9.49985 48.4469 9.07452 48.4469 8.54985C48.4469 8.02518 48.0215 7.59985 47.4969 7.59985C46.9722 7.59985 46.5469 8.02518 46.5469 8.54985C46.5469 9.07452 46.9722 9.49985 47.4969 9.49985Z" fill="#2D3C58"/>
<path d="M43.7 9.49998C44.2247 9.49998 44.65 9.07465 44.65 8.54998C44.65 8.02531 44.2247 7.59998 43.7 7.59998C43.1753 7.59998 42.75 8.02531 42.75 8.54998C42.75 9.07465 43.1753 9.49998 43.7 9.49998Z" fill="#2D3C58"/>
<path d="M49.4031 12.35C49.9278 12.35 50.3531 11.9246 50.3531 11.4C50.3531 10.8753 49.9278 10.45 49.4031 10.45C48.8785 10.45 48.4531 10.8753 48.4531 11.4C48.4531 11.9246 48.8785 12.35 49.4031 12.35Z" fill="#2D3C58"/>
<path d="M45.6063 12.3499C46.1309 12.3499 46.5563 11.9246 46.5563 11.3999C46.5563 10.8752 46.1309 10.4499 45.6063 10.4499C45.0816 10.4499 44.6562 10.8752 44.6562 11.3999C44.6562 11.9246 45.0816 12.3499 45.6063 12.3499Z" fill="#2D3C58"/>
<path d="M39.9031 9.49985C40.4278 9.49985 40.8531 9.07452 40.8531 8.54985C40.8531 8.02518 40.4278 7.59985 39.9031 7.59985C39.3785 7.59985 38.9531 8.02518 38.9531 8.54985C38.9531 9.07452 39.3785 9.49985 39.9031 9.49985Z" fill="#2D3C58"/>
<path d="M41.7938 12.3499C42.3184 12.3499 42.7438 11.9246 42.7438 11.3999C42.7438 10.8752 42.3184 10.4499 41.7938 10.4499C41.2691 10.4499 40.8438 10.8752 40.8438 11.3999C40.8438 11.9246 41.2691 12.3499 41.7938 12.3499Z" fill="#2D3C58"/>
<path d="M36.0984 9.49985C36.6231 9.49985 37.0484 9.07452 37.0484 8.54985C37.0484 8.02518 36.6231 7.59985 36.0984 7.59985C35.5738 7.59985 35.1484 8.02518 35.1484 8.54985C35.1484 9.07452 35.5738 9.49985 36.0984 9.49985Z" fill="#2D3C58"/>
<path d="M37.9969 12.35C38.5215 12.35 38.9469 11.9246 38.9469 11.4C38.9469 10.8753 38.5215 10.45 37.9969 10.45C37.4722 10.45 37.0469 10.8753 37.0469 11.4C37.0469 11.9246 37.4722 12.35 37.9969 12.35Z" fill="#2D3C58"/>
<path d="M32.3016 9.49998C32.8262 9.49998 33.2516 9.07465 33.2516 8.54998C33.2516 8.02531 32.8262 7.59998 32.3016 7.59998C31.7769 7.59998 31.3516 8.02531 31.3516 8.54998C31.3516 9.07465 31.7769 9.49998 32.3016 9.49998Z" fill="#2D3C58"/>
<path d="M34.2 12.3499C34.7247 12.3499 35.15 11.9246 35.15 11.3999C35.15 10.8752 34.7247 10.4499 34.2 10.4499C33.6753 10.4499 33.25 10.8752 33.25 11.3999C33.25 11.9246 33.6753 12.3499 34.2 12.3499Z" fill="#2D3C58"/>
<path d="M57 15.5724V4.3776C57 1.96365 55.0363 0 52.6224 0H4.3776C1.96365 0 0 1.96365 0 4.3776V15.5715C0 16.967 0.66785 18.1973 1.68815 18.9991C0.66785 19.8018 0 21.033 0 22.4276V33.6214C0 35.017 0.66785 36.2472 1.68815 37.049C0.66785 37.8518 0 39.083 0 40.4776V51.6714C0 54.0863 1.96365 56.05 4.3776 56.05H52.6214C55.0354 56.05 56.9991 54.0863 56.9991 51.6724V40.4776C56.9991 39.0821 56.3312 37.8518 55.3109 37.05C56.3321 36.2482 57 35.017 57 33.6224V22.4276C57 21.032 56.3321 19.8018 55.3118 19C56.3321 18.1982 57 16.967 57 15.5724ZM55.1 40.4776V51.6714C55.1 53.0375 53.9885 54.1491 52.6224 54.1491H4.3776C3.0115 54.15 1.9 53.0385 1.9 51.6724V40.4776C1.9 39.1115 3.0115 38 4.3776 38H52.6214C53.9885 38 55.1 39.1115 55.1 40.4776ZM55.1 22.4276V33.6214C55.1 34.9875 53.9885 36.099 52.6224 36.099H4.3776C3.0115 36.1 1.9 34.9885 1.9 33.6224V22.4276C1.9 21.0615 3.0115 19.95 4.3776 19.95H52.6214C53.9885 19.95 55.1 21.0615 55.1 22.4276ZM4.3776 18.05C3.0115 18.05 1.9 16.9385 1.9 15.5724V4.3776C1.9 3.0115 3.0115 1.9 4.3776 1.9H52.6214C53.9885 1.9 55.1 3.0115 55.1 4.3776V15.5715C55.1 16.9375 53.9885 18.049 52.6224 18.049L4.3776 18.05Z" fill="#2D3C58"/>
<path d="M9.97813 32.3C12.3351 32.3 14.2531 30.382 14.2531 28.025C14.2531 25.6681 12.3351 23.75 9.97813 23.75C7.62118 23.75 5.70312 25.6681 5.70312 28.025C5.70312 30.382 7.62118 32.3 9.97813 32.3ZM9.97813 25.65C11.2872 25.65 12.3531 26.715 12.3531 28.025C12.3531 29.3351 11.2872 30.4 9.97813 30.4C8.66903 30.4 7.60313 29.3351 7.60313 28.025C7.60313 26.715 8.66903 25.65 9.97813 25.65Z" fill="#2D3C58"/>
<path d="M47.4969 27.55C48.0215 27.55 48.4469 27.1247 48.4469 26.6C48.4469 26.0754 48.0215 25.65 47.4969 25.65C46.9722 25.65 46.5469 26.0754 46.5469 26.6C46.5469 27.1247 46.9722 27.55 47.4969 27.55Z" fill="#2D3C58"/>
<path d="M43.7 27.55C44.2247 27.55 44.65 27.1247 44.65 26.6C44.65 26.0754 44.2247 25.65 43.7 25.65C43.1753 25.65 42.75 26.0754 42.75 26.6C42.75 27.1247 43.1753 27.55 43.7 27.55Z" fill="#2D3C58"/>
<path d="M49.4031 30.4C49.9278 30.4 50.3531 29.9747 50.3531 29.45C50.3531 28.9253 49.9278 28.5 49.4031 28.5C48.8785 28.5 48.4531 28.9253 48.4531 29.45C48.4531 29.9747 48.8785 30.4 49.4031 30.4Z" fill="#2D3C58"/>
<path d="M45.6063 30.4C46.1309 30.4 46.5563 29.9747 46.5563 29.45C46.5563 28.9253 46.1309 28.5 45.6063 28.5C45.0816 28.5 44.6562 28.9253 44.6562 29.45C44.6562 29.9747 45.0816 30.4 45.6063 30.4Z" fill="#2D3C58"/>
<path d="M39.9031 27.55C40.4278 27.55 40.8531 27.1247 40.8531 26.6C40.8531 26.0754 40.4278 25.65 39.9031 25.65C39.3785 25.65 38.9531 26.0754 38.9531 26.6C38.9531 27.1247 39.3785 27.55 39.9031 27.55Z" fill="#2D3C58"/>
<path d="M41.7938 30.4C42.3184 30.4 42.7438 29.9747 42.7438 29.45C42.7438 28.9253 42.3184 28.5 41.7938 28.5C41.2691 28.5 40.8438 28.9253 40.8438 29.45C40.8438 29.9747 41.2691 30.4 41.7938 30.4Z" fill="#2D3C58"/>
<path d="M36.0984 27.55C36.6231 27.55 37.0484 27.1247 37.0484 26.6C37.0484 26.0754 36.6231 25.65 36.0984 25.65C35.5738 25.65 35.1484 26.0754 35.1484 26.6C35.1484 27.1247 35.5738 27.55 36.0984 27.55Z" fill="#2D3C58"/>
<path d="M37.9969 30.4C38.5215 30.4 38.9469 29.9747 38.9469 29.45C38.9469 28.9253 38.5215 28.5 37.9969 28.5C37.4722 28.5 37.0469 28.9253 37.0469 29.45C37.0469 29.9747 37.4722 30.4 37.9969 30.4Z" fill="#2D3C58"/>
<path d="M32.3016 27.55C32.8262 27.55 33.2516 27.1247 33.2516 26.6C33.2516 26.0754 32.8262 25.65 32.3016 25.65C31.7769 25.65 31.3516 26.0754 31.3516 26.6C31.3516 27.1247 31.7769 27.55 32.3016 27.55Z" fill="#2D3C58"/>
<path d="M34.2 30.4C34.7247 30.4 35.15 29.9747 35.15 29.45C35.15 28.9253 34.7247 28.5 34.2 28.5C33.6753 28.5 33.25 28.9253 33.25 29.45C33.25 29.9747 33.6753 30.4 34.2 30.4Z" fill="#2D3C58"/>
<path d="M9.97813 50.3499C12.3351 50.3499 14.2531 48.4319 14.2531 46.0749C14.2531 43.718 12.3351 41.7999 9.97813 41.7999C7.62118 41.7999 5.70312 43.718 5.70312 46.0749C5.70312 48.4319 7.62118 50.3499 9.97813 50.3499ZM9.97813 43.6999C11.2872 43.6999 12.3531 44.7649 12.3531 46.0749C12.3531 47.385 11.2872 48.4499 9.97813 48.4499C8.66903 48.4499 7.60313 47.385 7.60313 46.0749C7.60313 44.7649 8.66903 43.6999 9.97813 43.6999Z" fill="#2D3C58"/>
<path d="M47.4969 45.6001C48.0215 45.6001 48.4469 45.1747 48.4469 44.6501C48.4469 44.1254 48.0215 43.7001 47.4969 43.7001C46.9722 43.7001 46.5469 44.1254 46.5469 44.6501C46.5469 45.1747 46.9722 45.6001 47.4969 45.6001Z" fill="#2D3C58"/>
<path d="M43.7 45.6001C44.2247 45.6001 44.65 45.1747 44.65 44.6501C44.65 44.1254 44.2247 43.7001 43.7 43.7001C43.1753 43.7001 42.75 44.1254 42.75 44.6501C42.75 45.1747 43.1753 45.6001 43.7 45.6001Z" fill="#2D3C58"/>
<path d="M49.4031 48.45C49.9278 48.45 50.3531 48.0247 50.3531 47.5C50.3531 46.9754 49.9278 46.55 49.4031 46.55C48.8785 46.55 48.4531 46.9754 48.4531 47.5C48.4531 48.0247 48.8785 48.45 49.4031 48.45Z" fill="#2D3C58"/>
<path d="M45.6063 48.4502C46.1309 48.4502 46.5563 48.0248 46.5563 47.5002C46.5563 46.9755 46.1309 46.5502 45.6063 46.5502C45.0816 46.5502 44.6562 46.9755 44.6562 47.5002C44.6562 48.0248 45.0816 48.4502 45.6063 48.4502Z" fill="#2D3C58"/>
<path d="M39.9031 45.6001C40.4278 45.6001 40.8531 45.1747 40.8531 44.6501C40.8531 44.1254 40.4278 43.7001 39.9031 43.7001C39.3785 43.7001 38.9531 44.1254 38.9531 44.6501C38.9531 45.1747 39.3785 45.6001 39.9031 45.6001Z" fill="#2D3C58"/>
<path d="M41.7938 48.4502C42.3184 48.4502 42.7438 48.0248 42.7438 47.5002C42.7438 46.9755 42.3184 46.5502 41.7938 46.5502C41.2691 46.5502 40.8438 46.9755 40.8438 47.5002C40.8438 48.0248 41.2691 48.4502 41.7938 48.4502Z" fill="#2D3C58"/>
<path d="M36.0984 45.6001C36.6231 45.6001 37.0484 45.1747 37.0484 44.6501C37.0484 44.1254 36.6231 43.7001 36.0984 43.7001C35.5738 43.7001 35.1484 44.1254 35.1484 44.6501C35.1484 45.1747 35.5738 45.6001 36.0984 45.6001Z" fill="#2D3C58"/>
<path d="M37.9969 48.45C38.5215 48.45 38.9469 48.0247 38.9469 47.5C38.9469 46.9754 38.5215 46.55 37.9969 46.55C37.4722 46.55 37.0469 46.9754 37.0469 47.5C37.0469 48.0247 37.4722 48.45 37.9969 48.45Z" fill="#2D3C58"/>
<path d="M32.3016 45.6001C32.8262 45.6001 33.2516 45.1747 33.2516 44.6501C33.2516 44.1254 32.8262 43.7001 32.3016 43.7001C31.7769 43.7001 31.3516 44.1254 31.3516 44.6501C31.3516 45.1747 31.7769 45.6001 32.3016 45.6001Z" fill="#2D3C58"/>
<path d="M34.2 48.4502C34.7247 48.4502 35.15 48.0248 35.15 47.5002C35.15 46.9755 34.7247 46.5502 34.2 46.5502C33.6753 46.5502 33.25 46.9755 33.25 47.5002C33.25 48.0248 33.6753 48.4502 34.2 48.4502Z" fill="#2D3C58"/>
</svg>
