<svg width="60" height="60" viewBox="0 0 60 60" fill="none" xmlns="http://www.w3.org/2000/svg">
<g clip-path="url(#clip0_1003_4231)">
<path fill-rule="evenodd" clip-rule="evenodd" d="M26.1764 48.6986H4.04326C2.33162 48.6986 0.9375 47.3095 0.9375 45.5979V22.569C0.9375 20.8645 2.33162 19.4681 4.04326 19.4681H5.75279V13.5999C5.75279 6.57343 11.5027 0.823547 18.529 0.823547C25.5556 0.823547 31.3004 6.57331 31.3004 13.5999C31.3004 14.1197 30.879 14.5411 30.3593 14.5411H24.9427C24.4229 14.5411 24.0015 14.1197 24.0015 13.5999C24.0015 10.5941 21.5306 8.12237 18.529 8.12237C15.5276 8.12237 13.0567 10.5941 13.0567 13.5999V19.4681H33.0149C34.7271 19.4681 36.1156 20.8639 36.1156 22.569V25.9827C37.9368 25.3212 39.9019 24.9604 41.9503 24.9604C51.3926 24.9604 59.0584 32.6263 59.0584 42.0684C59.0584 51.5106 51.3926 59.1765 41.9503 59.1765C34.8586 59.1765 28.7689 54.8521 26.1764 48.6986ZM7.63515 19.4681H11.1743V13.5999C11.1743 9.56072 14.4956 6.24002 18.529 6.24002C22.2443 6.24002 25.3555 9.05743 25.8231 12.6587H29.3775C28.8968 7.10366 24.2033 2.7059 18.529 2.7059C12.5379 2.7059 7.63515 7.60861 7.63515 13.5999V19.4681ZM34.2333 26.7981V22.569C34.2333 21.899 33.6877 21.3505 33.0149 21.3505H4.04326C3.36985 21.3505 2.81985 21.8984 2.81985 22.569V45.5979C2.81985 46.2713 3.36985 46.8163 4.04326 46.8163H25.5108C25.0755 45.3086 24.8423 43.7155 24.8423 42.0684C24.8423 35.4019 28.6635 29.621 34.2333 26.7981ZM41.9503 26.8427C33.547 26.8427 26.7247 33.6651 26.7247 42.0684C26.7247 50.4717 33.547 57.2941 41.9503 57.2941C50.3536 57.2941 57.1761 50.4717 57.1761 42.0684C57.1761 33.6651 50.3536 26.8427 41.9503 26.8427ZM45.5649 41.7557C49.328 43.1119 52.1071 46.5258 52.5467 50.639C52.575 50.9045 52.4893 51.1695 52.3108 51.3681C52.1323 51.5667 51.8779 51.6801 51.6108 51.6801H32.2899C32.0228 51.6801 31.7682 51.5667 31.5897 51.368C31.4113 51.1693 31.3256 50.9041 31.3541 50.6385C31.7959 46.5252 34.5757 43.1115 38.3377 41.7554C36.9756 40.6818 36.0986 39.0175 36.0986 37.1552C36.0986 33.9315 38.7267 31.301 41.9503 31.301C45.177 31.301 47.8047 33.9317 47.8047 37.1552C47.8047 39.0175 46.9277 40.682 45.5649 41.7557ZM41.9503 43.0095C37.7883 43.0095 34.3028 45.9085 33.4015 49.7978H50.4997C49.6006 45.9084 46.1146 43.0095 41.9503 43.0095ZM41.9503 41.1272C44.1396 41.1272 45.9223 39.3424 45.9223 37.1552C45.9223 34.9681 44.1396 33.1833 41.9503 33.1833C39.7634 33.1833 37.9809 34.9683 37.9809 37.1552C37.9809 39.3423 39.7634 41.1272 41.9503 41.1272ZM18.529 24.9247C21.3736 24.9247 23.6793 27.2353 23.6793 30.0799C23.6793 31.7419 22.8983 33.2172 21.68 34.1592V40.0912C21.68 41.8274 20.2581 43.242 18.529 43.242C16.7929 43.242 15.3782 41.8274 15.3782 40.0912V34.1593C14.159 33.2173 13.374 31.7418 13.374 30.0799C13.374 27.2357 15.6849 24.9247 18.529 24.9247ZM18.529 26.8071C16.7234 26.8071 15.2563 28.2743 15.2563 30.0799C15.2563 31.2592 15.8793 32.2904 16.8134 32.8664C17.0914 33.0378 17.2606 33.341 17.2606 33.6675V40.0912C17.2606 40.7901 17.8301 41.3597 18.529 41.3597C19.2251 41.3597 19.7976 40.7901 19.7976 40.0912V33.6675C19.7976 33.341 19.9668 33.0378 20.2448 32.8664C21.1787 32.2905 21.7969 31.259 21.7969 30.0799C21.7969 28.2745 20.3344 26.8071 18.529 26.8071Z" fill="#2D3C58"/>
</g>
<defs>
<clipPath id="clip0_1003_4231">
<rect width="60" height="60" fill="white"/>
</clipPath>
</defs>
</svg>
