<svg width="357" height="426" viewBox="0 0 357 426" fill="none" xmlns="http://www.w3.org/2000/svg">
<path d="M222.59 208.793L190.363 302.44C199.99 305.262 210.167 306.819 220.712 306.819C233.217 306.819 245.218 304.655 256.376 300.729C256.09 300.268 255.828 299.779 255.615 299.247L222.59 208.793Z" fill="white"/>
<path d="M113.291 199.392C113.291 241.914 138.002 278.657 173.835 296.066L122.597 155.678C116.638 169.037 113.291 183.821 113.291 199.392Z" fill="white"/>
<path d="M293.218 193.973C293.218 180.698 288.454 171.508 284.368 164.346C278.921 155.498 273.817 148.008 273.817 139.157C273.817 129.284 281.304 120.093 291.855 120.093C292.333 120.093 292.783 120.152 293.249 120.174C274.143 102.673 248.684 91.981 220.716 91.981C183.183 91.981 150.166 111.234 130.967 140.4C133.485 140.475 135.854 140.529 137.878 140.529C149.115 140.529 166.51 139.166 166.51 139.166C172.305 138.817 172.98 147.325 167.199 148.008C167.199 148.008 161.378 148.691 154.905 149.034L194.015 265.385L217.52 194.881L200.78 149.031C194.996 148.688 189.518 148.005 189.518 148.005C183.733 147.668 184.408 138.82 190.195 139.163C190.195 139.163 207.939 140.526 218.487 140.526C229.721 140.526 247.121 139.163 247.121 139.163C252.917 138.82 253.594 147.322 247.804 148.005C247.804 148.005 241.978 148.688 235.511 149.031L274.334 264.5L285.048 228.698C289.688 213.841 293.218 203.166 293.218 193.973Z" fill="white"/>
<path d="M314.963 147.859C315.424 151.277 315.688 154.956 315.688 158.905C315.688 169.804 313.656 182.059 307.523 197.379L274.709 292.241C306.64 273.617 328.128 239.019 328.128 199.397C328.13 180.718 323.355 163.157 314.963 147.859Z" fill="white"/>
<path d="M220.712 63.1101C145.444 63.1101 84.4277 124.129 84.4277 199.397C84.4277 274.666 145.444 335.684 220.712 335.684C295.981 335.684 356.996 274.666 356.996 199.397C356.996 124.129 295.981 63.1101 220.712 63.1101ZM220.718 318.868C154.837 318.868 101.247 265.278 101.247 199.392C101.247 133.516 154.834 79.9261 220.718 79.9261C286.59 79.9261 340.178 133.519 340.178 199.392C340.18 265.273 286.587 318.868 220.718 318.868Z" fill="white"/>
<path opacity="0.1" d="M52.1128 274.135H9.26102C8.70389 274.135 8.27734 274.543 8.27734 275.076V300.011C8.27734 300.544 8.70389 300.952 9.26102 300.952H14.1447V311.179C14.1447 311.587 14.4058 311.932 14.7671 312.057C14.8977 312.12 14.9978 312.12 15.0936 312.12C15.3895 312.12 15.6855 311.995 15.8814 311.774L24.6998 300.952H52.1084C52.6351 300.952 53.0573 300.544 53.0573 300.011V275.076C53.066 274.543 52.6394 274.135 52.1128 274.135ZM19.2286 290.225C16.8999 290.225 14.9978 288.468 14.9978 286.303C14.9978 284.171 16.8999 282.413 19.2286 282.413C21.5224 282.413 23.4245 284.171 23.4245 286.303C23.4289 288.468 21.5268 290.225 19.2286 290.225ZM31.0025 290.225C28.6738 290.225 26.7717 288.468 26.7717 286.303C26.7717 284.171 28.6738 282.413 31.0025 282.413C33.2963 282.413 35.1984 284.171 35.1984 286.303C35.1984 288.468 33.2963 290.225 31.0025 290.225ZM42.1452 290.225C39.8165 290.225 37.9493 288.468 37.9493 286.303C37.9493 284.171 39.8165 282.413 42.1452 282.413C44.4739 282.413 46.3412 284.171 46.3412 286.303C46.3455 288.468 44.4739 290.225 42.1452 290.225Z" fill="white"/>
<path d="M48.8354 271H5.9837C5.42656 271 5 271.408 5 271.941V296.875C5 297.408 5.42656 297.816 5.9837 297.816H10.8674V308.043C10.8674 308.451 11.1285 308.797 11.4898 308.922C11.6204 308.984 11.7205 308.984 11.8162 308.984C12.1122 308.984 12.4082 308.859 12.6041 308.639L21.4225 297.816H48.8311C49.3577 297.816 49.7799 297.408 49.7799 296.875V271.941C49.7843 271.408 49.3621 271 48.8354 271ZM15.9512 287.09C13.6226 287.09 11.7205 285.333 11.7205 283.167C11.7205 281.035 13.6226 279.278 15.9512 279.278C18.2451 279.278 20.1472 281.035 20.1472 283.167C20.1472 285.333 18.2451 287.09 15.9512 287.09ZM27.7208 287.09C25.3921 287.09 23.49 285.333 23.49 283.167C23.49 281.035 25.3921 279.278 27.7208 279.278C30.0146 279.278 31.9167 281.035 31.9167 283.167C31.9167 285.333 30.019 287.09 27.7208 287.09ZM38.8679 287.09C36.5392 287.09 34.6719 285.333 34.6719 283.167C34.6719 281.035 36.5392 279.278 38.8679 279.278C41.1965 279.278 43.0638 281.035 43.0638 283.167C43.0638 285.333 41.1965 287.09 38.8679 287.09Z" fill="white"/>
<path opacity="0.1" d="M61.5608 113.167C61.5608 118.061 57.5866 121.987 52.7366 121.987H40.3249V116.171H47.9378L33.2013 101.587L18.4648 116.171H26.0776V121.987H15.9442C9.83626 121.987 4.8418 116.995 4.8418 110.891C4.8418 104.884 9.594 99.9899 15.5063 99.7478C17.0578 93.4477 22.7278 88.8472 29.4694 88.8472C36.2064 88.8472 41.881 93.4523 43.4791 99.7478H43.8658C47.5977 99.7478 50.8963 101.587 52.9323 104.353C57.6845 104.446 61.5608 108.32 61.5608 113.167Z" fill="white"/>
<path d="M56.719 108.32C56.719 113.214 52.7448 117.14 47.8948 117.14H35.4831V111.324H43.096L28.3595 96.7399L13.623 111.324H21.2358V117.14H11.1024C4.99447 117.14 0 112.148 0 106.043C0 100.037 4.7522 95.1427 10.6645 94.9006C12.216 88.6005 17.886 84 24.6276 84C31.3646 84 37.0392 88.6052 38.6373 94.9006H39.024C42.7559 94.9006 46.0545 96.7399 48.0905 99.5058C52.838 99.5989 56.719 103.473 56.719 108.32Z" fill="white"/>
<path d="M210.584 353.333C209.111 353.333 207.917 354.527 207.917 356C207.917 357.473 209.111 358.667 210.584 358.667C212.057 358.667 213.251 357.473 213.251 356C213.251 354.527 212.057 353.333 210.584 353.333ZM210.584 39.3333C209.111 39.3333 207.917 40.5272 207.917 42C207.917 43.4728 209.111 44.6667 210.584 44.6667C212.057 44.6667 213.251 43.4728 213.251 42C213.251 40.5272 212.057 39.3333 210.584 39.3333ZM210.584 355.5C123.596 355.5 53.084 285.43 53.084 199L52.084 199C52.084 285.988 123.05 356.5 210.584 356.5L210.584 355.5ZM53.084 199C53.084 112.57 123.596 42.5 210.584 42.5L210.584 41.5C123.05 41.5 52.084 112.012 52.084 199L53.084 199Z" fill="#D4DCFF"/>
<path opacity="0.1" d="M220.101 403.197H203.403C203.074 401.408 201.714 400.019 199.895 399.691V394.775H216.871C217.3 394.775 217.629 394.447 217.629 394.017V371.731C217.629 371.327 217.3 370.999 216.871 370.999H202.67V365.253C202.67 364.849 202.316 364.521 201.912 364.521H180.544C180.115 364.521 179.787 364.849 179.787 365.253V394.021C179.787 394.45 180.115 394.778 180.544 394.778H198.404V399.72C196.615 400.023 195.25 401.408 194.922 403.2H179.256C178.852 403.2 178.523 403.528 178.523 403.958C178.523 404.362 178.852 404.69 179.256 404.69H194.922C195.25 406.504 196.611 407.867 198.404 408.196V417.263C196.438 417.617 194.922 419.279 194.922 421.346C194.922 423.69 196.813 425.58 199.159 425.58C201.504 425.58 203.396 423.69 203.396 421.346C203.396 419.279 201.883 417.613 199.913 417.263V408.188C201.703 407.86 203.067 406.5 203.396 404.683H220.094C220.498 404.683 220.826 404.354 220.826 403.95C220.833 403.525 220.505 403.197 220.101 403.197ZM186.423 377.783H210.314C210.718 377.783 211.071 378.137 211.071 378.541C211.071 378.945 210.718 379.298 210.314 379.298H186.423C186.019 379.298 185.665 378.945 185.665 378.541C185.669 378.137 186.019 377.783 186.423 377.783ZM186.423 382.674H210.314C210.718 382.674 211.071 383.002 211.071 383.431C211.071 383.835 210.718 384.189 210.314 384.189H186.423C186.019 384.189 185.665 383.835 185.665 383.431C185.669 383.002 186.019 382.674 186.423 382.674ZM186.423 389.076C186.019 389.076 185.665 388.723 185.665 388.319C185.665 387.915 186.019 387.561 186.423 387.561H210.314C210.718 387.561 211.071 387.915 211.071 388.319C211.071 388.723 210.718 389.076 210.314 389.076H186.423Z" fill="white"/>
<path d="M217.577 400.676H200.879C200.551 398.887 199.19 397.498 197.372 397.17V392.254H214.347C214.777 392.254 215.105 391.926 215.105 391.496V369.21C215.105 368.806 214.777 368.478 214.347 368.478H200.147V362.732C200.147 362.328 199.793 362 199.389 362H178.021C177.591 362 177.263 362.328 177.263 362.732V391.5C177.263 391.929 177.591 392.257 178.021 392.257H195.881V397.199C194.091 397.502 192.727 398.887 192.399 400.679H176.733C176.328 400.679 176 401.007 176 401.437C176 401.841 176.328 402.169 176.733 402.169H192.399C192.727 403.983 194.087 405.346 195.881 405.675V414.749C193.914 415.103 192.399 416.766 192.399 418.832C192.399 421.177 194.29 423.067 196.635 423.067C198.981 423.067 200.872 421.177 200.872 418.832C200.872 416.766 199.36 415.099 197.39 414.749V405.675C199.18 405.346 200.544 403.987 200.872 402.169H217.57C217.974 402.169 218.303 401.841 218.303 401.437C218.31 401.004 217.982 400.676 217.577 400.676ZM183.9 375.262H207.79C208.194 375.262 208.548 375.616 208.548 376.02C208.548 376.424 208.194 376.777 207.79 376.777H183.9C183.496 376.777 183.142 376.424 183.142 376.02C183.145 375.616 183.496 375.262 183.9 375.262ZM183.9 380.153H207.79C208.194 380.153 208.548 380.481 208.548 380.91C208.548 381.314 208.194 381.668 207.79 381.668H183.9C183.496 381.668 183.142 381.314 183.142 380.91C183.145 380.481 183.496 380.153 183.9 380.153ZM183.9 386.559C183.496 386.559 183.142 386.205 183.142 385.801C183.142 385.397 183.496 385.044 183.9 385.044H207.79C208.194 385.044 208.548 385.397 208.548 385.801C208.548 386.205 208.194 386.559 207.79 386.559H183.9Z" fill="white"/>
<path d="M152.575 18.9177L161.439 30.3081H154.833L146 18.9177L154.833 7.5542H161.439L152.575 18.9177Z" fill="white"/>
<path d="M188.716 18.9177L179.852 30.3081H186.458L195.323 18.9177L186.458 7.5542H179.852L188.716 18.9177Z" fill="white"/>
<path d="M167.88 36.0086L180.911 0H176.433L163.396 36.0086H167.88Z" fill="white"/>
</svg>
