<svg width="55" height="55" viewBox="0 0 55 55" fill="none" xmlns="http://www.w3.org/2000/svg">
<rect width="55" height="55" rx="4" fill="#CCE4FF"/>
<path d="M35.2995 27.6792C37.2059 24.9573 38.2136 21.7621 38.2136 18.4391V11.03C38.2136 10.6641 37.9594 10.347 37.6023 10.2674L27.5144 8.01854C27.4024 7.99382 27.2864 7.99382 27.1744 8.01854L17.0869 10.2674C16.7295 10.347 16.4756 10.6641 16.4756 11.03V18.4391C16.4756 21.7621 17.4833 24.9573 19.3897 27.6789C21.2961 30.4008 23.9545 32.4396 27.0777 33.5755C27.1638 33.6066 27.2544 33.6225 27.3444 33.6225C27.4348 33.6225 27.5254 33.6066 27.6115 33.5755C30.7346 32.44 33.393 30.4008 35.2995 27.6792ZM27.3444 32.0069C24.64 30.9641 22.3362 29.1624 20.6696 26.7826C18.9481 24.325 18.0381 21.4399 18.0381 18.4391V11.6562L27.3444 9.58165L36.6511 11.6562V18.4391C36.6511 21.4396 35.741 24.3247 34.0196 26.7826C32.3527 29.1624 30.0489 30.9641 27.3444 32.0069Z" fill="#2D3C58"/>
<path d="M35.3214 13.3481C35.3214 12.9819 35.0675 12.6651 34.7102 12.5855L27.5141 10.9812C27.4021 10.9565 27.2858 10.9565 27.1738 10.9812L19.9775 12.5855C19.5563 12.6795 19.2911 13.097 19.3851 13.5181C19.4788 13.9393 19.8966 14.2045 20.3175 14.1105L27.3438 12.5443L33.7589 13.9744V18.4394C33.7589 20.8436 33.0299 23.155 31.6508 25.1243C30.5427 26.7063 29.0589 27.988 27.3438 28.8496C25.6287 27.9883 24.1453 26.7063 23.0372 25.1243C21.8442 23.4211 21.1277 21.4301 20.9653 19.3671C20.9516 19.195 20.9418 19.0211 20.936 18.8495C20.9211 18.418 20.557 18.0808 20.1282 18.0955C19.697 18.1104 19.3595 18.472 19.3745 18.9033C19.3812 19.0976 19.3922 19.2951 19.4074 19.4898C19.5917 21.8308 20.4044 24.0891 21.7573 26.0206C23.0936 27.9282 24.9119 29.4517 27.0158 30.4258C27.1198 30.474 27.2321 30.4981 27.3441 30.4981C27.4561 30.4981 27.5681 30.474 27.6722 30.4258C29.7764 29.4514 31.5946 27.9282 32.9307 26.0206C34.4947 23.7876 35.3217 21.1658 35.3217 18.4394V13.3481H35.3214Z" fill="#2D3C58"/>
<path d="M25.1178 22.4947C25.2545 22.6564 25.4507 22.7556 25.6622 22.7697C25.6796 22.7709 25.697 22.7715 25.7144 22.7715C25.9073 22.7715 26.0943 22.7001 26.2384 22.5698L31.9024 17.4453C32.2223 17.156 32.247 16.6619 31.9577 16.3417C31.6681 16.0219 31.174 15.9972 30.8542 16.2865L25.7892 20.8687L24.3435 19.1588C24.0652 18.8295 23.5721 18.788 23.2428 19.0667C22.9132 19.3453 22.872 19.8381 23.1503 20.1677L25.1178 22.4947Z" fill="#2D3C58"/>
<path d="M20.765 33.8558C20.3534 33.3145 19.7549 32.9702 19.0802 32.886C18.4054 32.8021 17.7407 32.9885 17.2085 33.4118C16.9595 33.6099 16.7584 33.8473 16.6067 34.1088L16.3772 33.8098C16.1734 33.5446 16.0614 33.2144 16.0614 32.8799V25.8319C16.0614 24.392 14.8898 23.2205 13.45 23.2205C12.0956 23.2205 10.978 24.2373 10.8502 25.5853L10.014 34.4039C9.94045 35.1763 10.1583 35.9426 10.6298 36.5652L17.2705 45.2121V47.2189C17.2705 47.6504 17.6202 48.0001 18.0517 48.0001C18.4829 48.0001 18.833 47.6504 18.833 47.2189V44.9466C18.833 44.7744 18.7759 44.6072 18.6712 44.4708L11.8722 35.6176C11.6406 35.3118 11.5332 34.9331 11.5695 34.5513L12.406 25.733C12.4572 25.1913 12.9062 24.783 13.45 24.783C14.0286 24.783 14.4989 25.2535 14.4989 25.8319V32.8799C14.4989 33.5568 14.7259 34.2248 15.1382 34.7613L16.7736 36.8911C16.7761 36.8945 16.7785 36.8978 16.781 36.9012L18.1006 38.6196C18.3636 38.9617 18.854 39.0261 19.1961 38.7634C19.5382 38.5006 19.6026 38.0102 19.3399 37.6678L18.016 35.9439C17.7093 35.538 17.7826 34.952 18.1817 34.6347C18.3822 34.475 18.6328 34.4049 18.887 34.4363C19.1412 34.468 19.3667 34.598 19.5218 34.8019L22.6758 38.9468C23.2965 39.7625 23.6383 40.7763 23.6383 41.8014V47.2189C23.6383 47.6504 23.988 48.0001 24.4195 48.0001C24.851 48.0001 25.2008 47.6504 25.2008 47.2189V41.8014C25.2008 40.4367 24.7458 39.0869 23.9193 38.0007L20.765 33.8558Z" fill="#2D3C58"/>
<path d="M44.4556 34.4039L43.6192 25.5853C43.4913 24.2373 42.3734 23.2205 41.0194 23.2205C39.5795 23.2205 38.408 24.392 38.408 25.8319V32.8799C38.408 33.2144 38.2957 33.5446 38.0921 33.8098L37.8623 34.1088C37.7109 33.8476 37.5098 33.6102 37.2608 33.4118C36.7286 32.9885 36.0639 32.8021 35.3892 32.886C34.7144 32.9702 34.116 33.3145 33.7043 33.8558L30.5503 38.0007C29.7239 39.0869 29.2686 40.4367 29.2686 41.8017V47.2189C29.2686 47.6504 29.6186 48.0001 30.0498 48.0001C30.4813 48.0001 30.8311 47.6504 30.8311 47.2189V41.8014C30.8311 40.7763 31.1729 39.7625 31.7936 38.9468L34.9476 34.8019C35.1029 34.598 35.3284 34.4683 35.5826 34.4363C35.8369 34.4049 36.0874 34.475 36.2879 34.6347C36.6868 34.952 36.7603 35.538 36.4533 35.9439L35.1298 37.6678C34.867 38.0102 34.9314 38.5006 35.2735 38.7634C35.6156 39.0261 36.106 38.9617 36.3691 38.6196L37.6884 36.9012C37.6908 36.8981 37.6929 36.8951 37.6954 36.892L39.3314 34.7616C39.7434 34.2248 39.9705 33.5568 39.9705 32.8799V25.8319C39.9705 25.2535 40.4411 24.783 41.0194 24.783C41.5632 24.783 42.0121 25.1913 42.0637 25.733L42.9002 34.5513C42.9362 34.9334 42.8287 35.3118 42.6002 35.6137L35.7981 44.4708C35.6934 44.6072 35.6367 44.7747 35.6367 44.9469V47.2189C35.6367 47.6504 35.9864 48.0001 36.4179 48.0001C36.8494 48.0001 37.1992 47.6504 37.1992 47.2189V45.2121L43.8425 36.5612C44.311 35.9426 44.5289 35.1763 44.4556 34.4039Z" fill="#2D3C58"/>
<path d="M19.7138 16.7578C19.9887 16.9412 20.3611 16.9296 20.6229 16.7279C20.8692 16.538 20.9848 16.2066 20.9018 15.9057C20.813 15.5831 20.5243 15.3463 20.1889 15.328C19.8569 15.31 19.5435 15.5126 19.4217 15.8212C19.2881 16.1602 19.4117 16.5545 19.7138 16.7578Z" fill="#2D3C58"/>
</svg>
