<svg width="680" height="679" viewBox="0 0 680 679" fill="none" xmlns="http://www.w3.org/2000/svg">
<path d="M425.521 527.366C416.103 533.89 412.63 546.517 418.359 556.439C424.088 566.362 436.842 569.813 446.336 563.4C565.872 482.661 607.963 325.634 544.815 195.944C539.799 185.641 527.026 182.252 517.103 187.982C507.179 193.712 503.873 206.385 508.767 216.746C560.612 326.498 525.299 458.242 425.521 527.366Z" fill="url(#paint0_linear_308_2802)"/>
<path d="M180.231 145.211C215.877 124.631 256.826 115.083 297.898 117.775C338.971 120.467 378.323 135.278 410.978 160.335C443.633 185.392 468.124 219.57 481.355 258.546C494.586 297.523 495.962 339.547 485.308 379.305C474.655 419.064 452.452 454.77 421.505 481.909C390.559 509.048 352.26 526.401 311.451 531.773C270.642 537.146 229.157 530.297 192.241 512.092C155.325 493.887 124.637 465.144 104.057 429.498L140.103 408.687C156.567 437.204 181.118 460.198 210.65 474.762C240.183 489.326 273.372 494.805 306.018 490.507C338.665 486.209 369.304 472.327 394.062 450.616C418.818 428.904 436.582 400.339 445.104 368.532C453.627 336.726 452.526 303.106 441.942 271.925C431.357 240.744 411.764 213.402 385.64 193.356C359.516 173.311 328.034 161.462 295.176 159.308C262.318 157.155 229.559 164.793 201.042 181.257L180.231 145.211Z" fill="url(#paint1_linear_308_2802)"/>
<path d="M177.339 387.919C211.723 447.473 287.838 467.869 347.377 433.494C406.931 399.11 427.342 322.985 392.958 263.431L357.025 284.177C379.949 323.883 366.334 374.631 326.644 397.546C286.953 420.462 236.201 406.876 213.277 367.17C190.349 327.458 203.96 276.714 243.651 253.798L222.889 217.874C163.35 252.249 142.952 328.359 177.339 387.919Z" fill="url(#paint2_linear_308_2802)"/>
<defs>
<linearGradient id="paint0_linear_308_2802" x1="541.708" y1="197.731" x2="344.536" y2="738.881" gradientUnits="userSpaceOnUse">
<stop stop-color="#E7ECFF"/>
<stop offset="0.0001" stop-color="#E9EDFF" stop-opacity="0.895833"/>
<stop offset="1" stop-color="#CAD2FF" stop-opacity="0"/>
</linearGradient>
<linearGradient id="paint1_linear_308_2802" x1="473.84" y1="418.863" x2="165.357" y2="330.462" gradientUnits="userSpaceOnUse">
<stop stop-color="#D3D0FC"/>
<stop offset="1" stop-color="#79E2E6" stop-opacity="0"/>
</linearGradient>
<linearGradient id="paint2_linear_308_2802" x1="258.864" y1="458.422" x2="315.086" y2="262.888" gradientUnits="userSpaceOnUse">
<stop stop-color="#FFD5E9"/>
<stop offset="1" stop-color="#F99DC9" stop-opacity="0"/>
</linearGradient>
</defs>
</svg>
