<svg width="60" height="60" viewBox="0 0 60 60" fill="none" xmlns="http://www.w3.org/2000/svg">
<path d="M13.8511 24.9706C13.3217 24.9706 12.9688 25.4118 12.9688 25.8529C12.9688 26.2941 13.3217 26.7353 13.8511 26.7353C14.3805 26.7353 14.7335 26.3823 14.7335 25.8529C14.7335 25.3235 14.2923 24.9706 13.8511 24.9706Z" fill="#2D3C58"/>
<path d="M17.9995 26.7353C18.529 26.7353 18.8819 26.2941 18.8819 25.8529C18.8819 25.4118 18.529 24.9706 17.9995 24.9706C17.4701 24.9706 17.1172 25.4118 17.1172 25.8529C17.1172 26.2941 17.4701 26.7353 17.9995 26.7353Z" fill="#2D3C58"/>
<path d="M23.0225 25.8529C23.0225 25.4118 22.6696 24.9706 22.1402 24.9706C21.6108 24.9706 21.2578 25.4118 21.2578 25.8529C21.2578 26.2941 21.6108 26.7353 22.1402 26.7353C22.6696 26.7353 23.0225 26.2941 23.0225 25.8529Z" fill="#2D3C58"/>
<path d="M34.585 26.7353V24.9705C34.585 24.4411 34.2321 24.0882 33.7027 24.0882C33.1733 24.0882 32.8203 24.4411 32.8203 24.9705V26.7353C32.8203 27.2647 33.1733 27.6176 33.7027 27.6176C34.2321 27.6176 34.585 27.1764 34.585 26.7353Z" fill="#2D3C58"/>
<path d="M38.7335 26.7353V24.9705C38.7335 24.4411 38.3805 24.0882 37.8511 24.0882C37.3217 24.0882 36.9688 24.4411 36.9688 24.9705V26.7353C36.9688 27.2647 37.3217 27.6176 37.8511 27.6176C38.3805 27.6176 38.7335 27.1764 38.7335 26.7353Z" fill="#2D3C58"/>
<path d="M42.8819 26.7353V24.9705C42.8819 24.4411 42.529 24.0882 41.9995 24.0882C41.4701 24.0882 41.1172 24.4411 41.1172 24.9705V26.7353C41.1172 27.2647 41.4701 27.6176 41.9995 27.6176C42.529 27.6176 42.8819 27.1764 42.8819 26.7353Z" fill="#2D3C58"/>
<path d="M47.0225 26.7353V24.9705C47.0225 24.4411 46.6696 24.0882 46.1402 24.0882C45.6108 24.0882 45.2578 24.4411 45.2578 24.9705V26.7353C45.2578 27.2647 45.6108 27.6176 46.1402 27.6176C46.6696 27.6176 47.0225 27.1764 47.0225 26.7353Z" fill="#2D3C58"/>
<path d="M13.8511 38.647C14.3805 38.647 14.7335 38.2941 14.7335 37.7647C14.7335 37.2353 14.2923 36.8823 13.8511 36.8823C13.3217 36.8823 12.9688 37.3235 12.9688 37.7647C12.9688 38.2941 13.4099 38.647 13.8511 38.647Z" fill="#2D3C58"/>
<path d="M17.9995 38.647C18.529 38.647 18.8819 38.2059 18.8819 37.7647C18.8819 37.3235 18.529 36.8823 17.9995 36.8823C17.4701 36.8823 17.1172 37.3235 17.1172 37.7647C17.1172 38.2941 17.5584 38.647 17.9995 38.647Z" fill="#2D3C58"/>
<path d="M22.1402 38.647C22.5813 38.647 23.0225 38.2941 23.0225 37.7647C23.0225 37.3235 22.5813 36.8823 22.1402 36.8823C21.6108 36.8823 21.2578 37.3235 21.2578 37.7647C21.2578 38.2941 21.6108 38.647 22.1402 38.647Z" fill="#2D3C58"/>
<path d="M33.7027 39.5294C34.2321 39.5294 34.585 39.1765 34.585 38.6471V36.8824C34.585 36.3529 34.2321 36 33.7027 36C33.1733 36 32.8203 36.3529 32.8203 36.8824V38.6471C32.8203 39.1765 33.1733 39.5294 33.7027 39.5294Z" fill="#2D3C58"/>
<path d="M37.8511 39.5294C38.3805 39.5294 38.7335 39.1765 38.7335 38.6471V36.8824C38.7335 36.3529 38.3805 36 37.8511 36C37.3217 36 36.9688 36.3529 36.9688 36.8824V38.6471C36.9688 39.1765 37.3217 39.5294 37.8511 39.5294Z" fill="#2D3C58"/>
<path d="M41.9995 39.5294C42.529 39.5294 42.8819 39.1765 42.8819 38.6471V36.8824C42.8819 36.3529 42.529 36 41.9995 36C41.4701 36 41.1172 36.3529 41.1172 36.8824V38.6471C41.1172 39.1765 41.4701 39.5294 41.9995 39.5294Z" fill="#2D3C58"/>
<path d="M46.1402 39.5294C46.6696 39.5294 47.0225 39.1765 47.0225 38.6471V36.8824C47.0225 36.3529 46.6696 36 46.1402 36C45.6108 36 45.2578 36.3529 45.2578 36.8824V38.6471C45.2578 39.1765 45.6108 39.5294 46.1402 39.5294Z" fill="#2D3C58"/>
<path d="M11.3791 54.5294H14.4674V57.3529C14.4674 57.8823 14.8203 58.2353 15.3497 58.2353H20.6438C21.1733 58.2353 21.5262 57.8823 21.5262 57.3529V54.5294H38.5556V57.3529C38.5556 57.8823 38.9086 58.2353 39.438 58.2353H44.7321C45.2615 58.2353 45.6144 57.8823 45.6144 57.3529V54.5294H48.7027C50.1144 54.5294 51.2615 53.3823 51.2615 51.9706V47.4706C51.2615 46.0588 50.1144 44.9117 48.7027 44.9117H47.3791V42.5294H48.7027C50.1144 42.5294 51.2615 41.3823 51.2615 39.9706V35.4706C51.2615 34.0588 50.1144 32.9117 48.7027 32.9117H47.3791V30.4412H48.7027C50.1144 30.4412 51.2615 29.2941 51.2615 27.8823V23.3823C51.2615 21.9706 50.1144 20.8235 48.7027 20.8235H30.8791V18.7059C32.3791 18.6176 33.8791 18.1764 35.2027 17.3823C35.6438 17.1176 35.7321 16.5882 35.5556 16.147C35.2909 15.7059 34.7615 15.6176 34.3203 15.7941C33.2615 16.4117 32.1144 16.7647 30.9674 16.8529C31.1438 15.0882 31.938 13.2353 33.2615 11.8235C34.6733 10.2353 36.6144 9.35292 38.7321 9.08821C38.5556 10.8529 37.8497 12.5294 36.6144 13.8529C36.2615 14.2059 36.3497 14.7353 36.7027 15.0882C37.0556 15.4412 37.585 15.3529 37.938 15C39.6144 13.0588 40.4968 10.6764 40.4968 8.11763C40.4968 7.58821 40.0556 7.23527 39.6144 7.23527C37.4968 7.23527 35.4674 7.85292 33.7027 9.08821C33.7027 6.35292 32.6438 3.61763 30.6144 1.67645C30.2615 1.32351 29.7321 1.32351 29.3791 1.67645C27.3497 3.70586 26.2909 6.35292 26.2909 9.08821C24.5262 7.94115 22.4968 7.23527 20.3791 7.23527C19.8497 7.23527 19.4968 7.67645 19.4968 8.11763C19.4968 10.9412 20.5556 13.5882 22.585 15.5294C24.3497 17.2941 26.6438 18.3529 29.1144 18.5294V20.647H18.7909C18.2615 20.647 17.9085 21 17.9085 21.5294C17.9085 22.0588 18.2615 22.4117 18.7909 22.4117H48.6144C49.0556 22.4117 49.4086 22.7647 49.4086 23.2059V27.7059C49.4086 28.147 49.0556 28.5 48.6144 28.5H11.3791C10.938 28.5 10.585 28.147 10.585 27.7059V23.2059C10.585 22.7647 10.938 22.4117 11.3791 22.4117H14.6438C15.1733 22.4117 15.5262 22.0588 15.5262 21.5294C15.5262 21 15.1733 20.647 14.6438 20.647H11.3791C9.96737 20.647 8.82031 21.7941 8.82031 23.2059V27.7059C8.82031 29.1176 9.96737 30.2647 11.3791 30.2647H12.7027V32.7353H11.3791C9.96737 32.7353 8.82031 33.8823 8.82031 35.2941V39.7941C8.82031 41.2059 9.96737 42.3529 11.3791 42.3529H12.7027V45H11.3791C9.96737 45 8.82031 46.147 8.82031 47.5588V52.0588C8.82031 53.3823 9.96737 54.5294 11.3791 54.5294ZM19.6733 56.4706H16.1438V54.5294H19.6733V56.4706ZM43.7615 56.4706H40.2321V54.5294H43.7615V56.4706ZM29.9968 3.97057C31.6733 5.99998 32.2909 8.64704 31.7615 11.2059C31.0556 12 30.438 12.9706 29.9968 13.9412C29.5556 12.9706 28.938 12 28.2321 11.2059C27.7027 8.5588 28.3203 5.99998 29.9968 3.97057ZM23.8203 14.647C22.4085 13.2353 21.5262 11.3823 21.3497 9.44115C23.3791 9.61762 25.3203 10.5882 26.8203 12.1764C28.1438 13.5882 28.938 15.3529 29.1144 17.2059C27.085 16.9412 25.2321 16.147 23.8203 14.647ZM10.585 40.0588V35.5588C10.585 35.1176 10.938 34.7647 11.3791 34.7647H22.1438C22.6733 34.7647 23.0262 34.4117 23.0262 33.8823C23.0262 33.3529 22.6733 33 22.1438 33H14.4674V30.5294H45.5262V33H26.2909C25.7615 33 25.4085 33.3529 25.4085 33.8823C25.4085 34.4117 25.7615 34.7647 26.2909 34.7647H48.6144C49.0556 34.7647 49.4086 35.1176 49.4086 35.5588V40.0588C49.4086 40.5 49.0556 40.8529 48.6144 40.8529H11.3791C10.938 40.8529 10.585 40.5 10.585 40.0588ZM10.585 47.5588C10.585 47.1176 10.938 46.7647 11.3791 46.7647H33.7909C34.3203 46.7647 34.6733 46.4117 34.6733 45.8823C34.6733 45.3529 34.3203 45 33.7909 45H14.4674V42.6176H45.5262V45H37.938C37.4086 45 37.0556 45.3529 37.0556 45.8823C37.0556 46.4117 37.4086 46.7647 37.938 46.7647H48.6144C49.0556 46.7647 49.4086 47.1176 49.4086 47.5588V52.0588C49.4086 52.5 49.0556 52.8529 48.6144 52.8529H11.3791C10.938 52.8529 10.585 52.5 10.585 52.0588V47.5588Z" fill="#2D3C58"/>
<path d="M13.8511 50.647C14.2923 50.647 14.7335 50.2941 14.7335 49.7647C14.7335 49.2353 14.2923 48.8823 13.8511 48.8823C13.3217 48.8823 12.9688 49.3235 12.9688 49.7647C12.9688 50.2059 13.4099 50.647 13.8511 50.647Z" fill="#2D3C58"/>
<path d="M17.9995 50.647C18.529 50.647 18.8819 50.2059 18.8819 49.7647C18.8819 49.3235 18.529 48.8823 17.9995 48.8823C17.5584 48.8823 17.1172 49.2353 17.1172 49.7647C17.1172 50.2059 17.5584 50.647 17.9995 50.647Z" fill="#2D3C58"/>
<path d="M23.0225 49.7647C23.0225 49.3235 22.6696 48.8823 22.1402 48.8823C21.6108 48.8823 21.2578 49.3235 21.2578 49.7647C21.2578 50.2941 21.699 50.647 22.1402 50.647C22.6696 50.647 23.0225 50.2059 23.0225 49.7647Z" fill="#2D3C58"/>
<path d="M33.7027 51.5294C34.2321 51.5294 34.585 51.1765 34.585 50.6471V48.8824C34.585 48.3529 34.2321 48 33.7027 48C33.1733 48 32.8203 48.3529 32.8203 48.8824V50.6471C32.8203 51.0882 33.1733 51.5294 33.7027 51.5294Z" fill="#2D3C58"/>
<path d="M37.8511 51.5294C38.3805 51.5294 38.7335 51.1765 38.7335 50.6471V48.8824C38.7335 48.3529 38.3805 48 37.8511 48C37.3217 48 36.9688 48.3529 36.9688 48.8824V50.6471C36.9688 51.0882 37.3217 51.5294 37.8511 51.5294Z" fill="#2D3C58"/>
<path d="M41.9995 51.5294C42.529 51.5294 42.8819 51.1765 42.8819 50.6471V48.8824C42.8819 48.3529 42.529 48 41.9995 48C41.4701 48 41.1172 48.3529 41.1172 48.8824V50.6471C41.1172 51.0882 41.4701 51.5294 41.9995 51.5294Z" fill="#2D3C58"/>
<path d="M46.1402 51.5294C46.6696 51.5294 47.0225 51.1765 47.0225 50.6471V48.8824C47.0225 48.3529 46.6696 48 46.1402 48C45.6108 48 45.2578 48.3529 45.2578 48.8824V50.6471C45.2578 51.0882 45.6108 51.5294 46.1402 51.5294Z" fill="#2D3C58"/>
</svg>
