<svg width="60" height="60" viewBox="0 0 60 60" fill="none" xmlns="http://www.w3.org/2000/svg">
<g clip-path="url(#clip0_1003_4429)">
<path d="M47.1987 31.1691H10.6759C4.78827 31.1691 0 26.3701 0 20.4693C0 14.5685 4.78827 9.76943 10.6759 9.76943C11.6287 9.76943 12.5692 9.9041 13.5953 10.1857C15.8917 4.05223 21.645 0 28.18 0C33.4935 0 38.4283 2.73005 41.2622 7.18629C43.009 6.25587 44.9878 5.76617 47.0521 5.76617C50.4479 5.64375 53.6726 6.88023 56.1278 9.24301C58.5831 11.618 59.9878 14.9235 59.9878 18.3391C60 25.4152 54.259 31.1691 47.1987 31.1691ZM10.6759 11.618C5.80212 11.618 1.83225 15.5968 1.83225 20.4815C1.83225 25.3663 5.80212 29.345 10.6759 29.345H47.1987C53.2451 29.345 58.1678 24.4113 58.1678 18.3514C58.1678 15.4377 56.9585 12.6097 54.8697 10.5774C52.7687 8.55744 50.0204 7.49235 47.1132 7.60253C47.101 7.60253 47.0888 7.60253 47.0765 7.60253C45.0244 7.60253 43.0822 8.15344 41.4454 9.20628C41.2378 9.34095 40.9691 9.38992 40.7248 9.32871C40.4805 9.2675 40.2728 9.10835 40.1507 8.88798C37.7321 4.54193 33.1515 1.83636 28.18 1.83636C22.1458 1.83636 16.8689 5.75393 15.0489 11.5936C14.9756 11.8262 14.8168 12.022 14.5969 12.1322C14.377 12.2424 14.1205 12.2669 13.8884 12.1812C12.6792 11.7894 11.6897 11.618 10.6759 11.618Z" fill="#2D3C58"/>
<path d="M39.8225 14.2502C39.5904 14.2502 39.3583 14.1645 39.1751 13.9808C34.0448 8.83903 25.7142 8.83903 20.5839 13.9808C20.2297 14.3359 19.6433 14.3359 19.2891 13.9808C18.9349 13.6258 18.9349 13.0382 19.2891 12.6831C22.123 9.84291 25.8852 8.27588 29.8795 8.27588C33.8738 8.27588 37.636 9.84291 40.4699 12.6831C40.8241 13.0382 40.8241 13.6258 40.4699 13.9808C40.2867 14.1522 40.0546 14.2502 39.8225 14.2502Z" fill="#2D3C58"/>
<path d="M22.5615 16.8823C22.3294 16.8823 22.0973 16.7966 21.9141 16.613C21.5599 16.2579 21.5599 15.6703 21.9141 15.3153C26.2626 10.9447 33.4695 10.9447 37.9524 15.303C38.3188 15.658 38.3188 16.2334 37.9768 16.6007C37.6348 16.968 37.0485 16.968 36.682 16.6252C32.9076 12.9525 26.8612 12.9525 23.2089 16.613C23.0257 16.7843 22.7936 16.8823 22.5615 16.8823Z" fill="#2D3C58"/>
<path d="M34.6898 19.392C34.4577 19.392 34.2256 19.3063 34.0424 19.1226C32.943 18.0208 31.4894 17.421 29.9381 17.421C28.3868 17.421 26.9333 18.0208 25.8339 19.1226C25.4797 19.4777 24.8933 19.4777 24.5391 19.1226C24.1849 18.7676 24.1849 18.18 24.5391 17.825C25.9805 16.3804 27.8982 15.5846 29.9381 15.5846C31.978 15.5846 33.8958 16.3804 35.3372 17.825C35.6914 18.18 35.6914 18.7676 35.3372 19.1226C35.1539 19.294 34.9218 19.392 34.6898 19.392Z" fill="#2D3C58"/>
<path d="M29.9444 27.1537C27.7824 27.1537 26.0234 25.3908 26.0234 23.2239C26.0234 21.057 27.7824 19.2941 29.9444 19.2941C32.1065 19.2941 33.8655 21.057 33.8655 23.2239C33.8655 25.3908 32.1065 27.1537 29.9444 27.1537ZM29.9444 21.1427C28.7962 21.1427 27.8557 22.0853 27.8557 23.2361C27.8557 24.3869 28.7962 25.3296 29.9444 25.3296C31.0927 25.3296 32.0332 24.3869 32.0332 23.2361C32.0332 22.0853 31.0927 21.1427 29.9444 21.1427Z" fill="#2D3C58"/>
<path d="M5.55207 54.9929C5.30777 54.9929 5.07568 54.8949 4.90467 54.7235L2.1563 51.969C1.80207 51.614 1.80207 51.0263 2.1563 50.6713C2.51054 50.3163 3.09685 50.3163 3.45109 50.6713L5.55207 52.777L7.65304 50.6713C8.00728 50.3163 8.5936 50.3163 8.94783 50.6713C9.30207 51.0263 9.30207 51.614 8.94783 51.969L6.19946 54.7235C6.02845 54.8949 5.79637 54.9929 5.55207 54.9929Z" fill="#2D3C58"/>
<path d="M5.55207 50.5978C5.30777 50.5978 5.07568 50.4999 4.90467 50.3285L2.1563 47.574C1.80207 47.2189 1.80207 46.6313 2.1563 46.2763C2.51054 45.9213 3.09685 45.9213 3.45109 46.2763L5.55207 48.382L7.65304 46.2763C8.00728 45.9213 8.5936 45.9213 8.94783 46.2763C9.30207 46.6313 9.30207 47.2189 8.94783 47.574L6.19946 50.3285C6.02845 50.4999 5.79637 50.5978 5.55207 50.5978Z" fill="#2D3C58"/>
<path d="M5.54901 46.0927C5.31692 46.0927 5.09705 46.007 4.91383 45.8356L2.16546 43.2034C1.79901 42.8484 1.78679 42.273 2.14103 41.9058C2.49526 41.5385 3.06937 41.5262 3.43582 41.8813L5.54901 43.9135L7.6622 41.869C8.02865 41.514 8.60275 41.5262 8.95699 41.8935C9.31122 42.2608 9.28679 42.8362 8.93256 43.1912L6.18419 45.8233C6.00096 46.007 5.78109 46.0927 5.54901 46.0927Z" fill="#2D3C58"/>
<path d="M57.0864 46.0927C56.8544 46.0927 56.6345 46.007 56.4513 45.8356L54.3381 43.8034L52.2249 45.8356C51.8584 46.1906 51.2843 46.1784 50.9301 45.8111C50.5759 45.4438 50.5881 44.8684 50.9545 44.5134L53.7029 41.8813C54.0571 41.5385 54.619 41.5385 54.9733 41.8813L57.7216 44.5134C58.0881 44.8684 58.1003 45.4438 57.7461 45.8111C57.5628 45.9947 57.3307 46.0927 57.0864 46.0927Z" fill="#2D3C58"/>
<path d="M57.0895 50.5979C56.8574 50.5979 56.6253 50.5122 56.4421 50.3285L54.3411 48.2228L52.2402 50.3285C51.8859 50.6836 51.2996 50.6836 50.9454 50.3285C50.5911 49.9735 50.5911 49.3859 50.9454 49.0308L53.6937 46.2763C53.8647 46.1049 54.0968 46.007 54.3411 46.007C54.5854 46.007 54.8175 46.1049 54.9885 46.2763L57.7369 49.0308C58.0911 49.3859 58.0911 49.9735 57.7369 50.3285C57.5537 50.5122 57.3216 50.5979 57.0895 50.5979Z" fill="#2D3C58"/>
<path d="M57.0861 54.9929C56.854 54.9929 56.6219 54.9072 56.4387 54.7235L54.3377 52.6178L52.2245 54.7235C51.8703 55.0786 51.284 55.0786 50.9297 54.7235C50.5755 54.3685 50.5755 53.7809 50.9297 53.4258L53.6781 50.6713C53.8491 50.4999 54.0812 50.402 54.3255 50.402C54.5698 50.402 54.8019 50.4999 54.9729 50.6713L57.7213 53.4258C58.0755 53.7809 58.0755 54.3685 57.7213 54.7235C57.5503 54.8949 57.3182 54.9929 57.0861 54.9929Z" fill="#2D3C58"/>
<path d="M41.4478 56.7435C39.7743 56.7435 38.4062 55.3724 38.4062 53.6951C38.4062 52.0179 39.7743 50.6468 41.4478 50.6468C43.1212 50.6468 44.4893 52.0179 44.4893 53.6951C44.4893 55.3724 43.1212 56.7435 41.4478 56.7435ZM41.4478 52.4831C40.776 52.4831 40.2385 53.0218 40.2385 53.6951C40.2385 54.3685 40.776 54.9071 41.4478 54.9071C42.1196 54.9071 42.6571 54.3685 42.6571 53.6951C42.6571 53.0218 42.1074 52.4831 41.4478 52.4831Z" fill="#2D3C58"/>
<path d="M16.6756 54.6133H15.6739C15.1731 54.6133 14.7578 54.1971 14.7578 53.6952C14.7578 53.1932 15.1731 52.777 15.6739 52.777H16.6756C17.1764 52.777 17.5917 53.1932 17.5917 53.6952C17.5917 54.1971 17.1886 54.6133 16.6756 54.6133Z" fill="#2D3C58"/>
<path d="M20.9256 54.6133H19.9239C19.4231 54.6133 19.0078 54.1971 19.0078 53.6952C19.0078 53.1932 19.4231 52.777 19.9239 52.777H20.9256C21.4264 52.777 21.8417 53.1932 21.8417 53.6952C21.8417 54.1971 21.4386 54.6133 20.9256 54.6133Z" fill="#2D3C58"/>
<path d="M25.3133 54.6133H24.1896C23.6887 54.6133 23.2734 54.1971 23.2734 53.6952C23.2734 53.1932 23.6887 52.777 24.1896 52.777H25.3133C25.8142 52.777 26.2295 53.1932 26.2295 53.6952C26.2295 54.1971 25.8142 54.6133 25.3133 54.6133Z" fill="#2D3C58"/>
<path d="M29.5662 54.6133H28.5646C28.0637 54.6133 27.6484 54.1971 27.6484 53.6952C27.6484 53.1932 28.0637 52.777 28.5646 52.777H29.5662C30.067 52.777 30.4823 53.1932 30.4823 53.6952C30.4823 54.1971 30.067 54.6133 29.5662 54.6133Z" fill="#2D3C58"/>
<path d="M33.9383 54.6133H32.8146C32.3137 54.6133 31.8984 54.1971 31.8984 53.6952C31.8984 53.1932 32.3137 52.777 32.8146 52.777H33.9383C34.4392 52.777 34.8545 53.1932 34.8545 53.6952C34.8545 54.1971 34.4514 54.6133 33.9383 54.6133Z" fill="#2D3C58"/>
<path d="M44.6967 60H15.1731C12.9133 60 11.0078 58.0902 11.0078 55.8253V51.565C11.0078 49.3001 12.9133 47.3903 15.1731 47.3903H44.6967C46.9565 47.3903 48.862 49.3001 48.862 51.565V55.8253C48.862 58.0902 46.9565 60 44.6967 60ZM15.1731 49.2267C13.9272 49.2267 12.8401 50.3163 12.8401 51.565V55.8253C12.8401 57.0741 13.9272 58.1636 15.1731 58.1636H44.6967C45.9427 58.1636 47.0298 57.0741 47.0298 55.8253V51.565C47.0298 50.3163 45.9427 49.2267 44.6967 49.2267H15.1731Z" fill="#2D3C58"/>
<path d="M44.6967 45.958H15.1731C12.9133 45.958 11.0078 44.0482 11.0078 41.7833V37.4006C11.0078 35.1357 12.9133 33.2259 15.1731 33.2259H44.6967C46.9565 33.2259 48.862 35.1357 48.862 37.4006V41.6609C48.862 44.0359 46.9932 45.958 44.6967 45.958ZM15.1731 35.0623C13.9272 35.0623 12.8401 36.1518 12.8401 37.4006V41.7833C12.8401 43.0321 13.9272 44.1216 15.1731 44.1216H44.6967C45.9671 44.1216 47.0298 42.9953 47.0298 41.6609V37.4006C47.0298 36.1518 45.9427 35.0623 44.6967 35.0623H15.1731Z" fill="#2D3C58"/>
<path d="M41.4478 42.7015C39.7743 42.7015 38.4062 41.3304 38.4062 39.6532C38.4062 37.9759 39.7743 36.6048 41.4478 36.6048C43.1212 36.6048 44.4893 37.9759 44.4893 39.6532C44.4893 41.3304 43.1212 42.7015 41.4478 42.7015ZM41.4478 38.4412C40.776 38.4412 40.2385 38.9798 40.2385 39.6532C40.2385 40.3265 40.776 40.8652 41.4478 40.8652C42.1196 40.8652 42.6571 40.3265 42.6571 39.6532C42.6571 38.9798 42.1074 38.4412 41.4478 38.4412Z" fill="#2D3C58"/>
<path d="M16.6756 40.5713H15.6739C15.1731 40.5713 14.7578 40.1551 14.7578 39.6532C14.7578 39.1512 15.1731 38.735 15.6739 38.735H16.6756C17.1764 38.735 17.5917 39.1512 17.5917 39.6532C17.5917 40.1551 17.1886 40.5713 16.6756 40.5713Z" fill="#2D3C58"/>
<path d="M20.9256 40.5713H19.9239C19.4231 40.5713 19.0078 40.1551 19.0078 39.6532C19.0078 39.1512 19.4231 38.735 19.9239 38.735H20.9256C21.4264 38.735 21.8417 39.1512 21.8417 39.6532C21.8417 40.1551 21.4386 40.5713 20.9256 40.5713Z" fill="#2D3C58"/>
<path d="M25.3133 40.5713H24.1896C23.6887 40.5713 23.2734 40.1551 23.2734 39.6532C23.2734 39.1512 23.6887 38.735 24.1896 38.735H25.3133C25.8142 38.735 26.2295 39.1512 26.2295 39.6532C26.2295 40.1551 25.8142 40.5713 25.3133 40.5713Z" fill="#2D3C58"/>
<path d="M29.5662 40.5713H28.5646C28.0637 40.5713 27.6484 40.1551 27.6484 39.6532C27.6484 39.1512 28.0637 38.735 28.5646 38.735H29.5662C30.067 38.735 30.4823 39.1512 30.4823 39.6532C30.4823 40.1551 30.067 40.5713 29.5662 40.5713Z" fill="#2D3C58"/>
<path d="M33.9383 40.5713H32.8146C32.3137 40.5713 31.8984 40.1551 31.8984 39.6532C31.8984 39.1512 32.3137 38.735 32.8146 38.735H33.9383C34.4392 38.735 34.8545 39.1512 34.8545 39.6532C34.8545 40.1551 34.4514 40.5713 33.9383 40.5713Z" fill="#2D3C58"/>
<path d="M16.6739 49.2267C16.1731 49.2267 15.7578 48.8104 15.7578 48.3085V45.052C15.7578 44.5501 16.1731 44.1339 16.6739 44.1339C17.1748 44.1339 17.5901 44.5501 17.5901 45.052V48.3085C17.5901 48.8104 17.187 49.2267 16.6739 49.2267Z" fill="#2D3C58"/>
<path d="M43.1896 49.2267C42.6887 49.2267 42.2734 48.8104 42.2734 48.3085V45.052C42.2734 44.5501 42.6887 44.1339 43.1896 44.1339C43.6904 44.1339 44.1057 44.5501 44.1057 45.052V48.3085C44.1057 48.8104 43.7026 49.2267 43.1896 49.2267Z" fill="#2D3C58"/>
</g>
<defs>
<clipPath id="clip0_1003_4429">
<rect width="60" height="60" fill="white"/>
</clipPath>
</defs>
</svg>
