<svg width="55" height="55" viewBox="0 0 55 55" fill="none" xmlns="http://www.w3.org/2000/svg">
<rect width="55" height="55" rx="4" fill="#CCE4FF"/>
<path d="M45.543 26.5276H44.2175V24.6873C43.2978 2.43821 11.5886 2.43691 10.6687 24.6874V26.5276H9.3432C8.48741 26.5284 7.66691 26.8687 7.06174 27.4738C6.45657 28.0789 6.11617 28.8994 6.11523 29.7552V33.7155C6.11614 34.5713 6.45651 35.3919 7.06166 35.9971C7.66682 36.6023 8.48734 36.9428 9.3432 36.9438H10.6687V40.6713C10.6699 41.7299 11.091 42.7449 11.8396 43.4935C12.5881 44.2421 13.6031 44.6631 14.6618 44.6643H21.4602C21.6046 45.127 21.8927 45.5316 22.2827 45.8195C22.6727 46.1073 23.1443 46.2634 23.629 46.2651H26.8417C29.8781 46.1981 29.8763 41.6044 26.8416 41.5394H23.629C23.1442 41.541 22.6725 41.6972 22.2824 41.9852C21.8924 42.2732 21.6043 42.678 21.4599 43.1409H14.6618C14.007 43.1402 13.3793 42.8798 12.9163 42.4168C12.4533 41.9538 12.1929 41.326 12.1922 40.6713V38.9451C14.3088 40.3024 17.424 38.8396 17.3764 36.2155L17.3765 27.2558C17.3742 26.811 17.2806 26.3713 17.1016 25.9641C16.9226 25.5568 16.662 25.1906 16.3359 24.8881C16.0097 24.5856 15.625 24.3532 15.2054 24.2053C14.7859 24.0574 14.3405 23.9971 13.8967 24.0282C13.2962 24.0302 12.7084 24.2012 12.2005 24.5218C12.242 20.5065 13.8662 16.6698 16.7203 13.8451C19.5743 11.0204 23.4276 9.43597 27.4431 9.43597C31.4586 9.43596 35.3119 11.0204 38.1659 13.8451C41.02 16.6697 42.6442 20.5064 42.6857 24.5217C42.1778 24.2012 41.59 24.0302 40.9895 24.0282C40.5457 23.9971 40.1003 24.0574 39.6808 24.2053C39.2612 24.3532 38.8765 24.5856 38.5503 24.8881C38.2242 25.1906 37.9636 25.5568 37.7846 25.9641C37.6056 26.3713 37.512 26.811 37.5097 27.2558V36.2156C37.5424 37.0206 37.8626 37.7872 38.4122 38.3762C38.9619 38.9652 39.7046 39.3376 40.5054 39.4257C41.3062 39.5138 42.1121 39.3118 42.7767 38.8564C43.4412 38.401 43.9205 37.7224 44.1274 36.9438L45.543 36.9438C46.3989 36.9428 47.2194 36.6024 47.8246 35.9971C48.4297 35.3919 48.7701 34.5713 48.771 33.7155V29.7552C48.7701 28.8994 48.4297 28.0789 47.8245 27.4738C47.2193 26.8687 46.3988 26.5284 45.543 26.5276ZM10.6687 35.4204H9.3432C8.89123 35.4198 8.45793 35.24 8.13837 34.9204C7.81881 34.6008 7.6391 34.1674 7.63865 33.7155V29.7552C7.63925 29.3033 7.81904 28.8701 8.13859 28.5507C8.45813 28.2312 8.89135 28.0515 9.3432 28.051H10.6687V35.4204ZM23.629 43.0628H26.8417C26.9547 43.0653 27.0659 43.092 27.1676 43.1412C27.2694 43.1903 27.3595 43.2607 27.4317 43.3477C27.5039 43.4347 27.5566 43.5361 27.5862 43.6452C27.6158 43.7543 27.6217 43.8684 27.6034 43.98C27.6032 44.1819 27.5229 44.3755 27.3801 44.5183C27.2373 44.6612 27.0437 44.7415 26.8417 44.7417H23.629C23.516 44.7392 23.4048 44.7124 23.3031 44.6633C23.2013 44.6141 23.1113 44.5437 23.039 44.4567C22.9668 44.3698 22.9141 44.2683 22.8845 44.1593C22.8549 44.0502 22.849 43.936 22.8673 43.8245C22.8675 43.6225 22.9478 43.4289 23.0906 43.2861C23.2334 43.1433 23.427 43.063 23.629 43.0628ZM13.8967 25.5516C14.1397 25.5213 14.3863 25.5426 14.6205 25.6141C14.8547 25.6856 15.0712 25.8057 15.2558 25.9665C15.4404 26.1273 15.589 26.3253 15.6919 26.5474C15.7949 26.7696 15.8498 27.011 15.8531 27.2558V36.2156C15.8338 38.4897 12.212 38.4927 12.1922 36.2155C12.1863 36.2027 12.1963 27.3099 12.1922 27.2893C12.1882 27.0628 12.2293 26.8377 12.3131 26.6273C12.3969 26.4168 12.5218 26.2251 12.6805 26.0634C12.8391 25.9017 13.0283 25.7731 13.2372 25.6853C13.446 25.5974 13.6702 25.552 13.8967 25.5516ZM42.6941 36.2156C42.6908 36.4604 42.6359 36.7018 42.5329 36.9239C42.43 37.1461 42.2814 37.3441 42.0968 37.5049C41.9121 37.6657 41.6957 37.7858 41.4615 37.8573C41.2273 37.9287 40.9807 37.95 40.7377 37.9197C40.2859 37.9192 39.8526 37.7395 39.5331 37.4201C39.2135 37.1006 39.0338 36.6674 39.0332 36.2156V27.2558C39.0338 26.804 39.2136 26.3708 39.5331 26.0513C39.8526 25.7318 40.2859 25.5521 40.7377 25.5516C40.9835 25.521 41.2329 25.5432 41.4694 25.6166C41.7059 25.6901 41.9241 25.8132 42.1092 25.9776C42.2944 26.1421 42.4423 26.3442 42.5432 26.5703C42.644 26.7965 42.6955 27.0416 42.6941 27.2893C42.6941 27.2893 42.6996 36.1834 42.6941 36.2156ZM47.2476 33.7155C47.2471 34.1674 47.0674 34.6008 46.7479 34.9204C46.4283 35.24 45.995 35.4198 45.543 35.4204H44.2175C44.22 33.6312 44.2157 29.8123 44.2175 28.051H45.5431C45.9949 28.0515 46.4281 28.2312 46.7477 28.5507C47.0672 28.8701 47.247 29.3033 47.2476 29.7552V33.7155Z" fill="#2D3C58"/>
<path d="M27.4421 18.1633C25.9937 18.162 24.5777 18.5924 23.3752 19.3996C22.1726 20.2069 21.2379 21.3543 20.6906 22.6953C20.1432 24.0363 20.0081 25.51 20.3023 26.9282C20.5966 28.3463 21.3069 29.6446 22.3425 30.6572V34.9232C22.3449 35.0723 22.3906 35.2175 22.4741 35.341C22.5577 35.4646 22.6755 35.561 22.813 35.6187C22.9506 35.6763 23.1019 35.6925 23.2486 35.6655C23.3952 35.6384 23.5308 35.5691 23.6387 35.4662L26.4698 32.6797C27.4595 32.813 28.4659 32.7415 29.4268 32.4698C30.3876 32.1981 31.2825 31.7319 32.0557 31.1001C32.829 30.4684 33.4643 29.6845 33.9221 28.7971C34.38 27.9097 34.6507 26.9377 34.7174 25.9413C34.7841 24.945 34.6455 23.9456 34.31 23.0051C33.9746 22.0645 33.4496 21.2029 32.7674 20.4737C32.0853 19.7444 31.2607 19.1631 30.3446 18.7657C29.4285 18.3682 28.4406 18.1632 27.4421 18.1633ZM26.3549 31.1169C26.2337 31.0939 26.1088 31.1006 25.9907 31.1364C25.8727 31.1721 25.765 31.2359 25.6769 31.3222L23.866 33.1045V30.3269C23.866 30.2196 23.8433 30.1134 23.7994 30.0155C23.7555 29.9175 23.6914 29.83 23.6112 29.7586C23.0035 29.2181 22.5168 28.5554 22.1829 27.8139C21.8491 27.0723 21.6756 26.2686 21.6738 25.4554C21.9435 17.8224 32.9403 17.8209 33.2103 25.4555C33.211 26.3052 33.0238 27.1446 32.662 27.9135C32.3002 28.6823 31.7728 29.3617 31.1176 29.9028C30.4624 30.4438 29.6956 30.8333 28.8722 31.0432C28.0488 31.2531 27.1892 31.2783 26.3549 31.1169Z" fill="#2D3C58"/>
<path d="M24.699 24.7896C24.489 24.7926 24.2886 24.8782 24.1412 25.0278C23.9938 25.1774 23.9111 25.379 23.9111 25.589C23.9111 25.799 23.9938 26.0006 24.1412 26.1502C24.2887 26.2998 24.4891 26.3853 24.6991 26.3884C24.9091 26.3853 25.1095 26.2998 25.2569 26.1502C25.4043 26.0006 25.487 25.799 25.487 25.5889C25.487 25.3789 25.4043 25.1773 25.2569 25.0277C25.1094 24.8781 24.909 24.7926 24.699 24.7896Z" fill="#2D3C58"/>
<path d="M27.4432 24.7896C27.2332 24.7926 27.0328 24.8782 26.8853 25.0278C26.7379 25.1774 26.6553 25.379 26.6553 25.589C26.6553 25.799 26.7379 26.0006 26.8854 26.1502C27.0328 26.2998 27.2332 26.3853 27.4432 26.3884C27.6532 26.3853 27.8536 26.2998 28.001 26.1502C28.1485 26.0006 28.2311 25.799 28.2311 25.5889C28.2311 25.3789 28.1485 25.1773 28.001 25.0277C27.8536 24.8781 27.6532 24.7926 27.4432 24.7896Z" fill="#2D3C58"/>
<path d="M30.1883 24.7896C29.9783 24.7926 29.7779 24.8782 29.6305 25.0278C29.483 25.1774 29.4004 25.379 29.4004 25.589C29.4004 25.799 29.4831 26.0006 29.6305 26.1502C29.7779 26.2998 29.9783 26.3853 30.1883 26.3884C30.3984 26.3853 30.5987 26.2998 30.7462 26.1502C30.8936 26.0006 30.9762 25.799 30.9762 25.5889C30.9762 25.3789 30.8936 25.1773 30.7461 25.0277C30.5987 24.8781 30.3983 24.7926 30.1883 24.7896Z" fill="#2D3C58"/>
</svg>
