<svg width="60" height="60" viewBox="0 0 60 60" fill="none" xmlns="http://www.w3.org/2000/svg">
<g clip-path="url(#clip0_950_2664)">
<path fill-rule="evenodd" clip-rule="evenodd" d="M26.1803 48.6986H4.04717C2.33552 48.6986 0.941406 47.3095 0.941406 45.5979V22.569C0.941406 20.8645 2.33552 19.4681 4.04717 19.4681H5.7567V13.5999C5.7567 6.57343 11.5066 0.823547 18.5329 0.823547C25.5595 0.823547 31.3043 6.57331 31.3043 13.5999C31.3043 14.1197 30.8829 14.5411 30.3632 14.5411H24.9466C24.4268 14.5411 24.0054 14.1197 24.0054 13.5999C24.0054 10.5941 21.5345 8.12237 18.5329 8.12237C15.5315 8.12237 13.0606 10.5941 13.0606 13.5999V19.4681H33.0188C34.7311 19.4681 36.1195 20.8639 36.1195 22.569V25.9827C37.9407 25.3212 39.9058 24.9604 41.9542 24.9604C51.3965 24.9604 59.0623 32.6263 59.0623 42.0684C59.0623 51.5106 51.3965 59.1765 41.9542 59.1765C34.8625 59.1765 28.7728 54.8521 26.1803 48.6986ZM7.63905 19.4681H11.1782V13.5999C11.1782 9.56072 14.4995 6.24002 18.5329 6.24002C22.2482 6.24002 25.3594 9.05743 25.8271 12.6587H29.3814C28.9007 7.10366 24.2072 2.7059 18.5329 2.7059C12.5418 2.7059 7.63905 7.60861 7.63905 13.5999V19.4681ZM34.2372 26.7981V22.569C34.2372 21.899 33.6916 21.3505 33.0188 21.3505H4.04717C3.37376 21.3505 2.82376 21.8984 2.82376 22.569V45.5979C2.82376 46.2713 3.37376 46.8163 4.04717 46.8163H25.5147C25.0794 45.3086 24.8462 43.7155 24.8462 42.0684C24.8462 35.4019 28.6674 29.621 34.2372 26.7981ZM41.9542 26.8427C33.5509 26.8427 26.7286 33.6651 26.7286 42.0684C26.7286 50.4717 33.5509 57.2941 41.9542 57.2941C50.3575 57.2941 57.18 50.4717 57.18 42.0684C57.18 33.6651 50.3575 26.8427 41.9542 26.8427ZM45.5688 41.7557C49.3319 43.1119 52.111 46.5258 52.5506 50.639C52.5789 50.9045 52.4932 51.1695 52.3147 51.3681C52.1362 51.5667 51.8818 51.6801 51.6147 51.6801H32.2938C32.0267 51.6801 31.7721 51.5667 31.5936 51.368C31.4152 51.1693 31.3295 50.9041 31.358 50.6385C31.7998 46.5252 34.5796 43.1115 38.3416 41.7554C36.9795 40.6818 36.1025 39.0175 36.1025 37.1552C36.1025 33.9315 38.7306 31.301 41.9542 31.301C45.1809 31.301 47.8086 33.9317 47.8086 37.1552C47.8086 39.0175 46.9316 40.682 45.5688 41.7557ZM41.9542 43.0095C37.7922 43.0095 34.3067 45.9085 33.4054 49.7978H50.5036C49.6045 45.9084 46.1185 43.0095 41.9542 43.0095ZM41.9542 41.1272C44.1435 41.1272 45.9262 39.3424 45.9262 37.1552C45.9262 34.9681 44.1435 33.1833 41.9542 33.1833C39.7673 33.1833 37.9848 34.9683 37.9848 37.1552C37.9848 39.3423 39.7673 41.1272 41.9542 41.1272ZM18.5329 24.9247C21.3775 24.9247 23.6832 27.2353 23.6832 30.0799C23.6832 31.7419 22.9022 33.2172 21.6839 34.1592V40.0912C21.6839 41.8274 20.262 43.242 18.5329 43.242C16.7968 43.242 15.3821 41.8274 15.3821 40.0912V34.1593C14.1629 33.2173 13.3779 31.7418 13.3779 30.0799C13.3779 27.2357 15.6888 24.9247 18.5329 24.9247ZM18.5329 26.8071C16.7273 26.8071 15.2602 28.2743 15.2602 30.0799C15.2602 31.2592 15.8832 32.2904 16.8173 32.8664C17.0953 33.0378 17.2645 33.341 17.2645 33.6675V40.0912C17.2645 40.7901 17.834 41.3597 18.5329 41.3597C19.2291 41.3597 19.8015 40.7901 19.8015 40.0912V33.6675C19.8015 33.341 19.9707 33.0378 20.2487 32.8664C21.1826 32.2905 21.8008 31.259 21.8008 30.0799C21.8008 28.2745 20.3383 26.8071 18.5329 26.8071Z" fill="#2D3C58"/>
</g>
<defs>
<clipPath id="clip0_950_2664">
<rect width="60" height="60" fill="white"/>
</clipPath>
</defs>
</svg>
