<svg width="32" height="40" viewBox="0 0 32 40" fill="none" xmlns="http://www.w3.org/2000/svg">
<path d="M29.8687 12.3126C29.3187 11.8251 28.7437 11.3251 28.6 10.8876C28.4437 10.4126 28.6187 9.64382 28.7812 8.90007C29.0312 7.78757 29.2875 6.63132 28.6625 5.78132C28.0312 4.91882 26.85 4.80632 25.7062 4.70007C24.9562 4.63132 24.1812 4.55632 23.7812 4.26882C23.3937 3.98757 23.0875 3.27507 22.7937 2.59382C22.3375 1.53132 21.8625 0.431324 20.8312 0.100074C19.8438 -0.224926 18.8375 0.375074 17.8625 0.950074C17.2062 1.33132 16.5187 1.73757 16 1.73757C15.4812 1.73757 14.7938 1.33132 14.1313 0.937574C13.1563 0.362574 12.15 -0.231176 11.1625 0.0875744C10.1313 0.425074 9.65625 1.51882 9.2 2.58132C8.90625 3.26882 8.6 3.97507 8.2125 4.25632C7.81875 4.54382 7.0375 4.61882 6.2875 4.68757C5.14375 4.79382 3.9625 4.90632 3.33125 5.76882C2.70625 6.62507 2.9625 7.77507 3.2125 8.89382C3.375 9.63757 3.55 10.4001 3.39375 10.8813C3.25 11.3251 2.68125 11.8251 2.125 12.3063C1.2875 13.0376 0.34375 13.8688 0.34375 14.9751C0.34375 16.0751 1.29375 16.9063 2.125 17.6438C2.675 18.1313 3.25 18.6313 3.39375 19.0688C3.55 19.5438 3.375 20.3126 3.2125 21.0563C2.9625 22.1688 2.70625 23.3251 3.33125 24.1751C3.9625 25.0376 5.14375 25.1501 6.2875 25.2563C6.36875 25.2626 6.45 25.2688 6.5375 25.2813L2.3 36.8251C2.225 37.0313 2.26875 37.2626 2.4125 37.4313C2.55625 37.6001 2.78125 37.6751 2.99375 37.6251L6.74375 36.8251L9.24375 39.7751C9.3625 39.9126 9.53125 39.9876 9.70625 39.9876C9.74375 39.9876 9.775 39.9876 9.8125 39.9751C10.025 39.9376 10.2 39.7876 10.275 39.5876L14.125 29.0251H14.1313C14.7938 28.6313 15.4812 28.2251 16 28.2251C16.5187 28.2251 17.2063 28.6313 17.8688 29.0251L21.7188 39.6063C21.7938 39.8063 21.9688 39.9563 22.1812 39.9938C22.2188 40.0001 22.25 40.0063 22.2875 40.0063C22.4625 40.0063 22.6312 39.9313 22.75 39.7938L25.2563 36.8438L29 37.6438C29.2125 37.6876 29.4375 37.6126 29.5812 37.4501C29.725 37.2813 29.7687 37.0501 29.6937 36.8438L25.4625 25.3001C25.5437 25.2938 25.625 25.2876 25.7062 25.2751C26.85 25.1688 28.0312 25.0563 28.6625 24.1938C29.2875 23.3376 29.0312 22.1876 28.7812 21.0688C28.6187 20.3251 28.4437 19.5626 28.6 19.0813C28.7437 18.6376 29.3125 18.1376 29.8687 17.6563C30.7062 16.9251 31.65 16.0938 31.65 14.9876C31.65 13.8751 30.7062 13.0438 29.8687 12.3126ZM9.5 38.2063L7.44375 35.7751C7.3 35.6063 7.075 35.5251 6.85625 35.5751L3.825 36.2188L7.7625 25.4876C7.94375 25.5438 8.1 25.6063 8.21875 25.6938C8.60625 25.9751 8.9125 26.6876 9.20625 27.3688C9.6625 28.4313 10.1375 29.5313 11.1687 29.8626C11.6312 30.0126 12.0938 29.9563 12.5563 29.8063L9.5 38.2063ZM28.1813 36.2188L25.1562 35.5751C24.9375 35.5313 24.7125 35.6063 24.5687 35.7751L22.5062 38.2063L19.45 29.8126C19.7188 29.9001 19.9875 29.9563 20.2563 29.9563C20.45 29.9563 20.6438 29.9313 20.8375 29.8688C21.8687 29.5313 22.3438 28.4376 22.8 27.3751C23.0938 26.6876 23.4 25.9813 23.7875 25.7001C23.9062 25.6126 24.0688 25.5438 24.25 25.4938L28.1813 36.2188ZM29.0687 16.7376C28.3937 17.3313 27.6938 17.9438 27.4438 18.7001C27.1875 19.4938 27.3937 20.4251 27.5938 21.3251C27.7812 22.1751 27.9812 23.0563 27.6812 23.4688C27.375 23.8938 26.4687 23.9751 25.5937 24.0563C24.6812 24.1438 23.7375 24.2313 23.0688 24.7126C22.4125 25.1876 22.0375 26.0563 21.6812 26.8876C21.3312 27.7001 20.9688 28.5438 20.4625 28.7126C20.0312 28.8501 19.3437 28.4813 18.6625 28.0751C18.6437 28.0626 18.625 28.0501 18.6 28.0376C18.5625 28.0126 18.525 27.9938 18.4875 27.9688C17.6812 27.5001 16.85 27.0126 16 27.0126C15.15 27.0126 14.3187 27.5063 13.5125 27.9813C13.475 28.0063 13.4375 28.0251 13.3938 28.0501C13.375 28.0563 13.3563 28.0751 13.3375 28.0813C12.65 28.4813 11.9688 28.8563 11.5313 28.7188C11.025 28.5563 10.6625 27.7126 10.3125 26.8938C9.95625 26.0563 9.58125 25.1938 8.925 24.7188C8.2625 24.2376 7.3125 24.1438 6.4 24.0626C5.525 23.9813 4.61875 23.8938 4.3125 23.4751C4.0125 23.0626 4.20625 22.1813 4.4 21.3313C4.6 20.4313 4.80625 19.5001 4.55 18.7063C4.30625 17.9501 3.60625 17.3376 2.925 16.7438C2.25 16.1501 1.55625 15.5438 1.55625 14.9876C1.55625 14.4313 2.25 13.8251 2.925 13.2313C3.6 12.6376 4.3 12.0251 4.55 11.2688C4.80625 10.4751 4.6 9.54382 4.4 8.64382C4.2125 7.79382 4.0125 6.91257 4.3125 6.50007C4.61875 6.07507 5.525 5.99382 6.4 5.91257C7.3125 5.82507 8.25625 5.73757 8.925 5.25632C9.58125 4.78132 9.95625 3.91257 10.3125 3.08132C10.6625 2.26882 11.025 1.42507 11.5313 1.25632C12 1.10632 12.7688 1.55632 13.5063 1.99382C14.3125 2.46882 15.1438 2.96257 15.9938 2.96257C16.8438 2.96257 17.675 2.46882 18.4813 1.99382C19.225 1.55632 19.9937 1.10007 20.4562 1.25632C20.9625 1.41882 21.325 2.26257 21.675 3.08132C22.0375 3.91882 22.4062 4.78132 23.0625 5.25632C23.725 5.73757 24.675 5.83132 25.5875 5.91257C26.4625 5.99382 27.3687 6.08132 27.675 6.50007C27.975 6.91257 27.7812 7.79382 27.5875 8.64382C27.3875 9.54382 27.1812 10.4751 27.4375 11.2688C27.6812 12.0251 28.3812 12.6376 29.0562 13.2313C29.7312 13.8251 30.425 14.4313 30.425 14.9876C30.4375 15.5313 29.7437 16.1438 29.0687 16.7376Z" fill="#2D3C58"/>
<path d="M16.0004 5.4126C10.7254 5.4126 6.43164 9.70635 6.43164 14.9813C6.43164 20.2563 10.7254 24.5501 16.0004 24.5501C21.2754 24.5501 25.5691 20.2563 25.5691 14.9813C25.5691 9.70635 21.2754 5.4126 16.0004 5.4126ZM16.0004 23.3376C11.3941 23.3376 7.64414 19.5876 7.64414 14.9813C7.64414 10.3751 11.3941 6.6251 16.0004 6.6251C20.6066 6.6251 24.3566 10.3751 24.3566 14.9813C24.3566 19.5876 20.6066 23.3376 16.0004 23.3376Z" fill="#2D3C58"/>
<path d="M19.8066 11.5126L14.1566 17.1626L12.2004 15.2063C11.9629 14.9688 11.5816 14.9688 11.3441 15.2063C11.1066 15.4438 11.1066 15.8251 11.3441 16.0626L13.7316 18.4501C13.8441 18.5626 14.0004 18.6251 14.1629 18.6251C14.3254 18.6251 14.4754 18.5626 14.5941 18.4501L20.6754 12.3688C20.9129 12.1313 20.9129 11.7501 20.6754 11.5126C20.4254 11.2751 20.0379 11.2751 19.8066 11.5126Z" fill="#2D3C58"/>
</svg>
