<svg width="58" height="58" viewBox="0 0 58 58" fill="none" xmlns="http://www.w3.org/2000/svg">
<path d="M31.8125 6.5H26.1875C25.67 6.5 25.25 6.08 25.25 5.5625C25.25 5.045 25.67 4.625 26.1875 4.625H31.8125C32.33 4.625 32.75 5.045 32.75 5.5625C32.75 6.08 32.33 6.5 31.8125 6.5Z" fill="#2D3C58"/>
<path d="M39.3125 57.125H18.6875C16.1019 57.125 14 55.0213 14 52.4375V20.5625C14 20.045 14.42 19.625 14.9375 19.625C15.455 19.625 15.875 20.045 15.875 20.5625V52.4375C15.875 53.9881 17.1369 55.25 18.6875 55.25H39.3125C40.8631 55.25 42.125 53.9881 42.125 52.4375V20.5625C42.125 20.045 42.545 19.625 43.0625 19.625C43.58 19.625 44 20.045 44 20.5625V52.4375C44 55.0213 41.8981 57.125 39.3125 57.125Z" fill="#2D3C58"/>
<path d="M43.0625 27.125C42.545 27.125 42.125 26.705 42.125 26.1875V5.5625C42.125 4.01187 40.8631 2.75 39.3125 2.75H18.6875C17.1369 2.75 15.875 4.01187 15.875 5.5625V26.1875C15.875 26.705 15.455 27.125 14.9375 27.125C14.42 27.125 14 26.705 14 26.1875V5.5625C14 2.97875 16.1019 0.875 18.6875 0.875H39.3125C41.8981 0.875 44 2.97875 44 5.5625V26.1875C44 26.705 43.58 27.125 43.0625 27.125Z" fill="#2D3C58"/>
<path d="M48.6875 10.3438C48.17 10.3438 47.75 10.0175 47.75 9.5V9.3125C47.75 8.795 48.17 8.375 48.6875 8.375C49.205 8.375 49.625 8.795 49.625 9.3125C49.625 9.83 49.205 10.3438 48.6875 10.3438Z" fill="#2D3C58"/>
<path d="M48.6875 14.0938C48.17 14.0938 47.75 13.7675 47.75 13.25V13.0625C47.75 12.545 48.17 12.125 48.6875 12.125C49.205 12.125 49.625 12.545 49.625 13.0625C49.625 13.58 49.205 14.0938 48.6875 14.0938Z" fill="#2D3C58"/>
<path d="M48.6875 17.8438C48.17 17.8438 47.75 17.5175 47.75 17V16.8125C47.75 16.295 48.17 15.875 48.6875 15.875C49.205 15.875 49.625 16.295 49.625 16.8125C49.625 17.33 49.205 17.8438 48.6875 17.8438Z" fill="#2D3C58"/>
<path d="M9.3125 42.0313C8.795 42.0313 8.375 41.705 8.375 41.1875V41C8.375 40.4825 8.795 40.0625 9.3125 40.0625C9.83 40.0625 10.25 40.4825 10.25 41C10.25 41.5175 9.83 42.0313 9.3125 42.0313Z" fill="#2D3C58"/>
<path d="M9.3125 45.7813C8.795 45.7813 8.375 45.455 8.375 44.9375V44.75C8.375 44.2325 8.795 43.8125 9.3125 43.8125C9.83 43.8125 10.25 44.2325 10.25 44.75C10.25 45.2675 9.83 45.7813 9.3125 45.7813Z" fill="#2D3C58"/>
<path d="M9.3125 49.5313C8.795 49.5313 8.375 49.205 8.375 48.6875V48.5C8.375 47.9825 8.795 47.5625 9.3125 47.5625C9.83 47.5625 10.25 47.9825 10.25 48.5C10.25 49.0175 9.83 49.5313 9.3125 49.5313Z" fill="#2D3C58"/>
<path d="M45.5769 49.625C45.5112 49.625 45.4438 49.6194 45.3781 49.6044C44.8719 49.4956 44.5512 48.9969 44.66 48.4906L45.2787 45.6219C45.3537 45.2694 45.6256 44.9938 45.9744 44.9094C46.8594 44.6956 47.7219 44.3356 48.5375 43.8387C48.8394 43.6512 49.2275 43.6569 49.5294 43.8481L51.3856 45.035L52.535 43.8762L51.3481 42.035C51.1531 41.7331 51.1494 41.345 51.335 41.0394C51.8319 40.2237 52.1919 39.3613 52.4038 38.4763C52.4881 38.1275 52.7619 37.8575 53.1125 37.7787L55.25 37.3044V35.6975L53.1144 35.2231C52.7638 35.1444 52.49 34.8744 52.4056 34.5256C52.1937 33.6406 51.8319 32.7781 51.3369 31.9625C51.1494 31.6569 51.1531 31.2706 51.3481 30.9687L52.5369 29.1106L51.3894 27.9631L49.5313 29.1519C49.2294 29.345 48.8431 29.3488 48.5394 29.1613C47.7219 28.6644 46.8594 28.3044 45.9763 28.0906C45.6256 28.0063 45.3556 27.7288 45.2806 27.3781L44.8194 25.25H44C43.4825 25.25 43.0625 24.83 43.0625 24.3125C43.0625 23.795 43.4825 23.375 44 23.375H45.575C46.0156 23.375 46.3981 23.6844 46.49 24.1156L46.9906 26.4275C47.6769 26.6356 48.35 26.9169 48.9988 27.2675L51.0125 25.9794C51.3837 25.7431 51.8675 25.7956 52.1806 26.1069L54.395 28.3194C54.7063 28.6306 54.7587 29.1163 54.5206 29.4875L53.2325 31.5012C53.5831 32.1519 53.8644 32.825 54.0725 33.5131L56.3881 34.0269C56.8194 34.1225 57.125 34.505 57.125 34.9438V38.0562C57.125 38.495 56.8194 38.8775 56.39 38.9713L54.0744 39.485C53.8662 40.1731 53.585 40.8462 53.2344 41.495L54.5206 43.49C54.7606 43.8594 54.71 44.3469 54.3987 44.6581L52.1844 46.8894C51.8712 47.2025 51.3856 47.255 51.0144 47.0188L49.0006 45.7306C48.35 46.0813 47.6788 46.3625 46.9925 46.5706L46.4919 48.8825C46.3963 49.325 46.0062 49.625 45.5769 49.625Z" fill="#2D3C58"/>
<path d="M46.6064 41.3337C46.3064 41.3337 46.0101 41.1875 45.8282 40.9194C45.5395 40.49 45.6539 39.9069 46.0851 39.6181C47.1257 38.9169 47.7482 37.7506 47.7482 36.5C47.7482 34.4319 46.0664 32.75 43.9982 32.75C43.7432 32.75 43.4901 32.7763 43.2482 32.825C42.7457 32.9263 42.2451 32.6037 42.1401 32.0937C42.037 31.5856 42.3632 31.0906 42.8714 30.9875C43.2389 30.9144 43.6176 30.875 43.9982 30.875C47.0995 30.875 49.6232 33.3987 49.6232 36.5C49.6232 38.3769 48.6914 40.1244 47.1276 41.1744C46.9682 41.2812 46.7864 41.3337 46.6064 41.3337Z" fill="#2D3C58"/>
<path d="M14 27.125C10.8987 27.125 8.375 24.6012 8.375 21.5C8.375 19.6156 9.3125 17.8662 10.8837 16.8162C11.3094 16.5312 11.8944 16.6437 12.1831 17.0769C12.47 17.5062 12.3538 18.0894 11.9225 18.3762C10.8763 19.0775 10.25 20.2437 10.25 21.5C10.25 23.5681 11.9319 25.25 14 25.25C14.2512 25.25 14.4988 25.2256 14.735 25.1769C15.2319 25.0737 15.7362 25.4019 15.8394 25.9119C15.9425 26.42 15.6125 26.9131 15.1044 27.0144C14.7462 27.0875 14.3787 27.125 14 27.125Z" fill="#2D3C58"/>
<path d="M14 34.625H12.425C11.9844 34.625 11.6019 34.3156 11.51 33.8844L11.0094 31.5725C10.3231 31.3644 9.65 31.0831 9.00125 30.7325L6.9875 32.0206C6.61438 32.2569 6.1325 32.2063 5.81938 31.8931L3.605 29.6806C3.29375 29.3694 3.24125 28.8838 3.47937 28.5125L4.7675 26.4988C4.41687 25.8481 4.13563 25.175 3.9275 24.4869L1.61187 23.9731C1.18062 23.8775 0.875 23.495 0.875 23.0563V19.9438C0.875 19.505 1.18062 19.1225 1.61 19.0288L3.92563 18.515C4.13375 17.8269 4.415 17.1538 4.76562 16.505L3.48125 14.5081C3.24125 14.1388 3.29187 13.6513 3.60312 13.34L5.8175 11.1088C6.12687 10.7938 6.61438 10.7413 6.9875 10.9794L9.00125 12.2675C9.65188 11.9169 10.3231 11.6356 11.0094 11.4275L11.51 9.11564C11.6187 8.60751 12.1269 8.28501 12.6237 8.39751C13.13 8.50626 13.4506 9.00501 13.3419 9.51126L12.7231 12.38C12.6481 12.7325 12.3763 13.0081 12.0275 13.0925C11.1425 13.3063 10.28 13.6663 9.4625 14.1631C9.15875 14.3506 8.7725 14.345 8.47063 14.1538L6.61437 12.9669L5.46313 14.1256L6.65 15.9669C6.84687 16.2688 6.85063 16.6569 6.66313 16.9625C6.16625 17.7781 5.80625 18.6406 5.59438 19.5256C5.51 19.8744 5.23625 20.1444 4.88562 20.2231L2.75 20.6956V22.3025L4.88562 22.7769C5.23625 22.8556 5.51 23.1256 5.59438 23.4744C5.80625 24.3594 6.16812 25.2219 6.66313 26.0375C6.85063 26.3431 6.84687 26.7294 6.65187 27.0313L5.46313 28.8875L6.61063 30.035L8.46875 28.8463C8.77063 28.655 9.15875 28.6513 9.46062 28.8369C10.2781 29.3338 11.1406 29.6938 12.0238 29.9075C12.3744 29.9919 12.6444 30.2694 12.7194 30.62L13.1806 32.75H14C14.5175 32.75 14.9375 33.17 14.9375 33.6875C14.9375 34.205 14.5175 34.625 14 34.625Z" fill="#2D3C58"/>
<path d="M28.0627 33.6875C27.9877 33.6875 27.9127 33.6781 27.8358 33.6594C27.3315 33.5338 27.0277 33.0256 27.1533 32.5231L29.0283 25.0231C29.1521 24.5188 29.6527 24.215 30.1646 24.3406C30.669 24.4663 30.9727 24.9744 30.8471 25.4769L28.9721 32.9769C28.8671 33.4044 28.4846 33.6875 28.0627 33.6875Z" fill="#2D3C58"/>
<path d="M33.688 33.6875C33.448 33.6875 33.208 33.5956 33.0242 33.4137C32.6586 33.0481 32.6586 32.4537 33.0242 32.0881L36.1123 29L33.0261 25.9137C32.6605 25.5481 32.6605 24.9537 33.0261 24.5881C33.3917 24.2225 33.9861 24.2225 34.3517 24.5881L38.1017 28.3381C38.4673 28.7037 38.4673 29.2981 38.1017 29.6637L34.3517 33.4137C34.168 33.5956 33.928 33.6875 33.688 33.6875Z" fill="#2D3C58"/>
<path d="M24.313 33.6875C24.073 33.6875 23.833 33.5956 23.6492 33.4137L19.8992 29.6637C19.5336 29.2981 19.5336 28.7037 19.8992 28.3381L23.6492 24.5881C24.0148 24.2225 24.6092 24.2225 24.9748 24.5881C25.3405 24.9537 25.3405 25.5481 24.9748 25.9137L21.8886 29L24.9748 32.0862C25.3405 32.4519 25.3405 33.0462 24.9748 33.4119C24.793 33.5956 24.553 33.6875 24.313 33.6875Z" fill="#2D3C58"/>
</svg>
