<svg width="30" height="30" viewBox="0 0 30 30" fill="none" xmlns="http://www.w3.org/2000/svg">
<path fill-rule="evenodd" clip-rule="evenodd" d="M22.5 7.5H26.25C26.7471 7.50057 27.2237 7.6983 27.5752 8.04981C27.9267 8.40131 28.1244 8.87789 28.125 9.375V26.25C28.1244 26.7471 27.9267 27.2237 27.5752 27.5752C27.2237 27.9267 26.7471 28.1244 26.25 28.125H9.375C8.87789 28.1244 8.40131 27.9267 8.04981 27.5752C7.6983 27.2237 7.50057 26.7471 7.5 26.25V22.5H3.75C3.25289 22.4994 2.77631 22.3017 2.42481 21.9502C2.0733 21.5987 1.87557 21.1221 1.875 20.625V3.75C1.87557 3.25289 2.0733 2.77631 2.42481 2.42481C2.77631 2.0733 3.25289 1.87557 3.75 1.875H20.625C21.1221 1.87557 21.5987 2.0733 21.9502 2.42481C22.3017 2.77631 22.4994 3.25289 22.5 3.75V7.5ZM9.375 26.25H26.25V9.375H22.5V13.125H20.625V9.375H16.875V7.5H20.625V3.75H3.75V20.625H7.5V16.875H9.375V20.625H13.125V22.5H9.375V26.25ZM9.375 13.125H7.5V9.375C7.50055 8.87789 7.69827 8.40129 8.04978 8.04978C8.40129 7.69827 8.87789 7.50055 9.375 7.5H13.125V9.375H9.375V13.125ZM20.625 22.5H16.875V20.625H20.625V16.875H22.5V20.625C22.4995 21.1221 22.3018 21.5987 21.9502 21.9502C21.5987 22.3018 21.1221 22.4995 20.625 22.5Z" fill="white"/>
</svg>
