<svg width="32" height="30" viewBox="0 0 32 30" fill="none" xmlns="http://www.w3.org/2000/svg">
<path d="M23.1035 12.9727C23.8626 12.4628 24.4069 11.7022 24.6469 10.8046C24.9093 9.82345 24.7762 8.80139 24.2723 7.92665C23.7683 7.05191 22.9517 6.42539 21.9728 6.16246C21.0771 5.92197 20.1477 6.01408 19.3275 6.41804L17.2144 2.74987C16.7646 1.96898 15.9566 1.51384 15.0595 1.52917C14.1601 1.54567 13.3718 2.03117 12.9506 2.82789C12.6548 3.38764 12.3771 3.96909 12.083 4.58473C10.8845 7.09383 9.52607 9.9377 6.58932 11.637L2.81573 13.8205C1.51678 14.572 0.586355 15.7905 0.195752 17.2513C-0.19479 18.7121 0.00310267 20.2336 0.753034 21.5353C1.79561 23.3451 3.69372 24.3581 5.64286 24.3581C6.35374 24.3581 7.07135 24.223 7.75681 23.9431L10.3949 28.5225C10.9407 29.4699 11.9341 30 12.9544 30C13.4544 30 13.961 29.8726 14.4243 29.6045C15.1046 29.2109 15.5918 28.5732 15.7961 27.8088C16.0004 27.0444 15.8967 26.248 15.504 25.5662L12.9082 21.0602C15.6411 19.7581 18.5098 19.9791 21.0638 20.1769C21.7434 20.2296 22.3853 20.2793 23.0173 20.3025C23.9151 20.3347 24.7301 19.8939 25.194 19.1214C25.6579 18.3489 25.6664 17.4216 25.2166 16.6407L23.1034 12.9725L23.1035 12.9727ZM21.5736 7.65537C22.1547 7.81141 22.6388 8.18217 22.9367 8.69944C23.512 9.69795 23.2332 10.9591 22.3297 11.6294L20.1014 7.76133C20.5626 7.56059 21.0765 7.52183 21.5736 7.65537H21.5736ZM5.64033 22.8129C4.22473 22.8128 2.8459 22.0771 2.08869 20.7626C1.54473 19.8184 1.40149 18.7134 1.6855 17.6513C1.96944 16.5893 2.64473 15.7042 3.58688 15.159L6.69302 13.3617L10.7899 20.4647L7.68001 22.2642C7.03699 22.6362 6.33437 22.813 5.64033 22.8129ZM14.3066 27.4089C14.2089 27.7745 13.9768 28.0789 13.6533 28.2661C12.9812 28.655 12.1186 28.4234 11.7305 27.7498L9.11881 23.2162L11.5568 21.8056L14.1685 26.3391C14.3552 26.6633 14.4043 27.0432 14.3065 27.4089H14.3066ZM23.8728 18.3244C23.6974 18.6165 23.4146 18.7711 23.0737 18.758C22.473 18.736 21.8463 18.6874 21.1827 18.636C18.3956 18.4202 15.2617 18.1781 12.1388 19.7149L8.01535 12.5659C10.9082 10.6217 12.2666 7.77994 13.474 5.25217C13.7611 4.65106 14.0324 4.08328 14.3134 3.55135C14.4726 3.25008 14.7476 3.08075 15.0877 3.07457C15.0941 3.07444 15.1006 3.07438 15.107 3.07438C15.4384 3.07438 15.712 3.23308 15.8789 3.52272L23.8812 17.4138C24.0512 17.709 24.0483 18.0324 23.8728 18.3245L23.8728 18.3244ZM21.8697 3.15079L23.4621 0.386549C23.6751 0.0169067 24.1466 -0.109769 24.5154 0.103707C24.8843 0.317121 25.0106 0.78976 24.7977 1.15934L23.2053 3.92359C23.0625 4.1715 22.8032 4.31011 22.5368 4.31011C22.4059 4.31011 22.2734 4.27672 22.152 4.20643C21.7831 3.99301 21.6568 3.52037 21.8697 3.15079ZM29.0287 6.06675L26.2038 7.70136C26.0824 7.7716 25.9498 7.80504 25.819 7.80504C25.5525 7.80504 25.2934 7.66643 25.1505 7.41852C24.9376 7.04888 25.064 6.57624 25.4327 6.36289L28.2576 4.72828C28.6263 4.5148 29.098 4.64154 29.3109 5.01112C29.5239 5.3807 29.3975 5.8534 29.0287 6.06675ZM31.1538 11.627C31.1538 12.0538 30.8086 12.3998 30.3828 12.3998H27.1978C26.772 12.3998 26.4268 12.0539 26.4268 11.627C26.4268 11.2002 26.772 10.8542 27.1978 10.8542H30.3828C30.8086 10.8542 31.1538 11.2002 31.1538 11.627Z" fill="white"/>
</svg>
