<svg width="60" height="60" viewBox="0 0 60 60" fill="none" xmlns="http://www.w3.org/2000/svg">
<mask id="mask0_526_1242" style="mask-type:luminance" maskUnits="userSpaceOnUse" x="1" y="0" width="58" height="60">
<path d="M30.0611 59.098C45.9395 59.098 58.8116 46.0647 58.8116 29.9874C58.8116 13.91 45.9395 0.876709 30.0611 0.876709C14.1826 0.876709 1.31055 13.91 1.31055 29.9874C1.31055 46.0647 14.1826 59.098 30.0611 59.098Z" fill="white"/>
</mask>
<g mask="url(#mask0_526_1242)">
<path d="M30.0376 59.098C45.9161 59.098 58.7881 46.0647 58.7881 29.9874C58.7881 13.91 45.9161 0.876709 30.0376 0.876709C14.1592 0.876709 1.28711 13.91 1.28711 29.9874C1.28711 46.0647 14.1592 59.098 30.0376 59.098Z" fill="#33C6F4"/>
<path d="M59.6295 42.0374C46.4171 36.0249 32.8088 19.1146 31.6707 18.338C30.5326 17.5614 28.9985 18.5384 28.9985 18.5384C28.0336 16.9852 26.4996 18.7388 26.4996 18.7388C19.4233 30.9643 0.470703 42.6136 0.470703 42.6136C0.470703 42.6136 9.57586 59.5739 30.6315 59.5739C52.0089 59.5739 59.6295 42.0374 59.6295 42.0374Z" fill="#1B447E"/>
<path d="M17.1211 29.2108C17.1211 29.2108 20.9561 27.4571 20.1891 30.3882C19.4221 33.3193 16.3541 37.5532 17.319 37.7285C18.284 37.9039 20.9809 35.1983 21.7232 35.5991C22.4654 35.9999 23.0592 35.7995 22.6881 37.1523C22.317 38.5052 21.9211 39.4822 22.6881 39.4822C23.4551 39.4822 24.0242 37.7285 24.9891 35.9999C25.9541 34.2713 27.4881 35.0229 28.0572 35.5991C28.6262 36.1753 30.3582 39.4822 31.6943 39.0814C33.0304 38.6805 33.7974 36.9519 33.2283 33.0688C32.6592 29.1857 33.6242 28.0333 33.6242 28.0333C33.6242 28.0333 34.7623 27.4571 36.8902 30.1628C39.018 32.8684 42.8283 36.9519 43.3974 36.7515C43.9665 36.5511 40.7252 32.2922 41.4922 31.9164C42.2592 31.5406 45.3273 32.4926 46.8613 33.8454C46.8613 33.8454 47.3809 36.0751 47.3809 33.9457L31.6695 18.3381L28.9974 18.5386L26.4984 18.739C26.4984 18.739 20.3871 28.0333 17.1211 29.2108Z" fill="white"/>
<path d="M59.2825 43.4403C48.4701 38.5301 37.633 26.3046 33.0062 21.0938C32.1649 20.1418 31.3732 19.2399 31.1753 19.0896C30.5567 18.6637 29.468 19.3151 29.468 19.3151L28.7258 19.766L28.2557 19.0145C28.2309 18.9644 28.1072 18.789 28.033 18.789C27.8351 18.7639 27.4392 19.0395 27.2412 19.265C20.066 31.5155 1.70722 42.9142 0.915464 43.3902L0 41.8621C0.197938 41.7368 18.8536 30.1627 25.7567 18.2879L25.8062 18.2128L25.8557 18.1376C26.0289 17.9372 26.9938 16.9101 28.1814 17.0103C28.4784 17.0353 28.8495 17.1355 29.2206 17.4362C30.0619 17.1105 31.2 16.9351 32.1897 17.6115C32.4866 17.812 32.9567 18.313 34.3423 19.8913C38.8948 25.027 49.534 37.027 60.0247 41.812L59.2825 43.4403Z" fill="#221E1F"/>
</g>
<path d="M30.0618 60C13.7319 60 0.445347 46.547 0.445347 30.0125C0.420605 13.453 13.7072 0 30.0618 0C46.3917 0 59.6783 13.453 59.6783 29.9875C59.6783 46.5219 46.3917 60 30.0618 60ZM30.0618 1.80376C14.6969 1.80376 2.20205 14.4551 2.20205 29.9875C2.20205 45.5449 14.6969 58.1962 30.0618 58.1962C45.4268 58.1962 57.8969 45.5449 57.8969 29.9875C57.8969 14.4551 45.4021 1.80376 30.0618 1.80376Z" fill="#221E1F"/>
</svg>
