<svg width="60" height="60" viewBox="0 0 60 60" fill="none" xmlns="http://www.w3.org/2000/svg">
<path d="M59.2969 30.0083C59.2947 37.7769 56.2071 45.2265 50.7131 50.719C45.2191 56.2114 37.7686 59.2969 30 59.2969C22.2314 59.2969 14.7809 56.2114 9.28691 50.719C3.79292 45.2265 0.705323 37.7769 0.703126 30.0083C0.702038 26.1603 1.45902 22.3497 2.93084 18.7943C4.40266 15.2389 6.56048 12.0083 9.28105 9.28691C12.0016 6.56557 15.2317 4.40683 18.7867 2.93401C22.3417 1.46118 26.152 0.703125 30 0.703125C33.848 0.703125 37.6583 1.46118 41.2133 2.93401C44.7683 4.40683 47.9984 6.56557 50.7189 9.28691C53.4395 12.0083 55.5973 15.2389 57.0692 18.7943C58.541 22.3497 59.298 26.1603 59.2969 30.0083Z" fill="white"/>
<path d="M27.4816 0.0383221C19.6309 0.84797 12.7656 4.23974 7.79462 9.76504C3.5791 14.4369 1.14834 19.6778 0.195741 26.0674C-0.0670441 27.8837 -0.0670441 32.096 0.206691 33.9451C1.15929 40.5317 3.91854 46.1883 8.41874 50.8273C16.2804 58.9238 27.6349 61.9217 38.4967 58.7706C43.4021 57.3483 47.8913 54.6239 51.5813 50.8273C56.1034 46.1664 58.8845 40.4441 59.8043 33.8904C60.067 31.9975 60.067 27.8946 59.7933 26.0674C58.7969 19.2292 55.9501 13.485 51.2418 8.78033C46.5883 4.13033 40.9165 1.28562 34.2155 0.246205C33.1096 0.0711457 28.5218 -0.0710898 27.4816 0.0383221ZM34.1717 1.60291C45.4715 3.2988 54.6799 11.4609 57.702 22.4568C60.1765 31.4724 57.9976 41.2647 51.9207 48.4969C47.2343 54.055 40.38 57.6984 33.0987 58.4971C31.73 58.6503 28.27 58.6503 26.9013 58.4971C25.3684 58.333 23.2004 57.8953 21.777 57.4577C7.84937 53.2453 -0.69116 39.4813 1.70676 25.1593C2.15568 22.4349 2.96594 19.9732 4.26892 17.3145C7.66323 10.4106 13.6854 5.16974 20.9996 2.76268C23.3318 1.9968 25.0947 1.64668 28.0291 1.35127C29.0802 1.24185 32.803 1.39503 34.1717 1.60291Z" fill="#2D3C58"/>
<path d="M28.1384 4.34911C17.7803 5.115 8.84555 12.0517 5.59358 21.855C4.14826 26.2424 3.90737 31.1441 4.93661 35.7285C6.98415 44.8753 14.2545 52.4247 23.3097 54.7989C25.8609 55.4664 26.9996 55.5977 29.9998 55.5977C32.9999 55.5977 34.1386 55.4664 36.6899 54.7989C42.6901 53.2234 48.0553 49.3284 51.5482 44.0109C53.6614 40.7942 54.9972 37.1289 55.5228 33.1244C55.7418 31.4176 55.6871 27.5116 55.4133 25.9033C54.9534 23.2664 54.2308 21.0016 53.0592 18.6274C48.4495 9.25077 38.5513 3.58323 28.1384 4.34911ZM37.1169 9.72124C40.0732 10.2464 42.723 12.5769 43.7741 15.5967C44.0588 16.4282 44.1135 16.7345 44.1573 18.0256C44.2011 19.2838 44.1683 19.6558 43.9712 20.4327C43.2923 23.168 41.3762 25.4328 38.8578 26.4831C38.168 26.7786 37.3906 27.0083 37.3906 26.9317C37.3906 26.9099 37.5549 26.5488 37.7629 26.144C39.2739 23.1461 39.2739 19.4698 37.7629 16.4829C36.5585 14.0758 34.1058 11.9751 31.5874 11.1983C31.259 11.0889 30.9086 10.9795 30.821 10.9467C30.591 10.8701 31.6641 10.3339 32.7371 9.98383C34.1167 9.53524 35.5292 9.44771 37.1169 9.72124ZM30.4378 12.8395C33.8321 13.7585 36.3614 16.4829 36.9526 19.8528C37.1497 20.9578 37.0402 22.8944 36.7337 23.8791C35.9125 26.4613 34.3248 28.2666 31.8831 29.4044C30.6896 29.9624 29.6713 30.1703 28.215 30.1703C24.328 30.1703 21.0979 27.7961 19.8387 24.0104C19.5322 23.0914 19.4993 22.8726 19.4993 21.4721C19.4884 20.181 19.5322 19.809 19.7402 19.065C20.7147 15.717 23.4082 13.2881 26.8573 12.6644C27.5909 12.5222 29.6713 12.6316 30.4378 12.8395ZM44.1245 27.8727C47.4203 28.9121 49.424 31.4286 50.3109 35.6409C50.5408 36.7679 50.8255 39.8861 50.716 40.1706C50.6503 40.3238 50.3876 40.3456 48.7232 40.3456C47.6721 40.3456 46.8071 40.3128 46.8071 40.28C46.8071 39.8205 46.402 37.6979 46.1501 36.8554C45.0661 33.201 42.7011 30.4439 39.9418 29.6233C39.679 29.5467 39.471 29.4373 39.471 29.3935C39.471 29.3388 39.8214 28.9011 40.2594 28.4088L41.0477 27.5116L42.2084 27.5773C42.942 27.6101 43.6318 27.7195 44.1245 27.8727ZM25.4777 33.4527L28.3026 36.2427L29.31 35.258C29.8684 34.7219 31.3137 33.3104 32.5181 32.1288L34.708 29.9734L35.5292 30.0719C37.7957 30.3563 39.9528 31.341 41.5185 32.829C43.3799 34.5906 44.442 36.7788 44.891 39.7439C45.0552 40.838 45.1209 44.0547 44.9895 44.7112L44.9238 45.0503H28.2917C16.532 45.0503 11.6486 45.0175 11.6048 44.93C11.4515 44.7002 11.4077 41.6805 11.5391 40.4769C12.1851 34.3389 15.5247 30.6736 21.0213 30.0828C22.0834 29.9734 21.6235 29.6342 25.4777 33.4527Z" fill="#2D3C58"/>
</svg>
