<svg width="111" height="58" viewBox="0 0 111 58" fill="none" xmlns="http://www.w3.org/2000/svg">
<path d="M18.5112 40.4619C14.452 40.4619 11.1621 43.0788 11.1621 49.1953C11.1621 55.3139 14.4522 57.9286 18.5112 57.9286C22.5701 57.9286 25.8603 55.5658 25.8603 49.1953C25.8603 42.9092 22.5701 40.4619 18.5112 40.4619ZM18.5112 54.2596C17.0979 54.2596 15.95 52.7416 15.95 49.1953C15.95 45.6489 17.0979 44.1309 18.5112 44.1309C19.9245 44.1309 21.07 45.5508 21.07 49.1953C21.07 52.8888 19.9243 54.2596 18.5112 54.2596Z" fill="#353535"/>
<path d="M7.73688 44.3625C8.70431 44.3625 9.54695 44.4361 10.22 44.7081V40.718C9.48445 40.5041 8.69749 40.3904 7.87277 40.3904C5.17121 40.3904 2.75273 41.5005 1.13892 43.384C0.907245 45.4213 0.789062 47.4944 0.789062 49.5941C0.789062 51.3841 0.8761 53.1518 1.04313 54.897C2.65695 56.8451 5.11788 57.9998 7.87298 57.9998C8.6977 57.9998 9.48466 57.8861 10.2202 57.6721V53.5283C9.4757 53.7868 8.55968 54.0298 7.73709 54.0298C5.56821 54.0298 3.80955 52.0548 3.80955 49.195C3.80933 46.3354 5.56821 44.3625 7.73688 44.3625Z" fill="#353535"/>
<path d="M98.7779 44.3625C99.743 44.3625 100.588 44.4361 101.259 44.7081V40.718C100.523 40.5041 99.7387 40.3904 98.914 40.3904C94.0502 40.3904 90.1094 43.9858 90.1094 49.195C90.1094 54.4065 94.0504 57.9996 98.914 57.9996C99.7387 57.9996 100.523 57.8859 101.259 57.6719V53.5281C100.517 53.7866 99.5981 54.0296 98.7779 54.0296C96.609 54.0296 94.8503 52.0546 94.8503 49.1948C94.8503 46.3354 96.609 44.3625 98.7779 44.3625Z" fill="#353535"/>
<path d="M43.5355 40.8545H37.9094L35.9526 50.1988L33.9957 40.8545H28.3693L26.2168 57.4882H30.4731L31.6472 46.0891L34.5826 57.4882H35.9526H37.3223L40.2577 46.0891L41.4319 57.4882H45.6881L43.5355 40.8545Z" fill="#353535"/>
<path d="M63.8616 40.8545H58.2354L56.2785 50.1988L54.3217 40.8545H48.6956L46.543 57.4882H50.799L51.9734 46.0891L54.9088 57.4882H56.2785H57.6485L60.5837 46.0891L61.758 57.4882H66.0143L63.8616 40.8545Z" fill="#353535"/>
<path d="M76.6094 44.3767V40.8545H72.0105H69.809H67.5098V57.4882H69.809H72.0105H76.6094V53.9657H72.0105V50.9327H75.9735V47.41H72.0105V44.3767H76.6094Z" fill="#353535"/>
<path d="M107.134 50.932V53.9657H109.842C109.748 55.1516 109.615 56.3262 109.445 57.4875H102.631V40.8545H109.316C109.505 42.0158 109.654 43.1906 109.766 44.3763H107.134V47.41H109.971C110 48.1345 110.014 48.8634 110.014 49.5945C110.014 50.0424 110.009 50.4883 109.998 50.9318L107.134 50.932Z" fill="#353535"/>
<path d="M87.2361 49.9823C88.7407 49.3069 89.9645 48.0764 89.9645 45.7962C89.9645 41.98 86.0993 40.8545 83.3599 40.8545H77.8809V57.4875H82.3812V49.8554L86.0993 57.4875H90.8449L87.2361 49.9823ZM82.3812 47.9226C82.3321 47.9226 82.2831 47.9226 82.234 47.9205V44.0621C82.2831 44.0599 82.3321 44.0599 82.3812 44.0599C84.0396 44.0599 85.3838 44.5726 85.3838 45.9925C85.3838 47.5081 84.0396 47.9226 82.3812 47.9226Z" fill="#353535"/>
<path d="M80.0789 0H27.0446C23.6845 0 20.9609 2.72375 20.9609 6.08363V26.0525C20.9609 29.4125 23.6849 32.1361 27.0446 32.1361H52.284L63.47 38.6351L61.236 32.1361H80.0789C83.439 32.1361 86.1626 29.4123 86.1626 26.0525V6.08363C86.1628 2.72353 83.4388 0 80.0789 0Z" fill="#9C5A90"/>
<path d="M30.4438 29.1001C30.4347 29.1001 30.4259 29.1001 30.417 29.0999C29.6857 29.0912 29.005 28.7257 28.5937 28.1209C27.9441 27.1657 26.9918 24.9633 25.3812 16.34C24.5179 11.7181 23.8689 7.36538 23.8625 7.32208C23.6808 6.09972 24.5245 4.96184 25.7468 4.78009C26.9683 4.59812 28.1071 5.44182 28.2888 6.66439C28.295 6.70685 28.9294 10.9599 29.7736 15.4844C30.2612 18.0978 30.6783 20.0474 31.0247 21.498C33.1345 17.6099 35.7098 12.3813 36.8434 10.02C37.2585 9.15562 38.178 8.65174 39.1307 8.76758C40.083 8.88341 40.855 9.59315 41.0508 10.532C41.4214 12.3043 42.3814 15.9949 43.7452 19.3445C44.2482 14.582 45.2216 8.53804 47.0773 4.73379C47.6189 3.62322 48.9586 3.16201 50.0692 3.70386C51.1798 4.2457 51.641 5.58518 51.0991 6.69575C48.1484 12.7448 47.7066 26.5244 47.7024 26.6631C47.6759 27.5556 47.1213 28.3469 46.2914 28.676C45.4614 29.0054 44.5153 28.81 43.8838 28.1785C41.8792 26.1739 40.0518 22.7193 38.4521 17.9107C38.383 17.7027 38.3158 17.4969 38.2503 17.2936C36.289 21.197 33.7107 26.1428 32.2633 28.1655C31.8426 28.7522 31.1649 29.1001 30.4438 29.1001Z" fill="white"/>
<path d="M65.18 10.2184C64.2482 8.32596 62.6478 7.01742 60.557 6.43568C58.172 5.77373 55.5884 6.65413 53.6448 8.794C51.3377 11.3283 49.6547 16.0784 51.8482 21.8026C53.3506 25.7257 55.7134 26.4457 57.2402 26.4457C57.4051 26.4457 57.5589 26.4367 57.7016 26.4235C61.765 26.0378 65.1778 20.6613 65.8353 16.9746C66.3078 14.3332 66.0872 12.0596 65.18 10.2184ZM61.4308 16.1877C61.2234 17.3401 60.5034 18.8647 59.5919 20.0706C58.6556 21.3122 57.7372 21.9253 57.2803 21.9675C57.0017 21.9942 56.4846 21.3969 56.0276 20.202C55.1093 17.8081 54.8017 14.1702 56.955 11.803C57.5969 11.0964 58.3437 10.6973 58.9856 10.6973C59.1149 10.6973 59.2397 10.7129 59.3579 10.7464C61.754 11.413 61.8073 14.0723 61.4308 16.1877Z" fill="white"/>
<path d="M81.798 10.2184C81.3299 9.27334 80.6968 8.47081 79.9211 7.83553C79.141 7.20024 78.2181 6.72773 77.1726 6.43568C74.7898 5.77373 72.2064 6.65413 70.2604 8.794C67.9557 11.3283 66.2727 16.0784 68.4638 21.8026C69.9662 25.7257 72.329 26.4457 73.8558 26.4457C74.0207 26.4457 74.1769 26.4367 74.3194 26.4235C78.3807 26.0378 81.7933 20.6613 82.4509 16.9746C82.9237 14.3332 82.7029 12.0596 81.798 10.2184ZM78.0464 16.1877C77.8414 17.3401 77.1191 18.8647 76.2097 20.0706C75.2712 21.3122 74.3529 21.9253 73.8959 21.9675C73.6195 21.9942 73.1002 21.3969 72.6433 20.202C71.727 17.8081 71.4196 14.1702 73.5706 11.803C74.2149 11.0964 74.9615 10.6973 75.6013 10.6973C75.7305 10.6973 75.8553 10.7129 75.9756 10.7464C78.3719 11.413 78.4231 14.0723 78.0464 16.1877Z" fill="white"/>
</svg>
