<svg width="60" height="60" viewBox="0 0 60 60" fill="none" xmlns="http://www.w3.org/2000/svg">
<path d="M9.375 15.75C6.375 19.875 4.875 24.75 4.875 30C4.875 33.75 5.625 37.125 7.125 40.5L10.875 23.25C12 16.875 12.375 15.75 9.375 15.75ZM24.375 39.75C25.5 34.875 24.375 31.125 20.25 31.125C17.25 31.125 14.25 33.375 13.5 36.75L12.375 43.125C11.25 46.875 13.5 48.75 16.125 48.75C20.625 48.75 23.25 44.625 24.375 39.75ZM30 0C13.5 0 0 13.5 0 30C0 46.5 13.5 60 30 60C46.5 60 60 46.5 60 30C60 13.5 46.5 0 30 0ZM30 58.125C22.125 58.125 15 55.125 10.125 49.875C9 48.375 7.5 46.875 6.375 45.375C3.75 40.875 1.875 35.625 1.875 30C1.875 14.625 14.625 1.875 30 1.875C45.375 1.875 58.125 14.625 58.125 30C58.125 45.375 45.375 58.125 30 58.125ZM44.25 39.75C45.375 34.875 44.25 31.125 40.125 31.125C37.125 31.125 34.125 33.375 33.375 36.75L31.875 43.125C31.125 47.25 33.375 49.125 36 49.125C40.125 48.75 43.125 44.625 44.25 39.75ZM30 4.875C22.5 4.875 15.375 8.25 10.875 13.5C13.125 13.125 16.125 12.75 17.625 12.375C18.375 12.375 18.375 12.75 18.375 13.125C18.375 13.875 14.625 31.125 14.625 31.125C16.5 30 19.125 28.5 21.375 28.5C24.75 28.5 27 30 28.5 31.875L30.375 22.875C31.875 16.875 31.875 15.75 28.875 15.75C27.375 15.75 27.375 13.875 28.875 13.5C31.125 13.125 35.625 12.75 37.5 12.375C38.25 12.375 38.25 12.75 38.25 13.125L34.5 31.125C36.375 29.625 39 28.5 41.625 28.5C48 28.5 51 33.375 49.5 39.75C48.375 46.125 42 51 35.25 51C30.375 51 27.375 48.375 26.625 45.75C24 48.75 20.25 50.625 16.125 51C20.25 53.625 25.125 55.125 30 55.125C36.6636 55.125 43.0542 52.4779 47.7661 47.7661C52.4779 43.0542 55.125 36.6636 55.125 30C55.125 23.3364 52.4779 16.9458 47.7661 12.2339C43.0542 7.52209 36.6636 4.875 30 4.875Z" fill="#2D3C58"/>
</svg>
