<svg width="1320" height="220" viewBox="0 0 1320 220" fill="none" xmlns="http://www.w3.org/2000/svg">
<mask id="mask0_2361_1370" style="mask-type:alpha" maskUnits="userSpaceOnUse" x="0" y="0" width="1320" height="220">
<rect width="1320" height="220" rx="10" fill="url(#paint0_linear_2361_1370)"/>
</mask>
<g mask="url(#mask0_2361_1370)">
<mask id="mask1_2361_1370" style="mask-type:luminance" maskUnits="userSpaceOnUse" x="0" y="-222" width="1320" height="794">
<path d="M1320 571.04H0V-222H1320V571.04Z" fill="white"/>
</mask>
<g mask="url(#mask1_2361_1370)">
<path d="M1495.4 -119.909C1465.91 -36.3758 1435.45 50.0128 1381.46 123.369C1323.27 202.435 1240.8 254.696 1149.24 270.531C1125.91 274.575 1101.75 276.584 1076.7 276.584C1008.19 276.584 932.895 261.464 848.521 230.932C797.067 212.295 747.065 188.345 698.727 165.189C660.368 146.816 620.688 127.784 580.534 111.553C558.781 102.75 530.48 92.7047 503.921 92.7047C503.657 92.7047 503.393 92.7047 503.129 92.7047C489.877 92.8105 477.759 95.4539 467.093 100.582C455.266 106.266 444.706 115.227 435.73 127.255C417.725 151.363 405.74 180.071 394.15 207.854C392.302 212.269 390.401 216.842 388.501 221.283C372.766 258.318 354.92 300.296 333.483 339.71C287.468 424.248 221.943 475.664 114.31 511.588C13.251 545.319 -150.455 540.27 -250.617 500.301C-428.104 429.482 -458.121 379.547 -487.161 331.278C-495.424 317.532 -503.239 304.526 -514.406 291.229C-537.532 263.658 -529.612 233.443 -521.217 201.457C-517.943 188.953 -514.538 176 -512.848 162.757L-513.112 162.73C-514.802 175.974 -518.207 188.9 -521.481 201.404C-525.758 217.714 -529.797 233.126 -529.929 248.141C-530.061 265.032 -525.203 278.778 -514.617 291.414C-503.476 304.684 -495.662 317.69 -487.399 331.436C-473.143 355.148 -458.411 379.653 -424.989 407.172C-406.905 422.028 -385.204 436.329 -358.593 450.894C-328.576 467.337 -293.279 483.568 -250.723 500.565C-226.487 510.24 -198.055 518.038 -166.19 523.775C-135.355 529.326 -102.698 532.683 -69.1434 533.741C-35.4834 534.825 -2.66821 533.556 28.3782 529.961C60.639 526.233 89.5734 520.127 114.363 511.853C167.559 494.089 208.241 473.813 242.35 448.013C279.442 419.966 309.327 384.596 333.668 339.842C355.131 300.428 372.951 258.424 388.712 221.389C390.586 216.948 392.513 212.374 394.361 207.96C405.951 180.203 417.91 151.495 435.915 127.44C473.245 77.4784 527.444 90.4049 580.428 111.843C620.583 128.074 660.262 147.081 698.621 165.453C746.96 188.61 796.961 212.586 848.441 231.222C901.901 250.573 950.372 263.446 996.598 270.557C1022.79 274.575 1048.47 276.716 1072.92 276.901C1099.19 277.113 1124.88 275.051 1149.3 270.848C1195.84 262.812 1239.74 245.682 1279.79 219.988C1318.73 195.007 1353.02 162.572 1381.69 123.58C1405.75 90.9072 1427.29 52.524 1447.59 6.26337C1465.94 -35.5563 1481.06 -78.3805 1495.66 -119.777L1495.4 -119.909Z" fill="url(#paint1_linear_2361_1370)" fill-opacity="0.1"/>
<path d="M1495.29 -105.687C1457.44 -21.3872 1421.56 48.0831 1369.58 113.007C1311.95 185.147 1229.05 235.611 1136.12 255.146C1039.31 275.5 938.202 267.491 835.559 231.328C781.28 211.978 728.744 185.913 677.951 160.748C642.812 143.327 606.486 125.299 569.869 109.649C548.274 100.424 520.079 89.7177 493.626 88.9775C480.584 88.6074 468.599 90.7222 458.039 95.2161C446.317 100.212 435.836 108.354 426.834 119.457C409.7 140.604 397.768 165.876 386.204 190.328C383.67 195.694 381.056 201.219 378.443 206.612C373.11 217.556 367.883 228.579 362.339 240.21C349.244 267.755 335.701 296.225 320.785 324.035C274.189 410.502 209.879 463.451 105.784 501.147C7.4964 536.728 -152.224 533.344 -250.22 493.639C-421.979 424.037 -451.6 374.868 -480.244 327.339C-488.322 313.936 -495.952 301.248 -506.723 288.216C-529.876 260.168 -522.88 229.451 -515.488 196.937C-512.636 184.38 -509.68 171.401 -508.36 158.131L-508.676 158.104C-510.023 171.348 -512.953 184.327 -515.804 196.884C-523.196 229.451 -530.192 260.248 -506.96 288.427C-496.216 301.433 -488.586 314.095 -480.508 327.497C-466.41 350.892 -451.837 375.08 -419.286 402.149C-401.704 416.767 -380.61 430.831 -354.817 445.132C-325.724 461.283 -291.536 477.25 -250.326 493.93C-197.737 515.263 -127.408 526.101 -58.3452 526.101C1.42444 526.101 60.27 517.986 105.916 501.464C131.128 492.344 153.224 482.669 173.5 471.936C194.91 460.596 213.786 448.277 231.236 434.32C267.352 405.4 296.735 369.396 321.076 324.22C335.992 296.384 349.535 267.914 362.629 240.369C368.173 228.711 373.4 217.714 378.733 206.77C381.347 201.378 383.96 195.853 386.495 190.487C398.032 166.061 409.964 140.789 427.072 119.668C464.48 73.5132 517.756 87.7086 569.737 109.94C606.328 125.589 642.654 143.592 677.792 161.012C728.586 186.204 781.122 212.242 835.427 231.619C938.123 267.782 1039.31 275.818 1136.18 255.437C1182.82 245.629 1226.67 228.341 1266.49 204.074C1306.22 179.86 1340.96 149.275 1369.82 113.192C1395.03 81.7079 1418.13 46.8671 1440.44 6.65997C1462.53 -33.1506 1481.51 -74.2301 1495.59 -105.555L1495.29 -105.687Z" fill="url(#paint2_linear_2361_1370)" fill-opacity="0.1"/>
<path d="M1495.22 -91.4659C1454.06 -19.2464 1410.39 42.4521 1357.72 102.644C1300.41 168.493 1219.23 215.89 1123 239.76C1014.18 266.75 915.921 264.107 822.57 231.724C765.546 211.951 710.687 183.666 657.649 156.359C625.6 139.837 592.468 122.787 559.204 107.746C537.952 98.15 510.232 86.9417 484.149 85.2763C481.878 85.1441 479.634 85.0648 477.443 85.0648C453.313 85.0648 433.804 93.8147 417.964 111.711C401.596 130.189 389.742 152.394 378.258 173.859C375.064 179.833 371.764 186.019 368.411 192.019C357.429 211.713 346.525 233.31 334.962 256.203C326.329 273.332 317.38 291.017 308.113 308.464C261.253 396.756 198.21 451.291 97.3358 490.758C1.79413 528.163 -153.913 526.471 -249.771 487.004C-415.854 418.617 -445.079 370.189 -473.353 323.373C-481.247 310.315 -488.691 297.97 -499.04 285.202C-522.193 256.652 -516.174 225.433 -509.811 192.363C-507.383 179.754 -504.875 166.721 -503.871 153.451L-504.215 153.425C-505.191 166.695 -507.699 179.727 -510.128 192.31C-516.517 225.459 -522.563 256.758 -499.304 285.44C-488.982 298.155 -481.537 310.5 -473.643 323.558C-459.704 346.662 -445.29 370.533 -413.61 397.152C-396.503 411.533 -376.043 425.332 -351.042 439.395C-322.847 455.229 -289.767 470.932 -249.903 487.348C-226.407 497.023 -199.057 504.609 -168.565 509.923C-139.129 515.051 -108.03 517.8 -76.1386 518.17C-44.2474 518.514 -13.1746 516.426 16.235 511.958C46.7006 507.332 74.0245 500.327 97.4678 491.128C122.02 481.505 143.668 471.328 163.653 459.961C184.535 448.066 203.015 435.245 220.175 420.706C255.366 390.914 284.248 354.249 308.483 308.623C317.749 291.176 326.673 273.465 335.332 256.361C346.869 233.495 357.798 211.872 368.754 192.204C372.107 186.204 375.407 180.018 378.601 174.044C390.059 152.579 401.939 130.4 418.254 111.975C455.742 69.627 508.093 85.0912 559.072 108.116C592.309 123.131 625.441 140.207 657.491 156.703C710.555 184.036 765.414 212.295 822.465 232.094C846.99 240.606 872.229 247.136 897.441 251.524C921.887 255.78 947.099 258.133 972.39 258.529C996.784 258.926 1022.08 257.498 1047.52 254.326C1071.94 251.286 1097.37 246.501 1123.08 240.131C1170.05 228.473 1213.84 211.026 1253.23 188.292C1293.84 164.845 1329.05 136.11 1357.96 102.908C1410.63 42.69 1454.32 -19.0085 1495.48 -91.2545L1495.22 -91.4659Z" fill="url(#paint3_linear_2361_1370)" fill-opacity="0.1"/>
<path d="M1495.11 -77.2438C1453.45 -19.8278 1405.38 30.2659 1349.7 88.2635L1345.84 92.2816C1289.69 151.204 1210.31 195.641 1109.88 224.376C1057.56 239.364 999.081 252.687 936.777 252.687C895.83 252.687 853.247 246.924 809.608 232.095C750.314 211.951 693.58 181.604 638.694 152.235C609.311 136.533 578.951 120.276 548.591 105.816C527.709 95.8767 500.464 84.1398 474.697 81.5492C447.901 78.8528 426.465 86.1488 409.146 103.913C393.465 120.012 381.664 139.415 370.259 158.21C366.431 164.501 362.497 171.004 358.432 177.348C342.354 202.408 326.409 233.231 309.513 265.878C304.945 274.681 300.246 283.801 295.521 292.789C248.766 381.873 185.037 439.739 88.8615 480.369C-3.96097 519.572 -155.682 519.572 -249.323 480.369C-409.729 413.225 -438.558 365.537 -466.436 319.435C-474.119 306.72 -481.405 294.692 -491.331 282.241C-514.511 253.216 -509.442 221.468 -504.083 187.869C-502.076 175.207 -499.991 162.148 -499.357 148.852L-499.753 148.825C-500.387 162.096 -502.472 175.181 -504.479 187.817C-509.864 221.494 -514.933 253.295 -491.648 282.479C-481.722 294.93 -474.462 306.931 -466.779 319.646C-452.999 342.459 -438.743 366.013 -407.934 392.183C-391.302 406.299 -371.449 419.86 -347.24 433.685C-319.969 449.229 -287.999 464.64 -249.481 480.765C-203.888 499.851 -143.723 510.372 -80.0194 510.372C-79.8874 510.372 -79.7818 510.372 -79.6498 510.372C-48.6562 510.346 -18.4281 507.861 10.1631 502.918C39.7047 497.842 66.2366 490.388 89.0198 480.765C137.015 460.49 176.272 436.382 209.087 407.039C243.302 376.428 271.682 339.155 295.89 293.027C300.616 284.039 305.315 274.919 309.882 266.116C326.778 233.469 342.724 202.646 358.775 177.613C362.841 171.268 366.801 164.766 370.602 158.474C382.509 138.833 393.781 120.302 409.437 104.23C447.004 65.7148 498.431 82.4215 548.406 106.239C578.766 120.699 609.126 136.93 638.51 152.658C693.395 182.027 750.155 212.374 809.476 232.544C857.603 248.881 906.918 255.436 960.299 252.581C1004.57 250.202 1052.14 241.373 1109.99 224.825C1157.69 211.185 1201.44 193.579 1239.95 172.511C1281.53 149.777 1317.25 122.919 1346.11 92.6253L1349.96 88.6072C1405.64 30.6096 1453.74 -19.4841 1495.4 -76.9266L1495.11 -77.2438Z" fill="url(#paint4_linear_2361_1370)" fill-opacity="0.1"/>
<path d="M1495.06 -63.0483C1468.29 -34.3931 1438.53 -9.20093 1407.04 17.4716C1383.36 37.5356 1358.89 58.2604 1333.99 81.8665C1280.06 133.044 1202.44 174.626 1096.76 208.938C1029.12 230.905 965.473 249.145 900.186 249.145C866.367 249.145 832.1 244.255 796.618 232.438C735.318 212.031 676.921 179.595 620.478 148.244C593.523 133.282 565.671 117.791 537.925 103.86C517.438 93.5771 490.642 81.3378 465.219 77.7956C460.229 77.1083 455.425 76.7646 450.805 76.7646C430.978 76.7646 414.373 83.1354 400.328 96.0884C385.201 110.019 373.981 126.224 362.127 143.354C357.745 149.698 353.177 156.254 348.452 162.677C327.701 190.698 307.453 229.795 285.99 271.192L282.901 277.139C235.618 368.26 173.182 427.738 80.4127 469.954C-11.2218 511.668 -155.867 513.307 -248.875 473.734C-403.605 407.885 -432.038 360.884 -459.547 315.47C-466.701 303.627 -474.119 291.414 -483.65 279.254C-506.829 249.727 -502.737 217.476 -498.434 183.323C-496.823 170.634 -495.16 157.496 -494.87 144.199H-495.292C-495.583 157.496 -497.246 170.608 -498.856 183.296C-503.186 217.529 -507.304 249.859 -483.993 279.545C-474.463 291.678 -467.071 303.918 -459.916 315.734C-432.381 361.228 -403.895 408.282 -249.086 474.183C-204.206 493.296 -145.281 503.367 -83.1617 502.574C-53.0393 502.178 -23.709 499.27 4.06384 493.904C32.7078 488.379 58.4214 480.475 80.5446 470.403C127.088 449.229 165.5 424.01 197.945 393.346C231.157 361.968 259.035 324.061 283.244 277.404L286.333 271.456C307.769 230.086 328.045 191.015 348.742 163.021C353.494 156.624 358.035 150.042 362.418 143.697C374.271 126.568 385.465 110.416 400.565 96.5113C417.778 80.6505 438.898 74.7027 465.14 78.3507C490.51 81.8665 517.254 94.1058 537.714 104.362C565.46 118.293 593.312 133.758 620.266 148.72C676.736 180.098 735.159 212.533 796.486 232.941C821.857 241.373 847.069 246.502 873.495 248.59C897.493 250.493 921.939 249.806 948.207 246.554C999.661 240.157 1051.93 224.032 1096.92 209.44C1146.74 193.262 1189.19 175.974 1226.67 156.624C1247.4 145.918 1266.72 134.445 1284.12 122.549C1302.57 109.914 1319.47 96.3527 1334.31 82.263C1359.18 58.6569 1383.65 37.9321 1407.33 17.8682C1438.82 -8.80441 1468.58 -34.0231 1495.37 -62.6782L1495.06 -63.0483Z" fill="url(#paint5_linear_2361_1370)" fill-opacity="0.1"/>
<path d="M1494.98 -48.8265C1471.64 -29.8464 1446.22 -13.8535 1419.29 3.09113C1387.35 23.2079 1354.29 43.9856 1322.14 71.5041C1259.09 125.457 1170.26 162.069 1083.67 193.579C1078.73 195.377 1073.82 197.174 1068.93 198.972C1002.38 223.318 938.413 246.713 870.75 246.713C842.528 246.713 813.647 242.642 783.683 232.888C720.56 212.322 660.764 177.798 602.922 144.411C578.211 130.136 552.656 115.412 527.286 102.01C507.169 91.3829 480.848 78.6414 455.742 74.1475C449.3 73.0108 443.149 72.4293 437.315 72.4293C419.6 72.4293 404.499 77.6898 391.484 88.3429C376.779 100.371 365.586 114.434 353.759 129.317C348.875 135.476 343.806 141.847 338.447 148.059C315.531 174.731 293.118 216.948 270.255 261.516C222.419 354.751 161.276 415.842 71.9385 459.565C24.577 482.748 -37.5159 494.512 -98.8695 494.512C-152.725 494.512 -206.027 485.444 -248.425 467.099C-397.453 402.572 -425.517 356.258 -452.656 311.478C-459.626 299.979 -466.833 288.083 -475.967 276.241C-499.146 246.211 -496.058 213.432 -492.784 178.749C-491.57 166.008 -490.329 152.843 -490.382 139.52H-490.857C-490.804 152.817 -492.045 165.982 -493.259 178.697C-496.559 213.485 -499.674 246.316 -476.363 276.505C-467.229 288.348 -460.022 300.217 -453.078 311.689C-425.913 356.523 -397.797 402.915 -248.689 467.495C-204.628 486.581 -147.076 496.23 -86.6727 494.644C-57.4479 493.877 -28.9623 490.546 -2.00787 484.757C25.7121 478.783 50.6602 470.43 72.0706 459.961C161.514 416.186 222.735 355.042 270.625 261.701C293.461 217.159 315.875 174.969 338.737 148.323C344.096 142.085 349.165 135.714 354.049 129.555C365.876 114.672 377.043 100.635 391.722 88.6601C408.935 74.5969 429.843 69.9973 455.61 74.5705C480.663 79.0379 506.931 91.7794 527.022 102.38C552.392 115.756 577.921 130.506 602.631 144.781C660.5 178.168 720.323 212.718 783.471 233.284C808.05 241.294 832.338 245.735 857.761 246.898C880.544 247.929 903.803 246.264 928.856 241.823C975.611 233.549 1020.99 216.948 1069.04 199.368C1073.92 197.571 1078.86 195.773 1083.77 193.976C1120.81 180.494 1169.02 162.254 1213.32 140.71C1257.93 119.007 1293.62 96.4583 1322.4 71.8477C1354.53 44.3556 1387.56 23.578 1419.47 3.46118C1446.4 -13.4834 1471.85 -29.5028 1495.22 -48.5093L1494.98 -48.8265Z" fill="url(#paint6_linear_2361_1370)" fill-opacity="0.1"/>
<path d="M1494.92 -34.6311C1472.7 -21.3873 1448.62 -10.9192 1423.14 0.130493C1385.42 16.52 1346.37 33.4646 1310.31 61.1152C1252.86 105.129 1176.62 135.661 1095.92 167.991C1087.63 171.321 1079.05 174.758 1070.57 178.168C1057.87 183.296 1045.2 188.61 1032.92 193.764C970.621 219.935 910.798 245.074 846.013 245.074C821.725 245.074 796.777 241.558 770.693 233.231C705.934 212.559 644.871 175.947 585.841 140.551C563.189 126.964 539.799 112.927 516.62 100.08C496.873 89.136 471.053 75.8658 446.211 70.4467C420.735 64.869 399.932 68.1733 382.613 80.5183C368.199 90.8014 356.953 102.988 345.046 115.861C339.74 121.598 334.249 127.546 328.414 133.388C303.941 157.787 279.917 201.853 257.583 245.867C209.165 341.323 149.29 404.026 63.4111 449.15C-22.8113 494.459 -159.616 499.428 -248.03 460.437C-391.303 397.285 -418.996 351.632 -445.766 307.46C-452.524 296.304 -459.52 284.779 -468.285 273.227C-491.491 242.669 -489.379 209.414 -487.135 174.176C-486.316 161.408 -485.498 148.191 -485.867 134.868L-486.395 134.894C-486.026 148.191 -486.844 161.408 -487.663 174.15C-489.907 209.467 -492.019 242.827 -468.707 273.544C-459.969 285.07 -452.973 296.569 -446.215 307.724C-432.883 329.718 -419.102 352.452 -390.88 377.3C-375.674 390.676 -357.695 403.523 -335.863 416.556C-311.337 431.201 -282.667 445.713 -248.241 460.887C-204.971 479.946 -148.845 489.172 -90.1313 486.819C-61.8041 485.682 -34.1897 481.929 -8.02731 475.69C18.7951 469.293 42.9247 460.49 63.675 449.573C149.633 404.396 209.588 341.64 258.058 246.079C280.366 202.118 304.364 158.078 328.784 133.731C334.645 127.889 340.136 121.941 345.442 116.205C357.322 103.331 368.542 91.1979 382.93 80.9413C400.117 68.6756 420.788 65.3976 446.132 70.9489C470.895 76.368 496.688 89.6118 516.409 100.529C539.561 113.377 562.978 127.413 585.603 141.001C644.66 176.423 705.723 213.062 770.562 233.734C866.393 264.318 947.389 230.297 1033.14 194.267C1045.39 189.112 1058.08 183.798 1070.76 178.67C1079.23 175.26 1087.81 171.824 1096.1 168.493C1176.83 136.163 1253.1 105.605 1310.63 61.5382C1346.66 33.9404 1385.66 16.9958 1423.35 0.606323C1448.86 -10.4698 1472.93 -20.938 1495.19 -34.2082L1494.92 -34.6311Z" fill="url(#paint7_linear_2361_1370)" fill-opacity="0.1"/>
<path d="M1494.87 -20.4357C1472.86 -11.4215 1449.1 -5.13007 1423.91 1.50504C1381.27 12.7662 1337.19 24.3975 1298.43 50.7528C1252.6 81.9193 1194.76 105.631 1133.54 130.744C1108.64 140.948 1082.93 151.495 1057.43 162.809C1039.76 170.634 1022.31 179.067 1005.47 187.235C945.542 216.207 888.095 243.99 824.287 243.99C802.903 243.99 780.832 240.871 757.706 233.654C691.415 212.93 629.27 174.203 569.183 136.745C548.486 123.845 527.075 110.495 505.955 98.2031C486.604 86.9419 461.26 73.1959 436.682 66.7987C411.628 60.2957 391.036 62.2519 373.744 72.7729C359.409 81.4963 348.004 91.9909 335.939 103.093C330.343 108.248 324.561 113.562 318.357 118.796C291.561 141.424 266.164 187.869 244.886 230.297C195.835 328.079 137.227 392.368 54.8849 438.814C-28.6446 485.92 -161.542 492.529 -247.659 453.855C-385.203 392.104 -412.527 347.059 -438.953 303.495C-445.501 292.683 -452.285 281.501 -460.654 270.293C-483.833 239.206 -482.751 205.422 -481.563 169.682C-481.141 156.888 -480.718 143.644 -481.431 130.295L-481.985 130.321C-481.273 143.644 -481.721 156.862 -482.117 169.656C-483.279 205.528 -484.388 239.391 -461.077 270.636C-452.734 281.818 -445.949 293 -439.402 303.785C-426.202 325.541 -412.58 348.011 -385.229 372.436C-370.498 385.574 -353.127 398.184 -332.113 410.978C-308.485 425.332 -280.949 439.527 -247.87 454.384C-205.419 473.443 -150.665 482.193 -93.6678 479.074C-66.2382 477.567 -39.495 473.39 -14.151 466.702C11.7474 459.856 35.085 450.63 55.1754 439.316C137.623 392.844 196.283 328.449 245.387 230.561C266.639 188.187 291.983 141.82 318.727 119.245C324.931 114.011 330.712 108.698 336.309 103.543C348.347 92.4667 359.752 81.9986 374.035 73.3016C391.195 62.8599 411.628 60.9037 436.523 67.3802C461.023 73.751 486.34 87.4706 505.665 98.7318C526.785 111.024 548.169 124.373 568.867 137.273C628.979 174.758 691.151 213.511 757.521 234.236C780.7 241.479 802.85 244.598 824.287 244.598C888.201 244.598 945.7 216.789 1005.68 187.79C1022.55 179.648 1039.97 171.216 1057.64 163.365C1083.11 152.05 1108.85 141.503 1133.75 131.299C1195 106.186 1252.86 82.448 1298.75 51.2551C1337.42 24.979 1381.46 13.3477 1424.04 2.08658C1449.23 -4.57495 1473.01 -10.8399 1495.06 -19.8806L1494.87 -20.4357Z" fill="url(#paint8_linear_2361_1370)" fill-opacity="0.1"/>
<path d="M1494.82 -6.21405C1472.59 -0.689209 1448.59 2.08643 1423.22 4.99423C1376.1 10.4133 1327.39 16.0439 1286.58 40.3638C1249.14 62.6747 1203.84 80.7032 1155.9 99.789C1119.39 114.302 1081.63 129.316 1044.3 147.398C1023.24 157.602 1002.65 168.968 982.74 179.965C924.317 212.242 868.375 243.171 804.619 243.171C785.453 243.171 765.6 240.395 744.744 233.998C677.054 213.273 613.958 172.405 552.922 132.859C534.046 120.619 514.536 107.984 495.317 96.2467C467.174 79.0378 446.133 68.8075 427.152 63.0712C402.521 55.6166 382.166 56.2246 364.927 64.9481C350.46 72.2705 338.712 81.2582 326.277 90.7747C320.575 95.1364 314.688 99.6303 308.378 104.098C295.627 113.112 282.638 127.836 268.673 149.142C257.637 165.955 246.074 186.759 232.241 214.621C182.503 314.835 125.189 380.763 46.4111 428.372C-34.4786 477.25 -163.443 485.497 -247.21 447.193C-379.025 386.896 -406.006 342.433 -432.063 299.45C-438.399 288.982 -444.972 278.17 -452.945 267.305C-476.124 235.69 -476.045 201.404 -475.939 165.109C-475.913 152.262 -475.86 138.992 -476.916 125.642L-477.523 125.695C-476.494 139.018 -476.52 152.288 -476.573 165.109C-476.652 201.51 -476.758 235.901 -453.447 267.676C-445.5 278.514 -438.953 289.326 -432.591 299.767C-419.549 321.285 -406.059 343.517 -379.579 367.519C-365.323 380.446 -348.559 392.791 -328.337 405.321C-305.633 419.384 -279.18 433.262 -247.474 447.748C-205.841 466.781 -152.487 475.108 -97.1786 471.17C-43.1378 467.337 7.9462 452.322 46.7014 428.901C87.7006 404.131 122.628 374.524 153.489 338.388C182.397 304.525 208.349 264.133 232.769 214.912C254.179 171.771 279.945 124.928 308.695 104.626C315.005 100.159 320.892 95.6651 326.594 91.277C339.002 81.787 350.724 72.7992 365.138 65.5296C382.245 56.8855 402.441 56.2775 426.914 63.7057C445.869 69.442 466.831 79.6457 494.947 96.8283C514.14 108.565 533.65 121.201 552.526 133.44C613.589 173.013 676.711 213.907 744.506 234.659C835.005 262.362 906.893 222.631 982.978 180.573C1002.88 169.576 1023.48 158.21 1044.52 148.006C1081.85 129.951 1119.57 114.936 1156.06 100.423C1204.05 81.3376 1249.35 63.3091 1286.84 40.9718C1327.52 16.7048 1376.18 11.1007 1423.25 5.68155C1448.65 2.74731 1472.64 -0.00189209 1494.93 -5.55316L1494.82 -6.21405Z" fill="url(#paint9_linear_2361_1370)" fill-opacity="0.1"/>
<path d="M1494.79 7.98157C1472.09 10.4135 1447.64 10.0435 1421.74 9.64697C1412.13 9.48834 1402.47 9.35614 1392.81 9.35614C1350.89 9.35614 1309.33 12.1582 1274.75 29.9752C1243.91 45.8624 1207.88 59.2648 1169.73 73.4338C1124.32 90.2991 1077.36 107.746 1031.18 131.987C1007.66 144.332 984.903 158.58 962.885 172.352C889.942 218.005 821.012 261.12 731.753 234.368C662.744 213.696 598.776 170.608 536.921 128.947C519.788 117.395 502.047 105.473 484.649 94.3172C457.088 76.6588 436.39 65.8735 417.567 59.3441C393.358 50.9379 373.241 50.2242 356.081 57.1236C341.086 63.1507 328.731 70.8168 315.636 78.9586C310.145 82.3687 304.443 85.9109 298.397 89.4268C284.828 97.3043 271.232 111.42 256.844 132.647C245.412 149.486 233.585 170.555 219.62 198.972C169.143 301.776 113.096 369.317 37.9349 417.957C-41.6083 469.425 -163.999 479.127 -246.763 440.532C-372.849 381.688 -399.46 337.78 -425.2 295.326C-431.325 285.228 -437.661 274.76 -445.238 264.266C-468.417 232.121 -469.341 197.307 -470.344 160.457C-470.688 147.583 -471.057 134.286 -472.404 120.937L-473.037 120.99C-471.691 134.313 -471.321 147.609 -470.978 160.457C-469.975 197.412 -469.051 232.306 -445.74 264.609C-438.189 275.104 -431.853 285.546 -425.728 295.617C-412.819 316.923 -399.487 338.944 -373.852 362.523C-360.072 375.212 -343.915 387.345 -324.484 399.585C-302.678 413.331 -277.334 426.892 -247 441.034C-226.118 450.789 -202.516 457.609 -176.855 461.336C-152.356 464.878 -126.722 465.513 -100.639 463.213C-48.5515 458.613 0.79007 442.7 38.3045 418.433C77.9573 392.765 112.013 362.047 142.426 324.51C170.199 290.251 195.622 249.251 220.2 199.184C234.14 170.793 245.94 149.751 257.372 132.938C271.733 111.817 285.25 97.7272 298.714 89.929C304.786 86.4132 310.462 82.871 315.98 79.4609C329.048 71.3455 341.376 63.7058 356.319 57.6787C373.347 50.8322 393.305 51.5723 417.356 59.9257C436.152 66.4286 456.797 77.214 484.306 94.8194C501.704 105.975 519.418 117.897 536.578 129.449C598.46 171.136 662.48 214.225 731.568 234.95C753.111 241.4 773.967 244.017 795.324 242.959C814.412 242.008 833.525 238.095 853.748 231.011C891.368 217.82 926.268 195.985 963.229 172.855C985.22 159.082 1007.98 144.86 1031.47 132.515C1077.62 108.301 1124.56 90.8542 1169.94 73.9889C1208.11 59.7935 1244.18 46.4175 1275.04 30.5039C1317.41 8.64243 1370.45 9.46194 1421.72 10.255C1447.64 10.6515 1472.11 11.0216 1494.85 8.58957L1494.79 7.98157Z" fill="url(#paint10_linear_2361_1370)" fill-opacity="0.1"/>
<path d="M1332.7 7.37344C1307.51 7.37344 1283.72 10.4928 1262.9 19.6127C1237.52 30.7153 1208.78 40.3639 1178.31 50.5941C1128.07 67.4594 1071.15 86.5453 1018.06 116.628C992.718 130.982 968.43 148.032 944.934 164.528C874.34 214.066 807.68 260.855 718.791 234.791C648.541 214.172 583.808 168.863 521.24 125.061C505.743 114.222 489.718 102.988 474.037 92.4666C439.453 69.257 400.618 46.7083 366.483 46.7083C359.883 46.7083 353.468 47.5541 347.29 49.4046C331.107 54.2421 317.59 60.7979 303.255 67.7238C298.503 70.0236 293.593 72.4027 288.418 74.8083C274.03 81.4963 259.801 95.0308 244.938 116.179C233.163 132.938 221.098 154.271 206.974 183.375C154.966 290.383 101.876 357.421 29.4608 407.594C-47.416 460.834 -165.978 472.148 -246.314 433.923C-366.698 376.639 -391.804 335.163 -418.362 291.282C-424.25 281.554 -430.348 271.482 -437.529 261.331C-460.682 228.632 -462.662 193.315 -464.747 155.91C-465.46 143.01 -466.226 129.687 -467.862 116.364L-468.549 116.443C-466.886 129.766 -466.146 143.089 -465.434 155.963C-463.348 193.447 -461.368 228.87 -438.083 261.728C-430.929 271.852 -424.83 281.897 -418.943 291.625C-406.166 312.72 -392.966 334.529 -368.202 357.712C-354.897 370.136 -339.347 382.032 -320.709 394.033C-299.826 407.489 -275.591 420.706 -246.604 434.505C-226.091 444.259 -203.018 450.974 -178.043 454.463C-154.257 457.767 -129.388 458.085 -104.123 455.388C-53.9896 450.022 -6.39044 433.236 29.8832 408.123C68.2159 381.583 101.401 349.729 131.338 310.791C158.266 275.765 182.502 235.372 207.634 183.64C221.758 154.588 233.797 133.255 245.545 116.549C260.329 95.5066 274.453 82.025 288.735 75.4163C293.91 73.0107 298.82 70.6316 303.572 68.3318C317.881 61.4059 331.371 54.8501 347.502 50.039C385.386 38.7514 432.536 65.424 473.667 93.0218C489.375 103.569 505.374 114.778 520.87 125.616C583.491 169.471 648.277 214.806 718.633 235.452C740.096 241.743 760.767 244.043 781.834 242.431C800.657 241.003 819.401 236.456 839.149 228.552C875.898 213.855 909.637 190.169 945.33 165.109C968.799 148.64 993.087 131.59 1018.4 117.236C1071.44 87.2062 1128.33 68.0939 1178.55 51.255C1209.01 41.0248 1237.79 31.3761 1263.19 20.2471C1307.04 1.05554 1364.3 8.53656 1419.68 15.7532C1446.3 19.2162 1471.4 22.5205 1494.74 22.8906V22.2033C1471.43 21.8068 1446.32 18.5289 1419.76 15.066C1390.51 11.2594 1360.76 7.37344 1332.7 7.37344Z" fill="url(#paint11_linear_2361_1370)" fill-opacity="0.1"/>
<path d="M1298.83 1.84872C1281.67 1.84872 1265.54 3.96347 1251.07 9.22397C1230.42 16.705 1207.61 23.3929 1183.46 30.451C1127.28 46.8934 1063.63 65.5034 1004.94 101.243C978.199 117.527 952.828 137.326 928.276 156.492C859.61 210.101 794.772 260.723 705.83 235.161C634.392 214.648 568.999 167.039 505.745 121.016C491.832 110.892 477.444 100.424 463.372 90.537C437.368 72.2707 416.724 60.005 398.402 51.9688C374.985 41.6857 355.37 38.2757 338.448 41.58C319.677 45.228 304.471 50.7264 286.862 57.0972C284.116 58.1017 281.292 59.1062 278.414 60.1371C263.155 65.5827 248.318 78.5092 233.006 99.6305C220.968 116.258 208.665 137.882 194.33 167.726C141.424 277.721 89.5748 346.345 20.9612 397.179C-53.2491 452.137 -167.957 465.09 -245.864 427.235C-360.519 371.537 -385.308 330.511 -411.55 287.079C-417.2 277.721 -423.06 268.046 -429.845 258.291C-452.972 225.037 -456.008 189.191 -459.202 151.257C-460.284 138.357 -461.42 125.008 -463.373 111.685L-464.086 111.79C-462.132 125.114 -460.997 138.437 -459.915 151.337C-456.694 189.376 -453.684 225.327 -430.426 258.741C-423.641 268.469 -417.807 278.144 -412.157 287.502C-399.512 308.412 -386.444 330.035 -362.525 352.848C-349.668 365.114 -334.726 376.772 -316.906 388.482C-296.921 401.62 -273.795 414.52 -246.18 427.949C-226.037 437.73 -203.518 444.339 -179.23 447.59C-156.156 450.683 -132.08 450.656 -107.633 447.564C-59.4532 441.457 -13.6228 423.772 21.41 397.814C58.4229 370.401 90.7101 337.437 120.172 297.045C145.807 261.913 169.567 220.939 194.99 168.096C209.325 138.304 221.601 116.707 233.613 100.106C248.82 79.1172 263.577 66.27 278.678 60.8773C281.556 59.8463 284.38 58.8418 287.126 57.8373C304.708 51.493 319.915 45.9946 338.606 42.3466C355.396 39.0687 374.853 42.4523 398.138 52.6826C416.407 60.7187 436.999 72.9579 462.977 91.1979C477.048 101.084 491.436 111.553 505.322 121.677C568.629 167.753 634.075 215.388 705.619 235.928C727.109 242.113 747.701 244.07 768.583 241.902C787.248 239.972 805.754 234.791 825.132 226.068C861.22 209.81 893.983 184.221 928.699 157.126C953.224 137.961 978.595 118.161 1005.31 101.93C1063.92 66.27 1127.54 47.66 1183.67 31.2176C1207.83 24.1596 1230.64 17.4716 1251.31 9.9906C1296.5 -6.3989 1357.91 7.90225 1417.28 21.754C1444.69 28.1512 1470.56 34.1783 1494.61 37.2447L1494.69 36.531C1470.69 33.4646 1444.82 27.4374 1417.44 21.0667C1376.94 11.5238 1335.5 1.84872 1298.83 1.84872Z" fill="url(#paint12_linear_2361_1370)" fill-opacity="0.1"/>
<path d="M1272.35 -5.39417C1260.55 -5.39417 1249.46 -4.09885 1239.24 -1.13815C1222.77 3.62009 1205.05 7.95538 1186.28 12.555C1124.85 27.5699 1055.21 44.5938 991.846 85.8583C964.047 103.966 937.858 126.515 912.567 148.323C857.048 196.17 804.036 241.823 736.743 241.823C722.777 241.823 708.204 239.867 692.866 235.558C620.292 215.15 554.293 165.215 490.457 116.893C478.076 107.508 465.272 97.8332 452.732 88.6339C427.282 69.9182 406.981 57.0974 388.791 48.2153C368.595 38.3552 351.197 33.5177 335.912 33.5177C333.773 33.5177 331.688 33.6234 329.628 33.8084C306.898 35.8968 288.471 40.3378 268.433 45.4926C252.303 49.6428 236.806 61.9349 221.045 83.0562C208.769 99.525 196.256 121.466 181.656 152.104C141.713 236.007 93.5597 322.501 12.4589 386.791C-49.9507 436.25 -158.56 463.768 -245.469 420.627C-354.369 366.568 -378.868 325.938 -404.793 282.929C-410.205 273.967 -415.802 264.689 -422.191 255.331C-445.317 221.495 -449.383 185.12 -453.712 146.632C-455.164 133.731 -456.669 120.382 -458.939 107.032L-459.705 107.165C-457.435 120.461 -455.93 133.811 -454.504 146.711C-450.175 185.306 -446.083 221.759 -422.851 255.754C-416.488 265.085 -410.891 274.364 -405.479 283.325C-392.385 305.028 -380.03 325.541 -356.956 347.958C-344.548 360.012 -330.239 371.432 -313.185 382.905C-294.098 395.725 -272.08 408.308 -245.839 421.341C-226.065 431.148 -204.074 437.651 -180.499 440.664C-158.138 443.519 -134.853 443.176 -111.225 439.66C-64.9987 432.787 -20.9371 414.23 12.9077 387.425C48.6005 359.14 80.0165 325.039 108.977 283.22C133.239 248.194 156.524 206.638 182.316 152.474C196.889 121.889 209.377 100.001 221.626 83.5585C237.281 62.5958 252.646 50.4094 268.592 46.2856C288.603 41.1309 307.004 36.6898 329.681 34.6015C346.313 33.0683 365.533 37.7737 388.421 48.9555C406.558 57.8111 426.833 70.6319 452.23 89.2948C464.744 98.4941 477.548 108.196 489.929 117.553C553.817 165.902 619.87 215.89 692.576 236.324C714.171 242.404 734.763 244.043 755.54 241.347C774.099 238.941 792.421 233.126 811.561 223.53C847.121 205.687 879.118 178.115 912.989 148.931C938.281 127.149 964.417 104.6 992.189 86.5192C1055.44 45.334 1125.01 28.31 1186.39 13.3216C1205.16 8.72195 1222.9 4.38666 1239.4 -0.371582C1285.86 -13.8268 1351.33 7.42667 1414.64 27.9928C1442.92 37.1656 1469.63 45.8362 1494.45 51.4668L1494.61 50.7266C1469.84 45.1225 1443.15 36.4519 1414.88 27.2791C1365.38 11.1275 1314.48 -5.39417 1272.35 -5.39417Z" fill="url(#paint13_linear_2361_1370)" fill-opacity="0.1"/>
<path d="M1249.72 -13.7742C1241.88 -13.7742 1234.41 -13.0604 1227.41 -11.5272C1214.77 -8.75159 1201.49 -6.18738 1187.42 -3.49103C1155.68 2.61536 1119.73 9.54123 1084.09 20.6174C1043.19 33.3324 1008.74 49.6426 978.751 70.4731C950.107 90.352 923.39 115.597 897.571 140.023C831.888 202.091 769.874 260.697 679.929 235.954C606.273 215.679 539.719 163.312 475.356 112.689C464.426 104.098 453.153 95.216 442.145 86.7569C423.612 72.5086 400.538 54.7974 379.128 42.611C359.064 31.2177 342.089 25.6135 327.542 25.6135C325.245 25.6135 323.028 25.7457 320.837 26.0365C310.831 27.3053 301.433 27.6754 292.351 28.0455C281.58 28.4684 270.465 28.8914 258.506 30.874C241.505 33.6761 225.348 45.3337 209.138 66.455C196.466 82.9767 184.085 104.574 169.063 136.48C121.939 236.456 75.8446 315.522 4.01019 376.428C-56.1026 427.42 -160.937 456.684 -244.995 414.018C-348.166 361.625 -372.375 321.365 -398.009 278.725C-403.157 270.161 -408.49 261.305 -414.456 252.37C-437.556 217.952 -442.704 181.049 -448.169 141.979C-449.964 129.079 -451.839 115.729 -454.399 102.406L-455.191 102.565C-452.631 115.835 -450.783 129.185 -448.961 142.085C-443.496 181.234 -438.322 218.243 -415.116 252.819C-409.15 261.728 -403.817 270.584 -398.669 279.122C-385.707 300.693 -373.483 321.047 -351.228 343.12C-339.269 354.963 -325.567 366.171 -309.305 377.38C-291.115 389.91 -270.18 402.122 -245.311 414.758C-225.907 424.618 -204.471 430.989 -181.582 433.765C-159.934 436.382 -137.415 435.694 -114.631 431.782C-70.385 424.169 -28.0658 404.739 4.56461 377.062C38.9374 347.905 69.4822 312.694 97.915 269.394C127.457 224.402 151.85 174.943 169.802 136.877C192.665 88.3694 221.124 37.9321 258.638 31.7199C270.518 29.7638 281.633 29.3144 292.377 28.8914C301.485 28.5478 310.884 28.1777 320.942 26.8824C356.873 22.3092 401.911 56.9121 441.643 87.4442C452.652 95.9033 463.951 104.785 474.854 113.377C539.27 164.052 605.877 216.472 679.692 236.8C701.445 242.774 722.09 244.122 742.841 240.897C761.373 238.016 779.563 231.513 798.492 221.045C833.656 201.589 864.967 172.009 898.099 140.684C923.918 116.284 950.609 91.0657 979.2 71.2133C1046.39 24.5561 1121.42 10.1228 1187.57 -2.61874C1201.65 -5.31509 1214.95 -7.87921 1227.6 -10.6549C1275.25 -21.0966 1344.76 7.18854 1412 34.5484C1441.2 46.444 1468.79 57.6787 1494.42 65.7413L1494.66 64.9747C1469.08 56.9121 1441.49 45.6774 1412.32 33.8082C1354.77 10.3078 1295.6 -13.7742 1249.72 -13.7742Z" fill="url(#paint14_linear_2361_1370)" fill-opacity="0.1"/>
<path d="M1229.5 -22.8941C1224.67 -22.8941 1220.02 -22.5768 1215.56 -21.8895C1206.51 -20.5149 1197.19 -19.246 1187.31 -17.8979C1153.68 -13.2718 1115.58 -8.06421 1077.51 2.48322C1033.72 14.6167 997.1 31.8257 965.579 55.0882C936.275 76.7118 909.215 104.627 883 131.59C818.531 198.02 757.626 260.75 666.889 236.324C592.177 216.208 525.121 161.356 460.309 108.301C450.832 100.529 441.011 92.4933 431.428 84.8272C395.656 56.0927 349.772 22.5735 312.02 18.2119C306.767 17.6039 301.619 16.7844 296.629 16.0178C280.235 13.4272 264.738 10.9952 248.37 16.2029C230.708 21.8334 213.68 34.2048 197.761 52.9999C183.32 70.0502 169.381 92.8634 156.34 120.805C115.71 207.881 69.8004 298.525 -4.54199 365.986C-62.3844 418.486 -163.417 449.546 -244.597 407.33C-342.04 356.681 -365.984 316.686 -391.328 274.364C-396.212 266.222 -401.228 257.816 -406.825 249.33C-429.899 214.304 -436.129 176.846 -442.729 137.221C-444.868 124.321 -447.112 110.998 -449.936 97.7273L-450.781 97.9124C-447.93 111.156 -445.712 124.479 -443.574 137.379C-436.948 177.111 -430.691 214.648 -407.538 249.806C-401.968 258.265 -396.925 266.671 -392.068 274.813C-379.237 296.252 -367.12 316.501 -345.683 338.23C-334.172 349.888 -321.078 360.884 -305.608 371.802C-288.316 384.015 -268.489 395.91 -244.993 408.097C-225.959 417.983 -205.076 424.275 -182.874 426.786C-161.965 429.165 -140.212 428.161 -118.273 423.825C-76.0068 415.472 -35.4036 395.144 -3.98764 366.621C29.0652 336.617 58.7124 300.27 86.6436 255.463C113.862 211.793 137.543 163.074 157.079 121.175C184.35 62.7278 215.159 27.7019 248.581 17.0223C264.738 11.8675 280.129 14.2996 296.444 16.8637C301.434 17.6567 306.608 18.4762 311.862 19.0842C349.403 23.393 395.154 56.8593 430.82 85.5145C440.377 93.207 450.198 101.243 459.676 108.988C524.567 162.096 591.676 217.001 666.573 237.17C688.511 243.092 709.261 244.123 730.012 240.342C748.545 236.985 766.655 229.821 785.425 218.454C820.273 197.333 851.003 165.717 883.501 132.225C909.664 105.261 936.724 77.3991 965.975 55.8019C1036.62 3.64636 1120.18 -7.7999 1187.31 -17.0256C1197.19 -18.3737 1206.51 -19.669 1215.59 -21.0172C1264.4 -28.3925 1337.9 7.00357 1409.02 41.2365C1439.19 55.7755 1467.71 69.4951 1494.16 79.9633L1494.48 79.1702C1468.05 68.7021 1439.56 54.9825 1409.39 40.4698C1344.74 9.25052 1277.97 -22.8941 1229.5 -22.8941Z" fill="url(#paint15_linear_2361_1370)" fill-opacity="0.1"/>
<path d="M1210.94 -32.5959C1208.48 -32.5959 1206.08 -32.4901 1203.76 -32.3051C1198.11 -31.8293 1192.41 -31.3799 1186.36 -30.9041C1115.08 -25.2206 1026.35 -18.1625 952.456 39.6501C922.651 62.9655 895.353 93.4975 868.927 123.025C805.514 193.896 745.612 260.829 653.952 236.668C578.183 216.709 510.705 159.267 445.471 103.754C437.366 96.8547 428.997 89.7173 420.813 82.8708C385.727 53.4225 340.636 18.5552 303.254 10.3869C297.815 9.19736 292.483 7.7699 287.335 6.42172C275.27 3.22311 263.68 0.130249 251.695 0.130249C247.339 0.130249 242.93 0.526733 238.442 1.47839C228.779 3.51385 219.355 7.61127 210.379 13.6119C201.904 19.269 193.562 26.8557 185.563 36.1078C171.122 52.8674 157.447 75.4162 143.745 105.102C98.6803 202.593 55.7803 288.744 -12.9917 355.518C-66.8741 407.859 -162.178 444.285 -244.124 400.615C-335.864 351.791 -359.545 312.033 -384.625 269.949C-389.218 262.256 -393.944 254.3 -399.092 246.316C-422.113 210.656 -429.452 172.669 -437.24 132.436C-439.721 119.562 -442.309 106.265 -445.424 93.0481L-446.295 93.2596C-443.18 106.45 -440.619 119.747 -438.111 132.621C-430.323 172.934 -422.957 211 -399.831 246.819C-394.683 254.802 -389.957 262.732 -385.364 270.425C-360.205 312.641 -336.471 352.504 -244.52 401.488C-208.167 420.838 -165.716 425.834 -121.733 415.921C-81.447 406.828 -42.5861 385.627 -12.3317 356.232C4.51147 339.869 20.0875 322.157 35.2939 302.067C49.1011 283.827 62.2747 264.027 75.5538 241.584C101.426 197.835 123.839 150.411 144.563 105.552C173.656 42.6372 203.541 9.85818 238.653 2.43005C255.338 -1.11218 270.782 3.01166 287.123 7.34692C292.298 8.72153 297.631 10.1225 303.095 11.3385C340.293 19.4804 385.252 54.242 420.259 83.6373C428.416 90.4839 436.811 97.6213 444.89 104.521C477.124 131.96 510.441 160.324 545.078 184.195C584.176 211.185 619.711 228.658 653.74 237.619C675.916 243.461 696.799 244.202 717.602 239.893C736.161 236.033 754.245 228.209 772.857 215.943C807.468 193.156 839.068 157.866 869.613 123.739C896.013 94.2377 923.311 63.7585 953.037 40.4695C1026.72 -17.2109 1115.29 -24.2425 1186.47 -29.8996C1192.51 -30.3754 1198.19 -30.8248 1203.86 -31.3006C1253.79 -35.5302 1331.3 7.00327 1406.25 48.162C1437.42 65.2917 1466.89 81.4433 1494.21 94.2641L1494.58 93.4446C1467.28 80.6502 1437.85 64.4722 1406.67 47.369C1335.05 7.98132 1261.15 -32.5959 1210.94 -32.5959Z" fill="url(#paint16_linear_2361_1370)" fill-opacity="0.1"/>
<path d="M1193.57 -42.6938C1193.01 -42.6938 1192.49 -42.6939 1191.93 -42.6674C1189.56 -42.6146 1187.18 -42.5617 1184.75 -42.5353C1147.74 -41.7951 1105.82 -40.9756 1063.23 -32.3843C1013.92 -22.4449 973.366 -3.88779 939.337 24.2916C909.161 49.2723 881.706 82.395 855.174 114.407C792.711 189.773 733.707 260.961 640.964 237.064C564.166 217.265 496.318 157.179 430.688 99.0753C423.956 93.101 416.96 86.9153 410.175 80.9675C375.697 50.7263 331.371 14.5107 294.464 2.61514C288.973 0.844025 283.614 -1.13858 278.413 -3.06833C263.972 -8.43454 250.218 -13.5364 235.381 -13.5364C233.11 -13.5364 230.814 -13.4043 228.49 -13.1664C208.506 -10.9723 190.474 -0.398376 173.367 19.1633C159.111 35.4734 145.278 58.4716 131.101 89.4795C87.5143 184.697 46.3568 274.601 -21.4648 345.156C-73.2088 398.95 -164.79 437.175 -243.7 394.033C-329.685 347.006 -353.154 307.38 -377.997 265.455C-382.274 258.265 -386.682 250.81 -391.408 243.329C-414.402 207.008 -422.877 168.44 -431.826 127.625C-434.625 114.804 -437.555 101.56 -440.934 88.3956L-441.832 88.6335C-438.453 101.772 -435.549 115.015 -432.724 127.81C-423.748 168.731 -415.274 207.378 -392.2 243.832C-387.474 251.286 -383.066 258.741 -378.789 265.931C-353.867 307.988 -330.345 347.693 -244.122 394.853C-208.641 414.256 -167.536 418.803 -125.322 407.991C-87.0161 398.184 -49.8976 376.111 -20.8048 345.843C-4.54242 328.925 10.5584 310.579 25.3424 289.801C38.5952 271.139 51.3728 250.81 64.3616 227.706C88.9136 183.983 110.799 136.163 131.972 89.9289C146.122 59.0003 159.903 36.0814 174.106 19.8505C191.029 0.473907 208.875 -9.99417 228.622 -12.1618C245.941 -14.0651 261.57 -8.27594 278.122 -2.1431C283.323 -0.213379 288.709 1.79568 294.226 3.5668C330.975 15.4095 375.195 51.5457 409.594 81.7341C416.379 87.6819 423.375 93.8676 430.107 99.8419C462.474 128.497 495.922 158.104 530.85 183.005C570.344 211.158 606.301 229.16 640.779 238.042C663.219 243.832 684.286 244.254 705.142 239.391C723.754 235.029 741.812 226.517 760.345 213.326C794.77 188.847 825.843 151.337 855.913 115.068C882.418 83.0823 909.848 50.0125 939.944 25.0846C1016.37 -38.1736 1109.75 -40.024 1184.78 -41.5308C1187.21 -41.5836 1189.58 -41.6365 1191.96 -41.6629C1192.49 -41.6629 1193.04 -41.6893 1193.57 -41.6893C1244.65 -41.6893 1325.28 7.53201 1403.24 55.1408C1435.45 74.8082 1465.83 93.3654 1494.05 108.486L1494.5 107.667C1466.31 92.5723 1435.92 74.0152 1403.74 54.3478C1325.65 6.60678 1244.92 -42.6938 1193.57 -42.6938Z" fill="url(#paint17_linear_2361_1370)" fill-opacity="0.1"/>
<path d="M1129.42 -54.3779C1105.52 -54.3779 1079.94 -53.1356 1054.23 -48.8796C1002.91 -40.394 961.01 -21.4668 926.215 8.93311C895.749 35.5528 868.266 71.2131 841.682 105.684C812.087 144.067 781.49 183.772 747.328 209.889C709.154 239.073 670.135 248.087 628 237.461C550.173 217.846 481.982 155.011 416.008 94.2377C410.596 89.2416 404.999 84.0868 399.534 79.0907C376.25 57.7843 357.585 41.8706 340.821 29.0498C319.622 12.8454 301.59 1.66351 285.671 -5.13022C284.114 -5.79108 282.556 -6.45193 280.998 -7.11279C260.195 -16.0213 240.527 -24.4275 218.589 -27.7582C215.975 -28.1548 213.362 -28.3662 210.801 -28.3662C193.43 -28.3662 177.194 -19.2198 161.406 -0.583374C143.824 20.1414 129.198 50.0919 118.427 73.8831C115.84 79.5665 113.279 85.2235 110.745 90.8805C69.9304 181.128 31.3864 266.407 -29.9936 334.793C-81.2096 391.866 -167.036 430.275 -243.279 387.398C-323.562 342.248 -346.82 302.701 -371.478 260.829C-375.411 254.167 -379.477 247.242 -383.754 240.342C-406.722 203.36 -416.331 164.184 -426.469 122.708C-429.584 109.966 -432.805 96.8019 -436.448 83.7432L-437.398 84.0075C-433.755 97.0398 -430.534 110.204 -427.419 122.946C-417.255 164.501 -407.619 203.73 -384.572 240.844C-380.295 247.744 -376.23 254.643 -372.296 261.305C-347.586 303.31 -324.248 342.961 -243.754 388.244C-209.118 407.726 -169.412 411.824 -128.941 400.087C-92.6408 389.566 -57.2384 366.621 -29.2808 335.428C32.2048 266.909 70.7752 181.604 111.616 91.2506C114.177 85.5936 116.738 79.9366 119.298 74.2531C130.043 50.5412 144.642 20.67 162.146 0.0245667C180.045 -21.0967 198.446 -29.873 218.43 -26.833C240.237 -23.5023 259.826 -15.1225 280.602 -6.24045C282.16 -5.57959 283.691 -4.9187 285.275 -4.25784C321.153 11.0478 362.839 46.8139 398.848 79.778C404.313 84.7741 409.91 89.9289 415.322 94.925C447.767 124.823 481.322 155.751 516.539 181.657C556.43 211.026 592.782 229.557 627.71 238.36C639.22 241.267 650.625 242.721 661.607 242.748C661.634 242.748 661.66 242.748 661.687 242.748C672.141 242.748 682.569 241.426 692.68 238.809C711.371 233.945 729.455 224.746 747.909 210.63C782.176 184.433 812.826 144.675 842.447 106.239C869.006 71.7947 896.462 36.1608 926.848 9.62036C1005.76 -59.2948 1106.5 -55.1446 1180.05 -52.1046C1232.11 -49.9634 1317.57 7.02975 1400.23 62.1725C1433.46 84.3247 1464.83 105.261 1493.95 122.629L1494.45 121.783C1465.38 104.415 1433.99 83.5053 1400.78 61.353C1318.02 6.15744 1232.43 -50.915 1180.1 -53.0827C1164.61 -53.6907 1147.5 -54.3779 1129.42 -54.3779Z" fill="url(#paint18_linear_2361_1370)" fill-opacity="0.1"/>
<path d="M1093.2 -68.018C1076.09 -68.018 1058.59 -67.0664 1041.06 -64.5815C1017.14 -61.1979 994.883 -55.1179 974.925 -46.5266C952.168 -36.7194 931.365 -23.2378 913.096 -6.45175C882.419 21.7541 854.963 59.9257 828.431 96.8549C799.259 137.432 769.057 179.384 735.028 207.246C696.985 238.36 657.729 248.378 615.04 237.857C536.183 218.428 467.675 152.711 401.437 89.1889C397.24 85.1708 393.069 81.1528 388.924 77.1876C353.231 43.0869 311.994 5.73471 276.909 -12.8753C274.929 -13.9327 272.975 -14.9637 271.021 -16.0211C250.271 -27.0972 230.656 -37.5389 208.665 -42.4029C197.682 -44.8349 186.937 -43.6982 176.721 -39.0192C167.375 -34.7368 158.505 -27.6787 149.581 -17.3957C131.577 3.3291 116.74 33.914 105.81 58.2603C100.689 69.6537 95.5934 81.1792 90.6302 92.3082C52.8254 177.507 17.1326 257.974 -38.4658 324.431C-83.8738 378.728 -164.658 426.072 -242.802 380.79C-317.382 337.595 -340.482 297.996 -364.955 256.045C-368.519 249.965 -372.188 243.647 -376.016 237.382C-398.984 199.633 -409.755 159.822 -421.134 117.685C-424.539 105.05 -428.077 91.991 -431.931 79.0909L-432.908 79.3817C-429.054 92.2818 -425.516 105.34 -422.111 117.95C-410.706 160.166 -399.935 200.029 -376.887 237.884C-373.059 244.175 -369.39 250.467 -365.852 256.547C-341.3 298.604 -318.121 338.309 -243.33 381.662C-225.827 391.787 -207.135 397.708 -187.758 399.241C-169.727 400.669 -151.141 398.316 -132.529 392.236C-98.2354 381.028 -64.549 357.184 -37.7002 325.092C17.9774 258.529 53.723 178.009 91.5542 92.7311C96.491 81.6021 101.613 70.0767 106.734 58.6833C117.637 34.4163 132.448 3.91071 150.347 -16.7083C168.721 -37.8825 187.729 -45.9451 208.427 -41.3719C230.26 -36.5344 249.822 -26.1191 270.52 -15.0959C272.473 -14.0649 274.427 -13.0075 276.407 -11.9501C311.387 6.60703 352.545 43.9063 388.185 77.9542C392.329 81.9194 396.501 85.911 400.698 89.9291C433.223 121.122 466.857 153.372 502.338 180.389C542.598 211.026 579.373 230.139 614.749 238.862C626.418 241.743 637.955 243.118 649.043 242.959C659.629 242.801 670.163 241.268 680.353 238.36C699.15 232.994 717.234 223.081 735.635 208.039C769.797 180.124 799.998 138.093 829.223 97.463C855.755 60.5866 883.158 22.4678 913.756 -5.68509C988.309 -74.2831 1084.17 -70.8994 1168.17 -62.3611C1221.26 -56.9684 1310.71 7.32074 1397.19 69.4686C1431.46 94.1057 1463.83 117.342 1493.82 136.956L1494.37 136.084C1464.38 116.496 1432.04 93.2334 1397.77 68.6227C1311.18 6.39554 1221.63 -57.9729 1168.25 -63.392C1145.13 -65.7711 1119.62 -68.018 1093.2 -68.018Z" fill="url(#paint19_linear_2361_1370)" fill-opacity="0.1"/>
<path d="M1065.24 -82.3723C1052.83 -82.3723 1040.32 -81.7643 1027.86 -80.2839C1003.86 -77.4554 981.525 -71.6398 961.487 -62.9957C938.757 -53.1884 918.059 -39.3367 899.975 -21.8369C869.167 7.95493 841.79 48.6115 815.337 87.9198C786.535 130.718 756.729 174.969 722.779 204.55C684.815 237.646 645.321 248.643 602.051 238.227C522.138 218.983 450.278 147.213 386.865 83.8753C383.987 80.9939 381.11 78.139 378.259 75.284C343.49 40.6282 303.441 1.79565 268.091 -20.6474C266.059 -21.9427 264.026 -23.2379 262.019 -24.5068C240.979 -37.9356 221.126 -50.6242 198.686 -57.0214C187.307 -60.2729 176.219 -59.7442 165.686 -55.409C156.182 -51.5231 146.783 -44.3857 137.755 -34.2084C119.301 -13.4307 104.227 17.7886 93.1649 42.6372C85.7729 59.2382 78.5129 76.0242 71.4641 92.2816C36.4577 173.066 3.40494 249.383 -46.9399 314.042C-90.3679 369.687 -167.588 418.855 -242.379 374.102C-311.283 332.89 -334.277 293.106 -358.645 250.969C-361.786 245.55 -365.033 239.919 -368.36 234.341C-391.301 195.853 -403.261 155.355 -415.906 112.478C-419.576 100.027 -423.377 87.1268 -427.469 74.4117L-428.473 74.7289C-424.407 87.444 -420.605 100.318 -416.936 112.768C-404.264 155.698 -392.305 196.249 -369.284 234.87C-365.957 240.448 -362.71 246.052 -359.569 251.498C-335.149 293.74 -312.075 333.656 -242.933 375C-225.853 385.231 -207.716 391.073 -189.025 392.341C-171.706 393.531 -153.913 390.835 -136.145 384.305C-119.566 378.199 -103.172 368.867 -87.4902 356.522C-72.5742 344.785 -58.6615 330.696 -46.1479 314.65C-23.1799 285.149 -2.42944 251.683 19.0865 209.308C38.0945 171.903 54.753 133.414 72.4146 92.6516C79.4633 76.3943 86.7233 59.6083 94.1154 43.0073C105.151 18.2116 120.172 -12.902 138.52 -33.5739C157.396 -54.8274 176.958 -62.1762 198.369 -56.0698C220.651 -49.6991 240.451 -37.0633 261.412 -23.6873C263.419 -22.3921 265.451 -21.0967 267.484 -19.8279C302.755 2.56229 342.751 41.3419 377.467 75.9713C380.318 78.8263 383.195 81.6812 386.073 84.5626C418.624 117.077 452.311 150.702 488.083 178.855C528.712 210.815 565.883 230.561 601.761 239.179C613.588 242.034 625.257 243.303 636.477 242.986C647.169 242.695 657.782 240.924 668.051 237.752C686.954 231.883 705.091 221.256 723.439 205.263C757.495 175.577 787.327 131.273 816.182 88.4221C842.608 49.1666 869.959 8.56296 900.688 -21.1496C972.892 -90.9636 1066.22 -87.2363 1156.29 -72.803C1210.41 -64.1324 1303.84 7.4527 1394.16 76.6851C1429.45 103.754 1462.82 129.29 1493.71 151.099L1494.32 150.226C1463.43 128.444 1430.09 102.882 1394.79 75.8392C1304.34 6.52747 1210.84 -65.1369 1156.43 -73.8604C1128.71 -78.2221 1097.34 -82.3723 1065.24 -82.3723Z" fill="url(#paint20_linear_2361_1370)" fill-opacity="0.1"/>
<path d="M1041.29 -97.2017C1032.45 -97.2017 1023.55 -96.8316 1014.68 -95.9857C990.579 -93.7123 968.166 -88.161 948.075 -79.4641C925.371 -69.6303 904.779 -55.4085 886.827 -37.2214C855.939 -5.89636 828.721 37.1921 802.374 78.8796C773.915 123.898 744.505 170.449 710.607 201.827C672.697 236.906 632.939 248.934 589.062 238.624C508.093 219.565 435.995 144.543 372.371 78.3509L367.592 73.3812C329.523 33.8085 292.563 -3.78159 259.273 -28.4187C257.399 -29.7933 255.524 -31.1943 253.676 -32.5689C232.16 -48.5355 211.859 -63.6297 188.706 -71.6658C176.958 -75.7368 165.527 -75.816 154.65 -71.8509C144.856 -68.2822 135.193 -61.3034 125.927 -51.0732C106.971 -30.2162 91.6859 1.61105 80.4923 26.9883C71.0675 48.374 61.9067 70.1297 53.0627 91.1717C20.6963 168.07 -9.87491 240.713 -55.4677 303.654C-98.8429 363.502 -170.598 411.718 -241.931 367.493C-305.185 328.291 -328.153 288.136 -352.441 245.629C-355.108 240.977 -357.853 236.139 -360.652 231.381C-383.62 192.02 -396.82 150.755 -410.785 107.085C-414.693 94.8726 -418.732 82.2368 -422.956 69.7861L-424.012 70.1561C-419.788 82.6069 -415.749 95.2426 -411.841 107.429C-397.849 151.152 -384.649 192.469 -361.629 231.936C-358.83 236.721 -356.085 241.532 -353.418 246.185C-329.051 288.824 -306.03 329.084 -242.512 368.445C-225.827 378.781 -208.271 384.544 -190.319 385.601C-173.713 386.579 -156.738 383.513 -139.816 376.507C-124.134 370.031 -108.611 360.224 -93.6949 347.35C-79.6765 335.269 -66.5294 320.783 -54.5702 304.288C-34.0573 275.976 -14.6005 242.748 4.93549 202.673C22.4123 166.854 38.4899 128.603 54.0659 91.5947C62.9099 70.5527 72.0707 48.7969 81.4955 27.4113C92.6627 2.11334 107.869 -29.6083 126.719 -50.3331C146.096 -71.6658 166.24 -78.3009 188.31 -70.6348C211.304 -62.6516 231.553 -47.6103 252.99 -31.6966C254.864 -30.322 256.712 -28.9209 258.613 -27.5463C291.851 -2.9621 328.758 34.5751 366.8 74.1213L371.579 79.0911C404.156 112.98 437.843 148.033 473.905 177.402C514.904 210.762 552.498 231.143 588.824 239.682C600.81 242.51 612.663 243.7 623.989 243.224C634.787 242.774 645.505 240.792 655.828 237.329C674.862 230.958 693.025 219.591 711.373 202.647C745.376 171.189 774.839 124.559 803.324 79.4876C829.619 37.8794 856.837 -5.15619 887.619 -36.4284C960.853 -110.736 1058.53 -101.696 1144.41 -83.0591C1199.56 -71.0842 1296.95 7.84964 1391.15 84.1665C1427.5 113.641 1461.85 141.45 1493.63 165.427L1494.29 164.528C1462.51 140.578 1428.19 112.742 1391.83 83.2942C1297.56 6.87158 1200.06 -72.1416 1144.65 -84.143C1115.48 -90.4873 1078.91 -97.2017 1041.29 -97.2017Z" fill="url(#paint21_linear_2361_1370)" fill-opacity="0.1"/>
<path d="M1019.72 -112.323C968.007 -112.323 916.236 -97.8365 873.706 -52.6068C842.792 -19.7485 815.732 25.7455 789.569 69.7328C761.453 116.998 732.387 165.902 698.516 199.051C660.632 236.139 620.583 249.198 576.072 238.968C494.021 220.12 421.712 141.688 357.903 72.482L353.415 67.618C318.857 30.1337 283.112 -8.61957 250.455 -36.1909C248.871 -37.5127 247.313 -38.8344 245.756 -40.1825C223.659 -58.8983 202.776 -76.5831 178.726 -86.3375C171.545 -89.2453 164.708 -90.5934 158.187 -90.5934C118.349 -90.5934 90.3388 -40.1825 67.846 11.3122C56.5468 37.1918 45.7492 63.6793 35.3213 89.2945C5.43646 162.677 -22.7588 231.962 -63.9692 293.211C-80.5748 317.901 -107.952 350.865 -143.988 367.599C-177.516 383.169 -210.331 380.895 -241.483 360.805C-299.167 323.664 -322.161 282.928 -346.502 239.787C-348.614 236.06 -350.779 232.2 -352.97 228.367C-376.017 188.001 -390.511 145.865 -405.849 101.269C-409.915 89.4266 -414.139 77.1874 -418.468 65.1068L-419.551 65.5033C-415.221 77.5575 -410.997 89.7968 -406.932 101.639C-391.567 146.314 -377.073 188.477 -353.973 228.949C-351.808 232.755 -349.617 236.615 -347.505 240.342C-323.085 283.616 -300.012 324.484 -242.116 361.809C-225.854 372.278 -208.879 378.014 -191.64 378.807C-175.773 379.547 -159.564 376.137 -143.486 368.682C-128.702 361.809 -114.024 351.526 -99.8996 338.15C-86.7788 325.726 -74.3708 310.817 -62.966 293.899C-44.4332 266.354 -26.7188 234.262 -8.76678 195.8C7.25803 161.435 22.0948 125.008 36.43 89.7703C46.858 64.1551 57.6556 37.6676 68.9284 11.8145C94.8796 -47.6107 128.17 -105.582 178.33 -85.2272C202.222 -75.5257 223.025 -57.9202 245.043 -39.2573C246.6 -37.9356 248.184 -36.5874 249.742 -35.2657C282.346 -7.74722 318.065 30.9796 352.596 68.4375L357.084 73.3015C389.662 108.618 423.322 145.151 459.648 175.762C501.017 210.63 539.033 231.672 575.835 240.131C588.005 242.933 599.991 244.017 611.475 243.382C622.404 242.774 633.228 240.554 643.63 236.826C662.796 229.927 681.039 217.846 699.36 199.897C733.337 166.642 762.43 117.685 790.599 70.3408C816.735 26.4064 843.742 -19.0348 874.577 -51.7874C948.788 -130.695 1051.43 -115.468 1132.56 -93.369C1188.71 -78.0898 1290.09 8.21933 1388.14 91.7C1425.52 123.527 1460.84 153.61 1493.55 179.701L1494.26 178.802C1461.58 152.711 1426.26 122.655 1388.88 90.8277C1290.75 7.2677 1189.27 -79.1208 1132.85 -94.4794C1097.82 -104.049 1058.77 -112.323 1019.72 -112.323Z" fill="url(#paint22_linear_2361_1370)" fill-opacity="0.1"/>
<path d="M999.475 -127.576C995.753 -127.576 992.03 -127.496 988.308 -127.311C963.993 -126.148 941.421 -121.125 921.252 -112.349C898.574 -102.489 878.167 -87.5534 860.585 -67.9653C829.697 -33.6003 802.848 14.2465 776.897 60.5336C749.097 110.072 720.348 161.329 686.529 196.302C648.672 235.425 608.306 249.541 563.136 239.417C480.002 220.781 405.897 136.956 346.339 69.6007C341.059 63.6264 335.726 57.5729 330.552 51.678C300.984 18.0795 270.413 -16.6556 241.689 -43.9098C240.528 -45.0201 239.366 -46.1303 238.178 -47.2405C216.398 -67.9389 193.879 -89.351 168.773 -100.929C154.833 -107.353 141.264 -108.146 128.46 -103.229C114.23 -97.7836 100.819 -85.5708 87.4606 -65.9299C77.059 -50.6242 66.8158 -31.0361 55.2262 -4.25778C42.1845 25.8777 29.9877 56.9649 18.187 87.074C-8.10745 154.086 -35.2994 223.371 -72.4178 282.928C-102.461 331.119 -138.154 361.757 -172.923 369.185C-196.075 374.128 -218.964 369.105 -241.008 354.276C-293.227 319.038 -316.407 277.351 -340.932 233.205C-342.384 230.614 -343.836 227.997 -345.288 225.38C-368.494 183.825 -385.126 138.569 -401.203 94.8193C-405.348 83.5582 -409.625 71.9269 -413.981 60.4543L-415.09 60.8772C-410.734 72.3234 -406.457 83.9811 -402.339 95.2423C-386.235 139.045 -369.576 184.327 -346.344 225.962C-344.892 228.579 -343.44 231.169 -341.988 233.786C-329.607 256.071 -317.911 277.113 -302.441 297.6C-284.911 320.809 -265.613 339.129 -241.747 355.201C-219.439 370.242 -196.207 375.318 -172.738 370.295C-154.126 366.303 -135.461 356.02 -117.271 339.71C-101.062 325.145 -85.6443 306.244 -71.4674 283.51C-54.7827 256.732 -38.6786 225.75 -22.2578 188.795C-7.60583 155.804 6.04297 121.069 19.2166 87.4441C31.0174 57.3614 43.2141 26.2743 56.2557 -3.83481C73.2837 -43.196 96.9382 -89.959 128.829 -102.145C141.317 -106.93 154.569 -106.163 168.218 -99.872C193.166 -88.3729 215.606 -67.0401 237.307 -46.3946C238.469 -45.2844 239.63 -44.1742 240.818 -43.0639C269.489 -15.8362 298.687 17.3393 329.601 52.4445C334.776 58.313 340.135 64.393 345.389 70.3673C374.085 102.829 409.805 143.221 446.949 175.366C488.081 210.947 525.965 232.28 562.819 240.554C575.174 243.329 587.345 244.334 598.934 243.514C609.996 242.748 620.925 240.316 631.406 236.271C650.731 228.843 669.026 216.022 687.321 197.095C721.272 162.016 750.048 110.707 777.873 61.0887C803.798 14.8809 830.62 -32.913 861.429 -67.1723C935.798 -149.913 1039 -130.166 1120.6 -103.731C1177.75 -84.9893 1283.2 8.74808 1385.21 99.419C1423.59 133.52 1459.84 165.744 1493.39 193.949L1494.16 193.024C1460.6 164.845 1424.38 132.647 1386 98.5202C1283.91 7.76999 1178.36 -86.0466 1120.97 -104.868C1090.29 -114.834 1045.33 -127.576 999.475 -127.576Z" fill="url(#paint23_linear_2361_1370)" fill-opacity="0.1"/>
<path d="M980.521 -143.092C978.726 -143.092 976.931 -143.066 975.135 -143.04C950.689 -142.432 928.064 -137.647 907.868 -128.818C885.217 -118.931 864.889 -103.626 847.465 -83.3766C816.63 -47.5312 790.019 2.64188 764.279 51.1495C736.796 102.988 708.363 156.597 674.545 193.394C636.688 234.606 595.979 249.753 550.148 239.708C466.011 221.309 390.692 132.463 335.701 67.6183C326.487 56.7536 317.195 45.6511 308.219 34.8922C282.241 3.77856 257.689 -25.5903 232.873 -51.7342L230.814 -53.9019C208.347 -77.5874 185.115 -102.092 158.795 -115.627C144.248 -123.108 130.098 -124.456 116.739 -119.618C102.246 -114.384 88.5971 -102.198 75.0539 -82.3456C64.4147 -66.7755 54.0922 -46.976 42.5555 -19.9862C27.6922 14.5374 14.0963 50.5944 0.975433 85.4617C-23.0222 149.143 -47.8118 214.965 -80.9438 272.434C-101.694 308.438 -135.301 353.271 -177.541 362.55C-198.767 367.202 -219.966 362.153 -240.585 347.535C-287.471 314.333 -312.129 269.13 -335.968 225.38L-337.605 222.393C-361.127 179.252 -379.449 132.436 -397.137 87.1799C-401.149 76.8969 -405.321 66.2701 -409.492 55.802L-410.627 56.2514C-406.456 66.7195 -402.311 77.3462 -398.272 87.6029C-380.557 132.912 -362.236 179.754 -338.661 222.975L-337.024 225.962C-325.065 247.903 -312.709 270.584 -297.714 291.467C-280.897 314.888 -262.444 333.577 -241.297 348.566C-220.389 363.396 -198.846 368.524 -177.251 363.792C-159.299 359.854 -141.294 349.121 -123.738 331.859C-108.4 316.765 -93.6158 296.992 -79.835 273.095C-46.6501 215.52 -21.8342 149.645 2.16345 85.9375C15.2842 51.0966 28.8802 15.0662 43.717 -19.4575C55.2274 -46.368 65.497 -66.1147 76.0834 -81.6054C89.4946 -101.22 102.932 -113.274 117.188 -118.402C130.23 -123.108 144.037 -121.786 158.267 -114.464C184.403 -101.035 207.555 -76.6093 229.943 -53.0031L232.002 -50.8354C256.765 -24.718 281.317 4.65091 307.295 35.7381C316.271 46.497 325.563 57.626 334.777 68.4906C367.513 107.112 399.827 144.358 434.886 175.445C475.542 211.502 513.162 232.941 549.911 240.977C562.477 243.726 574.779 244.625 586.527 243.647C597.721 242.722 608.756 240.052 619.316 235.716C638.8 227.733 657.174 214.199 675.469 194.267C709.393 157.338 737.879 103.675 765.387 51.7575C791.075 3.30273 817.659 -46.8174 848.415 -82.5571C923.919 -170.294 1033.16 -142.59 1108.77 -114.094C1166.91 -92.0207 1276.39 9.17123 1382.25 107.032C1421.67 143.459 1458.89 177.877 1493.34 208.171L1494.16 207.246C1459.71 176.979 1422.48 142.561 1383.09 106.134C1277.15 8.19318 1167.59 -93.1045 1109.22 -115.23C1085.38 -124.218 1064.05 -130.8 1044.01 -135.347C1021.44 -140.502 1000.14 -143.092 980.521 -143.092Z" fill="url(#paint24_linear_2361_1370)" fill-opacity="0.1"/>
<path d="M962.488 -158.742C962.303 -158.742 962.145 -158.742 961.987 -158.742C937.435 -158.689 914.731 -154.142 894.482 -145.287C871.831 -135.374 851.608 -119.698 834.316 -98.7617C803.56 -61.4624 777.239 -9.01599 751.763 41.6857C724.571 95.7975 696.455 151.786 662.637 190.434C624.753 233.734 583.727 249.964 537.184 240.131C458.565 223.239 389.292 144.728 325.06 65.7677C312.309 50.0919 299.505 33.8875 287.15 18.2117C266.531 -7.93219 245.174 -34.9749 224.054 -59.4534L223.605 -59.9821C200.426 -86.8397 176.455 -114.622 148.814 -130.219C133.713 -138.731 119.008 -140.661 105.122 -135.929C90.3643 -130.906 76.5042 -118.72 62.7234 -98.6559C51.8994 -82.8744 41.4715 -62.837 29.9083 -35.5829C13.5931 2.74744 -1.0062 43.1925 -15.1038 82.3158C-37.0686 143.274 -59.799 206.294 -89.4461 262.071C-102.778 287.158 -116.849 307.777 -131.211 323.294C-147.949 341.349 -165.056 352.425 -182.057 356.205C-201.435 360.514 -220.971 355.359 -240.137 340.926C-281.955 309.39 -307.431 261.596 -329.897 219.406C-354.185 173.806 -374.593 124.506 -394.34 76.8174C-397.825 68.4112 -401.415 59.7141 -405.005 51.1493L-406.193 51.6516C-402.629 60.2164 -399.013 68.9134 -395.528 77.3196C-375.781 125.034 -355.347 174.361 -331.033 220.014C-318.176 244.149 -306.401 265.799 -292.33 286.286C-276.147 309.892 -259.33 328.105 -240.929 341.957C-221.446 356.628 -201.567 361.862 -181.82 357.474C-164.554 353.641 -147.209 342.433 -130.313 324.193C-115.873 308.597 -101.749 287.898 -88.3638 262.706C-58.6638 206.849 -35.9333 143.776 -13.9421 82.7652C0.155457 43.6419 14.7282 3.2233 31.0434 -35.0805C42.5802 -62.2554 52.9555 -82.2401 63.7531 -97.9158C77.3491 -117.742 91.0242 -129.77 105.491 -134.686C119.035 -139.312 133.396 -137.409 148.154 -129.082C175.61 -113.592 199.502 -85.888 222.602 -59.1097L223.051 -58.581C244.144 -34.1289 265.475 -7.08624 286.094 19.0312C298.449 34.707 311.253 50.9114 324.004 66.6136C352.991 102.248 386.889 142.983 422.687 175.498C462.895 212.004 500.224 233.575 536.841 241.426C549.592 244.122 562.106 244.915 573.986 243.752C585.311 242.642 596.479 239.734 607.118 235.108C626.759 226.57 645.213 212.269 663.535 191.332C697.459 152.553 725.627 96.5112 752.846 42.3201C778.295 -8.32867 804.59 -60.6958 835.24 -97.8893C867.791 -137.383 909.82 -157.077 962.198 -157.077C1001.19 -157.077 1045.91 -146.159 1096.78 -124.377C1155.92 -98.9731 1269.39 9.69974 1379.13 114.804C1419.58 153.531 1457.78 190.116 1493.13 222.472L1494 221.521C1458.65 189.191 1420.48 152.606 1380.03 113.879C1270.21 8.69522 1156.63 -100.057 1097.29 -125.566C1045.33 -147.904 1001.19 -158.742 962.488 -158.742Z" fill="url(#paint25_linear_2361_1370)" fill-opacity="0.1"/>
<path d="M945.092 -174.471C921.86 -174.471 900.344 -170.188 881.098 -161.729C858.473 -151.79 838.304 -135.77 821.197 -114.12C790.573 -75.3935 764.49 -20.6738 739.304 32.222C712.402 88.6865 684.577 147.107 650.732 187.631C612.822 233.046 571.426 250.334 524.197 240.501C444.891 224.006 377.07 144.199 314.422 63.8379C298.714 43.6947 283.059 22.6262 267.958 2.27151C250.851 -20.7795 233.163 -44.5971 215.264 -67.2252C193.061 -95.2724 167.929 -127.1 138.862 -144.864C123.207 -154.433 107.948 -156.944 93.5071 -152.292C85.7455 -149.781 78.0104 -145.155 70.5656 -138.493C63.8072 -132.44 57.0223 -124.536 50.4224 -114.993C39.5456 -99.2375 28.6951 -78.3806 17.2639 -51.2322C-0.476868 -9.14822 -15.9473 35.87 -30.8896 79.4079C-50.9008 137.617 -71.5721 197.809 -97.9193 251.709C-110.882 278.197 -124.293 299.794 -137.783 315.84C-153.861 334.952 -170.282 346.477 -186.597 350.072C-204.206 353.958 -222.052 348.645 -239.687 334.317C-273.69 306.64 -300.117 258.952 -322.214 216.419C-348.561 165.691 -372.4 110.971 -395.474 58.0487C-397.163 54.1892 -398.826 50.3298 -400.516 46.4703L-401.73 46.999C-400.041 50.8585 -398.378 54.7179 -396.688 58.5774C-373.614 111.526 -349.775 166.246 -323.402 217.027C-301.252 259.666 -274.746 307.513 -240.558 335.348C-222.606 349.94 -204.364 355.333 -186.359 351.368C-169.754 347.72 -153.095 336.036 -136.833 316.685C-123.263 300.56 -109.799 278.884 -96.7841 252.291C-70.3841 198.311 -49.6865 138.066 -29.6753 79.8309C-14.7328 36.3194 0.737518 -8.67239 18.4519 -50.7035C34.3447 -88.4522 59.4775 -139.921 93.8767 -151.023C107.922 -155.543 122.811 -153.111 138.15 -143.727C167.005 -126.069 192.085 -94.3736 214.208 -66.4057C232.081 -43.804 249.769 -19.9865 266.876 3.06458C282.003 23.4457 297.632 44.5142 313.366 64.6574C341.43 100.635 374.403 141.847 410.624 175.524C450.382 212.533 487.448 234.183 523.933 241.77C536.895 244.466 549.541 245.153 561.579 243.832C573.037 242.563 584.309 239.443 595.081 234.527C614.881 225.459 633.413 210.392 651.735 188.451C685.686 147.794 713.538 89.3209 740.492 32.7772C765.677 -20.0657 791.708 -74.7062 822.226 -113.327C879.039 -185.177 964.971 -192.182 1084.99 -134.819C1145.12 -106.058 1262.63 10.1227 1376.26 122.496C1417.73 163.497 1456.88 202.223 1493.13 236.615L1494.03 235.663C1457.81 201.298 1418.66 162.571 1377.18 121.571C1263.48 9.11813 1145.89 -107.142 1085.57 -136.008C1033.06 -161.121 988.335 -173.704 948.841 -174.471C947.573 -174.471 946.333 -174.471 945.092 -174.471Z" fill="url(#paint26_linear_2361_1370)" fill-opacity="0.1"/>
</g>
</g>
<defs>
<linearGradient id="paint0_linear_2361_1370" x1="1.96557e-05" y1="25.2999" x2="1268.24" y2="361.796" gradientUnits="userSpaceOnUse">
<stop stop-color="#0774FF"/>
<stop offset="0.0001" stop-color="#2181FC"/>
<stop offset="1" stop-color="#2770FF"/>
</linearGradient>
<linearGradient id="paint1_linear_2361_1370" x1="482.866" y1="534.115" x2="482.866" y2="-119.909" gradientUnits="userSpaceOnUse">
<stop stop-color="white"/>
<stop offset="1" stop-color="white" stop-opacity="0"/>
</linearGradient>
<linearGradient id="paint2_linear_2361_1370" x1="486.354" y1="526.101" x2="486.354" y2="-105.687" gradientUnits="userSpaceOnUse">
<stop stop-color="white"/>
<stop offset="1" stop-color="white" stop-opacity="0"/>
</linearGradient>
<linearGradient id="paint3_linear_2361_1370" x1="489.786" y1="518.207" x2="489.786" y2="-91.4659" gradientUnits="userSpaceOnUse">
<stop stop-color="white"/>
<stop offset="1" stop-color="white" stop-opacity="0"/>
</linearGradient>
<linearGradient id="paint4_linear_2361_1370" x1="493.19" y1="510.372" x2="493.19" y2="-77.2438" gradientUnits="userSpaceOnUse">
<stop stop-color="white"/>
<stop offset="1" stop-color="white" stop-opacity="0"/>
</linearGradient>
<linearGradient id="paint5_linear_2361_1370" x1="496.581" y1="502.618" x2="496.581" y2="-63.0483" gradientUnits="userSpaceOnUse">
<stop stop-color="white"/>
<stop offset="1" stop-color="white" stop-opacity="0"/>
</linearGradient>
<linearGradient id="paint6_linear_2361_1370" x1="499.842" y1="494.812" x2="499.842" y2="-48.8265" gradientUnits="userSpaceOnUse">
<stop stop-color="white"/>
<stop offset="1" stop-color="white" stop-opacity="0"/>
</linearGradient>
<linearGradient id="paint7_linear_2361_1370" x1="503.112" y1="487.179" x2="503.112" y2="-34.6311" gradientUnits="userSpaceOnUse">
<stop stop-color="white"/>
<stop offset="1" stop-color="white" stop-opacity="0"/>
</linearGradient>
<linearGradient id="paint8_linear_2361_1370" x1="506.22" y1="479.692" x2="506.22" y2="-20.4358" gradientUnits="userSpaceOnUse">
<stop stop-color="white"/>
<stop offset="1" stop-color="white" stop-opacity="0"/>
</linearGradient>
<linearGradient id="paint9_linear_2361_1370" x1="508.701" y1="472.125" x2="508.701" y2="-6.21405" gradientUnits="userSpaceOnUse">
<stop stop-color="white"/>
<stop offset="1" stop-color="white" stop-opacity="0"/>
</linearGradient>
<linearGradient id="paint10_linear_2361_1370" x1="510.904" y1="464.566" x2="510.904" y2="7.98157" gradientUnits="userSpaceOnUse">
<stop stop-color="white"/>
<stop offset="1" stop-color="white" stop-opacity="0"/>
</linearGradient>
<linearGradient id="paint11_linear_2361_1370" x1="513.096" y1="457.2" x2="513.096" y2="7.37347" gradientUnits="userSpaceOnUse">
<stop stop-color="white"/>
<stop offset="1" stop-color="white" stop-opacity="0"/>
</linearGradient>
<linearGradient id="paint12_linear_2361_1370" x1="515.301" y1="449.896" x2="515.301" y2="1.84869" gradientUnits="userSpaceOnUse">
<stop stop-color="white"/>
<stop offset="1" stop-color="white" stop-opacity="0"/>
</linearGradient>
<linearGradient id="paint13_linear_2361_1370" x1="517.451" y1="442.578" x2="517.451" y2="-5.3942" gradientUnits="userSpaceOnUse">
<stop stop-color="white"/>
<stop offset="1" stop-color="white" stop-opacity="0"/>
</linearGradient>
<linearGradient id="paint14_linear_2361_1370" x1="519.734" y1="435.324" x2="519.734" y2="-13.7742" gradientUnits="userSpaceOnUse">
<stop stop-color="white"/>
<stop offset="1" stop-color="white" stop-opacity="0"/>
</linearGradient>
<linearGradient id="paint15_linear_2361_1370" x1="521.848" y1="428.043" x2="521.848" y2="-22.894" gradientUnits="userSpaceOnUse">
<stop stop-color="white"/>
<stop offset="1" stop-color="white" stop-opacity="0"/>
</linearGradient>
<linearGradient id="paint16_linear_2361_1370" x1="524.143" y1="420.885" x2="524.143" y2="-32.5959" gradientUnits="userSpaceOnUse">
<stop stop-color="white"/>
<stop offset="1" stop-color="white" stop-opacity="0"/>
</linearGradient>
<linearGradient id="paint17_linear_2361_1370" x1="526.335" y1="413.721" x2="526.335" y2="-42.6938" gradientUnits="userSpaceOnUse">
<stop stop-color="white"/>
<stop offset="1" stop-color="white" stop-opacity="0"/>
</linearGradient>
<linearGradient id="paint18_linear_2361_1370" x1="528.525" y1="406.635" x2="528.525" y2="-54.378" gradientUnits="userSpaceOnUse">
<stop stop-color="white"/>
<stop offset="1" stop-color="white" stop-opacity="0"/>
</linearGradient>
<linearGradient id="paint19_linear_2361_1370" x1="530.731" y1="399.646" x2="530.731" y2="-68.0181" gradientUnits="userSpaceOnUse">
<stop stop-color="white"/>
<stop offset="1" stop-color="white" stop-opacity="0"/>
</linearGradient>
<linearGradient id="paint20_linear_2361_1370" x1="532.923" y1="392.615" x2="532.923" y2="-82.3723" gradientUnits="userSpaceOnUse">
<stop stop-color="white"/>
<stop offset="1" stop-color="white" stop-opacity="0"/>
</linearGradient>
<linearGradient id="paint21_linear_2361_1370" x1="535.14" y1="385.779" x2="535.14" y2="-97.2017" gradientUnits="userSpaceOnUse">
<stop stop-color="white"/>
<stop offset="1" stop-color="white" stop-opacity="0"/>
</linearGradient>
<linearGradient id="paint22_linear_2361_1370" x1="537.357" y1="378.906" x2="537.357" y2="-112.323" gradientUnits="userSpaceOnUse">
<stop stop-color="white"/>
<stop offset="1" stop-color="white" stop-opacity="0"/>
</linearGradient>
<linearGradient id="paint23_linear_2361_1370" x1="539.534" y1="372.171" x2="539.534" y2="-127.576" gradientUnits="userSpaceOnUse">
<stop stop-color="white"/>
<stop offset="1" stop-color="white" stop-opacity="0"/>
</linearGradient>
<linearGradient id="paint24_linear_2361_1370" x1="541.766" y1="365.498" x2="541.766" y2="-143.092" gradientUnits="userSpaceOnUse">
<stop stop-color="white"/>
<stop offset="1" stop-color="white" stop-opacity="0"/>
</linearGradient>
<linearGradient id="paint25_linear_2361_1370" x1="543.903" y1="358.977" x2="543.903" y2="-158.742" gradientUnits="userSpaceOnUse">
<stop stop-color="white"/>
<stop offset="1" stop-color="white" stop-opacity="0"/>
</linearGradient>
<linearGradient id="paint26_linear_2361_1370" x1="546.148" y1="352.629" x2="546.148" y2="-174.471" gradientUnits="userSpaceOnUse">
<stop stop-color="white"/>
<stop offset="1" stop-color="white" stop-opacity="0"/>
</linearGradient>
</defs>
</svg>
