<svg width="26" height="17" viewBox="0 0 26 17" fill="none" xmlns="http://www.w3.org/2000/svg">
<path d="M0 14.043H25.6332V15.3201H0V14.043Z" fill="white"/>
<path d="M0 11.4893H25.6332V12.7663H0V11.4893Z" fill="white"/>
<path d="M0 8.93457H25.6332V10.2117H0V8.93457Z" fill="white"/>
<path d="M0 6.38574H25.6332V7.66283H0V6.38574Z" fill="white"/>
<path d="M0 3.83105H25.6332V5.10814H0V3.83105Z" fill="white"/>
<path d="M0 1.27734H25.6332V2.55443H0V1.27734Z" fill="white"/>
<path d="M0 15.3203H25.6332V16.5974H0V15.3203Z" fill="#BD3D44"/>
<path d="M0 12.7661H25.6332V14.0432H0V12.7661Z" fill="#BD3D44"/>
<path d="M0 10.2119H25.6332V11.489H0V10.2119Z" fill="#BD3D44"/>
<path d="M0 7.66211H25.6332V8.93919H0V7.66211Z" fill="#BD3D44"/>
<path d="M0 5.1084H25.6332V6.38548H0V5.1084Z" fill="#BD3D44"/>
<path d="M0 2.55371H25.6332V3.83079H0V2.55371Z" fill="#BD3D44"/>
<path d="M0 0H25.6332V1.27708H0V0Z" fill="#BD3D44"/>
<path d="M0 0H10.8072V7.53434H0V0Z" fill="#192F5D"/>
<path d="M0.750601 1.19453L1.00693 1.00686L1.26327 1.19453L1.16714 0.892427L1.42347 0.709332H1.10764L1.00693 0.407227L0.910808 0.709332H0.594971L0.851303 0.892427L0.750601 1.19453Z" fill="white"/>
<path d="M1.00693 1.89453L0.910808 2.19664H0.594971L0.851303 2.37973L0.750601 2.68184L1.00693 2.49417L1.26327 2.68184L1.16714 2.37973L1.42347 2.19664H1.10764L1.00693 1.89453Z" fill="white"/>
<path d="M1.00693 3.38232L0.910808 3.68443H0.594971L0.851303 3.86752L0.750601 4.16963L1.00693 3.98196L1.26327 4.16963L1.16714 3.86752L1.42347 3.68443H1.10764L1.00693 3.38232Z" fill="white"/>
<path d="M1.00693 4.87012L0.910808 5.16765H0.594971L0.851303 5.35532L0.750601 5.65742L1.00693 5.46975L1.26327 5.65742L1.16714 5.35532L1.42347 5.16765H1.10764L1.00693 4.87012Z" fill="white"/>
<path d="M1.10764 6.65495L1.00693 6.35742L0.910808 6.65495H0.594971L0.851303 6.84262L0.750601 7.14473L1.00693 6.95706L1.26327 7.14473L1.16714 6.84262L1.42347 6.65495H1.10764Z" fill="white"/>
<path d="M2.42132 1.19453L2.67765 1.00686L2.9294 1.19453L2.83328 0.892427L3.08961 0.709332H2.77377L2.67765 0.407227L2.57695 0.709332H2.26111L2.51744 0.892427L2.42132 1.19453Z" fill="white"/>
<path d="M2.67765 1.89453L2.57695 2.19664H2.26111L2.51744 2.37973L2.42132 2.68184L2.67765 2.49417L2.9294 2.68184L2.83328 2.37973L3.08961 2.19664H2.77377L2.67765 1.89453Z" fill="white"/>
<path d="M2.67765 3.38232L2.57695 3.68443H2.26111L2.51744 3.86752L2.42132 4.16963L2.67765 3.98196L2.9294 4.16963L2.83328 3.86752L3.08961 3.68443H2.77377L2.67765 3.38232Z" fill="white"/>
<path d="M2.67765 4.87012L2.57695 5.16765H2.26111L2.51744 5.35532L2.42132 5.65742L2.67765 5.46975L2.9294 5.65742L2.83328 5.35532L3.08961 5.16765H2.77377L2.67765 4.87012Z" fill="white"/>
<path d="M2.77377 6.65495L2.67765 6.35742L2.57695 6.65495H2.26111L2.51744 6.84262L2.42132 7.14473L2.67765 6.95706L2.9294 7.14473L2.83328 6.84262L3.08961 6.65495H2.77377Z" fill="white"/>
<path d="M4.08745 1.19453L4.34379 1.00686L4.59554 1.19453L4.49942 0.892427L4.75575 0.709332H4.43991L4.34379 0.407227L4.24308 0.709332H3.92725L4.18358 0.892427L4.08745 1.19453Z" fill="white"/>
<path d="M4.34379 1.89453L4.24308 2.19664H3.92725L4.18358 2.37973L4.08745 2.68184L4.34379 2.49417L4.59554 2.68184L4.49942 2.37973L4.75575 2.19664H4.43991L4.34379 1.89453Z" fill="white"/>
<path d="M4.34379 3.38232L4.24308 3.68443H3.92725L4.18358 3.86752L4.08745 4.16963L4.34379 3.98196L4.59554 4.16963L4.49942 3.86752L4.75575 3.68443H4.43991L4.34379 3.38232Z" fill="white"/>
<path d="M4.34379 4.87012L4.24308 5.16765H3.92725L4.18358 5.35532L4.08745 5.65742L4.34379 5.46975L4.59554 5.65742L4.49942 5.35532L4.75575 5.16765H4.43991L4.34379 4.87012Z" fill="white"/>
<path d="M4.43991 6.65495L4.34379 6.35742L4.24308 6.65495H3.92725L4.18358 6.84262L4.08745 7.14473L4.34379 6.95706L4.59554 7.14473L4.49942 6.84262L4.75575 6.65495H4.43991Z" fill="white"/>
<path d="M5.75365 1.19453L6.00998 1.00686L6.26632 1.19453L6.16562 0.892427L6.42195 0.709332H6.10611L6.00998 0.407227L5.90928 0.709332H5.59802L5.84978 0.892427L5.75365 1.19453Z" fill="white"/>
<path d="M6.00998 1.89453L5.90928 2.19664H5.59802L5.84978 2.37973L5.75365 2.68184L6.00998 2.49417L6.26632 2.68184L6.16562 2.37973L6.42195 2.19664H6.10611L6.00998 1.89453Z" fill="white"/>
<path d="M6.00998 3.38232L5.90928 3.68443H5.59802L5.84978 3.86752L5.75365 4.16963L6.00998 3.98196L6.26632 4.16963L6.16562 3.86752L6.42195 3.68443H6.10611L6.00998 3.38232Z" fill="white"/>
<path d="M6.00998 4.87012L5.90928 5.16765H5.59802L5.84978 5.35532L5.75365 5.65742L6.00998 5.46975L6.26632 5.65742L6.16562 5.35532L6.42195 5.16765H6.10611L6.00998 4.87012Z" fill="white"/>
<path d="M6.10611 6.65495L6.00998 6.35742L5.90928 6.65495H5.59802L5.84978 6.84262L5.75365 7.14473L6.00998 6.95706L6.26632 7.14473L6.16562 6.84262L6.42195 6.65495H6.10611Z" fill="white"/>
<path d="M7.41979 1.19453L7.67612 1.00686L7.93245 1.19453L7.83175 0.892427L8.08808 0.709332H7.77225L7.67612 0.407227L7.58 0.709332H7.26416L7.52049 0.892427L7.41979 1.19453Z" fill="white"/>
<path d="M7.67612 1.89453L7.58 2.19664H7.26416L7.52049 2.37973L7.41979 2.68184L7.67612 2.49417L7.93245 2.68184L7.83175 2.37973L8.08808 2.19664H7.77225L7.67612 1.89453Z" fill="white"/>
<path d="M7.67612 3.38232L7.58 3.68443H7.26416L7.52049 3.86752L7.41979 4.16963L7.67612 3.98196L7.93245 4.16963L7.83175 3.86752L8.08808 3.68443H7.77225L7.67612 3.38232Z" fill="white"/>
<path d="M7.67612 4.87012L7.58 5.16765H7.26416L7.52049 5.35532L7.41979 5.65742L7.67612 5.46975L7.93245 5.65742L7.83175 5.35532L8.08808 5.16765H7.77225L7.67612 4.87012Z" fill="white"/>
<path d="M7.77225 6.65495L7.67612 6.35742L7.58 6.65495H7.26416L7.52049 6.84262L7.41979 7.14473L7.67612 6.95706L7.93245 7.14473L7.83175 6.84262L8.08808 6.65495H7.77225Z" fill="white"/>
<path d="M9.09051 1.19453L9.34226 1.00686L9.59859 1.19453L9.50247 0.892427L9.7588 0.709332H9.44296L9.34226 0.407227L9.24614 0.709332H8.9303L9.18663 0.892427L9.09051 1.19453Z" fill="white"/>
<path d="M9.34226 1.89453L9.24614 2.19664H8.9303L9.18663 2.37973L9.09051 2.68184L9.34226 2.49417L9.59859 2.68184L9.50247 2.37973L9.7588 2.19664H9.44296L9.34226 1.89453Z" fill="white"/>
<path d="M9.34226 3.38232L9.24614 3.68443H8.9303L9.18663 3.86752L9.09051 4.16963L9.34226 3.98196L9.59859 4.16963L9.50247 3.86752L9.7588 3.68443H9.44296L9.34226 3.38232Z" fill="white"/>
<path d="M9.34226 4.87012L9.24614 5.16765H8.9303L9.18663 5.35532L9.09051 5.65742L9.34226 5.46975L9.59859 5.65742L9.50247 5.35532L9.7588 5.16765H9.44296L9.34226 4.87012Z" fill="white"/>
<path d="M9.44296 6.65495L9.34226 6.35742L9.24614 6.65495H8.9303L9.18663 6.84262L9.09051 7.14473L9.34226 6.95706L9.59859 7.14473L9.50247 6.84262L9.7588 6.65495H9.44296Z" fill="white"/>
<path d="M1.58831 2.01387L1.84006 1.8262L2.0964 2.01387L2.00027 1.71176L2.2566 1.52409H1.94077L1.84006 1.22656L1.74394 1.52409H1.4281L1.68443 1.71176L1.58831 2.01387Z" fill="white"/>
<path d="M1.84006 2.71387L1.74394 3.0114H1.4281L1.68443 3.19907L1.58831 3.4966L1.84006 3.3135L2.0964 3.4966L2.00027 3.19907L2.2566 3.0114H1.94077L1.84006 2.71387Z" fill="white"/>
<path d="M1.84006 4.20117L1.74394 4.4987H1.4281L1.68443 4.68637L1.58831 4.9839L1.84006 4.80081L2.0964 4.9839L2.00027 4.68637L2.2566 4.4987H1.94077L1.84006 4.20117Z" fill="white"/>
<path d="M1.84006 5.68945L1.74394 5.98698H1.4281L1.68443 6.17465L1.58831 6.47218L1.84006 6.28909L2.0964 6.47218L2.00027 6.17465L2.2566 5.98698H1.94077L1.84006 5.68945Z" fill="white"/>
<path d="M3.25445 2.01387L3.51078 1.8262L3.76253 2.01387L3.66641 1.71176L3.92274 1.52409H3.6069L3.51078 1.22656L3.41008 1.52409H3.09424L3.35057 1.71176L3.25445 2.01387Z" fill="white"/>
<path d="M3.51078 2.71387L3.41008 3.0114H3.09424L3.35057 3.19907L3.25445 3.4966L3.51078 3.3135L3.76253 3.4966L3.66641 3.19907L3.92274 3.0114H3.6069L3.51078 2.71387Z" fill="white"/>
<path d="M3.51078 4.20117L3.41008 4.4987H3.09424L3.35057 4.68637L3.25445 4.9839L3.51078 4.80081L3.76253 4.9839L3.66641 4.68637L3.92274 4.4987H3.6069L3.51078 4.20117Z" fill="white"/>
<path d="M3.51078 5.68945L3.41008 5.98698H3.09424L3.35057 6.17465L3.25445 6.47218L3.51078 6.28909L3.76253 6.47218L3.66641 6.17465L3.92274 5.98698H3.6069L3.51078 5.68945Z" fill="white"/>
<path d="M4.92058 2.01387L5.17692 1.8262L5.43325 2.01387L5.33255 1.71176L5.58888 1.52409H5.27304L5.17692 1.22656L5.08079 1.52409H4.76038L5.01671 1.71176L4.92058 2.01387Z" fill="white"/>
<path d="M5.17692 2.71387L5.08079 3.0114H4.76038L5.01671 3.19907L4.92058 3.4966L5.17692 3.3135L5.43325 3.4966L5.33255 3.19907L5.58888 3.0114H5.27304L5.17692 2.71387Z" fill="white"/>
<path d="M5.17692 4.20117L5.08079 4.4987H4.76038L5.01671 4.68637L4.92058 4.9839L5.17692 4.80081L5.43325 4.9839L5.33255 4.68637L5.58888 4.4987H5.27304L5.17692 4.20117Z" fill="white"/>
<path d="M5.17692 5.68945L5.08079 5.98698H4.76038L5.01671 6.17465L4.92058 6.47218L5.17692 6.28909L5.43325 6.47218L5.33255 6.17465L5.58888 5.98698H5.27304L5.17692 5.68945Z" fill="white"/>
<path d="M6.58678 2.01387L6.84312 1.8262L7.09945 2.01387L6.99875 1.71176L7.25508 1.52409H6.93924L6.84312 1.22656L6.74699 1.52409H6.43115L6.68749 1.71176L6.58678 2.01387Z" fill="white"/>
<path d="M6.84312 2.71387L6.74699 3.0114H6.43115L6.68749 3.19907L6.58678 3.4966L6.84312 3.3135L7.09945 3.4966L6.99875 3.19907L7.25508 3.0114H6.93924L6.84312 2.71387Z" fill="white"/>
<path d="M6.84312 4.20117L6.74699 4.4987H6.43115L6.68749 4.68637L6.58678 4.9839L6.84312 4.80081L7.09945 4.9839L6.99875 4.68637L7.25508 4.4987H6.93924L6.84312 4.20117Z" fill="white"/>
<path d="M6.84312 5.68945L6.74699 5.98698H6.43115L6.68749 6.17465L6.58678 6.47218L6.84312 6.28909L7.09945 6.47218L6.99875 6.17465L7.25508 5.98698H6.93924L6.84312 5.68945Z" fill="white"/>
<path d="M8.25292 2.01387L8.50925 1.8262L8.76558 2.01387L8.66946 1.71176L8.92121 1.52409H8.60538L8.50925 1.22656L8.41313 1.52409H8.09729L8.35362 1.71176L8.25292 2.01387Z" fill="white"/>
<path d="M8.50925 2.71387L8.41313 3.0114H8.09729L8.35362 3.19907L8.25292 3.4966L8.50925 3.3135L8.76558 3.4966L8.66946 3.19907L8.92121 3.0114H8.60538L8.50925 2.71387Z" fill="white"/>
<path d="M8.50925 4.20117L8.41313 4.4987H8.09729L8.35362 4.68637L8.25292 4.9839L8.50925 4.80081L8.76558 4.9839L8.66946 4.68637L8.92121 4.4987H8.60538L8.50925 4.20117Z" fill="white"/>
<path d="M8.50925 5.68945L8.41313 5.98698H8.09729L8.35362 6.17465L8.25292 6.47218L8.50925 6.28909L8.76558 6.47218L8.66946 6.17465L8.92121 5.98698H8.60538L8.50925 5.68945Z" fill="white"/>
</svg>
