<svg width="26" height="17" viewBox="0 0 26 17" fill="none" xmlns="http://www.w3.org/2000/svg">
<path d="M25.4999 17H0.447388C0.200331 17 0 16.7997 0 16.5526V0.447388C0 0.200331 0.200331 0 0.447388 0H25.5C25.747 0 25.9474 0.200331 25.9474 0.447388V16.5526C25.9473 16.7997 25.747 17 25.4999 17Z" fill="#41479B"/>
<path d="M12.5263 0H11.7492L7.6052 2.71504V0H5.36836V2.71504L1.22439 0H0.447388C0.200332 0 0 0.200281 0 0.447338V0.802188L3.55534 3.13152H0V5.36836H3.55534L0 7.69774V8.05259C0 8.29964 0.200332 8.49997 0.447388 8.49997H1.22449L5.36846 5.78493V8.49997H7.6053V5.78493L11.7492 8.49997H12.5263C12.7734 8.49997 12.9737 8.29964 12.9737 8.05259V7.69774L9.41837 5.36841H12.9737V3.13157H9.41832L12.9737 0.802238V0.447389C12.9737 0.200281 12.7733 0 12.5263 0Z" fill="#F5F5F5"/>
<path d="M12.9737 3.57895H7.15786V0H5.8158V3.57895H0V4.92102H5.8158V8.49997H7.15786V4.92102H12.9737V3.57895Z" fill="#FF4B55"/>
<path d="M4.92102 3.13164L0.213204 0.0756836C0.0879269 0.154945 0 0.288178 0 0.447409V0.47062L4.09932 3.13164H4.92102Z" fill="#FF4B55"/>
<path d="M8.42692 3.13157L12.9056 0.224353C12.8277 0.0926401 12.6904 0 12.5262 0H12.4295L7.60522 3.13157H8.42692Z" fill="#FF4B55"/>
<path d="M4.53441 5.36865L0.0643311 8.27029C0.141413 8.4052 0.28088 8.50022 0.447409 8.50022H0.531788L5.35616 5.36865H4.53441Z" fill="#FF4B55"/>
<path d="M12.9665 8.08795L8.77714 5.36865H7.95544L12.7128 8.45674C12.8553 8.3906 12.9531 8.252 12.9665 8.08795Z" fill="#FF4B55"/>
<path d="M6.62223 10.939L6.9599 12.0538L8.04203 11.6228C8.13437 11.586 8.21829 11.6913 8.16194 11.7731L7.50089 12.7321L8.51253 13.3094C8.59883 13.3587 8.56888 13.4899 8.46976 13.4969L7.30775 13.578L7.48721 14.7289C7.50251 14.8271 7.38119 14.8855 7.31399 14.8123L6.52604 13.9544L5.73809 14.8123C5.67089 14.8855 5.54957 14.8271 5.56488 14.7289L5.74433 13.578L4.58232 13.4969C4.4832 13.4899 4.45325 13.3587 4.53955 13.3094L5.55119 12.7321L4.89014 11.7731C4.83379 11.6913 4.91771 11.586 5.01005 11.6228L6.09218 12.0538L6.42985 10.939C6.45879 10.8439 6.59344 10.8439 6.62223 10.939Z" fill="#F5F5F5"/>
<path d="M19.9308 3.01288L20.0957 3.55742L20.6243 3.3469C20.6693 3.32896 20.7104 3.38035 20.6828 3.42034L20.3599 3.88886L20.8541 4.17088C20.8963 4.1949 20.8816 4.25906 20.8332 4.26241L20.2656 4.30204L20.3532 4.86421C20.3607 4.9122 20.3014 4.94074 20.2686 4.90496L19.8837 4.4859L19.4988 4.90496C19.4659 4.94069 19.4067 4.91215 19.4141 4.86421L19.5018 4.30204L18.9342 4.26241C18.8857 4.25906 18.8711 4.1949 18.9132 4.17088L19.4074 3.88886L19.0845 3.42034C19.057 3.38035 19.098 3.32896 19.1431 3.3469L19.6716 3.55742L19.8366 3.01288C19.8509 2.96641 19.9167 2.96641 19.9308 3.01288Z" fill="#F5F5F5"/>
<path d="M16.2527 7.19306L16.4176 7.7376L16.9462 7.52708C16.9912 7.50914 17.0323 7.56053 17.0047 7.60051L16.6818 8.06903L17.176 8.35106C17.2182 8.37508 17.2035 8.43924 17.1551 8.44258L16.5875 8.48221L16.6751 9.04439C16.6826 9.09238 16.6233 9.12091 16.5905 9.08513L16.2056 8.66607L15.8207 9.08513C15.7878 9.12086 15.7286 9.09233 15.736 9.04439L15.8237 8.48221L15.2561 8.44258C15.2076 8.43924 15.193 8.37508 15.2351 8.35106L15.7293 8.06903L15.4064 7.60051C15.3789 7.56053 15.4199 7.50914 15.465 7.52708L15.9935 7.7376L16.1585 7.19306C16.1728 7.14659 16.2386 7.14659 16.2527 7.19306Z" fill="#F5F5F5"/>
<path d="M23.4106 5.40351L23.5755 5.94804L24.1041 5.73753C24.1491 5.71959 24.1902 5.77097 24.1626 5.81096L23.8398 6.27948L24.3339 6.56151C24.3761 6.58553 24.3614 6.64969 24.313 6.65303L23.7454 6.69266L23.833 7.25484C23.8405 7.30283 23.7812 7.33136 23.7484 7.29558L23.3635 6.87652L22.9786 7.29558C22.9458 7.33131 22.8865 7.30278 22.894 7.25484L22.9816 6.69266L22.414 6.65303C22.3656 6.64969 22.3509 6.58553 22.3931 6.56151L22.8873 6.27948L22.5644 5.81096C22.5368 5.77097 22.5779 5.71959 22.6229 5.73753L23.1515 5.94804L23.3164 5.40351C23.3307 5.35703 23.3965 5.35703 23.4106 5.40351Z" fill="#F5F5F5"/>
<path d="M19.9308 12.5612L20.0957 13.1058L20.6243 12.8952C20.6693 12.8773 20.7104 12.9286 20.6828 12.9686L20.3599 13.4371L20.8541 13.7192C20.8963 13.7432 20.8816 13.8074 20.8332 13.8107L20.2656 13.8503L20.3532 14.4125C20.3607 14.4605 20.3014 14.489 20.2686 14.4532L19.8837 14.0342L19.4988 14.4532C19.4659 14.489 19.4067 14.4604 19.4141 14.4125L19.5018 13.8503L18.9342 13.8107C18.8857 13.8074 18.8711 13.7432 18.9132 13.7192L19.4074 13.4371L19.0845 12.9686C19.057 12.9286 19.098 12.8773 19.1431 12.8952L19.6716 13.1058L19.8366 12.5612C19.8509 12.5147 19.9167 12.5147 19.9308 12.5612Z" fill="#F5F5F5"/>
<path d="M21.2069 8.17139L21.0745 8.56851L20.6559 8.57175C20.6017 8.57221 20.5792 8.64133 20.6229 8.67351L20.9596 8.92219L20.8333 9.32128C20.817 9.37297 20.8758 9.4157 20.9199 9.38417L21.2604 9.14077L21.601 9.38417C21.6451 9.4157 21.7038 9.37292 21.6875 9.32128L21.5612 8.92219L21.8979 8.67351C21.9416 8.64128 21.9191 8.57221 21.8649 8.57175L21.4463 8.56851L21.3139 8.17139C21.2967 8.11995 21.224 8.11995 21.2069 8.17139Z" fill="#F5F5F5"/>
</svg>
