<svg width="26" height="17" viewBox="0 0 26 17" fill="none" xmlns="http://www.w3.org/2000/svg">
<path fill-rule="evenodd" clip-rule="evenodd" d="M0 17.0061H25.5086V0H0V17.0061Z" fill="#009B3A"/>
<path fill-rule="evenodd" clip-rule="evenodd" d="M3.16028 8.50229L12.7537 14.6281L22.3471 8.50229L12.7537 2.37646L3.16028 8.50229Z" fill="#FEDF00"/>
<path fill-rule="evenodd" clip-rule="evenodd" d="M16.7992 8.50206C16.7992 6.26748 14.9882 4.45654 12.7536 4.45654C10.5191 4.45654 8.70813 6.26748 8.70813 8.50206C8.70813 10.7366 10.5191 12.5476 12.7536 12.5476C14.9882 12.5476 16.7992 10.7366 16.7992 8.50206Z" fill="#002776"/>
<mask id="mask0_758_24230" style="mask-type:luminance" maskUnits="userSpaceOnUse" x="8" y="4" width="9" height="9">
<path d="M16.7992 8.50206C16.7992 6.2687 14.987 4.45654 12.7536 4.45654C10.5203 4.45654 8.70813 6.2687 8.70813 8.50206C8.70813 10.7354 10.5203 12.5476 12.7536 12.5476C14.987 12.5476 16.7992 10.7354 16.7992 8.50206Z" fill="white"/>
</mask>
<g mask="url(#mask0_758_24230)">
<path fill-rule="evenodd" clip-rule="evenodd" d="M0.618286 16.5934C0.618286 11.1679 5.01766 6.76855 10.4431 6.76855C15.8686 6.76855 20.2679 11.1679 20.2679 16.5934H19.69C19.69 11.4875 15.549 7.34649 10.4431 7.34649C5.33724 7.34649 1.19622 11.4875 1.19622 16.5934H0.618286Z" fill="white"/>
</g>
<path fill-rule="evenodd" clip-rule="evenodd" d="M10.4419 7.25076C10.5374 7.23852 10.6035 7.14424 10.5901 7.03893C10.5766 6.93363 10.4897 6.85772 10.3942 6.86874C10.2987 6.88098 10.2325 6.97526 10.246 7.08057C10.2595 7.18587 10.3464 7.26178 10.4419 7.25076ZM10.4333 7.17974C10.4897 7.1724 10.5276 7.11362 10.5191 7.04751C10.5105 6.98139 10.4591 6.93241 10.4027 6.93976C10.3464 6.9471 10.3084 7.00587 10.317 7.07199C10.3256 7.13811 10.377 7.18709 10.4333 7.17974Z" fill="#009B3A"/>
<path fill-rule="evenodd" clip-rule="evenodd" d="M10.5962 7.23968C10.5925 7.18458 10.5839 7.06458 10.5019 7.06948L10.3978 7.07683C10.519 7.06826 10.5276 7.18948 10.5313 7.24457" fill="black"/>
<path fill-rule="evenodd" clip-rule="evenodd" d="M10.2693 7.25295L10.4505 7.24928C10.5411 7.24805 10.6146 7.17214 10.6121 7.08153L10.6109 7.02643C10.6097 6.93582 10.5338 6.86236 10.4432 6.86481L10.262 6.86848L10.2681 7.25417L10.2693 7.25295ZM10.3391 7.18071L10.4432 7.17948C10.5007 7.17826 10.5473 7.13051 10.546 7.07296V7.0399C10.5448 6.98235 10.4971 6.93582 10.4395 6.93705L10.3354 6.93827L10.3391 7.18071Z" fill="#009B3A"/>
<path fill-rule="evenodd" clip-rule="evenodd" d="M10.2693 7.24458L10.6158 7.25683L10.6182 7.18459L10.3379 7.17479L10.3415 7.07561L10.5607 7.08418L10.5632 7.01806L10.3428 7.00949L10.3464 6.93235L10.6097 6.94215L10.6121 6.87113L10.2828 6.85889L10.2693 7.24458Z" fill="#009B3A"/>
<path fill-rule="evenodd" clip-rule="evenodd" d="M10.2693 7.2353L10.3354 7.24142L10.3587 6.97817L10.4125 7.24754L10.4725 7.25366L10.5717 6.99653L10.5497 7.25979L10.6146 7.26591L10.6489 6.88144L10.5521 6.87409L10.453 7.13L10.3991 6.86062L10.3036 6.85205L10.2693 7.2353Z" fill="#009B3A"/>
<path fill-rule="evenodd" clip-rule="evenodd" d="M10.2999 7.22638L10.5852 7.27536L10.5962 7.20924L10.3758 7.17251L10.3905 7.08557L10.5705 7.11618L10.5815 7.05129L10.4028 7.02068L10.4126 6.96068L10.6256 6.99741L10.6366 6.93252L10.3587 6.88477L10.2999 7.22638Z" fill="#009B3A"/>
<path fill-rule="evenodd" clip-rule="evenodd" d="M10.2742 7.20645L10.344 7.22482L10.3795 7.08646L10.5289 7.12564C10.5937 7.14278 10.6599 7.1036 10.677 7.0387C10.6941 6.97381 10.655 6.90769 10.5901 6.89055L10.377 6.83545L10.2754 7.20768L10.2742 7.20645ZM10.3966 7.01666L10.5411 7.0534C10.568 7.06074 10.595 7.04483 10.6011 7.01789C10.6084 6.99095 10.5925 6.96401 10.5656 6.95789L10.4211 6.92116L10.3966 7.01666Z" fill="#009B3A"/>
<path fill-rule="evenodd" clip-rule="evenodd" d="M10.5889 7.29634C10.606 7.24369 10.6415 7.12859 10.5632 7.1041L10.464 7.07227C10.5791 7.109 10.5436 7.22409 10.5264 7.27675" fill="black"/>
<path fill-rule="evenodd" clip-rule="evenodd" d="M10.442 7.25094C10.5313 7.284 10.6342 7.23135 10.6721 7.13095C10.7089 7.03177 10.6673 6.9228 10.5766 6.88974C10.4873 6.85668 10.3844 6.90933 10.3464 7.00973C10.3097 7.10891 10.3513 7.21789 10.442 7.25094ZM10.4664 7.1836C10.5191 7.20319 10.5803 7.16891 10.6048 7.10646C10.6281 7.04402 10.6048 6.97667 10.5522 6.95708C10.4995 6.93749 10.4383 6.97177 10.4138 7.03545C10.3905 7.09789 10.4138 7.16523 10.4664 7.18483" fill="#009B3A"/>
<path fill-rule="evenodd" clip-rule="evenodd" d="M10.5227 7.13419L10.6562 7.19296L10.6782 7.14276L10.5447 7.08398L10.5227 7.13419Z" fill="black"/>
<path fill-rule="evenodd" clip-rule="evenodd" d="M10.5509 7.29692L10.6011 7.31896L10.6782 7.14265L10.628 7.12061L10.5509 7.29692Z" fill="black"/>
<path fill-rule="evenodd" clip-rule="evenodd" d="M10.5803 7.31983C10.6048 7.27085 10.6587 7.16187 10.5852 7.12514L10.4922 7.07861C10.6012 7.13249 10.5461 7.24146 10.5216 7.29044" fill="black"/>
<path fill-rule="evenodd" clip-rule="evenodd" d="M10.2914 7.16557L10.5938 7.33577L10.6281 7.27332L10.3844 7.13619L10.4334 7.04925L10.6244 7.15823L10.6575 7.10068L10.4653 6.9917L10.5032 6.92436L10.7334 7.05537L10.7689 6.99293L10.4812 6.83008L10.2914 7.16557Z" fill="#009B3A"/>
<path fill-rule="evenodd" clip-rule="evenodd" d="M10.4346 7.10168C10.4138 7.13474 10.4346 7.17024 10.4811 7.19963C10.5277 7.22902 10.5595 7.22779 10.573 7.20698C10.6146 7.14086 10.3709 7.04413 10.4468 6.92903C10.5117 6.82985 10.6219 6.90699 10.6636 6.93393C10.7052 6.96087 10.7725 7.02944 10.7199 7.10902L10.6489 7.06372C10.6709 7.02944 10.6464 6.99515 10.6097 6.97189C10.5742 6.94862 10.5448 6.93883 10.5228 6.97189C10.4873 7.02576 10.726 7.12739 10.6526 7.24249C10.5987 7.32697 10.5044 7.29024 10.4419 7.24983C10.3881 7.21555 10.3085 7.13596 10.3611 7.05515L10.4346 7.10168Z" fill="#009B3A"/>
<path fill-rule="evenodd" clip-rule="evenodd" d="M10.442 7.10129C10.4199 7.13313 10.4383 7.16986 10.4836 7.2017C10.5289 7.23353 10.5595 7.23476 10.5742 7.21394C10.6195 7.15027 10.382 7.0413 10.4628 6.92987C10.5326 6.83437 10.6391 6.91763 10.6795 6.94579C10.7199 6.97395 10.7836 7.04742 10.7273 7.12333L10.6587 7.07436C10.6832 7.0413 10.6599 7.00579 10.6244 6.98007C10.5901 6.95559 10.5608 6.94334 10.5375 6.9764C10.4983 7.02783 10.7322 7.1417 10.6526 7.25312C10.5938 7.33516 10.502 7.29353 10.442 7.24945C10.3906 7.21272 10.3146 7.12823 10.371 7.04987L10.442 7.10007V7.10129Z" fill="#009B3A"/>
<path fill-rule="evenodd" clip-rule="evenodd" d="M10.442 7.25059C10.5167 7.31058 10.6318 7.29099 10.6979 7.20773C10.764 7.12447 10.7567 7.00815 10.682 6.94938C10.6073 6.88938 10.4922 6.90897 10.4261 6.99223C10.3599 7.07549 10.3673 7.19181 10.442 7.25059ZM10.4861 7.19426C10.5301 7.22977 10.5999 7.21508 10.6416 7.16243C10.6832 7.10978 10.6807 7.03876 10.6367 7.00448C10.5926 6.96897 10.5228 6.98366 10.4812 7.03631C10.4395 7.08896 10.442 7.15998 10.4861 7.19426Z" fill="#009B3A"/>
<path fill-rule="evenodd" clip-rule="evenodd" d="M9.45134 7.60205L9.39746 7.76735L9.4795 7.79429" fill="black"/>
<path fill-rule="evenodd" clip-rule="evenodd" d="M9.45138 7.60205L9.50525 7.76735L9.42322 7.79429" fill="white"/>
<path fill-rule="evenodd" clip-rule="evenodd" d="M9.61674 7.72217H9.44287V7.8091" fill="white"/>
<path fill-rule="evenodd" clip-rule="evenodd" d="M9.61667 7.72217L9.47586 7.8238L9.42444 7.754" fill="white"/>
<path fill-rule="evenodd" clip-rule="evenodd" d="M9.28735 7.72217L9.42816 7.8238L9.47959 7.754" fill="white"/>
<path fill-rule="evenodd" clip-rule="evenodd" d="M9.28735 7.72217H9.46122V7.8091" fill="white"/>
<path fill-rule="evenodd" clip-rule="evenodd" d="M9.55303 7.91579L9.49915 7.75049L9.41711 7.77743" fill="white"/>
<path fill-rule="evenodd" clip-rule="evenodd" d="M9.55304 7.91556L9.41223 7.81393L9.46366 7.74414" fill="white"/>
<path fill-rule="evenodd" clip-rule="evenodd" d="M9.34985 7.91556L9.49066 7.81393L9.43924 7.74414" fill="white"/>
<path fill-rule="evenodd" clip-rule="evenodd" d="M9.34985 7.91579L9.40373 7.75049L9.48577 7.77743" fill="white"/>
<path fill-rule="evenodd" clip-rule="evenodd" d="M9.80888 9.30273L9.755 9.46803L9.83704 9.49497" fill="black"/>
<path fill-rule="evenodd" clip-rule="evenodd" d="M9.80892 9.30273L9.8628 9.46803L9.78076 9.49497" fill="white"/>
<path fill-rule="evenodd" clip-rule="evenodd" d="M9.97416 9.42285H9.80029V9.50979" fill="white"/>
<path fill-rule="evenodd" clip-rule="evenodd" d="M9.97422 9.42285L9.83341 9.52448L9.78198 9.45469" fill="white"/>
<path fill-rule="evenodd" clip-rule="evenodd" d="M9.64478 9.42285L9.78558 9.52448L9.83701 9.45469" fill="white"/>
<path fill-rule="evenodd" clip-rule="evenodd" d="M9.64478 9.42285H9.81864V9.50979" fill="white"/>
<path fill-rule="evenodd" clip-rule="evenodd" d="M9.91179 9.61647L9.85792 9.45117L9.77588 9.47811" fill="white"/>
<path fill-rule="evenodd" clip-rule="evenodd" d="M9.91181 9.61624L9.771 9.51462L9.82242 9.44482" fill="white"/>
<path fill-rule="evenodd" clip-rule="evenodd" d="M9.70728 9.61624L9.84808 9.51462L9.79666 9.44482" fill="white"/>
<path fill-rule="evenodd" clip-rule="evenodd" d="M9.70728 9.61647L9.76115 9.45117L9.84319 9.47811" fill="white"/>
<path fill-rule="evenodd" clip-rule="evenodd" d="M9.31422 9.69629L9.27014 9.83343L9.33871 9.85546" fill="black"/>
<path fill-rule="evenodd" clip-rule="evenodd" d="M9.31428 9.69629L9.35836 9.83343L9.28979 9.85546" fill="white"/>
<path fill-rule="evenodd" clip-rule="evenodd" d="M9.45137 9.79541H9.30688V9.86765" fill="white"/>
<path fill-rule="evenodd" clip-rule="evenodd" d="M9.45141 9.79541L9.33509 9.8799L9.29224 9.82112" fill="white"/>
<path fill-rule="evenodd" clip-rule="evenodd" d="M9.17712 9.79541L9.29344 9.8799L9.3363 9.82112" fill="white"/>
<path fill-rule="evenodd" clip-rule="evenodd" d="M9.17712 9.79541H9.32161V9.86765" fill="white"/>
<path fill-rule="evenodd" clip-rule="evenodd" d="M9.39878 9.95696L9.3547 9.81982L9.28613 9.84186" fill="white"/>
<path fill-rule="evenodd" clip-rule="evenodd" d="M9.39879 9.95673L9.28247 9.87225L9.32533 9.81348" fill="white"/>
<path fill-rule="evenodd" clip-rule="evenodd" d="M9.22852 9.95673L9.34484 9.87225L9.30198 9.81348" fill="white"/>
<path fill-rule="evenodd" clip-rule="evenodd" d="M9.22852 9.95696L9.2726 9.81982L9.34116 9.84186" fill="white"/>
<path fill-rule="evenodd" clip-rule="evenodd" d="M10.2056 9.146L10.1799 9.22436L10.2191 9.2366" fill="black"/>
<path fill-rule="evenodd" clip-rule="evenodd" d="M10.2056 9.146L10.2313 9.22436L10.1921 9.2366" fill="white"/>
<path fill-rule="evenodd" clip-rule="evenodd" d="M10.2841 9.20361H10.202V9.24524" fill="white"/>
<path fill-rule="evenodd" clip-rule="evenodd" d="M10.284 9.20361L10.2166 9.25259L10.1921 9.21953" fill="white"/>
<path fill-rule="evenodd" clip-rule="evenodd" d="M10.1273 9.20361L10.1947 9.25259L10.2192 9.21953" fill="white"/>
<path fill-rule="evenodd" clip-rule="evenodd" d="M10.1273 9.20361H10.2094V9.24524" fill="white"/>
<path fill-rule="evenodd" clip-rule="evenodd" d="M10.2546 9.29565L10.2289 9.21729L10.1897 9.22953" fill="white"/>
<path fill-rule="evenodd" clip-rule="evenodd" d="M10.2546 9.2959L10.1873 9.24693L10.2117 9.21387" fill="white"/>
<path fill-rule="evenodd" clip-rule="evenodd" d="M10.1566 9.2959L10.224 9.24693L10.1995 9.21387" fill="white"/>
<path fill-rule="evenodd" clip-rule="evenodd" d="M10.1566 9.29565L10.1823 9.21729L10.2215 9.22953" fill="white"/>
<path fill-rule="evenodd" clip-rule="evenodd" d="M10.6513 9.73438L10.6072 9.87151L10.6757 9.89355" fill="black"/>
<path fill-rule="evenodd" clip-rule="evenodd" d="M10.6513 9.73438L10.6954 9.87151L10.6268 9.89355" fill="white"/>
<path fill-rule="evenodd" clip-rule="evenodd" d="M10.7884 9.83447H10.6439V9.90671" fill="white"/>
<path fill-rule="evenodd" clip-rule="evenodd" d="M10.7884 9.83447L10.6721 9.91896L10.6293 9.86019" fill="white"/>
<path fill-rule="evenodd" clip-rule="evenodd" d="M10.5142 9.83447L10.6305 9.91896L10.6733 9.86019" fill="white"/>
<path fill-rule="evenodd" clip-rule="evenodd" d="M10.5142 9.83447H10.6586V9.90671" fill="white"/>
<path fill-rule="evenodd" clip-rule="evenodd" d="M10.7358 9.99456L10.6917 9.85742L10.6232 9.87946" fill="white"/>
<path fill-rule="evenodd" clip-rule="evenodd" d="M10.7358 9.99433L10.6195 9.90985L10.6624 9.85107" fill="white"/>
<path fill-rule="evenodd" clip-rule="evenodd" d="M10.5669 9.99433L10.6832 9.90985L10.6404 9.85107" fill="white"/>
<path fill-rule="evenodd" clip-rule="evenodd" d="M10.5669 9.99456L10.611 9.85742L10.6795 9.87946" fill="white"/>
<path fill-rule="evenodd" clip-rule="evenodd" d="M10.5301 10.165L10.4946 10.2752L10.5497 10.2936" fill="black"/>
<path fill-rule="evenodd" clip-rule="evenodd" d="M10.5301 10.165L10.5656 10.2752L10.5105 10.2936" fill="white"/>
<path fill-rule="evenodd" clip-rule="evenodd" d="M10.6402 10.2446H10.5251V10.3022" fill="white"/>
<path fill-rule="evenodd" clip-rule="evenodd" d="M10.6403 10.2446L10.5472 10.312L10.5129 10.2654" fill="white"/>
<path fill-rule="evenodd" clip-rule="evenodd" d="M10.4199 10.2446L10.513 10.312L10.5473 10.2654" fill="white"/>
<path fill-rule="evenodd" clip-rule="evenodd" d="M10.4199 10.2446H10.535V10.3022" fill="white"/>
<path fill-rule="evenodd" clip-rule="evenodd" d="M10.5987 10.3734L10.5632 10.2632L10.5081 10.2816" fill="white"/>
<path fill-rule="evenodd" clip-rule="evenodd" d="M10.5987 10.3727L10.5056 10.3053L10.5399 10.2588" fill="white"/>
<path fill-rule="evenodd" clip-rule="evenodd" d="M10.4628 10.3727L10.5558 10.3053L10.5215 10.2588" fill="white"/>
<path fill-rule="evenodd" clip-rule="evenodd" d="M10.4628 10.3734L10.4983 10.2632L10.5534 10.2816" fill="white"/>
<path fill-rule="evenodd" clip-rule="evenodd" d="M14.0087 7.07471L13.9548 7.24001L14.0369 7.26694" fill="black"/>
<path fill-rule="evenodd" clip-rule="evenodd" d="M14.0088 7.07471L14.0626 7.24001L13.9806 7.26694" fill="white"/>
<path fill-rule="evenodd" clip-rule="evenodd" d="M14.174 7.19434H14.0001V7.28127" fill="white"/>
<path fill-rule="evenodd" clip-rule="evenodd" d="M14.174 7.19434L14.0332 7.29596L13.9818 7.22617" fill="white"/>
<path fill-rule="evenodd" clip-rule="evenodd" d="M13.8434 7.19434L13.9842 7.29596L14.0356 7.22617" fill="white"/>
<path fill-rule="evenodd" clip-rule="evenodd" d="M13.8434 7.19434H14.0173V7.28127" fill="white"/>
<path fill-rule="evenodd" clip-rule="evenodd" d="M14.1104 7.38795L14.0565 7.22266L13.9745 7.24959" fill="white"/>
<path fill-rule="evenodd" clip-rule="evenodd" d="M14.1103 7.38773L13.9695 7.2861L14.0209 7.21631" fill="white"/>
<path fill-rule="evenodd" clip-rule="evenodd" d="M13.9071 7.38773L14.0479 7.2861L13.9965 7.21631" fill="white"/>
<path fill-rule="evenodd" clip-rule="evenodd" d="M13.9071 7.38795L13.961 7.22266L14.043 7.24959" fill="white"/>
<path fill-rule="evenodd" clip-rule="evenodd" d="M15.5882 9.74854L15.5343 9.91383L15.6163 9.94077" fill="black"/>
<path fill-rule="evenodd" clip-rule="evenodd" d="M15.5882 9.74854L15.6421 9.91383L15.5601 9.94077" fill="white"/>
<path fill-rule="evenodd" clip-rule="evenodd" d="M15.7535 9.86865H15.5796V9.95559" fill="white"/>
<path fill-rule="evenodd" clip-rule="evenodd" d="M15.7535 9.86865L15.6127 9.97028L15.5613 9.90049" fill="white"/>
<path fill-rule="evenodd" clip-rule="evenodd" d="M15.4242 9.86865L15.565 9.97028L15.6164 9.90049" fill="white"/>
<path fill-rule="evenodd" clip-rule="evenodd" d="M15.4242 9.86865H15.5981V9.95559" fill="white"/>
<path fill-rule="evenodd" clip-rule="evenodd" d="M15.6899 10.0623L15.636 9.89697L15.554 9.92391" fill="white"/>
<path fill-rule="evenodd" clip-rule="evenodd" d="M15.6899 10.062L15.5491 9.96042L15.6005 9.89062" fill="white"/>
<path fill-rule="evenodd" clip-rule="evenodd" d="M15.4866 10.062L15.6274 9.96042L15.576 9.89062" fill="white"/>
<path fill-rule="evenodd" clip-rule="evenodd" d="M15.4866 10.0623L15.5404 9.89697L15.6225 9.92391" fill="white"/>
<path fill-rule="evenodd" clip-rule="evenodd" d="M16.1503 9.84521L16.1147 9.95541L16.1698 9.97378" fill="black"/>
<path fill-rule="evenodd" clip-rule="evenodd" d="M16.1502 9.84521L16.1857 9.95541L16.1306 9.97378" fill="white"/>
<path fill-rule="evenodd" clip-rule="evenodd" d="M16.2593 9.9248H16.1442V9.98235" fill="white"/>
<path fill-rule="evenodd" clip-rule="evenodd" d="M16.2592 9.9248L16.1661 9.99215L16.1318 9.94562" fill="white"/>
<path fill-rule="evenodd" clip-rule="evenodd" d="M16.04 9.9248L16.1331 9.99215L16.1674 9.94562" fill="white"/>
<path fill-rule="evenodd" clip-rule="evenodd" d="M16.04 9.9248H16.1551V9.98235" fill="white"/>
<path fill-rule="evenodd" clip-rule="evenodd" d="M16.2176 10.055L16.1821 9.94482L16.127 9.96319" fill="white"/>
<path fill-rule="evenodd" clip-rule="evenodd" d="M16.2176 10.0548L16.1245 9.98745L16.1588 9.94092" fill="white"/>
<path fill-rule="evenodd" clip-rule="evenodd" d="M16.0817 10.0548L16.1747 9.98745L16.1404 9.94092" fill="white"/>
<path fill-rule="evenodd" clip-rule="evenodd" d="M16.0817 10.055L16.1172 9.94482L16.1723 9.96319" fill="white"/>
<path fill-rule="evenodd" clip-rule="evenodd" d="M15.7536 10.1357L15.7095 10.2729L15.778 10.2949" fill="black"/>
<path fill-rule="evenodd" clip-rule="evenodd" d="M15.7535 10.1357L15.7976 10.2729L15.729 10.2949" fill="white"/>
<path fill-rule="evenodd" clip-rule="evenodd" d="M15.8907 10.2358H15.7462V10.3081" fill="white"/>
<path fill-rule="evenodd" clip-rule="evenodd" d="M15.8906 10.2358L15.7743 10.3203L15.7314 10.2616" fill="white"/>
<path fill-rule="evenodd" clip-rule="evenodd" d="M15.6163 10.2358L15.7327 10.3203L15.7755 10.2616" fill="white"/>
<path fill-rule="evenodd" clip-rule="evenodd" d="M15.6163 10.2358H15.7608V10.3081" fill="white"/>
<path fill-rule="evenodd" clip-rule="evenodd" d="M15.838 10.3979L15.7939 10.2607L15.7253 10.2828" fill="white"/>
<path fill-rule="evenodd" clip-rule="evenodd" d="M15.838 10.3977L15.7217 10.3132L15.7645 10.2544" fill="white"/>
<path fill-rule="evenodd" clip-rule="evenodd" d="M15.6691 10.3977L15.7854 10.3132L15.7425 10.2544" fill="white"/>
<path fill-rule="evenodd" clip-rule="evenodd" d="M15.6691 10.3979L15.7131 10.2607L15.7817 10.2828" fill="white"/>
<path fill-rule="evenodd" clip-rule="evenodd" d="M14.7788 10.9834L14.7347 11.1205L14.8033 11.1426" fill="black"/>
<path fill-rule="evenodd" clip-rule="evenodd" d="M14.7789 10.9834L14.823 11.1205L14.7544 11.1426" fill="white"/>
<path fill-rule="evenodd" clip-rule="evenodd" d="M14.9172 11.0835H14.7727V11.1557" fill="white"/>
<path fill-rule="evenodd" clip-rule="evenodd" d="M14.9172 11.0835L14.8009 11.168L14.7581 11.1092" fill="white"/>
<path fill-rule="evenodd" clip-rule="evenodd" d="M14.6417 11.0835L14.758 11.168L14.8009 11.1092" fill="white"/>
<path fill-rule="evenodd" clip-rule="evenodd" d="M14.6417 11.0835H14.7862V11.1557" fill="white"/>
<path fill-rule="evenodd" clip-rule="evenodd" d="M14.8646 11.245L14.8205 11.1079L14.752 11.1299" fill="white"/>
<path fill-rule="evenodd" clip-rule="evenodd" d="M14.8646 11.2448L14.7483 11.1603L14.7911 11.1016" fill="white"/>
<path fill-rule="evenodd" clip-rule="evenodd" d="M14.6943 11.2448L14.8107 11.1603L14.7678 11.1016" fill="white"/>
<path fill-rule="evenodd" clip-rule="evenodd" d="M14.6943 11.245L14.7384 11.1079L14.807 11.1299" fill="white"/>
<path fill-rule="evenodd" clip-rule="evenodd" d="M14.774 11.4199L14.7385 11.5301L14.7936 11.5485" fill="black"/>
<path fill-rule="evenodd" clip-rule="evenodd" d="M14.774 11.4199L14.8095 11.5301L14.7544 11.5485" fill="white"/>
<path fill-rule="evenodd" clip-rule="evenodd" d="M14.8841 11.4995H14.769V11.5571" fill="white"/>
<path fill-rule="evenodd" clip-rule="evenodd" d="M14.8842 11.4995L14.7911 11.5669L14.7568 11.5203" fill="white"/>
<path fill-rule="evenodd" clip-rule="evenodd" d="M14.6638 11.4995L14.7569 11.5669L14.7912 11.5203" fill="white"/>
<path fill-rule="evenodd" clip-rule="evenodd" d="M14.6638 11.4995H14.7789V11.5571" fill="white"/>
<path fill-rule="evenodd" clip-rule="evenodd" d="M14.8413 11.6288L14.8058 11.5186L14.7507 11.5369" fill="white"/>
<path fill-rule="evenodd" clip-rule="evenodd" d="M14.8413 11.628L14.7483 11.5607L14.7826 11.5142" fill="white"/>
<path fill-rule="evenodd" clip-rule="evenodd" d="M14.7054 11.628L14.7985 11.5607L14.7642 11.5142" fill="white"/>
<path fill-rule="evenodd" clip-rule="evenodd" d="M14.7054 11.6288L14.741 11.5186L14.7961 11.5369" fill="white"/>
<path fill-rule="evenodd" clip-rule="evenodd" d="M15.1817 10.6929L15.1462 10.8031L15.2013 10.8214" fill="black"/>
<path fill-rule="evenodd" clip-rule="evenodd" d="M15.1817 10.6929L15.2172 10.8031L15.1621 10.8214" fill="white"/>
<path fill-rule="evenodd" clip-rule="evenodd" d="M15.2906 10.7725H15.1755V10.83" fill="white"/>
<path fill-rule="evenodd" clip-rule="evenodd" d="M15.2907 10.7725L15.1976 10.8398L15.1633 10.7933" fill="white"/>
<path fill-rule="evenodd" clip-rule="evenodd" d="M15.0715 10.7725L15.1646 10.8398L15.1989 10.7933" fill="white"/>
<path fill-rule="evenodd" clip-rule="evenodd" d="M15.0715 10.7725H15.1866V10.83" fill="white"/>
<path fill-rule="evenodd" clip-rule="evenodd" d="M15.2491 10.9017L15.2135 10.7915L15.1584 10.8099" fill="white"/>
<path fill-rule="evenodd" clip-rule="evenodd" d="M15.2491 10.902L15.156 10.8346L15.1903 10.7881" fill="white"/>
<path fill-rule="evenodd" clip-rule="evenodd" d="M15.1132 10.902L15.2062 10.8346L15.1719 10.7881" fill="white"/>
<path fill-rule="evenodd" clip-rule="evenodd" d="M15.1132 10.9017L15.1487 10.7915L15.2038 10.8099" fill="white"/>
<path fill-rule="evenodd" clip-rule="evenodd" d="M15.5062 10.46L15.4622 10.5971L15.5307 10.6191" fill="black"/>
<path fill-rule="evenodd" clip-rule="evenodd" d="M15.5062 10.46L15.5503 10.5971L15.4817 10.6191" fill="white"/>
<path fill-rule="evenodd" clip-rule="evenodd" d="M15.6434 10.5605H15.4989V10.6328" fill="white"/>
<path fill-rule="evenodd" clip-rule="evenodd" d="M15.6433 10.5605L15.527 10.645L15.4841 10.5863" fill="white"/>
<path fill-rule="evenodd" clip-rule="evenodd" d="M15.369 10.5605L15.4853 10.645L15.5282 10.5863" fill="white"/>
<path fill-rule="evenodd" clip-rule="evenodd" d="M15.369 10.5605H15.5135V10.6328" fill="white"/>
<path fill-rule="evenodd" clip-rule="evenodd" d="M15.5907 10.7221L15.5466 10.585L15.478 10.607" fill="white"/>
<path fill-rule="evenodd" clip-rule="evenodd" d="M15.5907 10.7224L15.4744 10.6379L15.5172 10.5791" fill="white"/>
<path fill-rule="evenodd" clip-rule="evenodd" d="M15.4205 10.7224L15.5369 10.6379L15.494 10.5791" fill="white"/>
<path fill-rule="evenodd" clip-rule="evenodd" d="M15.4205 10.7221L15.4646 10.585L15.5332 10.607" fill="white"/>
<path fill-rule="evenodd" clip-rule="evenodd" d="M14.7629 10.6157L14.7274 10.7259L14.7825 10.7443" fill="black"/>
<path fill-rule="evenodd" clip-rule="evenodd" d="M14.763 10.6157L14.7985 10.7259L14.7434 10.7443" fill="white"/>
<path fill-rule="evenodd" clip-rule="evenodd" d="M14.8732 10.6968H14.7581V10.7543" fill="white"/>
<path fill-rule="evenodd" clip-rule="evenodd" d="M14.8732 10.6968L14.7801 10.7641L14.7458 10.7176" fill="white"/>
<path fill-rule="evenodd" clip-rule="evenodd" d="M14.6527 10.6968L14.7458 10.7641L14.7801 10.7176" fill="white"/>
<path fill-rule="evenodd" clip-rule="evenodd" d="M14.6527 10.6968H14.7678V10.7543" fill="white"/>
<path fill-rule="evenodd" clip-rule="evenodd" d="M14.8302 10.825L14.7947 10.7148L14.7396 10.7332" fill="white"/>
<path fill-rule="evenodd" clip-rule="evenodd" d="M14.8302 10.8243L14.7372 10.757L14.7715 10.7104" fill="white"/>
<path fill-rule="evenodd" clip-rule="evenodd" d="M14.6943 10.8243L14.7874 10.757L14.7531 10.7104" fill="white"/>
<path fill-rule="evenodd" clip-rule="evenodd" d="M14.6943 10.825L14.7298 10.7148L14.7849 10.7332" fill="white"/>
<path fill-rule="evenodd" clip-rule="evenodd" d="M11.2133 8.52344L11.1692 8.66057L11.2378 8.68261" fill="black"/>
<path fill-rule="evenodd" clip-rule="evenodd" d="M11.2133 8.52344L11.2574 8.66057L11.1888 8.68261" fill="white"/>
<path fill-rule="evenodd" clip-rule="evenodd" d="M11.3505 8.62354H11.2061V8.69578" fill="white"/>
<path fill-rule="evenodd" clip-rule="evenodd" d="M11.3505 8.62354L11.2341 8.70802L11.1913 8.64925" fill="white"/>
<path fill-rule="evenodd" clip-rule="evenodd" d="M11.075 8.62354L11.1913 8.70802L11.2341 8.64925" fill="white"/>
<path fill-rule="evenodd" clip-rule="evenodd" d="M11.075 8.62354H11.2194V8.69578" fill="white"/>
<path fill-rule="evenodd" clip-rule="evenodd" d="M11.2978 8.78509L11.2537 8.64795L11.1852 8.66999" fill="white"/>
<path fill-rule="evenodd" clip-rule="evenodd" d="M11.2978 8.78486L11.1815 8.70037L11.2244 8.6416" fill="white"/>
<path fill-rule="evenodd" clip-rule="evenodd" d="M11.1276 8.78486L11.2439 8.70037L11.201 8.6416" fill="white"/>
<path fill-rule="evenodd" clip-rule="evenodd" d="M11.1276 8.78509L11.1716 8.64795L11.2402 8.66999" fill="white"/>
<path fill-rule="evenodd" clip-rule="evenodd" d="M13.8545 8.18408L13.819 8.29428L13.8741 8.31265" fill="black"/>
<path fill-rule="evenodd" clip-rule="evenodd" d="M13.8544 8.18408L13.8899 8.29428L13.8348 8.31265" fill="white"/>
<path fill-rule="evenodd" clip-rule="evenodd" d="M13.9646 8.26318H13.8495V8.32073" fill="white"/>
<path fill-rule="evenodd" clip-rule="evenodd" d="M13.9646 8.26318L13.8716 8.33053L13.8373 8.284" fill="white"/>
<path fill-rule="evenodd" clip-rule="evenodd" d="M13.7443 8.26318L13.8373 8.33053L13.8716 8.284" fill="white"/>
<path fill-rule="evenodd" clip-rule="evenodd" d="M13.7443 8.26318H13.8594V8.32073" fill="white"/>
<path fill-rule="evenodd" clip-rule="evenodd" d="M13.923 8.39194L13.8875 8.28174L13.8324 8.3001" fill="white"/>
<path fill-rule="evenodd" clip-rule="evenodd" d="M13.923 8.3917L13.83 8.32436L13.8642 8.27783" fill="white"/>
<path fill-rule="evenodd" clip-rule="evenodd" d="M13.7871 8.3917L13.8802 8.32436L13.8459 8.27783" fill="white"/>
<path fill-rule="evenodd" clip-rule="evenodd" d="M13.7871 8.39194L13.8226 8.28174L13.8777 8.3001" fill="white"/>
<path fill-rule="evenodd" clip-rule="evenodd" d="M12.7537 10.1455L12.6998 10.3108L12.7819 10.3377" fill="black"/>
<path fill-rule="evenodd" clip-rule="evenodd" d="M12.7536 10.1455L12.8075 10.3108L12.7255 10.3377" fill="white"/>
<path fill-rule="evenodd" clip-rule="evenodd" d="M12.919 10.2651H12.7451V10.3521" fill="white"/>
<path fill-rule="evenodd" clip-rule="evenodd" d="M12.9189 10.2651L12.7781 10.3668L12.7267 10.297" fill="white"/>
<path fill-rule="evenodd" clip-rule="evenodd" d="M12.5896 10.2651L12.7304 10.3668L12.7818 10.297" fill="white"/>
<path fill-rule="evenodd" clip-rule="evenodd" d="M12.5896 10.2651H12.7635V10.3521" fill="white"/>
<path fill-rule="evenodd" clip-rule="evenodd" d="M12.8553 10.4588L12.8014 10.2935L12.7194 10.3204" fill="white"/>
<path fill-rule="evenodd" clip-rule="evenodd" d="M12.8553 10.4585L12.7145 10.3569L12.7659 10.2871" fill="white"/>
<path fill-rule="evenodd" clip-rule="evenodd" d="M12.652 10.4585L12.7928 10.3569L12.7414 10.2871" fill="white"/>
<path fill-rule="evenodd" clip-rule="evenodd" d="M12.652 10.4588L12.7059 10.2935L12.7879 10.3204" fill="white"/>
<path fill-rule="evenodd" clip-rule="evenodd" d="M13.2214 9.37012L13.1774 9.50725L13.2459 9.52929" fill="black"/>
<path fill-rule="evenodd" clip-rule="evenodd" d="M13.2214 9.37012L13.2655 9.50725L13.1969 9.52929" fill="white"/>
<path fill-rule="evenodd" clip-rule="evenodd" d="M13.3597 9.4707H13.2152V9.54294" fill="white"/>
<path fill-rule="evenodd" clip-rule="evenodd" d="M13.3597 9.4707L13.2434 9.55519L13.2006 9.49642" fill="white"/>
<path fill-rule="evenodd" clip-rule="evenodd" d="M13.0842 9.4707L13.2005 9.55519L13.2434 9.49642" fill="white"/>
<path fill-rule="evenodd" clip-rule="evenodd" d="M13.0842 9.4707H13.2287V9.54294" fill="white"/>
<path fill-rule="evenodd" clip-rule="evenodd" d="M13.3071 9.63225L13.263 9.49512L13.1945 9.51716" fill="white"/>
<path fill-rule="evenodd" clip-rule="evenodd" d="M13.3071 9.63252L13.1908 9.54803L13.2337 9.48926" fill="white"/>
<path fill-rule="evenodd" clip-rule="evenodd" d="M13.137 9.63252L13.2533 9.54803L13.2104 9.48926" fill="white"/>
<path fill-rule="evenodd" clip-rule="evenodd" d="M13.137 9.63225L13.181 9.49512L13.2496 9.51716" fill="white"/>
<path fill-rule="evenodd" clip-rule="evenodd" d="M12.7537 9.00781L12.7096 9.14495L12.7782 9.16699" fill="black"/>
<path fill-rule="evenodd" clip-rule="evenodd" d="M12.7536 9.00781L12.7977 9.14495L12.7291 9.16699" fill="white"/>
<path fill-rule="evenodd" clip-rule="evenodd" d="M12.8908 9.10693H12.7463V9.17917" fill="white"/>
<path fill-rule="evenodd" clip-rule="evenodd" d="M12.8909 9.10693L12.7745 9.19142L12.7317 9.13265" fill="white"/>
<path fill-rule="evenodd" clip-rule="evenodd" d="M12.6166 9.10693L12.7329 9.19142L12.7758 9.13265" fill="white"/>
<path fill-rule="evenodd" clip-rule="evenodd" d="M12.6166 9.10693H12.7611V9.17917" fill="white"/>
<path fill-rule="evenodd" clip-rule="evenodd" d="M12.8393 9.26897L12.7953 9.13184L12.7267 9.15388" fill="white"/>
<path fill-rule="evenodd" clip-rule="evenodd" d="M12.8393 9.26875L12.723 9.18426L12.7659 9.12549" fill="white"/>
<path fill-rule="evenodd" clip-rule="evenodd" d="M12.6692 9.26875L12.7855 9.18426L12.7427 9.12549" fill="white"/>
<path fill-rule="evenodd" clip-rule="evenodd" d="M12.6692 9.26897L12.7133 9.13184L12.7818 9.15388" fill="white"/>
<path fill-rule="evenodd" clip-rule="evenodd" d="M12.3472 9.39941L12.3116 9.50961L12.3667 9.52798" fill="black"/>
<path fill-rule="evenodd" clip-rule="evenodd" d="M12.3471 9.39941L12.3826 9.50961L12.3275 9.52798" fill="white"/>
<path fill-rule="evenodd" clip-rule="evenodd" d="M12.4562 9.47949H12.3411V9.53704" fill="white"/>
<path fill-rule="evenodd" clip-rule="evenodd" d="M12.4561 9.47949L12.363 9.54684L12.3287 9.50031" fill="white"/>
<path fill-rule="evenodd" clip-rule="evenodd" d="M12.2369 9.47949L12.33 9.54684L12.3643 9.50031" fill="white"/>
<path fill-rule="evenodd" clip-rule="evenodd" d="M12.2369 9.47949H12.352V9.53704" fill="white"/>
<path fill-rule="evenodd" clip-rule="evenodd" d="M12.4145 9.60873L12.379 9.49854L12.3239 9.5169" fill="white"/>
<path fill-rule="evenodd" clip-rule="evenodd" d="M12.4145 9.60899L12.3214 9.54165L12.3557 9.49512" fill="white"/>
<path fill-rule="evenodd" clip-rule="evenodd" d="M12.2786 9.60899L12.3716 9.54165L12.3373 9.49512" fill="white"/>
<path fill-rule="evenodd" clip-rule="evenodd" d="M12.2786 9.60873L12.3141 9.49854L12.3692 9.5169" fill="white"/>
<path fill-rule="evenodd" clip-rule="evenodd" d="M12.5504 9.71338L12.5247 9.79174L12.5638 9.80399" fill="black"/>
<path fill-rule="evenodd" clip-rule="evenodd" d="M12.5505 9.71338L12.5762 9.79174L12.537 9.80399" fill="white"/>
<path fill-rule="evenodd" clip-rule="evenodd" d="M12.6288 9.771H12.5468V9.81263" fill="white"/>
<path fill-rule="evenodd" clip-rule="evenodd" d="M12.6288 9.771L12.5615 9.81997L12.537 9.78691" fill="white"/>
<path fill-rule="evenodd" clip-rule="evenodd" d="M12.472 9.771L12.5394 9.81997L12.5639 9.78691" fill="white"/>
<path fill-rule="evenodd" clip-rule="evenodd" d="M12.472 9.771H12.5541V9.81263" fill="white"/>
<path fill-rule="evenodd" clip-rule="evenodd" d="M12.5994 9.86254L12.5737 9.78418L12.5345 9.79642" fill="white"/>
<path fill-rule="evenodd" clip-rule="evenodd" d="M12.5994 9.8628L12.5321 9.81382L12.5566 9.78076" fill="white"/>
<path fill-rule="evenodd" clip-rule="evenodd" d="M12.5015 9.8628L12.5688 9.81382L12.5443 9.78076" fill="white"/>
<path fill-rule="evenodd" clip-rule="evenodd" d="M12.5015 9.86254L12.5272 9.78418L12.5664 9.79642" fill="white"/>
<path fill-rule="evenodd" clip-rule="evenodd" d="M13.9646 11.0825L13.9205 11.2197L13.9891 11.2417" fill="black"/>
<path fill-rule="evenodd" clip-rule="evenodd" d="M13.9647 11.0825L14.0088 11.2197L13.9402 11.2417" fill="white"/>
<path fill-rule="evenodd" clip-rule="evenodd" d="M14.1018 11.1826H13.9573V11.2549" fill="white"/>
<path fill-rule="evenodd" clip-rule="evenodd" d="M14.1018 11.1826L13.9855 11.2671L13.9426 11.2083" fill="white"/>
<path fill-rule="evenodd" clip-rule="evenodd" d="M13.8275 11.1826L13.9438 11.2671L13.9867 11.2083" fill="white"/>
<path fill-rule="evenodd" clip-rule="evenodd" d="M13.8275 11.1826H13.972V11.2549" fill="white"/>
<path fill-rule="evenodd" clip-rule="evenodd" d="M14.0504 11.3442L14.0063 11.207L13.9377 11.2291" fill="white"/>
<path fill-rule="evenodd" clip-rule="evenodd" d="M14.0504 11.3444L13.9341 11.2599L13.9769 11.2012" fill="white"/>
<path fill-rule="evenodd" clip-rule="evenodd" d="M13.8801 11.3444L13.9964 11.2599L13.9536 11.2012" fill="white"/>
<path fill-rule="evenodd" clip-rule="evenodd" d="M13.8801 11.3442L13.9242 11.207L13.9928 11.2291" fill="white"/>
<path fill-rule="evenodd" clip-rule="evenodd" d="M14.3111 10.7539L14.2756 10.8641L14.3307 10.8825" fill="black"/>
<path fill-rule="evenodd" clip-rule="evenodd" d="M14.3111 10.7539L14.3466 10.8641L14.2915 10.8825" fill="white"/>
<path fill-rule="evenodd" clip-rule="evenodd" d="M14.4214 10.834H14.3063V10.8915" fill="white"/>
<path fill-rule="evenodd" clip-rule="evenodd" d="M14.4213 10.834L14.3282 10.9013L14.2939 10.8548" fill="white"/>
<path fill-rule="evenodd" clip-rule="evenodd" d="M14.2021 10.834L14.2952 10.9013L14.3295 10.8548" fill="white"/>
<path fill-rule="evenodd" clip-rule="evenodd" d="M14.2021 10.834H14.3172V10.8915" fill="white"/>
<path fill-rule="evenodd" clip-rule="evenodd" d="M14.3797 10.9622L14.3442 10.8521L14.2891 10.8704" fill="white"/>
<path fill-rule="evenodd" clip-rule="evenodd" d="M14.3797 10.9625L14.2866 10.8952L14.3209 10.8486" fill="white"/>
<path fill-rule="evenodd" clip-rule="evenodd" d="M14.2438 10.9625L14.3368 10.8952L14.3025 10.8486" fill="white"/>
<path fill-rule="evenodd" clip-rule="evenodd" d="M14.2438 10.9622L14.2793 10.8521L14.3344 10.8704" fill="white"/>
<path fill-rule="evenodd" clip-rule="evenodd" d="M13.645 10.6548L13.6095 10.765L13.6646 10.7834" fill="black"/>
<path fill-rule="evenodd" clip-rule="evenodd" d="M13.6451 10.6548L13.6806 10.765L13.6255 10.7834" fill="white"/>
<path fill-rule="evenodd" clip-rule="evenodd" d="M13.7552 10.7344H13.6401V10.7919" fill="white"/>
<path fill-rule="evenodd" clip-rule="evenodd" d="M13.7553 10.7344L13.6622 10.8017L13.6279 10.7552" fill="white"/>
<path fill-rule="evenodd" clip-rule="evenodd" d="M13.5361 10.7344L13.6292 10.8017L13.6635 10.7552" fill="white"/>
<path fill-rule="evenodd" clip-rule="evenodd" d="M13.5361 10.7344H13.6512V10.7919" fill="white"/>
<path fill-rule="evenodd" clip-rule="evenodd" d="M13.7137 10.8641L13.6781 10.7539L13.623 10.7723" fill="white"/>
<path fill-rule="evenodd" clip-rule="evenodd" d="M13.7137 10.8644L13.6206 10.797L13.6549 10.7505" fill="white"/>
<path fill-rule="evenodd" clip-rule="evenodd" d="M13.5778 10.8644L13.6708 10.797L13.6365 10.7505" fill="white"/>
<path fill-rule="evenodd" clip-rule="evenodd" d="M13.5778 10.8641L13.6133 10.7539L13.6684 10.7723" fill="white"/>
<path fill-rule="evenodd" clip-rule="evenodd" d="M11.13 10.4761L11.0762 10.6414L11.1582 10.6683" fill="black"/>
<path fill-rule="evenodd" clip-rule="evenodd" d="M11.1301 10.4761L11.184 10.6414L11.1019 10.6683" fill="white"/>
<path fill-rule="evenodd" clip-rule="evenodd" d="M11.2953 10.5957H11.1215V10.6826" fill="white"/>
<path fill-rule="evenodd" clip-rule="evenodd" d="M11.2954 10.5957L11.1546 10.6973L11.1031 10.6275" fill="white"/>
<path fill-rule="evenodd" clip-rule="evenodd" d="M10.9659 10.5957L11.1068 10.6973L11.1582 10.6275" fill="white"/>
<path fill-rule="evenodd" clip-rule="evenodd" d="M10.9659 10.5957H11.1398V10.6826" fill="white"/>
<path fill-rule="evenodd" clip-rule="evenodd" d="M11.2317 10.7898L11.1779 10.6245L11.0958 10.6514" fill="white"/>
<path fill-rule="evenodd" clip-rule="evenodd" d="M11.2318 10.7896L11.0909 10.688L11.1424 10.6182" fill="white"/>
<path fill-rule="evenodd" clip-rule="evenodd" d="M11.0284 10.7896L11.1693 10.688L11.1178 10.6182" fill="white"/>
<path fill-rule="evenodd" clip-rule="evenodd" d="M11.0284 10.7898L11.0823 10.6245L11.1644 10.6514" fill="white"/>
<path fill-rule="evenodd" clip-rule="evenodd" d="M12.7537 11.6099L12.7354 11.665L12.7623 11.6735" fill="black"/>
<path fill-rule="evenodd" clip-rule="evenodd" d="M12.7537 11.6099L12.7721 11.665L12.7451 11.6735" fill="white"/>
<path fill-rule="evenodd" clip-rule="evenodd" d="M12.8088 11.6489H12.7512V11.6783" fill="white"/>
<path fill-rule="evenodd" clip-rule="evenodd" d="M12.8088 11.6489L12.7623 11.6832L12.7451 11.6599" fill="white"/>
<path fill-rule="evenodd" clip-rule="evenodd" d="M12.6986 11.6489L12.7451 11.6832L12.7623 11.6599" fill="white"/>
<path fill-rule="evenodd" clip-rule="evenodd" d="M12.6986 11.6489H12.7562V11.6783" fill="white"/>
<path fill-rule="evenodd" clip-rule="evenodd" d="M12.788 11.7138L12.7696 11.6587L12.7427 11.6673" fill="white"/>
<path fill-rule="evenodd" clip-rule="evenodd" d="M12.788 11.7138L12.7415 11.6795L12.7586 11.6562" fill="white"/>
<path fill-rule="evenodd" clip-rule="evenodd" d="M12.7194 11.7138L12.7659 11.6795L12.7487 11.6562" fill="white"/>
<path fill-rule="evenodd" clip-rule="evenodd" d="M12.7194 11.7138L12.7377 11.6587L12.7647 11.6673" fill="white"/>
</svg>
