<svg width="26" height="17" viewBox="0 0 26 17" fill="none" xmlns="http://www.w3.org/2000/svg">
<path d="M25.4999 17H0.447388C0.200331 17 0 16.7997 0 16.5526V0.447388C0 0.200331 0.200331 0 0.447388 0H25.5C25.747 0 25.9474 0.200331 25.9474 0.447388V16.5526C25.9473 16.7997 25.747 17 25.4999 17Z" fill="#FF4B55"/>
<path d="M4.30804 2.65839L4.73455 3.93721L6.08259 3.94765C6.25713 3.94897 6.3295 4.17175 6.18907 4.27539L5.10465 5.07615L5.51125 6.36146C5.56385 6.52789 5.37442 6.66548 5.23241 6.56402L4.13574 5.78008L3.03906 6.56397C2.89706 6.66548 2.70762 6.52779 2.76022 6.36141L3.16682 5.0761L2.0824 4.27539C1.94197 4.1717 2.01434 3.94897 2.18888 3.94765L3.53692 3.93721L3.96343 2.65839C4.01867 2.49278 4.25285 2.49278 4.30804 2.65839Z" fill="#FFE15A"/>
<path d="M9.20318 2.97344L9.50903 3.39052L10.0026 3.23615C10.0665 3.21618 10.119 3.28906 10.0799 3.34334L9.77777 3.763L10.0771 4.1847C10.1158 4.23928 10.0628 4.3118 9.99903 4.29138L9.50649 4.13372L9.19791 4.54872C9.15798 4.60244 9.07258 4.57436 9.07233 4.50747L9.07005 3.9903L8.57999 3.82503C8.51659 3.8036 8.51684 3.7138 8.58045 3.69281L9.07152 3.53085L9.0773 3.01372C9.07801 2.94688 9.1636 2.91946 9.20318 2.97344Z" fill="#FFE15A"/>
<path d="M7.3412 1.73044L7.85533 1.78629L8.07466 1.31797C8.1031 1.25736 8.19229 1.26775 8.20597 1.33328L8.31169 1.83945L8.82486 1.9033C8.8913 1.91157 8.90898 1.99964 8.85085 2.03294L8.4021 2.28988L8.49996 2.79768C8.51263 2.86346 8.43433 2.90745 8.38471 2.86249L8.00164 2.51509L7.54898 2.76504C7.49039 2.79742 7.42426 2.73651 7.45173 2.67544L7.66371 2.20373L7.28606 1.8504C7.2372 1.80489 7.27466 1.72324 7.3412 1.73044Z" fill="#FFE15A"/>
<path d="M8.15397 6.742L7.84812 7.15908L7.35457 7.00472C7.29066 6.98475 7.23811 7.05762 7.27723 7.1119L7.57938 7.53157L7.28007 7.95326C7.2413 8.00784 7.29436 8.08036 7.35811 8.05994L7.85066 7.90228L8.15924 8.31729C8.19917 8.371 8.28457 8.34293 8.28482 8.27603L8.2871 7.75886L8.77716 7.5936C8.84061 7.57216 8.8403 7.48236 8.7767 7.46138L8.28563 7.29941L8.27985 6.78229C8.27904 6.71549 8.19355 6.68798 8.15397 6.742Z" fill="#FFE15A"/>
<path d="M10.0158 5.5737L9.50166 5.62955L9.28232 5.16123C9.25389 5.10062 9.1647 5.11101 9.15101 5.17654L9.04525 5.68271L8.53208 5.74657C8.46564 5.75483 8.44795 5.84291 8.50608 5.8762L8.95484 6.13314L8.85698 6.64094C8.84431 6.70672 8.9226 6.75071 8.97222 6.70576L9.3553 6.35836L9.80796 6.6083C9.86654 6.64068 9.93267 6.57977 9.90521 6.5187L9.69322 6.04699L10.0709 5.69366C10.1199 5.64815 10.0824 5.56651 10.0158 5.5737Z" fill="#FFE15A"/>
</svg>
