<svg width="25" height="17" viewBox="0 0 25 17" fill="none" xmlns="http://www.w3.org/2000/svg">
<path d="M24.498 0H0V16.3316H24.498V0Z" fill="#F0F0F0"/>
<path d="M24.498 0H0V5.44386H24.498V0Z" fill="#D80027"/>
<path d="M24.498 10.8882H0V16.332H24.498V10.8882Z" fill="black"/>
<path d="M15.3113 7.22259H13.0146C13.0146 6.79981 12.6718 6.45703 12.249 6.45703C11.8262 6.45703 11.4835 6.79981 11.4835 7.22259H9.18677C9.18677 7.64537 9.55505 7.98816 9.97783 7.98816H9.95233C9.95233 8.41094 10.2951 8.75372 10.7179 8.75372C10.7179 9.1765 11.0607 9.51928 11.4835 9.51928H13.0146C13.4374 9.51928 13.7801 9.1765 13.7801 8.75372C14.2029 8.75372 14.5457 8.41094 14.5457 7.98816H14.5202C14.943 7.98816 15.3113 7.64542 15.3113 7.22259Z" fill="#FF9811"/>
</svg>
