<svg width="25" height="19" viewBox="0 0 25 19" fill="none" xmlns="http://www.w3.org/2000/svg">
<path d="M0 0V6.06906L12.0965 6.93094L24.1929 6.06906V0H0Z" fill="#FF9933"/>
<path d="M0 12.1382V18.2073H24.1929V12.1382L12.0965 11.2764L0 12.1382Z" fill="#128807"/>
<path d="M0 6.06934H24.1927V12.1381H0V6.06934Z" fill="#F1F1F1"/>
<path d="M12.6498 8.92339L13.2601 9.10324L12.6498 9.28308L13.038 9.78728L12.4384 9.57382L12.4559 10.2099L12.0965 9.685L11.7368 10.2099L11.7546 9.57382L11.1551 9.78728L11.5432 9.28308L10.933 9.10324L11.5432 8.92339L11.1551 8.41919L11.7546 8.63265L11.7368 7.99658L12.0965 8.52147L12.4559 7.99658L12.4384 8.63265L13.038 8.41919L12.6498 8.92339Z" fill="#000088"/>
<path d="M12.0965 6.7832C10.8172 6.7832 9.77661 7.82407 9.77661 9.10309C9.77661 10.3821 10.8172 11.423 12.0965 11.423C13.3758 11.423 14.4164 10.3821 14.4164 9.10309C14.4164 7.82407 13.3758 6.7832 12.0965 6.7832ZM12.0965 10.5611C11.2924 10.5611 10.6385 9.90694 10.6385 9.10309C10.6385 8.29925 11.2924 7.64508 12.0965 7.64508C12.9006 7.64508 13.5545 8.29925 13.5545 9.10309C13.5545 9.90694 12.9006 10.5611 12.0965 10.5611Z" fill="#000088"/>
</svg>
