<svg width="1320" height="300" viewBox="0 0 1320 300" fill="none" xmlns="http://www.w3.org/2000/svg">
<path d="M1495.4 -119.909C1465.91 -36.3758 1435.45 50.0128 1381.46 123.369C1323.27 202.435 1240.8 254.696 1149.24 270.531C1125.91 274.575 1101.75 276.584 1076.7 276.584C1008.19 276.584 932.896 261.464 848.521 230.932C797.068 212.295 747.066 188.345 698.728 165.189C660.369 146.816 620.689 127.784 580.535 111.553C558.781 102.75 530.481 92.7047 503.922 92.7047C503.658 92.7047 503.394 92.7047 503.13 92.7047C489.878 92.8105 477.76 95.4539 467.094 100.582C455.267 106.266 444.707 115.227 435.731 127.255C417.726 151.363 405.741 180.071 394.151 207.854C392.303 212.269 390.402 216.842 388.502 221.283C372.767 258.318 354.921 300.296 333.484 339.71C287.469 424.248 221.944 475.664 114.311 511.588C13.252 545.319 -150.454 540.27 -250.616 500.301C-428.103 429.482 -458.12 379.547 -487.16 331.278C-495.423 317.532 -503.238 304.526 -514.405 291.229C-537.531 263.658 -529.611 233.443 -521.216 201.457C-517.942 188.953 -514.537 176 -512.847 162.757L-513.111 162.73C-514.801 175.974 -518.206 188.9 -521.48 201.404C-525.757 217.714 -529.796 233.126 -529.928 248.141C-530.06 265.032 -525.202 278.778 -514.616 291.414C-503.475 304.684 -495.661 317.69 -487.398 331.436C-473.142 355.148 -458.41 379.653 -424.988 407.172C-406.904 422.028 -385.203 436.329 -358.592 450.894C-328.575 467.337 -293.278 483.568 -250.722 500.565C-226.486 510.24 -198.054 518.038 -166.189 523.775C-135.354 529.326 -102.697 532.683 -69.1425 533.741C-35.4825 534.825 -2.66724 533.556 28.3792 529.961C60.64 526.233 89.5744 520.127 114.364 511.853C167.56 494.089 208.242 473.813 242.351 448.013C279.443 419.966 309.328 384.596 333.669 339.842C355.132 300.428 372.952 258.424 388.713 221.389C390.587 216.948 392.514 212.374 394.362 207.96C405.952 180.203 417.911 151.495 435.916 127.44C473.246 77.4784 527.445 90.4049 580.429 111.843C620.584 128.074 660.263 147.081 698.622 165.453C746.961 188.61 796.962 212.586 848.442 231.222C901.902 250.573 950.373 263.446 996.599 270.557C1022.79 274.575 1048.48 276.716 1072.92 276.901C1099.19 277.113 1124.88 275.051 1149.3 270.848C1195.84 262.812 1239.74 245.682 1279.79 219.988C1318.73 195.007 1353.03 162.572 1381.7 123.58C1405.75 90.9072 1427.29 52.524 1447.59 6.26337C1465.94 -35.5563 1481.07 -78.3805 1495.66 -119.777L1495.4 -119.909Z" fill="url(#paint0_linear_1308_2193)" fill-opacity="0.1"/>
<path d="M1495.3 -105.687C1457.44 -21.3872 1421.56 48.0831 1369.58 113.007C1311.95 185.147 1229.05 235.611 1136.12 255.146C1039.31 275.5 938.203 267.491 835.56 231.328C781.281 211.978 728.745 185.913 677.952 160.748C642.813 143.327 606.487 125.299 569.87 109.649C548.275 100.424 520.08 89.7177 493.627 88.9775C480.585 88.6074 468.6 90.7222 458.04 95.2161C446.318 100.212 435.837 108.354 426.835 119.457C409.701 140.604 397.769 165.876 386.205 190.328C383.671 195.694 381.057 201.219 378.444 206.612C373.111 217.556 367.884 228.579 362.34 240.21C349.245 267.755 335.702 296.225 320.786 324.035C274.19 410.502 209.88 463.451 105.785 501.147C7.49738 536.728 -152.223 533.344 -250.219 493.639C-421.978 424.037 -451.599 374.868 -480.243 327.339C-488.321 313.936 -495.951 301.248 -506.722 288.216C-529.875 260.168 -522.879 229.451 -515.487 196.937C-512.635 184.38 -509.679 171.401 -508.359 158.131L-508.675 158.104C-510.022 171.348 -512.952 184.327 -515.803 196.884C-523.195 229.451 -530.191 260.248 -506.959 288.427C-496.215 301.433 -488.585 314.095 -480.507 327.497C-466.409 350.892 -451.836 375.08 -419.285 402.149C-401.703 416.767 -380.609 430.831 -354.816 445.132C-325.723 461.283 -291.535 477.25 -250.325 493.93C-197.736 515.263 -127.407 526.101 -58.3442 526.101C1.42542 526.101 60.271 517.986 105.917 501.464C131.129 492.344 153.225 482.669 173.501 471.936C194.911 460.596 213.787 448.277 231.237 434.32C267.353 405.4 296.736 369.396 321.077 324.22C335.993 296.384 349.536 267.914 362.63 240.369C368.174 228.711 373.401 217.714 378.734 206.77C381.348 201.378 383.961 195.853 386.496 190.487C398.033 166.061 409.965 140.789 427.073 119.668C464.481 73.5132 517.757 87.7086 569.738 109.94C606.329 125.589 642.655 143.592 677.793 161.012C728.587 186.204 781.123 212.242 835.428 231.619C938.124 267.782 1039.31 275.818 1136.18 255.437C1182.83 245.629 1226.68 228.341 1266.49 204.074C1306.22 179.86 1340.96 149.275 1369.82 113.192C1395.03 81.7079 1418.13 46.8671 1440.44 6.65997C1462.53 -33.1506 1481.52 -74.2301 1495.59 -105.555L1495.3 -105.687Z" fill="url(#paint1_linear_1308_2193)" fill-opacity="0.1"/>
<path d="M1495.22 -91.4659C1454.06 -19.2464 1410.39 42.4521 1357.73 102.644C1300.41 168.493 1219.23 215.89 1123 239.76C1014.18 266.75 915.922 264.107 822.571 231.724C765.547 211.951 710.688 183.666 657.65 156.359C625.601 139.837 592.469 122.787 559.205 107.746C537.953 98.15 510.233 86.9417 484.15 85.2763C481.879 85.1441 479.635 85.0648 477.444 85.0648C453.314 85.0648 433.805 93.8147 417.965 111.711C401.597 130.189 389.743 152.394 378.259 173.859C375.065 179.833 371.765 186.019 368.412 192.019C357.43 211.713 346.526 233.31 334.963 256.203C326.33 273.332 317.381 291.017 308.114 308.464C261.254 396.756 198.211 451.291 97.3367 490.758C1.7951 528.163 -153.912 526.471 -249.771 487.004C-415.853 418.617 -445.078 370.189 -473.352 323.373C-481.246 310.315 -488.691 297.97 -499.039 285.202C-522.192 256.652 -516.173 225.433 -509.811 192.363C-507.382 179.754 -504.874 166.721 -503.871 153.451L-504.214 153.425C-505.191 166.695 -507.699 179.727 -510.127 192.31C-516.516 225.459 -522.562 256.758 -499.303 285.44C-488.981 298.155 -481.536 310.5 -473.643 323.558C-459.703 346.662 -445.289 370.533 -413.609 397.152C-396.502 411.533 -376.042 425.332 -351.041 439.395C-322.846 455.229 -289.766 470.932 -249.902 487.348C-226.406 497.023 -199.056 504.609 -168.564 509.923C-139.128 515.051 -108.029 517.8 -76.1376 518.17C-44.2464 518.514 -13.1736 516.426 16.236 511.958C46.7016 507.332 74.0255 500.327 97.4688 491.128C122.021 481.505 143.669 471.328 163.654 459.961C184.536 448.066 203.016 435.245 220.176 420.706C255.367 390.914 284.249 354.249 308.484 308.623C317.75 291.176 326.674 273.465 335.333 256.361C346.87 233.495 357.799 211.872 368.755 192.204C372.108 186.204 375.408 180.018 378.602 174.044C390.06 152.579 401.94 130.4 418.255 111.975C455.743 69.627 508.094 85.0912 559.073 108.116C592.31 123.131 625.442 140.207 657.492 156.703C710.556 184.036 765.415 212.295 822.466 232.094C846.991 240.606 872.23 247.136 897.442 251.524C921.888 255.78 947.1 258.133 972.391 258.529C996.785 258.926 1022.08 257.498 1047.53 254.326C1071.95 251.286 1097.37 246.501 1123.08 240.131C1170.05 228.473 1213.85 211.026 1253.23 188.292C1293.84 164.845 1329.06 136.11 1357.96 102.908C1410.63 42.69 1454.32 -19.0085 1495.48 -91.2545L1495.22 -91.4659Z" fill="url(#paint2_linear_1308_2193)" fill-opacity="0.1"/>
<path d="M1495.11 -77.2438C1453.45 -19.8278 1405.38 30.2659 1349.7 88.2635L1345.85 92.2816C1289.69 151.204 1210.31 195.641 1109.88 224.376C1057.56 239.364 999.082 252.687 936.778 252.687C895.831 252.687 853.248 246.924 809.609 232.095C750.315 211.951 693.581 181.604 638.695 152.235C609.312 136.533 578.952 120.276 548.592 105.816C527.71 95.8767 500.465 84.1398 474.698 81.5492C447.902 78.8528 426.466 86.1488 409.147 103.913C393.466 120.012 381.665 139.415 370.26 158.21C366.432 164.501 362.498 171.004 358.433 177.348C342.355 202.408 326.41 233.231 309.514 265.878C304.946 274.681 300.247 283.801 295.522 292.789C248.767 381.873 185.038 439.739 88.8624 480.369C-3.95999 519.572 -155.681 519.572 -249.322 480.369C-409.728 413.225 -438.557 365.537 -466.435 319.435C-474.118 306.72 -481.404 294.692 -491.33 282.241C-514.51 253.216 -509.441 221.468 -504.082 187.869C-502.075 175.207 -499.99 162.148 -499.356 148.852L-499.752 148.825C-500.386 162.096 -502.471 175.181 -504.478 187.817C-509.863 221.494 -514.932 253.295 -491.647 282.479C-481.721 294.93 -474.461 306.931 -466.778 319.646C-452.998 342.459 -438.742 366.013 -407.933 392.183C-391.301 406.299 -371.448 419.86 -347.239 433.685C-319.968 449.229 -287.998 464.64 -249.48 480.765C-203.887 499.851 -143.722 510.372 -80.0184 510.372C-79.8864 510.372 -79.7808 510.372 -79.6488 510.372C-48.6552 510.346 -18.4272 507.861 10.1641 502.918C39.7056 497.842 66.2376 490.388 89.0208 480.765C137.016 460.49 176.273 436.382 209.088 407.039C243.302 376.428 271.682 339.155 295.891 293.027C300.617 284.039 305.316 274.919 309.883 266.116C326.779 233.469 342.725 202.646 358.776 177.613C362.842 171.268 366.802 164.766 370.603 158.474C382.51 138.833 393.782 120.302 409.438 104.23C447.005 65.7148 498.432 82.4215 548.407 106.239C578.767 120.699 609.127 136.93 638.51 152.658C693.396 182.027 750.156 212.374 809.477 232.544C857.604 248.881 906.919 255.436 960.3 252.581C1004.57 250.202 1052.15 241.373 1109.99 224.825C1157.69 211.185 1201.44 193.579 1239.96 172.511C1281.54 149.777 1317.25 122.919 1346.11 92.6253L1349.96 88.6072C1405.64 30.6096 1453.74 -19.4841 1495.4 -76.9266L1495.11 -77.2438Z" fill="url(#paint3_linear_1308_2193)" fill-opacity="0.1"/>
<path d="M1495.06 -63.0483C1468.29 -34.3931 1438.54 -9.20093 1407.04 17.4716C1383.36 37.5356 1358.89 58.2604 1333.99 81.8665C1280.06 133.044 1202.44 174.626 1096.76 208.938C1029.12 230.905 965.474 249.145 900.187 249.145C866.368 249.145 832.101 244.255 796.619 232.438C735.318 212.031 676.922 179.595 620.479 148.244C593.524 133.282 565.672 117.791 537.926 103.86C517.439 93.5771 490.643 81.3378 465.22 77.7956C460.23 77.1083 455.426 76.7646 450.806 76.7646C430.979 76.7646 414.374 83.1354 400.329 96.0884C385.202 110.019 373.982 126.224 362.128 143.354C357.746 149.698 353.178 156.254 348.453 162.677C327.702 190.698 307.454 229.795 285.99 271.192L282.902 277.139C235.619 368.26 173.183 427.738 80.4136 469.954C-11.2208 511.668 -155.866 513.307 -248.874 473.734C-403.604 407.885 -432.037 360.884 -459.546 315.47C-466.7 303.627 -474.118 291.414 -483.649 279.254C-506.828 249.727 -502.736 217.476 -498.433 183.323C-496.822 170.634 -495.159 157.496 -494.869 144.199H-495.291C-495.582 157.496 -497.245 170.608 -498.855 183.296C-503.185 217.529 -507.303 249.859 -483.992 279.545C-474.462 291.678 -467.07 303.918 -459.915 315.734C-432.38 361.228 -403.894 408.282 -249.085 474.183C-204.205 493.296 -145.28 503.367 -83.1608 502.574C-53.0384 502.178 -23.708 499.27 4.06482 493.904C32.7088 488.379 58.4224 480.475 80.5456 470.403C127.089 449.229 165.501 424.01 197.946 393.346C231.158 361.968 259.036 324.061 283.245 277.404L286.334 271.456C307.77 230.086 328.046 191.015 348.743 163.021C353.495 156.624 358.036 150.042 362.419 143.697C374.272 126.568 385.466 110.416 400.566 96.5113C417.779 80.6505 438.899 74.7027 465.141 78.3507C490.511 81.8665 517.255 94.1058 537.714 104.362C565.461 118.293 593.313 133.758 620.267 148.72C676.737 180.098 735.16 212.533 796.487 232.941C821.858 241.373 847.07 246.502 873.496 248.59C897.494 250.493 921.94 249.806 948.208 246.554C999.662 240.157 1051.93 224.032 1096.92 209.44C1146.74 193.262 1189.19 175.974 1226.68 156.624C1247.4 145.918 1266.72 134.445 1284.12 122.549C1302.58 109.914 1319.47 96.3527 1334.31 82.263C1359.18 58.6569 1383.65 37.9321 1407.33 17.8682C1438.83 -8.80441 1468.58 -34.0231 1495.37 -62.6782L1495.06 -63.0483Z" fill="url(#paint4_linear_1308_2193)" fill-opacity="0.1"/>
<path d="M1494.98 -48.8265C1471.64 -29.8464 1446.22 -13.8535 1419.29 3.09113C1387.35 23.2079 1354.29 43.9856 1322.14 71.5041C1259.09 125.457 1170.26 162.069 1083.67 193.579C1078.73 195.377 1073.82 197.174 1068.94 198.972C1002.38 223.318 938.414 246.713 870.751 246.713C842.529 246.713 813.648 242.642 783.684 232.888C720.561 212.322 660.765 177.798 602.923 144.411C578.212 130.136 552.657 115.412 527.287 102.01C507.17 91.3829 480.849 78.6414 455.743 74.1475C449.301 73.0108 443.15 72.4293 437.316 72.4293C419.601 72.4293 404.5 77.6898 391.485 88.3429C376.78 100.371 365.587 114.434 353.76 129.317C348.876 135.476 343.807 141.847 338.448 148.059C315.532 174.731 293.119 216.948 270.256 261.516C222.42 354.751 161.277 415.842 71.9395 459.565C24.5779 482.748 -37.5149 494.512 -98.8685 494.512C-152.724 494.512 -206.026 485.444 -248.424 467.099C-397.453 402.572 -425.516 356.258 -452.655 311.478C-459.625 299.979 -466.832 288.083 -475.966 276.241C-499.145 246.211 -496.057 213.432 -492.783 178.749C-491.569 166.008 -490.328 152.843 -490.381 139.52H-490.856C-490.803 152.817 -492.044 165.982 -493.258 178.697C-496.558 213.485 -499.673 246.316 -476.362 276.505C-467.228 288.348 -460.021 300.217 -453.077 311.689C-425.912 356.523 -397.796 402.915 -248.689 467.495C-204.627 486.581 -147.075 496.23 -86.6717 494.644C-57.4469 493.877 -28.9613 490.546 -2.0069 484.757C25.7131 478.783 50.6611 470.43 72.0715 459.961C161.515 416.186 222.736 355.042 270.626 261.701C293.462 217.159 315.875 174.969 338.738 148.323C344.097 142.085 349.166 135.714 354.05 129.555C365.877 114.672 377.044 100.635 391.723 88.6601C408.936 74.5969 429.844 69.9973 455.611 74.5705C480.664 79.0379 506.932 91.7794 527.023 102.38C552.393 115.756 577.922 130.506 602.632 144.781C660.501 178.168 720.324 212.718 783.472 233.284C808.051 241.294 832.339 245.735 857.762 246.898C880.545 247.929 903.804 246.264 928.857 241.823C975.612 233.549 1020.99 216.948 1069.04 199.368C1073.93 197.571 1078.86 195.773 1083.77 193.976C1120.81 180.494 1169.02 162.254 1213.32 140.71C1257.93 119.007 1293.63 96.4583 1322.4 71.8477C1354.53 44.3556 1387.56 23.578 1419.47 3.46118C1446.4 -13.4834 1471.85 -29.5028 1495.22 -48.5093L1494.98 -48.8265Z" fill="url(#paint5_linear_1308_2193)" fill-opacity="0.1"/>
<path d="M1494.93 -34.6311C1472.7 -21.3873 1448.62 -10.9192 1423.14 0.130493C1385.42 16.52 1346.37 33.4646 1310.31 61.1152C1252.86 105.129 1176.62 135.661 1095.92 167.991C1087.63 171.321 1079.05 174.758 1070.57 178.168C1057.87 183.296 1045.2 188.61 1032.93 193.764C970.622 219.935 910.799 245.074 846.014 245.074C821.726 245.074 796.778 241.558 770.694 233.231C705.935 212.559 644.872 175.947 585.842 140.551C563.19 126.964 539.8 112.927 516.621 100.08C496.874 89.136 471.054 75.8658 446.212 70.4467C420.736 64.869 399.933 68.1733 382.614 80.5183C368.2 90.8014 356.954 102.988 345.047 115.861C339.741 121.598 334.25 127.546 328.415 133.388C303.942 157.787 279.918 201.853 257.584 245.867C209.166 341.323 149.291 404.026 63.412 449.15C-22.8104 494.459 -159.615 499.428 -248.029 460.437C-391.302 397.285 -418.995 351.632 -445.765 307.46C-452.523 296.304 -459.519 284.779 -468.284 273.227C-491.49 242.669 -489.378 209.414 -487.134 174.176C-486.315 161.408 -485.497 148.191 -485.866 134.868L-486.394 134.894C-486.025 148.191 -486.843 161.408 -487.662 174.15C-489.906 209.467 -492.018 242.827 -468.706 273.544C-459.968 285.07 -452.972 296.569 -446.214 307.724C-432.882 329.718 -419.101 352.452 -390.879 377.3C-375.673 390.676 -357.694 403.523 -335.862 416.556C-311.336 431.201 -282.666 445.713 -248.24 460.887C-204.97 479.946 -148.844 489.172 -90.1303 486.819C-61.8032 485.682 -34.1888 481.929 -8.02634 475.69C18.7961 469.293 42.9257 460.49 63.676 449.573C149.634 404.396 209.589 341.64 258.059 246.079C280.367 202.118 304.365 158.078 328.785 133.731C334.646 127.889 340.137 121.941 345.443 116.205C357.323 103.331 368.543 91.1979 382.931 80.9413C400.118 68.6756 420.789 65.3976 446.133 70.9489C470.896 76.368 496.689 89.6118 516.41 100.529C539.562 113.377 562.979 127.413 585.604 141.001C644.661 176.423 705.724 213.062 770.562 233.734C866.394 264.318 947.39 230.297 1033.14 194.267C1045.39 189.112 1058.08 183.798 1070.76 178.67C1079.23 175.26 1087.81 171.824 1096.1 168.493C1176.83 136.163 1253.1 105.605 1310.63 61.5382C1346.66 33.9404 1385.66 16.9958 1423.36 0.606323C1448.86 -10.4698 1472.93 -20.938 1495.19 -34.2082L1494.93 -34.6311Z" fill="url(#paint6_linear_1308_2193)" fill-opacity="0.1"/>
<path d="M1494.87 -20.4357C1472.86 -11.4215 1449.1 -5.13007 1423.91 1.50504C1381.27 12.7662 1337.19 24.3975 1298.43 50.7528C1252.6 81.9193 1194.76 105.631 1133.54 130.744C1108.64 140.948 1082.93 151.495 1057.43 162.809C1039.76 170.634 1022.31 179.067 1005.47 187.235C945.543 216.207 888.096 243.99 824.288 243.99C802.904 243.99 780.833 240.871 757.707 233.654C691.416 212.93 629.271 174.203 569.184 136.745C548.487 123.845 527.076 110.495 505.956 98.2031C486.605 86.9419 461.261 73.1959 436.683 66.7987C411.629 60.2957 391.037 62.2519 373.745 72.7729C359.41 81.4963 348.005 91.9909 335.94 103.093C330.344 108.248 324.562 113.562 318.358 118.796C291.562 141.424 266.165 187.869 244.887 230.297C195.836 328.079 137.228 392.368 54.8859 438.814C-28.6436 485.92 -161.541 492.529 -247.658 453.855C-385.202 392.104 -412.526 347.059 -438.952 303.495C-445.5 292.683 -452.284 281.501 -460.653 270.293C-483.832 239.206 -482.75 205.422 -481.562 169.682C-481.14 156.888 -480.717 143.644 -481.43 130.295L-481.984 130.321C-481.272 143.644 -481.72 156.862 -482.116 169.656C-483.278 205.528 -484.387 239.391 -461.076 270.636C-452.733 281.818 -445.948 293 -439.401 303.785C-426.201 325.541 -412.579 348.011 -385.228 372.436C-370.497 385.574 -353.126 398.184 -332.112 410.978C-308.484 425.332 -280.948 439.527 -247.869 454.384C-205.418 473.443 -150.664 482.193 -93.6668 479.074C-66.2372 477.567 -39.494 473.39 -14.1501 466.702C11.7484 459.856 35.086 450.63 55.1764 439.316C137.624 392.844 196.284 328.449 245.388 230.561C266.64 188.187 291.984 141.82 318.728 119.245C324.932 114.011 330.713 108.698 336.31 103.543C348.348 92.4667 359.753 81.9986 374.036 73.3016C391.196 62.8599 411.629 60.9037 436.524 67.3802C461.024 73.751 486.341 87.4706 505.666 98.7318C526.786 111.024 548.17 124.373 568.868 137.273C628.98 174.758 691.152 213.511 757.522 234.236C780.701 241.479 802.851 244.598 824.288 244.598C888.202 244.598 945.701 216.789 1005.68 187.79C1022.55 179.648 1039.98 171.216 1057.64 163.365C1083.11 152.05 1108.85 141.503 1133.75 131.299C1195 106.186 1252.87 82.448 1298.75 51.2551C1337.42 24.979 1381.46 13.3477 1424.04 2.08658C1449.23 -4.57495 1473.01 -10.8399 1495.06 -19.8806L1494.87 -20.4357Z" fill="url(#paint7_linear_1308_2193)" fill-opacity="0.1"/>
<path d="M1494.82 -6.21405C1472.59 -0.689209 1448.59 2.08643 1423.22 4.99423C1376.1 10.4133 1327.39 16.0439 1286.58 40.3638C1249.14 62.6747 1203.84 80.7032 1155.9 99.789C1119.39 114.302 1081.63 129.316 1044.3 147.398C1023.24 157.602 1002.65 168.968 982.74 179.965C924.317 212.242 868.375 243.171 804.619 243.171C785.453 243.171 765.6 240.395 744.744 233.998C677.054 213.273 613.958 172.405 552.922 132.859C534.046 120.619 514.536 107.984 495.317 96.2467C467.174 79.0378 446.133 68.8075 427.152 63.0712C402.521 55.6166 382.166 56.2246 364.927 64.9481C350.46 72.2705 338.712 81.2582 326.277 90.7747C320.575 95.1364 314.688 99.6303 308.378 104.098C295.627 113.112 282.638 127.836 268.673 149.142C257.637 165.955 246.074 186.759 232.241 214.621C182.503 314.835 125.189 380.763 46.4111 428.372C-34.4786 477.25 -163.443 485.497 -247.21 447.193C-379.025 386.896 -406.006 342.433 -432.063 299.45C-438.399 288.982 -444.972 278.17 -452.945 267.305C-476.124 235.69 -476.045 201.404 -475.939 165.109C-475.913 152.262 -475.86 138.992 -476.916 125.642L-477.523 125.695C-476.494 139.018 -476.52 152.288 -476.573 165.109C-476.652 201.51 -476.758 235.901 -453.447 267.676C-445.5 278.514 -438.953 289.326 -432.591 299.767C-419.549 321.285 -406.059 343.517 -379.579 367.519C-365.323 380.446 -348.559 392.791 -328.337 405.321C-305.633 419.384 -279.18 433.262 -247.474 447.748C-205.841 466.781 -152.487 475.108 -97.1786 471.17C-43.1378 467.337 7.9462 452.322 46.7014 428.901C87.7006 404.131 122.628 374.524 153.489 338.388C182.397 304.525 208.349 264.133 232.769 214.912C254.179 171.771 279.945 124.928 308.695 104.626C315.005 100.159 320.892 95.6651 326.594 91.277C339.002 81.787 350.724 72.7992 365.138 65.5296C382.245 56.8855 402.441 56.2775 426.914 63.7057C445.869 69.442 466.831 79.6457 494.947 96.8283C514.14 108.565 533.65 121.201 552.526 133.44C613.589 173.013 676.711 213.907 744.506 234.659C835.005 262.362 906.893 222.631 982.978 180.573C1002.88 169.576 1023.48 158.21 1044.52 148.006C1081.85 129.951 1119.57 114.936 1156.06 100.423C1204.05 81.3376 1249.35 63.3091 1286.84 40.9718C1327.52 16.7048 1376.18 11.1007 1423.25 5.68155C1448.65 2.74731 1472.64 -0.00189209 1494.93 -5.55316L1494.82 -6.21405Z" fill="url(#paint8_linear_1308_2193)" fill-opacity="0.1"/>
<path d="M1494.79 7.98157C1472.09 10.4135 1447.64 10.0435 1421.74 9.64697C1412.14 9.48834 1402.47 9.35614 1392.81 9.35614C1350.89 9.35614 1309.33 12.1582 1274.75 29.9752C1243.91 45.8624 1207.88 59.2648 1169.73 73.4338C1124.32 90.2991 1077.36 107.746 1031.18 131.987C1007.66 144.332 984.904 158.58 962.886 172.352C889.943 218.005 821.013 261.12 731.754 234.368C662.745 213.696 598.777 170.608 536.922 128.947C519.789 117.395 502.048 105.473 484.65 94.3172C457.089 76.6588 436.391 65.8735 417.568 59.3441C393.359 50.9379 373.242 50.2242 356.082 57.1236C341.087 63.1507 328.732 70.8168 315.637 78.9586C310.146 82.3687 304.444 85.9109 298.398 89.4268C284.829 97.3043 271.233 111.42 256.845 132.647C245.413 149.486 233.586 170.555 219.621 198.972C169.144 301.776 113.097 369.317 37.9359 417.957C-41.6073 469.425 -163.998 479.127 -246.762 440.532C-372.848 381.688 -399.459 337.78 -425.199 295.326C-431.324 285.228 -437.66 274.76 -445.237 264.266C-468.416 232.121 -469.34 197.307 -470.343 160.457C-470.687 147.583 -471.056 134.286 -472.403 120.937L-473.036 120.99C-471.69 134.313 -471.32 147.609 -470.977 160.457C-469.974 197.412 -469.05 232.306 -445.739 264.609C-438.188 275.104 -431.852 285.546 -425.727 295.617C-412.818 316.923 -399.486 338.944 -373.851 362.523C-360.071 375.212 -343.914 387.345 -324.483 399.585C-302.677 413.331 -277.333 426.892 -246.999 441.034C-226.117 450.789 -202.515 457.609 -176.855 461.336C-152.355 464.878 -126.721 465.513 -100.638 463.213C-48.5505 458.613 0.791046 442.7 38.3055 418.433C77.9583 392.765 112.014 362.047 142.427 324.51C170.2 290.251 195.623 249.251 220.201 199.184C234.141 170.793 245.941 149.751 257.373 132.938C271.734 111.817 285.251 97.7272 298.715 89.929C304.787 86.4132 310.463 82.871 315.981 79.4609C329.049 71.3455 341.377 63.7058 356.32 57.6787C373.348 50.8322 393.306 51.5723 417.357 59.9257C436.153 66.4286 456.798 77.214 484.307 94.8194C501.705 105.975 519.419 117.897 536.579 129.449C598.461 171.136 662.481 214.225 731.569 234.95C753.112 241.4 773.968 244.017 795.325 242.959C814.413 242.008 833.526 238.095 853.749 231.011C891.369 217.82 926.269 195.985 963.229 172.855C985.221 159.082 1007.98 144.86 1031.47 132.515C1077.62 108.301 1124.56 90.8542 1169.94 73.9889C1208.12 59.7935 1244.18 46.4175 1275.04 30.5039C1317.41 8.64243 1370.45 9.46194 1421.72 10.255C1447.64 10.6515 1472.12 11.0216 1494.85 8.58957L1494.79 7.98157Z" fill="url(#paint9_linear_1308_2193)" fill-opacity="0.1"/>
<path d="M1332.7 7.37344C1307.51 7.37344 1283.73 10.4928 1262.9 19.6127C1237.53 30.7153 1208.78 40.3639 1178.31 50.5941C1128.07 67.4594 1071.15 86.5453 1018.06 116.628C992.719 130.982 968.431 148.032 944.935 164.528C874.341 214.066 807.681 260.855 718.792 234.791C648.542 214.172 583.809 168.863 521.241 125.061C505.744 114.222 489.719 102.988 474.038 92.4666C439.454 69.257 400.619 46.7083 366.484 46.7083C359.884 46.7083 353.469 47.5541 347.291 49.4046C331.108 54.2421 317.591 60.7979 303.256 67.7238C298.504 70.0236 293.594 72.4027 288.419 74.8083C274.031 81.4963 259.802 95.0308 244.939 116.179C233.164 132.938 221.099 154.271 206.975 183.375C154.967 290.383 101.877 357.421 29.4617 407.594C-47.4151 460.834 -165.977 472.148 -246.313 433.923C-366.697 376.639 -391.803 335.163 -418.361 291.282C-424.249 281.554 -430.347 271.482 -437.528 261.331C-460.681 228.632 -462.661 193.315 -464.746 155.91C-465.459 143.01 -466.225 129.687 -467.861 116.364L-468.548 116.443C-466.885 129.766 -466.145 143.089 -465.433 155.963C-463.347 193.447 -461.367 228.87 -438.082 261.728C-430.928 271.852 -424.829 281.897 -418.942 291.625C-406.165 312.72 -392.965 334.529 -368.201 357.712C-354.896 370.136 -339.346 382.032 -320.708 394.033C-299.825 407.489 -275.59 420.706 -246.603 434.505C-226.09 444.259 -203.017 450.974 -178.042 454.463C-154.256 457.767 -129.387 458.085 -104.122 455.388C-53.9886 450.022 -6.38947 433.236 29.8842 408.123C68.2169 381.583 101.402 349.729 131.339 310.791C158.267 275.765 182.503 235.372 207.635 183.64C221.759 154.588 233.798 133.255 245.546 116.549C260.33 95.5066 274.454 82.025 288.736 75.4163C293.911 73.0107 298.821 70.6316 303.573 68.3318C317.882 61.4059 331.372 54.8501 347.503 50.039C385.387 38.7514 432.537 65.424 473.668 93.0218C489.376 103.569 505.375 114.778 520.871 125.616C583.492 169.471 648.278 214.806 718.634 235.452C740.097 241.743 760.768 244.043 781.835 242.431C800.658 241.003 819.402 236.456 839.15 228.552C875.899 213.855 909.638 190.169 945.331 165.109C968.8 148.64 993.088 131.59 1018.41 117.236C1071.44 87.2062 1128.34 68.0939 1178.55 51.255C1209.01 41.0248 1237.79 31.3761 1263.19 20.2471C1307.04 1.05554 1364.3 8.53656 1419.69 15.7532C1446.3 19.2162 1471.4 22.5205 1494.74 22.8906V22.2033C1471.43 21.8068 1446.32 18.5289 1419.77 15.066C1390.51 11.2594 1360.76 7.37344 1332.7 7.37344Z" fill="url(#paint10_linear_1308_2193)" fill-opacity="0.1"/>
<path d="M1298.83 1.84872C1281.67 1.84872 1265.54 3.96347 1251.07 9.22397C1230.42 16.705 1207.61 23.3929 1183.46 30.451C1127.28 46.8934 1063.63 65.5034 1004.94 101.243C978.199 117.527 952.828 137.326 928.276 156.492C859.61 210.101 794.772 260.723 705.83 235.161C634.392 214.648 568.999 167.039 505.745 121.016C491.832 110.892 477.444 100.424 463.372 90.537C437.368 72.2707 416.724 60.005 398.402 51.9688C374.985 41.6857 355.37 38.2757 338.448 41.58C319.677 45.228 304.471 50.7264 286.862 57.0972C284.116 58.1017 281.292 59.1062 278.414 60.1371C263.155 65.5827 248.318 78.5092 233.006 99.6305C220.968 116.258 208.665 137.882 194.33 167.726C141.424 277.721 89.5748 346.345 20.9612 397.179C-53.2491 452.137 -167.957 465.09 -245.864 427.235C-360.519 371.537 -385.308 330.511 -411.55 287.079C-417.2 277.721 -423.06 268.046 -429.845 258.291C-452.972 225.037 -456.008 189.191 -459.202 151.257C-460.284 138.357 -461.42 125.008 -463.373 111.685L-464.086 111.79C-462.132 125.114 -460.997 138.437 -459.915 151.337C-456.694 189.376 -453.684 225.327 -430.426 258.741C-423.641 268.469 -417.807 278.144 -412.157 287.502C-399.512 308.412 -386.444 330.035 -362.525 352.848C-349.668 365.114 -334.726 376.772 -316.906 388.482C-296.921 401.62 -273.795 414.52 -246.18 427.949C-226.037 437.73 -203.518 444.339 -179.23 447.59C-156.156 450.683 -132.08 450.656 -107.633 447.564C-59.4532 441.457 -13.6228 423.772 21.41 397.814C58.4229 370.401 90.7101 337.437 120.172 297.045C145.807 261.913 169.567 220.939 194.99 168.096C209.325 138.304 221.601 116.707 233.613 100.106C248.82 79.1172 263.577 66.27 278.678 60.8773C281.556 59.8463 284.38 58.8418 287.126 57.8373C304.708 51.493 319.915 45.9946 338.606 42.3466C355.396 39.0687 374.853 42.4523 398.138 52.6826C416.407 60.7187 436.999 72.9579 462.977 91.1979C477.048 101.084 491.436 111.553 505.322 121.677C568.629 167.753 634.075 215.388 705.619 235.928C727.109 242.113 747.701 244.07 768.583 241.902C787.248 239.972 805.754 234.791 825.132 226.068C861.22 209.81 893.983 184.221 928.699 157.126C953.224 137.961 978.595 118.161 1005.31 101.93C1063.92 66.27 1127.54 47.66 1183.67 31.2176C1207.83 24.1596 1230.64 17.4716 1251.31 9.9906C1296.5 -6.3989 1357.91 7.90225 1417.28 21.754C1444.69 28.1512 1470.56 34.1783 1494.61 37.2447L1494.69 36.531C1470.69 33.4646 1444.82 27.4374 1417.44 21.0667C1376.94 11.5238 1335.5 1.84872 1298.83 1.84872Z" fill="url(#paint11_linear_1308_2193)" fill-opacity="0.1"/>
<path d="M1272.35 -5.39417C1260.55 -5.39417 1249.46 -4.09885 1239.24 -1.13815C1222.77 3.62009 1205.05 7.95538 1186.28 12.555C1124.85 27.5699 1055.21 44.5938 991.847 85.8583C964.048 103.966 937.859 126.515 912.568 148.323C857.049 196.17 804.037 241.823 736.744 241.823C722.778 241.823 708.205 239.867 692.867 235.558C620.293 215.15 554.294 165.215 490.458 116.893C478.077 107.508 465.273 97.8332 452.733 88.6339C427.283 69.9182 406.982 57.0974 388.792 48.2153C368.596 38.3552 351.198 33.5177 335.913 33.5177C333.774 33.5177 331.689 33.6234 329.629 33.8084C306.899 35.8968 288.472 40.3378 268.434 45.4926C252.304 49.6428 236.807 61.9349 221.046 83.0562C208.77 99.525 196.257 121.466 181.657 152.104C141.714 236.007 93.5607 322.501 12.4599 386.791C-49.9497 436.25 -158.559 463.768 -245.468 420.627C-354.368 366.568 -378.867 325.938 -404.792 282.929C-410.204 273.967 -415.801 264.689 -422.19 255.331C-445.316 221.495 -449.382 185.12 -453.711 146.632C-455.163 133.731 -456.668 120.382 -458.939 107.032L-459.704 107.165C-457.434 120.461 -455.929 133.811 -454.503 146.711C-450.174 185.306 -446.082 221.759 -422.85 255.754C-416.487 265.085 -410.891 274.364 -405.479 283.325C-392.384 305.028 -380.029 325.541 -356.955 347.958C-344.547 360.012 -330.238 371.432 -313.184 382.905C-294.097 395.725 -272.079 408.308 -245.838 421.341C-226.064 431.148 -204.073 437.651 -180.498 440.664C-158.137 443.519 -134.852 443.176 -111.224 439.66C-64.9977 432.787 -20.9361 414.23 12.9087 387.425C48.6015 359.14 80.0175 325.039 108.978 283.22C133.24 248.194 156.525 206.638 182.317 152.474C196.89 121.889 209.378 100.001 221.627 83.5585C237.282 62.5958 252.647 50.4094 268.593 46.2856C288.604 41.1309 307.005 36.6898 329.682 34.6015C346.314 33.0683 365.534 37.7737 388.422 48.9555C406.559 57.8111 426.834 70.6319 452.231 89.2948C464.745 98.4941 477.549 108.196 489.93 117.553C553.818 165.902 619.871 215.89 692.577 236.324C714.172 242.404 734.764 244.043 755.541 241.347C774.1 238.941 792.422 233.126 811.562 223.53C847.122 205.687 879.119 178.115 912.99 148.931C938.281 127.149 964.417 104.6 992.19 86.5192C1055.44 45.334 1125.01 28.31 1186.39 13.3216C1205.16 8.72195 1222.9 4.38666 1239.4 -0.371582C1285.86 -13.8268 1351.34 7.42667 1414.64 27.9928C1442.92 37.1656 1469.63 45.8362 1494.45 51.4668L1494.61 50.7266C1469.85 45.1225 1443.16 36.4519 1414.88 27.2791C1365.38 11.1275 1314.48 -5.39417 1272.35 -5.39417Z" fill="url(#paint12_linear_1308_2193)" fill-opacity="0.1"/>
<path d="M1249.72 -13.7742C1241.88 -13.7742 1234.41 -13.0604 1227.41 -11.5272C1214.77 -8.75159 1201.49 -6.18738 1187.42 -3.49103C1155.69 2.61536 1119.73 9.54123 1084.09 20.6174C1043.2 33.3324 1008.74 49.6426 978.753 70.4731C950.109 90.352 923.392 115.597 897.573 140.023C831.89 202.091 769.876 260.697 679.931 235.954C606.275 215.679 539.721 163.312 475.358 112.689C464.428 104.098 453.155 95.216 442.147 86.7569C423.614 72.5086 400.54 54.7974 379.13 42.611C359.066 31.2177 342.091 25.6135 327.544 25.6135C325.247 25.6135 323.03 25.7457 320.839 26.0365C310.833 27.3053 301.435 27.6754 292.353 28.0455C281.582 28.4684 270.467 28.8914 258.508 30.874C241.507 33.6761 225.35 45.3337 209.14 66.455C196.468 82.9767 184.086 104.574 169.065 136.48C121.941 236.456 75.8466 315.522 4.01215 376.428C-56.1006 427.42 -160.935 456.684 -244.993 414.018C-348.164 361.625 -372.373 321.365 -398.007 278.725C-403.155 270.161 -408.488 261.305 -414.454 252.37C-437.554 217.952 -442.702 181.049 -448.167 141.979C-449.962 129.079 -451.837 115.729 -454.397 102.406L-455.189 102.565C-452.629 115.835 -450.781 129.185 -448.959 142.085C-443.494 181.234 -438.32 218.243 -415.114 252.819C-409.148 261.728 -403.815 270.584 -398.667 279.122C-385.705 300.693 -373.481 321.047 -351.226 343.12C-339.267 354.963 -325.565 366.171 -309.303 377.38C-291.113 389.91 -270.178 402.122 -245.309 414.758C-225.905 424.618 -204.469 430.989 -181.58 433.765C-159.932 436.382 -137.413 435.694 -114.629 431.782C-70.3831 424.169 -28.0638 404.739 4.56656 377.062C38.9393 347.905 69.4841 312.694 97.9169 269.394C127.458 224.402 151.852 174.943 169.804 136.877C192.667 88.3694 221.126 37.9321 258.64 31.7199C270.52 29.7638 281.635 29.3144 292.379 28.8914C301.487 28.5478 310.886 28.1777 320.944 26.8824C356.875 22.3092 401.913 56.9121 441.645 87.4442C452.654 95.9033 463.953 104.785 474.856 113.377C539.272 164.052 605.879 216.472 679.694 236.8C701.447 242.774 722.092 244.122 742.843 240.897C761.375 238.016 779.565 231.513 798.494 221.045C833.658 201.589 864.969 172.009 898.101 140.684C923.92 116.284 950.61 91.0657 979.202 71.2133C1046.39 24.5561 1121.42 10.1228 1187.58 -2.61874C1201.65 -5.31509 1214.95 -7.87921 1227.6 -10.6549C1275.25 -21.0966 1344.76 7.18854 1412 34.5484C1441.2 46.444 1468.79 57.6787 1494.42 65.7413L1494.66 64.9747C1469.08 56.9121 1441.49 45.6774 1412.32 33.8082C1354.77 10.3078 1295.61 -13.7742 1249.72 -13.7742Z" fill="url(#paint13_linear_1308_2193)" fill-opacity="0.1"/>
<path d="M1229.5 -22.8941C1224.67 -22.8941 1220.02 -22.5768 1215.56 -21.8895C1206.51 -20.5149 1197.19 -19.246 1187.31 -17.8979C1153.68 -13.2718 1115.58 -8.06421 1077.52 2.48322C1033.72 14.6167 997.101 31.8257 965.58 55.0882C936.276 76.7118 909.216 104.627 883.001 131.59C818.532 198.02 757.627 260.75 666.89 236.324C592.178 216.208 525.122 161.356 460.31 108.301C450.833 100.529 441.012 92.4933 431.429 84.8272C395.657 56.0927 349.773 22.5735 312.021 18.2119C306.768 17.6039 301.62 16.7844 296.63 16.0178C280.236 13.4272 264.739 10.9952 248.371 16.2029C230.709 21.8334 213.681 34.2048 197.762 52.9999C183.321 70.0502 169.382 92.8634 156.341 120.805C115.711 207.881 69.8014 298.525 -4.54102 365.986C-62.3834 418.486 -163.416 449.546 -244.596 407.33C-342.039 356.681 -365.983 316.686 -391.327 274.364C-396.211 266.222 -401.227 257.816 -406.824 249.33C-429.898 214.304 -436.128 176.846 -442.728 137.221C-444.867 124.321 -447.111 110.998 -449.935 97.7273L-450.78 97.9124C-447.929 111.156 -445.711 124.479 -443.573 137.379C-436.947 177.111 -430.69 214.648 -407.537 249.806C-401.967 258.265 -396.924 266.671 -392.067 274.813C-379.236 296.252 -367.119 316.501 -345.682 338.23C-334.171 349.888 -321.077 360.884 -305.607 371.802C-288.315 384.015 -268.488 395.91 -244.992 408.097C-225.958 417.983 -205.075 424.275 -182.873 426.786C-161.964 429.165 -140.211 428.161 -118.272 423.825C-76.0058 415.472 -35.4026 395.144 -3.98666 366.621C29.0662 336.617 58.7134 300.27 86.6446 255.463C113.863 211.793 137.544 163.074 157.08 121.175C184.351 62.7278 215.16 27.7019 248.582 17.0223C264.739 11.8675 280.13 14.2996 296.445 16.8637C301.435 17.6567 306.609 18.4762 311.863 19.0842C349.404 23.393 395.155 56.8593 430.821 85.5145C440.378 93.207 450.199 101.243 459.677 108.988C524.568 162.096 591.677 217.001 666.574 237.17C688.512 243.092 709.262 244.123 730.013 240.342C748.546 236.985 766.656 229.821 785.426 218.454C820.274 197.333 851.004 165.717 883.502 132.225C909.665 105.261 936.725 77.3991 965.976 55.8019C1036.62 3.64636 1120.18 -7.7999 1187.31 -17.0256C1197.19 -18.3737 1206.51 -19.669 1215.59 -21.0172C1264.4 -28.3925 1337.9 7.00357 1409.02 41.2365C1439.2 55.7755 1467.71 69.4951 1494.16 79.9633L1494.48 79.1702C1468.05 68.7021 1439.57 54.9825 1409.39 40.4698C1344.74 9.25052 1277.97 -22.8941 1229.5 -22.8941Z" fill="url(#paint14_linear_1308_2193)" fill-opacity="0.1"/>
<path d="M1210.94 -32.5959C1208.49 -32.5959 1206.08 -32.4901 1203.76 -32.3051C1198.11 -31.8293 1192.41 -31.3799 1186.36 -30.9041C1115.08 -25.2206 1026.35 -18.1625 952.458 39.6501C922.653 62.9655 895.355 93.4975 868.929 123.025C805.516 193.896 745.614 260.829 653.953 236.668C578.185 216.709 510.707 159.267 445.473 103.754C437.368 96.8547 428.999 89.7173 420.815 82.8708C385.729 53.4225 340.638 18.5552 303.256 10.3869C297.817 9.19736 292.485 7.7699 287.337 6.42172C275.272 3.22311 263.682 0.130249 251.697 0.130249C247.341 0.130249 242.932 0.526733 238.444 1.47839C228.781 3.51385 219.357 7.61127 210.381 13.6119C201.906 19.269 193.564 26.8557 185.565 36.1078C171.124 52.8674 157.449 75.4162 143.747 105.102C98.6823 202.593 55.7822 288.744 -12.9897 355.518C-66.8722 407.859 -162.176 444.285 -244.122 400.615C-335.862 351.791 -359.543 312.033 -384.623 269.949C-389.216 262.256 -393.942 254.3 -399.09 246.316C-422.111 210.656 -429.45 172.669 -437.238 132.436C-439.719 119.562 -442.307 106.265 -445.422 93.0481L-446.293 93.2596C-443.178 106.45 -440.617 119.747 -438.109 132.621C-430.321 172.934 -422.955 211 -399.829 246.819C-394.681 254.802 -389.955 262.732 -385.362 270.425C-360.203 312.641 -336.469 352.504 -244.518 401.488C-208.165 420.838 -165.714 425.834 -121.731 415.921C-81.445 406.828 -42.5842 385.627 -12.3298 356.232C4.51343 339.869 20.0894 322.157 35.2958 302.067C49.103 283.827 62.2766 264.027 75.5558 241.584C101.428 197.835 123.841 150.411 144.565 105.552C173.658 42.6372 203.543 9.85818 238.655 2.43005C255.34 -1.11218 270.784 3.01166 287.125 7.34692C292.3 8.72153 297.633 10.1225 303.097 11.3385C340.295 19.4804 385.254 54.242 420.261 83.6373C428.418 90.4839 436.813 97.6213 444.892 104.521C477.126 131.96 510.443 160.324 545.08 184.195C584.178 211.185 619.713 228.658 653.742 237.619C675.918 243.461 696.801 244.202 717.604 239.893C736.163 236.033 754.247 228.209 772.859 215.943C807.469 193.156 839.07 157.866 869.615 123.739C896.015 94.2377 923.313 63.7585 953.039 40.4695C1026.72 -17.2109 1115.29 -24.2425 1186.47 -29.8996C1192.51 -30.3754 1198.19 -30.8248 1203.87 -31.3006C1253.79 -35.5302 1331.3 7.00327 1406.25 48.162C1437.43 65.2917 1466.89 81.4433 1494.21 94.2641L1494.58 93.4446C1467.28 80.6502 1437.85 64.4722 1406.67 47.369C1335.05 7.98132 1261.15 -32.5959 1210.94 -32.5959Z" fill="url(#paint15_linear_1308_2193)" fill-opacity="0.1"/>
<path d="M1193.57 -42.6938C1193.02 -42.6938 1192.49 -42.6939 1191.93 -42.6674C1189.56 -42.6146 1187.18 -42.5617 1184.75 -42.5353C1147.74 -41.7951 1105.82 -40.9756 1063.23 -32.3843C1013.92 -22.4449 973.367 -3.88779 939.338 24.2916C909.162 49.2723 881.707 82.395 855.175 114.407C792.712 189.773 733.708 260.961 640.965 237.064C564.167 217.265 496.319 157.179 430.689 99.0753C423.957 93.101 416.961 86.9153 410.176 80.9675C375.698 50.7263 331.372 14.5107 294.465 2.61514C288.974 0.844025 283.615 -1.13858 278.414 -3.06833C263.973 -8.43454 250.219 -13.5364 235.382 -13.5364C233.111 -13.5364 230.815 -13.4043 228.491 -13.1664C208.507 -10.9723 190.475 -0.398376 173.368 19.1633C159.112 35.4734 145.279 58.4716 131.102 89.4795C87.5153 184.697 46.3578 274.601 -21.4638 345.156C-73.2079 398.95 -164.789 437.175 -243.699 394.033C-329.684 347.006 -353.153 307.38 -377.996 265.455C-382.273 258.265 -386.681 250.81 -391.407 243.329C-414.401 207.008 -422.876 168.44 -431.825 127.625C-434.624 114.804 -437.554 101.56 -440.933 88.3956L-441.831 88.6335C-438.452 101.772 -435.548 115.015 -432.723 127.81C-423.747 168.731 -415.273 207.378 -392.199 243.832C-387.473 251.286 -383.065 258.741 -378.788 265.931C-353.866 307.988 -330.344 347.693 -244.121 394.853C-208.64 414.256 -167.535 418.803 -125.321 407.991C-87.0151 398.184 -49.8966 376.111 -20.8038 345.843C-4.54144 328.925 10.5594 310.579 25.3434 289.801C38.5962 271.139 51.3738 250.81 64.3626 227.706C88.9146 183.983 110.8 136.163 131.973 89.9289C146.123 59.0003 159.904 36.0814 174.107 19.8505C191.03 0.473907 208.876 -9.99417 228.623 -12.1618C245.942 -14.0651 261.571 -8.27594 278.123 -2.1431C283.324 -0.213379 288.71 1.79568 294.227 3.5668C330.976 15.4095 375.196 51.5457 409.595 81.7341C416.38 87.6819 423.376 93.8676 430.108 99.8419C462.475 128.497 495.923 158.104 530.851 183.005C570.345 211.158 606.302 229.16 640.78 238.042C663.22 243.832 684.287 244.254 705.143 239.391C723.755 235.029 741.813 226.517 760.346 213.326C794.771 188.847 825.844 151.337 855.914 115.068C882.419 83.0823 909.849 50.0125 939.945 25.0846C1016.37 -38.1736 1109.75 -40.024 1184.78 -41.5308C1187.21 -41.5836 1189.58 -41.6365 1191.96 -41.6629C1192.49 -41.6629 1193.04 -41.6893 1193.57 -41.6893C1244.65 -41.6893 1325.28 7.53201 1403.24 55.1408C1435.45 74.8082 1465.83 93.3654 1494.05 108.486L1494.5 107.667C1466.31 92.5723 1435.92 74.0152 1403.74 54.3478C1325.65 6.60678 1244.92 -42.6938 1193.57 -42.6938Z" fill="url(#paint16_linear_1308_2193)" fill-opacity="0.1"/>
<path d="M1129.42 -54.3779C1105.53 -54.3779 1079.94 -53.1356 1054.23 -48.8796C1002.91 -40.394 961.012 -21.4668 926.217 8.93311C895.751 35.5528 868.268 71.2131 841.684 105.684C812.089 144.067 781.492 183.772 747.33 209.889C709.156 239.073 670.136 248.087 628.002 237.461C550.175 217.846 481.984 155.011 416.01 94.2377C410.598 89.2416 405.001 84.0868 399.536 79.0907C376.252 57.7843 357.587 41.8706 340.823 29.0498C319.624 12.8454 301.592 1.66351 285.673 -5.13022C284.116 -5.79108 282.558 -6.45193 281 -7.11279C260.197 -16.0213 240.529 -24.4275 218.591 -27.7582C215.977 -28.1548 213.364 -28.3662 210.803 -28.3662C193.432 -28.3662 177.196 -19.2198 161.408 -0.583374C143.826 20.1414 129.2 50.0919 118.429 73.8831C115.842 79.5665 113.281 85.2235 110.747 90.8805C69.9324 181.128 31.3884 266.407 -29.9917 334.793C-81.2077 391.866 -167.034 430.275 -243.277 387.398C-323.56 342.248 -346.818 302.701 -371.476 260.829C-375.409 254.167 -379.475 247.242 -383.752 240.342C-406.72 203.36 -416.329 164.184 -426.467 122.708C-429.582 109.966 -432.803 96.8019 -436.446 83.7432L-437.396 84.0075C-433.753 97.0398 -430.532 110.204 -427.417 122.946C-417.253 164.501 -407.617 203.73 -384.57 240.844C-380.293 247.744 -376.228 254.643 -372.294 261.305C-347.584 303.31 -324.246 342.961 -243.752 388.244C-209.116 407.726 -169.41 411.824 -128.939 400.087C-92.6389 389.566 -57.2365 366.621 -29.2788 335.428C32.2068 266.909 70.7772 181.604 111.618 91.2506C114.179 85.5936 116.74 79.9366 119.3 74.2531C130.045 50.5412 144.644 20.67 162.148 0.0245667C180.047 -21.0967 198.448 -29.873 218.432 -26.833C240.239 -23.5023 259.828 -15.1225 280.604 -6.24045C282.162 -5.57959 283.693 -4.9187 285.277 -4.25784C321.155 11.0478 362.84 46.8139 398.85 79.778C404.315 84.7741 409.912 89.9289 415.324 94.925C447.769 124.823 481.324 155.751 516.541 181.657C556.432 211.026 592.784 229.557 627.712 238.36C639.222 241.267 650.627 242.721 661.609 242.748C661.636 242.748 661.662 242.748 661.688 242.748C672.143 242.748 682.571 241.426 692.682 238.809C711.373 233.945 729.457 224.746 747.911 210.63C782.178 184.433 812.828 144.675 842.449 106.239C869.008 71.7947 896.464 36.1608 926.85 9.62036C1005.76 -59.2948 1106.5 -55.1446 1180.05 -52.1046C1232.11 -49.9634 1317.57 7.02975 1400.23 62.1725C1433.47 84.3247 1464.83 105.261 1493.95 122.629L1494.45 121.783C1465.38 104.415 1433.99 83.5053 1400.78 61.353C1318.02 6.15744 1232.43 -50.915 1180.11 -53.0827C1164.61 -53.6907 1147.5 -54.3779 1129.42 -54.3779Z" fill="url(#paint17_linear_1308_2193)" fill-opacity="0.1"/>
<path d="M1093.2 -68.018C1076.09 -68.018 1058.59 -67.0664 1041.06 -64.5815C1017.14 -61.1979 994.883 -55.1179 974.925 -46.5266C952.168 -36.7194 931.365 -23.2378 913.096 -6.45175C882.419 21.7541 854.963 59.9257 828.431 96.8549C799.259 137.432 769.057 179.384 735.028 207.246C696.985 238.36 657.729 248.378 615.04 237.857C536.183 218.428 467.675 152.711 401.437 89.1889C397.24 85.1708 393.069 81.1528 388.924 77.1876C353.231 43.0869 311.994 5.73471 276.909 -12.8753C274.929 -13.9327 272.975 -14.9637 271.021 -16.0211C250.271 -27.0972 230.656 -37.5389 208.665 -42.4029C197.682 -44.8349 186.937 -43.6982 176.721 -39.0192C167.375 -34.7368 158.505 -27.6787 149.581 -17.3957C131.577 3.3291 116.74 33.914 105.81 58.2603C100.689 69.6537 95.5934 81.1792 90.6302 92.3082C52.8254 177.507 17.1326 257.974 -38.4658 324.431C-83.8738 378.728 -164.658 426.072 -242.802 380.79C-317.382 337.595 -340.482 297.996 -364.955 256.045C-368.519 249.965 -372.188 243.647 -376.016 237.382C-398.984 199.633 -409.755 159.822 -421.134 117.685C-424.539 105.05 -428.077 91.991 -431.931 79.0909L-432.908 79.3817C-429.054 92.2818 -425.516 105.34 -422.111 117.95C-410.706 160.166 -399.935 200.029 -376.887 237.884C-373.059 244.175 -369.39 250.467 -365.852 256.547C-341.3 298.604 -318.121 338.309 -243.33 381.662C-225.827 391.787 -207.135 397.708 -187.758 399.241C-169.727 400.669 -151.141 398.316 -132.529 392.236C-98.2354 381.028 -64.549 357.184 -37.7002 325.092C17.9774 258.529 53.723 178.009 91.5542 92.7311C96.491 81.6021 101.613 70.0767 106.734 58.6833C117.637 34.4163 132.448 3.91071 150.347 -16.7083C168.721 -37.8825 187.729 -45.9451 208.427 -41.3719C230.26 -36.5344 249.822 -26.1191 270.52 -15.0959C272.473 -14.0649 274.427 -13.0075 276.407 -11.9501C311.387 6.60703 352.545 43.9063 388.185 77.9542C392.329 81.9194 396.501 85.911 400.698 89.9291C433.223 121.122 466.857 153.372 502.338 180.389C542.598 211.026 579.373 230.139 614.749 238.862C626.418 241.743 637.955 243.118 649.043 242.959C659.629 242.801 670.163 241.268 680.353 238.36C699.15 232.994 717.234 223.081 735.635 208.039C769.797 180.124 799.998 138.093 829.223 97.463C855.755 60.5866 883.158 22.4678 913.756 -5.68509C988.309 -74.2831 1084.17 -70.8994 1168.17 -62.3611C1221.26 -56.9684 1310.71 7.32074 1397.19 69.4686C1431.46 94.1057 1463.83 117.342 1493.82 136.956L1494.37 136.084C1464.38 116.496 1432.04 93.2334 1397.77 68.6227C1311.18 6.39554 1221.63 -57.9729 1168.25 -63.392C1145.13 -65.7711 1119.62 -68.018 1093.2 -68.018Z" fill="url(#paint18_linear_1308_2193)" fill-opacity="0.1"/>
<path d="M1065.24 -82.3723C1052.83 -82.3723 1040.32 -81.7643 1027.86 -80.2839C1003.86 -77.4554 981.526 -71.6398 961.488 -62.9957C938.758 -53.1884 918.06 -39.3367 899.976 -21.8369C869.167 7.95493 841.791 48.6115 815.338 87.9198C786.536 130.718 756.73 174.969 722.78 204.55C684.816 237.646 645.322 248.643 602.052 238.227C522.139 218.983 450.279 147.213 386.866 83.8753C383.988 80.9939 381.111 78.139 378.26 75.284C343.491 40.6282 303.442 1.79565 268.092 -20.6474C266.06 -21.9427 264.027 -23.2379 262.02 -24.5068C240.979 -37.9356 221.127 -50.6242 198.687 -57.0214C187.308 -60.2729 176.22 -59.7442 165.687 -55.409C156.183 -51.5231 146.784 -44.3857 137.756 -34.2084C119.302 -13.4307 104.227 17.7886 93.1659 42.6372C85.7739 59.2382 78.5139 76.0242 71.4651 92.2816C36.4587 173.066 3.40591 249.383 -46.9389 314.042C-90.3669 369.687 -167.587 418.855 -242.378 374.102C-311.282 332.89 -334.276 293.106 -358.644 250.969C-361.785 245.55 -365.032 239.919 -368.359 234.341C-391.3 195.853 -403.26 155.355 -415.905 112.478C-419.575 100.027 -423.376 87.1268 -427.468 74.4117L-428.472 74.7289C-424.406 87.444 -420.604 100.318 -416.935 112.768C-404.263 155.698 -392.304 196.249 -369.283 234.87C-365.956 240.448 -362.709 246.052 -359.568 251.498C-335.148 293.74 -312.074 333.656 -242.932 375C-225.852 385.231 -207.715 391.073 -189.024 392.341C-171.705 393.531 -153.912 390.835 -136.144 384.305C-119.565 378.199 -103.171 368.867 -87.4893 356.522C-72.5732 344.785 -58.6605 330.696 -46.1469 314.65C-23.1789 285.149 -2.42847 251.683 19.0875 209.308C38.0955 171.903 54.7539 133.414 72.4155 92.6516C79.4643 76.3943 86.7243 59.6083 94.1163 43.0073C105.151 18.2116 120.173 -12.902 138.521 -33.5739C157.397 -54.8274 176.959 -62.1762 198.37 -56.0698C220.651 -49.6991 240.451 -37.0633 261.413 -23.6873C263.419 -22.3921 265.452 -21.0967 267.485 -19.8279C302.755 2.56229 342.752 41.3419 377.468 75.9713C380.319 78.8263 383.196 81.6812 386.074 84.5626C418.625 117.077 452.312 150.702 488.084 178.855C528.713 210.815 565.884 230.561 601.762 239.179C613.589 242.034 625.258 243.303 636.478 242.986C647.17 242.695 657.783 240.924 668.052 237.752C686.955 231.883 705.092 221.256 723.44 205.263C757.496 175.577 787.328 131.273 816.183 88.4221C842.609 49.1666 869.96 8.56296 900.689 -21.1496C972.893 -90.9636 1066.22 -87.2363 1156.29 -72.803C1210.41 -64.1324 1303.84 7.4527 1394.16 76.6851C1429.45 103.754 1462.82 129.29 1493.71 151.099L1494.32 150.226C1463.43 128.444 1430.09 102.882 1394.79 75.8392C1304.35 6.52747 1210.84 -65.1369 1156.43 -73.8604C1128.71 -78.2221 1097.34 -82.3723 1065.24 -82.3723Z" fill="url(#paint19_linear_1308_2193)" fill-opacity="0.1"/>
<path d="M1041.29 -97.2017C1032.45 -97.2017 1023.55 -96.8316 1014.68 -95.9857C990.58 -93.7123 968.167 -88.161 948.076 -79.4641C925.372 -69.6303 904.78 -55.4085 886.828 -37.2214C855.94 -5.89636 828.722 37.1921 802.375 78.8796C773.916 123.898 744.506 170.449 710.608 201.827C672.698 236.906 632.94 248.934 589.063 238.624C508.094 219.565 435.996 144.543 372.372 78.3509L367.593 73.3812C329.524 33.8085 292.564 -3.78159 259.274 -28.4187C257.4 -29.7933 255.525 -31.1943 253.677 -32.5689C232.161 -48.5355 211.86 -63.6297 188.707 -71.6658C176.959 -75.7368 165.528 -75.816 154.651 -71.8509C144.857 -68.2822 135.194 -61.3034 125.928 -51.0732C106.972 -30.2162 91.6868 1.61105 80.4933 26.9883C71.0685 48.374 61.9077 70.1297 53.0637 91.1717C20.6973 168.07 -9.87393 240.713 -55.4667 303.654C-98.8419 363.502 -170.597 411.718 -241.93 367.493C-305.184 328.291 -328.152 288.136 -352.44 245.629C-355.107 240.977 -357.852 236.139 -360.651 231.381C-383.619 192.02 -396.819 150.755 -410.784 107.085C-414.692 94.8726 -418.731 82.2368 -422.955 69.7861L-424.011 70.1561C-419.787 82.6069 -415.748 95.2426 -411.84 107.429C-397.848 151.152 -384.648 192.469 -361.628 231.936C-358.829 236.721 -356.084 241.532 -353.417 246.185C-329.05 288.824 -306.029 329.084 -242.511 368.445C-225.826 378.781 -208.27 384.544 -190.318 385.601C-173.712 386.579 -156.737 383.513 -139.815 376.507C-124.133 370.031 -108.61 360.224 -93.694 347.35C-79.6756 335.269 -66.5284 320.783 -54.5692 304.288C-34.0564 275.976 -14.5995 242.748 4.93646 202.673C22.4133 166.854 38.4909 128.603 54.0669 91.5947C62.9109 70.5527 72.0717 48.7969 81.4965 27.4113C92.6637 2.11334 107.87 -29.6083 126.72 -50.3331C146.097 -71.6658 166.24 -78.3009 188.311 -70.6348C211.305 -62.6516 231.554 -47.6103 252.991 -31.6966C254.865 -30.322 256.713 -28.9209 258.614 -27.5463C291.852 -2.9621 328.759 34.5751 366.801 74.1213L371.58 79.0911C404.157 112.98 437.844 148.033 473.906 177.402C514.905 210.762 552.499 231.143 588.825 239.682C600.811 242.51 612.664 243.7 623.99 243.224C634.788 242.774 645.506 240.792 655.828 237.329C674.863 230.958 693.026 219.591 711.374 202.647C745.377 171.189 774.84 124.559 803.325 79.4876C829.62 37.8794 856.838 -5.15619 887.62 -36.4284C960.854 -110.736 1058.53 -101.696 1144.41 -83.0591C1199.56 -71.0842 1296.95 7.84964 1391.15 84.1665C1427.5 113.641 1461.85 141.45 1493.63 165.427L1494.29 164.528C1462.51 140.578 1428.19 112.742 1391.83 83.2942C1297.56 6.87158 1200.06 -72.1416 1144.65 -84.143C1115.48 -90.4873 1078.91 -97.2017 1041.29 -97.2017Z" fill="url(#paint20_linear_1308_2193)" fill-opacity="0.1"/>
<path d="M1019.73 -112.323C968.009 -112.323 916.238 -97.8365 873.708 -52.6068C842.793 -19.7485 815.734 25.7455 789.571 69.7328C761.455 116.998 732.389 165.902 698.518 199.051C660.634 236.139 620.585 249.198 576.074 238.968C494.023 220.12 421.714 141.688 357.905 72.482L353.417 67.618C318.859 30.1337 283.114 -8.61957 250.457 -36.1909C248.873 -37.5127 247.315 -38.8344 245.758 -40.1825C223.661 -58.8983 202.778 -76.5831 178.728 -86.3375C171.547 -89.2453 164.71 -90.5934 158.189 -90.5934C118.351 -90.5934 90.3408 -40.1825 67.848 11.3122C56.5488 37.1918 45.7512 63.6793 35.3232 89.2945C5.43842 162.677 -22.7568 231.962 -63.9672 293.211C-80.5728 317.901 -107.95 350.865 -143.986 367.599C-177.514 383.169 -210.329 380.895 -241.481 360.805C-299.165 323.664 -322.159 282.928 -346.5 239.787C-348.612 236.06 -350.777 232.2 -352.968 228.367C-376.015 188.001 -390.509 145.865 -405.847 101.269C-409.913 89.4266 -414.137 77.1874 -418.466 65.1068L-419.549 65.5033C-415.219 77.5575 -410.995 89.7968 -406.93 101.639C-391.565 146.314 -377.071 188.477 -353.971 228.949C-351.806 232.755 -349.615 236.615 -347.503 240.342C-323.083 283.616 -300.01 324.484 -242.114 361.809C-225.852 372.278 -208.877 378.014 -191.638 378.807C-175.771 379.547 -159.562 376.137 -143.484 368.682C-128.7 361.809 -114.022 351.526 -99.8976 338.15C-86.7768 325.726 -74.3688 310.817 -62.964 293.899C-44.4312 266.354 -26.7168 234.262 -8.76483 195.8C7.25998 161.435 22.0968 125.008 36.432 89.7703C46.86 64.1551 57.6576 37.6676 68.9304 11.8145C94.8815 -47.6107 128.172 -105.582 178.332 -85.2272C202.224 -75.5257 223.027 -57.9202 245.045 -39.2573C246.602 -37.9356 248.186 -36.5874 249.744 -35.2657C282.348 -7.74722 318.067 30.9796 352.598 68.4375L357.086 73.3015C389.664 108.618 423.324 145.151 459.65 175.762C501.019 210.63 539.035 231.672 575.837 240.131C588.007 242.933 599.993 244.017 611.477 243.382C622.406 242.774 633.23 240.554 643.632 236.826C662.798 229.927 681.041 217.846 699.362 199.897C733.339 166.642 762.432 117.685 790.601 70.3408C816.737 26.4064 843.744 -19.0348 874.579 -51.7874C948.79 -130.695 1051.43 -115.468 1132.56 -93.369C1188.71 -78.0898 1290.09 8.21933 1388.14 91.7C1425.52 123.527 1460.84 153.61 1493.55 179.701L1494.27 178.802C1461.58 152.711 1426.26 122.655 1388.88 90.8277C1290.75 7.2677 1189.27 -79.1208 1132.85 -94.4794C1097.82 -104.049 1058.77 -112.323 1019.73 -112.323Z" fill="url(#paint21_linear_1308_2193)" fill-opacity="0.1"/>
<path d="M999.477 -127.576C995.755 -127.576 992.032 -127.496 988.31 -127.311C963.995 -126.148 941.423 -121.125 921.254 -112.349C898.576 -102.489 878.169 -87.5534 860.587 -67.9653C829.698 -33.6003 802.85 14.2465 776.899 60.5336C749.099 110.072 720.35 161.329 686.531 196.302C648.674 235.425 608.308 249.541 563.138 239.417C480.004 220.781 405.899 136.956 346.341 69.6007C341.061 63.6264 335.728 57.5729 330.554 51.678C300.986 18.0795 270.414 -16.6556 241.691 -43.9098C240.53 -45.0201 239.368 -46.1303 238.18 -47.2405C216.4 -67.9389 193.881 -89.351 168.775 -100.929C154.835 -107.353 141.266 -108.146 128.462 -103.229C114.232 -97.7836 100.821 -85.5708 87.4625 -65.9299C77.0609 -50.6242 66.8177 -31.0361 55.2281 -4.25778C42.1865 25.8777 29.9897 56.9649 18.1889 87.074C-8.1055 154.086 -35.2975 223.371 -72.4159 282.928C-102.459 331.119 -138.152 361.757 -172.921 369.185C-196.073 374.128 -218.962 369.105 -241.006 354.276C-293.225 319.038 -316.405 277.351 -340.93 233.205C-342.382 230.614 -343.834 227.997 -345.286 225.38C-368.492 183.825 -385.124 138.569 -401.201 94.8193C-405.346 83.5582 -409.623 71.9269 -413.979 60.4543L-415.088 60.8772C-410.732 72.3234 -406.455 83.9811 -402.337 95.2423C-386.233 139.045 -369.574 184.327 -346.342 225.962C-344.89 228.579 -343.438 231.169 -341.986 233.786C-329.605 256.071 -317.909 277.113 -302.439 297.6C-284.909 320.809 -265.611 339.129 -241.745 355.201C-219.438 370.242 -196.205 375.318 -172.736 370.295C-154.124 366.303 -135.459 356.02 -117.27 339.71C-101.06 325.145 -85.6423 306.244 -71.4655 283.51C-54.7807 256.732 -38.6767 225.75 -22.2559 188.795C-7.60388 155.804 6.04492 121.069 19.2185 87.4441C31.0193 57.3614 43.2161 26.2743 56.2577 -3.83481C73.2857 -43.196 96.9401 -89.959 128.831 -102.145C141.319 -106.93 154.571 -106.163 168.22 -99.872C193.168 -88.3729 215.608 -67.0401 237.309 -46.3946C238.471 -45.2844 239.632 -44.1742 240.82 -43.0639C269.49 -15.8362 298.689 17.3393 329.603 52.4445C334.778 58.313 340.137 64.393 345.391 70.3673C374.087 102.829 409.807 143.221 446.951 175.366C488.083 210.947 525.967 232.28 562.821 240.554C575.176 243.329 587.346 244.334 598.936 243.514C609.998 242.748 620.927 240.316 631.408 236.271C650.733 228.843 669.028 216.022 687.323 197.095C721.274 162.016 750.05 110.707 777.875 61.0887C803.8 14.8809 830.622 -32.913 861.431 -67.1723C935.8 -149.913 1039 -130.166 1120.6 -103.731C1177.76 -84.9893 1283.2 8.74808 1385.21 99.419C1423.59 133.52 1459.84 165.744 1493.39 193.949L1494.16 193.024C1460.61 164.845 1424.38 132.647 1386 98.5202C1283.91 7.76999 1178.36 -86.0466 1120.97 -104.868C1090.29 -114.834 1045.33 -127.576 999.477 -127.576Z" fill="url(#paint22_linear_1308_2193)" fill-opacity="0.1"/>
<path d="M980.522 -143.092C978.727 -143.092 976.932 -143.066 975.136 -143.04C950.69 -142.432 928.065 -137.647 907.869 -128.818C885.218 -118.931 864.89 -103.626 847.466 -83.3766C816.631 -47.5312 790.02 2.64188 764.28 51.1495C736.797 102.988 708.364 156.597 674.546 193.394C636.688 234.606 595.98 249.753 550.149 239.708C466.012 221.309 390.693 132.463 335.702 67.6183C326.488 56.7536 317.196 45.6511 308.22 34.8922C282.242 3.77856 257.69 -25.5903 232.874 -51.7342L230.815 -53.9019C208.348 -77.5874 185.116 -102.092 158.796 -115.627C144.249 -123.108 130.099 -124.456 116.74 -119.618C102.247 -114.384 88.5981 -102.198 75.0548 -82.3456C64.4156 -66.7755 54.0932 -46.976 42.5564 -19.9862C27.6932 14.5374 14.0972 50.5944 0.97641 85.4617C-23.0212 149.143 -47.8108 214.965 -80.9428 272.434C-101.693 308.438 -135.3 353.271 -177.54 362.55C-198.766 367.202 -219.965 362.153 -240.584 347.535C-287.47 314.333 -312.128 269.13 -335.967 225.38L-337.604 222.393C-361.126 179.252 -379.448 132.436 -397.136 87.1799C-401.148 76.8969 -405.32 66.2701 -409.491 55.802L-410.626 56.2514C-406.455 66.7195 -402.31 77.3462 -398.271 87.6029C-380.556 132.912 -362.235 179.754 -338.66 222.975L-337.023 225.962C-325.064 247.903 -312.708 270.584 -297.713 291.467C-280.896 314.888 -262.443 333.577 -241.296 348.566C-220.388 363.396 -198.845 368.524 -177.25 363.792C-159.298 359.854 -141.293 349.121 -123.737 331.859C-108.399 316.765 -93.6148 296.992 -79.834 273.095C-46.6492 215.52 -21.8332 149.645 2.16443 85.9375C15.2852 51.0966 28.8812 15.0662 43.718 -19.4575C55.2284 -46.368 65.498 -66.1147 76.0844 -81.6054C89.4956 -101.22 102.933 -113.274 117.189 -118.402C130.231 -123.108 144.038 -121.786 158.268 -114.464C184.404 -101.035 207.556 -76.6093 229.944 -53.0031L232.003 -50.8354C256.766 -24.718 281.318 4.65091 307.296 35.7381C316.272 46.497 325.564 57.626 334.778 68.4906C367.514 107.112 399.828 144.358 434.887 175.445C475.543 211.502 513.163 232.941 549.912 240.977C562.478 243.726 574.78 244.625 586.528 243.647C597.722 242.722 608.757 240.052 619.317 235.716C638.801 227.733 657.175 214.199 675.47 194.267C709.394 157.338 737.88 103.675 765.388 51.7575C791.076 3.30273 817.66 -46.8174 848.416 -82.5571C923.92 -170.294 1033.16 -142.59 1108.77 -114.094C1166.91 -92.0207 1276.39 9.17123 1382.25 107.032C1421.67 143.459 1458.89 177.877 1493.34 208.171L1494.16 207.246C1459.71 176.979 1422.48 142.561 1383.1 106.134C1277.15 8.19318 1167.59 -93.1045 1109.22 -115.23C1085.38 -124.218 1064.05 -130.8 1044.01 -135.347C1021.44 -140.502 1000.14 -143.092 980.522 -143.092Z" fill="url(#paint23_linear_1308_2193)" fill-opacity="0.1"/>
<path d="M962.49 -158.742C962.305 -158.742 962.147 -158.742 961.989 -158.742C937.437 -158.689 914.733 -154.142 894.484 -145.287C871.833 -135.374 851.61 -119.698 834.318 -98.7617C803.562 -61.4624 777.241 -9.01599 751.765 41.6857C724.573 95.7975 696.457 151.786 662.639 190.434C624.755 233.734 583.729 249.964 537.186 240.131C458.567 223.239 389.293 144.728 325.062 65.7677C312.311 50.0919 299.507 33.8875 287.152 18.2117C266.533 -7.93219 245.176 -34.9749 224.056 -59.4534L223.607 -59.9821C200.428 -86.8397 176.457 -114.622 148.816 -130.219C133.715 -138.731 119.01 -140.661 105.124 -135.929C90.3662 -130.906 76.5062 -118.72 62.7254 -98.6559C51.9014 -82.8744 41.4734 -62.837 29.9102 -35.5829C13.595 2.74744 -1.00424 43.1925 -15.1018 82.3158C-37.0666 143.274 -59.797 206.294 -89.4442 262.071C-102.776 287.158 -116.847 307.777 -131.209 323.294C-147.947 341.349 -165.054 352.425 -182.055 356.205C-201.433 360.514 -220.969 355.359 -240.135 340.926C-281.953 309.39 -307.429 261.596 -329.895 219.406C-354.183 173.806 -374.591 124.506 -394.338 76.8174C-397.823 68.4112 -401.413 59.7141 -405.003 51.1493L-406.191 51.6516C-402.627 60.2164 -399.011 68.9134 -395.526 77.3196C-375.779 125.034 -355.345 174.361 -331.031 220.014C-318.174 244.149 -306.399 265.799 -292.328 286.286C-276.145 309.892 -259.328 328.105 -240.927 341.957C-221.444 356.628 -201.565 361.862 -181.818 357.474C-164.552 353.641 -147.207 342.433 -130.311 324.193C-115.871 308.597 -101.747 287.898 -88.3618 262.706C-58.6618 206.849 -35.9314 143.776 -13.9402 82.7652C0.15741 43.6419 14.7302 3.2233 31.0454 -35.0805C42.5822 -62.2554 52.9574 -82.2401 63.755 -97.9158C77.351 -117.742 91.0262 -129.77 105.493 -134.686C119.037 -139.312 133.398 -137.409 148.156 -129.082C175.612 -113.592 199.504 -85.888 222.604 -59.1097L223.053 -58.581C244.146 -34.1289 265.477 -7.08624 286.096 19.0312C298.451 34.707 311.255 50.9114 324.006 66.6136C352.993 102.248 386.891 142.983 422.689 175.498C462.897 212.004 500.226 233.575 536.843 241.426C549.594 244.122 562.108 244.915 573.988 243.752C585.313 242.642 596.481 239.734 607.12 235.108C626.761 226.57 645.215 212.269 663.537 191.332C697.461 152.553 725.629 96.5112 752.848 42.3201C778.297 -8.32867 804.592 -60.6958 835.242 -97.8893C867.793 -137.383 909.822 -157.077 962.2 -157.077C1001.19 -157.077 1045.91 -146.159 1096.79 -124.377C1155.92 -98.9731 1269.39 9.69974 1379.13 114.804C1419.58 153.531 1457.78 190.116 1493.13 222.472L1494 221.521C1458.65 189.191 1420.48 152.606 1380.03 113.879C1270.21 8.69522 1156.64 -100.057 1097.29 -125.566C1045.33 -147.904 1001.19 -158.742 962.49 -158.742Z" fill="url(#paint24_linear_1308_2193)" fill-opacity="0.1"/>
<path d="M945.094 -174.471C921.862 -174.471 900.346 -170.188 881.1 -161.729C858.475 -151.79 838.306 -135.77 821.199 -114.12C790.575 -75.3935 764.491 -20.6738 739.306 32.222C712.404 88.6865 684.579 147.107 650.734 187.631C612.823 233.046 571.428 250.334 524.199 240.501C444.893 224.006 377.071 144.199 314.424 63.8379C298.716 43.6947 283.061 22.6262 267.96 2.27151C250.853 -20.7795 233.165 -44.5971 215.266 -67.2252C193.063 -95.2724 167.931 -127.1 138.864 -144.864C123.209 -154.433 107.95 -156.944 93.5091 -152.292C85.7475 -149.781 78.0123 -145.155 70.5675 -138.493C63.8091 -132.44 57.0243 -124.536 50.4243 -114.993C39.5475 -99.2375 28.6971 -78.3806 17.2659 -51.2322C-0.474915 -9.14822 -15.9453 35.87 -30.8877 79.4079C-50.8989 137.617 -71.5701 197.809 -97.9173 251.709C-110.88 278.197 -124.291 299.794 -137.781 315.84C-153.859 334.952 -170.28 346.477 -186.595 350.072C-204.204 353.958 -222.05 348.645 -239.685 334.317C-273.689 306.64 -300.115 258.952 -322.212 216.419C-348.559 165.691 -372.398 110.971 -395.472 58.0487C-397.161 54.1892 -398.825 50.3298 -400.514 46.4703L-401.729 46.999C-400.039 50.8585 -398.376 54.7179 -396.686 58.5774C-373.613 111.526 -349.773 166.246 -323.4 217.027C-301.25 259.666 -274.745 307.513 -240.557 335.348C-222.605 349.94 -204.362 355.333 -186.357 351.368C-169.752 347.72 -153.093 336.036 -136.831 316.685C-123.261 300.56 -109.797 278.884 -96.7821 252.291C-70.3821 198.311 -49.6845 138.066 -29.6733 79.8309C-14.7309 36.3194 0.739471 -8.67239 18.4539 -50.7035C34.3467 -88.4522 59.4795 -139.921 93.8787 -151.023C107.923 -155.543 122.813 -153.111 138.151 -143.727C167.007 -126.069 192.087 -94.3736 214.21 -66.4057C232.083 -43.804 249.771 -19.9865 266.878 3.06458C282.005 23.4457 297.634 44.5142 313.368 64.6574C341.431 100.635 374.405 141.847 410.626 175.524C450.384 212.533 487.45 234.183 523.935 241.77C536.897 244.466 549.543 245.153 561.581 243.832C573.039 242.563 584.311 239.443 595.083 234.527C614.883 225.459 633.415 210.392 651.737 188.451C685.688 147.794 713.54 89.3209 740.494 32.7772C765.679 -20.0657 791.71 -74.7062 822.228 -113.327C879.041 -185.177 964.973 -192.182 1084.99 -134.819C1145.13 -106.058 1262.63 10.1227 1376.26 122.496C1417.73 163.497 1456.88 202.223 1493.13 236.615L1494.03 235.663C1457.81 201.298 1418.66 162.571 1377.18 121.571C1263.48 9.11813 1145.89 -107.142 1085.57 -136.008C1033.06 -161.121 988.337 -173.704 948.843 -174.471C947.575 -174.471 946.335 -174.471 945.094 -174.471Z" fill="url(#paint25_linear_1308_2193)" fill-opacity="0.1"/>
<defs>
<linearGradient id="paint0_linear_1308_2193" x1="482.867" y1="534.115" x2="482.867" y2="-119.909" gradientUnits="userSpaceOnUse">
<stop stop-color="white"/>
<stop offset="1" stop-color="white" stop-opacity="0"/>
</linearGradient>
<linearGradient id="paint1_linear_1308_2193" x1="486.355" y1="526.101" x2="486.355" y2="-105.687" gradientUnits="userSpaceOnUse">
<stop stop-color="white"/>
<stop offset="1" stop-color="white" stop-opacity="0"/>
</linearGradient>
<linearGradient id="paint2_linear_1308_2193" x1="489.787" y1="518.207" x2="489.787" y2="-91.4659" gradientUnits="userSpaceOnUse">
<stop stop-color="white"/>
<stop offset="1" stop-color="white" stop-opacity="0"/>
</linearGradient>
<linearGradient id="paint3_linear_1308_2193" x1="493.191" y1="510.372" x2="493.191" y2="-77.2438" gradientUnits="userSpaceOnUse">
<stop stop-color="white"/>
<stop offset="1" stop-color="white" stop-opacity="0"/>
</linearGradient>
<linearGradient id="paint4_linear_1308_2193" x1="496.582" y1="502.618" x2="496.582" y2="-63.0483" gradientUnits="userSpaceOnUse">
<stop stop-color="white"/>
<stop offset="1" stop-color="white" stop-opacity="0"/>
</linearGradient>
<linearGradient id="paint5_linear_1308_2193" x1="499.843" y1="494.812" x2="499.843" y2="-48.8265" gradientUnits="userSpaceOnUse">
<stop stop-color="white"/>
<stop offset="1" stop-color="white" stop-opacity="0"/>
</linearGradient>
<linearGradient id="paint6_linear_1308_2193" x1="503.113" y1="487.179" x2="503.113" y2="-34.6311" gradientUnits="userSpaceOnUse">
<stop stop-color="white"/>
<stop offset="1" stop-color="white" stop-opacity="0"/>
</linearGradient>
<linearGradient id="paint7_linear_1308_2193" x1="506.221" y1="479.692" x2="506.221" y2="-20.4358" gradientUnits="userSpaceOnUse">
<stop stop-color="white"/>
<stop offset="1" stop-color="white" stop-opacity="0"/>
</linearGradient>
<linearGradient id="paint8_linear_1308_2193" x1="508.701" y1="472.125" x2="508.701" y2="-6.21405" gradientUnits="userSpaceOnUse">
<stop stop-color="white"/>
<stop offset="1" stop-color="white" stop-opacity="0"/>
</linearGradient>
<linearGradient id="paint9_linear_1308_2193" x1="510.905" y1="464.566" x2="510.905" y2="7.98157" gradientUnits="userSpaceOnUse">
<stop stop-color="white"/>
<stop offset="1" stop-color="white" stop-opacity="0"/>
</linearGradient>
<linearGradient id="paint10_linear_1308_2193" x1="513.097" y1="457.2" x2="513.097" y2="7.37347" gradientUnits="userSpaceOnUse">
<stop stop-color="white"/>
<stop offset="1" stop-color="white" stop-opacity="0"/>
</linearGradient>
<linearGradient id="paint11_linear_1308_2193" x1="515.301" y1="449.896" x2="515.301" y2="1.84869" gradientUnits="userSpaceOnUse">
<stop stop-color="white"/>
<stop offset="1" stop-color="white" stop-opacity="0"/>
</linearGradient>
<linearGradient id="paint12_linear_1308_2193" x1="517.452" y1="442.578" x2="517.452" y2="-5.3942" gradientUnits="userSpaceOnUse">
<stop stop-color="white"/>
<stop offset="1" stop-color="white" stop-opacity="0"/>
</linearGradient>
<linearGradient id="paint13_linear_1308_2193" x1="519.736" y1="435.324" x2="519.736" y2="-13.7742" gradientUnits="userSpaceOnUse">
<stop stop-color="white"/>
<stop offset="1" stop-color="white" stop-opacity="0"/>
</linearGradient>
<linearGradient id="paint14_linear_1308_2193" x1="521.849" y1="428.043" x2="521.849" y2="-22.894" gradientUnits="userSpaceOnUse">
<stop stop-color="white"/>
<stop offset="1" stop-color="white" stop-opacity="0"/>
</linearGradient>
<linearGradient id="paint15_linear_1308_2193" x1="524.145" y1="420.885" x2="524.145" y2="-32.5959" gradientUnits="userSpaceOnUse">
<stop stop-color="white"/>
<stop offset="1" stop-color="white" stop-opacity="0"/>
</linearGradient>
<linearGradient id="paint16_linear_1308_2193" x1="526.336" y1="413.721" x2="526.336" y2="-42.6938" gradientUnits="userSpaceOnUse">
<stop stop-color="white"/>
<stop offset="1" stop-color="white" stop-opacity="0"/>
</linearGradient>
<linearGradient id="paint17_linear_1308_2193" x1="528.527" y1="406.635" x2="528.527" y2="-54.378" gradientUnits="userSpaceOnUse">
<stop stop-color="white"/>
<stop offset="1" stop-color="white" stop-opacity="0"/>
</linearGradient>
<linearGradient id="paint18_linear_1308_2193" x1="530.731" y1="399.646" x2="530.731" y2="-68.0181" gradientUnits="userSpaceOnUse">
<stop stop-color="white"/>
<stop offset="1" stop-color="white" stop-opacity="0"/>
</linearGradient>
<linearGradient id="paint19_linear_1308_2193" x1="532.924" y1="392.615" x2="532.924" y2="-82.3723" gradientUnits="userSpaceOnUse">
<stop stop-color="white"/>
<stop offset="1" stop-color="white" stop-opacity="0"/>
</linearGradient>
<linearGradient id="paint20_linear_1308_2193" x1="535.141" y1="385.779" x2="535.141" y2="-97.2017" gradientUnits="userSpaceOnUse">
<stop stop-color="white"/>
<stop offset="1" stop-color="white" stop-opacity="0"/>
</linearGradient>
<linearGradient id="paint21_linear_1308_2193" x1="537.359" y1="378.906" x2="537.359" y2="-112.323" gradientUnits="userSpaceOnUse">
<stop stop-color="white"/>
<stop offset="1" stop-color="white" stop-opacity="0"/>
</linearGradient>
<linearGradient id="paint22_linear_1308_2193" x1="539.536" y1="372.171" x2="539.536" y2="-127.576" gradientUnits="userSpaceOnUse">
<stop stop-color="white"/>
<stop offset="1" stop-color="white" stop-opacity="0"/>
</linearGradient>
<linearGradient id="paint23_linear_1308_2193" x1="541.767" y1="365.498" x2="541.767" y2="-143.092" gradientUnits="userSpaceOnUse">
<stop stop-color="white"/>
<stop offset="1" stop-color="white" stop-opacity="0"/>
</linearGradient>
<linearGradient id="paint24_linear_1308_2193" x1="543.905" y1="358.977" x2="543.905" y2="-158.742" gradientUnits="userSpaceOnUse">
<stop stop-color="white"/>
<stop offset="1" stop-color="white" stop-opacity="0"/>
</linearGradient>
<linearGradient id="paint25_linear_1308_2193" x1="546.15" y1="352.629" x2="546.15" y2="-174.471" gradientUnits="userSpaceOnUse">
<stop stop-color="white"/>
<stop offset="1" stop-color="white" stop-opacity="0"/>
</linearGradient>
</defs>
</svg>
