<svg width="1036" height="1036" viewBox="0 0 1036 1036" fill="none" xmlns="http://www.w3.org/2000/svg">
<path opacity="0.7" d="M140.753 346.202C140.753 346.202 82.992 495.361 164.161 645.612C245.329 795.866 412.55 875.194 546.38 943.044C680.211 1010.89 819.182 977.851 885.223 866.716C951.264 755.58 860.68 676.241 860.572 517.753C860.467 359.266 884.29 317.304 798.489 183.407C712.687 49.5083 502.071 19.8746 342.856 119.183C183.644 218.492 140.753 346.202 140.753 346.202Z" fill="white"/>
<path d="M137.83 197.333C144.823 188.991 152.411 181.219 160.595 174.131C219.587 123.037 303.888 113.305 376.752 136.215C449.616 159.125 511.961 211.11 562.445 271.71C585.51 299.398 607.424 329.883 638.293 346.816C678.098 368.65 724.208 364.073 767.239 370.498C923.715 393.858 974.711 613.32 867.796 727.514C825.649 772.529 766.819 797.915 711.053 816.971C633.807 843.368 552.999 860.663 471.95 857.431C390.902 854.199 309.348 829.457 244.072 778.055C158.579 710.735 107.177 602.61 85.7813 491.505C74.953 435.277 71.1074 376.768 81.8486 320.522C90.4847 275.302 109.149 231.542 137.83 197.333Z" fill="#C1DEFF"/>
<path opacity="0.7" d="M767.239 370.498C724.206 364.075 678.098 368.65 638.293 346.816C607.424 329.883 585.51 299.396 562.445 271.71C511.959 211.108 449.614 159.125 376.752 136.215C303.888 113.305 219.585 123.037 160.595 174.131C152.411 181.219 144.823 188.993 137.83 197.333C109.149 231.544 90.4847 275.302 81.8486 320.524C71.1074 376.77 74.953 435.28 85.7813 491.507C107.177 602.612 158.579 710.737 244.072 778.057C309.35 829.457 390.902 854.201 471.95 857.433C552.999 860.665 633.807 843.37 711.053 816.973C766.819 797.915 825.649 772.531 867.796 727.517C974.713 613.32 923.715 393.858 767.239 370.498Z" fill="white"/>
<path d="M75.4688 916.537H963.068" stroke="#263238" stroke-miterlimit="10" stroke-linecap="round" stroke-linejoin="round"/>
<path d="M521.211 248.215V255.467" stroke="#C1DEFF" stroke-width="3" stroke-linejoin="round"/>
<path d="M521.211 271.388V295.272" stroke="#C1DEFF" stroke-width="3" stroke-linejoin="round" stroke-dasharray="7.68 7.68"/>
<path d="M521.213 303.235V310.487H513.961" stroke="#C1DEFF" stroke-width="3" stroke-linejoin="round"/>
<path d="M499.317 310.487H272.312" stroke="#C1DEFF" stroke-width="3" stroke-linejoin="round" stroke-dasharray="7.07 7.07"/>
<path d="M264.986 310.487H257.734V317.739" stroke="#C1DEFF" stroke-width="3" stroke-linejoin="round"/>
<path d="M257.734 329.632V347.472" stroke="#C1DEFF" stroke-width="3" stroke-linejoin="round" stroke-dasharray="5.74 5.74"/>
<path d="M257.734 353.419V360.671" stroke="#C1DEFF" stroke-width="3" stroke-linejoin="round"/>
<path d="M294.57 282.648H324.007" stroke="#263238" stroke-miterlimit="10" stroke-linecap="round" stroke-linejoin="round"/>
<path d="M301.033 211.879C292.069 216.147 285.874 225.289 285.874 235.876C285.874 238.895 286.402 241.786 287.329 244.49C286.846 244.453 286.365 244.417 285.874 244.417C275.317 244.417 266.758 252.977 266.758 263.534C266.758 274.09 275.315 282.65 285.874 282.65" stroke="#263238" stroke-miterlimit="10" stroke-linecap="round" stroke-linejoin="round"/>
<path d="M359.028 189.54C355.392 188.395 351.522 187.775 347.506 187.775C332.356 187.775 319.263 196.577 313.055 209.342C312.848 209.338 312.647 209.311 312.438 209.311" stroke="#263238" stroke-miterlimit="10" stroke-linecap="round" stroke-linejoin="round"/>
<path d="M390.205 220.703C388.593 220.703 387.008 220.828 385.462 221.066C384.156 211.066 378.997 202.279 371.523 196.247" stroke="#263238" stroke-miterlimit="10" stroke-linecap="round" stroke-linejoin="round"/>
<path d="M342.477 282.648H390.205C407.309 282.648 421.177 268.782 421.177 251.675" stroke="#263238" stroke-miterlimit="10" stroke-linecap="round" stroke-linejoin="round"/>
<path d="M665.844 284.359H685.814" stroke="#263238" stroke-miterlimit="10" stroke-linecap="round" stroke-linejoin="round"/>
<path d="M670.231 236.347C664.149 239.241 659.945 245.445 659.945 252.629C659.945 254.676 660.304 256.638 660.934 258.472C660.606 258.447 660.279 258.422 659.945 258.422C652.782 258.422 646.977 264.228 646.977 271.391C646.977 278.553 652.782 284.359 659.945 284.359" stroke="#263238" stroke-miterlimit="10" stroke-linecap="round" stroke-linejoin="round"/>
<path d="M709.575 221.192C707.109 220.415 704.482 219.995 701.759 219.995C691.48 219.995 682.598 225.966 678.387 234.627C678.246 234.623 678.11 234.606 677.969 234.606" stroke="#263238" stroke-miterlimit="10" stroke-linecap="round" stroke-linejoin="round"/>
<path d="M730.729 242.333C729.635 242.333 728.56 242.418 727.511 242.577C726.627 235.794 723.125 229.832 718.055 225.74" stroke="#263238" stroke-miterlimit="10" stroke-linecap="round" stroke-linejoin="round"/>
<path d="M698.344 284.359H730.725C742.33 284.359 751.737 274.952 751.737 263.347" stroke="#263238" stroke-miterlimit="10" stroke-linecap="round" stroke-linejoin="round"/>
<path d="M590.644 146.928C588.11 146.928 585.622 147.122 583.193 147.495C579.344 117.986 554.125 95.1939 523.565 95.1939C499.762 95.1939 479.194 109.022 469.441 129.079C469.115 129.071 468.798 129.03 468.471 129.03C445.42 129.03 426.735 147.715 426.735 170.766C426.735 175.509 427.563 180.049 429.02 184.298C428.264 184.24 427.505 184.182 426.735 184.182C410.148 184.182 396.703 197.627 396.703 214.214C396.703 230.8 410.148 244.245 426.735 244.245H590.644C617.518 244.245 639.305 222.46 639.305 195.584C639.305 168.708 617.52 146.928 590.644 146.928Z" fill="white" stroke="#263238" stroke-miterlimit="10"/>
<path d="M521.477 196.231V161.411" stroke="#263238" stroke-miterlimit="10" stroke-linecap="round" stroke-linejoin="round"/>
<path d="M540.797 173.257L521.476 153.937L502.156 173.257" stroke="#263238" stroke-miterlimit="10" stroke-linecap="round" stroke-linejoin="round"/>
<path d="M521.477 204.036V211.879" stroke="#263238" stroke-miterlimit="10" stroke-linecap="round" stroke-linejoin="round"/>
<path d="M521.477 221.066V227.064" stroke="#263238" stroke-miterlimit="10" stroke-linecap="round" stroke-linejoin="round"/>
<path d="M459.36 916.537H418.312C408.215 916.537 401.33 908.373 402.936 898.303L418.824 798.675C420.429 788.605 429.917 780.442 440.016 780.442H565.921" stroke="#263238" stroke-miterlimit="10" stroke-linecap="round" stroke-linejoin="round"/>
<path d="M436.414 752.799H473.294C475.591 752.799 477.651 754.208 478.484 756.35L482.874 767.641H560.989C569.037 767.641 575.868 772.839 578.313 780.06L582.695 780.444C592.792 780.444 599.677 788.607 598.071 798.677L582.183 898.305C580.578 908.375 571.09 916.539 560.991 916.539H483.138" stroke="#263238" stroke-miterlimit="10" stroke-linecap="round" stroke-linejoin="round"/>
<path d="M400.031 829.461V801.669V785.924C400.031 776.273 407.532 768.453 417.009 767.771L421.452 756.348C422.285 754.208 424.346 752.797 426.642 752.797" stroke="#263238" stroke-miterlimit="10" stroke-linecap="round" stroke-linejoin="round"/>
<path d="M418.315 916.537C408.218 916.537 400.031 908.35 400.031 898.253V857.818" stroke="#263238" stroke-miterlimit="10" stroke-linecap="round" stroke-linejoin="round"/>
<path d="M809.115 916.537C804.02 916.537 799.891 912.407 799.891 907.312V850.637C799.891 845.768 803.676 841.823 808.456 841.479L810.698 835.714C811.119 834.635 812.159 833.922 813.317 833.922H836.855C838.013 833.922 839.054 834.633 839.474 835.714L841.689 841.412H881.103C885.162 841.412 888.61 844.035 889.842 847.678" fill="#C1DEFF"/>
<mask id="mask0_1120_2913" style="mask-type:luminance" maskUnits="userSpaceOnUse" x="799" y="833" width="91" height="84">
<path d="M809.115 916.537C804.02 916.537 799.891 912.407 799.891 907.312V850.637C799.891 845.768 803.676 841.823 808.456 841.479L810.698 835.714C811.119 834.635 812.159 833.922 813.317 833.922H836.855C838.013 833.922 839.054 834.633 839.474 835.714L841.689 841.412H881.103C885.162 841.412 888.61 844.035 889.842 847.678" fill="white"/>
</mask>
<g mask="url(#mask0_1120_2913)">
<path opacity="0.3" d="M809.115 916.537C804.02 916.537 799.891 912.407 799.891 907.312V850.637C799.891 845.768 803.676 841.823 808.456 841.479L810.698 835.714C811.119 834.635 812.159 833.922 813.317 833.922H836.855C838.013 833.922 839.054 834.633 839.474 835.714L841.689 841.412H881.103C885.162 841.412 888.61 844.035 889.842 847.678" fill="black" fill-opacity="0.7"/>
</g>
<path d="M809.115 916.537C804.02 916.537 799.891 912.407 799.891 907.312V850.637C799.891 845.768 803.676 841.823 808.456 841.479L810.698 835.714C811.119 834.635 812.159 833.922 813.317 833.922H836.855C838.013 833.922 839.054 834.633 839.474 835.714L841.689 841.412H881.103C885.162 841.412 888.61 844.035 889.842 847.678" stroke="#263238" stroke-miterlimit="10" stroke-linecap="round" stroke-linejoin="round"/>
<path d="M809.117 916.537H881.102C886.198 916.537 890.984 912.418 891.794 907.337L899.811 857.07C900.621 851.99 897.148 847.871 892.053 847.871H820.068C814.973 847.871 810.186 851.99 809.376 857.07L801.359 907.337C800.549 912.418 804.022 916.537 809.117 916.537Z" fill="#C1DEFF" stroke="#263238" stroke-miterlimit="10" stroke-linecap="round" stroke-linejoin="round"/>
<path d="M389.717 916.537C384.622 916.537 380.492 912.407 380.492 907.312V850.637C380.492 845.768 384.276 841.823 389.058 841.479L391.3 835.714C391.72 834.635 392.761 833.922 393.919 833.922H417.457C418.615 833.922 419.655 834.633 420.076 835.714L422.291 841.412H461.702C465.763 841.412 469.209 844.035 470.442 847.678" fill="#C1DEFF"/>
<mask id="mask1_1120_2913" style="mask-type:luminance" maskUnits="userSpaceOnUse" x="380" y="833" width="91" height="84">
<path d="M389.717 916.537C384.622 916.537 380.492 912.407 380.492 907.312V850.637C380.492 845.768 384.276 841.823 389.058 841.479L391.3 835.714C391.72 834.635 392.761 833.922 393.919 833.922H417.457C418.615 833.922 419.655 834.633 420.076 835.714L422.291 841.412H461.702C465.763 841.412 469.209 844.035 470.442 847.678" fill="white"/>
</mask>
<g mask="url(#mask1_1120_2913)">
<path opacity="0.3" d="M389.717 916.537C384.622 916.537 380.492 912.407 380.492 907.312V850.637C380.492 845.768 384.276 841.823 389.058 841.479L391.3 835.714C391.72 834.635 392.761 833.922 393.919 833.922H417.457C418.615 833.922 419.655 834.633 420.076 835.714L422.291 841.412H461.702C465.763 841.412 469.209 844.035 470.442 847.678" fill="black" fill-opacity="0.7"/>
</g>
<path d="M389.717 916.537C384.622 916.537 380.492 912.407 380.492 907.312V850.637C380.492 845.768 384.276 841.823 389.058 841.479L391.3 835.714C391.72 834.635 392.761 833.922 393.919 833.922H417.457C418.615 833.922 419.655 834.633 420.076 835.714L422.291 841.412H461.702C465.763 841.412 469.209 844.035 470.442 847.678" stroke="#263238" stroke-miterlimit="10" stroke-linecap="round" stroke-linejoin="round"/>
<path d="M389.719 916.537H461.704C466.799 916.537 471.585 912.418 472.396 907.337L480.412 857.07C481.222 851.99 477.75 847.871 472.655 847.871H400.669C395.574 847.871 390.788 851.99 389.978 857.07L381.961 907.337C381.151 912.418 384.624 916.537 389.719 916.537Z" fill="#C1DEFF" stroke="#263238" stroke-miterlimit="10" stroke-linecap="round" stroke-linejoin="round"/>
<path d="M643.045 887.253C643.045 887.253 646.3 907.215 643.045 916.537H576.998C576.998 916.537 574.207 909.55 576.998 905.147C579.789 900.744 600.721 898.222 607.231 892.274C613.743 886.325 620.72 876.091 620.72 876.091L643.045 887.253Z" fill="#C1DEFF" stroke="#263238" stroke-miterlimit="10" stroke-linecap="round" stroke-linejoin="round"/>
<path d="M575.758 913.018H643.91L644.494 916.537H575.758V913.018Z" fill="white" stroke="#263238" stroke-miterlimit="10" stroke-linecap="round" stroke-linejoin="round"/>
<path d="M627.167 884.821C627.167 884.821 620.951 886.323 620.253 886.555C619.554 886.787 613.508 896.09 607.462 897.719C601.416 899.347 595.368 899.035 596.298 901.981" stroke="#263238" stroke-miterlimit="10" stroke-linecap="round" stroke-linejoin="round"/>
<path d="M613.406 884.821L620.486 890.044" stroke="#263238" stroke-miterlimit="10" stroke-linecap="round" stroke-linejoin="round"/>
<path d="M610.125 889.396L616.946 894.406" stroke="#263238" stroke-miterlimit="10" stroke-linecap="round" stroke-linejoin="round"/>
<path d="M605.766 893.401L611.687 899.113" stroke="#263238" stroke-miterlimit="10" stroke-linecap="round" stroke-linejoin="round"/>
<path d="M599.781 896.314L602.344 901.981" stroke="#263238" stroke-miterlimit="10" stroke-linecap="round" stroke-linejoin="round"/>
<path d="M644.108 896.314C644.108 896.314 633.275 894.994 621.415 899.148C609.555 903.301 605.463 906.935 605.765 908.025C606.068 909.115 607.462 912.357 607.462 912.357H613.405C613.405 912.357 611.258 908.562 611.685 908.025C612.112 907.488 632.382 899.579 644.108 900.976V896.314Z" fill="#263238"/>
<path d="M754.984 916.537C754.984 916.537 757.528 906.819 754.553 903.218C749.209 896.751 755.206 891.331 749.841 889.083L747.593 891.691C747.156 889.043 748.407 880.998 738.46 879.949C726.434 878.681 726.206 887.433 725.557 890.316L725.754 886.288C720.628 886.288 723.284 891.408 715.51 899.781C709.576 906.171 709.566 914.363 709.893 916.537H754.984Z" fill="#C1DEFF" stroke="#263238" stroke-miterlimit="10" stroke-linecap="round" stroke-linejoin="round"/>
<path d="M798.552 546.89C804.099 550.126 818.416 580.616 810.062 641.145C801.705 701.675 776.672 820.04 772.48 838.143C768.286 856.248 753.577 899.78 753.577 899.78C753.577 899.78 747.954 880.892 720.955 890.989C719.953 891.364 718.927 890.481 719.128 889.429L725.06 858.581C725.06 858.581 725.474 836.015 727.416 830.358C734.73 809.046 738.391 726.74 740.805 715.252C743.217 703.763 738.476 670.721 738.476 670.721C738.476 670.721 704.672 751.604 703.58 759.539C702.488 767.473 681.871 800.511 681.871 800.511L678.324 830.872C678.324 830.872 650.897 877.873 646.067 891.901L613.406 884.823L614.314 861.591L623.111 858.583L638.484 805.763C638.484 805.763 644.277 782.383 656.371 751.856C663.648 733.486 684.265 662.358 684.265 662.358C690.673 655.396 696.697 616.905 696.697 616.905L706.596 568.348L798.552 546.89Z" fill="#263238"/>
<path d="M661.425 418.536L594.282 469.092L551.089 400.94L534.93 403.033C534.93 403.033 567.097 490.94 584.89 499.692C602.682 508.444 669.771 459.853 669.771 459.853" fill="white"/>
<path d="M661.425 418.536L594.282 469.092L551.089 400.94L534.93 403.033C534.93 403.033 567.097 490.94 584.89 499.692C602.682 508.444 669.771 459.853 669.771 459.853" stroke="#263238" stroke-miterlimit="10" stroke-linecap="round" stroke-linejoin="round"/>
<path d="M676.174 408.439C676.174 408.439 656.745 415.214 643.704 426.509C630.662 437.803 609.891 454.665 609.891 454.665C609.891 454.665 621.649 482.679 635.188 494.24L664.134 482.629L676.174 408.439Z" fill="#C1DEFF"/>
<mask id="mask2_1120_2913" style="mask-type:luminance" maskUnits="userSpaceOnUse" x="609" y="408" width="68" height="87">
<path d="M676.174 408.439C676.174 408.439 656.745 415.214 643.704 426.509C630.662 437.803 609.891 454.665 609.891 454.665C609.891 454.665 621.649 482.679 635.188 494.24L664.134 482.629L676.174 408.439Z" fill="white"/>
</mask>
<g mask="url(#mask2_1120_2913)">
<path opacity="0.4" d="M635.009 494.081L645.616 484.653C638.273 482.194 637.419 467.234 641.518 471.537C645.616 475.841 652.584 477.275 652.584 477.275C647.255 462.52 649.406 448.449 649.406 448.449C649.406 448.449 652.949 458.337 654.977 468.278C656.332 474.913 661.272 479.357 663.296 481.715L676.174 408.439C676.174 408.439 656.745 415.214 643.704 426.509C630.662 437.803 609.891 454.665 609.891 454.665C609.891 454.665 621.548 482.426 635.009 494.081Z" fill="white"/>
</g>
<path d="M676.174 408.439C676.174 408.439 656.745 415.214 643.704 426.509C630.662 437.803 609.891 454.665 609.891 454.665C609.891 454.665 621.649 482.679 635.188 494.24L664.134 482.629L676.174 408.439Z" stroke="#263238" stroke-miterlimit="10" stroke-linecap="round" stroke-linejoin="round"/>
<path d="M664.133 482.629C675.419 510.276 693.081 544.822 693.081 544.822L700.888 583.34C700.888 583.34 730.23 605.702 763.868 596.328C803.328 585.334 809.699 560.401 809.699 560.401L794.685 530.245C789.553 501.281 782.844 432.764 759.733 417.125C736.622 401.485 696.972 400.149 680.97 406.485C666.735 412.123 658.857 416.406 654.977 421.615" fill="#C1DEFF"/>
<mask id="mask3_1120_2913" style="mask-type:luminance" maskUnits="userSpaceOnUse" x="654" y="402" width="156" height="197">
<path d="M664.133 482.629C675.419 510.276 693.081 544.822 693.081 544.822L700.888 583.34C700.888 583.34 730.23 605.702 763.868 596.328C803.328 585.334 809.699 560.401 809.699 560.401L794.685 530.245C789.553 501.281 782.844 432.764 759.733 417.125C736.622 401.485 696.972 400.149 680.97 406.485C666.735 412.123 658.857 416.406 654.977 421.615" fill="white"/>
</mask>
<g mask="url(#mask3_1120_2913)">
<path opacity="0.4" d="M787.096 569.705C751.521 581.188 755.456 572.976 763.585 558.632C770.938 545.655 765.731 530.513 765.853 526.429C764.248 529.574 758.202 538.774 750.709 542.375C741.045 547.02 744.452 548.525 752.93 532.4C761.409 516.278 763.585 497.974 763.585 497.974C754.091 488.549 746.613 465.541 746.613 465.541L777.749 446.497C773.166 433.181 767.343 422.28 759.733 417.129C736.622 401.489 696.972 400.153 680.97 406.489C666.735 412.127 658.857 416.41 654.977 421.619L664.133 482.631C675.419 510.278 693.081 544.824 693.081 544.824L700.888 583.343C700.888 583.343 730.23 605.704 763.868 596.33C803.328 585.336 809.699 560.403 809.699 560.403L809.127 559.253C802.6 563.393 795.236 567.075 787.096 569.705Z" fill="white"/>
</g>
<path d="M664.133 482.629C675.419 510.276 693.081 544.822 693.081 544.822L700.888 583.34C700.888 583.34 730.23 605.702 763.868 596.328C803.328 585.334 809.699 560.401 809.699 560.401L794.685 530.245C789.553 501.281 782.844 432.764 759.733 417.125C736.622 401.485 696.972 400.149 680.97 406.485C666.735 412.123 658.857 416.406 654.977 421.615" stroke="#263238" stroke-miterlimit="10" stroke-linecap="round" stroke-linejoin="round"/>
<path d="M718.382 411.831C718.382 411.831 709.721 427.909 694.326 426.418C681.521 425.154 681.894 414.835 681.894 414.835C681.894 414.835 684.67 412.722 685.748 408.971C686.079 407.852 686.245 406.568 686.141 405.18C685.934 401.989 684.318 398.093 679.884 393.639C679.822 393.576 679.739 393.494 679.677 393.431C678.723 392.478 677.957 391.504 677.418 390.531C670.353 378.036 695.009 364.03 713.616 374.369C713.616 374.369 699.195 385.496 718.382 411.831Z" fill="white" stroke="#263238" stroke-miterlimit="10" stroke-linecap="round" stroke-linejoin="round"/>
<path d="M691.196 390.013C691.196 390.013 690.844 399.689 686.14 405.18C685.933 401.989 684.317 398.093 679.883 393.639C682.369 390.904 686.12 389.163 691.196 390.013Z" fill="#263238"/>
<path d="M716.526 362.416C723.502 332.512 709.05 319.556 699.581 315.638C684.412 309.362 664.695 319.227 660.211 335.838C655.725 352.449 659.768 356.231 659.558 363.027C659.411 367.792 656.473 370.14 659.712 382.102C661.848 389.992 665.404 402.656 678.899 400.387C681.588 399.935 685.954 398.868 690.823 396.506" fill="white"/>
<path d="M716.526 362.416C723.502 332.512 709.05 319.556 699.581 315.638C684.412 309.362 664.695 319.227 660.211 335.838C655.725 352.449 659.768 356.231 659.558 363.027C659.411 367.792 656.473 370.14 659.712 382.102C661.848 389.992 665.404 402.656 678.899 400.387C681.588 399.935 685.954 398.868 690.823 396.506" stroke="#263238" stroke-miterlimit="10" stroke-linecap="round" stroke-linejoin="round"/>
<path d="M677.156 352.698C677.156 352.698 682.765 350.613 685.761 357.192" stroke="#263238" stroke-miterlimit="10" stroke-linecap="round" stroke-linejoin="round"/>
<path d="M658.086 349.209C658.086 349.209 663.946 347.949 666.438 352.192" stroke="#263238" stroke-miterlimit="10" stroke-linecap="round" stroke-linejoin="round"/>
<path d="M667.938 360.671C667.938 360.671 662.176 370.66 662.267 372.03C662.551 376.294 667.994 374.375 667.994 374.375" stroke="#263238" stroke-miterlimit="10" stroke-linecap="round" stroke-linejoin="round"/>
<path d="M678.273 362.049C678.273 363.439 678.897 364.564 679.664 364.564C680.432 364.564 681.054 363.437 681.054 362.049C681.054 360.659 680.43 359.533 679.664 359.533C678.897 359.531 678.273 360.659 678.273 362.049Z" fill="#263238" stroke="#263238" stroke-miterlimit="10" stroke-linecap="round" stroke-linejoin="round"/>
<path d="M662.266 360.671C662.266 362.061 662.889 363.186 663.656 363.186C664.425 363.186 665.046 362.059 665.046 360.671C665.046 359.281 664.425 358.154 663.656 358.154C662.887 358.156 662.266 359.281 662.266 360.671Z" fill="#263238" stroke="#263238" stroke-miterlimit="10" stroke-linecap="round" stroke-linejoin="round"/>
<path d="M678.267 378.474C678.267 378.474 672.154 381.865 666.438 380.384" stroke="#263238" stroke-miterlimit="10" stroke-linecap="round" stroke-linejoin="round"/>
<path d="M677.155 379.617C677.155 379.617 676.498 384.039 672.356 384.468C668.214 384.897 667.992 380.761 667.992 380.761" stroke="#263238" stroke-miterlimit="10" stroke-linecap="round" stroke-linejoin="round"/>
<path d="M716.567 324.251C716.567 324.251 715.662 308.22 685.761 308.794C655.859 309.368 647.128 332.477 662.264 338.743C677.4 345.009 686.801 342.267 686.801 342.267C686.801 342.267 681.213 340.614 676.173 334.978C676.173 334.978 686.633 341.111 695.53 342.864C695.53 342.864 692.117 347.331 695.53 354.786C698.943 362.242 697.273 365.43 697.273 365.43C697.273 365.43 710.96 369.322 708.673 383.993C708.673 383.993 721.268 383.755 726.359 354.786C731.45 325.818 716.567 324.251 716.567 324.251Z" fill="#263238"/>
<path d="M699.586 367.647C699.586 367.647 705.068 357.43 710.8 359.923C716.531 362.416 712.544 374.624 707.561 378.612C702.578 382.599 699.588 378.612 699.588 378.612" fill="white"/>
<path d="M699.586 367.647C699.586 367.647 705.068 357.43 710.8 359.923C716.531 362.416 712.544 374.624 707.561 378.612C702.578 382.599 699.588 378.612 699.588 378.612" stroke="#263238" stroke-miterlimit="10" stroke-linecap="round" stroke-linejoin="round"/>
<path d="M649.406 448.451C652.744 461.888 654.472 472.476 664.136 482.631" stroke="#263238" stroke-miterlimit="10" stroke-linecap="round" stroke-linejoin="round"/>
<path d="M647.312 437.751C647.586 439.842 647.963 441.918 648.39 443.984" stroke="#263238" stroke-miterlimit="10" stroke-linecap="round" stroke-linejoin="round"/>
<path d="M763.586 474.221C763.586 474.221 803.571 517.449 813.403 515.824C823.237 514.2 828.334 498.246 826.181 493.845C824.028 489.444 787.992 447.564 787.992 447.564L763.586 474.221Z" fill="white" stroke="#263238" stroke-miterlimit="10" stroke-linecap="round" stroke-linejoin="round"/>
<path d="M748.705 433.593C744.805 447.169 743.183 461.772 749.674 473.133C752.919 482.869 771.832 492.164 778.324 500.278C798.694 495.309 807.322 469.443 807.322 469.443C807.322 469.443 795.542 452.73 783.755 435.182C771.967 417.634 748.352 411.039 748.352 411.039" fill="#C1DEFF"/>
<mask id="mask4_1120_2913" style="mask-type:luminance" maskUnits="userSpaceOnUse" x="745" y="411" width="63" height="90">
<path d="M748.705 433.593C744.805 447.169 743.183 461.772 749.674 473.133C752.919 482.869 771.832 492.164 778.324 500.278C798.694 495.309 807.322 469.443 807.322 469.443C807.322 469.443 795.542 452.73 783.755 435.182C771.967 417.634 748.352 411.039 748.352 411.039" fill="white"/>
</mask>
<g mask="url(#mask4_1120_2913)">
<path opacity="0.4" d="M748.705 433.593C744.805 447.169 743.183 461.772 749.674 473.133C752.919 482.869 771.832 492.164 778.324 500.278C798.694 495.309 807.322 469.443 807.322 469.443C807.322 469.443 795.542 452.73 783.755 435.182C771.967 417.634 748.352 411.039 748.352 411.039" fill="white"/>
</g>
<path d="M748.705 433.593C744.805 447.169 743.183 461.772 749.674 473.133C752.919 482.869 771.832 492.164 778.324 500.278C798.694 495.309 807.322 469.443 807.322 469.443C807.322 469.443 795.542 452.73 783.755 435.182C771.967 417.634 748.352 411.039 748.352 411.039" stroke="#263238" stroke-miterlimit="10" stroke-linecap="round" stroke-linejoin="round"/>
<path d="M551.579 401.711C551.579 401.711 544.953 386.123 540.784 381.277C536.797 376.644 532.463 372.96 531.336 372.825C528.46 372.479 519.084 377.69 519.084 377.69C519.084 377.69 519.069 380.62 524.152 380.195C524.152 380.195 516.819 384.762 516.465 388.353C516.111 391.944 520.667 397.008 521.564 398.995C522.461 400.98 524.189 399.834 524.189 399.834C524.189 399.834 532.104 410.608 539.75 411.356" fill="white"/>
<path d="M551.579 401.711C551.579 401.711 544.953 386.123 540.784 381.277C536.797 376.644 532.463 372.96 531.336 372.825C528.46 372.479 519.084 377.69 519.084 377.69C519.084 377.69 519.069 380.62 524.152 380.195C524.152 380.195 516.819 384.762 516.465 388.353C516.111 391.944 520.667 397.008 521.564 398.995C522.461 400.98 524.189 399.834 524.189 399.834C524.189 399.834 532.104 410.608 539.75 411.356" stroke="#263238" stroke-miterlimit="10" stroke-linecap="round" stroke-linejoin="round"/>
<path d="M524.188 399.832C524.188 399.832 525.072 398.982 525.217 396.9C525.217 396.9 528.396 396.91 528.557 394.121C528.557 394.121 533.223 394.405 531.274 388.479" stroke="#263238" stroke-miterlimit="10" stroke-linecap="round" stroke-linejoin="round"/>
<path d="M528.559 394.123C528.559 394.123 523.274 388.44 522.961 386.242" stroke="#263238" stroke-miterlimit="10" stroke-linecap="round" stroke-linejoin="round"/>
<path d="M525.22 396.902C525.22 396.902 519.422 391.718 519.739 389.362" stroke="#263238" stroke-miterlimit="10" stroke-linecap="round" stroke-linejoin="round"/>
<path d="M530.499 376.698C530.499 376.698 528.309 379.584 524.727 379.729" stroke="#263238" stroke-miterlimit="10" stroke-linecap="round" stroke-linejoin="round"/>
<path d="M529.195 377.972C529.195 377.972 530.7 379.116 531.893 380.575" stroke="#263238" stroke-miterlimit="10" stroke-linecap="round" stroke-linejoin="round"/>
<path d="M750.711 429.298C751.973 427.166 753.659 425.278 755.74 423.919" stroke="#263238" stroke-miterlimit="10" stroke-linecap="round" stroke-linejoin="round"/>
<path d="M709.852 913.019H755.995L754.982 916.537H709.891L709.852 913.019Z" fill="white" stroke="#263238" stroke-miterlimit="10" stroke-linecap="round" stroke-linejoin="round"/>
<path d="M724.664 899.381C724.664 899.381 739.808 894.368 747.118 900.634" stroke="#263238" stroke-miterlimit="10" stroke-linecap="round" stroke-linejoin="round"/>
<path d="M724.664 896.065C724.664 896.065 737.981 891.851 747.118 897.483" stroke="#263238" stroke-miterlimit="10" stroke-linecap="round" stroke-linejoin="round"/>
<path d="M725.445 892.802C725.445 892.802 737.979 888.076 747.116 894.551" stroke="#263238" stroke-miterlimit="10" stroke-linecap="round" stroke-linejoin="round"/>
<path d="M715.508 899.781L717.002 901.252C717.424 901.668 717.495 902.315 717.176 902.814C716.1 904.501 713.889 908.545 714.086 913.021H711.867C711.867 913.021 712.64 907.066 715.066 902.855L713.931 901.71L715.508 899.781Z" fill="#263238"/>
<path d="M768.266 522.558C765.655 526.213 730.187 569.037 713.617 566.706" stroke="#263238" stroke-miterlimit="10" stroke-linecap="round" stroke-linejoin="round"/>
<path d="M676.18 485.952C676.18 485.952 695.98 516.49 727.424 515.868" stroke="#263238" stroke-miterlimit="10" stroke-linecap="round" stroke-linejoin="round"/>
<g opacity="0.2">
<path d="M727.422 636.91C729.227 637.32 764.063 650.026 771.031 662.731" stroke="white" stroke-miterlimit="10" stroke-linecap="round" stroke-linejoin="round"/>
<path d="M735.892 655.353C734.147 657.812 719.351 704.126 713.019 716.829C706.687 729.535 685.374 786.502 680.457 789.782C680.457 789.782 673.9 822.98 669.801 828.307C665.703 833.636 644.5 876.089 644.5 876.089" stroke="white" stroke-miterlimit="10" stroke-linecap="round" stroke-linejoin="round"/>
<path d="M620.727 876.091L646.44 881.588" stroke="white" stroke-miterlimit="10" stroke-linecap="round" stroke-linejoin="round"/>
<path d="M725.445 878.841C725.445 878.841 746.029 876.988 752.997 884.823" stroke="white" stroke-miterlimit="10" stroke-linecap="round" stroke-linejoin="round"/>
<path d="M749.227 660.682C750.948 670.518 776.77 725.028 782.917 718.88" stroke="white" stroke-miterlimit="10" stroke-linecap="round" stroke-linejoin="round"/>
<path d="M739.228 665.601C739.228 665.601 736.2 652.077 739.068 645.927C740.164 643.578 716.937 651.665 709.148 649.821" stroke="white" stroke-miterlimit="10" stroke-linecap="round" stroke-linejoin="round"/>
<path d="M735.895 598.626C735.895 598.626 739.958 610.27 740.946 613.958C741.937 617.647 733.541 631.991 735.895 634.861" stroke="white" stroke-miterlimit="10" stroke-linecap="round" stroke-linejoin="round"/>
<path d="M792.344 587.729C792.344 587.729 798.081 596.514 798.081 602.983C798.081 609.452 805.868 612.319 805.868 612.319" stroke="white" stroke-miterlimit="10" stroke-linecap="round" stroke-linejoin="round"/>
<path d="M804.576 578.125C804.576 578.125 811.605 604.533 805.867 636.91C800.13 669.287 790.702 735.274 787.014 752.076C783.326 768.88 774.719 806.586 774.719 811.913C774.719 817.24 766.07 847.57 766.07 847.57" stroke="white" stroke-miterlimit="10" stroke-linecap="round" stroke-linejoin="round"/>
<path d="M768.163 801.669C766.935 801.669 743.992 823.8 738.25 824.21" stroke="white" stroke-miterlimit="10" stroke-linecap="round" stroke-linejoin="round"/>
<path d="M667.75 788.143C666.521 788.553 647.258 797.979 646.438 795.111" stroke="white" stroke-miterlimit="10" stroke-linecap="round" stroke-linejoin="round"/>
</g>
<path d="M764.256 617.098C759.178 617.508 754.729 613.722 754.319 608.644L749.765 552.153C749.373 547.3 752.829 543.063 757.568 542.336L759.339 536.412C759.671 535.301 760.651 534.508 761.805 534.416L785.266 532.525C786.42 532.431 787.514 533.057 788.02 534.099L790.687 539.601L829.972 536.435C834.018 536.107 837.665 538.444 839.188 541.979" fill="#C1DEFF"/>
<mask id="mask5_1120_2913" style="mask-type:luminance" maskUnits="userSpaceOnUse" x="749" y="532" width="91" height="86">
<path d="M764.256 617.098C759.178 617.508 754.729 613.722 754.319 608.644L749.765 552.153C749.373 547.3 752.829 543.063 757.568 542.336L759.339 536.412C759.671 535.301 760.651 534.508 761.805 534.416L785.266 532.525C786.42 532.431 787.514 533.057 788.02 534.099L790.687 539.601L829.972 536.435C834.018 536.107 837.665 538.444 839.188 541.979" fill="white"/>
</mask>
<g mask="url(#mask5_1120_2913)">
<path opacity="0.3" d="M764.256 617.098C759.178 617.508 754.729 613.722 754.319 608.644L749.765 552.153C749.373 547.3 752.829 543.063 757.568 542.336L759.339 536.412C759.671 535.301 760.651 534.508 761.805 534.416L785.266 532.525C786.42 532.431 787.514 533.057 788.02 534.099L790.687 539.601L829.972 536.435C834.018 536.107 837.665 538.444 839.188 541.979" fill="black" fill-opacity="0.7"/>
</g>
<path d="M764.256 617.098C759.178 617.508 754.729 613.722 754.319 608.644L749.765 552.153C749.373 547.3 752.829 543.063 757.568 542.336L759.339 536.412C759.671 535.301 760.651 534.508 761.805 534.416L785.266 532.525C786.42 532.431 787.514 533.057 788.02 534.099L790.687 539.601L829.972 536.435C834.018 536.107 837.665 538.444 839.188 541.979" stroke="#263238" stroke-miterlimit="10" stroke-linecap="round" stroke-linejoin="round"/>
<path d="M764.259 617.098L836.012 611.315C841.091 610.904 845.531 606.414 845.931 601.286L849.882 550.537C850.282 545.408 846.489 541.581 841.41 541.99L769.657 547.773C764.578 548.183 760.138 552.673 759.738 557.801L755.787 608.551C755.387 613.681 759.181 617.508 764.259 617.098Z" fill="#C1DEFF" stroke="#263238" stroke-miterlimit="10" stroke-linecap="round" stroke-linejoin="round"/>
<path d="M819.769 485.573C827.188 492.707 831.013 498.275 830.468 521.448C829.921 544.621 825.736 578.127 822.997 600.772L803.29 603.787C803.29 603.787 806.375 568.151 803.29 544.681C799.925 519.082 802.59 504.737 805.664 502.893" fill="white"/>
<path d="M819.769 485.573C827.188 492.707 831.013 498.275 830.468 521.448C829.921 544.621 825.736 578.127 822.997 600.772L803.29 603.787C803.29 603.787 806.375 568.151 803.29 544.681C799.925 519.082 802.59 504.737 805.664 502.893" stroke="#263238" stroke-miterlimit="10" stroke-linecap="round" stroke-linejoin="round"/>
<path d="M804.41 584.041C804 590.679 791.877 592.71 790.975 596.883C790.681 598.244 786.51 607.403 786.51 607.403C786.51 607.403 786.216 612.317 787.065 615.262C788.095 618.823 791.315 616.745 791.315 616.745L792.341 619.29C793.98 623.388 797.057 619.594 802.274 622.159C807.489 624.722 810.019 621.339 812.041 622.159C814.064 622.98 820.622 620.931 821.85 618.471C823.079 616.012 821.133 605.113 822.994 600.774C824.857 596.436 824.906 587.69 824.906 584.043" fill="white"/>
<path d="M804.41 584.041C804 590.679 791.877 592.71 790.975 596.883C790.681 598.244 786.51 607.403 786.51 607.403C786.51 607.403 786.216 612.317 787.065 615.262C788.095 618.823 791.315 616.745 791.315 616.745L792.341 619.29C793.98 623.388 797.057 619.594 802.274 622.159C807.489 624.722 810.019 621.339 812.041 622.159C814.064 622.98 820.622 620.931 821.85 618.471C823.079 616.012 821.133 605.113 822.994 600.774C824.857 596.436 824.906 587.69 824.906 584.043" stroke="#263238" stroke-miterlimit="10" stroke-linecap="round" stroke-linejoin="round"/>
<path d="M791.32 616.743C791.32 616.743 791.409 610.065 795.624 607.401Z" fill="white"/>
<path d="M791.32 616.743C791.32 616.743 791.409 610.065 795.624 607.401" stroke="#263238" stroke-miterlimit="10" stroke-linecap="round" stroke-linejoin="round"/>
<path d="M522.668 375.958H338.359V414.033H522.668V375.958Z" fill="#999999" stroke="#263238" stroke-miterlimit="10" stroke-linecap="round" stroke-linejoin="round"/>
<path d="M522.668 425.462H338.359V463.537H522.668V425.462Z" fill="#999999" stroke="#263238" stroke-miterlimit="10" stroke-linecap="round" stroke-linejoin="round"/>
<path d="M522.668 474.965H338.359V513.04H522.668V474.965Z" fill="#999999" stroke="#263238" stroke-miterlimit="10" stroke-linecap="round" stroke-linejoin="round"/>
<path d="M522.668 524.469H338.359V562.544H522.668V524.469Z" fill="#999999" stroke="#263238" stroke-miterlimit="10" stroke-linecap="round" stroke-linejoin="round"/>
<path d="M522.668 573.971H338.359V612.046H522.668V573.971Z" fill="#999999" stroke="#263238" stroke-miterlimit="10" stroke-linecap="round" stroke-linejoin="round"/>
<path d="M524.234 418.31H376.554C374.285 418.31 372.445 416.47 372.445 414.201V375.79C372.445 373.522 374.285 371.682 376.554 371.682H524.234C526.503 371.682 528.343 373.522 528.343 375.79V414.201C528.343 416.472 526.503 418.31 524.234 418.31Z" fill="#BFBFBF" stroke="#263238" stroke-miterlimit="10" stroke-linecap="round" stroke-linejoin="round"/>
<path d="M524.234 467.814H376.554C374.285 467.814 372.445 465.974 372.445 463.705V425.295C372.445 423.026 374.285 421.186 376.554 421.186H524.234C526.503 421.186 528.343 423.026 528.343 425.295V463.705C528.343 465.974 526.503 467.814 524.234 467.814Z" fill="#BFBFBF" stroke="#263238" stroke-miterlimit="10" stroke-linecap="round" stroke-linejoin="round"/>
<path d="M524.234 517.318H376.554C374.285 517.318 372.445 515.478 372.445 513.21V474.799C372.445 472.53 374.285 470.69 376.554 470.69H524.234C526.503 470.69 528.343 472.53 528.343 474.799V513.21C528.343 515.478 526.503 517.318 524.234 517.318Z" fill="#BFBFBF" stroke="#263238" stroke-miterlimit="10" stroke-linecap="round" stroke-linejoin="round"/>
<path d="M524.234 566.821H376.554C374.285 566.821 372.445 564.981 372.445 562.712V524.301C372.445 522.032 374.285 520.192 376.554 520.192H524.234C526.503 520.192 528.343 522.032 528.343 524.301V562.712C528.343 564.981 526.503 566.821 524.234 566.821Z" fill="#BFBFBF" stroke="#263238" stroke-miterlimit="10" stroke-linecap="round" stroke-linejoin="round"/>
<path d="M524.234 616.325H376.554C374.285 616.325 372.445 614.485 372.445 612.216V573.805C372.445 571.536 374.285 569.696 376.554 569.696H524.234C526.503 569.696 528.343 571.536 528.343 573.805V612.216C528.343 614.485 526.503 616.325 524.234 616.325Z" fill="#BFBFBF" stroke="#263238" stroke-miterlimit="10" stroke-linecap="round" stroke-linejoin="round"/>
<path d="M543.034 402.3C543.034 402.3 532.334 397.515 532.728 389.94C532.857 387.479 531.28 384.327 531.28 384.327C531.28 384.327 520.914 381.876 522.366 377.74L536.541 379.087C536.541 379.087 543.728 383.001 546.809 391.554" fill="white"/>
<path d="M543.034 402.3C543.034 402.3 532.334 397.515 532.728 389.94C532.857 387.479 531.28 384.327 531.28 384.327C531.28 384.327 520.914 381.876 522.366 377.74L536.541 379.087C536.541 379.087 543.728 383.001 546.809 391.554" stroke="#263238" stroke-miterlimit="10" stroke-linecap="round" stroke-linejoin="round"/>
<path d="M359.225 370.774H141.922V916.537H359.225V370.774Z" fill="#757575" stroke="#263238" stroke-miterlimit="10" stroke-linecap="round" stroke-linejoin="round"/>
<path d="M284.14 418.32H136.46C134.192 418.32 132.352 416.48 132.352 414.211V375.801C132.352 373.532 134.192 371.692 136.46 371.692H284.14C286.409 371.692 288.249 373.532 288.249 375.801V414.211C288.249 416.48 286.409 418.32 284.14 418.32Z" fill="#999999" stroke="#263238" stroke-miterlimit="10" stroke-linecap="round" stroke-linejoin="round"/>
<path d="M364.687 418.32H217.007C214.738 418.32 212.898 416.48 212.898 414.211V375.801C212.898 373.532 214.738 371.692 217.007 371.692H364.687C366.956 371.692 368.796 373.532 368.796 375.801V414.211C368.796 416.48 366.956 418.32 364.687 418.32Z" fill="#BFBFBF" stroke="#263238" stroke-miterlimit="10" stroke-linecap="round" stroke-linejoin="round"/>
<path d="M217.008 411.348L217.037 378.627C217.039 377.067 218.305 375.803 219.865 375.803L361.857 375.836C363.419 375.836 364.685 377.104 364.683 378.666L364.654 411.354C364.652 412.914 363.388 414.178 361.826 414.178H219.834C218.272 414.178 217.006 412.91 217.008 411.348Z" fill="#263238"/>
<path d="M306.814 412.452H228.944C227.435 412.452 226.211 411.23 226.211 409.719V401.796C226.211 400.288 227.433 399.063 228.944 399.063H306.814C308.322 399.063 309.547 400.286 309.547 401.796V409.719C309.547 411.228 308.322 412.452 306.814 412.452Z" fill="#C1DEFF" stroke="#263238" stroke-miterlimit="10" stroke-linecap="round" stroke-linejoin="round"/>
<path d="M323.134 397.698H245.264C243.756 397.698 242.531 396.475 242.531 394.965V387.041C242.531 385.533 243.754 384.308 245.264 384.308H323.134C324.643 384.308 325.867 385.531 325.867 387.041V394.965C325.867 396.473 324.643 397.698 323.134 397.698Z" fill="#C1DEFF" stroke="#263238" stroke-miterlimit="10" stroke-linecap="round" stroke-linejoin="round"/>
<path d="M284.14 665.837H136.46C134.192 665.837 132.352 663.997 132.352 661.728V623.318C132.352 621.049 134.192 619.209 136.46 619.209H284.14C286.409 619.209 288.249 621.049 288.249 623.318V661.728C288.249 663.997 286.409 665.837 284.14 665.837Z" fill="#999999" stroke="#263238" stroke-miterlimit="10" stroke-linecap="round" stroke-linejoin="round"/>
<path d="M364.687 665.837H217.007C214.738 665.837 212.898 663.997 212.898 661.728V623.318C212.898 621.049 214.738 619.209 217.007 619.209H364.687C366.956 619.209 368.796 621.049 368.796 623.318V661.728C368.796 663.997 366.956 665.837 364.687 665.837Z" fill="#BFBFBF" stroke="#263238" stroke-miterlimit="10" stroke-linecap="round" stroke-linejoin="round"/>
<path d="M325.874 638.818H233.336V646.226H325.874V638.818Z" fill="#757575" stroke="#263238" stroke-miterlimit="10" stroke-linecap="round" stroke-linejoin="round"/>
<path d="M342.097 642.523C342.097 644.589 340.423 646.263 338.357 646.263C336.291 646.263 334.617 644.589 334.617 642.523C334.617 640.457 336.291 638.783 338.357 638.783C340.423 638.781 342.097 640.455 342.097 642.523Z" fill="#C1DEFF" stroke="#263238" stroke-miterlimit="10" stroke-linecap="round" stroke-linejoin="round"/>
<path d="M355.449 642.523C355.449 644.589 353.774 646.263 351.709 646.263C349.643 646.263 347.969 644.589 347.969 642.523C347.969 640.457 349.643 638.783 351.709 638.783C353.774 638.781 355.449 640.455 355.449 642.523Z" fill="#757575" stroke="#263238" stroke-miterlimit="10" stroke-linecap="round" stroke-linejoin="round"/>
<path d="M290.852 641.294H236.711V643.75H290.852V641.294Z" fill="#C1DEFF"/>
<path d="M284.14 715.339H136.46C134.192 715.339 132.352 713.499 132.352 711.231V672.82C132.352 670.551 134.192 668.711 136.46 668.711H284.14C286.409 668.711 288.249 670.551 288.249 672.82V711.231C288.249 713.501 286.409 715.339 284.14 715.339Z" fill="#999999" stroke="#263238" stroke-miterlimit="10" stroke-linecap="round" stroke-linejoin="round"/>
<path d="M364.687 715.339H217.007C214.738 715.339 212.898 713.499 212.898 711.231V672.82C212.898 670.551 214.738 668.711 217.007 668.711H364.687C366.956 668.711 368.796 670.551 368.796 672.82V711.231C368.796 713.501 366.956 715.339 364.687 715.339Z" fill="#BFBFBF" stroke="#263238" stroke-miterlimit="10" stroke-linecap="round" stroke-linejoin="round"/>
<path d="M325.874 688.323H233.336V695.73H325.874V688.323Z" fill="#757575" stroke="#263238" stroke-miterlimit="10" stroke-linecap="round" stroke-linejoin="round"/>
<path d="M338.357 695.765C340.423 695.765 342.097 694.091 342.097 692.025C342.097 689.96 340.423 688.285 338.357 688.285C336.292 688.285 334.617 689.96 334.617 692.025C334.617 694.091 336.292 695.765 338.357 695.765Z" fill="#C1DEFF" stroke="#263238" stroke-miterlimit="10" stroke-linecap="round" stroke-linejoin="round"/>
<path d="M355.449 692.025C355.449 694.091 353.774 695.765 351.709 695.765C349.643 695.765 347.969 694.091 347.969 692.025C347.969 689.96 349.643 688.285 351.709 688.285C353.774 688.285 355.449 689.96 355.449 692.025Z" fill="#757575" stroke="#263238" stroke-miterlimit="10" stroke-linecap="round" stroke-linejoin="round"/>
<path d="M290.852 690.799H236.711V693.254H290.852V690.799Z" fill="#C1DEFF"/>
<path d="M284.14 764.844H136.46C134.192 764.844 132.352 763.004 132.352 760.735V722.324C132.352 720.055 134.192 718.215 136.46 718.215H284.14C286.409 718.215 288.249 720.055 288.249 722.324V760.735C288.249 763.004 286.409 764.844 284.14 764.844Z" fill="#999999" stroke="#263238" stroke-miterlimit="10" stroke-linecap="round" stroke-linejoin="round"/>
<path d="M364.687 764.844H217.007C214.738 764.844 212.898 763.004 212.898 760.735V722.324C212.898 720.055 214.738 718.215 217.007 718.215H364.687C366.956 718.215 368.796 720.055 368.796 722.324V760.735C368.796 763.004 366.956 764.844 364.687 764.844Z" fill="#BFBFBF" stroke="#263238" stroke-miterlimit="10" stroke-linecap="round" stroke-linejoin="round"/>
<path d="M325.874 737.825H233.336V745.232H325.874V737.825Z" fill="#757575" stroke="#263238" stroke-miterlimit="10" stroke-linecap="round" stroke-linejoin="round"/>
<path d="M338.357 745.27C340.423 745.27 342.097 743.595 342.097 741.53C342.097 739.464 340.423 737.79 338.357 737.79C336.292 737.79 334.617 739.464 334.617 741.53C334.617 743.595 336.292 745.27 338.357 745.27Z" fill="#C1DEFF" stroke="#263238" stroke-miterlimit="10" stroke-linecap="round" stroke-linejoin="round"/>
<path d="M355.449 741.53C355.449 743.595 353.774 745.27 351.709 745.27C349.643 745.27 347.969 743.595 347.969 741.53C347.969 739.464 349.643 737.79 351.709 737.79C353.774 737.787 355.449 739.464 355.449 741.53Z" fill="#757575" stroke="#263238" stroke-miterlimit="10" stroke-linecap="round" stroke-linejoin="round"/>
<path d="M290.852 740.301H236.711V742.756H290.852V740.301Z" fill="#C1DEFF"/>
<path d="M284.14 814.348H136.46C134.192 814.348 132.352 812.508 132.352 810.239V771.828C132.352 769.559 134.192 767.719 136.46 767.719H284.14C286.409 767.719 288.249 769.559 288.249 771.828V810.239C288.249 812.508 286.409 814.348 284.14 814.348Z" fill="#999999" stroke="#263238" stroke-miterlimit="10" stroke-linecap="round" stroke-linejoin="round"/>
<path d="M364.687 814.348H217.007C214.738 814.348 212.898 812.508 212.898 810.239V771.828C212.898 769.559 214.738 767.719 217.007 767.719H364.687C366.956 767.719 368.796 769.559 368.796 771.828V810.239C368.796 812.508 366.956 814.348 364.687 814.348Z" fill="#BFBFBF" stroke="#263238" stroke-miterlimit="10" stroke-linecap="round" stroke-linejoin="round"/>
<path d="M325.874 787.329H233.336V794.736H325.874V787.329Z" fill="#757575" stroke="#263238" stroke-miterlimit="10" stroke-linecap="round" stroke-linejoin="round"/>
<path d="M342.097 791.032C342.097 793.097 340.423 794.772 338.357 794.772C336.291 794.772 334.617 793.097 334.617 791.032C334.617 788.966 336.291 787.292 338.357 787.292C340.423 787.292 342.097 788.966 342.097 791.032Z" fill="#C1DEFF" stroke="#263238" stroke-miterlimit="10" stroke-linecap="round" stroke-linejoin="round"/>
<path d="M355.449 791.032C355.449 793.097 353.774 794.772 351.709 794.772C349.643 794.772 347.969 793.097 347.969 791.032C347.969 788.966 349.643 787.292 351.709 787.292C353.774 787.292 355.449 788.966 355.449 791.032Z" fill="#757575" stroke="#263238" stroke-miterlimit="10" stroke-linecap="round" stroke-linejoin="round"/>
<path d="M290.852 789.805H236.711V792.26H290.852V789.805Z" fill="#C1DEFF"/>
<path d="M284.14 863.85H136.46C134.192 863.85 132.352 862.01 132.352 859.741V821.33C132.352 819.062 134.192 817.222 136.46 817.222H284.14C286.409 817.222 288.249 819.062 288.249 821.33V859.741C288.249 862.01 286.409 863.85 284.14 863.85Z" fill="#999999" stroke="#263238" stroke-miterlimit="10" stroke-linecap="round" stroke-linejoin="round"/>
<path d="M364.687 863.85H217.007C214.738 863.85 212.898 862.01 212.898 859.741V821.33C212.898 819.062 214.738 817.222 217.007 817.222H364.687C366.956 817.222 368.796 819.062 368.796 821.33V859.741C368.796 862.01 366.956 863.85 364.687 863.85Z" fill="#BFBFBF" stroke="#263238" stroke-miterlimit="10" stroke-linecap="round" stroke-linejoin="round"/>
<path d="M325.874 836.831H233.336V844.239H325.874V836.831Z" fill="#757575" stroke="#263238" stroke-miterlimit="10" stroke-linecap="round" stroke-linejoin="round"/>
<path d="M338.357 844.276C340.423 844.276 342.097 842.601 342.097 840.536C342.097 838.47 340.423 836.796 338.357 836.796C336.292 836.796 334.617 838.47 334.617 840.536C334.617 842.601 336.292 844.276 338.357 844.276Z" fill="#C1DEFF" stroke="#263238" stroke-miterlimit="10" stroke-linecap="round" stroke-linejoin="round"/>
<path d="M355.449 840.536C355.449 842.602 353.774 844.276 351.709 844.276C349.643 844.276 347.969 842.602 347.969 840.536C347.969 838.47 349.643 836.796 351.709 836.796C353.774 836.794 355.449 838.47 355.449 840.536Z" fill="#757575" stroke="#263238" stroke-miterlimit="10" stroke-linecap="round" stroke-linejoin="round"/>
<path d="M290.852 839.307H236.711V841.763H290.852V839.307Z" fill="#C1DEFF"/>
<path d="M284.14 913.354H136.46C134.192 913.354 132.352 911.514 132.352 909.245V870.835C132.352 868.566 134.192 866.726 136.46 866.726H284.14C286.409 866.726 288.249 868.566 288.249 870.835V909.245C288.249 911.514 286.409 913.354 284.14 913.354Z" fill="#999999" stroke="#263238" stroke-miterlimit="10" stroke-linecap="round" stroke-linejoin="round"/>
<path d="M364.687 913.354H217.007C214.738 913.354 212.898 911.514 212.898 909.245V870.835C212.898 868.566 214.738 866.726 217.007 866.726H364.687C366.956 866.726 368.796 868.566 368.796 870.835V909.245C368.796 911.514 366.956 913.354 364.687 913.354Z" fill="#BFBFBF" stroke="#263238" stroke-miterlimit="10" stroke-linecap="round" stroke-linejoin="round"/>
<path d="M325.874 886.335H233.336V893.743H325.874V886.335Z" fill="#757575" stroke="#263238" stroke-miterlimit="10" stroke-linecap="round" stroke-linejoin="round"/>
<path d="M338.357 893.778C340.423 893.778 342.097 892.103 342.097 890.038C342.097 887.972 340.423 886.298 338.357 886.298C336.292 886.298 334.617 887.972 334.617 890.038C334.617 892.103 336.292 893.778 338.357 893.778Z" fill="#C1DEFF" stroke="#263238" stroke-miterlimit="10" stroke-linecap="round" stroke-linejoin="round"/>
<path d="M355.449 890.038C355.449 892.104 353.774 893.778 351.709 893.778C349.643 893.778 347.969 892.104 347.969 890.038C347.969 887.972 349.643 886.298 351.709 886.298C353.774 886.298 355.449 887.972 355.449 890.038Z" fill="#757575" stroke="#263238" stroke-miterlimit="10" stroke-linecap="round" stroke-linejoin="round"/>
<path d="M290.852 888.811H236.711V891.267H290.852V888.811Z" fill="#C1DEFF"/>
<path d="M284.14 616.333H136.46C134.192 616.333 132.352 614.493 132.352 612.224V573.813C132.352 571.545 134.192 569.705 136.46 569.705H284.14C286.409 569.705 288.249 571.545 288.249 573.813V612.224C288.249 614.493 286.409 616.333 284.14 616.333Z" fill="#999999" stroke="#263238" stroke-miterlimit="10" stroke-linecap="round" stroke-linejoin="round"/>
<path d="M364.687 616.333H217.007C214.738 616.333 212.898 614.493 212.898 612.224V573.813C212.898 571.545 214.738 569.705 217.007 569.705H364.687C366.956 569.705 368.796 571.545 368.796 573.813V612.224C368.796 614.493 366.956 616.333 364.687 616.333Z" fill="#BFBFBF" stroke="#263238" stroke-miterlimit="10" stroke-linecap="round" stroke-linejoin="round"/>
<path d="M217.008 609.361L217.037 576.64C217.039 575.079 218.305 573.815 219.865 573.815L361.857 573.849C363.419 573.849 364.685 575.117 364.683 576.679L364.654 609.367C364.652 610.927 363.388 612.191 361.826 612.191H219.834C218.272 612.191 217.006 610.923 217.008 609.361Z" fill="#263238"/>
<path d="M306.814 610.465H228.944C227.435 610.465 226.211 609.243 226.211 607.732V599.809C226.211 598.3 227.433 597.076 228.944 597.076H306.814C308.322 597.076 309.547 598.298 309.547 599.809V607.732C309.547 609.241 308.322 610.465 306.814 610.465Z" fill="#C1DEFF" stroke="#263238" stroke-miterlimit="10" stroke-linecap="round" stroke-linejoin="round"/>
<path d="M352.835 610.465H316.405C314.896 610.465 313.672 609.243 313.672 607.732V599.809C313.672 598.3 314.894 597.076 316.405 597.076H352.835C354.343 597.076 355.568 598.298 355.568 599.809V607.732C355.566 609.241 354.343 610.465 352.835 610.465Z" fill="#C1DEFF" stroke="#263238" stroke-miterlimit="10" stroke-linecap="round" stroke-linejoin="round"/>
<path d="M274.35 596.962H237.92C236.412 596.962 235.188 595.739 235.188 594.229V586.306C235.188 584.797 236.41 583.573 237.92 583.573H274.35C275.859 583.573 277.083 584.795 277.083 586.306V594.229C277.081 595.739 275.859 596.962 274.35 596.962Z" fill="#C1DEFF" stroke="#263238" stroke-miterlimit="10" stroke-linecap="round" stroke-linejoin="round"/>
<path d="M284.14 566.831H136.46C134.192 566.831 132.352 564.991 132.352 562.722V524.311C132.352 522.042 134.192 520.203 136.46 520.203H284.14C286.409 520.203 288.249 522.042 288.249 524.311V562.722C288.249 564.991 286.409 566.831 284.14 566.831Z" fill="#999999" stroke="#263238" stroke-miterlimit="10" stroke-linecap="round" stroke-linejoin="round"/>
<path d="M364.687 566.831H217.007C214.738 566.831 212.898 564.991 212.898 562.722V524.311C212.898 522.042 214.738 520.203 217.007 520.203H364.687C366.956 520.203 368.796 522.042 368.796 524.311V562.722C368.796 564.991 366.956 566.831 364.687 566.831Z" fill="#BFBFBF" stroke="#263238" stroke-miterlimit="10" stroke-linecap="round" stroke-linejoin="round"/>
<path d="M217.008 559.856L217.037 527.135C217.039 525.575 218.305 524.311 219.865 524.311L361.857 524.344C363.419 524.344 364.685 525.612 364.683 527.175L364.654 559.863C364.652 561.423 363.388 562.687 361.826 562.687H219.834C218.272 562.687 217.006 561.421 217.008 559.856Z" fill="#263238"/>
<path d="M308.077 560.961H271.647C270.139 560.961 268.914 559.738 268.914 558.228V550.305C268.914 548.796 270.137 547.572 271.647 547.572H308.077C309.585 547.572 310.81 548.794 310.81 550.305V558.228C310.81 559.738 309.587 560.961 308.077 560.961Z" fill="#C1DEFF" stroke="#263238" stroke-miterlimit="10" stroke-linecap="round" stroke-linejoin="round"/>
<path d="M352.835 560.961H316.405C314.896 560.961 313.672 559.738 313.672 558.228V550.305C313.672 548.796 314.894 547.572 316.405 547.572H352.835C354.343 547.572 355.568 548.794 355.568 550.305V558.228C355.566 559.738 354.343 560.961 352.835 560.961Z" fill="#C1DEFF" stroke="#263238" stroke-miterlimit="10" stroke-linecap="round" stroke-linejoin="round"/>
<path d="M264.11 560.961H227.678C226.17 560.961 224.945 559.738 224.945 558.228V550.305C224.945 548.796 226.168 547.572 227.678 547.572H264.11C265.619 547.572 266.843 548.794 266.843 550.305V558.228C266.841 559.738 265.619 560.961 264.11 560.961Z" fill="#C1DEFF" stroke="#263238" stroke-miterlimit="10" stroke-linecap="round" stroke-linejoin="round"/>
<path d="M296.897 546.616H260.467C258.959 546.616 257.734 545.394 257.734 543.883V535.96C257.734 534.452 258.957 533.227 260.467 533.227H296.897C298.406 533.227 299.63 534.45 299.63 535.96V543.883C299.628 545.394 298.406 546.616 296.897 546.616Z" fill="#C1DEFF" stroke="#263238" stroke-miterlimit="10" stroke-linecap="round" stroke-linejoin="round"/>
<path d="M284.14 517.327H136.46C134.192 517.327 132.352 515.487 132.352 513.218V474.807C132.352 472.538 134.192 470.698 136.46 470.698H284.14C286.409 470.698 288.249 472.538 288.249 474.807V513.218C288.249 515.487 286.409 517.327 284.14 517.327Z" fill="#999999" stroke="#263238" stroke-miterlimit="10" stroke-linecap="round" stroke-linejoin="round"/>
<path d="M364.687 517.327H217.007C214.738 517.327 212.898 515.487 212.898 513.218V474.807C212.898 472.538 214.738 470.698 217.007 470.698H364.687C366.956 470.698 368.796 472.538 368.796 474.807V513.218C368.796 515.487 366.956 517.327 364.687 517.327Z" fill="#BFBFBF" stroke="#263238" stroke-miterlimit="10" stroke-linecap="round" stroke-linejoin="round"/>
<path d="M217.008 510.354L217.037 477.633C217.039 476.073 218.305 474.809 219.865 474.809L361.857 474.842C363.419 474.842 364.685 476.11 364.683 477.673L364.654 510.361C364.652 511.921 363.388 513.185 361.826 513.185H219.834C218.272 513.185 217.006 511.917 217.008 510.354Z" fill="#263238"/>
<path d="M333.751 511.459H255.881C254.373 511.459 253.148 510.236 253.148 508.726V500.802C253.148 499.294 254.371 498.069 255.881 498.069H333.751C335.26 498.069 336.484 499.292 336.484 500.802V508.726C336.484 510.234 335.26 511.459 333.751 511.459Z" fill="#C1DEFF" stroke="#263238" stroke-miterlimit="10" stroke-linecap="round" stroke-linejoin="round"/>
<path d="M323.134 496.704H245.264C243.756 496.704 242.531 495.481 242.531 493.971V494.336C242.531 492.827 243.754 491.603 245.264 491.603H323.134C324.643 491.603 325.867 492.825 325.867 494.336V493.971C325.867 495.481 324.643 496.704 323.134 496.704Z" fill="#C1DEFF" stroke="#263238" stroke-miterlimit="10" stroke-linecap="round" stroke-linejoin="round"/>
<path d="M284.14 467.824H136.46C134.192 467.824 132.352 465.985 132.352 463.716V425.305C132.352 423.036 134.192 421.196 136.46 421.196H284.14C286.409 421.196 288.249 423.036 288.249 425.305V463.716C288.249 465.985 286.409 467.824 284.14 467.824Z" fill="#999999" stroke="#263238" stroke-miterlimit="10" stroke-linecap="round" stroke-linejoin="round"/>
<path d="M364.687 467.824H217.007C214.738 467.824 212.898 465.985 212.898 463.716V425.305C212.898 423.036 214.738 421.196 217.007 421.196H364.687C366.956 421.196 368.796 423.036 368.796 425.305V463.716C368.796 465.985 366.956 467.824 364.687 467.824Z" fill="#BFBFBF" stroke="#263238" stroke-miterlimit="10" stroke-linecap="round" stroke-linejoin="round"/>
<path d="M217.008 460.85L217.037 428.129C217.039 426.569 218.305 425.305 219.865 425.305L361.857 425.338C363.419 425.338 364.685 426.606 364.683 428.168L364.654 460.856C364.652 462.417 363.388 463.68 361.826 463.68H219.834C218.272 463.68 217.006 462.412 217.008 460.85Z" fill="#263238"/>
<path d="M348.251 461.954H270.381C268.873 461.954 267.648 460.732 267.648 459.221V451.298C267.648 449.79 268.871 448.565 270.381 448.565H348.251C349.76 448.565 350.984 449.788 350.984 451.298V459.221C350.984 460.732 349.76 461.954 348.251 461.954Z" fill="#C1DEFF" stroke="#263238" stroke-miterlimit="10" stroke-linecap="round" stroke-linejoin="round"/>
<path d="M323.139 447.2H286.71C285.201 447.2 283.977 445.977 283.977 444.467V436.543C283.977 435.035 285.199 433.81 286.71 433.81H323.139C324.648 433.81 325.872 435.033 325.872 436.543V444.467C325.872 445.977 324.648 447.2 323.139 447.2Z" fill="#C1DEFF" stroke="#263238" stroke-miterlimit="10" stroke-linecap="round" stroke-linejoin="round"/>
<path d="M141.234 401.249V412.452" stroke="#263238" stroke-miterlimit="10" stroke-linecap="round" stroke-linejoin="round"/>
<path d="M144.789 401.249V412.452" stroke="#263238" stroke-miterlimit="10" stroke-linecap="round" stroke-linejoin="round"/>
<path d="M148.336 401.249V412.452" stroke="#263238" stroke-miterlimit="10" stroke-linecap="round" stroke-linejoin="round"/>
<path d="M151.891 401.249V412.452" stroke="#263238" stroke-miterlimit="10" stroke-linecap="round" stroke-linejoin="round"/>
<path d="M155.445 401.249V412.452" stroke="#263238" stroke-miterlimit="10" stroke-linecap="round" stroke-linejoin="round"/>
<path d="M141.234 896.457V907.66" stroke="#263238" stroke-miterlimit="10" stroke-linecap="round" stroke-linejoin="round"/>
<path d="M144.789 896.457V907.66" stroke="#263238" stroke-miterlimit="10" stroke-linecap="round" stroke-linejoin="round"/>
<path d="M148.336 896.457V907.66" stroke="#263238" stroke-miterlimit="10" stroke-linecap="round" stroke-linejoin="round"/>
<path d="M151.891 896.457V907.66" stroke="#263238" stroke-miterlimit="10" stroke-linecap="round" stroke-linejoin="round"/>
<path d="M155.445 896.457V907.66" stroke="#263238" stroke-miterlimit="10" stroke-linecap="round" stroke-linejoin="round"/>
<path d="M141.234 846.936V858.14" stroke="#263238" stroke-miterlimit="10" stroke-linecap="round" stroke-linejoin="round"/>
<path d="M144.789 846.936V858.14" stroke="#263238" stroke-miterlimit="10" stroke-linecap="round" stroke-linejoin="round"/>
<path d="M148.336 846.936V858.14" stroke="#263238" stroke-miterlimit="10" stroke-linecap="round" stroke-linejoin="round"/>
<path d="M151.891 846.936V858.14" stroke="#263238" stroke-miterlimit="10" stroke-linecap="round" stroke-linejoin="round"/>
<path d="M155.445 846.936V858.14" stroke="#263238" stroke-miterlimit="10" stroke-linecap="round" stroke-linejoin="round"/>
<path d="M141.234 797.415V808.619" stroke="#263238" stroke-miterlimit="10" stroke-linecap="round" stroke-linejoin="round"/>
<path d="M144.789 797.415V808.619" stroke="#263238" stroke-miterlimit="10" stroke-linecap="round" stroke-linejoin="round"/>
<path d="M148.336 797.415V808.619" stroke="#263238" stroke-miterlimit="10" stroke-linecap="round" stroke-linejoin="round"/>
<path d="M151.891 797.415V808.619" stroke="#263238" stroke-miterlimit="10" stroke-linecap="round" stroke-linejoin="round"/>
<path d="M155.445 797.415V808.619" stroke="#263238" stroke-miterlimit="10" stroke-linecap="round" stroke-linejoin="round"/>
<path d="M141.234 747.895V759.098" stroke="#263238" stroke-miterlimit="10" stroke-linecap="round" stroke-linejoin="round"/>
<path d="M144.789 747.895V759.098" stroke="#263238" stroke-miterlimit="10" stroke-linecap="round" stroke-linejoin="round"/>
<path d="M148.336 747.895V759.098" stroke="#263238" stroke-miterlimit="10" stroke-linecap="round" stroke-linejoin="round"/>
<path d="M151.891 747.895V759.098" stroke="#263238" stroke-miterlimit="10" stroke-linecap="round" stroke-linejoin="round"/>
<path d="M155.445 747.895V759.098" stroke="#263238" stroke-miterlimit="10" stroke-linecap="round" stroke-linejoin="round"/>
<path d="M141.234 698.374V709.577" stroke="#263238" stroke-miterlimit="10" stroke-linecap="round" stroke-linejoin="round"/>
<path d="M144.789 698.374V709.577" stroke="#263238" stroke-miterlimit="10" stroke-linecap="round" stroke-linejoin="round"/>
<path d="M148.336 698.374V709.577" stroke="#263238" stroke-miterlimit="10" stroke-linecap="round" stroke-linejoin="round"/>
<path d="M151.891 698.374V709.577" stroke="#263238" stroke-miterlimit="10" stroke-linecap="round" stroke-linejoin="round"/>
<path d="M155.445 698.374V709.577" stroke="#263238" stroke-miterlimit="10" stroke-linecap="round" stroke-linejoin="round"/>
<path d="M141.234 648.853V660.056" stroke="#263238" stroke-miterlimit="10" stroke-linecap="round" stroke-linejoin="round"/>
<path d="M144.789 648.853V660.056" stroke="#263238" stroke-miterlimit="10" stroke-linecap="round" stroke-linejoin="round"/>
<path d="M148.336 648.853V660.056" stroke="#263238" stroke-miterlimit="10" stroke-linecap="round" stroke-linejoin="round"/>
<path d="M151.891 648.853V660.056" stroke="#263238" stroke-miterlimit="10" stroke-linecap="round" stroke-linejoin="round"/>
<path d="M155.445 648.853V660.056" stroke="#263238" stroke-miterlimit="10" stroke-linecap="round" stroke-linejoin="round"/>
<path d="M141.234 599.332V610.536" stroke="#263238" stroke-miterlimit="10" stroke-linecap="round" stroke-linejoin="round"/>
<path d="M144.789 599.332V610.536" stroke="#263238" stroke-miterlimit="10" stroke-linecap="round" stroke-linejoin="round"/>
<path d="M148.336 599.332V610.536" stroke="#263238" stroke-miterlimit="10" stroke-linecap="round" stroke-linejoin="round"/>
<path d="M151.891 599.332V610.536" stroke="#263238" stroke-miterlimit="10" stroke-linecap="round" stroke-linejoin="round"/>
<path d="M155.445 599.332V610.536" stroke="#263238" stroke-miterlimit="10" stroke-linecap="round" stroke-linejoin="round"/>
<path d="M141.234 549.811V561.015" stroke="#263238" stroke-miterlimit="10" stroke-linecap="round" stroke-linejoin="round"/>
<path d="M144.789 549.811V561.015" stroke="#263238" stroke-miterlimit="10" stroke-linecap="round" stroke-linejoin="round"/>
<path d="M148.336 549.811V561.015" stroke="#263238" stroke-miterlimit="10" stroke-linecap="round" stroke-linejoin="round"/>
<path d="M151.891 549.811V561.015" stroke="#263238" stroke-miterlimit="10" stroke-linecap="round" stroke-linejoin="round"/>
<path d="M155.445 549.811V561.015" stroke="#263238" stroke-miterlimit="10" stroke-linecap="round" stroke-linejoin="round"/>
<path d="M141.234 500.291V511.494" stroke="#263238" stroke-miterlimit="10" stroke-linecap="round" stroke-linejoin="round"/>
<path d="M144.789 500.291V511.494" stroke="#263238" stroke-miterlimit="10" stroke-linecap="round" stroke-linejoin="round"/>
<path d="M148.336 500.291V511.494" stroke="#263238" stroke-miterlimit="10" stroke-linecap="round" stroke-linejoin="round"/>
<path d="M151.891 500.291V511.494" stroke="#263238" stroke-miterlimit="10" stroke-linecap="round" stroke-linejoin="round"/>
<path d="M155.445 500.291V511.494" stroke="#263238" stroke-miterlimit="10" stroke-linecap="round" stroke-linejoin="round"/>
<path d="M141.234 450.77V461.973" stroke="#263238" stroke-miterlimit="10" stroke-linecap="round" stroke-linejoin="round"/>
<path d="M144.789 450.77V461.973" stroke="#263238" stroke-miterlimit="10" stroke-linecap="round" stroke-linejoin="round"/>
<path d="M148.336 450.77V461.973" stroke="#263238" stroke-miterlimit="10" stroke-linecap="round" stroke-linejoin="round"/>
<path d="M151.891 450.77V461.973" stroke="#263238" stroke-miterlimit="10" stroke-linecap="round" stroke-linejoin="round"/>
<path d="M155.445 450.77V461.973" stroke="#263238" stroke-miterlimit="10" stroke-linecap="round" stroke-linejoin="round"/>
</svg>
