<svg width="116" height="82" viewBox="0 0 116 82" fill="none" xmlns="http://www.w3.org/2000/svg">
<path d="M114.893 0.997343L64.844 23.0037C64.1395 23.2799 64.2401 24.2842 64.9573 24.4976L78.6332 28.2009C78.7087 28.3641 84.5465 41.7085 84.1817 40.88C84.4459 41.4574 85.1882 41.4825 85.5279 41.0557L93.668 32.2808C99.6442 33.9002 99.5812 33.9128 99.7448 33.9128C100.047 33.9128 100.336 33.737 100.462 33.4734L115.924 2.07695C116.214 1.49949 115.623 0.683505 114.893 0.997343ZM78.9604 26.6568C78.7968 26.6191 66.7564 23.3301 67.5239 23.5435C72.0406 21.5601 51.1429 30.7493 111.76 4.09807L78.9855 26.6568H78.9604ZM99.3296 32.1804C99.1661 32.1427 82.8229 27.6987 84.0558 28.0377C91.4285 21.8613 113.37 3.45784 113.534 3.3323C94.0706 42.876 100.789 29.2303 99.3296 32.1804Z" fill="#FEC524"/>
<path d="M38.5363 81.051C38.5238 81.4904 38.8635 81.8545 39.2912 81.8796C40.9142 81.9423 42.5624 81.9172 44.1476 81.7666C44.588 81.7289 44.9025 81.3398 44.8648 80.9129C44.8271 80.4736 44.4119 80.1597 44.0093 80.1974C42.5247 80.3355 40.9394 80.3606 39.3541 80.2978C38.939 80.2727 38.5615 80.6117 38.5363 81.051Z" fill="#FFC107"/>
<path d="M42.8644 67.757C43.1915 68.0332 43.6948 67.9956 43.9842 67.6441C44.2609 67.3051 44.2106 66.803 43.8709 66.5268C42.6505 65.5225 41.7069 64.3801 41.0652 63.1373C40.8639 62.7482 40.3858 62.5975 39.9958 62.7858C39.6058 62.9867 39.4548 63.4637 39.6561 63.8529C40.3859 65.3091 41.4679 66.6272 42.8644 67.757Z" fill="#FFC107"/>
<path d="M62.2523 70.5565C62.1768 70.1297 61.749 69.8535 61.3212 69.9289C59.7989 70.2176 58.2514 70.3808 56.7164 70.4059C56.2761 70.4185 55.9364 70.7825 55.9364 71.2219C55.949 71.6613 56.3138 71.9877 56.7542 72.0002C57.6475 71.9751 58.5407 71.9123 59.434 71.8119C58.6162 73.0673 57.6475 74.2096 56.5655 75.1888C56.2384 75.4901 56.2258 75.9797 56.5151 76.3061C56.8171 76.6325 57.3204 76.645 57.6349 76.3563C58.8427 75.2516 59.9121 73.9837 60.818 72.5777C61.0193 72.2764 60.9815 71.8872 60.7551 71.6236C61.0444 71.5734 61.3212 71.5357 61.6106 71.473C62.0509 71.4102 62.3277 70.9959 62.2523 70.5565Z" fill="#FFC107"/>
<path d="M66.3286 70.2174C67.8635 69.6651 69.3607 68.9872 70.7824 68.2089C71.1599 67.9954 71.3109 67.5184 71.097 67.1292C70.8831 66.7526 70.405 66.602 70.015 66.8154C68.6688 67.5561 67.2596 68.1963 65.8002 68.711C65.385 68.8616 65.1711 69.3136 65.3221 69.7278C65.4605 70.1547 65.926 70.3555 66.3286 70.2174Z" fill="#FFC107"/>
<path d="M62.3403 63.1999C62.2648 64.6686 61.9754 66.1625 61.4848 67.6313C61.3464 68.0455 61.5728 68.4974 61.988 68.6355C62.4032 68.7736 62.8561 68.5477 62.9945 68.1334C63.5355 66.5265 63.8501 64.8946 63.9381 63.2752C63.9633 62.8358 63.6236 62.4717 63.1832 62.4466C62.68 62.4341 62.3655 62.7605 62.3403 63.1999Z" fill="#FFC107"/>
<path d="M61.8748 58.7435C61.988 59.1577 62.4158 59.4088 62.8561 59.2958C63.2713 59.1828 63.5229 58.7435 63.4097 58.3166C62.9693 56.7349 62.2522 55.1908 61.2331 53.8099C60.9689 53.4584 60.4782 53.3831 60.1259 53.6342C59.7737 53.8978 59.6982 54.3874 59.9498 54.7389C60.8179 55.9566 61.4722 57.3124 61.8748 58.7435Z" fill="#FFC107"/>
<path d="M52.64 49.8932C54.0743 50.2322 55.4457 50.8347 56.7164 51.6758C57.0813 51.9143 57.572 51.8265 57.811 51.4624C58.0501 51.0983 57.9494 50.6088 57.5971 50.3702C56.1629 49.4162 54.6153 48.7383 53.0049 48.3617C52.5646 48.2612 52.1494 48.5249 52.0487 48.9517C51.9481 49.366 52.2123 49.7928 52.64 49.8932Z" fill="#FFC107"/>
<path d="M43.1412 51.3621C43.4054 51.7136 43.8961 51.7889 44.2484 51.5253C46.274 50.0314 48.0731 49.818 48.2241 49.7678C48.6519 49.6925 48.9412 49.2782 48.8657 48.8514C48.7902 48.4246 48.3625 48.1358 47.9473 48.2112C47.7837 48.2614 45.6449 48.525 43.3048 50.2574C42.9525 50.521 42.877 51.0106 43.1412 51.3621Z" fill="#FFC107"/>
<path d="M40.109 58.9694C40.1593 57.576 40.5871 56.1323 41.342 54.8142C41.5559 54.4376 41.43 53.948 41.04 53.7346C40.6626 53.5212 40.1719 53.6467 39.958 54.0359C39.0899 55.5674 38.5866 57.2622 38.5237 58.9067C38.486 59.9486 40.0713 60.0239 40.109 58.9694Z" fill="#FFC107"/>
<path d="M52.7785 71.0208C52.854 70.594 52.5646 70.1797 52.1243 70.1044C50.6019 69.8408 49.1173 69.414 47.7334 68.8365C47.3308 68.6733 46.8653 68.849 46.6891 69.2508C46.513 69.6525 46.7017 70.1169 47.1043 70.2927C48.6015 70.9204 50.1993 71.3849 51.8475 71.661C52.3004 71.7489 52.7156 71.4476 52.7785 71.0208Z" fill="#FFC107"/>
<path d="M48.9789 80.9259C50.6145 80.4865 52.1494 79.8965 53.5711 79.181C53.9612 78.9801 54.1121 78.5031 53.9108 78.1139C53.7095 77.7247 53.2314 77.5741 52.8414 77.775C51.5204 78.4528 50.0861 78.9926 48.5637 79.4069C48.136 79.5199 47.8843 79.9593 47.9976 80.3735C48.1234 80.7878 48.5637 81.0389 48.9789 80.9259Z" fill="#FFC107"/>
<path d="M84.3074 49.9688C84.7226 50.0818 85.1629 49.8307 85.2762 49.4039C85.6788 47.8221 85.9556 46.2027 86.094 44.5959C86.1317 44.1565 85.8046 43.7799 85.3642 43.7422C84.9742 43.7046 84.5464 44.031 84.5087 44.4578C84.3829 45.9768 84.1187 47.5083 83.7287 49.0022C83.628 49.429 83.8796 49.8558 84.3074 49.9688Z" fill="#FFC107"/>
<path d="M11.1844 76.8833C12.6438 77.0214 14.1662 77.2222 15.8269 77.5235C16.2547 77.5988 16.6699 77.3227 16.7454 76.8833C16.8208 76.4565 16.5315 76.0422 16.1037 75.9669C14.3926 75.6656 12.8325 75.4522 11.3228 75.3141C10.895 75.2764 10.505 75.5903 10.4547 76.0297C10.4295 76.4565 10.744 76.8456 11.1844 76.8833Z" fill="#FFC107"/>
<path d="M1.94959 77.3102C3.38387 77.0089 4.91879 76.8206 6.52921 76.7579C6.96955 76.7453 7.30926 76.3687 7.29668 75.9293C7.2841 75.49 6.90665 75.1636 6.4663 75.1761C4.76781 75.2389 3.13225 75.4397 1.6099 75.7661C1.18213 75.854 0.905321 76.2808 0.993391 76.7077C1.09404 77.1345 1.52182 77.3981 1.94959 77.3102Z" fill="#FFC107"/>
<path d="M77.2241 61.1036C76.1421 62.3088 74.9721 63.3884 73.8649 64.2671C73.5252 64.5433 73.4623 65.0329 73.7391 65.3844C74.0159 65.7359 74.5065 65.7861 74.8588 65.5099C76.0666 64.5559 77.2996 63.4135 78.4194 62.1707C78.7087 61.8443 78.6836 61.3422 78.3565 61.0534C78.0168 60.7521 77.5261 60.7898 77.2241 61.1036Z" fill="#FFC107"/>
<path d="M83.2633 52.9565C82.8606 52.7807 82.3951 52.9565 82.219 53.3707C81.6025 54.7767 80.8602 56.1451 80.0298 57.4381C79.7908 57.8021 79.904 58.2917 80.2689 58.5302C80.6463 58.7687 81.1244 58.6558 81.3634 58.2917C82.2441 56.9234 83.0116 55.4797 83.6659 53.9984C83.8546 53.6092 83.6659 53.1322 83.2633 52.9565Z" fill="#FFC107"/>
<path d="M19.853 77.511C19.7523 77.9379 20.0291 78.3647 20.4569 78.4526C21.8408 78.7664 23.187 79.0802 25.0868 79.5322C25.5146 79.6326 25.9424 79.369 26.043 78.9421C26.1437 78.5153 25.8795 78.0885 25.4517 77.9881C23.6274 77.5612 22.1302 77.2098 20.8091 76.9085C20.3814 76.8206 19.9536 77.0842 19.853 77.511Z" fill="#FFC107"/>
<path d="M29.7419 80.5866C31.302 80.913 32.9125 81.2143 34.4852 81.4277C34.9129 81.4905 35.3155 81.1892 35.3784 80.7498C35.4413 80.323 35.1394 79.9213 34.699 79.8585C33.1389 79.6326 31.6418 79.3689 30.0691 79.03C29.6413 78.9421 29.2135 79.2183 29.1255 79.6451C29.0374 80.0719 29.3142 80.4987 29.7419 80.5866Z" fill="#FFC107"/>
</svg>
