<svg width="524" height="378" viewBox="0 0 524 378" fill="none" xmlns="http://www.w3.org/2000/svg">
<path d="M315.177 298.473C319.291 299.98 323.48 302.704 327.305 306.357C327.632 306.658 328.123 306.646 328.425 306.332C328.727 306.018 328.714 305.516 328.4 305.215C324.424 301.411 320.046 298.561 315.718 296.992C315.302 296.842 314.849 297.055 314.698 297.469C314.56 297.871 314.774 298.323 315.177 298.473Z" fill="#FFC107"/>
<path d="M325.028 310.098C323.807 310.299 322.612 310.11 321.467 309.533C321.077 309.332 320.599 309.483 320.398 309.884C320.196 310.274 320.36 310.751 320.75 310.951C322.197 311.68 323.77 311.918 325.279 311.667C325.707 311.592 326.009 311.19 325.934 310.763C325.871 310.311 325.468 310.023 325.028 310.098Z" fill="#FFC107"/>
<path d="M313.843 304.587C315.579 305.202 317.013 305.189 318.825 304.273C319.215 304.072 319.366 303.595 319.177 303.206C318.976 302.817 318.511 302.653 318.108 302.854C316.447 303.695 315.39 303.444 314.371 303.08C313.956 302.93 313.503 303.143 313.365 303.557C313.214 303.984 313.428 304.436 313.843 304.587Z" fill="#FFC107"/>
<path d="M289.536 328.464H289.523C289.095 328.464 288.743 328.803 288.73 329.242C288.718 329.682 289.07 330.046 289.511 330.046C311.314 330.46 322.851 352.102 326.802 361.379C326.978 361.794 327.443 361.969 327.846 361.794C328.249 361.618 328.437 361.153 328.261 360.752C324.185 351.186 312.27 328.903 289.536 328.464Z" fill="#FFC107"/>
<path d="M296.946 324.949C297.902 325.551 298.594 326.329 298.997 327.258C299.173 327.66 299.638 327.836 300.041 327.673C300.444 327.497 300.632 327.032 300.456 326.631C299.915 325.4 299.022 324.384 297.789 323.605C297.424 323.379 296.933 323.48 296.694 323.856C296.455 324.22 296.569 324.71 296.946 324.949Z" fill="#FFC107"/>
<path d="M306.722 329.179C307.804 329.694 308.332 330.434 308.433 331.614C308.471 332.029 308.81 332.343 309.226 332.343C309.691 332.343 310.056 331.941 310.018 331.489C309.867 329.769 308.987 328.514 307.401 327.76C307.011 327.572 306.533 327.748 306.344 328.137C306.156 328.514 306.319 328.991 306.722 329.179Z" fill="#FFC107"/>
<path d="M313.34 344.093C313.088 343.742 312.585 343.654 312.232 343.905C311.264 344.595 310.018 344.947 308.823 344.846C308.395 344.809 308.005 345.135 307.967 345.574C307.917 346.303 308.534 346.441 309.213 346.441C310.609 346.441 311.993 346.001 313.138 345.185C313.503 344.947 313.591 344.457 313.34 344.093Z" fill="#FFC107"/>
<path d="M302.495 337.979C301.4 338.557 300.205 338.757 298.947 338.556C298.506 338.481 298.104 338.782 298.041 339.222C297.978 339.649 298.267 340.063 298.707 340.126C300.318 340.364 301.878 340.101 303.237 339.385C303.627 339.184 303.778 338.707 303.564 338.318C303.363 337.929 302.885 337.778 302.495 337.979Z" fill="#FFC107"/>
<path d="M293.65 333.284C292.329 334.602 291.247 334.703 290.177 334.677C289.762 334.703 289.372 335.016 289.372 335.456C289.36 335.895 289.649 336.272 290.379 336.272C291.737 336.272 293.197 336.008 294.782 334.414C295.097 334.1 295.084 333.598 294.782 333.297C294.468 332.983 293.964 332.983 293.65 333.284Z" fill="#FFC107"/>
<path d="M315.327 336.008C315.265 336.435 315.579 336.837 316.007 336.9C316.447 336.962 316.837 336.649 316.9 336.222C317.127 334.514 316.699 332.719 315.717 331.301C315.466 330.937 314.975 330.849 314.61 331.1C314.245 331.351 314.157 331.841 314.409 332.205C315.176 333.297 315.504 334.69 315.327 336.008Z" fill="#FFC107"/>
<path d="M325.078 298.812C325.116 299.226 325.456 299.528 325.871 299.528C326.349 299.528 326.701 299.126 326.663 298.662C326.538 297.318 326.009 296.075 325.091 294.958C324.814 294.619 324.311 294.569 323.971 294.845C323.631 295.121 323.581 295.624 323.858 295.962C324.575 296.841 324.99 297.795 325.078 298.812Z" fill="#FFC107"/>
<path d="M55.7859 163.485L58.4532 164.238C58.8935 164.364 59.3213 164.1 59.4345 163.698C59.5603 163.284 59.3087 162.845 58.8935 162.719L56.2263 161.966C55.8111 161.853 55.3707 162.092 55.2449 162.506C55.1191 162.933 55.3582 163.372 55.7859 163.485Z" fill="#FFC107"/>
<path d="M136.282 145.194C136.672 145.383 137.15 145.232 137.339 144.83L138.446 142.608C138.634 142.219 138.483 141.742 138.081 141.554C137.691 141.353 137.213 141.516 137.024 141.918L135.917 144.14C135.728 144.516 135.892 144.993 136.282 145.194Z" fill="#FFC107"/>
<path d="M110.704 152.601C111.144 152.601 111.496 152.249 111.496 151.81V147.893C111.496 147.454 111.144 147.103 110.704 147.103C110.263 147.103 109.911 147.454 109.911 147.893V151.81C109.911 152.249 110.263 152.601 110.704 152.601Z" fill="#FFC107"/>
<path d="M96.1973 75.1581C95.757 75.0954 95.367 75.4092 95.3041 75.836C95.2412 76.2628 95.5431 76.6646 95.9835 76.7273C98.5626 77.0788 99.9843 75.6101 98.1978 72.9864C97.1661 71.4674 96.8264 69.4965 97.3045 67.7139C97.4177 67.2871 97.1661 66.8602 96.7383 66.7473C96.3106 66.6343 95.8828 66.8854 95.7696 67.3122C95.1782 69.5216 95.5934 71.9821 96.9271 73.953C97.6568 75.0075 97.7448 75.3716 96.1973 75.1581Z" fill="#FFC107"/>
<path d="M100.148 70.0488C100.576 70.0488 100.928 69.6973 100.928 69.2705C100.928 68.8437 100.576 68.4922 100.148 68.4922C99.7202 68.4922 99.3679 68.8437 99.3679 69.2705C99.3805 69.6973 99.7202 70.0488 100.148 70.0488Z" fill="#FFC107"/>
<path d="M90.888 68.379C90.9006 68.3664 91.6681 67.6007 93.052 68.2158C93.4546 68.3915 93.9201 68.2158 94.0963 67.8141C94.2724 67.4124 94.0963 66.9479 93.6937 66.7721C91.3158 65.7176 89.806 67.2115 89.7431 67.2743C89.4411 67.5881 89.4412 68.0902 89.7557 68.3915C90.0828 68.6928 90.5861 68.6928 90.888 68.379Z" fill="#FFC107"/>
<path d="M92.0077 68.5049C91.5799 68.5049 91.2277 68.8564 91.2277 69.2832C91.2277 69.71 91.5799 70.0615 92.0077 70.0615C92.4355 70.0615 92.7878 69.71 92.7878 69.2832C92.7878 68.8438 92.4355 68.5049 92.0077 68.5049Z" fill="#FFC107"/>
<path d="M93.7818 78.8361C93.6434 79.2504 93.8698 79.7023 94.285 79.8404C94.3605 79.8655 95.3544 80.1919 96.5874 80.1919C97.5058 80.1919 98.5501 80.0162 99.4434 79.4011C99.8082 79.15 99.8963 78.6604 99.6447 78.2963C99.3931 77.9323 98.9024 77.8444 98.5375 78.0955C97.0907 79.0872 94.8008 78.3466 94.7757 78.3466C94.3731 78.1959 93.9201 78.4219 93.7818 78.8361Z" fill="#FFC107"/>
<path d="M21.2122 235.617C16.3558 237.124 13.6256 242.283 15.1354 247.104C16.5948 251.812 21.5645 254.661 26.6473 253.155C31.5163 251.648 34.2088 246.476 32.7116 241.668C31.227 236.848 26.0686 234.124 21.2122 235.617ZM26.1818 251.636C22.1684 252.904 17.8781 250.657 16.6577 246.639C15.4373 242.71 17.5887 238.404 21.6903 237.136C26.4083 235.63 31.5415 239.183 31.5415 244.392C31.5415 247.619 29.453 250.644 26.1818 251.636Z" fill="#FFC107"/>
<path d="M399.598 256.381H493.027C493.505 256.381 493.895 255.979 493.895 255.515V228.299C493.895 227.809 493.493 227.433 493.027 227.433H399.598C399.132 227.433 398.742 227.809 398.742 228.299V255.515C398.742 255.992 399.145 256.381 399.598 256.381ZM477.225 235.454C480.798 235.454 483.679 238.354 483.679 241.894C483.679 245.46 480.785 248.347 477.225 248.347C473.677 248.347 470.771 245.447 470.771 241.894C470.771 238.354 473.677 235.454 477.225 235.454ZM456.617 235.454C460.19 235.454 463.071 238.354 463.071 241.894C463.071 245.46 460.177 248.347 456.617 248.347C453.069 248.347 450.162 245.447 450.162 241.894C450.162 238.354 453.069 235.454 456.617 235.454ZM436.008 235.454C439.581 235.454 442.463 238.354 442.463 241.894C442.463 245.46 439.569 248.347 436.008 248.347C432.448 248.347 429.554 245.447 429.554 241.894C429.554 238.354 432.435 235.454 436.008 235.454ZM415.4 235.454C418.973 235.454 421.854 238.354 421.854 241.894C421.854 245.46 418.96 248.347 415.4 248.347C411.827 248.347 408.946 245.447 408.946 241.894C408.946 238.354 411.827 235.454 415.4 235.454Z" fill="#2D3C58"/>
<path d="M346.026 232.592H375.995C376.435 232.592 376.788 232.241 376.788 231.801C376.788 231.362 376.435 231.01 375.995 231.01H346.026C345.586 231.01 345.234 231.362 345.234 231.801C345.234 232.241 345.586 232.592 346.026 232.592Z" fill="#FFC107"/>
<path d="M346.026 239.333H375.995C376.435 239.333 376.788 238.982 376.788 238.542C376.788 238.103 376.435 237.751 375.995 237.751H346.026C345.586 237.751 345.234 238.103 345.234 238.542C345.234 238.982 345.586 239.333 346.026 239.333Z" fill="#FFC107"/>
<path d="M346.026 246.062H375.995C376.435 246.062 376.788 245.711 376.788 245.271C376.788 244.832 376.435 244.48 375.995 244.48H346.026C345.586 244.48 345.234 244.832 345.234 245.271C345.234 245.711 345.586 246.062 346.026 246.062Z" fill="#FFC107"/>
<path d="M346.026 252.803H375.995C376.435 252.803 376.788 252.452 376.788 252.013C376.788 251.573 376.435 251.222 375.995 251.222H346.026C345.586 251.222 345.234 251.573 345.234 252.013C345.234 252.452 345.586 252.803 346.026 252.803Z" fill="#FFC107"/>
<path d="M399.598 312.985H493.027C493.505 312.985 493.895 312.583 493.895 312.119V284.89C493.895 284.413 493.493 284.037 493.027 284.037H399.598C399.132 284.037 398.742 284.413 398.742 284.89V312.119C398.742 312.583 399.145 312.985 399.598 312.985ZM477.225 292.046C480.798 292.046 483.679 294.946 483.679 298.486C483.679 302.051 480.785 304.926 477.225 304.926C473.677 304.926 470.771 302.038 470.771 298.486C470.771 294.946 473.677 292.046 477.225 292.046ZM456.617 292.046C460.19 292.046 463.071 294.946 463.071 298.486C463.071 302.051 460.177 304.926 456.617 304.926C453.069 304.926 450.162 302.038 450.162 298.486C450.162 294.946 453.069 292.046 456.617 292.046ZM436.008 292.046C439.581 292.046 442.463 294.946 442.463 298.486C442.463 302.051 439.569 304.926 436.008 304.926C432.448 304.926 429.554 302.038 429.554 298.486C429.554 294.946 432.435 292.046 436.008 292.046ZM415.4 292.046C418.973 292.046 421.854 294.946 421.854 298.486C421.854 302.051 418.96 304.926 415.4 304.926C411.827 304.926 408.946 302.038 408.946 298.486C408.946 294.946 411.827 292.046 415.4 292.046Z" fill="#2D3C58"/>
<path d="M346.026 289.171H375.995C376.435 289.171 376.788 288.82 376.788 288.38C376.788 287.941 376.435 287.589 375.995 287.589H346.026C345.586 287.589 345.234 287.941 345.234 288.38C345.234 288.82 345.586 289.171 346.026 289.171Z" fill="#FFC107"/>
<path d="M346.026 295.912H375.995C376.435 295.912 376.788 295.561 376.788 295.121C376.788 294.682 376.435 294.331 375.995 294.331H346.026C345.586 294.331 345.234 294.682 345.234 295.121C345.234 295.561 345.586 295.912 346.026 295.912Z" fill="#FFC107"/>
<path d="M346.026 302.654H375.995C376.435 302.654 376.788 302.302 376.788 301.863C376.788 301.423 376.435 301.072 375.995 301.072H346.026C345.586 301.072 345.234 301.423 345.234 301.863C345.234 302.302 345.586 302.654 346.026 302.654Z" fill="#FFC107"/>
<path d="M346.026 309.395H375.995C376.435 309.395 376.788 309.043 376.788 308.604C376.788 308.164 376.435 307.813 375.995 307.813H346.026C345.586 307.813 345.234 308.164 345.234 308.604C345.234 309.043 345.586 309.395 346.026 309.395Z" fill="#FFC107"/>
<path d="M399.598 369.576H493.027C493.505 369.576 493.895 369.175 493.895 368.71V341.482C493.895 341.005 493.493 340.628 493.027 340.628H399.598C399.132 340.628 398.742 341.005 398.742 341.482V368.698C398.742 369.175 399.145 369.576 399.598 369.576ZM477.225 348.65C480.798 348.65 483.679 351.55 483.679 355.09C483.679 358.655 480.785 361.53 477.225 361.53C473.677 361.53 470.771 358.642 470.771 355.09C470.771 351.537 473.677 348.65 477.225 348.65ZM456.617 348.65C460.19 348.65 463.071 351.55 463.071 355.09C463.071 358.655 460.177 361.53 456.617 361.53C453.069 361.53 450.162 358.642 450.162 355.09C450.162 351.537 453.069 348.65 456.617 348.65ZM436.008 348.65C439.581 348.65 442.463 351.55 442.463 355.09C442.463 358.655 439.569 361.53 436.008 361.53C432.448 361.53 429.554 358.642 429.554 355.09C429.554 351.537 432.435 348.65 436.008 348.65ZM415.4 348.65C418.973 348.65 421.854 351.55 421.854 355.09C421.854 358.655 418.96 361.53 415.4 361.53C411.827 361.53 408.946 358.642 408.946 355.09C408.946 351.537 411.827 348.65 415.4 348.65Z" fill="#2D3C58"/>
<path d="M346.026 345.775H375.995C376.435 345.775 376.788 345.424 376.788 344.984C376.788 344.545 376.435 344.193 375.995 344.193H346.026C345.586 344.193 345.234 344.545 345.234 344.984C345.234 345.411 345.586 345.775 346.026 345.775Z" fill="#FFC107"/>
<path d="M346.026 352.504H375.995C376.435 352.504 376.788 352.152 376.788 351.713C376.788 351.273 376.435 350.922 375.995 350.922H346.026C345.586 350.922 345.234 351.273 345.234 351.713C345.234 352.152 345.586 352.504 346.026 352.504Z" fill="#FFC107"/>
<path d="M346.026 359.245H375.995C376.435 359.245 376.788 358.893 376.788 358.454C376.788 358.015 376.435 357.663 375.995 357.663H346.026C345.586 357.663 345.234 358.015 345.234 358.454C345.234 358.893 345.586 359.245 346.026 359.245Z" fill="#FFC107"/>
<path d="M346.026 365.986H375.995C376.435 365.986 376.788 365.635 376.788 365.195C376.788 364.756 376.435 364.404 375.995 364.404H346.026C345.586 364.404 345.234 364.756 345.234 365.195C345.234 365.635 345.586 365.986 346.026 365.986Z" fill="#FFC107"/>
<path d="M359.388 154.02C359.274 154.509 359.652 154.986 360.155 154.986C360.52 154.986 360.847 154.735 360.922 154.371C362.847 145.923 359.929 136.897 353.072 131.172C352.732 130.896 352.241 130.934 351.952 131.273C351.675 131.611 351.713 132.101 352.053 132.39C358.519 137.763 361.162 146.186 359.388 154.02Z" fill="#FFC107"/>
<path d="M523.109 376.406H513.95V332.933C513.95 332.531 513.636 332.217 513.233 332.217C510.868 332.205 521.776 332.255 490.159 332.129C490.284 331.69 490.184 332.531 490.221 321.446C492.574 321.434 481.691 321.471 513.233 321.371C513.636 321.371 513.95 321.044 513.95 320.655V276.316C513.95 275.927 513.636 275.601 513.233 275.601C510.868 275.588 521.776 275.626 490.159 275.525C490.284 275.086 490.184 275.927 490.221 264.842C492.574 264.83 481.691 264.88 513.233 264.754C513.636 264.754 513.95 264.441 513.95 264.039V219.712C513.95 219.31 513.636 218.997 513.233 218.997C492.675 218.884 470.418 218.934 425.465 218.921V3.21362C425.465 2.64871 425.025 2.19678 424.446 2.19678C404.353 2.20933 186.658 2.39763 158.513 2.42274C158.073 2.42274 157.72 2.77424 157.72 3.21362V121.945L135.678 137.938C134.545 133.997 130.519 120.702 125.185 112.831C118.177 102.462 107.055 94.1265 94.5492 90.8123L94.4863 83.5564C103.369 84.0083 104.262 73.752 103.18 65.1277C107.999 62.1274 106.086 56.3403 106.086 56.3403C107.936 54.1057 107.923 50.9548 105.596 49.3981C110.175 39.1168 86.6103 40.2843 79.376 48.2307C60.3026 52.1976 79.5522 80.4054 79.5648 88.8916C66.1152 89.0925 50.9672 94.026 44.7394 106.203C36.1589 121.92 34.5737 156.279 36.5867 165.406C38.9646 176.038 48.9416 198.974 52.7286 207.962L51.6844 225.449C39.732 211.49 17.6265 214.264 9.197 230.22C2.62951 242.61 7.19656 258.314 20.017 265.056C26.1316 268.307 33.2023 268.897 39.7195 266.888C43.4561 265.734 46.765 263.775 49.5204 261.264L48.0232 286.12L54.8297 292.937C55.1317 293.251 55.1317 293.741 54.8171 294.067C54.5529 294.356 54.0119 294.368 53.71 294.067L47.8974 288.242L43.7204 357.374H47.5074C47.5703 375.703 47.3312 375.213 48.0735 376.406H0.792628C0.352279 376.406 0 376.757 0 377.197C0 377.636 0.352279 377.987 0.792628 377.987C406.19 377.987 -532.055 377.987 523.109 377.987C523.55 377.987 523.902 377.636 523.902 377.197C523.902 376.757 523.55 376.406 523.109 376.406ZM500.4 376.406H336.716V333.711H500.387V376.406H500.4ZM292.757 357.927C287.057 335.017 275.986 329.116 271.897 327.685C285.912 316.563 304.042 313.487 319.228 323.718C326.173 328.401 332.048 334.489 335.017 342.348V366.35C333.42 371.208 331.381 374.686 330.777 375.665C314.761 378.477 296.682 373.744 292.757 357.927ZM309.678 317.366C309.087 300.143 302.193 293 299.223 290.715C304.017 288.958 320.549 283.974 335.017 292.51V338.419C331.721 331.954 326.185 326.505 320.121 322.4C316.686 320.09 312.95 318.371 309.678 317.366ZM335.131 370.543V376.418H332.161C332.665 375.602 333.873 373.543 335.131 370.543ZM346.945 332.129H336.603V321.446H346.894C346.919 332.581 346.831 331.702 346.945 332.129ZM500.4 319.877C487.567 319.839 341.459 319.199 336.728 319.877V277.132H500.4V319.877ZM500.4 263.286C314.246 262.896 346.756 263.286 336.728 263.286V220.541H500.4V263.286ZM177.423 80.1292C177.423 77.3675 179.537 75.0702 182.33 74.7689C196.207 73.3503 206.209 69.3332 212.877 62.5166C213.406 62.0019 213.947 61.6378 214.538 61.3617V108.337H184.808C187.765 105.45 186.544 102.136 186.557 100.742C186.507 100.328 186.142 100.027 185.752 100.027C183.575 100.077 180.379 100.303 177.863 100.705C177.184 94.2394 177.511 90.398 177.423 80.1292ZM343.46 121.204C356.557 123.678 366.068 135.214 366.068 148.647C366.068 164.025 353.512 176.541 338.087 176.541H245.941C235.989 176.566 226.302 171.168 221.256 161.828C221.672 161.376 258.296 141.478 258.447 95.8714C265.644 92.3941 273.884 92.5824 280.565 95.6203C280.98 95.8086 281.471 95.6078 281.635 95.1935C297.663 54.4196 360.382 79.0245 342.881 120.112C342.679 120.577 342.969 121.104 343.46 121.204ZM219.709 160.911V113.936H254.572C249.577 134.649 235.071 152.563 219.709 160.911ZM185.047 101.646C185.022 101.809 186.293 106.68 181.99 108.337L177.775 109.969C177.284 110.157 177.108 110.785 177.448 111.212C179.977 114.275 178.417 120.238 176.303 124.217C176.102 124.606 176.24 125.084 176.63 125.284C177.033 125.498 177.511 125.335 177.712 124.958C179.033 122.472 179.75 120.313 180.078 118.455C181.235 121.983 182.632 125.422 184.242 128.762C181.323 130.306 179.964 130.946 177.347 132.339C175.032 129.653 183.248 139.194 166.074 119.234C171.849 102.249 172.428 102.085 185.047 101.646ZM335.923 218.946C335.483 218.946 335.131 219.298 335.131 219.737V225.675H159.318V157.848C170.44 148.057 179.461 137.399 180.128 136.595C180.379 136.294 180.379 135.867 180.128 135.566L178.392 133.545C181.109 132.114 182.216 131.599 184.934 130.155C189.941 140.022 209.757 166.862 219.885 162.568C225.043 172.109 234.983 178.11 245.941 178.11H338.087C354.393 178.11 367.666 164.891 367.666 148.634C367.666 134.762 358.067 122.799 344.705 119.824C361.325 77.5181 297.915 52.4612 280.464 93.8377C273.733 91.0132 265.644 90.8751 258.447 94.1139V80.2297C258.447 76.6142 255.692 73.6265 252.031 73.2875C238.355 72.0824 228.252 68.0151 221.999 61.1985C219.168 58.2233 214.714 58.5371 211.77 61.4119C205.354 67.9648 195.666 71.8188 182.179 73.2122C178.568 73.5888 175.85 76.564 175.85 80.1418C175.951 90.3353 175.586 93.9884 176.316 100.993C171.988 101.91 170.289 102.362 164.867 117.84L164.779 117.74C164.514 117.438 164.049 117.376 163.722 117.627L159.343 120.79V49.9882H407.587V218.946H335.923ZM396.779 20.6128V32.6015C396.779 33.317 396.213 33.8819 395.496 33.8819H268.16C267.468 33.8819 266.889 33.317 266.889 32.6015V20.6128C266.889 19.9224 267.455 19.3449 268.16 19.3449H395.496C396.201 19.3449 396.779 19.9224 396.779 20.6128ZM226.968 26.6009C226.968 30.3795 223.924 33.4175 220.137 33.4175C216.375 33.4175 213.318 30.3795 213.318 26.6009C213.318 22.8348 216.375 19.7969 220.137 19.7969C223.924 19.7843 226.968 22.8348 226.968 26.6009ZM206.524 26.6009C206.524 30.3795 203.466 33.4175 199.692 33.4175C195.93 33.4175 192.86 30.3795 192.86 26.6009C192.86 22.8348 195.943 19.7969 199.692 19.7969C203.454 19.7843 206.524 22.8348 206.524 26.6009ZM186.054 26.6009C186.054 30.3795 183.009 33.4175 179.222 33.4175C175.46 33.4175 172.403 30.3795 172.403 26.6009C172.403 22.8348 175.46 19.7969 179.222 19.7969C183.009 19.7843 186.054 22.8348 186.054 26.6009ZM77.7782 70.7141C77.7027 69.0444 77.904 67.7012 78.6715 67.2995C80.1183 66.5463 81.3639 68.9064 81.0871 73.1118L83.1505 66.9857C83.1505 66.9857 87.2268 65.2784 85.4403 61.8387C85.4403 61.8387 92.1336 60.7466 96.9648 59.9055L97.1787 62.6547L101.57 64.839C101.658 65.4667 101.733 66.1069 101.796 66.7597C99.4559 65.7554 97.9839 67.2242 97.921 67.2869C97.6191 67.6008 97.6191 68.1029 97.9336 68.4042C98.2481 68.7055 98.7514 68.7055 99.0533 68.3917C99.0659 68.3791 99.8334 67.6133 101.217 68.2285C101.456 68.3289 101.695 68.3038 101.909 68.1908C103.218 88.9293 88.7618 81.259 87.4281 78.5977C87.2142 78.196 86.7487 78.0202 86.3335 78.1834C85.8932 78.3592 85.6919 78.8237 85.8303 79.263C85.9184 79.5267 87.9691 85.8285 93.0017 87.6865C93.0143 88.6029 93.1149 101.985 93.1023 101.131C92.7123 100.742 95.4425 103.416 81.2129 89.4691C81.4142 87.0588 80.4832 84.5355 77.7782 70.7141ZM38.1468 165.067C36.6496 158.313 37.1654 137.524 41.116 121.079C41.267 122.761 41.6696 124.481 42.4496 126.163C42.6258 126.565 43.1039 126.728 43.5065 126.552C43.9091 126.364 44.0852 125.899 43.8965 125.498C41.2041 119.673 43.2171 112.354 46.1611 106.956C52.9677 93.6369 68.015 92.5196 71.9404 91.1638L97.1535 145.232L101.28 94.8545C111.433 99.2106 115.346 104.483 116.957 111.902C117.057 112.342 117.485 112.605 117.9 112.505C118.328 112.417 118.605 111.99 118.504 111.563C117.875 108.638 116.843 106.228 115.686 104.245C118.768 107.057 121.549 110.233 123.914 113.71C129.475 121.945 133.753 136.821 134.394 139.131L132.256 142.96C132.042 143.336 132.18 143.826 132.558 144.039C132.948 144.253 133.426 144.115 133.64 143.738L135.854 139.759L164.036 119.309C171.145 127.557 165.131 120.589 178.492 136.068C176.542 138.328 168.364 147.642 158.563 156.329C159.306 153.254 158.563 150.492 158.526 150.329C158.412 149.902 157.972 149.663 157.544 149.776C157.116 149.889 156.877 150.329 156.991 150.756C157.003 150.806 158.211 155.262 155.783 158.74C133.099 177.896 126.456 174.582 114.541 163.811C114.566 158.099 114.528 152.35 114.541 147.441C114.541 147.002 114.189 146.651 113.748 146.651C113.308 146.651 112.956 147.002 112.956 147.441C112.843 176.591 114.39 163.874 114.365 182.955C113.358 180.558 112.062 178.65 110.918 177.294C110.641 176.955 110.138 176.917 109.798 177.193C109.458 177.469 109.42 177.972 109.697 178.311C115.296 184.951 114.226 190.337 114.164 198.321C113.987 198.371 113.472 198.534 108.338 200.154C107.407 200.468 106.992 201.409 107.256 202.213C107.307 202.376 109.471 209.167 109.42 209.004L107.433 209.632C107.382 209.468 103.62 197.58 103.671 197.743C103.381 196.877 102.45 196.4 101.595 196.664L95.9583 198.434C95.1028 198.723 94.6373 199.601 94.9015 200.505L96.7384 206.305H78.7595L64.8319 162.33C67.0588 156.304 67.7257 153.128 67.6376 144.667C67.6376 144.265 67.3356 143.952 66.845 143.889C66.3794 143.889 66.0649 144.303 66.0649 144.68C66.0649 144.68 66.0649 144.68 66.0649 144.692C66.1404 152.099 65.7126 155.312 63.5235 161.338L56.8553 159.217C56.4401 159.091 55.9872 159.317 55.8614 159.731C55.723 160.146 55.962 160.598 56.3772 160.723L63.3725 162.945L72.0285 190.287C69.9777 187.738 67.9521 186.659 67.8263 186.583C67.4363 186.383 66.9582 186.533 66.7569 186.922C66.5556 187.311 66.7066 187.789 67.0966 187.989C74.2931 191.768 76.2433 204.949 77.3127 206.933C77.1491 206.97 60.202 211.276 56.4779 212.444C51.936 202.213 40.5876 176.013 38.1468 165.067ZM73.3244 226.592C72.9092 225.813 71.6888 226.177 71.8523 227.094C71.8775 227.257 73.5634 233.584 72.255 234.35C70.9717 234.689 68.1157 225.951 68.0402 225.776C67.6627 225.11 66.5933 225.248 66.5556 226.215C66.5556 226.742 68.9209 234.375 67.474 234.626C63.687 235.241 59.8749 217.151 59.1829 213.385C59.3464 213.348 75.3626 209.117 74.3435 209.381C78.9734 210.51 84.3708 214.603 86.5977 216.411C85.0125 216.976 82.2823 217.904 80.1183 218.457C79.6277 218.582 79.376 219.122 79.6025 219.574C80.7977 222.009 83.4776 228.864 81.15 230.27C80.1435 230.546 78.6841 227.069 77.5266 225.261C76.9352 224.432 75.7274 225.198 76.1426 226.052C76.8849 227.596 78.6463 232.655 77.124 233.308C76.2307 233.709 74.4944 228.814 73.3244 226.592ZM39.2414 265.382C33.0513 267.303 26.4838 266.7 20.7467 263.675C9.02086 257.486 4.29026 242.861 10.6061 230.96C18.6582 215.695 40.0088 213.41 50.9798 227.069C51.7221 228.035 52.0241 228.801 52.7664 228.588L60.592 226.127C61.6866 229.63 64.1525 236.848 67.7634 236.208C68.9712 235.994 69.4241 234.94 69.5122 233.722C70.2923 235.053 71.3994 236.383 72.8337 235.831C73.9912 235.404 74.2554 233.684 74.2931 232.454C75.0103 233.797 76.0671 235.341 77.5266 234.889C79.1118 234.387 79.376 232.718 79.2376 231.061C79.9674 231.814 80.8229 232.165 81.7791 231.764C85.5409 229.843 82.6346 222.436 81.452 219.762C81.6155 219.712 98.5878 214.164 99.9089 213.712C100.337 213.586 100.551 213.096 100.437 212.72C100.387 212.557 96.3987 199.827 96.449 199.991L102.148 198.271C102.199 198.434 106.2 211.088 106.149 210.925C106.262 211.301 106.703 211.59 107.143 211.452L110.653 210.347C111.069 210.209 111.308 209.757 111.182 209.356C109.232 203.066 110.402 206.845 108.816 201.736C108.98 201.685 114.893 199.865 114.528 199.978C114.579 200.141 117.082 208.025 116.919 207.535C117.057 207.95 117.51 208.188 117.913 208.062L122.543 206.606C122.971 206.481 123.184 205.991 123.071 205.615L119.108 192.898L124.82 191.14L128.821 203.807C128.947 204.234 129.437 204.447 129.815 204.334L135.577 202.501C136.433 202.238 137.351 202.702 137.603 203.543L140.899 213.963C141.163 214.841 140.71 215.695 139.855 215.959L56.8805 242.145C56.566 242.258 56.3395 242.547 56.3269 242.886C56.0753 253.23 49.2058 262.306 39.2414 265.382ZM49.382 361.141C49.5455 361.191 58.8432 364.003 58.2644 363.84C58.277 363.84 58.277 363.84 58.2896 363.84C58.5287 363.902 58.8054 363.827 58.9438 363.739C59.1074 363.626 64.7061 359.86 64.3538 360.111L76.7843 367.518C76.8849 367.581 76.9981 367.618 77.1114 367.618L83.1127 368.246C85.3648 368.484 87.2142 369.853 88.1704 371.761H49.1807L49.382 361.141ZM83.2637 366.664L77.4385 366.049L65.0961 358.693L65.0458 357.362H70.481L83.9808 278.224C83.6789 278.162 83.4776 277.873 83.5405 277.572L89.114 247.631C89.1769 247.33 89.4789 247.142 89.7683 247.192C90.0702 247.255 90.2715 247.543 90.2086 247.845L84.6225 277.81C84.5721 278.061 84.3708 278.224 84.1318 278.237L93.7817 357.387H98.764L99.0911 359.91C99.003 374.874 98.3991 374.924 99.3427 376.418H89.9318C90.2589 375.904 90.4477 375.301 90.4477 374.648C90.4477 370.518 87.3526 367.103 83.2637 366.664ZM100.462 371.748L100.651 361.141C100.815 361.191 110.112 364.003 109.534 363.84C109.546 363.84 109.546 363.84 109.559 363.84C109.798 363.902 110.075 363.827 110.213 363.739C110.439 363.588 115.963 359.873 115.623 360.111L128.053 367.518C128.154 367.581 128.267 367.618 128.381 367.618L134.382 368.246C136.634 368.484 138.483 369.853 139.44 371.761H100.462V371.748ZM114.793 358.755C114.629 358.868 109.307 362.446 109.647 362.208C109.483 362.157 100.035 359.295 100.639 359.471L100.374 357.374H114.742L114.793 358.755ZM115.497 287.414L111.849 291.067C111.547 291.368 111.069 291.393 110.716 291.079C110.402 290.765 110.402 290.251 110.716 289.949L114.365 286.271C114.679 285.97 115.17 285.97 115.497 286.271C115.824 286.585 115.824 287.1 115.497 287.414ZM49.5707 297.306C49.8852 297.004 50.4011 297.004 50.703 297.306L54.3642 300.984C54.6662 301.298 54.6662 301.787 54.3516 302.114C54.0874 302.402 53.5464 302.415 53.2445 302.114L49.5833 298.436C49.2687 298.109 49.2687 297.62 49.5707 297.306ZM63.4606 357.387L63.5109 358.755C63.3473 358.868 58.0254 362.446 58.3651 362.22C58.2015 362.17 48.7529 359.308 49.3568 359.483L49.0926 357.387H63.4606ZM166.754 376.318H163.873C162.753 374.297 161.482 372.74 160.463 371.66C162.891 372.313 165.005 373.87 166.754 376.318ZM161.205 365.308C167.785 366.463 171.912 371.598 174.366 376.318H168.717C166.502 370.983 163.256 367.279 161.205 365.308ZM176.605 376.318C173.887 365.622 167.471 358.63 164.25 355.667C171.006 356.571 176.655 360.601 181.046 367.693C181.361 368.196 182.091 368.196 182.392 367.693C186.796 360.601 192.445 356.558 199.201 355.667C195.98 358.63 189.564 365.622 186.846 376.318H176.605ZM196.698 376.318C198.446 373.87 200.547 372.313 202.976 371.66C201.957 372.74 200.686 374.297 199.566 376.318H196.698ZM194.71 376.318H189.061C191.514 371.598 195.641 366.463 202.221 365.308C200.183 367.279 196.937 370.983 194.71 376.318ZM211.493 376.406C212.16 369.024 215.972 362.007 221.885 357.5C222.238 357.236 222.301 356.734 222.036 356.395C221.772 356.044 221.269 355.981 220.929 356.245C214.626 361.04 210.575 368.535 209.908 376.406H201.365C203.403 373.029 205.832 371.171 205.857 371.158C206.134 370.957 206.247 370.593 206.134 370.267C206.02 369.941 205.693 369.715 205.366 369.74C202.976 369.802 200.787 370.543 198.849 371.911C201.818 367.38 205.052 364.957 205.089 364.919C205.366 364.718 205.479 364.354 205.366 364.028C205.253 363.701 204.926 363.501 204.599 363.488C197.805 363.651 193.15 367.43 190.017 371.748C194.295 361.178 201.957 355.378 202.045 355.316C202.661 354.864 202.334 353.872 201.554 353.885C193.514 354.073 186.846 358.09 181.713 365.798C176.592 358.09 169.924 354.073 161.885 353.885C161.029 353.91 160.828 354.889 161.394 355.316C161.482 355.378 169.144 361.166 173.422 371.748C170.289 367.417 165.634 363.639 158.84 363.475C158.035 363.488 157.746 364.455 158.349 364.907C158.387 364.944 161.621 367.367 164.59 371.899C162.652 370.531 160.463 369.79 158.073 369.727C157.28 369.702 156.978 370.706 157.582 371.158C157.607 371.183 160.035 373.029 162.074 376.406H141.188C141.516 375.891 141.704 375.288 141.704 374.636C141.704 370.518 138.609 367.103 134.52 366.677L128.695 366.062L116.353 358.705L116.302 357.387H121.335L117.611 276.806L111.396 283.045C111.094 283.346 110.616 283.371 110.263 283.057C109.961 282.744 109.949 282.254 110.263 281.928L117.51 274.672L115.22 225.349L140.333 217.427C142.031 216.9 142.95 215.092 142.421 213.435L139.125 203.016C138.597 201.359 136.81 200.417 135.112 200.932L130.104 202.526L126.33 190.588C126.028 189.734 125.122 189.27 124.266 189.546L118.63 191.329C117.712 191.63 117.284 192.546 117.535 193.4L121.31 205.276L118.202 206.255C115.183 196.915 115.711 199.991 115.824 192.383C115.988 184.211 116.265 174.432 114.931 166.309C125.789 175.649 133.287 180.156 157.733 159.217V226.466C157.733 226.905 158.085 227.257 158.526 227.257H335.131V264.064C335.131 264.503 335.483 264.855 335.923 264.855H346.882C346.919 275.977 346.819 275.098 346.945 275.538H335.923C335.483 275.538 335.131 275.889 335.131 276.329V290.765C317.554 280.911 297.412 289.711 297.21 289.799C296.606 290.062 296.581 290.916 297.16 291.217C297.261 291.267 307.2 296.716 308.055 316.914C287.321 311.642 269.884 327.271 269.682 327.459C269.192 327.911 269.443 328.715 270.085 328.828C270.223 328.853 284.528 331.489 291.196 358.303C293.65 368.158 301.111 373.882 310.106 376.418H211.493V376.406Z" fill="white"/>
<path d="M319.53 353.257C319.303 352.88 318.813 352.767 318.435 352.993C317.164 353.772 315.629 354.136 314.145 353.985C313.717 353.947 313.327 354.261 313.277 354.701C313.239 355.14 313.554 355.517 313.994 355.567C315.78 355.73 317.655 355.328 319.266 354.337C319.643 354.111 319.756 353.621 319.53 353.257Z" fill="#FFC107"/>
<path d="M322.386 359.71C321.102 360.751 319.354 361.229 317.718 360.965C317.278 360.902 316.875 361.191 316.812 361.618C316.749 362.045 317.039 362.459 317.479 362.522C319.542 362.848 321.757 362.258 323.392 360.927C323.732 360.651 323.782 360.149 323.505 359.81C323.229 359.484 322.725 359.433 322.386 359.71Z" fill="#FFC107"/>
<path d="M322.587 343.064C323.002 343.139 323.43 342.85 323.493 342.411C323.707 341.068 323.732 339.712 323.556 338.356C323.505 337.917 323.115 337.615 322.675 337.666C322.235 337.716 321.933 338.118 321.983 338.544C322.134 339.75 322.109 340.955 321.92 342.147C321.857 342.587 322.159 343.001 322.587 343.064Z" fill="#FFC107"/>
<path d="M328.513 348.888C328.073 348.926 327.745 349.302 327.783 349.742C327.884 351.047 327.695 352.378 327.23 353.596C327.079 354.01 327.28 354.462 327.683 354.625C328.098 354.788 328.551 354.575 328.714 354.173C329.268 352.742 329.494 351.16 329.368 349.629C329.331 349.177 328.941 348.851 328.513 348.888Z" fill="#FFC107"/>
<path d="M322.876 80.5564C322.474 80.3932 322.008 80.594 321.845 80.9957C321.681 81.3975 321.882 81.8619 322.285 82.0251C330.803 85.3895 336.98 92.7208 338.804 101.659C338.892 102.086 339.32 102.362 339.735 102.274C340.163 102.186 340.44 101.772 340.352 101.345C338.427 91.8797 331.885 84.109 322.876 80.5564Z" fill="#FFC107"/>
<path d="M320.951 113.057C320.058 107.007 314.975 102.148 308.861 101.483C300.393 100.579 293.562 107.22 293.562 115.141C293.562 120.037 296.141 124.519 300.331 126.979L296.455 140.776C296.028 142.282 297.16 143.763 298.733 143.763H315.919C317.479 143.763 318.624 142.269 318.196 140.776L314.321 126.979C319.127 124.142 321.782 118.631 320.951 113.057ZM297.99 141.215L302.029 126.816C302.13 126.452 301.966 126.075 301.639 125.9C297.638 123.791 295.147 119.673 295.147 115.141C295.147 110.409 297.927 105.927 302.57 103.956C309.968 103.705 316.02 109.593 316.02 116.886C316.02 121.87 313.226 126.176 309.112 128.335L313 142.194H298.758C298.229 142.194 297.852 141.705 297.99 141.215Z" fill="#2D3C58"/>
<path d="M102.702 223.692L128.645 215.243C129.06 215.105 129.286 214.666 129.148 214.252C129.01 213.837 128.569 213.611 128.154 213.75L102.211 222.198C101.796 222.336 101.57 222.776 101.708 223.19C101.846 223.604 102.299 223.83 102.702 223.692Z" fill="#FFC107"/>
<path d="M468.946 8.67441C470.745 8.67441 472.192 7.2182 472.192 5.43559C472.192 3.64044 470.733 2.19678 468.946 2.19678C467.147 2.19678 465.7 3.64044 465.7 5.43559C465.7 7.23075 467.147 8.67441 468.946 8.67441Z" fill="#FFC107"/>
<path d="M442.89 60.7594C444.689 60.7594 446.136 59.3032 446.136 57.5206C446.136 55.7254 444.689 54.2817 442.89 54.2817C441.091 54.2817 439.644 55.7254 439.644 57.5206C439.632 59.3157 441.091 60.7594 442.89 60.7594Z" fill="#FFC107"/>
<path d="M458.428 138.981C458.139 139.307 458.164 139.809 458.491 140.098L460.819 142.182C461.146 142.47 461.649 142.445 461.938 142.119C462.228 141.793 462.203 141.29 461.876 141.002L459.548 138.918C459.221 138.629 458.718 138.654 458.428 138.981Z" fill="#FFC107"/>
<path d="M496.562 109.58C496.852 109.906 497.355 109.931 497.682 109.643L500.01 107.559C500.337 107.27 500.362 106.768 500.073 106.441C499.783 106.115 499.28 106.09 498.953 106.379L496.625 108.463C496.298 108.751 496.273 109.253 496.562 109.58Z" fill="#FFC107"/>
<path d="M470.142 187.738C470.456 188.027 470.959 188.015 471.261 187.688C471.563 187.362 471.538 186.86 471.211 186.571L468.519 184.11C468.204 183.822 467.701 183.834 467.399 184.161C467.097 184.487 467.122 184.989 467.449 185.278L470.142 187.738Z" fill="#FFC107"/>
<path d="M498.022 137.562C497.821 137.951 497.984 138.428 498.374 138.629C501.054 139.985 503.608 141.654 505.948 143.6C506.288 143.876 506.791 143.826 507.068 143.5C507.345 143.161 507.294 142.659 506.967 142.382C504.526 140.374 501.884 138.629 499.091 137.223C498.701 137.009 498.211 137.16 498.022 137.562Z" fill="#FFC107"/>
<path d="M215.117 246.803C216.916 246.803 218.363 245.347 218.363 243.564C218.363 241.769 216.916 240.325 215.117 240.325C213.318 240.325 211.871 241.769 211.871 243.564C211.871 245.359 213.33 246.803 215.117 246.803Z" fill="#FFC107"/>
<path d="M180.606 310.286C177.825 311.692 175.171 313.437 172.73 315.446C172.39 315.722 172.34 316.224 172.629 316.563C172.906 316.902 173.409 316.94 173.749 316.664C176.102 314.718 178.656 313.048 181.323 311.692C181.713 311.491 181.864 311.014 181.675 310.625C181.474 310.249 180.996 310.085 180.606 310.286Z" fill="#FFC107"/>
<path d="M168.452 253.393C168.125 253.105 167.622 253.13 167.333 253.456C167.043 253.782 167.068 254.285 167.395 254.573L169.723 256.657C170.05 256.946 170.553 256.921 170.843 256.594C171.132 256.268 171.107 255.766 170.78 255.477L168.452 253.393Z" fill="#FFC107"/>
<path d="M273.884 260.147C273.884 258.352 272.425 256.908 270.638 256.908C268.839 256.908 267.392 258.352 267.392 260.147C267.392 261.942 268.839 263.386 270.638 263.386C272.425 263.386 273.884 261.942 273.884 260.147Z" fill="#FFC107"/>
<path d="M232.429 262.947L230.101 265.03C229.774 265.319 229.749 265.821 230.038 266.148C230.328 266.474 230.831 266.499 231.158 266.21L233.485 264.127C233.813 263.838 233.838 263.336 233.548 263.009C233.259 262.683 232.756 262.658 232.429 262.947Z" fill="#FFC107"/>
<path d="M134.269 91.0382L136.961 88.5777C137.288 88.2765 137.301 87.7869 137.011 87.4605C136.709 87.1341 136.206 87.1215 135.892 87.4103L133.199 89.8708C132.872 90.1721 132.86 90.6616 133.149 90.988C133.451 91.3144 133.954 91.3395 134.269 91.0382Z" fill="#FFC107"/>
<path d="M200.749 346.215C193.816 346.742 188.457 351.449 183.487 355.969C183.16 356.257 183.135 356.76 183.437 357.086C183.726 357.412 184.229 357.437 184.556 357.136C189.274 352.855 194.408 348.286 200.874 347.796C201.906 347.708 201.806 346.139 200.749 346.215Z" fill="#FFC107"/>
<path d="M223.999 333.912C220.728 339.737 216.085 344.821 210.587 348.625C210.223 348.876 210.134 349.366 210.386 349.73C210.638 350.094 211.128 350.182 211.493 349.93C217.193 346.001 221.999 340.729 225.383 334.69C225.899 333.774 224.502 332.996 223.999 333.912Z" fill="#FFC107"/>
<path d="M112.251 6.47763C114.05 6.47763 115.497 5.02142 115.497 3.23882C115.497 1.44366 114.038 0 112.251 0C110.452 0 109.005 1.44366 109.005 3.23882C109.005 5.02142 110.452 6.47763 112.251 6.47763Z" fill="#FFC107"/>
<path d="M128.292 25.8853L130.62 23.8014C130.947 23.5127 130.972 23.0105 130.683 22.6841C130.394 22.3577 129.89 22.3326 129.563 22.6214L127.236 24.7053C126.909 24.994 126.883 25.4961 127.173 25.8225C127.462 26.1489 127.965 26.174 128.292 25.8853Z" fill="#FFC107"/>
<path d="M37.568 95.0807L34.8756 97.5412C34.5485 97.8425 34.5359 98.3321 34.8253 98.6585C35.1272 98.9849 35.6305 98.9975 35.945 98.7087L38.6374 96.2482C38.9646 95.9469 38.9771 95.4574 38.6878 95.131C38.3858 94.8046 37.8951 94.7795 37.568 95.0807Z" fill="#FFC107"/>
</svg>
