<svg width="37" height="37" viewBox="0 0 37 37" fill="none" xmlns="http://www.w3.org/2000/svg">
<path d="M18.5139 36.3895C28.5538 36.3895 36.694 28.2673 36.694 18.2496C36.694 8.21932 28.5538 0.097168 18.5139 0.097168C8.46133 0.097168 0.321167 8.21932 0.321167 18.2496C0.321167 28.2673 8.46133 36.3895 18.5139 36.3895ZM20.464 25.7943C19.3946 26.8864 17.5577 26.8613 16.5637 25.7943C15.4817 24.7398 15.4817 22.9823 16.5637 21.9027C17.6206 20.8482 19.382 20.8482 20.464 21.9027C21.5334 22.9823 21.5334 24.7398 20.464 25.7943ZM24.7165 20.1201C24.3894 20.4465 23.8987 20.4339 23.5842 20.1201C20.8037 17.3206 16.1989 17.3081 13.4184 20.1201C13.1039 20.4339 12.6132 20.4339 12.2861 20.1201C11.9715 19.8188 11.9715 19.3167 12.2861 18.9903C15.7585 15.5506 21.2566 15.5882 24.7039 18.9903C25.0436 19.3041 25.0436 19.8188 24.7165 20.1201ZM27.5599 17.283C27.2579 17.5843 26.7547 17.6094 26.4276 17.283C22.0492 12.9143 14.9659 12.9143 10.575 17.283C10.2605 17.5968 9.76979 17.5968 9.44268 17.283C9.14072 16.9817 9.14072 16.4796 9.44268 16.1783C14.4501 11.182 22.5273 11.1694 27.5473 16.1783C27.8618 16.4796 27.8618 16.9817 27.5599 17.283ZM6.63703 13.3412C13.2045 6.7631 23.8735 6.82587 30.4033 13.3412C30.7052 13.6424 30.7052 14.1446 30.4033 14.471C30.1013 14.7472 29.6232 14.7848 29.271 14.471C23.3703 8.54571 13.67 8.5206 7.74419 14.471C7.44224 14.7723 6.93898 14.7723 6.63703 14.471C6.32249 14.1446 6.32249 13.6424 6.63703 13.3412Z" fill="#FFC107"/>
</svg>
