<svg width="26" height="26" viewBox="0 0 26 26" fill="none" xmlns="http://www.w3.org/2000/svg">
<g clip-path="url(#clip0_1047_2710)">
<path d="M26 13.0006C26 5.82033 20.1797 0.000488281 13.0002 0.000488281C5.82036 0.000488281 0 5.82033 0 13.0006C0 20.1799 5.82036 26.0002 13.0002 26.0002C20.1797 26.0002 26 20.1799 26 13.0006Z" fill="#907DFF"/>
<path d="M16.5196 18.8415C16.4469 18.735 16.3074 18.6971 16.191 18.7523C14.9028 19.3621 13.4408 20.0068 13.1538 20.0632C13.1466 20.0567 13.1351 20.0449 13.1201 20.0245C13.0812 19.9719 13.0623 19.9031 13.0623 19.8141C13.0623 19.0855 13.6123 16.8689 14.6968 13.2261C15.6113 10.1655 15.7171 9.5318 15.7171 9.32141C15.7171 8.99662 15.5927 8.72218 15.3573 8.52772C15.1337 8.34331 14.8213 8.24988 14.4288 8.24988C13.7759 8.24988 13.0192 8.49774 12.1154 9.00767C11.2396 9.50199 10.2629 10.3392 9.21253 11.4961C9.13031 11.5867 9.12172 11.7222 9.19183 11.8225C9.26205 11.9228 9.39227 11.961 9.50552 11.9149C9.87427 11.7644 11.7275 11.0053 11.9976 10.8356C12.2188 10.6969 12.4103 10.6265 12.5668 10.6265C12.5724 10.6265 12.5772 10.6268 12.5812 10.6271C12.5831 10.6374 12.5849 10.6533 12.5849 10.676C12.5849 10.8356 12.5521 11.0247 12.4876 11.2368C10.9084 16.3535 10.1408 19.4901 10.1408 20.8262C10.1408 21.2977 10.2719 21.6773 10.5303 21.9543C10.7936 22.2369 11.1488 22.3802 11.586 22.3802C12.0519 22.3802 12.6189 22.1856 13.3194 21.7852C13.9973 21.3979 15.032 20.5457 16.4826 19.1799C16.5766 19.0915 16.5922 18.948 16.5196 18.8415Z" fill="white"/>
<path d="M16.4685 4.01773C16.2104 3.75357 15.8802 3.61963 15.4871 3.61963C14.9976 3.61963 14.5713 3.81305 14.2202 4.19454C13.8746 4.56974 13.6994 5.03015 13.6994 5.56293C13.6994 5.98388 13.8285 6.33272 14.083 6.59972C14.3409 6.87074 14.6667 7.00814 15.0512 7.00814C15.5206 7.00814 15.9446 6.80388 16.3113 6.40101C16.6716 6.00521 16.8544 5.53987 16.8544 5.01794C16.8544 4.61685 16.7246 4.28037 16.4685 4.01773Z" fill="white"/>
</g>
<defs>
<clipPath id="clip0_1047_2710">
<rect width="26" height="26" fill="white"/>
</clipPath>
</defs>
</svg>
