<svg width="26" height="26" viewBox="0 0 26 26" fill="none" xmlns="http://www.w3.org/2000/svg">
<path d="M25.9987 3.57911V22.4186C25.9987 24.3953 24.3963 25.9977 22.4196 25.9977H3.58302C1.60633 25.9977 0.00390625 24.3953 0.00390625 22.4186V3.57911C0.00390625 1.60242 1.60633 0 3.58302 0H22.4196C24.3963 0 25.9987 1.60242 25.9987 3.57911Z" fill="#E4E3FF"/>
<path d="M25.9966 3.57739V22.4203C25.9966 24.3972 24.3934 26.0004 22.4165 26.0004H3.57895C2.33869 26.0004 1.24461 25.3722 0.605469 24.4135C1.17962 24.798 1.86748 25.0255 2.6095 25.0255H21.447C23.4185 25.0255 25.0217 23.4223 25.0217 21.4454V2.6079C25.0217 1.87131 24.7996 1.18344 24.4151 0.614746C25.3683 1.25385 25.9966 2.34251 25.9966 3.57739Z" fill="#D0D0F7"/>
<path d="M25.9977 3.57724V6.65366H11.5743C11.3902 6.65366 11.2223 6.5724 11.114 6.43158L10.0957 5.12087C9.92243 4.89879 9.65162 4.7688 9.36997 4.7688H3.78049C3.27133 4.7688 2.8597 5.18044 2.8597 5.68956V6.07412C2.8597 6.39366 2.59973 6.65366 2.28019 6.65366H0V3.57724C0 1.60035 1.60317 0.00256348 3.58003 0.00256348H22.4176C23.1542 0.00256348 23.8474 0.230034 24.4162 0.614596C24.5949 0.733736 24.7628 0.869141 24.9145 1.02081C24.9469 1.04788 24.9794 1.08038 25.0065 1.11288C25.0607 1.16706 25.1094 1.22121 25.1582 1.28078C25.4073 1.57327 25.6077 1.90365 25.7485 2.26653C25.781 2.34778 25.8081 2.42901 25.8352 2.51568C25.8623 2.59152 25.8839 2.67274 25.9002 2.75942C25.9164 2.80815 25.9218 2.85148 25.9327 2.90021C25.9381 2.91648 25.9381 2.93813 25.9435 2.95981C25.9543 3.03023 25.9652 3.10061 25.976 3.17644C25.976 3.19813 25.9815 3.2252 25.9815 3.2577C25.9923 3.36061 25.9977 3.46894 25.9977 3.57724Z" fill="#FF8D8D"/>
<path d="M23.6983 11.0138V22.0083C23.6983 22.6031 23.2161 23.0854 22.6213 23.0854H3.37777C2.78293 23.0854 2.30072 22.6031 2.30072 22.0083V11.0138C2.30072 10.419 2.78293 9.93677 3.37777 9.93677H22.6213C23.2161 9.93677 23.6983 10.419 23.6983 11.0138Z" fill="#D0D0F7"/>
<path d="M23.6893 10.9486C23.6676 10.9432 23.6514 10.9432 23.6297 10.9432H4.38594C3.79023 10.9432 3.30812 11.4252 3.30812 12.021V23.0159C3.30812 23.0376 3.30812 23.0592 3.31354 23.0809C2.74488 23.0484 2.30078 22.5826 2.30078 22.0085V11.0136C2.30078 10.4178 2.78276 9.93579 3.3786 9.93579H22.6223C23.191 9.93579 23.6568 10.3799 23.6893 10.9486Z" fill="#C2C2EF"/>
<path d="M16.1461 3.47968C16.1461 4.19588 15.5705 4.7715 14.8543 4.7715C14.1448 4.7715 13.5625 4.19588 13.5625 3.47968C13.5625 2.76349 14.1448 2.18787 14.8543 2.18787C15.5705 2.18787 16.1461 2.76349 16.1461 3.47968Z" fill="#7979F7"/>
<path d="M16.1461 3.47797C16.1461 4.19833 15.5719 4.77244 14.8569 4.77244C14.375 4.77244 13.9525 4.50706 13.7305 4.11168C13.92 4.2254 14.1367 4.28497 14.3695 4.28497C15.0845 4.28497 15.6586 3.71086 15.6586 2.99053C15.6586 2.75764 15.599 2.5464 15.4907 2.35681C15.8807 2.57347 16.1461 2.99592 16.1461 3.47797Z" fill="#5E5EEF"/>
<path d="M19.4899 3.47968C19.4899 4.19588 18.9143 4.7715 18.198 4.7715C17.4886 4.7715 16.9062 4.19588 16.9062 3.47968C16.9062 2.76349 17.4886 2.18787 18.198 2.18787C18.9143 2.18787 19.4899 2.76349 19.4899 3.47968Z" fill="#00D67F"/>
<path d="M19.4898 3.47809C19.4898 4.19845 18.9157 4.77257 18.2007 4.77257C17.7187 4.77257 17.2962 4.50718 17.0742 4.11181C17.2637 4.22553 17.4804 4.2851 17.7133 4.2851C18.4283 4.2851 19.0023 3.71098 19.0023 2.99065C19.0023 2.75776 18.9428 2.54652 18.8345 2.35693C19.2244 2.57359 19.4898 2.99604 19.4898 3.47809Z" fill="#00C179"/>
<path d="M22.8375 3.47944C22.8375 4.19563 22.2619 4.77125 21.5457 4.77125C20.8362 4.77125 20.2539 4.19563 20.2539 3.47944C20.2539 2.76324 20.8362 2.18762 21.5457 2.18762C22.2619 2.18762 22.8375 2.76324 22.8375 3.47944Z" fill="#FC6559"/>
<path d="M22.8377 3.47809C22.8377 4.19845 22.2635 4.77257 21.5485 4.77257C21.0666 4.77257 20.6441 4.50718 20.4221 4.11181C20.6115 4.22553 20.8283 4.2851 21.0611 4.2851C21.7761 4.2851 22.3502 3.71098 22.3502 2.99065C22.3502 2.75776 22.2906 2.54652 22.1823 2.35693C22.5723 2.57359 22.8377 2.99604 22.8377 3.47809Z" fill="#F05543"/>
<g opacity="0.3">
<path d="M4.05864 0.956787H4.74989C5.00008 0.956787 5.20306 1.15977 5.20306 1.40995C5.20306 1.66014 5.00008 1.86312 4.74989 1.86312H4.05864C3.80845 1.86312 3.60547 1.66014 3.60547 1.40995C3.60547 1.15977 3.80845 0.956787 4.05864 0.956787Z" fill="white"/>
</g>
<g opacity="0.3">
<path d="M5.96122 0.957031H11.5948C11.845 0.957031 12.0479 1.16001 12.0479 1.4102C12.0479 1.66038 11.845 1.86336 11.5948 1.86336H5.96122C5.71104 1.86336 5.50806 1.66038 5.50806 1.4102C5.50806 1.16001 5.71104 0.957031 5.96122 0.957031Z" fill="white"/>
</g>
<path d="M25.9956 3.57678V6.6532H25.0207V2.60729C25.0207 1.8707 24.7986 1.18283 24.4141 0.614136C24.5928 0.733276 24.7607 0.868681 24.9124 1.02035C24.9448 1.04742 24.9773 1.07992 25.0044 1.11242C25.0586 1.1666 25.1073 1.22075 25.1561 1.28032C25.4052 1.57281 25.6056 1.90319 25.7464 2.26607C25.7789 2.34732 25.806 2.42855 25.8331 2.51522C25.8602 2.59106 25.8818 2.67228 25.8981 2.75896C25.9143 2.80769 25.9197 2.85102 25.9306 2.89975C25.936 2.91602 25.936 2.93767 25.9414 2.95936C25.9522 3.02977 25.9631 3.10015 25.9739 3.17598C25.9739 3.19767 25.9793 3.22474 25.9793 3.25724C25.9902 3.36015 25.9956 3.46848 25.9956 3.57678Z" fill="#FF7B7B"/>
<path d="M13.1677 23.0804L12.9576 21.0411C12.9025 20.6645 12.7174 20.3301 12.4577 20.0802C12.3506 19.9828 12.2337 19.8951 12.1039 19.827C12.0357 19.7913 11.9708 19.762 11.9026 19.7328C11.8474 19.7133 11.7922 19.6939 11.7338 19.6809C11.7111 19.6776 11.6819 19.6679 11.6591 19.6614H11.6526L10.5814 19.4439L10.5035 19.4277L9.78281 19.2784L9.7114 19.2621L9.56534 19.2329H9.55234L7.22803 19.2394H7.21507L7.06897 19.2686L6.99756 19.2816L6.27366 19.4342L6.19897 19.4504L5.97175 19.4959L5.12449 19.6712H5.12124C5.09528 19.6776 5.06929 19.6809 5.04008 19.6906C4.98488 19.7036 4.92972 19.7198 4.87777 19.7426C4.80636 19.7653 4.73817 19.801 4.67326 19.8335C4.54344 19.9049 4.42654 19.9893 4.31943 20.0867C4.05651 20.3366 3.87145 20.671 3.8195 21.0443L3.61328 23.0804H13.1677Z" fill="#F9B938"/>
<path d="M13.1669 23.0803H3.61328L3.65544 22.6778H10.6089C11.7028 22.6778 12.5598 21.7299 12.4462 20.6391C12.4008 20.3243 12.2644 20.0386 12.0665 19.8081C12.0794 19.8146 12.0924 19.8211 12.1054 19.8276C12.2352 19.8958 12.3521 19.9834 12.4592 20.0808C12.719 20.3308 12.904 20.6651 12.9592 21.0417L13.1669 23.0803Z" fill="#ECB021"/>
<path d="M10.0196 19.3275C9.99688 20.2137 9.26973 20.9247 8.38027 20.9214H8.37377C7.4908 20.9182 6.77665 20.2073 6.75391 19.334L6.99737 19.2821L7.06878 19.2691L7.21488 19.2399H7.22784L9.55219 19.2334H9.56515L9.71125 19.2626L9.78266 19.2788L10.0196 19.3275Z" fill="#E4E3FF"/>
<path d="M9.48876 18.2903V19.2975C9.48876 19.9082 8.99174 20.4026 8.38104 20.4H8.37839C7.77033 20.3974 7.28125 19.903 7.28125 19.2975V18.2903H9.48876Z" fill="#F7C9A9"/>
<path d="M9.48876 18.3899V19.1407C9.14773 19.3258 8.76703 19.4236 8.37839 19.4236H8.35461C7.97391 19.4183 7.60907 19.3258 7.28125 19.1566V18.3899H9.48876Z" fill="#F0B68E"/>
<path d="M10.6805 15.6749V16.8166C10.6805 17.6707 10.2143 18.4507 9.5214 18.869C9.17934 19.0782 8.78063 19.1958 8.35577 19.1915C7.84157 19.1849 7.3666 19.0084 6.98967 18.7165L6.99838 18.5705L6.89599 18.4463C6.27939 17.6925 6.14867 16.6401 6.60186 15.7773C6.60621 15.7686 6.61057 15.7599 6.6171 15.749C6.88728 15.2435 7.3775 14.9102 7.76313 14.7119C8.02023 14.579 8.29912 14.5006 8.58235 14.4396C9.21202 14.3023 9.34929 13.9624 9.34929 13.9624C9.58024 15.0365 10.2535 15.4897 10.6805 15.6749Z" fill="#F7C9A9"/>
<path d="M10.6805 13.7272V15.675C10.2535 15.4898 9.58024 15.0366 9.34929 13.9625C9.34929 13.9625 9.21203 14.3024 8.58236 14.4396C8.29912 14.5006 8.02023 14.5791 7.76314 14.712C7.3775 14.9102 6.88728 15.2436 6.6171 15.7491C6.61057 15.76 6.60621 15.7687 6.60186 15.7774C6.14867 16.6402 6.2794 17.6925 6.89599 18.4464L6.99839 18.5706L6.98968 18.7166C6.90906 18.6556 6.83498 18.5902 6.76309 18.5205C6.34912 18.1043 6.08984 17.5313 6.08984 16.8973V13.7272H10.6805Z" fill="#F7C9A9"/>
<path d="M8.69415 17.2771C8.80893 17.36 8.82228 17.5239 8.75187 17.6467C8.68602 17.7763 8.53402 17.8567 8.38268 17.8602C8.23015 17.8578 8.07769 17.7768 8.01184 17.6471C7.94136 17.5243 7.95491 17.36 8.07048 17.2771C8.18546 17.3579 8.26579 17.3561 8.31134 17.3489C8.36047 17.3357 8.37052 17.3222 8.38169 17.3189C8.39412 17.3229 8.40457 17.336 8.45389 17.3492C8.49964 17.3565 8.57984 17.3579 8.69415 17.2771Z" fill="#E8AA80"/>
<path d="M7.80068 18.1311C7.72546 18.1311 7.67911 18.2186 7.72575 18.2776C7.87987 18.4726 8.11641 18.5987 8.38433 18.5987C8.65219 18.5987 8.88929 18.4727 9.04395 18.2777C9.09074 18.2187 9.0444 18.1311 8.96911 18.1311H7.80068Z" fill="#E8AA80"/>
<path d="M7.64901 16.4593C7.64901 16.6232 7.51623 16.757 7.35238 16.757C7.18855 16.757 7.05469 16.6232 7.05469 16.4593C7.05469 16.2955 7.18855 16.1616 7.35238 16.1616C7.51623 16.1616 7.64901 16.2955 7.64901 16.4593Z" fill="#474646"/>
<path d="M7.68102 16.0331H7.02805C6.98021 16.0331 6.94141 15.9943 6.94141 15.9465C6.94141 15.8987 6.98021 15.8599 7.02805 15.8599H7.68102C7.72886 15.8599 7.76767 15.8987 7.76767 15.9465C7.76767 15.9943 7.72886 16.0331 7.68102 16.0331Z" fill="#474646"/>
<path d="M9.71151 16.4593C9.71151 16.6232 9.57873 16.757 9.41488 16.757C9.25105 16.757 9.11719 16.6232 9.11719 16.4593C9.11719 16.2955 9.25105 16.1616 9.41488 16.1616C9.57873 16.1616 9.71151 16.2955 9.71151 16.4593Z" fill="#474646"/>
<path d="M7.59914 16.2978C7.55433 16.2687 7.50056 16.253 7.4423 16.253C7.27874 16.253 7.14656 16.3852 7.14656 16.5487C7.14656 16.6092 7.16448 16.663 7.19361 16.7101C7.1107 16.6563 7.05469 16.5644 7.05469 16.4591C7.05469 16.2956 7.18912 16.1611 7.35268 16.1611C7.45574 16.1611 7.5476 16.2149 7.59914 16.2978Z" fill="#2D2C2C"/>
<path d="M9.66387 16.3C9.61905 16.2709 9.56304 16.253 9.50479 16.253C9.34124 16.253 9.20681 16.3852 9.20681 16.5487C9.20681 16.6092 9.22473 16.663 9.25385 16.7101C9.17096 16.6563 9.11719 16.5644 9.11719 16.4591C9.11719 16.2956 9.24938 16.1611 9.41293 16.1611C9.52047 16.1611 9.61234 16.2171 9.66387 16.3Z" fill="#2D2C2C"/>
<path d="M9.74353 16.0329H9.09055C9.04272 16.0329 9.00391 15.9941 9.00391 15.9463C9.00391 15.8984 9.04272 15.8596 9.09055 15.8596H9.74353C9.79136 15.8596 9.83017 15.8984 9.83017 15.9463C9.83017 15.9941 9.79136 16.0329 9.74353 16.0329Z" fill="#474646"/>
<path d="M11.5423 14.9161C11.3135 17.5917 10.8037 18.6048 9.83193 19.6136L9.63148 19.5243L9.52037 18.8685C9.52036 18.8685 9.52037 18.8684 9.52037 18.8685C10.2132 18.4501 10.6795 17.6701 10.6795 16.816V16.413L10.9581 15.789C10.9581 15.789 10.8974 15.8092 10.6795 15.7177C10.2524 15.5325 9.57924 15.036 9.34827 13.9619C9.34826 13.9619 9.34828 13.9619 9.34827 13.9619C9.34793 13.9628 9.20842 14.3063 8.569 14.4416C8.29883 14.4988 8.03245 14.5746 7.78599 14.6992C7.39693 14.8958 6.89185 15.2325 6.61606 15.7484C6.60953 15.7593 6.60517 15.768 6.60082 15.7768C6.25028 16.4441 6.67406 17.8376 6.88401 18.4346C6.95301 18.6308 6.98151 18.8377 6.96935 19.0453C6.95295 19.3256 6.73114 19.5502 6.45108 19.5701L6.12447 19.5934C5.94174 19.6064 5.76645 19.5233 5.66173 19.373C5.23455 18.76 4.22482 17.0619 4.71182 15.2931C5.3197 13.0794 6.23477 12.3169 7.53551 12.0402C8.52248 11.831 9.47026 12.1055 9.87114 12.2515C9.98444 12.2929 10.0999 12.3256 10.2198 12.3387C10.6294 12.391 11.7275 12.7308 11.5423 14.9161Z" fill="#474646"/>
<path d="M11.3007 16.3525C11.3007 16.7033 11.0148 16.9891 10.6641 16.9891V15.7183C11.0148 15.7183 11.3007 16.0018 11.3007 16.3525Z" fill="#F7C9A9"/>
<path d="M11.161 15.9567C11.0535 15.8707 10.915 15.8181 10.7644 15.8181V16.9817C10.7334 16.9865 10.6975 16.9888 10.6641 16.9888V15.7178C10.8647 15.7178 11.0439 15.8109 11.161 15.9567Z" fill="#F0B68E"/>
<path d="M5.46094 16.3525C5.46094 16.7033 5.74681 16.9891 6.09756 16.9891V15.7183C5.74681 15.7183 5.46094 16.0018 5.46094 16.3525Z" fill="#F7C9A9"/>
<path d="M6.09833 15.7178V16.9888C6.06975 16.9888 6.04105 16.9865 6.01468 16.9841V15.8181C5.84272 15.8181 5.68744 15.8874 5.57031 15.9973C5.68499 15.8277 5.87854 15.7178 6.09833 15.7178Z" fill="#F0B68E"/>
<path d="M20.4195 20.2251L18.8594 20.1227C18.5288 20.101 18.2165 20.2762 18.0626 20.5696L17.3304 21.9658C17.1955 22.223 16.8074 22.1374 16.7932 21.8473L16.5824 17.5396C16.5709 17.3049 16.8323 17.1579 17.0269 17.2895L20.5979 19.7044C20.8388 19.8673 20.7098 20.2441 20.4195 20.2251Z" fill="#474646"/>
<path d="M20.4237 20.2288L18.8661 20.1189C18.5364 20.1006 18.2157 20.2746 18.0692 20.5678L17.3362 21.9695C17.1987 22.2261 16.8139 22.1345 16.7956 21.8505L16.7773 21.4565C16.7865 21.4474 16.7865 21.4382 16.7956 21.429L17.5286 20.0273C17.6752 19.7341 17.9958 19.5601 18.3257 19.5783L19.8832 19.6883C20.0572 19.6974 20.1763 19.5692 20.1855 19.4226L20.5978 19.7066C20.8452 19.8715 20.7168 20.2472 20.4237 20.2288Z" fill="#2D2C2C"/>
<path d="M21.9914 12.3911H13.3022C13.1525 12.3911 13.0314 12.27 13.0314 12.1203C13.0314 11.9706 13.1525 11.8495 13.3022 11.8495H21.9914C22.141 11.8495 22.2622 11.9706 22.2622 12.1203C22.2622 12.27 22.141 12.3911 21.9914 12.3911Z" fill="#C2C2EF"/>
<path d="M21.9914 14.2333H13.3022C13.1525 14.2333 13.0314 14.1121 13.0314 13.9625C13.0314 13.8128 13.1525 13.6917 13.3022 13.6917H21.9914C22.141 13.6917 22.2622 13.8128 22.2622 13.9625C22.2622 14.1121 22.141 14.2333 21.9914 14.2333Z" fill="#C2C2EF"/>
<path d="M21.9914 16.0759H13.3022C13.1525 16.0759 13.0314 15.9548 13.0314 15.8051C13.0314 15.6554 13.1525 15.5343 13.3022 15.5343H21.9914C22.141 15.5343 22.2622 15.6554 22.2622 15.8051C22.2622 15.9548 22.141 16.0759 21.9914 16.0759Z" fill="#C2C2EF"/>
<path d="M21.9914 14.2333H13.3022C13.1525 14.2333 13.0314 14.1121 13.0314 13.9625C13.0314 13.8128 13.1525 13.6917 13.3022 13.6917H21.9914C22.141 13.6917 22.2622 13.8128 22.2622 13.9625C22.2622 14.1121 22.141 14.2333 21.9914 14.2333Z" fill="#C2C2EF"/>
<path d="M21.9914 14.2333H13.3022C13.1525 14.2333 13.0314 14.1121 13.0314 13.9625C13.0314 13.8128 13.1525 13.6917 13.3022 13.6917H21.9914C22.141 13.6917 22.2622 13.8128 22.2622 13.9625C22.2622 14.1121 22.141 14.2333 21.9914 14.2333Z" fill="#C2C2EF"/>
<path d="M21.9914 14.2333H13.3022C13.1525 14.2333 13.0314 14.1121 13.0314 13.9625C13.0314 13.8128 13.1525 13.6917 13.3022 13.6917H21.9914C22.141 13.6917 22.2622 13.8128 22.2622 13.9625C22.2622 14.1121 22.141 14.2333 21.9914 14.2333Z" fill="#C2C2EF"/>
</svg>
