<svg width="26" height="26" viewBox="0 0 26 26" fill="none" xmlns="http://www.w3.org/2000/svg">
<path d="M13.0016 25.9984C16.098 25.9978 19.0925 24.892 21.4461 22.8799C23.7997 20.8679 25.3577 18.0818 25.8398 15.0231C26.322 11.9645 25.6964 8.8342 24.0758 6.19575C22.4553 3.55729 19.9461 1.58397 17 0.630982C14.0539 -0.322004 10.8644 -0.192059 8.00554 0.997429C5.14673 2.18692 2.8064 4.35781 1.40582 7.11935C0.0052504 9.88089 -0.363573 13.0517 0.365744 16.061C1.09506 19.0703 2.87461 21.7204 5.38408 23.5343C7.59961 25.1389 10.266 26.0014 13.0016 25.9984Z" fill="#7C7BF7"/>
<path d="M12.9993 15.3104C13.6551 15.3119 14.3047 15.1842 14.9111 14.9345C15.5175 14.6849 16.0688 14.3182 16.5334 13.8555C16.998 13.3927 17.3669 12.843 17.619 12.2376C17.8711 11.6322 18.0014 10.9831 18.0026 10.3273C18.0026 10.1964 17.9968 10.0664 17.9852 9.93737C17.8809 8.6868 17.3104 7.52112 16.3869 6.67146C15.4633 5.8218 14.2542 5.35022 12.9993 5.35022C11.7444 5.35022 10.5353 5.8218 9.61181 6.67146C8.68829 7.52112 8.11779 8.6868 8.01343 9.93737C8.00187 10.0683 7.99609 10.1983 7.99609 10.3273C7.99723 10.9831 8.12757 11.6322 8.37965 12.2376C8.63174 12.843 9.00064 13.3927 9.46527 13.8555C9.9299 14.3182 10.4812 14.6849 11.0876 14.9345C11.6939 15.1842 12.3436 15.3119 12.9993 15.3104Z" fill="#FFFDE6"/>
<path d="M20.6177 22.3966C20.6181 21.4662 20.4352 20.5448 20.0794 19.6851C19.7236 18.8254 19.2019 18.0443 18.5442 17.3862C17.8864 16.7282 17.1054 16.2062 16.2459 15.8501C15.3863 15.4939 14.465 15.3106 13.5346 15.3106H12.4658C11.5354 15.3106 10.6141 15.4939 9.75454 15.8501C8.89499 16.2062 8.11403 16.7282 7.45626 17.3862C6.7985 18.0443 6.27682 18.8254 5.92103 19.6851C5.56524 20.5448 5.38231 21.4662 5.38269 22.3966V23.5348C7.59919 25.1377 10.2648 26.0006 13.0002 26.0006C15.7356 26.0006 18.4012 25.1377 20.6177 23.5348V22.3966Z" fill="#FFFDE6"/>
</svg>
