<svg width="34" height="34" viewBox="0 0 34 34" fill="none" xmlns="http://www.w3.org/2000/svg">
<path d="M24.8466 15.3585C22.9823 15.3595 21.1946 16.1001 19.8759 17.4178C18.5572 18.7356 17.8152 20.5227 17.8128 22.3869C18.1972 31.7083 31.4906 31.7112 31.875 22.3869C31.8729 20.5235 31.1317 18.737 29.8141 17.4194C28.4964 16.1018 26.71 15.3606 24.8466 15.3585ZM24.3153 26.536C24.3173 26.3964 24.3741 26.2632 24.4736 26.1651C24.573 26.0671 24.707 26.0122 24.8466 26.0122C24.9862 26.0122 25.1202 26.0671 25.2196 26.1652C25.319 26.2632 25.3758 26.3964 25.3778 26.536C25.3758 26.6756 25.319 26.8088 25.2196 26.9068C25.1202 27.0048 24.9862 27.0598 24.8465 27.0598C24.7069 27.0598 24.5729 27.0048 24.4735 26.9068C24.3741 26.8088 24.3173 26.6756 24.3153 26.536ZM26.3659 22.4241C26.0099 22.6835 25.7303 23.034 25.5564 23.4387C25.3825 23.8435 25.3209 24.2876 25.3779 24.7244C25.3759 24.864 25.3191 24.9973 25.2197 25.0954C25.1203 25.1934 24.9862 25.2484 24.8466 25.2484C24.7069 25.2484 24.5729 25.1934 24.4735 25.0953C24.374 24.9973 24.3172 24.864 24.3153 24.7244C24.2556 24.1076 24.3615 23.4862 24.622 22.924C24.8826 22.3618 25.2883 21.8793 25.7975 21.5262C26.0598 21.3607 26.2743 21.1297 26.42 20.8559C26.5658 20.5821 26.6376 20.2751 26.6284 19.9651C26.6193 19.6551 26.5294 19.3528 26.3678 19.0881C26.2062 18.8235 25.9783 18.6055 25.7068 18.4557C25.4352 18.306 25.1293 18.2296 24.8192 18.2342C24.5091 18.2387 24.2055 18.324 23.9384 18.4817C23.6714 18.6394 23.4501 18.864 23.2963 19.1333C23.1425 19.4026 23.0616 19.7074 23.0616 20.0175C23.0622 20.0875 23.049 20.1569 23.0225 20.2216C22.9961 20.2864 22.957 20.3452 22.9075 20.3947C22.858 20.4442 22.7992 20.4833 22.7344 20.5097C22.6697 20.5362 22.6003 20.5494 22.5303 20.5488C21.3064 20.3918 22.4269 18.1707 23.0722 17.7969C26.2847 15.4451 29.633 20.1604 26.3659 22.4241ZM4.86094 8.90909C4.86551 8.63102 4.97919 8.36589 5.17745 8.17087C5.37571 7.97584 5.64268 7.86654 5.92078 7.86654C6.19889 7.86654 6.46585 7.97584 6.66411 8.17087C6.86238 8.36589 6.97605 8.63102 6.98063 8.90909C6.97605 9.18716 6.86238 9.45229 6.66411 9.64732C6.46585 9.84234 6.19889 9.95164 5.92078 9.95164C5.64268 9.95164 5.37571 9.84234 5.17745 9.64732C4.97919 9.45229 4.86551 9.18716 4.86094 8.90909ZM17.7756 8.90909C17.781 8.63089 17.8954 8.3659 18.094 8.17107C18.2927 7.97623 18.5598 7.86709 18.8381 7.86708C19.1164 7.86708 19.3835 7.97621 19.5822 8.17104C19.7809 8.36586 19.8952 8.63084 19.9006 8.90905C19.8952 9.18726 19.7809 9.45224 19.5822 9.64707C19.3836 9.84191 19.1164 9.95105 18.8381 9.95106C18.5599 9.95107 18.2927 9.84193 18.0941 9.6471C17.8954 9.45228 17.7811 9.1873 17.7756 8.90909ZM24.8466 9.97159C24.5677 9.9683 24.3013 9.85519 24.1053 9.65679C23.9092 9.4584 23.7992 9.19071 23.7992 8.91178C23.7992 8.63284 23.9092 8.36515 24.1052 8.16675C24.3013 7.96834 24.5676 7.85522 24.8466 7.8519C25.1255 7.8552 25.3918 7.96831 25.5879 8.1667C25.784 8.3651 25.8939 8.63279 25.894 8.91172C25.894 9.19065 25.784 9.45834 25.588 9.65675C25.3919 9.85516 25.1255 9.96828 24.8466 9.97159ZM4.86094 22.201C4.86551 21.9229 4.97918 21.6578 5.17744 21.4628C5.37569 21.2677 5.64266 21.1584 5.92077 21.1584C6.19887 21.1584 6.46584 21.2677 6.6641 21.4627C6.86237 21.6578 6.97605 21.9229 6.98063 22.201C6.97605 22.479 6.86238 22.7442 6.66413 22.9392C6.46587 23.1342 6.1989 23.2435 5.9208 23.2435C5.64269 23.2435 5.37572 23.1342 5.17746 22.9392C4.97919 22.7442 4.86552 22.4791 4.86094 22.201ZM16.7503 22.3869C16.7467 20.7788 17.2281 19.2069 18.1316 17.8766H7.66062V13.2388H23.9169V14.3544C24.2688 14.3059 24.6243 14.2882 24.9794 14.3013V13.2388H26.8016C27.506 13.2385 28.1814 12.9586 28.6795 12.4605C29.1776 11.9624 29.4576 11.2869 29.4578 10.5825V7.24097C29.4576 6.53656 29.1776 5.86109 28.6795 5.363C28.1814 4.86491 27.506 4.58497 26.8016 4.58472H4.78125C4.07685 4.58497 3.40137 4.86491 2.90328 5.363C2.40519 5.86109 2.12526 6.53656 2.125 7.24097V10.5825C2.12525 11.2869 2.40519 11.9624 2.90328 12.4605C3.40137 12.9586 4.07685 13.2385 4.78125 13.2388H6.59812V17.8766H4.60063C3.94425 17.8773 3.31495 18.1383 2.85083 18.6024C2.3867 19.0665 2.12566 19.6958 2.125 20.3522V24.0497C2.12566 24.7061 2.3867 25.3354 2.85083 25.7995C3.31495 26.2636 3.94425 26.5247 4.60063 26.5253H17.8925C17.1437 25.2749 16.7489 23.8444 16.7503 22.3869ZM3.79844 8.90909C3.80418 8.34998 4.03031 7.81572 4.42771 7.42238C4.82511 7.02905 5.36166 6.80842 5.9208 6.80842C6.47995 6.80843 7.0165 7.02907 7.41389 7.42242C7.81128 7.81576 8.0374 8.35003 8.04313 8.90914C7.97124 11.7144 3.86865 11.7085 3.79844 8.90909ZM8.97812 8.90909C8.97788 8.83926 8.99146 8.77007 9.01807 8.7055C9.04468 8.64094 9.08381 8.58228 9.13318 8.5329C9.18256 8.48352 9.24122 8.4444 9.30579 8.41779C9.37035 8.39118 9.43954 8.3776 9.50937 8.37784H15.2522C15.3931 8.37784 15.5282 8.43381 15.6278 8.53344C15.7275 8.63307 15.7834 8.7682 15.7834 8.90909C15.7834 9.04999 15.7275 9.18511 15.6278 9.28474C15.5282 9.38437 15.3931 9.44034 15.2522 9.44034H9.50937C9.43942 9.44103 9.37003 9.42776 9.30526 9.40131C9.2405 9.37485 9.18166 9.33575 9.13219 9.28628C9.08272 9.23681 9.04361 9.17797 9.01716 9.1132C8.99071 9.04844 8.97744 8.97905 8.97812 8.90909ZM16.7131 8.90909C16.7196 8.34978 16.9464 7.81559 17.3442 7.42238C17.742 7.02917 18.2788 6.80866 18.8381 6.80866C19.3975 6.80867 19.9343 7.0292 20.3321 7.42242C20.7299 7.81563 20.9566 8.34983 20.9631 8.90914C20.9566 9.46845 20.7299 10.0026 20.3321 10.3958C19.9342 10.7891 19.3974 11.0096 18.8381 11.0096C18.2788 11.0096 17.742 10.789 17.3442 10.3958C16.9464 10.0026 16.7196 9.4684 16.7131 8.90909ZM24.8466 11.0341C22.0466 10.9635 22.0418 6.86089 24.8466 6.7894C25.4058 6.79501 25.9402 7.02108 26.3337 7.4185C26.7271 7.81591 26.9478 8.35255 26.9478 8.91178C26.9478 9.47101 26.7271 10.0076 26.3336 10.405C25.9402 10.8024 25.4058 11.0285 24.8466 11.0341ZM3.79844 22.201C3.80418 21.6419 4.03031 21.1076 4.42771 20.7143C4.82511 20.3209 5.36166 20.1003 5.9208 20.1003C6.47995 20.1003 7.0165 20.3209 7.41389 20.7143C7.81128 21.1076 8.0374 21.6419 8.04313 22.201C7.97124 25.0063 3.86865 25.0003 3.79844 22.201ZM8.97812 22.201C8.97788 22.1311 8.99146 22.0619 9.01807 21.9974C9.04468 21.9328 9.08381 21.8742 9.13318 21.8248C9.18256 21.7754 9.24122 21.7363 9.30579 21.7097C9.37035 21.6831 9.43954 21.6695 9.50937 21.6697H15.2522C15.3931 21.6697 15.5282 21.7257 15.6278 21.8253C15.7275 21.9249 15.7834 22.0601 15.7834 22.201C15.7834 22.3419 15.7275 22.477 15.6278 22.5766C15.5282 22.6762 15.3931 22.7322 15.2522 22.7322H9.50937C9.43942 22.7329 9.37003 22.7196 9.30526 22.6932C9.2405 22.6667 9.18166 22.6276 9.13219 22.5782C9.08272 22.5287 9.04361 22.4698 9.01716 22.4051C8.99071 22.3403 8.97744 22.2709 8.97812 22.201Z" fill="url(#paint0_linear_1047_2889)"/>
<defs>
<linearGradient id="paint0_linear_1047_2889" x1="2.125" y1="16.982" x2="31.875" y2="16.982" gradientUnits="userSpaceOnUse">
<stop stop-color="#FF81FF"/>
<stop offset="1" stop-color="#A93AFF"/>
</linearGradient>
</defs>
</svg>
