<svg width="31" height="31" viewBox="0 0 31 31" fill="none" xmlns="http://www.w3.org/2000/svg">
<path fill-rule="evenodd" clip-rule="evenodd" d="M29.8519 17.6943C29.8265 17.8186 29.7545 17.9061 29.6378 17.956L28.4237 18.4719C28.382 18.4894 28.3482 18.4865 28.31 18.4613C28.2718 18.4365 28.2554 18.4071 28.2548 18.3616C28.2256 15.4606 27.0385 12.9413 24.8223 11.0752C24.7884 11.047 24.7756 11.016 24.78 10.9711C24.784 10.9271 24.8024 10.8984 24.8418 10.8774L26.3905 10.0158C26.4486 9.98314 26.5098 9.9674 26.5697 9.9674C26.6472 9.9674 26.7237 9.99392 26.792 10.0479C29.0989 11.8673 30.3856 15.0828 29.8519 17.6943V17.6943ZM9.21275 22.8079L10.1088 21.2558C10.1088 21.2558 10.1088 21.2556 10.109 21.2554L10.1221 21.2326C10.229 21.0329 10.2556 20.8027 10.196 20.5812C10.1341 20.3505 9.98793 20.1585 9.7831 20.04C9.35746 19.7946 8.81242 19.9406 8.56678 20.3657L7.66638 21.926C7.42105 22.3511 7.56721 22.8966 7.992 23.1417C8.19623 23.2599 8.43575 23.2907 8.66656 23.2289C8.89791 23.167 9.0899 23.0206 9.20779 22.8161L9.21275 22.8079ZM12.2795 22.5089L12.2801 22.5086C12.3976 22.3044 12.4286 22.0645 12.3673 21.8347C12.3049 21.6038 12.1584 21.4119 11.9539 21.2931C11.5288 21.0481 10.9833 21.1939 10.7382 21.619L10.7336 21.6267L9.84147 23.1719L9.83729 23.1794C9.83729 23.1799 9.83729 23.18 9.8365 23.1805L9.69664 23.4227L9.27772 24.1486C9.15953 24.3535 9.12895 24.593 9.19047 24.8232C9.25235 25.0539 9.39881 25.2459 9.60358 25.3647C9.80811 25.482 10.0479 25.5135 10.2787 25.4511C10.5092 25.3892 10.7017 25.2428 10.8193 25.0388L11.0749 24.5962L11.0798 24.588L12.2693 22.5279C12.2725 22.5216 12.2759 22.5153 12.2795 22.509L12.2795 22.5089ZM14.4501 23.7623C14.5688 23.5578 14.5998 23.3179 14.5379 23.0877C14.476 22.8572 14.329 22.6653 14.1245 22.5465C13.9203 22.4292 13.6807 22.3974 13.4499 22.4602C13.2192 22.5217 13.0272 22.6676 12.9099 22.8712H12.9099L11.6997 24.9668C11.4603 25.3908 11.6068 25.9314 12.0295 26.175C12.2343 26.2932 12.4738 26.3241 12.7045 26.2623C12.9354 26.2004 13.1279 26.054 13.2458 25.8495L13.5498 25.3226L13.5511 25.3204L14.4481 23.766L14.4501 23.7623ZM18.1586 25.2669L17.5561 24.9188C17.5122 24.8937 17.4756 24.8607 17.447 24.8226C17.4172 25.0134 17.3524 25.2019 17.2503 25.3789L16.7694 26.2116L17.1794 26.4421C17.8403 26.8237 18.2831 26.5941 18.4631 26.2825C18.6381 25.9791 18.6174 25.5321 18.1585 25.2669H18.1586ZM6.17766 11.0753C6.2115 11.047 6.22434 11.0155 6.21998 10.9711C6.21586 10.9271 6.19752 10.8985 6.15871 10.8775L4.61004 10.0159C4.47496 9.94118 4.3291 9.95287 4.20801 10.048C1.90172 11.8674 0.61443 15.0828 1.14809 17.6943C1.17346 17.8186 1.24551 17.9061 1.36224 17.956L2.57681 18.4719C2.61799 18.4894 2.65268 18.4865 2.69004 18.4613C2.72824 18.4365 2.74459 18.4071 2.7452 18.3616C2.77438 15.4606 3.96152 12.9413 6.17772 11.0752L6.17766 11.0753ZM23.3492 19.6602L19.461 17.4155C18.6974 16.9741 17.9762 16.5568 17.0747 16.5568H17.0578C16.2345 16.5615 15.4952 16.9224 14.7795 17.2717C13.625 17.8362 12.4303 18.4197 11.0929 17.3122C10.7191 17.0029 10.5055 16.5406 10.5344 16.1049C10.5619 15.7079 10.7827 15.3604 11.1576 15.1261L12.7057 14.1612C12.0577 13.8044 11.4845 13.3278 11.0166 12.7611C10.7749 12.7777 10.5283 12.7894 10.2748 12.7894C9.31314 12.7894 8.2532 12.6198 6.98905 11.9085L6.58599 11.6822C4.58328 13.3941 3.53691 15.5935 3.47448 18.224L6.59725 19.8341C6.63491 19.8527 6.66875 19.879 6.69703 19.9099L7.49552 20.769L7.93782 20.0024C8.38332 19.2305 9.37441 18.9652 10.1464 19.4107C10.5187 19.6258 10.7859 19.9744 10.898 20.3928C10.9122 20.4462 10.9239 20.5007 10.9329 20.5547C11.3717 20.3875 11.8791 20.4117 12.317 20.6641C12.6898 20.8797 12.9568 21.2277 13.0689 21.6461C13.0835 21.7001 13.0951 21.7547 13.1036 21.8092C13.1549 21.7891 13.2075 21.7722 13.2614 21.7582C13.6798 21.6456 14.115 21.7025 14.4877 21.9175C14.8605 22.1331 15.1275 22.4817 15.2395 22.8995C15.2541 22.9536 15.2655 23.0072 15.2742 23.0612C15.7136 22.894 16.221 22.9183 16.6589 23.1709C17.1158 23.4347 17.3951 23.8895 17.4545 24.3768C17.5648 24.2395 17.762 24.1991 17.9193 24.2898L19.2363 25.0501C19.6311 25.2785 20.1378 25.1423 20.366 24.7475C20.5904 24.3587 20.4622 23.8613 20.0812 23.6281L18.5261 22.73C18.3522 22.6302 18.293 22.4079 18.3934 22.234C18.4934 22.0604 18.7155 22.0003 18.8894 22.101L20.8097 23.2097C21.0183 23.3302 21.2616 23.3614 21.4959 23.2987C21.7302 23.2356 21.9251 23.0866 22.045 22.8788C22.2944 22.4473 22.1462 21.8927 21.7144 21.6438C21.7105 21.6416 21.7067 21.6392 21.7028 21.6368L20.0753 20.6976C19.9018 20.597 19.8416 20.3747 19.9423 20.2011C20.0427 20.0272 20.265 19.968 20.4389 20.0678L22.0766 21.0136L22.0778 21.0142L22.079 21.0149L22.4611 21.2356C22.6689 21.3555 22.9122 21.387 23.1471 21.3246C23.3808 21.2616 23.5765 21.1128 23.6962 20.9051C23.8108 20.7064 23.8441 20.4636 23.7889 20.2361C23.7034 20.0144 23.6431 19.8746 23.3492 19.6602V19.6602ZM24.4048 11.6744L23.6072 12.118C22.8498 12.5393 22.0585 12.7509 21.2434 12.7509C20.8668 12.7509 20.4853 12.7055 20.0994 12.6155C19.0355 13.9909 17.3696 14.8784 15.4999 14.8784C14.7969 14.8784 14.1226 14.7529 13.4983 14.5231L11.5419 15.7428C11.366 15.8526 11.2709 15.9911 11.2601 16.1537C11.2461 16.357 11.3622 16.5924 11.5565 16.753C12.4872 17.5238 13.2294 17.2209 14.4612 16.619C15.2125 16.2523 16.0644 15.8357 17.0531 15.8301H17.0753C18.1714 15.8301 19.0117 16.3165 19.8248 16.7867L23.7282 19.0402C23.7393 19.0463 23.7495 19.0531 23.7591 19.0604C24.0499 19.2694 24.2101 19.4628 24.3142 19.6424L27.5236 18.1573C27.4451 15.5524 26.3964 13.3729 24.4047 11.6745L24.4048 11.6744ZM16.2955 23.7999C15.8713 23.5552 15.3262 23.7005 15.0806 24.1244L15.0805 24.1245L15.0797 24.1258L15.0796 24.126L14.1804 25.6831L14.1787 25.6861C13.9337 26.1109 14.0796 26.6565 14.5047 26.9015C14.7092 27.0197 14.9484 27.0506 15.1798 26.9888C15.4103 26.9272 15.6023 26.7807 15.7204 26.576L16.6214 25.0157C16.8665 24.5906 16.7206 24.0459 16.2955 23.7999ZM10.4139 9.06598C10.4139 6.26133 12.6955 3.9801 15.4998 3.9801C18.3042 3.9801 20.586 6.26133 20.586 9.06598C20.586 11.8706 18.3045 14.1519 15.4998 14.1519C12.6952 14.1519 10.4139 11.8703 10.4139 9.06598ZM11.6716 7.80007L13.6416 9.64777L13.1338 12.3005L15.4998 10.9978L17.8658 12.3005L17.3581 9.64771L19.3281 7.80007L16.6483 7.46318L15.4998 5.01866L14.3514 7.46318L11.6716 7.80007Z" fill="url(#paint0_linear_1047_2884)"/>
<defs>
<linearGradient id="paint0_linear_1047_2884" x1="15.5" y1="27.0199" x2="15.5" y2="3.98004" gradientUnits="userSpaceOnUse">
<stop stop-color="#1751FF"/>
<stop offset="1" stop-color="#17A0FF"/>
</linearGradient>
</defs>
</svg>
