<svg width="26" height="26" viewBox="0 0 26 26" fill="none" xmlns="http://www.w3.org/2000/svg">
<path d="M0.355196 18.9152C0.478543 20.0404 1.39002 20.9196 2.51949 20.9986C2.61293 21.0052 2.70576 21.0118 2.79859 21.0178C3.48728 21.0645 4.02267 21.6364 4.02267 22.3269V24.9368C4.02267 25.8148 5.02758 26.313 5.72587 25.7812C7.00028 24.8104 8.69566 23.3666 9.73591 21.8694C9.98205 21.5148 10.3887 21.3082 10.8204 21.3106C14.0232 21.3268 17.226 21.2238 20.4287 20.9986C21.3216 20.9363 22.0798 20.3752 22.4176 19.5859C22.5074 19.3787 22.5673 19.1547 22.593 18.9206C23.0673 14.5877 23.0673 10.2543 22.593 5.92086C22.4697 4.79677 21.5576 3.92181 20.4299 3.84279C15.6587 3.50804 10.8881 3.44096 6.11745 3.64155C4.9185 3.69126 3.719 3.75834 2.52005 3.84279C1.39179 3.92181 0.479102 4.79677 0.355754 5.92086C-0.118492 10.2525 -0.118492 14.5835 0.355196 18.9152Z" fill="#F4DD45"/>
<path d="M2.41097 5.9207C1.93672 10.2525 1.93672 14.5833 2.41097 18.9151C2.53462 20.0403 3.44538 20.9193 4.57542 20.9985C4.66814 21.0052 4.76183 21.011 4.85456 21.0178C5.54321 21.0641 6.07829 21.6359 6.07829 22.3265V24.9362C6.07829 25.1148 6.11983 25.2771 6.19224 25.4191C6.03192 25.5456 5.87643 25.6664 5.72576 25.7813C5.02747 26.3125 4.02297 25.8142 4.02297 24.9362V22.3265C4.02297 21.6359 3.48692 21.0641 2.79828 21.0178C2.70555 21.011 2.61282 21.0052 2.51913 20.9985C1.39006 20.9193 0.478283 20.0403 0.355646 18.9151C-0.118549 14.5833 -0.118549 10.2525 0.355646 5.9207C0.479299 4.79646 1.39199 3.9214 2.5201 3.84223C3.71874 3.75824 4.91829 3.6906 6.11785 3.64134C8.25431 3.55151 10.3917 3.51479 12.5282 3.53317C11.0765 3.54379 9.62485 3.5805 8.17317 3.64134C6.97458 3.6906 5.77497 3.75819 4.57542 3.84223C3.44731 3.92145 2.53462 4.79651 2.41097 5.9207Z" fill="#EAB14D"/>
<path d="M12.3494 8.4198H3.22815C3.01142 8.4198 2.83582 8.24415 2.83582 8.02747C2.83582 7.81078 3.01147 7.63513 3.22815 7.63513H12.3494C12.5662 7.63513 12.7418 7.81078 12.7418 8.02747C12.7418 8.24415 12.5661 8.4198 12.3494 8.4198Z" fill="#404A4A"/>
<path d="M12.3494 10.3901H3.22815C3.01142 10.3901 2.83582 10.2145 2.83582 9.9978C2.83582 9.78112 3.01147 9.60547 3.22815 9.60547H12.3494C12.5662 9.60547 12.7418 9.78112 12.7418 9.9978C12.7418 10.2145 12.5661 10.3901 12.3494 10.3901Z" fill="#404A4A"/>
<path d="M12.3494 12.3605H3.22815C3.01142 12.3605 2.83582 12.1848 2.83582 11.9681C2.83582 11.7515 3.01147 11.5758 3.22815 11.5758H12.3494C12.5662 11.5758 12.7418 11.7515 12.7418 11.9681C12.7418 12.1848 12.5661 12.3605 12.3494 12.3605Z" fill="#404A4A"/>
<path d="M12.3494 14.3307H3.22815C3.01142 14.3307 2.83582 14.155 2.83582 13.9384C2.83582 13.7217 3.01147 13.546 3.22815 13.546H12.3494C12.5662 13.546 12.7418 13.7217 12.7418 13.9384C12.7418 14.155 12.5661 14.3307 12.3494 14.3307Z" fill="#404A4A"/>
<path d="M6.80442 16.301H3.22815C3.01142 16.301 2.83582 16.1254 2.83582 15.9087C2.83582 15.692 3.01147 15.5164 3.22815 15.5164H6.80447C7.02121 15.5164 7.19681 15.692 7.19681 15.9087C7.19681 16.1254 7.02116 16.301 6.80442 16.301Z" fill="#404A4A"/>
<path d="M14.017 18.3627C13.947 18.3627 13.8761 18.3439 13.8121 18.3046C13.6275 18.1913 13.5697 17.9497 13.6831 17.765L13.9601 17.3139C14.0735 17.1292 14.3152 17.0714 14.4997 17.1848C14.6844 17.2982 14.7422 17.5397 14.6288 17.7244L14.3518 18.1756C14.2777 18.2962 14.1489 18.3627 14.017 18.3627Z" fill="#404A4A"/>
<path d="M20.4537 13.5441C20.2561 13.5441 20.0861 13.3952 20.0642 13.1942C19.9832 12.4523 20.7922 11.1988 22.1187 9.21511C23.2059 7.5893 24.4382 5.74655 24.6105 4.6773C24.7595 3.75232 24.364 3.10288 23.435 2.74705C23.2326 2.66956 23.1314 2.44267 23.2089 2.24031C23.2863 2.03799 23.5131 1.93669 23.7156 2.01423C24.9837 2.4999 25.5923 3.51603 25.3852 4.80202C25.1856 6.04042 23.9581 7.87606 22.7709 9.65127C21.8884 10.9709 20.7901 12.6133 20.8442 13.1091C20.8677 13.3245 20.7121 13.5182 20.4967 13.5417C20.4823 13.5433 20.468 13.5441 20.4537 13.5441Z" fill="#B4D0D5"/>
<path d="M23.6344 3.01706L24.3796 1.63748C24.5679 1.28882 24.4377 0.852708 24.089 0.66436L23.0191 0.0864184C22.6699 -0.102183 22.2343 0.0282739 22.0459 0.376989L21.3008 1.75651" fill="#DFEAEF"/>
<path d="M23.8964 0.560299C23.5472 0.371697 23.1116 0.502154 22.9233 0.850869L22.1781 2.23044L21.3008 1.75655L22.0459 0.376979C22.2343 0.0283145 22.6699 -0.102193 23.0191 0.0864083L23.8964 0.560299Z" fill="#B4D0D5"/>
<path d="M23.6743 3.66959C23.227 5.43048 22.3015 7.7234 21.0099 10.1147C20.5009 11.0563 19.9741 11.9425 19.4473 12.7524C19.3008 12.9768 19.1548 13.1949 19.0089 13.4073C17.0487 16.2653 15.1591 17.9864 14.2938 17.5187C13.4286 17.0516 13.8319 14.5284 15.1471 11.3216C15.2444 11.0836 15.3475 10.8414 15.4552 10.596C15.8434 9.71139 16.2954 8.78488 16.8039 7.84274C18.0955 5.45145 19.5059 3.4201 20.7327 2.0809C21.0664 1.71679 21.6052 1.62788 22.0395 1.86223L23.1406 2.45703C23.5754 2.69184 23.7961 3.19143 23.6743 3.66959Z" fill="#6BBEF6"/>
<path d="M14.2939 17.519C13.1324 16.8916 14.2564 12.5593 16.8039 7.84307C18.0956 5.45168 19.5055 3.42038 20.7327 2.08067C21.0662 1.71692 21.6052 1.62775 22.0395 1.86236L22.4385 2.07793C22.3192 2.01349 22.056 2.2516 21.7997 2.65709C20.8547 4.14924 19.6204 6.27535 18.3287 8.66674C15.7813 13.383 13.9746 17.3465 14.2939 17.519Z" fill="#528ECB"/>
<path d="M19.4486 12.7526C19.3021 12.977 19.1562 13.1951 19.0102 13.4075L15.1484 11.3218C15.2457 11.0838 15.3488 10.8416 15.4566 10.5962L19.4486 12.7526Z" fill="#DFEAEF"/>
</svg>
