<svg width="26" height="26" viewBox="0 0 26 26" fill="none" xmlns="http://www.w3.org/2000/svg">
<g clip-path="url(#clip0_1047_2890)">
<path fill-rule="evenodd" clip-rule="evenodd" d="M8.15485 3.92913C7.61067 3.92913 7.16431 4.37544 7.16431 4.92114V5.81382C7.16431 6.35952 7.61062 6.80436 8.15485 6.80436H9.14686C10.3687 5.41788 9.78741 4.32055 9.07719 3.92908L8.15485 3.92913Z" fill="#9FD4FE"/>
<path fill-rule="evenodd" clip-rule="evenodd" d="M17.547 6.80431H18.157L18.5386 6.94025C18.5386 6.94025 18.7958 6.83996 18.9416 6.74591C19.3235 6.60794 19.5977 6.24099 19.5977 5.81372V4.92109C19.5977 4.37539 19.1529 3.92908 18.6072 3.92908H17.6152C16.8486 4.27901 16.7255 6.2023 17.547 6.80431Z" fill="#9FD4FE"/>
<path fill-rule="evenodd" clip-rule="evenodd" d="M7.16436 5.81383C7.16436 6.35952 7.61067 6.80436 8.1549 6.80436H9.14691C9.36192 6.56117 9.52056 6.3254 9.63329 6.1015H9.07866H8.15485C7.61067 6.1015 7.16431 5.65518 7.16431 5.11096L7.16436 5.81383Z" fill="#85BEEF"/>
<path fill-rule="evenodd" clip-rule="evenodd" d="M17.6152 6.1015H17.0873C17.1777 6.39365 17.3305 6.64572 17.547 6.80436H18.5493H18.6072C19.1529 6.80436 19.5977 6.35805 19.5977 5.81383V5.11096C19.5977 5.65518 19.1529 6.1015 18.6072 6.1015H18.5493H17.6152Z" fill="#85BEEF"/>
<path fill-rule="evenodd" clip-rule="evenodd" d="M14.4331 9.88284C14.0402 10.0296 13.6932 10.1023 13.3477 10.1023C13.0007 10.1023 12.6537 10.0296 12.2608 9.88284C11.902 9.74938 11.555 9.56403 11.2302 9.34009V11.8536L13.066 13.3675H13.628L14.4613 12.681L14.9061 12.3147L15.4637 11.8536V9.34009C15.1404 9.56398 14.7935 9.74938 14.4331 9.88284Z" fill="#F5A96C"/>
<path fill-rule="evenodd" clip-rule="evenodd" d="M13.3477 10.1022C13.0007 10.1022 12.6537 10.0296 12.2608 9.88277C11.902 9.74931 11.555 9.56396 11.2302 9.34002V10.5975C11.6662 11.0853 13.3625 11.7319 14.4569 11.1683V12.6527L15.4637 11.2988V9.89455V9.33997C15.1404 9.56386 14.7935 9.74921 14.4331 9.88272C14.0402 10.0296 13.6932 10.1022 13.3477 10.1022Z" fill="#EA9A58"/>
<path fill-rule="evenodd" clip-rule="evenodd" d="M12.4179 19.3375L13.3477 15.4761L9.8868 11.7319C9.25955 11.9677 8.59229 12.2687 7.9725 12.6409C6.93306 13.2667 6.02702 14.0971 5.67267 15.1647C5.56887 15.4747 5.51251 15.8054 5.51251 16.1568V18.8556C5.49026 19.2396 5.58218 19.3375 5.95882 19.3375H10.7024H12.4179Z" fill="#375E7D"/>
<path fill-rule="evenodd" clip-rule="evenodd" d="M21.1814 16.1568C21.1814 13.8747 18.7926 12.4778 16.8071 11.7319L13.3477 15.4761L14.3738 19.3375H20.7351C21.1132 19.3375 21.2037 19.2396 21.1814 18.8556V16.1568Z" fill="#375E7D"/>
<path fill-rule="evenodd" clip-rule="evenodd" d="M14.915 19.3375L14.2166 15.4762L13.3476 15.0061L12.4772 15.4762L11.7788 19.3375H13.3476H14.915Z" fill="#EB5468"/>
<path fill-rule="evenodd" clip-rule="evenodd" d="M13.3476 15.0061L12.4772 15.4762L12.363 16.1123H13.4167C13.4926 16.1123 13.5577 16.1666 13.5712 16.2413L14.1321 19.3375H14.915L14.2166 15.4762L13.3476 15.0061Z" fill="#E5384F"/>
<path fill-rule="evenodd" clip-rule="evenodd" d="M14.9418 13.9339L14.4613 13.2877L13.3477 13.0442L12.2676 13.2223L11.7537 13.9339L12.4773 15.4761H13.3477H14.2167L14.9418 13.9339Z" fill="#EB5468"/>
<path fill-rule="evenodd" clip-rule="evenodd" d="M13.3477 13.0442H12.2676L11.7537 13.9339L12.1036 14.6798L12.6848 14.3551L13.2711 14.0285C13.3187 14.002 13.3766 14.002 13.4242 14.0286L14.0921 14.4025L14.5903 14.6798L14.9417 13.9339L14.5563 13.2485L13.3477 13.0442Z" fill="#E5384F"/>
<path fill-rule="evenodd" clip-rule="evenodd" d="M13.3476 13.0443L11.2301 11.299C10.8342 11.4057 10.3716 11.5496 9.88672 11.732L11.1129 14.1048C11.1536 14.1834 11.2511 14.2129 11.3285 14.1699L11.7536 13.934L13.3476 13.0443Z" fill="#EFF6FF"/>
<path fill-rule="evenodd" clip-rule="evenodd" d="M16.8071 11.732C16.3222 11.5496 15.861 11.4057 15.4637 11.299L13.3477 13.0443L14.9417 13.934L15.3667 14.1699C15.4441 14.2129 15.5417 14.1833 15.5823 14.1047L16.8071 11.732Z" fill="#EFF6FF"/>
<path fill-rule="evenodd" clip-rule="evenodd" d="M16.8071 11.732C16.3222 11.5496 15.861 11.4057 15.4637 11.299L14.9061 11.7586L14.4613 12.1249C14.881 12.2584 15.3376 12.4245 15.8003 12.6246C15.9486 12.6884 16.0954 12.7566 16.2422 12.8263L16.8071 11.732Z" fill="#D9EEFF"/>
<path fill-rule="evenodd" clip-rule="evenodd" d="M21.1815 16.1568C21.1815 13.8747 18.7926 12.4778 16.8071 11.7319L16.2422 12.8263C18.2277 13.5721 19.5504 14.969 19.5504 17.2511V19.3375H20.7352C21.1133 19.3375 21.2037 19.2397 21.1815 18.8556V16.1568Z" fill="#2B4D66"/>
<path fill-rule="evenodd" clip-rule="evenodd" d="M17.6152 6.20229V5.10349C17.0235 3.75408 10.8031 0.509562 9.07861 5.41635V6.20229C9.07861 7.73411 10.5184 9.65587 12.2785 10.3083C12.6641 10.4521 13.0051 10.5233 13.3476 10.5233C13.6887 10.5233 14.0297 10.4521 14.4167 10.3083C16.1753 9.65587 17.6152 7.73406 17.6152 6.20229Z" fill="#FFBC85"/>
<path fill-rule="evenodd" clip-rule="evenodd" d="M17.6152 3.57171C17.6152 0.438409 12.5707 -1.12449 10.9915 0.926265C8.92888 1.10867 9.08011 3.85345 9.08011 4.21526L9.07859 5.10353V5.41639C10.5362 4.33389 10.0528 4.60526 11.0937 3.96171C12.6833 2.98006 14.0342 5.10353 16.555 5.10353H17.6152L17.6152 3.57171Z" fill="#375E7D"/>
<path fill-rule="evenodd" clip-rule="evenodd" d="M15.431 9.7746C16.2495 9.20813 16.9227 8.39259 17.2964 7.55622C17.5011 7.09949 17.6152 6.63535 17.6152 6.20239V5.10359C17.1852 4.73583 16.7167 4.56977 16.2525 5.09323V6.20239C16.2525 7.42724 15.3332 8.90121 14.0639 9.7776C13.7466 9.99707 13.407 10.178 13.0541 10.3085C12.9192 10.3589 12.7917 10.3989 12.6656 10.4316C12.9014 10.4938 13.1238 10.5235 13.3477 10.5235C13.6888 10.5235 14.0298 10.4523 14.4168 10.3085C14.7697 10.178 15.1122 9.99408 15.431 9.7746Z" fill="#F5A96C"/>
<path fill-rule="evenodd" clip-rule="evenodd" d="M16.2526 5.09323C16.3519 5.10064 16.4528 5.10359 16.5551 5.10359H17.6153V3.57177C17.6153 1.16952 14.6511 -0.308879 12.5559 0.0559337C14.3768 0.334723 16.2526 1.66189 16.2526 3.57177V5.09323Z" fill="#2B4D66"/>
<path fill-rule="evenodd" clip-rule="evenodd" d="M1.3086 18.2595H24.6912C25.4104 18.2595 25.9991 18.8482 25.9991 19.5674V24.6922C25.9991 25.4113 25.4104 26.0001 24.6912 26.0001H1.3086C0.589439 26.0001 0.000732422 25.4113 0.000732422 24.6922V19.5674C0.000783203 18.8482 0.589439 18.2595 1.3086 18.2595Z" fill="#9FD4FE"/>
<path fill-rule="evenodd" clip-rule="evenodd" d="M25.9991 24.6922V19.5674C25.9991 18.8482 25.4104 18.2595 24.6912 18.2595H22.7354C23.4545 18.2595 24.0432 18.8482 24.0432 19.5674V20.5387V24.6922C24.0432 25.4113 23.4546 26.0001 22.7354 26.0001H24.6912C25.4104 26.0001 25.9991 25.4113 25.9991 24.6922Z" fill="#85BEEF"/>
<path d="M2.72772 23.9086C2.24474 23.9086 1.77339 23.7061 1.46693 23.3671C1.32159 23.2063 1.33408 22.9582 1.49486 22.8129C1.65558 22.6677 1.9037 22.6802 2.04898 22.8409C2.2092 23.0181 2.4629 23.1238 2.72767 23.1238C2.97056 23.1238 3.14687 22.9784 3.17084 22.8437C3.20278 22.665 2.92084 22.5463 2.8337 22.5142C2.40044 22.3541 2.01552 22.1821 1.99937 22.1749C1.98068 22.1665 1.9627 22.1567 1.94559 22.1456C1.63694 21.9445 1.4781 21.5919 1.53111 21.2252C1.58738 20.836 1.8716 20.5198 2.27288 20.3999C3.05455 20.1638 3.69881 20.6944 3.72588 20.7171C3.89183 20.8564 3.91336 21.1039 3.77402 21.2698C3.63534 21.435 3.38956 21.4571 3.2236 21.3199C3.21324 21.3117 2.86702 21.0398 2.4987 21.1514C2.34387 21.1976 2.31365 21.2968 2.30776 21.3373C2.30294 21.3706 2.3038 21.4297 2.35575 21.4744C2.45874 21.5196 2.77089 21.6543 3.10538 21.7779C3.83364 22.0463 4.01584 22.5756 3.94343 22.9815C3.84765 23.5187 3.33634 23.9086 2.72772 23.9086Z" fill="#2B4D66"/>
<path d="M6.05221 23.9086C5.78627 23.9086 5.54211 23.8382 5.3266 23.6992C4.91786 23.4399 4.70935 23.0855 4.70935 22.6473V20.7314C4.70935 20.5147 4.885 20.3391 5.10169 20.3391C5.31842 20.3391 5.49402 20.5148 5.49402 20.7314V22.6473C5.49402 22.7886 5.53673 22.9033 5.7493 23.0381C5.83964 23.0964 5.9379 23.1239 6.05216 23.1239C6.1585 23.1239 6.25087 23.1033 6.33471 23.0609C6.60766 22.9232 6.64442 22.7738 6.64442 22.6458V20.7314C6.64442 20.5147 6.82007 20.3391 7.03676 20.3391C7.25344 20.3391 7.42909 20.5148 7.42909 20.7314V22.6458C7.42909 22.9842 7.30062 23.4524 6.68855 23.7613C6.49548 23.859 6.28123 23.9086 6.05221 23.9086Z" fill="#2B4D66"/>
<path d="M24.2419 20.3494H22.7042C22.4875 20.3494 22.3119 20.525 22.3119 20.7417C22.3119 20.9584 22.4875 21.134 22.7042 21.134H23.077V23.5265C23.077 23.7432 23.2527 23.9188 23.4693 23.9188C23.686 23.9188 23.8617 23.7432 23.8617 23.5265V21.1341H24.2419C24.4586 21.1341 24.6342 20.9584 24.6342 20.7418C24.6343 20.525 24.4587 20.3494 24.2419 20.3494Z" fill="#2B4D66"/>
<path d="M21.5085 21.455C21.5085 20.8396 20.9892 20.339 20.351 20.339H19.6111C19.3973 20.339 19.2188 20.5177 19.2188 20.7313V23.5162C19.2188 23.7329 19.3944 23.9085 19.6111 23.9085C19.8278 23.9085 20.0034 23.7329 20.0034 23.5162V22.8462L20.8217 23.7755C20.8992 23.8636 21.0075 23.9086 21.1163 23.9086C21.2084 23.9086 21.3009 23.8763 21.3754 23.8106C21.5381 23.6674 21.5538 23.4195 21.4106 23.2569L20.7473 22.5036C21.1909 22.3472 21.5085 21.9362 21.5085 21.455ZM20.351 21.1237C20.5531 21.1237 20.7238 21.2754 20.7238 21.455C20.7238 21.6346 20.5531 21.7863 20.351 21.7863C20.2698 21.7863 20.1376 21.7868 20.0074 21.7873C20.0069 21.661 20.0059 21.2567 20.0054 21.1237H20.351Z" fill="#2B4D66"/>
<path d="M12.7901 20.339H12.0145C11.8007 20.339 11.6222 20.5177 11.6222 20.7313V23.5162C11.6222 23.7329 11.7978 23.9085 12.0145 23.9085C12.2313 23.9085 12.4069 23.7329 12.4069 23.5162V22.6967C12.5503 22.6961 12.7 22.6955 12.79 22.6955C13.4479 22.6955 13.9831 22.167 13.9831 21.5173C13.9831 20.8675 13.4479 20.339 12.7901 20.339ZM12.7901 21.9109C12.7006 21.9109 12.5527 21.9114 12.4101 21.912C12.4091 21.7643 12.4084 21.6096 12.4084 21.5173C12.4084 21.4389 12.4081 21.279 12.4078 21.1237H12.7901C13.0114 21.1237 13.1984 21.3039 13.1984 21.5173C13.1984 21.7306 13.0114 21.9109 12.7901 21.9109Z" fill="#2B4D66"/>
<path d="M9.62136 20.339H8.84583C8.63204 20.339 8.45349 20.5177 8.45349 20.7313V23.5162C8.45349 23.7329 8.62914 23.9085 8.84583 23.9085C9.06256 23.9085 9.23816 23.7329 9.23816 23.5162V22.6967C9.38172 22.6961 9.53142 22.6955 9.62131 22.6955C10.2792 22.6955 10.8144 22.167 10.8144 21.5173C10.8144 20.8675 10.2792 20.339 9.62136 20.339ZM9.62136 21.9109C9.53193 21.9109 9.3837 21.9114 9.2408 21.912C9.24019 21.7642 9.23969 21.6096 9.23969 21.5173C9.23969 21.4389 9.23938 21.279 9.23908 21.1237H9.62136C9.84271 21.1237 10.0297 21.3039 10.0297 21.5173C10.0297 21.7306 9.84271 21.9109 9.62136 21.9109Z" fill="#2B4D66"/>
<path d="M16.466 23.9086C15.4819 23.9086 14.6813 23.1079 14.6813 22.1238C14.6813 21.1397 15.4819 20.339 16.466 20.339C17.4501 20.339 18.2507 21.1397 18.2507 22.1238C18.2507 23.1079 17.4501 23.9086 16.466 23.9086ZM16.466 21.1237C15.9146 21.1237 15.466 21.5724 15.466 22.1238C15.466 22.6752 15.9146 23.1238 16.466 23.1238C17.0174 23.1238 17.466 22.6752 17.466 22.1238C17.466 21.5724 17.0174 21.1237 16.466 21.1237Z" fill="#2B4D66"/>
<path d="M18.9418 6.74646V8.01614C18.9418 8.94417 18.1868 9.7001 17.2593 9.7001H13.6293C13.4127 9.7001 13.2369 9.52435 13.2369 9.30776C13.2369 9.09067 13.4127 8.91543 13.6293 8.91543H17.2593C17.7542 8.91543 18.157 8.51156 18.157 8.01614V6.80455H18.6075C18.7247 6.80455 18.8371 6.78414 18.9418 6.74646Z" fill="#375E7D"/>
</g>
<defs>
<clipPath id="clip0_1047_2890">
<rect width="26" height="26" fill="white"/>
</clipPath>
</defs>
</svg>
