<svg width="26" height="26" viewBox="0 0 26 26" fill="none" xmlns="http://www.w3.org/2000/svg">
<g clip-path="url(#clip0_1047_2603)">
<path d="M15.4375 3.25H2.97917C1.3325 3.25 0 4.5825 0 6.22917V19.7708C0 21.4175 1.3325 22.75 2.97917 22.75H10.9742L11.2125 21.4175C11.3219 20.8108 11.6025 20.2692 12.0369 19.825L13.4453 18.4167H4.0625C3.61833 18.4167 3.25 18.0483 3.25 17.6042C3.25 17.16 3.61833 16.7917 4.0625 16.7917H14.3542C14.5492 16.7917 14.7333 16.8675 14.8742 16.9867L18.4167 13.455V6.22917C18.4167 4.5825 17.0842 3.25 15.4375 3.25ZM14.3542 14.8958H4.0625C3.61833 14.8958 3.25 14.5275 3.25 14.0833C3.25 13.6392 3.61833 13.2708 4.0625 13.2708H14.3542C14.7983 13.2708 15.1667 13.6392 15.1667 14.0833C15.1667 14.5275 14.7983 14.8958 14.3542 14.8958ZM14.3542 11.375H4.0625C3.61833 11.375 3.25 11.0067 3.25 10.5625C3.25 10.1183 3.61833 9.75 4.0625 9.75H14.3542C14.7983 9.75 15.1667 10.1183 15.1667 10.5625C15.1667 11.0067 14.7983 11.375 14.3542 11.375Z" fill="#2196F3"/>
<path d="M13.2734 2.16667H12.0818C11.7243 0.920833 10.5759 0 9.21094 0C7.84594 0 6.6976 0.920833 6.3401 2.16667H5.14844C4.70427 2.16667 4.33594 2.535 4.33594 2.97917V5.14583C4.33594 6.18583 5.19177 7.04167 6.23177 7.04167H12.1901C13.2301 7.04167 14.0859 6.18583 14.0859 5.14583V2.97917C14.0859 2.535 13.7176 2.16667 13.2734 2.16667Z" fill="#7170FA"/>
<path d="M15.1667 10.5625C15.1667 11.0067 14.7983 11.375 14.3542 11.375H4.0625C3.61833 11.375 3.25 11.0067 3.25 10.5625C3.25 10.1183 3.61833 9.75 4.0625 9.75H14.3542C14.7983 9.75 15.1667 10.1183 15.1667 10.5625Z" fill="white"/>
<path d="M15.1667 14.0833C15.1667 14.5275 14.7983 14.8958 14.3542 14.8958H4.0625C3.61833 14.8958 3.25 14.5275 3.25 14.0833C3.25 13.6391 3.61833 13.2708 4.0625 13.2708H14.3542C14.7983 13.2708 15.1667 13.6391 15.1667 14.0833Z" fill="white"/>
<path d="M14.8742 16.9867L13.4442 18.4167H4.0625C3.61833 18.4167 3.25 18.0484 3.25 17.6042C3.25 17.16 3.61833 16.7917 4.0625 16.7917H14.3542C14.5492 16.7917 14.7333 16.8675 14.8742 16.9867Z" fill="white"/>
<path d="M4.33333 3.25H2.97917C1.3325 3.25 0 4.5825 0 6.22917V19.7708C0 21.4175 1.3325 22.75 2.97917 22.75H9.20833V18.4167H4.0625C3.61833 18.4167 3.25 18.0483 3.25 17.6042C3.25 17.16 3.61833 16.7917 4.0625 16.7917H9.20833V14.8958H4.0625C3.61833 14.8958 3.25 14.5275 3.25 14.0833C3.25 13.6392 3.61833 13.2708 4.0625 13.2708H9.20833V11.375H4.0625C3.61833 11.375 3.25 11.0067 3.25 10.5625C3.25 10.1183 3.61833 9.75 4.0625 9.75H9.20833V7.04167H6.22917C5.18917 7.04167 4.33333 6.18583 4.33333 5.14583V3.25Z" fill="#7170FA"/>
<path d="M9.21094 0C7.84594 0 6.6976 0.920833 6.3401 2.16667H5.14844C4.70427 2.16667 4.33594 2.535 4.33594 2.97917V3.25V5.14583C4.33594 6.18583 5.19177 7.04167 6.23177 7.04167H9.21094V0Z" fill="#7170FA"/>
<path d="M9.20833 9.75H4.0625C3.61833 9.75 3.25 10.1183 3.25 10.5625C3.25 11.0067 3.61833 11.375 4.0625 11.375H9.20833V9.75Z" fill="#DEDEDE"/>
<path d="M9.20833 13.2708H4.0625C3.61833 13.2708 3.25 13.6391 3.25 14.0833C3.25 14.5275 3.61833 14.8958 4.0625 14.8958H9.20833V13.2708Z" fill="#DEDEDE"/>
<path d="M9.20833 16.7917H4.0625C3.61833 16.7917 3.25 17.16 3.25 17.6042C3.25 18.0484 3.61833 18.4167 4.0625 18.4167H9.20833V16.7917Z" fill="#DEDEDE"/>
<path d="M13.5699 26C13.3565 26 13.1485 25.9155 12.9957 25.7617C12.8083 25.5743 12.7238 25.3078 12.7704 25.0456L13.3446 21.7902C13.3727 21.6266 13.4529 21.4749 13.5699 21.3579L21.6136 13.3142C22.6016 12.3251 23.5723 12.5916 24.1031 13.1224L25.4432 14.4625C26.1831 15.2024 26.1831 16.4039 25.4432 17.1438L17.3995 25.1875C17.2825 25.3056 17.1308 25.3847 16.9661 25.4139L13.7107 25.987L13.5699 26Z" fill="#FFC107"/>
<path d="M22.9981 12.6479C22.5735 12.6479 22.0957 12.8321 21.6136 13.3141L13.5699 21.3579C13.4529 21.4749 13.3727 21.6266 13.3446 21.7901L12.7704 25.0456C12.7238 25.3077 12.8083 25.5742 12.9957 25.7616C13.0044 25.7703 13.012 25.7779 13.0206 25.7855L24.8929 13.9121L24.1021 13.1213C23.8312 12.8505 23.4434 12.6479 22.9981 12.6479Z" fill="#DEA806"/>
</g>
<defs>
<clipPath id="clip0_1047_2603">
<rect width="26" height="26" fill="white"/>
</clipPath>
</defs>
</svg>
