<svg width="26" height="26" viewBox="0 0 26 26" fill="none" xmlns="http://www.w3.org/2000/svg">
<g clip-path="url(#clip0_1047_2888)">
<path d="M23.5625 26H2.4375C1.09337 26 0 24.9066 0 23.5625V10.5625C0 9.84998 0.304688 9.18185 0.836316 8.72644C1.11084 8.48838 1.50917 8.46619 1.81228 8.66612L25.0844 24.1036C25.2938 24.2433 25.4271 24.4718 25.4462 24.7241C25.4636 24.9749 25.3637 25.2208 25.1764 25.3875C24.7337 25.7826 24.1592 26 23.5625 26Z" fill="#FFDE33"/>
<path d="M13 16.0881V26H23.5625C24.1592 26 24.7337 25.7826 25.1764 25.3874C25.3637 25.2208 25.4636 24.9748 25.4462 24.724C25.4271 24.4717 25.2938 24.2432 25.0844 24.1035L13 16.0881Z" fill="#FFBC33"/>
<path d="M25.7564 9.55481C25.6426 9.27867 25.4636 9.01841 25.2363 8.79152C25.2037 8.74231 25.155 8.71058 25.1061 8.67726C24.83 8.48206 24.4563 8.46622 24.1639 8.64552L19.5 11.7495L12.5449 16.3802C12.3176 16.5421 12.1875 16.7864 12.1875 17.0626C12.1875 17.3387 12.3177 17.5831 12.5449 17.745L24.6186 25.7557C25.4799 25.3494 26 24.4893 26 23.5625V10.5625C26 10.2213 25.9186 9.88017 25.7564 9.55481Z" fill="#FCB33B"/>
<path d="M0.214844 9.55673C0.621805 8.64896 1.50657 8.125 2.43749 8.125H5.68749C6.1366 8.125 6.49999 8.48839 6.49999 8.9375V12.2034C6.49999 12.5017 6.33495 12.7779 6.0715 12.9191C5.95246 12.9842 5.81916 13.0159 5.68749 13.0159C5.53037 13.0159 5.37488 12.9699 5.23995 12.881L0.214844 9.55673Z" fill="#F69838"/>
<path d="M25.2363 8.7915C25.2038 8.7423 25.155 8.71056 25.1061 8.67725C24.6674 8.3202 24.1314 8.125 23.5625 8.125H20.3125C19.8574 8.125 19.5 8.48204 19.5 8.9375V12.1875C19.5 12.4795 19.6627 12.7556 19.9225 12.9032C20.0527 12.9683 20.1823 13 20.3125 13C20.4752 13 20.6211 12.9508 20.7676 12.8698L25.7564 9.5548C25.6426 9.2787 25.4636 9.01845 25.2363 8.7915Z" fill="#F69838"/>
<path d="M25.2363 8.7915C25.3554 8.91054 25.4589 9.03906 25.5489 9.17394C25.4462 9.04384 25.3581 8.89627 25.2363 8.7915Z" fill="#5C5F66"/>
<path d="M13.0007 18.0385L4.875 12.6379V2.4375C4.875 1.09129 5.96629 0 7.3125 0H18.6875C20.0337 0 21.125 1.09129 21.125 2.4375V12.6223L13.0007 18.0385Z" fill="#E6EEFF"/>
<path d="M8.53125 22.75H4.0625C3.61339 22.75 3.25 22.3866 3.25 21.9375V18.9922C3.25 18.5431 3.61339 18.1797 4.0625 18.1797H8.53125C8.98036 18.1797 9.34375 18.5431 9.34375 18.9922V21.9375C9.34375 22.3866 8.98036 22.75 8.53125 22.75Z" fill="white"/>
<path d="M25.2363 8.7915C25.3554 8.91054 25.4589 9.03906 25.5489 9.17394C25.4462 9.04384 25.3581 8.89627 25.2363 8.7915Z" fill="#5C5F66"/>
<path d="M18.6875 0H13V18.0385H13.0008L21.125 12.6223V2.4375C21.125 1.0918 20.0336 0 18.6875 0Z" fill="#DAE2F2"/>
<path d="M12.1875 4.77344H8.9375C8.51683 4.77344 8.17578 4.43239 8.17578 4.01172C8.17578 3.59105 8.51683 3.25 8.9375 3.25H12.1875C12.6082 3.25 12.9492 3.59105 12.9492 4.01172C12.9492 4.43239 12.6082 4.77344 12.1875 4.77344Z" fill="#A1A7B3"/>
<path d="M12.1875 4.77344H8.9375C8.51683 4.77344 8.17578 4.43239 8.17578 4.01172C8.17578 3.59105 8.51683 3.25 8.9375 3.25H12.1875C12.6082 3.25 12.9492 3.59105 12.9492 4.01172C12.9492 4.43239 12.6082 4.77344 12.1875 4.77344Z" fill="#A1A7B3"/>
<path d="M17.0625 11.2734H8.9375C8.51683 11.2734 8.17578 10.9324 8.17578 10.5117C8.17578 10.091 8.51683 9.75 8.9375 9.75H17.0625C17.4832 9.75 17.8242 10.091 17.8242 10.5117C17.8242 10.9324 17.4832 11.2734 17.0625 11.2734Z" fill="#A1A7B3"/>
<path d="M13 11.2734H17.0625C17.4832 11.2734 17.8242 10.9324 17.8242 10.5117C17.8242 10.091 17.4832 9.75 17.0625 9.75H13V11.2734Z" fill="#9DA1A9"/>
<path d="M17.0625 8.02344H8.9375C8.51683 8.02344 8.17578 7.68239 8.17578 7.26172C8.17578 6.84105 8.51683 6.5 8.9375 6.5H17.0625C17.4832 6.5 17.8242 6.84105 17.8242 7.26172C17.8242 7.68239 17.4832 8.02344 17.0625 8.02344Z" fill="#A1A7B3"/>
<path d="M13 8.02344H17.0625C17.4832 8.02344 17.8242 7.68239 17.8242 7.26172C17.8242 6.84105 17.4832 6.5 17.0625 6.5H13V8.02344Z" fill="#9DA1A9"/>
</g>
<defs>
<clipPath id="clip0_1047_2888">
<rect width="26" height="26" fill="white"/>
</clipPath>
</defs>
</svg>
