<svg width="32" height="32" viewBox="0 0 32 32" fill="none" xmlns="http://www.w3.org/2000/svg">
<g clip-path="url(#clip0_1047_2865)">
<path fill-rule="evenodd" clip-rule="evenodd" d="M24.1281 22.6525H8.74313L7.49438 20.02L8.74313 16.4838H24.1281V22.6525Z" fill="#C4F0F6"/>
<path fill-rule="evenodd" clip-rule="evenodd" d="M24.1281 19.0594V20.0763H10.4231C10.1412 20.0763 9.91431 19.8475 9.91431 19.5675C9.91431 19.2875 10.1412 19.0588 10.4231 19.0588H24.1281V19.0594Z" fill="#9EC2C7"/>
<path d="M24.66 17.5488C25.2462 17.5488 25.7231 17.0738 25.7231 16.4875C25.7231 15.8994 25.2462 15.4244 24.66 15.4244H10.4212C9.28184 15.4244 8.24559 15.8906 7.49434 16.64C6.74309 17.3913 6.27747 18.4275 6.27747 19.5688C6.27747 20.7094 6.74372 21.7463 7.49434 22.4956C8.24559 23.2469 9.28184 23.7125 10.4212 23.7125H24.66C25.2462 23.7125 25.7231 23.2356 25.7231 22.6494C25.7231 22.0631 25.2462 21.5863 24.66 21.5863H10.4212C9.86872 21.5863 9.36372 21.3594 8.99684 20.9925C8.62997 20.6256 8.40309 20.1225 8.40309 19.5681C8.40309 19.0138 8.62997 18.5088 8.99684 18.1438C9.36372 17.7769 9.86872 17.5488 10.4212 17.5488H24.66Z" fill="#0593FC"/>
<path d="M11.4506 15.4244H10.4212C9.28184 15.4244 8.24559 15.8906 7.49434 16.64C6.74309 17.3913 6.27747 18.4275 6.27747 19.5688C6.27747 20.7094 6.74372 21.7463 7.49434 22.4956C8.24559 23.2469 9.28184 23.7125 10.4212 23.7125H11.4506C10.3093 23.7125 9.27309 23.2463 8.52372 22.4956C7.77247 21.7463 7.30684 20.71 7.30684 19.5688C7.30684 18.4275 7.77309 17.3913 8.52372 16.64C9.27309 15.89 10.3093 15.4244 11.4506 15.4244Z" fill="#0584E3"/>
<path fill-rule="evenodd" clip-rule="evenodd" d="M16 5.26373C18.5725 5.26373 20.6575 7.34873 20.6575 9.92123C20.6575 11.8844 19.7488 12.5912 18.8294 13.6681C18.3525 14.2244 18.1207 14.8531 18.1207 15.5869V16.4162C18.1207 17.4069 17.3113 18.2162 16.3225 18.2162H16H15.6775C14.6888 18.2162 13.8794 17.4069 13.8794 16.4162V15.5875C13.8794 14.8537 13.6475 14.225 13.1725 13.6687C12.2513 12.5919 11.3425 11.885 11.3425 9.92186C11.3425 7.34873 13.4275 5.26373 16 5.26373Z" fill="#FFD400"/>
<path fill-rule="evenodd" clip-rule="evenodd" d="M16 5.26373C16.0975 5.26373 16.1932 5.26748 16.2888 5.27248C13.8513 5.42123 11.92 7.44623 11.92 9.92123C11.92 11.8844 12.8307 12.5912 13.75 13.6681C14.1082 14.0881 14.3275 14.5487 14.4144 15.0644H13.8369C13.75 14.5487 13.5307 14.0881 13.1725 13.6681C12.2513 12.5912 11.3425 11.8844 11.3425 9.92123C11.3425 7.34873 13.4275 5.26373 16 5.26373Z" fill="#E6BF00"/>
<path fill-rule="evenodd" clip-rule="evenodd" d="M24.1281 24.7712H8.74313L7.49438 27.4044L8.74313 30.9406H24.1281V24.7712Z" fill="#C4F0F6"/>
<path fill-rule="evenodd" clip-rule="evenodd" d="M24.1282 28.3625V27.3475H10.4232C10.1413 27.3475 9.91443 27.5743 9.91443 27.8562C9.91443 28.1362 10.1413 28.3631 10.4232 28.3631H24.1282V28.3625Z" fill="#9EC2C7"/>
<path d="M24.66 29.8737C25.2462 29.8737 25.7231 30.3506 25.7231 30.9369C25.7231 31.5231 25.2462 32 24.66 32H10.4212C9.28184 32 8.24559 31.5337 7.49434 30.7831C6.74309 30.0319 6.27747 28.9975 6.27747 27.8562C6.27747 26.7156 6.74372 25.6787 7.49434 24.9275C8.24559 24.1781 9.28184 23.7119 10.4212 23.7119H24.66C25.2462 23.7119 25.7231 24.1869 25.7231 24.775C25.7231 25.3612 25.2462 25.8362 24.66 25.8362H10.4212C9.86872 25.8362 9.36372 26.065 8.99684 26.43C8.62997 26.7969 8.40309 27.3019 8.40309 27.8562C8.40309 28.4106 8.62997 28.9137 8.99684 29.2806C9.36372 29.6475 9.86872 29.8744 10.4212 29.8744H24.66V29.8737Z" fill="#FEA832"/>
<path d="M14.3574 9.5706C14.2918 9.5706 14.2337 9.59748 14.1893 9.63998C14.1468 9.68435 14.1199 9.74247 14.1199 9.80622C14.1199 9.87185 14.1468 9.92998 14.1893 9.97435C14.2337 10.0169 14.2918 10.0437 14.3574 10.0437H14.593V9.80622C14.593 9.74247 14.5662 9.68373 14.5237 9.63998C14.4799 9.59748 14.4212 9.5706 14.3574 9.5706ZM15.6099 15.0719C15.6099 15.3519 15.3812 15.5806 15.1012 15.5806C14.8212 15.5806 14.5924 15.3519 14.5924 15.0719V11.0606H14.3568C14.0112 11.0606 13.698 10.9187 13.4712 10.6919C13.2443 10.465 13.1024 10.1512 13.1024 9.80622C13.1024 9.46247 13.2443 9.14873 13.4712 8.92185C13.698 8.69498 14.0118 8.5531 14.3568 8.5531C14.7005 8.5531 15.0143 8.69498 15.2412 8.92185C15.468 9.14873 15.6099 9.46247 15.6099 9.80622V10.0437H16.3893V9.80622C16.3893 9.46247 16.5312 9.14873 16.758 8.92185C16.9849 8.69498 17.2987 8.5531 17.6424 8.5531C17.988 8.5531 18.3012 8.69498 18.528 8.92185C18.7549 9.14873 18.8968 9.46247 18.8968 9.80622C18.8968 10.1518 18.7549 10.465 18.528 10.6919C18.3012 10.9187 17.9874 11.0606 17.6424 11.0606H17.4068V15.0719C17.4068 15.3519 17.178 15.5806 16.898 15.5806C16.618 15.5806 16.3893 15.3519 16.3893 15.0719V11.0606H15.6099V15.0719ZM17.8105 9.63998C17.7662 9.59748 17.708 9.5706 17.6424 9.5706C17.5787 9.5706 17.5199 9.59748 17.4762 9.63998C17.4337 9.68435 17.4068 9.74247 17.4068 9.80622V10.0437H17.6424C17.708 10.0437 17.7662 10.0169 17.8105 9.97435C17.853 9.92998 17.8799 9.87185 17.8799 9.80622C17.8799 9.74247 17.853 9.68435 17.8105 9.63998Z" fill="#FEA832"/>
<path d="M6.58871 10.4263C6.30871 10.4263 6.07996 10.1975 6.07996 9.9175C6.07996 9.6375 6.30871 9.40875 6.58871 9.40875H8.99808C9.27996 9.40875 9.50683 9.6375 9.50683 9.9175C9.50683 10.1975 9.27996 10.4263 8.99808 10.4263H6.58871ZM15.4912 0.506875C15.4912 0.226875 15.72 0 16 0C16.28 0 16.5087 0.226875 16.5087 0.506875V2.91813C16.5087 3.19813 16.28 3.425 16 3.425C15.72 3.425 15.4912 3.19813 15.4912 2.91813V0.506875ZM25.4112 9.40938C25.6912 9.40938 25.92 9.63813 25.92 9.91813C25.92 10.1981 25.6912 10.4269 25.4112 10.4269H23.0018C22.72 10.4269 22.4931 10.1981 22.4931 9.91813C22.4931 9.63813 22.72 9.40938 23.0018 9.40938H25.4112ZM22.2943 2.90375C22.4925 2.70563 22.815 2.70563 23.0137 2.90375C23.2125 3.10188 23.2118 3.42438 23.0137 3.62313L21.3093 5.3275C21.1112 5.52563 20.7887 5.52563 20.5918 5.3275C20.3937 5.12938 20.3937 4.80688 20.5918 4.60813L22.2943 2.90375ZM8.98621 3.62313C8.78808 3.425 8.78808 3.1025 8.98621 2.90375C9.18433 2.705 9.50683 2.70563 9.70558 2.90375L11.41 4.60813C11.6068 4.80625 11.6068 5.12875 11.41 5.3275C11.2118 5.52563 10.8893 5.52563 10.6906 5.3275L8.98621 3.62313Z" fill="#FFD400"/>
<path d="M11.4506 23.7119H10.4212C9.28184 23.7119 8.24559 24.1781 7.49434 24.9275C6.74309 25.6787 6.27747 26.715 6.27747 27.8562C6.27747 28.9975 6.74372 30.0319 7.49434 30.7831C8.24559 31.5344 9.28184 32 10.4212 32H11.4506C10.3093 32 9.27309 31.5337 8.52372 30.7831C7.77247 30.0319 7.30684 28.9975 7.30684 27.8562C7.30684 26.7156 7.77309 25.6787 8.52372 24.9275C9.27309 24.1781 10.3093 23.7119 11.4506 23.7119Z" fill="#E5972D"/>
<path fill-rule="evenodd" clip-rule="evenodd" d="M18.163 15.0644C18.1349 15.2325 18.1205 15.4063 18.1205 15.5869V16.4163C18.1205 17.4069 17.3112 18.2163 16.3224 18.2163H15.9999H15.6774C14.6887 18.2163 13.8793 17.4069 13.8793 16.4163V15.5875C13.8793 15.4069 13.8649 15.2331 13.8368 15.065H18.163V15.0644Z" fill="#E6E6E6"/>
<path fill-rule="evenodd" clip-rule="evenodd" d="M18.1062 16.6394C17.9962 17.525 17.2362 18.2163 16.3224 18.2163H15.9999H15.6774C14.7631 18.2163 14.0031 17.525 13.8937 16.6394H18.1062Z" fill="#2F5274"/>
<path fill-rule="evenodd" clip-rule="evenodd" d="M14.4143 15.0644C14.4424 15.2325 14.4568 15.4063 14.4568 15.5869V16.4163C14.4568 16.4925 14.4624 16.5669 14.4712 16.6394H13.8937C13.8849 16.5669 13.8793 16.4925 13.8793 16.4163V15.5875C13.8793 15.4069 13.8649 15.2331 13.8368 15.065H14.4143V15.0644Z" fill="#CFCFCF"/>
<path fill-rule="evenodd" clip-rule="evenodd" d="M14.4712 16.6394C14.5831 17.525 15.3431 18.2163 16.2568 18.2163H15.9999H15.6774C14.7631 18.2163 14.0031 17.525 13.8937 16.6394H14.4712Z" fill="#26435E"/>
</g>
<defs>
<clipPath id="clip0_1047_2865">
<rect width="32" height="32" fill="white"/>
</clipPath>
</defs>
</svg>
