<svg width="31" height="31" viewBox="0 0 31 31" fill="none" xmlns="http://www.w3.org/2000/svg">
<path d="M29.0625 19.8594H9.6875C9.15245 19.8594 8.71875 19.4257 8.71875 18.8906V3.39062C8.71875 2.85557 9.15245 2.42188 9.6875 2.42188H29.0625C29.5976 2.42188 30.0312 2.85557 30.0312 3.39062V18.8906C30.0312 19.4257 29.5976 19.8594 29.0625 19.8594Z" fill="#D7E6F0"/>
<path d="M30.0312 4.35938H8.71875V3.39062C8.71875 2.85557 9.15245 2.42188 9.6875 2.42188H29.0625C29.5976 2.42188 30.0312 2.85557 30.0312 3.39062V4.35938Z" fill="#555A6E"/>
<path d="M10.6562 3.875C10.9238 3.875 11.1406 3.65814 11.1406 3.39062C11.1406 3.12311 10.9238 2.90625 10.6562 2.90625C10.3887 2.90625 10.1719 3.12311 10.1719 3.39062C10.1719 3.65814 10.3887 3.875 10.6562 3.875Z" fill="#289BC3"/>
<path d="M12.5938 3.875C12.8613 3.875 13.0781 3.65814 13.0781 3.39062C13.0781 3.12311 12.8613 2.90625 12.5938 2.90625C12.3262 2.90625 12.1094 3.12311 12.1094 3.39062C12.1094 3.65814 12.3262 3.875 12.5938 3.875Z" fill="#FF6E91"/>
<path d="M14.5312 3.875C14.7988 3.875 15.0156 3.65814 15.0156 3.39062C15.0156 3.12311 14.7988 2.90625 14.5312 2.90625C14.2637 2.90625 14.0469 3.12311 14.0469 3.39062C14.0469 3.65814 14.2637 3.875 14.5312 3.875Z" fill="#D7E6F0"/>
<path d="M27.6094 12.1094H10.9791C10.7116 12.1094 10.4948 11.8925 10.4948 11.625V6.78125C10.4948 6.51375 10.7116 6.29688 10.9791 6.29688H27.6094C27.8769 6.29688 28.0937 6.51375 28.0937 6.78125V11.625C28.0937 11.8925 27.8769 12.1094 27.6094 12.1094Z" fill="#A5C3DC"/>
<path d="M16.9531 17.9219H10.9791C10.7116 17.9219 10.4948 17.705 10.4948 17.4375V13.5625C10.4948 13.295 10.7116 13.0781 10.9791 13.0781H16.9531C17.2206 13.0781 17.4375 13.295 17.4375 13.5625V17.4375C17.4375 17.705 17.2206 17.9219 16.9531 17.9219Z" fill="#A5C3DC"/>
<path d="M27.6094 14.0469H18.7291C18.4616 14.0469 18.2448 13.83 18.2448 13.5625C18.2448 13.295 18.4616 13.0781 18.7291 13.0781H27.6094C27.8769 13.0781 28.0937 13.295 28.0937 13.5625C28.0937 13.83 27.8769 14.0469 27.6094 14.0469Z" fill="#A5C3DC"/>
<path d="M27.6094 15.9844H18.7291C18.4616 15.9844 18.2448 15.7675 18.2448 15.5C18.2448 15.2325 18.4616 15.0156 18.7291 15.0156H27.6094C27.8769 15.0156 28.0937 15.2325 28.0937 15.5C28.0937 15.7675 27.8769 15.9844 27.6094 15.9844Z" fill="#A5C3DC"/>
<path d="M27.6094 17.9219H18.7291C18.4616 17.9219 18.2448 17.705 18.2448 17.4375C18.2448 17.17 18.4616 16.9531 18.7291 16.9531H27.6094C27.8769 16.9531 28.0937 17.17 28.0937 17.4375C28.0937 17.705 27.8769 17.9219 27.6094 17.9219Z" fill="#A5C3DC"/>
<path d="M23.25 24.7031C25.9251 24.7031 28.0938 22.5345 28.0938 19.8594C28.0938 17.1842 25.9251 15.0156 23.25 15.0156C20.5749 15.0156 18.4062 17.1842 18.4062 19.8594C18.4062 22.5345 20.5749 24.7031 23.25 24.7031Z" fill="#289BC3"/>
<path d="M23.25 22.2812C23.002 22.2812 22.7542 22.1866 22.565 21.9975L20.6275 20.06C20.2492 19.6817 20.2492 19.0683 20.6275 18.69C21.0058 18.3117 21.6192 18.3117 21.9975 18.69L23.25 19.9425L27.4088 15.7837C27.7871 15.4054 28.4005 15.4054 28.7788 15.7837C29.1571 16.162 29.1571 16.7754 28.7788 17.1537L23.935 21.9975C23.7458 22.1867 23.4979 22.2812 23.25 22.2812Z" fill="#1EF0F0"/>
<path d="M8.71875 28.5781C9.25378 28.5781 9.6875 28.1444 9.6875 27.6094C9.6875 27.0743 9.25378 26.6406 8.71875 26.6406C8.18372 26.6406 7.75 27.0743 7.75 27.6094C7.75 28.1444 8.18372 28.5781 8.71875 28.5781Z" fill="#D7E6F0"/>
<path d="M8.71875 26.6406V28.5781C9.2538 28.5781 9.6875 28.1444 9.6875 27.6094C9.6875 27.0743 9.2538 26.6406 8.71875 26.6406Z" fill="#A5C3DC"/>
<path d="M9.6875 20.8281H7.75C4.00481 20.8281 0.96875 17.7921 0.96875 14.0469C0.96875 10.3017 4.00481 7.26562 7.75 7.26562H9.6875C13.4327 7.26562 16.4688 10.3017 16.4688 14.0469C16.4688 17.7921 13.4327 20.8281 9.6875 20.8281Z" fill="#E64178"/>
<path d="M7.75 20.8281C11.4952 20.8281 14.5312 17.7921 14.5312 14.0469C14.5312 10.3017 11.4952 7.26562 7.75 7.26562C4.00482 7.26562 0.96875 10.3017 0.96875 14.0469C0.96875 17.7921 4.00482 20.8281 7.75 20.8281Z" fill="#FF6E91"/>
<path d="M7.75002 18.7292C10.336 18.7292 12.4323 16.6328 12.4323 14.0469C12.4323 11.4609 10.336 9.36462 7.75002 9.36462C5.16407 9.36462 3.06775 11.4609 3.06775 14.0469C3.06775 16.6328 5.16407 18.7292 7.75002 18.7292Z" fill="#D7E6F0"/>
<path d="M5.8125 13.0781C6.34753 13.0781 6.78125 12.6444 6.78125 12.1094C6.78125 11.5743 6.34753 11.1406 5.8125 11.1406C5.27747 11.1406 4.84375 11.5743 4.84375 12.1094C4.84375 12.6444 5.27747 13.0781 5.8125 13.0781Z" fill="white"/>
<path d="M7.75 20.8281H9.6875V21.7969H7.75V20.8281Z" fill="#D7E6F0"/>
<path d="M7.75 20.8281V21.3125H8.23438C8.50187 21.3125 8.71875 21.5294 8.71875 21.7969H9.6875V20.8281H7.75Z" fill="#A5C3DC"/>
<path d="M9.6875 27.6094H7.75C7.4825 27.6094 7.26562 27.3925 7.26562 27.125V22.2812C7.26562 22.0138 7.4825 21.7969 7.75 21.7969H9.6875C9.955 21.7969 10.1719 22.0138 10.1719 22.2812V27.125C10.1719 27.3925 9.955 27.6094 9.6875 27.6094Z" fill="#FF6E91"/>
<path d="M9.6875 27.6094H8.71875V21.7969H9.6875C9.955 21.7969 10.1719 22.0138 10.1719 22.2812V27.125C10.1719 27.3925 9.955 27.6094 9.6875 27.6094Z" fill="#E64178"/>
</svg>
