<svg width="28" height="28" viewBox="0 0 28 28" fill="none" xmlns="http://www.w3.org/2000/svg">
<g clip-path="url(#clip0_1047_2886)">
<path d="M27.1794 0H0.821251C0.368241 0 0.000976562 0.367264 0.000976562 0.820274V20.5069C0.000976562 20.9599 0.368241 21.3271 0.821251 21.3271H27.1794C27.6324 21.3271 27.9997 20.9599 27.9997 20.5069V0.820274C27.9997 0.367264 27.6324 0 27.1794 0Z" fill="#CBDBEF"/>
<path d="M27.9993 0.820274V20.5069C27.9993 20.9596 27.6319 21.3271 27.1791 21.3271H14V0H27.1791C27.6319 0 27.9993 0.367483 27.9993 0.820274Z" fill="#D5E8FE"/>
<path d="M12.3595 16.4055H5.79732C5.34431 16.4055 4.97705 16.7727 4.97705 17.2257C4.97705 17.6787 5.34431 18.046 5.79732 18.046H12.3595C12.8125 18.046 13.1798 17.6787 13.1798 17.2257C13.1798 16.7727 12.8125 16.4055 12.3595 16.4055Z" fill="#D5E8FE"/>
<path d="M5.79732 9.84326C5.34431 9.84326 4.97705 10.2105 4.97705 10.6635C4.97705 11.1165 5.34431 11.4838 5.79732 11.4838H9.08115C9.53416 11.4838 9.90143 11.1165 9.90143 10.6635V7.38244C9.90143 6.92943 9.53416 6.56216 9.08115 6.56216H6.62033V4.92161H9.08115C9.53416 4.92161 9.90143 4.55435 9.90143 4.10134C9.90143 3.64833 9.53416 3.28107 9.08115 3.28107H5.80006C5.34705 3.28107 4.97978 3.64833 4.97978 4.10134V7.38244C4.97978 7.83545 5.34705 8.20271 5.80006 8.20271H8.26088V9.84326H5.79732Z" fill="#393D9D"/>
<path d="M15.6433 4.92161C16.0963 4.92161 16.4636 4.55435 16.4636 4.10134C16.4636 3.64833 16.0963 3.28107 15.6433 3.28107H12.3622C11.9092 3.28107 11.5419 3.64833 11.5419 4.10134V7.38244C11.5419 7.83545 11.9092 8.20271 12.3622 8.20271H14.823V9.84326H12.3595C11.9064 9.84326 11.5392 10.2105 11.5392 10.6635C11.5392 11.1165 11.9064 11.4838 12.3595 11.4838H15.6433C16.0963 11.4838 16.4636 11.1165 16.4636 10.6635V7.38244C16.4636 6.92943 16.0963 6.56216 15.6433 6.56216H13.1825V4.92161H15.6433Z" fill="#393D9D"/>
<path d="M15.6433 4.92162H14V3.28107H15.6433C16.0961 3.28107 16.4636 3.64855 16.4636 4.10134C16.4636 4.55413 16.0961 4.92162 15.6433 4.92162Z" fill="#182084"/>
<path d="M16.4636 7.38241V10.6635C16.4636 11.1163 16.0961 11.4838 15.6433 11.4838H14V9.84323H14.823V8.20268H14V6.56213H15.6433C16.0961 6.56213 16.4636 6.92962 16.4636 7.38241Z" fill="#182084"/>
<path d="M22.2055 8.20271C21.7525 8.20271 21.3852 8.56997 21.3852 9.02298V9.84326H19.7447V4.10134C19.7447 3.64833 19.3774 3.28107 18.9244 3.28107C18.4714 3.28107 18.1041 3.64833 18.1041 4.10134V10.6635C18.1041 11.1165 18.4714 11.4838 18.9244 11.4838H22.2055C22.6585 11.4838 23.0258 11.1165 23.0258 10.6635V9.02298C23.0258 8.56997 22.6585 8.20271 22.2055 8.20271Z" fill="#182084"/>
<path d="M12.3595 13.1244H5.79732C5.34431 13.1244 4.97705 13.4917 4.97705 13.9447C4.97705 14.3977 5.34431 14.7649 5.79732 14.7649H12.3595C12.8125 14.7649 13.1798 14.3977 13.1798 13.9447C13.1798 13.4917 12.8125 13.1244 12.3595 13.1244Z" fill="#D5E8FE"/>
<path d="M16.4713 21.3842C16.4564 21.4986 16.4669 21.1228 16.4635 27.1784C16.4635 27.8281 17.1882 28.2242 17.7357 27.863L19.7642 26.5241L21.7411 27.8584C22.2823 28.2236 23.0203 27.8368 23.0203 27.1784C23.0168 21.1846 23.0277 21.5538 23.0122 21.4367C21.1781 23.2058 18.2784 23.1843 16.4713 21.3842Z" fill="#E63950"/>
<path d="M23.0203 27.1784C23.0203 27.8368 22.2826 28.2235 21.7413 27.8582L19.7644 26.5239V22.749C20.9336 22.7501 22.1038 22.3131 23.0121 21.4365C23.028 21.5541 23.0171 21.1844 23.0203 27.1784Z" fill="#CD0000"/>
<path d="M19.7693 23.0224C22.5025 23.0224 24.7183 20.8066 24.7183 18.0734C24.7183 15.3401 22.5025 13.1244 19.7693 13.1244C17.036 13.1244 14.8203 15.3401 14.8203 18.0734C14.8203 20.8066 17.036 23.0224 19.7693 23.0224Z" fill="#FDBF00"/>
<path d="M24.7183 18.0734C24.7183 20.8022 22.4981 23.0224 19.7693 23.0224H19.7644V13.1244H19.7693C22.4981 13.1244 24.7183 15.3446 24.7183 18.0734Z" fill="#FF9100"/>
<path d="M19.7693 21.3818C21.5965 21.3818 23.0777 19.9006 23.0777 18.0734C23.0777 16.2462 21.5965 14.765 19.7693 14.765C17.9421 14.765 16.4608 16.2462 16.4608 18.0734C16.4608 19.9006 17.9421 21.3818 19.7693 21.3818Z" fill="#FFDA2D"/>
<path d="M23.0778 18.0734C23.0778 19.8977 21.5936 21.3818 19.7693 21.3818H19.7644V14.765H19.7693C21.5936 14.765 23.0778 16.2491 23.0778 18.0734Z" fill="#FDBF00"/>
</g>
<defs>
<clipPath id="clip0_1047_2886">
<rect width="28" height="28" fill="white"/>
</clipPath>
</defs>
</svg>
