<svg width="26" height="26" viewBox="0 0 26 26" fill="none" xmlns="http://www.w3.org/2000/svg">
<path d="M24.9207 3.48425V10.3529C24.9207 11.6298 23.8856 12.6652 22.6083 12.6652H21.3441V15.5791C21.3441 16.1536 20.6583 16.4507 20.2391 16.058L16.6191 12.6652H11.6835C10.4065 12.6652 9.37109 11.6301 9.37109 10.3529V3.48425C9.37109 2.20727 10.4062 1.17188 11.6835 1.17188H22.6083C23.8856 1.17188 24.9207 2.20727 24.9207 3.48425Z" fill="#9ABBFE"/>
<path d="M16.6353 12.6771V18.9371C16.6353 20.2174 15.6048 21.2476 14.324 21.2476H9.39158L5.76919 24.6509C5.34777 25.0412 4.66094 24.7443 4.66094 24.1672V21.2476H3.39642C2.11646 21.2476 1.08594 20.2174 1.08594 18.9371V12.0685C1.08594 10.7883 2.11646 9.75806 3.39642 9.75806H9.3756V10.3512C9.3756 11.6314 10.4061 12.6617 11.6861 12.6617H16.6193L16.6353 12.6771Z" fill="#3F3EED"/>
<path d="M20.2671 6.08989H14.0227C13.5916 6.08989 13.2422 5.74079 13.2422 5.30935C13.2422 4.87791 13.5916 4.52881 14.0227 4.52881H20.2671C20.6982 4.52881 21.0476 4.87791 21.0476 5.30935C21.0476 5.74079 20.6982 6.08989 20.2671 6.08989Z" fill="#587FB7"/>
<path d="M20.2671 9.21196H14.0227C13.5916 9.21196 13.2422 8.86286 13.2422 8.43142C13.2422 7.99998 13.5916 7.65088 14.0227 7.65088H20.2671C20.6982 7.65088 21.0476 7.99998 21.0476 8.43142C21.0476 8.86286 20.6982 9.21196 20.2671 9.21196Z" fill="#587FB7"/>
<path d="M6.05007 16.2446C5.94066 16.2446 5.84695 16.214 5.75351 16.182C5.6598 16.1349 5.56609 16.0723 5.50353 16.0114C5.42553 15.932 5.36324 15.8543 5.33209 15.7614C5.28524 15.6669 5.26953 15.5585 5.26953 15.4489C5.26953 15.246 5.34753 15.0434 5.50353 14.9015C5.78493 14.6057 6.29978 14.6057 6.59634 14.9015C6.67434 14.9809 6.73691 15.0586 6.76832 15.1515C6.81518 15.246 6.83089 15.3543 6.83089 15.4489C6.83089 15.5585 6.81518 15.6669 6.76832 15.7614C6.73718 15.8543 6.67461 15.932 6.59634 16.0114C6.45605 16.1514 6.25293 16.2446 6.05007 16.2446Z" fill="white"/>
<path d="M9.17117 16.2444C9.06175 16.2444 8.96804 16.2138 8.8746 16.1818C8.7809 16.1347 8.68719 16.0721 8.62462 16.0112C8.46862 15.8695 8.39062 15.6667 8.39062 15.4487C8.39062 15.3541 8.40633 15.2458 8.45319 15.1513C8.48433 15.0584 8.54662 14.9807 8.62462 14.9013C8.68719 14.8236 8.7809 14.7778 8.8746 14.7307C9.15546 14.621 9.51458 14.6836 9.71717 14.9013C9.87344 15.043 9.95144 15.2458 9.95144 15.4487C9.95144 15.6667 9.87344 15.8695 9.71717 16.0112C9.65515 16.0721 9.56117 16.1347 9.46746 16.1818C9.37402 16.2138 9.28058 16.2444 9.17117 16.2444Z" fill="white"/>
<path d="M12.2962 16.2446C12.093 16.2446 11.8902 16.1517 11.7496 16.0114C11.5936 15.8697 11.5156 15.6669 11.5156 15.4489C11.5156 15.246 11.5936 15.0434 11.7496 14.9015C12.031 14.6057 12.5613 14.6057 12.8424 14.9015C12.9204 14.9809 12.983 15.0586 13.0144 15.1515C13.0613 15.246 13.077 15.3543 13.077 15.4489C13.077 15.6669 12.999 15.8697 12.8427 16.0114C12.7021 16.1514 12.499 16.2446 12.2962 16.2446Z" fill="white"/>
<path d="M6.05256 6.87017H4.49148C4.06031 6.87017 3.71094 6.52106 3.71094 6.08962C3.71094 5.65819 4.06031 5.30908 4.49148 5.30908H6.05256C6.48373 5.30908 6.8331 5.65819 6.8331 6.08962C6.8331 6.52106 6.48346 6.87017 6.05256 6.87017Z" fill="#3F3EED"/>
<path d="M21.6619 20.9205H20.1009C19.6697 20.9205 19.3203 20.5714 19.3203 20.1399C19.3203 19.7085 19.6697 19.3594 20.1009 19.3594H21.6619C22.0931 19.3594 22.4425 19.7085 22.4425 20.1399C22.4425 20.5714 22.0931 20.9205 21.6619 20.9205Z" fill="#3F3EED"/>
</svg>
