<svg width="29" height="29" viewBox="0 0 29 29" fill="none" xmlns="http://www.w3.org/2000/svg">
<path d="M11.1444 24.2349C17.0908 24.2349 21.9113 19.4144 21.9113 13.468C21.9113 7.52166 17.0908 2.70117 11.1444 2.70117C5.19805 2.70117 0.377563 7.52166 0.377563 13.468C0.377563 19.4144 5.19805 24.2349 11.1444 24.2349Z" fill="#D856FE"/>
<path fill-rule="evenodd" clip-rule="evenodd" d="M10.6913 2.71078C10.8421 2.70444 10.9928 2.70142 11.1445 2.70142C11.2958 2.70142 11.4465 2.70444 11.5976 2.71078V13.0148H16.2222C16.1503 9.78346 15.3132 6.55147 13.7137 3.31948C13.6629 3.21707 13.6548 3.105 13.682 3.00259C14.0336 3.08778 14.3786 3.19019 14.716 3.30891C16.2581 6.54422 17.0647 9.77953 17.1342 13.0148H21.2334C21.4836 13.0148 21.6866 13.2178 21.6866 13.468C21.6866 13.7181 21.4836 13.9211 21.2334 13.9211H17.1342C17.0656 17.1573 16.2596 20.3926 14.7139 23.6279C14.3777 23.7464 14.0336 23.8485 13.6829 23.9333C13.6545 23.8297 13.6623 23.7158 13.7137 23.6122C15.3159 20.3814 16.1515 17.151 16.2222 13.9211H11.5976V24.2255C11.4465 24.2318 11.2958 24.2348 11.1445 24.2348C10.9928 24.2348 10.8421 24.2318 10.6913 24.2255V13.9211H6.06644C6.13743 17.151 6.97269 20.3814 8.57494 23.6122C8.62629 23.7158 8.63414 23.8297 8.60575 23.9333C8.25503 23.8485 7.91126 23.7464 7.57474 23.6279C6.02928 20.3926 5.22302 17.1573 5.15445 13.9211H1.05518C0.805051 13.9211 0.602051 13.7181 0.602051 13.468C0.602051 13.2178 0.805051 13.0148 1.05518 13.0148H5.15475C5.22393 9.77953 6.03049 6.54422 7.57293 3.30891C7.91005 3.19019 8.25503 3.08778 8.60666 3.00259C8.63414 3.105 8.62569 3.21707 8.57494 3.31948C6.97541 6.55147 6.13833 9.78346 6.06644 13.0148H10.6913V2.71078Z" fill="#EEF2FF"/>
<path fill-rule="evenodd" clip-rule="evenodd" d="M25.6541 20.2187C25.6541 20.2187 27.3243 18.818 28.2236 18.0636C28.4647 17.8613 28.6039 17.5628 28.6039 17.248C28.6039 16.9336 28.4647 16.6351 28.2236 16.4327C27.3243 15.6784 25.6541 14.2776 25.6541 14.2776C25.4626 14.1166 25.1765 14.142 25.0158 14.3335C24.8551 14.525 24.8802 14.8111 25.0717 14.9718C25.0717 14.9718 26.7419 16.3726 27.6412 17.1272C27.6772 17.1571 27.6977 17.2015 27.6977 17.248C27.6977 17.2948 27.6772 17.3393 27.6412 17.3692C26.7419 18.1238 25.0717 19.5245 25.0717 19.5245C24.8802 19.6852 24.8551 19.9713 25.0158 20.1628C25.1765 20.3543 25.4626 20.3794 25.6541 20.2187Z" fill="#FFD454"/>
<path fill-rule="evenodd" clip-rule="evenodd" d="M22.6007 25.4982C22.6007 25.4982 20.9308 24.0974 20.0315 23.3431C19.9955 23.3129 19.975 23.2685 19.975 23.222C19.975 23.1751 19.9955 23.1307 20.0315 23.1008C20.9308 22.3465 22.6007 20.9455 22.6007 20.9455C22.7925 20.7847 22.8176 20.4987 22.6569 20.3072C22.4962 20.1156 22.2101 20.0906 22.0183 20.2513C22.0183 20.2513 20.3484 21.652 19.449 22.4066C19.208 22.6087 19.0687 22.9072 19.0687 23.222C19.0687 23.5364 19.208 23.8352 19.449 24.0373C20.3484 24.7916 22.0183 26.1926 22.0183 26.1926C22.2101 26.3534 22.4962 26.3283 22.6569 26.1365C22.8176 25.9449 22.7925 25.6589 22.6007 25.4982Z" fill="#FE8856"/>
<path fill-rule="evenodd" clip-rule="evenodd" d="M27.8796 16.7949H19.5034C19.2533 16.7949 19.0503 16.9982 19.0503 17.248C19.0503 17.4982 19.2533 17.7012 19.5034 17.7012H27.8796C28.1297 17.7012 28.3327 17.4982 28.3327 17.248C28.3327 16.9982 28.1297 16.7949 27.8796 16.7949Z" fill="#FFD454"/>
<path fill-rule="evenodd" clip-rule="evenodd" d="M19.7931 23.6752H28.1693C28.4194 23.6752 28.6224 23.4722 28.6224 23.222C28.6224 22.9719 28.4194 22.7689 28.1693 22.7689H19.7931C19.543 22.7689 19.34 22.9719 19.34 23.222C19.34 23.4722 19.543 23.6752 19.7931 23.6752Z" fill="#FE8856"/>
</svg>
