<svg width="20" height="26" viewBox="0 0 20 26" fill="none" xmlns="http://www.w3.org/2000/svg">
<path d="M17.5212 16.8086H2.28686C0.483056 16.8086 -0.593862 14.8134 0.348333 13.3139L7.96552 1.00981C8.80758 -0.336604 11.0005 -0.336604 11.8426 1.00981L19.4598 13.3132C20.3981 14.8096 19.3296 16.8086 17.5212 16.8086Z" fill="#FFDF40"/>
<path d="M17.5234 16.8086C19.3318 16.8086 20.4003 14.8096 19.462 13.3132L11.8448 1.00979C11.4237 0.336578 10.665 0 9.90625 0V16.8086H17.5234Z" fill="#FFBE40"/>
<path d="M9.14062 4.62109H10.6641V10.7148H9.14062V4.62109Z" fill="#4D5E80"/>
<path d="M9.90625 4.62109H10.668V10.7148H9.90625V4.62109Z" fill="#3D4566"/>
<path d="M9.14062 12.2383H10.6641V13.7617H9.14062V12.2383Z" fill="#4D5E80"/>
<path d="M9.90625 12.2383H10.668V13.7617H9.90625V12.2383Z" fill="#3D4566"/>
<path d="M4.57031 18.332H3.04688V21.3789H1.52344V18.332H0V22.9023H3.04688V26H4.57031V22.9023H6.09375V21.3789H4.57031V18.332Z" fill="#4D5E80"/>
<path d="M19.8047 21.3789H18.2812V18.332H16.7578V21.3789H15.2344V18.332H13.7109V22.9023H16.7578V26H18.2812V22.9023H19.8047V21.3789Z" fill="#3D4566"/>
<path d="M7.61719 26H12.1875V18.332H7.61719V26ZM9.14062 19.8555H10.6641V24.4766H9.14062V19.8555Z" fill="#4D5E80"/>
<path d="M9.90625 19.8555H10.668V24.4766H9.90625V26H12.1914V18.332H9.90625V19.8555Z" fill="#3D4566"/>
</svg>
