<svg width="28" height="28" viewBox="0 0 28 28" fill="none" xmlns="http://www.w3.org/2000/svg">
<path d="M23.6387 15.7703H24.9512V8.98901C24.9512 8.84537 24.923 8.70312 24.868 8.5704C24.8131 8.43768 24.7325 8.31709 24.6309 8.21552C24.5293 8.11395 24.4088 8.03338 24.276 7.97843C24.1433 7.92348 24.0011 7.89522 23.8574 7.89526H14.0022C14.0098 8.02214 14.0137 8.14974 14.0137 8.27808C14.0134 9.40878 13.7211 10.5202 13.165 11.5048C12.6089 12.4893 11.808 13.3134 10.8397 13.8974C9.87151 14.4814 8.76884 14.8053 7.63861 14.8379C6.50838 14.8704 5.3889 14.6104 4.38867 14.0832V24.0828C4.38867 24.6629 4.61914 25.2193 5.02938 25.6296C5.43961 26.0398 5.99601 26.2703 6.57617 26.2703H23.8574C24.0011 26.2703 24.1433 26.242 24.276 26.1871C24.4088 26.1321 24.5293 26.0516 24.6309 25.95C24.7325 25.8484 24.8131 25.7278 24.868 25.5951C24.923 25.4624 24.9512 25.3202 24.9512 25.1765V18.3953H23.6387C23.2907 18.3953 22.9569 18.2571 22.7108 18.011C22.4647 17.765 22.3263 17.4313 22.3262 17.0833V17.0828C22.3263 16.7347 22.4646 16.4009 22.7107 16.1548C22.9568 15.9087 23.2906 15.7704 23.6387 15.7703Z" fill="#57A4FF"/>
<path d="M5.26367 10.9578C6.47172 10.9578 7.45117 10.3704 7.45117 9.64526C7.45117 10.3704 8.43062 10.9578 9.63867 10.9578C10.8467 10.9578 11.8262 10.3704 11.8262 9.64526V7.89526C11.8262 8.62042 10.8467 9.20776 9.63867 9.20776C8.43062 9.20776 7.45117 8.62042 7.45117 7.89526V6.14526C7.45117 6.87042 6.47172 7.45776 5.26367 7.45776C4.05562 7.45776 3.07617 6.87042 3.07617 6.14526V9.64526C3.07617 10.1839 3.61594 10.646 4.38867 10.8478C4.67438 10.922 4.96849 10.959 5.26367 10.9578Z" fill="#57A4FF"/>
<path d="M27.125 15.3125V9.625C27.125 9.50897 27.0789 9.39769 26.9969 9.31564C26.9148 9.23359 26.8036 9.1875 26.6875 9.1875H25.375V8.96875C25.3746 8.56278 25.2131 8.17356 24.926 7.88649C24.639 7.59942 24.2498 7.43795 23.8438 7.4375H14.3894C13.982 3.96266 11.0201 1.25781 7.43753 1.25781C5.89668 1.25757 4.39881 1.76581 3.17628 2.7037C1.95375 3.6416 1.07489 4.95671 0.676044 6.44505C0.277193 7.93338 0.380643 9.51174 0.970346 10.9353C1.56005 12.3588 2.60304 13.548 3.93753 14.3183V24.0625C3.93827 24.7585 4.21507 25.4257 4.70719 25.9178C5.19931 26.41 5.86656 26.6868 6.56253 26.6875H23.8438C24.2498 26.6871 24.639 26.5256 24.926 26.2385C25.2131 25.9514 25.3746 25.5622 25.375 25.1562V24.9375H26.6875C26.8036 24.9375 26.9148 24.8914 26.9969 24.8094C27.0789 24.7273 27.125 24.616 27.125 24.5V18.8125C27.2411 18.8125 27.3523 18.7664 27.4344 18.6844C27.5164 18.6023 27.5625 18.491 27.5625 18.375V15.75C27.5625 15.634 27.5164 15.5227 27.4344 15.4406C27.3523 15.3586 27.2411 15.3125 27.125 15.3125ZM25.375 10.0625H26.25V15.3125H25.375V10.0625ZM1.31253 8.25781C1.31253 7.0464 1.67176 5.8622 2.34478 4.85494C3.0178 3.84769 3.9744 3.06264 5.0936 2.59905C6.21279 2.13546 7.44433 2.01417 8.63246 2.2505C9.82059 2.48684 10.912 3.07019 11.7686 3.92678C12.6252 4.78338 13.2085 5.87475 13.4448 7.06288C13.6812 8.25102 13.5599 9.48255 13.0963 10.6017C12.6327 11.7209 11.8476 12.6775 10.8404 13.3506C9.83315 14.0236 8.64894 14.3828 7.43753 14.3828C5.81363 14.381 4.25674 13.7351 3.10847 12.5869C1.96019 11.4386 1.31431 9.88172 1.31253 8.25781ZM24.5 25.1562C24.4999 25.3303 24.4307 25.4971 24.3077 25.6201C24.1846 25.7432 24.0178 25.8124 23.8438 25.8125H6.56253C6.09854 25.8121 5.65367 25.6276 5.32557 25.2995C4.99748 24.9714 4.81297 24.5265 4.81253 24.0625V14.7465C5.87077 15.1748 7.01772 15.3378 8.1534 15.2212C9.28907 15.1046 10.379 14.7119 11.3281 14.0774C12.2772 13.443 13.0566 12.5859 13.5985 11.5811C14.1404 10.5763 14.4283 9.45411 14.437 8.3125H23.8438C24.0178 8.31264 24.1846 8.38183 24.3077 8.50487C24.4307 8.62791 24.4999 8.79475 24.5 8.96875V15.3125H23.625C23.1609 15.3125 22.7158 15.4969 22.3876 15.8251C22.0594 16.1533 21.875 16.5984 21.875 17.0625C21.875 17.5266 22.0594 17.9717 22.3876 18.2999C22.7158 18.6281 23.1609 18.8125 23.625 18.8125H24.5V25.1562ZM26.25 24.0625H25.375V18.8125H26.25V24.0625ZM26.6875 17.9375H23.625C23.393 17.9375 23.1704 17.8453 23.0063 17.6812C22.8422 17.5171 22.75 17.2946 22.75 17.0625C22.75 16.8304 22.8422 16.6079 23.0063 16.4438C23.1704 16.2797 23.393 16.1875 23.625 16.1875H26.6875V17.9375Z" fill="#004FAC"/>
<path d="M23.625 17.5C23.8666 17.5 24.0625 17.3041 24.0625 17.0625C24.0625 16.8209 23.8666 16.625 23.625 16.625C23.3834 16.625 23.1875 16.8209 23.1875 17.0625C23.1875 17.3041 23.3834 17.5 23.625 17.5Z" fill="#004FAC"/>
<path d="M22.3125 10.0625H22.75C22.866 10.0625 22.9773 10.0164 23.0594 9.93436C23.1414 9.85231 23.1875 9.74103 23.1875 9.625C23.1875 9.50897 23.1414 9.39769 23.0594 9.31564C22.9773 9.23359 22.866 9.1875 22.75 9.1875H22.3125C22.1965 9.1875 22.0852 9.23359 22.0031 9.31564C21.9211 9.39769 21.875 9.50897 21.875 9.625C21.875 9.74103 21.9211 9.85231 22.0031 9.93436C22.0852 10.0164 22.1965 10.0625 22.3125 10.0625Z" fill="#004FAC"/>
<path d="M15.75 9.1875H15.3125C15.1965 9.1875 15.0852 9.23359 15.0031 9.31564C14.9211 9.39769 14.875 9.50897 14.875 9.625C14.875 9.74103 14.9211 9.85231 15.0031 9.93436C15.0852 10.0164 15.1965 10.0625 15.3125 10.0625H15.75C15.866 10.0625 15.9773 10.0164 16.0594 9.93436C16.1414 9.85231 16.1875 9.74103 16.1875 9.625C16.1875 9.50897 16.1414 9.39769 16.0594 9.31564C15.9773 9.23359 15.866 9.1875 15.75 9.1875Z" fill="#004FAC"/>
<path d="M17.5 9.1875H17.0625C16.9465 9.1875 16.8352 9.23359 16.7531 9.31564C16.6711 9.39769 16.625 9.50897 16.625 9.625C16.625 9.74103 16.6711 9.85231 16.7531 9.93436C16.8352 10.0164 16.9465 10.0625 17.0625 10.0625H17.5C17.616 10.0625 17.7273 10.0164 17.8094 9.93436C17.8914 9.85231 17.9375 9.74103 17.9375 9.625C17.9375 9.50897 17.8914 9.39769 17.8094 9.31564C17.7273 9.23359 17.616 9.1875 17.5 9.1875Z" fill="#004FAC"/>
<path d="M22.75 24.0625H22.3125C22.1965 24.0625 22.0852 24.1086 22.0031 24.1906C21.9211 24.2727 21.875 24.384 21.875 24.5C21.875 24.616 21.9211 24.7273 22.0031 24.8094C22.0852 24.8914 22.1965 24.9375 22.3125 24.9375H22.75C22.866 24.9375 22.9773 24.8914 23.0594 24.8094C23.1414 24.7273 23.1875 24.616 23.1875 24.5C23.1875 24.384 23.1414 24.2727 23.0594 24.1906C22.9773 24.1086 22.866 24.0625 22.75 24.0625Z" fill="#004FAC"/>
<path d="M15.75 24.0625H15.3125C15.1965 24.0625 15.0852 24.1086 15.0031 24.1906C14.9211 24.2727 14.875 24.384 14.875 24.5C14.875 24.616 14.9211 24.7273 15.0031 24.8094C15.0852 24.8914 15.1965 24.9375 15.3125 24.9375H15.75C15.866 24.9375 15.9773 24.8914 16.0594 24.8094C16.1414 24.7273 16.1875 24.616 16.1875 24.5C16.1875 24.384 16.1414 24.2727 16.0594 24.1906C15.9773 24.1086 15.866 24.0625 15.75 24.0625Z" fill="#004FAC"/>
<path d="M17.5 24.0625H17.0625C16.9465 24.0625 16.8352 24.1086 16.7531 24.1906C16.6711 24.2727 16.625 24.384 16.625 24.5C16.625 24.616 16.6711 24.7273 16.7531 24.8094C16.8352 24.8914 16.9465 24.9375 17.0625 24.9375H17.5C17.616 24.9375 17.7273 24.8914 17.8094 24.8094C17.8914 24.7273 17.9375 24.616 17.9375 24.5C17.9375 24.384 17.8914 24.2727 17.8094 24.1906C17.7273 24.1086 17.616 24.0625 17.5 24.0625Z" fill="#004FAC"/>
<path d="M19.25 9.1875H18.8125C18.6965 9.1875 18.5852 9.23359 18.5031 9.31564C18.4211 9.39769 18.375 9.50897 18.375 9.625C18.375 9.74103 18.4211 9.85231 18.5031 9.93436C18.5852 10.0164 18.6965 10.0625 18.8125 10.0625H19.25C19.366 10.0625 19.4773 10.0164 19.5594 9.93436C19.6414 9.85231 19.6875 9.74103 19.6875 9.625C19.6875 9.50897 19.6414 9.39769 19.5594 9.31564C19.4773 9.23359 19.366 9.1875 19.25 9.1875Z" fill="#004FAC"/>
<path d="M19.25 24.0625H18.8125C18.6965 24.0625 18.5852 24.1086 18.5031 24.1906C18.4211 24.2727 18.375 24.384 18.375 24.5C18.375 24.616 18.4211 24.7273 18.5031 24.8094C18.5852 24.8914 18.6965 24.9375 18.8125 24.9375H19.25C19.366 24.9375 19.4773 24.8914 19.5594 24.8094C19.6414 24.7273 19.6875 24.616 19.6875 24.5C19.6875 24.384 19.6414 24.2727 19.5594 24.1906C19.4773 24.1086 19.366 24.0625 19.25 24.0625Z" fill="#004FAC"/>
<path d="M21 9.1875H20.5625C20.4465 9.1875 20.3352 9.23359 20.2531 9.31564C20.1711 9.39769 20.125 9.50897 20.125 9.625C20.125 9.74103 20.1711 9.85231 20.2531 9.93436C20.3352 10.0164 20.4465 10.0625 20.5625 10.0625H21C21.116 10.0625 21.2273 10.0164 21.3094 9.93436C21.3914 9.85231 21.4375 9.74103 21.4375 9.625C21.4375 9.50897 21.3914 9.39769 21.3094 9.31564C21.2273 9.23359 21.116 9.1875 21 9.1875Z" fill="#004FAC"/>
<path d="M21 24.0625H20.5625C20.4465 24.0625 20.3352 24.1086 20.2531 24.1906C20.1711 24.2727 20.125 24.384 20.125 24.5C20.125 24.616 20.1711 24.7273 20.2531 24.8094C20.3352 24.8914 20.4465 24.9375 20.5625 24.9375H21C21.116 24.9375 21.2273 24.8914 21.3094 24.8094C21.3914 24.7273 21.4375 24.616 21.4375 24.5C21.4375 24.384 21.3914 24.2727 21.3094 24.1906C21.2273 24.1086 21.116 24.0625 21 24.0625Z" fill="#004FAC"/>
<path d="M14 24.0625H13.5625C13.4465 24.0625 13.3352 24.1086 13.2531 24.1906C13.1711 24.2727 13.125 24.384 13.125 24.5C13.125 24.616 13.1711 24.7273 13.2531 24.8094C13.3352 24.8914 13.4465 24.9375 13.5625 24.9375H14C14.116 24.9375 14.2273 24.8914 14.3094 24.8094C14.3914 24.7273 14.4375 24.616 14.4375 24.5C14.4375 24.384 14.3914 24.2727 14.3094 24.1906C14.2273 24.1086 14.116 24.0625 14 24.0625Z" fill="#004FAC"/>
<path d="M12.25 24.0625H11.8125C11.6965 24.0625 11.5852 24.1086 11.5031 24.1906C11.4211 24.2727 11.375 24.384 11.375 24.5C11.375 24.616 11.4211 24.7273 11.5031 24.8094C11.5852 24.8914 11.6965 24.9375 11.8125 24.9375H12.25C12.366 24.9375 12.4773 24.8914 12.5594 24.8094C12.6414 24.7273 12.6875 24.616 12.6875 24.5C12.6875 24.384 12.6414 24.2727 12.5594 24.1906C12.4773 24.1086 12.366 24.0625 12.25 24.0625Z" fill="#004FAC"/>
<path d="M10.5 24.0625H10.0625C9.94647 24.0625 9.83519 24.1086 9.75314 24.1906C9.67109 24.2727 9.625 24.384 9.625 24.5C9.625 24.616 9.67109 24.7273 9.75314 24.8094C9.83519 24.8914 9.94647 24.9375 10.0625 24.9375H10.5C10.616 24.9375 10.7273 24.8914 10.8094 24.8094C10.8914 24.7273 10.9375 24.616 10.9375 24.5C10.9375 24.384 10.8914 24.2727 10.8094 24.1906C10.7273 24.1086 10.616 24.0625 10.5 24.0625Z" fill="#004FAC"/>
<path d="M7 24.0625H6.5625C6.44647 24.0625 6.33519 24.1086 6.25314 24.1906C6.17109 24.2727 6.125 24.384 6.125 24.5C6.125 24.616 6.17109 24.7273 6.25314 24.8094C6.33519 24.8914 6.44647 24.9375 6.5625 24.9375H7C7.11603 24.9375 7.22731 24.8914 7.30936 24.8094C7.39141 24.7273 7.4375 24.616 7.4375 24.5C7.4375 24.384 7.39141 24.2727 7.30936 24.1906C7.22731 24.1086 7.11603 24.0625 7 24.0625Z" fill="#004FAC"/>
<path d="M8.75 24.0625H8.3125C8.19647 24.0625 8.08519 24.1086 8.00314 24.1906C7.92109 24.2727 7.875 24.384 7.875 24.5C7.875 24.616 7.92109 24.7273 8.00314 24.8094C8.08519 24.8914 8.19647 24.9375 8.3125 24.9375H8.75C8.86603 24.9375 8.97731 24.8914 9.05936 24.8094C9.14141 24.7273 9.1875 24.616 9.1875 24.5C9.1875 24.384 9.14141 24.2727 9.05936 24.1906C8.97731 24.1086 8.86603 24.0625 8.75 24.0625Z" fill="#004FAC"/>
<path d="M9.625 6.125C8.94633 6.125 8.33602 6.28852 7.875 6.56086V6.125C7.875 5.14391 6.72219 4.375 5.25 4.375C3.77781 4.375 2.625 5.14391 2.625 6.125V9.625C2.625 10.6061 3.77781 11.375 5.25 11.375C6.17313 11.375 6.97102 11.0726 7.4375 10.605C7.90398 11.0726 8.70188 11.375 9.625 11.375C11.0972 11.375 12.25 10.6061 12.25 9.625V7.875C12.25 6.89391 11.0972 6.125 9.625 6.125ZM7 9.625C7 10.0379 6.25133 10.5 5.25 10.5C4.24867 10.5 3.5 10.0379 3.5 9.625V9.18914C3.96102 9.46148 4.57133 9.625 5.25 9.625C5.92867 9.625 6.53898 9.46148 7 9.18914V9.625ZM7 7.875C7 8.28789 6.25133 8.75 5.25 8.75C4.24867 8.75 3.5 8.28789 3.5 7.875V7.43914C3.96102 7.71148 4.57133 7.875 5.25 7.875C5.92867 7.875 6.53898 7.71148 7 7.43914V7.875ZM5.25 7C4.24867 7 3.5 6.53789 3.5 6.125C3.5 5.71211 4.24867 5.25 5.25 5.25C6.25133 5.25 7 5.71211 7 6.125C7 6.53789 6.25133 7 5.25 7ZM11.375 9.625C11.375 10.0379 10.6263 10.5 9.625 10.5C8.62367 10.5 7.875 10.0379 7.875 9.625V9.18914C8.33602 9.46148 8.94633 9.625 9.625 9.625C10.3037 9.625 10.914 9.46148 11.375 9.18914V9.625ZM9.625 8.75C8.62367 8.75 7.875 8.28789 7.875 7.875C7.875 7.46211 8.62367 7 9.625 7C10.6263 7 11.375 7.46211 11.375 7.875C11.375 8.28789 10.6263 8.75 9.625 8.75Z" fill="#004FAC"/>
</svg>
