<svg width="24" height="24" viewBox="0 0 24 24" fill="none" xmlns="http://www.w3.org/2000/svg">
<g clip-path="url(#clip0_1047_2617)">
<path d="M11.9999 23.7819C18.0248 23.7819 22.909 18.8977 22.909 12.8728C22.909 6.84785 18.0248 1.96368 11.9999 1.96368C5.97499 1.96368 1.09082 6.84785 1.09082 12.8728C1.09082 18.8977 5.97499 23.7819 11.9999 23.7819Z" fill="#E7EFFF"/>
<path d="M18.7636 12.8727C18.7635 11.7062 18.4616 10.5596 17.8874 9.54422C17.3132 8.52883 16.4862 7.67921 15.4866 7.07788C14.4871 6.47655 13.349 6.14395 12.1829 6.1124C11.0168 6.08085 9.86244 6.35141 8.83183 6.8978C7.80121 7.4442 6.92943 8.24785 6.30116 9.2307C5.67289 10.2136 5.3095 11.3422 5.24627 12.507C5.18305 13.6717 5.42214 14.8331 5.94033 15.8782C6.45852 16.9232 7.23819 17.8165 8.2036 18.4713C8.58039 18.7296 8.89918 19.0636 9.13961 19.4521C9.38004 19.8405 9.53683 20.2748 9.59997 20.7273H14.4C14.4698 20.2668 14.6341 19.8257 14.8827 19.4318C15.1313 19.0379 15.4587 18.6997 15.8443 18.4385C16.745 17.8163 17.4812 16.9848 17.9897 16.0153C18.4982 15.0458 18.7638 13.9675 18.7636 12.8727Z" fill="#FFA100"/>
<path d="M14.3999 21.6H9.59994C9.48421 21.6 9.37322 21.554 9.29138 21.4722C9.20955 21.3904 9.16357 21.2794 9.16357 21.1637C9.16357 21.0479 9.20955 20.9369 9.29138 20.8551C9.37322 20.7733 9.48421 20.7273 9.59994 20.7273H14.3999C14.5157 20.7273 14.6267 20.7733 14.7085 20.8551C14.7903 20.9369 14.8363 21.0479 14.8363 21.1637C14.8363 21.2794 14.7903 21.3904 14.7085 21.4722C14.6267 21.554 14.5157 21.6 14.3999 21.6Z" fill="#8FA2FF"/>
<path d="M14.3999 22.4728H9.59994C9.48421 22.4728 9.37322 22.4268 9.29138 22.345C9.20955 22.2631 9.16357 22.1521 9.16357 22.0364C9.16357 21.9207 9.20955 21.8097 9.29138 21.7278C9.37322 21.646 9.48421 21.6 9.59994 21.6H14.3999C14.5157 21.6 14.6267 21.646 14.7085 21.7278C14.7903 21.8097 14.8363 21.9207 14.8363 22.0364C14.8363 22.1521 14.7903 22.2631 14.7085 22.345C14.6267 22.4268 14.5157 22.4728 14.3999 22.4728Z" fill="#4E6AFF"/>
<path d="M14.1818 22.4727C14.1818 22.8901 14.0488 23.2967 13.8021 23.6334C12.6096 23.8319 11.3925 23.8319 10.1999 23.6334C9.95245 23.297 9.8187 22.8904 9.81812 22.4727H14.1818Z" fill="#323FD4"/>
<path d="M17.2363 13.5273V12.2182C17.2363 12.1024 17.1903 11.9914 17.1085 11.9096C17.0266 11.8278 16.9156 11.7818 16.7999 11.7818H16.3155C16.2256 11.7816 16.1379 11.7536 16.0645 11.7017C15.9911 11.6497 15.9355 11.5764 15.9054 11.4916C15.8565 11.3542 15.8005 11.2195 15.7374 11.088C15.6988 11.0067 15.6862 10.9155 15.7015 10.8269C15.7167 10.7382 15.759 10.6564 15.8225 10.5927L16.165 10.2545C16.2056 10.214 16.2378 10.1659 16.2597 10.1129C16.2817 10.0599 16.293 10.0032 16.293 9.94581C16.293 9.88846 16.2817 9.83168 16.2597 9.77871C16.2378 9.72573 16.2056 9.67761 16.165 9.63708L15.2399 8.71199C15.1994 8.67142 15.1513 8.63923 15.0983 8.61727C15.0453 8.59531 14.9885 8.58401 14.9312 8.58401C14.8738 8.58401 14.8171 8.59531 14.7641 8.61727C14.7111 8.63923 14.663 8.67142 14.6225 8.71199L14.2799 9.05453C14.2162 9.11804 14.1344 9.1603 14.0458 9.17553C13.9571 9.19076 13.8659 9.17822 13.7846 9.13963C13.6532 9.07654 13.5184 9.02046 13.381 8.97162C13.2956 8.94125 13.2217 8.885 13.1697 8.81071C13.1177 8.73641 13.0901 8.64776 13.0908 8.55708V8.07272C13.0908 7.95699 13.0448 7.84599 12.963 7.76416C12.8812 7.68233 12.7702 7.63635 12.6545 7.63635H11.3454C11.2296 7.63635 11.1186 7.68233 11.0368 7.76416C10.955 7.84599 10.909 7.95699 10.909 8.07272V8.55708C10.9088 8.64702 10.8808 8.7347 10.8289 8.80813C10.7769 8.88155 10.7036 8.93713 10.6188 8.96726C10.4814 9.0161 10.3467 9.07217 10.2152 9.13526C10.1339 9.17386 10.0427 9.1864 9.95407 9.17117C9.86541 9.15594 9.78363 9.11367 9.71991 9.05017L9.38173 8.70763C9.34121 8.66705 9.29308 8.63487 9.24011 8.61291C9.18713 8.59095 9.13035 8.57965 9.073 8.57965C9.01566 8.57965 8.95888 8.59095 8.9059 8.61291C8.85293 8.63487 8.8048 8.66705 8.76428 8.70763L7.83919 9.63272C7.79861 9.67324 7.76643 9.72137 7.74447 9.77434C7.72251 9.82732 7.71121 9.8841 7.71121 9.94144C7.71121 9.99879 7.72251 10.0556 7.74447 10.1085C7.76643 10.1615 7.79861 10.2096 7.83919 10.2502L8.18173 10.5927C8.24524 10.6564 8.2875 10.7382 8.30273 10.8269C8.31796 10.9155 8.30542 11.0067 8.26682 11.088C8.20374 11.2195 8.14766 11.3542 8.09882 11.4916C8.06844 11.5771 8.0122 11.6509 7.93791 11.7029C7.86361 11.7549 7.77496 11.7825 7.68428 11.7818H7.19991C7.08418 11.7818 6.97319 11.8278 6.89136 11.9096C6.80952 11.9914 6.76355 12.1024 6.76355 12.2182V13.5273C6.76355 13.643 6.80952 13.754 6.89136 13.8358C6.97319 13.9177 7.08418 13.9636 7.19991 13.9636H7.68428C7.77422 13.9638 7.8619 13.9918 7.93532 14.0438C8.00875 14.0957 8.06433 14.1691 8.09446 14.2538C8.14329 14.3912 8.19937 14.526 8.26246 14.6574C8.30106 14.7387 8.3136 14.8299 8.29837 14.9186C8.28313 15.0072 8.24087 15.089 8.17737 15.1527L7.83482 15.4909C7.79425 15.5314 7.76206 15.5795 7.74011 15.6325C7.71815 15.6855 7.70684 15.7423 7.70684 15.7996C7.70684 15.857 7.71815 15.9138 7.74011 15.9667C7.76206 16.0197 7.79425 16.0678 7.83482 16.1084L8.75991 17.0334C8.80044 17.074 8.84857 17.1062 8.90154 17.1282C8.95451 17.1501 9.0113 17.1614 9.06864 17.1614C9.12599 17.1614 9.18277 17.1501 9.23574 17.1282C9.28872 17.1062 9.33684 17.074 9.37737 17.0334L9.71991 16.6909C9.78363 16.6274 9.86541 16.5851 9.95407 16.5699C10.0427 16.5547 10.1339 16.5672 10.2152 16.6058C10.3467 16.6689 10.4814 16.725 10.6188 16.7738C10.7043 16.8042 10.7781 16.8604 10.8301 16.9347C10.8821 17.009 10.9097 17.0977 10.909 17.1884V17.6727C10.909 17.7884 10.955 17.8994 11.0368 17.9813C11.1186 18.0631 11.2296 18.1091 11.3454 18.1091H12.6545C12.7702 18.1091 12.8812 18.0631 12.963 17.9813C13.0448 17.8994 13.0908 17.7884 13.0908 17.6727V17.1884C13.091 17.0984 13.119 17.0107 13.171 16.9373C13.2229 16.8639 13.2963 16.8083 13.381 16.7782C13.5184 16.7293 13.6532 16.6733 13.7846 16.6102C13.8659 16.5716 13.9571 16.559 14.0458 16.5743C14.1344 16.5895 14.2162 16.6318 14.2799 16.6953L14.6181 17.0378C14.6586 17.0784 14.7067 17.1106 14.7597 17.1325C14.8127 17.1545 14.8695 17.1658 14.9268 17.1658C14.9842 17.1658 15.0409 17.1545 15.0939 17.1325C15.1469 17.1106 15.195 17.0784 15.2355 17.0378L16.1606 16.1127C16.2012 16.0722 16.2334 16.0241 16.2554 15.9711C16.2773 15.9181 16.2886 15.8613 16.2886 15.804C16.2886 15.7466 16.2773 15.6899 16.2554 15.6369C16.2334 15.5839 16.2012 15.5358 16.1606 15.4953L15.8181 15.1527C15.7546 15.089 15.7123 15.0072 15.6971 14.9186C15.6819 14.8299 15.6944 14.7387 15.733 14.6574C15.7961 14.526 15.8522 14.3912 15.901 14.2538C15.9314 14.1684 15.9876 14.0945 16.0619 14.0425C16.1362 13.9905 16.2249 13.9629 16.3155 13.9636H16.7999C16.9156 13.9636 17.0266 13.9177 17.1085 13.8358C17.1903 13.754 17.2363 13.643 17.2363 13.5273Z" fill="#4E6AFF"/>
<path d="M12 15.2727C13.3255 15.2727 14.4 14.1982 14.4 12.8727C14.4 11.5472 13.3255 10.4727 12 10.4727C10.6745 10.4727 9.59998 11.5472 9.59998 12.8727C9.59998 14.1982 10.6745 15.2727 12 15.2727Z" fill="#323FD4"/>
<path d="M11.9999 14.4C12.8434 14.4 13.5272 13.7162 13.5272 12.8727C13.5272 12.0292 12.8434 11.3455 11.9999 11.3455C11.1564 11.3455 10.4727 12.0292 10.4727 12.8727C10.4727 13.7162 11.1564 14.4 11.9999 14.4Z" fill="white"/>
<path d="M23.7817 5.89094V5.01822C23.7817 4.90248 23.7357 4.79149 23.6539 4.70966C23.5721 4.62783 23.4611 4.58185 23.3454 4.58185H23.1272C23.037 4.58149 22.9491 4.55319 22.8756 4.50083C22.8022 4.44847 22.7468 4.37464 22.717 4.28949C22.6763 4.17515 22.6297 4.063 22.5774 3.95349C22.538 3.87219 22.5248 3.78067 22.5397 3.69157C22.5545 3.60247 22.5967 3.52017 22.6603 3.45603L22.8239 3.29458C22.8645 3.25405 22.8967 3.20593 22.9186 3.15295C22.9406 3.09998 22.9519 3.0432 22.9519 2.98585C22.9519 2.92851 22.9406 2.87172 22.9186 2.81875C22.8967 2.76578 22.8645 2.71765 22.8239 2.67712L22.2064 2.05967C22.1659 2.0191 22.1178 1.98691 22.0648 1.96495C22.0118 1.94299 21.9551 1.93169 21.8977 1.93169C21.8404 1.93169 21.7836 1.94299 21.7306 1.96495C21.6776 1.98691 21.6295 2.0191 21.589 2.05967L21.4275 2.22331C21.3634 2.28691 21.2811 2.32905 21.192 2.3439C21.1029 2.35875 21.0114 2.34558 20.9301 2.30622C20.8206 2.25389 20.7084 2.20728 20.5941 2.16658C20.5069 2.13866 20.4307 2.08403 20.3763 2.01042C20.3218 1.93681 20.2919 1.84794 20.2908 1.7564V1.52731C20.2908 1.41158 20.2448 1.30058 20.163 1.21875C20.0812 1.13692 19.9702 1.09094 19.8544 1.09094H18.9817C18.866 1.09094 18.755 1.13692 18.6732 1.21875C18.5913 1.30058 18.5454 1.41158 18.5454 1.52731V1.7564C18.545 1.8466 18.5167 1.93448 18.4643 2.00793C18.412 2.08139 18.3381 2.13681 18.253 2.16658C18.1386 2.20728 18.0265 2.25389 17.917 2.30622C17.8357 2.34558 17.7442 2.35875 17.6551 2.3439C17.566 2.32905 17.4837 2.28691 17.4195 2.22331L17.2581 2.05967C17.2176 2.0191 17.1694 1.98691 17.1165 1.96495C17.0635 1.94299 17.0067 1.93169 16.9494 1.93169C16.892 1.93169 16.8352 1.94299 16.7823 1.96495C16.7293 1.98691 16.6812 2.0191 16.6406 2.05967L16.0232 2.67712C15.9826 2.71765 15.9504 2.76578 15.9285 2.81875C15.9065 2.87172 15.8952 2.92851 15.8952 2.98585C15.8952 3.0432 15.9065 3.09998 15.9285 3.15295C15.9504 3.20593 15.9826 3.25405 16.0232 3.29458L16.1868 3.45603C16.2504 3.52017 16.2926 3.60247 16.3074 3.69157C16.3223 3.78067 16.3091 3.87219 16.2697 3.95349C16.2174 4.063 16.1708 4.17515 16.1301 4.28949C16.1003 4.37464 16.0449 4.44847 15.9714 4.50083C15.898 4.55319 15.8101 4.58149 15.7199 4.58185H15.4908C15.3751 4.58185 15.2641 4.62783 15.1823 4.70966C15.1004 4.79149 15.0544 4.90248 15.0544 5.01822V5.89094C15.0544 6.00667 15.1004 6.11766 15.1823 6.1995C15.2641 6.28133 15.3751 6.32731 15.4908 6.32731H15.709C15.7992 6.32767 15.8871 6.35597 15.9605 6.40833C16.034 6.46068 16.0894 6.53452 16.1192 6.61967C16.1599 6.73401 16.2065 6.84616 16.2588 6.95567C16.2982 7.03697 16.3113 7.12849 16.2965 7.21759C16.2816 7.30669 16.2395 7.38899 16.1759 7.45312L16.0123 7.61458C15.9717 7.65511 15.9395 7.70323 15.9175 7.7562C15.8956 7.80918 15.8843 7.86596 15.8843 7.92331C15.8843 7.98065 15.8956 8.03743 15.9175 8.09041C15.9395 8.14338 15.9717 8.19151 16.0123 8.23203L16.6297 8.84949C16.6702 8.89006 16.7184 8.92224 16.7713 8.9442C16.8243 8.96616 16.8811 8.97747 16.9384 8.97747C16.9958 8.97747 17.0526 8.96616 17.1055 8.9442C17.1585 8.92224 17.2066 8.89006 17.2472 8.84949L17.4086 8.68585C17.4728 8.62224 17.5551 8.58011 17.6442 8.56526C17.7333 8.55041 17.8248 8.56357 17.9061 8.60294C18.0156 8.65527 18.1277 8.70188 18.2421 8.74258C18.331 8.77106 18.4085 8.82734 18.4631 8.90314C18.5177 8.97894 18.5465 9.07026 18.5454 9.16367V9.38185C18.5454 9.49758 18.5913 9.60857 18.6732 9.69041C18.755 9.77224 18.866 9.81822 18.9817 9.81822H19.8544C19.9702 9.81822 20.0812 9.77224 20.163 9.69041C20.2448 9.60857 20.2908 9.49758 20.2908 9.38185V9.16367C20.2912 9.07347 20.3195 8.98559 20.3718 8.91213C20.4242 8.83868 20.498 8.78325 20.5832 8.75349C20.6975 8.71279 20.8097 8.66618 20.9192 8.61385C21.0005 8.57448 21.092 8.56131 21.1811 8.57616C21.2702 8.59102 21.3525 8.63315 21.4166 8.69676L21.5781 8.8604C21.6186 8.90097 21.6667 8.93315 21.7197 8.95511C21.7727 8.97707 21.8295 8.98838 21.8868 8.98838C21.9442 8.98838 22.0009 8.97707 22.0539 8.95511C22.1069 8.93315 22.155 8.90097 22.1955 8.8604L22.813 8.24294C22.8536 8.20242 22.8857 8.15429 22.9077 8.10132C22.9297 8.04834 22.941 7.99156 22.941 7.93422C22.941 7.87687 22.9297 7.82009 22.9077 7.76711C22.8857 7.71414 22.8536 7.66601 22.813 7.62549L22.6494 7.46403C22.5857 7.3999 22.5436 7.3176 22.5288 7.2285C22.5139 7.13939 22.5271 7.04788 22.5664 6.96658C22.6188 6.85707 22.6654 6.74492 22.7061 6.63058C22.7346 6.54161 22.7908 6.46414 22.8666 6.40955C22.9424 6.35495 23.0338 6.32613 23.1272 6.32731H23.3454C23.4611 6.32731 23.5721 6.28133 23.6539 6.1995C23.7357 6.11766 23.7817 6.00667 23.7817 5.89094Z" fill="#8FA2FF"/>
<path d="M19.4181 7.6364C20.6231 7.6364 21.6 6.65957 21.6 5.45458C21.6 4.2496 20.6231 3.27277 19.4181 3.27277C18.2132 3.27277 17.2363 4.2496 17.2363 5.45458C17.2363 6.65957 18.2132 7.6364 19.4181 7.6364Z" fill="#4E6AFF"/>
<path d="M19.4182 6.76363C20.1412 6.76363 20.7273 6.17753 20.7273 5.45454C20.7273 4.73155 20.1412 4.14545 19.4182 4.14545C18.6952 4.14545 18.1091 4.73155 18.1091 5.45454C18.1091 6.17753 18.6952 6.76363 19.4182 6.76363Z" fill="white"/>
<path d="M4.35056 11.7272C4.35056 12.1902 4.16667 12.6341 3.83933 12.9615C3.512 13.2888 3.06803 13.4727 2.60511 13.4727H1.10838C1.01885 11.8891 1.27727 10.305 1.86547 8.83197C2.27431 9.1084 2.57735 9.51527 2.72511 9.98615C3.16617 10.0165 3.57927 10.2132 3.88097 10.5364C4.18268 10.8595 4.3505 11.2851 4.35056 11.7272Z" fill="white"/>
<path d="M22.08 17.0509C21.3323 18.8503 20.1164 20.4165 18.5585 21.5869C18.1232 21.5399 17.7215 21.331 17.433 21.0017C17.1445 20.6723 16.9903 20.2466 17.001 19.8088C17.0117 19.3711 17.1865 18.9534 17.4908 18.6386C17.7951 18.3237 18.2065 18.1348 18.6436 18.1091C18.7494 17.7714 18.9358 17.4645 19.1867 17.2149C19.4375 16.9653 19.7453 16.7804 20.0835 16.6763C20.4217 16.5721 20.7802 16.5518 21.128 16.6171C21.4758 16.6823 21.8025 16.8312 22.08 17.0509Z" fill="white"/>
<path d="M12 1.52729C12.3615 1.52729 12.6545 1.23424 12.6545 0.872746C12.6545 0.511251 12.3615 0.218201 12 0.218201C11.6385 0.218201 11.3455 0.511251 11.3455 0.872746C11.3455 1.23424 11.6385 1.52729 12 1.52729Z" fill="#00C99F"/>
<path d="M0.872685 7.41822C1.23418 7.41822 1.52723 7.12517 1.52723 6.76368C1.52723 6.40218 1.23418 6.10913 0.872685 6.10913C0.51119 6.10913 0.21814 6.40218 0.21814 6.76368C0.21814 7.12517 0.51119 7.41822 0.872685 7.41822Z" fill="#FF4D69"/>
<path d="M22.9069 12.6633C23.2684 12.6633 23.5614 12.3702 23.5614 12.0087C23.5614 11.6472 23.2684 11.3542 22.9069 11.3542C22.5454 11.3542 22.2523 11.6472 22.2523 12.0087C22.2523 12.3702 22.5454 12.6633 22.9069 12.6633Z" fill="#FFA100"/>
<path d="M16.3637 23.7818C16.7251 23.7818 17.0182 23.4888 17.0182 23.1273C17.0182 22.7658 16.7251 22.4727 16.3637 22.4727C16.0022 22.4727 15.7091 22.7658 15.7091 23.1273C15.7091 23.4888 16.0022 23.7818 16.3637 23.7818Z" fill="#00C99F"/>
</g>
<defs>
<clipPath id="clip0_1047_2617">
<rect width="24" height="24" fill="white"/>
</clipPath>
</defs>
</svg>
