<svg width="26" height="26" viewBox="0 0 26 26" fill="none" xmlns="http://www.w3.org/2000/svg">
<g clip-path="url(#clip0_1042_2208)">
<path d="M2.21159 9.40744H19.3508C19.3983 9.40744 19.4453 9.40993 19.492 9.41374V7.37244C19.4454 7.37625 19.3983 7.37873 19.3508 7.37873H2.21154C2.16395 7.37873 2.11698 7.37625 2.07031 7.37244V9.41374C2.11698 9.40993 2.164 9.40744 2.21159 9.40744Z" fill="#6E60B8"/>
<path d="M4.91249 7.3788H2.21154C2.16395 7.3788 2.11698 7.37637 2.07031 7.37256V9.41386C2.11693 9.41005 2.16395 9.40757 2.21154 9.40757H4.91249V7.3788Z" fill="#6353B2"/>
<path d="M19.3507 16.5926H2.21154C2.16395 16.5926 2.11698 16.5901 2.07031 16.5863V18.6276C2.11693 18.6238 2.16395 18.6213 2.21154 18.6213H19.3507C19.3983 18.6213 19.4453 18.6238 19.4919 18.6276V16.5863C19.4453 16.5901 19.3983 16.5926 19.3507 16.5926Z" fill="#6E60B8"/>
<path d="M4.91249 16.5926H2.21154C2.16395 16.5926 2.11698 16.5901 2.07031 16.5863V18.6276C2.11693 18.6238 2.16395 18.6213 2.21154 18.6213H4.91249V16.5926Z" fill="#6353B2"/>
<path d="M19.3533 0H2.21419C1.26275 0 0.484375 0.778426 0.484375 1.72981V5.84254C0.484375 6.79392 1.2628 7.57235 2.21419 7.57235H19.3534C20.3048 7.57235 21.0832 6.79392 21.0832 5.84254V1.72981C21.0831 0.778426 20.3048 0 19.3533 0Z" fill="#8479C2"/>
<path d="M2.87196 5.84248V1.72981C2.87196 0.778426 3.65038 0 4.60177 0H2.21419C1.26275 0 0.484375 0.778426 0.484375 1.72981V5.84248C0.484375 6.79387 1.2628 7.5723 2.21419 7.5723H4.60177C3.65038 7.5723 2.87196 6.79392 2.87196 5.84248Z" fill="#6E60B8"/>
<path d="M19.1036 1.58862H2.45864C2.24419 1.58862 2.07031 1.7625 2.07031 1.97695V5.59542C2.07031 5.80986 2.24419 5.98374 2.45864 5.98374H19.1036C19.318 5.98374 19.4919 5.80986 19.4919 5.59542V1.97695C19.4919 1.7625 19.318 1.58862 19.1036 1.58862Z" fill="#6E60B8"/>
<path d="M4.45795 5.59542V1.97695C4.45795 1.7625 4.63182 1.58862 4.84627 1.58862H2.45864C2.24419 1.58862 2.07031 1.7625 2.07031 1.97695V5.59542C2.07031 5.80986 2.24419 5.98374 2.45864 5.98374H4.84627C4.63177 5.98374 4.45795 5.80986 4.45795 5.59542Z" fill="#6353B2"/>
<path d="M4.45359 4.60689C4.90689 4.60689 5.27437 4.23941 5.27437 3.78611C5.27437 3.33281 4.90689 2.96533 4.45359 2.96533C4.00029 2.96533 3.63281 3.33281 3.63281 3.78611C3.63281 4.23941 4.00029 4.60689 4.45359 4.60689Z" fill="#FFE181"/>
<path d="M4.60121 3.78611C4.60121 3.51412 4.73405 3.27378 4.93779 3.12443C4.80195 3.02485 4.63493 2.96533 4.45359 2.96533C4.00032 2.96533 3.63281 3.33279 3.63281 3.78611C3.63281 4.23943 4.00032 4.60689 4.45359 4.60689C4.63493 4.60689 4.80195 4.54737 4.93779 4.44779C4.73411 4.29844 4.60121 4.05809 4.60121 3.78611Z" fill="#FEC458"/>
<path d="M7.39109 4.60689C7.84439 4.60689 8.21187 4.23941 8.21187 3.78611C8.21187 3.33281 7.84439 2.96533 7.39109 2.96533C6.93779 2.96533 6.57031 3.33281 6.57031 3.78611C6.57031 4.23941 6.93779 4.60689 7.39109 4.60689Z" fill="#FFE181"/>
<path d="M7.53871 3.78611C7.53871 3.51412 7.67155 3.27378 7.87529 3.12443C7.73945 3.02485 7.57243 2.96533 7.39109 2.96533C6.93782 2.96533 6.57031 3.33279 6.57031 3.78611C6.57031 4.23943 6.93782 4.60689 7.39109 4.60689C7.57243 4.60689 7.73945 4.54737 7.87529 4.44779C7.67155 4.29844 7.53871 4.05809 7.53871 3.78611Z" fill="#FEC458"/>
<path d="M10.3286 4.60689C10.7819 4.60689 11.1494 4.23941 11.1494 3.78611C11.1494 3.33281 10.7819 2.96533 10.3286 2.96533C9.87529 2.96533 9.50781 3.33281 9.50781 3.78611C9.50781 4.23941 9.87529 4.60689 10.3286 4.60689Z" fill="#FFE181"/>
<path d="M10.4762 3.78611C10.4762 3.51412 10.6091 3.27378 10.8128 3.12443C10.6769 3.02485 10.5099 2.96533 10.3286 2.96533C9.87532 2.96533 9.50781 3.33279 9.50781 3.78611C9.50781 4.23943 9.87532 4.60689 10.3286 4.60689C10.5099 4.60689 10.6769 4.54737 10.8128 4.44779C10.6091 4.29844 10.4762 4.05809 10.4762 3.78611Z" fill="#FEC458"/>
<path d="M19.3533 9.29321H2.21419C1.2628 9.29321 0.484375 10.0716 0.484375 11.023V15.1357C0.484375 16.0871 1.2628 16.8656 2.21419 16.8656H19.3534C20.3048 16.8656 21.0832 16.0871 21.0832 15.1357V11.023C21.0831 10.0716 20.3048 9.29321 19.3533 9.29321Z" fill="#8479C2"/>
<path d="M2.87196 15.1357V11.023C2.87196 10.0716 3.65038 9.29321 4.60177 9.29321H2.21419C1.2628 9.29321 0.484375 10.0716 0.484375 11.023V15.1357C0.484375 16.0871 1.2628 16.8656 2.21419 16.8656H4.60177C3.65038 16.8655 2.87196 16.0871 2.87196 15.1357Z" fill="#6E60B8"/>
<path d="M19.1036 10.8818H2.45864C2.24419 10.8818 2.07031 11.0557 2.07031 11.2702V14.8886C2.07031 15.1031 2.24419 15.277 2.45864 15.277H19.1036C19.318 15.277 19.4919 15.1031 19.4919 14.8886V11.2702C19.4919 11.0557 19.318 10.8818 19.1036 10.8818Z" fill="#6E60B8"/>
<path d="M4.45795 14.8886V11.2702C4.45795 11.0557 4.63182 10.8818 4.84627 10.8818H2.45864C2.24419 10.8818 2.07031 11.0557 2.07031 11.2702V14.8886C2.07031 15.1031 2.24419 15.277 2.45864 15.277H4.84627C4.63177 15.277 4.45795 15.1031 4.45795 14.8886Z" fill="#6353B2"/>
<path d="M4.45359 13.9002C4.90689 13.9002 5.27437 13.5327 5.27437 13.0794C5.27437 12.6261 4.90689 12.2587 4.45359 12.2587C4.00029 12.2587 3.63281 12.6261 3.63281 13.0794C3.63281 13.5327 4.00029 13.9002 4.45359 13.9002Z" fill="#FFE181"/>
<path d="M4.60121 13.0794C4.60121 12.8075 4.73405 12.5671 4.93779 12.4178C4.80195 12.3182 4.63493 12.2587 4.45359 12.2587C4.00032 12.2587 3.63281 12.6261 3.63281 13.0794C3.63281 13.5328 4.00032 13.9002 4.45359 13.9002C4.63493 13.9002 4.80195 13.8407 4.93779 13.7411C4.73411 13.5918 4.60121 13.3514 4.60121 13.0794Z" fill="#FEC458"/>
<path d="M7.39109 13.9002C7.84439 13.9002 8.21187 13.5327 8.21187 13.0794C8.21187 12.6261 7.84439 12.2587 7.39109 12.2587C6.93779 12.2587 6.57031 12.6261 6.57031 13.0794C6.57031 13.5327 6.93779 13.9002 7.39109 13.9002Z" fill="#FFE181"/>
<path d="M7.53871 13.0794C7.53871 12.8075 7.67155 12.5671 7.87529 12.4178C7.73945 12.3182 7.57243 12.2587 7.39109 12.2587C6.93782 12.2587 6.57031 12.6261 6.57031 13.0794C6.57031 13.5328 6.93782 13.9002 7.39109 13.9002C7.57243 13.9002 7.73945 13.8407 7.87529 13.7411C7.67155 13.5918 7.53871 13.3514 7.53871 13.0794Z" fill="#FEC458"/>
<path d="M10.3286 13.9002C10.7819 13.9002 11.1494 13.5327 11.1494 13.0794C11.1494 12.6261 10.7819 12.2587 10.3286 12.2587C9.87529 12.2587 9.50781 12.6261 9.50781 13.0794C9.50781 13.5327 9.87529 13.9002 10.3286 13.9002Z" fill="#FFE181"/>
<path d="M10.4762 13.0794C10.4762 12.8075 10.6091 12.5671 10.8128 12.4178C10.6769 12.3182 10.5099 12.2587 10.3286 12.2587C9.87532 12.2587 9.50781 12.6261 9.50781 13.0794C9.50781 13.5328 9.87532 13.9002 10.3286 13.9002C10.5099 13.9002 10.6769 13.8407 10.8128 13.7411C10.6091 13.5918 10.4762 13.3514 10.4762 13.0794Z" fill="#FEC458"/>
<path d="M19.3533 18.4277H2.21419C1.2628 18.4277 0.484375 19.2062 0.484375 20.1575V24.2703C0.484375 25.2216 1.26275 26 2.21414 26H19.3533C20.3047 26 21.0831 25.2216 21.0831 24.2702V20.1575C21.0831 19.2062 20.3048 18.4277 19.3533 18.4277Z" fill="#8479C2"/>
<path d="M2.87196 24.2702V20.1575C2.87196 19.2062 3.65038 18.4277 4.60177 18.4277H2.21419C1.2628 18.4277 0.484375 19.2062 0.484375 20.1575V24.2702C0.484375 25.2216 1.26275 26 2.21419 26H4.60177C3.65038 26 2.87196 25.2216 2.87196 24.2702Z" fill="#6E60B8"/>
<path d="M19.1036 20.0164H2.45864C2.24419 20.0164 2.07031 20.1902 2.07031 20.4047V24.0232C2.07031 24.2376 2.24419 24.4115 2.45864 24.4115H19.1036C19.318 24.4115 19.4919 24.2376 19.4919 24.0232V20.4047C19.4919 20.1902 19.318 20.0164 19.1036 20.0164Z" fill="#6E60B8"/>
<path d="M4.45795 24.0232V20.4047C4.45795 20.1902 4.63182 20.0164 4.84627 20.0164H2.45864C2.24419 20.0164 2.07031 20.1902 2.07031 20.4047V24.0232C2.07031 24.2376 2.24419 24.4115 2.45864 24.4115H4.84627C4.63177 24.4115 4.45795 24.2376 4.45795 24.0232Z" fill="#6353B2"/>
<path d="M4.45359 23.0346C4.90689 23.0346 5.27437 22.6671 5.27437 22.2138C5.27437 21.7605 4.90689 21.3931 4.45359 21.3931C4.00029 21.3931 3.63281 21.7605 3.63281 22.2138C3.63281 22.6671 4.00029 23.0346 4.45359 23.0346Z" fill="#FFE181"/>
<path d="M4.60121 22.2138C4.60121 21.9419 4.73405 21.7015 4.93779 21.5522C4.80195 21.4526 4.63493 21.3931 4.45359 21.3931C4.00032 21.3931 3.63281 21.7605 3.63281 22.2138C3.63281 22.6672 4.00032 23.0346 4.45359 23.0346C4.63493 23.0346 4.80195 22.9751 4.93779 22.8755C4.73411 22.7262 4.60121 22.4858 4.60121 22.2138Z" fill="#FEC458"/>
<path d="M7.39109 23.0346C7.84439 23.0346 8.21187 22.6671 8.21187 22.2138C8.21187 21.7605 7.84439 21.3931 7.39109 21.3931C6.93779 21.3931 6.57031 21.7605 6.57031 22.2138C6.57031 22.6671 6.93779 23.0346 7.39109 23.0346Z" fill="#FFE181"/>
<path d="M7.53871 22.2138C7.53871 21.9419 7.67155 21.7015 7.87529 21.5522C7.73945 21.4526 7.57243 21.3931 7.39109 21.3931C6.93782 21.3931 6.57031 21.7605 6.57031 22.2138C6.57031 22.6672 6.93782 23.0346 7.39109 23.0346C7.57243 23.0346 7.73945 22.9751 7.87529 22.8755C7.67155 22.7262 7.53871 22.4858 7.53871 22.2138Z" fill="#FEC458"/>
<path d="M10.3286 23.0346C10.7819 23.0346 11.1494 22.6671 11.1494 22.2138C11.1494 21.7605 10.7819 21.3931 10.3286 21.3931C9.87529 21.3931 9.50781 21.7605 9.50781 22.2138C9.50781 22.6671 9.87529 23.0346 10.3286 23.0346Z" fill="#FFE181"/>
<path d="M10.4762 22.2138C10.4762 21.9419 10.6091 21.7015 10.8128 21.5522C10.6769 21.4526 10.5099 21.3931 10.3286 21.3931C9.87532 21.3931 9.50781 21.7605 9.50781 22.2138C9.50781 22.6672 9.87532 23.0346 10.3286 23.0346C10.5099 23.0346 10.6769 22.9751 10.8128 22.8755C10.6091 22.7262 10.4762 22.4858 10.4762 22.2138Z" fill="#FEC458"/>
<path d="M13.8858 4.17847H12.822C12.6053 4.17847 12.4297 4.00282 12.4297 3.78613C12.4297 3.56945 12.6053 3.3938 12.822 3.3938H13.8858C14.1025 3.3938 14.2781 3.56945 14.2781 3.78613C14.2781 4.00282 14.1025 4.17847 13.8858 4.17847Z" fill="#6353B2"/>
<path d="M14.5518 13.4718H12.822C12.6053 13.4718 12.4297 13.2962 12.4297 13.0795C12.4297 12.8628 12.6053 12.6871 12.822 12.6871H14.5518C14.7685 12.6871 14.9442 12.8628 14.9442 13.0795C14.9442 13.2961 14.7685 13.4718 14.5518 13.4718Z" fill="#6353B2"/>
<path d="M17.8719 13.4718H16.2126C15.996 13.4718 15.8203 13.2962 15.8203 13.0795C15.8203 12.8628 15.996 12.6871 16.2126 12.6871H17.8719C18.0886 12.6871 18.2642 12.8628 18.2642 13.0795C18.2642 13.2961 18.0886 13.4718 17.8719 13.4718Z" fill="#6353B2"/>
<path d="M14.5518 22.6062H12.822C12.6053 22.6062 12.4297 22.4306 12.4297 22.2139C12.4297 21.9972 12.6053 21.8215 12.822 21.8215H14.5518C14.7685 21.8215 14.9442 21.9972 14.9442 22.2139C14.9442 22.4306 14.7685 22.6062 14.5518 22.6062Z" fill="#6353B2"/>
<path d="M17.8719 22.6062H16.2126C15.996 22.6062 15.8203 22.4306 15.8203 22.2139C15.8203 21.9972 15.996 21.8215 16.2126 21.8215H17.8719C18.0886 21.8215 18.2642 21.9972 18.2642 22.2139C18.2642 22.4306 18.0886 22.6062 17.8719 22.6062Z" fill="#6353B2"/>
<path d="M19.4956 12.038C22.8198 12.038 25.5146 9.3432 25.5146 6.019C25.5146 2.6948 22.8198 0 19.4956 0C16.1714 0 13.4766 2.6948 13.4766 6.019C13.4766 9.3432 16.1714 12.038 19.4956 12.038Z" fill="#DFEBFA"/>
<path d="M16.4582 6.019C16.4582 3.20938 18.3834 0.84957 20.9864 0.186215C20.5096 0.0647461 20.0102 0 19.4956 0C16.1714 0 13.4766 2.69481 13.4766 6.019C13.4766 9.34319 16.1714 12.038 19.4956 12.038C20.0102 12.038 20.5096 11.9733 20.9864 11.8518C18.3834 11.1884 16.4582 8.82862 16.4582 6.019Z" fill="#BED8FB"/>
<path d="M20.3982 8.93263C20.3254 8.93263 20.2518 8.91242 20.186 8.87007L17.3987 7.07429C17.2165 6.95693 17.1639 6.7141 17.2813 6.53195C17.3987 6.34974 17.6416 6.29729 17.8237 6.41464L20.6111 8.21042C20.7932 8.32777 20.8458 8.57061 20.7284 8.75276C20.6534 8.86915 20.5271 8.93263 20.3982 8.93263Z" fill="#61A2F9"/>
<path d="M17.6115 6.10825C17.4698 6.10825 17.333 6.03126 17.2631 5.89689C17.1631 5.70464 17.2379 5.46774 17.4301 5.36775L21.1398 3.43817C21.3321 3.33813 21.569 3.41298 21.669 3.60519C21.769 3.79744 21.6942 4.03434 21.502 4.13433L17.7922 6.06391C17.7344 6.09398 17.6725 6.10825 17.6115 6.10825Z" fill="#61A2F9"/>
<path d="M16.721 7.45882C17.4299 7.45882 18.0046 6.88415 18.0046 6.17527C18.0046 5.46639 17.4299 4.89172 16.721 4.89172C16.0122 4.89172 15.4375 5.46639 15.4375 6.17527C15.4375 6.88415 16.0122 7.45882 16.721 7.45882Z" fill="#80B4FB"/>
<path d="M21.9503 4.38889C22.4665 4.38889 22.885 3.97042 22.885 3.45421C22.885 2.938 22.4665 2.51953 21.9503 2.51953C21.4341 2.51953 21.0156 2.938 21.0156 3.45421C21.0156 3.97042 21.4341 4.38889 21.9503 4.38889Z" fill="#80B4FB"/>
<path d="M20.9425 9.83103C21.4587 9.83103 21.8772 9.41256 21.8772 8.89635C21.8772 8.38014 21.4587 7.96167 20.9425 7.96167C20.4263 7.96167 20.0078 8.38014 20.0078 8.89635C20.0078 9.41256 20.4263 9.83103 20.9425 9.83103Z" fill="#80B4FB"/>
<path d="M16.5164 6.17527C16.5164 5.65913 16.8212 5.21444 17.2605 5.01065C17.0965 4.93453 16.9138 4.89172 16.721 4.89172C16.0121 4.89172 15.4375 5.46642 15.4375 6.17527C15.4375 6.88418 16.0122 7.45882 16.721 7.45882C16.9138 7.45882 17.0965 7.41606 17.2605 7.33994C16.8212 7.1361 16.5164 6.69141 16.5164 6.17527Z" fill="#0290F4"/>
<path d="M21.952 3.45426C21.952 3.10722 22.1416 2.80502 22.4225 2.64374C22.2856 2.56513 22.1273 2.51953 21.9582 2.51953C21.4419 2.51953 21.0234 2.93802 21.0234 3.45426C21.0234 3.97045 21.4419 4.38894 21.9582 4.38894C22.1273 4.38894 22.2856 4.34334 22.4225 4.26473C22.1416 4.1035 21.952 3.8013 21.952 3.45426Z" fill="#0290F4"/>
<path d="M20.9442 8.89635C20.9442 8.54931 21.1337 8.24711 21.4146 8.08588C21.2777 8.00727 21.1195 7.96167 20.9503 7.96167C20.4341 7.96167 20.0156 8.38016 20.0156 8.89635C20.0156 9.41259 20.4341 9.83108 20.9503 9.83108C21.1195 9.83108 21.2777 9.78548 21.4146 9.70687C21.1337 9.54559 20.9442 9.24339 20.9442 8.89635Z" fill="#0290F4"/>
</g>
<defs>
<clipPath id="clip0_1042_2208">
<rect width="26" height="26" fill="white"/>
</clipPath>
</defs>
</svg>
