<svg width="30" height="28" viewBox="0 0 30 28" fill="none" xmlns="http://www.w3.org/2000/svg">
<g clip-path="url(#clip0_1042_2209)">
<path d="M7.20163 6.88421L19.3224 0.352716C20.088 -0.0598464 20.7817 -0.0981823 21.2826 0.173505L24.7038 2.02911C24.7022 2.02823 24.7005 2.02758 24.6988 2.02665C25.1962 2.29374 25.5048 2.86495 25.5074 3.67826L25.5469 16.6776C25.5518 18.3092 24.3224 20.2967 22.801 21.1165L10.6802 27.6479C9.8926 28.0722 9.18174 28.0997 8.67801 27.802C8.69202 27.8103 8.70567 27.8192 8.72008 27.8271L5.29903 25.9715C4.8045 25.7033 4.49793 25.133 4.49541 24.3224L4.45592 11.3231C4.45082 9.6911 5.6803 7.70397 7.20163 6.88421Z" fill="#3D99E2"/>
<path d="M5.29769 25.9715L8.71875 27.827C8.22422 27.5588 7.91754 26.9885 7.91514 26.1779L4.49408 24.3224C4.49654 25.1329 4.80322 25.7032 5.29769 25.9715Z" fill="#5AAAE7"/>
<path d="M24.7031 2.02911L21.2821 0.173566C20.7812 -0.0981213 20.0875 -0.0597854 19.3219 0.352777L22.7429 2.20832C23.5085 1.79576 24.2021 1.75737 24.7031 2.02911Z" fill="#78BAEC"/>
<path d="M7.87457 13.1786L4.45352 11.323L4.49301 24.3223L7.91406 26.1779L7.87457 13.1786Z" fill="#78BAEC"/>
<path d="M22.7422 2.20832L19.3211 0.352722L7.20025 6.88421L10.6213 8.73976L22.7422 2.20832Z" fill="#97C7EF"/>
<path d="M10.625 8.73976L7.20395 6.88422C5.68256 7.70398 4.4532 9.69116 4.45813 11.3231L7.87918 13.1786C7.8742 11.5467 9.10367 9.55958 10.625 8.73976Z" fill="#B3D8F5"/>
<path d="M16.8845 20.4347C17.3871 20.1639 17.8708 19.8245 18.3286 19.4334L16.7797 15.4804L15.2222 20.9431C15.2125 20.9763 15.2 21.0067 15.1863 21.0375C15.7186 20.9518 16.2898 20.7552 16.8845 20.4347ZM19.114 18.6824C20.8175 16.8757 21.9874 14.3654 21.9808 12.1971C21.9784 11.4019 21.8175 10.7331 21.5317 10.2043L19.114 18.6824ZM14.312 21.0756L12.7367 17.0752C12.4423 16.45 12.3429 15.8778 12.3412 15.3219C12.3407 15.1197 12.3533 14.926 12.3745 14.7385C11.9775 15.7353 11.7537 16.7528 11.7565 17.7065C11.7626 19.7291 12.7901 20.9437 14.312 21.0756ZM20.8015 9.82331C20.8978 9.77141 21.0104 9.70797 21.1303 9.63901C20.2123 8.64331 18.638 8.50681 16.8513 9.46964C15.5202 10.1869 14.3106 11.3856 13.4042 12.7696C13.4259 12.7559 13.4479 12.7413 13.4696 12.7296C13.9728 12.4585 14.3299 12.7353 14.3314 13.2395C14.3327 13.6917 14.0913 14.2042 13.8337 14.7953C13.6406 15.2647 13.4149 15.8569 13.4169 16.5349C13.4183 17.004 13.5501 17.5246 13.8109 18.097L14.3266 19.6489L16.1565 12.7613C15.8471 12.9098 15.5717 13.024 15.5717 13.024C15.3009 13.1348 15.3257 12.7031 15.5863 12.5627C15.5914 12.56 15.5965 12.5574 15.6018 12.5549C15.6018 12.5549 16.4309 12.1784 16.9652 11.8905C17.4674 11.6198 18.3106 11.0952 18.3106 11.0952C18.3157 11.0922 18.3206 11.0893 18.3255 11.0867C18.5879 10.9453 18.6152 11.3664 18.3453 11.5295C18.3453 11.5295 18.0845 11.7041 17.8092 11.8708L17.0198 14.6398L18.1495 17.6346L19.9934 10.6938C19.684 10.8423 19.4079 10.9569 19.4079 10.9569C19.1375 11.0676 19.1619 10.6361 19.4223 10.4957C19.4274 10.493 19.4325 10.4904 19.4378 10.4879C19.4378 10.4879 20.2668 10.1114 20.8015 9.82331ZM16.8493 8.50195C20.1705 6.7123 22.872 8.14888 22.8828 11.711C22.8936 15.2732 20.2096 19.6118 16.8885 21.4014C13.567 23.1912 10.8654 21.7547 10.8547 18.1925C10.8438 14.6303 13.5278 10.2918 16.8493 8.50195Z" fill="white"/>
</g>
<defs>
<clipPath id="clip0_1042_2209">
<rect width="30" height="28" fill="white" transform="matrix(-1 0 0 1 30 0)"/>
</clipPath>
</defs>
</svg>
