<svg width="30" height="30" viewBox="0 0 30 30" fill="none" xmlns="http://www.w3.org/2000/svg">
<path d="M25 13.4375H5C4.13706 13.4375 3.4375 14.1371 3.4375 15V20C3.4375 20.8629 4.13706 21.5625 5 21.5625H25C25.8629 21.5625 26.5625 20.8629 26.5625 20V15C26.5625 14.1371 25.8629 13.4375 25 13.4375Z" fill="#113A52"/>
<path d="M26.5625 19.9875V20C26.5625 20.4144 26.3979 20.8118 26.1049 21.1048C25.8118 21.3979 25.4144 21.5625 25 21.5625H5C4.5856 21.5625 4.18817 21.3979 3.89515 21.1048C3.60212 20.8118 3.4375 20.4144 3.4375 20V17.675C11.0659 19.1033 18.8024 19.8769 26.5625 19.9875Z" fill="#0B2433"/>
<path d="M26.25 25.3125H16.25C16.1671 25.3125 16.0876 25.2796 16.029 25.221C15.9704 25.1624 15.9375 25.0829 15.9375 25C15.9375 24.9171 15.9704 24.8376 16.029 24.779C16.0876 24.7204 16.1671 24.6875 16.25 24.6875H26.25C26.3329 24.6875 26.4124 24.7204 26.471 24.779C26.5296 24.8376 26.5625 24.9171 26.5625 25C26.5625 25.0829 26.5296 25.1624 26.471 25.221C26.4124 25.2796 26.3329 25.3125 26.25 25.3125Z" fill="#4DD190"/>
<path d="M13.75 25.3125H3.75C3.66712 25.3125 3.58763 25.2796 3.52903 25.221C3.47042 25.1624 3.4375 25.0829 3.4375 25C3.4375 24.9171 3.47042 24.8376 3.52903 24.779C3.58763 24.7204 3.66712 24.6875 3.75 24.6875H13.75C13.8329 24.6875 13.9124 24.7204 13.971 24.779C14.0296 24.8376 14.0625 24.9171 14.0625 25C14.0625 25.0829 14.0296 25.1624 13.971 25.221C13.9124 25.2796 13.8329 25.3125 13.75 25.3125Z" fill="#4DD190"/>
<path d="M25 3.4375H5C4.13706 3.4375 3.4375 4.13706 3.4375 5V10C3.4375 10.8629 4.13706 11.5625 5 11.5625H25C25.8629 11.5625 26.5625 10.8629 26.5625 10V5C26.5625 4.13706 25.8629 3.4375 25 3.4375Z" fill="#113A52"/>
<path d="M26.5625 9.98749V9.99999C26.5625 10.4144 26.3979 10.8118 26.1049 11.1048C25.8118 11.3979 25.4144 11.5625 25 11.5625H5C4.5856 11.5625 4.18817 11.3979 3.89515 11.1048C3.60212 10.8118 3.4375 10.4144 3.4375 9.99999V7.67499C11.0659 9.10327 18.8024 9.87691 26.5625 9.98749Z" fill="#0B2433"/>
<path d="M26.5625 7.1875V7.8125H18.75C18.6671 7.8125 18.5876 7.77958 18.529 7.72097C18.4704 7.66237 18.4375 7.58288 18.4375 7.5C18.4375 7.41712 18.4704 7.33763 18.529 7.27903C18.5876 7.22042 18.6671 7.1875 18.75 7.1875H26.5625Z" fill="#5CFAA9"/>
<path d="M16.25 7.8125H13.75C13.6671 7.8125 13.5876 7.77958 13.529 7.72097C13.4704 7.66237 13.4375 7.58288 13.4375 7.5C13.4375 7.41712 13.4704 7.33763 13.529 7.27903C13.5876 7.22042 13.6671 7.1875 13.75 7.1875H16.25C16.3329 7.1875 16.4124 7.22042 16.471 7.27903C16.5296 7.33763 16.5625 7.41712 16.5625 7.5C16.5625 7.58288 16.5296 7.66237 16.471 7.72097C16.4124 7.77958 16.3329 7.8125 16.25 7.8125Z" fill="#5CFAA9"/>
<path d="M7.5 9.0625C8.36295 9.0625 9.0625 8.36295 9.0625 7.5C9.0625 6.63706 8.36295 5.9375 7.5 5.9375C6.63706 5.9375 5.9375 6.63706 5.9375 7.5C5.9375 8.36295 6.63706 9.0625 7.5 9.0625Z" fill="#5CFAA9"/>
<path d="M26.5625 17.1875V17.8125H18.75C18.6671 17.8125 18.5876 17.7796 18.529 17.721C18.4704 17.6624 18.4375 17.5829 18.4375 17.5C18.4375 17.4171 18.4704 17.3376 18.529 17.279C18.5876 17.2204 18.6671 17.1875 18.75 17.1875H26.5625Z" fill="#5CFAA9"/>
<path d="M7.5 19.0625C8.36295 19.0625 9.0625 18.3629 9.0625 17.5C9.0625 16.6371 8.36295 15.9375 7.5 15.9375C6.63706 15.9375 5.9375 16.6371 5.9375 17.5C5.9375 18.3629 6.63706 19.0625 7.5 19.0625Z" fill="#5CFAA9"/>
<path d="M15 26.5625C15.8629 26.5625 16.5625 25.8629 16.5625 25C16.5625 24.1371 15.8629 23.4375 15 23.4375C14.1371 23.4375 13.4375 24.1371 13.4375 25C13.4375 25.8629 14.1371 26.5625 15 26.5625Z" fill="#00B67A"/>
<path d="M16.25 17.8125H13.75C13.6671 17.8125 13.5876 17.7796 13.529 17.721C13.4704 17.6624 13.4375 17.5829 13.4375 17.5C13.4375 17.4171 13.4704 17.3376 13.529 17.279C13.5876 17.2204 13.6671 17.1875 13.75 17.1875H16.25C16.3329 17.1875 16.4124 17.2204 16.471 17.279C16.5296 17.3376 16.5625 17.4171 16.5625 17.5C16.5625 17.5829 16.5296 17.6624 16.471 17.721C16.4124 17.7796 16.3329 17.8125 16.25 17.8125Z" fill="#5CFAA9"/>
</svg>
