<svg width="26" height="26" viewBox="0 0 26 26" fill="none" xmlns="http://www.w3.org/2000/svg">
<g clip-path="url(#clip0_1042_2211)">
<path d="M20.7188 15.8438H13.4062V14.625C13.4062 14.4006 13.2244 14.2188 13 14.2188C12.7756 14.2188 12.5938 14.4006 12.5938 14.625V15.8438H5.28125C4.60926 15.8438 4.0625 16.3905 4.0625 17.0625V17.875C4.0625 18.0994 4.2444 18.2812 4.46875 18.2812C4.6931 18.2812 4.875 18.0994 4.875 17.875V17.0625C4.875 16.8385 5.05725 16.6562 5.28125 16.6562H12.5938V17.875C12.5938 18.0994 12.7756 18.2812 13 18.2812C13.2244 18.2812 13.4062 18.0994 13.4062 17.875V16.6562H20.7188C20.9427 16.6562 21.125 16.8385 21.125 17.0625V17.875C21.125 18.0994 21.3069 18.2812 21.5312 18.2812C21.7556 18.2812 21.9375 18.0994 21.9375 17.875V17.0625C21.9375 16.3905 21.3907 15.8438 20.7188 15.8438Z" fill="#2387C3"/>
<path d="M19.2531 6.175C19.153 6.175 19.0549 6.18363 18.9593 6.19948C18.5981 5.14551 17.5993 4.3875 16.4229 4.3875C16.2929 4.3875 16.1653 4.39725 16.0403 4.41512C15.6369 2.36173 13.8279 0.8125 11.6562 0.8125C9.18823 0.8125 7.1875 2.81323 7.1875 5.28125C5.95352 5.28125 4.95312 6.28159 4.95312 7.51562C4.95312 8.74961 5.95352 9.75 7.1875 9.75H19.2531C20.2403 9.75 21.0406 8.94969 21.0406 7.9625C21.0406 6.97531 20.2403 6.175 19.2531 6.175Z" fill="#5AD7FF"/>
<path d="M19.2557 6.17499C19.1556 6.17499 19.0575 6.18362 18.9618 6.19946C18.9605 6.1954 18.9589 6.19149 18.9575 6.18743C18.9507 7.16888 18.1533 7.96249 17.1703 7.96249H5.10466C5.06957 7.96249 5.03473 7.96142 5 7.95985C5.20607 8.98101 6.1082 9.74999 7.19009 9.74999H19.2557C20.2429 9.74999 21.0432 8.94968 21.0432 7.96249C21.0432 6.9753 20.2429 6.17499 19.2557 6.17499Z" fill="#2387C3"/>
<path d="M13 14.625C15.6924 14.625 17.875 12.4424 17.875 9.75C17.875 7.05761 15.6924 4.875 13 4.875C10.3076 4.875 8.125 7.05761 8.125 9.75C8.125 12.4424 10.3076 14.625 13 14.625Z" fill="#555A6E"/>
<path d="M16.478 9.1C16.3023 9.1 16.1452 8.99128 16.0826 8.82705C16.0643 8.77911 16.0447 8.73184 16.0237 8.68532C15.9512 8.5245 15.9848 8.33579 16.1096 8.21102L16.1098 8.21087C16.2751 8.04553 16.2751 7.77745 16.1098 7.61211L15.7893 7.29163C15.7066 7.20896 15.5983 7.16762 15.4899 7.16762H14.3795C14.3299 7.09775 14.3015 7.01299 14.3015 6.92336C14.3015 6.68952 14.1119 6.5 13.8781 6.5H12.1248C11.891 6.5 11.7015 6.68957 11.7015 6.92336C11.7015 7.01304 11.673 7.09775 11.6235 7.16762H10.513C10.4046 7.16762 10.2963 7.20896 10.2136 7.29163L9.89314 7.61211C9.7278 7.77745 9.7278 8.04553 9.89314 8.21087L9.89334 8.21102C10.0181 8.33579 10.0517 8.52445 9.97921 8.68532C9.95824 8.73184 9.93859 8.77911 9.92031 8.82705C9.85775 8.99128 9.70063 9.1 9.52493 9.1C9.29113 9.1 9.10156 9.28957 9.10156 9.52336V9.97664C9.10156 10.2104 9.29113 10.4 9.52493 10.4C9.70063 10.4 9.85775 10.5087 9.92031 10.6729C9.93859 10.7209 9.95824 10.7682 9.97921 10.8147C10.0517 10.9755 10.0181 11.1642 9.89334 11.289L9.89314 11.2891C9.7278 11.4545 9.7278 11.7225 9.89314 11.8879L10.2136 12.2084C10.2963 12.291 10.4047 12.3324 10.513 12.3324H11.6235C11.673 12.4023 11.7015 12.487 11.7015 12.5766C11.7015 12.8104 11.891 13 12.1248 13H13.8781C14.1119 13 14.3015 12.8104 14.3015 12.5766C14.3015 12.487 14.3299 12.4023 14.3795 12.3324H15.4899C15.5983 12.3324 15.7066 12.291 15.7893 12.2084L16.1098 11.8879C16.2751 11.7225 16.2751 11.4545 16.1098 11.2891L16.1096 11.289C15.9848 11.1642 15.9512 10.9756 16.0237 10.8147C16.0447 10.7682 16.0643 10.7209 16.0826 10.6729C16.1452 10.5087 16.3023 10.4 16.478 10.4C16.7118 10.4 16.9014 10.2104 16.9014 9.97664V9.52336C16.9014 9.28957 16.7118 9.1 16.478 9.1ZM12.6796 9.82912C12.6544 9.50955 12.7834 9.21918 13.0001 9.02449C13.1816 9.18709 13.3032 9.41561 13.3233 9.67088C13.3485 9.99045 13.2195 10.2808 13.0027 10.4755C12.8212 10.3129 12.6997 10.0844 12.6796 9.82912Z" fill="#FAA019"/>
<path d="M15.6016 9.97664V9.52336C15.6016 9.28952 15.412 9.1 15.1783 9.1C15.0025 9.1 14.8454 8.99128 14.7829 8.82705C14.7646 8.77911 14.7449 8.73184 14.724 8.68532C14.6514 8.5245 14.6851 8.33579 14.8098 8.21102L14.81 8.21087C14.9753 8.04553 14.9753 7.77745 14.81 7.61211L14.4895 7.29163C14.3242 7.12629 14.0561 7.12629 13.8907 7.29163L13.8905 7.29178C13.7658 7.41655 13.5771 7.45017 13.4162 7.37765C13.3697 7.35668 13.3224 7.33703 13.2745 7.31875C13.1103 7.25618 13.0016 7.09907 13.0016 6.92336C13.0016 6.68952 12.812 6.5 12.5782 6.5H12.1249C11.8911 6.5 11.7016 6.68957 11.7016 6.92336C11.7016 7.09907 11.5928 7.25618 11.4286 7.31875C11.3807 7.33703 11.3334 7.35668 11.2869 7.37765C11.1261 7.45017 10.9374 7.41655 10.8126 7.29178L10.8124 7.29163C10.6471 7.12629 10.379 7.12629 10.2137 7.29163L9.89319 7.61211C9.72785 7.77745 9.72785 8.04553 9.89319 8.21087L9.89334 8.21102C10.0181 8.33579 10.0517 8.52445 9.97921 8.68532C9.95824 8.73184 9.93859 8.77911 9.92031 8.82705C9.85775 8.99128 9.70063 9.1 9.52493 9.1C9.29108 9.1 9.10156 9.28957 9.10156 9.52336V9.97664C9.10156 10.2105 9.29113 10.4 9.52493 10.4C9.70063 10.4 9.85775 10.5087 9.92031 10.6729C9.93859 10.7209 9.95824 10.7682 9.97921 10.8147C10.0517 10.9755 10.0181 11.1642 9.89334 11.289L9.89319 11.2891C9.72785 11.4545 9.72785 11.7225 9.89319 11.8879L10.2137 12.2084C10.379 12.3737 10.6471 12.3737 10.8124 12.2084L10.8126 12.2082C10.9374 12.0834 11.126 12.0498 11.2869 12.1223C11.3334 12.1433 11.3807 12.163 11.4286 12.1813C11.5928 12.2438 11.7016 12.4009 11.7016 12.5766C11.7016 12.8105 11.8911 13 12.1249 13H12.5782C12.812 13 13.0016 12.8104 13.0016 12.5766C13.0016 12.4009 13.1103 12.2438 13.2745 12.1813C13.3224 12.163 13.3697 12.1433 13.4162 12.1223C13.5771 12.0498 13.7658 12.0834 13.8905 12.2082L13.8907 12.2084C14.0561 12.3737 14.3242 12.3737 14.4895 12.2084L14.81 11.8879C14.9753 11.7225 14.9753 11.4545 14.81 11.2891L14.8098 11.289C14.6851 11.1642 14.6514 10.9756 14.724 10.8147C14.7449 10.7682 14.7646 10.7209 14.7829 10.6729C14.8454 10.5087 15.0025 10.4 15.1783 10.4C15.412 10.4 15.6016 10.2104 15.6016 9.97664ZM13.3235 9.67088C13.3708 10.2716 12.8732 10.7692 12.2725 10.7219C11.7999 10.6846 11.417 10.3017 11.3797 9.82917C11.3323 9.22843 11.8299 8.73082 12.4307 8.77815C12.9033 8.81537 13.2862 9.19826 13.3235 9.67088Z" fill="#FFCD05"/>
<path d="M13 25.1875C15.0193 25.1875 16.6562 23.5505 16.6562 21.5312C16.6562 19.512 15.0193 17.875 13 17.875C10.9807 17.875 9.34375 19.512 9.34375 21.5312C9.34375 23.5505 10.9807 25.1875 13 25.1875Z" fill="#2387C3"/>
<path d="M15.6619 23.858C15.6619 22.9401 14.9178 22.196 14 22.196H12.0057C11.0878 22.196 10.3438 22.9401 10.3438 23.858V24.0405C11.0104 24.7467 11.955 25.1875 13.0028 25.1875C14.0506 25.1875 14.9953 24.7467 15.6619 24.0405V23.858Z" fill="#5AD7FF"/>
<path d="M12.9971 23.858C12.4464 23.858 12 23.4115 12 22.8608V22.196H13.9943V22.8608C13.9943 23.4115 13.5479 23.858 12.9971 23.858Z" fill="#D7E6F0"/>
<path d="M12.9979 21.8636C13.9157 21.8636 14.6598 21.1196 14.6598 20.2017C14.6598 19.2839 13.9157 18.5398 12.9979 18.5398C12.08 18.5398 11.3359 19.2839 11.3359 20.2017C11.3359 21.1196 12.08 21.8636 12.9979 21.8636Z" fill="#FAB991"/>
<path d="M4.46875 25.1875C6.48804 25.1875 8.125 23.5505 8.125 21.5312C8.125 19.512 6.48804 17.875 4.46875 17.875C2.44946 17.875 0.8125 19.512 0.8125 21.5312C0.8125 23.5505 2.44946 25.1875 4.46875 25.1875Z" fill="#2387C3"/>
<path d="M7.13067 23.858C7.13067 22.9401 6.38657 22.196 5.46875 22.196H3.47442C2.55655 22.196 1.8125 22.9401 1.8125 23.858V24.0405C2.47911 24.7467 3.42379 25.1875 4.47156 25.1875C5.51933 25.1875 6.46401 24.7467 7.13067 24.0405V23.858Z" fill="#5AD7FF"/>
<path d="M4.46589 23.858C3.91517 23.858 3.46875 23.4115 3.46875 22.8608V22.196H5.46308V22.8608C5.46303 23.4115 5.01661 23.858 4.46589 23.858Z" fill="#D7E6F0"/>
<path d="M4.46661 21.8636C5.38446 21.8636 6.12852 21.1196 6.12852 20.2017C6.12852 19.2839 5.38446 18.5398 4.46661 18.5398C3.54875 18.5398 2.80469 19.2839 2.80469 20.2017C2.80469 21.1196 3.54875 21.8636 4.46661 21.8636Z" fill="#FAB991"/>
<path d="M21.5312 25.1875C23.5505 25.1875 25.1875 23.5505 25.1875 21.5312C25.1875 19.512 23.5505 17.875 21.5312 17.875C19.512 17.875 17.875 19.512 17.875 21.5312C17.875 23.5505 19.512 25.1875 21.5312 25.1875Z" fill="#2387C3"/>
<path d="M24.1932 23.858C24.1932 22.9401 23.4491 22.196 22.5312 22.196H20.5369C19.619 22.196 18.875 22.9401 18.875 23.858V24.0405C19.5416 24.7467 20.4863 25.1875 21.5341 25.1875C22.5818 25.1875 23.5265 24.7467 24.1932 24.0405V23.858Z" fill="#5AD7FF"/>
<path d="M21.5284 23.858C20.9777 23.858 20.5312 23.4115 20.5312 22.8608V22.196H22.5256V22.8608C22.5255 23.4115 22.0791 23.858 21.5284 23.858Z" fill="#D7E6F0"/>
<path d="M21.5291 21.8636C22.447 21.8636 23.191 21.1196 23.191 20.2017C23.191 19.2839 22.447 18.5398 21.5291 18.5398C20.6113 18.5398 19.8672 19.2839 19.8672 20.2017C19.8672 21.1196 20.6113 21.8636 21.5291 21.8636Z" fill="#FAB991"/>
</g>
<defs>
<clipPath id="clip0_1042_2211">
<rect width="26" height="26" fill="white"/>
</clipPath>
</defs>
</svg>
