<svg width="30" height="30" viewBox="0 0 30 30" fill="none" xmlns="http://www.w3.org/2000/svg">
<path d="M27.3308 3.45431V25.2386C27.3308 26.3829 26.4008 27.3129 25.2565 27.3129H3.43366C2.28938 27.3129 1.35938 26.3829 1.35938 25.2386V3.45431C1.35938 2.31002 2.28938 1.38002 3.43366 1.38002H25.2565C26.4008 1.37573 27.3308 2.30573 27.3308 3.45431Z" fill="#3C5056"/>
<path d="M28.6433 4.76571V26.55C28.6433 27.6943 27.7133 28.6243 26.569 28.6243H4.74616C3.60187 28.6243 2.67188 27.6943 2.67188 26.55V4.76571C2.67188 3.62142 3.60187 2.69142 4.74616 2.69142H26.569C27.7133 2.68714 28.6433 3.61714 28.6433 4.76571Z" fill="#EFEFED"/>
<path d="M28.6433 7.86004V4.76575C28.6433 3.62147 27.7133 2.69147 26.569 2.69147H4.74616C3.60187 2.69147 2.67188 3.62147 2.67188 4.76575V7.86004H28.6433Z" fill="#495E66"/>
<path d="M5.03902 5.89286C5.37986 5.89286 5.65616 5.61655 5.65616 5.27571C5.65616 4.93487 5.37986 4.65857 5.03902 4.65857C4.69818 4.65857 4.42188 4.93487 4.42188 5.27571C4.42188 5.61655 4.69818 5.89286 5.03902 5.89286Z" fill="white"/>
<path d="M7.28902 5.89286C7.62986 5.89286 7.90616 5.61655 7.90616 5.27571C7.90616 4.93487 7.62986 4.65857 7.28902 4.65857C6.94818 4.65857 6.67188 4.93487 6.67188 5.27571C6.67188 5.61655 6.94818 5.89286 7.28902 5.89286Z" fill="white"/>
<path d="M9.53902 5.89286C9.87986 5.89286 10.1562 5.61655 10.1562 5.27571C10.1562 4.93487 9.87986 4.65857 9.53902 4.65857C9.19818 4.65857 8.92188 4.93487 8.92188 5.27571C8.92188 5.61655 9.19818 5.89286 9.53902 5.89286Z" fill="white"/>
<path d="M26.8917 5.49003H17.1674C17.0474 5.49003 16.9531 5.39575 16.9531 5.27575C16.9531 5.15575 17.0474 5.06146 17.1674 5.06146H26.8917C27.0117 5.06146 27.106 5.15575 27.106 5.27575C27.106 5.39575 27.0117 5.49003 26.8917 5.49003Z" fill="#3C5056"/>
<path d="M23.0702 16.4615V25.0072C23.0702 25.4615 22.7017 25.8257 22.2517 25.8257H9.0731C8.61453 25.8257 8.25024 25.4572 8.25024 25.0072V16.4615C8.25024 16.0072 8.61453 15.6429 9.0731 15.6429H22.2474C22.7017 15.6429 23.0702 16.0072 23.0702 16.4615Z" fill="#5B52C5"/>
<path d="M24.4845 12.3343V16.1658C24.4845 16.7829 23.9874 17.28 23.3702 17.28H7.95451C7.33737 17.28 6.83594 16.7786 6.83594 16.1658V12.3343C6.83594 11.7172 7.33737 11.2158 7.95451 11.2158H23.3659C23.9831 11.2158 24.4845 11.7172 24.4845 12.3343Z" fill="#8F90FB"/>
<path d="M8.47991 15.8572C8.35991 15.8572 8.26562 15.7629 8.26562 15.6429V12.8572C8.26562 12.7372 8.35991 12.6429 8.47991 12.6429C8.59991 12.6429 8.6942 12.7372 8.6942 12.8572V15.6386C8.6942 15.7586 8.59991 15.8572 8.47991 15.8572Z" fill="#5B52C5"/>
<path d="M10.0112 15.8572C9.89116 15.8572 9.79688 15.7629 9.79688 15.6429V12.8572C9.79688 12.7372 9.89116 12.6429 10.0112 12.6429C10.1312 12.6429 10.2254 12.7372 10.2254 12.8572V15.6386C10.2254 15.7586 10.1312 15.8572 10.0112 15.8572Z" fill="#5B52C5"/>
<path d="M11.5424 15.8572C11.4224 15.8572 11.3281 15.7629 11.3281 15.6429V12.8572C11.3281 12.7372 11.4224 12.6429 11.5424 12.6429C11.6624 12.6429 11.7567 12.7372 11.7567 12.8572V15.6386C11.7567 15.7586 11.6624 15.8572 11.5424 15.8572Z" fill="#5B52C5"/>
<path d="M13.0815 15.8572C12.9615 15.8572 12.8672 15.7629 12.8672 15.6429V12.8572C12.8672 12.7372 12.9615 12.6429 13.0815 12.6429C13.2015 12.6429 13.2958 12.7372 13.2958 12.8572V15.6386C13.2958 15.7586 13.2015 15.8572 13.0815 15.8572Z" fill="#5B52C5"/>
<path d="M14.6127 15.8572C14.4927 15.8572 14.3984 15.7629 14.3984 15.6429V12.8572C14.3984 12.7372 14.4927 12.6429 14.6127 12.6429C14.7327 12.6429 14.827 12.7372 14.827 12.8572V15.6386C14.827 15.7586 14.7327 15.8572 14.6127 15.8572Z" fill="#5B52C5"/>
<path d="M22.259 14.8372C22.5833 14.8372 22.8462 14.5743 22.8462 14.25C22.8462 13.9258 22.5833 13.6629 22.259 13.6629C21.9347 13.6629 21.6719 13.9258 21.6719 14.25C21.6719 14.5743 21.9347 14.8372 22.259 14.8372Z" fill="#EFEFED"/>
<path d="M19.5731 15.1201C20.0536 15.1201 20.4431 14.7306 20.4431 14.2501C20.4431 13.7696 20.0536 13.3801 19.5731 13.3801C19.0926 13.3801 18.7031 13.7696 18.7031 14.2501C18.7031 14.7306 19.0926 15.1201 19.5731 15.1201Z" fill="#FBE063"/>
<path d="M24.4845 19.3586V23.1901C24.4845 23.8072 23.9874 24.3043 23.3702 24.3043H7.95451C7.33737 24.3043 6.83594 23.8029 6.83594 23.1901V19.3586C6.83594 18.7415 7.33737 18.2401 7.95451 18.2401H23.3659C23.9831 18.2401 24.4845 18.7415 24.4845 19.3586Z" fill="#8F90FB"/>
<path d="M8.47991 22.8772C8.35991 22.8772 8.26562 22.7829 8.26562 22.6629V19.8815C8.26562 19.7615 8.35991 19.6672 8.47991 19.6672C8.59991 19.6672 8.6942 19.7615 8.6942 19.8815V22.6629C8.6942 22.7829 8.59991 22.8772 8.47991 22.8772Z" fill="#5B52C5"/>
<path d="M10.0112 22.8772C9.89116 22.8772 9.79688 22.7829 9.79688 22.6629V19.8815C9.79688 19.7615 9.89116 19.6672 10.0112 19.6672C10.1312 19.6672 10.2254 19.7615 10.2254 19.8815V22.6629C10.2254 22.7829 10.1312 22.8772 10.0112 22.8772Z" fill="#5B52C5"/>
<path d="M11.5424 22.8772C11.4224 22.8772 11.3281 22.7829 11.3281 22.6629V19.8815C11.3281 19.7615 11.4224 19.6672 11.5424 19.6672C11.6624 19.6672 11.7567 19.7615 11.7567 19.8815V22.6629C11.7567 22.7829 11.6624 22.8772 11.5424 22.8772Z" fill="#5B52C5"/>
<path d="M13.0815 22.8772C12.9615 22.8772 12.8672 22.7829 12.8672 22.6629V19.8815C12.8672 19.7615 12.9615 19.6672 13.0815 19.6672C13.2015 19.6672 13.2958 19.7615 13.2958 19.8815V22.6629C13.2958 22.7829 13.2015 22.8772 13.0815 22.8772Z" fill="#5B52C5"/>
<path d="M14.6127 22.8772C14.4927 22.8772 14.3984 22.7829 14.3984 22.6629V19.8815C14.3984 19.7615 14.4927 19.6672 14.6127 19.6672C14.7327 19.6672 14.827 19.7615 14.827 19.8815V22.6629C14.827 22.7829 14.7327 22.8772 14.6127 22.8772Z" fill="#5B52C5"/>
<path d="M22.259 21.8615C22.5833 21.8615 22.8462 21.5986 22.8462 21.2743C22.8462 20.9501 22.5833 20.6872 22.259 20.6872C21.9347 20.6872 21.6719 20.9501 21.6719 21.2743C21.6719 21.5986 21.9347 21.8615 22.259 21.8615Z" fill="#EFEFED"/>
<path d="M19.5731 22.1444C20.0536 22.1444 20.4431 21.7548 20.4431 21.2744C20.4431 20.7939 20.0536 20.4044 19.5731 20.4044C19.0926 20.4044 18.7031 20.7939 18.7031 21.2744C18.7031 21.7548 19.0926 22.1444 19.5731 22.1444Z" fill="#FBE063"/>
</svg>
