<svg width="30" height="30" viewBox="0 0 30 30" fill="none" xmlns="http://www.w3.org/2000/svg">
<g clip-path="url(#clip0_1042_2223)">
<path d="M3.5585 8.59955C3.72238 8.57003 3.84758 8.43682 3.86039 8.27088C4.19067 4.00406 7.75711 0.644531 12.1086 0.644531C15.3164 0.644531 18.0973 2.47055 19.4701 5.13954C19.55 5.29495 19.7285 5.37232 19.8959 5.3215C20.2932 5.20111 20.7148 5.13588 21.1515 5.13588C23.1281 5.13588 24.7946 6.46042 25.314 8.26996C25.3588 8.42629 25.5037 8.52997 25.6662 8.52997C25.6671 8.52997 25.668 8.52997 25.6692 8.52997C28.0802 8.52997 30.031 10.5002 29.9996 12.9186C29.9687 15.2985 27.9848 17.192 25.6046 17.192H4.39552C1.99363 17.192 -0.0193844 15.2266 0.000299454 12.8249C0.0174656 10.7126 1.54663 8.96187 3.5585 8.59955Z" fill="#54A0FF"/>
<path d="M19.0447 5.13565C18.6078 5.13565 18.1864 5.20111 17.7888 5.32151C17.6215 5.37232 17.4432 5.29473 17.3631 5.13954C16.1429 2.76695 13.8095 1.06178 11.0528 0.712051C11.3991 0.667648 11.7521 0.644531 12.1105 0.644531C15.3185 0.644531 18.0994 2.47055 19.4722 5.13954C19.4757 5.14618 19.4805 5.15213 19.4844 5.15877C19.3397 5.14412 19.1932 5.13565 19.0447 5.13565Z" fill="#338DEF"/>
<path d="M27.8907 12.9183C27.9221 10.4999 25.9711 8.52971 23.56 8.52971H23.5571C23.3948 8.52994 23.2497 8.42603 23.205 8.26993C22.7814 6.79387 21.5946 5.64099 20.0991 5.26585C20.436 5.1814 20.7883 5.13562 21.1515 5.13562C23.1281 5.13562 24.7946 6.46016 25.314 8.26993C25.3588 8.42603 25.5037 8.52994 25.6662 8.52971C25.6671 8.52971 25.668 8.52971 25.669 8.52971C28.08 8.52971 30.031 10.4999 29.9996 12.9183C29.9687 15.2984 27.9848 17.1917 25.6044 17.1917H23.4955C25.8759 17.1917 27.8598 15.2984 27.8907 12.9183Z" fill="#338DEF"/>
<path d="M21.2307 23.5087H25.1254C25.3756 23.5087 25.5781 23.306 25.5781 23.056C25.5781 22.8058 25.3756 22.6033 25.1254 22.6033H21.6835V18.8707C21.6835 18.6205 21.4807 18.4177 21.2307 18.4177C20.9808 18.4177 20.778 18.6205 20.778 18.8707V23.056C20.778 23.306 20.9808 23.5087 21.2307 23.5087Z" fill="#62AAFB"/>
<path d="M17.2504 27.6721C17.5003 27.6721 17.7031 27.4693 17.7031 27.2191V18.8706C17.7031 18.6205 17.5006 18.4179 17.2504 18.4179C17.0005 18.4179 16.7977 18.6205 16.7977 18.8706V27.2191C16.7977 27.4693 17.0005 27.6721 17.2504 27.6721Z" fill="#62AAFB"/>
<path d="M5.4727 23.5087H9.36758C9.61752 23.5087 9.82031 23.306 9.82031 23.056V18.8707C9.82031 18.6205 9.61752 18.4177 9.36758 18.4177C9.11742 18.4177 8.91463 18.6205 8.91463 18.8707V22.6033H5.4727C5.22276 22.6033 5.01997 22.8058 5.01997 23.056C5.01997 23.306 5.22276 23.5087 5.4727 23.5087Z" fill="#62AAFB"/>
<path d="M13.3444 27.6721C13.5943 27.6721 13.7971 27.4693 13.7971 27.2191V18.8706C13.7971 18.6205 13.5943 18.4179 13.3444 18.4179C13.0942 18.4179 12.8914 18.6205 12.8914 18.8706V27.2191C12.8914 27.4693 13.0942 27.6721 13.3444 27.6721Z" fill="#62AAFB"/>
<path d="M21.227 15.7196C21.4769 15.7196 21.6797 15.5168 21.6797 15.2669V14.5954C21.6797 14.3454 21.4769 14.1426 21.227 14.1426C20.977 14.1426 20.7742 14.3452 20.7742 14.5954V15.2669C20.7742 15.5168 20.977 15.7196 21.227 15.7196Z" fill="#62AAFB"/>
<path d="M17.2504 15.7196C17.5003 15.7196 17.7031 15.5168 17.7031 15.2669V14.5954C17.7031 14.3454 17.5006 14.1426 17.2504 14.1426C17.0005 14.1426 16.7977 14.3452 16.7977 14.5954V15.2669C16.7977 15.5168 17.0005 15.7196 17.2504 15.7196Z" fill="#62AAFB"/>
<path d="M13.3444 15.7196C13.5943 15.7196 13.7971 15.5168 13.7971 15.2669V14.5954C13.7971 14.3454 13.5943 14.1426 13.3444 14.1426C13.0942 14.1426 12.8914 14.3452 12.8914 14.5954V15.2669C12.8914 15.5168 13.0942 15.7196 13.3444 15.7196Z" fill="#62AAFB"/>
<path d="M9.36758 15.7196C9.61752 15.7196 9.82031 15.5168 9.82031 15.2669V14.5954C9.82031 14.3454 9.61752 14.1426 9.36758 14.1426C9.11742 14.1426 8.91463 14.3452 8.91463 14.5954V15.2669C8.91463 15.5168 9.11742 15.7196 9.36758 15.7196Z" fill="#62AAFB"/>
<path d="M25.1243 23.0559C25.1243 23.6709 25.623 24.1694 26.2381 24.1694C26.8531 24.1694 27.3516 23.6709 27.3516 23.0559C27.3516 22.4407 26.8531 21.9422 26.2381 21.9422C25.623 21.9422 25.1243 22.4407 25.1243 23.0559Z" fill="#FECA57"/>
<path d="M25.8425 23.0559C25.8425 22.7323 25.7036 22.4421 25.4834 22.2384C25.6819 22.055 25.9465 21.9422 26.2381 21.9422C26.8531 21.9422 27.3516 22.4407 27.3516 23.0557C27.3516 23.6709 26.8531 24.1694 26.2381 24.1694C25.9465 24.1694 25.6819 24.0566 25.4834 23.873C25.7038 23.6698 25.8425 23.3793 25.8425 23.0559Z" fill="#F4B537"/>
<path d="M16.1399 28.3328C16.1399 28.9478 16.6387 29.4465 17.2537 29.4465C17.8687 29.4465 18.3672 28.9478 18.3672 28.3328C18.3672 27.7178 17.8687 27.2193 17.2537 27.2193C16.6387 27.2193 16.1399 27.7178 16.1399 28.3328Z" fill="#FECA57"/>
<path d="M16.8579 28.3329C16.8579 28.0094 16.7192 27.719 16.4988 27.5155C16.6975 27.3322 16.9619 27.2191 17.2534 27.2191C17.8685 27.2191 18.3672 27.7178 18.3672 28.3329C18.3672 28.9479 17.8685 29.4466 17.2534 29.4466C16.9619 29.4466 16.6973 29.3335 16.4988 29.1502C16.7192 28.9467 16.8579 28.6565 16.8579 28.3329Z" fill="#F4B537"/>
<path d="M12.2337 28.3328C12.2337 28.9478 12.7322 29.4465 13.3474 29.4465C13.9624 29.4465 14.4609 28.9478 14.4609 28.3328C14.4609 27.7178 13.9624 27.2193 13.3474 27.2193C12.7322 27.2193 12.2337 27.7178 12.2337 28.3328Z" fill="#FECA57"/>
<path d="M12.9519 28.3329C12.9519 28.0094 12.813 27.719 12.5928 27.5155C12.7912 27.3322 13.0558 27.2191 13.3474 27.2191C13.9624 27.2191 14.4609 27.7178 14.4609 28.3329C14.4609 28.9479 13.9624 29.4466 13.3474 29.4466C13.0558 29.4466 12.7912 29.3335 12.5928 29.1502C12.813 28.9467 12.9519 28.6565 12.9519 28.3329Z" fill="#F4B537"/>
<path d="M3.2415 23.0559C3.2415 23.6709 3.74023 24.1694 4.35524 24.1694C4.97025 24.1694 5.46875 23.6709 5.46875 23.0559C5.46875 22.4407 4.97025 21.9422 4.35524 21.9422C3.74023 21.9422 3.2415 22.4407 3.2415 23.0559Z" fill="#FECA57"/>
<path d="M3.95973 23.0559C3.95973 22.7323 3.8208 22.4421 3.60062 22.2384C3.79906 22.055 4.06364 21.9422 4.35524 21.9422C4.97025 21.9422 5.46875 22.4407 5.46875 23.0557C5.46875 23.6709 4.97025 24.1694 4.35524 24.1694C4.06364 24.1694 3.79906 24.0566 3.60062 23.873C3.8208 23.6698 3.95973 23.3793 3.95973 23.0559Z" fill="#F4B537"/>
</g>
<defs>
<clipPath id="clip0_1042_2223">
<rect width="30" height="30" fill="white" transform="matrix(-1 0 0 1 30 0)"/>
</clipPath>
</defs>
</svg>
