<svg width="50" height="31" viewBox="0 0 50 31" fill="none" xmlns="http://www.w3.org/2000/svg">
<g clip-path="url(#clip0_758_32690)">
<path d="M50 29.3393C50 30.2487 49.2424 31 48.3254 31H1.67464C0.757576 31 0 30.2487 0 29.3393V1.66071C0 0.751275 0.757576 0 1.67464 0H48.3652C49.2823 0 50.0399 0.751275 50.0399 1.66071V29.3393H50Z" fill="#0078A9"/>
<path d="M15.5103 14.7884V14.2744L15.2711 14.7884H13.1977L12.9585 14.2348V14.7488H9.09087L8.65227 13.6812H7.8947L7.41623 14.7488H5.42261V11.5065L6.89789 8.22461H9.72883L10.1276 9.17359V8.26415H13.5566L14.3142 9.84578L15.0717 8.26415H25.9569C25.9569 8.26415 26.5151 8.26415 26.9138 8.5014V8.26415H29.665V8.62002C29.665 8.62002 30.1435 8.26415 30.9011 8.26415C31.6188 8.26415 35.7256 8.26415 35.7256 8.26415L36.1642 9.21313V8.26415H39.2743L39.8325 9.21313V8.26415H42.7831V14.8279H39.7528L39.035 13.6812V14.8279H35.0877L34.5693 13.6417H33.8118L33.2934 14.8279H31.0207C31.0207 14.8279 30.1834 14.8279 29.5454 14.3534C29.5454 14.5907 29.5454 14.8279 29.5454 14.8279H25C25 14.8279 25 13.5231 25 13.2858C25 13.0486 24.8405 13.0881 24.8405 13.0881H24.681V14.8279H15.5103V14.7884Z" fill="white"/>
<path d="M13.2375 16.2119H19.2184L20.0956 17.2004L20.9728 16.2119H25.5581C25.5581 16.2119 25.9967 16.2119 26.3954 16.4492V16.2119C26.3954 16.2119 29.984 16.2119 30.5023 16.2119C31.0206 16.2119 31.4592 16.4887 31.4592 16.4887V16.2119H36.7224V16.4492C36.7224 16.4492 37.0812 16.2119 37.5996 16.2119C38.1179 16.2119 41.0286 16.2119 41.0286 16.2119V16.4492C41.0286 16.4492 41.4672 16.2119 41.9058 16.2119C42.3444 16.2119 44.6171 16.2119 44.6171 16.2119V22.3803C44.6171 22.3803 44.2583 22.7757 43.5406 22.7757H39.9919V22.578C39.9919 22.578 39.673 22.7757 39.1546 22.7757C38.6363 22.7757 29.7049 22.7757 29.7049 22.7757C29.7049 22.7757 29.7049 21.3522 29.7049 21.1941C29.7049 21.0359 29.6251 20.9964 29.5055 20.9964H29.3859V22.7757H26.4353V20.9964C26.4353 20.9964 26.1163 21.1545 25.5581 21.1545C24.9999 21.1545 24.4816 21.1545 24.4816 21.1545V22.7361H20.8532L20.0159 21.7476L19.1387 22.7757H13.2375V16.2119Z" fill="white"/>
<path d="M32.0972 17.1611H35.885V18.1892H33.2535V19.0591H35.8053V19.929H33.2535V20.8384H35.885V21.8269H32.0972V17.1611Z" fill="#0078A9"/>
<path d="M43.1418 18.9795C44.5374 19.0586 44.657 19.7703 44.657 20.4821C44.657 21.352 43.9393 21.8265 43.1817 21.8265H40.7495V20.838H42.6235C42.9425 20.838 43.421 20.8379 43.421 20.403C43.421 20.2053 43.3412 20.0471 42.9824 20.0076C42.8229 19.9681 42.2647 19.9681 42.1849 19.9681C40.909 19.9285 40.6299 19.2959 40.6299 18.5446C40.6299 17.6747 41.228 17.2002 41.9855 17.2002H44.4178V18.1887H42.6634C42.2647 18.1887 41.8261 18.1492 41.8261 18.5841C41.8261 18.8609 42.0254 18.94 42.3045 18.94C42.4241 18.94 43.0621 18.9795 43.1418 18.9795Z" fill="#0078A9"/>
<path d="M38.7959 18.9795C40.1914 19.0586 40.311 19.7703 40.311 20.4821C40.311 21.352 39.5933 21.8265 38.8358 21.8265H36.4036V20.838H38.2776C38.5965 20.838 39.075 20.8379 39.075 20.403C39.075 20.2053 38.9953 20.0471 38.6364 20.0076C38.4769 19.9681 37.9187 19.9681 37.839 19.9681C36.563 19.9285 36.2839 19.2959 36.2839 18.5446C36.2839 17.6747 36.882 17.2002 37.6396 17.2002H40.0718V18.1887H38.3174C37.9187 18.1887 37.4801 18.1492 37.4801 18.5841C37.4801 18.8609 37.6795 18.94 37.9586 18.94C38.0782 18.94 38.7162 18.9795 38.7959 18.9795Z" fill="#0078A9"/>
<path d="M25.1596 17.2007H21.1324L19.8167 18.6241L18.5407 17.1611H14.0352V21.7874H18.4211L19.8167 20.2453L21.1723 21.7874H23.3653V20.2058H24.9203C25.5184 20.2058 26.595 20.1662 26.595 18.5451C26.5551 17.4379 25.7576 17.2007 25.1596 17.2007ZM17.823 20.8384H15.1516V19.929H17.7034V19.0591H15.1516V18.1892H17.9427L19.0591 19.4545L17.823 20.8384ZM22.209 21.392L20.5742 19.4545L22.209 17.6356V21.392ZM24.8007 19.2963H23.3653V18.1892H24.8007C25.2792 18.1892 25.4387 18.5055 25.4387 18.7032C25.4387 19.0196 25.2393 19.2963 24.8007 19.2963Z" fill="#0078A9"/>
<path d="M30.7416 19.7308C31.3796 19.4145 31.539 19.0191 31.539 18.426C31.539 17.4374 30.7416 17.2002 30.1435 17.2002H27.1531V21.8265H28.3094V20.2053H29.8245C30.2233 20.2053 30.3827 20.6007 30.3827 20.9961L30.4226 21.866H31.539L31.4992 20.917C31.4593 20.1262 31.2599 19.7703 30.7416 19.7308ZM29.7448 19.2563H28.3094V18.1887H29.7448C30.2233 18.1887 30.3827 18.505 30.3827 18.7027C30.3827 19.0191 30.2233 19.2563 29.7448 19.2563Z" fill="#0078A9"/>
<path d="M28.7879 9.17383H27.6316V13.8396H28.7879V9.17383Z" fill="#0078A9"/>
<path d="M18.2217 9.17383H21.9697V10.1623H19.3381V11.0322H21.8899V11.9417H19.3381V12.8511H21.9697V13.8001H18.2217V9.17383Z" fill="#0078A9"/>
<path d="M26.236 11.7044C26.8739 11.3881 27.0334 10.9927 27.0334 10.3996C27.0334 9.41107 26.236 9.17383 25.6379 9.17383H22.6475V13.8001H23.8038V12.1789H25.3189C25.7176 12.1789 25.8771 12.5743 25.8771 12.9697L25.917 13.8396H27.0334L26.9936 12.8907C26.9537 12.0998 26.7543 11.744 26.236 11.7044ZM25.2392 11.23H23.8038V10.1623H25.2392C25.7176 10.1623 25.8771 10.4787 25.8771 10.6764C25.8771 10.9927 25.6778 11.23 25.2392 11.23Z" fill="#0078A9"/>
<path d="M15.5502 9.17383L14.1547 12.2976L12.7591 9.17383H10.9649V13.6419L8.97125 9.17383H7.4561L5.42261 13.8001H6.61878L7.05738 12.772H9.36998L9.80857 13.8001H12.1212V10.3601L13.6762 13.8001H14.7129L16.2679 10.3996V13.8001H17.4242V9.17383H15.5502ZM7.4561 11.7835L8.13393 10.1623L8.85163 11.7835H7.4561Z" fill="#0078A9"/>
<path d="M40.63 9.17333V12.3761L38.6762 9.17333H36.9617V13.5228L35.0079 9.17333H33.4928L31.8979 12.7715C31.8979 12.7715 31.2201 12.7715 31.1802 12.7715C30.9011 12.732 30.4625 12.5343 30.4625 11.7039V11.3481C30.4625 10.2409 31.0606 10.1619 31.8182 10.1619H32.5359V9.13379H31.0207C30.5024 9.13379 29.3461 9.5292 29.3062 11.4272C29.2663 12.732 29.8245 13.7601 31.1004 13.7601H32.6156L33.0542 12.732H35.3668L35.8054 13.7601H38.0781V10.3596L40.1515 13.7601H41.7065V9.17333H40.63ZM33.5725 11.783L34.2504 10.1619L34.9681 11.783H33.5725Z" fill="#0078A9"/>
</g>
<defs>
<clipPath id="clip0_758_32690">
<rect width="50" height="31" fill="white"/>
</clipPath>
</defs>
</svg>
