<svg width="50" height="31" viewBox="0 0 50 31" fill="none" xmlns="http://www.w3.org/2000/svg">
<path d="M49.5842 29.3393C49.5842 30.2487 48.8329 31 47.9235 31H1.66071C0.751274 31 0 30.2487 0 29.3393V1.66071C0 0.751275 0.751274 0 1.66071 0H47.963C48.8724 0 49.6237 0.751275 49.6237 1.66071V29.3393H49.5842Z" fill="#13457C"/>
<path fill-rule="evenodd" clip-rule="evenodd" d="M30.7629 24.3969H31.1978L31.6723 24.3573L32.1073 24.2783L32.5422 24.1992L32.9772 24.1201L33.4121 24.0015L33.8075 23.8433L34.2029 23.6851L34.5984 23.527L34.9938 23.3293L35.3892 23.092L35.745 22.8943L36.1009 22.6175L36.4172 22.3803L36.7336 22.064L37.0499 21.7872L37.3662 21.4709L37.643 21.1545L37.8802 20.7987L38.157 20.4823L38.3943 20.0869L38.592 19.7311L38.7897 19.3357L38.9478 18.9403L39.106 18.5448L39.2642 18.1494L39.3828 17.7145L39.5014 17.2795L39.5805 16.8446L39.62 16.4096L39.6596 15.9351V15.5002V15.0257L39.62 14.5908L39.5805 14.1163L39.5014 13.6813L39.3828 13.2859L39.2642 12.851L39.106 12.416L38.9478 12.0206L38.7897 11.6252L38.592 11.2693L38.3943 10.8739L38.157 10.5181L37.8802 10.1622L37.643 9.84586L37.3662 9.52954L37.0499 9.21321L36.7336 8.89688L36.4172 8.6201L36.1009 8.38285L35.745 8.10607L35.3892 7.90836L34.9938 7.67112L34.5984 7.47341L34.2029 7.31525L33.8075 7.15709L33.4121 6.99892L32.9772 6.8803L32.5422 6.80122L32.1073 6.72214L31.6723 6.64306L31.1978 6.60352H30.7629H30.2884L29.8535 6.64306L29.379 6.72214L28.944 6.80122L28.5486 6.8803L28.1137 6.99892L27.6787 7.15709L27.2833 7.31525L26.8879 7.47341L26.532 7.67112L26.1366 7.90836L25.7807 8.10607L25.4249 8.38285L25.1086 8.6201L24.7922 8.89688L24.4759 9.21321L24.1596 9.52954L23.8828 9.84586L23.6455 10.1622L23.3688 10.5181L23.1711 10.8739L22.9338 11.2693L22.7361 11.6252L22.5779 12.0206L22.4198 12.416L22.2616 12.851L22.143 13.2859L22.0639 13.6813L21.9848 14.1163L21.9057 14.5908L21.8662 15.0257V15.5002V15.9351L21.9057 16.4096L21.9848 16.8446L22.0639 17.2795L22.143 17.7145L22.2616 18.1494L22.4198 18.5448L22.5779 18.9403L22.7361 19.3357L22.9338 19.7311L23.1711 20.0869L23.3688 20.4823L23.6455 20.7987L23.8828 21.1545L24.1596 21.4709L24.4759 21.7872L24.7922 22.064L25.1086 22.3803L25.4249 22.6175L25.7807 22.8943L26.1366 23.092L26.532 23.3293L26.8879 23.527L27.2833 23.6851L27.6787 23.8433L28.1137 24.0015L28.5486 24.1201L28.944 24.1992L29.379 24.2783L29.8535 24.3573L30.2884 24.3969H30.7629Z" fill="#FBB231"/>
<path fill-rule="evenodd" clip-rule="evenodd" d="M18.861 24.3969H19.296L19.7705 24.3573L20.2054 24.2783L20.6404 24.1992L21.0753 24.1201L21.5103 24.0015L21.9057 23.8433L22.3011 23.6851L22.6965 23.527L23.0919 23.3293L23.4478 23.092L23.8036 22.8943L24.1595 22.6175L24.5154 22.3803L24.8317 22.064L25.148 21.7872L25.4248 21.4709L25.7016 21.1545L25.9784 20.7987L26.2156 20.4823L26.4529 20.0869L26.6506 19.7311L26.8483 19.3357L27.046 18.9403L27.2041 18.5448L27.3228 18.1494L27.4414 17.7145L27.56 17.2795L27.6391 16.8446L27.6786 16.4096L27.7182 15.9351V15.5002V15.0257L27.6786 14.5908L27.6391 14.1163L27.56 13.6813L27.4414 13.2859L27.3228 12.851L27.2041 12.416L27.046 12.0206L26.8483 11.6252L26.6506 11.2693L26.4529 10.8739L26.2156 10.5181L25.9784 10.1622L25.7016 9.84586L25.4248 9.52954L25.148 9.21321L24.8317 8.89688L24.5154 8.6201L24.1595 8.38285L23.8036 8.10607L23.4478 7.90836L23.0919 7.67112L22.6965 7.47341L22.3011 7.31525L21.9057 7.15709L21.5103 6.99892L21.0753 6.8803L20.6404 6.80122L20.2054 6.72214L19.7705 6.64306L19.296 6.60352H18.861H18.3865L17.9516 6.64306L17.4771 6.72214L17.0422 6.80122L16.6072 6.8803L16.2118 6.99892L15.7768 7.15709L15.3814 7.31525L14.986 7.47341L14.5906 7.67112L14.2348 7.90836L13.8789 8.10607L13.523 8.38285L13.1672 8.6201L12.8508 8.89688L12.5345 9.21321L12.2577 9.52954L11.9809 9.84586L11.7041 10.1622L11.4669 10.5181L11.2297 10.8739L10.9924 11.2693L10.7947 11.6252L10.6365 12.0206L10.4784 12.416L10.3202 12.851L10.2016 13.2859L10.1225 13.6813L10.0434 14.1163L9.96435 14.5908V15.0257L9.9248 15.5002L9.96435 15.9351V16.4096L10.0434 16.8446L10.1225 17.2795L10.2016 17.7145L10.3202 18.1494L10.4784 18.5448L10.6365 18.9403L10.7947 19.3357L10.9924 19.7311L11.2297 20.0869L11.4669 20.4823L11.7041 20.7987L11.9809 21.1545L12.2577 21.4709L12.5345 21.7872L12.8508 22.064L13.1672 22.3803L13.523 22.6175L13.8789 22.8943L14.2348 23.092L14.5906 23.3293L14.986 23.527L15.3814 23.6851L15.7768 23.8433L16.2118 24.0015L16.6072 24.1201L17.0422 24.1992L17.4771 24.2783L17.9516 24.3573L18.3865 24.3969H18.861Z" fill="#EC1C2E"/>
<path fill-rule="evenodd" clip-rule="evenodd" d="M23.7642 10.0038H28.4695V9.5293H24.1596L23.7642 10.0038Z" fill="#FBB231"/>
<path fill-rule="evenodd" clip-rule="evenodd" d="M23.0522 11.0712H28.4693V10.5967H23.329L23.0522 11.0712Z" fill="#FBB231"/>
<path fill-rule="evenodd" clip-rule="evenodd" d="M22.5383 12.1781H28.4695V11.6641H22.736L22.5383 12.1781Z" fill="#FBB231"/>
<path fill-rule="evenodd" clip-rule="evenodd" d="M22.1428 13.2465H28.4694V12.7324H22.301L22.1428 13.2465Z" fill="#FBB231"/>
<path fill-rule="evenodd" clip-rule="evenodd" d="M22.3801 18.4266H28.5089V17.9521H22.2219L22.3801 18.4266Z" fill="#FBB231"/>
<path fill-rule="evenodd" clip-rule="evenodd" d="M22.8151 19.494H28.509V19.0195H22.5779L22.8151 19.494Z" fill="#FBB231"/>
<path fill-rule="evenodd" clip-rule="evenodd" d="M23.4477 20.5614H28.5089V20.0869H23.1709L23.4477 20.5614Z" fill="#FBB231"/>
<path fill-rule="evenodd" clip-rule="evenodd" d="M24.3178 21.6288H28.5091V21.1543H23.9224L24.3178 21.6288Z" fill="#FBB231"/>
<path fill-rule="evenodd" clip-rule="evenodd" d="M21.9453 14.3134H28.4695V13.8389H22.0244L21.9453 14.3134Z" fill="#FBB231"/>
<path fill-rule="evenodd" clip-rule="evenodd" d="M25.9387 17.3583H28.4298V16.8838H26.0178L25.9387 17.3583Z" fill="#FBB231"/>
<path fill-rule="evenodd" clip-rule="evenodd" d="M26.1365 16.2909H28.4298V15.8164H26.2156L26.1365 16.2909Z" fill="#FBB231"/>
<path fill-rule="evenodd" clip-rule="evenodd" d="M21.7871 15.8164H22.4198V16.2909H21.8267L21.7871 15.8164Z" fill="#FBB231"/>
<path fill-rule="evenodd" clip-rule="evenodd" d="M20.5614 15.2239H20.5218L20.4823 15.1844H20.4428H20.4032H20.3637H20.3241H20.2846H20.245L20.2055 15.1449H20.166H20.1264H20.0473H20.0078H19.9287H19.8496L19.7706 15.1844H19.6915H19.6519H19.5729L19.5333 15.2239H19.4938L19.4542 15.2635L19.4147 15.303V15.3426H19.3752V15.3821V15.4216V15.4612V15.5007V15.5403L19.4147 15.5798L19.4542 15.6193L19.4938 15.6589L19.5729 15.738L19.6519 15.7775H19.731L19.8496 15.817L19.9287 15.8566L20.0473 15.8961L20.1264 15.9357L20.245 15.9752L20.3241 16.0543L20.4032 16.1334L20.4428 16.2125L20.4823 16.3311L20.5218 16.4497V16.6079V16.8056V16.9637L20.4823 17.0824L20.4032 17.201L20.3637 17.2801L20.2846 17.3591L20.2055 17.4382L20.1264 17.5173L20.0473 17.5568L19.9287 17.6359L19.8496 17.6755H19.731L19.6519 17.715H19.5333L19.4147 17.7545H19.3356H19.2565H19.0984H18.9797H18.9007H18.782H18.703L18.6239 17.715H18.5448H18.4657H18.4262H18.3471L18.3076 17.6755H18.2285H18.1889L18.1494 17.6359H18.1098L18.0308 17.5964L18.1889 16.9637H18.2285H18.268L18.3471 17.0033H18.3866H18.4657L18.5053 17.0428H18.5843H18.6634H18.7425L18.8216 17.0824H18.9007H18.9797H19.0984H19.1774H19.2565H19.3356L19.4147 17.0428L19.4542 17.0033L19.4938 16.9637L19.5333 16.9242L19.5729 16.8846V16.8451V16.766L19.6124 16.6869L19.5729 16.6079L19.5333 16.5683L19.4542 16.5288L19.3356 16.4497L19.2565 16.4102L19.1379 16.3706L19.0193 16.3311L18.9007 16.2915L18.782 16.2125L18.6634 16.1334L18.5843 16.0543L18.5053 15.9357L18.4657 15.7775L18.4262 15.6193V15.4216V15.303L18.4657 15.2239L18.5053 15.1053L18.5448 15.0262L18.5843 14.9076L18.6239 14.8285L18.703 14.7494L18.782 14.7099L18.8611 14.6308L18.9402 14.5913L19.0588 14.5517L19.1774 14.5122H19.2961L19.4542 14.4727H19.6124H19.8101H19.9287H20.0078H20.0869H20.2055H20.245H20.3241H20.4032H20.4428L20.4823 14.5122H20.5218H20.5614H20.6009H20.6405H20.68L20.7195 14.5517L20.5614 15.2239Z" fill="white"/>
<path d="M20.5614 15.2239H20.5218L20.4823 15.1844H20.4428H20.4032H20.3637H20.3241H20.2846H20.245L20.2055 15.1449H20.166H20.1264H20.0473H20.0078H19.9287H19.8496L19.7706 15.1844H19.6915H19.6519H19.5729L19.5333 15.2239H19.4938L19.4542 15.2635L19.4147 15.303V15.3426H19.3752V15.3821V15.4216V15.4612V15.5007V15.5403L19.4147 15.5798L19.4542 15.6193L19.4938 15.6589L19.5729 15.738L19.6519 15.7775H19.731L19.8496 15.817L19.9287 15.8566L20.0473 15.8961L20.1264 15.9357L20.245 15.9752L20.3241 16.0543L20.4032 16.1334L20.4428 16.2125L20.4823 16.3311L20.5218 16.4497V16.6079V16.8056V16.9637L20.4823 17.0824L20.4032 17.201L20.3637 17.2801L20.2846 17.3591L20.2055 17.4382L20.1264 17.5173L20.0473 17.5568L19.9287 17.6359L19.8496 17.6755H19.731L19.6519 17.715H19.5333L19.4147 17.7545H19.3356H19.2565H19.0984H18.9797H18.9007H18.782H18.703L18.6239 17.715H18.5448H18.4657H18.4262H18.3471L18.3076 17.6755H18.2285H18.1889L18.1494 17.6359H18.1098L18.0308 17.5964L18.1889 16.9637H18.2285H18.268L18.3471 17.0033H18.3866H18.4657L18.5053 17.0428H18.5843H18.6634H18.7425L18.8216 17.0824H18.9007H18.9797H19.0984H19.1774H19.2565H19.3356L19.4147 17.0428L19.4542 17.0033L19.4938 16.9637L19.5333 16.9242L19.5729 16.8846V16.8451V16.766L19.6124 16.6869L19.5729 16.6079L19.5333 16.5683L19.4542 16.5288L19.3356 16.4497L19.2565 16.4102L19.1379 16.3706L19.0193 16.3311L18.9007 16.2915L18.782 16.2125L18.6634 16.1334L18.5843 16.0543L18.5053 15.9357L18.4657 15.7775L18.4262 15.6193V15.4216V15.303L18.4657 15.2239L18.5053 15.1053L18.5448 15.0262L18.5843 14.9076L18.6239 14.8285L18.703 14.7494L18.782 14.7099L18.8611 14.6308L18.9402 14.5913L19.0588 14.5517L19.1774 14.5122H19.2961L19.4542 14.4727H19.6124H19.8101H19.9287H20.0078H20.0869H20.2055H20.245H20.3241H20.4032H20.4428L20.4823 14.5122H20.5218H20.5614H20.6009H20.6405H20.68L20.7195 14.5517L20.5614 15.2239Z" stroke="white" stroke-width="0.216" stroke-miterlimit="2.6131"/>
<path fill-rule="evenodd" clip-rule="evenodd" d="M21.273 13.7998H22.1034L21.9848 14.5115H22.4988L22.3802 15.1837H21.8662L21.5498 16.8444V16.9235L21.5894 16.9631V17.0026L21.6289 17.0422H21.708L21.7475 17.0817H21.8266H21.9057H21.9848H22.0243H22.0639H22.1429L22.1825 17.0422H22.222L22.1034 17.5957L22.0639 17.6353H22.0243V17.6748H21.9848H21.9452H21.9057L21.8662 17.7143H21.8266H21.7871H21.7475H21.708H21.6685H21.6289H21.3917H21.273H21.1544H21.0753L20.9963 17.6748L20.9172 17.6353H20.8776L20.7985 17.5957L20.759 17.5562L20.7195 17.5166V17.4376V17.398L20.6799 17.3585V17.2794V17.2003L20.7195 17.1608V17.0817L21.273 13.7998Z" fill="white"/>
<path d="M21.273 13.7998H22.1034L21.9848 14.5115H22.4988L22.3802 15.1837H21.8662L21.5498 16.8444V16.9235L21.5894 16.9631V17.0026L21.6289 17.0422H21.708L21.7475 17.0817H21.8266H21.9057H21.9848H22.0243H22.0639H22.1429L22.1825 17.0422H22.222L22.1034 17.5957L22.0639 17.6353H22.0243V17.6748H21.9848H21.9452H21.9057L21.8662 17.7143H21.8266H21.7871H21.7475H21.708H21.6685H21.6289H21.3917H21.273H21.1544H21.0753L20.9963 17.6748L20.9172 17.6353H20.8776L20.7985 17.5957L20.759 17.5562L20.7195 17.5166V17.4376V17.398L20.6799 17.3585V17.2794V17.2003L20.7195 17.1608V17.0817L21.273 13.7998Z" stroke="white" stroke-width="0.216" stroke-miterlimit="2.6131"/>
<path d="M23.1709 16.3311L23.1314 16.3706V16.4497V16.4892L23.1709 16.5683V16.6079L23.2105 16.6474L23.25 16.7265L23.2895 16.766L23.3291 16.8056L23.3686 16.8451L23.4082 16.9242L23.4477 16.9637H23.5268L23.5663 17.0033L23.6454 17.0428H23.6849H23.764H23.8431L23.9222 17.0824H24.0013H24.0803H24.1594H24.2385H24.3176L24.3967 17.0428H24.4758L24.5548 17.0033H24.6339L24.7525 16.9637L24.8316 16.9242L24.9107 16.8846L24.9898 16.8451L24.8712 17.5568L24.8316 17.5964H24.7921L24.713 17.6359H24.6735L24.6339 17.6755H24.5944H24.5548L24.4758 17.715H24.4362H24.3967H24.3176H24.2385H24.1594H24.0803H24.0013H23.8826H23.764H23.6059H23.4477L23.2895 17.6755L23.1709 17.5964L23.0127 17.5568L22.8941 17.4778L22.736 17.3987L22.6173 17.2801L22.5383 17.1614L22.4592 17.0428L22.3801 16.8846L22.301 16.6869V16.4892L22.2615 16.2915L22.301 16.0147V15.9357L22.3406 15.817V15.6984L22.3801 15.5798L22.4196 15.4612L22.4987 15.303L22.5383 15.1844L22.6173 15.0658L22.736 14.9471L22.8546 14.8285L22.9732 14.7099L23.1314 14.6308L23.2895 14.5517L23.4872 14.5122L23.7245 14.4727H23.9617H24.0803H24.199L24.3176 14.5122H24.4362L24.5548 14.5517L24.6735 14.6308L24.7921 14.7099L24.8712 14.789L24.9898 14.8681L25.0689 14.9867L25.1084 15.1449L25.1479 15.303L25.1875 15.4612V15.6984L25.1479 15.8961L25.1084 16.1729V16.3311H22.8941L23.0523 15.738H24.3571V15.6589V15.6193V15.5403V15.4612L24.3176 15.4216V15.3821L24.2781 15.3426L24.2385 15.303L24.199 15.2635L24.1594 15.2239L24.1199 15.1844H24.0803L24.0408 15.1449H24.0013H23.9222L23.8826 15.1053L23.8431 15.1449H23.764H23.7245L23.6849 15.1844H23.6059L23.5663 15.2239L23.5268 15.2635L23.4872 15.303L23.4477 15.3426L23.4082 15.3821L23.3686 15.4216V15.4612L23.3291 15.5403L23.2895 15.5798V15.6589V15.6984L23.1709 16.3311Z" stroke="white" stroke-width="0.216" stroke-miterlimit="2.6131"/>
<path fill-rule="evenodd" clip-rule="evenodd" d="M30.3278 14.7092L30.2883 14.6697H30.2488L30.2092 14.6301H30.1301L30.0906 14.5906H30.0511L30.0115 14.551H29.9324H29.8929L29.8138 14.5115H29.7743H29.6952H29.6556L29.5766 14.472H29.4975H29.4184H29.3393L29.2602 14.5115H29.1812H29.1021L29.023 14.551L28.9439 14.5906L28.8648 14.6301L28.7857 14.6697L28.6671 14.7487L28.6276 14.8278L28.5485 14.9069L28.4694 15.0255L28.3903 15.1442L28.3508 15.3023L28.2717 15.4605L28.2322 15.6582L28.1926 15.7768V15.8559V15.9745V16.0931V16.1722L28.2322 16.2908V16.3699L28.2717 16.449L28.3113 16.5281L28.3903 16.6072L28.4299 16.6862L28.509 16.7653L28.588 16.8049L28.7067 16.8444L28.7857 16.8839L28.9044 16.9235H28.9439H28.9835H29.0625L29.1021 16.963H29.1812H29.2602H29.2998H29.3789L29.4579 16.9235H29.537L29.6161 16.8839H29.6952L29.7743 16.8444L29.8533 16.8049L29.8929 16.7653L29.972 16.6862L29.8138 17.5166L29.7743 17.5561L29.7347 17.5957H29.6952L29.6556 17.6352H29.6161L29.5766 17.6748H29.4975L29.4184 17.7143H29.3393H29.2207H29.1021H28.9835H28.8253H28.6671H28.509L28.3903 17.6748L28.2322 17.6352L28.1135 17.5561L27.9554 17.5166L27.8368 17.398L27.7181 17.3189L27.5995 17.2003L27.5204 17.0421L27.4414 16.8839L27.3623 16.7258L27.2832 16.5281V16.3304L27.2437 16.1327V15.8954L27.2832 15.6582L27.3227 15.5396V15.4209L27.3623 15.3023L27.4018 15.1837L27.4414 15.0651L27.4809 14.986L27.5204 14.8674L27.56 14.7883L27.5995 14.6697L27.6391 14.5906L27.6786 14.5115L27.7577 14.4324L27.7972 14.3533L27.8763 14.2743L27.9158 14.2347L27.9949 14.1556L28.074 14.0765L28.1135 14.037L28.1926 13.9975L28.2717 13.9579L28.3508 13.8788L28.4299 13.8393H28.509L28.588 13.7998L28.7067 13.7602L28.7857 13.7207H28.9044L28.9835 13.6811H29.1021H29.1812L29.2998 13.6416H29.4184H29.537L29.6161 13.6811H29.6952H29.7743H29.8929L29.972 13.7207H30.0511L30.0906 13.7602H30.1697L30.2488 13.7998H30.2883L30.3278 13.8393H30.3674H30.4069L30.4465 13.8788L30.3278 14.7092Z" fill="white"/>
<path d="M30.3278 14.7092L30.2883 14.6697H30.2488L30.2092 14.6301H30.1301L30.0906 14.5906H30.0511L30.0115 14.551H29.9324H29.8929L29.8138 14.5115H29.7743H29.6952H29.6556L29.5766 14.472H29.4975H29.4184H29.3393L29.2602 14.5115H29.1812H29.1021L29.023 14.551L28.9439 14.5906L28.8648 14.6301L28.7857 14.6697L28.6671 14.7487L28.6276 14.8278L28.5485 14.9069L28.4694 15.0255L28.3903 15.1442L28.3508 15.3023L28.2717 15.4605L28.2322 15.6582L28.1926 15.7768V15.8559V15.9745V16.0931V16.1722L28.2322 16.2908V16.3699L28.2717 16.449L28.3113 16.5281L28.3903 16.6072L28.4299 16.6862L28.509 16.7653L28.588 16.8049L28.7067 16.8444L28.7857 16.8839L28.9044 16.9235H28.9439H28.9835H29.0625L29.1021 16.963H29.1812H29.2602H29.2998H29.3789L29.4579 16.9235H29.537L29.6161 16.8839H29.6952L29.7743 16.8444L29.8533 16.8049L29.8929 16.7653L29.972 16.6862L29.8138 17.5166L29.7743 17.5561L29.7347 17.5957H29.6952L29.6556 17.6352H29.6161L29.5766 17.6748H29.4975L29.4184 17.7143H29.3393H29.2207H29.1021H28.9835H28.8253H28.6671H28.509L28.3903 17.6748L28.2322 17.6352L28.1135 17.5561L27.9554 17.5166L27.8368 17.398L27.7181 17.3189L27.5995 17.2003L27.5204 17.0421L27.4414 16.8839L27.3623 16.7258L27.2832 16.5281V16.3304L27.2437 16.1327V15.8954L27.2832 15.6582L27.3227 15.5396V15.4209L27.3623 15.3023L27.4018 15.1837L27.4414 15.0651L27.4809 14.986L27.5204 14.8674L27.56 14.7883L27.5995 14.6697L27.6391 14.5906L27.6786 14.5115L27.7577 14.4324L27.7972 14.3533L27.8763 14.2743L27.9158 14.2347L27.9949 14.1556L28.074 14.0765L28.1135 14.037L28.1926 13.9975L28.2717 13.9579L28.3508 13.8788L28.4299 13.8393H28.509L28.588 13.7998L28.7067 13.7602L28.7857 13.7207H28.9044L28.9835 13.6811H29.1021H29.1812L29.2998 13.6416H29.4184H29.537L29.6161 13.6811H29.6952H29.7743H29.8929L29.972 13.7207H30.0511L30.0906 13.7602H30.1697L30.2488 13.7998H30.2883L30.3278 13.8393H30.3674H30.4069L30.4465 13.8788L30.3278 14.7092Z" stroke="white" stroke-width="0.216" stroke-miterlimit="2.6131"/>
<path fill-rule="evenodd" clip-rule="evenodd" d="M37.722 17.7143H36.8521L36.9311 17.398V17.3585L36.8916 17.4376L36.8521 17.4771L36.773 17.5166L36.7334 17.5562L36.6544 17.5957L36.6148 17.6353L36.5753 17.6748L36.4962 17.7143H36.4567L36.3776 17.7539H36.338H36.2589H36.2194L36.1403 17.7934H36.1008H36.0217L35.9031 17.7539L35.7449 17.7143L35.6263 17.6748L35.4681 17.5957L35.3891 17.5166L35.2704 17.4376L35.1913 17.3189L35.1123 17.2003L35.0727 17.0422L35.0332 16.9235L34.9936 16.7654L34.9541 16.6072V16.449V16.2909V16.1327L34.9936 16.0141L35.0332 15.8164L35.1123 15.6582L35.1518 15.5001L35.2309 15.3419L35.31 15.2233L35.3891 15.1047L35.5077 14.986L35.5868 14.9069L35.7054 14.7883L35.824 14.7488L35.9426 14.6697L36.0217 14.6302L36.1403 14.5511H36.2985L36.4171 14.5115H36.5357H36.6148L36.6939 14.5511H36.773H36.8521L36.9311 14.5906L36.9707 14.6302L37.0498 14.6697H37.0893L37.1289 14.7092L37.1684 14.7488L37.2079 14.7883L37.2475 14.8279L37.287 14.8674L37.3266 14.9069V14.9465L37.3661 14.986L37.5638 13.7998H38.3942L37.722 17.7143Z" fill="white"/>
<path d="M37.722 17.7143H36.8521L36.9311 17.398V17.3585L36.8916 17.4376L36.8521 17.4771L36.773 17.5166L36.7334 17.5562L36.6544 17.5957L36.6148 17.6353L36.5753 17.6748L36.4962 17.7143H36.4567L36.3776 17.7539H36.338H36.2589H36.2194L36.1403 17.7934H36.1008H36.0217L35.9031 17.7539L35.7449 17.7143L35.6263 17.6748L35.4681 17.5957L35.3891 17.5166L35.2704 17.4376L35.1913 17.3189L35.1123 17.2003L35.0727 17.0422L35.0332 16.9235L34.9936 16.7654L34.9541 16.6072V16.449V16.2909V16.1327L34.9936 16.0141L35.0332 15.8164L35.1123 15.6582L35.1518 15.5001L35.2309 15.3419L35.31 15.2233L35.3891 15.1047L35.5077 14.986L35.5868 14.9069L35.7054 14.7883L35.824 14.7488L35.9426 14.6697L36.0217 14.6302L36.1403 14.5511H36.2985L36.4171 14.5115H36.5357H36.6148L36.6939 14.5511H36.773H36.8521L36.9311 14.5906L36.9707 14.6302L37.0498 14.6697H37.0893L37.1289 14.7092L37.1684 14.7488L37.2079 14.7883L37.2475 14.8279L37.287 14.8674L37.3266 14.9069V14.9465L37.3661 14.986L37.5638 13.7998H38.3942L37.722 17.7143Z" stroke="white" stroke-width="0.216" stroke-miterlimit="2.6131"/>
<path fill-rule="evenodd" clip-rule="evenodd" d="M36.338 17.003H36.4171H36.4962L36.5753 16.9634L36.6543 16.9239L36.6939 16.8843L36.773 16.8448L36.8125 16.8053L36.8916 16.7262L36.9311 16.6866L36.9707 16.6076L37.0102 16.568L37.0498 16.4889V16.4099L37.0893 16.3308L37.1288 16.2517V16.1726V16.0935L37.1684 15.9749V15.8958L37.1288 15.8167V15.7377V15.6586L37.0893 15.619V15.54L37.0498 15.4609L37.0102 15.4213L36.9707 15.3818L36.9311 15.3423L36.8916 15.3027L36.8125 15.2632H36.773L36.6939 15.2236L36.6148 15.2632H36.5357L36.4962 15.3027H36.4171L36.338 15.3423L36.2985 15.4213L36.2589 15.4609L36.1799 15.5004L36.1403 15.5795L36.1008 15.6586L36.0612 15.6981L36.0217 15.7772L35.9822 15.8563V15.9749L35.9426 16.054V16.1331L35.9031 16.2517L35.9426 16.4099V16.568L35.9822 16.6866L36.0612 16.8053L36.1403 16.9239L36.2194 17.003H36.338Z" fill="#FBB231"/>
<path fill-rule="evenodd" clip-rule="evenodd" d="M17.9122 17.0824L17.7935 17.715H17.0423V17.5964L17.0818 17.5173V17.3987V17.3591L17.0423 17.4382L17.0027 17.4778L16.9632 17.5173L16.8841 17.5568L16.805 17.5964L16.7259 17.6359L16.6468 17.6755L16.5678 17.715H16.4887L16.4096 17.7545H16.3305L16.2119 17.7941H16.1328H16.0537H15.9747L15.8956 17.7545H15.777L15.6979 17.715L15.6188 17.6755L15.5397 17.6359L15.4606 17.5568L15.4211 17.5173L15.342 17.4778L15.3025 17.3987L15.2629 17.3591V17.2801L15.2234 17.201V17.1614L15.1838 17.0824V17.0033V16.9242V16.8846V16.766L15.2234 16.6474V16.5288L15.2629 16.4497L15.3025 16.3311L15.3815 16.252L15.4211 16.1729L15.5002 16.0938L15.5792 16.0147L15.6583 15.9752L15.7374 15.8961L15.856 15.8566L15.9351 15.817L16.0537 15.7775L16.1328 15.738H16.2514H16.291H16.3305H16.3701H16.4096L16.4491 15.6984H16.4887H16.5678H16.6073H16.6468H16.6864H16.7655H16.805L16.8446 15.6589H16.8841H16.9236L17.0027 15.6984H17.0818H17.1609H17.2004H17.24H17.2795V15.6589L17.319 15.6193V15.5403V15.5007V15.4216L17.2795 15.3821L17.24 15.303L17.2004 15.2635L17.1609 15.2239H17.0818L17.0027 15.1844H16.9236H16.8446H16.7655H16.6468H16.5678H16.4491H16.3701H16.291L16.1724 15.2239H16.0933H16.0142L15.9351 15.2635H15.856L15.777 15.303H15.7374L15.6979 15.3426H15.6583L15.856 14.6308L15.9351 14.5913H16.0142L16.0933 14.5517H16.1328L16.2119 14.5122H16.291H16.3701H16.4491L16.5282 14.4727H16.6468H16.7259H16.805H16.9236H17.0027H17.1213H17.2004L17.319 14.5122H17.3981H17.4772L17.5958 14.5517L17.6749 14.5913L17.754 14.6308L17.8726 14.6704L17.9517 14.7494L18.0308 14.789L18.0703 14.8681L18.1494 14.9471L18.1889 15.0658L18.2285 15.1449V15.2635V15.3821V15.5007L17.9122 17.0824Z" fill="white"/>
<path d="M17.9122 17.0824L17.7935 17.715H17.0423V17.5964L17.0818 17.5173V17.3987V17.3591L17.0423 17.4382L17.0027 17.4778L16.9632 17.5173L16.8841 17.5568L16.805 17.5964L16.7259 17.6359L16.6468 17.6755L16.5678 17.715H16.4887L16.4096 17.7545H16.3305L16.2119 17.7941H16.1328H16.0537H15.9747L15.8956 17.7545H15.777L15.6979 17.715L15.6188 17.6755L15.5397 17.6359L15.4606 17.5568L15.4211 17.5173L15.342 17.4778L15.3025 17.3987L15.2629 17.3591V17.2801L15.2234 17.201V17.1614L15.1838 17.0824V17.0033V16.9242V16.8846V16.766L15.2234 16.6474V16.5288L15.2629 16.4497L15.3025 16.3311L15.3815 16.252L15.4211 16.1729L15.5002 16.0938L15.5792 16.0147L15.6583 15.9752L15.7374 15.8961L15.856 15.8566L15.9351 15.817L16.0537 15.7775L16.1328 15.738H16.2514H16.291H16.3305H16.3701H16.4096L16.4491 15.6984H16.4887H16.5678H16.6073H16.6468H16.6864H16.7655H16.805L16.8446 15.6589H16.8841H16.9236L17.0027 15.6984H17.0818H17.1609H17.2004H17.24H17.2795V15.6589L17.319 15.6193V15.5403V15.5007V15.4216L17.2795 15.3821L17.24 15.303L17.2004 15.2635L17.1609 15.2239H17.0818L17.0027 15.1844H16.9236H16.8446H16.7655H16.6468H16.5678H16.4491H16.3701H16.291L16.1724 15.2239H16.0933H16.0142L15.9351 15.2635H15.856L15.777 15.303H15.7374L15.6979 15.3426H15.6583L15.856 14.6308L15.9351 14.5913H16.0142L16.0933 14.5517H16.1328L16.2119 14.5122H16.291H16.3701H16.4491L16.5282 14.4727H16.6468H16.7259H16.805H16.9236H17.0027H17.1213H17.2004L17.319 14.5122H17.3981H17.4772L17.5958 14.5517L17.6749 14.5913L17.754 14.6308L17.8726 14.6704L17.9517 14.7494L18.0308 14.789L18.0703 14.8681L18.1494 14.9471L18.1889 15.0658L18.2285 15.1449V15.2635V15.3821V15.5007L17.9122 17.0824Z" stroke="white" stroke-width="0.216" stroke-miterlimit="2.6131"/>
<path fill-rule="evenodd" clip-rule="evenodd" d="M17.2004 16.291V16.2515H17.1609H17.1213H17.0818L17.0422 16.2119H17.0027H16.9632L16.9236 16.2515H16.8445H16.805H16.7655H16.7259H16.6864L16.6468 16.291H16.6073H16.5678L16.5282 16.3305H16.4887H16.4491L16.4096 16.3701H16.37L16.3305 16.4096L16.291 16.4492L16.2514 16.4887H16.2119L16.1723 16.5282V16.5678L16.1328 16.6073V16.6864V16.7259L16.0933 16.805L16.1328 16.8841L16.1723 16.9632L16.2119 17.0027L16.2514 17.0423H16.291L16.3305 17.0818H16.37H16.4887L16.5678 17.0423H16.6468H16.6864L16.7655 17.0027L16.805 16.9632H16.8841L16.9236 16.9236L16.9632 16.8841L17.0027 16.8446L17.0422 16.805V16.7655H17.0818V16.7259V16.6864L17.1213 16.6469V16.5678L17.1609 16.4492V16.3701L17.2004 16.291Z" fill="#EC1C2E"/>
<path fill-rule="evenodd" clip-rule="evenodd" d="M11.5855 17.7143H10.7947L11.4669 13.7998H12.8903L13.009 16.1327L13.9975 13.7998H15.4605L14.7883 17.7143H13.9579L14.472 14.7883H14.4324L13.2462 17.7143H12.2972V17.5957V17.2794L12.2577 16.8049L12.2181 16.2909L12.1786 15.7373V15.2628L12.1391 14.9465V14.7883H12.0995L11.5855 17.7143Z" fill="white"/>
<path d="M11.5855 17.7143H10.7947L11.4669 13.7998H12.8903L13.009 16.1327L13.9975 13.7998H15.4605L14.7883 17.7143H13.9579L14.472 14.7883H14.4324L13.2462 17.7143H12.2972V17.5957V17.2794L12.2577 16.8049L12.2181 16.2909L12.1786 15.7373V15.2628L12.1391 14.9465V14.7883H12.0995L11.5855 17.7143Z" stroke="white" stroke-width="0.216" stroke-miterlimit="2.6131"/>
<path fill-rule="evenodd" clip-rule="evenodd" d="M32.8189 17.0824L32.7003 17.715H31.949V17.5964V17.5173V17.4382V17.3987L31.9095 17.4382L31.8699 17.4778L31.7908 17.5173L31.7513 17.5568L31.6722 17.5964L31.6327 17.6359L31.5536 17.6755L31.4745 17.715H31.3954L31.3163 17.7545H31.1977L31.1186 17.7941H31.0396H30.9605H30.8814L30.8023 17.7545H30.6837L30.6046 17.715L30.5255 17.6755L30.4464 17.6359L30.3674 17.5568L30.2883 17.5173L30.2487 17.4778L30.2092 17.3987L30.1697 17.3591V17.2801L30.1301 17.201V17.1614L30.0906 17.0824V17.0033V16.9242V16.8846V16.766L30.1301 16.6474V16.5288L30.1697 16.4497L30.2092 16.3311L30.2883 16.252L30.3278 16.1729L30.4069 16.0938L30.486 16.0147L30.5651 15.9752L30.6442 15.8961L30.7628 15.8566L30.8419 15.817L30.9605 15.7775L31.0396 15.738H31.1582H31.1977H31.2373H31.3163L31.3559 15.6984H31.3954H31.435H31.514H31.5536H31.5931H31.6327H31.6722L31.7118 15.6589H31.7513H31.8304L31.9095 15.6984H31.9885H32.0281H32.1072H32.1467H32.1862V15.6589V15.6193L32.2258 15.5403V15.5007L32.1862 15.4216V15.3821L32.1467 15.303L32.1072 15.2635L32.0281 15.2239H31.9885L31.9095 15.1844H31.8304H31.7513H31.6722H31.5931H31.4745H31.3954H31.2768H31.1977L31.0791 15.2239H31H30.9209L30.8419 15.2635H30.7628L30.6837 15.303H30.6442L30.6046 15.3426H30.5651L30.7628 14.6308L30.8419 14.5913H30.9209L31 14.5517H31.0396L31.1186 14.5122H31.1977H31.2768H31.3559L31.435 14.4727H31.5536H31.6327H31.7118H31.8304H31.9095H32.0281H32.1072L32.1862 14.5122H32.3049H32.3839L32.463 14.5517L32.5816 14.5913L32.6607 14.6308L32.7398 14.6704L32.8189 14.7494L32.898 14.789L32.9771 14.8681L33.0561 14.9471L33.0957 15.0658L33.1352 15.1449V15.2635V15.3821V15.5007L32.8189 17.0824Z" fill="white"/>
<path fill-rule="evenodd" clip-rule="evenodd" d="M32.7004 17.7542L32.8191 17.082H32.7795L32.6609 17.7147H32.7004V17.7542Z" fill="white"/>
<path fill-rule="evenodd" clip-rule="evenodd" d="M31.9094 17.7139L31.949 17.7534H32.7002V17.7139H31.949H31.9094V17.7534H31.949L31.9094 17.7139Z" fill="white"/>
<path fill-rule="evenodd" clip-rule="evenodd" d="M31.949 17.3979V17.3584L31.9094 17.4375V17.5166V17.5956V17.7143H31.949V17.5956V17.5166V17.4375V17.3979V17.3584V17.3979Z" fill="white"/>
<path fill-rule="evenodd" clip-rule="evenodd" d="M30.8022 17.7933H30.8813H30.9604H31.0395H31.1186H31.1977L31.3163 17.7538H31.3954L31.4744 17.7143L31.5535 17.6747L31.6326 17.6352H31.7117L31.7512 17.5561L31.8303 17.5166L31.8698 17.477L31.9094 17.4375L31.9489 17.3979V17.3584L31.9094 17.4375L31.8303 17.477L31.7908 17.5166L31.7512 17.5561L31.6721 17.5956L31.5931 17.6352H31.514L31.4744 17.6747L31.3954 17.7143H31.2767L31.1977 17.7538H31.1186H31.0395H30.9604H30.8813H30.8022V17.7933Z" fill="white"/>
<path fill-rule="evenodd" clip-rule="evenodd" d="M30.051 16.8838V16.9233L30.0906 17.0024V17.0815V17.1606L30.1301 17.2001V17.2792L30.1696 17.3583L30.2092 17.3978L30.2487 17.4769L30.2883 17.5164L30.3674 17.5955L30.4069 17.6351L30.486 17.6746L30.6046 17.7141L30.6837 17.7537L30.8023 17.7932V17.7537L30.6837 17.7141L30.6046 17.6746L30.5255 17.6351L30.4464 17.5955L30.3674 17.556L30.3278 17.5164L30.2883 17.4374L30.2487 17.3978L30.2092 17.3187L30.1696 17.2792L30.1301 17.2001V17.121V17.0815V17.0024L30.0906 16.9233V16.8838H30.051Z" fill="white"/>
<path fill-rule="evenodd" clip-rule="evenodd" d="M31.1582 15.7373H31.0395L30.9209 15.7768L30.8418 15.8164L30.7232 15.8559L30.6441 15.8955L30.5651 15.935L30.486 16.0141L30.4069 16.0932L30.3278 16.1723L30.2487 16.2513L30.2092 16.3304L30.1696 16.449L30.1301 16.5281L30.0906 16.6467V16.7654L30.051 16.884H30.0906L30.1301 16.7654V16.6467L30.1696 16.5281L30.2092 16.449L30.2487 16.3304L30.2883 16.2513L30.3674 16.1723L30.4069 16.0932L30.486 16.0536L30.5651 15.9746L30.6837 15.935L30.7628 15.8559L30.8418 15.8164H30.9605L31.0395 15.7768L31.1582 15.7373Z" fill="white"/>
<path fill-rule="evenodd" clip-rule="evenodd" d="M31.7513 15.6582H31.7118H31.6722H31.6327H31.5931H31.5536H31.5141L31.435 15.6977H31.3954H31.3559H31.3164H31.2373H31.1977H31.1582V15.7373H31.1977H31.2373H31.3164H31.3559H31.3954H31.435L31.5141 15.6977H31.5536H31.5931H31.6327H31.6722H31.7118H31.7513V15.6582Z" fill="white"/>
<path fill-rule="evenodd" clip-rule="evenodd" d="M32.1862 15.6977V15.6582H32.1466H32.1071H32.028H31.9885H31.9094H31.8303H31.7512V15.6977H31.8303H31.9094H31.9885H32.028H32.1071H32.1466H32.1862Z" fill="white"/>
<path fill-rule="evenodd" clip-rule="evenodd" d="M32.1863 15.5V15.5395V15.6186V15.6582V15.6977L32.2258 15.6582V15.6186V15.5395V15.5H32.1863Z" fill="white"/>
<path fill-rule="evenodd" clip-rule="evenodd" d="M31.8303 15.1841L31.9094 15.2236H31.9885L32.028 15.2632L32.0676 15.3027L32.1071 15.3422L32.1466 15.3818L32.1862 15.4213V15.5004H32.2257V15.4213L32.1862 15.3818L32.1466 15.3027L32.1071 15.2632L32.0676 15.2236L31.9885 15.1841H31.9094L31.8303 15.1445V15.1841Z" fill="white"/>
<path fill-rule="evenodd" clip-rule="evenodd" d="M30.5652 15.3422V15.3818L30.6047 15.3422H30.6443L30.6838 15.3027H30.7629L30.842 15.2632H30.9211H31.0001L31.0792 15.2236H31.1978H31.2769L31.3955 15.1841H31.4746H31.5932H31.6723H31.7514H31.8305L31.7514 15.1445H31.6723H31.5932H31.4746L31.3955 15.1841H31.2769H31.1978H31.0792L31.0001 15.2236H30.9211H30.842L30.7629 15.2632H30.6838L30.6443 15.3027H30.6047L30.5652 15.3422H30.6047H30.5652Z" fill="white"/>
<path fill-rule="evenodd" clip-rule="evenodd" d="M30.7629 14.5908V14.6304L30.5652 15.3421H30.6047L30.8024 14.6304L30.7629 14.5908V14.6304V14.5908Z" fill="white"/>
<path fill-rule="evenodd" clip-rule="evenodd" d="M32.1073 14.4727H32.0282H31.9096H31.8305H31.7119H31.6328H31.5538H31.4351H31.3561H31.277L31.1979 14.5122H31.1188H31.0397L31.0002 14.5517H30.9211L30.842 14.5913H30.7629L30.8025 14.6308H30.842L30.9211 14.5913L31.0002 14.5517H31.0793H31.1188L31.1979 14.5122H31.277H31.3561H31.4351H31.5538H31.6328H31.7119H31.8305H31.9096H32.0282H32.1073V14.4727Z" fill="white"/>
<path fill-rule="evenodd" clip-rule="evenodd" d="M33.1352 15.5007L33.1748 15.3821V15.2635L33.1352 15.1449L33.0957 15.0262L33.0562 14.9471L32.9771 14.8681L32.9375 14.789L32.8585 14.7099L32.7794 14.6704L32.6607 14.6308L32.5817 14.5913L32.463 14.5517L32.384 14.5122L32.3049 14.4727H32.1863H32.1072V14.5122H32.1863H32.2653L32.384 14.5517L32.463 14.5913H32.5421L32.6607 14.6704L32.7398 14.7099L32.8189 14.7494L32.898 14.8285L32.9771 14.9076L33.0166 14.9867L33.0562 15.0658L33.0957 15.1449L33.1352 15.2635V15.3821L33.0957 15.4612L33.1352 15.5007Z" fill="white"/>
<path fill-rule="evenodd" clip-rule="evenodd" d="M32.8188 17.0821L33.1352 15.5005L33.0956 15.4609L32.7793 17.0821H32.8188Z" fill="white"/>
<path fill-rule="evenodd" clip-rule="evenodd" d="M32.0676 16.291V16.2515H32.0281L31.9885 16.2119H31.949H31.9094H31.8304L31.7908 16.2515H31.7513H31.7117H31.6722H31.6327H31.5931L31.5536 16.291H31.514H31.4745H31.435L31.3954 16.3305H31.3559L31.3163 16.3701H31.2768L31.2373 16.4096H31.1977L31.1582 16.4492L31.1186 16.4887V16.5282L31.0791 16.5678L31.0396 16.6073V16.6864V16.7259V16.805V16.8841L31.0791 16.9632V17.0027L31.1582 17.0423H31.1977L31.2373 17.0818H31.2768H31.3954L31.4745 17.0423H31.5536L31.6327 17.0027H31.6722L31.7513 16.9632L31.7908 16.9236L31.8304 16.8841H31.8699L31.9094 16.8446L31.949 16.805L31.9885 16.7655V16.7259L32.0281 16.6864V16.6469V16.6073V16.5282L32.0676 16.4492V16.3701V16.291Z" fill="#FBB231"/>
<path fill-rule="evenodd" clip-rule="evenodd" d="M38.2756 17.3192V17.2402V17.1611L38.3547 17.082L38.3943 17.0425L38.4338 17.0029L38.5129 16.9634L38.592 16.9238H38.671H38.7501L38.8292 16.9634L38.9083 17.0029L38.9874 17.0425L39.0269 17.082L39.0665 17.1611L39.106 17.2402V17.3192H39.0269V17.2797L38.9874 17.2006L38.9478 17.1611L38.9083 17.082L38.8687 17.0425L38.8292 17.0029H38.7501H38.671H38.6315H38.5524L38.4733 17.0425L38.4338 17.082L38.3943 17.1611V17.2006L38.3547 17.2797V17.3192H38.2756Z" fill="white"/>
<path fill-rule="evenodd" clip-rule="evenodd" d="M38.5522 17.3193V17.1611H38.7104H38.75H38.7895H38.829V17.2007V17.2402H38.8686L38.829 17.2798V17.3193H38.7104H38.75L38.7895 17.2798V17.2402V17.2007H38.75H38.7104H38.5918V17.3193H38.5522Z" fill="white"/>
<path fill-rule="evenodd" clip-rule="evenodd" d="M38.2756 17.3184V17.3579V17.437V17.5161L38.3547 17.5951L38.3943 17.6347L38.4338 17.6742L38.5129 17.7138L38.592 17.7533H38.671H38.7501L38.8292 17.7138L38.9083 17.6742L38.9874 17.6347L39.0269 17.5951L39.0665 17.5161L39.106 17.437V17.3579V17.3184H39.0269V17.3579V17.3974L38.9874 17.4765L38.9478 17.5161L38.9083 17.5951L38.8687 17.6347L38.8292 17.6742H38.7501H38.671H38.6315H38.5524L38.4733 17.6347L38.4338 17.5951L38.3943 17.5161V17.4765L38.3547 17.3974V17.3579V17.3184H38.2756Z" fill="white"/>
<path fill-rule="evenodd" clip-rule="evenodd" d="M38.5522 17.3184V17.5161H38.5918V17.3579H38.6709L38.7895 17.5161H38.829L38.75 17.3579H38.7895L38.829 17.3184H38.7104H38.6709H38.5918H38.5522Z" fill="white"/>
<path d="M38.4733 17.0029L38.3943 17.0425L38.3547 17.1215L38.3152 17.2006L38.2756 17.2797V17.3588V17.4379L38.3152 17.5169L38.3547 17.596L38.3943 17.6751L38.4733 17.7146L38.5524 17.7542L38.6315 17.7937H38.7106H38.7897L38.8687 17.7542L38.9478 17.7146L39.0269 17.6751L39.0665 17.596L39.106 17.5169L39.1455 17.4379V17.3588V17.2797L39.106 17.2006L39.0665 17.1215L39.0269 17.0425L38.9478 17.0029L38.8687 16.9634L38.7897 16.9238H38.7106H38.6315L38.5524 16.9634L38.4733 17.0029ZM38.4733 17.0029L38.5129 16.9634L38.592 16.9238H38.671H38.7501L38.8292 16.9634L38.8687 17.0029L38.9083 17.0425L38.9478 17.082L38.9874 17.1611V17.2402V17.3192V17.3983V17.4774L38.9478 17.5169L38.9083 17.5565L38.8687 17.596L38.8292 17.6356L38.7501 17.6751H38.671H38.592L38.5129 17.6356L38.4733 17.596L38.4338 17.5565L38.3943 17.5169L38.3547 17.4774V17.3983V17.3192V17.2402V17.1611L38.3943 17.082L38.4338 17.0425L38.4733 17.0029ZM38.671 17.3192L38.7501 17.4774H38.8292L38.7501 17.3192H38.7897H38.8292V17.2797V17.2402V17.2006V17.1611H38.7897H38.7501H38.7106H38.671H38.5129V17.5169H38.592V17.3192H38.671ZM38.671 17.3192H38.7106V17.2797H38.6315V17.3983H38.671" stroke="white" stroke-width="0.216" stroke-miterlimit="2.6131"/>
<path fill-rule="evenodd" clip-rule="evenodd" d="M33.0166 17.715H33.8865L34.1633 16.0147L34.2028 15.9752V15.8961L34.2424 15.817V15.7775L34.2819 15.6984L34.3214 15.6193L34.361 15.5798L34.4005 15.5007L34.4796 15.4612L34.5192 15.4216L34.5982 15.3821L34.6773 15.3426L34.7564 15.303L34.8355 15.2635H34.9541H35.0727H35.1123H35.1518L35.2704 14.4727L35.1913 14.5122H35.1123H35.0332L34.9541 14.5517H34.9146L34.8355 14.5913L34.7959 14.6308L34.7169 14.6704L34.6773 14.7099L34.6378 14.7494L34.5587 14.789L34.5192 14.8285L34.4796 14.9076L34.4401 14.9471L34.4005 14.9867L34.361 15.0658L34.4401 14.5122H33.6097L33.0166 17.715Z" fill="white"/>
<path d="M33.0166 17.715H33.8865L34.1633 16.0147L34.2028 15.9752V15.8961L34.2424 15.817V15.7775L34.2819 15.6984L34.3214 15.6193L34.361 15.5798L34.4005 15.5007L34.4796 15.4612L34.5192 15.4216L34.5982 15.3821L34.6773 15.3426L34.7564 15.303L34.8355 15.2635H34.9541H35.0727H35.1123H35.1518L35.2704 14.4727L35.1913 14.5122H35.1123H35.0332L34.9541 14.5517H34.9146L34.8355 14.5913L34.7959 14.6308L34.7169 14.6704L34.6773 14.7099L34.6378 14.7494L34.5587 14.789L34.5192 14.8285L34.4796 14.9076L34.4401 14.9471L34.4005 14.9867L34.361 15.0658L34.4401 14.5122H33.6097L33.0166 17.715Z" stroke="white" stroke-width="0.216" stroke-miterlimit="2.6131"/>
<path fill-rule="evenodd" clip-rule="evenodd" d="M25.0688 17.715H25.9387L26.2155 16.0147L26.2551 15.9752V15.8961L26.2946 15.817V15.7775L26.3342 15.6984V15.6589L26.3737 15.6193L26.4132 15.5403L26.4923 15.5007L26.5319 15.4612L26.6109 15.4216L26.6505 15.3821H26.7691L26.8482 15.3426H26.9668L27.0854 15.303V15.3426H27.125H27.1645V15.303V15.2239L27.2041 15.1844V15.1053L27.2436 14.9867L27.2831 14.9076V14.8285L27.3227 14.789L27.3622 14.7099V14.6704L27.4018 14.6308L27.4413 14.5517L27.4808 14.5122H27.4413H27.4018L27.3622 14.4727H27.3227L27.2436 14.5122H27.1645H27.0854L27.0064 14.5517H26.9273L26.8877 14.5913L26.8086 14.6308L26.7691 14.6704L26.7296 14.7099L26.6505 14.7494L26.6109 14.789L26.5714 14.8285L26.5319 14.8681L26.4923 14.9471L26.4528 14.9867L26.4132 15.0658L26.4923 14.5122H25.662L25.0688 17.715Z" fill="white"/>
<path d="M25.0688 17.715H25.9387L26.2155 16.0147L26.2551 15.9752V15.8961L26.2946 15.817V15.7775L26.3342 15.6984V15.6589L26.3737 15.6193L26.4132 15.5403L26.4923 15.5007L26.5319 15.4612L26.6109 15.4216L26.6505 15.3821H26.7691L26.8482 15.3426H26.9668L27.0854 15.303V15.3426H27.125H27.1645V15.303V15.2239L27.2041 15.1844V15.1053L27.2436 14.9867L27.2831 14.9076V14.8285L27.3227 14.789L27.3622 14.7099V14.6704L27.4018 14.6308L27.4413 14.5517L27.4808 14.5122H27.4413H27.4018L27.3622 14.4727H27.3227L27.2436 14.5122H27.1645H27.0854L27.0064 14.5517H26.9273L26.8877 14.5913L26.8086 14.6308L26.7691 14.6704L26.7296 14.7099L26.6505 14.7494L26.6109 14.789L26.5714 14.8285L26.5319 14.8681L26.4923 14.9471L26.4528 14.9867L26.4132 15.0658L26.4923 14.5122H25.662L25.0688 17.715Z" stroke="white" stroke-width="0.216" stroke-miterlimit="2.6131"/>
<path fill-rule="evenodd" clip-rule="evenodd" d="M38.2756 20.8778V20.7988L38.3547 20.7197L38.3943 20.6801L38.4338 20.6406L38.5129 20.6011L38.592 20.5615H38.671H38.7501L38.8292 20.6011L38.9083 20.6406L38.9874 20.6801L39.0269 20.7197L39.0665 20.7988L39.106 20.8778H39.0269L38.9874 20.8383L38.9478 20.7592L38.9083 20.7197L38.8687 20.6801L38.8292 20.6406H38.7501L38.671 20.6011L38.6315 20.6406H38.5524L38.4733 20.6801L38.4338 20.7197L38.3943 20.7592V20.8383L38.3547 20.8778H38.2756Z" fill="#FBB231"/>
<path fill-rule="evenodd" clip-rule="evenodd" d="M38.5522 20.8779V20.7988H38.7104H38.75H38.7895H38.829V20.8384V20.8779H38.8686H38.7895V20.8384H38.75H38.7104H38.5918V20.8779H38.5522Z" fill="#FBB231"/>
<path fill-rule="evenodd" clip-rule="evenodd" d="M38.2756 20.957V20.8779H38.3547V20.957H38.2756Z" fill="#FBB231"/>
<path fill-rule="evenodd" clip-rule="evenodd" d="M38.5522 20.957V20.8779H38.5918V20.957H38.6709H38.7104H38.75V20.9175H38.7895V20.8779H38.8686L38.829 20.9175V20.957H38.5522Z" fill="#FBB231"/>
<path fill-rule="evenodd" clip-rule="evenodd" d="M39.0269 20.957V20.8779H39.1059V20.957H39.0269Z" fill="#FBB231"/>
<path fill-rule="evenodd" clip-rule="evenodd" d="M38.2756 20.957V21.0361V21.1152L38.3547 21.1943L38.3943 21.2734L38.4338 21.3129L38.5129 21.3524L38.592 21.392H38.671H38.7501L38.8292 21.3524L38.9083 21.3129L38.9874 21.2734L39.0269 21.1943L39.0665 21.1152L39.106 21.0361V20.957H39.0269V21.0361L38.9874 21.1152L38.9478 21.1547L38.9083 21.1943L38.8687 21.2734H38.8292L38.7501 21.3129H38.671H38.6315L38.5524 21.2734H38.4733L38.4338 21.1943L38.3943 21.1547V21.1152L38.3547 21.0361V20.957H38.2756Z" fill="#FBB231"/>
<path fill-rule="evenodd" clip-rule="evenodd" d="M38.5522 20.957V21.1152H38.5918V20.9966H38.6709L38.7895 21.1152H38.829L38.75 20.9966L38.7895 20.957H38.829H38.5522Z" fill="#FBB231"/>
<path fill-rule="evenodd" clip-rule="evenodd" d="M25.1875 15.4607L25.148 15.263L25.1084 15.1048L25.0294 14.9862L24.9503 14.8676L24.8712 14.7489L24.7526 14.6699L24.6339 14.5908L24.5153 14.5512L24.3967 14.5117L24.2781 14.4722L24.1595 14.4326H24.0408H23.9222H23.685L23.4873 14.4722L23.2896 14.5117L23.1314 14.5908L22.9732 14.6699L22.8546 14.7885L22.736 14.9071L22.6569 15.0257L22.5778 15.1444L22.4987 15.263L22.4592 15.3816L22.4197 15.5002L22.3801 15.6188L22.3406 15.7375V15.8561V15.9352V16.1724V16.4097L22.3801 16.6074L22.4197 16.7655L22.4987 16.9237L22.5778 17.0423L22.6964 17.1609L22.8151 17.2796L22.9337 17.3586L23.0523 17.4377L23.2105 17.4773L23.3686 17.5168L23.5268 17.5563L23.685 17.5959H23.8431H24.0013H24.1199H24.199H24.2781H24.3572H24.4362H24.5153H24.5944H24.6339H24.6735H24.713H24.7526H24.7921H24.8316H24.8712L24.9107 17.5563L24.9503 17.5168L25.0689 16.7655L24.9898 16.8051L24.9107 16.8446L24.8316 16.8841L24.7526 16.9237L24.6735 16.9632H24.5944H24.5153H24.4362H24.3572H24.2781H24.199H24.1199H24.0408H23.9617H23.8827H23.8036H23.7245L23.6454 16.9237L23.5663 16.8841L23.5268 16.8446L23.4873 16.8051L23.4477 16.7655L23.4082 16.726L23.3686 16.6864L23.3291 16.6469L23.2896 16.6074L23.25 16.5678L23.2105 16.5283V16.4887V16.4492V16.4097V16.3701H25.148V16.1724L25.1875 15.9352L25.2271 15.6979L25.1875 15.4607ZM24.3572 15.7375H23.25V15.6979V15.6188V15.5398L23.2896 15.4607L23.3291 15.4211L23.3686 15.3816L23.4082 15.3421L23.4477 15.3025L23.4873 15.263L23.5268 15.2234L23.5663 15.1839L23.6059 15.1444L23.6454 15.1048H23.685H23.7245H23.764H23.8036H23.8431H23.8827H23.9222H23.9617L24.0013 15.1444L24.0408 15.1839L24.0804 15.2234L24.1199 15.263L24.1595 15.3025L24.199 15.3421L24.2385 15.3816L24.2781 15.4211V15.5002V15.5793V15.6584L24.3572 15.7375Z" fill="white"/>
</svg>
