<svg width="49" height="31" viewBox="0 0 49 31" fill="none" xmlns="http://www.w3.org/2000/svg">
<path d="M48.961 28.9705C48.961 29.8685 48.2191 30.6104 47.3211 30.6104H1.63984C0.741833 30.6104 0 29.8685 0 28.9705V1.63984C0 0.741832 0.741833 0 1.63984 0H47.3602C48.2582 0 49 0.741832 49 1.63984V28.9705H48.961Z" fill="#1C3663"/>
<path d="M23.6606 13.4316C23.5044 13.4316 23.2701 13.5878 23.153 13.744C23.153 13.744 21.9817 15.7352 21.8646 15.9304C21.7865 16.0476 21.7474 15.9695 21.7474 15.9304C21.7474 15.8914 21.396 13.744 21.396 13.744C21.357 13.5878 21.1618 13.4316 20.9666 13.4316H20.2247C20.0295 13.4316 19.9514 13.5878 19.9905 13.744C19.9905 13.744 20.5371 16.9065 20.6542 17.6484C20.6932 18.0778 20.6542 18.1169 20.6542 18.1169L19.9514 19.3663C19.8343 19.5225 19.9124 19.6786 20.0685 19.6786H20.9275C21.0837 19.6786 21.318 19.5225 21.4351 19.3663L24.6757 13.8611C24.6757 13.8611 24.9881 13.3926 24.7148 13.3926C24.4415 13.4316 23.6606 13.4316 23.6606 13.4316Z" fill="white"/>
<path d="M13.4311 14.5633C13.1969 14.7585 12.8455 14.8366 12.416 14.8366H12.2208C12.0256 14.8366 11.9475 14.6804 11.9865 14.5242L12.2208 13.47C12.2598 13.3139 12.416 13.1577 12.6112 13.1577H12.8845C13.1969 13.1577 13.4311 13.1967 13.5873 13.3139C13.7435 13.431 13.8216 13.5872 13.8216 13.7824C13.7825 14.0948 13.6654 14.3681 13.4311 14.5633ZM15.1881 12.9234C15.071 12.7282 14.9539 12.572 14.7586 12.4549C14.5634 12.3378 14.3291 12.2597 14.0558 12.1816C13.7825 12.1426 13.4702 12.1035 13.0797 12.1035H11.3618C11.1666 12.1035 11.0104 12.2597 10.9714 12.4159L9.83911 17.4135C9.80007 17.5697 9.9172 17.7258 10.0734 17.7258H10.8933C11.0885 17.7258 11.2447 17.5697 11.2837 17.4135L11.557 16.2031C11.5961 16.0469 11.7523 15.8908 11.9475 15.8908H12.1817C13.1969 15.8908 13.9387 15.6955 14.5244 15.2661C15.071 14.8756 15.3443 14.329 15.3443 13.6653C15.3443 13.3529 15.3052 13.1187 15.1881 12.9234Z" fill="white"/>
<path d="M19.1315 13.6258C18.8192 13.4697 18.3506 13.3525 17.6869 13.3525C17.3745 13.3525 17.0231 13.3916 16.7108 13.4306C16.4765 13.4697 16.4375 13.4697 16.2813 13.5087C15.969 13.5868 15.9299 13.8992 15.9299 13.8992L15.8128 14.2896C15.7737 14.5629 15.8909 14.5239 15.969 14.5239C16.0861 14.4848 16.1642 14.4458 16.4375 14.3677C16.7108 14.2896 16.9841 14.2505 17.2184 14.2505C17.5307 14.2505 17.804 14.2896 17.9602 14.3677C18.1164 14.4458 18.1945 14.5629 18.1945 14.7191C18.1945 14.7581 18.1945 14.7972 18.1945 14.8362C18.1945 14.8752 18.1554 14.9143 18.0773 14.9143C17.6088 14.9533 17.2965 14.9924 16.867 15.0314C16.4765 15.0705 16.1251 15.1876 15.8128 15.3047C15.5004 15.4609 15.2662 15.6171 15.11 15.8513C14.9538 16.0856 14.8757 16.3589 14.8757 16.7103C14.8757 17.0227 14.9929 17.296 15.2271 17.4912C15.4614 17.6864 15.7347 17.8035 16.0861 17.8035C16.3204 17.8035 16.4765 17.8035 16.5937 17.7645C16.7108 17.7254 16.867 17.6864 16.9841 17.6474C17.1012 17.6083 17.2184 17.5302 17.3355 17.4521C17.4526 17.3741 17.5307 17.335 17.6478 17.2569L17.6088 17.374C17.5698 17.5302 17.6869 17.6474 17.8431 17.6864C17.9602 17.6864 18.3116 17.6864 18.4678 17.6864H18.5849C18.7411 17.6474 18.8972 17.5302 18.9363 17.374L19.5219 14.7972C19.5219 14.7191 19.561 14.68 19.561 14.6019C19.561 14.5239 19.561 14.4458 19.561 14.4067C19.561 14.0553 19.4048 13.8211 19.1315 13.6258ZM17.6869 16.7103C17.5698 16.7884 17.4917 16.8274 17.3745 16.8665C17.2184 16.9446 17.0622 16.9446 16.9451 16.9446C16.7498 16.9446 16.5937 16.9055 16.4765 16.8665C16.3594 16.8274 16.3204 16.7103 16.3204 16.5541C16.3204 16.398 16.3594 16.2418 16.4375 16.1637C16.5156 16.0466 16.6327 15.9685 16.7889 15.9294C16.9451 15.8904 17.1012 15.8513 17.3355 15.8123C17.5307 15.7733 17.8821 15.7342 17.9212 15.7342C17.9602 15.7342 17.9992 15.6952 17.9602 15.8513C17.9602 15.8904 17.8431 16.3589 17.804 16.5541C17.804 16.5932 17.6869 16.6713 17.6869 16.7103Z" fill="white"/>
<path d="M33.9291 13.6258C33.6168 13.4697 33.1482 13.3525 32.4845 13.3525C32.1721 13.3525 31.8207 13.3916 31.5084 13.4306C31.2741 13.4697 31.2351 13.4697 31.0789 13.5087C30.7666 13.5868 30.7275 13.8992 30.7275 13.8992L30.6104 14.2896C30.5713 14.5629 30.6885 14.5239 30.7666 14.5239C30.8837 14.4848 30.9618 14.4458 31.2351 14.3677C31.5084 14.2896 31.7817 14.2505 32.016 14.2505C32.3283 14.2505 32.6016 14.2896 32.7578 14.3677C32.914 14.4458 32.9921 14.5629 32.9921 14.7191C32.9921 14.7581 32.9921 14.7972 32.9921 14.8362C32.9921 14.8752 32.953 14.9143 32.8749 14.9143C32.4064 14.9533 32.055 14.9924 31.6646 15.0314C31.2741 15.0705 30.9227 15.1876 30.6104 15.3047C30.298 15.4609 30.0638 15.6171 29.9076 15.8513C29.7514 16.0856 29.6733 16.3589 29.6733 16.7103C29.6733 17.0227 29.7905 17.296 30.0247 17.4912C30.259 17.6864 30.5323 17.8035 30.8837 17.8035C31.118 17.8035 31.2741 17.8035 31.3913 17.7645C31.5084 17.7254 31.6255 17.6864 31.7817 17.6474C31.8988 17.6083 32.016 17.5302 32.1331 17.4521C32.2502 17.3741 32.3283 17.335 32.4455 17.2569L32.4064 17.374C32.3674 17.5302 32.4845 17.6474 32.6407 17.6864C32.7578 17.6864 33.1092 17.6864 33.2654 17.6864H33.3825C33.5387 17.6864 33.6949 17.5302 33.7339 17.374L34.3196 14.7972C34.3196 14.7191 34.3586 14.68 34.3586 14.6019C34.3586 14.5239 34.3586 14.4458 34.3586 14.4067C34.3976 14.0944 34.2415 13.8211 33.9291 13.6258ZM32.4845 16.7103C32.3674 16.7884 32.2893 16.8274 32.1721 16.8665C32.016 16.9446 31.8598 16.9446 31.7427 16.9446C31.5474 16.9446 31.3913 16.9055 31.2741 16.8665C31.157 16.8274 31.118 16.7103 31.118 16.5541C31.118 16.398 31.157 16.2418 31.2351 16.1637C31.3132 16.0466 31.4303 15.9685 31.5865 15.9294C31.7427 15.8904 31.8988 15.8513 32.1331 15.8123C32.3283 15.7733 32.6797 15.7342 32.7188 15.7342C32.7578 15.7342 32.7968 15.6952 32.7578 15.8513C32.7578 15.8904 32.6407 16.3589 32.6016 16.5541C32.6016 16.5932 32.5235 16.6713 32.4845 16.7103Z" fill="white"/>
<path d="M28.2287 14.5633C27.9945 14.7585 27.6431 14.8366 27.2136 14.8366H27.0184C26.8622 14.8366 26.7451 14.6804 26.7841 14.5242L27.0184 13.47C27.0574 13.3139 27.2526 13.1577 27.4088 13.1577H27.6821C27.9945 13.1577 28.2287 13.1967 28.3849 13.3139C28.5411 13.431 28.6192 13.5872 28.6192 13.7824C28.5801 14.1338 28.463 14.4071 28.2287 14.5633ZM29.9857 12.9234C29.8686 12.7282 29.7124 12.572 29.5172 12.4549C29.322 12.3378 29.0877 12.2597 28.8144 12.1816C28.5411 12.1426 28.2287 12.1035 27.8383 12.1035H26.1204C25.9251 12.1035 25.769 12.2597 25.7299 12.4159L24.5977 17.4135C24.5586 17.5697 24.6757 17.7258 24.8319 17.7258H25.6518C25.808 17.7258 26.0032 17.5697 26.0423 17.4135L26.3156 16.2031C26.3546 16.0469 26.5498 15.8908 26.706 15.8908H26.9403C27.9554 15.8908 28.6973 15.6955 29.2829 15.2661C29.8295 14.8366 30.1028 14.329 30.1028 13.6653C30.1419 13.392 30.1028 13.1187 29.9857 12.9234Z" fill="white"/>
<path d="M36.7404 12.1816H35.9986C35.8424 12.1816 35.6862 12.2988 35.6081 12.4549C35.6081 12.4549 35.6081 12.4549 35.6081 12.494C35.6081 12.494 35.6081 12.5721 35.5691 12.6892L34.5539 17.2183C34.5149 17.3354 34.5149 17.4135 34.5149 17.4135C34.4758 17.5697 34.593 17.6868 34.7492 17.7259H35.491C35.6472 17.7259 35.8033 17.6087 35.8814 17.4526C35.8814 17.4526 35.8814 17.4526 35.8814 17.4135L36.9747 12.4549C37.0137 12.2988 36.8966 12.1816 36.7404 12.1816Z" fill="white"/>
<path d="M37.8335 13.1577C37.7945 13.1577 37.7945 13.1577 37.7554 13.1577C37.7164 13.1577 37.7164 13.1577 37.6773 13.1577C37.5992 13.1577 37.5211 13.1187 37.4821 13.0796C37.4431 13.0406 37.404 12.9625 37.404 12.8844V12.4549H37.3259V12.3378H37.404V12.1426H37.5211V12.3768H37.7945V12.494H37.5211V12.8454C37.5211 12.8844 37.5211 12.9235 37.5211 12.9235C37.5211 12.9625 37.5211 12.9625 37.5602 13.0015L37.5992 13.0406C37.5992 13.0406 37.6383 13.0406 37.6773 13.0406C37.7164 13.0406 37.7164 13.0406 37.7554 13.0406C37.7945 13.0406 37.7945 13.0406 37.7945 13.0406V13.1577H37.8335Z" fill="white"/>
<path d="M39.1611 13.1588H39.044V12.6902C39.044 12.6512 39.044 12.6122 39.044 12.5731C39.044 12.5341 39.044 12.5341 39.0049 12.495C39.0049 12.456 38.9659 12.456 38.9659 12.456C38.9268 12.456 38.9268 12.456 38.8878 12.456C38.8487 12.456 38.8097 12.456 38.7707 12.495C38.7316 12.495 38.6926 12.5341 38.6535 12.5731V12.6122V12.6512V13.1588H38.5364V12.6902C38.5364 12.6512 38.5364 12.6122 38.5364 12.5731C38.5364 12.5341 38.5364 12.5341 38.5364 12.495C38.5364 12.456 38.4974 12.456 38.4974 12.456C38.4583 12.456 38.4583 12.456 38.4193 12.456C38.3802 12.456 38.3412 12.456 38.3021 12.495C38.2631 12.495 38.224 12.5341 38.185 12.5731V13.1588H38.0679V12.3779H38.185V12.456C38.224 12.4169 38.2631 12.3779 38.3021 12.3779C38.3412 12.3779 38.3802 12.3389 38.4193 12.3389C38.4583 12.3389 38.5364 12.3389 38.5754 12.3779C38.6145 12.4169 38.6535 12.4169 38.6535 12.456C38.6926 12.4169 38.7707 12.3779 38.8097 12.3389C38.8487 12.2998 38.8878 12.2998 38.9659 12.2998C39.044 12.2998 39.1221 12.3389 39.1611 12.3779C39.2001 12.4169 39.2392 12.495 39.2392 12.6122V13.1588H39.1611Z" fill="white"/>
</svg>
