<svg width="50" height="32" viewBox="0 0 50 32" fill="none" xmlns="http://www.w3.org/2000/svg">
<path d="M49.9602 29.5618C49.9602 30.4781 49.2032 31.2351 48.2869 31.2351H1.67331C0.756972 31.2351 0 30.4781 0 29.5618V1.67331C0 0.756972 0.756972 0 1.67331 0H48.3267C49.243 0 50 0.756972 50 1.67331V29.5618H49.9602Z" fill="#3957A7"/>
<path d="M22.9881 20.3184H20.5579L22.0718 10.916H24.5419L22.9881 20.3184Z" fill="white"/>
<path d="M18.4861 10.916L16.1753 17.3702L15.8964 15.9758L15.0598 11.7527C15.0598 11.7527 14.9402 10.916 13.9044 10.916H10.0398L10 11.0754C10 11.0754 11.1952 11.3144 12.5498 12.1511L14.7012 20.3184H17.251L21.1155 10.916H18.4861Z" fill="white"/>
<path d="M37.6892 20.3186H39.9203L37.9681 10.9561H36.0159C35.0996 10.9561 34.9004 11.6732 34.9004 11.6732L31.2749 20.3186H33.8247L34.3426 18.9242H37.4502L37.6892 20.3186ZM35.0199 16.972L36.2948 13.466L37.012 16.972H35.0199Z" fill="white"/>
<path d="M31.4342 13.1881L31.7928 11.1562C31.7928 11.1562 30.7171 10.7578 29.6016 10.7578C28.4063 10.7578 25.498 11.2757 25.498 13.8654C25.498 16.2957 28.8844 16.3355 28.8844 17.5706C28.8844 18.8455 25.8565 18.6064 24.8605 17.8096L24.502 19.9212C24.502 19.9212 25.5777 20.4391 27.251 20.4391C28.9243 20.4391 31.4342 19.5626 31.4342 17.212C31.4342 14.7817 28.0079 14.5427 28.0079 13.5068C28.0478 12.471 30.3984 12.6303 31.4342 13.1881Z" fill="white"/>
<path d="M15.8964 15.9758L15.0598 11.7527C15.0598 11.7527 14.9402 10.916 13.9044 10.916H10.0398L10 11.0754C10 11.0754 11.8327 11.4738 13.6255 12.908C15.3386 14.2626 15.8964 15.9758 15.8964 15.9758Z" fill="#F9A533"/>
</svg>
