<svg width="50" height="32" viewBox="0 0 50 32" fill="none" xmlns="http://www.w3.org/2000/svg">
<path d="M50 29.5618C50 30.4781 49.243 31.2351 48.3267 31.2351H1.6733C0.756965 31.2351 0 30.4781 0 29.5618V1.67331C0 0.756971 0.756965 0 1.6733 0H48.3267C49.243 0 50 0.756971 50 1.67331V29.5618Z" fill="#084D95"/>
<path d="M30.7173 25.9367C30.6774 25.9367 30.6376 25.9367 30.5978 25.9367C29.4026 25.857 28.4862 24.861 28.5261 23.6259C28.9245 15.618 22.5898 11.9925 22.55 11.9925C21.5141 11.3949 21.1157 10.0801 21.6735 9.04427C22.2312 7.96857 23.5858 7.61001 24.6217 8.16777C24.9802 8.36698 33.4265 13.1479 32.8687 23.865C32.8289 25.0204 31.8727 25.9367 30.7173 25.9367Z" fill="url(#paint0_linear_758_32613)"/>
<path d="M23.3069 23.3856C22.1515 23.3856 21.1953 22.5489 21.1953 21.3537C21.2351 16.6924 16.4144 14.0629 16.3746 14.0629C15.3387 13.5051 14.9802 12.2701 15.5379 11.2342C16.0957 10.1983 17.3706 9.83978 18.4065 10.3976C18.6853 10.5569 25.4582 14.2222 25.4184 21.3936C25.4184 22.5489 24.4622 23.3856 23.3069 23.3856Z" fill="url(#paint1_linear_758_32613)"/>
<path d="M30.7172 25.936C30.3984 25.936 30.0797 25.8563 29.8008 25.7368C28.6853 25.2188 28.2072 23.9041 28.7251 22.8284C32.2311 15.179 28.8845 8.60529 28.8447 8.52561C28.2869 7.44991 28.6853 6.13517 29.761 5.53756C30.8367 4.97979 32.1514 5.37819 32.749 6.45389C32.9482 6.81246 37.1315 15.0595 32.7092 24.6212C32.3506 25.4579 31.5538 25.936 30.7172 25.936Z" fill="url(#paint2_linear_758_32613)"/>
<path d="M23.3068 23.5853C22.9084 23.5853 22.4702 23.4658 22.1116 23.1869C21.1554 22.5096 20.9164 21.1949 21.5937 20.2785C24.2232 16.5335 21.6335 10.9558 21.5937 10.916C21.0758 9.88011 21.514 8.60521 22.5499 8.08728C23.5857 7.56935 24.8606 8.00759 25.3785 9.04345C25.5379 9.36218 29.1236 16.8522 25.02 22.669C24.6216 23.2666 23.9841 23.5853 23.3068 23.5853Z" fill="url(#paint3_linear_758_32613)"/>
<defs>
<linearGradient id="paint0_linear_758_32613" x1="31.154" y1="15.1467" x2="24.7638" y2="17.9918" gradientUnits="userSpaceOnUse">
<stop stop-color="#FFCC00"/>
<stop offset="1" stop-color="#CC9900"/>
</linearGradient>
<linearGradient id="paint1_linear_758_32613" x1="17.1157" y1="11.3779" x2="24.3798" y2="21.3079" gradientUnits="userSpaceOnUse">
<stop stop-color="#6699CC"/>
<stop offset="1" stop-color="#3366CC"/>
</linearGradient>
<linearGradient id="paint2_linear_758_32613" x1="31.6056" y1="5.31258" x2="31.6056" y2="25.9436" gradientUnits="userSpaceOnUse">
<stop stop-color="#57B149"/>
<stop offset="1" stop-color="#39823E"/>
</linearGradient>
<linearGradient id="paint3_linear_758_32613" x1="24.1089" y1="7.86246" x2="24.1089" y2="23.5668" gradientUnits="userSpaceOnUse">
<stop stop-color="#DE1F26"/>
<stop offset="1" stop-color="#CC0000"/>
</linearGradient>
</defs>
</svg>
