<svg width="251" height="144" viewBox="0 0 251 144" fill="none" xmlns="http://www.w3.org/2000/svg">
<path d="M5.30068 118.823C-6.28146 97.2986 4.43248 70.6472 23.737 60.3109C38.071 52.6362 55.1115 53.1172 70.3252 58.291C75.9632 35.945 90.6625 16.5227 109.705 7.01928C128.748 -2.4841 151.8 -1.70626 170.061 9.53456C188.323 20.7745 201.229 42.355 203.017 65.4788C219.368 62.414 237.5 70.4775 245.78 86.4503C254.061 102.424 250.375 125.415 236.557 135.606C226.826 142.784 215.3 143.107 203.622 143.146C177.615 143.233 43.6138 144.336 35.1957 141.992C25.5106 139.294 14.2461 135.448 5.30068 118.823Z" fill="#FBB03B"/>
<path d="M114.359 143.946C75.9674 143.946 39.3716 143.639 35.0714 142.442C24.6002 139.524 13.6448 135.314 4.89029 119.044C-0.327554 109.347 -1.36524 97.9175 1.96767 86.8602C5.4906 75.1727 13.3452 65.346 23.5172 59.8994C36.6665 52.8599 53.1543 52.0795 69.9979 57.6886C75.8332 35.1198 90.5703 16.0474 109.497 6.60201C128.809 -3.0351 152.109 -2.06386 170.306 9.13718C179.367 14.7139 187.255 22.9007 193.119 32.8129C198.931 42.6373 202.495 53.7308 203.441 64.9285C211.441 63.544 220.009 64.7723 227.626 68.4042C235.729 72.2678 242.15 78.4341 246.195 86.2358C250.239 94.0362 251.595 103.893 249.915 113.278C248.18 122.977 243.534 131.04 236.835 135.982C227.348 142.979 216.639 143.568 203.624 143.612C200.178 143.624 194.835 143.653 188.14 143.69C169.996 143.79 141.721 143.946 114.359 143.946ZM48.1817 54.9175C39.4156 54.9175 31.1721 56.8591 23.9576 60.7221C14.0022 66.0525 6.31288 75.6773 2.86083 87.1293C-0.400134 97.9478 0.611947 109.125 5.71172 118.602C14.2925 134.549 25.0443 138.68 35.3218 141.543C42.561 143.559 144.574 142.997 188.135 142.757C194.831 142.72 200.174 142.691 203.621 142.679C216.463 142.636 227.022 142.06 236.281 135.231C249.484 125.492 253.73 102.798 245.367 86.6651C237.522 71.5344 219.747 62.8199 203.104 65.9372C202.974 65.9628 202.839 65.93 202.734 65.8491C202.629 65.7685 202.563 65.6469 202.552 65.5148C200.779 42.5662 188.235 21.268 169.817 9.93153C151.893 -1.10193 128.939 -2.05709 109.914 7.43656C91.0906 16.8303 76.4604 35.8836 70.7779 58.4046C70.7459 58.5314 70.6628 58.6383 70.5483 58.7007C70.4342 58.7627 70.2982 58.7745 70.1754 58.7322C62.6852 56.1854 55.2627 54.9175 48.1817 54.9175Z" fill="black"/>
<path d="M132.031 98.8805L109.558 121.365L87.084 98.8805H98.7986V46.9964H120.316V98.8805H132.031Z" fill="white"/>
<path d="M137.731 65.8369L160.205 43.3523L182.678 65.8369H170.964V117.721H149.446V65.8369H137.731Z" fill="white"/>
<path d="M106.707 122.529C106.583 122.529 106.464 122.479 106.377 122.392L83.9031 99.9074C83.7698 99.7739 83.73 99.5735 83.8021 99.399C83.8743 99.2244 84.0444 99.111 84.2332 99.111H95.4812V47.6934C95.4812 47.4355 95.69 47.2271 95.9475 47.2271H117.465C117.723 47.2271 117.932 47.4357 117.932 47.6934V99.1112H129.18C129.369 99.1112 129.539 99.2246 129.611 99.3992C129.683 99.5737 129.644 99.7741 129.51 99.9077L107.037 122.392C106.949 122.479 106.83 122.529 106.707 122.529ZM85.3591 100.044L106.707 121.402L128.054 100.044H117.466C117.208 100.044 116.999 99.8355 116.999 99.5778V48.16H96.4141V99.5778C96.4141 99.8357 96.2053 100.044 95.9475 100.044H85.3591Z" fill="black"/>
<path d="M168.113 118.885H146.595C146.338 118.885 146.129 118.676 146.129 118.418V67.0005H134.881C134.692 67.0005 134.522 66.8871 134.45 66.7125C134.377 66.5381 134.417 66.3375 134.551 66.204L157.024 43.7196C157.2 43.5446 157.509 43.5446 157.684 43.7196L180.158 66.204C180.291 66.3375 180.331 66.5379 180.259 66.7125C180.186 66.8871 180.016 67.0005 179.828 67.0005H168.58V118.418C168.58 118.676 168.371 118.885 168.113 118.885ZM147.062 117.952H167.647V66.5341C167.647 66.2762 167.856 66.0675 168.113 66.0675H178.702L157.354 44.7097L136.006 66.0675H146.595C146.853 66.0675 147.062 66.2762 147.062 66.5341V117.952H147.062Z" fill="black"/>
</svg>
