<svg width="388" height="369" viewBox="0 0 388 369" fill="none" xmlns="http://www.w3.org/2000/svg">
<path d="M387.161 330.419H225.366C225.108 330.419 224.899 330.21 224.899 329.952V1.12768C224.899 0.869744 225.108 0.661102 225.366 0.661102H387.161C387.419 0.661102 387.627 0.869744 387.627 1.12768V329.952C387.627 330.21 387.418 330.419 387.161 330.419ZM225.832 329.486H386.694V1.59426H225.832V329.486Z" fill="white"/>
<path d="M369.433 59.1332H243.094C242.836 59.1332 242.627 58.9245 242.627 58.6666V24.4073C242.627 24.1496 242.836 23.9409 243.094 23.9409H369.433C369.691 23.9409 369.899 24.1496 369.899 24.4073V58.6668C369.899 58.9245 369.691 59.1332 369.433 59.1332ZM243.56 58.2002H368.967V24.8736H243.56V58.2002Z" fill="white"/>
<path d="M369.433 107.875H243.094C242.836 107.875 242.627 107.667 242.627 107.409V73.1496C242.627 72.8916 242.836 72.683 243.094 72.683H369.433C369.691 72.683 369.899 72.8916 369.899 73.1496V107.409C369.899 107.667 369.691 107.875 369.433 107.875ZM243.56 106.942H368.967V73.6159H243.56V106.942Z" fill="white"/>
<path d="M369.433 156.618H243.094C242.836 156.618 242.627 156.409 242.627 156.151V121.892C242.627 121.634 242.836 121.425 243.094 121.425H369.433C369.691 121.425 369.899 121.634 369.899 121.892V156.151C369.899 156.409 369.691 156.618 369.433 156.618ZM243.56 155.685H368.967V122.358H243.56V155.685Z" fill="white"/>
<path d="M369.433 205.36H243.094C242.836 205.36 242.627 205.151 242.627 204.894V170.634C242.627 170.376 242.836 170.167 243.094 170.167H369.433C369.691 170.167 369.899 170.376 369.899 170.634V204.894C369.899 205.151 369.691 205.36 369.433 205.36ZM243.56 204.427H368.967V171.1H243.56V204.427Z" fill="white"/>
<path d="M369.433 254.102H243.094C242.836 254.102 242.627 253.894 242.627 253.636V219.376C242.627 219.118 242.836 218.909 243.094 218.909H369.433C369.691 218.909 369.899 219.118 369.899 219.376V253.636C369.899 253.894 369.691 254.102 369.433 254.102ZM243.56 253.169H368.967V219.842H243.56V253.169Z" fill="white"/>
<path d="M369.433 302.845H243.094C242.836 302.845 242.627 302.636 242.627 302.378V268.118C242.627 267.86 242.836 267.652 243.094 267.652H369.433C369.691 267.652 369.899 267.86 369.899 268.118V302.378C369.899 302.636 369.691 302.845 369.433 302.845ZM243.56 301.912H368.967V268.585H243.56V301.912Z" fill="white"/>
<path d="M254.574 33.4113H249.962V52.5177H254.574V33.4113Z" fill="white"/>
<path d="M263.431 37.657H258.819V52.5177H263.431V37.657Z" fill="white"/>
<path d="M272.29 33.4113H267.678V52.5177H272.29V33.4113Z" fill="white"/>
<path d="M281.147 37.657H276.535V52.5177H281.147V37.657Z" fill="white"/>
<path d="M290.115 33.4113H285.503V52.5177H290.115V33.4113Z" fill="white"/>
<path d="M298.972 37.657H294.36V52.5177H298.972V37.657Z" fill="white"/>
<path d="M307.831 33.4113H303.219V52.5177H307.831V33.4113Z" fill="white"/>
<path d="M316.688 37.657H312.076V52.5177H316.688V37.657Z" fill="white"/>
<path d="M325.509 33.4113H320.897V52.5177H325.509V33.4113Z" fill="white"/>
<path d="M334.367 37.657H329.755V52.5177H334.367V37.657Z" fill="white"/>
<path d="M343.225 33.4113H338.613V52.5177H343.225V33.4113Z" fill="white"/>
<path d="M352.083 37.657H347.471V52.5177H352.083V37.657Z" fill="white"/>
<path d="M360.941 37.657H356.329V52.5177H360.941V37.657Z" fill="white"/>
<path d="M254.574 81.8728H249.962V100.979H254.574V81.8728Z" fill="white"/>
<path d="M263.431 86.1187H258.819V100.979H263.431V86.1187Z" fill="white"/>
<path d="M272.29 81.8728H267.678V100.979H272.29V81.8728Z" fill="white"/>
<path d="M281.147 86.1187H276.535V100.979H281.147V86.1187Z" fill="white"/>
<path d="M290.115 81.8728H285.503V100.979H290.115V81.8728Z" fill="white"/>
<path d="M298.972 86.1187H294.36V100.979H298.972V86.1187Z" fill="white"/>
<path d="M307.831 81.8728H303.219V100.979H307.831V81.8728Z" fill="white"/>
<path d="M316.688 86.1187H312.076V100.979H316.688V86.1187Z" fill="white"/>
<path d="M325.509 81.8728H320.897V100.979H325.509V81.8728Z" fill="white"/>
<path d="M334.367 86.1187H329.755V100.979H334.367V86.1187Z" fill="white"/>
<path d="M343.225 81.8728H338.613V100.979H343.225V81.8728Z" fill="white"/>
<path d="M352.083 86.1187H347.471V100.979H352.083V86.1187Z" fill="white"/>
<path d="M360.941 86.1187H356.329V100.979H360.941V86.1187Z" fill="white"/>
<path d="M254.574 130.774H249.962V149.88H254.574V130.774Z" fill="white"/>
<path d="M263.431 135.02H258.819V149.88H263.431V135.02Z" fill="white"/>
<path d="M272.29 130.774H267.678V149.88H272.29V130.774Z" fill="white"/>
<path d="M281.147 135.02H276.535V149.88H281.147V135.02Z" fill="white"/>
<path d="M290.115 130.774H285.503V149.88H290.115V130.774Z" fill="white"/>
<path d="M298.972 135.02H294.36V149.88H298.972V135.02Z" fill="white"/>
<path d="M307.831 130.774H303.219V149.88H307.831V130.774Z" fill="white"/>
<path d="M316.688 135.02H312.076V149.88H316.688V135.02Z" fill="white"/>
<path d="M325.509 130.774H320.897V149.88H325.509V130.774Z" fill="white"/>
<path d="M334.367 135.02H329.755V149.88H334.367V135.02Z" fill="white"/>
<path d="M343.225 130.774H338.613V149.88H343.225V130.774Z" fill="white"/>
<path d="M352.083 135.02H347.471V149.88H352.083V135.02Z" fill="white"/>
<path d="M360.941 135.02H356.329V149.88H360.941V135.02Z" fill="white"/>
<path d="M254.574 178.943H249.962V198.049H254.574V178.943Z" fill="white"/>
<path d="M263.431 183.189H258.819V198.049H263.431V183.189Z" fill="white"/>
<path d="M272.29 178.943H267.678V198.049H272.29V178.943Z" fill="white"/>
<path d="M281.147 183.189H276.535V198.049H281.147V183.189Z" fill="white"/>
<path d="M290.115 178.943H285.503V198.049H290.115V178.943Z" fill="white"/>
<path d="M298.972 183.189H294.36V198.049H298.972V183.189Z" fill="white"/>
<path d="M307.831 178.943H303.219V198.049H307.831V178.943Z" fill="white"/>
<path d="M316.688 183.189H312.076V198.049H316.688V183.189Z" fill="white"/>
<path d="M325.509 178.943H320.897V198.049H325.509V178.943Z" fill="white"/>
<path d="M334.367 183.189H329.755V198.049H334.367V183.189Z" fill="white"/>
<path d="M343.225 178.943H338.613V198.049H343.225V178.943Z" fill="white"/>
<path d="M352.083 183.189H347.471V198.049H352.083V183.189Z" fill="white"/>
<path d="M360.941 183.189H356.329V198.049H360.941V183.189Z" fill="white"/>
<path d="M254.574 226.953H249.962V246.059H254.574V226.953Z" fill="white"/>
<path d="M263.431 231.199H258.819V246.059H263.431V231.199Z" fill="white"/>
<path d="M272.29 226.953H267.678V246.059H272.29V226.953Z" fill="white"/>
<path d="M281.147 231.199H276.535V246.059H281.147V231.199Z" fill="white"/>
<path d="M290.115 226.953H285.503V246.059H290.115V226.953Z" fill="white"/>
<path d="M298.972 231.199H294.36V246.059H298.972V231.199Z" fill="white"/>
<path d="M307.831 226.953H303.219V246.059H307.831V226.953Z" fill="white"/>
<path d="M316.688 231.199H312.076V246.059H316.688V231.199Z" fill="white"/>
<path d="M325.509 226.953H320.897V246.059H325.509V226.953Z" fill="white"/>
<path d="M334.367 231.199H329.755V246.059H334.367V231.199Z" fill="white"/>
<path d="M343.225 226.953H338.613V246.059H343.225V226.953Z" fill="white"/>
<path d="M352.083 231.199H347.471V246.059H352.083V231.199Z" fill="white"/>
<path d="M360.941 231.199H356.329V246.059H360.941V231.199Z" fill="white"/>
<path d="M254.574 274.963H249.962V294.069H254.574V274.963Z" fill="white"/>
<path d="M263.431 279.209H258.819V294.069H263.431V279.209Z" fill="white"/>
<path d="M272.29 274.963H267.678V294.069H272.29V274.963Z" fill="white"/>
<path d="M281.147 279.209H276.535V294.069H281.147V279.209Z" fill="white"/>
<path d="M290.115 274.963H285.503V294.069H290.115V274.963Z" fill="white"/>
<path d="M298.972 279.209H294.36V294.069H298.972V279.209Z" fill="white"/>
<path d="M307.831 274.963H303.219V294.069H307.831V274.963Z" fill="white"/>
<path d="M316.688 279.209H312.076V294.069H316.688V279.209Z" fill="white"/>
<path d="M325.509 274.963H320.897V294.069H325.509V274.963Z" fill="white"/>
<path d="M334.367 279.209H329.755V294.069H334.367V279.209Z" fill="white"/>
<path d="M343.225 274.963H338.613V294.069H343.225V274.963Z" fill="white"/>
<path d="M352.083 279.209H347.471V294.069H352.083V279.209Z" fill="white"/>
<path d="M360.941 279.209H356.329V294.069H360.941V279.209Z" fill="white"/>
<path d="M203.661 296.804H17.9642C8.49661 296.804 0.793945 289.102 0.793945 279.634V167.619C0.793945 158.152 8.49661 150.449 17.9642 150.449H203.661C213.129 150.449 220.832 158.152 220.832 167.619V279.634C220.832 289.102 213.129 296.804 203.661 296.804ZM17.9642 151.382C9.01079 151.382 1.72689 158.666 1.72689 167.619V279.634C1.72689 288.587 9.01079 295.871 17.9642 295.871H203.661C212.614 295.871 219.899 288.587 219.899 279.634V167.619C219.899 158.666 212.614 151.382 203.661 151.382H17.9642Z" fill="white"/>
<path d="M220.31 270.452H1.315C1.05748 270.452 0.848633 270.243 0.848633 269.985C0.848633 269.727 1.05748 269.519 1.315 269.519H220.31C220.568 269.519 220.777 269.727 220.777 269.985C220.777 270.243 220.568 270.452 220.31 270.452Z" fill="white"/>
<path d="M147.616 335.162H74.0086C73.8712 335.162 73.7407 335.101 73.652 334.996C73.5633 334.891 73.5257 334.753 73.5485 334.617L80.0618 296.26C80.0999 296.035 80.2941 295.871 80.5216 295.871H141.102C141.33 295.871 141.524 296.035 141.562 296.26L148.076 334.617C148.099 334.753 148.061 334.891 147.972 334.996C147.884 335.101 147.753 335.162 147.616 335.162ZM74.5608 334.229H147.063L140.708 296.804H80.9158L74.5608 334.229Z" fill="white"/>
<path d="M157.52 342.615H64.1066C61.797 342.615 59.918 340.736 59.918 338.427C59.918 336.107 61.797 334.229 64.1066 334.229H157.52C159.829 334.229 161.708 336.107 161.708 338.417C161.708 340.736 159.829 342.615 157.52 342.615ZM64.1066 335.162C62.3116 335.162 60.8511 336.622 60.8511 338.417C60.8511 340.221 62.3116 341.682 64.1066 341.682H157.52C159.315 341.682 160.775 340.221 160.775 338.426C160.775 336.622 159.315 335.161 157.52 335.161L64.1066 335.162Z" fill="white"/>
<path d="M110.812 286.79C108.923 286.79 107.386 285.25 107.386 283.356C107.386 281.463 108.923 279.922 110.812 279.922C112.702 279.922 114.239 281.463 114.239 283.356C114.239 285.25 112.702 286.79 110.812 286.79ZM110.812 280.855C109.437 280.855 108.319 281.977 108.319 283.356C108.319 284.735 109.437 285.857 110.812 285.857C112.187 285.857 113.306 284.735 113.306 283.356C113.305 281.977 112.187 280.855 110.812 280.855Z" fill="white"/>
<path d="M276.896 240.361V264.624H303.476V240.361H276.896Z" fill="#020202"/>
<path d="M291.332 267.451L291.757 267.931C296.621 273.433 301.546 274.135 309.205 277.931L325.457 249.872L334.02 205.09L330.882 196.619L324.057 198.075L311.428 221.434L297.587 236.576L291.7 239.159L290.856 243.892L293.856 248.526L298.483 249.351C300.371 254.322 301.508 255.365 301.11 257.596C301.087 257.641 300.794 261.441 297.012 261.995L293.12 262.564C290.795 262.905 289.776 265.69 291.332 267.451Z" fill="#4ADA85"/>
<path d="M330.882 196.619L330.919 199.474C331.018 207.2 330.241 214.911 328.604 222.462L327.95 225.481C324.677 240.573 319.742 255.256 313.234 269.261L309.205 277.932L312.501 283.185L322.47 286.916L329.886 275.758C329.886 275.758 331.479 267.064 333.486 256.028L331.292 252.881L332.03 248.74L335.212 246.521C338.336 229.27 341.65 210.748 341.512 210.549C341.253 210.177 338.201 199.596 338.201 199.596L335.361 197.417L330.882 196.619Z" fill="#020202"/>
<path d="M303.335 238.933C303.158 238.933 302.989 238.832 302.91 238.66L300.371 233.102C300.264 232.868 300.367 232.591 300.602 232.484C300.835 232.377 301.112 232.48 301.22 232.715L303.758 238.273C303.865 238.507 303.762 238.783 303.528 238.891C303.465 238.919 303.399 238.933 303.335 238.933Z" fill="black"/>
<path d="M306.968 235.169C306.791 235.169 306.622 235.068 306.544 234.896L304.005 229.338C303.898 229.104 304.001 228.827 304.236 228.72C304.468 228.613 304.746 228.716 304.853 228.951L307.392 234.509C307.499 234.743 307.396 235.019 307.162 235.126C307.099 235.155 307.033 235.169 306.968 235.169Z" fill="black"/>
<path d="M310.602 231.404C310.425 231.404 310.256 231.303 310.178 231.131L307.639 225.573C307.532 225.339 307.635 225.062 307.869 224.955C308.102 224.848 308.38 224.951 308.487 225.186L311.026 230.744C311.133 230.978 311.03 231.255 310.795 231.362C310.733 231.391 310.667 231.404 310.602 231.404Z" fill="black"/>
<path d="M273.81 311.689L258.245 330.301L278.635 347.353L294.2 328.74L273.81 311.689Z" fill="#020202"/>
<path d="M264.899 328.648L264.501 329.15C259.938 334.904 260.111 339.876 257.718 348.082L288.194 359.159L333.784 359.73L341.573 355.154L338.941 348.691L313.729 340.357L296.393 329.388L292.816 324.046L288.009 324.046L283.973 327.811L283.973 332.512C279.41 335.243 278.583 336.545 276.317 336.545C276.268 336.53 272.476 336.909 271.267 333.283L270.024 329.55C269.28 327.321 266.36 326.806 264.899 328.648Z" fill="#4ADA85"/>
<path d="M341.573 355.154L338.768 355.691C331.18 357.144 323.451 357.733 315.731 357.446L308.901 357.193C295.956 356.712 283.105 354.797 270.582 351.485L257.718 348.082L253.124 352.248L251.2 362.718L263.486 368.06C263.486 368.06 272.325 368.104 283.542 368.143L286.255 365.431L290.462 365.431L293.204 368.173L329.723 368.063L339.926 362.882L341.572 359.704L341.573 355.154Z" fill="#020202"/>
<path d="M295.54 335.844C295.392 335.844 295.246 335.774 295.156 335.643C295.009 335.431 295.063 335.14 295.275 334.994L300.301 331.519C300.512 331.372 300.804 331.425 300.95 331.638C301.097 331.85 301.043 332.141 300.831 332.287L295.805 335.761C295.724 335.817 295.632 335.844 295.54 335.844Z" fill="black"/>
<path d="M299.884 338.761C299.736 338.761 299.59 338.691 299.5 338.559C299.353 338.348 299.406 338.057 299.618 337.911L304.645 334.436C304.856 334.289 305.148 334.342 305.294 334.554C305.44 334.766 305.387 335.057 305.175 335.203L300.149 338.678C300.068 338.734 299.975 338.761 299.884 338.761Z" fill="black"/>
<path d="M304.228 341.677C304.079 341.677 303.934 341.607 303.844 341.476C303.697 341.264 303.75 340.973 303.962 340.827L308.989 337.353C309.199 337.206 309.491 337.258 309.637 337.471C309.784 337.683 309.731 337.974 309.519 338.12L304.492 341.594C304.412 341.65 304.319 341.677 304.228 341.677Z" fill="black"/>
<path d="M279.915 304.853L208.093 246.956L146.028 309H116.091V362.167H123.95C135.93 362.167 147.42 357.411 155.894 348.943L208.375 296.503L255.575 334.525L279.915 304.853Z" fill="#FED101"/>
<path d="M208.364 296.961C208.262 296.961 208.158 296.927 208.072 296.857L199.4 289.871C199.199 289.71 199.167 289.416 199.329 289.216C199.49 289.015 199.783 288.982 199.984 289.145L208.657 296.131C208.858 296.292 208.889 296.586 208.728 296.787C208.636 296.902 208.501 296.961 208.364 296.961Z" fill="black"/>
<path d="M280.772 235.023L181.905 235.155C174.703 235.165 167.8 238.03 162.708 243.123L117.118 288.712H100.043V318.312H125.607C132.94 318.312 139.973 315.399 145.159 310.213L180.402 274.97C183.549 271.822 187.819 270.054 192.27 270.054H280.772L280.772 235.023Z" fill="#FED101"/>
<path d="M191.547 235.142L181.905 235.154C174.704 235.165 167.8 238.03 162.708 243.123L157.94 247.89C162.886 249.283 169.364 248.996 175.91 246.707C183.125 244.183 188.76 239.808 191.547 235.142Z" fill="#FCB503"/>
<path d="M125.454 318.733H124.429C124.172 318.733 123.963 318.524 123.963 318.267C123.963 318.009 124.172 317.8 124.429 317.8H125.454C132.843 317.8 139.79 314.923 145.014 309.698L180.063 274.649C183.328 271.385 187.668 269.587 192.284 269.587H280.306V235.489L181.906 235.62C174.779 235.631 168.078 238.412 163.038 243.452L146.397 260.094C146.215 260.276 145.92 260.276 145.737 260.094C145.555 259.911 145.555 259.616 145.737 259.434L162.379 242.793C167.594 237.577 174.529 234.699 181.905 234.688L280.772 234.556C280.895 234.556 281.015 234.605 281.102 234.692C281.19 234.78 281.239 234.898 281.239 235.022V270.054C281.239 270.312 281.03 270.52 280.773 270.52H192.285C187.918 270.52 183.812 272.221 180.723 275.309L145.675 310.358C140.273 315.759 133.092 318.733 125.454 318.733Z" fill="black"/>
<path d="M50.8579 242.564C59.2093 242.564 65.9795 235.932 65.9795 227.751C65.9795 219.57 59.2093 212.938 50.8579 212.938C42.5065 212.938 35.7363 219.57 35.7363 227.751C35.7363 235.932 42.5065 242.564 50.8579 242.564Z" fill="black"/>
<path d="M55.1103 240.387H43.4434V255.082H55.1103V240.387Z" fill="#FDA4FF"/>
<path d="M43.4434 244.81V240.387H55.1103V250.15C54.0572 250.36 51.9588 250.624 49.5486 249.83C45.7767 248.587 43.925 245.637 43.4434 244.81Z" fill="black"/>
<path d="M50.858 247.312C56.0403 247.312 60.2414 242.669 60.2414 236.941C60.2414 231.213 56.0403 226.57 50.858 226.57C45.6757 226.57 41.4746 231.213 41.4746 236.941C41.4746 242.669 45.6757 247.312 50.858 247.312Z" fill="#FDA4FF"/>
<path d="M46.8418 241.442C47.7487 242.273 48.9165 242.834 50.2346 242.968C53.1729 243.267 55.821 241.359 56.5496 238.59L46.8418 241.442Z" fill="white"/>
<path d="M119.567 286.263L117.118 288.712H100.043L116.091 362.167H123.95C130.119 362.167 136.157 360.903 141.721 358.523L119.567 286.263Z" fill="#020202"/>
<path d="M130.448 221.616L135.295 197.317C135.295 197.317 134.199 192.615 138.679 189.197C139.717 188.405 141.997 186.963 143.934 185.769C146.138 184.411 148.151 182.766 149.924 180.88L151.957 178.719C152.978 177.633 154.675 177.545 155.803 178.52L156.043 178.728C157.186 179.717 157.331 181.437 156.37 182.602L150.172 190.115L154.577 191.824C156.835 192.699 159.293 192.928 161.674 192.486L171.325 190.888C172.929 190.622 174.483 191.581 174.966 193.134L175.048 193.399L180.137 192.029C181.648 191.675 183.17 192.571 183.593 194.064C184.01 195.53 183.221 197.069 181.787 197.586L150.527 208.856L147.31 224.98L130.448 221.616Z" fill="#FDA4FF"/>
<path d="M147.31 225.447C147.28 225.447 147.249 225.443 147.219 225.437L130.357 222.074C130.104 222.023 129.94 221.778 129.991 221.525L134.819 197.319C134.675 196.567 134.047 192.143 138.396 188.826C139.476 188.002 141.87 186.493 143.689 185.372C145.854 184.037 147.837 182.419 149.584 180.561L151.617 178.4C152.813 177.127 154.786 177.025 156.107 178.167L156.348 178.375C157.694 179.54 157.861 181.527 156.729 182.899L150.942 189.914L154.746 191.389C156.924 192.234 159.291 192.454 161.588 192.027L171.248 190.427C173.017 190.132 174.751 191.162 175.356 192.832L180.015 191.578C181.788 191.162 183.55 192.199 184.042 193.936C184.523 195.631 183.602 197.427 181.945 198.024L150.932 209.206L147.767 225.071C147.743 225.193 147.672 225.299 147.569 225.368C147.492 225.42 147.402 225.447 147.31 225.447ZM130.997 221.25L146.944 224.431L150.069 208.765C150.101 208.605 150.215 208.473 150.368 208.418L181.628 197.147C182.827 196.715 183.493 195.416 183.145 194.191C182.789 192.934 181.515 192.185 180.243 192.483L175.169 193.849C174.928 193.915 174.677 193.776 174.602 193.537L174.52 193.271C174.109 191.948 172.77 191.12 171.401 191.347L161.75 192.945C159.29 193.403 156.749 193.166 154.409 192.258L150.003 190.549C149.863 190.495 149.758 190.377 149.72 190.232C149.683 190.088 149.717 189.933 149.812 189.818L156.01 182.305C156.817 181.327 156.698 179.911 155.738 179.081L155.498 178.873C154.555 178.058 153.15 178.131 152.297 179.038L150.264 181.199C148.461 183.117 146.414 184.788 144.179 186.166C141.597 187.757 139.793 188.934 138.962 189.568C134.77 192.765 135.739 197.167 135.75 197.211C135.765 197.276 135.766 197.343 135.752 197.408L130.997 221.25Z" fill="black"/>
<path d="M153.435 199.098L156.03 197.981C157.679 197.271 159.087 196.097 160.083 194.603L165.535 186.418C166.319 185.24 167.903 184.911 169.091 185.678C170.223 186.408 170.605 187.884 169.971 189.071L164.781 198.785C164.361 199.57 163.789 200.263 163.097 200.823L159.37 203.838L153.435 199.098Z" fill="#FDA4FF"/>
<path d="M160.203 195.909L162.947 195.237C164.692 194.809 166.274 193.884 167.503 192.575L174.233 185.404C175.201 184.372 176.818 184.309 177.863 185.262C178.858 186.169 178.992 187.688 178.169 188.754L171.445 197.476C170.901 198.181 170.222 198.77 169.447 199.207L165.273 201.566L160.203 195.909Z" fill="#FDA4FF"/>
<path d="M169.448 199.674C169.285 199.674 169.127 199.589 169.041 199.437C168.915 199.212 168.994 198.928 169.218 198.801C169.942 198.392 170.568 197.85 171.075 197.192L177.8 188.47C178.468 187.602 178.358 186.345 177.549 185.607C176.697 184.831 175.362 184.883 174.573 185.723L169.429 191.251C169.253 191.44 168.958 191.45 168.77 191.275C168.581 191.099 168.57 190.804 168.746 190.615L173.892 185.086C175.029 183.874 176.951 183.799 178.177 184.917C179.343 185.98 179.502 187.79 178.539 189.039L171.814 197.761C171.229 198.519 170.51 199.143 169.677 199.614C169.604 199.654 169.526 199.674 169.448 199.674Z" fill="black"/>
<path d="M161.76 202.976C161.623 202.976 161.487 202.916 161.395 202.8C161.235 202.599 161.268 202.305 161.469 202.145C163.05 200.884 164.362 199.262 165.265 197.454L169.554 188.863C170.076 187.886 169.759 186.664 168.839 186.07C167.871 185.444 166.563 185.717 165.923 186.677L160.471 194.861C159.423 196.435 157.951 197.663 156.214 198.41L150.703 200.307C150.46 200.391 150.194 200.262 150.11 200.018C150.027 199.774 150.156 199.509 150.4 199.425L155.878 197.54C157.416 196.877 158.747 195.768 159.695 194.344L165.147 186.159C166.067 184.777 167.95 184.386 169.344 185.286C170.67 186.141 171.126 187.9 170.382 189.291L166.099 197.871C165.136 199.799 163.736 201.529 162.051 202.873C161.965 202.942 161.862 202.976 161.76 202.976Z" fill="black"/>
<path d="M148.369 192.739C148.263 192.739 148.157 192.703 148.07 192.63C147.872 192.464 147.846 192.171 148.011 191.973L149.908 189.706C150.073 189.508 150.367 189.482 150.565 189.648C150.762 189.813 150.789 190.107 150.623 190.304L148.727 192.571C148.634 192.682 148.502 192.739 148.369 192.739Z" fill="black"/>
<path d="M117.123 288.629H115.578C111.098 288.629 106.8 286.855 103.625 283.696L74.6948 254.942H24.0056C11.0055 254.942 0.466797 265.481 0.466797 278.481V281.033L61.1363 341.785C74.4299 355.097 92.4711 362.577 111.284 362.577H133.157L117.123 288.629Z" fill="#8C7BFF"/>
<path d="M154.642 216.63L126.313 211.007L117.584 254.943H64.4688V282.57L120.614 282.562C132.763 282.56 143.219 273.98 145.592 262.066L154.642 216.63Z" fill="#8C7BFF"/>
<path d="M83.6172 337.612L114.483 337.599V362.844L83.6172 362.852V337.612Z" fill="#FDA4FF"/>
<path d="M93.1906 337.608L83.6172 337.612V362.852L96.6158 362.849L93.1906 337.608Z" fill="#020202"/>
<path d="M142.196 345.45L144.935 348.41C146.319 349.905 146.458 352.168 145.267 353.821L142.577 357.555L136.057 350.281H95.0977V341.71H133.635C136.885 341.71 139.988 343.065 142.196 345.45Z" fill="#FDA4FF"/>
<path d="M140.933 340.104L142.483 341.778C143.867 343.273 144.006 345.536 142.815 347.189L140.125 350.924L133.605 343.649H95.0977V337.686H101.633C104.337 337.686 109.16 335.078 115.261 335.078H129.432C133.799 335.078 137.967 336.9 140.933 340.104Z" fill="#FDA4FF"/>
<path d="M145.266 354.287C145.172 354.287 145.077 354.259 144.994 354.199C144.785 354.049 144.738 353.757 144.888 353.549C145.945 352.081 145.821 350.054 144.593 348.727L141.853 345.768C139.741 343.485 136.745 342.176 133.635 342.176H126.095C125.838 342.176 125.629 341.967 125.629 341.709C125.629 341.451 125.838 341.243 126.095 341.243H133.635C137.004 341.243 140.249 342.661 142.538 345.134L145.277 348.093C146.806 349.744 146.961 352.268 145.646 354.094C145.554 354.22 145.411 354.287 145.266 354.287Z" fill="black"/>
<path d="M143.154 351.212L146.44 354.763C147.824 356.258 147.963 358.521 146.772 360.174L144.082 363.908L137.562 356.634H112.186V348.061H135.943C138.68 348.061 141.294 349.203 143.154 351.212Z" fill="#FDA4FF"/>
<path d="M145.724 362.094C145.63 362.094 145.534 362.065 145.452 362.006C145.243 361.855 145.195 361.564 145.346 361.355L146.394 359.901C147.45 358.434 147.326 356.406 146.098 355.08L142.811 351.529C141.046 349.621 138.542 348.527 135.942 348.527H126.026C125.768 348.527 125.56 348.318 125.56 348.061C125.56 347.803 125.768 347.594 126.026 347.594H135.942C138.801 347.594 141.554 348.797 143.496 350.895L146.782 354.446C148.311 356.097 148.466 358.62 147.151 360.446L146.103 361.9C146.012 362.027 145.869 362.094 145.724 362.094Z" fill="black"/>
<path d="M141.952 357.454L145.38 361.158C146.651 362.531 146.778 364.609 145.685 366.128C144.217 368.165 141.241 368.324 139.565 366.454L137.705 364.378C136.816 363.386 135.546 362.819 134.214 362.819H112.906C107.335 362.819 103.414 362.5 98.0459 354.24L134.612 354.247C137.399 354.247 140.059 355.409 141.952 357.454Z" fill="#FDA4FF"/>
<path d="M142.49 368.228C141.239 368.228 140.058 367.703 139.218 366.765L137.357 364.689C136.558 363.797 135.412 363.285 134.214 363.285H110.647C106.391 363.285 102.422 361.18 100.03 357.653C99.8851 357.44 99.9406 357.15 100.154 357.005C100.367 356.86 100.657 356.916 100.802 357.129C103.02 360.4 106.701 362.352 110.647 362.352H134.214C135.677 362.352 137.075 362.977 138.052 364.066L139.912 366.143C140.616 366.927 141.621 367.351 142.678 367.29C143.731 367.234 144.689 366.711 145.306 365.855C146.266 364.522 146.153 362.68 145.037 361.475L141.609 357.771C139.81 355.827 137.26 354.713 134.612 354.713H126.36C126.102 354.713 125.894 354.505 125.894 354.247C125.894 353.989 126.102 353.78 126.36 353.78H134.612C137.519 353.78 140.319 355.004 142.294 357.137L145.722 360.841C147.138 362.37 147.282 364.709 146.063 366.4C145.28 367.486 144.064 368.15 142.728 368.222C142.648 368.226 142.568 368.228 142.49 368.228Z" fill="black"/>
<path d="M118.782 363.322H83.6168C83.3592 363.322 83.1504 363.114 83.1504 362.856V337.613C83.1504 337.355 83.3592 337.147 83.6168 337.147H100.41C102.812 337.147 104.727 336.618 106.756 336.059C109.216 335.38 112.005 334.611 116.207 334.611H129.432C133.915 334.611 138.231 336.498 141.276 339.787L142.826 341.462C144.146 342.888 144.466 344.946 143.64 346.704C143.53 346.937 143.252 347.037 143.019 346.928C142.786 346.818 142.686 346.54 142.795 346.307C143.459 344.895 143.202 343.242 142.141 342.096L140.591 340.422C137.722 337.322 133.655 335.544 129.432 335.544H116.207C112.131 335.544 109.525 336.263 107.003 336.958C104.913 337.535 102.938 338.079 100.409 338.079H84.0829V362.389H118.781C119.039 362.389 119.248 362.598 119.248 362.856C119.248 363.114 119.039 363.322 118.782 363.322Z" fill="black"/>
<path d="M34.9319 333.928V254.943H24.0046C11.0046 254.943 0.46582 265.481 0.46582 278.481V336.213C0.46582 352.104 13.348 364.986 29.2392 364.986H89.4108V333.928H34.9319Z" fill="#8C7BFF"/>
<path d="M0.591797 338.854C1.92593 353.506 14.2392 364.986 29.2393 364.986H31.069C25.0316 352.539 14.0089 342.963 0.591797 338.854Z" fill="#6155FF"/>
<path d="M53.2944 334.399C53.1748 334.399 53.0555 334.353 52.9643 334.262L20.8863 302.14C20.7044 301.958 20.7046 301.663 20.8868 301.48C21.0692 301.299 21.3644 301.298 21.5463 301.481L53.6243 333.602C53.8062 333.785 53.806 334.08 53.6238 334.262C53.5328 334.353 53.4137 334.399 53.2944 334.399Z" fill="black"/>
<path d="M117.123 289.096H115.578C110.943 289.096 106.581 287.295 103.295 284.026L92.8271 273.622C92.6445 273.441 92.6434 273.145 92.825 272.962C93.0071 272.78 93.3021 272.779 93.4847 272.96L103.953 283.365C107.063 286.459 111.191 288.163 115.577 288.163H117.123C117.38 288.163 117.589 288.371 117.589 288.629C117.589 288.887 117.381 289.096 117.123 289.096Z" fill="black"/>
<path d="M65.458 254.853H33.5732C37.381 259.895 43.1086 263.106 49.5156 263.106C55.9229 263.105 61.6502 259.895 65.458 254.853Z" fill="#FDA4FF"/>
<path d="M89.4114 365.453H29.2395C13.1169 365.453 0 352.335 0 336.213V278.481C0 265.245 10.7687 254.476 24.0052 254.476H43.2523C43.5098 254.476 43.7189 254.685 43.7189 254.943C43.7189 255.2 43.51 255.409 43.2523 255.409H24.0052C11.2831 255.409 0.932944 265.759 0.932944 278.481V336.213C0.932944 351.821 13.6313 364.52 29.2395 364.52H88.9448V334.394H34.9324C34.6749 334.394 34.466 334.185 34.466 333.928V315.813C34.466 315.556 34.6749 315.347 34.9324 315.347C35.1899 315.347 35.399 315.556 35.399 315.813V333.461H89.4116C89.6691 333.461 89.8779 333.67 89.8779 333.927V364.986C89.8777 365.244 89.6689 365.453 89.4114 365.453Z" fill="black"/>
<path d="M35.1104 334.394H25.0008C24.7432 334.394 24.5342 334.185 24.5342 333.928C24.5342 333.67 24.743 333.461 25.0008 333.461H35.1104C35.3679 333.461 35.5767 333.67 35.5767 333.928C35.5769 334.185 35.3681 334.394 35.1104 334.394Z" fill="black"/>
<path d="M102.396 283.031C102.138 283.031 101.929 282.822 101.929 282.565C101.929 282.307 102.138 282.098 102.396 282.098L120.615 282.095C132.501 282.093 142.813 273.631 145.135 261.974L154.094 216.996L126.68 211.555L118.042 255.033C117.999 255.252 117.807 255.409 117.585 255.409H55.3318C55.0741 255.409 54.8652 255.2 54.8652 254.943C54.8652 254.685 55.0741 254.476 55.3318 254.476H117.202L125.856 210.916C125.906 210.663 126.15 210.497 126.404 210.549L154.733 216.172C154.855 216.196 154.962 216.267 155.03 216.37C155.099 216.473 155.124 216.6 155.1 216.721L146.05 262.157C143.642 274.249 132.945 283.027 120.615 283.028L102.396 283.031Z" fill="black"/>
<path d="M116.024 263.266C115.994 263.266 115.963 263.263 115.932 263.256C115.68 263.206 115.516 262.961 115.566 262.708L117.131 254.831C117.181 254.578 117.425 254.412 117.679 254.465C117.932 254.515 118.096 254.76 118.046 255.013L116.481 262.89C116.437 263.112 116.242 263.266 116.024 263.266Z" fill="black"/>
</svg>
