<svg width="64" height="43" viewBox="0 0 64 43" fill="none" xmlns="http://www.w3.org/2000/svg">
<path d="M60.5202 16.4129L63.2752 13.6574C54.9407 5.32294 43.8594 0.732925 32.0727 0.732925C20.2855 0.732925 9.20441 5.32296 0.870117 13.6577L3.62515 16.4129C11.2237 8.81436 21.3268 4.62955 32.0727 4.62955C42.8185 4.62955 52.9216 8.81415 60.5202 16.4129Z" fill="#FFC107"/>
<path d="M10.4023 23.1907C16.1908 17.4024 23.8865 14.2146 32.0722 14.2146C40.258 14.2146 47.9537 17.4023 53.742 23.1904L56.497 20.4352C49.973 13.9109 41.2988 10.318 32.0724 10.318C22.8461 10.318 14.1715 13.9112 7.64746 20.4352L10.4023 23.1907Z" fill="#FFC107"/>
<path d="M47.3484 29.585L50.1034 26.8295C45.2874 22.0135 38.8842 19.3613 32.0732 19.3613C25.2618 19.3613 18.8588 22.0138 14.043 26.8298L16.798 29.585C20.8783 25.505 26.3031 23.258 32.0734 23.258C37.8433 23.258 43.2679 25.505 47.3484 29.585Z" fill="#FFC107"/>
<path d="M23.3097 36.0978C28.1412 31.2664 36.0023 31.266 40.8346 36.0978L43.5897 33.3424C37.2395 26.9921 26.9048 26.9914 20.5547 33.3424L23.3097 36.0978Z" fill="#FFC107"/>
<path d="M29.4767 42.2647C30.9086 40.8332 33.2371 40.8337 34.6681 42.2647L37.4231 39.5093C34.4726 36.5593 29.6722 36.5587 26.7217 39.5093L29.4767 42.2647Z" fill="#FFC107"/>
</svg>
