<svg width="60" height="60" viewBox="0 0 60 60" fill="none" xmlns="http://www.w3.org/2000/svg">
<g id="icon">
<path id="Shape" d="M29.8333 0C46.3098 0 59.6667 13.3568 59.6667 29.8333C59.6667 46.3098 46.3098 59.6667 29.8333 59.6667C13.3568 59.6667 0 46.3098 0 29.8333C0 13.3568 13.3568 0 29.8333 0ZM29.8333 3.14035C15.0912 3.14035 3.14035 15.0912 3.14035 29.8333C3.14035 44.5755 15.0912 56.5263 29.8333 56.5263C44.5755 56.5263 56.5263 44.5755 56.5263 29.8333C56.5263 15.0912 44.5755 3.14035 29.8333 3.14035ZM46.6454 13.0213C47.2114 13.5873 47.3134 14.6083 46.6454 15.2419L35.2444 26.6428C35.797 27.5778 36.114 28.6685 36.114 29.8333C36.114 33.3021 33.3021 36.114 29.8333 36.114C26.3646 36.114 23.5526 33.3021 23.5526 29.8333C23.5526 26.3646 26.3646 23.5526 29.8333 23.5526C30.9981 23.5526 32.0888 23.8697 33.0239 24.4222L44.4248 13.0213C45.038 12.4081 46.0322 12.4081 46.6454 13.0213ZM29.8333 26.693C28.099 26.693 26.693 28.099 26.693 29.8333C26.693 31.5677 28.099 32.9737 29.8333 32.9737C31.5677 32.9737 32.9737 31.5677 32.9737 29.8333C32.9737 28.099 31.5677 26.693 29.8333 26.693ZM48.3891 21.3168C49.6067 23.9657 50.2456 26.8559 50.2456 29.8333C50.2456 30.7005 49.5426 31.4035 48.6754 31.4035C47.8083 31.4035 47.1053 30.7005 47.1053 29.8333C47.1053 27.311 46.5652 24.868 45.5358 22.6284C45.1736 21.8405 45.5187 20.9081 46.3066 20.5459C47.0946 20.1838 48.0269 20.5289 48.3891 21.3168ZM29.8333 9.42105C32.8383 9.42105 35.7542 10.0718 38.4226 11.3112C39.2091 11.6765 39.5506 12.6102 39.1853 13.3967C38.82 14.1832 37.8863 14.5246 37.0998 14.1593C34.8437 13.1115 32.379 12.5614 29.8333 12.5614C20.2943 12.5614 12.5614 20.2943 12.5614 29.8333C12.5614 30.7005 11.8584 31.4035 10.9912 31.4035C10.124 31.4035 9.42105 30.7005 9.42105 29.8333C9.42105 18.5599 18.5599 9.42105 29.8333 9.42105Z" fill="#2D3C58"/>
</g>
</svg>
