<svg width="60" height="60" viewBox="0 0 60 60" fill="none" xmlns="http://www.w3.org/2000/svg">
<g id="access-control (1) 1">
<path id="Vector" d="M49.9363 26.0113C50.3378 27.3155 51.5539 28.2661 52.988 28.2661C54.7483 28.2661 56.1804 26.8341 56.1804 25.0738C56.1804 23.3135 54.7483 21.8814 52.988 21.8814C51.554 21.8814 50.3378 22.8321 49.9363 24.1363H43.5284V20.7104H48.8826C49.128 20.7104 49.3635 20.6142 49.5387 20.4425L51.4648 18.5555C51.9179 18.8025 52.4369 18.943 52.9881 18.943C54.7484 18.943 56.1804 17.511 56.1804 15.7507C56.1804 13.9904 54.7483 12.5583 52.9881 12.5583C51.2279 12.5583 49.7957 13.9904 49.7957 15.7507C49.7957 16.2786 49.9253 16.7766 50.1531 17.2157L48.5 18.8353H43.5284V16.9475C43.5284 16.902 43.5266 16.8567 43.525 16.8115L47.2833 15.4209C47.492 15.3437 47.6666 15.1948 47.7755 15.0007L50.3815 10.3594C50.5996 10.4066 50.8259 10.4321 51.0579 10.4321C52.8182 10.4321 54.2502 9 54.2502 7.23973C54.2502 5.47945 52.8181 4.0473 51.0579 4.0473C49.2977 4.0473 47.8655 5.47945 47.8655 7.23973C47.8655 8.0918 48.2017 8.86641 48.7477 9.43945L46.3094 13.7821L42.9696 15.0177C42.3271 14.0006 41.1934 13.3232 39.904 13.3232H39.5078V9.70734C39.5079 4.41937 35.2057 0.117188 29.9177 0.117188C24.6295 0.117188 20.3273 4.41937 20.3273 9.70734V13.3232H19.9311C18.6624 13.3232 17.5446 13.9789 16.8968 14.9687L13.6894 13.7821L11.2512 9.43957C11.7972 8.86652 12.1334 8.09191 12.1334 7.23984C12.1334 5.47957 10.7013 4.04742 8.94098 4.04742C7.1807 4.04742 5.74867 5.47957 5.74867 7.23984C5.74867 9.00012 7.1807 10.4321 8.94098 10.4321C9.17301 10.4321 9.39918 10.4066 9.61738 10.3594L12.2234 15.0007C12.3324 15.1948 12.5069 15.3437 12.7156 15.4209L16.3122 16.7516C16.3087 16.8165 16.3067 16.8818 16.3067 16.9475V18.8353H11.4989L9.84578 17.2157C10.0736 16.7766 10.2032 16.2786 10.2032 15.7507C10.2032 13.9904 8.77106 12.5583 7.01078 12.5583C5.25051 12.5583 3.81848 13.9904 3.81848 15.7507C3.81848 17.511 5.25063 18.943 7.01078 18.943C7.56203 18.943 8.08106 18.8025 8.5341 18.5555L10.4602 20.4425C10.6354 20.6142 10.8709 20.7104 11.1163 20.7104H16.3068V24.1363H10.0626C9.66109 22.8321 8.44504 21.8814 7.01078 21.8814C5.25051 21.8814 3.81848 23.3135 3.81848 25.0738C3.81848 26.8341 5.25063 28.2661 7.01078 28.2661C8.44492 28.2661 9.66098 27.3155 10.0626 26.0113H16.3068V29.4371H11.1162C10.8708 29.4371 10.6353 29.5334 10.4601 29.705L8.53398 31.592C8.08106 31.345 7.56191 31.2045 7.01066 31.2045C5.25039 31.2045 3.81836 32.6366 3.81836 34.3969C3.81836 36.1571 5.25051 37.5893 7.01066 37.5893C8.77094 37.5893 10.2031 36.1571 10.2031 34.3969C10.2031 33.8689 10.0735 33.371 9.84566 32.9319L11.4988 31.3123H16.3066V33.2002C16.3066 33.3224 16.3129 33.4432 16.3247 33.5624L12.7531 34.7135C12.5282 34.7861 12.3389 34.9407 12.2233 35.1469L9.61727 39.7882C9.39906 39.741 9.17289 39.7154 8.94086 39.7154C7.18059 39.7154 5.74855 41.1475 5.74855 42.9077C5.74855 44.668 7.1807 46.1002 8.94086 46.1002C10.7011 46.1002 12.1333 44.668 12.1333 42.9077C12.1333 42.0557 11.7971 41.2811 11.2511 40.708L13.6782 36.3853L16.9921 35.3173C17.6509 36.2292 18.7225 36.8244 19.9311 36.8244H26.8601V41.55L24.7498 38.8571C23.3665 37.0921 21.5438 37.0077 20.4359 37.6759C19.3195 38.3491 18.5946 39.9268 19.4922 41.9337C21.0539 45.4257 22.5187 47.8395 23.6957 49.7789C25.2304 52.3079 26.2478 53.9848 26.5244 56.3575V58.9453C26.5244 59.463 26.9441 59.8828 27.4619 59.8828H42.2939C42.8117 59.8828 43.2314 59.463 43.2314 58.9453V56.5912C45.3377 53.3652 45.658 48.5202 45.6582 45.8771L45.6583 43.005C45.6583 41.3216 44.2887 39.952 42.6054 39.952C42.1383 39.952 41.6951 40.0575 41.2989 40.2459C40.9209 38.9891 39.753 38.0709 38.3746 38.0709C37.9134 38.0709 37.4757 38.1737 37.0832 38.3577C36.9116 37.7476 36.5533 37.2161 36.076 36.8243H39.904C41.1314 36.8243 42.2175 36.2105 42.8734 35.2743L46.3206 36.3852L48.7476 40.7079C48.2016 41.2809 47.8654 42.0555 47.8654 42.9076C47.8654 44.6679 49.2975 46.1 51.0578 46.1C52.8181 46.1 54.2501 44.6679 54.2501 42.9076C54.2501 41.1473 52.818 39.7153 51.0578 39.7153C50.8258 39.7153 50.5996 39.7409 50.3814 39.7881L47.7754 35.1466C47.6597 34.9406 47.4704 34.7858 47.2456 34.7133L43.5141 33.5107C43.5229 33.4082 43.5284 33.3047 43.5284 33.1999V31.312H48.5L50.1531 32.9317C49.9253 33.3708 49.7957 33.8687 49.7957 34.3966C49.7957 36.1569 51.2279 37.5891 52.9881 37.5891C54.7484 37.5891 56.1804 36.1569 56.1804 34.3966C56.1804 32.6364 54.7483 31.2042 52.9881 31.2042C52.4369 31.2042 51.9177 31.3447 51.4648 31.5918L49.5387 29.7048C49.3635 29.5331 49.128 29.4369 48.8826 29.4369H43.5284V26.0111H49.9363V26.0113ZM52.988 23.7564C53.7145 23.7564 54.3054 24.3473 54.3054 25.0738C54.3054 25.8001 53.7145 26.3911 52.988 26.3911C52.2617 26.3911 51.6707 25.8001 51.6707 25.0738C51.6707 24.3473 52.2617 23.7564 52.988 23.7564ZM52.9881 14.4333C53.7145 14.4333 54.3054 15.0243 54.3054 15.7507C54.3054 16.477 53.7145 17.068 52.9881 17.068C52.2617 17.068 51.6707 16.477 51.6707 15.7507C51.6707 15.0243 52.2617 14.4333 52.9881 14.4333ZM51.0579 5.92242C51.7843 5.92242 52.3752 6.5134 52.3752 7.23984C52.3752 7.96629 51.7843 8.55727 51.0579 8.55727C50.3315 8.55727 49.7405 7.96629 49.7405 7.23984C49.7405 6.5134 50.3315 5.92242 51.0579 5.92242ZM7.62367 7.23984C7.62367 6.5134 8.21465 5.92242 8.94098 5.92242C9.66742 5.92242 10.2584 6.5134 10.2584 7.23984C10.2584 7.96629 9.66742 8.55715 8.94098 8.55715C8.21465 8.55715 7.62367 7.96629 7.62367 7.23984ZM7.01078 17.068C6.28445 17.068 5.69348 16.477 5.69348 15.7507C5.69348 15.0243 6.28445 14.4333 7.01078 14.4333C7.73723 14.4333 8.3282 15.0243 8.3282 15.7507C8.3282 16.477 7.73723 17.068 7.01078 17.068ZM7.01078 26.3911C6.28445 26.3911 5.69348 25.8001 5.69348 25.0738C5.69348 24.3473 6.28445 23.7564 7.01078 23.7564C7.73723 23.7564 8.3282 24.3473 8.3282 25.0738C8.3282 25.8001 7.73723 26.3911 7.01078 26.3911ZM7.01078 35.7143C6.28445 35.7143 5.69348 35.1233 5.69348 34.3969C5.69348 33.6704 6.28445 33.0795 7.01078 33.0795C7.73723 33.0795 8.3282 33.6704 8.3282 34.3969C8.3282 35.1233 7.73723 35.7143 7.01078 35.7143ZM8.94098 44.225C8.21465 44.225 7.62367 43.6341 7.62367 42.9076C7.62367 42.1813 8.21465 41.5903 8.94098 41.5903C9.66742 41.5903 10.2584 42.1813 10.2584 42.9076C10.2584 43.6341 9.66742 44.225 8.94098 44.225ZM52.3752 42.9077C52.3752 43.6342 51.7843 44.2252 51.0579 44.2252C50.3315 44.2252 49.7405 43.6342 49.7405 42.9077C49.7405 42.1814 50.3315 41.5904 51.0579 41.5904C51.7843 41.5903 52.3752 42.1813 52.3752 42.9077ZM52.9881 33.0795C53.7145 33.0795 54.3054 33.6704 54.3054 34.3969C54.3054 35.1233 53.7145 35.7143 52.9881 35.7143C52.2617 35.7143 51.6707 35.1233 51.6707 34.3969C51.6707 33.6704 52.2617 33.0795 52.9881 33.0795ZM22.2023 9.70734C22.2023 5.4532 25.6634 1.99219 29.9177 1.99219C34.1719 1.99219 37.6329 5.4532 37.6329 9.70734V13.3232H35.3952V9.70734C35.3952 6.68707 32.9379 4.22977 29.9177 4.22977C26.8973 4.22977 24.44 6.68695 24.44 9.70734V13.3232H22.2023V9.70734ZM33.5202 13.3233H26.315V9.70734C26.315 7.7209 27.9311 6.10477 29.9177 6.10477C31.9041 6.10477 33.5202 7.7209 33.5202 9.70734V13.3233ZM31.2044 25.1937C30.8119 25.0097 30.3743 24.9062 29.913 24.9062C29.4537 24.9062 29.0181 25.0087 28.627 25.1912C27.9839 24.762 27.5928 24.0427 27.5928 23.259C27.5928 21.9772 28.6356 20.9344 29.9175 20.9344C31.1995 20.9344 32.2422 21.9772 32.2422 23.259C32.2423 24.0442 31.8496 24.7648 31.2044 25.1937ZM28.3994 58.0078V57.2416H41.3564V58.0078H28.3994ZM38.3746 39.9461C39.0242 39.9461 39.5526 40.4745 39.5526 41.1239V44.0348C39.5526 44.5526 39.9723 44.9723 40.4901 44.9723C41.0078 44.9723 41.4276 44.5526 41.4276 44.0348V43.005C41.4276 42.3555 41.956 41.827 42.6055 41.827C43.255 41.827 43.7834 42.3554 43.7834 43.0049L43.7833 45.8769C43.7832 47.794 43.5809 52.4251 41.7855 55.3665H28.2688C27.8345 52.9908 26.7482 51.195 25.2985 48.806C24.1486 46.9112 22.7177 44.553 21.2037 41.168C20.8258 40.3232 20.9044 39.5827 21.404 39.2814C21.842 39.0173 22.5902 39.141 23.2739 40.0136L27.0597 44.8441C27.3063 45.159 27.7254 45.2824 28.1035 45.152C28.4815 45.0216 28.7351 44.6657 28.7351 44.2658V27.9592C28.7351 27.3097 29.2635 26.7812 29.9131 26.7812C30.5625 26.7812 31.0909 27.3096 31.0909 27.9592L31.0908 43.2765C31.0908 43.7943 31.5106 44.214 32.0283 44.214C32.5461 44.214 32.9658 43.7943 32.9658 43.2765V39.1833C32.9658 38.5338 33.4942 38.0053 34.1438 38.0053C34.7934 38.0053 35.3218 38.5337 35.3218 39.1833V44.0348C35.3218 44.5526 35.7415 44.9723 36.2593 44.9723C36.777 44.9723 37.1968 44.5526 37.1968 44.0348V41.1239C37.1966 40.4743 37.725 39.9461 38.3746 39.9461ZM41.6534 33.2C41.6534 34.1646 40.8687 34.9493 39.904 34.9493H32.9657L32.9658 27.9592C32.9658 27.43 32.8304 26.9319 32.5923 26.4975C33.5488 25.7091 34.1172 24.5303 34.1172 23.259C34.1172 20.9433 32.2333 19.0594 29.9175 19.0594C27.6018 19.0594 25.7178 20.9434 25.7178 23.259C25.7178 24.5276 26.2838 25.7038 27.2365 26.4922C26.9968 26.9279 26.86 27.4279 26.86 27.9592V34.9493H19.9309C18.9664 34.9493 18.1816 34.1646 18.1816 33.2V16.9475C18.1816 15.983 18.9663 15.1983 19.9309 15.1983H39.9041C40.8687 15.1983 41.6535 15.983 41.6535 16.9475V33.2H41.6534Z" fill="#2D3C58"/>
</g>
</svg>
