<svg width="60" height="60" viewBox="0 0 60 60" fill="none" xmlns="http://www.w3.org/2000/svg">
<g id="icon">
<g id="Group">
<g id="Group_2">
<path id="Vector" d="M12.4609 6.32812H6.04172C2.71031 6.32812 0 9.03844 0 12.3697V43.8802C0 46.2238 1.37414 48.3757 3.50051 49.3627C3.66012 49.4368 3.82793 49.4719 3.99305 49.4719C4.43508 49.4719 4.85848 49.2205 5.05676 48.7931C5.32922 48.206 5.07422 47.5092 4.48723 47.2369C3.18516 46.6324 2.34375 45.315 2.34375 43.88V12.3697C2.34375 10.3307 4.00266 8.67176 6.04172 8.67176H12.4609C13.108 8.67176 13.6328 8.14699 13.6328 7.49988C13.6328 6.85277 13.108 6.32812 12.4609 6.32812Z" fill="#2D3C58"/>
</g>
</g>
<g id="Group_3">
<g id="Group_4">
<path id="Vector_2" d="M53.9578 6.32812H43.9174C43.8339 2.82469 40.9601 0 37.4371 0H22.562C18.9865 0 16.0777 2.90883 16.0777 6.48434V13.2032H8.04645C7.39934 13.2032 6.87457 13.7279 6.87457 14.375C6.87457 15.0221 7.39934 15.5469 8.04645 15.5469H16.0777V19.2969H8.04645C7.39934 19.2969 6.87457 19.8217 6.87457 20.4688C6.87457 21.1159 7.39934 21.6407 8.04645 21.6407H16.0777V25.3907H8.04645C7.39934 25.3907 6.87457 25.9154 6.87457 26.5625C6.87457 27.2096 7.39934 27.7344 8.04645 27.7344H16.0777V31.4844H8.04645C7.39934 31.4844 6.87457 32.0092 6.87457 32.6563C6.87457 33.3034 7.39934 33.8282 8.04645 33.8282H16.0777V40.1694C12.6926 40.5266 10.0459 43.3963 10.0459 46.8725C10.0459 47.0559 10.0535 47.2399 10.0688 47.4236C7.9977 48.6166 6.70312 50.8179 6.70312 53.2588C6.70312 56.9759 9.72879 59.9999 13.4479 59.9999H44.3471C49.2813 59.9999 53.2957 55.9879 53.2957 51.0562C53.2957 46.1246 49.2813 42.1126 44.3471 42.1126C43.8526 42.1126 43.3617 42.1528 42.8783 42.2326C41.7941 38.7696 39.2746 35.8496 35.9618 34.2825C35.3764 34.0056 34.6781 34.2557 34.4013 34.8408C34.1247 35.4258 34.3745 36.1245 34.9596 36.4012C37.6771 37.6868 39.744 40.0798 40.6362 42.9176C39.8569 43.2736 39.1264 43.7414 38.4792 44.3037C37.6822 44.996 37.0199 45.8143 36.5104 46.7357C36.1972 47.3022 36.4025 48.0151 36.9689 48.3284C37.1487 48.4277 37.3431 48.4748 37.5349 48.4748C37.9475 48.4748 38.3478 48.2564 38.5616 47.8698C38.9378 47.1893 39.4273 46.5848 40.0163 46.0731C40.7681 45.42 41.6708 44.9391 42.6268 44.6822C43.1848 44.5323 43.7623 44.4564 44.3471 44.4564C47.9891 44.4564 50.952 47.4171 50.952 51.0562C50.952 54.6954 47.9892 57.6562 44.3473 57.6562H13.448C11.0213 57.6562 9.04699 55.6836 9.04699 53.2589C9.04699 51.46 10.1256 49.8602 11.795 49.1835C12.3263 48.968 12.6237 48.3998 12.498 47.8405C12.4262 47.5206 12.3896 47.1948 12.3896 46.8727C12.3896 44.4479 14.3639 42.4753 16.7906 42.4753C17.4606 42.4753 18.1035 42.6216 18.7015 42.9102C18.9966 43.0526 19.3377 43.0648 19.6421 42.9443C19.9468 42.8237 20.1868 42.581 20.3045 42.2753C21.327 39.6165 23.4104 37.4319 26.0207 36.2818C26.6129 36.0209 26.8815 35.3292 26.6205 34.7368C26.3596 34.1447 25.6682 33.876 25.0755 34.137C22.2532 35.3804 19.9365 37.6178 18.5816 40.3712C18.5284 40.3566 18.4748 40.3433 18.4213 40.33V6.48434C18.4214 4.20129 20.2789 2.34375 22.562 2.34375H37.4371C39.7201 2.34375 41.5777 4.20129 41.5777 6.48434V35.2748C41.5777 35.922 42.1024 36.4467 42.7495 36.4467C43.3966 36.4467 43.9214 35.922 43.9214 35.2748V33.8282H51.9526C52.5997 33.8282 53.1245 33.3034 53.1245 32.6563C53.1245 32.0092 52.5997 31.4844 51.9526 31.4844H43.9214V27.7344H51.9526C52.5997 27.7344 53.1245 27.2096 53.1245 26.5625C53.1245 25.9154 52.5997 25.3907 51.9526 25.3907H43.9214V21.6407H51.9526C52.5997 21.6407 53.1245 21.1159 53.1245 20.4688C53.1245 19.8217 52.5997 19.2969 51.9526 19.2969H43.9214V15.5469H51.9526C52.5997 15.5469 53.1245 15.0221 53.1245 14.375C53.1245 13.7279 52.5997 13.2032 51.9526 13.2032H43.9214V8.67188H53.9579C55.9969 8.67188 57.6558 10.3308 57.6558 12.3698V43.8803C57.6558 44.7831 57.327 45.6523 56.73 46.3279C56.3014 46.8128 56.347 47.5534 56.8321 47.982C57.055 48.1789 57.3319 48.2757 57.6076 48.2757C57.9319 48.2757 58.2546 48.1419 58.4862 47.8799C59.4621 46.7756 59.9995 45.3552 59.9995 43.8803V12.3697C59.9995 9.03844 57.2892 6.32812 53.9578 6.32812Z" fill="#2D3C58"/>
</g>
</g>
<g id="Group_5">
<g id="Group_6">
<path id="Vector_3" d="M35.1562 7.5H24.8438C24.1966 7.5 23.6719 8.02477 23.6719 8.67188C23.6719 9.31898 24.1966 9.84375 24.8438 9.84375H35.1562C35.8034 9.84375 36.3281 9.31898 36.3281 8.67188C36.3281 8.02465 35.8034 7.5 35.1562 7.5Z" fill="#2D3C58"/>
</g>
</g>
<g id="Group_7">
<g id="Group_8">
<path id="Vector_4" d="M35.1562 19.6875H24.8438C24.1966 19.6875 23.6719 20.2123 23.6719 20.8594C23.6719 21.5065 24.1966 22.0312 24.8438 22.0312H35.1562C35.8034 22.0312 36.3281 21.5065 36.3281 20.8594C36.3281 20.2121 35.8034 19.6875 35.1562 19.6875Z" fill="#2D3C58"/>
</g>
</g>
<g id="Group_9">
<g id="Group_10">
<path id="Vector_5" d="M35.1562 13.5938H24.8438C24.1966 13.5938 23.6719 14.1185 23.6719 14.7656C23.6719 15.4127 24.1966 15.9375 24.8438 15.9375H35.1562C35.8034 15.9375 36.3281 15.4127 36.3281 14.7656C36.3281 14.1184 35.8034 13.5938 35.1562 13.5938Z" fill="#2D3C58"/>
</g>
</g>
<g id="Group_11">
<g id="Group_12">
<path id="Vector_6" d="M35.1562 25.7812H24.8438C24.1966 25.7812 23.6719 26.306 23.6719 26.9531C23.6719 27.6002 24.1966 28.125 24.8438 28.125H35.1562C35.8034 28.125 36.3281 27.6002 36.3281 26.9531C36.3281 26.3059 35.8034 25.7812 35.1562 25.7812Z" fill="#2D3C58"/>
</g>
</g>
<g id="Group_13">
<g id="Group_14">
<path id="Vector_7" d="M30.4031 33.0289C30.3915 33.0289 30.3796 33.0291 30.3682 33.0293L30.3594 33.029C29.7123 33.029 29.1875 33.5538 29.1875 34.2009C29.1875 34.848 29.7123 35.3728 30.3594 35.3728C30.365 35.3728 30.3706 35.3728 30.3761 35.3727L30.3886 35.3728C30.391 35.3728 30.3935 35.3728 30.3959 35.3728C31.0396 35.3728 31.5636 34.853 31.5677 34.2082C31.5717 33.5611 31.0504 33.0331 30.4031 33.0289Z" fill="#2D3C58"/>
</g>
</g>
<g id="Group_15">
<g id="Group_16">
<path id="Vector_8" d="M36.1367 50.7239C35.4896 50.7239 34.9648 51.2486 34.9648 51.8958V51.914C34.9648 52.5611 35.4896 53.0859 36.1367 53.0859C36.7838 53.0859 37.3086 52.5611 37.3086 51.914V51.8958C37.3086 51.2485 36.7838 50.7239 36.1367 50.7239Z" fill="#2D3C58"/>
</g>
</g>
<g id="Group_17">
<g id="Group_18">
<path id="Vector_9" d="M12.8277 36.5188C10.9992 36.5188 9.51172 38.0063 9.51172 39.8347C9.51172 40.4818 10.0365 41.0066 10.6836 41.0066C11.3307 41.0066 11.8555 40.4818 11.8555 39.8347C11.8555 39.2987 12.2916 38.8625 12.8277 38.8625C13.4748 38.8625 13.9995 38.3378 13.9995 37.6907C13.9995 37.0434 13.4748 36.5188 12.8277 36.5188Z" fill="#2D3C58"/>
</g>
</g>
<g id="Group_19">
<g id="Group_20">
<path id="Vector_10" d="M47.123 36.5188C46.4759 36.5188 45.9512 37.0434 45.9512 37.6907C45.9512 38.3378 46.4759 38.8625 47.123 38.8625C47.6591 38.8625 48.0952 39.2987 48.0952 39.8347C48.0952 40.4818 48.62 41.0066 49.2671 41.0066C49.9142 41.0066 50.439 40.4818 50.439 39.8347C50.439 38.0063 48.9515 36.5188 47.123 36.5188Z" fill="#2D3C58"/>
</g>
</g>
</g>
</svg>
