<svg width="40" height="25" viewBox="0 0 40 25" fill="none" xmlns="http://www.w3.org/2000/svg">
<g id="icon">
<g id="Group">
<g id="Group_2">
<path id="Vector" d="M12.5 15.7896H19.0789V3.94751H12.5V15.7896ZM13.8158 5.2633H17.7632V14.4738H13.8158V5.2633Z" fill="#2D3C58"/>
<path id="Vector_2" d="M20.3945 15.7896H26.9735V3.94751H20.3945V15.7896ZM21.7103 5.2633H25.6577V14.4738H21.7103V5.2633Z" fill="#2D3C58"/>
<path id="Vector_3" d="M4.60352 15.7896H11.1825V3.94751H4.60352V15.7896ZM5.91931 5.2633H9.86667V14.4738H5.91931V5.2633Z" fill="#2D3C58"/>
<path id="Vector_4" d="M28.2871 15.7896H34.8661V3.94751H28.2871V15.7896ZM29.6029 5.2633H33.5503V14.4738H29.6029V5.2633Z" fill="#2D3C58"/>
<path id="Vector_5" d="M38.8158 7.89474C39.1791 7.89474 39.4737 7.60016 39.4737 7.23684V1.97368C39.4737 0.883635 38.5901 0 37.5 0H1.97368C0.883635 0 0 0.883635 0 1.97368V7.23684C0 7.60016 0.294572 7.89474 0.657895 7.89474C1.02122 7.89474 1.31579 8.18931 1.31579 8.55263C1.31579 8.91595 1.02122 9.21053 0.657895 9.21053C0.294572 9.21053 0 9.5051 0 9.86842V19.0789C0 19.4423 0.294572 19.7368 0.657895 19.7368H3.28947V24.3421C3.28947 24.7054 3.58405 25 3.94737 25H14.4737C14.837 25 15.1316 24.7054 15.1316 24.3421V23.0263C15.1316 22.663 15.4262 22.3684 15.7895 22.3684C15.9669 22.3678 16.1368 22.4407 16.2586 22.5697C16.3806 22.6902 16.4487 22.8549 16.4474 23.0263V24.3421C16.4474 24.7054 16.7419 25 17.1053 25H35.5263C35.8896 25 36.1842 24.7054 36.1842 24.3421V19.7368H38.8158C39.1791 19.7368 39.4737 19.4423 39.4737 19.0789V9.86842C39.4737 9.5051 39.1791 9.21053 38.8158 9.21053C38.4525 9.21053 38.1579 8.91595 38.1579 8.55263C38.1579 8.18931 38.4525 7.89474 38.8158 7.89474ZM34.8684 23.6842H33.5526V21.0526H32.2368V23.6842H30.9211V21.0526H29.6053V23.6842H28.2895V21.0526H26.9737V23.6842H25.6579V21.0526H24.3421V23.6842H23.0263V21.0526H21.7105V23.6842H20.3947V21.0526H19.0789V23.6842H17.7632V23.0263C17.7585 21.9382 16.8776 21.0573 15.7895 21.0526C14.6994 21.0526 13.8158 21.9363 13.8158 23.0263V23.6842H12.5V21.0526H11.1842V23.6842H9.86842V21.0526H8.55263V23.6842H7.23684V21.0526H5.92105V23.6842H4.60526V19.7368H34.8684V23.6842ZM38.1579 6.69145C37.13 7.05419 36.5908 8.18158 36.9535 9.20946C37.1522 9.77237 37.595 10.2151 38.1579 10.4138V18.4211H1.31579V10.4138C2.34367 10.0511 2.88289 8.92368 2.52015 7.89581C2.32146 7.33289 1.8787 6.89013 1.31579 6.69145V1.97368C1.31579 1.61036 1.61036 1.31579 1.97368 1.31579H37.5C37.8633 1.31579 38.1579 1.61036 38.1579 1.97368V6.69145Z" fill="#2D3C58"/>
</g>
</g>
</g>
</svg>
