<svg width="40" height="40" viewBox="0 0 40 40" fill="none" xmlns="http://www.w3.org/2000/svg">
<g id="Group">
<path id="Vector" d="M7 4C5.346 4 4 5.346 4 7C4 8.654 5.346 10 7 10C8.654 10 10 8.654 10 7C10 5.346 8.654 4 7 4ZM7 8.66667C6.08133 8.66667 5.33333 7.91933 5.33333 7C5.33333 6.08067 6.08133 5.33333 7 5.33333C7.91867 5.33333 8.66667 6.08067 8.66667 7C8.66667 7.91933 7.91867 8.66667 7 8.66667Z" fill="#2D3C58"/>
<path id="Vector_2" d="M33.3346 6.66659C33.7028 6.66659 34.0013 6.36811 34.0013 5.99992C34.0013 5.63173 33.7028 5.33325 33.3346 5.33325C32.9664 5.33325 32.668 5.63173 32.668 5.99992C32.668 6.36811 32.9664 6.66659 33.3346 6.66659Z" fill="#2D3C58"/>
<path id="Vector_3" d="M30.6667 6.66659C31.0349 6.66659 31.3333 6.36811 31.3333 5.99992C31.3333 5.63173 31.0349 5.33325 30.6667 5.33325C30.2985 5.33325 30 5.63173 30 5.99992C30 6.36811 30.2985 6.66659 30.6667 6.66659Z" fill="#2D3C58"/>
<path id="Vector_4" d="M34.6667 8.66659C35.0349 8.66659 35.3333 8.36811 35.3333 7.99992C35.3333 7.63173 35.0349 7.33325 34.6667 7.33325C34.2985 7.33325 34 7.63173 34 7.99992C34 8.36811 34.2985 8.66659 34.6667 8.66659Z" fill="#2D3C58"/>
<path id="Vector_5" d="M31.9987 8.66659C32.3669 8.66659 32.6654 8.36811 32.6654 7.99992C32.6654 7.63173 32.3669 7.33325 31.9987 7.33325C31.6305 7.33325 31.332 7.63173 31.332 7.99992C31.332 8.36811 31.6305 8.66659 31.9987 8.66659Z" fill="#2D3C58"/>
<path id="Vector_6" d="M27.9987 6.66659C28.3669 6.66659 28.6654 6.36811 28.6654 5.99992C28.6654 5.63173 28.3669 5.33325 27.9987 5.33325C27.6305 5.33325 27.332 5.63173 27.332 5.99992C27.332 6.36811 27.6305 6.66659 27.9987 6.66659Z" fill="#2D3C58"/>
<path id="Vector_7" d="M29.3346 8.66659C29.7028 8.66659 30.0013 8.36811 30.0013 7.99992C30.0013 7.63173 29.7028 7.33325 29.3346 7.33325C28.9664 7.33325 28.668 7.63173 28.668 7.99992C28.668 8.36811 28.9664 8.66659 29.3346 8.66659Z" fill="#2D3C58"/>
<path id="Vector_8" d="M25.3346 6.66659C25.7028 6.66659 26.0013 6.36811 26.0013 5.99992C26.0013 5.63173 25.7028 5.33325 25.3346 5.33325C24.9664 5.33325 24.668 5.63173 24.668 5.99992C24.668 6.36811 24.9664 6.66659 25.3346 6.66659Z" fill="#2D3C58"/>
<path id="Vector_9" d="M26.6667 8.66659C27.0349 8.66659 27.3333 8.36811 27.3333 7.99992C27.3333 7.63173 27.0349 7.33325 26.6667 7.33325C26.2985 7.33325 26 7.63173 26 7.99992C26 8.36811 26.2985 8.66659 26.6667 8.66659Z" fill="#2D3C58"/>
<path id="Vector_10" d="M22.6667 6.66659C23.0349 6.66659 23.3333 6.36811 23.3333 5.99992C23.3333 5.63173 23.0349 5.33325 22.6667 5.33325C22.2985 5.33325 22 5.63173 22 5.99992C22 6.36811 22.2985 6.66659 22.6667 6.66659Z" fill="#2D3C58"/>
<path id="Vector_11" d="M23.9987 8.66659C24.3669 8.66659 24.6654 8.36811 24.6654 7.99992C24.6654 7.63173 24.3669 7.33325 23.9987 7.33325C23.6305 7.33325 23.332 7.63173 23.332 7.99992C23.332 8.36811 23.6305 8.66659 23.9987 8.66659Z" fill="#2D3C58"/>
<path id="Vector_12" d="M40 10.928V3.072C40 1.378 38.622 0 36.928 0H3.072C1.378 0 0 1.378 0 3.072V10.9273C0 11.9067 0.468667 12.77 1.18467 13.3327C0.468667 13.896 0 14.76 0 15.7387V23.594C0 24.5733 0.468667 25.4367 1.18467 25.9993C0.468667 26.5627 0 27.4267 0 28.4053V36.2607C0 37.9553 1.378 39.3333 3.072 39.3333H36.9273C38.6213 39.3333 39.9993 37.9553 39.9993 36.2613V28.4053C39.9993 27.426 39.5307 26.5627 38.8147 26C39.5313 25.4373 40 24.5733 40 23.5947V15.7387C40 14.7593 39.5313 13.896 38.8153 13.3333C39.5313 12.7707 40 11.9067 40 10.928ZM38.6667 28.4053V36.2607C38.6667 37.2193 37.8867 37.9993 36.928 37.9993H3.072C2.11333 38 1.33333 37.22 1.33333 36.2613V28.4053C1.33333 27.4467 2.11333 26.6667 3.072 26.6667H36.9273C37.8867 26.6667 38.6667 27.4467 38.6667 28.4053ZM38.6667 15.7387V23.594C38.6667 24.5527 37.8867 25.3327 36.928 25.3327H3.072C2.11333 25.3333 1.33333 24.5533 1.33333 23.5947V15.7387C1.33333 14.78 2.11333 14 3.072 14H36.9273C37.8867 14 38.6667 14.78 38.6667 15.7387ZM3.072 12.6667C2.11333 12.6667 1.33333 11.8867 1.33333 10.928V3.072C1.33333 2.11333 2.11333 1.33333 3.072 1.33333H36.9273C37.8867 1.33333 38.6667 2.11333 38.6667 3.072V10.9273C38.6667 11.886 37.8867 12.666 36.928 12.666L3.072 12.6667Z" fill="#2D3C58"/>
<path id="Vector_13" d="M7 22.6667C8.654 22.6667 10 21.3207 10 19.6667C10 18.0127 8.654 16.6667 7 16.6667C5.346 16.6667 4 18.0127 4 19.6667C4 21.3207 5.346 22.6667 7 22.6667ZM7 18.0001C7.91867 18.0001 8.66667 18.7474 8.66667 19.6667C8.66667 20.5861 7.91867 21.3334 7 21.3334C6.08133 21.3334 5.33333 20.5861 5.33333 19.6667C5.33333 18.7474 6.08133 18.0001 7 18.0001Z" fill="#2D3C58"/>
<path id="Vector_14" d="M33.3346 19.3333C33.7028 19.3333 34.0013 19.0349 34.0013 18.6667C34.0013 18.2985 33.7028 18 33.3346 18C32.9664 18 32.668 18.2985 32.668 18.6667C32.668 19.0349 32.9664 19.3333 33.3346 19.3333Z" fill="#2D3C58"/>
<path id="Vector_15" d="M30.6667 19.3333C31.0349 19.3333 31.3333 19.0349 31.3333 18.6667C31.3333 18.2985 31.0349 18 30.6667 18C30.2985 18 30 18.2985 30 18.6667C30 19.0349 30.2985 19.3333 30.6667 19.3333Z" fill="#2D3C58"/>
<path id="Vector_16" d="M34.6667 21.3333C35.0349 21.3333 35.3333 21.0349 35.3333 20.6667C35.3333 20.2985 35.0349 20 34.6667 20C34.2985 20 34 20.2985 34 20.6667C34 21.0349 34.2985 21.3333 34.6667 21.3333Z" fill="#2D3C58"/>
<path id="Vector_17" d="M31.9987 21.3333C32.3669 21.3333 32.6654 21.0349 32.6654 20.6667C32.6654 20.2985 32.3669 20 31.9987 20C31.6305 20 31.332 20.2985 31.332 20.6667C31.332 21.0349 31.6305 21.3333 31.9987 21.3333Z" fill="#2D3C58"/>
<path id="Vector_18" d="M27.9987 19.3333C28.3669 19.3333 28.6654 19.0349 28.6654 18.6667C28.6654 18.2985 28.3669 18 27.9987 18C27.6305 18 27.332 18.2985 27.332 18.6667C27.332 19.0349 27.6305 19.3333 27.9987 19.3333Z" fill="#2D3C58"/>
<path id="Vector_19" d="M29.3346 21.3333C29.7028 21.3333 30.0013 21.0349 30.0013 20.6667C30.0013 20.2985 29.7028 20 29.3346 20C28.9664 20 28.668 20.2985 28.668 20.6667C28.668 21.0349 28.9664 21.3333 29.3346 21.3333Z" fill="#2D3C58"/>
<path id="Vector_20" d="M25.3346 19.3333C25.7028 19.3333 26.0013 19.0349 26.0013 18.6667C26.0013 18.2985 25.7028 18 25.3346 18C24.9664 18 24.668 18.2985 24.668 18.6667C24.668 19.0349 24.9664 19.3333 25.3346 19.3333Z" fill="#2D3C58"/>
<path id="Vector_21" d="M26.6667 21.3333C27.0349 21.3333 27.3333 21.0349 27.3333 20.6667C27.3333 20.2985 27.0349 20 26.6667 20C26.2985 20 26 20.2985 26 20.6667C26 21.0349 26.2985 21.3333 26.6667 21.3333Z" fill="#2D3C58"/>
<path id="Vector_22" d="M22.6667 19.3333C23.0349 19.3333 23.3333 19.0349 23.3333 18.6667C23.3333 18.2985 23.0349 18 22.6667 18C22.2985 18 22 18.2985 22 18.6667C22 19.0349 22.2985 19.3333 22.6667 19.3333Z" fill="#2D3C58"/>
<path id="Vector_23" d="M23.9987 21.3333C24.3669 21.3333 24.6654 21.0349 24.6654 20.6667C24.6654 20.2985 24.3669 20 23.9987 20C23.6305 20 23.332 20.2985 23.332 20.6667C23.332 21.0349 23.6305 21.3333 23.9987 21.3333Z" fill="#2D3C58"/>
<path id="Vector_24" d="M7 35.3333C8.654 35.3333 10 33.9873 10 32.3333C10 30.6793 8.654 29.3333 7 29.3333C5.346 29.3333 4 30.6793 4 32.3333C4 33.9873 5.346 35.3333 7 35.3333ZM7 30.6666C7.91867 30.6666 8.66667 31.4139 8.66667 32.3333C8.66667 33.2526 7.91867 33.9999 7 33.9999C6.08133 33.9999 5.33333 33.2526 5.33333 32.3333C5.33333 31.4139 6.08133 30.6666 7 30.6666Z" fill="#2D3C58"/>
<path id="Vector_25" d="M33.3346 32.0001C33.7028 32.0001 34.0013 31.7016 34.0013 31.3334C34.0013 30.9652 33.7028 30.6667 33.3346 30.6667C32.9664 30.6667 32.668 30.9652 32.668 31.3334C32.668 31.7016 32.9664 32.0001 33.3346 32.0001Z" fill="#2D3C58"/>
<path id="Vector_26" d="M30.6667 32.0001C31.0349 32.0001 31.3333 31.7016 31.3333 31.3334C31.3333 30.9652 31.0349 30.6667 30.6667 30.6667C30.2985 30.6667 30 30.9652 30 31.3334C30 31.7016 30.2985 32.0001 30.6667 32.0001Z" fill="#2D3C58"/>
<path id="Vector_27" d="M34.6667 34.0001C35.0349 34.0001 35.3333 33.7016 35.3333 33.3334C35.3333 32.9652 35.0349 32.6667 34.6667 32.6667C34.2985 32.6667 34 32.9652 34 33.3334C34 33.7016 34.2985 34.0001 34.6667 34.0001Z" fill="#2D3C58"/>
<path id="Vector_28" d="M31.9987 34.0001C32.3669 34.0001 32.6654 33.7016 32.6654 33.3334C32.6654 32.9652 32.3669 32.6667 31.9987 32.6667C31.6305 32.6667 31.332 32.9652 31.332 33.3334C31.332 33.7016 31.6305 34.0001 31.9987 34.0001Z" fill="#2D3C58"/>
<path id="Vector_29" d="M27.9987 32.0001C28.3669 32.0001 28.6654 31.7016 28.6654 31.3334C28.6654 30.9652 28.3669 30.6667 27.9987 30.6667C27.6305 30.6667 27.332 30.9652 27.332 31.3334C27.332 31.7016 27.6305 32.0001 27.9987 32.0001Z" fill="#2D3C58"/>
<path id="Vector_30" d="M29.3346 34.0001C29.7028 34.0001 30.0013 33.7016 30.0013 33.3334C30.0013 32.9652 29.7028 32.6667 29.3346 32.6667C28.9664 32.6667 28.668 32.9652 28.668 33.3334C28.668 33.7016 28.9664 34.0001 29.3346 34.0001Z" fill="#2D3C58"/>
<path id="Vector_31" d="M25.3346 32.0001C25.7028 32.0001 26.0013 31.7016 26.0013 31.3334C26.0013 30.9652 25.7028 30.6667 25.3346 30.6667C24.9664 30.6667 24.668 30.9652 24.668 31.3334C24.668 31.7016 24.9664 32.0001 25.3346 32.0001Z" fill="#2D3C58"/>
<path id="Vector_32" d="M26.6667 34.0001C27.0349 34.0001 27.3333 33.7016 27.3333 33.3334C27.3333 32.9652 27.0349 32.6667 26.6667 32.6667C26.2985 32.6667 26 32.9652 26 33.3334C26 33.7016 26.2985 34.0001 26.6667 34.0001Z" fill="#2D3C58"/>
<path id="Vector_33" d="M22.6667 32.0001C23.0349 32.0001 23.3333 31.7016 23.3333 31.3334C23.3333 30.9652 23.0349 30.6667 22.6667 30.6667C22.2985 30.6667 22 30.9652 22 31.3334C22 31.7016 22.2985 32.0001 22.6667 32.0001Z" fill="#2D3C58"/>
<path id="Vector_34" d="M23.9987 34.0001C24.3669 34.0001 24.6654 33.7016 24.6654 33.3334C24.6654 32.9652 24.3669 32.6667 23.9987 32.6667C23.6305 32.6667 23.332 32.9652 23.332 33.3334C23.332 33.7016 23.6305 34.0001 23.9987 34.0001Z" fill="#2D3C58"/>
</g>
</svg>
