<svg width="40" height="40" viewBox="0 0 40 40" fill="none" xmlns="http://www.w3.org/2000/svg">
<g id="Group 185">
<path id="Vector" d="M1.81885 20.0032C1.81836 16.5884 2.77954 13.2425 4.59233 10.3487C6.40513 7.45482 8.99624 5.12998 12.069 3.64037C15.1417 2.15076 18.5718 1.55661 21.9665 1.92594C25.3613 2.29527 28.5834 3.61316 31.2639 5.7287H28.4978C28.2582 5.73102 28.0292 5.82783 27.8606 5.99808C27.692 6.16834 27.5974 6.39827 27.5974 6.63789C27.5974 6.87751 27.692 7.10744 27.8606 7.27769C28.0292 7.44795 28.2582 7.54476 28.4978 7.54708H33.641C33.8821 7.54708 34.1134 7.45128 34.2839 7.28077C34.4544 7.11026 34.5502 6.87899 34.5502 6.63785V1.4945C34.5502 1.25336 34.4544 1.02209 34.2839 0.851576C34.1134 0.681061 33.8821 0.585267 33.641 0.585267C33.3999 0.585267 33.1686 0.681061 32.9981 0.851576C32.8276 1.02209 32.7318 1.25336 32.7318 1.4945V4.5733C28.7673 1.30248 23.6958 -0.316762 18.5694 0.051428C13.443 0.419618 8.65509 2.74699 5.1987 6.55079C1.74231 10.3546 -0.117248 15.3429 0.00573314 20.481C0.128714 25.6192 2.2248 30.5128 5.85922 34.1469C6.0297 34.3174 6.26093 34.4131 6.50204 34.4131C6.74314 34.4131 6.97437 34.3174 7.14486 34.1469C7.31535 33.9764 7.41112 33.7452 7.41112 33.504C7.41112 33.2629 7.31535 33.0317 7.14486 32.8612C5.45102 31.1766 4.10813 29.1728 3.19392 26.9657C2.27971 24.7586 1.81234 22.3921 1.81885 20.0032Z" fill="#2D3C58"/>
<path id="Vector_2" d="M12.0564 36.3648C11.5405 36.1139 11.0299 35.8347 10.5391 35.5355C10.3333 35.4099 10.086 35.3711 9.85167 35.4278C9.6173 35.4845 9.41505 35.632 9.28941 35.8378C9.16378 36.0436 9.12505 36.2909 9.18174 36.5253C9.23843 36.7596 9.3859 36.9619 9.59171 37.0875C10.132 37.4174 10.694 37.7242 11.2619 38.0003C11.4784 38.103 11.7267 38.116 11.9528 38.0366C12.1789 37.9571 12.3644 37.7916 12.4692 37.5761C12.5739 37.3606 12.5893 37.1124 12.512 36.8856C12.4348 36.6587 12.2711 36.4716 12.0565 36.3648H12.0564Z" fill="#2D3C58"/>
<path id="Vector_3" d="M36.3738 12.0735C36.4259 12.1809 36.4986 12.2771 36.5878 12.3564C36.677 12.4358 36.781 12.4968 36.8938 12.536C37.0066 12.5752 37.126 12.5918 37.2452 12.5848C37.3644 12.5778 37.481 12.5475 37.5885 12.4954C37.6959 12.4434 37.7921 12.3706 37.8715 12.2814C37.9508 12.1922 38.0118 12.0883 38.051 11.9755C38.0902 11.8627 38.1068 11.7433 38.0998 11.6241C38.0928 11.5049 38.0625 11.3882 38.0104 11.2808C37.7365 10.7147 37.4302 10.1527 37.1003 9.6101C37.0383 9.50807 36.9567 9.41927 36.8603 9.34876C36.7639 9.27826 36.6546 9.22742 36.5386 9.19917C36.3043 9.1421 36.0569 9.18046 35.8508 9.3058C35.6448 9.43114 35.497 9.6332 35.4399 9.86753C35.3828 10.1019 35.4212 10.3493 35.5465 10.5553C35.8464 11.0486 36.1248 11.5594 36.3738 12.0735Z" fill="#2D3C58"/>
<path id="Vector_4" d="M22.1609 38.06C21.5869 38.1282 21.0062 38.1688 20.4344 38.1825C20.1967 38.1902 19.9714 38.2907 19.807 38.4626C19.6425 38.6344 19.552 38.8638 19.5547 39.1017C19.5575 39.3395 19.6534 39.5668 19.8218 39.7347C19.9902 39.9027 20.2177 39.998 20.4555 40.0001H20.4773C21.1059 39.9855 21.7438 39.9404 22.3742 39.866C22.4929 39.8522 22.6077 39.815 22.712 39.7568C22.8164 39.6985 22.9082 39.6203 22.9822 39.5265C23.0563 39.4327 23.1111 39.3253 23.1437 39.2103C23.1762 39.0953 23.1857 38.9751 23.1717 38.8564C23.1577 38.7377 23.1204 38.623 23.062 38.5187C23.0037 38.4145 22.9253 38.3227 22.8315 38.2488C22.7376 38.1748 22.6301 38.1201 22.5151 38.0877C22.4001 38.0553 22.2798 38.046 22.1611 38.0601L22.1609 38.06Z" fill="#2D3C58"/>
<path id="Vector_5" d="M16.9847 37.9365C16.4192 37.8418 15.8505 37.7189 15.2946 37.5699C15.1791 37.5388 15.0587 37.5307 14.9401 37.5462C14.8215 37.5617 14.7071 37.6004 14.6035 37.6602C14.4999 37.7199 14.4091 37.7995 14.3363 37.8944C14.2635 37.9893 14.2102 38.0976 14.1793 38.2131C14.1484 38.3286 14.1406 38.4491 14.1563 38.5677C14.1721 38.6862 14.2111 38.8005 14.271 38.904C14.331 39.0074 14.4108 39.0981 14.5058 39.1707C14.6008 39.2433 14.7093 39.2964 14.8249 39.327C15.4367 39.4904 16.0626 39.6259 16.6855 39.7297C16.8036 39.75 16.9244 39.7467 17.0412 39.7201C17.158 39.6936 17.2683 39.6442 17.366 39.5748C17.4636 39.5055 17.5466 39.4175 17.6101 39.316C17.6736 39.2145 17.7165 39.1014 17.7362 38.9833C17.7559 38.8651 17.7521 38.7443 17.7249 38.6276C17.6978 38.511 17.6479 38.4009 17.578 38.3036C17.5082 38.2063 17.4198 38.1237 17.318 38.0607C17.2162 37.9977 17.1029 37.9553 16.9847 37.9362V37.9365Z" fill="#2D3C58"/>
<path id="Vector_6" d="M39.1133 19.5647C38.8723 19.5588 38.6388 19.6489 38.4641 19.8151C38.2894 19.9814 38.188 20.2102 38.1819 20.4512C38.1673 21.0261 38.1255 21.6069 38.0572 22.1777C38.0287 22.4172 38.0964 22.6582 38.2455 22.8477C38.3946 23.0373 38.6128 23.1599 38.8523 23.1886C38.8885 23.1927 38.925 23.1948 38.9614 23.1948C39.1837 23.1945 39.3981 23.1128 39.5642 22.9652C39.7304 22.8176 39.8367 22.6143 39.8632 22.3936C39.9378 21.7663 39.9839 21.1283 39.9996 20.4965C40.0026 20.3772 39.9821 20.2583 39.9392 20.1469C39.8963 20.0354 39.8319 19.9335 39.7496 19.847C39.6673 19.7604 39.5687 19.691 39.4595 19.6425C39.3504 19.5941 39.2327 19.5677 39.1133 19.5647Z" fill="#2D3C58"/>
<path id="Vector_7" d="M36.3234 29.9644C36.1239 29.8291 35.8788 29.7786 35.642 29.8238C35.4052 29.8689 35.196 30.0062 35.0603 30.2055C34.7372 30.6809 34.3878 31.1466 34.0211 31.5892C33.9432 31.6809 33.8842 31.7872 33.8476 31.9019C33.8111 32.0166 33.7977 32.1374 33.8082 32.2573C33.8187 32.3772 33.8529 32.4938 33.9088 32.6004C33.9647 32.7069 34.0413 32.8014 34.134 32.8781C34.2267 32.9549 34.3337 33.0125 34.4489 33.0475C34.564 33.0826 34.685 33.0944 34.8048 33.0824C34.9245 33.0703 35.0407 33.0346 35.1465 32.9772C35.2524 32.9199 35.3458 32.8422 35.4213 32.7484C35.8244 32.2619 36.2093 31.7501 36.5644 31.227C36.6315 31.1283 36.6785 31.0173 36.7027 30.9004C36.7269 30.7835 36.7279 30.663 36.7055 30.5458C36.6831 30.4285 36.6378 30.3168 36.5723 30.2171C36.5067 30.1173 36.4221 30.0315 36.3234 29.9644Z" fill="#2D3C58"/>
<path id="Vector_8" d="M37.5757 15.3125C37.723 15.8666 37.8456 16.4347 37.9401 17.003C37.9754 17.2153 38.0847 17.4082 38.2488 17.5474C38.4128 17.6867 38.6209 17.7632 38.8361 17.7635C38.8862 17.7634 38.9362 17.7592 38.9857 17.7511C39.1035 17.7315 39.2163 17.689 39.3176 17.6258C39.419 17.5627 39.5069 17.4802 39.5764 17.3831C39.6459 17.2859 39.6955 17.1761 39.7225 17.0598C39.7495 16.9434 39.7533 16.8229 39.7337 16.7051C39.6302 16.0801 39.4951 15.4539 39.3331 14.8445C39.2697 14.613 39.1174 14.4159 38.9092 14.2963C38.7011 14.1766 38.4541 14.1441 38.2221 14.2059C37.9901 14.2677 37.792 14.4187 37.6709 14.626C37.5499 14.8333 37.5157 15.0801 37.5759 15.3125H37.5757Z" fill="#2D3C58"/>
<path id="Vector_9" d="M31.5719 34.0324C31.1274 34.3999 30.6618 34.7493 30.188 35.0703C30.0892 35.1373 30.0046 35.2231 29.9389 35.3228C29.8733 35.4225 29.8279 35.5342 29.8054 35.6514C29.7829 35.7687 29.7837 35.8892 29.8077 36.0061C29.8318 36.1231 29.8787 36.2341 29.9457 36.3329C30.0127 36.4317 30.0985 36.5164 30.1982 36.5821C30.2979 36.6477 30.4095 36.6931 30.5268 36.7156C30.644 36.7381 30.7645 36.7373 30.8815 36.7132C30.9984 36.6892 31.1094 36.6423 31.2083 36.5753C31.7295 36.2223 32.2413 35.8383 32.7306 35.4343C32.8233 35.3584 32.9 35.265 32.9565 35.1593C33.013 35.0537 33.048 34.938 33.0596 34.8187C33.0712 34.6995 33.0591 34.5792 33.0241 34.4647C32.989 34.3501 32.9317 34.2436 32.8554 34.1513C32.7791 34.059 32.6853 33.9827 32.5794 33.9267C32.4735 33.8707 32.3576 33.8362 32.2384 33.8252C32.1191 33.8141 31.9988 33.8267 31.8844 33.8623C31.7701 33.8979 31.6639 33.9557 31.5719 34.0324Z" fill="#2D3C58"/>
<path id="Vector_10" d="M38.4652 24.9653C38.2355 24.8924 37.9863 24.9135 37.7722 25.0241C37.558 25.1347 37.3965 25.3257 37.323 25.5552C37.1491 26.1007 36.9457 26.6456 36.7189 27.1753C36.6693 27.2854 36.6421 27.4042 36.639 27.525C36.6358 27.6457 36.6568 27.7658 36.7006 27.8784C36.7444 27.9909 36.8102 28.0936 36.8941 28.1804C36.978 28.2672 37.0784 28.3365 37.1894 28.384C37.3004 28.4316 37.4198 28.4567 37.5405 28.4576C37.6613 28.4586 37.781 28.4355 37.8927 28.3896C38.0045 28.3438 38.1059 28.2762 38.1912 28.1907C38.2765 28.1052 38.3439 28.0036 38.3895 27.8918C38.6399 27.3088 38.8636 26.7081 39.055 26.1076C39.0913 25.9938 39.1049 25.8741 39.0949 25.7551C39.085 25.6361 39.0517 25.5203 38.9969 25.4142C38.9421 25.3081 38.867 25.2138 38.7757 25.1368C38.6845 25.0598 38.579 25.0015 38.4652 24.9653Z" fill="#2D3C58"/>
<path id="Vector_11" d="M27.1577 36.7253C26.6333 36.95 26.0882 37.1528 25.5373 37.3286C25.4235 37.3649 25.318 37.4232 25.2268 37.5002C25.1356 37.5772 25.0605 37.6715 25.0057 37.7775C24.9509 37.8836 24.9175 37.9994 24.9075 38.1184C24.8975 38.2374 24.911 38.3571 24.9472 38.4709C24.9835 38.5846 25.0418 38.6901 25.1188 38.7813C25.1959 38.8725 25.2901 38.9477 25.3962 39.0025C25.5023 39.0572 25.6181 39.0906 25.737 39.1006C25.856 39.1107 25.9758 39.0972 26.0895 39.0609C26.6956 38.8678 27.2957 38.6445 27.8733 38.3972C28.095 38.3023 28.2699 38.1231 28.3596 37.8992C28.4492 37.6753 28.4462 37.425 28.3513 37.2033C28.2563 36.9815 28.0772 36.8066 27.8533 36.717C27.6294 36.6274 27.379 36.6303 27.1573 36.7253H27.1577Z" fill="#2D3C58"/>
<path id="Vector_12" d="M12.3134 18.1458C12.3134 16.6557 11.3331 15.4617 9.81699 15.1036C8.9839 14.9063 8.10853 14.9972 7.33376 15.3615C6.55899 15.7258 5.93057 16.3419 5.55108 17.1094C5.49768 17.2162 5.46583 17.3324 5.45737 17.4516C5.4489 17.5707 5.46398 17.6903 5.50174 17.8036C5.53951 17.9169 5.59921 18.0216 5.67745 18.1118C5.7557 18.202 5.85094 18.276 5.95775 18.3294C6.06456 18.3828 6.18084 18.4146 6.29996 18.4231C6.41907 18.4315 6.53869 18.4165 6.65198 18.3787C6.76527 18.3409 6.87001 18.2812 6.96022 18.203C7.05044 18.1247 7.12436 18.0295 7.17776 17.9227C7.37189 17.5198 7.69843 17.1958 8.10277 17.0049C8.50712 16.8139 8.96478 16.7675 9.39923 16.8734C9.65631 16.934 10.4949 17.2052 10.4949 18.1458C10.4949 19.094 9.39966 19.8255 8.24008 20.5999C6.93449 21.4714 5.45519 22.4592 5.45519 24.0947C5.45519 24.3358 5.55098 24.5671 5.7215 24.7376C5.89201 24.9081 6.12328 25.0039 6.36442 25.0039H11.4041C11.6453 25.0039 11.8765 24.9081 12.047 24.7376C12.2176 24.5671 12.3134 24.3358 12.3134 24.0947C12.3134 23.8535 12.2176 23.6223 12.047 23.4518C11.8765 23.2812 11.6453 23.1855 11.4041 23.1855H7.80196C8.1828 22.8246 8.72134 22.4649 9.24964 22.1121C10.686 21.1531 12.3134 20.0663 12.3134 18.1458Z" fill="#2D3C58"/>
<path id="Vector_13" d="M20.9128 21.1397C20.9128 20.8986 20.817 20.6673 20.6465 20.4968C20.476 20.3263 20.2447 20.2306 20.0036 20.2306H19.2648V15.4004C19.2648 15.2121 19.2063 15.0284 19.0974 14.8748C18.9885 14.7211 18.8347 14.6051 18.657 14.5427C18.4794 14.4802 18.2867 14.4745 18.1057 14.5262C17.9246 14.5779 17.7641 14.6846 17.6462 14.8315L13.0434 20.571C12.9363 20.7047 12.8691 20.866 12.8496 21.0362C12.8302 21.2064 12.8592 21.3786 12.9333 21.5331C13.0074 21.6875 13.1237 21.8179 13.2687 21.9091C13.4137 22.0004 13.5815 22.0489 13.7528 22.0489H17.4464V24.6061C17.4453 24.7262 17.4679 24.8454 17.5131 24.9567C17.5583 25.068 17.6251 25.1693 17.7096 25.2547C17.7941 25.34 17.8948 25.4078 18.0056 25.4541C18.1165 25.5003 18.2355 25.5241 18.3556 25.5241C18.4758 25.5241 18.5947 25.5003 18.7056 25.4541C18.8165 25.4078 18.9171 25.34 19.0017 25.2547C19.0862 25.1693 19.153 25.068 19.1982 24.9567C19.2433 24.8454 19.266 24.7262 19.2648 24.6061V22.0489H20.0036C20.2447 22.0489 20.476 21.9531 20.6465 21.7826C20.817 21.6121 20.9128 21.3808 20.9128 21.1397ZM17.4464 20.2306H15.6479L17.4464 17.9873V20.2306Z" fill="#2D3C58"/>
<path id="Vector_14" d="M25.565 13.9975C25.4479 13.9738 25.3272 13.9735 25.21 13.9966C25.0928 14.0196 24.9813 14.0656 24.8819 14.1319C24.7825 14.1981 24.6971 14.2834 24.6308 14.3827C24.5644 14.482 24.5183 14.5935 24.495 14.7107L22.4493 24.9392C22.4259 25.0563 22.4257 25.1768 22.4489 25.2939C22.472 25.4111 22.518 25.5225 22.5842 25.6219C22.6504 25.7212 22.7356 25.8065 22.8347 25.873C22.9339 25.9395 23.0452 25.9857 23.1623 26.0092C23.2794 26.0326 23.3999 26.0328 23.517 26.0096C23.6342 25.9865 23.7456 25.9405 23.8449 25.8743C23.9443 25.8081 24.0296 25.7229 24.0961 25.6238C24.1625 25.5246 24.2088 25.4133 24.2323 25.2962L26.278 15.0676C26.3015 14.9505 26.3017 14.83 26.2786 14.7128C26.2555 14.5956 26.2095 14.4842 26.1433 14.3848C26.077 14.2854 25.9919 14.2 25.8927 14.1336C25.7934 14.0671 25.6821 14.0209 25.565 13.9975Z" fill="#2D3C58"/>
<path id="Vector_15" d="M30.2315 25.0042C30.411 25.0041 30.5865 24.9509 30.7359 24.8512C30.8853 24.7516 31.0019 24.6101 31.071 24.4443L34.4805 16.2615C34.5381 16.1233 34.5608 15.973 34.5463 15.824C34.5319 15.6749 34.4809 15.5318 34.3979 15.4072C34.3148 15.2826 34.2022 15.1805 34.0702 15.1099C33.9382 15.0393 33.7907 15.0024 33.641 15.0024H29.0381C28.797 15.0024 28.5657 15.0982 28.3952 15.2688C28.2247 15.4393 28.1289 15.6705 28.1289 15.9117C28.1289 16.1528 28.2247 16.3841 28.3952 16.5546C28.5657 16.7251 28.797 16.8209 29.0381 16.8209H32.2772L29.3924 23.745C29.3351 23.8832 29.3127 24.0334 29.3272 24.1823C29.3418 24.3312 29.3928 24.4742 29.4757 24.5987C29.5587 24.7232 29.671 24.8253 29.8028 24.896C29.9347 24.9667 30.0819 25.0039 30.2315 25.0042Z" fill="#2D3C58"/>
</g>
</svg>
