<svg width="70" height="70" viewBox="0 0 70 70" fill="none" xmlns="http://www.w3.org/2000/svg">
<path d="M35.0563 69.8818C54.1671 69.8818 69.6594 54.3796 69.6594 35.2566C69.6594 16.1337 54.1671 0.631454 35.0563 0.631454C15.9455 0.631454 0.453125 16.1337 0.453125 35.2566C0.453125 54.3796 15.9455 69.8818 35.0563 69.8818Z" fill="#FED101"/>
<path d="M36.8592 16.018C37.8938 15.0054 39.2585 14.4991 40.6893 14.5872C41.7679 14.6532 42.7584 15.0494 43.5949 15.7758C44.0131 16.15 44.3873 16.5903 44.7175 17.0966C45.0917 16.6343 45.51 16.2381 45.9722 15.9079C46.8747 15.2695 47.8873 14.9834 48.9659 15.0494C50.4187 15.1375 51.7174 15.7978 52.6419 16.8984C53.5444 17.9991 54.0067 19.4519 53.9186 21.0147C53.8306 22.5996 53.1702 24.0304 51.8275 25.5052C50.6168 26.8259 48.9219 28.1247 46.9408 29.6435C46.2584 30.1498 45.51 30.7441 44.7175 31.3825C44.4974 31.5586 44.2553 31.6246 43.9691 31.6246C43.705 31.6026 43.4408 31.4925 43.2647 31.3164C42.5383 30.612 41.8339 29.9297 41.2176 29.3573C39.4126 27.6404 37.8497 26.1436 36.7711 24.6908C35.5825 23.0839 35.0542 21.587 35.1422 19.9802C35.2523 18.4173 35.8466 17.0085 36.8592 16.018Z" fill="#FF7DCE"/>
<path d="M24.0702 19.2097C22.6834 18.8135 21.2527 18.9896 19.998 19.76C19.0734 20.3323 18.3911 21.1248 17.9948 22.1814C17.7967 22.7097 17.6647 23.282 17.6206 23.8763C17.0703 23.6342 16.498 23.4801 15.9477 23.414C14.8471 23.282 13.8125 23.5021 12.888 24.0744C11.6553 24.8228 10.7969 26.0115 10.5107 27.4423C10.2245 28.8511 10.5107 30.3479 11.3031 31.6686C12.1176 33.0334 13.3943 33.9799 15.2653 34.6403C16.9383 35.2346 19.0734 35.5868 21.5168 35.983C22.3533 36.1151 23.2998 36.2912 24.2903 36.4673C24.5545 36.5113 24.8186 36.4673 25.0608 36.3352C25.2809 36.2031 25.457 35.983 25.545 35.7189C25.8532 34.7503 26.1614 33.8258 26.4255 33.0114C27.218 30.634 27.9003 28.5869 28.1645 26.8039C28.4506 24.8228 28.2085 23.26 27.3941 21.8952C26.6236 20.5745 25.435 19.6059 24.0702 19.2097Z" fill="#FF7DCE"/>
<path d="M18.2598 43.4231C21.1213 55.3758 34.7469 61.209 45.3568 54.9135C52.5327 50.6651 55.7245 42.2565 53.7214 34.5522L18.2598 43.4231Z" fill="white"/>
<path d="M36.0691 57.9732C33.5817 57.9732 31.0943 57.4669 28.717 56.4543C23.1479 54.099 19.1637 49.3884 17.777 43.5112C17.7109 43.247 17.865 42.9829 18.1292 42.9169L53.5908 34.068C53.8549 34.0019 54.1191 34.156 54.1851 34.4201C56.2983 42.4766 52.7763 51.0834 45.6004 55.3317C42.6507 57.0927 39.3709 57.9732 36.0691 57.9732ZM18.8556 43.7753C20.2864 49.1023 23.9844 53.3947 29.1132 55.5518C34.3742 57.7751 40.2074 57.4009 45.1161 54.4732C51.7638 50.5331 55.1096 42.6307 53.3707 35.1466L18.8556 43.7753Z" fill="black"/>
</svg>
