<svg width="66" height="65" viewBox="0 0 66 65" fill="none" xmlns="http://www.w3.org/2000/svg">
<path d="M63.8289 38.886V26.72H56.2046C55.6847 24.5474 54.8183 22.5487 53.692 20.6369L59.0637 15.2491L50.4863 6.64595L45.1147 12.0338C43.2086 10.9041 41.2159 10.0351 39.0499 9.51367V1.86642H26.9203V9.51367C24.7543 10.0351 22.7616 10.9041 20.8555 12.0338L15.4839 6.64595L6.81988 15.2491L12.1915 20.6369C11.0652 22.5487 10.1988 24.5474 9.67899 26.72H2.05469V38.886H9.67899C10.1988 41.0585 11.0652 43.0573 12.1915 44.9691L6.81988 50.3569L15.3972 58.96L20.7689 53.5722C22.675 54.7019 24.6677 55.5709 26.8337 56.0923V63.7396H38.9632V56.0923C41.1292 55.5709 43.122 54.7019 45.028 53.5722L50.3997 58.96L58.977 50.3569L53.6054 44.9691C54.7317 43.0573 55.5981 41.0585 56.1179 38.886H63.8289ZM32.9851 43.9263C26.8337 43.9263 21.8952 38.9729 21.8952 32.803C21.8952 26.6331 26.8337 21.6797 32.9851 21.6797C39.1365 21.6797 44.075 26.6331 44.075 32.803C44.075 38.9729 39.0499 43.9263 32.9851 43.9263Z" fill="#EC644E" stroke="#263238" stroke-width="2.5" stroke-miterlimit="10" stroke-linecap="round" stroke-linejoin="round"/>
</svg>
