<svg width="444" height="381" viewBox="0 0 444 381" fill="none" xmlns="http://www.w3.org/2000/svg">
<path d="M91.2354 134.383C71.7011 132.643 51.1162 141.284 40.1554 157.555C29.1947 173.827 29.364 197.331 41.9297 212.394C52.6394 225.233 70.6155 231.334 78.7806 245.923C88.4631 263.216 80.5724 284.649 81.191 304.458C82.2241 337.503 108.996 366.11 140.518 376.047C172.04 385.983 206.813 379.859 237.028 366.466C256.726 357.732 276.797 343.586 280.737 322.393C282.202 314.523 281.245 306.402 282.038 298.433C282.826 290.464 285.937 281.986 292.917 278.069C302.156 272.879 314.022 277.9 321.691 285.221C329.354 292.536 334.852 302.047 343.25 308.51C361.413 322.481 389.562 317.588 405.793 301.404C422.018 285.227 427.603 260.683 425.631 237.849C424.143 220.62 416.865 201.628 400.686 195.539C395.358 193.531 389.346 193.064 384.683 189.794C377.504 184.762 375.858 174.667 377.195 166.003C378.531 157.339 382.167 149.125 383.148 140.414C385.418 120.208 371.084 99.4353 351.386 94.4027C335.295 90.2926 317.588 95.728 302.005 89.9949C286.591 84.3259 276.955 69.1405 269.858 54.323C262.761 39.5055 256.633 23.4736 244.283 12.6436C232.377 2.19894 215.294 -2.01045 199.897 1.70269C184.501 5.41583 171.217 16.9581 165.375 31.6822C159.918 45.443 160.863 60.8385 162.76 75.5159C165.626 97.6255 172.77 132.824 150.924 148.518C142.928 154.257 134.191 152.371 125.997 148.051C114.4 141.926 104.764 135.586 91.2354 134.383Z" fill="#0774FF"/>
<path d="M330.383 174.726C329.945 174.726 329.513 174.562 329.181 174.229C328.515 173.564 328.515 172.49 329.181 171.824L345.231 155.769C345.896 155.103 346.97 155.103 347.635 155.769C348.301 156.434 348.301 157.509 347.635 158.174L331.585 174.229C331.253 174.556 330.815 174.726 330.383 174.726Z" fill="white"/>
<path d="M346.433 174.726C345.995 174.726 345.563 174.562 345.231 174.229L329.181 158.174C328.515 157.509 328.515 156.434 329.181 155.769C329.846 155.103 330.92 155.103 331.585 155.769L347.635 171.824C348.301 172.49 348.301 173.564 347.635 174.229C347.303 174.556 346.865 174.726 346.433 174.726Z" fill="white"/>
<path d="M263.567 80.2216C258.162 80.2216 253.762 75.8195 253.762 70.4133C253.762 64.9895 258.162 60.5758 263.567 60.5758C268.989 60.5758 273.401 64.9895 273.401 70.4133C273.401 75.8254 268.989 80.2216 263.567 80.2216ZM263.567 63.9854C260.036 63.9854 257.164 66.8695 257.164 70.4191C257.164 73.9513 260.036 76.8237 263.567 76.8237C267.115 76.8237 269.999 73.9513 269.999 70.4191C269.999 66.8695 267.115 63.9854 263.567 63.9854Z" fill="white"/>
<path d="M182.546 99.3302C178.338 99.3302 174.912 95.9032 174.912 91.6938C174.912 87.4727 178.338 84.034 182.546 84.034C186.772 84.034 190.203 87.4727 190.203 91.6938C190.203 95.9032 186.772 99.3302 182.546 99.3302ZM182.546 86.6845C179.797 86.6845 177.562 88.9323 177.562 91.6938C177.562 94.4436 179.797 96.6797 182.546 96.6797C185.307 96.6797 187.554 94.4436 187.554 91.6938C187.56 88.9323 185.313 86.6845 182.546 86.6845Z" fill="white"/>
<path d="M314.383 22.9248C308.979 22.9248 304.578 18.5227 304.578 13.1165C304.578 7.69272 308.979 3.27899 314.383 3.27899C319.805 3.27899 324.218 7.69272 324.218 13.1165C324.212 18.5227 319.805 22.9248 314.383 22.9248ZM314.383 6.6827C310.852 6.6827 307.981 9.56681 307.981 13.1165C307.981 16.6486 310.852 19.5211 314.383 19.5211C317.932 19.5211 320.815 16.6486 320.815 13.1165C320.815 9.56681 317.926 6.6827 314.383 6.6827Z" fill="white"/>
<path d="M183.456 39.0508C183.129 39.0508 182.803 38.9282 182.557 38.6771L177.929 34.0469C177.433 33.5506 177.433 32.7449 177.929 32.2486C178.425 31.7523 179.23 31.7523 179.727 32.2486L184.355 36.8788C184.851 37.3751 184.851 38.1808 184.355 38.6771C184.11 38.9282 183.783 39.0508 183.456 39.0508Z" fill="white"/>
<path d="M193.992 28.5127C193.665 28.5127 193.338 28.3901 193.093 28.139L188.464 23.5088C187.968 23.0125 187.968 22.2068 188.464 21.7105C188.96 21.2142 189.766 21.2142 190.262 21.7105L194.89 26.3407C195.387 26.837 195.387 27.6427 194.89 28.139C194.645 28.3901 194.318 28.5127 193.992 28.5127Z" fill="white"/>
<path d="M178.828 28.5127C178.501 28.5127 178.174 28.3901 177.929 28.139C177.433 27.6427 177.433 26.837 177.929 26.3407L182.557 21.7105C183.054 21.2142 183.859 21.2142 184.355 21.7105C184.851 22.2068 184.851 23.0125 184.355 23.5088L179.727 28.139C179.481 28.3901 179.155 28.5127 178.828 28.5127Z" fill="white"/>
<path d="M189.363 39.0508C189.036 39.0508 188.709 38.9282 188.464 38.6771C187.968 38.1808 187.968 37.3751 188.464 36.8788L193.093 32.2486C193.589 31.7523 194.394 31.7523 194.89 32.2486C195.387 32.7449 195.387 33.5506 194.89 34.0469L190.262 38.6771C190.017 38.9282 189.69 39.0508 189.363 39.0508Z" fill="white"/>
<path d="M411.492 72.8369C411.165 72.8369 410.838 72.7143 410.593 72.4632L405.964 67.833C405.468 67.3367 405.468 66.5309 405.964 66.0346C406.46 65.5383 407.266 65.5383 407.762 66.0346L412.39 70.6648C412.887 71.1611 412.887 71.9669 412.39 72.4632C412.145 72.7143 411.818 72.8369 411.492 72.8369Z" fill="white"/>
<path d="M422.025 62.3047C421.698 62.3047 421.371 62.1821 421.126 61.931L416.497 57.3008C416.001 56.8045 416.001 55.9987 416.497 55.5024C416.993 55.0061 417.799 55.0061 418.301 55.5024L422.929 60.1326C423.426 60.6289 423.426 61.4347 422.929 61.931C422.678 62.1762 422.352 62.3047 422.025 62.3047Z" fill="white"/>
<path d="M406.863 62.3046C406.536 62.3046 406.209 62.182 405.964 61.9309C405.468 61.4346 405.468 60.6289 405.964 60.1326L410.593 55.5024C411.089 55.0061 411.894 55.0061 412.39 55.5024C412.887 55.9987 412.887 56.8044 412.39 57.3007L407.762 61.9309C407.517 62.1762 407.19 62.3046 406.863 62.3046Z" fill="white"/>
<path d="M417.396 72.8369C417.069 72.8369 416.742 72.7143 416.497 72.4632C416.001 71.9669 416.001 71.1611 416.497 70.6648L421.126 66.0346C421.622 65.5383 422.427 65.5383 422.929 66.0346C423.431 66.5309 423.426 67.3367 422.929 67.833L418.301 72.4632C418.05 72.7143 417.723 72.8369 417.396 72.8369Z" fill="white"/>
<path d="M432.193 279.734C431.866 279.734 431.539 279.611 431.294 279.36L426.665 274.735C426.169 274.239 426.169 273.433 426.665 272.937C427.161 272.441 427.967 272.441 428.463 272.937L433.092 277.567C433.588 278.064 433.588 278.869 433.092 279.366C432.846 279.611 432.52 279.734 432.193 279.734Z" fill="white"/>
<path d="M442.726 269.195C442.399 269.195 442.072 269.073 441.827 268.822L437.198 264.192C436.702 263.695 436.702 262.889 437.198 262.387C437.694 261.891 438.5 261.891 439.002 262.387L443.631 267.018C444.127 267.514 444.127 268.32 443.631 268.822C443.374 269.073 443.053 269.195 442.726 269.195Z" fill="white"/>
<path d="M427.564 269.195C427.237 269.195 426.91 269.073 426.665 268.822C426.169 268.325 426.169 267.52 426.665 267.018L431.294 262.387C431.79 261.891 432.595 261.891 433.097 262.387C433.594 262.884 433.594 263.689 433.097 264.192L428.469 268.822C428.218 269.073 427.891 269.195 427.564 269.195Z" fill="white"/>
<path d="M438.097 279.734C437.77 279.734 437.443 279.611 437.198 279.36C436.702 278.864 436.702 278.058 437.198 277.561L441.827 272.931C442.323 272.435 443.129 272.435 443.625 272.931C444.121 273.428 444.121 274.233 443.625 274.73L438.996 279.36C438.751 279.611 438.424 279.734 438.097 279.734Z" fill="white"/>
<path opacity="0.1" d="M370.448 59.8869H312.989C312.242 59.8869 311.67 60.459 311.67 61.2063V96.1659C311.67 96.9132 312.242 97.4853 312.989 97.4853H319.537V111.824C319.537 112.396 319.888 112.881 320.372 113.056C320.547 113.144 320.681 113.144 320.81 113.144C321.207 113.144 321.603 112.968 321.866 112.659L333.691 97.4853H370.442C371.148 97.4853 371.715 96.9132 371.715 96.1659V61.2063C371.726 60.459 371.154 59.8869 370.448 59.8869ZM326.354 82.446C323.232 82.446 320.681 79.9822 320.681 76.9463C320.681 73.9571 323.232 71.4934 326.354 71.4934C329.43 71.4934 331.981 73.9571 331.981 76.9463C331.986 79.9822 329.436 82.446 326.354 82.446ZM342.142 82.446C339.019 82.446 336.469 79.9822 336.469 76.9463C336.469 73.9571 339.019 71.4934 342.142 71.4934C345.217 71.4934 347.768 73.9571 347.768 76.9463C347.768 79.9822 345.217 82.446 342.142 82.446ZM357.083 82.446C353.96 82.446 351.457 79.9822 351.457 76.9463C351.457 73.9571 353.96 71.4934 357.083 71.4934C360.205 71.4934 362.709 73.9571 362.709 76.9463C362.715 79.9822 360.205 82.446 357.083 82.446Z" fill="black"/>
<path d="M366.052 55.4907H308.592C307.845 55.4907 307.273 56.0628 307.273 56.8101V91.7697C307.273 92.517 307.845 93.0891 308.592 93.0891H315.141V107.428C315.141 108 315.491 108.485 315.975 108.66C316.151 108.747 316.285 108.747 316.413 108.747C316.81 108.747 317.207 108.572 317.47 108.263L329.294 93.0891H366.046C366.752 93.0891 367.318 92.517 367.318 91.7697V56.8101C367.324 56.0628 366.758 55.4907 366.052 55.4907ZM321.958 78.0497C318.835 78.0497 316.285 75.586 316.285 72.5501C316.285 69.5609 318.835 67.0972 321.958 67.0972C325.034 67.0972 327.584 69.5609 327.584 72.5501C327.584 75.586 325.034 78.0497 321.958 78.0497ZM337.739 78.0497C334.617 78.0497 332.066 75.586 332.066 72.5501C332.066 69.5609 334.617 67.0972 337.739 67.0972C340.815 67.0972 343.366 69.5609 343.366 72.5501C343.366 75.586 340.821 78.0497 337.739 78.0497ZM352.686 78.0497C349.564 78.0497 347.06 75.586 347.06 72.5501C347.06 69.5609 349.564 67.0972 352.686 67.0972C355.809 67.0972 358.313 69.5609 358.313 72.5501C358.313 75.586 355.809 78.0497 352.686 78.0497Z" fill="white"/>
<path d="M23.1254 199.705C23.4016 198.031 22.2692 196.45 20.5961 196.174C18.923 195.898 17.3428 197.031 17.0665 198.704C16.7903 200.378 17.9227 201.959 19.5958 202.235C21.2689 202.511 22.8491 201.378 23.1254 199.705Z" fill="white"/>
<path d="M20.08 213.825C21.7757 213.825 23.1503 212.45 23.1503 210.754C23.1503 209.058 21.7757 207.683 20.08 207.683C18.3844 207.683 17.0098 209.058 17.0098 210.754C17.0098 212.45 18.3844 213.825 20.08 213.825Z" fill="white"/>
<path d="M21.3024 225.138C22.86 224.467 23.5793 222.661 22.909 221.102C22.2387 219.544 20.4326 218.825 18.875 219.495C17.3174 220.166 16.5981 221.972 17.2684 223.531C17.9386 225.089 19.7447 225.808 21.3024 225.138Z" fill="white"/>
<path d="M402.782 105.234C404.349 104.585 405.093 102.789 404.444 101.222C403.795 99.6544 401.999 98.9102 400.432 99.5594C398.866 100.209 398.122 102.005 398.771 103.572C399.42 105.139 401.216 105.884 402.782 105.234Z" fill="white"/>
<path d="M402.782 116.794C404.349 116.145 405.093 114.349 404.444 112.781C403.795 111.214 401.999 110.47 400.432 111.119C398.866 111.768 398.122 113.565 398.771 115.132C399.42 116.699 401.216 117.443 402.782 116.794Z" fill="white"/>
<path d="M404.633 126.008C404.905 124.334 403.768 122.756 402.094 122.484C400.421 122.213 398.844 123.35 398.572 125.024C398.3 126.698 399.437 128.276 401.111 128.548C402.784 128.819 404.362 127.682 404.633 126.008Z" fill="white"/>
<path d="M62.8312 64.359C61.9033 64.359 61.1445 63.5942 61.1445 62.6601V25.7388C61.1445 24.8106 61.8974 24.0516 62.8312 24.0516C63.7651 24.0516 64.5296 24.8106 64.5296 25.7388V62.6601C64.5296 63.5942 63.7651 64.359 62.8312 64.359Z" fill="white"/>
<path d="M436.932 245.485C436.156 245.485 435.525 244.849 435.525 244.067V213.293C435.525 212.517 436.156 211.886 436.932 211.886C437.714 211.886 438.35 212.517 438.35 213.293V244.067C438.344 244.849 437.708 245.485 436.932 245.485Z" fill="white"/>
<path d="M436.932 209.779C436.156 209.779 435.525 209.142 435.525 208.36V197.18C435.525 196.403 436.156 195.773 436.932 195.773C437.714 195.773 438.35 196.403 438.35 197.18V208.36C438.344 209.142 437.708 209.779 436.932 209.779Z" fill="white"/>
<path d="M297.337 130.699C297.691 129.04 296.633 127.408 294.975 127.054C293.317 126.7 291.686 127.758 291.332 129.417C290.978 131.076 292.036 132.708 293.694 133.062C295.352 133.415 296.984 132.358 297.337 130.699Z" fill="white"/>
<path d="M297.353 119.123C297.692 117.461 296.62 115.839 294.958 115.499C293.297 115.16 291.675 116.233 291.336 117.895C290.997 119.557 292.069 121.179 293.731 121.518C295.392 121.857 297.014 120.785 297.353 119.123Z" fill="white"/>
<path d="M297.321 107.739C297.765 106.102 296.797 104.415 295.16 103.972C293.523 103.529 291.837 104.497 291.394 106.134C290.951 107.771 291.919 109.458 293.556 109.901C295.192 110.345 296.878 109.376 297.321 107.739Z" fill="white"/>
<path d="M209.084 62.5245C209.208 60.8329 207.938 59.3606 206.247 59.236C204.556 59.1114 203.084 60.3818 202.96 62.0734C202.835 63.765 204.105 65.2373 205.796 65.3619C207.487 65.4865 208.959 64.2161 209.084 62.5245Z" fill="white"/>
<path d="M197.535 62.4269C197.602 60.732 196.282 59.3042 194.588 59.2376C192.894 59.1711 191.466 60.4911 191.4 62.1859C191.333 63.8808 192.653 65.3087 194.347 65.3752C196.041 65.4417 197.469 64.1217 197.535 62.4269Z" fill="white"/>
<path d="M182.973 65.376C184.669 65.3411 186.015 63.938 185.98 62.2422C185.945 60.5463 184.542 59.1999 182.847 59.2348C181.152 59.2697 179.806 60.6728 179.841 62.3687C179.876 64.0645 181.278 65.411 182.973 65.376Z" fill="white"/>
<path d="M342.892 366.11C342.046 366.11 341.363 365.415 341.363 364.569V269.189C341.363 268.342 342.052 267.653 342.892 267.653C343.745 267.653 344.433 268.342 344.433 269.189V364.569C344.433 365.421 343.745 366.11 342.892 366.11Z" fill="white"/>
<path d="M358.377 298.293C357.531 298.293 356.848 297.598 356.848 296.751V282.78C356.848 281.934 357.536 281.245 358.377 281.245C359.229 281.245 359.918 281.934 359.918 282.78V296.746C359.918 297.598 359.229 298.293 358.377 298.293Z" fill="white"/>
<path d="M358.377 338.501C357.531 338.501 356.848 337.806 356.848 336.96V306.484C356.848 305.637 357.536 304.948 358.377 304.948C359.229 304.948 359.918 305.637 359.918 306.484V336.96C359.918 337.806 359.229 338.501 358.377 338.501Z" fill="white"/>
<path d="M342.886 260.525C340.032 260.525 337.709 258.201 337.709 255.34C337.709 252.468 340.032 250.139 342.886 250.139C345.757 250.139 348.086 252.474 348.086 255.34C348.092 258.201 345.757 260.525 342.886 260.525Z" fill="white"/>
<path d="M358.372 355.835C355.518 355.835 353.195 353.511 353.195 350.656C353.195 347.784 355.518 345.448 358.372 345.448C361.244 345.448 363.572 347.784 363.572 350.656C363.578 353.505 361.244 355.835 358.372 355.835Z" fill="white"/>
<path d="M5.6046 85.4176C2.75061 85.4176 0.427734 83.094 0.427734 80.2333C0.427734 77.3608 2.75061 75.0314 5.6046 75.0314C8.4761 75.0314 10.8048 77.3667 10.8048 80.2333C10.8107 83.094 8.4761 85.4176 5.6046 85.4176Z" fill="white"/>
<path d="M34.9551 19.5269C30.8638 19.5269 27.5371 16.1991 27.5371 12.1065C27.5371 7.99632 30.8638 4.65683 34.9551 4.65683C39.064 4.65683 42.4024 8.00216 42.4024 12.1065C42.4024 16.1991 39.064 19.5269 34.9551 19.5269Z" fill="white"/>
<path opacity="0.1" d="M420.029 224.316C420.029 230.452 415.05 235.374 408.975 235.374H393.426V228.082H402.963L384.503 209.796L366.042 228.082H375.579V235.374H362.885C355.233 235.374 348.977 229.115 348.977 221.461C348.977 213.93 354.93 207.794 362.336 207.49C364.28 199.591 371.382 193.823 379.828 193.823C388.267 193.823 395.376 199.597 397.378 207.49H397.862C402.537 207.49 406.669 209.796 409.22 213.264C415.173 213.381 420.029 218.238 420.029 224.316Z" fill="black"/>
<path d="M413.956 218.238C413.956 224.374 408.978 229.296 402.902 229.296H387.354V222.004H396.891L378.43 203.719L359.97 222.004H369.507V229.296H356.812C349.161 229.296 342.904 223.037 342.904 215.383C342.904 207.852 348.857 201.716 356.264 201.412C358.207 193.513 365.31 187.745 373.755 187.745C382.195 187.745 389.304 193.519 391.305 201.412H391.79C396.465 201.412 400.597 203.719 403.147 207.186C409.095 207.303 413.956 212.161 413.956 218.238Z" fill="white"/>
<path opacity="0.1" d="M140.862 85.3418H113.857C113.326 82.446 111.126 80.1982 108.184 79.667V71.7094H135.638C136.333 71.7094 136.864 71.1781 136.864 70.4834V34.4087C136.864 33.7548 136.333 33.2235 135.638 33.2235H112.672V23.9232C112.672 23.2693 112.1 22.738 111.447 22.738H76.8895C76.1949 22.738 75.6638 23.2693 75.6638 23.9232V70.4892C75.6638 71.184 76.1949 71.7152 76.8895 71.7152H105.774V79.7137C102.879 80.2041 100.673 82.446 100.142 85.3476H74.8059C74.1522 85.3476 73.6211 85.8789 73.6211 86.5737C73.6211 87.2275 74.1522 87.7588 74.8059 87.7588H100.142C100.673 90.6955 102.873 92.9023 105.774 93.4336V108.111C102.593 108.683 100.142 111.375 100.142 114.72C100.142 118.515 103.2 121.574 106.994 121.574C110.787 121.574 113.845 118.515 113.845 114.72C113.845 111.375 111.4 108.677 108.213 108.111V93.4219C111.108 92.8906 113.314 90.6896 113.845 87.7471H140.85C141.504 87.7471 142.035 87.2159 142.035 86.562C142.047 85.873 141.516 85.3418 140.862 85.3418ZM86.3969 44.2053H125.034C125.687 44.2053 126.259 44.7775 126.259 45.4313C126.259 46.0852 125.687 46.6574 125.034 46.6574H86.3969C85.7433 46.6574 85.1713 46.0852 85.1713 45.4313C85.1771 44.7775 85.7433 44.2053 86.3969 44.2053ZM86.3969 52.122H125.034C125.687 52.122 126.259 52.6533 126.259 53.348C126.259 54.0019 125.687 54.5741 125.034 54.5741H86.3969C85.7433 54.5741 85.1713 54.0019 85.1713 53.348C85.1771 52.6533 85.7433 52.122 86.3969 52.122ZM86.3969 62.4849C85.7433 62.4849 85.1713 61.9128 85.1713 61.2589C85.1713 60.605 85.7433 60.0329 86.3969 60.0329H125.034C125.687 60.0329 126.259 60.605 126.259 61.2589C126.259 61.9128 125.687 62.4849 125.034 62.4849H86.3969Z" fill="black"/>
<path d="M136.784 81.2608H109.779C109.248 78.365 107.048 76.1173 104.106 75.586V67.6285H131.56C132.255 67.6285 132.786 67.0972 132.786 66.4024V30.3277C132.786 29.6739 132.255 29.1426 131.56 29.1426H108.594V19.8422C108.594 19.1883 108.022 18.657 107.369 18.657H72.8113C72.1168 18.657 71.5857 19.1883 71.5857 19.8422V66.4083C71.5857 67.103 72.1168 67.6343 72.8113 67.6343H101.696V75.6327C98.8007 76.1231 96.5946 78.365 96.0635 81.2667H70.7278C70.0741 81.2667 69.543 81.7979 69.543 82.4927C69.543 83.1466 70.0741 83.6779 70.7278 83.6779H96.0635C96.5946 86.6145 98.7949 88.8214 101.696 89.3527V104.042C98.5148 104.614 96.0635 107.305 96.0635 110.651C96.0635 114.446 99.1217 117.505 102.915 117.505C106.709 117.505 109.767 114.446 109.767 110.651C109.767 107.305 107.322 104.608 104.135 104.042V89.3527C107.03 88.8214 109.236 86.6204 109.767 83.6779H136.772C137.426 83.6779 137.957 83.1466 137.957 82.4927C137.969 81.7921 137.438 81.2608 136.784 81.2608ZM82.3188 40.1244H120.956C121.609 40.1244 122.181 40.6965 122.181 41.3504C122.181 42.0043 121.609 42.5764 120.956 42.5764H82.3188C81.6651 42.5764 81.0932 42.0043 81.0932 41.3504C81.099 40.6965 81.6651 40.1244 82.3188 40.1244ZM82.3188 48.0411H120.956C121.609 48.0411 122.181 48.5723 122.181 49.2671C122.181 49.921 121.609 50.4931 120.956 50.4931H82.3188C81.6651 50.4931 81.0932 49.921 81.0932 49.2671C81.099 48.5723 81.6651 48.0411 82.3188 48.0411ZM82.3188 58.4098C81.6651 58.4098 81.0932 57.8377 81.0932 57.1838C81.0932 56.5299 81.6651 55.9578 82.3188 55.9578H120.956C121.609 55.9578 122.181 56.5299 122.181 57.1838C122.181 57.8377 121.609 58.4098 120.956 58.4098H82.3188Z" fill="white"/>
<path d="M28.6672 315.194L38.2914 327.572H31.1185L21.5293 315.194L31.1185 302.847H38.2914L28.6672 315.194Z" fill="white"/>
<path d="M67.9015 315.194L58.2773 327.572H65.4503L75.0744 315.194L65.4503 302.847H58.2773L67.9015 315.194Z" fill="white"/>
<path d="M45.2855 333.766L59.4329 294.638H54.5712L40.418 333.766H45.2855Z" fill="white"/>
<g opacity="0.1">
<path d="M328.534 280.825C328.196 280.994 327.857 281.064 327.484 281.064C326.532 281.064 325.616 280.486 325.173 279.569C318.782 265.353 306.543 258.855 297.391 255.93C296.032 255.522 295.319 254.091 295.728 252.731C296.172 251.406 297.596 250.658 298.956 251.096C309.052 254.325 322.622 261.535 329.83 277.456C330.408 278.752 329.83 280.247 328.534 280.825Z" fill="black"/>
<path d="M319.155 287.013C324.56 295.514 327.419 305.38 327.419 315.516C327.419 334.834 316.949 352.653 300.082 362.041C299.983 362.111 299.913 362.14 299.808 362.21C297.158 363.64 294.403 364.861 291.648 365.812C291.613 365.812 291.613 365.812 291.613 365.847C286.04 367.786 280.156 368.772 274.174 368.772C268.7 368.772 263.26 367.92 258.095 366.291C255.988 365.614 253.98 364.831 252.043 363.944C241.911 359.285 233.681 351.631 228.242 342.313H122.562C117.905 342.313 114.129 338.501 114.129 333.842V294.253C114.129 289.594 117.905 285.816 122.562 285.816H131.2V277.923H122.562C117.905 277.923 114.129 274.146 114.129 269.522V229.862C114.129 225.203 117.905 221.426 122.562 221.426H131.2V213.568H122.562C117.94 213.568 114.129 209.79 114.129 205.131V165.507C114.129 160.848 117.934 157.071 122.562 157.071H270.124C274.746 157.071 278.557 160.848 278.557 165.507V205.131C278.557 209.79 274.752 213.568 270.124 213.568H261.486V221.426H270.124C274.746 221.426 278.522 225.203 278.522 229.862V262.516C292.53 263.637 305.551 270.205 314.696 281.017C314.766 281.052 314.83 281.116 314.9 281.187C316.465 283.072 317.894 285.046 319.155 287.013Z" fill="black"/>
<path d="M284.576 250.997C284.675 249.602 285.901 248.516 287.296 248.615C287.296 248.615 288.556 248.714 290.699 249.059C292.094 249.298 293.01 250.623 292.771 252.019C292.566 253.245 291.481 254.127 290.29 254.127C290.121 254.127 289.986 254.127 289.846 254.092C288.078 253.788 287.021 253.718 286.957 253.718C285.527 253.619 284.47 252.393 284.576 250.997Z" fill="black"/>
</g>
<path d="M239.008 190.454C244.774 190.454 249.449 185.778 249.449 180.009C249.449 174.241 244.774 169.565 239.008 169.565C233.241 169.565 228.566 174.241 228.566 180.009C228.566 185.778 233.241 190.454 239.008 190.454Z" fill="white"/>
<path d="M129.5 279.021H223.226C225.147 276.166 227.318 273.527 229.705 271.133H129.5V279.021Z" fill="#0774FF"/>
<path d="M266.648 198.353V158.729C266.648 156.896 265.16 155.407 263.327 155.407H115.772C113.939 155.407 112.451 156.896 112.451 158.729V198.359C112.451 200.192 113.939 201.681 115.772 201.681H263.322C265.154 201.681 266.648 200.186 266.648 198.353ZM130.807 186.426L126.412 190.822C125.916 191.318 125.262 191.569 124.608 191.569C123.955 191.569 123.301 191.318 122.805 190.822C121.807 189.823 121.807 188.212 122.805 187.214L127.2 182.818C128.198 181.819 129.809 181.819 130.807 182.818C131.799 183.816 131.799 185.433 130.807 186.426ZM130.807 169.862L126.412 174.259C125.916 174.755 125.262 175.006 124.608 175.006C123.955 175.006 123.301 174.755 122.805 174.259C121.807 173.26 121.807 171.649 122.805 170.651L127.2 166.254C128.192 165.262 129.809 165.256 130.807 166.254C131.799 167.253 131.799 168.87 130.807 169.862ZM145.333 186.426L140.939 190.822C140.442 191.318 139.789 191.569 139.135 191.569C138.481 191.569 137.828 191.318 137.332 190.822C136.334 189.823 136.334 188.212 137.332 187.214L141.726 182.818C142.724 181.819 144.341 181.825 145.333 182.818C146.331 183.816 146.331 185.433 145.333 186.426ZM145.333 169.862L140.939 174.259C140.442 174.755 139.789 175.006 139.135 175.006C138.481 175.006 137.828 174.755 137.332 174.259C136.334 173.26 136.334 171.649 137.332 170.651L141.726 166.254C142.724 165.256 144.335 165.256 145.333 166.254C146.331 167.253 146.331 168.87 145.333 169.862ZM159.86 186.426L155.465 190.822C154.969 191.318 154.316 191.569 153.662 191.569C153.008 191.569 152.355 191.318 151.858 190.822C150.86 189.823 150.86 188.212 151.858 187.214L156.253 182.818C157.251 181.819 158.862 181.819 159.86 182.818C160.858 183.816 160.858 185.433 159.86 186.426ZM159.86 169.862L155.465 174.259C154.969 174.755 154.316 175.006 153.662 175.006C153.008 175.006 152.355 174.755 151.858 174.259C150.86 173.26 150.86 171.649 151.858 170.651L156.253 166.254C157.245 165.262 158.862 165.256 159.86 166.254C160.858 167.253 160.858 168.87 159.86 169.862ZM174.393 186.426L169.998 190.822C169.502 191.318 168.848 191.569 168.194 191.569C167.541 191.569 166.887 191.318 166.391 190.822C165.393 189.823 165.393 188.212 166.391 187.214L170.786 182.818C171.784 181.819 173.395 181.819 174.393 182.818C175.385 183.816 175.385 185.433 174.393 186.426ZM174.393 169.862L169.998 174.259C169.502 174.755 168.848 175.006 168.194 175.006C167.541 175.006 166.887 174.755 166.391 174.259C165.393 173.26 165.393 171.649 166.391 170.651L170.786 166.254C171.778 165.262 173.395 165.256 174.393 166.254C175.385 167.253 175.385 168.87 174.393 169.862ZM188.919 186.426L184.525 190.822C184.029 191.318 183.375 191.569 182.721 191.569C182.068 191.569 181.414 191.318 180.918 190.822C179.92 189.823 179.92 188.212 180.918 187.214L185.313 182.818C186.311 181.819 187.921 181.825 188.919 182.818C189.917 183.816 189.917 185.433 188.919 186.426ZM188.919 169.862L184.525 174.259C184.029 174.755 183.375 175.006 182.721 175.006C182.068 175.006 181.414 174.755 180.918 174.259C179.92 173.26 179.92 171.649 180.918 170.651L185.313 166.254C186.311 165.256 187.921 165.256 188.919 166.254C189.917 167.253 189.917 168.87 188.919 169.862ZM203.446 186.426L199.051 190.822C198.555 191.318 197.902 191.569 197.248 191.569C196.594 191.569 195.941 191.318 195.444 190.822C194.446 189.823 194.446 188.212 195.444 187.214L199.839 182.818C200.837 181.819 202.448 181.819 203.446 182.818C204.444 183.816 204.444 185.433 203.446 186.426ZM203.446 169.862L199.051 174.259C198.555 174.755 197.902 175.006 197.248 175.006C196.594 175.006 195.941 174.755 195.444 174.259C194.446 173.26 194.446 171.649 195.444 170.651L199.839 166.254C200.837 165.262 202.448 165.256 203.446 166.254C204.444 167.253 204.444 168.87 203.446 169.862ZM239.007 195.557C230.439 195.557 223.465 188.58 223.465 180.009C223.465 171.439 230.439 164.462 239.007 164.462C247.575 164.462 254.55 171.439 254.55 180.009C254.55 188.58 247.575 195.557 239.007 195.557Z" fill="#744FFD"/>
<path d="M239.008 254.809C244.774 254.809 249.449 250.133 249.449 244.365C249.449 238.596 244.774 233.92 239.008 233.92C233.241 233.92 228.566 238.596 228.566 244.365C228.566 250.133 233.241 254.809 239.008 254.809Z" fill="white"/>
<path d="M266.637 255.51V223.067C266.637 221.239 265.148 219.75 263.322 219.75H252.18C252.168 219.75 252.157 219.756 252.145 219.756C252.133 219.756 252.122 219.75 252.11 219.75H126.984C126.972 219.75 126.96 219.756 126.949 219.756C126.937 219.756 126.925 219.75 126.914 219.75H115.766C113.939 219.75 112.451 221.239 112.451 223.067V262.72C112.451 264.547 113.939 266.036 115.766 266.036H235.616C244.464 259.456 255.262 255.667 266.637 255.51ZM130.807 250.781L126.412 255.177C125.916 255.673 125.262 255.924 124.608 255.924C123.955 255.924 123.301 255.673 122.805 255.177C121.807 254.179 121.807 252.567 122.805 251.569L127.2 247.173C128.192 246.18 129.809 246.174 130.807 247.173C131.799 248.171 131.799 249.788 130.807 250.781ZM130.807 234.223L126.412 238.62C125.916 239.116 125.262 239.367 124.608 239.367C123.955 239.367 123.301 239.116 122.805 238.62C121.807 237.621 121.807 236.01 122.805 235.012L127.2 230.615C128.198 229.617 129.809 229.617 130.807 230.615C131.799 231.614 131.799 233.225 130.807 234.223ZM145.333 250.781L140.939 255.177C140.442 255.673 139.789 255.924 139.135 255.924C138.481 255.924 137.828 255.673 137.332 255.177C136.334 254.179 136.334 252.567 137.332 251.569L141.726 247.173C142.724 246.174 144.335 246.174 145.333 247.173C146.331 248.171 146.331 249.788 145.333 250.781ZM145.333 234.223L140.939 238.62C140.442 239.116 139.789 239.367 139.135 239.367C138.481 239.367 137.828 239.116 137.332 238.62C136.334 237.621 136.334 236.01 137.332 235.012L141.726 230.615C142.724 229.617 144.341 229.623 145.333 230.615C146.331 231.614 146.331 233.225 145.333 234.223ZM159.86 250.781L155.465 255.177C154.969 255.673 154.316 255.924 153.662 255.924C153.008 255.924 152.355 255.673 151.858 255.177C150.86 254.179 150.86 252.567 151.858 251.569L156.253 247.173C157.245 246.18 158.862 246.174 159.86 247.173C160.858 248.171 160.858 249.788 159.86 250.781ZM159.86 234.223L155.465 238.62C154.969 239.116 154.316 239.367 153.662 239.367C153.008 239.367 152.355 239.116 151.858 238.62C150.86 237.621 150.86 236.01 151.858 235.012L156.253 230.615C157.251 229.617 158.862 229.617 159.86 230.615C160.858 231.614 160.858 233.225 159.86 234.223ZM174.393 250.781L169.998 255.177C169.502 255.673 168.848 255.924 168.194 255.924C167.541 255.924 166.887 255.673 166.391 255.177C165.393 254.179 165.393 252.567 166.391 251.569L170.786 247.173C171.778 246.18 173.395 246.174 174.393 247.173C175.385 248.171 175.385 249.788 174.393 250.781ZM174.393 234.223L169.998 238.62C169.502 239.116 168.848 239.367 168.194 239.367C167.541 239.367 166.887 239.116 166.391 238.62C165.393 237.621 165.393 236.01 166.391 235.012L170.786 230.615C171.784 229.617 173.395 229.617 174.393 230.615C175.385 231.614 175.385 233.225 174.393 234.223ZM188.919 250.781L184.525 255.177C184.029 255.673 183.375 255.924 182.721 255.924C182.068 255.924 181.414 255.673 180.918 255.177C179.92 254.179 179.92 252.567 180.918 251.569L185.313 247.173C186.311 246.174 187.921 246.174 188.919 247.173C189.917 248.171 189.917 249.788 188.919 250.781ZM188.919 234.223L184.525 238.62C184.029 239.116 183.375 239.367 182.721 239.367C182.068 239.367 181.414 239.116 180.918 238.62C179.92 237.621 179.92 236.01 180.918 235.012L185.313 230.615C186.311 229.617 187.921 229.623 188.919 230.615C189.917 231.614 189.917 233.225 188.919 234.223ZM203.446 250.781L199.051 255.177C198.555 255.673 197.902 255.924 197.248 255.924C196.594 255.924 195.941 255.673 195.444 255.177C194.446 254.179 194.446 252.567 195.444 251.569L199.839 247.173C200.837 246.18 202.448 246.174 203.446 247.173C204.444 248.171 204.444 249.788 203.446 250.781ZM203.446 234.223L199.051 238.62C198.555 239.116 197.902 239.367 197.248 239.367C196.594 239.367 195.941 239.116 195.444 238.62C194.446 237.621 194.446 236.01 195.444 235.012L199.839 230.615C200.837 229.617 202.448 229.617 203.446 230.615C204.444 231.614 204.444 233.225 203.446 234.223ZM223.465 244.365C223.465 235.794 230.439 228.817 239.007 228.817C247.575 228.817 254.55 235.794 254.55 244.365C254.55 252.935 247.575 259.912 239.007 259.912C230.439 259.912 223.465 252.941 223.465 244.365Z" fill="#744FFD"/>
<path d="M249.595 206.784H129.5V214.654H249.595V206.784Z" fill="#0774FF"/>
<path d="M307.793 282.588C306.812 281.058 305.721 279.563 304.536 278.121C302.744 277.281 300.731 277.199 298.921 277.94C296.768 278.822 295.157 280.725 294.375 283.282C292.805 288.426 297.766 296.88 299.808 299.706C300.27 300.342 300.41 301.153 300.194 301.907L291.089 333.661C290.78 334.747 289.787 335.5 288.661 335.506C288.655 335.506 288.649 335.506 288.643 335.506C287.523 335.506 286.531 334.77 286.204 333.696L273.13 290.633H263.092L285.503 353.295C286.916 352.723 288.311 352.092 289.682 351.374L305.032 302.403C305.096 302.204 309.322 289.921 307.793 282.588Z" fill="#033AA7"/>
<path d="M296.35 347.153C308.314 338.127 315.516 323.946 315.516 308.714C315.516 303.121 314.547 297.639 312.691 292.466C311.781 298.45 309.995 303.658 309.867 304.008L296.35 347.153Z" fill="#0441B1"/>
<path d="M227.492 281.811H238.225H243.011C244.418 281.811 245.562 282.956 245.562 284.363C245.562 285.77 244.418 286.914 243.011 286.914H241.768L257.118 332.727L264.308 309.181L257.672 290.633H255.203C253.797 290.633 252.653 289.489 252.653 288.082C252.653 286.675 253.797 285.53 255.203 285.53H279.629C281.035 285.53 282.179 286.675 282.179 288.082C282.179 289.489 281.035 290.633 279.629 290.633H278.45L288.57 323.952L294.967 301.661C292.819 298.439 287.268 289.109 289.498 281.794C290.735 277.748 293.391 274.7 296.98 273.223C297.675 272.937 298.398 272.762 299.116 272.61C290.403 264.933 279.197 260.583 267.39 260.583C251.305 260.583 236.404 268.628 227.492 281.811Z" fill="#0441B1"/>
<path d="M259.674 341.835C259.668 341.846 259.663 341.852 259.663 341.864C259.663 341.87 259.663 341.875 259.663 341.875L255.303 355.298C263.59 357.429 272.45 357.323 280.685 354.959L267.191 317.226L259.674 341.835Z" fill="#0441B1"/>
<path d="M219.256 308.714C219.256 325.435 228.016 340.877 241.994 349.588L223.085 290.008C220.604 295.899 219.256 302.263 219.256 308.714Z" fill="#0441B1"/>
<path d="M227.459 286.914L248.4 352.904C249.071 353.196 249.766 353.441 250.454 353.704L254.546 341.099L236.394 286.914H227.459Z" fill="#033AA7"/>
<path d="M220.185 284.123H115.766C113.939 284.123 112.451 285.612 112.451 287.439V327.052C112.451 328.897 113.939 330.403 115.766 330.403H218.813C215.808 323.689 214.156 316.321 214.156 308.714C214.156 300.138 216.251 291.666 220.185 284.123ZM130.807 315.142L126.412 319.538C125.916 320.034 125.262 320.285 124.608 320.285C123.955 320.285 123.301 320.034 122.805 319.538C121.807 318.54 121.807 316.928 122.805 315.93L127.2 311.534C128.198 310.536 129.809 310.536 130.807 311.534C131.799 312.532 131.799 314.144 130.807 315.142ZM130.807 298.579L126.412 302.975C125.916 303.471 125.262 303.722 124.608 303.722C123.955 303.722 123.301 303.471 122.805 302.975C121.807 301.977 121.807 300.365 122.805 299.367L127.2 294.971C128.198 293.972 129.809 293.972 130.807 294.971C131.799 295.969 131.799 297.58 130.807 298.579ZM145.333 315.142L140.939 319.538C140.442 320.034 139.789 320.285 139.135 320.285C138.481 320.285 137.828 320.034 137.332 319.538C136.334 318.54 136.334 316.928 137.332 315.93L141.726 311.534C142.724 310.536 144.341 310.541 145.333 311.534C146.331 312.532 146.331 314.144 145.333 315.142ZM145.333 298.579L140.939 302.975C140.442 303.471 139.789 303.722 139.135 303.722C138.481 303.722 137.828 303.471 137.332 302.975C136.334 301.977 136.334 300.365 137.332 299.367L141.726 294.971C142.724 293.972 144.341 293.978 145.333 294.971C146.331 295.969 146.331 297.58 145.333 298.579ZM159.86 315.142L155.465 319.538C154.969 320.034 154.316 320.285 153.662 320.285C153.008 320.285 152.355 320.034 151.858 319.538C150.86 318.54 150.86 316.928 151.858 315.93L156.253 311.534C157.251 310.536 158.862 310.536 159.86 311.534C160.858 312.532 160.858 314.144 159.86 315.142ZM159.86 298.579L155.465 302.975C154.969 303.471 154.316 303.722 153.662 303.722C153.008 303.722 152.355 303.471 151.858 302.975C150.86 301.977 150.86 300.365 151.858 299.367L156.253 294.971C157.251 293.972 158.862 293.972 159.86 294.971C160.858 295.969 160.858 297.58 159.86 298.579ZM174.393 315.142L169.998 319.538C169.502 320.034 168.848 320.285 168.194 320.285C167.541 320.285 166.887 320.034 166.391 319.538C165.393 318.54 165.393 316.928 166.391 315.93L170.786 311.534C171.784 310.536 173.395 310.536 174.393 311.534C175.385 312.532 175.385 314.144 174.393 315.142ZM174.393 298.579L169.998 302.975C169.502 303.471 168.848 303.722 168.194 303.722C167.541 303.722 166.887 303.471 166.391 302.975C165.393 301.977 165.393 300.365 166.391 299.367L170.786 294.971C171.784 293.972 173.395 293.972 174.393 294.971C175.385 295.969 175.385 297.58 174.393 298.579ZM188.919 315.142L184.525 319.538C184.029 320.034 183.375 320.285 182.721 320.285C182.068 320.285 181.414 320.034 180.918 319.538C179.92 318.54 179.92 316.928 180.918 315.93L185.313 311.534C186.311 310.536 187.921 310.541 188.919 311.534C189.917 312.532 189.917 314.144 188.919 315.142ZM188.919 298.579L184.525 302.975C184.029 303.471 183.375 303.722 182.721 303.722C182.068 303.722 181.414 303.471 180.918 302.975C179.92 301.977 179.92 300.365 180.918 299.367L185.313 294.971C186.311 293.972 187.921 293.978 188.919 294.971C189.917 295.969 189.917 297.58 188.919 298.579ZM203.446 315.142L199.051 319.538C198.555 320.034 197.902 320.285 197.248 320.285C196.594 320.285 195.941 320.034 195.444 319.538C194.446 318.54 194.446 316.928 195.444 315.93L199.839 311.534C200.837 310.536 202.448 310.536 203.446 311.534C204.444 312.532 204.444 314.144 203.446 315.142ZM203.446 298.579L199.051 302.975C198.555 303.471 197.902 303.722 197.248 303.722C196.594 303.722 195.941 303.471 195.444 302.975C194.446 301.977 194.446 300.365 195.444 299.367L199.839 294.971C200.837 293.972 202.448 293.972 203.446 294.971C204.444 295.969 204.444 297.58 203.446 298.579Z" fill="#744FFD"/>
<path d="M239.005 164.462C230.437 164.462 223.463 171.439 223.463 180.009C223.463 188.58 230.437 195.557 239.005 195.557C247.573 195.557 254.547 188.58 254.547 180.009C254.547 171.439 247.573 164.462 239.005 164.462ZM239.005 190.454C233.251 190.454 228.564 185.766 228.564 180.009C228.564 174.253 233.251 169.565 239.005 169.565C244.76 169.565 249.446 174.253 249.446 180.009C249.446 185.772 244.766 190.454 239.005 190.454Z" fill="white"/>
<path d="M127.199 230.615L122.803 235.012C121.805 236.011 121.805 237.622 122.803 238.621C123.299 239.117 123.953 239.368 124.607 239.368C125.261 239.368 125.914 239.117 126.411 238.621L130.806 234.224C131.804 233.225 131.804 231.614 130.806 230.615C129.808 229.617 128.191 229.617 127.199 230.615Z" fill="white"/>
<path d="M141.726 230.615L137.331 235.012C136.333 236.011 136.333 237.622 137.331 238.621C137.827 239.117 138.481 239.368 139.134 239.368C139.788 239.368 140.442 239.117 140.938 238.621L145.333 234.224C146.331 233.225 146.331 231.614 145.333 230.615C144.341 229.623 142.73 229.617 141.726 230.615Z" fill="white"/>
<path d="M156.251 230.615L151.856 235.012C150.858 236.011 150.858 237.622 151.856 238.621C152.352 239.117 153.006 239.368 153.66 239.368C154.313 239.368 154.967 239.117 155.463 238.621L159.858 234.224C160.857 233.225 160.857 231.614 159.858 230.615C158.86 229.617 157.249 229.617 156.251 230.615Z" fill="white"/>
<path d="M170.786 230.615L166.391 235.012C165.393 236.011 165.393 237.622 166.391 238.621C166.887 239.117 167.541 239.368 168.195 239.368C168.849 239.368 169.502 239.117 169.998 238.621L174.394 234.224C175.392 233.225 175.392 231.614 174.394 230.615C173.396 229.617 171.779 229.617 170.786 230.615Z" fill="white"/>
<path d="M185.316 230.615L180.92 235.012C179.922 236.011 179.922 237.622 180.92 238.621C181.417 239.117 182.07 239.368 182.724 239.368C183.378 239.368 184.032 239.117 184.528 238.621L188.923 234.224C189.921 233.225 189.921 231.614 188.923 230.615C187.925 229.623 186.314 229.617 185.316 230.615Z" fill="white"/>
<path d="M199.839 230.615L195.444 235.012C194.446 236.011 194.446 237.622 195.444 238.621C195.94 239.117 196.594 239.368 197.248 239.368C197.901 239.368 198.555 239.117 199.051 238.621L203.446 234.224C204.445 233.225 204.445 231.614 203.446 230.615C202.448 229.617 200.837 229.617 199.839 230.615Z" fill="white"/>
<path d="M127.199 247.179L122.803 251.575C121.805 252.574 121.805 254.185 122.803 255.184C123.299 255.68 123.953 255.931 124.607 255.931C125.261 255.931 125.914 255.68 126.411 255.184L130.806 250.787C131.804 249.789 131.804 248.177 130.806 247.179C129.802 246.174 128.191 246.18 127.199 247.179Z" fill="white"/>
<path d="M141.726 247.179L137.331 251.575C136.333 252.574 136.333 254.185 137.331 255.184C137.827 255.68 138.481 255.931 139.134 255.931C139.788 255.931 140.442 255.68 140.938 255.184L145.333 250.787C146.331 249.789 146.331 248.177 145.333 247.179C144.341 246.18 142.724 246.18 141.726 247.179Z" fill="white"/>
<path d="M156.251 247.179L151.856 251.575C150.858 252.574 150.858 254.185 151.856 255.184C152.352 255.68 153.006 255.931 153.66 255.931C154.313 255.931 154.967 255.68 155.463 255.184L159.858 250.787C160.857 249.789 160.857 248.177 159.858 247.179C158.86 246.174 157.244 246.18 156.251 247.179Z" fill="white"/>
<path d="M170.786 247.179L166.391 251.575C165.393 252.574 165.393 254.185 166.391 255.184C166.887 255.68 167.541 255.931 168.195 255.931C168.849 255.931 169.502 255.68 169.998 255.184L174.394 250.787C175.392 249.789 175.392 248.177 174.394 247.179C173.39 246.174 171.779 246.18 170.786 247.179Z" fill="white"/>
<path d="M185.316 247.179L180.92 251.575C179.922 252.574 179.922 254.185 180.92 255.184C181.417 255.68 182.07 255.931 182.724 255.931C183.378 255.931 184.032 255.68 184.528 255.184L188.923 250.787C189.921 249.789 189.921 248.177 188.923 247.179C187.925 246.18 186.314 246.18 185.316 247.179Z" fill="white"/>
<path d="M199.839 247.179L195.444 251.575C194.446 252.574 194.446 254.185 195.444 255.184C195.94 255.68 196.594 255.931 197.248 255.931C197.901 255.931 198.555 255.68 199.051 255.184L203.446 250.787C204.445 249.789 204.445 248.177 203.446 247.179C202.448 246.174 200.837 246.18 199.839 247.179Z" fill="white"/>
<path d="M127.199 294.971L122.803 299.367C121.805 300.366 121.805 301.977 122.803 302.976C123.299 303.472 123.953 303.723 124.607 303.723C125.261 303.723 125.914 303.472 126.411 302.976L130.806 298.579C131.804 297.581 131.804 295.969 130.806 294.971C129.808 293.972 128.191 293.972 127.199 294.971Z" fill="white"/>
<path d="M141.726 294.971L137.331 299.367C136.333 300.366 136.333 301.977 137.331 302.976C137.827 303.472 138.481 303.723 139.134 303.723C139.788 303.723 140.442 303.472 140.938 302.976L145.333 298.579C146.331 297.581 146.331 295.969 145.333 294.971C144.341 293.978 142.73 293.972 141.726 294.971Z" fill="white"/>
<path d="M156.251 294.971L151.856 299.367C150.858 300.366 150.858 301.977 151.856 302.976C152.352 303.472 153.006 303.723 153.66 303.723C154.313 303.723 154.967 303.472 155.463 302.976L159.858 298.579C160.857 297.581 160.857 295.969 159.858 294.971C158.86 293.972 157.249 293.972 156.251 294.971Z" fill="white"/>
<path d="M170.786 294.971L166.391 299.367C165.393 300.366 165.393 301.977 166.391 302.976C166.887 303.472 167.541 303.723 168.195 303.723C168.849 303.723 169.502 303.472 169.998 302.976L174.394 298.579C175.392 297.581 175.392 295.969 174.394 294.971C173.396 293.972 171.779 293.972 170.786 294.971Z" fill="white"/>
<path d="M185.316 294.971L180.92 299.367C179.922 300.366 179.922 301.977 180.92 302.976C181.417 303.472 182.07 303.723 182.724 303.723C183.378 303.723 184.032 303.472 184.528 302.976L188.923 298.579C189.921 297.581 189.921 295.969 188.923 294.971C187.925 293.978 186.314 293.972 185.316 294.971Z" fill="white"/>
<path d="M199.839 294.971L195.444 299.367C194.446 300.366 194.446 301.977 195.444 302.976C195.94 303.472 196.594 303.723 197.248 303.723C197.901 303.723 198.555 303.472 199.051 302.976L203.446 298.579C204.445 297.581 204.445 295.969 203.446 294.971C202.448 293.972 200.837 293.972 199.839 294.971Z" fill="white"/>
<path d="M127.199 311.534L122.803 315.931C121.805 316.929 121.805 318.541 122.803 319.539C123.299 320.035 123.953 320.286 124.607 320.286C125.261 320.286 125.914 320.035 126.411 319.539L130.806 315.142C131.804 314.144 131.804 312.532 130.806 311.534C129.808 310.536 128.191 310.536 127.199 311.534Z" fill="white"/>
<path d="M141.726 311.534L137.331 315.931C136.333 316.929 136.333 318.541 137.331 319.539C137.827 320.035 138.481 320.286 139.134 320.286C139.788 320.286 140.442 320.035 140.938 319.539L145.333 315.142C146.331 314.144 146.331 312.532 145.333 311.534C144.341 310.541 142.73 310.535 141.726 311.534Z" fill="white"/>
<path d="M156.251 311.534L151.856 315.931C150.858 316.929 150.858 318.541 151.856 319.539C152.352 320.035 153.006 320.286 153.66 320.286C154.313 320.286 154.967 320.035 155.463 319.539L159.858 315.142C160.857 314.144 160.857 312.532 159.858 311.534C158.86 310.536 157.249 310.536 156.251 311.534Z" fill="white"/>
<path d="M170.786 311.534L166.391 315.931C165.393 316.929 165.393 318.541 166.391 319.539C166.887 320.035 167.541 320.286 168.195 320.286C168.849 320.286 169.502 320.035 169.998 319.539L174.394 315.142C175.392 314.144 175.392 312.532 174.394 311.534C173.396 310.536 171.779 310.536 170.786 311.534Z" fill="white"/>
<path d="M185.316 311.534L180.92 315.931C179.922 316.929 179.922 318.541 180.92 319.539C181.417 320.035 182.07 320.286 182.724 320.286C183.378 320.286 184.032 320.035 184.528 319.539L188.923 315.142C189.921 314.144 189.921 312.532 188.923 311.534C187.925 310.541 186.314 310.535 185.316 311.534Z" fill="white"/>
<path d="M199.839 311.534L195.444 315.931C194.446 316.929 194.446 318.541 195.444 319.539C195.94 320.035 196.594 320.286 197.248 320.286C197.901 320.286 198.555 320.035 199.051 319.539L203.446 315.142C204.445 314.144 204.445 312.532 203.446 311.534C202.448 310.536 200.837 310.536 199.839 311.534Z" fill="white"/>
<path d="M127.199 166.254L122.803 170.651C121.805 171.65 121.805 173.261 122.803 174.259C123.299 174.756 123.953 175.007 124.607 175.007C125.261 175.007 125.914 174.756 126.411 174.259L130.806 169.863C131.804 168.864 131.804 167.253 130.806 166.254C129.802 165.256 128.191 165.262 127.199 166.254Z" fill="white"/>
<path d="M141.726 166.254L137.331 170.651C136.333 171.65 136.333 173.261 137.331 174.259C137.827 174.756 138.481 175.007 139.134 175.007C139.788 175.007 140.442 174.756 140.938 174.259L145.333 169.863C146.331 168.864 146.331 167.253 145.333 166.254C144.341 165.262 142.724 165.262 141.726 166.254Z" fill="white"/>
<path d="M156.251 166.254L151.856 170.651C150.858 171.65 150.858 173.261 151.856 174.259C152.352 174.756 153.006 175.007 153.66 175.007C154.313 175.007 154.967 174.756 155.463 174.259L159.858 169.863C160.857 168.864 160.857 167.253 159.858 166.254C158.86 165.256 157.244 165.262 156.251 166.254Z" fill="white"/>
<path d="M170.786 166.254L166.391 170.651C165.393 171.65 165.393 173.261 166.391 174.259C166.887 174.756 167.541 175.007 168.195 175.007C168.849 175.007 169.502 174.756 169.998 174.259L174.394 169.863C175.392 168.864 175.392 167.253 174.394 166.254C173.39 165.256 171.779 165.262 170.786 166.254Z" fill="white"/>
<path d="M185.316 166.254L180.92 170.651C179.922 171.65 179.922 173.261 180.92 174.259C181.417 174.756 182.07 175.007 182.724 175.007C183.378 175.007 184.032 174.756 184.528 174.259L188.923 169.863C189.921 168.864 189.921 167.253 188.923 166.254C187.925 165.262 186.314 165.262 185.316 166.254Z" fill="white"/>
<path d="M199.839 166.254L195.444 170.651C194.446 171.65 194.446 173.261 195.444 174.259C195.94 174.756 196.594 175.007 197.248 175.007C197.901 175.007 198.555 174.756 199.051 174.259L203.446 169.863C204.445 168.864 204.445 167.253 203.446 166.254C202.448 165.256 200.837 165.262 199.839 166.254Z" fill="white"/>
<path d="M127.199 182.818L122.803 187.214C121.805 188.213 121.805 189.824 122.803 190.823C123.299 191.319 123.953 191.57 124.607 191.57C125.261 191.57 125.914 191.319 126.411 190.823L130.806 186.426C131.804 185.428 131.804 183.816 130.806 182.818C129.808 181.825 128.191 181.825 127.199 182.818Z" fill="white"/>
<path d="M141.726 182.818L137.331 187.214C136.333 188.213 136.333 189.824 137.331 190.823C137.827 191.319 138.481 191.57 139.134 191.57C139.788 191.57 140.442 191.319 140.938 190.823L145.333 186.426C146.331 185.428 146.331 183.816 145.333 182.818C144.341 181.825 142.73 181.819 141.726 182.818Z" fill="white"/>
<path d="M156.251 182.818L151.856 187.214C150.858 188.213 150.858 189.824 151.856 190.823C152.352 191.319 153.006 191.57 153.66 191.57C154.313 191.57 154.967 191.319 155.463 190.823L159.858 186.426C160.857 185.428 160.857 183.816 159.858 182.818C158.86 181.825 157.249 181.825 156.251 182.818Z" fill="white"/>
<path d="M170.786 182.818L166.391 187.214C165.393 188.213 165.393 189.824 166.391 190.823C166.887 191.319 167.541 191.57 168.195 191.57C168.849 191.57 169.502 191.319 169.998 190.823L174.394 186.426C175.392 185.428 175.392 183.816 174.394 182.818C173.396 181.825 171.779 181.825 170.786 182.818Z" fill="white"/>
<path d="M185.316 182.818L180.92 187.214C179.922 188.213 179.922 189.824 180.92 190.823C181.417 191.319 182.07 191.57 182.724 191.57C183.378 191.57 184.032 191.319 184.528 190.823L188.923 186.426C189.921 185.428 189.921 183.816 188.923 182.818C187.925 181.825 186.314 181.819 185.316 182.818Z" fill="white"/>
<path d="M199.839 182.818L195.444 187.214C194.446 188.213 194.446 189.824 195.444 190.823C195.94 191.319 196.594 191.57 197.248 191.57C197.901 191.57 198.555 191.319 199.051 190.823L203.446 186.426C204.445 185.428 204.445 183.816 203.446 182.818C202.448 181.825 200.837 181.825 199.839 182.818Z" fill="white"/>
<path d="M254.547 244.365C254.547 235.794 247.573 228.817 239.005 228.817C230.437 228.817 223.463 235.794 223.463 244.365C223.463 252.935 230.437 259.912 239.005 259.912C247.573 259.912 254.547 252.941 254.547 244.365ZM228.564 244.365C228.564 238.608 233.251 233.92 239.005 233.92C244.76 233.92 249.446 238.608 249.446 244.365C249.446 250.121 244.76 254.809 239.005 254.809C233.251 254.809 228.564 250.127 228.564 244.365Z" fill="white"/>
<path d="M308.092 274.402C308.039 274.338 307.981 274.274 307.917 274.216C298.742 263.421 285.744 256.858 271.737 255.72V223.067C271.737 218.425 267.961 214.648 263.321 214.648H254.695V206.778H263.327C267.973 206.778 271.749 203 271.749 198.353V158.729C271.749 154.082 267.973 150.304 263.327 150.304H115.772C111.126 150.304 107.35 154.082 107.35 158.729V198.359C107.35 203.006 111.126 206.784 115.772 206.784H124.398V214.654H115.766C111.126 214.654 107.35 218.431 107.35 223.072V262.726C107.35 267.367 111.126 271.145 115.766 271.145H124.398V279.032H115.766C111.126 279.032 107.35 282.81 107.35 287.451V327.064C107.35 331.723 111.126 335.518 115.766 335.518H221.451C226.885 344.835 235.09 352.507 245.252 357.154C247.166 358.047 249.191 358.836 251.275 359.495C256.469 361.142 261.891 361.971 267.383 361.971C273.354 361.971 279.219 360.984 284.799 359.046C284.811 359.04 284.822 359.04 284.828 359.034H284.834H284.84C287.606 358.082 290.361 356.868 293.017 355.414C293.098 355.368 293.18 355.321 293.256 355.263C310.135 345.851 320.611 328.045 320.611 308.726C320.611 298.573 317.751 288.724 312.352 280.241C311.103 278.232 309.668 276.277 308.092 274.402ZM299.116 272.61C298.392 272.762 297.674 272.937 296.979 273.223C293.39 274.7 290.729 277.748 289.497 281.794C287.268 289.109 292.818 298.433 294.966 301.661L288.569 323.952L278.455 290.633H279.634C281.04 290.633 282.184 289.489 282.184 288.082C282.184 286.675 281.04 285.53 279.634 285.53H255.208C253.802 285.53 252.658 286.675 252.658 288.082C252.658 289.489 253.802 290.633 255.208 290.633H257.677L264.313 309.181L257.123 332.727L241.773 286.914H243.016C244.423 286.914 245.567 285.77 245.567 284.363C245.567 282.956 244.423 281.811 243.016 281.811H238.23H227.497C236.409 268.628 251.31 260.583 267.395 260.583C279.196 260.583 290.402 264.933 299.116 272.61ZM223.225 279.021H129.499V271.133H229.703C227.316 273.533 225.145 276.171 223.225 279.021ZM115.772 201.681C113.939 201.681 112.451 200.192 112.451 198.359V158.729C112.451 156.896 113.939 155.407 115.772 155.407H263.321C265.154 155.407 266.642 156.896 266.642 158.729V198.359C266.642 200.192 265.154 201.681 263.321 201.681H115.772ZM249.594 206.784V214.654H129.499V206.784H249.594ZM115.766 266.036C113.939 266.036 112.451 264.547 112.451 262.72V223.067C112.451 221.239 113.939 219.75 115.766 219.75H126.913C126.925 219.75 126.937 219.756 126.948 219.756C126.96 219.756 126.972 219.75 126.983 219.75H252.109C252.121 219.75 252.133 219.756 252.144 219.756C252.156 219.756 252.168 219.75 252.179 219.75H263.321C265.148 219.75 266.636 221.239 266.636 223.067V255.51C255.261 255.673 244.464 259.462 235.622 266.036H115.766ZM115.766 330.409C113.939 330.409 112.451 328.903 112.451 327.058V287.445C112.451 285.618 113.939 284.129 115.766 284.129H220.184C216.251 291.666 214.155 300.138 214.155 308.714C214.155 316.327 215.807 323.695 218.813 330.403H115.766V330.409ZM219.256 308.714C219.256 302.263 220.605 295.899 223.085 290.008L241.995 349.588C228.017 340.877 219.256 325.441 219.256 308.714ZM250.452 353.704C249.763 353.441 249.063 353.196 248.397 352.904L227.456 286.914H236.392L254.549 341.105L250.452 353.704ZM255.302 355.298L259.662 341.875C259.662 341.87 259.662 341.864 259.662 341.864C259.667 341.852 259.673 341.846 259.673 341.834L267.185 317.232L280.678 354.965C272.449 357.323 263.59 357.429 255.302 355.298ZM289.684 351.374C288.312 352.092 286.912 352.723 285.505 353.295L263.093 290.633H273.132L286.205 333.696C286.532 334.77 287.524 335.506 288.645 335.506C288.651 335.506 288.657 335.506 288.663 335.506C289.789 335.494 290.781 334.747 291.091 333.661L300.195 301.907C300.411 301.153 300.271 300.336 299.81 299.706C297.767 296.88 292.806 288.426 294.376 283.282C295.158 280.725 296.769 278.828 298.923 277.94C300.732 277.193 302.746 277.281 304.538 278.121C305.728 279.564 306.814 281.058 307.794 282.588C309.323 289.921 305.098 302.204 305.028 302.403L289.684 351.374ZM315.522 308.714C315.522 323.946 308.314 338.127 296.355 347.153L309.878 304.008C310 303.658 311.786 298.45 312.703 292.466C314.547 297.639 315.522 303.127 315.522 308.714Z" fill="white"/>
<path d="M292.14 244.289C290.797 243.862 289.362 244.598 288.936 245.941C288.504 247.284 289.245 248.72 290.587 249.146C299.727 252.071 311.966 258.54 318.374 272.756C318.8 273.702 319.728 274.256 320.697 274.256C321.047 274.256 321.403 274.181 321.748 274.029C323.032 273.451 323.598 271.939 323.02 270.654C315.835 254.733 302.266 247.523 292.14 244.289Z" fill="white"/>
<path d="M280.141 246.911C280.205 246.916 281.279 246.998 283.048 247.29C283.188 247.319 283.334 247.325 283.474 247.325C284.694 247.325 285.774 246.443 285.984 245.2C286.217 243.81 285.284 242.491 283.894 242.263C281.764 241.907 280.491 241.819 280.491 241.819C279.085 241.696 277.876 242.788 277.777 244.19C277.684 245.597 278.74 246.817 280.141 246.911Z" fill="white"/>
</svg>
