<svg width="1920" height="800" viewBox="0 0 1920 800" fill="none" xmlns="http://www.w3.org/2000/svg">
<mask id="mask0_238_22372" style="mask-type:luminance" maskUnits="userSpaceOnUse" x="-166" y="-406" width="2251" height="1353">
<path d="M-165.919 -405.773L2084.57 -405.773L2084.57 946.294L-165.919 946.294L-165.919 -405.773Z" fill="white"/>
</mask>
<g mask="url(#mask0_238_22372)">
<path d="M-464.965 772.238C-414.689 629.821 -362.748 482.535 -270.703 357.469C-171.501 222.668 -30.8902 133.567 125.204 106.571C164.992 99.675 206.176 96.2498 248.891 96.2498C365.691 96.2498 494.059 122.029 637.911 174.084C725.635 205.857 810.883 246.69 893.296 286.17C958.695 317.493 1026.35 349.943 1094.81 377.615C1131.89 392.623 1180.14 409.749 1225.42 409.749C1225.87 409.749 1226.32 409.749 1226.77 409.749C1249.37 409.569 1270.03 405.062 1288.21 396.319C1308.38 386.629 1326.38 371.351 1341.68 350.844C1372.38 309.741 1392.81 260.796 1412.57 213.429C1415.72 205.903 1418.97 198.106 1422.21 190.534C1449.03 127.393 1479.46 55.8231 1516.01 -11.3747C1594.46 -155.505 1706.17 -243.164 1889.68 -304.413C2061.98 -361.921 2341.08 -353.312 2511.85 -285.168C2814.45 -164.429 2865.63 -79.2934 2915.14 3.00247C2929.22 26.4383 2942.55 48.6122 2961.59 71.2819C3001.02 118.289 2987.51 169.802 2973.2 224.336C2967.62 245.653 2961.81 267.737 2958.93 290.317L2959.38 290.362C2962.26 267.782 2968.07 245.744 2973.65 224.426C2980.94 196.619 2987.83 170.343 2988.05 144.744C2988.28 115.945 2980 92.5093 2961.95 70.9664C2942.95 48.3418 2929.63 26.1679 2915.54 2.73205C2891.24 -37.6948 2866.12 -79.4737 2809.14 -126.39C2778.31 -151.719 2741.31 -176.101 2695.94 -200.934C2644.76 -228.967 2584.58 -256.64 2512.03 -285.619C2470.71 -302.114 2422.23 -315.409 2367.91 -325.189C2315.34 -334.654 2259.66 -340.378 2202.45 -342.18C2145.06 -344.028 2089.12 -341.865 2036.19 -335.736C1981.18 -329.381 1931.85 -318.97 1889.59 -304.863C1798.89 -274.577 1729.53 -240.009 1671.38 -196.022C1608.14 -148.204 1557.19 -87.9017 1515.69 -11.6C1479.1 55.5977 1448.72 127.212 1421.85 190.354C1418.65 197.925 1415.36 205.722 1412.21 213.249C1392.45 260.571 1372.07 309.516 1341.37 350.529C1277.72 435.709 1185.32 413.67 1094.99 377.119C1026.53 349.447 958.875 317.042 893.476 285.72C811.063 246.239 725.815 205.362 638.045 173.588C546.901 140.598 464.263 118.649 385.451 106.525C340.801 99.675 297.006 96.0245 255.327 95.709C210.542 95.3484 166.748 98.8638 125.114 106.03C45.7614 119.731 -29.0899 148.935 -97.3697 192.742C-163.759 235.332 -222.227 290.632 -271.108 357.109C-312.112 412.814 -348.84 478.254 -383.452 557.124C-414.734 628.423 -440.525 701.435 -465.415 772.013L-464.965 772.238Z" fill="url(#paint0_linear_238_22372)" fill-opacity="0.08"/>
<path d="M-464.784 747.991C-400.239 604.266 -339.071 485.825 -250.447 375.136C-152.19 252.143 -10.8594 166.106 147.575 132.8C312.626 98.0974 485.014 111.753 660.012 173.408C752.552 206.398 842.121 250.836 928.72 293.742C988.628 323.442 1050.56 354.179 1112.99 380.86C1149.81 396.589 1197.88 414.842 1242.98 416.104C1265.21 416.735 1285.65 413.129 1303.65 405.467C1323.64 396.949 1341.5 383.068 1356.85 364.139C1386.06 328.084 1406.41 284.998 1426.12 243.309C1430.44 234.161 1434.9 224.741 1439.36 215.547C1448.45 196.889 1457.36 178.095 1466.81 158.264C1489.14 111.303 1512.23 62.7635 1537.66 15.351C1617.1 -132.069 1726.74 -222.342 1904.22 -286.611C2071.79 -347.273 2344.1 -341.505 2511.17 -273.811C2804.01 -155.145 2854.51 -71.3164 2903.35 9.71752C2917.12 32.5675 2930.13 54.2005 2948.49 76.4195C2987.96 124.238 2976.04 176.608 2963.43 232.042C2958.57 253.45 2953.53 275.579 2951.28 298.204L2951.82 298.249C2954.12 275.669 2959.11 253.54 2963.97 232.133C2976.58 176.608 2988.5 124.102 2948.9 76.0589C2930.58 53.885 2917.57 32.297 2903.8 9.44708C2879.76 -30.4389 2854.91 -71.6769 2799.42 -117.827C2769.44 -142.751 2733.48 -166.727 2689.5 -191.11C2639.9 -218.647 2581.62 -245.868 2511.35 -274.307C2421.7 -310.677 2301.79 -329.156 2184.04 -329.156C2082.14 -329.156 1981.81 -315.32 1903.99 -287.151C1861.01 -271.603 1823.34 -255.107 1788.77 -236.809C1752.26 -217.475 1720.08 -196.473 1690.33 -172.676C1628.76 -123.371 1578.66 -61.9872 1537.16 15.0355C1511.73 62.4931 1488.64 111.032 1466.32 157.994C1456.87 177.869 1447.95 196.618 1438.86 215.277C1434.41 224.471 1429.95 233.89 1425.63 243.039C1405.96 284.683 1385.61 327.769 1356.45 363.779C1292.67 442.469 1201.84 418.267 1113.22 380.364C1050.83 353.683 988.898 322.991 928.99 293.291C842.391 250.34 752.822 205.947 660.237 172.912C485.149 111.258 312.626 97.5566 147.485 132.305C67.9526 149.025 -6.80888 178.5 -74.6836 219.874C-142.423 261.157 -201.656 313.301 -250.852 374.82C-293.836 428.498 -333.22 487.898 -371.253 556.448C-408.926 624.322 -441.288 694.359 -465.279 747.766L-464.784 747.991Z" fill="url(#paint1_linear_238_22372)" fill-opacity="0.08"/>
<path d="M-464.649 723.745C-394.479 600.617 -320.032 495.426 -230.238 392.804C-132.522 280.537 5.88374 199.729 169.945 159.031C355.475 113.016 523.001 117.523 682.156 172.732C779.377 206.444 872.908 254.668 963.333 301.224C1017.97 329.392 1074.46 358.461 1131.17 384.106C1167.41 400.466 1214.67 419.575 1259.14 422.414C1263.01 422.639 1266.83 422.775 1270.57 422.775C1311.71 422.775 1344.97 407.857 1371.98 377.345C1399.88 345.842 1420.09 307.984 1439.67 271.388C1445.12 261.203 1450.74 250.657 1456.46 240.426C1475.18 206.85 1493.77 170.028 1513.49 130.999C1528.21 101.794 1543.46 71.6428 1559.26 41.8973C1639.15 -108.633 1746.64 -201.61 1918.62 -268.898C2081.51 -332.67 2346.98 -329.786 2510.41 -262.498C2793.57 -145.905 2843.39 -63.3385 2891.6 16.4786C2905.06 38.7426 2917.75 59.7898 2935.39 81.5581C2974.87 130.233 2964.6 183.459 2953.76 239.84C2949.62 261.338 2945.34 283.557 2943.63 306.182L2944.21 306.227C2945.88 283.602 2950.16 261.383 2954.3 239.93C2965.19 183.414 2975.5 130.052 2935.84 81.1525C2918.24 59.4743 2905.55 38.4271 2892.09 16.1631C2868.33 -23.2271 2843.75 -63.9244 2789.74 -109.309C2760.57 -133.826 2725.69 -157.352 2683.07 -181.329C2635 -208.325 2578.6 -235.096 2510.63 -263.084C2470.58 -279.579 2423.95 -292.514 2371.96 -301.573C2321.77 -310.316 2268.75 -315.003 2214.38 -315.634C2160.01 -316.22 2107.03 -312.66 2056.89 -305.043C2004.95 -297.156 1958.36 -285.213 1918.4 -269.529C1876.54 -253.124 1839.63 -235.772 1805.56 -216.393C1769.95 -196.112 1738.45 -174.253 1709.19 -149.465C1649.19 -98.6726 1599.95 -36.162 1558.63 41.6269C1542.83 71.3724 1527.62 101.569 1512.86 130.728C1493.19 169.713 1474.55 206.579 1455.87 240.11C1450.16 250.341 1444.53 260.887 1439.09 271.073C1419.55 307.669 1399.3 345.481 1371.48 376.895C1307.57 449.095 1218.31 422.73 1131.4 383.475C1074.73 357.875 1018.24 328.761 963.603 300.638C873.133 254.037 779.602 205.858 682.336 172.101C640.522 157.589 597.493 146.457 554.508 138.976C512.829 131.72 469.845 127.708 426.726 127.032C385.136 126.356 342.017 128.79 298.628 134.198C256.993 139.381 213.649 147.539 169.81 158.4C89.737 178.276 15.0659 208.021 -52.0889 246.78C-121.314 286.757 -181.357 335.746 -230.643 392.353C-320.437 495.02 -394.929 600.211 -465.099 723.384L-464.649 723.745Z" fill="url(#paint2_linear_238_22372)" fill-opacity="0.08"/>
<path d="M-464.47 699.497C-393.444 601.608 -311.481 516.202 -216.555 417.321L-209.984 410.47C-114.248 310.012 21.0964 234.251 192.314 185.261C281.523 159.707 381.22 136.992 487.443 136.992C557.253 136.992 629.854 146.817 704.255 172.101C805.347 206.444 902.073 258.183 995.649 308.254C1045.74 335.025 1097.51 362.743 1149.27 387.395C1184.87 404.341 1231.32 424.352 1275.25 428.769C1320.93 433.366 1357.48 420.927 1387.01 390.64C1413.75 363.193 1433.86 330.113 1453.31 298.069C1459.84 287.342 1466.54 276.255 1473.47 265.439C1500.88 222.714 1528.07 170.163 1556.88 114.503C1564.66 99.4952 1572.67 83.9464 1580.73 68.623C1660.44 -83.2593 1769.1 -181.915 1933.07 -251.186C2091.32 -318.023 2349.99 -318.023 2509.64 -251.186C2783.12 -136.711 2832.27 -55.4066 2879.8 23.1936C2892.9 44.8718 2905.33 65.3781 2922.25 86.6056C2961.77 136.091 2953.13 190.219 2943.99 247.502C2940.57 269.09 2937.01 291.354 2935.93 314.023L2936.61 314.068C2937.69 291.444 2941.24 269.135 2944.66 247.592C2953.85 190.174 2962.49 135.956 2922.79 86.1999C2905.87 64.9725 2893.49 44.5112 2880.39 22.8331C2856.89 -16.0614 2832.59 -56.2178 2780.06 -100.836C2751.71 -124.903 2717.86 -148.023 2676.59 -171.594C2630.09 -198.095 2575.58 -224.37 2509.91 -251.862C2432.18 -284.402 2329.6 -302.339 2221 -302.339C2220.77 -302.339 2220.59 -302.339 2220.37 -302.339C2167.52 -302.294 2115.99 -298.058 2067.24 -289.63C2016.88 -280.977 1971.64 -268.267 1932.8 -251.862C1850.97 -217.294 1784.04 -176.191 1728.09 -126.165C1669.76 -73.975 1621.38 -10.4279 1580.1 68.2173C1572.04 83.5408 1564.03 99.0896 1556.25 114.098C1527.44 169.758 1500.25 222.308 1472.89 264.988C1465.96 275.805 1459.21 286.892 1452.72 297.618C1432.42 331.104 1413.21 362.698 1386.51 390.1C1322.47 455.765 1234.79 427.281 1149.58 386.674C1097.82 362.022 1046.06 334.349 995.964 307.533C902.389 257.462 805.617 205.723 704.48 171.335C622.427 143.482 538.349 132.305 447.34 137.173C371.858 141.229 290.75 156.282 192.134 184.495C110.801 207.751 36.2197 237.766 -29.4498 273.686C-100.34 312.446 -161.238 358.236 -210.434 409.885L-217.005 416.735C-311.931 515.616 -393.939 601.022 -464.965 698.957L-464.47 699.497Z" fill="url(#paint3_linear_238_22372)" fill-opacity="0.08"/>
<path d="M-464.379 675.295C-418.739 626.441 -368.013 583.49 -314.316 538.016C-273.943 503.808 -232.218 468.474 -189.774 428.228C-97.8191 340.974 34.5095 270.081 214.684 211.581C329.999 174.129 438.518 143.032 549.827 143.032C607.485 143.032 665.907 151.369 726.401 171.515C830.913 206.308 930.475 261.608 1026.71 315.06C1072.66 340.569 1120.15 366.979 1167.45 390.73C1202.38 408.262 1248.06 429.129 1291.41 435.168C1299.92 436.34 1308.11 436.926 1315.98 436.926C1349.79 436.926 1378.1 426.064 1402.04 403.981C1427.83 380.229 1446.96 352.602 1467.17 323.398C1474.64 312.581 1482.43 301.404 1490.49 290.452C1525.86 242.679 1560.39 176.022 1596.98 105.444L1602.25 95.3038C1682.86 -60.0487 1789.31 -161.454 1947.47 -233.429C2103.7 -304.548 2350.31 -307.342 2508.88 -239.874C2772.68 -127.607 2821.16 -47.4744 2868.06 29.954C2880.25 50.1448 2892.9 70.9667 2909.15 91.6984C2948.67 142.04 2941.69 197.024 2934.36 255.253C2931.61 276.886 2928.78 299.286 2928.28 321.955L2929 321.955C2929.5 299.286 2932.33 276.932 2935.08 255.299C2942.46 196.934 2949.48 141.815 2909.74 91.2026C2893.49 70.516 2880.88 49.6491 2868.69 29.5033C2821.74 -48.0603 2773.18 -128.283 2509.24 -240.64C2432.72 -273.225 2332.26 -290.396 2226.35 -289.044C2175 -288.368 2124.99 -283.41 2077.64 -274.261C2028.8 -264.842 1984.96 -251.366 1947.25 -234.195C1867.89 -198.095 1802.4 -155.099 1747.09 -102.819C1690.47 -49.3223 1642.94 15.3065 1601.66 94.8531L1596.4 104.994C1559.85 175.526 1525.28 242.138 1489.99 289.866C1481.89 300.773 1474.15 311.995 1466.68 322.812C1446.47 352.016 1427.38 379.553 1401.64 403.26C1372.29 430.301 1336.28 440.441 1291.54 434.222C1248.29 428.228 1202.69 407.361 1167.81 389.874C1120.51 366.123 1073.02 339.757 1027.07 314.248C930.79 260.752 831.183 205.452 726.625 170.659C683.371 156.282 640.387 147.539 595.332 143.978C554.418 140.733 512.739 141.905 467.954 147.448C380.23 158.355 291.111 185.847 214.414 210.725C129.48 238.307 57.1047 267.782 -6.80938 300.773C-42.1419 319.026 -75.0892 338.586 -104.751 358.867C-136.212 380.41 -165.019 403.53 -190.314 427.552C-232.714 467.798 -274.438 503.132 -314.812 537.339C-368.508 582.814 -419.234 625.81 -464.919 674.664L-464.379 675.295Z" fill="url(#paint4_linear_238_22372)" fill-opacity="0.08"/>
<path d="M-464.244 651.048C-424.456 618.688 -381.111 591.422 -335.201 562.533C-280.739 528.235 -224.387 492.811 -169.565 445.894C-62.0816 353.909 89.3764 291.488 237.009 237.766C245.425 234.701 253.797 231.637 262.124 228.572C375.594 187.064 484.653 147.178 600.013 147.178C648.128 147.178 697.369 154.118 748.455 170.749C856.074 205.812 958.021 264.672 1056.64 321.594C1098.77 345.932 1142.34 371.035 1185.59 393.885C1219.89 412.003 1264.76 433.726 1307.57 441.387C1318.55 443.325 1329.04 444.317 1338.98 444.317C1369.19 444.317 1394.93 435.348 1417.12 417.186C1442.19 396.679 1461.28 372.703 1481.44 347.329C1489.77 336.828 1498.41 325.966 1507.55 315.375C1546.61 269.9 1584.83 197.925 1623.81 121.939C1705.36 -37.0189 1809.61 -141.173 1961.92 -215.717C2042.67 -255.243 2148.53 -275.298 2253.13 -275.298C2344.95 -275.298 2435.83 -259.84 2508.11 -228.562C2762.19 -118.548 2810.04 -39.5878 2856.31 36.759C2868.19 56.3639 2880.48 76.6449 2896.05 96.8358C2935.57 148.034 2930.31 203.92 2924.72 263.05C2922.65 284.773 2920.54 307.218 2920.63 329.932L2921.44 329.932C2921.35 307.263 2923.46 284.818 2925.53 263.14C2931.16 203.829 2936.47 147.854 2896.73 96.3851C2881.16 76.1942 2868.87 55.9583 2857.03 36.3984C2810.71 -40.0385 2762.78 -119.134 2508.56 -229.238C2433.44 -261.778 2335.32 -278.228 2232.34 -275.524C2182.51 -274.217 2133.95 -268.538 2087.99 -258.668C2040.73 -248.482 1998.2 -234.24 1961.69 -216.393C1809.2 -141.759 1704.82 -37.5147 1623.18 121.624C1584.24 197.565 1546.03 269.495 1507.05 314.924C1497.91 325.56 1489.27 336.422 1480.94 346.923C1460.78 372.297 1441.74 396.229 1416.72 416.645C1387.37 440.621 1351.72 448.463 1307.79 440.666C1265.08 433.05 1220.29 411.327 1186.04 393.254C1142.79 370.449 1099.26 345.301 1057.13 320.963C958.471 264.041 856.479 205.136 748.815 170.073C706.911 156.417 665.502 148.845 622.158 146.862C583.314 145.104 543.66 147.944 500.946 155.515C421.234 169.622 343.862 197.925 261.944 227.896C253.617 230.961 245.2 234.025 236.829 237.09C173.68 260.075 91.4916 291.173 15.9653 327.904C-60.1014 364.905 -120.954 403.349 -170.015 445.308C-224.792 492.18 -281.099 527.604 -335.516 561.902C-381.426 590.791 -424.816 618.103 -464.649 650.507L-464.244 651.048Z" fill="url(#paint5_linear_238_22372)" fill-opacity="0.08"/>
<path d="M-464.154 626.846C-426.256 604.267 -385.207 586.419 -341.773 567.581C-277.453 539.638 -210.884 510.749 -149.401 463.607C-51.4593 388.567 78.529 336.512 216.124 281.393C230.257 275.714 244.885 269.855 259.333 264.042C280.983 255.298 302.588 246.239 323.518 237.451C429.741 192.833 531.733 149.972 642.187 149.972C683.596 149.972 726.13 155.966 770.6 170.163C881.009 205.407 985.117 267.827 1085.76 328.175C1124.38 351.34 1164.26 375.272 1203.77 397.175C1237.44 415.834 1281.46 438.458 1323.82 447.697C1367.25 457.207 1402.72 451.573 1432.24 430.526C1456.82 412.995 1475.99 392.218 1496.29 370.269C1505.34 360.489 1514.7 350.349 1524.65 340.388C1566.37 298.79 1607.33 223.66 1645.41 148.62C1727.96 -14.1235 1830.04 -121.027 1976.46 -197.96C2123.46 -275.208 2356.7 -283.681 2507.44 -217.204C2751.71 -109.534 2798.92 -31.7003 2844.56 43.6098C2856.08 62.6289 2868.01 82.279 2882.96 101.974C2922.52 154.074 2918.92 210.77 2915.09 270.847C2913.7 292.616 2912.3 315.15 2912.93 337.865L2913.83 337.82C2913.2 315.15 2914.6 292.616 2915.99 270.892C2919.82 210.68 2923.42 153.803 2883.68 101.433C2868.78 81.7832 2856.85 62.1782 2845.33 43.1591C2822.6 5.6618 2799.1 -33.0974 2750.99 -75.4622C2725.06 -98.2671 2694.41 -120.171 2657.19 -142.39C2615.37 -167.358 2566.49 -192.101 2507.8 -217.97C2434.03 -250.465 2338.34 -266.194 2238.23 -262.183C2189.94 -260.245 2142.86 -253.845 2098.25 -243.209C2052.52 -232.302 2011.39 -217.294 1976.01 -198.681C1829.46 -121.658 1727.24 -14.6643 1644.6 148.26C1606.57 223.209 1565.65 298.294 1524.02 339.803C1514.03 349.763 1504.66 359.903 1495.62 369.683C1475.36 391.632 1456.23 412.318 1431.7 429.805C1402.4 450.717 1367.16 456.306 1323.95 446.841C1281.73 437.602 1237.76 415.023 1204.13 396.409C1164.66 374.506 1124.74 350.574 1086.16 327.409C985.477 267.016 881.369 204.551 770.825 169.307C607.439 117.162 469.349 175.166 323.157 236.595C302.273 245.383 280.623 254.442 259.018 263.185C244.57 268.999 229.942 274.858 215.809 280.537C78.1689 335.656 -51.8643 387.756 -149.941 462.886C-211.379 509.938 -277.858 538.827 -342.133 566.769C-385.612 585.653 -426.661 603.501 -464.604 626.125L-464.154 626.846Z" fill="url(#paint6_linear_238_22372)" fill-opacity="0.08"/>
<path d="M-464.065 602.644C-426.526 587.276 -386.017 576.549 -343.078 565.237C-270.387 546.038 -195.221 526.207 -129.147 481.274C-51.0093 428.137 47.6071 387.711 151.985 344.895C194.429 327.499 238.269 309.516 281.748 290.227C311.86 276.886 341.611 262.509 370.328 248.583C472.5 199.187 570.441 151.82 679.23 151.82C715.688 151.82 753.316 157.138 792.745 169.442C905.764 204.776 1011.72 270.802 1114.16 334.665C1149.45 356.658 1185.95 379.418 1221.96 400.375C1254.95 419.574 1298.16 443.01 1340.06 453.917C1382.78 465.004 1417.89 461.669 1447.37 443.731C1471.81 428.859 1491.25 410.966 1511.82 392.037C1521.36 383.249 1531.22 374.19 1541.8 365.266C1587.48 326.688 1630.78 247.501 1667.06 175.166C1750.69 8.45586 1850.61 -101.152 1991 -180.338C2133.41 -260.651 2359.99 -271.918 2506.81 -205.982C2741.31 -100.701 2787.89 -23.9035 2832.95 50.37C2844.11 68.8032 2855.68 87.8674 2869.95 106.977C2909.47 159.978 2907.62 217.576 2905.59 278.509C2904.87 300.322 2904.15 322.902 2905.37 345.662L2906.31 345.617C2905.1 322.902 2905.86 300.367 2906.54 278.554C2908.52 217.395 2910.41 159.662 2870.67 106.391C2856.44 87.3266 2844.88 68.2624 2833.71 49.8743C2811.21 12.7826 2787.98 -25.526 2741.35 -67.1697C2716.24 -89.5689 2686.62 -111.067 2650.79 -132.88C2610.51 -157.353 2563.57 -181.555 2507.17 -206.883C2434.79 -239.378 2341.44 -254.296 2244.27 -248.978C2197.5 -246.409 2151.91 -239.288 2108.7 -227.885C2064.54 -216.213 2024.75 -200.484 1990.5 -181.194C1849.93 -101.963 1749.92 7.82491 1666.2 174.715C1629.97 246.961 1586.76 326.011 1541.17 364.5C1530.59 373.424 1520.73 382.483 1511.19 391.271C1490.67 410.155 1471.22 428.002 1446.87 442.83C1417.62 460.632 1382.78 463.967 1340.33 452.925C1298.56 442.064 1255.4 418.673 1222.45 399.474C1186.45 378.517 1149.99 355.757 1114.7 333.763C1012.21 269.856 906.214 203.784 793.06 168.45C753.541 156.102 715.778 150.783 679.23 150.783C570.261 150.783 472.229 198.196 369.967 247.636C341.206 261.518 311.5 275.895 281.388 289.28C237.954 308.57 194.069 326.552 151.625 343.949C47.2021 386.764 -51.4593 427.236 -129.686 480.417C-195.626 525.216 -270.702 545.046 -343.303 564.246C-386.243 575.603 -426.796 586.284 -464.379 601.698L-464.065 602.644Z" fill="url(#paint7_linear_238_22372)" fill-opacity="0.08"/>
<path d="M-463.974 578.398C-426.076 568.978 -385.162 564.246 -341.908 559.288C-261.565 550.049 -178.522 540.45 -108.937 498.986C-45.1129 460.948 32.124 430.211 113.862 397.671C176.11 372.928 240.474 347.329 304.118 316.502C340.036 299.106 375.144 279.726 409.081 260.977C508.688 205.948 604.064 153.218 712.762 153.218C745.439 153.218 779.287 157.95 814.845 168.857C930.25 204.191 1037.82 273.867 1141.89 341.29C1174.07 362.157 1207.33 383.7 1240.1 403.711C1288.08 433.051 1323.95 450.492 1356.31 460.272C1398.31 472.982 1433.01 471.945 1462.4 457.072C1487.07 444.588 1507.1 429.265 1528.3 413.04C1538.02 405.604 1548.05 397.942 1558.81 390.325C1580.55 374.957 1602.7 349.853 1626.51 313.528C1645.32 284.864 1665.03 249.395 1688.62 201.892C1773.42 31.0359 1871.13 -81.366 2005.44 -162.535C2143.35 -245.867 2363.23 -259.929 2506.04 -194.624C2730.78 -91.8219 2776.78 -16.016 2821.2 57.2661C2832 75.1134 2843.21 93.5465 2856.8 112.07C2896.32 165.972 2896.19 224.427 2896.01 286.306C2895.96 308.21 2895.87 330.834 2897.67 353.594L2898.71 353.504C2896.95 330.789 2897 308.165 2897.09 286.306C2897.22 224.246 2897.4 165.612 2857.66 111.439C2844.11 92.9606 2832.95 74.5274 2822.1 56.7252C2799.87 20.0391 2776.87 -17.8638 2731.72 -58.7864C2707.42 -80.8251 2678.84 -101.872 2644.36 -123.235C2605.65 -147.212 2560.55 -170.873 2506.49 -195.571C2435.51 -228.02 2344.55 -242.217 2250.25 -235.502C2158.12 -228.967 2071.02 -203.368 2004.95 -163.436C1935.05 -121.207 1875.5 -70.7297 1822.88 -9.12055C1773.6 48.6127 1729.35 117.478 1687.72 201.396C1651.22 274.949 1607.29 354.811 1558.27 389.424C1547.51 397.04 1537.48 404.702 1527.76 412.184C1506.6 428.363 1486.62 443.687 1462.04 456.081C1432.87 470.818 1398.44 471.855 1356.72 459.19C1324.4 449.411 1288.66 432.014 1240.73 402.719C1208.01 382.709 1174.74 361.166 1142.56 340.299C1038.45 272.831 930.835 203.109 815.25 167.73C660.956 120.498 538.394 188.236 408.676 259.941C374.738 278.689 339.631 298.069 303.758 315.466C240.114 346.248 175.795 371.847 113.592 396.59C31.7641 429.129 -45.473 459.866 -109.387 497.95C-178.747 539.323 -261.7 548.877 -341.952 558.117C-385.252 563.119 -426.166 567.806 -464.154 577.271L-463.974 578.398Z" fill="url(#paint8_linear_238_22372)" fill-opacity="0.08"/>
<path d="M-463.929 554.195C-425.22 550.049 -383.541 550.68 -339.387 551.356C-323.003 551.626 -306.529 551.852 -290.056 551.852C-218.58 551.852 -147.735 547.074 -88.7718 516.698C-36.2005 489.611 25.238 466.762 90.277 442.605C167.694 413.851 247.767 384.105 326.489 342.777C366.592 321.73 405.391 297.438 442.929 273.957C567.291 196.123 684.812 122.615 836.99 168.225C954.645 203.469 1063.7 276.931 1169.16 347.96C1198.37 367.655 1228.62 387.981 1258.28 407C1305.27 437.106 1340.56 455.494 1372.65 466.626C1413.93 480.958 1448.22 482.175 1477.48 470.412C1503.04 460.137 1524.11 447.067 1546.43 433.185C1555.8 427.371 1565.52 421.332 1575.83 415.338C1598.96 401.908 1622.14 377.841 1646.67 341.65C1666.16 312.942 1686.33 277.022 1710.14 228.573C1796.19 53.2995 1891.75 -61.8515 2019.89 -144.778C2155.51 -232.527 2364.17 -249.068 2505.28 -183.267C2720.25 -82.9437 2765.62 -8.08424 2809.5 64.2964C2819.94 81.5128 2830.74 99.36 2843.66 117.252C2883.18 172.056 2884.76 231.412 2886.47 294.238C2887.05 316.187 2887.68 338.856 2889.98 361.616L2891.06 361.526C2888.76 338.811 2888.13 316.141 2887.55 294.238C2885.84 231.232 2884.26 171.741 2844.52 116.666C2831.64 98.7741 2820.84 80.9719 2810.4 63.8007C2788.39 27.4751 2765.66 -10.0673 2721.96 -50.2688C2698.46 -71.9018 2670.91 -92.5885 2637.79 -113.455C2600.61 -136.891 2557.4 -160.012 2505.68 -184.123C2470.08 -200.754 2429.84 -212.382 2386.09 -218.736C2344.32 -224.776 2300.62 -225.857 2256.15 -221.936C2167.34 -214.094 2083.22 -186.963 2019.26 -145.59C1951.66 -101.828 1893.6 -49.4576 1841.74 14.5403C1794.39 72.9496 1751.05 142.851 1709.14 228.212C1685.38 276.616 1665.26 312.491 1645.77 341.155C1621.29 377.165 1598.24 401.186 1575.29 414.482C1564.93 420.476 1555.26 426.515 1545.85 432.329C1523.57 446.165 1502.55 459.19 1477.07 469.466C1448.04 481.139 1414.02 479.877 1373.01 465.635C1340.96 454.548 1305.77 436.16 1258.87 406.144C1229.21 387.125 1199 366.799 1169.75 347.104C1064.24 276.03 955.096 202.568 837.305 167.234C800.577 156.237 765.019 151.775 728.606 153.578C696.064 155.2 663.477 161.87 628.999 173.949C564.861 196.438 505.358 233.665 442.344 273.101C404.851 296.581 366.052 320.828 325.994 341.876C247.316 383.159 167.289 412.904 89.9172 441.658C24.8329 465.86 -36.6505 488.665 -89.2669 515.797C-161.508 553.069 -251.932 551.671 -339.342 550.319C-383.541 549.643 -425.265 549.012 -464.019 553.159L-463.929 554.195Z" fill="url(#paint9_linear_238_22372)" fill-opacity="0.08"/>
<path d="M-187.569 555.232C-144.629 555.232 -104.076 549.914 -68.5626 534.365C-25.3082 515.436 23.7075 498.986 75.6486 481.545C161.302 452.791 258.343 420.251 348.858 368.962C392.068 344.49 433.477 315.421 473.535 287.298C593.892 202.838 707.541 123.066 859.09 167.504C978.861 202.658 1089.22 279.906 1195.9 354.586C1222.32 373.064 1249.64 392.218 1276.38 410.156C1335.34 449.726 1401.55 488.17 1459.75 488.17C1471 488.17 1481.94 486.728 1492.47 483.573C1520.06 475.325 1543.1 464.148 1567.54 452.34C1575.65 448.419 1584.02 444.363 1592.84 440.262C1617.37 428.859 1641.63 405.784 1666.97 369.729C1687.04 341.155 1707.61 304.784 1731.69 255.164C1820.36 72.7246 1910.88 -41.5702 2034.34 -127.111C2165.41 -217.88 2367.55 -237.169 2504.51 -172C2709.76 -74.3352 2752.56 -3.62205 2797.84 71.1923C2807.88 87.7777 2818.28 104.949 2830.52 122.255C2869.99 178.006 2873.37 238.218 2876.92 301.99C2878.14 323.984 2879.44 346.699 2882.24 369.413L2883.41 369.278C2880.57 346.563 2879.31 323.849 2878.09 301.9C2874.54 237.992 2871.16 177.6 2831.46 121.579C2819.27 104.318 2808.87 87.1918 2798.83 70.6064C2777.05 34.6414 2754.54 -2.54042 2712.32 -42.0659C2689.64 -63.2482 2663.13 -83.5293 2631.35 -103.991C2595.75 -126.931 2554.43 -149.465 2505.01 -172.991C2470.04 -189.622 2430.7 -201.069 2388.12 -207.018C2347.56 -212.652 2305.16 -213.193 2262.09 -208.596C2176.62 -199.447 2095.46 -170.828 2033.62 -128.012C1968.27 -82.7632 1911.69 -28.4551 1860.65 37.9314C1814.74 97.6477 1773.42 166.513 1730.57 254.713C1706.49 304.244 1685.96 340.614 1665.94 369.098C1640.73 404.973 1616.65 427.958 1592.3 439.225C1583.48 443.326 1575.11 447.382 1567 451.303C1542.61 463.112 1519.61 474.289 1492.11 482.491C1427.52 501.736 1347.13 456.261 1277.01 409.209C1250.22 391.227 1222.95 372.117 1196.53 353.639C1089.76 278.87 979.311 201.577 859.36 166.378C822.767 155.651 787.524 151.73 751.606 154.479C719.514 156.913 687.557 164.665 653.89 178.141C591.236 203.199 533.714 243.581 472.86 286.306C432.847 314.384 391.438 343.453 348.273 367.926C257.849 419.124 160.852 451.709 75.2436 480.418C23.3024 497.86 -25.7584 514.31 -69.0579 533.284C-143.819 566.004 -241.445 553.249 -335.876 540.945C-381.246 535.041 -424.05 529.408 -463.839 528.777L-463.839 529.949C-424.095 530.625 -381.291 536.213 -336.011 542.117C-286.14 548.607 -235.414 555.232 -187.569 555.232Z" fill="url(#paint10_linear_238_22372)" fill-opacity="0.08"/>
<path d="M-129.822 564.651C-100.566 564.651 -73.0648 561.046 -48.3995 552.077C-13.2017 539.322 25.6869 527.92 66.8708 515.886C162.652 487.854 271.17 456.125 371.227 395.192C416.822 367.43 460.077 333.673 501.936 300.998C619.006 209.598 729.551 123.291 881.188 166.873C1002.98 201.846 1114.47 283.016 1222.32 361.481C1246.04 378.742 1270.57 396.589 1294.56 413.445C1338.89 444.588 1374.09 465.5 1405.33 479.2C1445.25 496.732 1478.69 502.546 1507.54 496.913C1539.55 490.693 1565.47 481.319 1595.49 470.457C1600.18 468.745 1604.99 467.032 1609.9 465.274C1635.91 455.99 1661.21 433.951 1687.31 397.941C1707.84 369.593 1728.81 332.727 1753.25 281.844C1843.45 94.312 1931.85 -22.6868 2048.83 -109.354C2175.36 -203.053 2370.92 -225.136 2503.75 -160.598C2699.22 -65.6374 2741.49 4.30953 2786.23 78.3577C2795.86 94.3122 2805.85 110.807 2817.42 127.438C2856.85 184.135 2862.03 245.248 2867.47 309.922C2869.32 331.915 2871.25 354.675 2874.58 377.39L2875.8 377.21C2872.47 354.495 2870.53 331.78 2868.69 309.787C2863.2 244.932 2858.06 183.639 2818.41 126.672C2806.84 110.086 2796.9 93.5911 2787.26 77.6367C2765.7 41.9872 2743.42 5.12081 2702.65 -33.7737C2680.73 -54.6856 2655.25 -74.5611 2624.87 -94.5266C2590.8 -116.926 2551.37 -138.919 2504.29 -161.814C2469.94 -178.49 2431.55 -189.757 2390.14 -195.301C2350.8 -200.574 2309.75 -200.529 2268.08 -195.256C2185.93 -184.845 2107.8 -154.694 2048.07 -110.436C1984.96 -63.6995 1929.92 -7.49857 1879.69 61.3667C1835.98 121.263 1795.47 191.12 1752.13 281.213C1727.69 332.006 1706.76 368.827 1686.28 397.13C1660.35 432.915 1635.19 454.818 1609.45 464.012C1604.54 465.77 1599.73 467.483 1595.04 469.195C1565.07 480.012 1539.14 489.386 1507.27 495.606C1478.65 501.194 1445.48 495.425 1405.78 477.984C1374.63 464.283 1339.52 443.416 1295.23 412.318C1271.24 395.462 1246.71 377.615 1223.04 360.354C1115.1 281.799 1003.52 200.584 881.548 165.566C844.91 155.02 809.803 151.685 774.2 155.38C742.378 158.67 710.826 167.504 677.789 182.377C616.261 210.094 560.404 253.721 501.216 299.916C459.401 332.591 416.147 366.348 370.597 394.02C270.675 454.818 162.202 486.547 66.5109 514.579C25.3268 526.613 -13.5618 538.015 -48.8045 550.77C-125.861 578.713 -230.554 554.33 -331.781 530.714C-378.501 519.807 -422.611 509.532 -463.615 504.304L-463.75 505.521C-422.836 510.749 -378.726 521.024 -332.051 531.886C-263.006 548.156 -192.341 564.651 -129.822 564.651Z" fill="url(#paint11_linear_238_22372)" fill-opacity="0.08"/>
<path d="M-84.6763 577C-64.557 577 -45.6527 574.792 -28.234 569.744C-0.147771 561.632 30.0539 554.24 62.0558 546.398C166.794 520.799 285.529 491.775 393.553 421.422C440.948 390.55 485.598 352.106 528.717 314.925C623.373 233.35 713.753 155.516 828.483 155.516C852.293 155.516 877.138 158.851 903.289 166.197C1027.02 200.99 1139.55 286.126 1248.38 368.512C1269.49 384.511 1291.32 401.006 1312.7 416.69C1356.09 448.599 1390.7 470.457 1421.71 485.601C1456.14 502.411 1485.81 510.659 1511.87 510.659C1515.51 510.659 1519.07 510.479 1522.58 510.163C1561.33 506.603 1592.75 499.031 1626.91 490.243C1654.41 483.167 1680.83 462.21 1707.7 426.2C1728.63 398.122 1749.97 360.715 1774.86 308.48C1842.96 165.431 1925.06 17.9656 2063.33 -91.6419C2169.73 -175.966 2354.9 -222.883 2503.07 -149.33C2688.74 -57.1642 2730.51 12.1067 2774.71 85.4339C2783.93 100.712 2793.48 116.531 2804.37 132.486C2843.8 190.174 2850.73 252.189 2858.11 317.809C2860.59 339.803 2863.15 362.563 2867.02 385.322L2868.33 385.097C2864.46 362.427 2861.89 339.668 2859.46 317.674C2852.08 251.873 2845.1 189.723 2805.49 131.765C2794.65 115.855 2785.1 100.036 2775.88 84.7578C2753.55 47.7562 2732.49 12.7828 2693.15 -25.4357C2671.99 -45.9871 2647.6 -65.4569 2618.52 -85.0168C2585.98 -106.875 2548.44 -128.328 2503.7 -150.547C2469.99 -167.268 2432.5 -178.354 2392.3 -183.492C2354.18 -188.36 2314.48 -187.774 2274.2 -181.78C2195.39 -170.062 2120.26 -138.423 2062.56 -92.7236C2001.71 -44.4999 1948.15 13.639 1898.77 84.938C1857.41 144.654 1817.71 215.503 1773.73 307.849C1748.89 359.994 1727.6 397.311 1706.71 425.343C1680.02 461.083 1653.83 481.86 1626.64 488.891C1592.52 497.679 1561.15 505.251 1522.49 508.811C1494.13 511.425 1461.37 503.403 1422.34 484.339C1391.42 469.241 1356.85 447.382 1313.55 415.564C1292.22 399.88 1270.39 383.339 1249.28 367.385C1140.36 284.954 1027.74 199.728 903.784 164.89C866.966 154.524 831.858 151.73 796.436 156.327C764.794 160.428 733.557 170.343 700.925 186.703C640.297 217.125 585.745 264.132 527.997 313.888C484.878 351.025 440.318 389.469 392.968 420.296C285.124 490.513 166.523 519.537 61.8754 545.091C29.8735 552.933 -0.372868 560.325 -28.504 568.437C-107.721 591.377 -219.346 555.142 -327.279 520.078C-375.485 504.439 -421.035 489.657 -463.344 480.057L-463.614 481.319C-421.395 490.873 -375.89 505.656 -327.684 521.295C-243.291 548.832 -156.512 577 -84.6763 577Z" fill="url(#paint12_linear_238_22372)" fill-opacity="0.08"/>
<path d="M-46.1026 591.287C-32.7347 591.287 -19.9969 590.07 -8.06916 587.456C13.4904 582.724 36.1303 578.352 60.1205 573.755C114.222 563.344 175.526 551.536 236.289 532.652C306.009 510.974 364.747 483.167 415.878 447.652C464.714 413.76 510.264 370.72 554.283 329.076C666.268 223.254 771.996 123.336 925.344 165.521C1050.92 200.089 1164.39 289.37 1274.13 375.677C1292.76 390.325 1311.98 405.468 1330.75 419.89C1362.34 444.182 1401.68 474.378 1438.19 495.155C1472.39 514.58 1501.33 524.134 1526.14 524.134C1530.05 524.134 1533.83 523.909 1537.57 523.413C1554.63 521.25 1570.65 520.619 1586.13 519.988C1604.5 519.267 1623.45 518.546 1643.84 515.166C1672.82 510.388 1700.37 490.513 1728 454.503C1749.61 426.335 1770.72 389.513 1796.33 335.115C1876.67 164.665 1955.26 29.8636 2077.73 -73.9752C2180.22 -160.913 2358.95 -210.804 2502.26 -138.063C2678.16 -48.7365 2719.44 19.9034 2763.14 92.5996C2771.92 107.202 2781.01 122.3 2791.18 137.533C2830.56 196.213 2839.34 259.129 2848.66 325.741C2851.72 347.735 2854.91 370.495 2859.28 393.209L2860.63 392.939C2856.26 370.314 2853.11 347.554 2850.01 325.561C2840.69 258.814 2831.87 195.717 2792.31 136.767C2782.13 121.579 2773.04 106.481 2764.26 91.9235C2742.17 55.1473 2721.33 20.4442 2683.38 -17.1883C2662.99 -37.3792 2639.63 -56.4884 2611.91 -75.5976C2580.89 -96.9603 2545.2 -117.782 2502.8 -139.325C2469.72 -156.136 2433.17 -166.997 2394.15 -171.73C2357.24 -176.191 2318.85 -175.02 2280 -168.349C2204.57 -155.37 2132.42 -122.244 2076.79 -75.0568C2018.18 -25.3458 1966.11 34.6859 1917.63 108.509C1867.26 185.216 1825.68 269.54 1795.07 334.439C1756.09 417.141 1707.57 503.132 1643.61 513.723C1623.36 517.058 1604.41 517.825 1586.09 518.546C1570.56 519.132 1554.54 519.763 1537.39 521.971C1476.13 529.768 1399.34 470.773 1331.6 418.718C1312.83 404.296 1293.57 389.153 1274.98 374.505C1165.16 288.108 1051.6 198.737 925.749 164.079C888.661 153.893 853.463 151.595 818.086 157.093C786.489 162.006 755.477 173.092 723.205 190.94C663.252 224.11 609.87 274.543 553.383 327.949C509.363 369.548 463.859 412.544 415.113 446.39C300.563 525.937 172.645 550.545 59.8505 572.268C35.8603 576.865 13.1755 581.236 -8.3841 585.969C-89.6268 603.771 -208.138 555.547 -322.778 508.901C-372.558 488.62 -419.594 469.466 -463.298 455.719L-463.703 457.027C-420.089 470.773 -373.054 489.927 -323.318 510.163C-225.197 550.229 -124.33 591.287 -46.1026 591.287Z" fill="url(#paint13_linear_238_22372)" fill-opacity="0.08"/>
<path d="M-11.6253 606.835C-3.38849 606.835 4.53314 606.294 12.1398 605.122C27.5783 602.779 43.4667 600.616 60.3002 598.317C117.643 590.43 182.592 581.552 247.496 563.569C322.168 542.882 384.596 513.543 438.338 473.882C488.299 437.016 534.434 389.423 579.129 343.452C689.042 230.194 792.88 123.246 947.579 164.889C1074.96 199.187 1189.28 292.705 1299.78 383.158C1315.94 396.408 1332.68 410.109 1349.02 423.179C1410.01 472.169 1488.24 529.317 1552.6 536.753C1561.56 537.79 1570.33 539.187 1578.84 540.494C1606.79 544.911 1633.21 549.057 1661.12 540.178C1691.23 530.579 1720.26 509.486 1747.4 477.442C1772.02 448.373 1795.79 409.478 1818.02 361.841C1887.29 213.384 1965.57 58.8424 2092.31 -56.1735C2190.93 -145.68 2363.18 -198.636 2501.59 -126.661C2667.72 -40.3092 2708.54 27.8801 2751.75 100.035C2760.08 113.917 2768.63 128.249 2778.17 142.716C2817.51 202.432 2828.13 266.295 2839.39 333.853C2843.03 355.847 2846.86 378.561 2851.67 401.186L2853.11 400.87C2848.25 378.291 2844.47 355.576 2840.83 333.583C2829.53 265.844 2818.86 201.846 2779.39 141.904C2769.89 127.482 2761.29 113.15 2753.01 99.2692C2731.14 62.7184 2710.48 28.1956 2673.93 -8.85106C2654.31 -28.7265 2631.98 -47.4751 2605.61 -66.0886C2576.12 -86.9104 2542.32 -107.191 2502.26 -127.968C2469.81 -144.824 2434.21 -155.55 2396.35 -159.832C2360.71 -163.888 2323.62 -162.176 2286.22 -154.784C2214.15 -140.542 2144.93 -105.884 2091.37 -57.2551C2035.02 -6.10192 1984.47 55.8679 1936.85 132.26C1890.44 206.714 1850.07 289.776 1816.76 361.21C1770.27 460.857 1717.74 520.573 1660.76 538.781C1633.21 547.57 1606.97 543.423 1579.16 539.052C1570.65 537.7 1561.83 536.302 1552.87 535.266C1488.87 527.92 1410.86 470.862 1350.06 422.008C1333.76 408.893 1317.02 395.192 1300.86 381.986C1190.23 291.443 1075.81 197.835 948.119 163.447C910.716 153.352 875.338 151.594 839.96 158.039C808.363 163.763 777.487 175.976 745.485 195.356C686.072 231.366 633.68 285.268 578.273 342.371C533.669 388.341 487.534 435.844 437.663 472.665C317.216 561.586 174.76 581.101 60.3002 596.83C43.4667 599.128 27.5783 601.337 12.0949 603.635C-71.1282 616.209 -196.436 555.862 -317.692 497.498C-369.138 472.71 -417.749 449.319 -462.849 431.472L-463.389 432.824C-418.334 450.671 -369.768 474.062 -318.322 498.805C-208.093 552.031 -94.2633 606.835 -11.6253 606.835Z" fill="url(#paint14_linear_238_22372)" fill-opacity="0.08"/>
<path d="M20.016 623.376C24.2021 623.376 28.298 623.196 32.2587 622.88C41.8908 622.069 51.613 621.303 61.9203 620.492C183.447 610.802 334.725 598.769 460.707 500.203C511.523 460.452 558.063 408.398 603.118 358.056C711.232 237.226 813.359 123.111 969.633 164.304C1098.81 198.332 1213.86 296.266 1325.08 390.911C1338.89 402.674 1353.16 414.843 1367.11 426.515C1426.93 476.722 1503.81 536.168 1567.54 550.094C1576.82 552.122 1585.91 554.556 1594.68 556.855C1615.25 562.308 1635.01 567.581 1655.45 567.581C1662.87 567.581 1670.39 566.905 1678.04 565.283C1694.52 561.812 1710.58 554.827 1725.89 544.596C1740.34 534.951 1754.56 522.016 1768.2 506.242C1792.82 477.669 1816.13 439.225 1839.49 388.612C1916.32 222.398 1989.47 75.5188 2106.72 -38.3253C2198.58 -127.562 2361.07 -189.667 2500.78 -115.213C2657.19 -31.9705 2697.56 35.8132 2740.32 107.563C2748.15 120.678 2756.21 134.244 2764.98 147.854C2804.23 208.652 2816.75 273.416 2830.02 342.011C2834.25 363.96 2838.67 386.63 2843.98 409.164L2845.46 408.803C2840.15 386.314 2835.78 363.644 2831.51 341.696C2818.23 272.966 2805.67 208.067 2766.24 146.998C2757.47 133.387 2749.41 119.867 2741.58 106.752C2698.68 34.7766 2658.22 -33.1873 2501.45 -116.7C2439.47 -149.69 2367.1 -158.209 2292.11 -141.308C2223.43 -125.804 2157.17 -89.6587 2105.59 -39.5421C2076.87 -11.6445 2050.32 18.5517 2024.39 52.8041C2000.85 83.9016 1978.39 117.658 1955.75 155.922C1911.64 230.511 1873.43 311.364 1838.1 387.846C1788.5 495.11 1737.55 550.996 1677.68 563.66C1649.24 569.699 1622.91 562.669 1595.04 555.277C1586.22 552.934 1577.13 550.545 1567.81 548.472C1504.39 534.591 1427.74 475.325 1368.06 425.208C1354.15 413.536 1339.84 401.367 1326.07 389.604C1271.11 342.822 1214.31 294.464 1155.25 253.766C1088.59 207.751 1028.01 177.96 969.993 162.682C932.185 152.722 896.582 151.46 861.114 158.806C829.473 165.386 798.641 178.727 766.909 199.638C707.901 238.488 654.024 298.655 601.948 356.839C556.938 407.136 510.398 459.1 459.717 498.806C334.095 597.146 183.087 609.135 61.7402 618.779C51.433 619.591 41.756 620.357 32.0788 621.168C-53.0347 628.379 -185.184 555.863 -312.966 485.691C-366.123 456.486 -416.354 428.949 -462.939 407.091L-463.569 408.488C-417.029 430.301 -366.843 457.883 -313.687 487.043C-191.575 554.195 -65.5926 623.376 20.016 623.376Z" fill="url(#paint15_linear_238_22372)" fill-opacity="0.08"/>
<path d="M49.6332 640.592C50.5785 640.592 51.4787 640.592 52.4238 640.547C56.4748 640.457 60.5256 640.367 64.6667 640.322C127.77 639.06 199.246 637.663 271.847 623.015C355.925 606.069 425.06 574.431 483.078 526.388C534.524 483.798 581.334 427.326 626.569 372.748C733.062 244.256 833.659 122.886 991.779 163.628C1122.71 197.385 1238.39 299.826 1350.28 398.888C1361.76 409.073 1373.69 419.62 1385.25 429.76C1444.04 481.319 1519.61 543.063 1582.53 563.344C1591.89 566.364 1601.03 569.744 1609.9 573.034C1634.52 582.183 1657.97 590.881 1683.26 590.881C1687.14 590.881 1691.05 590.656 1695.01 590.25C1729.08 586.51 1759.83 568.482 1788.99 535.131C1813.3 507.324 1836.88 468.114 1861.05 415.248C1935.36 252.91 2005.53 99.6302 2121.16 -20.6587C2209.38 -112.374 2365.52 -177.544 2500.06 -103.991C2646.65 -23.8135 2686.67 43.7448 2729.02 115.224C2736.31 127.483 2743.83 140.192 2751.89 152.947C2791.09 214.871 2805.54 280.627 2820.8 350.213C2825.57 372.072 2830.56 394.651 2836.33 417.096L2837.86 416.69C2832.09 394.291 2827.14 371.711 2822.33 349.898C2807.02 280.131 2792.58 214.241 2753.24 152.09C2745.18 139.381 2737.66 126.672 2730.37 114.413C2687.88 42.7082 2647.78 -24.9853 2500.78 -105.388C2440.28 -138.469 2370.2 -146.221 2298.23 -127.788C2232.92 -111.067 2169.64 -73.4344 2120.04 -21.8305C2092.31 7.01359 2066.57 38.2914 2041.36 73.7156C2018.77 105.534 1996.98 140.192 1974.84 179.582C1932.98 254.126 1895.67 335.656 1859.57 414.482C1835.44 467.212 1811.95 506.287 1787.73 533.959C1758.88 566.995 1728.45 584.842 1694.79 588.538C1665.26 591.783 1638.61 581.913 1610.39 571.457C1601.53 568.167 1592.34 564.741 1582.94 561.722C1520.28 541.531 1444.89 479.922 1386.24 428.453C1374.68 418.312 1362.75 407.766 1351.27 397.581C1296.09 348.726 1239.06 298.249 1179.51 255.794C1112.18 207.796 1050.88 177.104 992.094 161.96C953.835 152.09 917.918 151.369 882.36 159.662C850.628 167.098 819.841 181.61 788.244 204.1C729.551 245.834 676.575 309.786 625.309 371.621C580.119 426.154 533.354 482.536 482.042 525.036C351.739 632.886 192.539 636.04 64.6215 638.609C60.4806 638.699 56.4299 638.789 52.3791 638.835C51.4787 638.835 50.5336 638.88 49.6332 638.88C-37.4608 638.88 -174.921 554.961 -307.835 473.792C-362.747 440.261 -414.553 408.623 -462.669 382.843L-463.433 384.24C-415.363 409.975 -363.557 441.613 -308.69 475.144C-175.551 556.539 -37.9107 640.592 49.6332 640.592Z" fill="url(#paint16_linear_238_22372)" fill-opacity="0.08"/>
<path d="M159.007 660.513C199.741 660.513 243.355 658.395 287.195 651.138C374.694 636.671 446.125 604.402 505.448 552.573C557.389 507.188 604.244 446.39 649.569 387.621C700.025 322.18 752.191 254.487 810.434 209.959C875.518 160.203 942.043 144.834 1013.88 162.952C1146.57 196.393 1262.83 303.522 1375.31 407.135C1384.53 415.653 1394.08 424.442 1403.39 432.96C1443.09 469.285 1474.91 496.417 1503.5 518.275C1539.64 545.903 1570.38 564.967 1597.52 576.55C1600.18 577.676 1602.83 578.803 1605.49 579.93C1640.96 595.118 1674.49 609.45 1711.89 615.128C1716.35 615.804 1720.8 616.165 1725.17 616.165C1754.78 616.165 1782.47 600.571 1809.38 568.798C1839.36 533.464 1864.29 482.4 1882.66 441.838C1887.07 432.149 1891.43 422.504 1895.76 412.859C1965.34 258.994 2031.06 113.602 2135.7 -2.99157C2223.02 -100.295 2369.35 -165.78 2499.34 -92.6787C2636.21 -15.701 2675.87 51.7221 2717.9 123.111C2724.61 134.469 2731.54 146.277 2738.83 158.04C2777.99 221.091 2794.38 287.883 2811.66 358.596C2816.97 380.32 2822.46 402.764 2828.67 425.028L2830.29 424.577C2824.08 402.358 2818.59 379.914 2813.28 358.191C2795.95 287.342 2779.52 220.46 2740.23 157.183C2732.94 145.42 2726.01 133.657 2719.3 122.3C2677.17 50.6855 2637.38 -16.9178 2500.15 -94.1209C2441.09 -127.337 2373.4 -134.322 2304.4 -114.312C2242.51 -96.3744 2182.15 -57.2546 2134.49 -4.07323C2029.66 112.745 1963.9 258.183 1894.27 412.228C1889.9 421.873 1885.54 431.518 1881.17 441.208C1862.85 481.634 1837.96 532.562 1808.12 567.761C1777.6 603.771 1746.23 618.734 1712.16 613.551C1674.98 607.872 1641.59 593.586 1606.16 578.442C1603.51 577.316 1600.9 576.189 1598.2 575.062C1537.03 548.967 1465.96 487.989 1404.56 431.788C1395.25 423.27 1385.7 414.482 1376.48 405.964C1321.16 354.991 1263.95 302.26 1203.91 258.093C1135.9 208.021 1073.92 176.428 1014.37 161.42C994.749 156.462 975.305 153.983 956.581 153.938C956.536 153.938 956.491 153.938 956.446 153.938C938.622 153.938 920.843 156.192 903.604 160.654C871.738 168.946 840.906 184.63 809.444 208.697C751.021 253.36 698.765 321.144 648.264 386.674C602.984 445.399 556.174 506.152 504.367 551.401C369.833 668.896 198.076 661.82 72.6782 656.637C-16.0811 652.986 -161.778 555.818 -302.703 461.804C-359.371 424.036 -412.843 388.342 -462.488 358.731L-463.344 360.173C-413.788 389.784 -360.271 425.433 -303.648 463.201C-162.543 557.305 -16.6212 654.609 72.5883 658.304C99.0092 659.341 128.175 660.513 159.007 660.513Z" fill="url(#paint17_linear_238_22372)" fill-opacity="0.08"/>
<path d="M220.761 683.768C249.927 683.768 279.768 682.146 309.655 677.909C350.434 672.14 388.377 661.774 422.405 647.127C461.203 630.407 496.671 607.421 527.818 578.803C580.119 530.714 626.929 465.635 672.164 402.673C721.9 333.493 773.391 261.968 831.409 214.466C896.268 161.419 963.197 144.338 1035.98 162.276C1170.42 195.401 1287.22 307.443 1400.15 415.743C1407.31 422.594 1414.42 429.444 1421.49 436.205C1482.34 494.344 1552.65 558.026 1612.46 589.754C1615.84 591.557 1619.17 593.315 1622.5 595.118C1657.88 614.002 1691.32 631.804 1728.81 640.097C1747.54 644.243 1765.86 642.305 1783.28 634.328C1799.21 627.027 1814.33 614.993 1829.55 597.461C1860.24 562.127 1885.54 509.983 1904.17 468.474C1912.9 449.049 1921.59 429.399 1930.05 410.425C1994.51 265.168 2055.36 127.978 2150.15 14.6752C2227.57 -77.8963 2365.3 -158.615 2498.53 -81.4117C2625.68 -7.76905 2665.06 59.7442 2706.79 131.269C2712.86 141.634 2719.12 152.406 2725.65 163.087C2764.8 227.446 2783.17 295.319 2802.57 367.159C2808.37 388.702 2814.41 410.966 2820.98 432.96L2822.64 432.464C2816.07 410.47 2810.04 388.206 2804.23 366.709C2784.79 294.734 2766.43 226.77 2727.13 162.231C2720.61 151.505 2714.35 140.778 2708.32 130.412C2666.46 58.7076 2626.94 -8.9859 2499.43 -82.8989C2469.59 -100.16 2437.72 -110.256 2404.68 -112.87C2373.94 -115.303 2342.25 -111.292 2310.52 -100.927C2252.05 -81.8173 2194.62 -41.1651 2148.85 13.5485C2053.92 127.032 1992.98 264.312 1928.48 409.704C1920.06 428.678 1911.33 448.328 1902.6 467.753C1884.01 509.126 1858.76 561.136 1828.24 596.289C1796.91 632.39 1764.51 646.136 1729.22 638.339C1692 630.091 1658.64 612.334 1623.36 593.54C1620.03 591.783 1616.69 589.98 1613.32 588.177C1553.68 556.539 1483.51 492.947 1422.75 434.898C1415.68 428.137 1408.57 421.332 1401.41 414.481C1345.96 361.3 1288.62 306.316 1228.13 260.256C1159.49 208.021 1096.79 175.436 1036.47 160.563C1016.58 155.651 996.91 153.307 978.006 153.577C959.957 153.848 941.998 156.462 924.624 161.419C892.577 170.568 861.746 187.469 830.374 213.114C772.131 260.706 720.64 332.366 670.814 401.637C625.579 464.508 578.859 529.497 526.692 577.496C399.585 694.449 236.154 688.681 92.9328 674.123C2.41814 664.929 -150.075 555.322 -297.527 449.365C-355.95 407.36 -411.132 367.745 -462.263 334.304L-463.208 335.791C-412.077 369.187 -356.94 408.848 -298.517 450.807C-150.885 556.899 1.78802 666.642 92.798 675.881C132.226 679.937 175.706 683.768 220.761 683.768Z" fill="url(#paint18_linear_238_22372)" fill-opacity="0.08"/>
<path d="M268.426 708.241C289.58 708.241 310.915 707.204 332.159 704.68C373.073 699.858 411.152 689.943 445.314 675.205C484.068 658.485 519.355 634.869 550.187 605.033C602.714 554.241 649.388 484.925 694.488 417.907C743.594 344.941 794.41 269.495 852.293 219.063C917.017 162.637 984.352 143.888 1058.12 161.645C1194.37 194.455 1316.88 316.818 1425 424.803C1429.9 429.715 1434.81 434.583 1439.67 439.45C1498.95 498.535 1567.23 564.742 1627.5 603.005C1630.96 605.214 1634.43 607.422 1637.85 609.585C1673.72 632.48 1707.57 654.113 1745.83 665.02C1765.23 670.563 1784.13 669.662 1802.09 662.271C1818.29 655.646 1834.32 643.477 1849.71 626.126C1881.17 590.701 1906.87 537.475 1925.73 495.11C1938.33 466.807 1950.71 438.188 1962.73 410.471C2022.41 272.74 2078.77 142.626 2164.6 32.3878C2238.64 -62.4823 2370.29 -146.31 2497.81 -70.0088C2615.28 0.253675 2654.49 68.0824 2696.03 139.922C2701.39 149.161 2706.92 158.761 2712.59 168.271C2751.71 233.891 2772.1 302.936 2793.66 376.038C2799.91 397.266 2806.39 419.259 2813.37 440.937L2815.08 440.397C2808.15 418.719 2801.67 396.77 2795.41 375.543C2773.81 302.351 2753.42 233.215 2714.17 167.369C2708.5 157.86 2702.96 148.305 2697.6 139.021C2655.97 67.0007 2616.63 -1.05333 2498.75 -71.5411C2469.63 -88.9828 2438.71 -98.943 2406.84 -101.106C2377.32 -103.134 2346.98 -98.5374 2316.69 -87.4054C2288.42 -76.9944 2260.47 -61.0851 2233.73 -40.038C2208.3 -20.0274 2184.58 3.99437 2163.25 31.3512C2124.09 81.6481 2088.71 138.705 2052.03 210.951C2019.62 274.723 1991.22 340.344 1961.11 409.84C1949.09 437.557 1936.71 466.176 1924.11 494.479C1905.3 536.754 1879.69 589.8 1848.4 625.044C1816.22 661.279 1782.87 673.808 1746.37 663.398C1708.38 652.536 1674.62 630.993 1638.88 608.188C1635.46 605.98 1632 603.771 1628.53 601.608C1568.4 563.435 1500.21 497.319 1441.02 438.278C1436.16 433.411 1431.25 428.543 1426.35 423.631C1370.85 368.196 1313.42 310.868 1252.43 262.87C1183.16 208.382 1119.79 174.715 1058.62 160.023C1038.45 155.155 1018.56 152.992 999.43 153.533C981.201 154.029 963.107 157.048 945.598 162.457C913.371 172.462 882.449 190.58 851.167 217.846C793.105 268.459 742.244 343.994 693.048 417.051C647.993 483.978 601.363 553.204 548.972 603.861C425.87 722.888 266.76 716.534 113.187 691.926C20.9164 677.143 -138.373 555.097 -292.352 437.061C-352.53 390.911 -409.422 347.374 -462.084 310.192L-463.119 311.68C-410.457 348.816 -353.61 392.398 -293.432 438.504C-139.228 556.674 20.1965 678.856 112.962 693.729C160.222 701.165 213.694 708.241 268.426 708.241Z" fill="url(#paint19_linear_238_22372)" fill-opacity="0.08"/>
<path d="M309.25 733.524C324.328 733.524 339.497 732.893 354.62 731.451C395.714 727.575 433.927 718.11 468.179 703.283C506.888 686.517 541.996 662.27 572.602 631.262C625.264 577.856 671.669 504.393 716.589 433.32C765.109 356.567 815.25 277.201 873.043 223.704C937.677 163.898 1005.46 143.391 1080.27 160.968C1218.31 193.463 1341.23 321.369 1449.71 434.221L1457.86 442.694C1522.76 510.162 1585.77 574.25 1642.53 616.254C1645.73 618.598 1648.92 620.987 1652.07 623.33C1688.76 650.552 1723.37 676.286 1762.84 689.987C1782.87 696.928 1802.36 697.063 1820.9 690.303C1837.6 684.218 1854.08 672.32 1869.87 654.879C1902.19 619.319 1928.25 565.056 1947.34 521.79C1963.41 485.329 1979.02 448.238 1994.1 412.363C2049.28 281.257 2101.41 157.408 2179.14 50.0989C2253.09 -51.9371 2375.42 -134.143 2497.04 -58.7425C2604.88 8.09473 2644.04 76.5544 2685.45 149.025C2690 156.957 2694.68 165.205 2699.45 173.317C2738.61 240.425 2761.11 310.778 2784.92 385.231C2791.59 406.053 2798.47 427.596 2805.67 448.824L2807.47 448.193C2800.27 426.965 2793.39 405.422 2786.72 384.646C2762.87 310.102 2740.36 239.659 2701.12 172.371C2696.34 164.213 2691.66 156.011 2687.12 148.079C2645.57 75.3826 2606.33 6.74267 2498.03 -60.3649C2469.59 -77.9869 2439.65 -87.8119 2409.05 -89.6147C2380.74 -91.2822 2351.79 -86.0542 2322.94 -74.111C2296.21 -63.0691 2269.74 -46.3485 2244.31 -24.4C2220.41 -3.8035 2198 20.8942 2177.61 49.0172C2142.63 97.286 2109.46 153.938 2076.15 222.262C2046.36 283.331 2018.95 348.545 1992.39 411.642C1977.31 447.517 1961.69 484.608 1945.63 521.069C1926.59 564.2 1900.66 618.283 1868.52 653.617C1835.49 689.987 1801.14 701.3 1763.52 688.23C1724.31 674.619 1689.79 648.975 1653.24 621.843C1650.05 619.5 1646.9 617.111 1643.66 614.767C1586.99 572.853 1524.06 508.855 1459.21 441.432L1451.06 432.959C1395.52 375.181 1338.08 315.42 1276.6 265.348C1206.7 208.471 1142.61 173.723 1080.67 159.166C1060.24 154.343 1040.03 152.315 1020.72 153.126C1002.31 153.893 984.037 157.273 966.438 163.177C933.986 174.038 903.019 193.418 871.738 222.307C813.765 275.939 763.534 355.441 714.968 432.283C670.138 503.222 623.733 576.594 571.252 629.91C446.395 756.599 279.858 741.185 133.441 709.412C39.4159 688.996 -126.625 554.42 -287.22 424.306C-349.199 374.054 -407.756 326.642 -461.948 285.764L-463.074 287.296C-408.882 328.129 -350.369 375.586 -288.39 425.793C-127.66 556.087 38.5607 690.798 133.036 711.26C182.772 722.076 245.111 733.524 309.25 733.524Z" fill="url(#paint20_linear_238_22372)" fill-opacity="0.08"/>
<path d="M346.023 759.304C434.197 759.304 522.461 734.606 594.972 657.493C647.679 601.472 693.814 523.909 738.418 448.914C786.354 368.331 835.91 284.953 893.657 228.437C958.246 165.205 1026.53 142.941 1102.41 160.383C1242.3 192.517 1365.59 326.237 1474.37 444.227L1482.03 452.52C1540.94 516.427 1601.89 582.499 1657.56 629.505C1660.26 631.759 1662.92 634.012 1665.58 636.311C1703.25 668.22 1738.85 698.371 1779.86 715.001C1792.1 719.959 1803.76 722.257 1814.87 722.257C1882.79 722.257 1930.55 636.311 1968.9 548.517C1988.16 504.394 2006.57 459.235 2024.35 415.563C2075.3 290.452 2123.37 172.326 2193.63 67.9018C2221.94 25.8074 2268.62 -30.3935 2330.06 -58.9221C2387.22 -85.4677 2443.16 -81.5918 2496.28 -47.3394C2594.62 15.9824 2633.83 85.4336 2675.33 158.986C2678.93 165.341 2682.62 171.921 2686.35 178.456C2725.65 247.276 2750.36 319.116 2776.51 395.147C2783.44 415.338 2790.64 436.205 2798.02 456.801L2799.87 456.125C2792.49 435.574 2785.28 414.707 2778.35 394.516C2752.16 318.35 2727.45 246.465 2688.06 177.464C2684.37 170.974 2680.64 164.394 2677.04 158.04C2635.4 84.2618 2596.06 14.5853 2497.36 -49.052C2469.63 -66.8993 2440.69 -76.6793 2411.3 -78.0313C2384.25 -79.2933 2356.61 -73.4794 2329.2 -60.77C2303.99 -49.052 2278.97 -31.5202 2254.89 -8.71538C2232.52 12.467 2211.36 37.8859 2191.92 66.73C2160.32 113.692 2130.12 168.405 2099.51 233.981C2072.19 292.57 2046.9 354.675 2022.46 414.752C2004.68 458.424 1986.27 503.583 1967.05 547.66C1922.81 648.975 1866.05 747.811 1780.53 713.108C1739.8 696.568 1704.33 666.552 1666.79 634.733C1664.14 632.48 1661.43 630.181 1658.78 627.928C1603.19 581.011 1542.29 514.985 1483.42 451.123L1475.77 442.83C1420.23 382.618 1362.84 320.333 1300.91 268.143C1230.38 208.697 1165.56 172.822 1102.82 158.4C1082.07 153.623 1061.63 151.775 1042.05 152.857C1023.42 153.893 1004.97 157.679 987.233 164.034C954.556 175.797 923.454 196.393 892.217 226.995C834.289 283.692 784.689 367.159 736.663 447.878C692.103 522.782 646.058 600.256 593.487 656.096C466.964 790.627 291.966 764.667 153.651 726.989C57.9152 700.939 -114.922 553.789 -282.089 411.462C-345.823 357.199 -406.046 305.91 -461.813 261.427L-463.028 262.96C-407.306 307.443 -347.083 358.686 -283.349 412.949C-116.048 555.412 56.97 702.697 153.156 728.882C212.884 745.197 279.453 759.304 346.023 759.304Z" fill="url(#paint21_linear_238_22372)" fill-opacity="0.08"/>
<path d="M380.544 785.309C386.891 785.309 393.237 785.174 399.584 784.859C441.038 782.875 479.521 774.312 513.909 759.35C552.572 742.539 587.365 717.075 617.341 683.679C670.003 625.089 715.778 543.514 760.022 464.599C807.418 380.14 856.433 292.751 914.091 233.125C978.635 166.423 1047.46 142.356 1124.47 159.618C1266.2 191.391 1392.55 334.305 1494.09 449.14C1503.09 459.326 1512.18 469.647 1521 479.697C1571.41 536.98 1623.54 596.2 1672.51 642.666C1674.49 644.559 1676.47 646.452 1678.49 648.345C1715.63 683.634 1754.02 720.14 1796.82 739.88C1820.59 750.832 1843.72 752.184 1865.55 743.801C1889.81 734.517 1912.68 713.695 1935.45 680.209C1953.19 654.114 1970.65 620.718 1990.41 575.063C2012.65 523.684 2033.44 470.683 2053.56 419.35C2098.39 305.1 2144.75 186.974 2208.03 85.4342C2259.25 3.27362 2320.11 -48.9613 2379.39 -61.6256C2418.86 -70.0535 2457.88 -61.4904 2495.47 -36.2067C2584.49 23.8701 2624.01 94.9438 2665.83 170.209C2668.3 174.626 2670.78 179.087 2673.25 183.549C2712.82 254.398 2741.17 331.556 2768.59 406.145C2775.65 425.344 2782.94 445.174 2790.37 464.734L2792.26 464.013C2784.83 444.498 2777.54 424.623 2770.52 405.424C2743.06 330.744 2714.66 253.541 2675.05 182.558C2672.58 178.096 2670.1 173.679 2667.63 169.217C2646.52 131.224 2626.58 95.3494 2600.2 60.421C2570.32 20.8505 2537.41 -10.3822 2496.73 -37.7841C2458.69 -63.4284 2419.08 -72.0816 2379.07 -63.5185C2347.34 -56.7131 2315.52 -39.1813 2284.5 -11.3738C2256.87 13.4592 2230.58 45.6834 2206.41 84.4427C2177.97 130.097 2150.51 182.918 2122.51 245.925C2097.53 302.171 2074.26 361.391 2051.8 418.719C2031.68 470.007 2010.89 523.008 1988.66 574.342C1959.62 641.449 1919.29 721.176 1864.92 741.953C1843.63 750.111 1821.04 748.804 1797.77 738.077C1755.23 718.472 1716.98 682.101 1679.98 646.903C1678 645.01 1676.02 643.117 1673.99 641.224C1625.11 594.803 1575.33 538.242 1522.62 478.39C1513.8 468.385 1504.66 458.019 1495.71 447.833C1446.78 392.489 1385.88 323.623 1322.55 268.82C1252.43 208.157 1187.84 171.786 1125.01 157.68C1103.94 152.947 1083.19 151.235 1063.43 152.632C1044.57 153.939 1025.94 158.085 1008.07 164.981C975.124 177.645 943.932 199.504 912.741 231.773C854.858 291.579 805.797 379.058 758.357 463.652C714.157 542.433 668.427 623.918 615.901 682.327C489.108 823.392 313.165 789.726 174.039 744.657C76.5932 712.703 -103.176 552.889 -277.094 398.302C-342.538 340.164 -404.336 285.224 -461.544 237.136L-462.849 238.713C-405.642 286.757 -343.888 341.651 -278.444 399.835C-104.391 554.556 75.558 714.506 173.409 746.595C225.711 763.586 302.362 785.309 380.544 785.309Z" fill="url(#paint22_linear_238_22372)" fill-opacity="0.08"/>
<path d="M412.861 811.763C415.922 811.763 418.983 811.718 422.043 811.673C463.723 810.637 502.296 802.479 536.728 787.426C575.347 770.571 610.005 744.476 639.711 709.953C692.282 648.839 737.652 563.299 781.537 480.597C828.392 392.217 876.868 300.817 934.525 238.081C999.069 167.819 1068.47 141.994 1146.61 159.121C1290.06 190.489 1418.47 341.965 1512.23 452.519C1527.93 471.043 1543.78 489.972 1559.08 508.315C1603.37 561.361 1645.23 611.432 1687.54 656.005L1691.05 659.701C1729.35 700.083 1768.96 741.862 1813.84 764.937C1838.64 777.692 1862.76 779.99 1885.54 771.742C1910.25 762.819 1933.52 742.042 1956.61 708.195C1974.75 681.65 1992.35 647.893 2012.02 601.878C2037.36 543.018 2060.54 481.544 2082.91 422.098C2123.82 313.527 2166.08 201.305 2222.57 103.325C2257.95 41.9415 2315.25 -34.4954 2387.26 -50.3146C2423.45 -58.2467 2459.59 -49.6385 2494.75 -24.7154C2574.68 31.8911 2616.72 108.959 2657.37 183.548L2660.16 188.641C2700.26 262.193 2731.5 342.01 2761.65 419.168C2768.5 436.7 2775.61 454.818 2782.72 472.665L2784.65 471.899C2777.54 454.052 2770.48 435.934 2763.59 418.447C2733.39 341.199 2702.15 261.337 2661.96 187.649L2659.17 182.557C2638.78 145.149 2617.71 106.48 2592.15 70.8757C2563.48 30.9447 2532.01 -0.91904 2495.96 -26.4731C2460.31 -51.7568 2423.59 -60.5001 2386.77 -52.4328C2356.16 -45.7175 2325.46 -27.4196 2295.53 2.01042C2269.38 27.7448 2244.18 61.4563 2220.68 102.199C2164.1 200.359 2121.79 312.67 2080.88 421.287C2058.51 480.687 2035.33 542.116 2010.03 600.976C1990.41 646.857 1972.9 680.523 1954.85 706.933C1931.99 740.374 1909.08 760.926 1884.77 769.669C1862.54 777.692 1839 775.438 1814.74 762.954C1770.18 740.059 1730.7 698.415 1692.54 658.169L1689.02 654.473C1646.81 609.945 1604.95 559.873 1560.66 506.872C1545.35 488.529 1529.51 469.555 1513.8 451.032C1457.99 385.186 1402.9 321.684 1343.12 268.683C1273.81 207.209 1209.67 170.658 1147.02 156.957C1125.59 152.27 1104.62 150.738 1084.59 152.405C1065.5 153.983 1046.69 158.535 1028.69 165.926C995.468 179.537 964.142 202.612 932.95 236.594C875.112 299.555 826.547 391.045 779.646 479.561C735.852 562.172 690.527 647.623 638.091 708.556C509.362 858.139 323.112 810.907 194.204 762.323C95.092 724.69 -91.5635 552.167 -272.053 385.321C-339.252 323.216 -402.716 264.537 -461.454 212.888L-462.849 214.465C-404.112 266.069 -340.648 324.749 -273.493 386.854C-92.8687 553.834 93.9221 726.538 193.439 764.261C234.082 779.584 270.45 790.806 304.613 798.558C343.096 807.347 379.419 811.763 412.861 811.763Z" fill="url(#paint23_linear_238_22372)" fill-opacity="0.08"/>
<path d="M443.604 838.445C443.919 838.445 444.189 838.445 444.459 838.445C486.318 838.355 525.027 830.603 559.549 815.505C598.168 798.604 632.645 771.878 662.126 736.184C714.563 672.591 759.438 583.175 802.872 496.732C849.232 404.476 897.168 309.02 954.825 243.13C1019.41 169.307 1089.36 141.634 1168.71 158.4C1302.75 187.199 1420.86 321.054 1530.37 455.675C1552.11 482.4 1573.94 510.028 1595 536.754C1630.15 581.327 1666.57 627.432 1702.57 669.166L1703.34 670.068C1742.86 715.858 1783.73 763.225 1830.85 789.816C1856.6 804.328 1881.67 807.618 1905.34 799.55C1930.5 790.987 1954.13 770.211 1977.63 736.003C1996.08 709.097 2013.86 674.935 2033.58 628.469C2061.39 563.119 2086.28 494.164 2110.32 427.462C2147.77 323.533 2186.52 216.088 2237.06 120.993C2259.79 78.2226 2283.78 43.0689 2308.27 16.6134C2336.81 -14.1687 2365.97 -33.0525 2394.96 -39.4974C2428 -46.8436 2461.3 -38.0552 2493.98 -13.4475C2565.28 40.3197 2608.71 121.804 2647.01 193.734C2688.42 271.478 2723.22 355.532 2756.88 436.836C2762.82 451.168 2768.95 465.996 2775.07 480.598L2777.09 479.742C2771.02 465.139 2764.85 450.312 2758.91 435.98C2725.24 354.63 2690.4 270.532 2648.95 192.698C2627.03 151.55 2606.96 114.638 2582.96 79.7099C2555.37 39.4633 2526.7 8.41087 2495.33 -15.2052C2462.11 -40.2185 2428.22 -49.1421 2394.55 -41.6607C2365.12 -35.1257 2335.55 -16.0165 2306.74 15.0811C2282.12 41.6717 2258.04 76.9607 2235.22 119.911C2184.58 215.142 2145.83 322.676 2108.34 426.695C2084.3 493.397 2059.46 562.308 2031.64 627.613C2011.97 673.943 1994.28 708.016 1975.87 734.741C1952.69 768.543 1929.38 789.049 1904.71 797.432C1881.62 805.319 1857.14 802.074 1831.98 787.878C1785.17 761.467 1744.43 714.235 1705.05 668.58L1704.28 667.679C1668.32 625.99 1631.95 579.885 1596.8 535.356C1575.74 508.631 1553.91 481.003 1532.17 454.232C1482.75 393.48 1424.95 324.028 1363.92 268.594C1295.37 206.353 1231.73 169.577 1169.3 156.192C1147.56 151.595 1126.22 150.243 1105.97 152.226C1086.66 154.119 1067.62 159.076 1049.48 166.963C1015.99 181.52 984.532 205.903 953.295 241.597C895.457 307.713 847.432 403.259 801.027 495.651C757.637 582.003 712.808 671.284 660.551 734.696C605.054 802.029 533.398 835.605 444.099 835.605C377.62 835.605 301.373 816.992 214.639 779.855C113.817 736.544 -79.6351 551.266 -266.741 372.072C-335.696 306.046 -400.825 243.67 -461.093 188.506L-462.578 190.128C-402.31 245.248 -337.226 307.623 -268.271 373.649C-81.0306 552.978 112.602 738.392 213.784 781.883C302.363 819.967 377.62 838.445 443.604 838.445Z" fill="url(#paint24_linear_238_22372)" fill-opacity="0.08"/>
<path d="M473.265 865.261C512.873 865.261 549.557 857.96 582.369 843.538C620.942 826.592 655.33 799.28 684.496 762.369C736.707 696.343 781.177 603.05 824.116 512.867C869.981 416.6 917.422 316.998 975.124 247.907C1039.76 170.479 1110.33 141.004 1190.86 157.77C1326.07 185.893 1441.7 321.956 1548.5 458.965C1575.29 493.308 1601.98 529.228 1627.72 563.931C1656.89 603.231 1687.04 643.838 1717.56 682.417C1755.41 730.235 1798.26 784.498 1847.82 814.784C1874.51 831.099 1900.53 835.381 1925.15 827.449C1938.38 823.167 1951.57 815.28 1964.26 803.923C1975.78 793.602 1987.35 780.126 1998.6 763.856C2017.15 736.995 2035.65 701.436 2055.13 655.15C2085.38 583.4 2111.76 506.648 2137.23 432.42C2171.35 333.178 2206.59 230.556 2251.51 138.66C2273.61 93.5013 2296.48 56.6801 2319.48 29.3232C2346.89 -3.2616 2374.88 -22.9116 2402.7 -29.041C2432.72 -35.6661 2463.15 -26.6073 2493.22 -2.17994C2551.19 45.0072 2596.24 126.312 2633.92 198.827C2678.84 285.315 2719.48 378.607 2758.82 468.835C2761.7 475.415 2764.53 481.995 2767.41 488.575L2769.49 487.674C2766.6 481.094 2763.77 474.514 2760.89 467.934C2721.55 377.661 2680.91 284.368 2635.94 197.791C2598.18 125.095 2552.99 43.5199 2494.7 -3.93764C2464.09 -28.8157 2432.99 -38.0097 2402.3 -31.2494C2373.98 -25.0299 2345.58 -5.10943 2317.86 27.881C2294.72 55.373 2271.77 92.3296 2249.58 137.669C2204.57 229.7 2169.28 332.412 2135.16 431.698C2109.69 505.882 2083.31 582.589 2053.11 654.249C2026.01 718.607 1983.16 806.356 1924.52 825.285C1900.57 832.992 1875.19 828.846 1849.03 812.846C1799.84 782.74 1757.08 728.703 1719.36 681.02C1688.89 642.486 1658.73 601.879 1629.57 562.579C1603.78 527.83 1577.13 491.91 1550.3 457.568C1502.46 396.229 1446.24 325.967 1384.49 268.549C1316.7 205.452 1253.51 168.541 1191.31 155.606C1169.21 151.009 1147.65 149.837 1127.12 152.091C1107.59 154.254 1088.37 159.572 1070.01 167.955C1036.25 183.414 1004.65 209.103 973.414 246.51C915.531 315.826 868.046 415.519 822.091 511.921C779.152 602.014 734.772 695.171 682.741 761.017C585.88 883.514 439.372 895.457 234.758 797.658C132.226 748.623 -68.1128 550.545 -261.835 358.957C-332.545 289.055 -399.295 223.029 -461.094 164.394L-462.624 166.017C-400.87 224.607 -334.121 290.633 -263.41 360.534C-69.5533 552.258 130.921 750.471 233.768 799.686C323.292 842.501 399.539 863.954 466.874 865.261C469.034 865.261 471.15 865.261 473.265 865.261Z" fill="url(#paint25_linear_238_22372)" fill-opacity="0.08"/>
</g>
<defs>
<linearGradient id="paint0_linear_238_22372" x1="1261.32" y1="-342.819" x2="1261.32" y2="772.239" gradientUnits="userSpaceOnUse">
<stop stop-color="white"/>
<stop offset="1" stop-color="white" stop-opacity="0"/>
</linearGradient>
<linearGradient id="paint1_linear_238_22372" x1="1255.38" y1="-329.156" x2="1255.38" y2="747.991" gradientUnits="userSpaceOnUse">
<stop stop-color="white"/>
<stop offset="1" stop-color="white" stop-opacity="0"/>
</linearGradient>
<linearGradient id="paint2_linear_238_22372" x1="1249.53" y1="-315.696" x2="1249.53" y2="723.745" gradientUnits="userSpaceOnUse">
<stop stop-color="white"/>
<stop offset="1" stop-color="white" stop-opacity="0"/>
</linearGradient>
<linearGradient id="paint3_linear_238_22372" x1="1243.72" y1="-302.339" x2="1243.72" y2="699.498" gradientUnits="userSpaceOnUse">
<stop stop-color="white"/>
<stop offset="1" stop-color="white" stop-opacity="0"/>
</linearGradient>
<linearGradient id="paint4_linear_238_22372" x1="1237.94" y1="-289.118" x2="1237.94" y2="675.296" gradientUnits="userSpaceOnUse">
<stop stop-color="white"/>
<stop offset="1" stop-color="white" stop-opacity="0"/>
</linearGradient>
<linearGradient id="paint5_linear_238_22372" x1="1232.38" y1="-275.811" x2="1232.38" y2="651.048" gradientUnits="userSpaceOnUse">
<stop stop-color="white"/>
<stop offset="1" stop-color="white" stop-opacity="0"/>
</linearGradient>
<linearGradient id="paint6_linear_238_22372" x1="1226.8" y1="-262.797" x2="1226.8" y2="626.846" gradientUnits="userSpaceOnUse">
<stop stop-color="white"/>
<stop offset="1" stop-color="white" stop-opacity="0"/>
</linearGradient>
<linearGradient id="paint7_linear_238_22372" x1="1221.51" y1="-250.032" x2="1221.51" y2="602.644" gradientUnits="userSpaceOnUse">
<stop stop-color="white"/>
<stop offset="1" stop-color="white" stop-opacity="0"/>
</linearGradient>
<linearGradient id="paint8_linear_238_22372" x1="1217.28" y1="-237.13" x2="1217.28" y2="578.398" gradientUnits="userSpaceOnUse">
<stop stop-color="white"/>
<stop offset="1" stop-color="white" stop-opacity="0"/>
</linearGradient>
<linearGradient id="paint9_linear_238_22372" x1="1213.52" y1="-224.244" x2="1213.52" y2="554.195" gradientUnits="userSpaceOnUse">
<stop stop-color="white"/>
<stop offset="1" stop-color="white" stop-opacity="0"/>
</linearGradient>
<linearGradient id="paint10_linear_238_22372" x1="1209.78" y1="-211.685" x2="1209.78" y2="555.232" gradientUnits="userSpaceOnUse">
<stop stop-color="white"/>
<stop offset="1" stop-color="white" stop-opacity="0"/>
</linearGradient>
<linearGradient id="paint11_linear_238_22372" x1="1206.02" y1="-199.233" x2="1206.02" y2="564.651" gradientUnits="userSpaceOnUse">
<stop stop-color="white"/>
<stop offset="1" stop-color="white" stop-opacity="0"/>
</linearGradient>
<linearGradient id="paint12_linear_238_22372" x1="1202.36" y1="-186.755" x2="1202.36" y2="577" gradientUnits="userSpaceOnUse">
<stop stop-color="white"/>
<stop offset="1" stop-color="white" stop-opacity="0"/>
</linearGradient>
<linearGradient id="paint13_linear_238_22372" x1="1198.46" y1="-174.389" x2="1198.46" y2="591.287" gradientUnits="userSpaceOnUse">
<stop stop-color="white"/>
<stop offset="1" stop-color="white" stop-opacity="0"/>
</linearGradient>
<linearGradient id="paint14_linear_238_22372" x1="1194.86" y1="-161.975" x2="1194.86" y2="606.835" gradientUnits="userSpaceOnUse">
<stop stop-color="white"/>
<stop offset="1" stop-color="white" stop-opacity="0"/>
</linearGradient>
<linearGradient id="paint15_linear_238_22372" x1="1190.95" y1="-149.771" x2="1190.95" y2="623.376" gradientUnits="userSpaceOnUse">
<stop stop-color="white"/>
<stop offset="1" stop-color="white" stop-opacity="0"/>
</linearGradient>
<linearGradient id="paint16_linear_238_22372" x1="1187.21" y1="-137.557" x2="1187.21" y2="640.592" gradientUnits="userSpaceOnUse">
<stop stop-color="white"/>
<stop offset="1" stop-color="white" stop-opacity="0"/>
</linearGradient>
<linearGradient id="paint17_linear_238_22372" x1="1183.48" y1="-125.476" x2="1183.48" y2="660.513" gradientUnits="userSpaceOnUse">
<stop stop-color="white"/>
<stop offset="1" stop-color="white" stop-opacity="0"/>
</linearGradient>
<linearGradient id="paint18_linear_238_22372" x1="1179.72" y1="-113.56" x2="1179.72" y2="683.768" gradientUnits="userSpaceOnUse">
<stop stop-color="white"/>
<stop offset="1" stop-color="white" stop-opacity="0"/>
</linearGradient>
<linearGradient id="paint19_linear_238_22372" x1="1175.98" y1="-101.572" x2="1175.98" y2="708.241" gradientUnits="userSpaceOnUse">
<stop stop-color="white"/>
<stop offset="1" stop-color="white" stop-opacity="0"/>
</linearGradient>
<linearGradient id="paint20_linear_238_22372" x1="1172.2" y1="-89.9176" x2="1172.2" y2="733.524" gradientUnits="userSpaceOnUse">
<stop stop-color="white"/>
<stop offset="1" stop-color="white" stop-opacity="0"/>
</linearGradient>
<linearGradient id="paint21_linear_238_22372" x1="1168.42" y1="-78.2004" x2="1168.42" y2="759.304" gradientUnits="userSpaceOnUse">
<stop stop-color="white"/>
<stop offset="1" stop-color="white" stop-opacity="0"/>
</linearGradient>
<linearGradient id="paint22_linear_238_22372" x1="1164.71" y1="-66.7164" x2="1164.71" y2="785.309" gradientUnits="userSpaceOnUse">
<stop stop-color="white"/>
<stop offset="1" stop-color="white" stop-opacity="0"/>
</linearGradient>
<linearGradient id="paint23_linear_238_22372" x1="1160.9" y1="-55.3403" x2="1160.9" y2="811.764" gradientUnits="userSpaceOnUse">
<stop stop-color="white"/>
<stop offset="1" stop-color="white" stop-opacity="0"/>
</linearGradient>
<linearGradient id="paint24_linear_238_22372" x1="1157.26" y1="-44.2234" x2="1157.26" y2="838.445" gradientUnits="userSpaceOnUse">
<stop stop-color="white"/>
<stop offset="1" stop-color="white" stop-opacity="0"/>
</linearGradient>
<linearGradient id="paint25_linear_238_22372" x1="1153.43" y1="-33.4005" x2="1153.43" y2="865.261" gradientUnits="userSpaceOnUse">
<stop stop-color="white"/>
<stop offset="1" stop-color="white" stop-opacity="0"/>
</linearGradient>
</defs>
</svg>
