<svg width="1920" height="880" viewBox="0 0 1920 880" fill="none" xmlns="http://www.w3.org/2000/svg">
<mask id="mask0_361_4006" style="mask-type:luminance" maskUnits="userSpaceOnUse" x="-24" y="-145" width="1967" height="1183">
<path d="M-23.5498 -144L1942.2 -144L1942.2 1037L-23.5499 1037L-23.5498 -144Z" fill="white"/>
</mask>
<g mask="url(#mask0_361_4006)">
<path d="M-284.76 884.966C-240.845 760.568 -195.476 631.917 -115.076 522.675C-28.4261 404.929 94.394 327.101 230.739 303.521C265.493 297.497 301.466 294.506 338.776 294.506C440.799 294.506 552.926 317.023 678.576 362.492C755.201 390.245 829.664 425.912 901.65 460.397C958.775 487.757 1017.87 516.101 1077.66 540.272C1110.06 553.381 1152.2 568.34 1191.76 568.34C1192.15 568.34 1192.54 568.34 1192.93 568.34C1212.67 568.183 1230.72 564.246 1246.6 556.609C1264.21 548.145 1279.94 534.8 1293.31 516.888C1320.12 480.986 1337.97 438.233 1355.23 396.859C1357.98 390.285 1360.81 383.474 1363.64 376.861C1387.07 321.708 1413.65 259.194 1445.57 200.498C1514.1 74.6034 1611.68 -1.96474 1771.97 -55.464C1922.46 -105.696 2166.26 -98.1768 2315.42 -38.6544C2579.73 66.8089 2624.44 141.173 2667.68 213.056C2679.99 233.527 2691.62 252.895 2708.25 272.697C2742.69 313.756 2730.9 358.752 2718.4 406.386C2713.52 425.006 2708.45 444.296 2705.94 464.019L2706.33 464.058C2708.84 444.335 2713.92 425.085 2718.79 406.465C2725.16 382.175 2731.18 359.225 2731.37 336.864C2731.57 311.709 2724.33 291.238 2708.57 272.421C2691.98 252.659 2680.34 233.291 2668.04 212.82C2646.81 177.508 2624.87 141.015 2575.09 100.034C2548.16 77.9103 2515.85 56.6129 2476.22 34.9219C2431.52 10.4358 2378.95 -13.7353 2315.58 -39.0481C2279.48 -53.4563 2237.14 -65.0695 2189.69 -73.612C2143.77 -81.879 2095.14 -86.8786 2045.17 -88.4533C1995.04 -90.0673 1946.17 -88.1777 1899.94 -82.8239C1851.89 -77.2732 1808.81 -68.1795 1771.89 -55.8577C1692.67 -29.4033 1632.08 0.790927 1581.29 39.2128C1526.05 80.9808 1481.55 133.653 1445.3 200.301C1413.34 258.997 1386.8 321.551 1363.33 376.703C1360.53 383.317 1357.66 390.127 1354.91 396.702C1337.65 438.036 1319.84 480.789 1293.03 516.612C1237.44 591.015 1156.73 571.765 1077.82 539.839C1018.02 515.668 958.932 487.363 901.807 460.003C829.821 425.518 755.359 389.812 678.694 362.059C599.081 333.242 526.899 314.071 458.058 303.481C419.058 297.497 380.804 294.309 344.398 294.033C305.28 293.718 267.026 296.789 230.66 303.048C161.348 315.016 95.9668 340.525 36.3259 378.79C-21.6639 415.991 -72.7342 464.294 -115.43 522.36C-151.246 571.017 -183.327 628.177 -213.561 697.069C-240.885 759.347 -263.412 823.121 -285.153 884.769L-284.76 884.966Z" fill="url(#paint0_linear_361_4006)" fill-opacity="0.08"/>
<path d="M-284.601 863.787C-228.224 738.246 -174.795 634.791 -97.3834 538.106C-11.5586 430.675 111.891 355.524 250.28 326.432C394.448 296.119 545.025 308.047 697.881 361.901C778.713 390.717 856.95 429.533 932.592 467.01C984.92 492.953 1039.02 519.801 1093.55 543.106C1125.71 556.845 1167.7 572.788 1207.09 573.891C1226.51 574.442 1244.36 571.292 1260.09 564.6C1277.54 557.16 1293.15 545.035 1306.56 528.501C1332.07 497.008 1349.84 459.373 1367.06 422.959C1370.84 414.967 1374.73 406.74 1378.62 398.709C1386.56 382.411 1394.35 365.995 1402.6 348.674C1422.1 307.654 1442.27 265.256 1464.49 223.842C1533.88 95.0739 1629.65 16.2225 1784.67 -39.9144C1931.04 -92.9019 2168.89 -87.8629 2314.83 -28.7342C2570.61 74.9182 2614.73 148.14 2657.38 218.922C2669.41 238.88 2680.77 257.776 2696.82 277.184C2731.29 318.952 2720.88 364.696 2709.87 413.117C2705.62 431.816 2701.22 451.145 2699.25 470.908L2699.72 470.947C2701.73 451.224 2706.09 431.895 2710.34 413.196C2721.35 364.696 2731.77 318.834 2697.17 276.869C2681.17 257.501 2669.81 238.644 2657.78 218.685C2636.78 183.846 2615.08 147.825 2566.6 107.514C2540.42 85.7441 2509.01 64.801 2470.6 43.5036C2427.27 19.4506 2376.36 -4.32685 2314.99 -29.1672C2236.67 -60.9361 2131.94 -77.0765 2029.09 -77.0765C1940.08 -77.0765 1852.45 -64.9909 1784.47 -40.3868C1746.92 -26.8053 1714.02 -12.3971 1683.82 3.58579C1651.94 20.4741 1623.83 38.819 1597.84 59.6045C1544.06 102.672 1500.3 156.289 1464.05 223.567C1441.84 265.02 1421.67 307.418 1402.17 348.438C1393.91 365.798 1386.13 382.175 1378.19 398.473C1374.3 406.504 1370.4 414.731 1366.63 422.723C1349.45 459.097 1331.68 496.732 1306.2 528.186C1250.49 596.92 1171.16 575.78 1093.74 542.673C1039.25 519.368 985.156 492.559 932.828 466.616C857.186 429.1 778.949 390.324 698.078 361.468C545.143 307.614 394.448 295.647 250.201 325.999C180.731 340.604 115.429 366.349 56.1418 402.488C-3.02714 438.548 -54.7659 484.095 -97.7371 537.831C-135.283 584.716 -169.684 636.602 -202.905 696.478C-235.812 755.764 -264.079 816.94 -285.034 863.59L-284.601 863.787Z" fill="url(#paint1_linear_361_4006)" fill-opacity="0.08"/>
<path d="M-284.485 842.608C-223.193 735.058 -158.166 643.177 -79.7327 553.539C5.62032 455.476 126.514 384.892 269.817 349.344C431.874 309.15 578.205 313.087 717.223 361.311C802.143 390.758 883.84 432.88 962.824 473.546C1010.55 498.15 1059.89 523.541 1109.43 545.941C1141.08 560.231 1182.36 576.923 1221.2 579.403C1224.58 579.599 1227.93 579.718 1231.19 579.718C1267.12 579.718 1296.18 566.687 1319.77 540.036C1344.14 512.519 1361.79 479.451 1378.89 447.485C1383.65 438.588 1388.57 429.376 1393.56 420.44C1409.91 391.112 1426.15 358.949 1443.37 324.858C1456.23 299.348 1469.56 273.012 1483.36 247.03C1553.14 115.545 1647.02 34.3318 1797.25 -24.4426C1939.53 -80.1464 2171.41 -77.627 2314.16 -18.8525C2561.49 82.9891 2605.01 155.109 2647.12 224.827C2658.87 244.274 2669.96 262.659 2685.37 281.673C2719.85 324.189 2710.89 370.681 2701.41 419.928C2697.8 438.706 2694.06 458.114 2692.57 477.876L2693.08 477.915C2694.53 458.153 2698.27 438.746 2701.89 420.007C2711.4 370.641 2720.4 324.031 2685.77 281.318C2670.39 262.383 2659.31 243.999 2647.55 224.552C2626.79 190.145 2605.33 154.597 2558.15 114.955C2532.67 93.5394 2502.2 72.99 2464.97 52.0469C2422.98 28.4662 2373.72 5.08244 2314.36 -19.3643C2279.37 -33.7725 2238.64 -45.0707 2193.23 -52.9834C2149.39 -60.6206 2103.08 -64.7147 2055.59 -65.2658C2008.09 -65.7776 1961.82 -62.6676 1918.02 -56.0147C1872.65 -49.1255 1831.96 -38.6934 1797.05 -24.9938C1760.49 -10.6643 1728.25 4.49188 1698.49 21.4196C1667.39 39.1345 1639.87 58.2274 1614.31 79.879C1561.91 124.245 1518.9 178.847 1482.8 246.794C1469.01 272.776 1455.72 299.151 1442.82 324.622C1425.64 358.674 1409.36 390.876 1393.05 420.164C1388.06 429.101 1383.14 438.313 1378.38 447.209C1361.32 479.175 1343.63 512.204 1319.33 539.642C1263.51 602.708 1185.54 579.678 1109.63 545.39C1060.13 523.03 1010.79 497.599 963.06 473.034C884.037 432.329 802.34 390.246 717.38 360.76C680.856 348.084 643.271 338.36 605.725 331.826C569.32 325.488 531.774 321.984 494.11 321.393C457.783 320.803 420.119 322.929 382.219 327.653C345.853 332.18 307.992 339.305 269.7 348.793C199.758 366.153 134.534 392.135 75.8764 425.991C15.4099 460.909 -37.0364 503.7 -80.0865 553.145C-158.52 642.822 -223.586 734.704 -284.878 842.293L-284.485 842.608Z" fill="url(#paint2_linear_361_4006)" fill-opacity="0.08"/>
<path d="M-284.327 821.429C-222.288 735.924 -150.695 661.324 -67.7798 574.954L-62.0401 568.97C21.583 481.222 139.803 415.046 289.358 372.255C367.28 349.934 454.363 330.093 547.146 330.093C608.124 330.093 671.539 338.675 736.527 360.76C824.829 390.757 909.317 435.95 991.053 479.687C1034.81 503.07 1080.02 527.281 1125.24 548.815C1156.33 563.616 1196.91 581.095 1235.28 584.953C1275.18 588.969 1307.11 578.103 1332.9 551.649C1356.25 527.675 1373.82 498.779 1390.81 470.79C1396.51 461.421 1402.37 451.736 1408.42 442.288C1432.36 404.969 1456.11 359.067 1481.27 310.449C1488.07 297.34 1495.07 283.759 1502.11 270.374C1571.74 137.708 1666.64 51.5348 1809.87 -8.97174C1948.1 -67.3525 2174.04 -67.3525 2313.49 -8.9717C2552.37 91.0197 2595.3 162.037 2636.82 230.693C2648.26 249.628 2659.11 267.54 2673.89 286.082C2708.41 329.306 2700.86 376.585 2692.88 426.621C2689.9 445.477 2686.79 464.924 2685.85 484.726L2686.44 484.765C2687.38 465.003 2690.49 445.517 2693.47 426.699C2701.49 376.546 2709.04 329.188 2674.37 285.727C2659.58 267.186 2648.77 249.313 2637.33 230.378C2616.81 196.404 2595.58 161.329 2549.7 122.356C2524.93 101.334 2495.36 81.1386 2459.31 60.5498C2418.7 37.4022 2371.09 14.4515 2313.73 -9.5622C2245.83 -37.9849 2156.23 -53.6529 2061.37 -53.6529C2061.17 -53.6529 2061.01 -53.6529 2060.82 -53.6529C2014.66 -53.6135 1969.64 -49.9131 1927.07 -42.5515C1883.07 -34.9931 1843.56 -23.8917 1809.63 -9.56224C1738.16 20.632 1679.7 56.5344 1630.83 100.231C1579.87 145.818 1537.61 201.325 1501.56 270.02C1494.52 283.404 1487.52 296.986 1480.72 310.095C1455.56 358.713 1431.81 404.614 1407.91 441.895C1401.86 451.343 1395.96 461.027 1390.3 470.396C1372.57 499.646 1355.78 527.242 1332.46 551.177C1276.52 608.534 1199.93 583.654 1125.51 548.185C1080.3 526.651 1035.09 502.48 991.328 479.057C909.592 435.32 825.065 390.127 736.724 360.091C665.052 335.762 591.612 325.999 512.117 330.251C446.186 333.794 375.34 346.942 289.201 371.586C218.158 391.899 153.013 418.117 95.6525 449.492C33.7314 483.348 -19.462 523.344 -62.4332 568.458L-68.1732 574.442C-151.088 660.813 -222.721 735.412 -284.76 820.956L-284.327 821.429Z" fill="url(#paint3_linear_361_4006)" fill-opacity="0.08"/>
<path d="M-284.247 800.289C-244.382 757.615 -200.074 720.099 -153.171 680.378C-117.906 650.499 -81.4603 619.635 -44.3863 584.481C35.9343 508.267 151.52 446.343 308.899 395.245C409.624 362.531 504.412 335.368 601.638 335.368C652.001 335.368 703.032 342.651 755.871 360.248C847.161 390.639 934.126 438.942 1018.18 485.631C1058.32 507.913 1099.8 530.981 1141.12 551.728C1171.63 567.041 1211.53 585.268 1249.39 590.543C1256.82 591.567 1263.98 592.079 1270.86 592.079C1300.38 592.079 1325.11 582.591 1346.03 563.301C1368.56 542.555 1385.27 518.424 1402.92 492.914C1409.44 483.466 1416.25 473.703 1423.28 464.137C1454.19 422.408 1484.34 364.185 1516.3 302.537L1520.9 293.679C1591.32 157.982 1684.3 69.4073 1822.45 6.53877C1958.91 -55.5818 2174.32 -58.0225 2312.83 0.909387C2543.25 98.9718 2585.59 168.966 2626.56 236.598C2637.21 254.234 2648.26 272.421 2662.45 290.53C2696.97 334.503 2690.88 382.53 2684.47 433.392C2682.07 452.288 2679.6 471.853 2679.16 491.654L2679.79 491.654C2680.22 471.853 2682.7 452.327 2685.1 433.431C2691.55 382.451 2697.68 334.306 2662.97 290.097C2648.77 272.028 2637.76 253.801 2627.11 236.204C2586.1 168.454 2543.68 98.3813 2313.14 0.240148C2246.3 -28.222 2158.55 -43.2207 2066.05 -42.0397C2021.19 -41.4492 1977.51 -37.1188 1936.15 -29.1274C1893.49 -20.8998 1855.2 -9.12915 1822.25 5.86955C1752.94 37.4022 1695.74 74.958 1647.42 120.623C1597.96 167.352 1556.44 223.803 1520.39 293.286L1515.79 302.143C1483.87 363.752 1453.67 421.936 1422.85 463.625C1415.77 473.152 1409.01 482.954 1402.49 492.402C1384.83 517.912 1368.16 541.965 1345.68 562.672C1320.04 586.292 1288.59 595.149 1249.51 589.717C1211.73 584.481 1171.9 566.254 1141.43 550.98C1100.11 530.233 1058.64 507.204 1018.5 484.922C934.401 438.194 847.397 389.891 756.068 359.5C718.286 346.942 680.74 339.305 641.386 336.195C605.649 333.361 569.243 334.384 530.124 339.226C453.499 348.753 375.656 372.767 308.663 394.497C234.475 418.59 171.257 444.335 115.429 473.152C84.5671 489.095 55.7885 506.18 29.8798 523.895C2.39863 542.713 -22.763 562.908 -44.8582 583.89C-81.8929 619.045 -118.338 649.908 -153.604 679.787C-200.506 719.508 -244.815 757.064 -284.719 799.738L-284.247 800.289Z" fill="url(#paint4_linear_361_4006)" fill-opacity="0.08"/>
<path d="M-284.131 779.109C-249.377 750.844 -211.516 727.027 -171.415 701.793C-123.844 671.835 -74.6212 640.893 -26.7354 599.912C67.1489 519.565 199.444 465.042 328.397 418.117C335.749 415.44 343.062 412.763 350.335 410.086C449.448 373.829 544.709 338.99 645.473 338.99C687.501 338.99 730.512 345.052 775.134 359.579C869.137 390.206 958.185 441.619 1044.32 491.339C1081.12 512.597 1119.18 534.524 1156.96 554.483C1186.92 570.308 1226.12 589.283 1263.51 595.975C1273.1 597.668 1282.26 598.534 1290.95 598.534C1317.33 598.534 1339.82 590.7 1359.2 574.836C1381.1 556.924 1397.77 535.981 1415.38 513.817C1422.65 504.645 1430.2 495.157 1438.18 485.906C1472.31 446.185 1505.69 383.317 1539.73 316.945C1610.97 178.098 1702.03 87.1219 1835.07 22.0095C1905.6 -12.5151 1998.07 -30.0332 2089.44 -30.0332C2169.64 -30.0332 2249.02 -16.5304 2312.16 10.79C2534.09 106.884 2575.88 175.854 2616.3 242.542C2626.68 259.666 2637.41 277.381 2651.01 295.017C2685.53 339.738 2680.93 388.553 2676.06 440.202C2674.25 459.176 2672.4 478.781 2672.48 498.622L2673.19 498.622C2673.11 478.82 2674.96 459.216 2676.76 440.28C2681.68 388.474 2686.32 339.58 2651.6 294.624C2638 276.987 2627.27 259.312 2616.93 242.227C2576.47 175.461 2534.6 106.372 2312.55 10.1995C2246.93 -18.2232 2161.23 -32.5921 2071.27 -30.2301C2027.75 -29.0884 1985.33 -24.1282 1945.19 -15.5069C1903.91 -6.61008 1866.76 5.8298 1834.87 21.419C1701.67 86.6102 1610.5 177.665 1539.18 316.669C1505.18 383.002 1471.8 445.831 1437.75 485.513C1429.77 494.803 1422.22 504.29 1414.95 513.463C1397.33 535.626 1380.7 556.53 1358.84 574.363C1333.21 595.306 1302.07 602.156 1263.7 595.346C1226.39 588.693 1187.27 569.718 1157.36 553.932C1119.57 534.012 1081.56 512.046 1044.76 490.788C958.578 441.068 869.49 389.615 775.449 358.988C738.846 347.06 702.677 340.446 664.816 338.714C630.887 337.179 596.251 339.659 558.941 346.273C489.314 358.594 421.731 383.317 350.178 409.495C342.905 412.172 335.553 414.849 328.24 417.526C273.081 437.603 201.292 464.766 135.321 496.85C68.8786 529.17 15.7248 562.75 -27.1287 599.4C-74.9752 640.342 -124.158 671.284 -171.69 701.242C-211.792 726.476 -249.691 750.332 -284.485 778.637L-284.131 779.109Z" fill="url(#paint5_linear_361_4006)" fill-opacity="0.08"/>
<path d="M-284.051 757.969C-250.948 738.247 -215.093 722.658 -177.154 706.202C-120.972 681.795 -62.8257 656.561 -9.12139 615.383C76.4282 549.838 189.97 504.369 310.156 456.224C322.501 451.264 335.279 446.146 347.899 441.068C366.809 433.431 385.68 425.518 403.962 417.842C496.745 378.869 585.833 341.431 682.312 341.431C718.482 341.431 755.635 346.667 794.478 359.067C890.918 389.852 981.854 444.375 1069.76 497.087C1103.49 517.321 1138.33 538.225 1172.85 557.357C1202.25 573.655 1240.7 593.417 1277.7 601.487C1315.64 609.793 1346.62 604.873 1372.41 586.488C1393.88 571.175 1410.62 553.027 1428.35 533.855C1436.26 525.313 1444.43 516.455 1453.12 507.755C1489.57 471.42 1525.34 405.795 1558.61 340.25C1630.71 198.097 1719.88 104.719 1847.77 37.5203C1976.17 -29.9541 2179.9 -37.355 2311.57 20.7108C2524.93 114.758 2566.17 182.744 2606.04 248.526C2616.1 265.138 2626.52 282.302 2639.57 299.506C2674.13 345.013 2670.99 394.537 2667.64 447.012C2666.42 466.027 2665.21 485.71 2665.76 505.551L2666.54 505.511C2665.99 485.71 2667.21 466.027 2668.43 447.052C2671.77 394.458 2674.92 344.777 2640.2 299.033C2627.19 281.869 2616.77 264.745 2606.71 248.132C2586.85 215.379 2566.33 181.524 2524.3 144.519C2501.66 124.599 2474.88 105.467 2442.37 86.0595C2405.84 64.2504 2363.15 42.638 2311.88 20.0416C2247.44 -8.3418 2163.86 -22.0808 2076.42 -18.5772C2034.24 -16.8844 1993.12 -11.2943 1954.15 -2.00379C1914.21 7.52294 1878.28 20.632 1847.37 36.8905C1719.36 104.168 1630.08 197.625 1557.9 339.935C1524.68 405.402 1488.94 470.987 1452.57 507.243C1443.84 515.943 1435.67 524.801 1427.76 533.343C1410.07 552.515 1393.36 570.584 1371.94 585.859C1346.34 604.125 1315.56 609.006 1277.82 600.739C1240.94 592.669 1202.53 572.946 1173.16 556.688C1138.68 537.556 1103.81 516.652 1070.12 496.417C982.168 443.666 891.233 389.104 794.675 358.319C651.961 312.772 531.342 363.437 403.647 417.094C385.405 424.77 366.495 432.683 347.623 440.32C335.003 445.398 322.226 450.516 309.881 455.476C189.655 503.622 76.0744 549.129 -9.59307 614.754C-63.2581 655.852 -121.326 681.086 -177.468 705.494C-215.447 721.988 -251.302 737.578 -284.444 757.34L-284.051 757.969Z" fill="url(#paint6_linear_361_4006)" fill-opacity="0.08"/>
<path d="M-283.974 736.83C-251.185 723.406 -215.801 714.036 -178.295 704.155C-114.801 687.385 -49.1448 670.064 8.56977 630.815C76.8205 584.402 162.96 549.09 254.132 511.692C291.206 496.496 329.498 480.789 367.477 463.94C393.779 452.287 419.766 439.729 444.849 427.565C534.094 384.419 619.643 343.045 714.668 343.045C746.513 343.045 779.38 347.69 813.821 358.437C912.54 389.301 1005.09 446.973 1094.57 502.755C1125.39 521.966 1157.28 541.847 1188.73 560.152C1217.55 576.922 1255.29 597.393 1291.89 606.92C1329.2 616.604 1359.87 613.691 1385.62 598.023C1406.97 585.032 1423.95 569.403 1441.92 552.869C1450.25 545.193 1458.86 537.28 1468.1 529.485C1508.01 495.788 1545.83 426.62 1577.52 363.437C1650.56 217.82 1737.84 122.08 1860.47 52.9126C1984.86 -17.2388 2182.77 -27.0804 2311.02 30.513C2515.85 122.474 2556.54 189.554 2595.89 254.431C2605.64 270.532 2615.75 287.184 2628.21 303.875C2662.73 350.17 2661.12 400.481 2659.35 453.705C2658.72 472.758 2658.09 492.481 2659.15 512.361L2659.98 512.322C2658.91 492.481 2659.58 472.798 2660.17 453.744C2661.9 400.324 2663.55 349.895 2628.84 303.363C2616.42 286.711 2606.31 270.059 2596.56 253.998C2576.9 221.599 2556.62 188.137 2515.89 151.762C2493.95 132.197 2468.08 113.419 2436.78 94.3657C2401.6 72.9896 2360.59 51.8497 2311.33 29.7257C2248.11 1.34229 2166.57 -11.6881 2081.69 -7.04282C2040.84 -4.79893 2001.02 1.42101 1963.27 11.3808C1924.71 21.5767 1889.95 35.3157 1860.03 52.1646C1737.25 121.371 1649.89 217.268 1576.77 363.043C1545.12 426.148 1507.38 495.197 1467.55 528.816C1458.31 536.611 1449.7 544.524 1441.37 552.2C1423.44 568.695 1406.46 584.284 1385.19 597.236C1359.63 612.785 1329.2 615.698 1292.13 606.054C1255.64 596.566 1217.94 576.135 1189.16 559.365C1157.71 541.059 1125.86 521.179 1095.04 501.968C1005.52 446.146 912.934 388.435 814.096 357.571C779.577 346.785 746.592 342.139 714.668 342.139C619.486 342.139 533.858 383.553 444.534 426.738C419.412 438.863 393.464 451.421 367.162 463.113C329.223 479.962 290.891 495.669 253.817 510.865C162.606 548.263 76.4274 583.615 8.09809 630.067C-49.4986 669.198 -115.076 686.519 -178.491 703.289C-215.998 713.21 -251.421 722.539 -284.249 736.003L-283.974 736.83Z" fill="url(#paint7_linear_361_4006)" fill-opacity="0.08"/>
<path d="M-283.894 715.651C-250.791 707.423 -215.053 703.29 -177.272 698.959C-107.094 690.889 -34.5582 682.504 26.2228 646.287C81.9716 613.061 149.436 586.213 220.832 557.79C275.205 536.178 331.426 513.818 387.017 486.891C418.391 471.695 449.056 454.768 478.7 438.391C565.704 390.325 649.013 344.266 743.958 344.266C772.501 344.266 802.066 348.399 833.125 357.926C933.929 388.789 1027.89 449.65 1118.79 508.543C1146.9 526.77 1175.95 545.587 1204.57 563.066C1246.48 588.693 1277.82 603.928 1306.09 612.471C1342.77 623.572 1373.08 622.667 1398.75 609.676C1420.3 598.771 1437.79 585.387 1456.31 571.215C1464.8 564.719 1473.57 558.027 1482.96 551.374C1501.95 537.95 1521.3 516.022 1542.09 484.293C1558.53 459.256 1575.75 428.274 1596.35 386.782C1670.42 237.543 1755.77 139.362 1873.09 68.4628C1993.55 -4.32612 2185.6 -16.6085 2310.35 40.4338C2506.65 130.229 2546.83 196.444 2585.63 260.454C2595.07 276.043 2604.86 292.144 2616.73 308.324C2651.25 355.407 2651.13 406.465 2650.97 460.516C2650.93 479.648 2650.86 499.41 2652.43 519.29L2653.33 519.211C2651.8 499.37 2651.84 479.608 2651.92 460.516C2652.04 406.308 2652.19 355.092 2617.48 307.773C2605.64 291.633 2595.89 275.532 2586.42 259.982C2567 227.937 2546.91 194.83 2507.47 159.085C2486.24 139.835 2461.28 121.45 2431.16 102.791C2397.35 81.8476 2357.96 61.18 2310.74 39.6071C2248.74 11.2631 2169.29 -1.13741 2086.92 4.72821C2006.44 10.4364 1930.37 32.7966 1872.65 67.6755C1811.6 104.562 1759.58 148.653 1713.62 202.467C1670.57 252.896 1631.93 313.048 1595.56 386.349C1563.68 450.595 1525.31 520.353 1482.49 550.586C1473.1 557.239 1464.33 563.932 1455.84 570.467C1437.36 584.599 1419.9 597.984 1398.44 608.81C1372.96 621.683 1342.88 622.588 1306.44 611.526C1278.21 602.983 1246.99 587.788 1205.12 562.2C1176.54 544.721 1147.49 525.903 1119.38 507.677C1028.44 448.745 934.44 387.845 833.479 356.942C698.707 315.685 591.652 374.853 478.346 437.486C448.702 453.862 418.037 470.79 386.703 485.986C331.111 512.873 274.93 535.233 220.597 556.846C149.122 585.268 81.6572 612.116 25.8298 645.381C-34.7547 681.52 -107.212 689.866 -177.311 697.936C-215.132 702.305 -250.869 706.399 -284.051 714.667L-283.894 715.651Z" fill="url(#paint8_linear_361_4006)" fill-opacity="0.08"/>
<path d="M-283.856 694.51C-250.044 690.889 -213.639 691.44 -175.071 692.03C-160.76 692.266 -146.371 692.463 -131.982 692.463C-69.5494 692.463 -7.6673 688.29 43.8354 661.757C89.7553 638.098 143.42 618.139 200.231 597.039C267.852 571.923 337.794 545.941 406.556 509.841C441.586 491.457 475.475 470.239 508.264 449.728C616.891 381.742 719.543 317.535 852.467 357.374C955.237 388.159 1050.5 452.327 1142.61 514.369C1168.13 531.572 1194.55 549.326 1220.46 565.939C1261.5 592.236 1292.32 608.297 1320.36 618.021C1356.41 630.54 1386.37 631.603 1411.92 621.328C1434.25 612.352 1452.65 600.936 1472.15 588.811C1480.33 583.733 1488.82 578.458 1497.82 573.222C1518.03 561.491 1538.28 540.469 1559.71 508.857C1576.73 483.781 1594.34 452.406 1615.14 410.086C1690.31 256.989 1773.78 156.408 1885.71 83.973C2004.16 7.32608 2186.43 -7.12146 2309.68 50.3539C2497.45 137.984 2537.08 203.372 2575.41 266.595C2584.53 281.633 2593.97 297.222 2605.25 312.851C2639.77 360.721 2641.14 412.567 2642.64 467.444C2643.15 486.615 2643.7 506.417 2645.7 526.297L2646.65 526.218C2644.64 506.377 2644.09 486.576 2643.58 467.444C2642.09 412.409 2640.71 360.445 2606 312.339C2594.75 296.71 2585.32 281.161 2576.2 266.162C2556.97 234.432 2537.12 201.64 2498.94 166.525C2478.42 147.629 2454.36 129.56 2425.42 111.333C2392.95 90.8622 2355.21 70.6671 2310.03 49.6059C2278.93 35.0796 2243.79 24.923 2205.57 19.3723C2169.09 14.0972 2130.91 13.1524 2092.07 16.5773C2014.5 23.427 1941.02 47.1258 1885.16 83.2644C1826.1 121.489 1775.39 167.233 1730.1 223.134C1688.74 274.153 1650.88 335.211 1614.27 409.771C1593.52 452.051 1575.94 483.387 1558.92 508.424C1537.53 539.878 1517.4 560.861 1497.35 572.474C1488.31 577.71 1479.86 582.985 1471.64 588.063C1452.18 600.149 1433.82 611.526 1411.57 620.501C1386.21 630.697 1356.49 629.595 1320.67 617.155C1292.68 607.471 1261.93 591.409 1220.97 565.191C1195.06 548.578 1168.68 530.824 1143.12 513.621C1050.97 451.539 955.63 387.372 852.742 356.508C820.661 346.903 789.602 343.005 757.797 344.58C729.372 345.997 700.908 351.824 670.792 362.374C614.768 382.018 562.794 414.535 507.753 448.981C475.003 469.491 441.114 490.67 406.123 509.054C337.401 545.114 267.499 571.096 199.916 596.212C143.067 617.352 89.3623 637.271 43.4028 660.97C-19.6978 693.526 -98.6817 692.306 -175.032 691.125C-213.639 690.534 -250.084 689.983 -283.934 693.605L-283.856 694.51Z" fill="url(#paint9_linear_361_4006)" fill-opacity="0.08"/>
<path d="M-42.4615 695.416C-4.95489 695.416 30.468 690.771 61.4875 677.189C99.2692 660.655 142.083 646.287 187.453 631.052C262.269 605.936 347.033 577.513 426.095 532.714C463.838 511.338 500.008 485.946 534.998 461.381C640.126 387.608 739.397 317.929 871.771 356.745C976.388 387.451 1072.79 454.925 1165.97 520.156C1189.04 536.296 1212.91 553.027 1236.26 568.695C1287.76 603.259 1345.6 636.839 1396.43 636.839C1406.26 636.839 1415.81 635.579 1425.01 632.823C1449.11 625.619 1469.24 615.856 1490.59 605.542C1497.67 602.117 1504.98 598.574 1512.68 594.992C1534.11 585.032 1555.3 564.876 1577.44 533.383C1594.97 508.425 1612.94 476.656 1633.97 433.313C1711.42 273.957 1790.48 174.123 1898.33 99.405C2012.81 20.1205 2189.38 3.27162 2309.01 60.1958C2488.29 145.503 2525.68 207.27 2565.23 272.618C2573.99 287.105 2583.08 302.104 2593.77 317.221C2628.25 365.917 2631.2 418.511 2634.3 474.215C2635.36 493.426 2636.51 513.267 2638.94 533.108L2639.96 532.99C2637.49 513.149 2636.39 493.308 2635.33 474.136C2632.22 418.314 2629.27 365.563 2594.6 316.63C2583.94 301.553 2574.86 286.594 2566.09 272.107C2547.06 240.692 2527.41 208.215 2490.53 173.69C2470.71 155.188 2447.56 137.473 2419.8 119.6C2388.7 99.5625 2352.61 79.8792 2309.44 59.3298C2278.9 44.8035 2244.53 34.8043 2207.34 29.6079C2171.92 24.6871 2134.88 24.2147 2097.26 28.2301C2022.6 36.2215 1951.72 61.2193 1897.7 98.6177C1840.61 138.142 1791.19 185.579 1746.61 243.566C1706.51 295.727 1670.42 355.879 1632.99 432.919C1611.96 476.183 1594.03 507.952 1576.53 532.832C1554.52 564.168 1533.48 584.245 1512.21 594.087C1504.51 597.669 1497.19 601.212 1490.12 604.637C1468.81 614.951 1448.72 624.714 1424.7 631.879C1368.28 648.688 1298.06 608.967 1236.81 567.868C1213.42 552.161 1189.59 535.47 1166.52 519.329C1073.26 454.02 976.781 386.506 872.007 355.761C840.043 346.391 809.26 342.966 777.886 345.368C749.855 347.494 721.941 354.265 692.533 366.035C637.807 387.923 587.562 423.196 534.408 460.515C499.457 485.041 463.287 510.432 425.584 531.808C346.6 576.529 261.876 604.991 187.099 630.068C141.73 645.303 98.8762 659.671 61.0551 676.245C-4.24713 704.825 -89.5215 693.684 -172.004 682.937C-211.634 677.78 -249.023 672.859 -283.777 672.308L-283.777 673.332C-249.062 673.922 -211.673 678.803 -172.123 683.961C-128.561 689.629 -84.2532 695.416 -42.4615 695.416Z" fill="url(#paint10_linear_361_4006)" fill-opacity="0.08"/>
<path d="M7.98041 703.643C33.5351 703.643 57.5566 700.494 79.1013 692.66C109.846 681.519 143.814 671.56 179.787 661.049C263.45 636.563 358.238 608.848 445.635 555.625C485.462 531.375 523.243 501.889 559.806 473.348C662.065 393.513 758.623 318.126 891.075 356.193C997.462 386.742 1094.84 457.641 1189.04 526.178C1209.76 541.256 1231.19 556.845 1252.14 571.568C1290.87 598.771 1321.61 617.037 1348.9 629.004C1383.77 644.318 1412.98 649.396 1438.18 644.475C1466.14 639.043 1488.78 630.854 1515 621.367C1519.09 619.871 1523.3 618.375 1527.59 616.84C1550.31 608.73 1572.4 589.48 1595.21 558.026C1613.14 533.265 1631.46 501.063 1652.8 456.618C1731.59 292.813 1808.81 190.617 1910.99 114.915C2021.5 33.0717 2192.32 13.7821 2308.34 70.1552C2479.09 153.101 2516.01 214.198 2555.08 278.877C2563.5 292.813 2572.23 307.221 2582.33 321.748C2616.77 371.271 2621.29 424.652 2626.05 481.143C2627.66 500.354 2629.35 520.234 2632.26 540.075L2633.32 539.918C2630.41 520.077 2628.72 500.236 2627.11 481.025C2622.31 424.376 2617.83 370.838 2583.19 321.078C2573.09 306.591 2564.4 292.183 2555.99 278.247C2537.16 247.108 2517.7 214.906 2482.08 180.933C2462.93 162.667 2440.68 145.306 2414.14 127.867C2384.38 108.301 2349.94 89.0905 2308.81 69.0923C2278.82 54.5266 2245.28 44.6849 2209.11 39.8428C2174.75 35.2369 2138.9 35.2763 2102.49 39.8822C2030.74 48.9759 1962.49 75.3122 1910.32 113.97C1855.2 154.793 1807.12 203.884 1763.24 264.036C1725.07 316.354 1689.68 377.373 1651.82 456.067C1630.47 500.433 1612.19 532.595 1594.3 557.318C1571.66 588.575 1549.68 607.707 1527.19 615.738C1522.91 617.273 1518.7 618.769 1514.61 620.265C1488.43 629.713 1465.78 637.901 1437.95 643.334C1412.94 648.215 1383.97 643.176 1349.29 627.941C1322.09 615.974 1291.42 597.747 1252.73 570.584C1231.78 555.861 1210.35 540.272 1189.67 525.194C1095.4 456.578 997.933 385.639 891.389 355.052C859.387 345.84 828.721 342.927 797.623 346.155C769.827 349.028 742.268 356.744 713.41 369.735C659.667 393.946 610.877 432.053 559.177 472.404C522.654 500.944 484.872 530.43 445.085 554.601C357.806 607.707 263.057 635.421 179.473 659.907C143.499 670.418 109.531 680.378 78.7475 691.518C11.4401 715.926 -80.0066 694.628 -168.426 674C-209.235 664.473 -247.764 655.498 -283.58 650.931L-283.698 651.994C-247.961 656.561 -209.432 665.536 -168.662 675.024C-108.353 689.235 -46.6282 703.643 7.98041 703.643Z" fill="url(#paint11_linear_361_4006)" fill-opacity="0.08"/>
<path d="M47.4128 714.43C64.9865 714.43 81.4987 712.501 96.7138 708.092C121.246 701.006 147.627 694.55 175.58 687.7C267.066 665.34 370.779 639.988 465.135 578.536C506.534 551.57 545.534 517.99 583.198 485.513C665.878 414.259 744.822 346.273 845.036 346.273C865.834 346.273 887.536 349.186 910.378 355.603C1018.45 385.994 1116.74 460.358 1211.81 532.32C1230.24 546.295 1249.31 560.703 1267.99 574.403C1305.89 602.275 1336.12 621.367 1363.21 634.595C1393.28 649.278 1419.19 656.482 1441.96 656.482C1445.14 656.482 1448.25 656.325 1451.31 656.049C1485.16 652.939 1512.61 646.326 1542.45 638.649C1566.47 632.469 1589.55 614.163 1613.02 582.709C1631.3 558.184 1649.93 525.51 1671.67 479.884C1731.16 354.934 1802.87 226.126 1923.64 130.386C2016.59 56.7313 2178.33 15.7506 2307.75 79.997C2469.93 160.502 2506.41 221.008 2545.02 285.058C2553.08 298.403 2561.41 312.221 2570.93 326.157C2605.37 376.546 2611.42 430.715 2617.87 488.033C2620.03 507.243 2622.27 527.124 2625.65 547.004L2626.79 546.807C2623.41 527.006 2621.17 507.125 2619.05 487.914C2612.6 430.439 2606.51 376.152 2571.91 325.527C2562.44 311.63 2554.1 297.813 2546.04 284.468C2526.54 252.147 2508.14 221.599 2473.78 188.216C2455.3 170.265 2433.99 153.258 2408.6 136.173C2380.17 117.08 2347.38 98.3419 2308.3 78.9341C2278.86 64.3291 2246.11 54.6449 2211 50.1571C2177.7 45.9055 2143.02 46.4173 2107.84 51.653C2038.99 61.8884 1973.38 89.5237 1922.98 129.442C1869.82 171.564 1823.04 222.347 1779.91 284.625C1743.78 336.786 1709.1 398.67 1670.69 479.332C1648.99 524.88 1630.39 557.475 1612.15 581.961C1588.84 613.179 1565.96 631.327 1542.21 637.468C1512.41 645.145 1485.01 651.758 1451.23 654.868C1426.47 657.152 1397.84 650.144 1363.76 633.492C1336.75 620.304 1306.56 601.212 1268.73 573.419C1250.1 559.719 1231.03 545.272 1212.59 531.336C1117.45 459.334 1019.08 384.892 910.81 354.461C878.65 345.407 847.985 342.966 817.044 346.982C789.405 350.564 762.121 359.225 733.617 373.515C680.66 400.087 633.01 441.147 582.569 484.607C544.905 517.046 505.983 550.625 464.624 577.552C370.425 638.885 266.83 664.238 175.422 686.558C147.469 693.408 121.05 699.864 96.4777 706.95C27.2834 726.988 -70.2178 695.337 -164.495 664.71C-206.602 651.05 -246.389 638.137 -283.345 629.752L-283.581 630.855C-246.703 639.2 -206.956 652.113 -164.849 665.773C-91.1336 689.826 -15.334 714.43 47.4128 714.43Z" fill="url(#paint12_linear_361_4006)" fill-opacity="0.08"/>
<path d="M81.1059 726.909C92.7824 726.909 103.909 725.846 114.327 723.563C133.159 719.429 152.935 715.611 173.889 711.595C221.146 702.502 274.693 692.188 327.768 675.693C388.667 656.758 439.974 632.468 484.635 601.448C527.292 571.844 567.079 534.249 605.529 497.874C703.345 405.441 795.696 318.165 929.643 355.012C1039.33 385.206 1138.44 463.192 1234.29 538.579C1250.57 551.373 1267.36 564.6 1283.75 577.198C1311.35 598.416 1345.71 624.792 1377.6 642.94C1407.48 659.907 1432.76 668.253 1454.42 668.253C1457.84 668.253 1461.14 668.056 1464.41 667.623C1479.31 665.733 1493.3 665.182 1506.83 664.631C1522.87 664.001 1539.42 663.371 1557.23 660.419C1582.55 656.246 1606.61 638.885 1630.75 607.431C1649.62 582.827 1668.06 550.665 1690.43 503.149C1760.61 354.264 1829.25 236.519 1936.23 145.818C2025.75 69.8796 2181.87 26.3007 2307.04 89.8385C2460.69 167.863 2496.74 227.819 2534.91 291.317C2542.58 304.072 2550.52 317.26 2559.41 330.566C2593.81 381.821 2601.48 436.777 2609.61 494.961C2612.29 514.172 2615.08 534.052 2618.89 553.893L2620.07 553.657C2616.26 533.895 2613.51 514.014 2610.79 494.803C2602.65 436.501 2594.95 381.388 2560.39 329.896C2551.51 316.63 2543.56 303.442 2535.9 290.727C2516.59 258.603 2498.39 228.291 2465.25 195.42C2447.44 177.784 2427.03 161.092 2402.82 144.401C2375.73 125.741 2344.55 107.554 2307.52 88.7363C2278.62 74.0525 2246.7 64.5651 2212.61 60.4316C2180.37 56.5343 2146.84 57.5578 2112.91 63.3841C2047.02 74.7217 1983.99 103.656 1935.4 144.873C1884.21 188.295 1838.72 240.731 1796.38 305.213C1752.39 372.216 1716.06 445.871 1689.33 502.559C1655.28 574.796 1612.9 649.908 1557.03 659.159C1539.34 662.072 1522.79 662.741 1506.79 663.371C1493.22 663.883 1479.23 664.434 1464.25 666.363C1410.74 673.174 1343.67 621.643 1284.5 576.174C1268.11 563.577 1251.28 550.35 1235.04 537.556C1139.11 462.09 1039.92 384.026 929.996 353.753C897.601 344.856 866.856 342.848 835.955 347.651C808.355 351.942 781.268 361.626 753.079 377.215C700.711 406.189 654.083 450.24 604.743 496.89C566.293 533.225 526.545 570.781 483.967 600.345C383.91 669.827 272.177 691.322 173.654 710.296C152.698 714.312 132.884 718.13 114.052 722.264C43.0883 737.814 -60.4283 695.691 -160.564 654.947C-204.046 637.232 -245.13 620.501 -283.305 608.494L-283.659 609.636C-245.563 621.643 -204.479 638.373 -161.035 656.049C-75.3287 691.046 12.7763 726.909 81.1059 726.909Z" fill="url(#paint13_linear_361_4006)" fill-opacity="0.08"/>
<path d="M111.222 740.49C118.417 740.49 125.336 740.018 131.98 738.994C145.466 736.947 159.344 735.057 174.048 733.05C224.135 726.161 280.867 718.405 337.559 702.698C402.783 684.629 457.313 659.001 504.255 624.359C547.894 592.157 588.192 550.585 627.232 510.431C723.239 411.503 813.939 318.086 949.065 354.461C1060.33 384.419 1160.19 466.105 1256.71 545.113C1270.82 556.687 1285.44 568.655 1299.72 580.071C1352.99 622.863 1421.32 672.78 1477.54 679.275C1485.36 680.181 1493.03 681.401 1500.46 682.543C1524.87 686.401 1547.95 690.022 1572.33 682.267C1598.63 673.882 1623.99 655.458 1647.69 627.469C1669.2 602.077 1689.96 568.104 1709.38 526.493C1769.88 396.819 1838.25 261.831 1948.96 161.367C2035.1 83.185 2185.56 36.9292 2306.46 99.7978C2451.57 175.224 2487.23 234.786 2524.97 297.812C2532.24 309.937 2539.71 322.456 2548.05 335.092C2582.41 387.253 2591.69 443.036 2601.52 502.046C2604.7 521.257 2608.04 541.098 2612.25 560.86L2613.51 560.585C2609.26 540.862 2605.96 521.021 2602.77 501.81C2592.91 442.642 2583.59 386.741 2549.11 334.384C2540.81 321.786 2533.3 309.268 2526.07 297.143C2506.96 265.217 2488.92 235.062 2456.99 202.702C2439.85 185.342 2420.35 168.965 2397.31 152.707C2371.56 134.519 2342.04 116.804 2307.05 98.6561C2278.7 83.933 2247.6 74.5637 2214.54 70.8239C2183.4 67.2809 2151 68.7768 2118.33 75.233C2055.39 87.6728 1994.92 117.946 1948.14 160.422C1898.92 205.104 1854.77 259.233 1813.17 325.959C1772.64 390.993 1737.37 463.546 1708.28 525.942C1667.67 612.982 1621.78 665.143 1572.01 681.047C1547.95 688.723 1525.03 685.101 1500.73 681.283C1493.3 680.102 1485.6 678.881 1477.77 677.976C1421.87 671.559 1353.73 621.721 1300.62 579.048C1286.39 567.592 1271.76 555.624 1257.65 544.09C1161.01 465.002 1061.07 383.238 949.537 353.201C916.866 344.383 885.964 342.847 855.063 348.477C827.464 353.476 800.494 364.145 772.541 381.073C720.645 412.526 674.882 459.609 626.485 509.487C587.524 549.641 547.226 591.133 503.665 623.296C398.458 700.966 274.026 718.012 174.048 731.751C159.344 733.758 145.466 735.687 131.941 737.695C59.2477 748.678 -50.2054 695.966 -156.12 644.987C-201.057 623.335 -243.517 602.904 -282.911 587.314L-283.383 588.495C-244.029 604.085 -201.607 624.516 -156.67 646.128C-60.388 692.62 39.0397 740.49 111.222 740.49Z" fill="url(#paint14_linear_361_4006)" fill-opacity="0.08"/>
<path d="M138.86 754.938C142.516 754.938 146.094 754.781 149.553 754.505C157.967 753.797 166.459 753.128 175.462 752.419C281.612 743.955 413.75 733.444 523.793 647.349C568.18 612.628 608.832 567.16 648.186 523.187C742.621 417.645 831.827 317.969 968.328 353.95C1081.16 383.672 1181.65 469.215 1278.8 551.885C1290.87 562.16 1303.33 572.789 1315.52 582.985C1367.77 626.839 1434.92 678.764 1490.59 690.928C1498.69 692.7 1506.63 694.826 1514.3 696.833C1532.26 701.597 1549.52 706.203 1567.37 706.203C1573.86 706.203 1580.42 705.612 1587.11 704.195C1601.5 701.164 1615.53 695.062 1628.9 686.126C1641.52 677.701 1653.94 666.403 1665.86 652.625C1687.36 627.666 1707.73 594.086 1728.13 549.878C1795.24 404.693 1859.13 276.397 1961.54 176.957C2041.79 99.0113 2183.71 44.764 2305.75 109.798C2442.37 182.508 2477.63 241.715 2514.98 304.387C2521.82 315.843 2528.86 327.692 2536.53 339.581C2570.81 392.687 2581.74 449.257 2593.34 509.173C2597.03 528.344 2600.89 548.146 2605.52 567.829L2606.82 567.514C2602.18 547.87 2598.37 528.069 2594.63 508.897C2583.04 448.863 2572.07 392.175 2537.63 338.833C2529.96 326.944 2522.92 315.134 2516.08 303.679C2478.62 240.81 2443.27 181.445 2306.34 108.499C2252.2 79.6823 2188.98 72.242 2123.48 87.0044C2063.49 100.547 2005.62 132.119 1960.56 175.894C1935.48 200.262 1912.28 226.638 1889.64 256.557C1869.08 283.72 1849.46 313.205 1829.68 346.628C1791.15 411.779 1757.77 482.403 1726.91 549.208C1683.59 642.901 1639.08 691.716 1586.79 702.778C1561.95 708.053 1538.95 701.912 1514.61 695.456C1506.91 693.409 1498.96 691.322 1490.83 689.511C1435.43 677.386 1368.48 625.619 1316.35 581.843C1304.2 571.647 1291.69 561.018 1279.66 550.744C1231.66 509.881 1182.05 467.641 1130.46 432.093C1072.24 391.899 1019.32 365.878 968.643 352.533C935.618 343.832 904.52 342.73 873.54 349.147C845.901 354.894 818.971 366.547 791.254 384.813C739.712 418.747 692.651 471.302 647.164 522.124C607.849 566.057 567.197 611.447 522.928 646.129C413.2 732.027 281.298 742.499 175.305 750.923C166.302 751.632 157.849 752.301 149.396 753.01C75.0515 759.308 -40.3775 695.967 -151.993 634.673C-198.424 609.164 -242.3 585.111 -282.991 566.018L-283.541 567.238C-242.889 586.292 -199.053 610.384 -152.622 635.854C-45.9603 694.511 64.0825 754.938 138.86 754.938Z" fill="url(#paint15_linear_361_4006)" fill-opacity="0.08"/>
<path d="M164.729 769.976C165.554 769.976 166.341 769.976 167.166 769.937C170.705 769.858 174.243 769.779 177.86 769.74C232.98 768.638 295.412 767.417 358.827 754.623C432.268 739.821 492.656 712.186 543.333 670.221C588.27 633.02 629.157 583.693 668.669 536.02C761.688 423.786 849.557 317.771 987.671 353.359C1102.04 382.844 1203.08 472.325 1300.82 558.853C1310.84 567.75 1321.26 576.962 1331.36 585.819C1382.71 630.854 1448.72 684.787 1503.68 702.502C1511.86 705.139 1519.84 708.092 1527.58 710.966C1549.09 718.957 1569.57 726.555 1591.67 726.555C1595.05 726.555 1598.47 726.358 1601.93 726.004C1631.69 722.736 1658.54 706.99 1684.02 677.858C1705.25 653.569 1725.85 619.32 1746.96 573.143C1811.87 431.344 1873.16 297.458 1974.16 192.389C2051.22 112.277 2187.61 55.3532 2305.12 119.6C2433.17 189.633 2468.12 248.644 2505.11 311.079C2511.48 321.787 2518.05 332.888 2525.09 344.029C2559.33 398.119 2571.95 455.555 2585.28 516.337C2589.44 535.43 2593.81 555.153 2598.84 574.757L2600.18 574.403C2595.15 554.838 2590.82 535.115 2586.61 516.061C2573.25 455.122 2560.63 397.568 2526.27 343.281C2519.23 332.18 2512.66 321.078 2506.29 310.37C2469.18 247.738 2434.15 188.609 2305.75 118.379C2252.91 89.4841 2191.69 82.713 2128.83 98.814C2071.78 113.419 2016.51 146.29 1973.18 191.365C1948.96 216.56 1926.48 243.88 1904.46 274.822C1884.72 302.615 1865.69 332.888 1846.35 367.295C1809.79 432.407 1777.2 503.621 1745.67 572.474C1724.59 618.533 1704.07 652.664 1682.92 676.835C1657.72 705.691 1631.14 721.28 1601.73 724.508C1575.94 727.342 1552.67 718.721 1528.02 709.588C1520.27 706.714 1512.25 703.722 1504.03 701.085C1449.31 683.448 1383.46 629.634 1332.23 584.677C1322.12 575.82 1311.71 566.608 1301.68 557.711C1253.48 515.038 1203.67 470.947 1151.65 433.864C1092.84 391.938 1039.29 365.129 987.947 351.902C954.529 343.281 923.155 342.651 892.097 349.894C864.379 356.39 837.488 369.066 809.889 388.71C758.622 425.164 712.348 481.025 667.568 535.036C628.096 582.67 587.248 631.917 542.428 669.04C428.611 763.245 289.554 766 177.821 768.244C174.204 768.323 170.665 768.402 167.127 768.441C166.341 768.441 165.515 768.48 164.729 768.48C88.6542 768.48 -31.4139 695.18 -147.511 624.28C-195.476 594.991 -240.727 567.356 -282.755 544.838L-283.423 546.059C-241.435 568.537 -196.183 596.172 -148.258 625.461C-31.9644 696.557 88.2612 769.976 164.729 769.976Z" fill="url(#paint16_linear_361_4006)" fill-opacity="0.08"/>
<path d="M260.266 787.376C295.846 787.376 333.942 785.526 372.235 779.188C448.663 766.551 511.056 738.365 562.873 693.093C608.243 653.451 649.17 600.345 688.76 549.011C732.832 491.851 778.399 432.722 829.272 393.828C886.122 350.367 944.229 336.943 1006.98 352.768C1122.88 381.978 1224.43 475.553 1322.68 566.057C1330.74 573.497 1339.07 581.174 1347.21 588.614C1381.88 620.344 1409.68 644.042 1434.65 663.135C1466.22 687.267 1493.07 703.919 1516.77 714.036C1519.09 715.021 1521.41 716.005 1523.73 716.989C1554.71 730.255 1584 742.774 1616.67 747.734C1620.57 748.325 1624.46 748.64 1628.27 748.64C1654.14 748.64 1678.32 735.019 1701.83 707.265C1728.01 676.402 1749.79 631.799 1765.84 596.369C1769.69 587.906 1773.5 579.481 1777.28 571.057C1838.06 436.659 1895.46 309.662 1986.86 207.82C2063.14 122.828 2190.95 65.628 2304.49 129.481C2424.05 196.719 2458.68 255.612 2495.4 317.968C2501.26 327.889 2507.32 338.203 2513.69 348.478C2547.89 403.552 2562.2 461.893 2577.3 523.659C2581.94 542.634 2586.73 562.239 2592.16 581.686L2593.57 581.292C2588.15 561.884 2583.35 542.28 2578.71 523.305C2563.58 461.421 2549.23 403 2514.9 347.73C2508.54 337.455 2502.48 327.18 2496.62 317.26C2459.82 254.706 2425.07 195.656 2305.2 128.221C2253.62 99.2078 2194.49 93.106 2134.22 110.585C2080.16 126.253 2027.44 160.423 1985.8 206.876C1894.24 308.914 1836.8 435.95 1775.98 570.505C1772.16 578.93 1768.35 587.354 1764.54 595.818C1748.54 631.13 1726.8 675.614 1700.73 706.36C1674.07 737.814 1646.67 750.884 1616.91 746.356C1584.44 741.396 1555.26 728.917 1524.32 715.69C1522 714.706 1519.72 713.721 1517.36 712.737C1463.94 689.944 1401.86 636.681 1348.23 587.591C1340.09 580.15 1331.76 572.474 1323.7 565.033C1275.38 520.51 1225.41 474.451 1172.96 435.871C1113.56 392.135 1059.42 364.539 1007.41 351.43C990.267 347.1 973.283 344.934 956.928 344.895C956.889 344.895 956.849 344.895 956.81 344.895C941.241 344.895 925.712 346.863 910.654 350.761C882.819 358.004 855.889 371.704 828.407 392.726C777.376 431.738 731.732 490.945 687.62 548.184C648.069 599.479 607.181 652.546 561.93 692.07C444.417 794.699 294.391 788.518 184.859 783.991C107.33 780.802 -19.9329 695.927 -143.028 613.809C-192.526 580.819 -239.232 549.641 -282.597 523.777L-283.344 525.037C-240.058 550.901 -193.312 582.04 -143.854 615.029C-20.6011 697.227 106.858 782.219 184.781 785.447C207.859 786.353 233.335 787.376 260.266 787.376Z" fill="url(#paint17_linear_361_4006)" fill-opacity="0.08"/>
<path d="M314.205 807.689C339.681 807.689 365.747 806.272 391.852 802.572C427.472 797.533 460.614 788.478 490.337 775.684C524.226 761.079 555.206 741.002 582.413 716.004C628.097 674 668.984 617.155 708.496 562.16C751.939 501.732 796.915 439.257 847.592 397.764C904.245 351.43 962.707 336.51 1026.28 352.178C1143.71 381.112 1245.74 478.978 1344.38 573.576C1350.63 579.56 1356.84 585.543 1363.01 591.448C1416.17 642.231 1477.58 697.856 1529.83 725.571C1532.77 727.145 1535.68 728.681 1538.59 730.255C1569.5 746.75 1598.71 762.3 1631.46 769.543C1647.81 773.165 1663.81 771.472 1679.03 764.504C1692.94 758.127 1706.15 747.616 1719.44 732.302C1746.26 701.439 1768.35 655.892 1784.63 619.635C1792.25 602.668 1799.84 585.504 1807.23 568.931C1863.53 442.052 1916.69 322.22 1999.48 223.252C2067.11 142.393 2187.41 71.8872 2303.78 139.322C2414.85 203.647 2449.25 262.619 2485.69 325.094C2491 334.148 2496.47 343.557 2502.17 352.886C2536.37 409.102 2552.41 468.388 2569.36 531.139C2574.43 549.956 2579.69 569.403 2585.43 588.614L2586.89 588.181C2581.15 568.97 2575.88 549.523 2570.81 530.745C2553.83 467.877 2537.79 408.512 2503.46 352.139C2497.76 342.769 2492.3 333.4 2487.03 324.346C2450.47 261.713 2415.95 202.585 2304.57 138.023C2278.5 122.946 2250.67 114.128 2221.81 111.844C2194.96 109.719 2167.28 113.222 2139.56 122.276C2088.49 138.968 2038.33 174.477 1998.34 222.268C1915.43 321.393 1862.2 441.304 1805.86 568.301C1798.51 584.874 1790.88 602.038 1783.25 619.005C1767.01 655.144 1744.96 700.573 1718.3 731.279C1690.94 762.811 1662.63 774.818 1631.81 768.008C1599.3 760.804 1570.16 745.293 1539.34 728.877C1536.43 727.342 1533.52 725.767 1530.57 724.193C1478.48 696.557 1417.19 641.011 1364.11 590.307C1357.94 584.402 1351.73 578.457 1345.48 572.474C1297.04 526.021 1246.95 477.994 1194.12 437.761C1134.16 392.135 1079.39 363.673 1026.71 350.682C1009.33 346.391 992.154 344.344 975.642 344.58C959.876 344.816 944.19 347.099 929.014 351.43C901.022 359.421 874.091 374.184 846.688 396.583C795.815 438.154 750.838 500.748 707.316 561.254C667.805 616.171 626.996 672.937 581.43 714.863C470.404 817.019 327.651 811.98 202.55 799.265C123.488 791.234 -9.71123 695.494 -138.507 602.943C-189.538 566.254 -237.739 531.65 -282.4 502.44L-283.226 503.739C-238.564 532.91 -190.403 567.553 -139.372 604.203C-10.419 696.872 122.938 792.73 202.433 800.8C236.873 804.343 274.851 807.689 314.205 807.689Z" fill="url(#paint18_linear_361_4006)" fill-opacity="0.08"/>
<path d="M355.841 829.066C374.319 829.066 392.955 828.16 411.511 825.956C447.248 821.744 480.509 813.083 510.349 800.21C544.2 785.605 575.023 764.977 601.953 738.916C647.834 694.55 688.603 634.004 727.997 575.466C770.89 511.731 815.277 445.831 865.836 401.78C922.371 352.493 981.186 336.117 1045.62 351.627C1164.63 380.286 1271.65 487.166 1366.08 581.489C1370.37 585.78 1374.65 590.032 1378.9 594.283C1430.68 645.893 1490.32 703.723 1542.96 737.145C1545.99 739.074 1549.01 741.003 1552 742.892C1583.34 762.891 1612.9 781.787 1646.32 791.313C1663.26 796.155 1679.78 795.368 1695.46 788.912C1709.62 783.125 1723.61 772.496 1737.06 757.34C1764.54 726.398 1786.99 679.906 1803.46 642.901C1814.47 618.179 1825.28 593.181 1835.78 568.97C1887.91 448.666 1937.13 335.014 2012.11 238.723C2076.78 155.857 2191.77 82.6347 2303.15 149.282C2405.77 210.655 2440.01 269.902 2476.3 332.652C2480.98 340.723 2485.81 349.108 2490.77 357.414C2524.93 414.732 2542.74 475.042 2561.57 538.894C2567.04 557.436 2572.7 576.647 2578.79 595.582L2580.29 595.11C2574.23 576.175 2568.57 557.003 2563.11 538.461C2544.23 474.53 2526.42 414.141 2492.14 356.627C2487.19 348.32 2482.35 339.975 2477.67 331.865C2441.31 268.957 2406.95 209.513 2303.98 147.944C2278.54 132.709 2251.53 124.009 2223.7 122.119C2197.91 120.348 2171.41 124.363 2144.95 134.087C2120.26 143.181 2095.85 157.077 2072.49 175.461C2050.28 192.94 2029.56 213.922 2010.93 237.818C1976.72 281.751 1945.82 331.589 1913.78 394.694C1885.47 450.398 1860.66 507.716 1834.36 568.419C1823.86 592.63 1813.05 617.628 1802.04 642.35C1785.61 679.276 1763.24 725.61 1735.92 756.395C1707.81 788.046 1678.67 798.99 1646.79 789.896C1613.61 780.409 1584.12 761.591 1552.91 741.672C1549.92 739.743 1546.89 737.814 1543.86 735.924C1491.34 702.581 1431.78 644.83 1380.08 593.26C1375.83 589.008 1371.55 584.756 1367.26 580.465C1318.78 532.044 1268.62 481.97 1215.35 440.045C1154.84 392.45 1099.49 363.043 1046.06 350.21C1028.44 345.958 1011.07 344.069 994.357 344.541C978.434 344.974 962.629 347.612 947.336 352.336C919.186 361.075 892.177 376.9 864.853 400.717C814.136 444.926 769.711 510.904 726.739 574.718C687.385 633.177 646.654 693.644 600.892 737.893C493.365 841.86 354.386 836.309 220.243 814.815C139.648 801.903 0.511669 695.298 -133.985 592.197C-186.549 551.885 -236.243 513.857 -282.242 481.379L-283.146 482.679C-237.148 515.117 -187.493 553.184 -134.929 593.456C-0.235158 696.676 139.018 803.399 220.047 816.39C261.328 822.885 308.034 829.066 355.841 829.066Z" fill="url(#paint19_linear_361_4006)" fill-opacity="0.08"/>
<path d="M391.499 851.15C404.67 851.15 417.919 850.599 431.129 849.339C467.024 845.953 500.402 837.686 530.321 824.735C564.132 810.09 594.798 788.911 621.532 761.827C667.53 715.177 708.064 651.01 747.301 588.928C789.682 521.887 833.479 452.562 883.96 405.834C940.416 353.595 999.624 335.683 1064.97 351.036C1185.55 379.419 1292.91 491.142 1387.66 589.716L1394.78 597.117C1451.47 656.049 1506.51 712.028 1556.09 748.718C1558.88 750.765 1561.67 752.851 1564.42 754.898C1596.47 778.676 1626.7 801.154 1661.18 813.122C1678.67 819.184 1695.7 819.302 1711.9 813.397C1726.48 808.083 1740.87 797.69 1754.67 782.455C1782.9 751.395 1805.66 703.997 1822.33 666.205C1836.37 634.358 1850.01 601.959 1863.18 570.623C1911.38 456.105 1956.91 347.926 2024.8 254.194C2089.4 165.068 2196.26 93.2629 2302.49 159.123C2396.68 217.504 2430.89 277.302 2467.06 340.604C2471.03 347.532 2475.12 354.736 2479.29 361.822C2513.49 420.439 2533.15 481.891 2553.94 546.924C2559.76 565.112 2565.78 583.929 2572.07 602.471L2573.64 601.92C2567.35 583.378 2561.34 564.561 2555.52 546.413C2534.68 481.3 2515.02 419.77 2480.74 360.996C2476.57 353.87 2472.48 346.705 2468.51 339.777C2432.23 276.279 2397.94 216.323 2303.35 157.706C2278.5 142.314 2252.36 133.732 2225.62 132.157C2200.9 130.701 2175.62 135.267 2150.42 145.699C2127.06 155.344 2103.94 169.949 2081.73 189.121C2060.86 207.111 2041.28 228.684 2023.47 253.249C1992.92 295.411 1963.94 344.895 1934.85 404.574C1908.82 457.916 1884.88 514.88 1861.69 569.993C1848.51 601.329 1834.87 633.728 1820.84 665.575C1804.21 703.249 1781.56 750.489 1753.49 781.353C1724.63 813.122 1694.64 823.003 1661.77 811.586C1627.53 799.698 1597.37 777.298 1565.45 753.599C1562.66 751.552 1559.9 749.466 1557.07 747.419C1507.57 710.808 1452.61 654.907 1395.96 596.014L1388.84 588.614C1340.33 538.145 1290.16 485.945 1236.46 442.209C1175.4 392.528 1119.42 362.176 1065.32 349.461C1047.47 345.249 1029.82 343.477 1012.95 344.186C996.873 344.855 980.911 347.808 965.538 352.965C937.192 362.452 910.144 379.38 882.82 404.614C832.182 451.46 788.306 520.903 745.885 588.023C706.727 649.986 666.194 714.075 620.352 760.646C511.292 871.305 365.827 857.842 237.935 830.089C155.806 812.255 10.7727 694.707 -129.503 581.055C-183.64 537.161 -234.789 495.747 -282.124 460.042L-283.107 461.38C-235.772 497.047 -184.662 538.5 -130.525 582.354C9.86836 696.163 155.059 813.83 237.581 831.703C281.024 841.151 335.476 851.15 391.499 851.15Z" fill="url(#paint20_linear_361_4006)" fill-opacity="0.08"/>
<path d="M423.621 873.668C500.639 873.668 577.736 852.095 641.072 784.739C687.11 735.806 727.408 668.056 766.369 602.55C808.24 532.162 851.525 459.334 901.967 409.968C958.384 354.737 1018.02 335.29 1084.31 350.524C1206.5 378.593 1314.18 495.394 1409.21 598.456L1415.89 605.699C1467.36 661.521 1520.59 719.233 1569.22 760.292C1571.58 762.261 1573.9 764.229 1576.22 766.236C1609.13 794.108 1640.22 820.444 1676.04 834.971C1686.73 839.301 1696.92 841.309 1706.63 841.309C1765.95 841.309 1807.67 766.236 1841.16 689.55C1857.99 651.01 1874.07 611.565 1889.6 573.419C1934.1 464.137 1976.09 360.957 2037.46 269.744C2062.19 232.976 2102.96 183.885 2156.63 158.966C2206.56 135.779 2255.43 139.165 2301.82 169.084C2387.72 224.394 2421.96 285.058 2458.21 349.304C2461.36 354.855 2464.58 360.602 2467.85 366.311C2502.17 426.424 2523.75 489.174 2546.59 555.586C2552.65 573.222 2558.94 591.449 2565.39 609.439L2567 608.849C2560.55 590.897 2554.26 572.671 2548.21 555.034C2525.32 488.505 2503.74 425.715 2469.34 365.445C2466.12 359.776 2462.85 354.028 2459.71 348.478C2423.34 284.034 2388.98 223.173 2302.76 167.588C2278.54 151.998 2253.26 143.456 2227.59 142.275C2203.96 141.173 2179.82 146.251 2155.88 157.352C2133.86 167.588 2112.01 182.901 2090.97 202.821C2071.43 221.323 2052.95 243.526 2035.97 268.721C2008.37 309.741 1981.99 357.532 1955.26 414.81C1931.39 465.987 1909.3 520.234 1887.95 572.71C1872.42 610.856 1856.34 650.302 1839.55 688.802C1800.91 777.299 1751.33 863.63 1676.63 833.317C1641.05 818.87 1610.07 792.651 1577.28 764.859C1574.96 762.89 1572.6 760.883 1570.28 758.914C1521.73 717.934 1468.54 660.261 1417.11 604.479L1410.43 597.235C1361.91 544.642 1311.79 490.237 1257.69 444.65C1196.08 392.726 1139.47 361.39 1084.66 348.792C1066.54 344.619 1048.69 343.005 1031.59 343.95C1015.31 344.856 999.193 348.162 983.703 353.713C955.16 363.988 927.993 381.978 900.709 408.708C850.11 458.232 806.785 531.139 764.836 601.644C725.914 667.072 685.695 734.743 639.775 783.518C529.26 901.028 376.403 878.353 255.588 845.442C171.965 822.688 20.9953 694.156 -125.021 569.836C-180.691 522.439 -233.294 477.639 -282.006 438.784L-283.067 440.123C-234.395 478.978 -181.792 523.738 -126.122 571.135C20.0124 695.573 171.139 824.223 255.156 847.096C307.327 861.346 365.474 873.668 423.621 873.668Z" fill="url(#paint21_linear_361_4006)" fill-opacity="0.08"/>
<path d="M453.774 896.383C459.317 896.383 464.861 896.265 470.404 895.99C506.613 894.257 540.228 886.778 570.264 873.708C604.036 859.024 634.426 836.782 660.61 807.611C706.609 756.435 746.592 685.181 785.239 616.25C826.638 542.477 869.452 466.145 919.815 414.063C976.192 355.8 1036.3 334.778 1103.57 349.856C1227.38 377.609 1337.73 502.441 1426.43 602.747C1434.29 611.644 1442.23 620.659 1449.94 629.438C1493.97 679.473 1539.5 731.201 1582.27 771.788C1584 773.441 1585.73 775.095 1587.5 776.748C1619.94 807.572 1653.47 839.459 1690.86 856.702C1711.62 866.268 1731.83 867.449 1750.9 860.127C1772.09 852.017 1792.06 833.83 1811.95 804.58C1827.44 781.787 1842.7 752.616 1859.96 712.738C1879.38 667.86 1897.54 621.565 1915.11 576.726C1954.27 476.932 1994.77 373.751 2050.04 285.058C2094.78 213.293 2147.94 167.667 2199.72 156.605C2234.19 149.243 2268.28 156.723 2301.11 178.808C2378.87 231.284 2413.39 293.365 2449.92 359.107C2452.08 362.965 2454.24 366.862 2456.4 370.76C2490.96 432.644 2515.73 500.04 2539.67 565.192C2545.85 581.962 2552.21 599.283 2558.7 616.368L2560.35 615.738C2553.87 598.693 2547.5 581.332 2541.36 564.562C2517.38 499.331 2492.57 431.896 2457.98 369.894C2455.81 365.996 2453.65 362.138 2451.49 358.241C2433.05 325.055 2415.63 293.719 2392.6 263.21C2366.49 228.646 2337.75 201.365 2302.21 177.43C2268.99 155.03 2234.39 147.472 2199.44 154.952C2171.72 160.896 2143.93 176.21 2116.84 200.499C2092.7 222.19 2069.74 250.337 2048.63 284.192C2023.78 324.071 1999.8 370.208 1975.34 425.243C1953.52 474.373 1933.2 526.1 1913.58 576.175C1896.01 620.974 1877.84 667.269 1858.42 712.108C1833.06 770.725 1797.84 840.365 1750.34 858.513C1731.75 865.638 1712.01 864.496 1691.69 855.127C1654.53 838.003 1621.12 806.234 1588.8 775.488C1587.07 773.835 1585.34 772.181 1583.57 770.528C1540.87 729.98 1497.39 680.575 1451.35 628.296C1443.65 619.557 1435.67 610.503 1427.84 601.606C1385.11 553.263 1331.91 493.111 1276.6 445.241C1215.35 392.254 1158.93 360.485 1104.04 348.163C1085.65 344.03 1067.52 342.534 1050.26 343.754C1033.79 344.896 1017.51 348.517 1001.9 354.54C973.126 365.602 945.88 384.695 918.635 412.882C868.076 465.121 825.223 541.532 783.785 615.423C745.177 684.236 705.233 755.411 659.352 806.43C548.602 929.648 394.919 900.241 273.396 860.874C188.279 832.964 31.2553 693.369 -120.658 558.342C-177.822 507.559 -231.802 459.571 -281.771 417.566L-282.911 418.944C-232.942 460.909 -179.001 508.858 -121.837 559.68C30.1938 694.826 187.375 834.538 272.846 862.567C318.53 877.408 385.484 896.383 453.774 896.383Z" fill="url(#paint22_linear_361_4006)" fill-opacity="0.08"/>
<path d="M482.002 919.49C484.676 919.49 487.349 919.451 490.023 919.412C526.428 918.506 560.121 911.381 590.197 898.232C623.93 883.509 654.202 860.716 680.15 830.561C726.07 777.18 765.7 702.462 804.032 630.224C844.959 553.026 887.301 473.19 937.664 418.392C994.042 357.019 1054.67 334.462 1122.92 349.422C1248.21 376.821 1360.38 509.132 1442.27 605.699C1455.99 621.878 1469.83 638.412 1483.2 654.435C1521.89 700.769 1558.45 744.506 1595.4 783.439L1598.47 786.667C1631.93 821.94 1666.53 858.433 1705.72 878.589C1727.39 889.729 1748.46 891.737 1768.35 884.533C1789.94 876.738 1810.26 858.59 1830.43 829.026C1846.27 805.839 1861.65 776.353 1878.83 736.16C1900.96 684.747 1921.21 631.051 1940.75 579.126C1976.49 484.292 2013.4 386.269 2062.74 300.686C2093.64 247.068 2143.69 180.303 2206.6 166.485C2238.21 159.556 2269.78 167.075 2300.48 188.845C2370.3 238.29 2407.02 305.607 2442.53 370.759L2444.96 375.207C2479.99 439.453 2507.28 509.172 2533.62 576.568C2539.59 591.881 2545.81 607.707 2552.02 623.296L2553.71 622.627C2547.5 607.037 2541.32 591.212 2535.31 575.938C2508.93 508.463 2481.64 438.705 2446.54 374.341L2444.1 369.893C2426.29 337.218 2407.89 303.442 2385.56 272.342C2360.51 237.463 2333.03 209.631 2301.54 187.31C2270.4 165.225 2238.32 157.588 2206.16 164.635C2179.43 170.5 2152.62 186.483 2126.47 212.19C2103.63 234.668 2081.61 264.114 2061.09 299.702C2011.67 385.442 1974.72 483.544 1938.98 578.418C1919.44 630.303 1899.19 683.96 1877.1 735.373C1859.96 775.448 1844.66 804.855 1828.9 827.924C1808.92 857.134 1788.91 875.085 1767.68 882.722C1748.26 889.729 1727.7 887.761 1706.51 876.856C1667.59 856.858 1633.11 820.483 1599.77 785.329L1596.7 782.101C1559.82 743.207 1523.26 699.47 1484.58 653.175C1471.21 637.153 1457.37 620.579 1443.65 604.4C1394.9 546.885 1346.78 491.417 1294.57 445.122C1234.02 391.426 1178 359.5 1123.27 347.532C1104.56 343.438 1086.24 342.1 1068.74 343.556C1052.07 344.934 1035.64 348.91 1019.91 355.366C990.896 367.255 963.533 387.411 936.288 417.093C885.768 472.088 843.347 552.003 802.381 629.319C764.127 701.478 724.537 776.117 678.735 829.341C566.294 959.999 403.608 918.742 291.01 876.305C204.438 843.434 41.3986 692.738 -116.255 547.003C-174.952 492.756 -230.386 441.5 -281.692 396.386L-282.911 397.764C-231.605 442.839 -176.171 494.094 -117.513 548.341C40.2587 694.195 203.416 845.048 290.342 877.998C325.843 891.383 357.61 901.185 387.45 907.956C421.064 915.632 452.791 919.49 482.002 919.49Z" fill="url(#paint23_linear_361_4006)" fill-opacity="0.08"/>
<path d="M508.853 942.796C509.129 942.796 509.365 942.796 509.6 942.796C546.163 942.717 579.974 935.946 610.129 922.758C643.861 907.996 673.977 884.651 699.728 853.473C745.53 797.927 784.727 719.823 822.666 644.318C863.161 563.734 905.031 480.356 955.394 422.802C1011.81 358.319 1072.91 334.148 1142.22 348.792C1259.3 373.948 1362.46 490.867 1458.12 608.455C1477.1 631.799 1496.17 655.931 1514.57 679.276C1545.28 718.209 1577.08 758.481 1608.53 794.935L1609.2 795.722C1643.72 835.719 1679.42 877.093 1720.58 900.319C1743.07 912.995 1764.97 915.869 1785.65 908.823C1807.63 901.343 1828.27 883.195 1848.79 853.316C1864.91 829.814 1880.44 799.974 1897.66 759.387C1921.95 702.305 1943.7 642.074 1964.69 583.811C1997.4 493.032 2031.25 399.182 2075.4 316.118C2095.25 278.759 2116.21 248.053 2137.6 224.945C2162.52 198.058 2188 181.563 2213.32 175.933C2242.18 169.517 2271.27 177.193 2299.81 198.687C2362.09 245.652 2400.02 316.827 2433.48 379.656C2469.65 447.563 2500.04 520.982 2529.45 592C2534.64 604.518 2539.99 617.47 2545.33 630.225L2547.1 629.477C2541.79 616.722 2536.41 603.77 2531.22 591.252C2501.81 520.195 2471.38 446.737 2435.17 378.751C2416.03 342.809 2398.49 310.567 2377.54 280.058C2353.44 244.904 2328.39 217.78 2300.99 197.152C2271.98 175.304 2242.37 167.509 2212.96 174.044C2187.25 179.752 2161.42 196.443 2136.26 223.606C2114.76 246.833 2093.72 277.657 2073.79 315.173C2029.56 398.355 1995.71 492.284 1962.96 583.142C1941.97 641.405 1920.26 701.596 1895.97 758.639C1878.79 799.108 1863.34 828.869 1847.26 852.213C1827.01 881.738 1806.64 899.65 1785.1 906.972C1764.93 913.861 1743.54 911.027 1721.57 898.627C1680.68 875.558 1645.1 834.302 1610.7 794.423L1610.03 793.636C1578.62 757.222 1546.85 716.949 1516.14 678.055C1497.74 654.711 1478.68 630.579 1459.69 607.195C1416.52 554.129 1366.04 493.465 1312.73 445.044C1252.85 390.679 1197.26 358.555 1142.73 346.863C1123.74 342.848 1105.11 341.667 1087.41 343.399C1070.55 345.053 1053.92 349.383 1038.07 356.272C1008.82 368.987 981.342 390.285 954.057 421.463C903.537 479.214 861.588 562.671 821.054 643.373C783.155 718.8 743.997 796.785 698.352 852.174C649.877 910.988 587.287 940.316 509.286 940.316C451.218 940.316 384.618 924.057 308.858 891.619C220.792 853.788 51.8164 691.952 -111.616 535.43C-171.847 477.757 -228.736 423.274 -281.379 375.089L-282.676 376.506C-230.033 424.652 -173.184 479.135 -112.953 536.807C50.5974 693.447 219.731 855.402 308.111 893.391C385.483 926.656 451.218 942.796 508.853 942.796Z" fill="url(#paint24_linear_361_4006)" fill-opacity="0.08"/>
<path d="M534.762 966.219C569.359 966.219 601.401 959.842 630.062 947.245C663.755 932.443 693.791 908.587 719.268 876.345C764.873 818.673 803.716 737.184 841.223 658.412C881.285 574.324 922.723 487.324 973.125 426.975C1029.58 359.343 1091.23 333.597 1161.56 348.242C1279.66 372.806 1380.66 491.654 1473.96 611.329C1497.35 641.326 1520.67 672.702 1543.15 703.014C1568.63 737.342 1594.97 772.811 1621.63 806.509C1654.69 848.277 1692.12 895.674 1735.4 922.129C1758.72 936.38 1781.44 940.119 1802.95 933.191C1814.51 929.451 1826.03 922.562 1837.11 912.642C1847.18 903.627 1857.28 891.856 1867.11 877.645C1883.31 854.182 1899.47 823.122 1916.49 782.692C1942.91 720.02 1965.95 652.979 1988.2 588.142C2018 501.457 2048.78 411.819 2088.02 331.55C2107.32 292.105 2127.3 259.942 2147.39 236.047C2171.33 207.585 2195.78 190.421 2220.08 185.067C2246.3 179.28 2272.88 187.193 2299.14 208.529C2349.78 249.746 2389.13 320.764 2422.04 384.105C2461.28 459.649 2496.78 541.138 2531.14 619.95C2533.66 625.698 2536.13 631.446 2538.65 637.193L2540.46 636.406C2537.94 630.658 2535.46 624.911 2532.95 619.163C2498.59 540.312 2463.09 458.823 2423.81 383.199C2390.82 319.701 2351.35 248.447 2300.44 206.994C2273.71 185.264 2246.54 177.233 2219.73 183.138C2195 188.57 2170.19 205.971 2145.97 234.787C2125.76 258.801 2105.71 291.081 2086.33 330.684C2047.01 411.071 2016.19 500.787 1986.39 587.512C1964.14 652.31 1941.1 719.312 1914.72 781.905C1891.05 838.12 1853.62 914.767 1802.4 931.301C1781.48 938.033 1759.31 934.411 1736.47 920.436C1693.49 894.139 1656.14 846.939 1623.2 805.289C1596.58 771.63 1570.24 736.161 1544.77 701.833C1522.24 671.481 1498.96 640.106 1475.53 610.109C1433.74 556.531 1384.64 495.158 1330.69 445.005C1271.49 389.891 1216.29 357.65 1161.95 346.352C1142.65 342.337 1123.82 341.313 1105.89 343.281C1088.83 345.171 1072.04 349.816 1056 357.138C1026.51 370.641 998.915 393.08 971.631 425.755C921.072 486.3 879.594 573.38 839.453 657.585C801.947 736.279 763.182 817.65 717.734 875.164C633.128 982.163 505.158 992.595 326.432 907.169C236.872 864.338 61.8808 691.322 -107.331 523.974C-169.095 462.917 -227.399 405.244 -281.379 354.028L-282.716 355.446C-228.775 406.622 -170.471 464.294 -108.707 525.352C60.6228 692.818 235.732 865.952 325.567 908.941C403.764 946.339 470.364 965.078 529.179 966.219C531.066 966.219 532.914 966.219 534.762 966.219Z" fill="url(#paint25_linear_361_4006)" fill-opacity="0.08"/>
</g>
<defs>
<linearGradient id="paint0_linear_361_4006" x1="1223.11" y1="-89.0115" x2="1223.11" y2="884.966" gradientUnits="userSpaceOnUse">
<stop stop-color="white"/>
<stop offset="1" stop-color="white" stop-opacity="0"/>
</linearGradient>
<linearGradient id="paint1_linear_361_4006" x1="1217.92" y1="-77.0765" x2="1217.92" y2="863.787" gradientUnits="userSpaceOnUse">
<stop stop-color="white"/>
<stop offset="1" stop-color="white" stop-opacity="0"/>
</linearGradient>
<linearGradient id="paint2_linear_361_4006" x1="1212.81" y1="-65.3202" x2="1212.81" y2="842.608" gradientUnits="userSpaceOnUse">
<stop stop-color="white"/>
<stop offset="1" stop-color="white" stop-opacity="0"/>
</linearGradient>
<linearGradient id="paint3_linear_361_4006" x1="1207.74" y1="-53.653" x2="1207.74" y2="821.429" gradientUnits="userSpaceOnUse">
<stop stop-color="white"/>
<stop offset="1" stop-color="white" stop-opacity="0"/>
</linearGradient>
<linearGradient id="paint4_linear_361_4006" x1="1202.69" y1="-42.1045" x2="1202.69" y2="800.289" gradientUnits="userSpaceOnUse">
<stop stop-color="white"/>
<stop offset="1" stop-color="white" stop-opacity="0"/>
</linearGradient>
<linearGradient id="paint5_linear_361_4006" x1="1197.83" y1="-30.4812" x2="1197.83" y2="779.109" gradientUnits="userSpaceOnUse">
<stop stop-color="white"/>
<stop offset="1" stop-color="white" stop-opacity="0"/>
</linearGradient>
<linearGradient id="paint6_linear_361_4006" x1="1192.96" y1="-19.1139" x2="1192.96" y2="757.97" gradientUnits="userSpaceOnUse">
<stop stop-color="white"/>
<stop offset="1" stop-color="white" stop-opacity="0"/>
</linearGradient>
<linearGradient id="paint7_linear_361_4006" x1="1188.33" y1="-7.96384" x2="1188.33" y2="736.83" gradientUnits="userSpaceOnUse">
<stop stop-color="white"/>
<stop offset="1" stop-color="white" stop-opacity="0"/>
</linearGradient>
<linearGradient id="paint8_linear_361_4006" x1="1184.64" y1="3.30569" x2="1184.64" y2="715.651" gradientUnits="userSpaceOnUse">
<stop stop-color="white"/>
<stop offset="1" stop-color="white" stop-opacity="0"/>
</linearGradient>
<linearGradient id="paint9_linear_361_4006" x1="1181.36" y1="14.5615" x2="1181.36" y2="694.51" gradientUnits="userSpaceOnUse">
<stop stop-color="white"/>
<stop offset="1" stop-color="white" stop-opacity="0"/>
</linearGradient>
<linearGradient id="paint10_linear_361_4006" x1="1178.09" y1="25.5319" x2="1178.09" y2="695.416" gradientUnits="userSpaceOnUse">
<stop stop-color="white"/>
<stop offset="1" stop-color="white" stop-opacity="0"/>
</linearGradient>
<linearGradient id="paint11_linear_361_4006" x1="1174.81" y1="36.4079" x2="1174.81" y2="703.643" gradientUnits="userSpaceOnUse">
<stop stop-color="white"/>
<stop offset="1" stop-color="white" stop-opacity="0"/>
</linearGradient>
<linearGradient id="paint12_linear_361_4006" x1="1171.61" y1="47.3074" x2="1171.61" y2="714.43" gradientUnits="userSpaceOnUse">
<stop stop-color="white"/>
<stop offset="1" stop-color="white" stop-opacity="0"/>
</linearGradient>
<linearGradient id="paint13_linear_361_4006" x1="1168.21" y1="58.1091" x2="1168.21" y2="726.909" gradientUnits="userSpaceOnUse">
<stop stop-color="white"/>
<stop offset="1" stop-color="white" stop-opacity="0"/>
</linearGradient>
<linearGradient id="paint14_linear_361_4006" x1="1165.06" y1="68.952" x2="1165.06" y2="740.49" gradientUnits="userSpaceOnUse">
<stop stop-color="white"/>
<stop offset="1" stop-color="white" stop-opacity="0"/>
</linearGradient>
<linearGradient id="paint15_linear_361_4006" x1="1161.64" y1="79.6121" x2="1161.64" y2="754.939" gradientUnits="userSpaceOnUse">
<stop stop-color="white"/>
<stop offset="1" stop-color="white" stop-opacity="0"/>
</linearGradient>
<linearGradient id="paint16_linear_361_4006" x1="1158.38" y1="90.2802" x2="1158.38" y2="769.976" gradientUnits="userSpaceOnUse">
<stop stop-color="white"/>
<stop offset="1" stop-color="white" stop-opacity="0"/>
</linearGradient>
<linearGradient id="paint17_linear_361_4006" x1="1155.12" y1="100.833" x2="1155.12" y2="787.376" gradientUnits="userSpaceOnUse">
<stop stop-color="white"/>
<stop offset="1" stop-color="white" stop-opacity="0"/>
</linearGradient>
<linearGradient id="paint18_linear_361_4006" x1="1151.83" y1="111.242" x2="1151.83" y2="807.689" gradientUnits="userSpaceOnUse">
<stop stop-color="white"/>
<stop offset="1" stop-color="white" stop-opacity="0"/>
</linearGradient>
<linearGradient id="paint19_linear_361_4006" x1="1148.57" y1="121.712" x2="1148.57" y2="829.066" gradientUnits="userSpaceOnUse">
<stop stop-color="white"/>
<stop offset="1" stop-color="white" stop-opacity="0"/>
</linearGradient>
<linearGradient id="paint20_linear_361_4006" x1="1145.27" y1="131.893" x2="1145.27" y2="851.15" gradientUnits="userSpaceOnUse">
<stop stop-color="white"/>
<stop offset="1" stop-color="white" stop-opacity="0"/>
</linearGradient>
<linearGradient id="paint21_linear_361_4006" x1="1141.97" y1="142.127" x2="1141.97" y2="873.668" gradientUnits="userSpaceOnUse">
<stop stop-color="white"/>
<stop offset="1" stop-color="white" stop-opacity="0"/>
</linearGradient>
<linearGradient id="paint22_linear_361_4006" x1="1138.72" y1="152.158" x2="1138.72" y2="896.383" gradientUnits="userSpaceOnUse">
<stop stop-color="white"/>
<stop offset="1" stop-color="white" stop-opacity="0"/>
</linearGradient>
<linearGradient id="paint23_linear_361_4006" x1="1135.4" y1="162.095" x2="1135.4" y2="919.49" gradientUnits="userSpaceOnUse">
<stop stop-color="white"/>
<stop offset="1" stop-color="white" stop-opacity="0"/>
</linearGradient>
<linearGradient id="paint24_linear_361_4006" x1="1132.21" y1="171.805" x2="1132.21" y2="942.796" gradientUnits="userSpaceOnUse">
<stop stop-color="white"/>
<stop offset="1" stop-color="white" stop-opacity="0"/>
</linearGradient>
<linearGradient id="paint25_linear_361_4006" x1="1128.87" y1="181.259" x2="1128.87" y2="966.219" gradientUnits="userSpaceOnUse">
<stop stop-color="white"/>
<stop offset="1" stop-color="white" stop-opacity="0"/>
</linearGradient>
</defs>
</svg>
