<svg width="254" height="254" viewBox="0 0 254 254" fill="none" xmlns="http://www.w3.org/2000/svg">
<path d="M129.121 217.18C79.4508 217.18 38.0746 176.637 36.8694 126.777C36.3023 102.617 45.14 79.9036 61.7519 62.8331C78.3638 45.7625 100.789 36.3499 124.844 36.3499C174.515 36.3499 215.891 76.8926 217.096 126.753C217.663 150.913 208.825 173.626 192.213 190.697C175.578 207.767 153.177 217.18 129.121 217.18ZM124.844 37.9147C101.19 37.9147 79.1909 47.1613 62.8625 63.9237C46.5341 80.7098 37.8619 103.02 38.429 126.753C39.5869 175.76 80.2779 215.615 129.098 215.615C152.751 215.615 174.751 206.368 191.079 189.606C207.408 172.82 216.08 150.509 215.513 126.777C214.355 77.7935 173.687 37.9147 124.844 37.9147Z" fill="#5479F7"/>
<path d="M191.276 190.527C225.547 155.73 224.538 98.9751 189.022 63.7609C153.506 28.5467 96.9319 28.2083 62.6608 63.0051C28.3897 97.8018 29.3989 154.557 64.9151 189.771C100.431 224.985 157.005 225.324 191.276 190.527Z" fill="#99B9FF"/>
<path d="M129.122 217.18C79.4518 217.18 38.0756 176.637 36.8704 126.777C36.3033 102.617 45.1409 79.9036 61.7529 62.8331C78.3648 45.7625 100.79 36.3499 124.845 36.3499C174.516 36.3499 215.892 76.8926 217.097 126.753C217.664 150.913 208.826 173.626 192.214 190.697C175.579 207.767 153.178 217.18 129.122 217.18ZM124.845 37.9147C101.191 37.9147 79.1919 47.1613 62.8635 63.9237C46.5351 80.7098 37.8629 103.02 38.43 126.753C39.5879 175.76 80.2788 215.615 129.099 215.615C152.752 215.615 174.752 206.368 191.08 189.606C207.409 172.82 216.081 150.509 215.514 126.777C214.356 77.7935 173.688 37.9147 124.845 37.9147Z" fill="black"/>
<path d="M129.121 217.298C95.614 217.298 67.3997 176.708 66.2182 126.8C65.5093 96.6186 74.8668 68.5233 91.2897 51.6423C101.073 41.5659 112.675 36.2314 124.844 36.2314C158.352 36.2314 186.566 76.8215 187.748 126.729C188.457 156.911 179.099 185.006 162.676 201.887C152.893 211.964 141.291 217.298 129.121 217.298ZM124.844 37.8199C113.1 37.8199 101.876 42.9885 92.3767 52.733C76.261 69.3057 67.0453 96.9742 67.7542 126.753C68.9121 175.807 96.4411 215.733 129.098 215.733C140.842 215.733 152.066 210.565 161.566 200.82C177.705 184.248 186.897 156.579 186.188 126.8C185.03 77.7224 157.501 37.8199 124.844 37.8199Z" fill="black"/>
<path d="M129.098 216.753C121.867 216.753 114.92 207.269 109.556 190.08C104.286 173.152 101.049 150.675 100.482 126.777C100.009 106.98 101.38 88.2256 104.475 72.5301C107.524 57.0243 111.919 45.9284 117.235 40.499C119.646 38.0333 122.221 36.7767 124.868 36.7767C132.099 36.7767 139.046 46.2604 144.41 63.4495C149.68 80.3778 152.917 102.854 153.484 126.753C153.957 146.55 152.586 165.304 149.49 180.999C146.442 196.505 142.047 207.601 136.73 213.031C134.32 215.496 131.744 216.753 129.098 216.753ZM124.868 38.3415C122.647 38.3415 120.473 39.4321 118.37 41.6134C107.831 52.4247 101.143 87.4432 102.065 126.753C102.632 150.51 105.822 172.844 111.068 189.606C116.148 205.87 122.718 215.188 129.121 215.188C131.343 215.188 133.517 214.097 135.62 211.916C146.159 201.105 152.846 166.086 151.924 126.777C151.357 103.02 148.167 80.6861 142.921 63.9237C137.841 47.6592 131.272 38.3415 124.868 38.3415Z" fill="black"/>
<path d="M216.552 127.18H38.6411C38.2158 127.18 37.8613 126.824 37.8613 126.397C37.8613 125.971 38.2158 125.615 38.6411 125.615H216.552C216.977 125.615 217.332 125.971 217.332 126.397C217.332 126.824 216.977 127.18 216.552 127.18Z" fill="black"/>
<path d="M204.171 85.7598H46.1802C45.7548 85.7598 45.4004 85.4042 45.4004 84.9774C45.4004 84.5506 45.7548 84.195 46.1802 84.195H204.171C204.596 84.195 204.951 84.5506 204.951 84.9774C204.951 85.4042 204.596 85.7598 204.171 85.7598Z" fill="black"/>
<path d="M206.132 168.576H48.1646C47.7392 168.576 47.3848 168.22 47.3848 167.793C47.3848 167.367 47.7392 167.011 48.1646 167.011H206.155C206.58 167.011 206.935 167.367 206.935 167.793C206.935 168.244 206.58 168.576 206.132 168.576Z" fill="black"/>
</svg>
