<svg width="56" height="56" viewBox="0 0 56 56" fill="none" xmlns="http://www.w3.org/2000/svg">
<path d="M55.5173 22.6251L51.8009 13.307L45.9793 15.6204C44.6259 13.6925 42.9718 12.0217 41.1458 10.6508L43.6162 4.90999L34.379 0.947124L31.9086 6.68792C29.653 6.28092 27.3114 6.23808 24.9699 6.58082L22.6499 0.775757L13.3052 4.48157L15.6252 10.2866C13.6919 11.6361 12.0163 13.2856 10.6414 15.1063L4.86279 12.6643L0.888632 21.8753L6.64581 24.3387C6.23765 26.5879 6.19469 28.9228 6.5384 31.2577L0.630859 33.8924L4.43316 42.8892L10.2548 40.5758C11.6081 42.5036 13.2622 44.1745 15.0882 45.5454L12.6178 51.2862L21.855 55.2491L24.3254 49.5083C26.581 49.9153 28.9226 49.9581 31.2641 49.6154L33.5842 55.4204L42.9288 51.7146L40.6088 45.9096C42.5422 44.56 44.2177 42.9106 45.5926 41.0899L51.3498 43.5533L55.3239 34.3423L49.5667 31.8789C49.9749 29.6297 50.0179 27.2948 49.6741 24.9599L55.5173 22.6251ZM32.8108 39.8474C26.3018 42.4394 18.9335 39.2691 16.3342 32.7786C13.7348 26.288 16.9142 18.9407 23.4232 16.3487C29.9322 13.7568 37.3005 16.9271 39.8999 23.4176C42.4992 29.9082 39.3198 37.2769 32.8108 39.8474Z" fill="white"/>
<path d="M33.6059 55.9131C33.5415 55.9131 33.4771 55.8917 33.4126 55.8703C33.2837 55.8274 33.1978 55.7203 33.1548 55.6132L30.9851 50.1509C28.8799 50.4294 26.7532 50.3865 24.648 50.0652L22.3279 55.4633C22.285 55.5918 22.1775 55.6775 22.0701 55.7203C21.9412 55.7632 21.8123 55.7632 21.7049 55.7203L12.4677 51.7575C12.3388 51.7146 12.2529 51.6075 12.2099 51.5004C12.1669 51.3719 12.1669 51.2434 12.2099 51.1362L14.53 45.7382C12.8329 44.4529 11.3506 42.9321 10.1047 41.2184L4.62678 43.3819C4.39048 43.489 4.08973 43.3605 4.0038 43.1248L0.201505 34.1281C0.0940952 33.8924 0.201494 33.5925 0.459278 33.4854L6.02311 31.0006C5.74384 28.9014 5.78681 26.7593 6.10904 24.66L0.695574 22.3466C0.566682 22.3037 0.480765 22.1966 0.437801 22.0895C0.394837 21.961 0.394837 21.8325 0.437801 21.7254L4.41196 12.5144C4.51937 12.2574 4.79864 12.1502 5.05642 12.2574L10.4699 14.5708C11.7588 12.8786 13.284 11.4005 15.0026 10.1581L12.8329 4.69578C12.7255 4.43873 12.8544 4.16026 13.1122 4.05315L22.4568 0.347343C22.7146 0.240238 22.9939 0.368763 23.1013 0.625814L25.2709 6.08814C27.3762 5.80967 29.5029 5.85251 31.6081 6.17382L33.9282 0.77576C33.9711 0.647235 34.0785 0.561551 34.1859 0.518709C34.3148 0.475868 34.4437 0.475868 34.5511 0.518709L43.7884 4.48157C44.0462 4.58868 44.1536 4.86715 44.0462 5.1242L41.7261 10.5223C43.4232 11.8075 44.9054 13.3284 46.1514 15.0421L51.6293 12.8786C51.7582 12.8357 51.8871 12.8357 51.9945 12.8786C52.1234 12.9214 52.2093 13.0285 52.2523 13.1356L55.9687 22.4537C56.0116 22.5822 56.0116 22.7107 55.9687 22.8178C55.9257 22.9464 55.8183 23.0321 55.7109 23.0749L50.233 25.2384C50.5122 27.3377 50.4693 29.4583 50.1471 31.5576L55.5605 33.871C55.8183 33.9781 55.9257 34.2566 55.8183 34.5136L51.8441 43.7246C51.7367 43.9817 51.4574 44.0888 51.1996 43.9817L45.7862 41.6682C44.4973 43.3605 42.9721 44.8385 41.2535 46.0809L43.4232 51.5432C43.4662 51.6718 43.4662 51.8003 43.4232 51.9074C43.3802 52.0359 43.2728 52.1216 43.1654 52.1645L33.8208 55.8703C33.7348 55.8917 33.6704 55.9131 33.6059 55.9131ZM31.2859 49.1227C31.4792 49.1227 31.6726 49.2512 31.737 49.4226L33.8637 54.7778L42.3061 51.4361L40.1794 46.0809C40.0935 45.8667 40.1579 45.6311 40.3513 45.5026C42.2202 44.1959 43.8528 42.6107 45.2062 40.79C45.3351 40.6186 45.5929 40.5543 45.7862 40.64L51.0922 42.9106L54.6797 34.5993L49.3737 32.3287C49.1589 32.243 49.0515 32.0288 49.0944 31.7932C49.4811 29.544 49.5241 27.2734 49.1804 25.0242C49.1374 24.81 49.2663 24.5744 49.4811 24.5101L54.8516 22.368L51.5004 13.9496L46.1299 16.0703C45.9151 16.156 45.6788 16.0917 45.5499 15.8989C44.2395 14.0353 42.6498 12.4073 40.8239 11.0578C40.652 10.9293 40.5876 10.6722 40.6735 10.4794L42.9506 5.18846L34.6156 1.61117L32.3385 6.90213C32.2526 7.11634 32.0378 7.22345 31.8015 7.1806C29.5459 6.77361 27.2688 6.75219 25.0132 7.0735C24.7983 7.11634 24.562 6.98782 24.4976 6.77361L22.3494 1.41839L13.907 4.76004L16.0337 10.1153C16.1196 10.3295 16.0552 10.5651 15.8618 10.6936C13.9929 12.0003 12.3603 13.5854 11.0069 15.4062C10.878 15.5776 10.6202 15.6633 10.4269 15.5562L5.12085 13.2856L1.53338 21.5969L6.83941 23.8675C7.05423 23.9532 7.16165 24.1674 7.11868 24.403C6.73201 26.6522 6.68905 28.9228 7.01127 31.172C7.03276 31.3862 6.92534 31.6004 6.732 31.6861L1.2541 34.1281L4.69121 42.2466L10.0617 40.1045C10.2765 40.0188 10.5128 40.0831 10.6417 40.2759C11.9521 42.1395 13.5418 43.7675 15.3678 45.117C15.5396 45.2455 15.6255 45.5026 15.5181 45.6953L13.241 50.9863L21.5761 54.5636L23.8531 49.2726C23.9391 49.0584 24.1539 48.9513 24.3902 48.9942C26.6458 49.3797 28.9229 49.4226 31.1785 49.0798C31.2429 49.1227 31.2644 49.1227 31.2859 49.1227ZM28.1065 41.2398C26.345 41.2398 24.5835 40.8756 22.9079 40.1688C19.6856 38.7764 17.1723 36.2273 15.8833 32.9713C14.5729 29.7154 14.6374 26.1381 16.0337 22.9249C17.43 19.7118 19.9864 17.2056 23.2516 15.9203C26.5169 14.6136 30.1044 14.6779 33.3267 16.0703C36.549 17.4626 39.0623 20.0117 40.3513 23.2677C41.6617 26.5237 41.5972 30.1009 40.2009 33.3141C38.8046 36.5272 36.2482 39.0335 32.983 40.3187C31.4148 40.9399 29.7607 41.2398 28.1065 41.2398ZM28.128 15.9417C26.6028 15.9417 25.0776 16.2202 23.6168 16.82C20.5879 18.0196 18.2248 20.333 16.9359 23.3105C15.647 26.288 15.6041 29.6083 16.807 32.6072C18.01 35.6275 20.3301 37.9838 23.3161 39.2691C26.3021 40.5543 29.6318 40.5972 32.6393 39.3976C35.6682 38.198 38.0527 35.8846 39.3201 32.9071C40.6091 29.9296 40.652 26.6093 39.449 23.6104C38.246 20.5901 35.926 18.2338 32.94 16.9485C31.3933 16.2631 29.7607 15.9417 28.128 15.9417Z" fill="#121833"/>
</svg>
