<svg width="73" height="74" viewBox="0 0 73 74" fill="none" xmlns="http://www.w3.org/2000/svg">
<path d="M67.2971 18.6481L59.8858 20.2975C58.9406 18.9694 57.888 17.727 56.7495 16.5917L59.5851 9.54421L53.8709 5.58135L48.2641 10.7224C46.8033 10.0583 45.2781 9.50138 43.7099 9.09438L42.6573 1.55421L35.7186 0.975861L33.4416 8.2161C31.8519 8.36605 30.2622 8.66596 28.6726 9.09438L23.9895 3.09653L17.6953 6.07401L19.3494 13.5071C18.0175 14.4496 16.7716 15.4992 15.6545 16.6345L8.60842 13.7855L4.65574 19.5049L9.81141 25.0958C9.14546 26.5738 8.58693 28.0947 8.17878 29.6584L0.660091 30.708L0.0800781 37.6484L7.3195 39.919C7.46987 41.5256 7.77062 43.1107 8.20026 44.6959L2.20679 49.387L5.1713 55.6848L12.5826 54.0354C13.5278 55.3635 14.5804 56.6059 15.7189 57.7412L12.8833 64.7887L18.5975 68.7515L24.2043 63.6105C25.6651 64.2746 27.1903 64.8315 28.7585 65.2385L29.8111 72.7786L36.7498 73.357L39.0269 66.1168C40.6165 65.9668 42.2062 65.6669 43.7959 65.2385L48.4789 71.2363L54.7731 68.2588L53.119 60.8258C54.4509 59.8833 55.6969 58.8336 56.8139 57.6983L63.86 60.5473L67.8127 54.828L62.6785 49.2157C63.3444 47.7376 63.903 46.2168 64.3111 44.653L71.8298 43.6034L72.4098 36.663L65.1704 34.3924C65.02 32.7859 64.7193 31.2007 64.2896 29.6156L70.2831 24.9244L67.2971 18.6481ZM47.9419 51.3792C34.9023 61.447 16.9649 51.979 17.8886 35.5277C18.1679 30.6009 20.5953 25.974 24.5051 22.9537C37.5446 12.8859 55.482 22.3539 54.5583 38.8051C54.2791 43.7319 51.8516 48.3588 47.9419 51.3792Z" fill="#8C7BFF"/>
</svg>
