<svg width="418" height="406" viewBox="0 0 418 406" fill="none" xmlns="http://www.w3.org/2000/svg">
<path d="M371.298 274.295H57.373V386.701H371.298V274.295Z" fill="black"/>
<path d="M246.415 225.099H46.5518V280.175H246.415V225.099Z" fill="#5479F7"/>
<path d="M246.415 280.958H46.5278C46.1025 280.958 45.748 280.602 45.748 280.175V225.099C45.748 224.672 46.1025 224.317 46.5278 224.317H246.391C246.816 224.317 247.171 224.672 247.171 225.099V280.175C247.194 280.602 246.84 280.958 246.415 280.958ZM47.3313 279.369H245.635V225.881H47.3313V279.369Z" fill="black"/>
<path d="M382.028 225.099H133.582V280.175H382.028V225.099Z" fill="#5479F7"/>
<path d="M382.027 280.958H133.581C133.155 280.958 132.801 280.602 132.801 280.175V225.099C132.801 224.672 133.155 224.317 133.581 224.317H382.027C382.452 224.317 382.807 224.672 382.807 225.099V280.175C382.807 280.602 382.452 280.958 382.027 280.958ZM134.36 279.369H381.247V225.881H134.36V279.369Z" fill="black"/>
<path d="M367.045 229.201H147.474C142.063 229.201 137.668 232.733 137.668 237.072V268.155C137.668 272.517 142.063 276.026 147.474 276.026H367.045C372.456 276.026 376.851 272.494 376.851 268.155V237.096C376.851 232.733 372.456 229.201 367.045 229.201Z" fill="#99B9FF"/>
<path d="M165.161 253.419C165.592 250.756 163.79 248.247 161.136 247.815C158.482 247.383 155.982 249.191 155.551 251.854C155.121 254.517 156.923 257.025 159.577 257.457C162.23 257.89 164.731 256.081 165.161 253.419Z" fill="white"/>
<path d="M180.648 253.768C181.266 251.143 179.646 248.513 177.029 247.893C174.413 247.273 171.791 248.899 171.173 251.524C170.556 254.149 172.176 256.779 174.792 257.399C177.408 258.019 180.03 256.394 180.648 253.768Z" fill="white"/>
<path d="M196.288 253.426C196.719 250.763 194.917 248.254 192.263 247.822C189.609 247.39 187.109 249.198 186.678 251.861C186.248 254.523 188.05 257.032 190.703 257.464C193.357 257.896 195.858 256.088 196.288 253.426Z" fill="white"/>
<path d="M57.7034 273.347C57.0417 273.347 56.4746 272.802 56.4746 272.114V234.298C56.4746 233.634 57.0181 233.065 57.7034 233.065C58.365 233.065 58.9321 233.611 58.9321 234.298V272.138C58.9085 272.802 58.365 273.347 57.7034 273.347Z" fill="black"/>
<path d="M67.1555 273.347C66.4939 273.347 65.9268 272.802 65.9268 272.114V234.298C65.9268 233.634 66.4703 233.065 67.1555 233.065C67.8172 233.065 68.3843 233.611 68.3843 234.298V272.138C68.3607 272.802 67.8172 273.347 67.1555 273.347Z" fill="black"/>
<path d="M76.6077 273.347C75.946 273.347 75.3789 272.802 75.3789 272.114V234.298C75.3789 233.634 75.9224 233.065 76.6077 233.065C77.2929 233.065 77.8364 233.611 77.8364 234.298V272.138C77.8128 272.802 77.2693 273.347 76.6077 273.347Z" fill="black"/>
<path d="M85.8938 273.347C85.2322 273.347 84.665 272.802 84.665 272.114V234.298C84.665 233.634 85.2085 233.065 85.8938 233.065C86.5554 233.065 87.1226 233.611 87.1226 234.298V272.138C87.0989 272.802 86.5554 273.347 85.8938 273.347Z" fill="black"/>
<path d="M95.346 273.347C94.6843 273.347 94.1172 272.802 94.1172 272.114V234.298C94.1172 233.634 94.6607 233.065 95.346 233.065C96.0076 233.065 96.5747 233.611 96.5747 234.298V272.138C96.5511 272.802 96.0076 273.347 95.346 273.347Z" fill="black"/>
<path d="M104.775 273.347C104.113 273.347 103.546 272.802 103.546 272.114V234.298C103.546 233.634 104.089 233.065 104.775 233.065C105.436 233.065 106.003 233.611 106.003 234.298V272.138C106.003 272.802 105.46 273.347 104.775 273.347Z" fill="black"/>
<path d="M113.565 273.347C112.903 273.347 112.336 272.802 112.336 272.114V234.298C112.336 233.634 112.879 233.065 113.565 233.065C114.226 233.065 114.793 233.611 114.793 234.298V272.138C114.793 272.802 114.226 273.347 113.565 273.347Z" fill="black"/>
<path d="M123.017 273.347C122.355 273.347 121.788 272.802 121.788 272.114V234.298C121.788 233.634 122.332 233.065 123.017 233.065C123.678 233.065 124.246 233.611 124.246 234.298V272.138C124.246 272.802 123.678 273.347 123.017 273.347Z" fill="black"/>
<path d="M246.415 286.956H46.5518V342.033H246.415V286.956Z" fill="#5479F7"/>
<path d="M246.415 342.815H46.5278C46.1025 342.815 45.748 342.459 45.748 342.033V286.956C45.748 286.529 46.1025 286.174 46.5278 286.174H246.391C246.816 286.174 247.171 286.529 247.171 286.956V342.033C247.194 342.459 246.84 342.815 246.415 342.815ZM47.3313 341.226H245.635V287.739H47.3313V341.226Z" fill="black"/>
<path d="M382.028 286.956H133.582V342.033H382.028V286.956Z" fill="#5479F7"/>
<path d="M382.027 342.815H133.581C133.155 342.815 132.801 342.459 132.801 342.033V286.956C132.801 286.529 133.155 286.174 133.581 286.174H382.027C382.452 286.174 382.807 286.529 382.807 286.956V342.033C382.807 342.459 382.452 342.815 382.027 342.815ZM134.36 341.226H381.247V287.739H134.36V341.226Z" fill="black"/>
<path d="M367.045 291.058H147.474C142.063 291.058 137.668 294.59 137.668 298.929V330.012C137.668 334.374 142.063 337.883 147.474 337.883H367.045C372.456 337.883 376.851 334.351 376.851 330.012V298.929C376.851 294.59 372.456 291.058 367.045 291.058Z" fill="#99B9FF"/>
<path d="M162.224 319.001C164.708 317.968 165.887 315.111 164.859 312.619C163.83 310.127 160.982 308.943 158.498 309.976C156.015 311.008 154.835 313.865 155.864 316.357C156.893 318.849 159.74 320.033 162.224 319.001Z" fill="white"/>
<path d="M179.361 317.933C181.262 316.026 181.262 312.934 179.361 311.026C177.46 309.119 174.378 309.119 172.477 311.026C170.576 312.934 170.576 316.026 172.477 317.933C174.378 319.841 177.46 319.841 179.361 317.933Z" fill="white"/>
<path d="M193.346 319.003C195.83 317.971 197.01 315.113 195.981 312.621C194.952 310.129 192.104 308.946 189.62 309.978C187.137 311.01 185.957 313.867 186.986 316.36C188.015 318.852 190.862 320.035 193.346 319.003Z" fill="white"/>
<path d="M57.7034 335.204C57.0417 335.204 56.4746 334.659 56.4746 333.971V296.132C56.4746 295.468 57.0181 294.899 57.7034 294.899C58.365 294.899 58.9321 295.444 58.9321 296.132V333.971C58.9085 334.659 58.365 335.204 57.7034 335.204Z" fill="black"/>
<path d="M67.1555 335.204C66.4939 335.204 65.9268 334.659 65.9268 333.971V296.132C65.9268 295.468 66.4703 294.899 67.1555 294.899C67.8172 294.899 68.3843 295.444 68.3843 296.132V333.971C68.3607 334.659 67.8172 335.204 67.1555 335.204Z" fill="black"/>
<path d="M76.6077 335.204C75.946 335.204 75.3789 334.659 75.3789 333.971V296.132C75.3789 295.468 75.9224 294.899 76.6077 294.899C77.2929 294.899 77.8364 295.444 77.8364 296.132V333.971C77.8128 334.659 77.2693 335.204 76.6077 335.204Z" fill="black"/>
<path d="M85.8938 335.204C85.2322 335.204 84.665 334.659 84.665 333.971V296.132C84.665 295.468 85.2085 294.899 85.8938 294.899C86.5554 294.899 87.1226 295.444 87.1226 296.132V333.971C87.0989 334.659 86.5554 335.204 85.8938 335.204Z" fill="black"/>
<path d="M95.346 335.204C94.6843 335.204 94.1172 334.659 94.1172 333.971V296.132C94.1172 295.468 94.6607 294.899 95.346 294.899C96.0076 294.899 96.5747 295.444 96.5747 296.132V333.971C96.5511 334.659 96.0076 335.204 95.346 335.204Z" fill="black"/>
<path d="M104.775 335.204C104.113 335.204 103.546 334.659 103.546 333.971V296.132C103.546 295.468 104.089 294.899 104.775 294.899C105.436 294.899 106.003 295.444 106.003 296.132V333.971C106.003 334.659 105.46 335.204 104.775 335.204Z" fill="black"/>
<path d="M113.565 335.204C112.903 335.204 112.336 334.659 112.336 333.971V296.132C112.336 295.468 112.879 294.899 113.565 294.899C114.226 294.899 114.793 295.444 114.793 296.132V333.971C114.793 334.659 114.226 335.204 113.565 335.204Z" fill="black"/>
<path d="M123.017 335.204C122.355 335.204 121.788 334.659 121.788 333.971V296.132C121.788 295.468 122.332 294.899 123.017 294.899C123.678 294.899 124.246 295.444 124.246 296.132V333.971C124.246 334.659 123.678 335.204 123.017 335.204Z" fill="black"/>
<path d="M246.415 349.572H46.5518V404.648H246.415V349.572Z" fill="#5479F7"/>
<path d="M246.415 405.407H46.5278C46.1025 405.407 45.748 405.051 45.748 404.625V349.548C45.748 349.122 46.1025 348.766 46.5278 348.766H246.391C246.816 348.766 247.171 349.122 247.171 349.548V404.625C247.194 405.075 246.84 405.407 246.415 405.407ZM47.3313 403.842H245.635V350.354H47.3313V403.842Z" fill="black"/>
<path d="M382.028 349.572H133.582V404.648H382.028V349.572Z" fill="#5479F7"/>
<path d="M382.027 405.407H133.581C133.155 405.407 132.801 405.051 132.801 404.625V349.548C132.801 349.122 133.155 348.766 133.581 348.766H382.027C382.452 348.766 382.807 349.122 382.807 349.548V404.625C382.807 405.075 382.452 405.407 382.027 405.407ZM134.36 403.842H381.247V350.354H134.36V403.842Z" fill="black"/>
<path d="M367.045 353.674H147.474C142.063 353.674 137.668 357.206 137.668 361.545V392.628C137.668 396.99 142.063 400.499 147.474 400.499H367.045C372.456 400.499 376.851 396.967 376.851 392.628V361.545C376.851 357.206 372.456 353.674 367.045 353.674Z" fill="#99B9FF"/>
<path d="M162.227 381.617C164.711 380.585 165.89 377.728 164.862 375.236C163.833 372.744 160.985 371.56 158.501 372.592C156.017 373.625 154.838 376.482 155.867 378.974C156.896 381.466 159.743 382.65 162.227 381.617Z" fill="white"/>
<path d="M179.363 380.547C181.264 378.64 181.264 375.547 179.363 373.64C177.462 371.733 174.38 371.733 172.479 373.64C170.578 375.547 170.578 378.64 172.479 380.547C174.38 382.454 177.462 382.454 179.363 380.547Z" fill="white"/>
<path d="M193.348 381.62C195.832 380.587 197.011 377.73 195.983 375.238C194.954 372.746 192.106 371.562 189.622 372.595C187.139 373.627 185.959 376.484 186.988 378.976C188.017 381.468 190.864 382.652 193.348 381.62Z" fill="white"/>
<path d="M57.7034 397.82C57.0417 397.82 56.4746 397.275 56.4746 396.587V358.747C56.4746 358.084 57.0181 357.515 57.7034 357.515C58.365 357.515 58.9321 358.06 58.9321 358.747V396.587C58.9085 397.251 58.365 397.82 57.7034 397.82Z" fill="black"/>
<path d="M67.1555 397.82C66.4939 397.82 65.9268 397.275 65.9268 396.587V358.747C65.9268 358.084 66.4703 357.515 67.1555 357.515C67.8172 357.515 68.3843 358.06 68.3843 358.747V396.587C68.3607 397.251 67.8172 397.82 67.1555 397.82Z" fill="black"/>
<path d="M76.6077 397.82C75.946 397.82 75.3789 397.275 75.3789 396.587V358.747C75.3789 358.084 75.9224 357.515 76.6077 357.515C77.2929 357.515 77.8364 358.06 77.8364 358.747V396.587C77.8128 397.251 77.2693 397.82 76.6077 397.82Z" fill="black"/>
<path d="M85.8938 397.82C85.2322 397.82 84.665 397.275 84.665 396.587V358.747C84.665 358.084 85.2085 357.515 85.8938 357.515C86.5554 357.515 87.1226 358.06 87.1226 358.747V396.587C87.0989 397.251 86.5554 397.82 85.8938 397.82Z" fill="black"/>
<path d="M95.346 397.82C94.6843 397.82 94.1172 397.275 94.1172 396.587V358.747C94.1172 358.084 94.6607 357.515 95.346 357.515C96.0076 357.515 96.5747 358.06 96.5747 358.747V396.587C96.5511 397.251 96.0076 397.82 95.346 397.82Z" fill="black"/>
<path d="M104.775 397.82C104.113 397.82 103.546 397.275 103.546 396.587V358.747C103.546 358.084 104.089 357.515 104.775 357.515C105.436 357.515 106.003 358.06 106.003 358.747V396.587C106.003 397.251 105.46 397.82 104.775 397.82Z" fill="black"/>
<path d="M113.565 397.82C112.903 397.82 112.336 397.275 112.336 396.587V358.747C112.336 358.084 112.879 357.515 113.565 357.515C114.226 357.515 114.793 358.06 114.793 358.747V396.587C114.793 397.251 114.226 397.82 113.565 397.82Z" fill="black"/>
<path d="M123.017 397.82C122.355 397.82 121.788 397.275 121.788 396.587V358.747C121.788 358.084 122.332 357.515 123.017 357.515C123.678 357.515 124.246 358.06 124.246 358.747V396.587C124.246 397.251 123.678 397.82 123.017 397.82Z" fill="black"/>
<path d="M212.93 300.565C215.624 291.627 215.175 285.984 212.717 280.104L208.605 271.877L221.011 266.875L224.816 276.24C226.044 279.251 227.817 282.025 230.038 284.396L232.094 286.577L212.93 300.565Z" fill="white"/>
<path d="M212.929 301.348C212.764 301.348 212.622 301.3 212.48 301.205C212.197 301.016 212.079 300.66 212.197 300.328C215.032 290.963 214.182 285.605 212.031 280.436L207.92 272.233C207.825 272.043 207.802 271.806 207.896 271.593C207.967 271.379 208.132 271.213 208.345 271.142L220.751 266.14C221.153 265.974 221.602 266.163 221.767 266.566L225.571 275.931C226.753 278.871 228.478 281.527 230.628 283.85L232.684 286.032C232.849 286.197 232.92 286.411 232.897 286.648C232.873 286.861 232.755 287.075 232.59 287.217L213.449 301.182C213.26 301.3 213.095 301.348 212.929 301.348ZM209.692 272.28L213.426 279.749C213.426 279.772 213.449 279.772 213.449 279.796C215.954 285.794 216.238 291.224 214.3 298.597L230.888 286.482L229.447 284.941C227.155 282.499 225.335 279.677 224.059 276.548L220.562 267.894L209.692 272.28Z" fill="black"/>
<path d="M226.469 282.025C226.776 281.053 228.052 280.816 228.737 281.551C230.698 283.637 234.125 287.146 236.748 288.948C239.182 290.631 239.938 293.879 238.567 296.487C234.668 303.837 224.838 319.817 214.441 332.004C213.732 332.833 211.96 333.948 209.431 332.81C200.901 328.969 209.006 311.566 213.637 293.429C213.827 292.718 214.394 292.172 215.103 292.03L217.678 291.556C222.451 290.607 224.436 288.355 226.469 282.025Z" fill="black"/>
<path d="M236.156 288.545C236.156 288.545 236.557 288.805 236.746 288.948C239.18 290.631 239.936 293.879 238.566 296.487C234.667 303.837 224.837 319.817 214.44 332.004C213.731 332.833 211.958 333.948 209.43 332.81C208.65 332.454 207.469 331.506 207.469 331.506L208.178 330.605C218.126 317.897 227.105 304.477 235.092 290.465L236.156 288.545Z" fill="white"/>
<path d="M211.535 334.066C210.802 334.066 209.975 333.9 209.101 333.521C208.25 333.142 207.093 332.217 206.974 332.098C206.644 331.838 206.596 331.34 206.856 331.008L207.565 330.107C217.443 317.47 226.493 304.003 234.409 290.062L235.496 288.165C235.614 287.976 235.779 287.833 235.992 287.786C236.205 287.739 236.417 287.786 236.606 287.905C236.606 287.905 237.008 288.165 237.197 288.308C239.938 290.204 240.836 293.879 239.253 296.867C235.212 304.525 225.406 320.339 215.032 332.525C214.323 333.331 213.095 334.066 211.535 334.066ZM208.581 331.34C208.959 331.624 209.408 331.932 209.763 332.075C212.22 333.189 213.614 331.766 213.874 331.482C224.153 319.414 233.865 303.719 237.883 296.108C239.064 293.879 238.426 291.153 236.441 289.659L235.779 290.821C227.816 304.833 218.742 318.371 208.794 331.055L208.581 331.34Z" fill="black"/>
<path d="M210.093 307.749C209.715 307.749 209.384 307.488 209.314 307.085C209.243 306.658 209.526 306.255 209.952 306.184L218.506 304.738C218.931 304.667 219.333 304.951 219.404 305.378C219.475 305.805 219.191 306.208 218.766 306.279L210.212 307.725C210.188 307.749 210.141 307.749 210.093 307.749Z" fill="#CADDFF"/>
<path d="M208.698 312.633C208.32 312.633 207.989 312.349 207.918 311.969C207.848 311.543 208.155 311.14 208.58 311.068L215.575 310.025C216 309.954 216.402 310.262 216.472 310.689C216.543 311.116 216.236 311.519 215.811 311.59L208.816 312.633C208.793 312.633 208.745 312.633 208.698 312.633Z" fill="#CADDFF"/>
<path d="M282.807 170.805C282.807 170.805 196.746 151.861 170.517 166.869C166.571 169.122 162.813 173.864 161.986 178.345C159.458 192.001 167.043 221.78 208.514 277.733C209.105 278.516 210.144 278.824 211.066 278.492L224.228 273.489C225.291 273.086 225.882 271.925 225.551 270.834L207.994 209.166C207.545 207.554 208.868 206.013 210.523 206.203L292.542 216.327L282.807 170.805Z" fill="white"/>
<path d="M210.285 279.393C209.364 279.393 208.466 278.966 207.875 278.184C162.529 216.967 159.174 189.251 161.229 178.179C162.056 173.698 165.814 168.648 170.138 166.158C181.173 159.851 203.527 158.595 236.586 162.412C261.137 165.233 282.759 169.975 282.971 170.023C283.279 170.094 283.515 170.331 283.562 170.615L293.274 216.113C293.321 216.35 293.251 216.611 293.085 216.801C292.92 216.99 292.66 217.085 292.423 217.062L210.404 206.938C209.884 206.867 209.387 207.056 209.033 207.459C208.702 207.862 208.584 208.384 208.726 208.882L226.283 270.549C226.708 272.043 225.928 273.608 224.487 274.153L211.325 279.156C210.994 279.322 210.64 279.393 210.285 279.393ZM203.787 161.89C190.223 161.89 178.172 163.384 170.894 167.533C166.924 169.809 163.498 174.409 162.742 178.463C160.757 189.274 164.112 216.493 209.127 277.235C209.506 277.733 210.167 277.947 210.758 277.71L223.92 272.707C224.605 272.446 224.983 271.711 224.771 271L207.237 209.332C206.954 208.313 207.19 207.246 207.851 206.44C208.537 205.634 209.553 205.254 210.593 205.373L291.525 215.355L282.144 171.445C277.182 170.402 236.184 161.89 203.787 161.89Z" fill="black"/>
<path d="M257.379 333.402L255.701 341.44C253.456 353.152 261.963 359.127 261.963 359.127L236.773 362.209C236.773 362.209 242.279 358.842 241.145 342.602L239.704 328.993L257.379 333.402Z" fill="white"/>
<path d="M236.774 362.991C236.443 362.991 236.136 362.778 236.041 362.47C235.923 362.114 236.065 361.735 236.372 361.545C236.42 361.521 241.453 358.084 240.389 342.649L238.948 329.087C238.924 328.827 239.019 328.589 239.208 328.423C239.397 328.258 239.657 328.186 239.917 328.258L257.592 332.667C257.994 332.762 258.254 333.165 258.159 333.592L256.481 341.629C254.355 352.654 262.105 358.273 262.436 358.51C262.696 358.7 262.814 359.032 262.743 359.34C262.673 359.648 262.413 359.886 262.082 359.933L236.892 363.015C236.821 362.991 236.798 362.991 236.774 362.991ZM240.602 330.036L241.925 342.53C242.682 353.508 240.46 358.819 238.806 361.19L260.144 358.582C257.734 356.211 253.197 350.378 254.946 341.321L256.481 334.019L240.602 330.036Z" fill="black"/>
<path d="M257.903 348.315C259.982 350.71 263.739 355.215 266.646 359.577C268.465 362.304 267.378 365.481 265.441 368.089C261.471 373.447 256.036 377.549 249.632 381.793C244.032 385.491 237.793 389.403 230.279 392.841C228.247 393.79 223.639 395.07 220.567 393.529C211.28 388.882 226.758 374.324 238.951 357.538C239.424 356.874 240.251 356.566 241.031 356.709L243.89 357.278C246.749 357.847 249.656 356.637 251.262 354.219L255.091 348.458C255.729 347.486 257.146 347.415 257.903 348.315Z" fill="black"/>
<path d="M265.159 357.538C265.159 357.538 266.506 359.364 266.648 359.577C267.097 360.265 267.38 361.071 267.522 361.877C267.995 364.509 267.097 367.212 265.254 369.156C264.805 369.63 264.214 370.223 263.505 370.887C256.203 377.857 247.98 383.808 239.119 388.668C234.629 391.134 224.657 396.184 220.569 393.529C219.317 392.699 218.537 390.186 218.537 390.186C218.537 390.186 220.924 391.632 228.084 388.052C240.206 382.006 248.406 375.225 258.401 367.117C260.362 365.528 261.733 364.058 263.127 362.328C264.214 360.952 264.923 359.293 265.159 357.538Z" fill="white"/>
<path d="M223.617 395.07C222.199 395.07 221.041 394.785 220.119 394.193C218.678 393.244 217.851 390.707 217.78 390.423C217.685 390.115 217.78 389.783 218.04 389.569C218.3 389.38 218.654 389.356 218.914 389.522C218.914 389.522 221.206 390.589 227.705 387.341C239.354 381.532 247.483 374.941 256.911 367.283L257.88 366.5C259.605 365.102 260.928 363.75 262.488 361.83C263.504 360.573 264.166 359.056 264.355 357.443C264.402 357.135 264.615 356.874 264.922 356.78C265.229 356.708 265.56 356.803 265.749 357.064C265.985 357.372 267.12 358.913 267.261 359.127C267.734 359.838 268.065 360.715 268.254 361.735C268.75 364.556 267.828 367.52 265.773 369.677C265.347 370.128 264.733 370.721 264 371.432C256.746 378.355 248.475 384.377 239.449 389.332C232.549 393.149 227.232 395.07 223.617 395.07ZM219.789 391.253C220.119 391.917 220.545 392.58 220.97 392.889C223.569 394.596 229.855 392.865 238.716 388.005C247.625 383.121 255.777 377.17 262.937 370.341C263.67 369.654 264.237 369.061 264.662 368.634C266.387 366.832 267.167 364.367 266.741 362.043C266.6 361.237 266.34 360.573 265.985 360.028C265.938 359.98 265.773 359.743 265.536 359.411C265.158 360.644 264.544 361.806 263.717 362.849C262.086 364.864 260.692 366.287 258.873 367.757L257.904 368.539C248.405 376.245 240.205 382.883 228.413 388.787C224.042 390.921 221.324 391.324 219.789 391.253Z" fill="black"/>
<path d="M241.196 370.009C241.149 370.009 241.078 370.009 241.031 369.986L231.626 367.947C231.2 367.852 230.94 367.449 231.035 367.022C231.13 366.595 231.555 366.334 231.957 366.429L241.361 368.468C241.787 368.563 242.047 368.966 241.952 369.393C241.881 369.749 241.574 370.009 241.196 370.009Z" fill="#CADDFF"/>
<path d="M235.998 374.23C235.951 374.23 235.88 374.23 235.809 374.206L228.177 372.404C227.751 372.309 227.491 371.882 227.586 371.456C227.68 371.029 228.106 370.768 228.531 370.863L236.164 372.665C236.589 372.76 236.849 373.186 236.754 373.613C236.683 373.992 236.353 374.23 235.998 374.23Z" fill="#CADDFF"/>
<path d="M227.107 195.486C252.179 173.982 332.875 173.295 332.875 173.295C332.875 173.295 342.942 185.362 338.145 209.593C336.562 217.583 330.914 224.767 322.005 224.767L272.501 225.194C268.885 225.218 266.002 228.252 266.144 231.904C267.066 255.921 267.893 305.544 261.04 339.377C260.756 340.752 259.74 341.843 258.393 342.199C255.227 343.052 249.036 344.451 242.325 344.356C240.222 344.332 238.473 342.744 238.19 340.657L221.767 217.654C221.271 213.956 221.271 210.186 221.885 206.487C222.547 202.552 223.988 198.165 227.107 195.486Z" fill="white"/>
<path d="M242.939 345.138C242.727 345.138 242.514 345.138 242.301 345.138C239.844 345.115 237.741 343.218 237.41 340.752L220.987 217.749C220.467 213.79 220.491 209.973 221.105 206.345C221.98 201.105 223.823 197.241 226.587 194.87C237.103 185.837 258.204 179.34 289.278 175.523C312.364 172.702 332.639 172.488 332.852 172.488C333.088 172.488 333.301 172.583 333.443 172.773C333.868 173.271 343.698 185.41 338.877 209.735C337.436 217.038 332.143 225.549 321.982 225.549L272.501 225.976C270.965 226 269.523 226.616 268.46 227.731C267.396 228.845 266.853 230.315 266.9 231.856C267.893 257.723 268.554 306.089 261.796 339.496C261.465 341.155 260.237 342.483 258.583 342.933C255.534 343.763 249.532 345.138 242.939 345.138ZM227.627 196.079C225.146 198.213 223.468 201.745 222.665 206.63C222.098 210.091 222.05 213.766 222.547 217.56L238.97 340.563C239.206 342.246 240.647 343.55 242.325 343.574C248.989 343.668 255.109 342.27 258.181 341.44C259.244 341.155 260.048 340.302 260.26 339.211C266.995 305.947 266.333 257.723 265.341 231.927C265.27 229.959 265.979 228.086 267.326 226.64C268.673 225.218 270.516 224.411 272.477 224.411L321.982 223.985C331.198 223.985 336.018 216.161 337.341 209.451C341.618 187.852 333.891 176.021 332.45 174.077C326.401 174.172 251.304 175.76 227.627 196.079Z" fill="black"/>
<path d="M244.192 116.464L237.552 129.243C231.101 140.884 220.751 148.59 209.267 155.252L204.612 157.955C201.635 159.685 198.161 160.373 194.735 159.923L194.238 159.851C189.016 159.164 183.723 160.397 179.375 163.36L190.93 167.794C197.972 170.497 205.817 170.402 212.741 167.344C219.357 164.427 234.291 160.847 241.309 152.62C256.055 135.384 255.487 131.566 255.487 131.566L244.192 116.464Z" fill="white"/>
<path d="M201.352 170.544C197.761 170.544 194.145 169.88 190.648 168.529L179.093 164.095C178.809 164.001 178.62 163.74 178.597 163.455C178.573 163.171 178.691 162.886 178.928 162.72C183.465 159.662 188.923 158.358 194.334 159.093L194.854 159.164C198.092 159.591 201.4 158.927 204.235 157.291L208.89 154.588C218.91 148.756 230.087 141.145 236.868 128.864L243.485 116.108C243.603 115.871 243.839 115.705 244.123 115.681C244.406 115.658 244.643 115.776 244.808 115.989L256.103 131.116C256.174 131.211 256.221 131.353 256.245 131.472C256.316 131.898 256.458 136.142 241.902 153.165C236.396 159.591 226.282 163.218 218.886 165.874C216.594 166.703 214.585 167.415 213.049 168.102C209.316 169.714 205.346 170.544 201.352 170.544ZM181.125 163.194L191.215 167.083C198.186 169.762 205.724 169.596 212.435 166.656C214.018 165.945 216.05 165.233 218.366 164.404C225.597 161.819 235.498 158.263 240.72 152.146C253.197 137.565 254.544 132.776 254.686 131.851L244.312 117.957L238.239 129.622C231.244 142.236 219.878 150.012 209.67 155.939L205.015 158.642C201.896 160.444 198.21 161.179 194.665 160.705L194.145 160.634C189.608 160.041 185.048 160.942 181.125 163.194Z" fill="black"/>
<path d="M277.821 178.155C277.821 178.155 276.97 179.886 299.348 183.134C315.487 185.481 330.138 184.438 337.062 183.679C339.307 183.442 340.842 181.261 340.299 179.056C338.479 171.777 337.156 164.996 330.162 146.503C325.318 133.653 332.69 110.252 317.614 96.3346C292.188 72.8388 257.121 102.807 257.121 102.807L246.086 119.072C258.728 133.937 268.653 150.937 275.411 169.24L277.821 178.155Z" fill="#5479F7"/>
<path d="M287.224 133.273C287.2 133.273 287.177 133.273 287.13 133.273C286.704 133.226 286.397 132.847 286.444 132.42L288.335 114.733C288.382 114.306 288.76 113.998 289.185 114.045C289.611 114.093 289.918 114.472 289.871 114.899L287.98 132.586C287.98 132.965 287.626 133.273 287.224 133.273Z" fill="#CADDFF"/>
<path d="M310.548 142.994C310.43 142.994 310.312 142.97 310.193 142.899C309.815 142.71 309.674 142.236 309.863 141.832C313.809 134.293 319.007 113.808 319.102 109.612C319.102 109.185 319.456 108.829 319.905 108.853C320.331 108.853 320.685 109.232 320.662 109.659C320.543 114.069 315.368 134.696 311.257 142.567C311.115 142.828 310.831 142.994 310.548 142.994Z" fill="#CADDFF"/>
<path d="M168.036 164.973L227.796 169.548L194.95 109.991C193.722 107.739 191.406 106.269 188.83 106.079L140.341 102.38C137.27 102.143 135.143 105.32 136.584 107.976L168.036 164.973Z" fill="black"/>
<path d="M183.944 140.377C184.888 139.14 183.787 136.705 181.486 134.939C179.184 133.173 176.554 132.744 175.611 133.982C174.667 135.22 175.768 137.655 178.069 139.421C180.37 141.187 183.001 141.615 183.944 140.377Z" fill="white"/>
<path d="M170.942 168.837L264.683 175.997C266.62 176.14 268.298 174.693 268.463 172.749L268.629 172.228L167.87 164.522L167.705 165.044C167.563 166.988 169.005 168.695 170.942 168.837Z" fill="black"/>
<path d="M218.794 158.002L230.987 153.758C232.806 153.118 234.815 153.497 236.28 154.73L241.951 159.425C243.038 160.326 244.409 160.752 245.803 160.681C251.899 160.278 280.35 152.478 282.524 147.286C284.367 142.923 285.785 137.707 285.785 137.707L307.855 145.436C307.855 145.436 307.501 152.264 298.522 161.464C290.889 169.288 271.205 171.896 244.125 170.26C244.125 170.26 238.454 169.62 233.728 163.929C230.703 160.302 223.307 162.175 218.935 161.084C217.376 160.705 217.281 158.524 218.794 158.002Z" fill="white"/>
<path d="M258.492 171.493C254.002 171.493 249.182 171.35 244.077 171.018C243.794 170.995 238.004 170.26 233.113 164.404C231.364 162.317 227.773 162.293 224.275 162.246C222.243 162.222 220.329 162.222 218.722 161.819C217.659 161.558 216.95 160.681 216.903 159.614C216.856 158.524 217.494 157.599 218.51 157.243L230.703 152.999C232.759 152.288 235.074 152.715 236.752 154.09L242.423 158.785C243.345 159.543 244.526 159.923 245.732 159.851C252.277 159.425 279.853 151.577 281.791 146.93C283.587 142.662 285.005 137.494 285.028 137.446C285.076 137.233 285.217 137.067 285.43 136.948C285.619 136.854 285.855 136.83 286.044 136.901L308.115 144.63C308.446 144.749 308.658 145.057 308.635 145.413C308.611 145.697 308.162 152.644 299.088 161.938C292.968 168.268 279.05 171.493 258.492 171.493ZM219.03 158.737C218.486 158.927 218.462 159.401 218.486 159.567C218.486 159.709 218.557 160.207 219.124 160.326C220.565 160.681 222.385 160.705 224.323 160.705C228.151 160.729 232.121 160.776 234.342 163.408C238.808 168.766 244.196 169.454 244.243 169.454C272.268 171.161 290.865 168.197 298.001 160.895C305.161 153.568 306.697 147.76 307.028 145.958L286.352 138.703C285.879 140.339 284.697 144.227 283.28 147.57C280.822 153.426 251.521 161.061 245.873 161.44C244.266 161.535 242.707 161.037 241.454 160.017L235.783 155.323C234.531 154.28 232.782 153.972 231.246 154.493L219.03 158.737Z" fill="black"/>
<path d="M260.143 101.171C245.067 109.28 238.971 121.158 231.078 131.756C236.631 136.806 243.271 143.634 247.572 148.495C251.636 145.365 256.764 142.188 260.498 137.707L260.143 101.171Z" fill="#5479F7"/>
<path d="M278.883 71.7245L278.906 88.2735C278.812 90.431 277.394 92.304 275.362 93.0153L272.219 94.3667C271.416 94.7224 274.322 99.1323 287.248 97.1407C292.21 96.382 296.936 94.4379 301.071 91.5691L304.096 89.459C301.993 89.1507 296.251 87.6096 295.731 85.5469L290.958 63.9953L278.883 71.7245Z" fill="white"/>
<path d="M281.152 98.4447C274.134 98.4447 271.676 96.0264 271.369 94.9595C271.18 94.2956 271.511 93.8451 271.913 93.6555L275.055 92.3041C275.079 92.3041 275.103 92.2803 275.103 92.2803C276.851 91.6876 278.033 90.0991 278.127 88.2498L278.104 71.7245C278.104 71.4637 278.245 71.2029 278.458 71.0607L290.533 63.3315C290.746 63.1892 291.006 63.1655 291.242 63.2603C291.478 63.3552 291.644 63.5686 291.715 63.8056L296.488 85.3573C296.819 86.6139 301.403 88.2498 304.191 88.6528C304.498 88.7003 304.758 88.9374 304.829 89.2456C304.9 89.5538 304.782 89.8857 304.522 90.0754L301.497 92.1855C297.244 95.1492 292.353 97.117 287.343 97.8994C284.98 98.3025 282.924 98.4447 281.152 98.4447ZM273.094 94.8646C274.016 95.813 277.702 97.8283 287.13 96.382C291.904 95.647 296.582 93.774 300.623 90.9289L302.159 89.862C299.702 89.2693 295.519 87.9416 294.976 85.7603L290.439 65.2756L279.663 72.1513L279.687 88.2735C279.569 90.8104 277.985 92.9205 275.646 93.7503L273.094 94.8646Z" fill="black"/>
<path d="M256.885 53.0654C260.453 50.3626 258.35 57.333 269.409 44.1033C273.828 38.8399 275.317 47.1144 276.475 45.7393C280.704 40.7129 280.563 40.8789 283.587 39.8357C285.572 39.1481 288.786 41.5427 290.015 44.1033C291.669 47.47 289.636 49.9832 291.74 58.0206C293.228 63.6634 295.473 66.2003 294.079 68.097C292.685 70.0174 289.636 68.4289 287.935 70.4205C285.737 72.9811 289.4 77.2961 288.077 80.9948C287.25 83.3183 283.776 86.4716 275.6 87.5859C274.277 87.7756 273.001 86.9695 272.576 85.6892C272.032 84.0533 271.347 81.9906 270.874 79.9516C268.582 70.2545 270.165 66.6744 267.826 65.323C264.234 63.2603 259.603 68.9031 256.956 67.0301C254.239 65.0859 251.994 56.764 256.885 53.0654Z" fill="black"/>
<path d="M277.208 55.46L277.468 58.1628C277.586 59.4431 277.799 60.6997 278.106 61.9563C278.673 64.3035 279.595 68.3104 279.949 70.6101C280.469 73.9768 270.214 76.3003 270.214 76.3003L268.654 75.0438L267.449 75.2808C267.213 75.3283 266.976 75.3283 266.74 75.2571C266.173 75.0675 265.819 74.5459 265.819 73.9768C265.842 70.9184 265.653 64.2324 263.881 59.2772C263.904 59.2772 268.914 53.6581 277.208 55.46Z" fill="white"/>
<path d="M270.213 77.059C270.048 77.059 269.859 76.9879 269.717 76.8931L268.465 75.8736L267.614 76.0395C267.236 76.1107 266.834 76.1107 266.503 75.9921C265.629 75.7076 265.062 74.9015 265.062 73.9768C265.085 71.274 264.92 64.4458 263.171 59.538C263.077 59.2772 263.124 58.969 263.337 58.7556C263.55 58.5185 268.748 52.8046 277.397 54.7013C277.728 54.7724 277.987 55.0569 278.011 55.3889L278.271 58.0917C278.389 59.3246 278.602 60.5575 278.885 61.7666C279.429 64.019 280.374 68.1444 280.729 70.4916C281.319 74.3799 272.222 76.656 270.379 77.059C270.331 77.059 270.26 77.059 270.213 77.059ZM268.654 74.2376C268.843 74.2376 269.008 74.3088 269.15 74.4036L270.402 75.4231C274.23 74.4984 279.453 72.4595 279.169 70.705C278.815 68.4289 277.869 64.3509 277.349 62.1223C277.042 60.842 276.83 59.538 276.688 58.234L276.475 56.1001C270.142 54.9621 265.936 58.3999 264.778 59.4668C266.385 64.3509 266.621 70.6102 266.598 73.9531C266.598 74.1902 266.74 74.4036 266.976 74.4747C267.047 74.4984 267.165 74.4984 267.283 74.4747L268.488 74.2376C268.559 74.2376 268.606 74.2376 268.654 74.2376Z" fill="black"/>
<path d="M280.352 63.4263C280.352 63.4263 279.714 56.93 282.715 57.2856C285.716 57.6175 286.236 64.8014 280.352 63.4263Z" fill="white"/>
<path d="M390.298 149.87C389.944 149.87 389.613 149.633 389.542 149.253C385.785 133.036 379.618 117.436 371.205 102.902C365.959 93.8214 359.839 85.1913 353.057 77.2961C352.774 76.9642 352.821 76.4663 353.128 76.1818C353.459 75.8973 353.955 75.9447 354.239 76.2529C361.092 84.2192 367.235 92.9205 372.552 102.096C381.035 116.772 387.25 132.515 391.055 148.874C391.149 149.301 390.889 149.728 390.464 149.822C390.417 149.87 390.346 149.87 390.298 149.87Z" fill="#FFC107"/>
<path d="M405.091 169.62C404.689 169.62 404.358 169.335 404.311 168.932C404.027 166.514 403.72 164.072 403.342 161.677C403.271 161.25 403.579 160.847 404.004 160.776C404.429 160.705 404.831 161.013 404.902 161.44C405.28 163.858 405.611 166.324 405.894 168.766C405.942 169.193 405.634 169.596 405.209 169.643C405.138 169.62 405.114 169.62 405.091 169.62Z" fill="#FFC107"/>
<path d="M404.099 162.317C403.721 162.317 403.39 162.033 403.319 161.653C399.94 139.936 392.638 119.238 381.603 100.128C380.469 98.1602 379.264 96.1686 378.058 94.2482C377.822 93.8926 377.94 93.3947 378.295 93.1576C378.649 92.9205 379.145 93.039 379.382 93.3947C380.611 95.3388 381.816 97.3304 382.95 99.322C394.08 118.597 401.476 139.485 404.879 161.393C404.949 161.819 404.642 162.222 404.217 162.293C404.193 162.317 404.146 162.317 404.099 162.317Z" fill="#FFC107"/>
<path d="M346.961 78.0074L347.032 67.1012L356.082 70.5865L346.961 78.0074ZM348.568 69.3773L348.544 74.6881L352.987 71.0843L348.568 69.3773Z" fill="#FFC107"/>
<path d="M378.721 53.184C378.296 53.184 377.941 52.8283 377.941 52.4015V48.3473C377.941 47.9205 378.296 47.5649 378.721 47.5649C379.147 47.5649 379.501 47.9205 379.501 48.3473V52.4015C379.501 52.8283 379.17 53.184 378.721 53.184Z" fill="#FFC107"/>
<path d="M378.721 62.6439C378.296 62.6439 377.941 62.2883 377.941 61.8615V57.8072C377.941 57.3805 378.296 57.0248 378.721 57.0248C379.147 57.0248 379.501 57.3805 379.501 57.8072V61.8615C379.501 62.2883 379.17 62.6439 378.721 62.6439Z" fill="#FFC107"/>
<path d="M376.051 55.8868H372.01C371.585 55.8868 371.23 55.5312 371.23 55.1044C371.23 54.6776 371.585 54.322 372.01 54.322H376.051C376.476 54.322 376.831 54.6776 376.831 55.1044C376.831 55.5312 376.476 55.8868 376.051 55.8868Z" fill="#FFC107"/>
<path d="M385.457 55.8868H381.416C380.991 55.8868 380.637 55.5312 380.637 55.1044C380.637 54.6776 380.991 54.322 381.416 54.322H385.457C385.883 54.322 386.237 54.6776 386.237 55.1044C386.237 55.5312 385.883 55.8868 385.457 55.8868Z" fill="#FFC107"/>
<path d="M412.298 301.371C411.259 301.371 410.266 301.039 409.439 300.376C408.447 299.593 407.809 298.479 407.643 297.246C407.478 295.989 407.809 294.757 408.588 293.761C409.368 292.765 410.455 292.125 411.708 291.959C412.96 291.793 414.189 292.125 415.181 292.907C416.174 293.69 416.812 294.78 416.977 296.037C417.308 298.621 415.488 300.992 412.913 301.324C412.7 301.371 412.487 301.371 412.298 301.371ZM412.298 293.5C412.156 293.5 412.038 293.5 411.897 293.524C411.069 293.618 410.313 294.045 409.817 294.709C409.297 295.373 409.085 296.203 409.179 297.033C409.274 297.862 409.699 298.621 410.361 299.119C411.022 299.641 411.849 299.854 412.676 299.759C414.401 299.546 415.606 297.957 415.394 296.226C415.299 295.397 414.874 294.638 414.212 294.14C413.669 293.737 412.984 293.5 412.298 293.5Z" fill="#FFC107"/>
<path d="M392.164 325.27C391.999 325.27 391.833 325.223 391.692 325.104L389.825 323.658C389.494 323.397 389.423 322.899 389.683 322.567C389.943 322.235 390.439 322.164 390.77 322.425L392.637 323.871C392.968 324.132 393.039 324.63 392.779 324.962C392.613 325.175 392.377 325.27 392.164 325.27Z" fill="#FFC107"/>
<path d="M398.662 330.344C398.497 330.344 398.332 330.296 398.19 330.178L396.323 328.732C395.992 328.471 395.921 327.973 396.181 327.641C396.441 327.309 396.937 327.238 397.268 327.499L399.135 328.945C399.466 329.206 399.537 329.704 399.277 330.036C399.135 330.225 398.899 330.344 398.662 330.344Z" fill="#FFC107"/>
<path d="M391.243 331.292C391.077 331.292 390.912 331.245 390.77 331.126C390.439 330.865 390.369 330.368 390.628 330.036L392.07 328.163C392.33 327.831 392.826 327.76 393.157 328.02C393.488 328.281 393.559 328.779 393.299 329.111L391.857 330.984C391.715 331.174 391.479 331.292 391.243 331.292Z" fill="#FFC107"/>
<path d="M396.276 324.749C396.111 324.749 395.945 324.701 395.803 324.583C395.473 324.322 395.402 323.824 395.662 323.492L397.103 321.619C397.363 321.287 397.859 321.216 398.19 321.477C398.521 321.737 398.592 322.235 398.332 322.567L396.89 324.44C396.749 324.654 396.512 324.749 396.276 324.749Z" fill="#FFC107"/>
<path d="M40.385 10.6497C37.6675 10.6497 35.4699 8.42107 35.4699 5.71823C35.4463 2.99168 37.6675 0.763016 40.385 0.763016C43.1024 0.763016 45.3 2.99168 45.3 5.69452C45.3 8.42107 43.1024 10.6497 40.385 10.6497ZM40.385 2.32782C38.5418 2.32782 37.0295 3.84521 37.0295 5.69452C37.0295 7.54383 38.5418 9.06122 40.385 9.06122C42.2281 9.06122 43.7404 7.54383 43.7404 5.69452C43.7404 3.84521 42.2281 2.32782 40.385 2.32782Z" fill="#FFC107"/>
<path d="M9.17042 18.8531C8.74508 18.8531 8.39062 18.4975 8.39062 18.0707V14.6092C8.39062 14.1824 8.74508 13.8268 9.17042 13.8268C9.59576 13.8268 9.95021 14.1824 9.95021 14.6092V18.0707C9.95021 18.4975 9.59576 18.8531 9.17042 18.8531Z" fill="#FFC107"/>
<path d="M9.17042 26.8905C8.74508 26.8905 8.39062 26.5349 8.39062 26.1081V22.6466C8.39062 22.2198 8.74508 21.8642 9.17042 21.8642C9.59576 21.8642 9.95021 22.2198 9.95021 22.6466V26.0844C9.95021 26.5349 9.59576 26.8905 9.17042 26.8905Z" fill="#FFC107"/>
<path d="M6.87803 21.1529H3.45167C3.02633 21.1529 2.67188 20.7973 2.67188 20.3705C2.67188 19.9437 3.02633 19.5881 3.45167 19.5881H6.87803C7.30337 19.5881 7.65782 19.9437 7.65782 20.3705C7.65782 20.7973 7.30337 21.1529 6.87803 21.1529Z" fill="#FFC107"/>
<path d="M14.889 21.1529H11.439C11.0136 21.1529 10.6592 20.7973 10.6592 20.3705C10.6592 19.9437 11.0136 19.5881 11.439 19.5881H14.889C15.3143 19.5881 15.6688 19.9437 15.6688 20.3705C15.6688 20.7973 15.3143 21.1529 14.889 21.1529Z" fill="#FFC107"/>
<path d="M49.6955 43.0127C52.5536 43.0127 54.8705 40.688 54.8705 37.8204C54.8705 34.9528 52.5536 32.6281 49.6955 32.6281C46.8374 32.6281 44.5205 34.9528 44.5205 37.8204C44.5205 40.688 46.8374 43.0127 49.6955 43.0127Z" fill="#99B9FF"/>
<path d="M389.525 181.491C390.064 179.345 388.778 177.17 386.652 176.631C384.527 176.093 382.366 177.397 381.826 179.542C381.287 181.688 382.573 183.863 384.699 184.402C386.825 184.94 388.985 183.636 389.525 181.491Z" fill="#99B9FF"/>
<path d="M374.373 210.044C374.043 210.044 373.712 209.996 373.381 209.925C370.994 209.38 369.458 206.938 369.978 204.496C370.096 203.903 370.333 203.334 370.687 202.836C370.923 202.48 371.42 202.386 371.774 202.646C372.128 202.884 372.223 203.381 371.963 203.737C371.727 204.069 371.585 204.425 371.49 204.828C371.16 206.44 372.152 208.052 373.712 208.408C374.468 208.574 375.224 208.455 375.862 208.028C376.524 207.602 376.973 206.938 377.138 206.155C377.469 204.543 376.476 202.931 374.917 202.575C374.491 202.48 374.232 202.054 374.326 201.627C374.421 201.2 374.846 200.939 375.271 201.034C377.658 201.58 379.194 204.022 378.674 206.464C378.414 207.673 377.729 208.692 376.689 209.332C376.004 209.807 375.177 210.044 374.373 210.044Z" fill="#FFC107"/>
<path d="M392.189 200.892L397.057 190.175L401.831 199.967L392.189 200.892ZM397.105 193.85L394.742 199.066L399.444 198.616L397.105 193.85Z" fill="#FFC107"/>
<path d="M381.484 359.909C381.154 359.909 380.846 359.696 380.752 359.388C380.61 358.985 380.823 358.534 381.248 358.392C381.815 358.202 382.382 357.989 382.973 357.775C383.375 357.633 383.824 357.847 383.966 358.25C384.107 358.653 383.895 359.103 383.493 359.245C382.902 359.459 382.311 359.672 381.744 359.862C381.65 359.885 381.579 359.909 381.484 359.909ZM388.999 356.874C388.715 356.874 388.432 356.708 388.29 356.424C388.101 356.045 388.266 355.57 388.668 355.381C390.582 354.456 392.402 353.46 394.056 352.393C394.41 352.156 394.906 352.275 395.143 352.63C395.379 352.986 395.261 353.484 394.906 353.721C393.205 354.812 391.338 355.855 389.353 356.803C389.235 356.827 389.117 356.874 388.999 356.874ZM399.491 350.094C399.278 350.094 399.065 349.999 398.9 349.833C398.616 349.501 398.64 349.003 398.971 348.718C400.554 347.32 401.948 345.826 403.153 344.261C403.413 343.929 403.909 343.858 404.24 344.119C404.571 344.38 404.642 344.878 404.382 345.21C403.13 346.845 401.641 348.41 399.987 349.88C399.845 350.022 399.68 350.094 399.491 350.094ZM407.029 340.183C406.91 340.183 406.816 340.16 406.698 340.112C406.296 339.922 406.131 339.472 406.32 339.069C407.17 337.243 407.808 335.299 408.257 333.308C408.352 332.881 408.754 332.62 409.179 332.715C409.604 332.81 409.864 333.213 409.77 333.639C409.321 335.773 408.635 337.812 407.737 339.733C407.596 340.017 407.312 340.183 407.029 340.183ZM409.699 328.02C409.25 328.02 408.919 327.665 408.919 327.214C408.919 327.025 408.919 326.811 408.919 326.622C408.919 324.843 408.777 322.994 408.517 321.097C408.446 320.671 408.754 320.268 409.179 320.22C409.604 320.173 410.006 320.457 410.053 320.884C410.337 322.852 410.479 324.796 410.479 326.645C410.479 326.859 410.479 327.072 410.479 327.262C410.479 327.688 410.124 328.02 409.699 328.02ZM408.021 315.644C407.667 315.644 407.359 315.407 407.265 315.075C406.745 313.178 406.107 311.187 405.374 309.172C405.233 308.769 405.422 308.318 405.823 308.152C406.225 308.01 406.674 308.2 406.839 308.603C407.596 310.665 408.257 312.681 408.777 314.648C408.895 315.075 408.635 315.502 408.234 315.621C408.163 315.621 408.092 315.644 408.021 315.644ZM403.697 303.861C403.413 303.861 403.13 303.695 402.988 303.41C402.161 301.608 401.216 299.712 400.199 297.839C399.987 297.459 400.129 296.985 400.507 296.772C400.885 296.558 401.357 296.701 401.57 297.08C402.586 299 403.555 300.897 404.382 302.746C404.571 303.149 404.382 303.6 404.004 303.79C403.909 303.861 403.791 303.861 403.697 303.861ZM397.789 292.812C397.529 292.812 397.269 292.67 397.128 292.433C396.088 290.702 394.977 288.948 393.796 287.146C393.559 286.79 393.654 286.292 394.008 286.055C394.363 285.818 394.859 285.913 395.095 286.269C396.277 288.07 397.411 289.872 398.474 291.603C398.687 291.982 398.569 292.457 398.214 292.67C398.049 292.765 397.907 292.812 397.789 292.812ZM390.866 282.309C390.629 282.309 390.393 282.191 390.228 281.977C389.046 280.341 387.817 278.634 386.518 276.951C386.258 276.595 386.329 276.121 386.659 275.86C387.014 275.599 387.486 275.671 387.746 276.003C389.046 277.71 390.298 279.417 391.48 281.076C391.74 281.432 391.645 281.93 391.291 282.167C391.196 282.262 391.031 282.309 390.866 282.309ZM383.304 272.328C383.068 272.328 382.855 272.233 382.69 272.043C381.414 270.455 380.09 268.842 378.72 267.206C378.436 266.875 378.483 266.377 378.814 266.092C379.145 265.808 379.641 265.855 379.925 266.187C381.295 267.823 382.642 269.459 383.918 271.047C384.178 271.379 384.131 271.877 383.8 272.162C383.635 272.256 383.469 272.328 383.304 272.328ZM375.199 262.725C374.986 262.725 374.773 262.631 374.608 262.465C373.261 260.924 371.843 259.359 370.426 257.818C370.142 257.509 370.166 257.012 370.473 256.703C370.78 256.419 371.276 256.419 371.583 256.751C373.025 258.315 374.419 259.88 375.79 261.421C376.073 261.753 376.05 262.251 375.719 262.536C375.577 262.654 375.388 262.725 375.199 262.725ZM366.739 253.455C366.527 253.455 366.338 253.384 366.172 253.218C364.778 251.748 363.313 250.231 361.824 248.713C361.517 248.405 361.517 247.907 361.824 247.599C362.131 247.291 362.628 247.291 362.935 247.599C364.424 249.116 365.889 250.634 367.306 252.127C367.614 252.436 367.59 252.934 367.283 253.242C367.117 253.384 366.928 253.455 366.739 253.455ZM357.949 244.493C357.76 244.493 357.547 244.422 357.405 244.256C355.893 242.762 354.57 241.458 353.483 240.391L352.939 239.87C352.632 239.562 352.632 239.064 352.916 238.755C353.223 238.447 353.719 238.447 354.026 238.732L354.57 239.277C355.657 240.344 356.98 241.648 358.492 243.142C358.8 243.45 358.8 243.948 358.492 244.256C358.351 244.422 358.162 244.493 357.949 244.493ZM348.922 235.792C348.733 235.792 348.544 235.721 348.402 235.578C346.89 234.18 345.33 232.757 343.771 231.382C343.44 231.097 343.416 230.6 343.7 230.268C343.984 229.936 344.48 229.912 344.811 230.196C346.37 231.572 347.953 232.994 349.466 234.417C349.773 234.701 349.797 235.199 349.513 235.531C349.348 235.697 349.135 235.792 348.922 235.792ZM339.517 227.494C339.352 227.494 339.163 227.422 339.021 227.304C337.438 225.976 335.808 224.649 334.201 223.345C333.87 223.084 333.799 222.586 334.083 222.254C334.342 221.922 334.839 221.851 335.17 222.135C336.8 223.439 338.454 224.791 340.037 226.118C340.368 226.403 340.415 226.901 340.132 227.233C339.966 227.399 339.754 227.494 339.517 227.494ZM329.735 219.693C329.569 219.693 329.404 219.646 329.262 219.527C327.632 218.271 325.93 217.038 324.252 215.805C323.898 215.544 323.827 215.07 324.087 214.714C324.347 214.359 324.82 214.288 325.174 214.548C326.875 215.781 328.577 217.038 330.207 218.294C330.562 218.555 330.609 219.053 330.349 219.385C330.207 219.575 329.971 219.693 329.735 219.693ZM319.597 212.343C319.456 212.343 319.29 212.296 319.148 212.201C317.447 211.016 315.698 209.854 313.973 208.716C313.619 208.479 313.501 207.981 313.737 207.625C313.973 207.27 314.47 207.151 314.824 207.388C316.573 208.526 318.321 209.712 320.023 210.897C320.377 211.134 320.472 211.632 320.235 211.988C320.094 212.225 319.834 212.343 319.597 212.343ZM309.129 205.468C308.987 205.468 308.846 205.42 308.727 205.349C306.979 204.259 305.183 203.168 303.387 202.101C303.009 201.888 302.891 201.39 303.104 201.034C303.316 200.655 303.812 200.536 304.167 200.75C305.963 201.817 307.782 202.931 309.531 204.022C309.909 204.259 310.003 204.733 309.791 205.112C309.649 205.326 309.389 205.468 309.129 205.468ZM298.354 199.066C298.212 199.066 298.094 199.043 297.976 198.972C296.18 197.952 294.337 196.933 292.517 195.96C292.139 195.747 291.997 195.273 292.186 194.894C292.399 194.514 292.872 194.372 293.25 194.562C295.093 195.534 296.936 196.553 298.756 197.596C299.134 197.81 299.275 198.284 299.063 198.663C298.897 198.924 298.637 199.066 298.354 199.066ZM287.342 193.139C287.224 193.139 287.106 193.115 286.988 193.044C285.145 192.12 283.278 191.171 281.388 190.27C281.009 190.081 280.844 189.606 281.033 189.227C281.222 188.848 281.695 188.682 282.073 188.871C283.963 189.772 285.854 190.721 287.697 191.645C288.075 191.835 288.24 192.309 288.051 192.689C287.886 192.997 287.626 193.139 287.342 193.139ZM276.071 187.71C275.953 187.71 275.858 187.686 275.74 187.639C273.85 186.785 271.935 185.931 270.045 185.102C269.643 184.936 269.454 184.462 269.643 184.082C269.809 183.679 270.281 183.489 270.659 183.679C272.573 184.509 274.488 185.362 276.402 186.216C276.803 186.406 276.969 186.856 276.78 187.259C276.638 187.544 276.354 187.71 276.071 187.71ZM264.563 182.754C264.468 182.754 264.374 182.731 264.279 182.707C262.365 181.925 260.404 181.142 258.466 180.407C258.065 180.241 257.852 179.791 258.017 179.388C258.183 178.985 258.632 178.771 259.033 178.937C260.971 179.672 262.932 180.455 264.87 181.237C265.272 181.403 265.461 181.853 265.295 182.257C265.177 182.565 264.87 182.754 264.563 182.754ZM252.89 178.25C252.795 178.25 252.701 178.226 252.63 178.202C250.692 177.491 248.707 176.803 246.746 176.14C246.344 175.997 246.108 175.547 246.25 175.144C246.391 174.741 246.84 174.504 247.242 174.646C249.227 175.31 251.212 176.021 253.15 176.732C253.551 176.875 253.764 177.325 253.622 177.728C253.504 178.06 253.22 178.25 252.89 178.25ZM241.051 174.219C240.98 174.219 240.886 174.219 240.815 174.172C238.83 173.532 236.821 172.915 234.86 172.322C234.435 172.204 234.198 171.753 234.34 171.35C234.458 170.924 234.907 170.686 235.309 170.829C237.294 171.421 239.326 172.038 241.311 172.678C241.713 172.82 241.949 173.247 241.831 173.674C241.689 174.006 241.382 174.219 241.051 174.219Z" fill="white"/>
<path d="M46.3149 226.118C46.1259 226.118 45.9132 226.047 45.7714 225.881C44.2827 224.388 42.794 222.87 41.3762 221.4C41.069 221.092 41.0927 220.594 41.3999 220.286C41.7071 219.978 42.2033 220.002 42.5105 220.31C43.9283 221.78 45.3933 223.273 46.882 224.767C47.1892 225.075 47.1892 225.573 46.882 225.881C46.7166 226.047 46.504 226.118 46.3149 226.118ZM37.6427 217.062C37.43 217.062 37.2173 216.967 37.0756 216.801C35.6578 215.236 34.24 213.671 32.8694 212.13C32.5859 211.798 32.6095 211.3 32.9403 211.016C33.2711 210.731 33.7674 210.755 34.0509 211.087C35.3978 212.628 36.8156 214.193 38.2334 215.734C38.517 216.042 38.517 216.54 38.1862 216.848C38.0208 217.014 37.8317 217.062 37.6427 217.062ZM29.3722 207.649C29.1595 207.649 28.9232 207.554 28.7814 207.365C27.4345 205.729 26.0876 204.093 24.8352 202.457C24.5753 202.125 24.6225 201.627 24.977 201.366C25.3078 201.105 25.804 201.153 26.064 201.508C27.3163 203.121 28.6396 204.757 29.9865 206.369C30.2701 206.701 30.2228 207.199 29.892 207.483C29.7266 207.578 29.5612 207.649 29.3722 207.649ZM21.6688 197.762C21.4325 197.762 21.1962 197.644 21.0308 197.43C19.7784 195.723 18.5496 193.993 17.3917 192.286C17.1554 191.93 17.2499 191.432 17.6044 191.195C17.9588 190.958 18.4551 191.053 18.6914 191.408C19.8256 193.092 21.0544 194.799 22.2831 196.506C22.5431 196.861 22.4722 197.336 22.1177 197.596C21.976 197.715 21.8105 197.762 21.6688 197.762ZM14.627 187.378C14.3671 187.378 14.1071 187.235 13.9654 186.998C12.8311 185.173 11.7678 183.347 10.7517 181.569C10.539 181.19 10.6808 180.715 11.0589 180.502C11.4369 180.289 11.9095 180.431 12.1222 180.81C13.1147 182.565 14.178 184.39 15.2886 186.169C15.5249 186.548 15.4068 187.022 15.0287 187.259C14.9106 187.354 14.7688 187.378 14.627 187.378ZM8.53045 176.424C8.24689 176.424 7.96333 176.258 7.82155 175.974C6.87635 174.029 6.00204 172.085 5.22224 170.212C5.05683 169.809 5.24587 169.359 5.64758 169.193C6.04929 169.027 6.49827 169.217 6.66368 169.62C7.41984 171.469 8.29415 173.389 9.21572 175.286C9.40476 175.665 9.23935 176.14 8.86127 176.329C8.76675 176.4 8.6486 176.424 8.53045 176.424ZM3.78081 164.83C3.44999 164.83 3.1428 164.617 3.04828 164.285C2.36301 162.222 1.79588 160.16 1.34691 158.168C1.25239 157.741 1.51232 157.315 1.93766 157.22C2.36301 157.125 2.78835 157.386 2.88287 157.812C3.33184 159.757 3.87533 161.772 4.53697 163.787C4.67875 164.19 4.44245 164.641 4.04074 164.783C3.94622 164.83 3.8517 164.83 3.78081 164.83ZM1.06335 152.596C0.661642 152.596 0.330821 152.288 0.283561 151.909C0.0945202 150.178 0 148.471 0 146.811C0 146.385 0 145.958 0.0236301 145.531C0.0472601 145.104 0.401711 144.749 0.827052 144.772C1.25239 144.796 1.60684 145.152 1.58321 145.579C1.55958 145.982 1.55958 146.408 1.55958 146.811C1.55958 148.4 1.6541 150.06 1.84314 151.719C1.8904 152.146 1.58321 152.549 1.15787 152.573C1.11061 152.596 1.08698 152.596 1.06335 152.596ZM1.48869 140.125C1.44143 140.125 1.39417 140.125 1.34691 140.102C0.921572 140.007 0.638012 139.604 0.732532 139.177C1.15787 137.043 1.77225 134.981 2.55205 133.036C2.71746 132.633 3.16643 132.444 3.56814 132.61C3.96985 132.776 4.15889 133.226 3.99348 133.629C3.23732 135.502 2.6702 137.47 2.26849 139.509C2.17397 139.865 1.86677 140.125 1.48869 140.125ZM6.14382 128.555C6.00204 128.555 5.86025 128.508 5.71847 128.437C5.36402 128.2 5.24587 127.726 5.48217 127.346C6.61642 125.568 7.96333 123.885 9.45202 122.32C9.75921 122.012 10.2554 121.988 10.5626 122.296C10.8698 122.604 10.8935 123.102 10.5863 123.41C9.16846 124.904 7.89244 126.516 6.80546 128.2C6.64005 128.413 6.40375 128.555 6.14382 128.555ZM14.6979 119.498C14.4616 119.498 14.2253 119.38 14.0835 119.19C13.8236 118.835 13.8945 118.36 14.2489 118.1C15.8794 116.867 17.6753 115.705 19.5893 114.638C19.9674 114.425 20.44 114.567 20.6527 114.946C20.8653 115.326 20.7236 115.8 20.3455 116.013C18.5023 117.033 16.7537 118.147 15.1941 119.356C15.0287 119.427 14.8633 119.498 14.6979 119.498ZM25.5914 113.381C25.2842 113.381 25.0006 113.192 24.8588 112.907C24.6934 112.504 24.8825 112.054 25.2842 111.888C27.1746 111.105 29.1595 110.394 31.2389 109.754C31.6406 109.635 32.0896 109.849 32.2078 110.276C32.3259 110.679 32.1133 111.129 31.6879 111.248C29.6557 111.864 27.6944 112.575 25.8749 113.334C25.7804 113.381 25.6859 113.381 25.5914 113.381ZM37.5245 109.659C37.1701 109.659 36.8393 109.422 36.7684 109.043C36.6739 108.616 36.9338 108.189 37.3591 108.094C39.344 107.644 41.4235 107.241 43.5502 106.909C43.9755 106.838 44.3773 107.122 44.4481 107.549C44.519 107.976 44.2355 108.379 43.8101 108.45C41.7071 108.782 39.6749 109.185 37.7136 109.612C37.6427 109.659 37.5718 109.659 37.5245 109.659ZM49.8594 107.668C49.4577 107.668 49.1269 107.359 49.0796 106.956C49.0324 106.53 49.3396 106.15 49.7649 106.103C51.7971 105.889 53.9002 105.723 56.0269 105.605C56.4758 105.581 56.8303 105.913 56.8539 106.34C56.8776 106.767 56.5467 107.146 56.1214 107.17C53.9947 107.288 51.9152 107.454 49.9303 107.668C49.9067 107.668 49.8831 107.668 49.8594 107.668Z" fill="white"/>
</svg>
