<svg width="129" height="91" viewBox="0 0 129 91" fill="none" xmlns="http://www.w3.org/2000/svg">
<path d="M127.713 88.8391H1.14247C0.878328 88.8391 0.658203 88.619 0.658203 88.3549V2.96963C0.658203 2.70549 0.878328 2.48537 1.14247 2.48537H127.735C127.999 2.48537 128.219 2.70549 128.219 2.96963V88.3549C128.219 88.619 127.999 88.8391 127.713 88.8391ZM1.62674 87.8706H127.228V3.47592H1.62674V87.8706Z" fill="black"/>
<path d="M112.088 2.96963H1.14648V88.3549H112.088V2.96963Z" fill="white"/>
<path d="M112.064 88.8391H1.12294C0.858796 88.8391 0.638672 88.619 0.638672 88.3549V2.96964C0.638672 2.70549 0.858796 2.48538 1.12294 2.48538H112.064C112.328 2.48538 112.549 2.70549 112.549 2.96964V88.3549C112.571 88.619 112.35 88.8391 112.064 88.8391ZM1.62922 87.8706H111.58V3.47593H1.62922V87.8706Z" fill="black"/>
<path d="M83.6587 3.14574H69.791V88.597H83.6587V3.14574Z" fill="black"/>
<path d="M1.05078 34.6685L1.05078 45.6966L127.731 45.6966V34.6685L1.05078 34.6685Z" fill="black"/>
<path d="M80.7114 0.812439H66.8438V90.49H80.7114V0.812439Z" fill="#8C7BFF"/>
<path d="M1.64063 32.3371L1.64062 43.3652L127.44 43.3652V32.3371L1.64063 32.3371Z" fill="#8C7BFF"/>
<path d="M112.057 32.3401V43.3681H127.421V32.3401H112.057Z" fill="#6155FF"/>
<path d="M70.8093 41.8652L51.1084 38.0571C46.2437 37.1105 43.8224 31.6075 46.3978 27.3592C48.9292 23.1989 54.7844 22.7586 57.9101 26.4787L70.8093 41.8652Z" fill="#8C7BFF"/>
<path d="M72.6346 40.1922L59.7795 24.7397C56.6097 20.9316 58.2166 15.1204 62.8832 13.4695C67.4617 11.8626 72.2824 15.2084 72.3484 20.0731L72.6346 40.1922Z" fill="#8C7BFF"/>
<path d="M74.793 40.5445L75.1011 20.4473C75.1672 15.4946 80.1639 12.1267 84.7865 13.9317C89.321 15.6927 90.7738 21.3939 87.6481 25.1359L74.793 40.5445Z" fill="#8C7BFF"/>
<path d="M76.752 42.0853L89.6951 26.7208C92.8869 22.9347 98.8742 23.485 101.318 27.7994C103.695 32.0257 101.23 37.3747 96.4749 38.2992L76.752 42.0853Z" fill="#8C7BFF"/>
<path d="M70.8085 42.3494C70.7865 42.3494 70.7425 42.3494 70.7205 42.3494L51.0196 38.5413C48.5542 38.0571 46.5291 36.4722 45.5165 34.1609C44.504 31.8496 44.6581 29.2742 45.9788 27.117C47.2775 25.0039 49.4127 23.6831 51.9001 23.485C54.3654 23.2869 56.6987 24.2774 58.2836 26.1705L71.2047 41.557C71.3368 41.7111 71.3588 41.9532 71.2488 42.1293C71.1387 42.2614 70.9626 42.3494 70.8085 42.3494ZM52.4724 24.4315C52.2963 24.4315 52.1202 24.4315 51.9441 24.4535C49.7869 24.6076 47.9159 25.7743 46.7932 27.6013C45.6486 29.4943 45.4945 31.7176 46.397 33.7427C47.2775 35.7458 49.0385 37.1546 51.1957 37.5728L69.5318 41.1168L57.5132 26.7868C56.2365 25.268 54.4095 24.4315 52.4724 24.4315Z" fill="black"/>
<path d="M72.6362 40.6765C72.4821 40.6765 72.3501 40.6105 72.262 40.5004L59.4069 25.0479C57.8 23.1108 57.2497 20.5794 57.9101 18.1581C58.5925 15.7147 60.3314 13.8437 62.7087 13.0072C65.042 12.1928 67.5514 12.523 69.5765 13.9317C71.6017 15.3405 72.7903 17.5858 72.8343 20.0731L73.1205 40.1703C73.1205 40.3684 72.9884 40.5665 72.7903 40.6325C72.7683 40.6765 72.7023 40.6765 72.6362 40.6765ZM65.2842 13.5355C64.5357 13.5355 63.8093 13.6676 63.0829 13.9097C61.0138 14.6361 59.495 16.265 58.9006 18.4002C58.3063 20.5354 58.7906 22.7146 60.1993 24.4095L72.152 38.7835L71.8878 20.0731C71.8658 17.916 70.8312 15.9569 69.0482 14.7242C67.9036 13.9537 66.6049 13.5355 65.2842 13.5355Z" fill="black"/>
<path d="M74.7934 41.0507C74.7274 41.0507 74.6833 41.0507 74.6173 41.0287C74.4192 40.9627 74.2871 40.7646 74.2871 40.5665L74.5953 20.4693C74.6393 17.9379 75.85 15.6707 77.9631 14.2619C80.0543 12.8531 82.6077 12.567 84.963 13.4915C87.2743 14.394 88.9472 16.287 89.5636 18.6863C90.1799 21.0857 89.6296 23.551 88.0447 25.4661L75.1896 40.8966C75.0796 40.9847 74.9255 41.0507 74.7934 41.0507ZM82.1895 13.9097C80.9128 13.9097 79.6361 14.2839 78.5355 15.0323C76.7085 16.265 75.6299 18.2241 75.6078 20.4253L75.3217 39.1357L87.2963 24.7617C88.6831 23.1108 89.1674 20.9536 88.617 18.8625C88.0888 16.7713 86.6139 15.1204 84.6108 14.35C83.8184 14.0638 83.0039 13.9097 82.1895 13.9097Z" fill="black"/>
<path d="M76.7504 42.5696C76.5743 42.5696 76.4202 42.4815 76.3322 42.3274C76.2221 42.1513 76.2441 41.9312 76.3762 41.7551L89.3194 26.3906C90.9483 24.4535 93.3256 23.485 95.835 23.7271C98.3444 23.9693 100.502 25.356 101.756 27.5573C102.967 29.7145 103.077 32.2459 102.02 34.4911C100.986 36.7363 98.9827 38.2992 96.5614 38.7614L76.8605 42.5696C76.8165 42.5696 76.7944 42.5696 76.7504 42.5696ZM95.1086 24.6516C93.1715 24.6516 91.3445 25.4881 90.0678 27.007L78.0271 41.3149L96.3633 37.7709C98.4764 37.3747 100.215 36.0099 101.118 34.0509C102.02 32.0918 101.932 29.8906 100.876 27.9975C99.7972 26.0824 97.9261 24.8718 95.7249 24.6516C95.5268 24.6737 95.3067 24.6516 95.1086 24.6516Z" fill="black"/>
</svg>
