<svg width="51" height="30" viewBox="0 0 51 30" fill="none" xmlns="http://www.w3.org/2000/svg">
<path opacity="0.1" d="M34.1428 4.79521C34.528 4.40405 34.528 3.756 34.1428 3.36484C33.7518 2.97367 33.1039 2.97367 32.7129 3.36484C29.2986 6.79774 23.7132 6.79774 20.2989 3.36484C19.9079 2.97367 19.26 2.97367 18.869 3.36484C18.4838 3.756 18.4838 4.40405 18.869 4.79521C20.9759 6.89699 23.7482 7.95371 26.5088 7.95371C29.2636 7.94787 32.0359 6.89699 34.1428 4.79521Z" fill="black"/>
<path opacity="0.1" d="M49.1154 18.34C36.643 30.8281 16.3558 30.8164 3.90093 18.34C3.50989 17.9488 2.86205 17.9488 2.47101 18.34C2.07997 18.7312 2.07997 19.3792 2.47101 19.7704C9.10114 26.3968 17.8032 29.7129 26.5111 29.7129C35.2131 29.7129 43.9152 26.3968 50.5453 19.7704C50.9305 19.3792 50.9305 18.7312 50.5453 18.34C50.1542 17.943 49.5122 17.943 49.1154 18.34Z" fill="black"/>
<path opacity="0.1" d="M9.94124 10.8612C9.55604 11.2523 9.55604 11.9004 9.94124 12.2915C14.5111 16.8571 20.5051 19.1398 26.5049 19.1398C32.5047 19.1398 38.5045 16.8571 43.0685 12.2915C43.4596 11.9004 43.4713 11.2582 43.0744 10.867C42.6833 10.4758 42.0413 10.4642 41.6503 10.8612C33.2926 19.2216 19.7172 19.2216 11.377 10.8612C10.9801 10.47 10.3381 10.47 9.94124 10.8612Z" fill="black"/>
<path d="M32.5744 2.34898C32.9596 1.95781 32.9596 1.30977 32.5744 0.918602C32.1834 0.527438 31.5356 0.527438 31.1445 0.918602C27.7302 4.35151 22.1448 4.35151 18.7305 0.918602C18.3395 0.527438 17.6917 0.527438 17.3006 0.918602C16.9154 1.30977 16.9154 1.95781 17.3006 2.34898C19.4076 4.45076 22.1798 5.50749 24.9404 5.50749C27.6952 5.50749 30.4675 4.45076 32.5744 2.34898Z" fill="white"/>
<path d="M47.5451 15.8938C35.0727 28.3818 14.7854 28.3701 2.33061 15.8938C1.93958 15.5026 1.29174 15.5026 0.9007 15.8938C0.509662 16.2849 0.509662 16.933 0.9007 17.3241C7.53083 23.9506 16.2329 27.2667 24.9408 27.2667C33.6428 27.2667 42.3448 23.9506 48.975 17.3241C49.3602 16.933 49.3602 16.2849 48.975 15.8938C48.5839 15.5026 47.9419 15.5026 47.5451 15.8938Z" fill="white"/>
<path d="M8.37679 8.42077C7.99159 8.81194 7.99159 9.45998 8.37679 9.85115C12.9467 14.4167 18.9406 16.6994 24.9404 16.6994C30.9402 16.6994 36.94 14.4167 41.5041 9.85115C41.8951 9.45998 41.9068 8.81778 41.5099 8.42662C41.1189 8.03545 40.4769 8.02377 40.0858 8.42077C31.7282 16.7812 18.1527 16.7812 9.81254 8.42077C9.41567 8.02377 8.76783 8.02377 8.37679 8.42077Z" fill="white"/>
</svg>
