<svg width="83" height="80" viewBox="0 0 83 80" fill="none" xmlns="http://www.w3.org/2000/svg">
<g opacity="0.1">
<path d="M80.1662 66.784L63.2115 49.7362L60.019 52.9706L56.1436 49.1407C56.3246 48.9597 56.4646 48.732 56.6456 48.5043C65.1667 36.8336 64.4838 20.8309 54.3227 10.6665C48.9065 5.28946 41.6578 2.27692 34.0063 2.27692C26.3022 2.27692 19.0593 5.28363 13.6373 10.6665C2.42559 21.9285 2.42559 40.2082 13.6373 51.4235C19.106 56.8472 26.3489 59.8131 34.0063 59.8131C40.2045 59.8131 46.1284 57.5361 51.4629 53.7471C51.6905 53.6128 51.9181 53.426 52.099 53.245L55.881 57.0749L52.6885 60.2218L69.7307 77.2228C71.1431 78.6357 72.9641 79.3654 74.9718 79.3654C76.9795 79.3654 78.8005 78.5889 80.1662 77.2228C83.0377 74.3504 83.0377 69.6564 80.1662 66.784ZM49.6361 46.6828C45.5331 50.8747 39.9769 53.2041 34.0063 53.2041C28.0356 53.2041 22.4327 50.9272 18.3297 46.7295C14.1392 42.5785 11.8572 36.9738 11.8572 31.0479C11.8572 25.0754 14.1334 19.5173 18.3297 15.413C22.4327 11.2211 27.989 8.89168 34.0063 8.89168C39.9769 8.89168 45.5389 11.1686 49.6361 15.3663C53.8266 19.5173 56.1086 25.1221 56.1086 31.0479C56.1086 37.0146 53.8266 42.5785 49.6361 46.6828ZM57.0133 55.9423L53.278 52.2058C54.2818 51.3826 54.2118 51.4352 55.0756 50.3434L58.9042 54.1266L57.0133 55.9423Z" fill="black"/>
</g>
<path d="M75.6154 64.507L58.6607 47.4593L55.4682 50.6937L51.5928 46.8638C51.7738 46.6828 51.9138 46.4551 52.0948 46.2274C60.6159 34.5567 59.933 18.554 49.7719 8.38959C44.3499 3.00671 37.1069 0 29.4496 0C21.7456 0 14.5026 3.00671 9.08064 8.38959C-2.13105 19.6516 -2.13105 37.9312 9.08064 49.1466C14.5493 54.5703 21.7923 57.5362 29.4496 57.5362C35.6478 57.5362 41.5718 55.2592 46.9062 51.4702C47.1338 51.3359 47.3615 51.1491 47.5424 50.9681L51.3243 54.798L48.1319 57.9448L65.1741 74.9459C66.5865 76.3587 68.4074 77.0885 70.4152 77.0885C72.4229 77.0885 74.2438 76.312 75.6095 74.9459C78.4869 72.0734 78.4869 67.3795 75.6154 64.507ZM45.0794 44.4C40.9764 48.5919 35.4202 50.9214 29.4496 50.9214C23.479 50.9214 17.8761 48.6445 13.7731 44.4468C9.58256 40.2957 7.30054 34.691 7.30054 28.7652C7.30054 22.7926 9.57673 17.2346 13.7731 13.1303C17.8761 8.93839 23.4323 6.60892 29.4496 6.60892C35.4202 6.60892 40.9823 8.88585 45.0794 13.0836C49.2699 17.2346 51.552 22.8393 51.552 28.7652C51.552 34.7377 49.2699 40.2957 45.0794 44.4ZM52.4624 53.6654L48.7272 49.9289C49.731 49.1057 49.661 49.1582 50.5248 48.0665L54.3534 51.8497L52.4624 53.6654Z" fill="white"/>
</svg>
