<svg width="396" height="392" viewBox="0 0 396 392" fill="none" xmlns="http://www.w3.org/2000/svg">
<path d="M163.077 330.246H0.609319C0.330054 330.246 0.115234 330.032 0.115234 329.753V0.49268C0.115234 0.214209 0.330054 0 0.609319 0H163.077C163.357 0 163.571 0.214209 163.571 0.49268V329.753C163.571 330.01 163.357 330.246 163.077 330.246ZM1.08192 329.26H162.583V0.96394H1.08192V329.26Z" fill="white"/>
<path d="M145.269 58.5861H18.3964C18.1172 58.5861 17.9023 58.3719 17.9023 58.0934V23.7986C17.9023 23.5201 18.1172 23.3059 18.3964 23.3059H145.269C145.548 23.3059 145.763 23.5201 145.763 23.7986V58.1148C145.763 58.3719 145.548 58.5861 145.269 58.5861ZM18.8905 57.6222H144.775V24.2913H18.8905V57.6222Z" fill="white"/>
<path d="M145.269 107.404H18.3964C18.1172 107.404 17.9023 107.19 17.9023 106.912V72.5954C17.9023 72.3169 18.1172 72.1027 18.3964 72.1027H145.269C145.548 72.1027 145.763 72.3169 145.763 72.5954V106.912C145.763 107.19 145.548 107.404 145.269 107.404ZM18.8905 106.419H144.775V73.088H18.8905V106.419Z" fill="white"/>
<path d="M145.269 156.201H18.3964C18.1172 156.201 17.9023 155.987 17.9023 155.708V121.414C17.9023 121.135 18.1172 120.921 18.3964 120.921H145.269C145.548 120.921 145.763 121.135 145.763 121.414V155.73C145.763 155.987 145.548 156.201 145.269 156.201ZM18.8905 155.237H144.775V121.906H18.8905V155.237Z" fill="white"/>
<path d="M145.269 205.019H18.3964C18.1172 205.019 17.9023 204.805 17.9023 204.527V170.21C17.9023 169.932 18.1172 169.718 18.3964 169.718H145.269C145.548 169.718 145.763 169.932 145.763 170.21V204.527C145.763 204.784 145.548 205.019 145.269 205.019ZM18.8905 204.034H144.775V170.703H18.8905V204.034Z" fill="white"/>
<path d="M145.269 253.816H18.3964C18.1172 253.816 17.9023 253.602 17.9023 253.323V219.007C17.9023 218.729 18.1172 218.514 18.3964 218.514H145.269C145.548 218.514 145.763 218.729 145.763 219.007V253.323C145.763 253.602 145.548 253.816 145.269 253.816ZM18.8905 252.852H144.775V219.521H18.8905V252.852Z" fill="white"/>
<path d="M145.269 302.634H18.3964C18.1172 302.634 17.9023 302.42 17.9023 302.141V267.825C17.9023 267.547 18.1172 267.333 18.3964 267.333H145.269C145.548 267.333 145.763 267.547 145.763 267.825V302.141C145.763 302.399 145.548 302.634 145.269 302.634ZM18.8905 301.649H144.775V268.318H18.8905V301.649Z" fill="white"/>
<path d="M29.9526 32.8168H25.3125V51.9456H29.9526V32.8168Z" fill="#E3EDFF"/>
<path d="M38.8471 37.0581H34.207V51.9456H38.8471V37.0581Z" fill="#E3EDFF"/>
<path d="M47.7397 32.8168H43.0996V51.9456H47.7397V32.8168Z" fill="#E3EDFF"/>
<path d="M56.6342 37.0581H51.9941V51.9456H56.6342V37.0581Z" fill="#E3EDFF"/>
<path d="M65.6342 32.8168H60.9941V51.9456H65.6342V32.8168Z" fill="#E3EDFF"/>
<path d="M74.5268 37.0581H69.8867V51.9456H74.5268V37.0581Z" fill="#E3EDFF"/>
<path d="M83.4213 32.8168H78.7812V51.9456H83.4213V32.8168Z" fill="#E3EDFF"/>
<path d="M92.3139 37.0581H87.6738V51.9456H92.3139V37.0581Z" fill="#E3EDFF"/>
<path d="M101.165 32.8168H96.5254V51.9456H101.165V32.8168Z" fill="#E3EDFF"/>
<path d="M110.08 37.0581H105.439V51.9456H110.08V37.0581Z" fill="#E3EDFF"/>
<path d="M118.976 32.8168H114.336V51.9456H118.976V32.8168Z" fill="#E3EDFF"/>
<path d="M127.867 37.0581H123.227V51.9456H127.867V37.0581Z" fill="#E3EDFF"/>
<path d="M136.761 37.0581H132.121V51.9456H136.761V37.0581Z" fill="#E3EDFF"/>
<path d="M29.9526 81.3351H25.3125V100.464H29.9526V81.3351Z" fill="#E3EDFF"/>
<path d="M38.8471 85.5978H34.207V100.485H38.8471V85.5978Z" fill="#E3EDFF"/>
<path d="M47.7397 81.3351H43.0996V100.464H47.7397V81.3351Z" fill="#E3EDFF"/>
<path d="M56.6342 85.5978H51.9941V100.485H56.6342V85.5978Z" fill="#E3EDFF"/>
<path d="M65.6342 81.3351H60.9941V100.464H65.6342V81.3351Z" fill="#E3EDFF"/>
<path d="M74.5268 85.5978H69.8867V100.485H74.5268V85.5978Z" fill="#E3EDFF"/>
<path d="M83.4213 81.3351H78.7812V100.464H83.4213V81.3351Z" fill="#E3EDFF"/>
<path d="M92.3139 85.5978H87.6738V100.485H92.3139V85.5978Z" fill="#E3EDFF"/>
<path d="M101.165 81.3351H96.5254V100.464H101.165V81.3351Z" fill="#E3EDFF"/>
<path d="M110.08 85.5978H105.439V100.485H110.08V85.5978Z" fill="#E3EDFF"/>
<path d="M118.976 81.3351H114.336V100.464H118.976V81.3351Z" fill="#E3EDFF"/>
<path d="M127.867 85.5978H123.227V100.485H127.867V85.5978Z" fill="#E3EDFF"/>
<path d="M136.761 85.5978H132.121V100.485H136.761V85.5978Z" fill="#E3EDFF"/>
<path d="M29.9526 130.303H25.3125V149.432H29.9526V130.303Z" fill="#E3EDFF"/>
<path d="M38.8471 134.566H34.207V149.453H38.8471V134.566Z" fill="#E3EDFF"/>
<path d="M47.7397 130.303H43.0996V149.432H47.7397V130.303Z" fill="#E3EDFF"/>
<path d="M56.6342 134.566H51.9941V149.453H56.6342V134.566Z" fill="#E3EDFF"/>
<path d="M65.6342 130.303H60.9941V149.432H65.6342V130.303Z" fill="#E3EDFF"/>
<path d="M74.5268 134.566H69.8867V149.453H74.5268V134.566Z" fill="#E3EDFF"/>
<path d="M83.4213 130.303H78.7812V149.432H83.4213V130.303Z" fill="#E3EDFF"/>
<path d="M92.3139 134.566H87.6738V149.453H92.3139V134.566Z" fill="#E3EDFF"/>
<path d="M101.165 130.303H96.5254V149.432H101.165V130.303Z" fill="#E3EDFF"/>
<path d="M110.08 134.566H105.439V149.453H110.08V134.566Z" fill="#E3EDFF"/>
<path d="M118.976 130.303H114.336V149.432H118.976V130.303Z" fill="#E3EDFF"/>
<path d="M127.867 134.566H123.227V149.453H127.867V134.566Z" fill="#E3EDFF"/>
<path d="M136.761 134.566H132.121V149.453H136.761V134.566Z" fill="#E3EDFF"/>
<path d="M29.9526 178.543H25.3125V197.672H29.9526V178.543Z" fill="#E3EDFF"/>
<path d="M38.8471 182.784H34.207V197.672H38.8471V182.784Z" fill="#E3EDFF"/>
<path d="M47.7397 178.543H43.0996V197.672H47.7397V178.543Z" fill="#E3EDFF"/>
<path d="M56.6342 182.784H51.9941V197.672H56.6342V182.784Z" fill="#E3EDFF"/>
<path d="M65.6342 178.543H60.9941V197.672H65.6342V178.543Z" fill="#E3EDFF"/>
<path d="M74.5268 182.784H69.8867V197.672H74.5268V182.784Z" fill="#E3EDFF"/>
<path d="M83.4213 178.543H78.7812V197.672H83.4213V178.543Z" fill="#E3EDFF"/>
<path d="M92.3139 182.784H87.6738V197.672H92.3139V182.784Z" fill="#E3EDFF"/>
<path d="M101.165 178.543H96.5254V197.672H101.165V178.543Z" fill="#E3EDFF"/>
<path d="M110.08 182.784H105.439V197.672H110.08V182.784Z" fill="#E3EDFF"/>
<path d="M118.976 178.543H114.336V197.672H118.976V178.543Z" fill="#E3EDFF"/>
<path d="M127.867 182.784H123.227V197.672H127.867V182.784Z" fill="#E3EDFF"/>
<path d="M136.761 182.784H132.121V197.672H136.761V182.784Z" fill="#E3EDFF"/>
<path d="M29.9526 226.612H25.3125V245.74H29.9526V226.612Z" fill="#E3EDFF"/>
<path d="M38.8471 230.874H34.207V245.762H38.8471V230.874Z" fill="#E3EDFF"/>
<path d="M47.7397 226.611H43.0996V245.74H47.7397V226.611Z" fill="#E3EDFF"/>
<path d="M56.6342 230.874H51.9941V245.762H56.6342V230.874Z" fill="#E3EDFF"/>
<path d="M65.6342 226.611H60.9941V245.74H65.6342V226.611Z" fill="#E3EDFF"/>
<path d="M74.5268 230.874H69.8867V245.762H74.5268V230.874Z" fill="#E3EDFF"/>
<path d="M83.4213 226.611H78.7812V245.74H83.4213V226.611Z" fill="#E3EDFF"/>
<path d="M92.3139 230.874H87.6738V245.762H92.3139V230.874Z" fill="#E3EDFF"/>
<path d="M101.165 226.611H96.5254V245.74H101.165V226.611Z" fill="#E3EDFF"/>
<path d="M110.08 230.874H105.439V245.762H110.08V230.874Z" fill="#E3EDFF"/>
<path d="M118.976 226.611H114.336V245.74H118.976V226.611Z" fill="#E3EDFF"/>
<path d="M127.867 230.874H123.227V245.762H127.867V230.874Z" fill="#E3EDFF"/>
<path d="M136.761 230.874H132.121V245.762H136.761V230.874Z" fill="#E3EDFF"/>
<path d="M29.9526 274.68H25.3125V293.809H29.9526V274.68Z" fill="#E3EDFF"/>
<path d="M38.8471 278.943H34.207V293.83H38.8471V278.943Z" fill="#E3EDFF"/>
<path d="M47.7397 274.68H43.0996V293.809H47.7397V274.68Z" fill="#E3EDFF"/>
<path d="M56.6342 278.943H51.9941V293.83H56.6342V278.943Z" fill="#E3EDFF"/>
<path d="M65.6342 274.68H60.9941V293.809H65.6342V274.68Z" fill="#E3EDFF"/>
<path d="M74.5268 278.943H69.8867V293.83H74.5268V278.943Z" fill="#E3EDFF"/>
<path d="M83.4213 274.68H78.7812V293.809H83.4213V274.68Z" fill="#E3EDFF"/>
<path d="M92.3139 278.943H87.6738V293.83H92.3139V278.943Z" fill="#E3EDFF"/>
<path d="M101.165 274.68H96.5254V293.809H101.165V274.68Z" fill="#E3EDFF"/>
<path d="M110.08 278.943H105.439V293.83H110.08V278.943Z" fill="#E3EDFF"/>
<path d="M118.976 274.68H114.336V293.809H118.976V274.68Z" fill="#E3EDFF"/>
<path d="M127.867 278.943H123.227V293.83H127.867V278.943Z" fill="#E3EDFF"/>
<path d="M136.761 278.943H132.121V293.83H136.761V278.943Z" fill="#E3EDFF"/>
<path d="M336.929 330.246H174.439C174.16 330.246 173.945 330.032 173.945 329.753V0.49268C173.945 0.214209 174.16 0 174.439 0H336.907C337.187 0 337.402 0.214209 337.402 0.49268V329.753C337.402 330.01 337.187 330.246 336.929 330.246ZM174.933 329.26H336.435V0.96394H174.933V329.26Z" fill="white"/>
<path d="M319.12 58.5861H192.248C191.969 58.5861 191.754 58.3719 191.754 58.0934V23.7986C191.754 23.5201 191.969 23.3059 192.248 23.3059H319.12C319.4 23.3059 319.615 23.5201 319.615 23.7986V58.1148C319.615 58.3719 319.378 58.5861 319.12 58.5861ZM192.742 57.6222H318.626V24.2913H192.742V57.6222Z" fill="white"/>
<path d="M319.12 107.404H192.248C191.969 107.404 191.754 107.19 191.754 106.912V72.5954C191.754 72.3169 191.969 72.1027 192.248 72.1027H319.12C319.4 72.1027 319.615 72.3169 319.615 72.5954V106.912C319.615 107.19 319.378 107.404 319.12 107.404ZM192.742 106.419H318.626V73.088H192.742V106.419Z" fill="white"/>
<path d="M319.12 156.201H192.248C191.969 156.201 191.754 155.987 191.754 155.708V121.414C191.754 121.135 191.969 120.921 192.248 120.921H319.12C319.4 120.921 319.615 121.135 319.615 121.414V155.73C319.615 155.987 319.378 156.201 319.12 156.201ZM192.742 155.237H318.626V121.906H192.742V155.237Z" fill="white"/>
<path d="M319.12 205.019H192.248C191.969 205.019 191.754 204.805 191.754 204.527V170.21C191.754 169.932 191.969 169.718 192.248 169.718H319.12C319.4 169.718 319.615 169.932 319.615 170.21V204.527C319.615 204.784 319.378 205.019 319.12 205.019ZM192.742 204.034H318.626V170.703H192.742V204.034Z" fill="white"/>
<path d="M319.12 253.816H192.248C191.969 253.816 191.754 253.602 191.754 253.323V219.007C191.754 218.729 191.969 218.514 192.248 218.514H319.12C319.4 218.514 319.615 218.729 319.615 219.007V253.323C319.615 253.602 319.378 253.816 319.12 253.816ZM192.742 252.852H318.626V219.521H192.742V252.852Z" fill="white"/>
<path d="M319.12 302.634H192.248C191.969 302.634 191.754 302.42 191.754 302.141V267.825C191.754 267.547 191.969 267.333 192.248 267.333H319.12C319.4 267.333 319.615 267.547 319.615 267.825V302.141C319.615 302.399 319.378 302.634 319.12 302.634ZM192.742 301.649H318.626V268.318H192.742V301.649Z" fill="white"/>
<path d="M203.783 32.8168H199.143V51.9456H203.783V32.8168Z" fill="#E3EDFF"/>
<path d="M212.677 37.0581H208.037V51.9456H212.677V37.0581Z" fill="#E3EDFF"/>
<path d="M221.57 32.8168H216.93V51.9456H221.57V32.8168Z" fill="#E3EDFF"/>
<path d="M230.464 37.0581H225.824V51.9456H230.464V37.0581Z" fill="#E3EDFF"/>
<path d="M239.464 32.8168H234.824V51.9456H239.464V32.8168Z" fill="#E3EDFF"/>
<path d="M248.38 37.0581H243.74V51.9456H248.38V37.0581Z" fill="#E3EDFF"/>
<path d="M257.273 32.8168H252.633V51.9456H257.273V32.8168Z" fill="#E3EDFF"/>
<path d="M266.165 37.0581H261.525V51.9456H266.165V37.0581Z" fill="#E3EDFF"/>
<path d="M275.017 32.8168H270.377V51.9456H275.017V32.8168Z" fill="#E3EDFF"/>
<path d="M283.91 37.0581H279.27V51.9456H283.91V37.0581Z" fill="#E3EDFF"/>
<path d="M292.806 32.8168H288.166V51.9456H292.806V32.8168Z" fill="#E3EDFF"/>
<path d="M301.697 37.0581H297.057V51.9456H301.697V37.0581Z" fill="#E3EDFF"/>
<path d="M310.591 37.0581H305.951V51.9456H310.591V37.0581Z" fill="#E3EDFF"/>
<path d="M203.783 81.3351H199.143V100.464H203.783V81.3351Z" fill="#E3EDFF"/>
<path d="M212.677 85.5978H208.037V100.485H212.677V85.5978Z" fill="#E3EDFF"/>
<path d="M221.57 81.3351H216.93V100.464H221.57V81.3351Z" fill="#E3EDFF"/>
<path d="M230.464 85.5978H225.824V100.485H230.464V85.5978Z" fill="#E3EDFF"/>
<path d="M239.464 81.3351H234.824V100.464H239.464V81.3351Z" fill="#E3EDFF"/>
<path d="M248.38 85.5978H243.74V100.485H248.38V85.5978Z" fill="#E3EDFF"/>
<path d="M257.273 81.3351H252.633V100.464H257.273V81.3351Z" fill="#E3EDFF"/>
<path d="M266.165 85.5978H261.525V100.485H266.165V85.5978Z" fill="#E3EDFF"/>
<path d="M275.017 81.3351H270.377V100.464H275.017V81.3351Z" fill="#E3EDFF"/>
<path d="M283.91 85.5978H279.27V100.485H283.91V85.5978Z" fill="#E3EDFF"/>
<path d="M292.806 81.3351H288.166V100.464H292.806V81.3351Z" fill="#E3EDFF"/>
<path d="M301.697 85.5978H297.057V100.485H301.697V85.5978Z" fill="#E3EDFF"/>
<path d="M310.591 85.5978H305.951V100.485H310.591V85.5978Z" fill="#E3EDFF"/>
<path d="M203.783 130.303H199.143V149.432H203.783V130.303Z" fill="#E3EDFF"/>
<path d="M212.677 134.566H208.037V149.453H212.677V134.566Z" fill="#E3EDFF"/>
<path d="M221.57 130.303H216.93V149.432H221.57V130.303Z" fill="#E3EDFF"/>
<path d="M230.464 134.566H225.824V149.453H230.464V134.566Z" fill="#E3EDFF"/>
<path d="M239.464 130.303H234.824V149.432H239.464V130.303Z" fill="#E3EDFF"/>
<path d="M248.38 134.566H243.74V149.453H248.38V134.566Z" fill="#E3EDFF"/>
<path d="M257.273 130.303H252.633V149.432H257.273V130.303Z" fill="#E3EDFF"/>
<path d="M266.165 134.566H261.525V149.453H266.165V134.566Z" fill="#E3EDFF"/>
<path d="M275.017 130.303H270.377V149.432H275.017V130.303Z" fill="#E3EDFF"/>
<path d="M283.91 134.566H279.27V149.453H283.91V134.566Z" fill="#E3EDFF"/>
<path d="M292.806 130.303H288.166V149.432H292.806V130.303Z" fill="#E3EDFF"/>
<path d="M301.697 134.566H297.057V149.453H301.697V134.566Z" fill="#E3EDFF"/>
<path d="M310.591 134.566H305.951V149.453H310.591V134.566Z" fill="#E3EDFF"/>
<path d="M203.783 178.543H199.143V197.672H203.783V178.543Z" fill="#E3EDFF"/>
<path d="M212.677 182.784H208.037V197.672H212.677V182.784Z" fill="#E3EDFF"/>
<path d="M221.57 178.543H216.93V197.672H221.57V178.543Z" fill="#E3EDFF"/>
<path d="M230.464 182.784H225.824V197.672H230.464V182.784Z" fill="#E3EDFF"/>
<path d="M239.464 178.543H234.824V197.672H239.464V178.543Z" fill="#E3EDFF"/>
<path d="M248.38 182.784H243.74V197.672H248.38V182.784Z" fill="#E3EDFF"/>
<path d="M257.273 178.543H252.633V197.672H257.273V178.543Z" fill="#E3EDFF"/>
<path d="M266.165 182.784H261.525V197.672H266.165V182.784Z" fill="#E3EDFF"/>
<path d="M275.017 178.543H270.377V197.672H275.017V178.543Z" fill="#E3EDFF"/>
<path d="M283.91 182.784H279.27V197.672H283.91V182.784Z" fill="#E3EDFF"/>
<path d="M292.806 178.543H288.166V197.672H292.806V178.543Z" fill="#E3EDFF"/>
<path d="M301.697 182.784H297.057V197.672H301.697V182.784Z" fill="#E3EDFF"/>
<path d="M310.591 182.784H305.951V197.672H310.591V182.784Z" fill="#E3EDFF"/>
<path d="M203.783 226.612H199.143V245.74H203.783V226.612Z" fill="#E3EDFF"/>
<path d="M212.677 230.874H208.037V245.762H212.677V230.874Z" fill="#E3EDFF"/>
<path d="M221.57 226.611H216.93V245.74H221.57V226.611Z" fill="#E3EDFF"/>
<path d="M230.464 230.874H225.824V245.762H230.464V230.874Z" fill="#E3EDFF"/>
<path d="M239.464 226.611H234.824V245.74H239.464V226.611Z" fill="#E3EDFF"/>
<path d="M248.38 230.874H243.74V245.762H248.38V230.874Z" fill="#E3EDFF"/>
<path d="M257.273 226.611H252.633V245.74H257.273V226.611Z" fill="#E3EDFF"/>
<path d="M266.165 230.874H261.525V245.762H266.165V230.874Z" fill="#E3EDFF"/>
<path d="M275.017 226.611H270.377V245.74H275.017V226.611Z" fill="#E3EDFF"/>
<path d="M283.91 230.874H279.27V245.762H283.91V230.874Z" fill="#E3EDFF"/>
<path d="M292.806 226.611H288.166V245.74H292.806V226.611Z" fill="#E3EDFF"/>
<path d="M301.697 230.874H297.057V245.762H301.697V230.874Z" fill="#E3EDFF"/>
<path d="M310.591 230.874H305.951V245.762H310.591V230.874Z" fill="#E3EDFF"/>
<path d="M203.783 274.68H199.143V293.809H203.783V274.68Z" fill="#E3EDFF"/>
<path d="M212.677 278.943H208.037V293.83H212.677V278.943Z" fill="#E3EDFF"/>
<path d="M221.57 274.68H216.93V293.809H221.57V274.68Z" fill="#E3EDFF"/>
<path d="M230.464 278.943H225.824V293.83H230.464V278.943Z" fill="#E3EDFF"/>
<path d="M239.464 274.68H234.824V293.809H239.464V274.68Z" fill="#E3EDFF"/>
<path d="M248.38 278.943H243.74V293.83H248.38V278.943Z" fill="#E3EDFF"/>
<path d="M257.273 274.68H252.633V293.809H257.273V274.68Z" fill="#E3EDFF"/>
<path d="M266.165 278.943H261.525V293.83H266.165V278.943Z" fill="#E3EDFF"/>
<path d="M275.017 274.68H270.377V293.809H275.017V274.68Z" fill="#E3EDFF"/>
<path d="M283.91 278.943H279.27V293.83H283.91V278.943Z" fill="#E3EDFF"/>
<path d="M292.806 274.68H288.166V293.809H292.806V274.68Z" fill="#E3EDFF"/>
<path d="M301.697 278.943H297.057V293.83H301.697V278.943Z" fill="#E3EDFF"/>
<path d="M310.591 278.943H305.951V293.83H310.591V278.943Z" fill="#E3EDFF"/>
<path d="M269.692 390.012H383.139V204.658H269.692V390.012Z" fill="#121833"/>
<path d="M258.555 392H395.953V353.892H258.555V392Z" fill="#62AAFB"/>
<path d="M258.555 341.802H395.953V303.694H258.555V341.802Z" fill="#62AAFB"/>
<path d="M258.555 241.951L395.953 241.951V203.843H258.555V241.951Z" fill="#62AAFB"/>
<path d="M258.555 292.279H395.953V254.171H258.555V292.279Z" fill="#62AAFB"/>
<path d="M377.513 229.011C380.621 229.011 383.141 226.268 383.141 222.884C383.141 219.501 380.621 216.758 377.513 216.758C374.405 216.758 371.885 219.501 371.885 222.884C371.885 226.268 374.405 229.011 377.513 229.011Z" fill="white"/>
<path d="M359.553 227.704H274.527C274.248 227.704 274.033 227.49 274.033 227.211V218.536C274.033 218.257 274.248 218.043 274.527 218.043H359.553C359.832 218.043 360.047 218.257 360.047 218.536V227.211C360.025 227.49 359.811 227.704 359.553 227.704ZM275 226.74H359.059V219.028H275V226.74Z" fill="#121833"/>
<path d="M377.513 279.35C380.621 279.35 383.141 276.607 383.141 273.223C383.141 269.84 380.621 267.097 377.513 267.097C374.405 267.097 371.885 269.84 371.885 273.223C371.885 276.607 374.405 279.35 377.513 279.35Z" fill="white"/>
<path d="M359.553 278.043H274.527C274.248 278.043 274.033 277.829 274.033 277.55V268.875C274.033 268.596 274.248 268.382 274.527 268.382H359.553C359.832 268.382 360.047 268.596 360.047 268.875V277.55C360.025 277.829 359.811 278.043 359.553 278.043ZM275 277.079H359.059V269.368H275V277.079Z" fill="#121833"/>
<path d="M377.513 328.875C380.621 328.875 383.141 326.132 383.141 322.748C383.141 319.365 380.621 316.622 377.513 316.622C374.405 316.622 371.885 319.365 371.885 322.748C371.885 326.132 374.405 328.875 377.513 328.875Z" fill="white"/>
<path d="M359.553 327.568H274.527C274.248 327.568 274.033 327.354 274.033 327.075V318.4C274.033 318.121 274.248 317.907 274.527 317.907H359.553C359.832 317.907 360.047 318.121 360.047 318.4V327.075C360.025 327.354 359.811 327.568 359.553 327.568ZM275 326.604H359.059V318.893H275V326.604Z" fill="#121833"/>
<path d="M377.513 379.064C380.621 379.064 383.141 376.321 383.141 372.938C383.141 369.554 380.621 366.811 377.513 366.811C374.405 366.811 371.885 369.554 371.885 372.938C371.885 376.321 374.405 379.064 377.513 379.064Z" fill="white"/>
<path d="M359.553 377.779H274.527C274.248 377.779 274.033 377.564 274.033 377.286V368.611C274.033 368.332 274.248 368.118 274.527 368.118H359.553C359.832 368.118 360.047 368.332 360.047 368.611V377.286C360.025 377.564 359.811 377.779 359.553 377.779ZM275 376.793H359.059V369.082H275V376.793Z" fill="#121833"/>
<path d="M318.041 101.71C324.364 101.601 329.401 96.4015 329.292 90.0966C329.183 83.7916 323.969 78.7685 317.646 78.8771C311.323 78.9858 306.286 84.1851 306.395 90.4901C306.504 96.7951 311.718 101.818 318.041 101.71Z" fill="#121833"/>
<path d="M335.867 104.945C342.191 104.886 347.269 99.7256 347.209 93.42C347.149 87.1144 341.975 82.0509 335.651 82.1104C329.327 82.1699 324.25 87.3298 324.309 93.6354C324.369 99.941 329.543 105.005 335.867 104.945Z" fill="#121833"/>
<path d="M365.126 96.8368C365.178 90.5312 360.094 85.3776 353.77 85.3259C347.447 85.2742 342.278 90.344 342.227 96.6496C342.175 102.955 347.259 108.109 353.583 108.161C359.906 108.212 365.075 103.142 365.126 96.8368Z" fill="#121833"/>
<path d="M318.046 93.5236H309.023V105.134H318.046V93.5236Z" fill="#E3EDFF"/>
<path d="M318.024 96.9295V93.5236H309.002V101.042C309.818 101.214 311.429 101.406 313.298 100.785C316.22 99.8427 317.659 97.5721 318.024 96.9295Z" fill="#121833"/>
<path d="M312.31 98.8574C316.32 98.8574 319.571 95.2801 319.571 90.8674C319.571 86.4546 316.32 82.8774 312.31 82.8774C308.3 82.8774 305.049 86.4546 305.049 90.8674C305.049 95.2801 308.3 98.8574 312.31 98.8574Z" fill="#E3EDFF"/>
<path d="M312.224 82.7274C311.472 82.7274 310.742 82.856 310.055 83.0916C311 88.0184 314.609 91.9812 319.292 93.5021C319.528 92.6881 319.657 91.8313 319.657 90.953C319.679 86.4118 316.349 82.7274 312.224 82.7274Z" fill="#121833"/>
<path d="M315.446 94.3804C314.738 95.023 313.835 95.4514 312.826 95.5585C310.549 95.7942 308.508 94.3161 307.949 92.1955L315.446 94.3804Z" fill="white"/>
<path d="M188.244 230.058L156.975 234.899L164.867 285.596L196.136 280.756L188.244 230.058Z" fill="#121833"/>
<path d="M132.913 304.176L145.888 292.759L155.77 272.281L176.178 274.894C180.517 275.451 184.878 274.166 188.229 271.36L188.809 270.867C192.182 268.039 193.642 263.52 192.525 259.257L192.246 258.186C191.709 256.065 194.33 254.609 195.834 256.194L224.641 286.29L214.587 295.908C209.26 301.006 203.18 305.269 196.543 308.546L193.879 309.853C177.724 317.822 160.453 323.284 142.644 326.069L129.863 328.061L124.578 323.67L124.363 323.262C122.881 320.285 122.773 316.793 124.062 313.73L124.084 313.687C124.728 312.166 125.674 310.817 126.877 309.682L132.913 304.176Z" fill="#FED101"/>
<path d="M129.885 328.596C129.777 328.596 129.67 328.553 129.562 328.489L124.278 324.098C124.235 324.055 124.192 323.991 124.149 323.948L123.934 323.541C122.387 320.435 122.28 316.815 123.612 313.602C124.299 311.974 125.287 310.56 126.555 309.382L132.548 303.834L145.459 292.481L155.298 272.088C155.384 271.895 155.598 271.788 155.792 271.81L176.2 274.423C180.389 274.958 184.642 273.716 187.864 270.996L188.444 270.503C191.667 267.804 193.063 263.455 192.01 259.385L191.731 258.314C191.43 257.158 191.946 255.98 192.999 255.38C194.073 254.78 195.319 254.973 196.156 255.851L224.964 285.947C225.157 286.14 225.136 286.44 224.942 286.633L214.889 296.251C209.518 301.392 203.396 305.676 196.715 308.975L194.051 310.281C177.832 318.271 160.561 323.755 142.666 326.54L129.885 328.532C129.949 328.596 129.906 328.596 129.885 328.596ZM125.008 323.434L130.035 327.611L142.602 325.64C160.367 322.855 177.575 317.415 193.686 309.467L196.35 308.161C202.945 304.905 208.96 300.685 214.266 295.608L223.976 286.311L195.512 256.558C194.868 255.894 194.051 255.98 193.536 256.258C193.02 256.536 192.504 257.201 192.741 258.1L193.02 259.171C194.159 263.584 192.633 268.339 189.132 271.274L188.552 271.767C185.115 274.659 180.582 275.987 176.135 275.408L156.071 272.838L146.34 292.995C146.318 293.059 146.275 293.102 146.232 293.145L133.257 304.562L127.264 310.11C126.104 311.181 125.202 312.466 124.579 313.944C123.333 316.922 123.44 320.264 124.858 323.113L125.008 323.434Z" fill="#121833"/>
<path d="M164.426 273.395L155.768 272.281L145.887 292.759L153.857 288.839C156.52 287.532 158.647 285.369 159.936 282.713L164.426 273.395Z" fill="white"/>
<path d="M145.888 293.252C145.759 293.252 145.63 293.209 145.544 293.102C145.394 292.952 145.351 292.738 145.458 292.545L155.34 272.067C155.426 271.874 155.641 271.767 155.834 271.788L164.491 272.902C164.641 272.923 164.792 273.009 164.856 273.159C164.921 273.288 164.942 273.459 164.878 273.609L160.388 282.906C159.056 285.647 156.822 287.918 154.072 289.268L146.103 293.188C146.038 293.23 145.952 293.252 145.888 293.252ZM156.07 272.816L146.962 291.71L153.664 288.411C156.221 287.147 158.304 285.048 159.529 282.499L163.739 273.802L156.07 272.816Z" fill="#121833"/>
<path d="M180.343 292.588L182.749 297.429L196.476 279.628L201.159 288.304L209.022 269.967L211.943 269.346L226.53 284.769L214.521 296.144C209.258 301.135 203.265 305.312 196.756 308.503L193.92 309.896C177.766 317.864 160.494 323.327 142.685 326.111L129.904 328.104L124.619 323.712L130.892 321.956C153.835 315.272 165.8 301.242 165.8 301.242L167.626 305.162L180.343 292.588Z" fill="white"/>
<path d="M129.882 328.596C129.775 328.596 129.667 328.553 129.56 328.489L124.276 324.098C124.147 323.991 124.082 323.798 124.104 323.627C124.147 323.455 124.276 323.305 124.447 323.263L130.72 321.506C153.233 314.951 165.263 301.092 165.392 300.942C165.499 300.813 165.671 300.749 165.822 300.771C165.993 300.792 166.122 300.899 166.208 301.049L167.734 304.348L180 292.224C180.107 292.117 180.258 292.052 180.429 292.095C180.58 292.117 180.709 292.224 180.795 292.352L182.857 296.486L196.09 279.307C196.197 279.178 196.347 279.114 196.519 279.114C196.691 279.135 196.842 279.221 196.906 279.371L201.116 287.168L208.571 269.753C208.635 269.603 208.764 269.496 208.914 269.475L211.836 268.853C212.008 268.811 212.18 268.875 212.287 269.003L226.873 284.426C227.067 284.619 227.045 284.919 226.852 285.112L214.843 296.486C209.537 301.52 203.522 305.697 196.97 308.932L194.135 310.324C177.916 318.314 160.644 323.798 142.75 326.583L129.968 328.575C129.947 328.596 129.904 328.596 129.882 328.596ZM125.629 323.948L130.033 327.59L142.6 325.619C160.365 322.834 177.572 317.393 193.684 309.446L196.519 308.054C202.985 304.862 208.936 300.728 214.156 295.758L225.799 284.726L211.75 269.86L209.344 270.374L201.589 288.475C201.525 288.646 201.353 288.753 201.159 288.775C200.966 288.775 200.794 288.689 200.708 288.518L196.39 280.506L183.136 297.707C183.029 297.836 182.878 297.922 182.706 297.9C182.535 297.879 182.384 297.772 182.32 297.622L180.215 293.38L167.948 305.526C167.841 305.633 167.669 305.697 167.519 305.655C167.368 305.633 167.239 305.526 167.154 305.376L165.65 302.12C163.136 304.798 151.235 316.536 131.021 322.427L125.629 323.948Z" fill="#121833"/>
<path d="M245.286 322.663H213.643V356.829H245.286V322.663Z" fill="#121833"/>
<path d="M171.69 353.98L188.403 349.482L206.361 335.494L223.483 346.868C227.113 349.289 231.603 350.06 235.856 349.032L236.587 348.86C240.861 347.811 244.17 344.405 245.093 340.099L245.33 339.007C245.781 336.865 248.788 336.736 249.433 338.814L261.871 378.528L248.574 382.705C241.527 384.933 234.181 386.047 226.791 386.047H223.826C205.803 386.047 187.887 383.305 170.701 377.929L158.371 374.073L155.578 367.818V367.347C155.578 364.026 157.017 360.856 159.552 358.671L159.595 358.65C160.841 357.579 162.302 356.765 163.87 356.294L171.69 353.98Z" fill="#FED101"/>
<path d="M226.769 386.54H223.805C205.717 386.54 187.78 383.798 170.53 378.4L158.199 374.544C158.07 374.501 157.963 374.394 157.898 374.287L155.105 368.032C155.084 367.968 155.062 367.904 155.062 367.839V367.368C155.062 363.898 156.566 360.599 159.209 358.307C160.54 357.15 162.044 356.315 163.72 355.822L171.561 353.487C171.561 353.487 171.561 353.487 171.582 353.487L188.188 349.01L206.082 335.087C206.254 334.958 206.469 334.958 206.662 335.065L223.783 346.44C227.306 348.775 231.667 349.524 235.77 348.539L236.501 348.368C240.582 347.382 243.762 344.084 244.642 339.992L244.879 338.9C245.136 337.722 246.103 336.886 247.306 336.843C248.509 336.779 249.562 337.529 249.927 338.664L262.365 378.378C262.451 378.635 262.3 378.914 262.043 378.978L248.745 383.155C241.613 385.404 234.224 386.54 226.769 386.54ZM158.693 373.687L170.83 377.479C187.994 382.855 205.824 385.576 223.826 385.576H226.791C234.138 385.576 241.42 384.462 248.445 382.256L261.269 378.207L248.982 338.964C248.702 338.086 247.908 337.786 247.349 337.829C246.769 337.85 246.017 338.214 245.824 339.114L245.587 340.206C244.642 344.662 241.162 348.239 236.737 349.332L236.007 349.503C231.646 350.574 227.006 349.76 223.246 347.275L206.404 336.094L188.725 349.867C188.682 349.91 188.617 349.931 188.553 349.953L171.861 354.451L164.02 356.765C162.495 357.215 161.12 357.964 159.917 359.014C157.468 361.135 156.094 364.176 156.094 367.368V367.732L158.693 373.687Z" fill="#121833"/>
<path d="M213.624 340.314L206.363 335.494L188.404 349.482H197.298C200.262 349.482 203.141 348.496 205.482 346.676L213.624 340.314Z" fill="white"/>
<path d="M197.275 349.974H188.382C188.167 349.974 187.995 349.846 187.909 349.653C187.845 349.46 187.909 349.246 188.081 349.117L206.04 335.13C206.212 335.001 206.427 335.001 206.62 335.108L213.881 339.928C214.01 340.014 214.096 340.164 214.096 340.313C214.096 340.463 214.031 340.613 213.902 340.72L205.739 347.083C203.355 348.925 200.347 349.974 197.275 349.974ZM189.821 348.989H197.297C200.133 348.989 202.947 348.025 205.181 346.29L212.807 340.356L206.384 336.094L189.821 348.989Z" fill="#121833"/>
<path d="M219.358 364.541V369.939L239.573 360.064L239.916 369.917L255.104 356.958L258.004 357.686L264.212 377.95L248.402 382.834C241.463 384.976 234.245 386.069 226.984 386.069H223.826C205.803 386.069 187.887 383.327 170.701 377.95L158.371 374.094L155.578 367.839L161.958 369.039C185.481 373.195 202.452 365.911 202.452 365.911L202.344 370.238L219.358 364.541Z" fill="white"/>
<path d="M226.964 386.54H223.806C205.718 386.54 187.781 383.798 170.531 378.4L158.2 374.544C158.071 374.501 157.964 374.394 157.899 374.287L155.107 368.032C155.042 367.861 155.064 367.668 155.171 367.539C155.278 367.389 155.472 367.325 155.644 367.368L162.024 368.568C185.117 372.659 202.066 365.547 202.238 365.462C202.388 365.397 202.56 365.419 202.711 365.504C202.839 365.59 202.925 365.761 202.925 365.911L202.818 369.532L219.209 364.091C219.359 364.048 219.531 364.069 219.638 364.155C219.767 364.241 219.832 364.391 219.832 364.541V369.167L239.337 359.635C239.488 359.571 239.66 359.571 239.81 359.657C239.96 359.742 240.046 359.892 240.046 360.064L240.347 368.91L254.783 356.593C254.912 356.486 255.062 356.443 255.212 356.486L258.113 357.215C258.284 357.257 258.413 357.386 258.456 357.536L264.665 377.8C264.75 378.057 264.6 378.336 264.342 378.4L248.532 383.284C241.55 385.447 234.289 386.54 226.964 386.54ZM158.694 373.687L170.831 377.479C187.995 382.855 205.825 385.576 223.827 385.576H226.985C234.203 385.576 241.357 384.505 248.252 382.363L263.612 377.629L257.618 358.093L255.234 357.493L240.24 370.303C240.089 370.431 239.896 370.453 239.724 370.388C239.552 370.303 239.445 370.153 239.423 369.96L239.101 360.856L219.574 370.41C219.424 370.474 219.252 370.474 219.101 370.388C218.951 370.303 218.865 370.153 218.865 369.981V365.226L202.474 370.688C202.324 370.731 202.152 370.71 202.023 370.624C201.894 370.538 201.83 370.388 201.83 370.217L201.937 366.64C198.479 367.925 182.603 373.195 161.873 369.532L156.395 368.503L158.694 373.687Z" fill="#121833"/>
<path d="M290.742 161.385H162.322C149.691 161.385 140.11 172.781 142.344 185.205L154.46 252.488H196.586L189.261 204.741H263.631C278.583 204.741 290.72 192.638 290.72 177.729V161.385H290.742Z" fill="#8C7BFF"/>
<path d="M321.01 180.321L327.068 156.48H278.369L217.704 203.156C209.605 209.389 204.857 219.007 204.857 229.203V329.603H253.213V236.572L285.651 204.548L290.033 204.527C304.684 204.419 317.401 194.48 321.01 180.321Z" fill="#8C7BFF"/>
<path d="M253.213 330.546H204.879C204.6 330.546 204.385 330.331 204.385 330.053V229.203C204.385 218.921 209.261 209.046 217.424 202.77L278.089 156.094C278.175 156.03 278.283 155.987 278.39 155.987H327.068C327.219 155.987 327.369 156.051 327.455 156.18C327.541 156.308 327.584 156.458 327.541 156.608L321.483 180.449C317.831 194.801 304.899 204.912 290.055 204.998L285.866 205.019L253.707 236.765V330.053C253.707 330.331 253.493 330.546 253.213 330.546ZM205.351 329.582H252.741V236.572C252.741 236.444 252.784 236.315 252.891 236.229L285.329 204.205C285.415 204.12 285.544 204.055 285.672 204.055L290.055 204.034C304.469 203.948 317.015 194.159 320.559 180.214L326.467 156.972H278.562L218.026 203.541C210.099 209.646 205.373 219.221 205.373 229.203V329.582H205.351Z" fill="#121833"/>
<path d="M241.851 132.124L224.987 126.49C222.624 125.698 220.003 126.362 218.285 128.161L214.375 132.317C213.387 133.366 212.635 134.63 212.163 136.001L211.088 139.171C210.637 140.521 211.368 141.978 212.721 142.449L213.065 142.556C214.418 143.006 215.879 142.278 216.352 140.928L217.039 138.85C217.49 137.501 218.22 136.28 219.187 135.251L221.228 133.088C222.13 132.145 223.484 131.803 224.708 132.21L240.089 137.351L241.851 132.124Z" fill="#E3EDFF"/>
<path d="M235.943 134.523L226.169 131.267C223.806 130.475 221.185 131.139 219.467 132.938L215.557 137.094C214.569 138.143 213.817 139.407 213.344 140.778L212.27 143.948C211.819 145.298 212.549 146.754 213.903 147.226L214.246 147.333C215.6 147.783 217.061 147.054 217.533 145.705L218.221 143.627C218.672 142.278 219.402 141.057 220.369 140.028L222.41 137.865C223.312 136.922 224.665 136.58 225.89 136.987L234.16 139.75L235.943 134.523Z" fill="#E3EDFF"/>
<path d="M237.597 138.786L227.823 135.53C225.46 134.737 222.839 135.401 221.121 137.201L217.211 141.356C216.223 142.406 215.471 143.67 214.998 145.041L213.924 148.211C213.473 149.561 214.204 151.017 215.557 151.488L215.901 151.596C217.254 152.045 218.715 151.317 219.187 149.968L219.875 147.89C220.326 146.54 221.056 145.319 222.023 144.291L224.064 142.128C224.966 141.185 226.319 140.842 227.544 141.249L235.814 144.013L237.597 138.786Z" fill="#E3EDFF"/>
<path d="M261.464 144.955V129.768L235.6 129.789L228.919 127.733L224.687 140.35L234.01 143.456L233.817 143.67C233.044 144.548 231.927 145.062 230.745 145.062H225.525C224.129 145.062 223.012 146.198 223.012 147.568V147.74C223.012 149.132 224.129 150.246 225.525 150.246C227.824 150.246 232.292 150.267 232.807 150.225C233.087 150.203 233.387 150.182 233.667 150.118L261.464 144.955Z" fill="#E3EDFF"/>
<path d="M233.645 150.139C234.482 149.989 235.299 149.668 236.051 149.196L242.882 144.955H261.464L233.645 150.139Z" fill="#E3EDFF"/>
<path d="M216.74 152.217C216.417 152.217 216.074 152.174 215.752 152.067L215.408 151.96C214.634 151.703 213.99 151.146 213.625 150.417C213.26 149.689 213.195 148.854 213.453 148.083L214.527 144.912C215 143.477 215.816 142.149 216.847 141.057L220.757 136.901C222.583 134.952 225.418 134.245 227.953 135.101L229.521 135.637C229.779 135.723 229.908 136.001 229.822 136.258C229.736 136.515 229.457 136.644 229.199 136.558L227.631 136.023C225.461 135.294 223.012 135.894 221.444 137.565L217.535 141.721C216.589 142.706 215.859 143.927 215.429 145.234L214.355 148.404C214.183 148.939 214.226 149.496 214.463 150.01C214.72 150.503 215.15 150.889 215.666 151.06L216.009 151.167C216.546 151.339 217.105 151.296 217.62 151.06C218.115 150.803 218.501 150.375 218.673 149.86L219.36 147.783C219.833 146.39 220.606 145.084 221.616 144.013L223.657 141.849C224.667 140.778 226.256 140.371 227.653 140.842L233.775 142.877C234.033 142.963 234.162 143.241 234.076 143.498C233.99 143.756 233.71 143.884 233.453 143.798L227.33 141.763C226.278 141.421 225.118 141.699 224.344 142.513L222.304 144.677C221.38 145.641 220.671 146.84 220.263 148.104L219.575 150.182C219.318 150.953 218.759 151.596 218.029 151.96C217.685 152.11 217.212 152.217 216.74 152.217Z" fill="#121833"/>
<path d="M214.16 147.761C214.117 147.761 214.052 147.761 214.009 147.74L213.794 147.654C212.183 147.119 211.324 145.384 211.861 143.777L212.935 140.607C213.408 139.171 214.224 137.843 215.255 136.751L219.165 132.595C220.991 130.646 223.826 129.939 226.361 130.796L229.24 131.76C229.498 131.846 229.627 132.124 229.541 132.381C229.455 132.638 229.175 132.767 228.918 132.681L226.039 131.717C223.869 130.989 221.42 131.588 219.852 133.259L215.943 137.415C214.997 138.4 214.267 139.621 213.837 140.928L212.763 144.098C212.398 145.191 213 146.39 214.095 146.754L214.31 146.84C214.568 146.926 214.697 147.204 214.611 147.461C214.546 147.633 214.374 147.761 214.16 147.761Z" fill="#121833"/>
<path d="M229.865 150.782C229.22 150.782 228.511 150.782 227.759 150.76C227.051 150.76 226.299 150.739 225.504 150.739C223.85 150.739 222.518 149.389 222.518 147.74V147.568C222.518 145.919 223.871 144.57 225.525 144.57H230.745C231.777 144.57 232.765 144.12 233.431 143.349L233.624 143.134C233.796 142.942 234.118 142.92 234.311 143.091C234.505 143.263 234.526 143.584 234.354 143.777L234.161 143.991C233.302 144.977 232.056 145.555 230.724 145.555H225.504C224.387 145.555 223.463 146.455 223.463 147.59V147.761C223.463 148.875 224.365 149.775 225.482 149.796C226.299 149.796 227.051 149.818 227.759 149.818C231.82 149.86 234.054 149.882 235.751 148.811L242.582 144.57C242.668 144.527 242.754 144.505 242.84 144.505H260.928V130.325L235.751 130.303C235.708 130.303 235.665 130.303 235.6 130.282L224.773 127.004C222.582 126.276 220.155 126.876 218.587 128.547L214.72 132.66C213.775 133.645 213.044 134.866 212.615 136.173L211.541 139.343C211.175 140.435 211.777 141.635 212.872 141.999C213.13 142.085 213.259 142.363 213.173 142.62C213.087 142.877 212.808 143.006 212.55 142.92C210.939 142.385 210.08 140.628 210.617 139.043L211.691 135.873C212.164 134.437 212.98 133.109 214.011 132.017L217.921 127.861C219.747 125.912 222.582 125.205 225.117 126.062L235.858 129.318L261.443 129.339C261.722 129.339 261.937 129.553 261.937 129.832V144.977C261.937 145.255 261.722 145.469 261.443 145.469H243.012L236.288 149.625C234.72 150.61 232.765 150.782 229.865 150.782Z" fill="#121833"/>
<path d="M291.669 108.989L277.34 125.119C275.407 127.304 272.636 128.547 269.714 128.547H245.504V149.111L275.793 149.089C280.348 149.089 284.665 147.14 287.673 143.734L311.002 117.301L300.691 108.39C298.027 106.098 294.01 106.355 291.669 108.989Z" fill="#FED101"/>
<path d="M330.615 170.746L272.227 166.012L272.42 158.986H286.233L288.166 118.308C288.617 110.318 294.482 104.234 302.28 104.234H319.788L329.283 106.462L330.615 170.746Z" fill="#FED101"/>
<path d="M224.668 159.993H164.776L136.635 111.881H196.505L224.668 159.993Z" fill="#121833"/>
<path d="M272.445 159.993H164.777V166.076H272.445V159.993Z" fill="#121833"/>
<path d="M176.162 137.565C175.539 135.273 176.785 132.938 178.976 132.338C181.168 131.738 183.445 133.109 184.068 135.401C184.691 137.693 183.445 140.028 181.253 140.628C179.062 141.249 176.785 139.857 176.162 137.565Z" fill="white"/>
<path d="M280.392 143.391H258.008V161.642H280.392V143.391Z" fill="#E3EDFF"/>
<path d="M237.92 149.068L235.943 151.21C234.934 152.281 234.848 153.93 235.707 155.13L237.662 157.829L242.388 152.56H272.076V146.369H244.128C241.765 146.369 239.509 147.333 237.92 149.068Z" fill="#E3EDFF"/>
<path d="M238.824 145.191L237.707 146.412C236.697 147.483 236.611 149.132 237.471 150.332L239.426 153.031L244.152 147.761H272.057V143.456H267.309C265.354 143.456 261.853 141.571 257.427 141.571H247.159C244.001 141.571 240.972 142.877 238.824 145.191Z" fill="#E3EDFF"/>
<path d="M237.213 153.224L234.828 155.794C233.818 156.865 233.733 158.515 234.592 159.714L236.547 162.413L241.273 157.144H259.661V150.953H242.433C240.456 150.953 238.566 151.767 237.213 153.224Z" fill="#E3EDFF"/>
<path d="M238.092 157.743L235.601 160.421C234.677 161.406 234.591 162.906 235.386 164.02C236.46 165.498 238.608 165.605 239.833 164.255L241.186 162.756C241.83 162.049 242.754 161.621 243.721 161.621H259.166C263.205 161.621 266.04 161.385 269.929 155.408H243.42C241.401 155.43 239.467 156.265 238.092 157.743Z" fill="#E3EDFF"/>
<path d="M235.688 155.601C235.538 155.601 235.387 155.537 235.301 155.408C234.313 154.038 234.421 152.131 235.581 150.889L237.557 148.747C239.254 146.926 241.639 145.876 244.13 145.876H249.587C249.866 145.876 250.081 146.09 250.081 146.369C250.081 146.647 249.866 146.862 249.587 146.862H244.13C241.918 146.862 239.791 147.783 238.287 149.411L236.311 151.553C235.473 152.452 235.387 153.845 236.118 154.852C236.268 155.066 236.225 155.366 236.01 155.537C235.881 155.58 235.795 155.601 235.688 155.601Z" fill="#121833"/>
<path d="M235.366 161.256C235.215 161.256 235.065 161.192 234.979 161.064L234.227 160.014C233.239 158.643 233.346 156.737 234.506 155.494L236.891 152.924C238.33 151.381 240.371 150.482 242.476 150.482H249.673C249.952 150.482 250.167 150.696 250.167 150.974C250.167 151.253 249.952 151.467 249.673 151.467H242.476C240.629 151.467 238.867 152.238 237.6 153.588L235.215 156.158C234.378 157.058 234.292 158.45 235.022 159.457L235.774 160.507C235.924 160.721 235.881 161.021 235.666 161.192C235.559 161.214 235.452 161.256 235.366 161.256Z" fill="#121833"/>
<path d="M237.708 165.691C237.644 165.691 237.579 165.691 237.536 165.691C236.527 165.626 235.603 165.134 235.002 164.32C234.078 163.034 234.185 161.278 235.259 160.121L237.751 157.443C239.212 155.88 241.274 154.959 243.422 154.959H249.394C249.674 154.959 249.889 155.173 249.889 155.451C249.889 155.73 249.674 155.944 249.394 155.944H243.422C241.554 155.944 239.728 156.737 238.46 158.108L235.968 160.785C235.216 161.599 235.13 162.863 235.775 163.763C236.205 164.341 236.849 164.705 237.558 164.748C238.288 164.791 238.954 164.512 239.448 163.977L240.802 162.477C241.532 161.663 242.585 161.192 243.702 161.192H260.78C263.594 161.192 266.215 159.8 267.783 157.486C267.933 157.272 268.234 157.208 268.47 157.358C268.685 157.508 268.75 157.808 268.599 158.043C266.838 160.635 263.916 162.177 260.78 162.177H243.702C242.885 162.177 242.091 162.52 241.532 163.141L240.179 164.641C239.556 165.284 238.653 165.691 237.708 165.691Z" fill="#121833"/>
<path d="M280.391 162.135H254.892C254.612 162.135 254.398 161.92 254.398 161.642C254.398 161.363 254.612 161.149 254.892 161.149H279.897V143.884H268.211C266.363 143.884 264.924 143.498 263.399 143.07C261.573 142.577 259.704 142.063 256.761 142.063H247.158C244.129 142.063 241.229 143.327 239.188 145.533L238.071 146.754C237.341 147.547 237.169 148.661 237.62 149.625C237.728 149.86 237.62 150.16 237.384 150.267C237.148 150.375 236.847 150.267 236.739 150.032C236.116 148.704 236.353 147.161 237.362 146.069L238.479 144.848C240.714 142.449 243.893 141.057 247.18 141.057H256.761C259.833 141.057 261.852 141.613 263.656 142.106C265.182 142.535 266.492 142.877 268.211 142.877H280.391C280.67 142.877 280.885 143.091 280.885 143.37V161.621C280.863 161.92 280.649 162.135 280.391 162.135Z" fill="#121833"/>
<path d="M320.95 104.234H319.575L310.853 138.507C310.295 140.735 308.275 142.299 305.977 142.299L274.27 142.278L274.248 164.148L311.82 164.17C320.692 164.17 328.426 158.172 330.595 149.603L336.932 124.734C339.575 114.345 331.712 104.234 320.95 104.234Z" fill="#FED101"/>
<path d="M311.841 164.641L274.248 164.619C273.969 164.619 273.754 164.405 273.754 164.127L273.775 142.256C273.775 142.128 273.818 141.999 273.926 141.913C274.012 141.828 274.141 141.763 274.269 141.763L305.977 141.785C308.061 141.785 309.865 140.371 310.381 138.379L314.677 121.478C314.741 121.221 314.999 121.049 315.279 121.135C315.536 121.199 315.708 121.456 315.622 121.735L311.326 138.636C310.703 141.078 308.512 142.792 305.977 142.792L274.764 142.77L274.742 163.656L311.82 163.677C311.82 163.677 311.82 163.677 311.841 163.677C320.477 163.677 327.996 157.85 330.123 149.496L336.46 124.627C337.684 119.828 336.632 114.816 333.581 110.896C330.531 106.976 325.912 104.727 320.95 104.727H318.329C318.05 104.727 317.835 104.512 317.835 104.234C317.835 103.956 318.05 103.741 318.329 103.741H320.95C326.234 103.741 331.111 106.119 334.354 110.275C337.598 114.43 338.715 119.743 337.405 124.841L331.089 149.732C328.855 158.515 320.928 164.641 311.841 164.641Z" fill="#121833"/>
</svg>
