<svg width="559" height="337" viewBox="0 0 559 337" fill="none" xmlns="http://www.w3.org/2000/svg">
<g clip-path="url(#clip0_1000_2954)">
<path d="M548.434 225.42C548.434 249.317 548.434 273.215 548.434 297.113C548.434 321.358 534.484 335.436 510.399 335.436C499.309 335.436 488.219 335.436 477.129 335.436H436.928C427.051 335.436 417.088 335.436 407.211 335.436C407.124 335.436 407.037 335.436 406.864 335.436C405.824 335.436 404.871 335.436 403.832 335.436C400.973 335.436 398.027 335.436 395.168 335.436C387.11 335.436 379.139 335.436 371.082 335.436H369.349C367.183 335.436 365.017 335.436 362.851 335.436H361.292C343.53 335.436 325.856 335.523 308.095 335.523C302.203 335.523 300.384 334.219 300.47 328.049C300.644 314.667 300.73 301.284 300.73 287.814C300.73 283.035 300.73 278.168 300.73 273.389C300.73 272.346 300.73 271.303 300.73 270.26V270C300.73 269.391 300.73 268.783 300.73 268.175V265.046C300.73 260.875 300.73 256.791 300.73 252.62C300.73 248.448 300.384 245.233 299.517 242.626C299.517 242.539 299.431 242.452 299.431 242.365C299.171 241.496 298.738 240.714 298.304 240.019C298.044 239.671 297.871 239.324 297.611 238.976C297.525 238.889 297.525 238.889 297.438 238.802C297.438 238.802 297.438 238.802 297.438 238.716C297.178 238.368 296.918 238.107 296.572 237.847C296.312 237.586 296.052 237.412 295.792 237.238C294.059 236.022 291.806 235.24 289.034 234.979C287.474 234.805 285.742 234.718 283.749 234.805H283.576C282.969 234.805 282.363 234.892 281.756 234.892C277.597 235.153 273.612 234.631 270.06 233.502C269.367 233.241 268.674 233.067 268.067 232.806C261.482 230.199 256.371 225.333 253.425 218.989C252.645 217.338 252.039 215.6 251.606 213.688C251.086 211.342 250.739 208.822 250.826 206.215C251.172 189.356 265.728 177.103 283.229 179.015C294.839 180.318 300.73 175.191 300.817 163.112C300.99 140.084 301.077 116.968 300.73 93.9394C300.644 88.1171 302.463 86.7267 308.008 86.9005C323.517 87.2481 338.938 87.0743 354.447 86.9874C357.826 86.9874 359.559 87.8564 360.945 91.2455C364.844 100.631 370.302 108.365 376.973 114.187C378.273 115.317 379.659 116.447 381.045 117.403C383.731 119.314 386.59 120.965 389.536 122.269C392.742 123.746 396.034 124.789 399.586 125.571C400.106 125.658 400.626 125.745 401.146 125.919C401.926 126.093 402.792 126.179 403.572 126.266C403.918 126.353 404.265 126.353 404.611 126.44C404.698 126.44 404.785 126.44 404.785 126.44C405.131 126.527 405.391 126.527 405.738 126.527C406.344 126.614 407.037 126.701 407.644 126.701C409.03 126.788 410.416 126.875 411.803 126.875C412.236 126.875 412.756 126.875 413.189 126.875C437.708 126.266 454.776 114.013 464.22 91.3324C465.519 88.1171 466.992 86.9005 470.631 86.9005C494.803 87.0743 518.889 87.1612 543.062 86.9005C547.827 86.8136 548.607 88.7254 548.607 92.8966C548.434 127.57 548.52 162.33 548.52 197.003V225.42H548.434Z" fill="white" stroke="#263238" stroke-width="2.5" stroke-miterlimit="10" stroke-linecap="round" stroke-linejoin="round"/>
<path d="M289.207 299.546C289.207 310.061 289.207 320.489 289.294 331.004C289.294 334.828 288.341 336.044 284.442 336.044C282.016 336.044 279.59 336.044 277.164 336.044C257.064 336.044 237.05 336.044 216.949 336.044H192.257C176.315 336.044 160.287 336.044 144.345 336.044H142.959C135.508 336.044 128.057 336.044 120.606 336.044H120.433C105.444 336.044 90.4553 335.957 75.4666 335.957C56.0593 335.87 41.677 320.228 41.5904 299.546C41.5904 278.603 41.5904 257.834 41.5904 237.064C41.5904 223.769 41.5904 210.56 41.5904 197.351C41.5904 162.851 41.677 128.352 41.5038 93.9394C41.4171 88.7254 42.8034 87.5088 47.9151 87.5957C71.3945 87.8564 94.7872 87.7695 118.267 87.6826C131.609 87.6826 136.808 81.2519 134.642 68.2169C133.602 61.96 131.956 55.7032 133.429 49.2726C136.981 34.1519 151.363 24.7666 166.525 27.8081C180.301 30.5021 190.524 45.1882 188.618 59.6137C188.185 63.0028 187.405 66.305 186.799 69.6942C184.806 80.5567 190.784 87.7695 202.221 87.7695C225.18 87.8564 248.226 87.7695 271.186 87.7695C275.691 87.7695 280.283 88.0302 284.875 87.6826C288.6 87.4219 289.38 88.9861 289.38 92.3752C289.207 110.624 289.034 128.96 289.467 147.209C289.64 153.032 285.828 152.51 282.622 153.292C252.385 160.592 235.23 189.095 239.996 216.817C240.255 218.642 240.689 220.38 241.208 222.204C241.382 222.9 241.642 223.595 241.815 224.29C242.421 226.289 243.201 228.288 244.154 230.286C244.847 231.85 245.627 233.415 246.58 234.892C247.013 235.761 247.533 236.63 248.14 237.412C248.4 237.76 248.573 238.194 248.833 238.542C249.699 239.845 250.566 241.062 251.519 242.192C252.038 242.887 252.645 243.582 253.165 244.19C253.685 244.799 254.204 245.407 254.724 245.928C255.331 246.537 255.851 247.145 256.457 247.753C263.995 255.14 273.265 259.919 284.268 261.918C287.907 262.526 289.034 263.917 289.294 266.698C289.294 267.132 289.38 267.653 289.38 268.088C289.38 269.739 289.38 271.477 289.38 273.128C289.38 273.476 289.38 273.823 289.38 274.258C289.38 276.17 289.38 278.168 289.38 280.08V281.21C289.38 283.469 289.38 285.816 289.38 288.075C289.294 291.812 289.207 295.635 289.207 299.546Z" fill="white" stroke="#263238" stroke-width="2.5" stroke-miterlimit="10" stroke-linecap="round" stroke-linejoin="round"/>
<path d="M289.384 330.917C289.384 334.741 288.431 335.957 284.532 335.957C282.106 335.957 279.68 335.957 277.254 335.957C257.154 335.957 237.14 335.957 217.039 335.957H192.347C176.405 335.957 160.377 335.957 144.435 335.957H143.049C135.598 335.957 128.147 335.957 120.696 335.957H120.436C105.447 335.957 90.4586 335.87 75.4699 335.87C56.0626 335.783 41.6804 320.141 41.5938 299.459C41.5938 278.603 41.5938 257.834 41.5938 237.064H61.4343V197.785H121.216V235.326H161.503V162.591H221.285V286.772H251.175V299.546H289.21C289.21 309.974 289.297 320.489 289.384 330.917Z" fill="white" stroke="#263238" stroke-width="2.5" stroke-miterlimit="10" stroke-linecap="round" stroke-linejoin="round"/>
<path d="M61.4297 204.39V276.17" stroke="#263238" stroke-width="2.5" stroke-miterlimit="10" stroke-linecap="round" stroke-linejoin="round"/>
<path d="M121.211 204.39V276.17" stroke="#263238" stroke-width="2.5" stroke-miterlimit="10" stroke-linecap="round" stroke-linejoin="round"/>
<path d="M251.172 286.772V325.355" stroke="#263238" stroke-width="2.5" stroke-miterlimit="10" stroke-linecap="round" stroke-linejoin="round"/>
<path d="M289.207 299.546C289.207 310.061 289.207 320.489 289.294 331.004C289.294 334.828 288.341 336.044 284.442 336.044C282.016 336.044 279.59 336.044 277.164 336.044V287.988H289.207C289.294 291.812 289.207 295.635 289.207 299.546Z" fill="white" stroke="#263238" stroke-width="2.5" stroke-miterlimit="10" stroke-linecap="round" stroke-linejoin="round"/>
<path d="M548.863 297.026C548.863 321.271 534.914 335.349 510.828 335.349C507.709 335.349 491.941 335.349 470.367 335.349C442.123 335.349 403.915 335.349 371.598 335.436H371.425C368.739 335.436 366.053 335.436 363.454 335.436C337.895 335.436 317.188 335.436 309.997 335.523H308.698C302.806 335.523 300.987 334.219 301.073 328.049C301.247 314.667 301.333 301.284 301.333 287.814H319.441V275.04H349.332V150.946H409.113V223.595H449.401V186.054H509.182V225.333H548.95C548.95 249.317 548.95 273.215 548.863 297.026Z" fill="white" stroke="#263238" stroke-width="2.5" stroke-miterlimit="10" stroke-linecap="round" stroke-linejoin="round"/>
<path d="M319.352 276.257V335.696" stroke="#263238" stroke-width="2.5" stroke-miterlimit="10" stroke-linecap="round" stroke-linejoin="round"/>
<path d="M509.266 225.594V297.373" stroke="#263238" stroke-width="2.5" stroke-miterlimit="10" stroke-linecap="round" stroke-linejoin="round"/>
<path d="M330.273 1.1297V64.0456H422.198" stroke="white" stroke-width="2.5" stroke-miterlimit="10" stroke-linecap="round" stroke-linejoin="round"/>
<path d="M284.617 224.985V207.605" stroke="#263238" stroke-width="2.5" stroke-miterlimit="10" stroke-linecap="round" stroke-linejoin="round"/>
<path d="M290.156 226.115L299.513 209.517" stroke="#263238" stroke-width="2.5" stroke-miterlimit="10" stroke-linecap="round" stroke-linejoin="round"/>
<path d="M278.982 226.115L269.625 209.517" stroke="#263238" stroke-width="2.5" stroke-miterlimit="10" stroke-linecap="round" stroke-linejoin="round"/>
<path d="M248.312 236.717C248.312 236.717 256.282 236.282 264.427 234.631C287.04 229.939 293.711 238.368 287.04 242.279C280.022 246.45 283.834 242.713 281.148 243.669C280.542 243.843 294.491 254.097 302.028 263.569C304.887 267.132 303.415 272.694 299.083 274.084C298.909 280.775 293.624 280.862 290.245 280.428C289.206 280.341 286 286.337 278.549 283.122C265.033 277.386 238.781 264.004 238.781 264.004L248.312 236.717Z" fill="#B5846B" stroke="#263238" stroke-width="2.5" stroke-miterlimit="10" stroke-linecap="round" stroke-linejoin="round"/>
<path d="M215.827 324.399C214.874 311.104 213.661 299.98 212.275 290.769C210.282 276.778 208.03 267.219 206.557 261.657C206.557 261.657 206.557 261.657 206.557 261.57C206.383 260.875 206.21 260.354 206.037 259.745C205.95 259.572 205.95 259.398 205.864 259.224C205.171 256.791 204.737 255.661 204.737 255.661L199.626 256.009L197.286 256.183L122.516 261.744C118.791 270.782 116.711 279.037 115.758 286.511C112.726 308.41 118.791 324.139 120.437 335.783H120.697C128.148 335.783 135.599 335.783 143.05 335.783H144.436C160.378 335.783 176.406 335.783 192.348 335.783H216.607C216.434 331.873 216.174 328.049 215.827 324.399Z" fill="#EC644E"/>
<path d="M216.692 335.87H211.493C211.233 331.873 210.973 328.049 210.713 324.399C209.76 311.104 208.461 299.98 207.161 290.769C204.389 271.738 201.356 260.962 200.23 257.225C200.057 256.704 199.884 256.269 199.797 256.009L204.909 255.661C204.909 255.661 205.342 256.878 206.035 259.224C206.035 259.398 206.122 259.572 206.208 259.745C206.381 260.267 206.555 260.875 206.728 261.57V261.657C208.201 267.219 210.367 276.691 212.446 290.769C213.746 299.98 215.045 311.104 215.999 324.399C216.172 328.049 216.432 331.873 216.692 335.87Z" fill="white"/>
<path d="M215.827 324.399C214.874 311.104 213.661 299.98 212.275 290.769C210.282 276.778 208.03 267.219 206.557 261.657C206.557 261.657 206.557 261.657 206.557 261.57C206.384 260.875 206.21 260.354 206.037 259.745C205.95 259.572 205.95 259.398 205.864 259.224C205.171 256.791 204.737 255.661 204.737 255.661L199.626 256.009L197.286 256.183L122.516 261.744C118.791 270.782 116.711 279.037 115.758 286.511C112.726 308.41 118.791 324.139 120.437 335.783H120.697C128.148 335.783 135.599 335.783 143.05 335.783H144.436C160.378 335.783 176.406 335.783 192.348 335.783H216.607C216.434 331.873 216.174 328.049 215.827 324.399Z" stroke="#263238" stroke-width="2.5" stroke-miterlimit="10" stroke-linecap="round" stroke-linejoin="round"/>
<path d="M248.053 272.085C248.053 272.085 262.262 231.416 261.916 231.155C258.623 228.635 230.379 220.727 230.379 220.727C220.329 215.426 210.019 209.865 209.672 207.605C207.159 205.606 205.946 204.39 205.946 204.39C205.427 201.87 205.167 195.526 203.607 187.531C192.604 164.676 169.211 145.037 142.613 140.084C124.592 144.689 122.252 164.589 121.646 170.759C121.386 173.28 97.5601 199.697 96.4338 218.207C96.4338 218.207 92.0152 236.717 117.487 250.273C116.274 254.618 109.17 282.948 109.17 282.948C111.422 292.507 210.538 290.595 214.264 290.682C214.264 290.682 216.863 280.688 212.618 261.223C212.358 260.18 248.053 272.085 248.053 272.085Z" fill="#EC644E"/>
<path d="M206.643 261.657C209.675 275.214 209.242 286.163 208.896 290.769C211.841 290.769 213.747 290.682 214.267 290.769C214.267 290.769 215.48 278.081 212.881 262.439C208.636 261.223 205.603 257.312 206.643 261.657Z" fill="white"/>
<path d="M230.292 220.727C220.242 215.426 209.932 209.865 209.585 207.605C207.073 205.606 205.86 204.39 205.86 204.39C205.34 201.87 205.08 195.526 203.52 187.531C192.517 164.676 169.124 145.037 142.526 140.084C137.934 141.213 134.382 143.386 131.609 146.08C133.082 145.298 136.375 143.386 138.194 142.951C164.706 147.905 188.445 166.675 199.448 189.443C201.008 197.438 200.661 202.826 201.181 205.259C201.181 205.259 203.347 209.169 205.86 211.168C206.12 213.514 218.163 218.815 228.213 224.116C228.213 224.116 252.645 232.719 255.851 235.24C256.111 235.413 247.793 259.572 243.981 270.695C246.407 271.477 248.053 271.998 248.053 271.998C248.053 271.998 262.262 231.329 261.916 231.068C258.623 228.635 230.292 220.727 230.292 220.727Z" fill="white"/>
<path d="M248.053 272.085C248.053 272.085 262.262 231.416 261.916 231.155C258.623 228.635 230.379 220.727 230.379 220.727C220.329 215.426 210.019 209.865 209.672 207.605C207.159 205.606 205.946 204.39 205.946 204.39C205.427 201.87 205.167 195.526 203.607 187.531C192.604 164.676 169.211 145.037 142.613 140.084C124.592 144.689 122.252 164.589 121.646 170.759C121.386 173.28 97.5601 199.697 96.4338 218.207C96.4338 218.207 92.0152 236.717 117.487 250.273C116.274 254.618 109.17 282.948 109.17 282.948C111.422 292.507 210.538 290.595 214.264 290.682C214.264 290.682 216.863 280.688 212.618 261.223C212.358 260.18 248.053 272.085 248.053 272.085Z" stroke="#263238" stroke-width="2.5" stroke-miterlimit="10" stroke-linecap="round" stroke-linejoin="round"/>
<path d="M180.302 136.781C174.237 142.169 164.966 141.735 158.035 136.173C157.169 135.478 156.389 134.696 155.609 133.914C155.349 133.653 155.176 133.392 154.916 133.132C154.396 132.523 153.877 131.915 153.443 131.22C147.898 123.138 148.418 112.536 154.916 106.714C158.815 103.238 163.927 102.195 168.952 103.325C169.212 103.412 169.472 103.412 169.645 103.498C169.992 103.585 170.338 103.672 170.685 103.846C174.15 104.976 177.443 107.148 180.215 110.364C187.32 118.706 187.32 130.524 180.302 136.781Z" fill="#B5846B"/>
<path d="M180.3 110.364C177.614 107.148 174.322 104.976 170.77 103.846C170.423 103.759 170.077 103.585 169.73 103.498C169.47 103.412 169.21 103.325 169.037 103.325C164.012 102.195 158.814 103.238 155.001 106.714C154.915 106.801 154.915 106.801 154.828 106.888C158.034 105.41 161.759 105.063 165.312 105.845C165.571 105.932 165.831 105.932 166.005 106.019C166.351 106.105 166.698 106.192 167.044 106.366C170.51 107.496 173.802 109.668 176.575 112.884C183.506 121.139 183.506 132.784 176.661 139.128C177.961 138.519 179.174 137.737 180.3 136.694C187.318 130.524 187.318 118.706 180.3 110.364Z" fill="white"/>
<path d="M180.301 136.781C174.236 142.169 164.966 141.735 158.035 136.173C157.168 135.478 156.388 134.783 155.609 133.914C155.349 133.653 155.175 133.479 155.002 133.218C154.482 132.61 153.963 131.915 153.529 131.307C147.984 123.225 148.504 112.623 155.002 106.801C158.901 103.325 164.013 102.282 169.038 103.412C169.298 103.498 169.558 103.498 169.731 103.585C170.078 103.672 170.424 103.759 170.771 103.933C171.464 104.194 172.157 104.454 172.85 104.802C175.536 106.019 178.048 107.93 180.214 110.537C187.319 118.706 187.319 130.524 180.301 136.781Z" stroke="#263238" stroke-width="2.5" stroke-miterlimit="10" stroke-linecap="round" stroke-linejoin="round"/>
<path d="M212.617 261.31C212.617 261.31 197.282 257.225 186.538 251.229C184.026 249.839 181.773 248.362 180.04 246.797C178.654 245.581 177.095 244.016 175.448 242.365C159.16 225.507 133.082 188.487 133.601 179.102" stroke="#263238" stroke-width="2.5" stroke-miterlimit="10" stroke-linecap="round" stroke-linejoin="round"/>
<path d="M165.656 155.899C181.425 158.072 197.626 203.608 205.857 204.39" stroke="#263238" stroke-width="2.5" stroke-miterlimit="10" stroke-linecap="round" stroke-linejoin="round"/>
<path d="M113.328 266.263C116.274 251.142 121.039 237.238 121.732 224.551C122.945 202.652 120.952 188.835 121.559 170.846" stroke="#263238" stroke-width="2.5" stroke-miterlimit="10" stroke-linecap="round" stroke-linejoin="round"/>
<path d="M129.963 298.069C129.01 310.843 140.273 322.14 142.526 332.916C142.699 333.872 142.959 334.914 143.133 335.87" stroke="#263238" stroke-width="2.5" stroke-miterlimit="10" stroke-linecap="round" stroke-linejoin="round"/>
<path d="M176.398 207.692C185.062 203.26 195.719 200.479 206.376 205.867" stroke="#263238" stroke-width="2.5" stroke-miterlimit="10" stroke-linecap="round" stroke-linejoin="round"/>
<path d="M174.758 202.304C177.963 200.827 181.429 199.697 184.895 199.002" stroke="#263238" stroke-width="2.5" stroke-miterlimit="10" stroke-linecap="round" stroke-linejoin="round"/>
<path d="M203.517 187.531C201.265 175.887 197.712 164.85 184.89 153.119C184.716 152.945 180.298 148.339 179.171 144.689C178.738 143.473 171.201 141.039 165.915 139.475C162.277 138.346 158.724 136.955 155.345 135.304L151.793 133.479C149.367 132.784 147.028 134.435 146.681 136.868C146.681 136.868 143.996 139.736 142.609 140.084C169.121 145.037 192.514 164.763 203.517 187.531Z" fill="white" stroke="#263238" stroke-width="2.5" stroke-miterlimit="10" stroke-linecap="round" stroke-linejoin="round"/>
<path d="M116.445 214.297C117.918 213.428 119.478 212.993 121.211 212.906" stroke="#263238" stroke-width="2.5" stroke-miterlimit="10" stroke-linecap="round" stroke-linejoin="round"/>
<path d="M186.538 251.229H156.82V242.278H175.361C177.007 244.016 178.567 245.494 179.953 246.71C181.773 248.362 184.025 249.839 186.538 251.229Z" fill="#EC644E" stroke="#263238" stroke-width="2.5" stroke-miterlimit="10" stroke-linecap="round" stroke-linejoin="round"/>
<path d="M179.781 290.856C179.781 290.856 189.398 308.236 192.431 335.87" stroke="#263238" stroke-width="2.5" stroke-miterlimit="10" stroke-linecap="round" stroke-linejoin="round"/>
<path d="M112.289 164.242C113.242 159.462 115.062 154.161 118.007 149.469" stroke="#263238" stroke-width="2.5" stroke-miterlimit="10" stroke-linecap="round" stroke-linejoin="round"/>
<path d="M107 162.243C107.78 158.767 109.079 155.378 110.726 152.163" stroke="#263238" stroke-width="2.5" stroke-miterlimit="10" stroke-linecap="round" stroke-linejoin="round"/>
<path d="M179.176 144.776L174.844 154.075" stroke="#263238" stroke-width="2.5" stroke-miterlimit="10" stroke-linecap="round" stroke-linejoin="round"/>
<path d="M174.67 102.89C174.67 97.9368 170.511 93.8525 165.399 93.8525C160.287 93.8525 156.129 97.8499 156.129 102.89C156.129 103.759 156.302 104.628 156.475 105.497C156.389 105.584 156.215 105.671 156.129 105.758L156.042 105.845C155.695 106.105 155.262 106.453 154.916 106.714L154.829 106.801L154.742 106.888C154.656 106.974 154.656 106.974 154.569 107.061C154.483 107.148 154.396 107.235 154.309 107.322C154.223 107.322 154.223 107.409 154.136 107.496C154.049 107.583 153.876 107.757 153.789 107.843C153.703 107.93 153.616 108.104 153.529 108.191C153.443 108.278 153.356 108.365 153.356 108.452C153.356 108.452 153.356 108.452 153.356 108.539C153.356 108.539 153.356 108.539 153.27 108.626C153.27 108.712 153.183 108.712 153.183 108.799C153.096 108.886 153.01 109.06 152.923 109.147C152.923 109.147 152.923 109.234 152.836 109.234L152.75 109.321C152.75 109.408 152.663 109.408 152.663 109.495L152.576 109.581C152.49 109.668 152.49 109.755 152.403 109.842C152.317 109.929 152.317 110.016 152.23 110.103C152.143 110.19 152.143 110.277 152.057 110.364C151.97 110.45 151.97 110.537 151.883 110.624C151.883 110.711 151.797 110.798 151.797 110.885C151.71 110.972 151.71 111.059 151.623 111.233V111.319C151.623 111.406 151.537 111.406 151.537 111.406C151.45 111.493 151.45 111.667 151.363 111.754C151.277 111.928 151.277 112.015 151.19 112.188C151.104 112.275 151.104 112.449 151.017 112.623C150.93 112.797 150.93 112.884 150.844 113.058C150.844 113.144 150.844 113.231 150.757 113.231C150.67 113.405 150.584 113.666 150.584 113.84C150.584 113.927 150.497 114.1 150.497 114.187C150.497 114.274 150.497 114.274 150.41 114.361C150.41 114.448 150.324 114.535 150.324 114.622C150.324 114.709 150.324 114.796 150.237 114.882C150.237 114.969 150.151 115.056 150.151 115.143C150.151 115.317 150.064 115.491 150.064 115.665C150.064 115.751 150.064 115.925 149.977 116.012C149.977 116.099 149.977 116.186 149.977 116.273C149.977 116.36 149.977 116.447 149.977 116.534C149.977 116.62 149.977 116.707 149.977 116.881C149.977 117.055 149.977 117.142 149.891 117.316C149.891 117.489 149.891 117.576 149.891 117.75C149.891 117.924 149.891 118.098 149.891 118.272C149.891 118.706 149.891 119.141 149.891 119.662C149.891 119.923 149.891 120.183 149.891 120.444V120.531C149.891 121.052 149.977 121.487 150.064 122.008C150.151 122.53 150.237 123.051 150.41 123.572C150.497 124.094 150.67 124.615 150.844 125.137C151.017 125.658 151.19 126.179 151.363 126.614C151.45 126.875 151.537 127.135 151.71 127.396C151.71 127.483 151.797 127.57 151.797 127.657C151.797 127.744 151.883 127.831 151.883 127.917C152.057 128.265 152.23 128.613 152.317 128.873C152.49 129.134 152.576 129.395 152.75 129.569C152.75 129.569 152.75 129.655 152.836 129.655C152.923 129.742 152.923 129.829 153.01 129.916C153.096 130.003 153.096 130.09 153.096 130.09C153.096 130.09 153.096 130.177 153.183 130.177C153.356 130.438 153.529 130.611 153.616 130.872C153.876 131.22 154.049 131.48 154.309 131.828C154.396 132.002 154.569 132.089 154.656 132.262C154.742 132.436 154.916 132.61 155.089 132.784C155.522 132.871 155.869 132.958 156.302 133.045C163.666 129.395 163.926 125.571 162.627 121.226C161.674 118.011 164.966 114.969 165.139 114.882C166.959 113.84 168.778 112.188 170.251 110.277C172.85 109.06 174.67 106.192 174.67 102.89Z" fill="#263238" stroke="#263238" stroke-width="2.5" stroke-miterlimit="10" stroke-linecap="round" stroke-linejoin="round"/>
<path d="M299.086 274.084L285.57 263.569" stroke="#263238" stroke-width="2.5" stroke-miterlimit="10" stroke-linecap="round" stroke-linejoin="round"/>
<path d="M290.157 280.515L280.453 274.258" stroke="#263238" stroke-width="2.5" stroke-miterlimit="10" stroke-linecap="round" stroke-linejoin="round"/>
<path d="M299.515 235.066C297.696 236.456 295.27 237.499 296.483 237.76C299.515 238.368 302.201 238.889 302.201 238.889L299.515 235.066Z" fill="#263238" stroke="#263238" stroke-width="2.5" stroke-miterlimit="10" stroke-linecap="round" stroke-linejoin="round"/>
<path d="M304.109 267.827C304.109 267.827 308.875 277.386 311.3 276.083C311.56 272.867 311.127 268.957 311.127 268.957L306.968 268.175L304.109 267.827Z" fill="#263238" stroke="#263238" stroke-width="2.5" stroke-miterlimit="10" stroke-linecap="round" stroke-linejoin="round"/>
<path d="M373.332 335.523H373.159C370.473 335.523 367.787 335.523 365.188 335.523V335.436C365.015 332.655 364.755 329.787 364.582 326.92C364.322 323.878 364.148 320.837 363.888 317.795C363.802 316.492 363.715 315.275 363.628 313.971C363.542 312.755 363.455 311.538 363.369 310.322C363.282 309.192 363.195 308.062 363.109 306.846C362.849 302.327 362.589 298.069 362.416 293.984C362.329 292.941 362.329 291.899 362.329 290.856C362.329 290.595 362.329 290.248 362.329 289.987C362.329 289.552 362.329 289.118 362.242 288.77V288.683C362.242 288.075 362.242 287.467 362.156 286.858C362.156 285.989 362.156 285.207 362.069 284.338C362.069 284.078 362.069 283.817 362.069 283.556C361.982 278.95 362.156 275.04 362.502 272.172C362.502 271.912 362.589 271.651 362.589 271.477C362.849 270 363.109 268.783 363.455 267.914C363.455 267.914 363.455 267.914 363.455 267.827C363.628 267.393 363.802 266.958 363.802 266.611C364.148 264.786 363.542 263.569 363.542 263.569H371.686C371.686 263.569 372.119 264.351 372.033 265.655C372.033 266.263 371.859 267.045 371.513 267.914C371.079 268.87 370.82 270.26 370.56 272.085C370.56 272.433 370.473 272.781 370.473 273.041V273.128C370.473 273.302 370.473 273.476 370.386 273.736C369.433 286.076 371.513 311.799 373.332 335.523C373.332 335.436 373.332 335.436 373.332 335.523Z" fill="white"/>
<path d="M464.041 294.853C464.041 294.766 464.041 294.679 464.041 294.593C464.041 294.332 464.041 294.071 463.955 293.897C463.955 293.81 463.955 293.637 463.955 293.55C462.742 283.73 460.922 274.692 457.977 267.393L434.151 266.35L433.024 266.263L427.739 266.002H427.566L416.563 265.481L420.808 265.307L410.238 264.786L402.7 264.438L400.101 264.351L391.004 263.917L404.607 263.135L403.047 263.048L397.502 262.787L395.683 262.7L375.842 261.831L366.398 261.397C366.398 261.483 366.138 262.092 365.879 262.874C365.879 262.961 365.879 262.961 365.879 262.961C365.792 263.135 365.705 263.395 365.619 263.656C365.272 264.699 364.839 265.829 364.492 266.698C364.492 266.784 364.492 266.784 364.406 266.871C364.406 266.958 364.406 266.958 364.319 267.045C364.232 267.219 364.232 267.393 364.146 267.48C364.146 267.567 364.059 267.653 364.059 267.74C364.059 267.827 363.972 267.914 363.972 267.914C363.972 268.001 363.972 268.001 363.972 268.001C363.539 268.87 363.193 270.087 362.933 271.564C362.933 271.825 362.846 271.998 362.846 272.259C362.413 275.127 362.24 279.037 362.326 283.643C362.326 283.904 362.326 284.165 362.326 284.425C362.326 285.207 362.326 286.076 362.413 286.945C362.413 287.554 362.413 288.162 362.5 288.77V288.857C362.5 289.292 362.5 289.639 362.586 290.074C362.586 290.334 362.586 290.682 362.586 290.943C362.586 291.986 362.673 293.028 362.76 294.071C363.019 298.155 363.279 302.414 363.626 306.932C363.713 308.062 363.799 309.192 363.886 310.408C363.972 311.625 364.059 312.842 364.232 314.058C364.319 315.275 364.492 316.578 364.579 317.882C364.839 320.923 365.099 323.965 365.445 327.006C365.705 329.874 365.965 332.655 366.225 335.523V335.61C369.344 335.61 372.636 335.61 375.842 335.61H376.102C415.177 335.61 461.269 335.61 495.405 335.523C495.492 323.965 463.088 311.886 464.301 300.154C464.128 298.329 464.128 296.591 464.041 294.853Z" fill="#9ABAE3"/>
<path d="M369.433 335.436C365.708 335.436 368.654 335.349 368.654 335.349C365.968 335.349 367.787 335.436 365.188 335.436C365.015 332.655 364.755 329.787 364.582 326.92C364.322 323.878 364.148 320.837 363.888 317.795C363.802 316.492 363.715 315.275 363.628 313.971C363.542 312.755 363.455 311.538 363.369 310.322C363.282 309.192 363.195 308.062 363.109 306.846C362.849 302.327 362.589 298.069 362.416 293.984C362.329 292.941 362.329 291.899 362.329 290.856C362.329 290.595 362.329 290.248 362.329 289.987C362.329 289.552 362.329 289.118 362.242 288.77V288.683C362.242 288.075 362.242 287.467 362.156 286.858C362.156 285.989 362.156 285.207 362.069 284.338C362.069 284.078 362.069 283.817 362.069 283.556C361.982 278.95 362.156 275.04 362.502 272.172C362.502 271.912 362.589 271.651 362.589 271.477C362.849 270 363.109 268.783 363.455 267.914C363.455 267.914 363.455 267.914 363.455 267.827C363.455 267.827 363.455 267.74 363.542 267.653C363.542 267.567 363.628 267.48 363.628 267.393C363.715 267.306 363.715 267.132 363.802 266.958C363.802 266.871 363.802 266.871 363.802 266.784C363.802 266.784 363.802 266.698 363.888 266.611C364.148 265.742 364.495 264.612 364.841 263.569C364.928 263.308 365.015 263.135 365.101 262.874V262.787C365.361 262.005 365.535 261.397 365.535 261.31L373.419 261.744C373.159 262.526 372.639 264.264 372.206 265.655C371.859 266.871 371.513 267.827 371.513 267.914C371.079 268.87 370.82 270.26 370.56 272.085C370.56 272.433 370.473 272.694 370.473 273.041V273.128C370.473 273.302 365.968 273.389 365.881 273.65C364.755 285.903 367.701 311.712 369.433 335.436Z" fill="white"/>
<path d="M464.041 294.853C464.041 294.766 464.041 294.679 464.041 294.593C464.041 294.332 464.041 294.071 463.955 293.897C463.955 293.81 463.955 293.637 463.955 293.55C462.742 283.73 460.922 274.692 457.977 267.393L434.151 266.35L433.024 266.263L427.739 266.002H427.566L416.563 265.481L420.808 265.307L410.238 264.786L402.7 264.438L400.101 264.351L391.004 263.917L404.607 263.135L403.047 263.048L397.502 262.787L395.683 262.7L375.842 261.831L366.398 261.397C366.398 261.483 366.138 262.092 365.879 262.874C365.879 262.961 365.879 262.961 365.879 262.961C365.792 263.135 365.705 263.395 365.619 263.656C365.272 264.699 364.839 265.829 364.492 266.698C364.492 266.784 364.492 266.784 364.406 266.871C364.406 266.958 364.406 266.958 364.319 267.045C364.232 267.219 364.232 267.393 364.146 267.48C364.146 267.567 364.059 267.653 364.059 267.74C364.059 267.827 363.972 267.914 363.972 267.914C363.972 268.001 363.972 268.001 363.972 268.001C363.539 268.87 363.193 270.087 362.933 271.564C362.933 271.825 362.846 271.998 362.846 272.259C362.413 275.127 362.24 279.037 362.326 283.643C362.326 283.904 362.326 284.165 362.326 284.425C362.326 285.207 362.326 286.076 362.413 286.945C362.413 287.554 362.413 288.162 362.5 288.77V288.857C362.5 289.292 362.5 289.639 362.586 290.074C362.586 290.334 362.586 290.682 362.586 290.943C362.586 291.986 362.673 293.028 362.76 294.071C363.019 298.155 363.279 302.414 363.626 306.932C363.713 308.062 363.799 309.192 363.886 310.408C363.972 311.625 364.059 312.842 364.232 314.058C364.319 315.275 364.492 316.578 364.579 317.882C364.839 320.923 365.099 323.965 365.445 327.006C365.705 329.874 365.965 332.655 366.225 335.523V335.61C369.344 335.61 372.636 335.61 375.842 335.61H376.102C415.177 335.61 461.269 335.61 495.405 335.523C495.492 323.965 463.088 311.886 464.301 300.154C464.128 298.329 464.128 296.591 464.041 294.853Z" stroke="#263238" stroke-width="2.5" stroke-miterlimit="10" stroke-linecap="round" stroke-linejoin="round"/>
<path d="M464.218 213.254C463.612 210.647 462.919 208.387 462.226 206.562C461.186 204.042 459.886 200.219 458.5 195.874C460.579 202.739 462.745 209.517 464.218 213.254Z" fill="white"/>
<path d="M390.578 274.519C390.665 274.519 390.665 274.519 390.751 274.519L396.123 274.084C398.116 273.997 400.109 274.084 402.101 274.171C403.054 274.258 404.007 274.345 404.96 274.432C404.527 274.519 397.163 274.519 390.578 274.519Z" fill="#9ABAE3"/>
<path d="M466.125 234.457C466.125 234.544 466.125 234.631 466.125 234.718C465.172 240.627 479.814 269.565 476.002 277.386C475.915 277.56 458.934 285.294 457.98 285.989C454.342 288.51 446.197 293.289 444.032 290.508C440.999 286.685 416.133 268.609 408.249 270.087C400.712 271.564 394.82 273.389 390.835 274.519H390.228H390.661C388.322 275.214 386.676 275.561 385.81 275.474H385.723L383.47 275.04H383.384H383.21C376.193 274.084 368.655 272.781 372.467 273.389C372.467 273.389 372.467 273.389 372.38 273.389C368.395 272.607 364.669 271.825 363.283 271.564L362.85 271.477H362.763H362.677C362.677 271.477 362.763 272.085 362.763 273.041C363.197 278.255 361.377 285.207 362.07 294.245C359.904 293.724 353.666 293.55 352.02 286.945C351.847 286.424 351.76 285.903 351.673 285.381C351.067 281.384 351.414 276.17 352.193 271.477C352.367 270.26 352.627 269.131 352.8 268.088C353.146 266.611 353.493 265.22 353.753 264.091C354.013 263.308 354.186 262.613 354.446 262.092C354.446 262.005 354.533 261.918 354.533 261.744C354.619 261.657 354.619 261.483 354.706 261.397C355.659 259.224 358.431 255.487 359.991 251.316C361.031 248.448 361.55 245.668 361.724 243.408C361.031 248.709 358.951 257.312 352.107 258.79C351.587 258.876 341.277 264.699 329.667 269.131C329.58 269.131 329.494 269.218 329.407 269.218C326.288 270.26 317.797 273.563 313.639 275.214C313.552 275.301 313.379 275.301 313.292 275.301C313.119 275.388 312.859 275.474 312.686 275.561H312.599C312.426 275.648 312.339 275.648 312.166 275.735C312.079 275.735 311.992 275.822 311.906 275.822C311.559 275.996 311.299 276.083 311.213 276.083H311.126C311.126 275.996 311.126 275.996 311.126 275.909C311.126 275.822 311.126 275.735 311.126 275.735C311.126 275.474 311.213 275.127 311.213 274.779C311.213 274.432 311.213 274.084 311.299 273.736C311.386 271.651 311.299 269.044 311.299 267.653C311.299 267.219 311.299 266.698 311.299 266.263C311.299 265.481 311.213 264.699 311.213 263.917C311.213 263.656 311.213 263.482 311.126 263.222C311.126 262.874 311.039 262.613 311.039 262.352C311.039 262.179 311.039 262.005 310.953 261.831C310.953 261.483 310.866 261.223 310.866 260.875C310.779 260.267 310.693 259.659 310.606 259.05C310.52 258.703 310.52 258.355 310.433 258.007C310.433 257.747 310.346 257.573 310.26 257.312C310.173 256.878 310.086 256.443 309.913 255.922C309.826 255.574 309.74 255.227 309.653 254.879C309.48 254.358 309.393 253.749 309.22 253.228C309.047 252.707 308.873 252.098 308.7 251.577C308.613 251.316 308.527 251.055 308.44 250.795C308.354 250.534 308.267 250.273 308.18 250.013C307.834 248.97 307.401 247.927 306.967 246.884C306.794 246.537 306.707 246.189 306.534 245.928C306.361 245.581 306.188 245.233 306.101 244.885C305.928 244.538 305.754 244.277 305.668 243.93C305.321 243.148 304.888 242.452 304.541 241.757C303.675 240.193 302.722 238.802 301.856 237.673C301.769 237.499 301.596 237.412 301.509 237.238C300.729 236.282 300.036 235.587 299.43 234.979C303.588 233.067 311.299 229.157 322.129 226.289H322.216C335.039 222.813 348.641 219.511 353.58 218.12C354.099 217.946 354.446 217.859 354.793 217.773C354.966 217.686 355.139 217.686 355.226 217.599H355.312C355.399 217.599 355.399 217.599 355.486 217.512C355.572 217.512 355.572 217.512 355.659 217.425C355.746 217.425 355.746 217.338 355.746 217.338C355.746 217.164 355.832 217.077 355.832 216.904C356.092 215.861 356.265 214.297 356.439 212.385V212.298C357.652 200.045 356.092 193.614 361.984 175.8C362.07 175.365 364.669 172.063 364.756 171.715C364.843 171.455 364.929 171.194 365.016 171.02C365.103 170.933 365.103 170.759 365.189 170.673C365.363 170.238 365.536 169.804 365.622 169.456C365.796 169.021 365.969 168.674 366.142 168.239C369.348 161.722 388.842 136.086 392.827 132.436C392.914 132.349 392.914 132.349 393.001 132.263C393.347 132.089 393.694 131.915 394.127 131.741L397.593 128.7C402.704 126.179 410.242 136.781 413.794 136.781C413.881 136.781 413.881 136.781 413.967 136.781C420.032 136.173 438.4 147.47 439.18 148.078C441.259 149.729 443.165 151.468 444.898 153.466C445.158 153.727 445.418 154.075 445.678 154.335C445.764 154.422 445.851 154.596 446.024 154.683C446.111 154.77 446.197 154.944 446.284 155.03C446.371 155.204 446.544 155.291 446.631 155.465C446.804 155.726 447.064 155.986 447.237 156.247C447.324 156.421 447.41 156.508 447.584 156.682C447.93 157.116 448.277 157.551 448.537 158.072C448.883 158.593 449.317 159.202 449.663 159.723C449.836 159.984 450.01 160.244 450.183 160.505C450.356 160.766 450.529 161.113 450.703 161.374C450.789 161.548 450.876 161.722 451.049 161.896C451.223 162.156 451.396 162.504 451.569 162.765C451.656 162.851 451.742 163.025 451.829 163.199C452.002 163.547 452.176 163.894 452.349 164.242C452.436 164.416 452.522 164.676 452.609 164.85C452.696 165.024 452.782 165.285 452.869 165.458L453.042 165.806C453.215 166.154 453.302 166.414 453.475 166.762C453.649 167.196 453.822 167.631 453.995 168.065C454.168 168.5 454.342 168.848 454.428 169.282V169.369C454.515 169.717 454.688 170.151 454.775 170.499C454.948 171.02 455.121 171.628 455.295 172.15C455.381 172.411 455.381 172.671 455.468 172.932C455.468 173.019 455.555 173.193 455.555 173.28C455.555 173.366 455.641 173.453 455.641 173.54C455.728 173.888 455.815 174.235 455.901 174.583C455.901 174.67 455.901 174.757 455.901 174.844C455.988 175.191 455.988 175.539 456.074 175.8C456.074 175.887 456.074 175.973 456.074 175.973C456.161 176.408 456.161 176.756 456.248 177.19C456.941 185.706 459.28 198.654 462.399 206.302C465.258 214.036 468.291 222.726 466.125 234.457Z" fill="#9ABAE3"/>
<path d="M364.756 211.255C364.756 211.255 362.763 202.999 365.189 192.398C367.615 181.796 374.373 171.802 380.351 164.937C386.242 158.072 389.448 155.726 389.448 155.726L389.015 152.858C389.015 152.858 372.12 169.63 368.654 177.277C367.615 179.536 366.662 181.883 365.795 184.055C363.369 190.225 362.59 197.003 363.629 203.608L364.756 211.255Z" fill="white"/>
<path d="M364.066 243.234C364.326 251.316 359.388 257.66 356.182 265.22C354.363 269.478 353.496 280.688 353.15 289.639C352.63 288.857 352.283 287.988 351.937 286.858C351.763 286.337 351.677 285.816 351.59 285.294C350.984 281.297 351.33 276.083 352.11 271.39C352.283 270.174 352.543 269.044 352.716 268.001C353.063 266.524 353.41 265.133 353.669 264.004C353.929 263.222 354.103 262.526 354.363 262.005C354.363 261.918 354.449 261.831 354.449 261.657C354.536 261.57 354.536 261.397 354.622 261.31C355.402 259.659 357.308 256.878 358.781 253.836C359.908 252.62 360.947 251.229 361.9 249.317C363.98 245.059 359.821 221.509 356.788 206.302C356.962 202.217 357.482 195.613 358.001 191.355C358.955 202.652 363.893 238.107 364.066 243.234Z" fill="white"/>
<path d="M355.831 222.726C356.351 222.639 356.698 222.465 357.044 222.378C357.218 222.291 357.391 222.291 357.478 222.204H357.564C357.651 222.204 357.651 222.204 357.738 222.118C357.824 222.118 357.824 222.118 357.911 222.031C357.997 222.031 357.997 221.944 357.997 221.944C357.997 221.77 358.084 221.683 358.084 221.509C358.344 220.466 358.517 218.902 358.691 216.99V216.904C358.777 215.687 358.864 214.557 358.951 213.514C358.691 212.993 358.344 212.385 358.084 211.863C357.824 211.516 357.044 210.56 356.698 210.125C356.611 210.907 356.611 211.603 356.525 212.472V212.559C356.351 214.47 356.178 216.035 355.918 217.077C355.918 217.251 355.831 217.425 355.831 217.512C355.831 217.512 355.831 217.512 355.745 217.599C355.745 217.599 355.658 217.599 355.572 217.686C355.485 217.686 355.485 217.686 355.398 217.773H355.312C355.225 217.859 355.052 217.859 354.878 217.946C354.532 218.033 354.185 218.12 353.666 218.294C348.727 219.684 335.125 222.987 322.302 226.463H322.215C311.385 229.33 303.674 233.241 299.516 235.153C300.122 235.674 300.902 236.456 301.595 237.412C301.682 237.499 301.855 237.673 301.942 237.847C302.288 238.281 302.548 238.716 302.895 239.15C307.66 237.238 314.504 233.675 324.381 230.981H324.468C337.291 227.419 350.893 224.116 355.831 222.726Z" fill="white"/>
<path d="M452.956 166.067L452.783 165.719C452.696 165.545 452.61 165.285 452.523 165.111C452.436 164.937 452.35 164.676 452.263 164.503C452.09 164.155 451.917 163.807 451.743 163.46C451.657 163.286 451.57 163.199 451.483 163.025C451.31 162.678 451.137 162.417 450.963 162.156C450.877 161.982 450.79 161.809 450.617 161.635C450.444 161.374 450.27 161.027 450.097 160.766C449.924 160.505 449.751 160.244 449.577 159.984C449.231 159.462 448.884 158.854 448.451 158.333C448.104 157.898 447.758 157.377 447.498 156.942C447.411 156.768 447.325 156.682 447.151 156.508C446.978 156.247 446.718 155.986 446.545 155.726C446.458 155.552 446.285 155.465 446.198 155.291C446.112 155.204 446.025 155.03 445.938 154.944C445.852 154.857 445.765 154.683 445.592 154.596C445.332 154.335 445.072 153.988 444.812 153.727C443.079 151.728 441.173 149.903 439.094 148.339C438.401 147.818 426.618 140.518 418.733 137.911C418.3 139.215 417.694 140.431 416.914 141.474C423.672 141.822 440.48 152.163 441.26 152.771C443.339 154.422 445.245 156.247 446.978 158.159C447.238 158.42 447.498 158.767 447.758 159.028C447.844 159.115 447.931 159.289 448.104 159.375C448.191 159.462 448.278 159.636 448.364 159.723C448.451 159.897 448.624 159.984 448.711 160.158C448.884 160.418 449.144 160.679 449.317 160.94C449.404 161.113 449.491 161.2 449.664 161.374C450.01 161.809 450.357 162.243 450.617 162.765C450.963 163.286 451.397 163.894 451.743 164.416C451.917 164.676 452.09 164.937 452.263 165.198C452.436 165.458 452.61 165.806 452.783 166.067C452.87 166.241 452.956 166.414 453.129 166.588V166.675C453.129 166.501 453.043 166.241 452.956 166.067Z" fill="white"/>
<path d="M475.916 277.386C475.83 277.56 458.848 285.294 457.895 285.989C454.256 288.51 446.112 293.289 443.946 290.508C441.867 287.901 414.315 291.203 396.121 293.637C386.937 294.853 378.187 289.465 375.241 280.688C373.941 276.865 372.815 273.823 372.382 273.563H372.295C368.31 272.781 364.584 271.998 363.198 271.738L362.765 271.651H362.678H362.592C362.592 271.651 362.765 272.259 362.678 273.215C362.072 281.297 362.245 285.381 361.985 294.419C360.166 293.984 355.574 293.81 353.061 289.9C352.541 289.118 352.195 288.249 351.848 287.119C351.675 286.598 351.588 286.076 351.502 285.555C350.895 281.558 351.242 276.343 352.021 271.651C352.195 270.434 352.455 269.305 352.628 268.262C352.974 266.784 353.321 265.394 353.581 264.264C353.841 263.482 354.014 262.787 354.274 262.266C354.274 262.179 354.361 262.092 354.361 261.918C354.447 261.831 354.447 261.657 354.534 261.57C355.314 259.919 357.22 257.138 358.693 254.097C359.126 253.315 359.472 252.446 359.819 251.577C360.859 248.709 361.379 245.928 361.552 243.669C360.859 248.97 358.779 257.573 351.935 259.05C351.415 259.137 341.105 264.96 329.495 269.391C329.408 269.391 329.322 269.478 329.235 269.478C326.116 270.521 317.625 273.823 313.467 275.474C313.38 275.561 313.207 275.561 313.12 275.561C312.947 275.648 312.687 275.735 312.514 275.822H312.427C312.254 275.909 312.167 275.909 311.994 275.996C311.907 275.996 311.821 276.083 311.734 276.083C311.387 276.257 311.127 276.343 311.041 276.343H310.954C310.954 276.257 310.954 276.257 310.954 276.17C310.954 276.083 310.954 275.996 310.954 275.996C310.954 275.735 311.041 275.388 311.041 275.04C311.041 274.692 311.041 274.345 311.127 273.997C311.214 271.912 311.127 269.305 311.127 267.914C311.127 267.48 311.127 266.958 311.127 266.524C311.127 265.742 311.041 264.96 311.041 264.177C311.041 263.917 311.041 263.743 310.954 263.482C310.954 263.135 310.868 262.874 310.868 262.613C310.868 262.439 310.868 262.266 310.781 262.092C310.781 261.744 310.694 261.483 310.694 261.136C310.608 260.528 310.521 259.919 310.434 259.311C310.348 258.963 310.348 258.616 310.261 258.268C310.261 258.007 310.174 257.834 310.088 257.573C310.001 257.138 309.915 256.704 309.741 256.183C309.655 255.835 309.568 255.487 309.481 255.14C309.308 254.618 309.221 254.01 309.048 253.489C308.875 252.967 308.702 252.359 308.528 251.838C308.442 251.577 308.355 251.316 308.268 251.055C308.182 250.795 308.095 250.534 308.008 250.273C307.662 249.231 307.229 248.188 306.795 247.145C306.622 246.797 306.536 246.45 306.362 246.189C306.189 245.841 306.016 245.494 305.929 245.146C305.756 244.799 305.583 244.538 305.496 244.19C305.149 243.408 304.716 242.713 304.37 242.018C303.503 240.454 302.55 239.063 301.684 237.933C301.597 237.76 301.424 237.673 301.337 237.499C300.557 236.543 299.864 235.848 299.258 235.24C303.417 233.328 311.127 229.417 321.957 226.55H322.044C334.867 223.074 348.469 219.771 353.408 218.381C353.928 218.207 354.274 218.12 354.621 218.033C354.794 217.946 354.967 217.946 355.054 217.859H355.14C355.227 217.859 355.227 217.859 355.314 217.773C355.4 217.773 355.4 217.773 355.487 217.686C355.574 217.686 355.574 217.599 355.574 217.599C355.574 217.425 355.66 217.338 355.66 217.164C355.92 216.121 356.094 214.557 356.267 212.645V212.559C356.527 210.299 356.613 208.214 356.7 206.215C356.873 202.13 356.96 198.394 357.48 194.136C358.086 189.269 359.213 183.708 361.725 175.973C361.812 175.539 364.411 172.237 364.498 171.889C364.584 171.628 364.671 171.368 364.758 171.194C364.844 171.107 364.844 170.933 364.931 170.846C365.104 170.412 365.277 169.977 365.364 169.63C365.537 169.195 365.711 168.848 365.884 168.413C369.089 161.896 388.583 136.26 392.569 132.61C392.656 132.523 392.656 132.523 392.742 132.436C393.089 132.262 393.435 132.089 393.868 131.915L397.334 128.873C402.446 126.353 409.983 136.955 413.536 136.955C413.622 136.955 413.622 136.955 413.709 136.955C419.774 136.347 438.141 147.644 438.921 148.252C441.001 149.903 442.907 151.641 444.639 153.64C444.899 153.901 445.159 154.248 445.419 154.509C445.506 154.596 445.592 154.77 445.766 154.857C445.852 154.944 445.939 155.117 446.026 155.204C446.112 155.378 446.286 155.465 446.372 155.639C446.545 155.899 446.805 156.16 446.979 156.421C447.065 156.595 447.152 156.682 447.325 156.855C447.672 157.29 448.018 157.724 448.278 158.246C448.625 158.767 449.058 159.375 449.405 159.897C449.578 160.158 449.751 160.418 449.924 160.679C450.098 160.94 450.271 161.287 450.444 161.548C450.531 161.722 450.618 161.896 450.791 162.069C450.964 162.33 451.137 162.678 451.311 162.938C451.397 163.025 451.484 163.199 451.571 163.373C451.744 163.72 451.917 164.068 452.09 164.416C452.177 164.589 452.264 164.85 452.35 165.024C452.437 165.198 452.524 165.458 452.61 165.632L452.784 165.98C452.957 166.327 453.043 166.588 453.217 166.936C453.39 167.37 453.563 167.805 453.737 168.239C453.91 168.674 454.083 169.021 454.17 169.456V169.543C454.256 169.89 454.43 170.325 454.516 170.673C454.69 171.194 454.863 171.802 455.036 172.324C455.123 172.584 455.123 172.845 455.209 173.106C455.209 173.193 455.296 173.366 455.296 173.453C455.296 173.54 455.383 173.627 455.383 173.714C455.469 174.062 455.556 174.409 455.643 174.757C455.643 174.844 455.643 174.931 455.643 175.018C455.729 175.365 455.729 175.713 455.816 175.973C455.816 176.06 455.816 176.147 455.816 176.147C455.903 176.582 455.903 176.929 455.989 177.364C456.682 185.88 459.022 198.828 462.141 206.476C465.173 213.949 468.205 222.639 465.953 234.371C465.953 234.457 465.953 234.544 465.953 234.631C465.086 240.54 479.729 269.565 475.916 277.386Z" stroke="#263238" stroke-width="2.5" stroke-miterlimit="10" stroke-linecap="round" stroke-linejoin="round"/>
<path d="M363.195 212.819C363.195 212.819 365.015 202.391 373.332 189.964C381.736 177.538 391.18 175.191 391.18 175.191L386.068 164.937C386.068 164.937 400.884 144.95 417.085 146.167C418.385 146.253 417.085 137.216 417.085 137.216" stroke="#263238" stroke-width="2.5" stroke-miterlimit="10" stroke-linecap="round" stroke-linejoin="round"/>
<path d="M413.617 198.828C414.744 202.304 427.913 221.77 425.487 231.068C423.061 240.367 421.588 273.563 421.588 273.563L416.996 273.91C417.256 263.656 422.541 237.412 420.808 225.072C419.682 215.687 413.617 198.828 413.617 198.828Z" fill="white"/>
<path d="M466.123 234.457C465.083 247.406 462.571 281.905 459.625 287.814" stroke="#263238" stroke-width="2.5" stroke-miterlimit="10" stroke-linecap="round" stroke-linejoin="round"/>
<path d="M364.754 230.808C364.58 229.417 364.494 228.114 364.32 226.723C364.407 227.679 364.494 228.635 364.58 229.504C364.494 229.591 364.58 230.026 364.754 230.808Z" fill="white" stroke="#263238" stroke-width="2.5" stroke-miterlimit="10" stroke-linecap="round" stroke-linejoin="round"/>
<path d="M364.758 230.808C365.191 234.805 365.624 238.716 366.057 242.278C365.711 237.151 365.104 232.893 364.758 230.808Z" fill="white" stroke="#263238" stroke-width="2.5" stroke-miterlimit="10" stroke-linecap="round" stroke-linejoin="round"/>
<path d="M366.053 251.924C365.706 257.399 361.114 271.998 362.587 272.954C362.674 272.954 362.674 272.954 362.761 272.954C370.905 273.997 364.147 273.91 372.204 273.389C372.204 273.389 369.605 268.262 367.699 255.661C367.439 254.097 366.833 248.883 366.053 242.278C366.226 245.32 366.226 248.709 366.053 251.924Z" fill="white" stroke="#263238" stroke-width="2.5" stroke-miterlimit="10" stroke-linecap="round" stroke-linejoin="round"/>
<path d="M362.07 201.001C362.244 206.128 363.197 216.382 364.236 226.723C363.457 217.338 362.417 207.779 362.07 198.741C362.07 199.523 362.07 200.306 362.07 201.001Z" fill="white" stroke="#263238" stroke-width="2.5" stroke-miterlimit="10" stroke-linecap="round" stroke-linejoin="round"/>
<path d="M394.129 131.915C393.609 132.089 393.262 132.262 393.002 132.436C392.916 132.523 392.916 132.523 392.829 132.61C392.136 133.218 390.923 134.609 389.363 136.434C389.537 135.825 389.71 135.391 389.71 135.391L386.591 133.045C386.591 133.045 379.66 140.692 373.248 144.863C366.924 149.034 362.938 153.814 362.938 153.814L381.479 153.119L376.281 153.292C375.588 154.335 366.404 167.805 366.057 168.5C365.884 168.848 365.711 169.282 365.537 169.717C365.364 170.151 365.191 170.499 365.104 170.933C365.018 171.02 365.018 171.194 364.931 171.281C364.844 171.542 364.758 171.715 364.671 171.976C364.498 172.324 364.411 172.758 364.325 173.106C362.072 180.492 361.639 189.356 362.072 198.828C363.198 166.327 407.991 135.304 408.338 133.392C408.424 133.305 398.807 130.438 394.129 131.915Z" fill="white" stroke="#263238" stroke-width="2.5" stroke-miterlimit="10" stroke-linecap="round" stroke-linejoin="round"/>
<path d="M388.926 140.084C389.013 143.907 392.739 144.689 397.504 142.343C398.11 142.082 398.717 141.735 399.323 141.3C399.497 141.213 399.67 141.039 399.843 140.953C400.276 140.692 400.709 140.344 401.143 140.084C406.428 136.086 410.413 130.003 410.326 125.919C410.24 123.486 408.767 122.269 406.428 122.356C406.341 122.356 406.168 122.356 406.081 122.356C405.908 122.356 405.735 122.356 405.561 122.443C403.829 122.703 401.663 123.572 399.41 125.05C393.518 128.96 388.753 135.652 388.926 140.084Z" fill="#263238" stroke="#263238" stroke-width="2.5" stroke-miterlimit="10" stroke-linecap="round" stroke-linejoin="round"/>
<path d="M389.706 135.391C397.071 138.867 405.821 135.739 410.846 128.439C411.453 127.57 411.973 126.614 412.493 125.571C412.666 125.224 412.753 124.963 412.926 124.615C413.272 123.92 413.532 123.138 413.792 122.356C416.738 112.971 413.272 102.977 405.475 99.3272C400.796 97.0678 395.511 97.5892 391.006 100.109C390.833 100.196 390.573 100.37 390.399 100.544C390.053 100.718 389.793 100.891 389.446 101.152C386.414 103.238 383.901 106.279 382.169 110.103C377.837 120.01 381.216 131.307 389.706 135.391Z" fill="#FCD8C3"/>
<path d="M382.174 110.016C383.82 106.192 386.42 103.151 389.452 101.065C389.712 100.891 390.058 100.631 390.405 100.457C390.578 100.283 390.838 100.196 391.011 100.022C395.517 97.5023 400.802 97.0678 405.48 99.2403C405.567 99.2403 405.654 99.3272 405.74 99.3272C402.188 98.8058 398.636 99.501 395.43 101.326C395.257 101.413 394.997 101.587 394.824 101.76C394.477 101.934 394.217 102.108 393.871 102.369C390.838 104.454 388.326 107.496 386.593 111.319C382.261 121.226 385.553 132.436 393.957 136.521C392.571 136.347 391.185 135.912 389.799 135.304C381.221 131.307 377.842 120.01 382.174 110.016Z" fill="white"/>
<path d="M389.706 135.391C397.071 138.867 405.821 135.739 410.846 128.439C411.453 127.57 411.973 126.614 412.493 125.571C412.666 125.224 412.753 124.963 412.926 124.615C413.272 123.92 413.532 123.138 413.792 122.356C416.738 112.971 413.272 102.977 405.475 99.3272C400.796 97.0678 395.511 97.5892 391.006 100.109C390.833 100.196 390.573 100.37 390.399 100.544C390.053 100.718 389.793 100.891 389.446 101.152C386.414 103.238 383.901 106.279 382.169 110.103C377.837 120.01 381.216 131.307 389.706 135.391Z" stroke="#263238" stroke-width="2.5" stroke-miterlimit="10" stroke-linecap="round" stroke-linejoin="round"/>
<path d="M408.422 170.238C410.588 163.112 413.534 155.986 419.252 151.033" stroke="#263238" stroke-width="2.5" stroke-miterlimit="10" stroke-linecap="round" stroke-linejoin="round"/>
<path d="M412.147 196.395C410.934 195.613 407.642 192.05 404.609 186.228" stroke="#263238" stroke-width="2.5" stroke-miterlimit="10" stroke-linecap="round" stroke-linejoin="round"/>
<path d="M408.939 182.839C407.726 188.574 411.018 194.049 413.618 198.828C415.177 201.696 418.556 216.904 420.895 224.985C422.022 228.983 416.737 275.822 417.083 277.386" stroke="#263238" stroke-width="2.5" stroke-miterlimit="10" stroke-linecap="round" stroke-linejoin="round"/>
<path d="M406.516 287.727C406.516 287.727 393.26 302.153 398.458 306.237C403.743 310.322 413.534 294.158 413.36 295.722C413.36 295.722 410.675 303.456 409.375 306.585C408.075 309.8 404.177 316.405 405.563 319.62C407.209 323.357 410.761 322.227 413.534 319.968C413.967 319.62 413.967 325.268 421.071 321.619C423.931 320.141 425.75 318.316 425.75 318.316C425.75 318.316 432.335 322.14 439.352 309.018C447.237 294.158 448.45 282.427 448.45 282.427L448.536 280.775C440.479 276.083 431.122 274.692 421.591 273.65C419.599 273.389 417.606 274.258 416.306 275.822L406.516 287.727Z" fill="#FCD8C3"/>
<path d="M409.033 320.923C407.647 317.795 411.545 311.104 412.845 307.888C414.145 304.76 414.578 303.283 416.311 298.329C416.397 297.46 417.004 291.986 413.365 295.548C413.105 296.244 409.639 305.89 409.379 306.411C408.08 309.626 404.181 316.231 405.567 319.446C406.434 321.445 407.906 322.053 409.466 321.792C409.379 321.532 409.206 321.271 409.033 320.923Z" fill="white"/>
<path d="M409.981 289.118L419.771 277.039C421.071 275.474 423.063 274.605 425.056 274.866C432.334 275.735 439.438 276.691 446.023 279.211C438.572 275.648 430.255 274.432 421.677 273.389C419.684 273.128 417.692 273.997 416.392 275.561L406.602 287.641C406.602 287.641 393.346 302.066 398.544 306.15C399.324 306.759 400.277 306.932 401.23 306.759C398.371 301.805 409.981 289.118 409.981 289.118Z" fill="white"/>
<path d="M416.996 321.271C416.476 321.706 416.043 322.053 415.523 322.314C416.043 322.575 416.823 322.748 417.776 322.661C417.256 321.879 417.17 321.184 416.996 321.271Z" fill="white"/>
<path d="M406.516 287.727C406.516 287.727 393.26 302.153 398.458 306.237C403.743 310.322 413.534 294.158 413.36 295.722C413.36 295.722 410.675 303.456 409.375 306.585C408.075 309.8 404.177 316.405 405.563 319.62C407.209 323.357 410.761 322.227 413.534 319.968C413.967 319.62 413.967 325.268 421.071 321.619C423.931 320.141 425.75 318.316 425.75 318.316C425.75 318.316 432.335 322.14 439.352 309.018C447.237 294.158 448.45 282.427 448.45 282.427L448.536 280.775C440.479 276.083 431.122 274.692 421.591 273.65C419.599 273.389 417.606 274.258 416.306 275.822L406.516 287.727Z" stroke="#263238" stroke-width="2.5" stroke-miterlimit="10" stroke-linecap="round" stroke-linejoin="round"/>
<path d="M402.098 295.722C404.177 299.024 401.924 303.891 398.719 305.977" stroke="#263238" stroke-width="2.5" stroke-miterlimit="10" stroke-linecap="round" stroke-linejoin="round"/>
<path d="M421.766 304.499C420.293 309.279 416.308 317.013 413.016 320.402" stroke="#263238" stroke-width="2.5" stroke-miterlimit="10" stroke-linecap="round" stroke-linejoin="round"/>
<path d="M431.902 305.977C429.996 310.495 425.317 319.533 420.898 321.619" stroke="#263238" stroke-width="2.5" stroke-miterlimit="10" stroke-linecap="round" stroke-linejoin="round"/>
<path d="M406.256 320.576C405.91 317.795 412.061 314.753 417.519 314.058" stroke="#263238" stroke-width="2.5" stroke-miterlimit="10" stroke-linecap="round" stroke-linejoin="round"/>
<path d="M293.625 237.151C289.553 236.195 286.781 237.064 281.669 237.673C273.438 238.629 261.222 248.101 265.208 251.229C269.193 254.358 284.875 249.144 286.694 250.969C290.073 254.445 293.192 257.312 297.004 258.007C300.123 258.529 303.502 267.567 303.502 267.567C303.502 267.567 310.434 270.087 311.04 267.306C311.127 266.784 311.213 265.915 311.3 264.873C311.82 256.096 307.401 246.624 303.069 238.976C302.983 239.063 302.896 239.324 293.625 237.151Z" fill="#FCD8C3"/>
<path d="M265.207 251.316C267.719 247.319 275.777 242.192 281.755 241.496C286.867 240.888 289.639 240.019 293.711 240.975C302.982 243.061 303.068 242.8 303.068 242.8C306.794 249.317 310.519 257.138 311.213 264.699C311.559 256.009 307.314 246.624 302.982 239.063C302.982 239.063 302.808 239.324 293.625 237.238C289.553 236.282 286.78 237.151 281.668 237.76C273.351 238.716 261.135 248.101 265.207 251.316Z" fill="white"/>
<path d="M293.625 237.151C289.553 236.195 286.781 237.064 281.669 237.673C273.438 238.629 261.222 248.101 265.208 251.229C269.193 254.358 284.875 249.144 286.694 250.969C290.073 254.445 293.192 257.312 297.004 258.007C300.123 258.529 303.502 267.567 303.502 267.567C303.502 267.567 310.434 270.087 311.04 267.306C311.127 266.784 311.213 265.915 311.3 264.873C311.82 256.096 307.401 246.624 303.069 238.976C302.983 239.063 302.896 239.324 293.625 237.151Z" stroke="#263238" stroke-width="2.5" stroke-miterlimit="10" stroke-linecap="round" stroke-linejoin="round"/>
<path d="M272.83 241.583C272.83 241.583 277.075 247.666 267.805 251.664" stroke="#263238" stroke-width="2.5" stroke-miterlimit="10" stroke-linecap="round" stroke-linejoin="round"/>
<path d="M421.242 227.505C421.762 226.202 424.708 222.291 429.82 218.207" stroke="#263238" stroke-width="2.5" stroke-miterlimit="10" stroke-linecap="round" stroke-linejoin="round"/>
<path d="M420.641 226.115C420.641 224.725 421.94 219.945 425.233 214.297" stroke="#263238" stroke-width="2.5" stroke-miterlimit="10" stroke-linecap="round" stroke-linejoin="round"/>
<path d="M445.329 117.229C442.556 112.188 437.098 111.059 432.073 111.233C430.86 111.319 429.474 111.58 427.914 111.928C422.629 113.144 417.431 109.755 416.564 104.367C416.564 104.367 416.564 104.367 416.564 104.281C415.871 99.7617 410.673 97.5023 406.861 100.022C406.774 99.9355 406.687 99.9355 406.601 99.8486C406.514 99.8486 406.514 99.7617 406.427 99.7617C406.427 99.7617 406.341 99.6748 406.254 99.6748C406.081 99.5879 405.821 99.4141 405.561 99.3272C405.561 99.3272 405.474 99.3272 405.474 99.2403C405.388 99.2403 405.388 99.1534 405.301 99.1534C405.301 99.1534 405.301 99.1534 405.214 99.1534C406.427 97.763 406.774 95.5905 405.821 93.7656C404.954 92.2014 403.222 91.2455 401.489 91.2455C401.316 91.2455 401.229 91.2455 401.056 91.2455C399.669 91.4193 398.456 90.4634 398.023 89.1599C397.85 88.6385 397.417 88.204 396.984 87.5957C394.558 84.4672 388.493 85.3362 386.587 91.4193C385.201 95.6774 385.807 99.3272 387.367 102.282C388.06 103.498 388.839 104.541 389.792 105.584C392.132 107.93 395.164 109.495 397.937 110.19C398.023 110.19 399.583 110.972 400.796 112.275L400.189 113.492C400.189 124.355 407.294 139.388 419.857 135.043C425.488 133.045 428.954 136.781 432.593 140.605C434.412 142.517 436.925 143.473 439.61 143.299C444.029 143.038 447.581 139.562 448.014 135.217C448.708 130.003 448.534 123.051 445.329 117.229Z" fill="#263238" stroke="#263238" stroke-width="2.5" stroke-miterlimit="10" stroke-linecap="round" stroke-linejoin="round"/>
<path d="M455.554 128.613C454.86 127.917 453.648 128.526 453.734 129.482C454.081 131.915 454.514 135.825 453.474 137.998C452.001 141.3 453.734 142.517 455.207 141.387C456.68 140.17 457.893 134.001 456.767 130.785C456.507 129.829 456.073 129.134 455.554 128.613Z" fill="#263238" stroke="#263238" stroke-width="2.5" stroke-miterlimit="10" stroke-linecap="round" stroke-linejoin="round"/>
<path d="M448.107 146.862C448.02 147.47 448.367 147.991 448.973 147.991C449.493 148.078 450.1 147.644 450.186 147.036C450.273 146.427 449.926 145.906 449.32 145.906C448.713 145.906 448.194 146.253 448.107 146.862Z" fill="#263238" stroke="#263238" stroke-width="2.5" stroke-miterlimit="10" stroke-linecap="round" stroke-linejoin="round"/>
<path d="M448.62 280.689L446.367 291.899C446.367 291.899 458.497 290.074 459.536 287.901C460.663 285.642 448.62 280.689 448.62 280.689Z" fill="#263238" stroke="#263238" stroke-width="2.5" stroke-miterlimit="10" stroke-linecap="round" stroke-linejoin="round"/>
<path d="M372.812 170.238C372.812 170.238 379.484 157.637 380.264 155.899C383.209 149.034 383.209 149.034 385.115 147.036C387.021 145.037 397.678 139.128 397.678 139.128L405.996 133.305C405.996 133.305 410.501 136.608 412.06 136.694C413.707 136.781 400.711 141.3 397.591 150.946C394.472 160.592 392.653 162.504 392.653 162.504L388.841 152.684L372.812 170.238Z" fill="white" stroke="#263238" stroke-width="2.5" stroke-miterlimit="10" stroke-linecap="round" stroke-linejoin="round"/>
<path d="M386.07 151.033C386.07 151.033 387.89 150.251 388.929 152.858C389.969 155.465 392.742 160.679 392.742 160.679" stroke="#263238" stroke-width="2.5" stroke-miterlimit="10" stroke-linecap="round" stroke-linejoin="round"/>
<path d="M357.133 201.261L361.725 243.321" stroke="#263238" stroke-width="2.5" stroke-miterlimit="10" stroke-linecap="round" stroke-linejoin="round"/>
</g>
<defs>
<clipPath id="clip0_1000_2954">
<rect width="559" height="337" fill="white"/>
</clipPath>
</defs>
</svg>
