<svg width="45" height="81" viewBox="0 0 45 81" fill="none" xmlns="http://www.w3.org/2000/svg">
<path d="M14.2617 71.9605C16.3494 74.4182 17.874 77.3703 18.6397 80.6192C19.4055 77.3703 20.93 74.4182 23.0177 71.9605C20.93 69.5028 19.4055 66.5509 18.6397 63.302C17.874 66.5509 16.3494 69.503 14.2617 71.9605Z" fill="#FED101"/>
<path d="M0 8.65867C2.08773 11.1164 3.61226 14.0685 4.37801 17.3173C5.14377 14.0685 6.66829 11.1166 8.75602 8.65867C6.66829 6.20097 5.14377 3.24906 4.37801 0C3.61226 3.24906 2.08773 6.20097 0 8.65867Z" fill="#FED101"/>
<path d="M28.7852 43.2188C32.6431 47.7607 35.4604 53.2158 36.8755 59.2193C38.2906 53.2158 41.1079 47.7607 44.9659 43.2188C41.1079 38.6772 38.2906 33.2223 36.8755 27.2184C35.4602 33.2221 32.6431 38.6772 28.7852 43.2188Z" fill="#FED101"/>
</svg>
