<svg width="1918" height="900" viewBox="0 0 1918 900" fill="none" xmlns="http://www.w3.org/2000/svg">
<mask id="mask0_1149_1632" style="mask-type:alpha" maskUnits="userSpaceOnUse" x="0" y="0" width="1920" height="901">
<rect x="1920" y="9.15527e-05" width="900" height="1920" transform="rotate(90 1920 9.15527e-05)" fill="url(#paint0_linear_1149_1632)"/>
</mask>
<g mask="url(#mask0_1149_1632)">
<rect width="237.219" height="995.287" transform="matrix(-0.866025 0.5 0.5 0.866025 -40.5474 173.443)" fill="url(#paint1_linear_1149_1632)"/>
<rect width="237.219" height="882.453" transform="matrix(-0.965926 -0.258819 -0.258819 0.965926 305.531 -317.615)" fill="url(#paint2_linear_1149_1632)" fill-opacity="0.1"/>
<mask id="mask1_1149_1632" style="mask-type:luminance" maskUnits="userSpaceOnUse" x="-166" y="-406" width="2251" height="1353">
<path d="M-165.919 -405.773L2084.57 -405.773L2084.57 946.295L-165.919 946.294L-165.919 -405.773Z" fill="white"/>
</mask>
<g mask="url(#mask1_1149_1632)">
<path d="M-464.965 772.239C-414.69 629.821 -362.748 482.536 -270.703 357.469C-171.502 222.668 -30.8907 133.567 125.203 106.571C164.992 99.6752 206.176 96.25 248.89 96.25C365.691 96.25 494.059 122.029 637.91 174.084C725.634 205.858 810.883 246.69 893.296 286.17C958.695 317.493 1026.34 349.943 1094.8 377.615C1131.89 392.623 1180.14 409.749 1225.42 409.749C1225.87 409.749 1226.32 409.749 1226.77 409.749C1249.37 409.569 1270.03 405.062 1288.21 396.319C1308.38 386.629 1326.38 371.351 1341.68 350.844C1372.38 309.742 1392.81 260.797 1412.57 213.429C1415.72 205.903 1418.97 198.106 1422.21 190.534C1449.03 127.393 1479.46 55.8233 1516.01 -11.3745C1594.46 -155.505 1706.17 -243.164 1889.68 -304.413C2061.98 -361.92 2341.08 -353.312 2511.85 -285.168C2814.45 -164.428 2865.63 -79.2932 2915.14 3.00265C2929.22 26.4385 2942.55 48.6124 2961.59 71.282C3001.01 118.289 2987.51 169.803 2973.2 224.336C2967.62 245.654 2961.81 267.737 2958.93 290.317L2959.38 290.362C2962.26 267.782 2968.07 245.744 2973.65 224.426C2980.94 196.619 2987.83 170.344 2988.05 144.744C2988.28 115.945 2980 92.5095 2961.95 70.9666C2942.95 48.342 2929.63 26.1681 2915.54 2.73223C2891.24 -37.6946 2866.12 -79.4735 2809.14 -126.39C2778.31 -151.719 2741.31 -176.101 2695.94 -200.934C2644.76 -228.967 2584.58 -256.639 2512.03 -285.619C2470.71 -302.114 2422.23 -315.409 2367.91 -325.189C2315.34 -334.654 2259.66 -340.377 2202.45 -342.18C2145.06 -344.028 2089.12 -341.865 2036.18 -335.735C1981.18 -329.381 1931.85 -318.97 1889.59 -304.863C1798.89 -274.577 1729.53 -240.009 1671.38 -196.022C1608.14 -148.204 1557.19 -87.9015 1515.69 -11.5998C1479.1 55.5979 1448.72 127.212 1421.85 190.354C1418.65 197.926 1415.36 205.722 1412.21 213.249C1392.45 260.571 1372.06 309.516 1341.37 350.529C1277.72 435.709 1185.32 413.67 1094.98 377.12C1026.52 349.447 958.875 317.043 893.476 285.72C811.063 246.239 725.814 205.362 638.045 173.588C546.9 140.598 464.262 118.649 385.45 106.526C340.8 99.6752 297.006 96.0246 255.327 95.7091C210.542 95.3486 166.747 98.864 125.113 106.03C45.7609 119.731 -29.0904 148.935 -97.3702 192.742C-163.76 235.333 -222.228 290.632 -271.108 357.109C-312.112 412.814 -348.84 478.254 -383.453 557.125C-414.734 628.424 -440.525 701.435 -465.416 772.013L-464.965 772.239Z" fill="url(#paint3_linear_1149_1632)" fill-opacity="0.08"/>
<path d="M-464.784 747.991C-400.24 604.266 -339.072 485.825 -250.447 375.136C-152.191 252.143 -10.8599 166.107 147.574 132.801C312.625 98.0976 485.013 111.753 660.011 173.408C752.551 206.398 842.121 250.836 928.72 293.742C988.628 323.442 1050.56 354.179 1112.99 380.86C1149.81 396.589 1197.88 414.842 1242.98 416.104C1265.21 416.735 1285.65 413.129 1303.65 405.468C1323.64 396.95 1341.5 383.068 1356.85 364.139C1386.06 328.084 1406.41 284.998 1426.12 243.31C1430.44 234.161 1434.9 224.741 1439.36 215.547C1448.45 196.889 1457.36 178.095 1466.81 158.265C1489.14 111.303 1512.23 62.7637 1537.66 15.3512C1617.1 -132.069 1726.74 -222.342 1904.22 -286.61C2071.79 -347.273 2344.1 -341.504 2511.17 -273.811C2804.01 -155.144 2854.51 -71.3162 2903.34 9.71771C2917.12 32.5677 2930.13 54.2007 2948.49 76.4197C2987.96 124.238 2976.04 176.608 2963.43 232.043C2958.57 253.45 2953.53 275.579 2951.28 298.204L2951.82 298.249C2954.12 275.669 2959.11 253.54 2963.97 232.133C2976.58 176.608 2988.5 124.103 2948.89 76.0591C2930.58 53.8852 2917.57 32.2972 2903.79 9.44726C2879.76 -30.4387 2854.91 -71.6767 2799.42 -117.827C2769.44 -142.75 2733.48 -166.727 2689.5 -191.109C2639.9 -218.646 2581.61 -245.868 2511.35 -274.307C2421.69 -310.677 2301.79 -329.155 2184.04 -329.155C2082.14 -329.155 1981.81 -315.319 1903.99 -287.151C1861.01 -271.602 1823.33 -255.107 1788.77 -236.809C1752.26 -217.475 1720.08 -196.473 1690.33 -172.676C1628.76 -123.371 1578.66 -61.987 1537.16 15.0357C1511.73 62.4933 1488.64 111.032 1466.32 157.994C1456.86 177.87 1447.95 196.618 1438.86 215.277C1434.4 224.471 1429.95 233.89 1425.63 243.039C1405.96 284.683 1385.61 327.769 1356.45 363.779C1292.67 442.469 1201.84 418.267 1113.21 380.364C1050.83 353.683 988.898 322.991 928.99 293.291C842.391 250.34 752.821 205.947 660.236 172.912C485.148 111.258 312.625 97.5568 147.484 132.305C67.9521 149.025 -6.80937 178.5 -74.6841 219.874C-142.424 261.157 -201.657 313.302 -250.852 374.821C-293.837 428.498 -333.22 487.899 -371.254 556.448C-408.927 624.322 -441.289 694.359 -465.279 747.766L-464.784 747.991Z" fill="url(#paint4_linear_1149_1632)" fill-opacity="0.08"/>
<path d="M-464.649 723.745C-394.479 600.617 -320.033 495.426 -230.238 392.804C-132.522 280.537 5.88326 199.729 169.944 159.031C355.475 113.016 523.001 117.523 682.156 172.732C779.377 206.444 872.907 254.668 963.332 301.224C1017.97 329.392 1074.46 358.462 1131.17 384.106C1167.41 400.466 1214.67 419.575 1259.14 422.414C1263.01 422.64 1266.83 422.775 1270.57 422.775C1311.71 422.775 1344.97 407.857 1371.98 377.345C1399.88 345.842 1420.09 307.984 1439.67 271.388C1445.12 261.203 1450.74 250.657 1456.46 240.426C1475.18 206.85 1493.77 170.028 1513.49 130.999C1528.21 101.794 1543.46 71.643 1559.26 41.8975C1639.15 -108.633 1746.64 -201.61 1918.62 -268.898C2081.51 -332.67 2346.98 -329.786 2510.41 -262.498C2793.57 -145.905 2843.39 -63.3383 2891.6 16.4788C2905.06 38.7428 2917.75 59.79 2935.39 81.5583C2974.87 130.233 2964.6 183.459 2953.76 239.84C2949.62 261.338 2945.34 283.557 2943.63 306.182L2944.21 306.227C2945.88 283.602 2950.16 261.383 2954.3 239.93C2965.19 183.414 2975.5 130.052 2935.84 81.1527C2918.24 59.4745 2905.55 38.4273 2892.09 16.1633C2868.33 -23.2269 2843.75 -63.9242 2789.74 -109.309C2760.57 -133.826 2725.69 -157.352 2683.07 -181.329C2635 -208.325 2578.6 -235.096 2510.63 -263.084C2470.58 -279.579 2423.95 -292.514 2371.96 -301.573C2321.77 -310.316 2268.75 -315.003 2214.38 -315.634C2160.01 -316.22 2107.03 -312.66 2056.89 -305.043C2004.95 -297.156 1958.36 -285.213 1918.4 -269.529C1876.54 -253.124 1839.63 -235.772 1805.56 -216.392C1769.95 -196.111 1738.45 -174.253 1709.19 -149.465C1649.19 -98.6724 1599.95 -36.1618 1558.63 41.6271C1542.83 71.3726 1527.62 101.569 1512.86 130.728C1493.19 169.713 1474.55 206.579 1455.87 240.111C1450.16 250.341 1444.53 260.887 1439.09 271.073C1419.55 307.669 1399.3 345.482 1371.48 376.895C1307.57 449.095 1218.31 422.73 1131.4 383.475C1074.73 357.876 1018.24 328.761 963.602 300.638C873.133 254.037 779.602 205.858 682.336 172.102C640.522 157.589 597.492 146.457 554.508 138.976C512.829 131.72 469.844 127.709 426.725 127.033C385.136 126.357 342.017 128.79 298.627 134.199C256.993 139.381 213.649 147.539 169.809 158.401C89.7365 178.276 15.0654 208.021 -52.0894 246.781C-121.315 286.757 -181.357 335.747 -230.643 392.353C-320.438 495.02 -394.929 600.211 -465.099 723.384L-464.649 723.745Z" fill="url(#paint5_linear_1149_1632)" fill-opacity="0.08"/>
<path d="M-464.471 699.498C-393.445 601.608 -311.482 516.202 -216.556 417.321L-209.985 410.471C-114.249 310.012 21.0954 234.251 192.313 185.261C281.522 159.707 381.219 136.993 487.442 136.993C557.252 136.993 629.853 146.818 704.254 172.101C805.346 206.444 902.072 258.183 995.648 308.255C1045.74 335.025 1097.51 362.743 1149.27 387.396C1184.87 404.341 1231.32 424.352 1275.25 428.769C1320.93 433.366 1357.48 420.927 1387.01 390.64C1413.74 363.194 1433.86 330.113 1453.31 298.069C1459.83 287.343 1466.54 276.256 1473.47 265.439C1500.88 222.714 1528.07 170.163 1556.88 114.503C1564.66 99.4954 1572.67 83.9466 1580.73 68.6231C1660.44 -83.2591 1769.1 -181.915 1933.07 -251.186C2091.32 -318.023 2349.99 -318.023 2509.64 -251.186C2783.12 -136.711 2832.27 -55.4064 2879.8 23.1938C2892.9 44.8719 2905.32 65.3783 2922.25 86.6058C2961.77 136.091 2953.12 190.219 2943.99 247.502C2940.57 269.09 2937.01 291.354 2935.93 314.023L2936.61 314.069C2937.69 291.444 2941.24 269.135 2944.66 247.592C2953.84 190.174 2962.49 135.956 2922.79 86.2001C2905.86 64.9727 2893.49 44.5114 2880.39 22.8332C2856.89 -16.0612 2832.59 -56.2176 2780.06 -100.836C2751.71 -124.903 2717.86 -148.023 2676.58 -171.594C2630.09 -198.095 2575.58 -224.37 2509.91 -251.862C2432.18 -284.402 2329.6 -302.339 2221 -302.339C2220.77 -302.339 2220.59 -302.339 2220.37 -302.339C2167.52 -302.294 2115.99 -298.057 2067.24 -289.63C2016.88 -280.976 1971.64 -268.267 1932.8 -251.862C1850.97 -217.294 1784.04 -176.191 1728.09 -126.165C1669.76 -73.9749 1621.37 -10.4277 1580.1 68.2175C1572.04 83.541 1564.03 99.0898 1556.25 114.098C1527.44 169.758 1500.25 222.308 1472.89 264.988C1465.96 275.805 1459.2 286.892 1452.72 297.618C1432.42 331.104 1413.2 362.698 1386.51 390.1C1322.46 455.765 1234.79 427.282 1149.58 386.674C1097.82 362.022 1046.06 334.349 995.963 307.533C902.388 257.462 805.616 205.723 704.479 171.335C622.426 143.483 538.348 132.305 447.339 137.173C371.857 141.229 290.749 156.282 192.133 184.495C110.8 207.751 36.2187 237.767 -29.4507 273.687C-100.341 312.446 -161.239 358.236 -210.435 409.885L-217.006 416.735C-311.932 515.616 -393.94 601.022 -464.966 698.957L-464.471 699.498Z" fill="url(#paint6_linear_1149_1632)" fill-opacity="0.08"/>
<path d="M-464.379 675.296C-418.74 626.441 -368.014 583.49 -314.317 538.016C-273.943 503.808 -232.219 468.474 -189.775 428.228C-97.8196 340.974 34.509 270.081 214.683 211.582C329.998 174.129 438.517 143.032 549.826 143.032C607.484 143.032 665.907 151.37 726.4 171.515C830.913 206.309 930.474 261.608 1026.71 315.06C1072.66 340.569 1120.15 366.979 1167.45 390.731C1202.38 408.262 1248.06 429.129 1291.41 435.169C1299.91 436.34 1308.11 436.926 1315.98 436.926C1349.79 436.926 1378.1 426.065 1402.04 403.981C1427.83 380.23 1446.96 352.602 1467.17 323.398C1474.64 312.581 1482.43 301.404 1490.49 290.452C1525.86 242.679 1560.39 176.022 1596.98 105.444L1602.25 95.304C1682.86 -60.0485 1789.31 -161.454 1947.47 -233.429C2103.7 -304.547 2350.31 -307.342 2508.88 -239.873C2772.68 -127.607 2821.16 -47.4743 2868.06 29.9542C2880.25 50.145 2892.9 70.9669 2909.15 91.6986C2948.67 142.041 2941.69 197.025 2934.36 255.254C2931.61 276.887 2928.77 299.286 2928.28 321.956L2929 321.956C2929.5 299.286 2932.33 276.932 2935.08 255.299C2942.46 196.934 2949.48 141.815 2909.74 91.2028C2893.49 70.5161 2880.88 49.6493 2868.69 29.5034C2821.74 -48.0601 2773.18 -128.283 2509.24 -240.64C2432.72 -273.224 2332.26 -290.396 2226.35 -289.044C2175 -288.368 2124.99 -283.41 2077.64 -274.261C2028.8 -264.842 1984.96 -251.366 1947.25 -234.195C1867.89 -198.095 1802.4 -155.099 1747.09 -102.819C1690.47 -49.3221 1642.93 15.3067 1601.66 94.8533L1596.39 104.994C1559.85 175.527 1525.28 242.138 1489.99 289.866C1481.89 300.773 1474.15 311.995 1466.68 322.812C1446.47 352.016 1427.38 379.554 1401.64 403.26C1372.29 430.301 1336.28 440.442 1291.54 434.222C1248.29 428.228 1202.69 407.361 1167.81 389.874C1120.51 366.123 1073.02 339.758 1027.07 314.249C930.79 260.752 831.183 205.452 726.625 170.659C683.371 156.282 640.386 147.539 595.331 143.978C554.417 140.733 512.738 141.905 467.954 147.449C380.229 158.355 291.11 185.847 214.414 210.725C129.48 238.307 57.1042 267.783 -6.80987 300.773C-42.1424 319.026 -75.0897 338.586 -104.751 358.867C-136.213 380.41 -165.019 403.53 -190.315 427.552C-232.714 467.798 -274.438 503.132 -314.812 537.34C-368.509 582.814 -419.235 625.81 -464.92 674.665L-464.379 675.296Z" fill="url(#paint7_linear_1149_1632)" fill-opacity="0.08"/>
<path d="M-464.245 651.048C-424.456 618.689 -381.112 591.422 -335.202 562.533C-280.74 528.235 -224.388 492.811 -169.565 445.894C-62.0821 353.909 89.3759 291.488 237.008 237.766C245.425 234.702 253.797 231.637 262.124 228.572C375.593 187.064 484.652 147.178 600.012 147.178C648.128 147.178 697.369 154.118 748.455 170.749C856.073 205.812 958.02 264.672 1056.64 321.595C1098.77 345.932 1142.34 371.035 1185.59 393.885C1219.89 412.003 1264.76 433.726 1307.57 441.388C1318.55 443.326 1329.04 444.317 1338.98 444.317C1369.18 444.317 1394.93 435.348 1417.12 417.186C1442.19 396.679 1461.27 372.703 1481.44 347.329C1489.77 336.828 1498.41 325.966 1507.55 315.375C1546.61 269.901 1584.83 197.925 1623.81 121.939C1705.36 -37.0188 1809.61 -141.173 1961.92 -215.717C2042.67 -255.242 2148.53 -275.298 2253.13 -275.298C2344.95 -275.298 2435.83 -259.839 2508.11 -228.562C2762.19 -118.548 2810.04 -39.5876 2856.31 36.7591C2868.19 56.3641 2880.48 76.6451 2896.05 96.836C2935.57 148.034 2930.31 203.92 2924.72 263.05C2922.65 284.773 2920.54 307.218 2920.63 329.932L2921.44 329.932C2921.35 307.263 2923.46 284.818 2925.53 263.14C2931.16 203.83 2936.47 147.854 2896.73 96.3853C2881.15 76.1944 2868.87 55.9585 2857.03 36.3986C2810.71 -40.0383 2762.78 -119.134 2508.56 -229.238C2433.44 -261.777 2335.32 -278.228 2232.34 -275.523C2182.51 -274.216 2133.95 -268.538 2087.99 -258.668C2040.73 -248.482 1998.2 -234.24 1961.69 -216.393C1809.2 -141.759 1704.82 -37.5145 1623.18 121.624C1584.24 197.565 1546.03 269.495 1507.05 314.924C1497.91 325.561 1489.27 336.422 1480.94 346.923C1460.78 372.297 1441.74 396.229 1416.72 416.645C1387.37 440.622 1351.72 448.463 1307.79 440.667C1265.08 433.05 1220.29 411.327 1186.04 393.254C1142.79 370.449 1099.26 345.301 1057.13 320.964C958.47 264.042 856.478 205.136 748.815 170.073C706.911 156.417 665.502 148.845 622.157 146.862C583.314 145.105 543.66 147.944 500.946 155.516C421.233 169.622 343.861 197.925 261.943 227.896C253.617 230.961 245.2 234.026 236.828 237.09C173.679 260.075 91.4912 291.173 15.9648 327.904C-60.1019 364.906 -120.955 403.349 -170.016 445.309C-224.793 492.18 -281.1 527.604 -335.517 561.902C-381.427 590.791 -424.816 618.103 -464.65 650.507L-464.245 651.048Z" fill="url(#paint8_linear_1149_1632)" fill-opacity="0.08"/>
<path d="M-464.154 626.846C-426.256 604.267 -385.207 586.42 -341.773 567.581C-277.453 539.638 -210.884 510.749 -149.401 463.607C-51.4593 388.567 78.529 336.513 216.124 281.393C230.257 275.715 244.885 269.856 259.333 264.042C280.983 255.298 302.588 246.24 323.518 237.451C429.741 192.833 531.733 149.972 642.187 149.972C683.596 149.972 726.13 155.967 770.6 170.163C881.009 205.407 985.117 267.828 1085.76 328.175C1124.38 351.34 1164.26 375.272 1203.77 397.175C1237.44 415.834 1281.46 438.459 1323.82 447.698C1367.25 457.207 1402.72 451.574 1432.24 430.526C1456.82 412.995 1475.99 392.218 1496.29 370.269C1505.34 360.489 1514.7 350.349 1524.65 340.389C1566.37 298.79 1607.33 223.66 1645.41 148.62C1727.96 -14.1234 1830.04 -121.027 1976.46 -197.959C2123.46 -275.207 2356.7 -283.68 2507.44 -217.204C2751.71 -109.534 2798.92 -31.7001 2844.56 43.61C2856.08 62.6291 2868.01 82.2791 2882.96 101.974C2922.52 154.074 2918.92 210.771 2915.09 270.847C2913.7 292.616 2912.3 315.15 2912.93 337.865L2913.83 337.82C2913.2 315.15 2914.6 292.616 2915.99 270.893C2919.82 210.68 2923.42 153.804 2883.68 101.433C2868.78 81.7834 2856.85 62.1784 2845.33 43.1593C2822.6 5.66198 2799.1 -33.0972 2750.99 -75.462C2725.06 -98.2669 2694.41 -120.17 2657.19 -142.389C2615.37 -167.358 2566.49 -192.1 2507.8 -217.97C2434.03 -250.465 2338.34 -266.194 2238.23 -262.183C2189.94 -260.245 2142.86 -253.845 2098.25 -243.209C2052.52 -232.302 2011.39 -217.294 1976.01 -198.68C1829.46 -121.658 1727.24 -14.6642 1644.6 148.26C1606.57 223.21 1565.65 298.294 1524.02 339.803C1514.03 349.763 1504.66 359.904 1495.62 369.683C1475.36 391.632 1456.23 412.319 1431.7 429.805C1402.4 450.717 1367.16 456.306 1323.95 446.841C1281.73 437.602 1237.76 415.023 1204.13 396.409C1164.66 374.506 1124.74 350.574 1086.16 327.409C985.477 267.016 881.369 204.551 770.825 169.307C607.439 117.162 469.349 175.166 323.157 236.595C302.273 245.383 280.623 254.442 259.018 263.186C244.57 268.999 229.942 274.858 215.809 280.537C78.1689 335.656 -51.8643 387.756 -149.941 462.886C-211.379 509.938 -277.858 538.827 -342.133 566.77C-385.612 585.653 -426.661 603.501 -464.604 626.125L-464.154 626.846Z" fill="url(#paint9_linear_1149_1632)" fill-opacity="0.08"/>
<path d="M-464.065 602.644C-426.527 587.276 -386.018 576.55 -343.078 565.237C-270.388 546.038 -195.221 526.208 -129.147 481.274C-51.0098 428.138 47.6066 387.711 151.984 344.895C194.429 327.499 238.268 309.516 281.748 290.227C311.859 276.886 341.611 262.509 370.327 248.583C472.499 199.188 570.44 151.82 679.229 151.82C715.687 151.82 753.315 157.138 792.744 169.442C905.764 204.776 1011.72 270.802 1114.16 334.665C1149.45 356.658 1185.95 379.418 1221.96 400.375C1254.95 419.575 1298.16 443.01 1340.06 453.917C1382.78 465.004 1417.89 461.669 1447.37 443.732C1471.81 428.859 1491.25 410.966 1511.82 392.038C1521.36 383.249 1531.22 374.19 1541.8 365.267C1587.48 326.688 1630.78 247.502 1667.06 175.166C1750.69 8.45605 1850.61 -101.152 1991 -180.338C2133.41 -260.65 2359.99 -271.918 2506.81 -205.982C2741.31 -100.701 2787.89 -23.9033 2832.95 50.3702C2844.11 68.8034 2855.68 87.8675 2869.95 106.977C2909.47 159.978 2907.62 217.576 2905.59 278.509C2904.87 300.322 2904.15 322.902 2905.37 345.662L2906.31 345.617C2905.1 322.902 2905.86 300.368 2906.54 278.554C2908.52 217.396 2910.41 159.662 2870.67 106.391C2856.44 87.3267 2844.88 68.2626 2833.71 49.8745C2811.21 12.7828 2787.98 -25.5258 2741.35 -67.1695C2716.24 -89.5687 2686.62 -111.067 2650.79 -132.88C2610.51 -157.352 2563.56 -181.554 2507.17 -206.883C2434.79 -239.378 2341.44 -254.296 2244.27 -248.978C2197.5 -246.409 2151.91 -239.288 2108.7 -227.885C2064.54 -216.212 2024.75 -200.483 1990.5 -181.194C1849.93 -101.963 1749.92 7.82509 1666.2 174.715C1629.97 246.961 1586.76 326.012 1541.17 364.5C1530.59 373.424 1520.73 382.483 1511.19 391.271C1490.67 410.155 1471.22 428.003 1446.87 442.83C1417.62 460.632 1382.78 463.968 1340.33 452.926C1298.56 442.064 1255.4 418.673 1222.45 399.474C1186.44 378.517 1149.99 355.757 1114.7 333.763C1012.21 269.856 906.214 203.785 793.059 168.451C753.54 156.102 715.777 150.784 679.229 150.784C570.26 150.784 472.229 198.196 369.967 247.637C341.206 261.518 311.499 275.895 281.388 289.28C237.953 308.57 194.069 326.552 151.624 343.949C47.2016 386.764 -51.4598 427.236 -129.687 480.418C-195.626 525.216 -270.703 545.046 -343.304 564.246C-386.243 575.603 -426.797 586.284 -464.38 601.698L-464.065 602.644Z" fill="url(#paint10_linear_1149_1632)" fill-opacity="0.08"/>
<path d="M-463.975 578.398C-426.077 568.978 -385.163 564.246 -341.909 559.289C-261.566 550.049 -178.523 540.45 -108.938 498.986C-45.1138 460.948 32.123 430.211 113.861 397.671C176.109 372.929 240.473 347.33 304.117 316.502C340.035 299.106 375.143 279.726 409.08 260.978C508.687 205.948 604.063 153.218 712.761 153.218C745.438 153.218 779.286 157.95 814.844 168.857C930.249 204.191 1037.82 273.867 1141.88 341.29C1174.07 362.157 1207.33 383.7 1240.1 403.711C1288.08 433.051 1323.95 450.492 1356.31 460.272C1398.31 472.982 1433.01 471.945 1462.4 457.072C1487.07 444.588 1507.09 429.265 1528.29 413.04C1538.02 405.604 1548.05 397.942 1558.81 390.325C1580.55 374.957 1602.7 349.854 1626.51 313.528C1645.32 284.864 1665.03 249.395 1688.62 201.892C1773.42 31.0361 1871.13 -81.3658 2005.44 -162.535C2143.35 -245.867 2363.23 -259.929 2506.04 -194.624C2730.78 -91.8217 2776.78 -16.0158 2821.2 57.2663C2832 75.1136 2843.21 93.5467 2856.8 112.07C2896.32 165.972 2896.19 224.427 2896.01 286.306C2895.96 308.21 2895.87 330.835 2897.67 353.594L2898.71 353.504C2896.95 330.789 2897 308.165 2897.09 286.306C2897.22 224.247 2897.4 165.612 2857.66 111.439C2844.11 92.9608 2832.95 74.5276 2822.1 56.7254C2799.87 20.0393 2776.87 -17.8636 2731.72 -58.7862C2707.42 -80.8249 2678.84 -101.872 2644.36 -123.235C2605.65 -147.211 2560.55 -170.873 2506.49 -195.57C2435.51 -228.02 2344.55 -242.217 2250.25 -235.501C2158.12 -228.966 2071.02 -203.367 2004.95 -163.436C1935.05 -121.207 1875.5 -70.7296 1822.88 -9.12036C1773.6 48.6129 1729.35 117.478 1687.72 201.397C1651.22 274.949 1607.29 354.811 1558.27 389.424C1547.51 397.041 1537.48 404.702 1527.75 412.184C1506.6 428.364 1486.62 443.687 1462.04 456.081C1432.87 470.818 1398.44 471.855 1356.72 459.191C1324.4 449.411 1288.66 432.014 1240.73 402.719C1208 382.709 1174.74 361.166 1142.56 340.299C1038.45 272.831 930.834 203.109 815.249 167.73C660.955 120.498 538.393 188.236 408.675 259.941C374.738 278.69 339.63 298.069 303.757 315.466C240.113 346.248 175.794 371.847 113.591 396.59C31.7631 429.13 -45.4739 459.867 -109.388 497.95C-178.748 539.323 -261.701 548.878 -341.953 558.117C-385.253 563.119 -426.167 567.807 -464.155 577.271L-463.975 578.398Z" fill="url(#paint11_linear_1149_1632)" fill-opacity="0.08"/>
<path d="M-463.93 554.195C-425.221 550.049 -383.542 550.68 -339.388 551.356C-323.004 551.626 -306.53 551.852 -290.057 551.852C-218.581 551.852 -147.736 547.075 -88.7728 516.698C-36.2015 489.612 25.237 466.762 90.2761 442.605C167.693 413.851 247.766 384.105 326.488 342.777C366.592 321.73 405.39 297.438 442.928 273.957C567.29 196.123 684.811 122.616 836.989 168.225C954.644 203.469 1063.7 276.932 1169.16 347.96C1198.37 367.655 1228.62 387.981 1258.28 407C1305.27 437.107 1340.56 455.495 1372.65 466.627C1413.92 480.959 1448.22 482.175 1477.48 470.412C1503.04 460.137 1524.11 447.067 1546.43 433.186C1555.8 427.372 1565.52 421.332 1575.82 415.338C1598.96 401.908 1622.14 377.841 1646.67 341.651C1666.16 312.942 1686.32 277.022 1710.13 228.573C1796.19 53.2997 1891.75 -61.8513 2019.89 -144.778C2155.51 -232.527 2364.17 -249.068 2505.28 -183.267C2720.24 -82.9435 2765.61 -8.08406 2809.5 64.2966C2819.94 81.5129 2830.74 99.3602 2843.66 117.253C2883.18 172.056 2884.76 231.412 2886.47 294.238C2887.05 316.187 2887.68 338.856 2889.98 361.616L2891.06 361.526C2888.76 338.811 2888.13 316.142 2887.55 294.238C2885.84 231.232 2884.26 171.741 2844.52 116.667C2831.64 98.7743 2820.84 80.9721 2810.4 63.8009C2788.39 27.4753 2765.66 -10.0671 2721.95 -50.2686C2698.46 -71.9016 2670.91 -92.5883 2637.79 -113.455C2600.61 -136.891 2557.4 -160.011 2505.68 -184.123C2470.08 -200.754 2429.84 -212.381 2386.09 -218.736C2344.32 -224.775 2300.62 -225.857 2256.15 -221.936C2167.34 -214.094 2083.22 -186.963 2019.26 -145.589C1951.66 -101.827 1893.59 -49.4574 1841.74 14.5405C1794.39 72.9498 1751.05 142.852 1709.14 228.212C1685.38 276.616 1665.26 312.491 1645.77 341.155C1621.28 377.165 1598.24 401.187 1575.28 414.482C1564.93 420.476 1555.26 426.515 1545.85 432.329C1523.57 446.165 1502.55 459.19 1477.07 469.466C1448.04 481.139 1414.01 479.877 1373.01 465.635C1340.96 454.548 1305.77 436.16 1258.87 406.144C1229.2 387.125 1199 366.799 1169.75 347.104C1064.24 276.03 955.095 202.568 837.304 167.234C800.576 156.237 765.018 151.775 728.605 153.578C696.063 155.2 663.476 161.871 628.999 173.949C564.86 196.438 505.357 233.665 442.343 273.101C404.85 296.582 366.051 320.829 325.993 341.876C247.315 383.159 167.288 412.904 89.9162 441.658C24.832 465.86 -36.6514 488.665 -89.2679 515.797C-161.509 553.069 -251.933 551.671 -339.343 550.319C-383.542 549.643 -425.266 549.012 -464.02 553.159L-463.93 554.195Z" fill="url(#paint12_linear_1149_1632)" fill-opacity="0.08"/>
<path d="M-187.569 555.232C-144.63 555.232 -104.076 549.914 -68.5631 534.366C-25.3087 515.437 23.707 498.987 75.6481 481.545C161.302 452.791 258.343 420.251 348.858 368.963C392.067 344.49 433.476 315.421 473.535 287.298C593.891 202.839 707.541 123.067 859.089 167.505C978.86 202.658 1089.22 279.907 1195.9 354.586C1222.32 373.064 1249.64 392.218 1276.38 410.156C1335.34 449.726 1401.55 488.17 1459.74 488.17C1471 488.17 1481.93 486.728 1492.47 483.573C1520.06 475.325 1543.1 464.148 1567.54 452.34C1575.65 448.419 1584.02 444.363 1592.84 440.262C1617.37 428.859 1641.63 405.784 1666.97 369.729C1687.04 341.155 1707.61 304.785 1731.69 255.164C1820.36 72.7248 1910.88 -41.57 2034.34 -127.111C2165.41 -217.88 2367.55 -237.169 2504.51 -171.999C2709.76 -74.335 2752.56 -3.62184 2797.84 71.1926C2807.88 87.7779 2818.28 104.949 2830.52 122.256C2869.99 178.006 2873.37 238.218 2876.92 301.991C2878.14 323.984 2879.44 346.699 2882.23 369.414L2883.41 369.278C2880.57 346.564 2879.31 323.849 2878.09 301.9C2874.54 237.993 2871.16 177.6 2831.46 121.58C2819.27 104.318 2808.87 87.192 2798.83 70.6067C2777.05 34.6417 2754.54 -2.5402 2712.32 -42.0656C2689.64 -63.248 2663.13 -83.5291 2631.35 -103.99C2595.75 -126.93 2554.43 -149.465 2505.01 -172.991C2470.04 -189.621 2430.7 -201.069 2388.12 -207.018C2347.56 -212.652 2305.16 -213.192 2262.09 -208.595C2176.62 -199.446 2095.46 -170.828 2033.62 -128.012C1968.27 -82.7629 1911.69 -28.4549 1860.65 37.9316C1814.74 97.6479 1773.42 166.513 1730.57 254.713C1706.49 304.244 1685.96 340.614 1665.93 369.098C1640.73 404.973 1616.65 427.958 1592.3 439.225C1583.48 443.327 1575.11 447.383 1567 451.304C1542.61 463.112 1519.61 474.289 1492.11 482.491C1427.52 501.736 1347.13 456.261 1277.01 409.209C1250.22 391.227 1222.95 372.118 1196.53 353.639C1089.76 278.87 979.31 201.577 859.359 166.378C822.766 155.652 787.524 151.73 751.606 154.48C719.514 156.913 687.557 164.665 653.889 178.141C591.236 203.199 533.713 243.581 472.86 286.306C432.846 314.384 391.437 343.454 348.273 367.926C257.848 419.124 160.852 451.709 75.2431 480.418C23.3019 497.86 -25.7589 514.31 -69.0584 533.284C-143.82 566.004 -241.446 553.249 -335.876 540.946C-381.246 535.042 -424.051 529.408 -463.839 528.777L-463.839 529.949C-424.096 530.625 -381.291 536.213 -336.012 542.117C-286.141 548.607 -235.414 555.232 -187.569 555.232Z" fill="url(#paint13_linear_1149_1632)" fill-opacity="0.08"/>
<path d="M-129.823 564.651C-100.566 564.651 -73.0653 561.046 -48.4 552.077C-13.2022 539.323 25.6865 527.92 66.8703 515.887C162.651 487.854 271.17 456.125 371.227 395.192C416.822 367.43 460.076 333.673 501.935 300.998C619.006 209.598 729.55 123.291 881.188 166.873C1002.98 201.847 1114.47 283.016 1222.32 361.481C1246.04 378.742 1270.57 396.589 1294.56 413.445C1338.89 444.588 1374.09 465.5 1405.33 479.201C1445.25 496.733 1478.69 502.546 1507.54 496.913C1539.55 490.693 1565.47 481.319 1595.49 470.457C1600.17 468.745 1604.99 467.032 1609.9 465.274C1635.91 455.99 1661.21 433.952 1687.31 397.942C1707.84 369.593 1728.81 332.727 1753.25 281.844C1843.45 94.3123 1931.85 -22.6866 2048.83 -109.354C2175.36 -203.052 2370.92 -225.136 2503.75 -160.597C2699.22 -65.6372 2741.49 4.30974 2786.23 78.358C2795.86 94.3124 2805.85 110.808 2817.42 127.438C2856.85 184.135 2862.02 245.248 2867.47 309.922C2869.32 331.916 2871.25 354.675 2874.58 377.39L2875.8 377.21C2872.47 354.495 2870.53 331.78 2868.69 309.787C2863.2 244.933 2858.06 183.639 2818.41 126.672C2806.84 110.087 2796.9 93.5913 2787.26 77.6369C2765.7 41.9874 2743.42 5.12102 2702.65 -33.7735C2680.73 -54.6854 2655.25 -74.5608 2624.87 -94.5264C2590.8 -116.926 2551.37 -138.919 2504.29 -161.814C2469.94 -178.49 2431.55 -189.757 2390.14 -195.3C2350.8 -200.574 2309.75 -200.528 2268.08 -195.255C2185.93 -184.844 2107.8 -154.693 2048.07 -110.436C1984.96 -63.6993 1929.92 -7.49836 1879.69 61.3669C1835.98 121.264 1795.47 191.12 1752.13 281.213C1727.69 332.006 1706.76 368.827 1686.28 397.13C1660.35 432.915 1635.19 454.818 1609.45 464.013C1604.54 465.77 1599.72 467.483 1595.04 469.195C1565.07 480.012 1539.14 489.386 1507.27 495.606C1478.65 501.194 1445.48 495.426 1405.78 477.984C1374.63 464.283 1339.52 443.416 1295.23 412.318C1271.24 395.463 1246.71 377.615 1223.04 360.354C1115.1 281.799 1003.52 200.585 881.548 165.566C844.91 155.02 809.802 151.685 774.2 155.381C742.378 158.671 710.826 167.504 677.789 182.377C616.26 210.094 560.403 253.721 501.215 299.917C459.401 332.591 416.147 366.348 370.597 394.02C270.675 454.818 162.201 486.547 66.5104 514.58C25.3264 526.613 -13.5623 538.016 -48.805 550.77C-125.862 578.713 -230.555 554.33 -331.782 530.714C-378.502 519.808 -422.611 509.532 -463.615 504.304L-463.75 505.521C-422.836 510.749 -378.727 521.025 -332.052 531.886C-263.006 548.156 -192.341 564.651 -129.823 564.651Z" fill="url(#paint14_linear_1149_1632)" fill-opacity="0.08"/>
<path d="M-84.6773 577C-64.5579 577 -45.6536 574.792 -28.2349 569.744C-0.148747 561.632 30.0529 554.241 62.0549 546.399C166.793 520.799 285.529 491.775 393.552 421.423C440.947 390.55 485.597 352.107 528.716 314.925C623.372 233.35 713.752 155.516 828.482 155.516C852.292 155.516 877.137 158.851 903.288 166.197C1027.02 200.991 1139.54 286.126 1248.38 368.512C1269.49 384.511 1291.32 401.006 1312.7 416.69C1356.09 448.599 1390.7 470.458 1421.71 485.601C1456.14 502.411 1485.8 510.659 1511.87 510.659C1515.51 510.659 1519.07 510.479 1522.58 510.163C1561.33 506.603 1592.75 499.031 1626.91 490.243C1654.41 483.167 1680.83 462.21 1707.7 426.2C1728.63 398.122 1749.97 360.715 1774.86 308.48C1842.96 165.431 1925.06 17.9658 2063.33 -91.6418C2169.73 -175.966 2354.9 -222.882 2503.07 -149.33C2688.74 -57.164 2730.51 12.1069 2774.71 85.434C2783.93 100.712 2793.47 116.532 2804.37 132.486C2843.8 190.174 2850.73 252.189 2858.11 317.809C2860.58 339.803 2863.15 362.563 2867.02 385.323L2868.33 385.097C2864.46 362.428 2861.89 339.668 2859.46 317.674C2852.08 251.874 2845.1 189.723 2805.49 131.765C2794.65 115.856 2785.1 100.036 2775.88 84.758C2753.55 47.7564 2732.49 12.783 2693.15 -25.4355C2671.99 -45.9869 2647.6 -65.4567 2618.52 -85.0166C2585.98 -106.875 2548.44 -128.328 2503.7 -150.547C2469.99 -167.267 2432.5 -178.354 2392.3 -183.492C2354.18 -188.36 2314.48 -187.774 2274.2 -181.78C2195.38 -170.062 2120.26 -138.423 2062.56 -92.7234C2001.71 -44.4997 1948.15 13.6392 1898.77 84.9382C1857.41 144.655 1817.71 215.503 1773.73 307.849C1748.89 359.994 1727.6 397.311 1706.71 425.344C1680.02 461.083 1653.83 481.86 1626.64 488.891C1592.52 497.679 1561.15 505.251 1522.49 508.811C1494.13 511.425 1461.36 503.403 1422.34 484.339C1391.42 469.241 1356.85 447.382 1313.55 415.564C1292.22 399.88 1270.39 383.339 1249.28 367.385C1140.35 284.954 1027.74 199.729 903.783 164.89C866.965 154.524 831.857 151.73 796.435 156.327C764.793 160.428 733.556 170.344 700.924 186.704C640.296 217.125 585.744 264.132 527.996 313.888C484.877 351.025 440.317 389.469 392.967 420.296C285.123 490.513 166.522 519.538 61.8744 545.092C29.8725 552.934 -0.373845 560.325 -28.5049 568.437C-107.722 591.377 -219.347 555.142 -327.28 520.078C-375.486 504.439 -421.036 489.657 -463.345 480.057L-463.615 481.319C-421.396 490.874 -375.891 505.656 -327.685 521.295C-243.292 548.832 -156.513 577 -84.6773 577Z" fill="url(#paint15_linear_1149_1632)" fill-opacity="0.08"/>
<path d="M-46.1036 591.287C-32.7357 591.287 -19.9979 590.07 -8.07013 587.456C13.4894 582.724 36.1293 578.352 60.1196 573.755C114.221 563.344 175.525 551.536 236.288 532.652C306.008 510.974 364.746 483.167 415.877 447.652C464.713 413.761 510.263 370.72 554.282 329.076C666.267 223.254 771.995 123.337 925.343 165.521C1050.92 200.089 1164.39 289.371 1274.12 375.678C1292.76 390.325 1311.98 405.468 1330.75 419.89C1362.34 444.182 1401.68 474.378 1438.19 495.155C1472.39 514.58 1501.33 524.134 1526.13 524.134C1530.05 524.134 1533.83 523.909 1537.57 523.413C1554.63 521.25 1570.65 520.619 1586.13 519.988C1604.5 519.267 1623.45 518.546 1643.83 515.166C1672.82 510.388 1700.37 490.513 1728 454.503C1749.61 426.335 1770.72 389.514 1796.33 335.116C1876.67 164.665 1955.26 29.8638 2077.73 -73.975C2180.22 -160.913 2358.95 -210.804 2502.26 -138.063C2678.16 -48.7363 2719.43 19.9036 2763.14 92.5998C2771.92 107.202 2781.01 122.3 2791.18 137.533C2830.56 196.213 2839.34 259.129 2848.66 325.741C2851.72 347.735 2854.91 370.495 2859.28 393.209L2860.63 392.939C2856.26 370.314 2853.11 347.555 2850.01 325.561C2840.69 258.814 2831.87 195.717 2792.3 136.767C2782.13 121.579 2773.04 106.481 2764.26 91.9238C2742.16 55.1475 2721.32 20.4445 2683.38 -17.1881C2662.99 -37.379 2639.63 -56.4882 2611.91 -75.5974C2580.89 -96.9601 2545.2 -117.782 2502.8 -139.325C2469.72 -156.136 2433.17 -166.997 2394.15 -171.729C2357.24 -176.191 2318.85 -175.019 2280 -168.349C2204.57 -155.369 2132.42 -122.244 2076.78 -75.0566C2018.18 -25.3456 1966.11 34.6861 1917.63 108.509C1867.26 185.216 1825.67 269.54 1795.07 334.439C1756.09 417.141 1707.57 503.132 1643.61 513.724C1623.36 517.059 1604.41 517.825 1586.09 518.546C1570.56 519.132 1554.54 519.763 1537.39 521.971C1476.13 529.768 1399.34 470.773 1331.6 418.718C1312.83 404.296 1293.57 389.153 1274.98 374.506C1165.16 288.109 1051.6 198.737 925.748 164.079C888.66 153.893 853.462 151.595 818.085 157.093C786.488 162.006 755.476 173.093 723.204 190.94C663.251 224.111 609.869 274.543 553.382 327.949C509.363 369.548 463.858 412.544 415.112 446.391C300.562 525.937 172.644 550.545 59.8495 572.268C35.8593 576.865 13.1745 581.237 -8.38508 585.969C-89.6278 603.771 -208.139 555.547 -322.779 508.901C-372.559 488.62 -419.595 469.466 -463.299 455.72L-463.704 457.027C-420.09 470.773 -373.055 489.927 -323.319 510.163C-225.198 550.229 -124.331 591.287 -46.1036 591.287Z" fill="url(#paint16_linear_1149_1632)" fill-opacity="0.08"/>
<path d="M-11.6253 606.835C-3.38849 606.835 4.53314 606.294 12.1398 605.123C27.5783 602.779 43.4667 600.616 60.3002 598.317C117.643 590.43 182.592 581.552 247.496 563.569C322.168 542.883 384.596 513.543 438.338 473.882C488.299 437.016 534.434 389.423 579.129 343.453C689.042 230.194 792.88 123.246 947.579 164.89C1074.96 199.187 1189.28 292.705 1299.78 383.158C1315.94 396.409 1332.68 410.11 1349.02 423.18C1410.01 472.17 1488.24 529.317 1552.6 536.753C1561.56 537.79 1570.33 539.187 1578.84 540.494C1606.79 544.911 1633.21 549.057 1661.12 540.178C1691.23 530.579 1720.26 509.487 1747.4 477.443C1772.02 448.373 1795.79 409.479 1818.02 361.841C1887.29 213.384 1965.57 58.8425 2092.31 -56.1733C2190.93 -145.68 2363.18 -198.636 2501.59 -126.661C2667.72 -40.309 2708.54 27.8803 2751.75 100.036C2760.08 113.917 2768.63 128.249 2778.17 142.716C2817.51 202.432 2828.13 266.295 2839.39 333.853C2843.03 355.847 2846.86 378.561 2851.67 401.186L2853.11 400.871C2848.25 378.291 2844.47 355.576 2840.83 333.583C2829.53 265.844 2818.86 201.846 2779.39 141.905C2769.89 127.483 2761.29 113.151 2753.01 99.2694C2731.14 62.7185 2710.48 28.1957 2673.93 -8.85091C2654.31 -28.7263 2631.98 -47.475 2605.61 -66.0884C2576.12 -86.9103 2542.32 -107.191 2502.26 -127.968C2469.81 -144.824 2434.21 -155.55 2396.35 -159.832C2360.71 -163.888 2323.62 -162.175 2286.22 -154.784C2214.15 -140.542 2144.93 -105.884 2091.37 -57.255C2035.02 -6.10177 1984.47 55.868 1936.85 132.26C1890.44 206.714 1850.07 289.776 1816.76 361.21C1770.27 460.857 1717.74 520.574 1660.76 538.781C1633.21 547.57 1606.97 543.423 1579.16 539.052C1570.65 537.7 1561.83 536.303 1552.87 535.266C1488.87 527.92 1410.86 470.862 1350.06 422.008C1333.76 408.893 1317.02 395.192 1300.86 381.987C1190.23 291.443 1075.81 197.835 948.119 163.447C910.716 153.352 875.338 151.594 839.96 158.039C808.363 163.763 777.487 175.977 745.485 195.356C686.072 231.366 633.68 285.269 578.273 342.371C533.669 388.341 487.534 435.844 437.663 472.665C317.216 561.586 174.76 581.101 60.3002 596.83C43.4667 599.129 27.5783 601.337 12.0949 603.635C-71.1282 616.21 -196.436 555.862 -317.692 497.498C-369.138 472.71 -417.749 449.319 -462.849 431.472L-463.389 432.824C-418.334 450.671 -369.768 474.062 -318.322 498.805C-208.093 552.031 -94.2633 606.835 -11.6253 606.835Z" fill="url(#paint17_linear_1149_1632)" fill-opacity="0.08"/>
<path d="M20.016 623.376C24.2021 623.376 28.298 623.196 32.2587 622.881C41.8908 622.069 51.613 621.303 61.9203 620.492C183.447 610.802 334.725 598.769 460.707 500.203C511.523 460.452 558.063 408.398 603.118 358.056C711.232 237.226 813.359 123.112 969.633 164.305C1098.81 198.332 1213.86 296.266 1325.08 390.911C1338.89 402.674 1353.16 414.843 1367.11 426.516C1426.93 476.722 1503.81 536.168 1567.54 550.094C1576.82 552.123 1585.91 554.556 1594.68 556.855C1615.25 562.308 1635.01 567.581 1655.45 567.581C1662.87 567.581 1670.39 566.905 1678.04 565.283C1694.52 561.813 1710.58 554.827 1725.89 544.596C1740.34 534.951 1754.56 522.017 1768.2 506.243C1792.82 477.669 1816.13 439.225 1839.49 388.613C1916.32 222.399 1989.47 75.519 2106.72 -38.3251C2198.58 -127.562 2361.07 -189.666 2500.78 -115.213C2657.19 -31.9703 2697.56 35.8133 2740.32 107.563C2748.15 120.678 2756.21 134.244 2764.98 147.855C2804.23 208.653 2816.75 273.417 2830.02 342.011C2834.25 363.96 2838.67 386.63 2843.98 409.164L2845.46 408.804C2840.15 386.314 2835.78 363.645 2831.51 341.696C2818.23 272.966 2805.67 208.067 2766.24 146.998C2757.47 133.388 2749.41 119.867 2741.58 106.752C2698.68 34.7767 2658.22 -33.1872 2501.45 -116.7C2439.47 -149.69 2367.1 -158.208 2292.11 -141.308C2223.43 -125.804 2157.17 -89.6586 2105.59 -39.5419C2076.87 -11.6443 2050.32 18.5519 2024.39 52.8043C2000.85 83.9018 1978.39 117.658 1955.75 155.922C1911.64 230.511 1873.43 311.365 1838.1 387.847C1788.5 495.111 1737.55 550.996 1677.68 563.66C1649.24 569.7 1622.91 562.669 1595.04 555.277C1586.22 552.934 1577.13 550.545 1567.81 548.472C1504.39 534.591 1427.74 475.325 1368.06 425.209C1354.15 413.536 1339.84 401.367 1326.07 389.604C1271.11 342.823 1214.31 294.464 1155.25 253.766C1088.59 207.751 1028.01 177.961 969.993 162.682C932.185 152.722 896.582 151.46 861.114 158.806C829.473 165.386 798.641 178.727 766.909 199.639C707.901 238.488 654.024 298.655 601.948 356.839C556.938 407.136 510.398 459.1 459.717 498.806C334.095 597.146 183.087 609.135 61.7402 618.779C51.433 619.591 41.756 620.357 32.0788 621.168C-53.0347 628.379 -185.184 555.863 -312.966 485.691C-366.123 456.486 -416.354 428.949 -462.939 407.091L-463.569 408.488C-417.029 430.301 -366.843 457.883 -313.687 487.043C-191.575 554.196 -65.5926 623.376 20.016 623.376Z" fill="url(#paint18_linear_1149_1632)" fill-opacity="0.08"/>
<path d="M49.6327 640.592C50.5781 640.592 51.4782 640.592 52.4233 640.547C56.4743 640.457 60.5251 640.367 64.6662 640.322C127.77 639.06 199.245 637.663 271.846 623.015C355.924 606.07 425.06 574.431 483.077 526.388C534.524 483.798 581.334 427.326 626.569 372.748C733.062 244.256 833.659 122.886 991.778 163.628C1122.71 197.385 1238.39 299.826 1350.28 398.888C1361.76 409.074 1373.69 419.62 1385.25 429.76C1444.04 481.319 1519.61 543.063 1582.53 563.344C1591.89 566.364 1601.03 569.744 1609.9 573.034C1634.52 582.183 1657.97 590.881 1683.26 590.881C1687.13 590.881 1691.05 590.656 1695.01 590.251C1729.08 586.51 1759.83 568.482 1788.99 535.131C1813.3 507.324 1836.88 468.114 1861.05 415.248C1935.36 252.91 2005.53 99.6303 2121.16 -20.6586C2209.38 -112.374 2365.52 -177.543 2500.06 -103.991C2646.65 -23.8134 2686.67 43.7449 2729.02 115.224C2736.31 127.483 2743.83 140.192 2751.89 152.947C2791.09 214.872 2805.54 280.627 2820.8 350.214C2825.57 372.072 2830.56 394.652 2836.33 417.096L2837.86 416.69C2832.09 394.291 2827.14 371.711 2822.33 349.898C2807.02 280.131 2792.58 214.241 2753.24 152.091C2745.18 139.381 2737.66 126.672 2730.37 114.413C2687.88 42.7083 2647.78 -24.9852 2500.78 -105.388C2440.28 -138.469 2370.2 -146.221 2298.23 -127.787C2232.92 -111.067 2169.64 -73.4343 2120.04 -21.8304C2092.31 7.01374 2066.57 38.2916 2041.36 73.7157C2018.77 105.534 1996.98 140.192 1974.84 179.583C1932.98 254.127 1895.67 335.656 1859.57 414.482C1835.44 467.212 1811.95 506.287 1787.73 533.96C1758.88 566.995 1728.45 584.842 1694.79 588.538C1665.26 591.783 1638.61 581.913 1610.39 571.457C1601.53 568.167 1592.34 564.741 1582.94 561.722C1520.28 541.531 1444.89 479.922 1386.24 428.453C1374.68 418.313 1362.75 407.767 1351.27 397.581C1296.09 348.726 1239.06 298.249 1179.51 255.794C1112.18 207.796 1050.88 177.104 992.093 161.961C953.835 152.09 917.917 151.369 882.359 159.662C850.628 167.098 819.841 181.611 788.244 204.1C729.551 245.834 676.574 309.787 625.308 371.621C580.119 426.155 533.353 482.536 482.042 525.036C351.738 632.886 192.539 636.04 64.621 638.609C60.4802 638.7 56.4294 638.79 52.3786 638.835C51.4782 638.835 50.5331 638.88 49.6327 638.88C-37.4612 638.88 -174.921 554.961 -307.835 473.792C-362.747 440.261 -414.553 408.623 -462.669 382.843L-463.434 384.24C-415.363 409.975 -363.557 441.613 -308.69 475.144C-175.551 556.539 -37.9112 640.592 49.6327 640.592Z" fill="url(#paint19_linear_1149_1632)" fill-opacity="0.08"/>
<path d="M159.007 660.513C199.741 660.513 243.355 658.395 287.195 651.139C374.694 636.672 446.124 604.402 505.447 552.573C557.388 507.188 604.244 446.391 649.569 387.621C700.025 322.181 752.191 254.487 810.434 209.959C875.518 160.203 942.042 144.835 1013.88 162.952C1146.57 196.393 1262.83 303.522 1375.31 407.136C1384.53 415.654 1394.08 424.442 1403.39 432.96C1443.09 469.286 1474.91 496.417 1503.49 518.276C1539.64 545.903 1570.38 564.967 1597.52 576.55C1600.18 577.676 1602.83 578.803 1605.49 579.93C1640.95 595.118 1674.49 609.45 1711.89 615.129C1716.35 615.805 1720.8 616.165 1725.17 616.165C1754.78 616.165 1782.47 600.571 1809.38 568.798C1839.36 533.464 1864.29 482.401 1882.66 441.839C1887.07 432.149 1891.43 422.504 1895.76 412.859C1965.34 258.994 2031.05 113.602 2135.7 -2.99139C2223.02 -100.295 2369.35 -165.78 2499.34 -92.6785C2636.21 -15.7008 2675.87 51.7223 2717.9 123.111C2724.61 134.469 2731.54 146.277 2738.83 158.04C2777.99 221.091 2794.38 287.883 2811.66 358.596C2816.97 380.32 2822.46 402.764 2828.67 425.028L2830.29 424.577C2824.08 402.358 2818.59 379.914 2813.28 358.191C2795.95 287.343 2779.52 220.46 2740.23 157.184C2732.94 145.421 2726.01 133.658 2719.3 122.3C2677.17 50.6857 2637.38 -16.9176 2500.15 -94.1207C2441.09 -127.336 2373.4 -134.322 2304.4 -114.312C2242.51 -96.3742 2182.15 -57.2544 2134.49 -4.07305C2029.66 112.746 1963.9 258.183 1894.27 412.228C1889.9 421.873 1885.54 431.518 1881.17 441.208C1862.85 481.635 1837.96 532.562 1808.12 567.761C1777.6 603.771 1746.23 618.734 1712.16 613.551C1674.98 607.873 1641.58 593.586 1606.16 578.443C1603.51 577.316 1600.9 576.189 1598.2 575.062C1537.03 548.967 1465.96 487.989 1404.56 431.788C1395.25 423.27 1385.7 414.482 1376.48 405.964C1321.16 354.991 1263.95 302.26 1203.91 258.093C1135.9 208.021 1073.92 176.428 1014.37 161.42C994.749 156.462 975.305 153.984 956.581 153.938C956.536 153.938 956.49 153.938 956.445 153.938C938.622 153.938 920.843 156.192 903.604 160.654C871.737 168.946 840.905 184.63 809.444 208.697C751.021 253.36 698.764 321.144 648.263 386.674C602.984 445.399 556.173 506.152 504.367 551.401C369.833 668.896 198.075 661.82 72.6777 656.637C-16.0816 652.986 -161.778 555.818 -302.704 461.804C-359.371 424.036 -412.843 388.342 -462.489 358.731L-463.344 360.174C-413.788 389.784 -360.271 425.433 -303.649 463.201C-162.543 557.305 -16.6217 654.609 72.5878 658.305C99.0087 659.341 128.175 660.513 159.007 660.513Z" fill="url(#paint20_linear_1149_1632)" fill-opacity="0.08"/>
<path d="M220.76 683.768C249.926 683.768 279.768 682.146 309.654 677.909C350.433 672.141 388.376 661.775 422.404 647.127C461.202 630.407 496.67 607.422 527.817 578.803C580.118 530.714 626.928 465.635 672.163 402.674C721.899 333.493 773.39 261.968 831.408 214.466C896.267 161.42 963.197 144.339 1035.98 162.276C1170.42 195.402 1287.22 307.443 1400.15 415.744C1407.31 422.594 1414.42 429.445 1421.49 436.205C1482.34 494.344 1552.64 558.026 1612.46 589.755C1615.84 591.557 1619.17 593.315 1622.5 595.118C1657.88 614.002 1691.32 631.804 1728.81 640.097C1747.54 644.243 1765.86 642.305 1783.28 634.328C1799.21 627.027 1814.33 614.993 1829.55 597.461C1860.24 562.127 1885.54 509.983 1904.17 468.474C1912.9 449.05 1921.59 429.4 1930.05 410.425C1994.51 265.168 2055.36 127.979 2150.15 14.6754C2227.57 -77.8961 2365.3 -158.615 2498.53 -81.4115C2625.68 -7.76887 2665.06 59.7443 2706.79 131.269C2712.86 141.635 2719.12 152.406 2725.65 163.087C2764.8 227.446 2783.17 295.32 2802.57 367.159C2808.37 388.702 2814.4 410.966 2820.98 432.96L2822.64 432.464C2816.07 410.471 2810.04 388.207 2804.23 366.709C2784.79 294.734 2766.42 226.77 2727.13 162.231C2720.6 151.505 2714.35 140.778 2708.32 130.412C2666.46 58.7078 2626.94 -8.98572 2499.43 -82.8987C2469.58 -100.16 2437.72 -110.256 2404.68 -112.87C2373.94 -115.303 2342.25 -111.292 2310.52 -100.926C2252.05 -81.8171 2194.62 -41.1649 2148.84 13.5487C2053.92 127.032 1992.98 264.312 1928.48 409.704C1920.06 428.678 1911.33 448.328 1902.6 467.753C1884.01 509.126 1858.76 561.136 1828.24 596.29C1796.91 632.39 1764.51 646.136 1729.22 638.339C1692 630.091 1658.64 612.334 1623.36 593.541C1620.02 591.783 1616.69 589.98 1613.32 588.177C1553.68 556.539 1483.51 492.947 1422.75 434.898C1415.68 428.138 1408.57 421.332 1401.41 414.482C1345.96 361.3 1288.62 306.316 1228.12 260.256C1159.48 208.021 1096.79 175.436 1036.47 160.563C1016.58 155.651 996.909 153.307 978.005 153.578C959.956 153.848 941.997 156.462 924.623 161.42C892.576 170.569 861.745 187.469 830.373 213.114C772.13 260.706 720.639 332.366 670.813 401.637C625.578 464.508 578.858 529.497 526.691 577.496C399.584 694.45 236.153 688.681 92.9318 674.124C2.41717 664.93 -150.076 555.322 -297.528 449.365C-355.951 407.361 -411.133 367.745 -462.264 334.304L-463.209 335.791C-412.078 369.187 -356.941 408.848 -298.518 450.807C-150.886 556.899 1.78704 666.642 92.7971 675.881C132.226 679.937 175.705 683.768 220.76 683.768Z" fill="url(#paint21_linear_1149_1632)" fill-opacity="0.08"/>
<path d="M268.425 708.241C289.58 708.241 310.914 707.205 332.159 704.681C373.073 699.858 411.151 689.943 445.314 675.206C484.067 658.485 519.355 634.869 550.186 605.033C602.713 554.241 649.388 484.925 694.488 417.907C743.593 344.941 794.41 269.495 852.292 219.063C917.016 162.637 984.351 143.888 1058.12 161.645C1194.37 194.456 1316.88 316.818 1425 424.803C1429.9 429.715 1434.81 434.583 1439.67 439.45C1498.95 498.536 1567.23 564.742 1627.5 603.005C1630.96 605.214 1634.43 607.422 1637.85 609.585C1673.72 632.48 1707.57 654.113 1745.83 665.02C1765.23 670.564 1784.13 669.662 1802.09 662.271C1818.29 655.646 1834.32 643.477 1849.71 626.126C1881.17 590.702 1906.87 537.475 1925.73 495.11C1938.33 466.807 1950.71 438.188 1962.73 410.471C2022.41 272.74 2078.76 142.627 2164.6 32.388C2238.64 -62.4821 2370.29 -146.31 2497.81 -70.0086C2615.28 0.253858 2654.49 68.0826 2696.03 139.922C2701.39 149.162 2706.92 158.761 2712.59 168.271C2751.71 233.891 2772.1 302.937 2793.66 376.038C2799.91 397.266 2806.39 419.259 2813.37 440.938L2815.08 440.397C2808.15 418.719 2801.67 396.77 2795.41 375.543C2773.81 302.351 2753.42 233.215 2714.17 167.369C2708.5 157.86 2702.96 148.305 2697.6 139.021C2655.97 67.0009 2616.63 -1.05315 2498.75 -71.5409C2469.63 -88.9826 2438.71 -98.9428 2406.84 -101.106C2377.31 -103.134 2346.98 -98.5372 2316.69 -87.4052C2288.42 -76.9943 2260.47 -61.085 2233.73 -40.0378C2208.3 -20.0272 2184.58 3.99455 2163.25 31.3514C2124.09 81.6483 2088.71 138.706 2052.03 210.951C2019.62 274.723 1991.22 340.344 1961.11 409.84C1949.09 437.557 1936.71 466.176 1924.11 494.479C1905.3 536.754 1879.69 589.8 1848.4 625.044C1816.22 661.279 1782.87 673.809 1746.37 663.398C1708.38 652.536 1674.62 630.993 1638.88 608.188C1635.46 605.98 1632 603.772 1628.53 601.608C1568.4 563.435 1500.21 497.319 1441.02 438.279C1436.16 433.411 1431.25 428.544 1426.35 423.631C1370.85 368.196 1313.42 310.869 1252.43 262.87C1183.16 208.382 1119.79 174.715 1058.62 160.023C1038.45 155.156 1018.56 152.992 999.429 153.533C981.2 154.029 963.107 157.048 945.598 162.457C913.371 172.462 882.449 190.58 851.167 217.846C793.104 268.459 742.243 343.994 693.048 417.051C647.993 483.978 601.362 553.204 548.971 603.862C425.869 722.889 266.76 716.534 113.186 691.926C20.9159 677.144 -138.374 555.097 -292.352 437.061C-352.53 390.911 -409.422 347.374 -462.084 310.192L-463.119 311.68C-410.458 348.817 -353.61 392.398 -293.432 438.504C-139.229 556.674 20.196 678.856 112.961 693.729C160.221 701.165 213.693 708.241 268.425 708.241Z" fill="url(#paint22_linear_1149_1632)" fill-opacity="0.08"/>
<path d="M309.249 733.524C324.328 733.524 339.496 732.893 354.619 731.451C395.713 727.575 433.926 718.11 468.179 703.283C506.887 686.517 541.995 662.27 572.602 631.263C625.263 577.856 671.668 504.394 716.588 433.32C765.109 356.568 815.25 277.201 873.042 223.704C937.676 163.898 1005.46 143.392 1080.27 160.969C1218.31 193.463 1341.23 321.369 1449.71 434.221L1457.85 442.694C1522.76 510.162 1585.77 574.25 1642.53 616.255C1645.73 618.598 1648.92 620.987 1652.07 623.33C1688.75 650.552 1723.37 676.287 1762.84 689.987C1782.87 696.928 1802.36 697.063 1820.9 690.303C1837.6 684.219 1854.08 672.32 1869.87 654.879C1902.19 619.319 1928.25 565.057 1947.34 521.79C1963.4 485.33 1979.02 448.238 1994.1 412.363C2049.28 281.258 2101.4 157.408 2179.14 50.0991C2253.09 -51.9369 2375.42 -134.143 2497.04 -58.7423C2604.88 8.09491 2644.04 76.5546 2685.45 149.025C2690 156.958 2694.68 165.205 2699.45 173.318C2738.61 240.425 2761.11 310.778 2784.92 385.232C2791.59 406.053 2798.47 427.596 2805.67 448.824L2807.47 448.193C2800.27 426.965 2793.39 405.422 2786.72 384.646C2762.87 310.102 2740.36 239.659 2701.12 172.371C2696.34 164.214 2691.66 156.011 2687.12 148.079C2645.57 75.3828 2606.32 6.74285 2498.03 -60.3648C2469.59 -77.9867 2439.65 -87.8117 2409.05 -89.6145C2380.74 -91.2821 2351.79 -86.0541 2322.94 -74.1108C2296.21 -63.0689 2269.74 -46.3484 2244.31 -24.3998C2220.41 -3.80331 2198 20.8944 2177.61 49.0174C2142.63 97.2862 2109.46 153.938 2076.15 222.262C2046.36 283.331 2018.95 348.545 1992.39 411.642C1977.31 447.517 1961.69 484.608 1945.63 521.069C1926.59 564.2 1900.66 618.283 1868.52 653.617C1835.49 689.987 1801.14 701.3 1763.52 688.23C1724.31 674.619 1689.79 648.975 1653.24 621.843C1650.05 619.5 1646.9 617.111 1643.65 614.767C1586.99 572.853 1524.06 508.855 1459.2 441.432L1451.06 432.959C1395.52 375.181 1338.08 315.42 1276.6 265.348C1206.7 208.471 1142.61 173.723 1080.67 159.166C1060.24 154.343 1040.03 152.315 1020.72 153.127C1002.31 153.893 984.036 157.273 966.437 163.177C933.985 174.039 903.019 193.418 871.737 222.307C813.764 275.939 763.533 355.441 714.968 432.283C670.138 503.222 623.733 576.594 571.251 629.91C446.394 756.599 279.858 741.186 133.441 709.412C39.4155 688.996 -126.626 554.42 -287.221 424.306C-349.199 374.054 -407.757 326.642 -461.949 285.764L-463.074 287.297C-408.882 328.129 -350.369 375.587 -288.391 425.793C-127.661 556.088 38.5602 690.799 133.036 711.26C182.772 722.076 245.11 733.524 309.249 733.524Z" fill="url(#paint23_linear_1149_1632)" fill-opacity="0.08"/>
<path d="M346.022 759.304C434.197 759.304 522.461 734.606 594.972 657.493C647.678 601.473 693.813 523.909 738.418 448.914C786.353 368.331 835.909 284.954 893.657 228.437C958.246 165.206 1026.53 142.942 1102.41 160.383C1242.3 192.517 1365.58 326.237 1474.37 444.227L1482.02 452.52C1540.94 516.428 1601.89 582.499 1657.56 629.506C1660.26 631.759 1662.92 634.012 1665.58 636.311C1703.25 668.22 1738.85 698.371 1779.85 715.001C1792.1 719.959 1803.76 722.257 1814.87 722.257C1882.79 722.257 1930.55 636.311 1968.9 548.517C1988.16 504.394 2006.57 459.235 2024.35 415.564C2075.3 290.452 2123.37 172.327 2193.63 67.902C2221.94 25.8076 2268.62 -30.3933 2330.05 -58.922C2387.22 -85.4675 2443.16 -81.5916 2496.28 -47.3392C2594.62 15.9826 2633.83 85.4338 2675.33 158.986C2678.93 165.341 2682.62 171.921 2686.35 178.456C2725.65 247.276 2750.36 319.116 2776.51 395.147C2783.44 415.338 2790.64 436.205 2798.02 456.802L2799.87 456.126C2792.49 435.574 2785.28 414.707 2778.35 394.516C2752.16 318.35 2727.45 246.465 2688.06 177.464C2684.37 170.975 2680.64 164.395 2677.04 158.04C2635.4 84.262 2596.06 14.5855 2497.36 -49.0518C2469.63 -66.8991 2440.69 -76.6791 2411.3 -78.0312C2384.25 -79.2931 2356.61 -73.4792 2329.2 -60.7698C2303.99 -49.0519 2278.97 -31.5201 2254.89 -8.7152C2232.52 12.4672 2211.36 37.8861 2191.92 66.7302C2160.32 113.692 2130.12 168.406 2099.51 233.981C2072.19 292.57 2046.9 354.675 2022.46 414.752C2004.68 458.424 1986.27 503.583 1967.05 547.66C1922.81 648.975 1866.05 747.812 1780.53 713.108C1739.8 696.568 1704.33 666.552 1666.79 634.734C1664.13 632.48 1661.43 630.182 1658.78 627.928C1603.19 581.011 1542.29 514.985 1483.42 451.123L1475.77 442.83C1420.23 382.618 1362.84 320.333 1300.91 268.143C1230.38 208.697 1165.56 172.822 1102.82 158.4C1082.07 153.623 1061.63 151.775 1042.05 152.857C1023.42 153.893 1004.97 157.679 987.232 164.034C954.555 175.797 923.453 196.393 892.217 226.995C834.289 283.692 784.688 367.159 736.663 447.878C692.103 522.782 646.058 600.256 593.486 656.096C466.964 790.627 291.966 764.667 153.651 726.989C57.9147 700.94 -114.923 553.79 -282.089 411.462C-345.823 357.199 -406.047 305.911 -461.814 261.428L-463.029 262.96C-407.307 307.443 -347.084 358.686 -283.35 412.949C-116.048 555.412 56.9694 702.697 153.155 728.882C212.883 745.197 279.453 759.304 346.022 759.304Z" fill="url(#paint24_linear_1149_1632)" fill-opacity="0.08"/>
<path d="M380.544 785.309C386.89 785.309 393.237 785.174 399.583 784.859C441.037 782.876 479.521 774.313 513.908 759.35C552.572 742.539 587.364 717.075 617.341 683.679C670.002 625.089 715.777 543.515 760.022 464.599C807.417 380.14 856.433 292.751 914.09 233.125C978.635 166.423 1047.45 142.356 1124.47 159.618C1266.2 191.391 1392.54 334.305 1494.09 449.14C1503.09 459.326 1512.18 469.647 1521 479.697C1571.41 536.98 1623.53 596.2 1672.51 642.666C1674.49 644.559 1676.47 646.452 1678.49 648.345C1715.63 683.634 1754.02 720.14 1796.82 739.88C1820.59 750.832 1843.72 752.184 1865.55 743.801C1889.81 734.517 1912.68 713.695 1935.45 680.209C1953.19 654.114 1970.65 620.718 1990.41 575.063C2012.64 523.685 2033.44 470.683 2053.56 419.35C2098.39 305.1 2144.75 186.975 2208.03 85.4344C2259.25 3.2738 2320.11 -48.9611 2379.38 -61.6254C2418.86 -70.0533 2457.88 -61.4902 2495.47 -36.2065C2584.49 23.8703 2624.01 94.944 2665.83 170.209C2668.3 174.626 2670.78 179.088 2673.25 183.549C2712.82 254.398 2741.17 331.556 2768.58 406.145C2775.65 425.344 2782.94 445.175 2790.37 464.734L2792.26 464.013C2784.83 444.499 2777.54 424.623 2770.52 405.424C2743.06 330.745 2714.66 253.541 2675.05 182.558C2672.58 178.096 2670.1 173.679 2667.63 169.218C2646.52 131.224 2626.58 95.3496 2600.2 60.4212C2570.32 20.8507 2537.41 -10.3821 2496.73 -37.784C2458.69 -63.4282 2419.08 -72.0814 2379.07 -63.5183C2347.34 -56.7129 2315.52 -39.1811 2284.5 -11.3736C2256.87 13.4594 2230.58 45.6836 2206.41 84.4429C2177.97 130.098 2150.51 182.918 2122.51 245.925C2097.53 302.171 2074.26 361.391 2051.8 418.719C2031.68 470.007 2010.89 523.008 1988.65 574.342C1959.62 641.45 1919.29 721.177 1864.92 741.953C1843.63 750.111 1821.04 748.804 1797.77 738.077C1755.23 718.472 1716.98 682.102 1679.98 646.903C1678 645.01 1676.02 643.117 1673.99 641.224C1625.11 594.803 1575.33 538.242 1522.62 478.39C1513.8 468.385 1504.66 458.019 1495.71 447.833C1446.78 392.489 1385.88 323.624 1322.55 268.82C1252.43 208.157 1187.84 171.786 1125.01 157.68C1103.94 152.948 1083.19 151.235 1063.43 152.632C1044.57 153.939 1025.94 158.085 1008.07 164.981C975.124 177.645 943.932 199.504 912.74 231.773C854.858 291.579 805.797 379.058 758.357 463.653C714.157 542.433 668.427 623.918 615.901 682.327C489.108 823.393 313.164 789.726 174.039 744.657C76.5927 712.703 -103.176 552.889 -277.094 398.303C-342.538 340.164 -404.337 285.225 -461.544 237.136L-462.85 238.714C-405.642 286.757 -343.889 341.651 -278.444 399.835C-104.391 554.557 75.5575 714.506 173.409 746.595C225.71 763.586 302.362 785.309 380.544 785.309Z" fill="url(#paint25_linear_1149_1632)" fill-opacity="0.08"/>
<path d="M412.861 811.764C415.922 811.764 418.982 811.719 422.043 811.674C463.722 810.637 502.295 802.48 536.728 787.426C575.346 770.571 610.004 744.476 639.71 709.953C692.282 648.84 737.652 563.299 781.536 480.597C828.392 392.217 876.867 300.817 934.525 238.081C999.069 167.819 1068.47 141.995 1146.61 159.121C1290.06 190.489 1418.47 341.965 1512.23 452.519C1527.93 471.043 1543.78 489.972 1559.08 508.315C1603.37 561.361 1645.23 611.432 1687.54 656.006L1691.05 659.701C1729.35 700.083 1768.96 741.862 1813.84 764.937C1838.64 777.692 1862.76 779.99 1885.54 771.743C1910.25 762.819 1933.52 742.042 1956.61 708.195C1974.75 681.65 1992.35 647.893 2012.01 601.878C2037.36 543.018 2060.54 481.544 2082.91 422.098C2123.82 313.527 2166.08 201.305 2222.57 103.326C2257.95 41.9417 2315.25 -34.4952 2387.26 -50.3144C2423.45 -58.2465 2459.59 -49.6384 2494.75 -24.7152C2574.68 31.8913 2616.72 108.959 2657.37 183.548L2660.16 188.641C2700.26 262.194 2731.5 342.011 2761.65 419.169C2768.49 436.7 2775.61 454.818 2782.72 472.665L2784.65 471.899C2777.54 454.052 2770.48 435.934 2763.59 418.447C2733.39 341.199 2702.15 261.337 2661.96 187.649L2659.17 182.557C2638.78 145.15 2617.71 106.48 2592.15 70.8759C2563.48 30.9449 2532.01 -0.918857 2495.96 -26.4729C2460.31 -51.7566 2423.58 -60.5 2386.77 -52.4326C2356.16 -45.7174 2325.46 -27.4194 2295.53 2.01061C2269.38 27.745 2244.18 61.4565 2220.68 102.199C2164.1 200.359 2121.79 312.671 2080.88 421.287C2058.51 480.688 2035.33 542.117 2010.03 600.977C1990.41 646.857 1972.9 680.523 1954.85 706.933C1931.99 740.375 1909.08 760.926 1884.77 769.67C1862.54 777.692 1839 775.438 1814.74 762.954C1770.18 740.059 1730.7 698.415 1692.53 658.169L1689.02 654.473C1646.8 609.945 1604.95 559.874 1560.66 506.873C1545.35 488.53 1529.51 469.556 1513.8 451.032C1457.99 385.186 1402.9 321.684 1343.12 268.683C1273.81 207.209 1209.67 170.658 1147.02 156.957C1125.59 152.27 1104.62 150.738 1084.59 152.405C1065.5 153.983 1046.69 158.535 1028.69 165.926C995.468 179.537 964.141 202.612 932.949 236.594C875.112 299.555 826.546 391.045 779.646 479.561C735.852 562.172 690.527 647.623 638.09 708.556C509.362 858.14 323.111 810.907 194.203 762.323C95.0915 724.691 -91.564 552.167 -272.054 385.322C-339.253 323.217 -402.717 264.537 -461.455 212.888L-462.85 214.465C-404.112 266.069 -340.648 324.749 -273.494 386.854C-92.8692 553.834 93.9216 726.538 193.438 764.261C234.082 779.585 270.45 790.807 304.612 798.558C343.096 807.347 379.419 811.764 412.861 811.764Z" fill="url(#paint26_linear_1149_1632)" fill-opacity="0.08"/>
<path d="M443.603 838.445C443.918 838.445 444.188 838.445 444.458 838.445C486.318 838.355 525.026 830.603 559.549 815.505C598.167 798.604 632.644 771.878 662.126 736.184C714.562 672.591 759.437 583.175 802.872 496.733C849.232 404.476 897.167 309.021 954.825 243.13C1019.41 169.307 1089.36 141.635 1168.71 158.4C1302.75 187.199 1420.86 321.054 1530.37 455.675C1552.1 482.401 1573.93 510.028 1595 536.754C1630.15 581.327 1666.56 627.432 1702.57 669.166L1703.34 670.068C1742.86 715.858 1783.73 763.225 1830.85 789.816C1856.6 804.328 1881.67 807.618 1905.34 799.551C1930.5 790.988 1954.13 770.211 1977.63 736.003C1996.08 709.097 2013.86 674.935 2033.57 628.469C2061.39 563.119 2086.28 494.164 2110.32 427.462C2147.76 323.533 2186.52 216.089 2237.06 120.993C2259.79 78.2228 2283.78 43.069 2308.27 16.6136C2336.81 -14.1685 2365.97 -33.0523 2394.96 -39.4972C2428 -46.8434 2461.3 -38.055 2493.98 -13.4474C2565.28 40.3199 2608.71 121.804 2647.01 193.734C2688.42 271.478 2723.22 355.532 2756.88 436.836C2762.82 451.168 2768.94 465.996 2775.07 480.598L2777.09 479.742C2771.02 465.139 2764.85 450.312 2758.91 435.98C2725.24 354.63 2690.4 270.532 2648.95 192.698C2627.03 151.55 2606.95 114.638 2582.96 79.7101C2555.37 39.4635 2526.7 8.41106 2495.33 -15.2051C2462.11 -40.2183 2428.22 -49.1419 2394.55 -41.6605C2365.12 -35.1255 2335.55 -16.0163 2306.74 15.0812C2282.12 41.6719 2258.04 76.9609 2235.22 119.912C2184.58 215.142 2145.83 322.677 2108.34 426.696C2084.3 493.398 2059.46 562.308 2031.64 627.613C2011.97 673.944 1994.28 708.016 1975.87 734.742C1952.69 768.543 1929.38 789.05 1904.71 797.432C1881.62 805.319 1857.14 802.075 1831.98 787.878C1785.17 761.467 1744.43 714.235 1705.05 668.58L1704.28 667.679C1668.32 625.99 1631.95 579.885 1596.8 535.357C1575.73 508.631 1553.91 481.004 1532.17 454.233C1482.74 393.48 1424.95 324.029 1363.92 268.594C1295.37 206.354 1231.73 169.577 1169.3 156.192C1147.56 151.595 1126.22 150.243 1105.97 152.226C1086.66 154.119 1067.62 159.076 1049.48 166.963C1015.99 181.521 984.531 205.903 953.294 241.597C895.457 307.714 847.431 403.26 801.026 495.651C757.637 582.003 712.807 671.284 660.551 734.696C605.054 802.029 533.398 835.606 444.099 835.606C377.619 835.606 301.372 816.992 214.639 779.855C113.817 736.544 -79.6356 551.266 -266.741 372.072C-335.696 306.046 -400.826 243.671 -461.094 188.506L-462.579 190.129C-402.311 245.248 -337.227 307.623 -268.272 373.649C-81.0311 552.978 112.601 738.392 213.783 781.883C302.362 819.967 377.619 838.445 443.603 838.445Z" fill="url(#paint27_linear_1149_1632)" fill-opacity="0.08"/>
<path d="M473.264 865.261C512.872 865.261 549.556 857.96 582.368 843.538C620.941 826.592 655.329 799.28 684.495 762.369C736.706 696.343 781.176 603.051 824.115 512.868C869.98 416.6 917.421 316.998 975.123 247.907C1039.76 170.479 1110.33 141.004 1190.86 157.77C1326.06 185.893 1441.7 321.956 1548.5 458.965C1575.28 493.308 1601.97 529.228 1627.72 563.931C1656.89 603.231 1687.04 643.838 1717.56 682.417C1755.41 730.235 1798.26 784.498 1847.82 814.784C1874.51 831.099 1900.52 835.381 1925.15 827.449C1938.38 823.167 1951.57 815.28 1964.26 803.923C1975.78 793.602 1987.35 780.126 1998.6 763.856C2017.15 736.995 2035.64 701.436 2055.13 655.15C2085.38 583.401 2111.76 506.648 2137.23 432.42C2171.35 333.178 2206.59 230.556 2251.51 138.661C2273.61 93.5015 2296.48 56.6802 2319.48 29.3234C2346.89 -3.26142 2374.88 -22.9115 2402.7 -29.0408C2432.72 -35.666 2463.15 -26.6071 2493.21 -2.17976C2551.19 45.0074 2596.24 126.312 2633.91 198.828C2678.83 285.315 2719.48 378.607 2758.82 468.835C2761.7 475.416 2764.53 481.996 2767.41 488.576L2769.48 487.674C2766.6 481.094 2763.77 474.514 2760.89 467.934C2721.55 377.661 2680.91 284.368 2635.94 197.791C2598.18 125.095 2552.99 43.5201 2494.7 -3.93746C2464.09 -28.8155 2432.99 -38.0096 2402.29 -31.2492C2373.98 -25.0297 2345.58 -5.10925 2317.86 27.8812C2294.72 55.3732 2271.77 92.3297 2249.58 137.669C2204.57 229.7 2169.28 332.412 2135.16 431.699C2109.69 505.882 2083.31 582.589 2053.11 654.249C2026.01 718.607 1983.16 806.356 1924.52 825.285C1900.57 832.992 1875.18 828.846 1849.03 812.846C1799.84 782.74 1757.08 728.703 1719.36 681.02C1688.89 642.486 1658.73 601.879 1629.57 562.579C1603.78 527.831 1577.13 491.911 1550.3 457.568C1502.46 396.229 1446.24 325.967 1384.49 268.549C1316.7 205.453 1253.51 168.541 1191.31 155.606C1169.21 151.009 1147.65 149.838 1127.12 152.091C1107.59 154.254 1088.37 159.572 1070 167.955C1036.25 183.414 1004.65 209.103 973.413 246.51C915.53 315.826 868.045 415.519 822.09 511.921C779.151 602.014 734.771 695.171 682.74 761.017C585.879 883.514 439.372 895.458 234.757 797.658C132.225 748.623 -68.1138 550.545 -261.836 358.957C-332.546 289.055 -399.296 223.029 -461.094 164.395L-462.625 166.017C-400.871 224.607 -334.122 290.633 -263.411 360.535C-69.5543 552.258 130.92 750.471 233.767 799.686C323.291 842.502 399.538 863.954 466.873 865.261C469.033 865.261 471.149 865.261 473.264 865.261Z" fill="url(#paint28_linear_1149_1632)" fill-opacity="0.08"/>
</g>
<rect x="2065.73" y="299.323" width="130.354" height="876.536" transform="rotate(30 2065.73 299.323)" fill="url(#paint29_linear_1149_1632)"/>
<rect x="1993.26" y="-66.0965" width="176.547" height="876.536" transform="rotate(30 1993.26 -66.0965)" fill="url(#paint30_linear_1149_1632)"/>
</g>
<defs>
<linearGradient id="paint0_linear_1149_1632" x1="2370" y1="9.15527e-05" x2="2370" y2="1920" gradientUnits="userSpaceOnUse">
<stop stop-color="#2987FF"/>
<stop offset="1" stop-color="#0755F0"/>
</linearGradient>
<linearGradient id="paint1_linear_1149_1632" x1="118.609" y1="0" x2="118.609" y2="995.287" gradientUnits="userSpaceOnUse">
<stop stop-color="#002876"/>
<stop offset="1" stop-color="#033AA7" stop-opacity="0"/>
</linearGradient>
<linearGradient id="paint2_linear_1149_1632" x1="118.609" y1="0" x2="118.609" y2="882.453" gradientUnits="userSpaceOnUse">
<stop stop-color="white"/>
<stop offset="1" stop-color="white" stop-opacity="0"/>
</linearGradient>
<linearGradient id="paint3_linear_1149_1632" x1="1261.32" y1="-342.819" x2="1261.32" y2="772.239" gradientUnits="userSpaceOnUse">
<stop stop-color="white"/>
<stop offset="1" stop-color="white" stop-opacity="0"/>
</linearGradient>
<linearGradient id="paint4_linear_1149_1632" x1="1255.38" y1="-329.156" x2="1255.38" y2="747.991" gradientUnits="userSpaceOnUse">
<stop stop-color="white"/>
<stop offset="1" stop-color="white" stop-opacity="0"/>
</linearGradient>
<linearGradient id="paint5_linear_1149_1632" x1="1249.53" y1="-315.696" x2="1249.53" y2="723.745" gradientUnits="userSpaceOnUse">
<stop stop-color="white"/>
<stop offset="1" stop-color="white" stop-opacity="0"/>
</linearGradient>
<linearGradient id="paint6_linear_1149_1632" x1="1243.72" y1="-302.339" x2="1243.72" y2="699.498" gradientUnits="userSpaceOnUse">
<stop stop-color="white"/>
<stop offset="1" stop-color="white" stop-opacity="0"/>
</linearGradient>
<linearGradient id="paint7_linear_1149_1632" x1="1237.94" y1="-289.118" x2="1237.94" y2="675.296" gradientUnits="userSpaceOnUse">
<stop stop-color="white"/>
<stop offset="1" stop-color="white" stop-opacity="0"/>
</linearGradient>
<linearGradient id="paint8_linear_1149_1632" x1="1232.38" y1="-275.811" x2="1232.38" y2="651.048" gradientUnits="userSpaceOnUse">
<stop stop-color="white"/>
<stop offset="1" stop-color="white" stop-opacity="0"/>
</linearGradient>
<linearGradient id="paint9_linear_1149_1632" x1="1226.8" y1="-262.797" x2="1226.8" y2="626.847" gradientUnits="userSpaceOnUse">
<stop stop-color="white"/>
<stop offset="1" stop-color="white" stop-opacity="0"/>
</linearGradient>
<linearGradient id="paint10_linear_1149_1632" x1="1221.51" y1="-250.032" x2="1221.51" y2="602.645" gradientUnits="userSpaceOnUse">
<stop stop-color="white"/>
<stop offset="1" stop-color="white" stop-opacity="0"/>
</linearGradient>
<linearGradient id="paint11_linear_1149_1632" x1="1217.28" y1="-237.13" x2="1217.28" y2="578.398" gradientUnits="userSpaceOnUse">
<stop stop-color="white"/>
<stop offset="1" stop-color="white" stop-opacity="0"/>
</linearGradient>
<linearGradient id="paint12_linear_1149_1632" x1="1213.52" y1="-224.244" x2="1213.52" y2="554.196" gradientUnits="userSpaceOnUse">
<stop stop-color="white"/>
<stop offset="1" stop-color="white" stop-opacity="0"/>
</linearGradient>
<linearGradient id="paint13_linear_1149_1632" x1="1209.78" y1="-211.684" x2="1209.78" y2="555.233" gradientUnits="userSpaceOnUse">
<stop stop-color="white"/>
<stop offset="1" stop-color="white" stop-opacity="0"/>
</linearGradient>
<linearGradient id="paint14_linear_1149_1632" x1="1206.02" y1="-199.233" x2="1206.02" y2="564.651" gradientUnits="userSpaceOnUse">
<stop stop-color="white"/>
<stop offset="1" stop-color="white" stop-opacity="0"/>
</linearGradient>
<linearGradient id="paint15_linear_1149_1632" x1="1202.36" y1="-186.755" x2="1202.36" y2="577.001" gradientUnits="userSpaceOnUse">
<stop stop-color="white"/>
<stop offset="1" stop-color="white" stop-opacity="0"/>
</linearGradient>
<linearGradient id="paint16_linear_1149_1632" x1="1198.46" y1="-174.388" x2="1198.46" y2="591.287" gradientUnits="userSpaceOnUse">
<stop stop-color="white"/>
<stop offset="1" stop-color="white" stop-opacity="0"/>
</linearGradient>
<linearGradient id="paint17_linear_1149_1632" x1="1194.86" y1="-161.975" x2="1194.86" y2="606.835" gradientUnits="userSpaceOnUse">
<stop stop-color="white"/>
<stop offset="1" stop-color="white" stop-opacity="0"/>
</linearGradient>
<linearGradient id="paint18_linear_1149_1632" x1="1190.95" y1="-149.771" x2="1190.95" y2="623.377" gradientUnits="userSpaceOnUse">
<stop stop-color="white"/>
<stop offset="1" stop-color="white" stop-opacity="0"/>
</linearGradient>
<linearGradient id="paint19_linear_1149_1632" x1="1187.21" y1="-137.557" x2="1187.21" y2="640.592" gradientUnits="userSpaceOnUse">
<stop stop-color="white"/>
<stop offset="1" stop-color="white" stop-opacity="0"/>
</linearGradient>
<linearGradient id="paint20_linear_1149_1632" x1="1183.47" y1="-125.475" x2="1183.47" y2="660.513" gradientUnits="userSpaceOnUse">
<stop stop-color="white"/>
<stop offset="1" stop-color="white" stop-opacity="0"/>
</linearGradient>
<linearGradient id="paint21_linear_1149_1632" x1="1179.72" y1="-113.56" x2="1179.72" y2="683.768" gradientUnits="userSpaceOnUse">
<stop stop-color="white"/>
<stop offset="1" stop-color="white" stop-opacity="0"/>
</linearGradient>
<linearGradient id="paint22_linear_1149_1632" x1="1175.98" y1="-101.572" x2="1175.98" y2="708.241" gradientUnits="userSpaceOnUse">
<stop stop-color="white"/>
<stop offset="1" stop-color="white" stop-opacity="0"/>
</linearGradient>
<linearGradient id="paint23_linear_1149_1632" x1="1172.2" y1="-89.9174" x2="1172.2" y2="733.524" gradientUnits="userSpaceOnUse">
<stop stop-color="white"/>
<stop offset="1" stop-color="white" stop-opacity="0"/>
</linearGradient>
<linearGradient id="paint24_linear_1149_1632" x1="1168.42" y1="-78.2002" x2="1168.42" y2="759.304" gradientUnits="userSpaceOnUse">
<stop stop-color="white"/>
<stop offset="1" stop-color="white" stop-opacity="0"/>
</linearGradient>
<linearGradient id="paint25_linear_1149_1632" x1="1164.71" y1="-66.7162" x2="1164.71" y2="785.309" gradientUnits="userSpaceOnUse">
<stop stop-color="white"/>
<stop offset="1" stop-color="white" stop-opacity="0"/>
</linearGradient>
<linearGradient id="paint26_linear_1149_1632" x1="1160.9" y1="-55.3401" x2="1160.9" y2="811.764" gradientUnits="userSpaceOnUse">
<stop stop-color="white"/>
<stop offset="1" stop-color="white" stop-opacity="0"/>
</linearGradient>
<linearGradient id="paint27_linear_1149_1632" x1="1157.26" y1="-44.2233" x2="1157.26" y2="838.445" gradientUnits="userSpaceOnUse">
<stop stop-color="white"/>
<stop offset="1" stop-color="white" stop-opacity="0"/>
</linearGradient>
<linearGradient id="paint28_linear_1149_1632" x1="1153.43" y1="-33.4003" x2="1153.43" y2="865.261" gradientUnits="userSpaceOnUse">
<stop stop-color="white"/>
<stop offset="1" stop-color="white" stop-opacity="0"/>
</linearGradient>
<linearGradient id="paint29_linear_1149_1632" x1="2130.91" y1="299.323" x2="2130.91" y2="1175.86" gradientUnits="userSpaceOnUse">
<stop stop-color="#121833"/>
<stop offset="1" stop-color="#121833" stop-opacity="0"/>
</linearGradient>
<linearGradient id="paint30_linear_1149_1632" x1="2081.54" y1="-66.0965" x2="2081.54" y2="810.44" gradientUnits="userSpaceOnUse">
<stop stop-color="#121833"/>
<stop offset="1" stop-color="#121833" stop-opacity="0"/>
</linearGradient>
</defs>
</svg>
