<svg width="340" height="267" viewBox="0 0 340 267" fill="none" xmlns="http://www.w3.org/2000/svg">
<path d="M125.252 219.47L150.922 225.678L157.726 197.579L132.056 191.371L125.252 219.47Z" fill="#020202"/>
<path d="M157.02 213.581L157.422 214.152C161.993 220.708 161.485 226.101 163.537 235.152L129.679 245.155L80.098 242.744L71.9297 237.267L75.2097 230.415L103.164 223.034L122.738 212.27L126.971 206.708L132.197 207.026L136.324 211.382L136.006 216.478C140.789 219.756 141.593 221.216 144.048 221.364C144.111 221.342 148.195 222.019 149.761 218.149L151.37 214.173C152.343 211.847 155.538 211.488 157.02 213.581Z" fill="white"/>
<path d="M129.678 245.641H129.657L80.0759 243.23C79.9913 243.23 79.9066 243.209 79.8431 243.146L71.6748 237.668C71.4844 237.541 71.4209 237.288 71.5055 237.076L74.7856 230.224C74.849 230.098 74.9549 230.013 75.0818 229.971L102.973 222.611L122.399 211.932L126.589 206.455C126.673 206.328 126.821 206.264 126.991 206.264L132.218 206.581C132.345 206.581 132.45 206.645 132.535 206.729L136.662 211.086C136.746 211.17 136.789 211.297 136.789 211.445L136.492 216.288C137.952 217.303 139.032 218.128 139.899 218.784C141.74 220.2 142.566 220.835 144.089 220.941C144.11 220.941 144.153 220.941 144.174 220.941C145.338 221.046 148.152 220.983 149.337 218.022L150.946 214.047C151.453 212.778 152.575 211.911 153.95 211.763C155.326 211.615 156.596 212.186 157.4 213.306L157.802 213.877C161.124 218.636 161.822 222.802 162.69 228.067C163.029 230.119 163.41 232.466 164.002 235.046C164.066 235.279 163.917 235.532 163.685 235.596L129.826 245.599C129.763 245.62 129.721 245.641 129.678 245.641ZM80.2452 242.3L129.615 244.689L162.965 234.835C162.436 232.403 162.055 230.182 161.738 228.237C160.891 223.077 160.214 219.016 157.019 214.427L156.617 213.856C156.024 213.01 155.072 212.587 154.056 212.693C153.04 212.799 152.194 213.454 151.813 214.406L150.226 218.361C148.745 222.019 145.168 221.977 144.089 221.871C144.068 221.871 144.11 221.871 144.174 221.871C144.132 221.871 144.089 221.871 144.068 221.871C142.269 221.765 141.296 221.004 139.37 219.524C138.46 218.826 137.339 217.959 135.794 216.901C135.667 216.817 135.582 216.648 135.582 216.478L135.879 211.572L132.006 207.491L127.224 207.195L123.139 212.566C123.097 212.608 123.055 212.651 122.991 212.693L103.417 223.457C103.375 223.478 103.353 223.499 103.311 223.499L75.5474 230.838L72.5213 237.118L80.2452 242.3Z" fill="black"/>
<path d="M71.9284 237.288L74.9333 238.049C83.0805 240.121 91.4393 241.285 99.8403 241.475L103.205 241.559C120.007 241.961 136.809 240.502 153.294 237.203L163.494 235.152L168.213 239.973L169.61 251.478L155.897 256.468C155.897 256.468 146.29 255.94 134.101 255.221L131.329 252.091L126.758 251.816L123.605 254.608C104.559 253.508 84.0962 252.26 83.9269 252.07C83.6095 251.71 73.177 245.768 73.177 245.768L71.5898 242.215L71.9284 237.288Z" fill="#020202"/>
<path d="M123.27 219.333C123.164 219.333 123.058 219.291 122.973 219.228L117.747 215.125C117.535 214.956 117.514 214.681 117.662 214.469C117.831 214.258 118.106 214.237 118.318 214.385L123.545 218.488C123.756 218.657 123.778 218.932 123.629 219.143C123.545 219.27 123.418 219.333 123.27 219.333Z" fill="black"/>
<path d="M118.36 222.209C118.254 222.209 118.148 222.167 118.063 222.104L112.836 218.001C112.625 217.832 112.604 217.557 112.752 217.346C112.921 217.134 113.196 217.113 113.408 217.261L118.635 221.364C118.846 221.533 118.867 221.808 118.719 222.019C118.635 222.146 118.487 222.209 118.36 222.209Z" fill="black"/>
<path d="M113.449 225.086C113.344 225.086 113.238 225.043 113.153 224.98L107.926 220.877C107.715 220.708 107.693 220.433 107.842 220.222C108.011 220.01 108.286 219.989 108.498 220.137L113.724 224.24C113.936 224.409 113.957 224.684 113.809 224.895C113.724 225.022 113.576 225.086 113.449 225.086Z" fill="black"/>
<path d="M124.495 221.913L102.106 189.008L49.668 212.524L62.8092 235.659L124.495 221.913Z" fill="#DFE3E8"/>
<path d="M63.6148 236.167C63.4455 236.167 63.2974 236.082 63.2127 235.934L50.0292 212.503C49.9657 212.397 49.9445 212.249 49.9869 212.122C50.0292 211.995 50.1138 211.889 50.2408 211.847L102.023 188.521C102.234 188.437 102.467 188.5 102.594 188.691L125.004 222.019C125.089 222.146 125.11 222.315 125.046 222.463C124.983 222.611 124.856 222.717 124.708 222.738L63.6783 236.146C63.6783 236.167 63.636 236.167 63.6148 236.167ZM51.0873 212.503L63.8476 235.173L123.861 221.977L102.044 189.537L51.0873 212.503Z" fill="black"/>
<path d="M73.6855 235.427L73.4316 236.082C70.5325 243.526 65.7712 246.085 59.3592 252.852L32.2091 230.309L6.625 187.802L6.64616 177.969L14.1585 176.89L35.8489 196.008L55.6772 206.264L62.6604 206.687L65.3056 211.213L63.9724 217.071L59.5497 219.651C59.4862 225.445 58.7244 226.925 59.9729 229.061C60.0153 229.104 61.7505 232.868 65.8135 232.022L70.0034 231.134C72.5217 230.584 74.6166 233.058 73.6855 235.427Z" fill="white"/>
<path d="M59.36 253.318C59.2542 253.318 59.1483 253.275 59.0637 253.212L31.9136 230.668C31.8713 230.626 31.829 230.605 31.8078 230.542L6.22364 188.035C6.18132 187.972 6.16016 187.887 6.16016 187.802L6.18132 177.969C6.18132 177.736 6.35061 177.546 6.58338 177.504L14.0957 176.425C14.2227 176.404 14.3708 176.446 14.4766 176.531L36.1247 195.606L55.826 205.799L62.7035 206.222C62.8516 206.222 62.9997 206.328 63.0844 206.455L65.7295 210.98C65.793 211.086 65.8142 211.213 65.7719 211.318L64.4387 217.176C64.4175 217.303 64.3329 217.409 64.2271 217.472L60.0371 219.926C60.016 221.702 59.9313 223.055 59.8467 224.155C59.6985 226.46 59.6139 227.518 60.3757 228.829C60.3969 228.85 60.3969 228.871 60.418 228.892C60.9682 229.907 62.5765 232.212 65.7295 231.557L69.9195 230.668C71.2738 230.394 72.607 230.838 73.4958 231.895C74.3846 232.952 74.6173 234.327 74.1095 235.617L73.8555 236.273C71.7394 241.686 68.671 244.562 64.7561 248.221C63.2325 249.638 61.4973 251.266 59.6774 253.191C59.6139 253.254 59.4869 253.318 59.36 253.318ZM32.5696 229.992L59.3388 252.197C61.074 250.399 62.7035 248.855 64.1424 247.502C67.9515 243.928 70.9776 241.115 73.0091 235.892L73.263 235.236C73.6439 234.285 73.4535 233.248 72.7974 232.466C72.1414 231.684 71.1469 231.345 70.1311 231.557L65.9412 232.445C62.0898 233.249 60.1218 230.246 59.6139 229.315C59.6139 229.294 59.6351 229.336 59.6562 229.379C59.6351 229.357 59.6139 229.315 59.5927 229.294C58.6828 227.729 58.7674 226.524 58.9156 224.092C59.0002 222.95 59.0849 221.533 59.106 219.651C59.106 219.481 59.1907 219.333 59.3388 219.249L63.5711 216.775L64.7984 211.297L62.386 207.152L55.6567 206.751C55.5932 206.751 55.5297 206.729 55.4663 206.708L35.638 196.452C35.5957 196.431 35.5745 196.409 35.5534 196.388L14.0322 177.419L7.13358 178.413L7.11242 187.697L32.5696 229.992Z" fill="black"/>
<path d="M6.66874 177.969L7.70565 180.908C10.499 188.839 14.2022 196.41 18.7096 203.515L20.5083 206.349C29.5231 220.539 40.0826 233.671 51.9965 245.535L59.3818 252.873L57.9852 259.471L49.2032 267.021L37.4374 258.414C37.4374 258.414 32.5491 250.145 26.3489 239.614L27.4069 235.575L25.1003 231.62L21.0162 230.542C11.3454 214.11 0.997478 196.431 1.06096 196.177C1.18793 195.69 0.320312 183.742 0.320312 183.742L2.39413 180.443L6.66874 177.969Z" fill="#020202"/>
<path d="M50.5336 210.811C50.5124 210.811 50.5124 210.811 50.4912 210.811C50.2373 210.79 50.0469 210.557 50.068 210.303L50.5759 203.684C50.597 203.43 50.8087 203.24 51.0838 203.261C51.3377 203.282 51.5281 203.515 51.507 203.769L50.9991 210.388C50.978 210.621 50.7663 210.811 50.5336 210.811Z" fill="black"/>
<path d="M45.4125 208.337C45.3913 208.337 45.3913 208.337 45.3701 208.337C45.1162 208.316 44.9258 208.083 44.9469 207.829L45.4548 201.21C45.476 200.956 45.6876 200.766 45.9627 200.787C46.2166 200.808 46.4071 201.041 46.3859 201.295L45.878 207.914C45.8569 208.146 45.6452 208.337 45.4125 208.337Z" fill="black"/>
<path d="M40.2718 205.862C40.2507 205.862 40.2507 205.862 40.2295 205.862C39.9756 205.841 39.7851 205.609 39.8063 205.355L40.3142 198.736C40.3353 198.482 40.5469 198.292 40.822 198.313C41.076 198.334 41.2664 198.567 41.2453 198.82L40.7374 205.44C40.7162 205.672 40.5258 205.862 40.2718 205.862Z" fill="black"/>
<path d="M113.746 215.167L123.713 118.439C126.21 94.2669 154.715 82.6992 173.358 98.3061L192.996 114.759L300.75 201.887L287.037 218.805C271.589 237.901 243.571 240.84 224.463 225.403L177.146 187.147L160.767 220.01L113.746 215.167Z" fill="black"/>
<path d="M98.4023 188.31L153.528 164.477C169.886 157.413 186.921 155.933 204.04 161.347L334.712 201.802L329.168 217.599C320.386 240.1 293.024 251.943 268.032 244.034L181.926 212.355L124.494 234.306L98.4023 188.31Z" fill="black"/>
<path d="M283.863 246.952C278.551 246.952 273.155 246.17 267.886 244.478L181.928 212.862L124.644 234.75C124.432 234.835 124.179 234.75 124.073 234.538L98.0018 188.543C97.9384 188.437 97.9172 188.289 97.9595 188.162C98.0018 188.035 98.0865 187.929 98.2135 187.887L153.339 164.054C169.908 156.885 188.594 155.954 205.946 161.453L334.121 202.669C334.248 202.711 334.333 202.796 334.396 202.902C334.46 203.008 334.46 203.134 334.417 203.261L329.592 217.768C322.609 235.702 303.86 246.952 283.863 246.952ZM181.928 211.911C181.992 211.911 182.034 211.911 182.097 211.932L268.203 243.611C292.898 251.435 320.07 239.677 328.746 217.43L333.401 203.388L205.671 162.341C188.53 156.927 170.099 157.836 153.72 164.921L99.0811 188.543L124.708 233.756L181.78 211.932C181.822 211.911 181.865 211.911 181.928 211.911Z" fill="black"/>
<path d="M334.545 199.687L329.191 218.17L256.734 178.54L263.104 173.782L334.545 199.687Z" fill="black"/>
<path d="M233.309 171.054C233.267 171.054 233.224 171.054 233.161 171.032L205.672 162.341C188.531 156.927 170.1 157.836 153.721 164.921C153.488 165.027 153.213 164.921 153.107 164.667C153.001 164.434 153.107 164.159 153.361 164.054C169.93 156.885 188.616 155.954 205.968 161.453L233.457 170.144C233.711 170.229 233.838 170.483 233.753 170.736C233.69 170.927 233.499 171.054 233.309 171.054Z" fill="black"/>
<path d="M267.15 81.8945C289.835 80.8894 307.434 62.2357 306.458 40.2303C305.482 18.2248 286.3 1.20069 263.615 2.20579C240.929 3.21089 223.33 21.8646 224.307 43.8701C225.283 65.8755 244.465 82.8996 267.15 81.8945Z" fill="black"/>
<path d="M274.147 58.5988L259.969 64.7292L274.162 97.5113L288.34 91.381L274.147 58.5988Z" fill="#DFE3E8"/>
<path d="M274.171 97.9677C274.108 97.9677 274.044 97.9465 274.002 97.9254C273.896 97.8831 273.79 97.7985 273.748 97.6716L259.549 64.8929C259.443 64.6603 259.549 64.3854 259.802 64.2797L273.981 58.1469C274.086 58.1046 274.213 58.1046 274.34 58.1469C274.446 58.1892 274.552 58.2738 274.594 58.4006L288.794 91.1793C288.899 91.4119 288.794 91.6869 288.54 91.7926L274.362 97.9254C274.298 97.9465 274.235 97.9677 274.171 97.9677ZM260.585 64.9564L274.404 96.868L287.736 91.1159L273.917 59.2043L260.585 64.9564Z" fill="black"/>
<path d="M267.494 77.5887C274.305 74.6437 277.212 66.2168 273.987 58.7668C270.761 51.3168 262.625 47.6649 255.813 50.6099C249.002 53.555 246.095 61.9819 249.321 69.4319C252.546 76.8819 260.683 80.5338 267.494 77.5887Z" fill="#DFE3E8"/>
<path d="M267.759 70.4759C267.23 71.6813 266.32 72.7175 265.072 73.4154C262.3 74.9592 258.893 74.219 256.988 71.8082L267.759 70.4759Z" fill="white"/>
<path d="M262.403 79.1464C260.541 79.1464 258.637 78.7446 256.838 77.9198C253.367 76.3549 250.595 73.5 249.008 69.8626C247.421 66.2252 247.252 62.2283 248.479 58.6333C249.728 55.017 252.246 52.2256 255.61 50.7875C262.065 47.996 269.704 50.9567 273.386 57.6605C273.513 57.8931 273.428 58.168 273.196 58.2949C272.963 58.4218 272.688 58.3372 272.561 58.1046C269.111 51.8238 262.001 49.0323 255.991 51.6334C252.881 52.9869 250.532 55.5669 249.368 58.9293C248.204 62.3129 248.373 66.056 249.876 69.4819C251.357 72.9079 253.981 75.5936 257.24 77.0739C260.478 78.5331 263.99 78.5965 267.08 77.2431C268.265 76.7356 269.344 76.0377 270.296 75.1706C270.487 75.0015 270.783 75.0015 270.952 75.2129C271.122 75.4033 271.122 75.6993 270.91 75.8685C269.873 76.799 268.709 77.5603 267.44 78.1101C265.831 78.7869 264.117 79.1464 262.403 79.1464Z" fill="black"/>
<path d="M258.91 59.2677L249.684 70.1164C249.515 69.778 249.345 69.4397 249.176 69.1013C245.96 61.6785 248.859 53.3041 255.63 50.3857C262.402 47.4674 271.057 51.2105 274.274 58.6121C274.485 59.1197 274.676 59.6272 274.845 60.1347L258.91 59.2677Z" fill="black"/>
<path d="M170.905 89.1069L161.34 81.3457C161.34 81.3457 165.001 75.2975 159.88 69.5031C158.695 68.1497 156.007 65.612 153.701 63.4761C151.098 61.0652 148.812 58.2949 146.929 55.292L144.771 51.8449C143.691 50.1108 141.427 49.5398 139.628 50.5549L139.247 50.7664C137.449 51.8026 136.793 54.0654 137.766 55.9053L144.115 67.6844L137.724 68.8053C134.444 69.3762 131.079 69.0379 127.968 67.8113L115.377 63.0743C113.282 62.2918 110.933 63.1589 109.875 65.1256L109.685 65.4639L103.188 62.2707C101.242 61.3825 98.9561 62.1861 97.9827 64.0894C97.0304 65.9503 97.6864 68.2343 99.4852 69.3128L143.691 95.8741L157.087 106.046L170.905 89.1069Z" fill="#DFE3E8"/>
<path d="M157.085 106.511C156.98 106.511 156.895 106.49 156.81 106.406L143.436 96.2548L99.2512 69.7146C97.2621 68.5092 96.5214 65.9503 97.5795 63.8779C98.6587 61.742 101.219 60.8538 103.399 61.8477L109.515 64.8507C110.7 62.7359 113.281 61.7843 115.567 62.6302L128.158 67.3672C131.184 68.5726 134.464 68.911 137.659 68.34L143.415 67.3249L137.363 56.1167C136.263 54.0866 137.003 51.5066 139.014 50.3646L139.394 50.1531C141.405 49.0112 143.923 49.6456 145.15 51.6123L147.309 55.0594C149.171 58.0412 151.435 60.7692 153.996 63.1589C156.154 65.1467 158.969 67.8325 160.196 69.2071C164.767 74.3671 162.609 79.802 161.91 81.24L171.179 88.7685C171.285 88.8531 171.327 88.9589 171.348 89.0858C171.369 89.2126 171.327 89.3395 171.242 89.4241L157.424 106.342C157.339 106.448 157.212 106.511 157.085 106.511ZM101.537 62.3764C100.246 62.3764 99.0185 63.0743 98.4048 64.3008C97.5583 65.9503 98.1508 67.9594 99.7168 68.911L143.923 95.4723C143.944 95.4723 143.944 95.4935 143.965 95.4935L157.001 105.391L170.248 89.1703L161.043 81.7053C160.852 81.5572 160.81 81.3035 160.937 81.092C161.085 80.8594 164.344 75.2553 159.519 69.7992C158.567 68.7207 156.451 66.6482 153.382 63.8144C150.758 61.3825 148.452 58.591 146.526 55.5246L144.367 52.0776C143.415 50.5549 141.426 50.0474 139.86 50.9356L139.479 51.1471C137.913 52.0353 137.321 54.0654 138.188 55.6515L144.537 67.4307C144.6 67.5576 144.621 67.7267 144.537 67.8536C144.473 67.9805 144.346 68.0862 144.198 68.1074L137.807 69.2282C134.443 69.8203 130.972 69.4608 127.798 68.2131L115.207 63.4972C113.345 62.7994 111.229 63.5818 110.276 65.3371L110.086 65.6754C109.959 65.8869 109.684 65.9926 109.472 65.8658L102.976 62.6725C102.531 62.4821 102.023 62.3764 101.537 62.3764Z" fill="black"/>
<path d="M138.04 81.4938L134.845 79.2945C132.813 77.8987 131.226 75.932 130.274 73.6692L125.111 61.1922C124.37 59.3946 122.317 58.5276 120.518 59.2466C118.804 59.9233 117.894 61.8266 118.424 63.5818L122.825 78.0468C123.185 79.2099 123.777 80.3095 124.56 81.24L128.793 86.2943L138.04 81.4938Z" fill="#DFE3E8"/>
<path d="M129.745 75.4033L126.232 73.7749C123.989 72.7387 122.106 71.068 120.794 68.9744L113.62 57.5125C112.583 55.863 110.425 55.3554 108.753 56.3494C107.166 57.301 106.574 59.31 107.399 60.9807L114.149 74.5362C114.7 75.6359 115.461 76.6087 116.371 77.4123L121.365 81.7052L129.745 75.4033Z" fill="#DFE3E8"/>
<path d="M116.415 77.8353C116.309 77.8353 116.203 77.793 116.119 77.7295C115.145 76.8836 114.341 75.8685 113.77 74.7266L107.019 61.171C106.088 59.31 106.765 57.0049 108.543 55.9476C110.405 54.8267 112.881 55.3977 114.045 57.2587L119.504 66.0772C119.631 66.2887 119.568 66.5848 119.356 66.7117C119.145 66.8385 118.848 66.7751 118.721 66.5636L113.262 57.7451C112.373 56.3282 110.49 55.863 109.051 56.73C107.675 57.5548 107.167 59.31 107.887 60.748L114.637 74.3036C115.166 75.3398 115.865 76.2703 116.753 77.0317C116.944 77.2008 116.965 77.4969 116.796 77.6872C116.669 77.793 116.542 77.8353 116.415 77.8353Z" fill="black"/>
<path d="M126.826 83.7777C126.72 83.7777 126.614 83.7354 126.53 83.672C123.715 81.2189 122.192 79.0618 121.451 76.4184L117.959 63.6876C117.367 61.7208 118.404 59.5638 120.329 58.7813C122.361 57.9777 124.689 58.9717 125.535 60.9807L130.698 73.4577C131.608 75.6571 133.132 77.5392 135.1 78.8926L141.956 82.8684C142.189 82.9953 142.253 83.2913 142.126 83.5028C141.999 83.7354 141.702 83.7989 141.491 83.672L134.613 79.6751C132.476 78.1948 130.825 76.1858 129.852 73.8172L124.689 61.3402C124.054 59.7964 122.255 59.0351 120.689 59.6484C119.208 60.2405 118.404 61.89 118.869 63.4126L122.361 76.1435C123.059 78.6177 124.435 80.5844 127.143 82.9318C127.334 83.101 127.355 83.3971 127.186 83.5874C127.101 83.7354 126.953 83.7777 126.826 83.7777Z" fill="black"/>
<path d="M147.077 73.4577C146.908 73.4577 146.76 73.3731 146.675 73.2251L143.649 67.7479C143.522 67.5152 143.606 67.2403 143.839 67.1134C144.072 66.9866 144.347 67.0712 144.474 67.3038L147.5 72.781C147.627 73.0136 147.543 73.2885 147.31 73.4154C147.225 73.4577 147.162 73.4577 147.077 73.4577Z" fill="black"/>
<path d="M337.701 210.071L246.199 163.483C245.522 163.504 244.95 162.954 244.95 162.277L245.226 137.683C245.268 134.807 243.829 132.163 241.543 130.493C240.253 129.541 239.152 128.357 238.306 126.961L208.68 138.169C201.294 140.961 192.999 139.713 186.735 134.828L151.227 107.209L169.193 83.4182L201.654 108.668L254.325 88.8954C255.256 88.557 256.272 88.3667 257.309 88.3244L287.379 86.971C300.922 86.3577 318.381 94.0554 323.502 106.807L337.701 210.071Z" fill="#FFC107"/>
<path d="M337.699 210.536C337.636 210.536 337.551 210.515 337.488 210.494L246.07 163.948C245.668 163.927 245.287 163.779 244.991 163.483C244.652 163.166 244.483 162.721 244.483 162.256L244.758 137.662C244.779 135.018 243.489 132.48 241.267 130.852C240.018 129.922 238.96 128.801 238.114 127.532L208.847 138.613C201.25 141.489 192.892 140.22 186.459 135.209L150.95 107.548C150.738 107.4 150.717 107.103 150.865 106.892L168.831 83.101C168.916 82.9952 169.022 82.9318 169.149 82.9107C169.275 82.8895 169.402 82.9318 169.487 82.9952L201.737 108.076L254.154 88.3879C254.175 88.3879 254.196 88.3667 254.217 88.3667C255.212 88.0284 256.228 87.838 257.286 87.7746L287.356 86.4211C300.815 85.8079 318.633 93.3364 323.923 106.554C323.944 106.596 323.944 106.617 323.944 106.659L338.144 209.965C338.165 210.134 338.101 210.303 337.953 210.409C337.89 210.494 337.805 210.536 337.699 210.536ZM246.197 162.996C246.261 162.996 246.345 163.018 246.409 163.039L337.128 209.225L323.055 106.85C317.892 94.0554 300.561 86.7806 287.42 87.3728L257.349 88.7262C256.376 88.7685 255.402 88.9588 254.492 89.2761C254.471 89.2761 254.45 89.2972 254.45 89.2972L201.843 109.049C201.695 109.112 201.525 109.07 201.399 108.986L169.318 84.0315L151.923 107.082L187.072 134.405C193.251 139.205 201.272 140.432 208.572 137.662L238.198 126.453C238.41 126.369 238.643 126.453 238.77 126.644C239.574 127.955 240.632 129.097 241.88 130.027C244.335 131.846 245.795 134.68 245.753 137.619L245.478 162.214C245.478 162.425 245.562 162.616 245.711 162.764C245.795 162.933 245.986 162.996 246.197 162.996Z" fill="black"/>
<path d="M245.01 163.99C244.756 163.99 244.545 163.779 244.545 163.525L244.841 137.154C244.862 134.722 243.698 132.459 241.73 131.106C238.683 129.033 236.651 125.734 236.165 122.055C235.509 117.233 237.54 112.475 241.434 109.641C244.672 107.294 246.661 103.783 246.915 100.019C246.936 99.7653 247.169 99.5538 247.401 99.5749C247.655 99.5961 247.846 99.8076 247.846 100.061C247.592 104.101 245.454 107.865 241.984 110.381C238.344 113.004 236.482 117.423 237.075 121.907C237.54 125.311 239.423 128.378 242.238 130.302C244.481 131.825 245.793 134.384 245.772 137.133L245.476 163.504C245.476 163.779 245.264 163.99 245.01 163.99Z" fill="black"/>
<path d="M270.805 128.526C270.742 128.526 270.657 128.505 270.593 128.484C266.7 126.475 264.118 122.647 263.653 118.248C262.912 111.164 267.779 104.883 274.762 103.952C275.016 103.91 275.249 104.1 275.291 104.354C275.334 104.608 275.143 104.841 274.889 104.883C268.435 105.75 263.906 111.587 264.584 118.164C265.007 122.245 267.419 125.798 271.017 127.659C271.249 127.786 271.334 128.061 271.207 128.293C271.144 128.42 270.974 128.526 270.805 128.526Z" fill="black"/>
<path d="M258.365 154.136C257.625 153.713 254.07 149.821 247.7 149.864L245.182 149.885C242.367 149.906 241.775 150.985 238.982 151.006L227.364 151.069C225.671 151.069 224.295 152.486 224.317 154.199V154.432C224.317 156.166 225.713 157.54 227.406 157.54L258.408 157.35L258.365 154.136Z" fill="#DFE3E8"/>
<path d="M253.499 156.821L242.072 165.957C239.173 168.283 235.575 169.552 231.872 169.552C224.719 169.552 221.46 169.32 216.509 170.567L215.81 170.736C213.927 171.202 212.107 169.764 212.086 167.797V167.543C212.086 166.126 213.017 164.9 214.371 164.561C217.292 163.821 220.043 163.06 224.423 163.039L228.423 163.018C232.105 162.996 235.66 161.728 238.559 159.401L241.67 156.906L253.499 156.821Z" fill="#DFE3E8"/>
<path d="M250.832 175.748L230.602 176.002C228.443 176.023 226.327 175.579 224.359 174.712L223.026 174.12C220.677 173.084 219.619 170.292 220.656 167.924C221.037 167.036 222.053 166.634 222.941 167.014L224.952 167.924C227.385 169.002 230.009 169.552 232.654 169.531L250.79 169.341L250.832 175.748Z" fill="#DFE3E8"/>
<path d="M255.529 179.661C252.926 181.247 249.942 182.114 246.895 182.177L240.399 182.283C238.24 182.304 236.124 181.86 234.156 180.993L232.823 180.401C230.474 179.365 229.416 176.573 230.453 174.205C230.834 173.316 231.849 172.915 232.738 173.295L238.431 175.833L262.195 175.452L255.529 179.661Z" fill="#DFE3E8"/>
<path d="M243.786 154.241L232.55 168.495L230.18 175.896L275.084 175.621L274.957 154.072L243.786 154.241Z" fill="#DFE3E8"/>
<path d="M266.133 154.093L274.957 154.072L275.084 175.621L268.715 175.643L266.133 154.093Z" fill="#020202"/>
<path d="M215.09 171.286C214.328 171.286 213.609 171.032 212.995 170.567C212.127 169.912 211.641 168.897 211.641 167.797V167.543C211.641 165.915 212.72 164.498 214.286 164.117L214.878 163.969C217.545 163.292 220.296 162.595 224.443 162.573L228.443 162.552C231.998 162.531 235.49 161.283 238.283 159.042L240.653 157.139C240.865 156.969 241.14 157.012 241.309 157.202C241.478 157.413 241.436 157.688 241.245 157.858L238.875 159.761C235.913 162.129 232.231 163.441 228.464 163.483L224.464 163.504C220.444 163.525 217.862 164.181 215.132 164.879L214.54 165.027C213.397 165.323 212.593 166.359 212.614 167.543V167.797C212.614 168.601 212.974 169.341 213.609 169.827C214.222 170.292 215.005 170.461 215.746 170.271L216.444 170.102C220.719 169.023 223.83 169.045 228.972 169.066C230.559 169.066 232.337 169.087 234.431 169.066C234.834 169.066 237.733 169.045 239.976 169.023C241.859 169.023 243.679 169.214 245.499 169.637L246.049 169.764C246.303 169.827 246.451 170.081 246.388 170.335C246.324 170.588 246.07 170.736 245.816 170.694L245.266 170.567C243.531 170.165 241.753 169.975 239.976 169.975C237.733 169.996 234.834 169.996 234.431 170.017C232.337 170.039 230.538 170.039 228.972 170.017C223.724 169.996 220.825 169.975 216.677 171.032L215.979 171.202C215.661 171.244 215.386 171.286 215.09 171.286Z" fill="black"/>
<path d="M245.942 176.996C245.9 176.996 245.879 176.996 245.837 176.975L245.159 176.827C243.445 176.446 241.689 176.277 239.932 176.298L230.6 176.446C228.378 176.467 226.199 176.023 224.146 175.114L222.813 174.522C220.993 173.697 219.787 171.878 219.766 169.848C219.766 169.594 219.977 169.383 220.231 169.383C220.485 169.383 220.697 169.594 220.697 169.848C220.718 171.519 221.691 173.02 223.194 173.676L224.527 174.268C226.453 175.135 228.484 175.537 230.579 175.516L239.911 175.368C241.731 175.347 243.572 175.516 245.35 175.918L246.027 176.066C246.281 176.129 246.429 176.362 246.387 176.615C246.344 176.848 246.154 176.996 245.942 176.996Z" fill="black"/>
<path d="M240.186 182.769C238.028 182.769 235.911 182.325 233.943 181.437L232.61 180.845C230.706 179.999 229.5 178.075 229.563 175.96C229.563 175.706 229.796 175.495 230.05 175.516C230.304 175.516 230.515 175.748 230.494 176.002C230.452 177.736 231.425 179.301 232.991 179.999L234.324 180.591C236.25 181.458 238.282 181.86 240.377 181.839L246.873 181.733C249.836 181.691 252.735 180.845 255.274 179.301L261.771 175.325C261.834 175.283 261.919 175.262 262.004 175.262L274.595 175.177L274.468 154.559L258.343 154.622C258.258 154.601 258.173 154.601 258.11 154.559C257.962 154.474 257.792 154.326 257.517 154.093C256.142 152.972 252.946 150.329 247.783 150.329C247.762 150.329 247.72 150.329 247.698 150.329L245.18 150.35C243.847 150.35 243.043 150.604 242.218 150.879C241.35 151.154 240.461 151.45 238.98 151.45L227.362 151.513C225.923 151.513 224.759 152.719 224.781 154.178V154.41C224.781 155.129 225.056 155.785 225.564 156.293C226.05 156.779 226.706 157.054 227.383 157.054C227.383 157.054 227.383 157.054 227.405 157.054L245.074 156.948C245.328 156.948 245.54 157.16 245.54 157.413C245.54 157.667 245.328 157.879 245.074 157.879L227.405 157.984H227.383C226.452 157.984 225.564 157.625 224.886 156.948C224.209 156.271 223.849 155.383 223.828 154.41V154.178C223.807 152.19 225.394 150.583 227.341 150.562L238.959 150.498C240.292 150.498 241.075 150.244 241.921 149.969C242.789 149.695 243.699 149.399 245.18 149.399L247.698 149.377C253.264 149.335 256.798 152.253 258.131 153.353C258.279 153.48 258.406 153.586 258.512 153.649L274.954 153.565C275.208 153.565 275.42 153.776 275.42 154.03L275.547 175.579C275.547 175.833 275.335 176.044 275.081 176.044L262.152 176.129L255.761 180.041C253.073 181.67 250.005 182.558 246.894 182.621L240.398 182.727C240.334 182.769 240.25 182.769 240.186 182.769Z" fill="black"/>
<path d="M339.52 157.054L338.144 121.082C337.382 101.034 320.686 85.4272 300.942 86.3366L285.029 87.0556L309.09 116.366L310.423 148.278L268.629 150.202L269.941 179.576L320.855 177.229C331.415 176.721 339.689 167.797 339.52 157.054Z" fill="#FFC107"/>
<path d="M269.939 180.041C269.812 180.041 269.706 179.999 269.622 179.914C269.537 179.83 269.474 179.724 269.474 179.597L268.162 150.223C268.14 149.97 268.352 149.737 268.606 149.737L309.934 147.834L308.622 116.387C308.601 116.133 308.813 115.922 309.067 115.901C309.321 115.901 309.553 116.091 309.553 116.345L310.886 148.257C310.908 148.51 310.696 148.722 310.442 148.743L269.114 150.646L270.384 179.09L320.832 176.763C331.223 176.277 339.222 167.628 339.052 157.075L337.677 121.103C337.317 111.418 333.212 102.514 326.144 96.001C319.224 89.6356 310.294 86.3789 300.962 86.8018L286.636 87.4574C286.382 87.4574 286.149 87.2671 286.149 87.0133C286.128 86.7595 286.339 86.5269 286.593 86.5269L300.919 85.8713C310.484 85.4272 319.669 88.7897 326.779 95.3243C334.037 102.007 338.248 111.143 338.608 121.082L339.983 157.054C340.153 168.135 331.752 177.186 320.854 177.694L269.939 180.041Z" fill="black"/>
<path d="M310.19 148.764C309.936 148.764 309.724 148.574 309.724 148.32C309.703 148.066 309.915 147.834 310.169 147.834L318.654 147.432C318.908 147.432 319.141 147.622 319.141 147.876C319.162 148.13 318.95 148.362 318.697 148.362L310.211 148.764H310.19Z" fill="black"/>
</svg>
