<svg width="395" height="394" viewBox="0 0 395 394" fill="none" xmlns="http://www.w3.org/2000/svg">
<g clip-path="url(#clip0_1253_2328)">
<path d="M347.334 191.32V357.265H65.625V191.32L206.475 56.1441L347.334 191.32Z" fill="white"/>
<path d="M101.358 71.2952L119.299 13.8112L11.9414 45.3705L101.358 71.2952Z" fill="#8EC5FF"/>
<path d="M119.299 13.8112L38.168 52.9781L49.2463 90.3005L57.8812 58.6861L119.299 13.8112Z" fill="white"/>
<path d="M49.2461 90.3005L71.706 62.6964L57.881 58.6861L49.2461 90.3005Z" fill="white"/>
<path d="M320.87 94.3933V209.793L206.476 289.686L92.082 209.793V94.3933H320.87Z" fill="white"/>
<path d="M323.606 357.265H89.3438L206.475 237.635L323.606 357.265Z" fill="#FF8E2D"/>
<path d="M34.447 377.179C24.9211 374.095 18.1969 364.597 17.3518 354.741C8.53318 351.373 1.52423 342.775 0.219809 332.772C-0.919261 324.017 2.42446 314.877 8.95574 308.921C9.42423 308.499 10.1499 308.527 10.5817 308.995C11.0134 309.463 10.9767 310.188 10.5082 310.619C4.51888 316.07 1.45074 324.448 2.49795 332.469C3.62783 341.104 9.47016 348.841 17.2599 352.218C17.2967 350.015 17.6457 347.813 18.3347 345.693C21.4028 336.195 30.396 333.534 34.9247 339.783C39.481 346.06 34.9614 354.044 27.3554 355.723C24.6547 356.32 22.0367 356.09 19.7218 355.503C20.7966 364.138 26.795 372.297 35.1543 375.004C35.7606 375.197 36.0913 375.848 35.8984 376.454C35.6963 377.05 35.0441 377.371 34.447 377.179ZM19.5472 353.053C22.1102 353.814 24.6179 353.961 26.8502 353.475C32.6374 352.199 36.6976 346.152 33.0507 341.132C29.3579 336.039 22.7716 339.407 20.5118 346.4C19.8228 348.565 19.5197 350.804 19.5472 353.053Z" fill="#00C5C5"/>
<path d="M368.793 101.267L393.504 162.642C394.78 165.799 393.246 169.396 390.077 170.672L232.729 233.9C229.569 235.176 225.968 233.643 224.692 230.477L199.981 169.102C198.704 165.945 200.238 162.348 203.408 161.073L360.755 97.8438C363.924 96.5683 367.525 98.1008 368.793 101.267Z" fill="white"/>
<path d="M277.317 173.672C280.045 180.445 280.017 187.649 277.767 194.027C275.103 201.579 269.325 208.003 261.296 211.224C253.267 214.454 244.651 213.821 237.495 210.206C231.451 207.159 226.435 201.983 223.707 195.211C217.754 180.417 224.929 163.615 239.736 157.668C254.535 151.712 271.364 158.879 277.317 173.672Z" fill="white"/>
<path d="M261.312 211.222C272.434 206.752 279.809 199.05 277.783 194.019C275.757 188.987 265.098 188.532 253.975 193.001C242.853 197.471 235.478 205.173 237.504 210.204C239.53 215.236 250.189 215.692 261.312 211.222Z" fill="#8E8EFF"/>
<path d="M253.929 171.965C249.208 169.772 243.953 171.066 242.19 174.865C241.519 176.306 241.446 177.903 241.877 179.454C241.822 179.472 241.776 179.481 241.721 179.5C240.316 180.069 239.627 181.665 240.196 183.069C240.766 184.474 242.364 185.162 243.77 184.593C243.852 184.556 243.935 184.51 244.008 184.464L248.721 195.642L257.099 198.496L257.971 191.76C257.971 191.76 255.702 186.098 255.693 186.098C257.273 185.446 258.55 184.327 259.266 182.794C261.039 179.004 258.642 174.159 253.929 171.965Z" fill="white"/>
<path d="M252.617 176.774C252.617 176.774 257.128 178.142 254.684 179.435Z" fill="white"/>
<path d="M251.457 187.162C253 187.144 254.433 186.832 255.701 186.107Z" fill="white"/>
<path d="M329.642 130.936L331.984 136.754C332.306 137.552 331.92 138.461 331.121 138.791L292.558 154.291C291.758 154.612 290.849 154.227 290.518 153.428L288.176 147.61C287.854 146.812 288.24 145.903 289.039 145.573L327.602 130.073C328.411 129.752 329.32 130.137 329.642 130.936Z" fill="#FF8E2D"/>
<path d="M178.447 111.554V123.438C178.447 124.585 177.519 125.512 176.371 125.512H110.892C109.744 125.512 108.816 124.585 108.816 123.438V111.554C108.816 110.407 109.744 109.48 110.892 109.48H176.371C177.519 109.48 178.447 110.416 178.447 111.554Z" fill="#FF8EC5"/>
<path d="M336.274 384.667C335.86 384.19 335.906 383.465 336.384 383.043C336.862 382.63 337.587 382.676 338.01 383.153C344.348 390.43 355.206 393.504 364.429 390.641C375.728 387.127 384.014 375.83 381.873 359.77C376.977 361.853 370.244 360.358 366.689 357.054C364.521 355.044 363.768 352.548 364.548 350.024C365.531 346.868 368.866 345.464 371.649 345.207C378.291 344.583 382.002 349.694 383.554 356.21C388.8 352.475 390.922 345.665 391.638 342.582C393.769 333.414 392.584 323.32 388.395 314.886C388.111 314.317 388.349 313.629 388.919 313.344C389.489 313.06 390.178 313.299 390.462 313.868C394.945 322.898 396.167 333.286 393.879 343.105C392.226 350.226 388.708 355.723 384.032 358.651C386.806 376.335 377.473 389.008 365.109 392.853C355.05 395.964 343.191 392.605 336.274 384.667ZM371.861 347.492C369.904 347.675 367.387 348.63 366.735 350.713C366.211 352.392 366.716 353.952 368.241 355.375C371.107 358.045 377.097 359.504 381.46 357.439C380.293 351.86 377.528 346.959 371.861 347.492Z" fill="#8E8EFF"/>
<path d="M347.555 58.0529C347.555 84.3539 326.206 105.69 299.87 105.69C273.533 105.69 252.176 84.363 252.176 58.0529C252.176 31.7428 273.524 10.4066 299.87 10.4066C326.197 10.4158 347.555 31.7428 347.555 58.0529Z" fill="white"/>
<path d="M331.433 58.0529C331.433 75.4615 317.304 89.5847 299.869 89.5847C282.434 89.5847 268.297 75.4615 268.297 58.0529C268.297 40.6352 282.434 26.512 299.869 26.512C317.304 26.512 331.433 40.6352 331.433 58.0529Z" fill="#FF5B5B"/>
<path d="M175.056 233.708C175.056 254.622 158.089 271.571 137.163 271.571C116.238 271.571 99.2617 254.622 99.2617 233.708C99.2617 212.793 116.228 195.853 137.163 195.853C158.098 195.853 175.056 212.803 175.056 233.708Z" fill="#00C5C5"/>
<path d="M129.401 245.711L119.416 232.175C118.81 231.358 118.985 230.211 119.802 229.605L126.416 224.733C127.234 224.127 128.382 224.301 128.988 225.118L133.866 231.734L149.501 220.346C150.318 219.749 151.466 219.924 152.063 220.75L156.905 227.385C157.502 228.201 157.318 229.348 156.5 229.945L133.921 246.399C132.479 247.454 130.458 247.142 129.401 245.711Z" fill="white"/>
<path d="M11.7727 45.9211L37.705 53.437C49.5182 93.2371 48.6272 90.2913 48.7098 90.4932C48.8476 90.8694 49.3529 91.0163 49.6652 90.6859C49.8305 90.5115 47.8831 92.8792 71.9138 63.3572L101.199 71.8458C101.254 71.8641 101.309 71.8641 101.355 71.8641C101.603 71.8641 101.824 71.7081 101.906 71.4604L119.847 13.9764C119.975 13.5634 119.599 13.1229 119.139 13.2514L11.7727 44.8199C11.2216 44.9759 11.2216 45.7559 11.7727 45.9211ZM57.5376 58.2273C57.4641 58.2824 57.3539 58.4108 57.3263 58.5393L49.2243 88.199L38.8624 53.281L113.857 17.0874L57.5376 58.2273ZM50.5195 87.8227L58.2817 59.4019L70.7104 63.0084L50.5195 87.8227ZM100.978 70.5885C99.8026 70.249 61.1937 59.0532 59.1636 58.4659L118.23 15.307L100.978 70.5885ZM112.737 16.344L38.1183 52.3633L13.9866 45.3705L112.737 16.344Z" fill="#00002D"/>
<path d="M394.033 162.422L369.323 101.047C367.936 97.5961 363.995 95.9259 360.541 97.3024L321.445 113.013V101.157C337.245 93.2279 348.122 76.893 348.122 58.0529C348.122 31.4675 326.47 9.83762 299.867 9.83762C273.255 9.83762 251.604 31.4675 251.604 58.0529C251.604 72.222 257.758 84.9871 267.532 93.8152H246.551L206.868 55.7312C206.647 55.5201 206.298 55.5201 206.069 55.7312L166.385 93.8152H92.0698C91.7482 93.8152 91.491 94.0722 91.491 94.3933V165.689L65.2189 190.907C65.1087 191.017 65.0444 191.237 65.0444 191.32V281.868C42.2722 281.409 19.5551 267.772 9.7536 247.702C2.51499 232.863 1.30244 214.326 6.06999 191.017C12.5829 159.182 26.5181 129.082 46.3784 103.956C46.5713 103.708 46.5345 103.341 46.2865 103.148C46.0385 102.955 45.6802 102.992 45.4781 103.24C25.5077 128.504 11.4898 158.778 4.94011 190.787C0.117437 214.353 1.35755 233.139 8.71558 248.207C18.7008 268.662 41.8405 282.547 65.0352 283.015V357.265C65.0352 357.586 65.2924 357.843 65.6139 357.843H347.322C347.644 357.843 347.901 357.586 347.901 357.265V206.792C355.82 209.031 362.985 212.344 369.121 216.666C400.372 238.654 396.128 278.307 369.856 285.933C369.553 286.025 369.378 286.337 369.461 286.649C369.553 286.952 369.874 287.126 370.177 287.044C397.368 279.151 401.842 238.287 369.782 215.73C363.462 211.288 356.068 207.893 347.901 205.608V191.32C347.901 191.219 347.828 191.008 347.727 190.907L345.816 189.071L390.295 171.195C393.749 169.809 395.421 165.872 394.033 162.422ZM252.752 58.0529C252.752 32.1007 273.889 10.9847 299.867 10.9847C325.845 10.9847 346.973 32.1007 346.973 58.0529C346.973 84.0051 325.845 105.112 299.867 105.112C273.889 105.121 252.752 84.0051 252.752 58.0529ZM206.473 56.9425L244.898 93.8152H168.057L206.473 56.9425ZM92.6485 94.9623H268.855C277.251 102.01 288.063 106.259 299.858 106.259C307.161 106.259 314.078 104.626 320.288 101.717V113.481L203.193 160.54C199.73 161.935 198.058 165.854 199.445 169.313L224.156 230.688C225.543 234.13 229.456 235.827 232.938 234.432L320.288 199.331V209.508C319.149 210.297 236.98 267.69 236.805 267.809L206.886 237.25C206.675 237.03 206.28 237.03 206.059 237.25L176.14 267.809L165.108 260.1C171.63 253.208 175.635 243.931 175.635 233.717C175.635 212.527 158.375 195.284 137.164 195.284C122.117 195.284 109.073 203.956 102.753 216.547L92.6577 209.499V94.9623H92.6485ZM90.7102 356.696L206.473 238.461L322.235 356.696H90.7102ZM137.164 196.431C157.741 196.431 174.487 213.161 174.487 233.717C174.487 254.282 157.741 271.012 137.164 271.012C116.578 271.012 99.8412 254.282 99.8412 233.717C99.832 213.151 116.578 196.431 137.164 196.431ZM91.5002 208.691L66.5234 191.246L91.5002 167.276V208.691ZM66.1927 192.421C69.7844 194.926 98.2428 214.803 102.239 217.593C99.9606 222.493 98.6837 227.954 98.6837 233.708C98.6837 254.906 115.944 272.149 137.164 272.149C147.746 272.149 157.337 267.855 164.3 260.926L175.323 268.626L89.1027 356.696H66.1927V192.421ZM323.843 356.696L237.623 268.635C243.584 264.468 344.052 194.311 346.753 192.421V356.696H323.843ZM346.422 191.246L321.445 208.691V198.863L344.64 189.539L346.422 191.246ZM232.506 233.359C229.64 234.515 226.379 233.129 225.221 230.257L200.511 168.882C199.354 166.019 200.741 162.761 203.616 161.605L360.964 98.3761C363.857 97.2107 367.1 98.6331 368.248 101.478L392.959 162.853C394.107 165.716 392.72 168.983 389.854 170.13L232.506 233.359Z" fill="#00002D"/>
<path d="M277.847 173.452C271.785 158.393 254.588 151.07 239.514 157.126C224.44 163.183 217.109 180.362 223.172 195.422C229.336 210.719 246.642 217.721 261.515 211.747C276.506 205.727 283.956 188.622 277.847 173.452ZM224.238 194.999C216.742 176.389 230.576 156.154 250.482 156.154C261.707 156.154 272.354 162.862 276.791 173.883C279.28 180.069 279.501 186.905 277.425 193.219C271.445 190.374 264.711 189.64 258.327 191.063C257.427 188.823 256.802 187.236 256.435 186.401C260.036 184.62 261.542 180.573 259.558 176.517C259.025 175.434 258.281 174.452 257.372 173.59C260.927 170.46 258.768 164.633 254.056 164.541C252.338 161.586 248.663 160.256 245.402 161.568C242.095 162.899 240.368 166.478 241.269 169.836C239.955 170.314 239.009 171.195 238.439 172.287C232.799 172.232 228.932 177.912 231.035 183.143C232.22 186.089 234.967 187.924 237.943 188.089C238.981 191.466 243.179 193.192 246.358 191.457L248.075 195.532C243.161 198.909 239.339 203.727 237.199 209.389C231.311 206.269 226.727 201.185 224.238 194.999ZM238.21 209.912C240.295 204.332 244.079 199.606 248.948 196.33C257.28 199.166 256.931 199.083 257.114 199.083C257.362 199.083 257.638 198.881 257.684 198.578L258.511 192.2C264.711 190.806 271.243 191.521 277.048 194.311C271.215 209.93 253.266 217.143 238.21 209.912ZM244.208 183.932C244.052 183.877 243.896 183.886 243.749 183.96L243.657 184.015C241.912 184.868 239.973 183.051 240.745 181.197C241.581 179.344 243.17 180.17 244.906 179.472C246.808 178.71 247.993 176.949 248.121 175.04C250.308 175.003 252.218 173.984 253.468 172.406C253.541 172.434 253.615 172.461 253.679 172.489C254.68 172.947 255.59 173.553 256.37 174.269C257.271 175.067 257.996 176.012 258.502 177.04C261.12 182.354 256.628 186.52 251.437 186.584C251.116 186.584 250.868 186.85 250.868 187.162C250.868 187.474 251.125 187.731 251.447 187.731H251.456C252.953 187.713 254.239 187.419 255.387 186.878C255.801 187.897 256.701 190.154 257.372 191.833L256.609 197.725L249.141 195.183C243.133 180.95 245.209 185.859 244.759 184.795C244.585 184.428 244.585 184.061 244.208 183.932Z" fill="#00002D"/>
<path d="M252.448 177.325C253.597 177.674 254.772 178.316 254.837 178.6C254.837 178.6 254.782 178.729 254.414 178.922C254.129 179.068 254.028 179.417 254.175 179.702C254.322 179.977 254.662 180.087 254.956 179.94C255.691 179.555 256.04 179.068 255.985 178.499C255.866 177.279 253.716 176.499 252.788 176.214C252.485 176.123 252.164 176.297 252.072 176.6C251.971 176.912 252.145 177.233 252.448 177.325Z" fill="#00002D"/>
<path d="M254.729 175.921C254.857 176.251 255.234 176.416 255.564 176.279C255.895 176.141 256.051 175.765 255.923 175.444C255.785 175.113 255.418 174.948 255.078 175.086C254.756 175.214 254.591 175.59 254.729 175.921Z" fill="#00002D"/>
<path d="M250.87 179.041C250.999 179.371 251.376 179.536 251.706 179.399C252.037 179.261 252.193 178.885 252.065 178.564C251.927 178.233 251.559 178.068 251.219 178.206C250.889 178.334 250.733 178.71 250.87 179.041Z" fill="#00002D"/>
<path d="M242.29 181.546L241.527 181.665C240.783 181.776 240.939 182.923 241.702 182.803L242.464 182.684C243.218 182.574 243.034 181.427 242.29 181.546Z" fill="#00002D"/>
<path d="M254.828 181.913C254.755 182.225 254.948 182.528 255.251 182.601C255.554 182.675 255.866 182.491 255.949 182.179C256.151 181.363 256.518 181.353 256.941 181.61C257.207 181.776 257.566 181.693 257.731 181.427C257.896 181.161 257.814 180.803 257.547 180.638C256.28 179.858 255.15 180.555 254.828 181.913Z" fill="#00002D"/>
<path d="M249.647 178.628L250.823 177.27C251.034 177.031 251.006 176.664 250.767 176.462C250.529 176.251 250.161 176.279 249.959 176.517L248.783 177.875C248.572 178.114 248.6 178.481 248.838 178.683C249.077 178.894 249.445 178.867 249.647 178.628Z" fill="#00002D"/>
<path d="M253.717 175.288L254.902 173.929C255.113 173.691 255.086 173.324 254.847 173.122C254.608 172.911 254.241 172.938 254.039 173.177L252.854 174.535C252.642 174.774 252.67 175.141 252.909 175.343C253.148 175.554 253.515 175.526 253.717 175.288Z" fill="#00002D"/>
<path d="M332.525 136.543L330.182 130.725C329.741 129.633 328.492 129.1 327.399 129.541L288.836 145.041C287.743 145.481 287.21 146.72 287.651 147.821L289.993 153.639C290.434 154.731 291.675 155.264 292.777 154.823L331.34 139.323C332.442 138.883 332.966 137.635 332.525 136.543ZM330.908 138.259L292.345 153.759C291.84 153.96 291.261 153.722 291.059 153.208L288.717 147.39C288.515 146.876 288.763 146.307 289.268 146.105L327.831 130.605C328.345 130.403 328.915 130.651 329.117 131.156L331.459 136.974C331.661 137.479 331.413 138.057 330.908 138.259Z" fill="#00002D"/>
<path d="M370.029 135.588C369.909 135.295 369.569 135.157 369.275 135.267L295.199 165.037C294.905 165.156 294.758 165.487 294.878 165.789C294.997 166.083 295.328 166.23 295.631 166.111L369.707 136.341C370.001 136.222 370.139 135.882 370.029 135.588Z" fill="#00002D"/>
<path d="M372.592 143.499L298.515 173.269C298.222 173.388 298.075 173.718 298.194 174.021C298.313 174.315 298.644 174.462 298.947 174.342L373.023 144.573C373.317 144.453 373.464 144.123 373.345 143.82C373.216 143.526 372.886 143.38 372.592 143.499Z" fill="#00002D"/>
<path d="M338.331 166.826L301.835 181.491C301.136 181.776 301.541 182.84 302.266 182.556L338.762 167.891C339.056 167.772 339.203 167.441 339.084 167.138C338.955 166.854 338.615 166.716 338.331 166.826Z" fill="#00002D"/>
<path d="M110.893 126.09H176.371C177.832 126.09 179.026 124.906 179.026 123.438V111.554C179.026 110.095 177.832 108.902 176.371 108.902H110.893C109.432 108.902 108.238 110.086 108.238 111.554V123.438C108.238 124.906 109.432 126.09 110.893 126.09ZM109.396 111.554C109.396 110.728 110.066 110.058 110.893 110.058H176.371C177.198 110.058 177.869 110.728 177.869 111.554V123.438C177.869 124.264 177.198 124.934 176.371 124.934H110.893C110.066 124.934 109.396 124.264 109.396 123.438V111.554Z" fill="#00002D"/>
<path d="M108.817 142.122H226.94C227.262 142.122 227.519 141.865 227.519 141.544C227.519 141.223 227.262 140.966 226.94 140.966H108.817C108.495 140.966 108.238 141.223 108.238 141.544C108.238 141.865 108.505 142.122 108.817 142.122Z" fill="#00002D"/>
<path d="M108.817 158.989H187.266C187.587 158.989 187.845 158.732 187.845 158.411C187.845 158.09 187.587 157.833 187.266 157.833H108.817C108.495 157.833 108.238 158.09 108.238 158.411C108.238 158.732 108.505 158.989 108.817 158.989Z" fill="#00002D"/>
<path d="M332.008 58.0529C332.008 40.3415 317.586 25.9339 299.866 25.9339C282.137 25.9339 267.715 40.3415 267.715 58.0529C267.715 75.7551 282.137 90.1628 299.866 90.1628C317.586 90.1628 332.008 75.7643 332.008 58.0529ZM268.863 58.0529C268.863 40.9748 282.771 27.081 299.866 27.081C316.952 27.081 330.86 40.9748 330.86 58.0529C330.86 75.1219 316.961 89.0157 299.866 89.0157C282.771 89.0157 268.863 75.1311 268.863 58.0529Z" fill="#00002D"/>
<path d="M205.949 12.1869L249.73 30.4672C250.024 30.5865 250.364 30.4489 250.483 30.1552C250.602 29.8616 250.465 29.522 250.171 29.4027L206.39 11.1224C206.096 11.0031 205.756 11.1407 205.637 11.4344C205.517 11.728 205.655 12.0676 205.949 12.1869Z" fill="#00002D"/>
<path d="M196.148 8.094L198.289 8.98416C198.583 9.10346 198.922 8.96581 199.042 8.67215C199.161 8.37849 199.023 8.03894 198.73 7.91964L196.589 7.02949C196.295 6.91019 195.955 7.04784 195.836 7.3415C195.716 7.63516 195.854 7.96553 196.148 8.094Z" fill="#00002D"/>
<path d="M257.684 17.5003C257.859 17.7664 258.217 17.8307 258.484 17.6563C258.75 17.4819 258.814 17.1241 258.64 16.8579L250.979 5.42353C250.804 5.1574 250.446 5.08399 250.179 5.26753C249.913 5.44189 249.849 5.79979 250.023 6.06591L257.684 17.5003Z" fill="#00002D"/>
<path d="M247.398 2.14739C247.573 2.41352 247.931 2.47776 248.197 2.3034C248.464 2.12904 248.528 1.77114 248.354 1.50501L247.518 0.256954C247.343 -0.00917584 246.985 -0.0825908 246.719 0.100947C246.452 0.275307 246.388 0.633206 246.562 0.899335L247.398 2.14739Z" fill="#00002D"/>
<path d="M245.467 44.5813L220.554 50.9317C220.242 51.0142 220.058 51.3263 220.141 51.6291C220.214 51.9319 220.527 52.1246 220.839 52.0421L245.752 45.6825C246.064 45.5999 246.248 45.2879 246.165 44.985C246.091 44.6822 245.779 44.4987 245.467 44.5813Z" fill="#00002D"/>
<path d="M216.165 52.0512L215.035 52.3357C214.722 52.4183 214.539 52.7303 214.621 53.0332C214.695 53.336 215.007 53.5287 215.32 53.4461L216.449 53.1616C216.762 53.079 216.945 52.767 216.863 52.4642C216.78 52.1614 216.468 51.9778 216.165 52.0512Z" fill="#00002D"/>
<path d="M128.935 246.05C130.175 247.73 132.563 248.106 134.253 246.867L156.842 230.413C157.917 229.633 158.155 228.128 157.365 227.045L152.524 220.41C151.744 219.346 150.237 219.089 149.153 219.887L133.987 230.936L129.449 224.788C128.659 223.714 127.143 223.494 126.078 224.274L119.464 229.147C118.398 229.936 118.169 231.45 118.959 232.514L128.935 246.05ZM120.144 230.073L126.758 225.201C127.318 224.788 128.108 224.907 128.521 225.467L133.399 232.083C133.583 232.34 133.941 232.395 134.198 232.202L149.833 220.814C150.393 220.401 151.183 220.529 151.597 221.089L156.438 227.724C156.842 228.284 156.732 229.073 156.162 229.486L133.583 245.94C132.398 246.803 130.735 246.546 129.862 245.371L119.877 231.835C119.464 231.276 119.583 230.486 120.144 230.073Z" fill="#00002D"/>
</g>
<defs>
<clipPath id="clip0_1253_2328">
<rect width="395" height="394" fill="white"/>
</clipPath>
</defs>
</svg>
