<svg width="12" height="40" viewBox="0 0 12 40" fill="none" xmlns="http://www.w3.org/2000/svg">
<path d="M8.98343 34.4056V38.5535C8.98343 39.0307 8.59761 39.4161 8.11993 39.4161H3.6096C3.13192 39.4161 2.74609 39.0307 2.74609 38.5535V34.4056C2.74609 33.9284 3.13192 33.5429 3.6096 33.5429H8.11993C8.59761 33.5429 8.98343 33.9284 8.98343 34.4056Z" fill="white"/>
<path d="M4.30434 28.358H7.4276C8.33701 28.358 9.12702 27.7156 9.31993 26.8255L11.4787 16.7951C11.6532 15.9967 11.7359 15.18 11.7359 14.3633V2.34155C11.7359 1.27703 10.8632 0.405228 9.7976 0.405228H1.93436C0.868777 0.405228 -0.00390625 1.27703 -0.00390625 2.34155V14.3633C-0.00390625 15.18 0.0787726 15.9967 0.253308 16.7951L2.41203 26.8255C2.59575 27.7156 3.39492 28.358 4.30434 28.358ZM1.14435 14.3724V2.35073C1.14435 1.91941 1.49342 1.57069 1.92516 1.57069H9.78843C10.2202 1.57069 10.5692 1.91941 10.5692 2.35073V14.3724C10.5692 15.1066 10.4958 15.8407 10.3396 16.5565L8.18087 26.5869C8.10738 26.9448 7.78586 27.2109 7.40923 27.2109H4.28597C3.91853 27.2109 3.59703 26.9539 3.51435 26.5869L1.35563 16.5565C1.22703 15.8407 1.14435 15.0974 1.14435 14.3724Z" fill="#00002D"/>
<path d="M9.55883 38.5535V34.4056C9.55883 33.6072 8.91579 32.9648 8.1166 32.9648H3.60627C2.80708 32.9648 2.16406 33.6072 2.16406 34.4056V38.5535C2.16406 39.3519 2.80708 39.9943 3.60627 39.9943H8.1166C8.91579 39.9943 9.55883 39.3519 9.55883 38.5535ZM3.31232 38.5535V34.4056C3.31232 34.2495 3.44092 34.1119 3.60627 34.1119H8.1166C8.28195 34.1119 8.41057 34.2404 8.41057 34.4056V38.5535C8.41057 38.7095 8.28195 38.8472 8.1166 38.8472H3.60627C3.4501 38.8472 3.31232 38.7187 3.31232 38.5535Z" fill="#00002D"/>
<path d="M11.1593 2.34155V14.3633C11.1593 15.1433 11.0766 15.9141 10.9113 16.6667L8.75254 26.697C8.61475 27.321 8.06359 27.7707 7.42057 27.7707H4.29731C3.65429 27.7707 3.10312 27.321 2.96533 26.697L0.806613 16.6667C0.641264 15.905 0.558594 15.1341 0.558594 14.3633V2.34155C0.558594 1.58904 1.16485 0.983368 1.91811 0.983368H9.78138C10.5438 0.983368 11.1593 1.59822 11.1593 2.34155Z" fill="white"/>
</svg>
