<svg width="313" height="298" viewBox="0 0 313 298" fill="none" xmlns="http://www.w3.org/2000/svg">
<path d="M252.076 182.38C266.741 178.23 285.536 182.289 296.578 192.794C307.621 203.298 311.783 220.919 305.253 234.69C301.636 242.317 295.179 248.356 287.847 252.54C280.516 256.723 272.318 259.173 264.063 260.937L149.49 278.466C147.362 256.44 145.235 234.415 143.105 212.391C179.069 202.211 216.114 192.555 252.076 182.38Z" fill="#814EFF"/>
<path d="M286.672 247.655C293.508 244.167 298.59 237.421 300.054 229.888" stroke="#060305" stroke-miterlimit="10" stroke-linecap="round" stroke-linejoin="round"/>
<path d="M190.95 92.0984C183.233 78.8001 171.444 66.8728 157.272 60.91C145.962 56.1508 135.016 51.7075 123.706 46.9483C121.782 50.0427 117.805 51.7059 114.249 50.9004C110.695 50.0964 107.279 46.8725 106.873 43.2521C93.5635 44.1667 80.3426 46.3907 67.4661 49.8815C40.3135 57.2423 19.7414 80.6229 8.82031 106.55C15.5666 108.505 21.8643 110.367 28.6122 112.323C31.5233 136.977 34.5718 160.928 37.4829 185.581C70.1229 190.309 103.527 194.612 133.179 209.049L170.249 209.385C176.449 183.891 182.895 158.674 189.095 133.181C196.378 129.291 204.436 125.52 211.719 121.628C204.823 111.732 197.002 102.533 190.95 92.0984Z" fill="white"/>
<path d="M91.5859 45.642C94.1116 52.1719 96.9043 58.9166 102.152 63.551C107.539 68.3102 115.281 70.2641 122.281 68.6325C129.284 67.0008 135.363 61.8277 138.093 55.1762" stroke="#060305" stroke-miterlimit="10" stroke-linecap="round" stroke-linejoin="round"/>
<path d="M170.844 69.1142C169.312 92.4221 170.356 115.898 173.954 138.976" stroke="#060305" stroke-miterlimit="10" stroke-linecap="round" stroke-linejoin="round"/>
<path d="M65.6489 114.681C67.0752 103.026 68.5016 91.3717 69.9279 79.7162C70.3828 76.0011 70.8377 72.248 70.4555 68.525C70.0732 64.802 68.778 61.0553 66.1622 58.378C63.5465 55.7006 59.4633 54.2948 55.9141 55.4811" stroke="#060305" stroke-miterlimit="10" stroke-linecap="round" stroke-linejoin="round"/>
<path d="M13.0586 99.5001C30.7149 102.138 48.3712 104.776 66.0259 107.414" stroke="#060305" stroke-miterlimit="10" stroke-linecap="round" stroke-linejoin="round"/>
<path d="M176.138 120.661L147.927 204.978H93.3568C90.591 204.978 88.8313 208.104 90.3951 210.396C92.1563 212.977 95.0674 214.514 98.1728 214.514H274.793C278.71 214.514 282.188 212.001 283.436 208.27L312.748 120.665C313.774 117.596 311.503 114.418 308.281 114.418H184.781C180.866 114.418 177.386 116.931 176.138 120.661Z" fill="#9E97FF"/>
<path d="M244.431 165.933C244.431 162.583 241.73 159.868 238.397 159.868C235.064 159.868 232.363 162.583 232.363 165.933C232.363 169.283 235.064 171.999 238.397 171.999C241.73 171.999 244.431 169.282 244.431 165.933Z" fill="#814EFF"/>
<path d="M183.084 114.583L151.941 213.557" stroke="#060305" stroke-miterlimit="10" stroke-linecap="round" stroke-linejoin="round"/>
<path d="M308.362 116.811H232.363" stroke="white" stroke-miterlimit="10" stroke-linecap="round" stroke-linejoin="round"/>
<path d="M119.327 166.541C99.0944 156.363 77.8067 147.358 56.6327 139.318C58.9863 131.072 61.3382 122.825 63.6918 114.579L14.2848 107.128C9.72622 116.035 5.13762 125.013 2.40972 134.641C-0.318173 144.268 -1.09374 154.704 2.00378 164.218C6.6224 178.407 19.8528 188.325 34.6074 190.549C65.81 195.254 96.8609 201.89 127.318 210.14C128.782 210.537 130.3 210.938 131.799 210.699C133.298 210.461 134.781 209.399 135.004 207.899C133.308 206.175 131.613 204.452 129.916 202.73C129.138 201.939 128.323 201.124 127.278 200.745C129.599 201.549 132.238 202.693 134.559 203.497C136.636 206.337 139.045 208.929 141.644 211.298C142.763 212.317 145.072 212.54 146.269 211.614C144.59 207.017 143.08 202.691 141.401 198.094C145.05 200.402 148.868 203.386 152.825 205.116C154.335 205.776 156.416 205.299 157.389 203.97C146.904 189.688 135.154 174.505 119.327 166.541Z" fill="#FF9A7D"/>
<path d="M57.022 138.932C54.0777 138.913 51.1318 138.894 48.1875 138.875" stroke="#060305" stroke-miterlimit="10" stroke-linecap="round" stroke-linejoin="round"/>
<path d="M130.309 188.022C134.436 192.008 138.563 195.995 142.691 199.982" stroke="#060305" stroke-miterlimit="10" stroke-linecap="round" stroke-linejoin="round"/>
<path d="M122.59 197.515C125.305 199.432 128.02 201.35 130.736 203.269" stroke="#060305" stroke-miterlimit="10" stroke-linecap="round" stroke-linejoin="round"/>
<path d="M117.152 204.479C120.882 206.64 124.613 208.799 128.342 210.96" stroke="#060305" stroke-miterlimit="10" stroke-linecap="round" stroke-linejoin="round"/>
<path d="M193.392 232.737C182.559 229.976 172.124 226.992 161.723 222.897C155.045 240.779 153.092 260.222 154.945 279.221C173.786 281.035 195.616 280.759 209.683 293.424C212.615 296.063 215.943 298.576 219.802 297.763L193.392 232.737Z" fill="#060305"/>
<path d="M172.461 269.743C172.461 273.408 172.461 277.072 172.461 280.737" stroke="white" stroke-miterlimit="10" stroke-linecap="round" stroke-linejoin="round"/>
<path d="M177.996 269.939C178.162 273.867 178.326 277.794 178.49 281.723" stroke="white" stroke-miterlimit="10" stroke-linecap="round" stroke-linejoin="round"/>
<path d="M184.64 269.743C184.574 273.604 184.508 277.466 184.441 281.326" stroke="white" stroke-miterlimit="10" stroke-linecap="round" stroke-linejoin="round"/>
<path d="M120.305 5.19904C125.937 5.96355 131.84 4.51193 136.475 1.22171" stroke="#814EFF" stroke-miterlimit="10" stroke-linecap="round" stroke-linejoin="round"/>
<path d="M106.992 6.36317C107.438 7.09609 107.885 7.83057 108.33 8.56348" stroke="#814EFF" stroke-miterlimit="10" stroke-linecap="round" stroke-linejoin="round"/>
<path d="M142.168 12.8093C143.615 11.9959 144.54 10.331 144.469 8.6709C144.397 7.01236 143.331 5.43438 141.817 4.74886C140.551 4.17548 139.1 4.21497 137.71 4.26551C132.699 4.44716 127.325 5.11373 122.341 4.55457C115.981 3.84061 109.337 6.47056 105.187 11.3451C101.038 16.2196 99.5042 23.1981 101.227 29.3631L132.439 36.2168C132.849 30.9584 134.379 25.4268 136.336 20.5302C137.889 20.4686 139.472 20.3375 140.898 19.7215C142.324 19.1055 143.586 17.9239 143.928 16.4091C144.269 14.8912 143.664 13.2326 142.168 12.8093Z" fill="#814EFF"/>
<path d="M132.392 53.3881C130.274 52.5241 128.331 51.8181 126.213 50.954C126.516 49.8278 127.059 48.4331 127.363 47.3053C130.711 47.16 133.987 45.7115 136.35 43.3311C138.712 40.9523 140.088 37.8058 140.13 34.454C140.187 30.0265 140.081 25.302 137.857 21.4732C136.331 18.8448 133.577 17.1326 130.673 16.2354C129.952 17.6112 128.595 18.6363 127.075 18.957C125.556 19.2776 124.031 18.7895 122.815 17.8228C122.205 19.3597 120.733 20.5207 119.097 20.7561C117.46 20.9914 115.868 20.001 114.849 18.6979C115.072 21.4147 113.889 24.1774 111.776 25.8975C111.136 25.0651 110.572 24.1474 109.932 23.3134C107.23 22.3025 103.96 23.0417 101.955 25.1172C99.951 27.1928 99.3255 30.4861 100.431 33.1524C101.535 35.8172 104.307 37.7032 107.192 37.7537C106.324 40.4579 105.235 42.9315 104.367 45.6373C102.305 45.9232 100.114 46.029 98.0508 46.3165C99.286 51.4374 101.395 56.146 105.554 59.381C109.713 62.6143 115.198 64.205 120.394 63.333C125.589 62.458 130.23 58.1916 132.392 53.3881Z" fill="#FF9A7D"/>
<path d="M121.083 33.3341C121.956 33.3341 122.663 32.6269 122.663 31.7545C122.663 30.8822 121.956 30.175 121.083 30.175C120.211 30.175 119.504 30.8822 119.504 31.7545C119.504 32.6269 120.211 33.3341 121.083 33.3341Z" fill="#060305"/>
<path d="M135.751 32.8192C136.624 32.8192 137.331 32.112 137.331 31.2396C137.331 30.3672 136.624 29.66 135.751 29.66C134.879 29.66 134.172 30.3672 134.172 31.2396C134.172 32.112 134.879 32.8192 135.751 32.8192Z" fill="#060305"/>
<path d="M129.466 30.2034C129.784 32.0152 130.103 33.8269 130.42 35.6387C129.687 35.4286 128.692 35.5328 127.961 35.3228" stroke="#060305" stroke-miterlimit="10" stroke-linecap="round" stroke-linejoin="round"/>
<path d="M119.371 24.7176C119.91 23.5298 121.132 22.6831 122.432 22.5963C123.734 22.5094 125.058 23.1854 125.749 24.2911" stroke="#060305" stroke-miterlimit="10" stroke-linecap="round" stroke-linejoin="round"/>
<path d="M135.02 23.1254C136 23.067 136.981 23.0085 137.962 22.9501" stroke="#060305" stroke-miterlimit="10" stroke-linecap="round" stroke-linejoin="round"/>
<path d="M122.318 35.4839C122.289 36.2578 122.747 37.0287 123.439 37.3746C124.131 37.7205 125.023 37.6242 125.625 37.1377" stroke="#060305" stroke-miterlimit="10" stroke-linecap="round" stroke-linejoin="round"/>
<path d="M104.793 27.1596C106.033 27.823 107.273 28.4848 108.513 29.1483" stroke="#060305" stroke-miterlimit="10" stroke-linecap="round" stroke-linejoin="round"/>
<path d="M106.594 38.2828C107.33 38.2828 108.066 38.2828 108.802 38.2828" stroke="#060305" stroke-miterlimit="10" stroke-linecap="round" stroke-linejoin="round"/>
<path d="M114.77 44.5553C118.215 47.25 122.707 48.5658 127.06 48.1567" stroke="#060305" stroke-miterlimit="10" stroke-linecap="round" stroke-linejoin="round"/>
<path d="M58.9011 186.96C44.4371 182.162 25.4777 185.381 13.9786 195.382C2.47939 205.384 -2.46463 222.803 3.44607 236.85C6.71891 244.631 12.9013 250.953 20.0393 255.458C27.1773 259.964 35.2568 262.776 43.4246 264.905L157.102 287.518C160.209 265.609 163.316 243.701 166.423 221.793C130.951 210.025 94.3732 198.728 58.9011 186.96Z" fill="#814EFF"/>
<path d="M167.518 221.842L145.469 214.514" stroke="#060305" stroke-miterlimit="10" stroke-linecap="round" stroke-linejoin="round"/>
<path d="M158.367 218.709C153.653 240.986 148.94 263.264 144.227 285.54" stroke="#060305" stroke-miterlimit="10" stroke-linecap="round" stroke-linejoin="round"/>
<path d="M8.87891 216.139C9.9609 210.57 12.9557 205.389 17.2442 201.672" stroke="#060305" stroke-miterlimit="10" stroke-linecap="round" stroke-linejoin="round"/>
</svg>
