<svg width="171" height="306" viewBox="0 0 171 306" fill="none" xmlns="http://www.w3.org/2000/svg">
<path d="M140.155 1.45461L23.2807 1.4969C12.298 1.4969 3.41016 10.3789 3.41016 21.3333L3.45248 284.98C3.45248 295.934 12.3614 304.816 23.323 304.816L140.198 304.795C151.18 304.795 160.068 295.913 160.068 284.959L160.026 21.3121C160.047 10.3366 151.138 1.45461 140.155 1.45461Z" fill="black"/>
<path d="M0.0163927 61.3896L9.79297 61.3876L9.78788 35.5242L0.011299 35.5261L0.0163927 61.3896Z" fill="black"/>
<path d="M5.08732 60.9096L9.78516 60.9087L9.78023 35.9969L5.0824 35.9978L5.08732 60.9096Z" fill="white"/>
<path d="M5.10227 61.3867C4.9753 61.3867 4.86949 61.3444 4.76369 61.2598C4.67904 61.1753 4.63672 61.0484 4.63672 60.9215V36.0097C4.63672 35.7559 4.84833 35.5444 5.10227 35.5444H9.8001C9.92707 35.5444 10.0329 35.5867 10.1387 35.6713C10.2233 35.7559 10.2657 35.8828 10.2657 36.0097V60.9215C10.2657 61.1753 10.054 61.3867 9.8001 61.3867H5.10227ZM5.56782 36.4749V60.4562H9.33455V36.4749H5.56782Z" fill="black"/>
<path d="M150.608 1.45461L33.7339 1.47575C22.7511 1.47575 13.8633 10.3577 13.8633 21.3121L13.9056 284.959C13.9056 295.913 22.8146 304.795 33.7762 304.795L150.672 304.774C161.655 304.774 170.542 295.892 170.542 284.937L170.5 21.291C170.479 10.3366 161.57 1.45461 150.608 1.45461Z" fill="#B9BEC6"/>
<path d="M13.8349 260.023L170.281 259.992L170.238 41.9183L13.7919 41.9491L13.8349 260.023Z" fill="#FFC107"/>
<path d="M13.8611 260.491C13.7341 260.491 13.6283 260.449 13.5225 260.364C13.4378 260.279 13.3955 260.152 13.3955 260.026L13.332 41.931C13.332 41.6772 13.5436 41.4658 13.7976 41.4658L170.244 41.4446C170.371 41.4446 170.477 41.4869 170.583 41.5715C170.667 41.6561 170.709 41.783 170.709 41.9098L170.752 259.983C170.752 260.237 170.54 260.449 170.286 260.449L13.8611 260.491ZM14.2843 42.3962L14.3266 259.539L169.842 259.518L169.8 42.3751L14.2843 42.3962Z" fill="black"/>
<path d="M33.5858 305.26C28.1261 305.26 23.0686 303.103 19.323 299.191C15.5139 295.215 13.419 289.717 13.419 283.732L13.3555 19.7472C13.3555 15.0525 15.5139 10.2943 19.2807 6.72033C23.1532 3.04066 28.2319 1.0105 33.5435 1.0105L150.757 0.989349C161.507 0.989349 170.923 9.74443 170.923 19.7261L170.966 283.711C170.966 295.998 162.29 305.239 150.799 305.26H33.5858ZM150.735 1.4546V1.91984L33.5223 1.94099C28.4436 1.94099 23.6188 3.88656 19.9155 7.39705C16.3392 10.7807 14.2866 15.2851 14.2866 19.7472L14.3289 283.732C14.3289 289.463 16.3392 294.729 19.979 298.535C23.5553 302.257 28.3801 304.33 33.5646 304.33L150.778 304.309C161.739 304.309 170.013 295.448 170.013 283.711L169.971 19.7261C169.971 10.252 160.978 1.94099 150.735 1.94099V1.4546Z" fill="black"/>
<path d="M86.8718 11.3516C86.6179 11.3516 86.4062 11.1402 86.4062 10.8864C86.4062 10.6326 86.6179 10.4212 86.8718 10.4212H120.413C120.667 10.4212 120.878 10.6326 120.878 10.8864C120.878 11.1402 120.667 11.3516 120.413 11.3516H86.8718Z" fill="black"/>
<path d="M80.9453 13.8048C79.3371 13.8048 78.0039 12.4936 78.0039 10.8653C78.0039 10.0828 78.3002 9.34263 78.8715 8.79279C79.4217 8.24296 80.1624 7.92574 80.9453 7.92574C82.5536 7.92574 83.8868 9.2369 83.8868 10.8653C83.8868 11.6477 83.5905 12.3879 83.0192 12.9377C82.469 13.5087 81.7283 13.8048 80.9453 13.8048ZM80.9453 8.87738C80.4163 8.87738 79.9084 9.08886 79.5275 9.46952C79.1466 9.85017 78.935 10.3366 78.935 10.8864C78.935 11.9861 79.8238 12.8743 80.9242 12.8743C81.4532 12.8743 81.9611 12.6628 82.342 12.2821C82.7229 11.9015 82.9345 11.4151 82.9345 10.8653C82.9345 9.76558 82.0457 8.87738 80.9453 8.87738Z" fill="black"/>
<path d="M94.5711 201.447C85.26 201.447 76.1395 198.825 68.0981 193.749C56.8191 186.644 48.9894 175.541 46.0902 162.493C40.0804 135.551 57.0942 108.63 84.0327 102.455C90.9736 100.869 97.9992 100.763 104.919 102.117C105.173 102.159 105.342 102.413 105.279 102.667C105.236 102.92 104.982 103.09 104.729 103.026C97.9357 101.673 91.0583 101.8 84.2443 103.343C57.8137 109.392 41.0962 135.826 47.0002 162.26C49.857 175.055 57.5386 185.946 68.606 192.924C79.6946 199.903 92.857 202.145 105.66 199.205C132.09 193.157 148.808 166.723 142.904 140.288C141.528 134.113 139.031 128.361 135.476 123.201C135.328 122.99 135.391 122.693 135.603 122.545C135.815 122.397 136.111 122.461 136.259 122.672C139.878 127.938 142.438 133.796 143.835 140.077C149.845 167.019 132.831 193.94 105.892 200.115C102.105 201.024 98.3378 201.447 94.5711 201.447Z" fill="black"/>
<path d="M135.836 123.455C135.688 123.455 135.54 123.391 135.455 123.243C128.302 112.86 117.108 105.5 104.729 103.047C104.475 103.005 104.305 102.751 104.369 102.498C104.411 102.244 104.665 102.075 104.919 102.138C117.531 104.633 128.958 112.141 136.238 122.715C136.386 122.926 136.323 123.222 136.111 123.37C136.026 123.434 135.921 123.455 135.836 123.455Z" fill="white"/>
<path d="M117.805 168.097L110.251 160.886C109.235 159.955 107.013 159.469 104.304 160.801C101.765 162.049 97.7019 164.016 90.4435 154.499C83.2063 145.004 85.8515 141.261 88.01 139.442C88.3274 139.167 90.8033 136.418 89.4913 133.669L85.6399 126.521C82.381 121.002 77.6409 125.147 77.3658 125.379C69.6207 131.893 71.6099 146.992 82.1694 160.844C92.729 174.695 106.738 180.595 115.033 174.801C115.372 174.59 120.387 170.762 117.805 168.097Z" fill="black"/>
</svg>
