<svg width="46" height="46" viewBox="0 0 46 46" fill="none" xmlns="http://www.w3.org/2000/svg">
<path d="M44.0983 27.3038V18.7875H38.8133C38.3801 17.3102 37.8603 15.8329 37.0805 14.5294L40.806 10.7927L34.8279 4.79654L31.1024 8.53326C29.8028 7.75116 28.4165 7.14285 26.857 6.79525V1.49432H18.3663V6.79525C16.8934 7.22975 15.4206 7.75116 14.121 8.53326L10.3955 4.79654L4.41731 10.7927L8.14282 14.5294C7.36306 15.8329 6.75659 17.2233 6.41003 18.7875H1.125V27.3038H6.41003C6.84323 28.7811 7.36306 30.2584 8.14282 31.5619L4.41731 35.2986L10.3955 41.2947L14.121 37.558C15.4206 38.3401 16.8068 38.9484 18.3663 39.296V44.597H26.857V39.296C28.3299 38.8615 29.8028 38.3401 31.1024 37.558L34.8279 41.2947L40.806 35.2986L37.0805 31.5619C37.8603 30.2584 38.4668 28.868 38.8133 27.3038H44.0983ZM22.6117 30.7798C18.3663 30.7798 14.9007 27.3038 14.9007 23.0456C14.9007 18.7875 18.3663 15.3115 22.6117 15.3115C26.857 15.3115 30.3226 18.7875 30.3226 23.0456C30.3226 27.3038 26.857 30.7798 22.6117 30.7798Z" fill="#EC644E" stroke="#263238" stroke-width="2.5" stroke-miterlimit="10" stroke-linecap="round" stroke-linejoin="round"/>
</svg>
