<svg width="73" height="65" viewBox="0 0 73 65" fill="none" xmlns="http://www.w3.org/2000/svg">
<path d="M71.6271 35.8319L34.0444 35.282L19.6758 0.473175L71.6271 35.8319Z" fill="#DFE3E8"/>
<path d="M52.4144 64.6771C52.3298 64.6771 52.224 64.656 52.1605 64.5925L33.4538 51.8617C33.2422 51.7137 33.1787 51.4176 33.3268 51.2061C33.475 50.9947 33.7712 50.9312 33.9828 51.0792L52.3086 63.5563L60.6885 51.185C60.8367 50.9735 61.1329 50.9101 61.3445 51.0581C61.5562 51.2061 61.6196 51.5022 61.4715 51.7137L52.8377 64.4656C52.7742 64.5714 52.6684 64.6348 52.5414 64.656C52.4779 64.6771 52.4567 64.6771 52.4144 64.6771Z" fill="white"/>
<path d="M33.7062 51.9463C33.6216 51.9463 33.5158 51.9251 33.4523 51.8617L0.207698 29.2338C-0.00391575 29.0858 -0.0673997 28.7897 0.0807302 28.5783L19.2953 0.198258C19.3588 0.0925207 19.4646 0.0290778 19.5916 0.00793023C19.7185 -0.0132173 19.8455 0.00793087 19.9513 0.0713735L71.9026 35.4512C72.1142 35.5992 72.1777 35.8953 72.0295 36.1068L61.4488 51.7137C61.3007 51.9251 61.0045 51.9886 60.7928 51.8406C60.5812 51.6925 60.5177 51.3965 60.6659 51.185L70.9715 35.9588L19.8032 1.12875L1.11764 28.7051L33.9813 51.0792C34.1929 51.2273 34.2564 51.5233 34.1083 51.7348C34.0025 51.8617 33.8755 51.9463 33.7062 51.9463Z" fill="black"/>
<path d="M71.6278 36.3183C71.4373 36.3183 71.268 36.2125 71.2045 36.0222L56.9417 1.48826L19.6765 0.938427C19.4226 0.938427 19.2109 0.72695 19.2109 0.47318C19.2109 0.219409 19.4226 0.00793457 19.6765 0.00793457L57.2592 0.55777C57.4496 0.55777 57.6189 0.684656 57.6824 0.853836L72.051 35.6627C72.1568 35.8953 72.0298 36.1702 71.7971 36.276C71.7547 36.2971 71.6912 36.3183 71.6278 36.3183Z" fill="black"/>
</svg>
