<svg width="36" height="36" viewBox="0 0 36 36" fill="none" xmlns="http://www.w3.org/2000/svg">
<path d="M18.0039 35.4067C17.8718 35.4067 17.7398 35.4067 17.6077 35.4067C7.92234 35.1866 0.218074 27.1521 0.438196 17.4668C0.548257 12.7782 2.46332 8.39775 5.85319 5.16196C9.24307 1.92617 13.6675 0.187205 18.3781 0.297266C23.0667 0.407327 27.4471 2.32238 30.6829 5.71226C33.9187 9.10214 35.6577 13.5486 35.5476 18.2372C35.3495 27.7685 27.5132 35.4067 18.0039 35.4067ZM17.9819 1.24379C13.6895 1.24379 9.63929 2.87269 6.53557 5.84434C3.34381 8.90403 1.51679 13.0423 1.42874 17.4668C1.23063 26.6018 8.49466 34.218 17.6517 34.4162C17.7838 34.4162 17.8939 34.4162 18.0259 34.4162C27.0069 34.4162 34.403 27.2182 34.6011 18.1932C34.6891 13.7687 33.0602 9.5644 30.0006 6.35062C26.9409 3.15885 22.8026 1.33184 18.3781 1.24379C18.246 1.24379 18.114 1.24379 17.9819 1.24379Z" fill="black"/>
<path d="M23.7721 10.2468C24.4545 10.0927 25.1589 10.2248 25.7532 10.643C26.1935 10.9512 26.5016 11.3694 26.6557 11.8977C26.7438 12.1618 26.7878 12.448 26.7878 12.7341C27.0739 12.6461 27.3381 12.5801 27.6242 12.558C28.1746 12.536 28.6588 12.6681 29.0991 12.9763C29.6934 13.3945 30.0676 14.0109 30.1556 14.7152C30.2437 15.4196 30.0676 16.146 29.6274 16.7624C29.1871 17.4007 28.5267 17.841 27.5802 18.1051C26.7218 18.3472 25.6872 18.4353 24.4545 18.5674C24.0363 18.6114 23.574 18.6554 23.0677 18.6994C22.9357 18.7215 22.8036 18.6774 22.6935 18.6114C22.5835 18.5454 22.5174 18.4133 22.4734 18.3032C22.3633 17.819 22.2313 17.3567 22.1212 16.9385C21.813 15.7498 21.5489 14.7152 21.4828 13.8348C21.3948 12.8442 21.5709 12.0958 22.0332 11.4354C22.4734 10.8191 23.0897 10.4009 23.7721 10.2468Z" fill="#FF7DCE"/>
<path d="M17.5859 8.24365C17.1237 7.71536 16.4633 7.42921 15.7369 7.40719C15.2086 7.40719 14.7023 7.56128 14.2621 7.89146C14.042 8.06756 13.8439 8.26567 13.6678 8.5078C13.4917 8.26567 13.2935 8.04555 13.0954 7.89146C12.6772 7.56128 12.1709 7.38518 11.6426 7.36317C10.9162 7.36317 10.2559 7.62731 9.7716 8.15561C9.28734 8.66189 9.02319 9.36628 9.00118 10.1367C8.97917 10.9291 9.26532 11.6555 9.88167 12.426C10.432 13.1083 11.2244 13.8127 12.1489 14.6272C12.4571 14.9133 12.8313 15.2215 13.1835 15.5517C13.2715 15.6397 13.4036 15.6838 13.5357 15.6838C13.6678 15.6838 13.7998 15.6397 13.8879 15.5517C14.2621 15.2215 14.6363 14.9133 14.9665 14.6492C15.913 13.8568 16.7274 13.1744 17.2998 12.514C17.9381 11.7656 18.2463 11.0392 18.2463 10.2468C18.3123 9.47634 18.0482 8.77195 17.5859 8.24365Z" fill="#FF7DCE"/>
<path d="M8.84616 16.8724C6.9311 22.6176 11.1354 28.6269 17.2108 28.759C21.3271 28.8471 24.849 26.1616 26.0157 22.4195L8.84616 16.8724Z" fill="white"/>
<path d="M17.3872 29.2433C17.3212 29.2433 17.2551 29.2433 17.1891 29.2433C14.1294 29.1772 11.3779 27.7024 9.61689 25.215C7.85592 22.7057 7.39366 19.624 8.3622 16.7183C8.45025 16.4542 8.7144 16.3221 8.97854 16.4102L26.126 21.9352C26.3902 22.0233 26.5222 22.2874 26.4342 22.5516C25.2455 26.5138 21.5255 29.2433 17.3872 29.2433ZM9.15464 17.4888C8.47226 19.9541 8.93452 22.5296 10.4093 24.6427C11.9942 26.888 14.4596 28.2087 17.1891 28.2527C20.8211 28.3408 24.1009 26.0735 25.3556 22.7057L9.15464 17.4888Z" fill="black"/>
</svg>
