<svg width="153" height="166" viewBox="0 0 153 166" fill="none" xmlns="http://www.w3.org/2000/svg">
<path d="M0.464844 65.9592L76.1804 16.8969L151.917 65.9592L76.1804 119.462L0.464844 65.9592Z" fill="black"/>
<path d="M136.83 3.61623H12.9727V155.984H136.83V3.61623Z" fill="#020202"/>
<path d="M139.389 0.465248H15.5312V152.833H139.389V0.465248Z" fill="white"/>
<path d="M139.39 153.299H15.532C15.278 153.299 15.0664 153.087 15.0664 152.833V0.465245C15.0664 0.211475 15.278 0 15.532 0H139.39C139.644 0 139.855 0.211475 139.855 0.465245V152.833C139.876 153.087 139.665 153.299 139.39 153.299ZM15.9975 152.368H138.924V0.930492H15.9975V152.368Z" fill="black"/>
<path d="M111.223 47.73C111.223 59.0439 106.504 65.8534 98.6535 65.8534C94.4635 65.8534 91.4586 63.8867 90.337 60.1648C87.7765 63.8867 83.777 65.8534 78.5501 65.8534C69.5142 65.8534 62.8272 58.9805 62.8272 49.168C62.8272 39.4825 69.5142 32.6095 78.5501 32.6095C83.1421 32.6095 86.93 34.1744 89.4906 37.262V32.9902H96.7701V55.2374C96.7701 58.5787 98.336 59.6784 100.177 59.6784C103.711 59.6784 105.679 55.5546 105.679 47.8357C105.679 33.8361 95.4581 24.4043 80.5181 24.4043C65.3242 24.4043 55.2302 34.5551 55.2302 48.8297C55.2302 63.2946 65.1761 73.382 80.243 73.382C84.2425 73.382 88.9615 72.5361 92.9399 70.5059L94.7174 75.7505C90.7179 77.7807 85.089 78.8169 80.243 78.8169C61.6421 78.8169 49.1992 66.1918 49.1992 48.8297C49.1992 31.679 61.7691 19.0539 80.5181 19.0539C98.59 19.0539 111.223 31.0234 111.223 47.73ZM89.6175 49.168C89.6175 42.6969 85.4276 38.9538 79.9256 38.9538C74.2332 38.9538 70.2337 42.8872 70.2337 49.168C70.2337 55.5123 74.2332 59.5092 79.9256 59.5092C85.4276 59.5092 89.6175 55.7026 89.6175 49.168Z" fill="black"/>
<path d="M33.4555 165.31H0.464844V66.2975L76.1804 112.272L151.917 66.2975V165.31H33.4555Z" fill="white"/>
<path d="M151.918 165.776H0.465547C0.21161 165.776 0 165.564 0 165.31V65.9592C0 65.79 0.084647 65.642 0.232777 65.5574C0.380907 65.4728 0.571356 65.4728 0.698324 65.5574L76.1811 111.744L151.664 65.5574C151.812 65.4728 151.981 65.4728 152.129 65.5574C152.278 65.642 152.362 65.79 152.362 65.9592V165.31C152.383 165.564 152.172 165.776 151.918 165.776ZM0.931101 164.845H151.431V66.7839L76.4139 112.674C76.2658 112.759 76.0753 112.759 75.9272 112.674L0.909938 66.7839V164.845H0.931101Z" fill="black"/>
</svg>
