<svg width="408" height="403" viewBox="0 0 408 403" fill="none" xmlns="http://www.w3.org/2000/svg">
<path d="M56.3959 391.766L16.752 383.159L26.7235 339.311L50.2105 356.547L47.481 369.138L56.3959 391.766Z" fill="black"/>
<path d="M17.7188 388.882L16.0239 385.845C14.7912 383.622 14.1309 381.134 14.1309 378.581V378.163C14.1309 375.939 14.6151 373.76 15.5837 371.757L17.917 366.848L21.527 368.191C28.1086 370.634 34.8663 372.593 41.7341 374.068L49.4604 375.719L48.2057 374.376C45.5643 371.559 45.2121 367.311 47.3472 364.097L47.8535 363.348L71.9569 380.254H75.6109C79.6391 380.254 83.6673 379.791 87.6075 378.889L88.5981 378.647L89.1924 379.219C91.5917 381.508 93.3527 384.37 94.3653 387.54L94.8715 389.103L75.5448 397.093L48.5139 395.86L17.7188 388.882Z" fill="#FED101"/>
<path d="M75.5472 397.599H75.5252L48.4942 396.367C48.4722 396.367 48.4282 396.367 48.4062 396.345L17.6112 389.345C17.4791 389.323 17.369 389.235 17.281 389.103L15.586 386.065C14.3093 383.776 13.627 381.178 13.627 378.559V378.141C13.627 375.873 14.1332 373.584 15.1238 371.537L17.4571 366.628C17.5671 366.408 17.8313 366.298 18.0734 366.386L21.6834 367.729C28.221 370.15 35.0008 372.131 41.8246 373.584L48.01 374.905L47.8339 374.707C45.0163 371.713 44.6421 367.222 46.9314 363.811L47.4377 363.062C47.5037 362.952 47.6358 362.886 47.7458 362.842C47.8779 362.82 48.01 362.842 48.12 362.93L72.0913 379.747H75.5912C79.5754 379.747 83.5817 379.285 87.4778 378.383L88.4684 378.141C88.6225 378.097 88.7985 378.141 88.9306 378.273L89.525 378.845C91.9683 381.2 93.7953 384.128 94.8299 387.364L95.3362 388.926C95.4242 389.169 95.2921 389.433 95.05 389.521L75.7233 397.511C75.6793 397.577 75.6133 397.599 75.5472 397.599ZM48.6043 395.398L75.4812 396.631L94.2796 388.86L93.9274 387.738C92.9589 384.656 91.1979 381.861 88.8866 379.637L88.4904 379.263L87.742 379.439C83.7798 380.364 79.7075 380.826 75.6353 380.826H71.9812C71.8712 380.826 71.7831 380.804 71.6951 380.738L47.988 364.075L47.7678 364.405C45.7427 367.443 46.0729 371.427 48.5603 374.068L49.815 375.411C49.9691 375.565 49.9911 375.807 49.881 375.983C49.771 376.181 49.5508 376.269 49.3527 376.225L41.6264 374.575C34.7586 373.1 27.9349 371.119 21.3312 368.675L18.1395 367.487L16.0043 371.977C15.0798 373.892 14.5955 376.049 14.5955 378.163V378.581C14.5955 381.024 15.2338 383.467 16.4225 385.603L18.0074 388.442L48.6043 395.398Z" fill="black"/>
<path d="M79.1559 399.933L82.3917 398.898L83.1621 401.209L89.2155 399.36L88.423 396.939L91.6588 395.904L92.4512 398.37L98.3285 396.565L95.9292 388.772L75.0396 395.134H59.1028L33.9649 387.188H13.2734V402.816H19.6129V400.505H23.0028V402.816H29.3423V400.505H32.7542V402.816H38.6535V394.87L53.3136 399.58V402.816H59.7632V400.505H63.175V402.816H69.4925V400.505H72.9044V402.816H77.7031L79.9043 402.222L79.1559 399.933Z" fill="black"/>
<path d="M150.673 387.694H110.082V354.587H137.135V367.487L150.673 387.694Z" fill="black"/>
<path d="M108.012 388.75L106.317 385.713C105.084 383.489 104.424 381.002 104.424 378.449V378.03C104.424 375.807 104.908 373.628 105.877 371.625L108.21 366.716L111.82 368.059C118.402 370.502 125.159 372.461 132.027 373.936L139.753 375.587L138.499 374.244C135.857 371.427 135.505 367.178 137.64 363.965L138.146 363.216L162.25 380.144H165.904C169.932 380.144 173.96 379.681 177.9 378.779L178.891 378.537L179.485 379.109C181.885 381.398 183.646 384.26 184.658 387.43L185.165 388.992L165.838 396.983L138.807 395.75L108.012 388.75Z" fill="#FED101"/>
<path d="M169.449 399.8L172.685 398.744L173.433 401.077L179.486 399.206L178.716 396.807L181.952 395.75L182.744 398.216L188.621 396.433L186.222 388.64L165.311 394.98H149.396L124.258 387.033H103.566V402.816H109.906V400.373H113.296V402.816H119.635V400.373H123.025V402.816H128.946V394.738L143.607 399.448V402.816H150.056V400.373H153.468V402.816H159.786V400.373H163.197V402.816H167.996L170.197 402.068L169.449 399.8Z" fill="black"/>
<path d="M99.76 187.757H58.6412L13.9785 357.735H55.0753L99.76 187.757Z" fill="#4ADA85"/>
<path d="M55.0748 358.219H13.9781C13.824 358.219 13.6919 358.153 13.5819 358.021C13.4938 357.911 13.4498 357.735 13.4938 357.603L58.1786 187.625C58.2446 187.405 58.4207 187.251 58.6628 187.251H99.7816C99.9357 187.251 100.068 187.317 100.178 187.449C100.266 187.559 100.31 187.735 100.266 187.867L55.5811 357.845C55.4931 358.065 55.295 358.219 55.0748 358.219ZM14.6165 357.229H54.7006L99.1212 188.241H59.015L14.6165 357.229Z" fill="black"/>
<path d="M100.222 187.757L58.6406 190.817L100.816 263.567V358.352H141.935V272.042C141.935 264.492 139.932 257.073 136.146 250.536L100.222 187.757Z" fill="#4ADA85"/>
<path d="M110.655 205.961L100.221 187.757H58.6404L51.1562 216.219C60.0712 218.574 73.1464 218.904 76.6464 211.156C79.3098 205.235 87.6524 202.549 110.655 205.961Z" fill="black"/>
<path d="M86.398 238.979C86.3539 238.979 86.3099 238.979 86.2659 238.957C86.0017 238.891 85.8477 238.627 85.9137 238.363L89.8098 223.593C89.8759 223.329 90.14 223.175 90.4042 223.241C90.6683 223.307 90.8224 223.571 90.7564 223.835L86.8602 238.605C86.8162 238.847 86.6181 238.979 86.398 238.979Z" fill="black"/>
<path d="M92.3747 142.779L87.4727 154.328L96.4083 158.121L101.31 146.571L92.3747 142.779Z" fill="#FDA4FF"/>
<path d="M90.9355 146.176L92.3663 142.786L101.303 146.572L98.1335 154.056C97.253 153.88 95.5581 153.396 93.9732 152.009C91.4858 149.808 91.0236 146.947 90.9355 146.176Z" fill="black"/>
<path d="M93.4681 125.529L92.1914 139.044L106.609 144.723L114.908 133.981L93.4681 125.529Z" fill="black"/>
<path d="M106.351 145.601C108.213 141.215 106.502 136.292 102.529 134.605C98.5567 132.919 93.8269 135.109 91.965 139.495C90.1031 143.882 91.8142 148.805 95.7868 150.491C99.7595 152.177 104.489 149.988 106.351 145.601Z" fill="#FDA4FF"/>
<path d="M94.5684 144.701C94.9866 145.626 95.713 146.44 96.6815 146.969C98.8387 148.157 101.48 147.541 102.933 145.67L94.5684 144.701Z" fill="white"/>
<path d="M136.873 177.808L150.565 155.069C150.565 155.069 151.159 149.94 156.926 148.113C158.269 147.695 161.086 147.057 163.464 146.572C166.171 146 168.813 145.076 171.278 143.821L174.118 142.368C175.548 141.642 177.287 142.17 178.058 143.557L178.234 143.865C179.026 145.274 178.542 147.057 177.155 147.893L168.174 153.198L172.004 156.522C173.964 158.217 176.363 159.339 178.916 159.758L189.218 161.651C190.935 161.959 192.146 163.5 192.08 165.239L192.058 165.525L197.693 165.987C199.344 166.185 200.554 167.638 200.444 169.289C200.334 170.918 198.969 172.173 197.341 172.195L161.747 172.217L152.656 187.317L136.873 177.808Z" fill="#FDA4FF"/>
<path d="M124.105 175.408H98.9668L123.995 210.958C127.913 216.527 136.277 216.131 139.667 210.232L163.859 168.122L148.208 158.811L132.513 184.807L124.105 175.408Z" fill="#FDA4FF"/>
<path d="M201.325 71.0485C201.082 71.0485 200.862 70.8725 200.84 70.6083C200.576 68.4731 200.356 66.2939 200.114 64.0047C198.023 44.3478 195.623 22.0715 178.784 22.0715C178.762 22.0715 178.762 22.0715 178.74 22.0715C174.228 22.0715 171.014 23.2381 168.901 25.6154C163.706 31.4266 165.137 44.4138 167.14 62.3758C167.426 64.9512 167.734 67.6367 168.02 70.4322C168.042 70.6964 167.844 70.9385 167.58 70.9825C167.316 71.0045 167.074 70.8064 167.03 70.5423C166.743 67.7687 166.435 65.0832 166.149 62.4858C164.124 44.2817 162.671 31.1185 168.152 24.955C170.463 22.3576 173.919 21.1029 178.718 21.0809C186.664 21.0369 192.256 25.7035 195.822 35.2567C198.881 43.4673 200.048 54.3193 201.06 63.8946C201.303 66.1839 201.545 68.3631 201.787 70.4982C201.809 70.7624 201.633 71.0045 201.347 71.0485C201.369 71.0485 201.347 71.0485 201.325 71.0485Z" fill="black"/>
<path d="M235.904 163.148H170.616L156.154 61.2531H221.442L235.904 163.148Z" fill="#FCB503"/>
<path d="M235.903 163.632H170.615C170.373 163.632 170.175 163.456 170.131 163.214L155.669 74.8347C155.625 74.5705 155.801 74.3064 156.065 74.2623C156.329 74.2183 156.593 74.3944 156.637 74.6586L171.033 162.663H235.331L221.023 61.7374H203.964C203.699 61.7374 203.479 61.5173 203.479 61.2531C203.479 60.989 203.699 60.7689 203.964 60.7689H221.441C221.683 60.7689 221.904 60.945 221.926 61.1871L236.388 163.081C236.41 163.214 236.366 163.368 236.277 163.478C236.189 163.588 236.057 163.632 235.903 163.632Z" fill="black"/>
<path d="M124.17 163.148H193.2L203.964 61.2531H138.632L124.17 163.148Z" fill="#FED101"/>
<path d="M193.2 163.632H124.17C124.037 163.632 123.883 163.566 123.795 163.456C123.707 163.346 123.663 163.214 123.685 163.059L138.147 61.1651C138.191 60.923 138.389 60.7469 138.632 60.7469H203.964C204.096 60.7469 204.228 60.8129 204.338 60.9009C204.426 61.011 204.47 61.1431 204.47 61.2751L193.706 163.17C193.662 163.456 193.464 163.632 193.2 163.632ZM124.742 162.663H192.76L203.413 61.7374H139.072L124.742 162.663Z" fill="black"/>
<path d="M193.203 163.632C193.071 163.632 192.961 163.588 192.851 163.5C192.653 163.302 192.653 162.993 192.829 162.795L213.806 141.003C213.894 140.915 214.026 140.849 214.158 140.849C214.291 140.871 214.423 140.893 214.511 141.003L236.215 162.795C236.413 162.993 236.413 163.302 236.215 163.5C236.017 163.698 235.708 163.698 235.51 163.5L214.158 142.06L193.511 163.5C193.467 163.588 193.335 163.632 193.203 163.632Z" fill="black"/>
<path d="M214.203 141.84C213.939 141.84 213.719 141.62 213.719 141.355V67.9889C213.719 67.7247 213.939 67.5046 214.203 67.5046C214.467 67.5046 214.687 67.7247 214.687 67.9889V141.355C214.687 141.62 214.467 141.84 214.203 141.84Z" fill="black"/>
<path d="M153.71 74.6586C155.765 74.6586 157.43 72.924 157.43 70.7844C157.43 68.6448 155.765 66.9103 153.71 66.9103C151.656 66.9103 149.99 68.6448 149.99 70.7844C149.99 72.924 151.656 74.6586 153.71 74.6586Z" fill="#FCB503"/>
<path d="M187.521 74.5705C189.575 74.5705 191.241 72.836 191.241 70.6964C191.241 68.5567 189.575 66.8222 187.521 66.8222C185.466 66.8222 183.801 68.5567 183.801 70.6964C183.801 72.836 185.466 74.5705 187.521 74.5705Z" fill="#FCB503"/>
<path d="M153.713 71.2907C153.691 71.2907 153.669 71.2907 153.647 71.2907C153.383 71.2687 153.185 71.0046 153.207 70.7404C153.471 68.6052 153.691 66.448 153.933 64.1368C154.968 54.5615 156.112 43.7094 159.172 35.4989C162.716 25.9676 168.307 21.3231 176.231 21.3231C176.253 21.3231 176.253 21.3231 176.276 21.3231C181.074 21.3231 184.53 22.5998 186.863 25.1972C192.344 31.3386 190.892 44.5019 188.866 62.728C188.58 65.3034 188.272 67.9889 187.986 70.7844C187.964 71.0486 187.722 71.2467 187.436 71.2247C187.172 71.2027 186.973 70.9605 186.995 70.6744C187.282 67.8788 187.59 65.1933 187.876 62.6179C189.879 44.656 191.31 31.6908 186.115 25.8576C184.002 23.4803 180.788 22.3356 176.276 22.3136C176.253 22.3136 176.253 22.3136 176.231 22.3136C159.392 22.3136 157.015 44.5899 154.902 64.2468C154.66 66.5581 154.417 68.7153 154.175 70.8505C154.175 71.0926 153.955 71.2907 153.713 71.2907Z" fill="black"/>
<path d="M131.59 215.404C128.398 215.404 125.426 213.864 123.577 211.244L98.5715 175.694C98.4615 175.54 98.4615 175.342 98.5275 175.188C98.6155 175.034 98.7916 174.924 98.9677 174.924H124.106C124.238 174.924 124.37 174.99 124.48 175.078L132.448 183.993L150.08 154.893C150.212 154.079 151.181 149.39 156.75 147.629C157.85 147.277 160.074 146.748 163.331 146.066C165.995 145.516 168.592 144.591 171.014 143.359L173.853 141.906C175.526 141.047 177.529 141.664 178.454 143.293L178.63 143.579C179.554 145.208 178.982 147.321 177.375 148.267L168.988 153.242L172.29 156.104C174.183 157.755 176.495 158.833 178.96 159.229L189.284 161.122C191.177 161.475 192.542 163.126 192.542 165.041L197.692 165.459C199.629 165.679 201.016 167.374 200.884 169.289C200.752 171.16 199.189 172.635 197.296 172.635L161.724 172.657L140.064 210.43C138.392 213.357 135.376 215.184 132.008 215.338C131.898 215.404 131.744 215.404 131.59 215.404ZM99.9143 175.915L124.392 210.694C126.131 213.181 128.97 214.568 132.008 214.414C135.024 214.282 137.731 212.631 139.25 209.989L161.042 171.974C161.13 171.82 161.284 171.732 161.46 171.732L197.318 171.71C198.683 171.71 199.828 170.632 199.916 169.267C200.004 167.858 198.991 166.647 197.604 166.493L191.991 166.031C191.727 166.009 191.529 165.789 191.529 165.525L191.551 165.239C191.617 163.742 190.56 162.421 189.108 162.157L178.806 160.264C176.164 159.824 173.677 158.679 171.652 156.918L167.822 153.594C167.712 153.484 167.646 153.33 167.646 153.176C167.668 153.022 167.756 152.868 167.888 152.802L176.869 147.475C178.013 146.792 178.432 145.274 177.771 144.107L177.595 143.799C176.935 142.632 175.482 142.192 174.293 142.808L171.454 144.261C168.944 145.538 166.281 146.484 163.529 147.057C160.338 147.717 158.092 148.267 157.036 148.597C151.643 150.292 151.027 155.091 151.027 155.135C151.027 155.201 151.005 155.267 150.961 155.333L132.933 185.094C132.844 185.226 132.712 185.314 132.558 185.336C132.404 185.358 132.25 185.292 132.14 185.182L123.886 175.937H99.9143V175.915Z" fill="black"/>
<path d="M168.195 163.434L171.211 163.258C173.126 163.148 174.975 162.465 176.516 161.321L184.969 155.047C186.179 154.145 187.896 154.387 188.821 155.597C189.701 156.742 189.547 158.371 188.469 159.339L179.708 167.242C179.003 167.88 178.167 168.364 177.264 168.695L172.422 170.39L168.195 163.434Z" fill="#FDA4FF"/>
<path d="M176.186 162.663L179.201 162.971C181.116 163.17 183.053 162.817 184.77 161.937L194.147 157.138C195.49 156.456 197.141 156.962 197.868 158.305C198.55 159.582 198.132 161.166 196.921 161.937L186.972 168.298C186.179 168.805 185.277 169.157 184.33 169.311L179.267 170.169L176.186 162.663Z" fill="#FDA4FF"/>
<path d="M184.309 169.839C184.067 169.839 183.869 169.663 183.825 169.421C183.781 169.157 183.957 168.893 184.221 168.849C185.102 168.695 185.938 168.386 186.687 167.902L196.636 161.541C197.627 160.902 197.979 159.604 197.429 158.547C196.856 157.446 195.492 157.028 194.369 157.578L187.171 161.277C186.929 161.409 186.643 161.299 186.511 161.056C186.379 160.814 186.489 160.528 186.731 160.396L193.929 156.676C195.514 155.861 197.473 156.478 198.309 158.063C199.102 159.56 198.595 161.431 197.186 162.333L187.237 168.695C186.379 169.245 185.432 169.619 184.419 169.795C184.353 169.839 184.331 169.839 184.309 169.839Z" fill="black"/>
<path d="M175.35 170.39C175.151 170.39 174.953 170.257 174.887 170.059C174.799 169.795 174.931 169.531 175.195 169.443C177.287 168.739 179.136 167.616 180.721 166.097L188.161 158.987C189.041 158.195 189.173 156.83 188.447 155.906C187.698 154.915 186.268 154.717 185.277 155.465L176.824 161.739C175.195 162.949 173.28 163.654 171.255 163.764L165.004 163.676C164.74 163.676 164.52 163.456 164.52 163.17C164.52 162.905 164.74 162.685 165.004 162.685L171.211 162.773C172.994 162.663 174.755 162.025 176.23 160.924L184.683 154.651C186.113 153.594 188.139 153.88 189.217 155.289C190.252 156.632 190.054 158.569 188.821 159.692L181.403 166.78C179.73 168.364 177.705 169.619 175.504 170.346C175.46 170.368 175.416 170.39 175.35 170.39Z" fill="black"/>
<path d="M165.579 155.201C165.403 155.201 165.249 155.113 165.161 154.959C165.029 154.717 165.095 154.431 165.337 154.277L168.066 152.67C168.308 152.538 168.595 152.604 168.749 152.846C168.881 153.088 168.815 153.374 168.573 153.528L165.843 155.135C165.733 155.179 165.645 155.201 165.579 155.201Z" fill="black"/>
<path d="M130.95 183.069L124.105 175.408H98.9668L114.706 197.773L130.95 183.069Z" fill="#020202"/>
<path d="M229.986 66.5801C224.835 66.5801 216.097 63.5644 208.172 59.4481C202.163 56.3444 196.836 52.8225 193.16 49.4986C190.452 47.0553 187.481 43.6654 188.647 41.3761C189.836 39.0869 194.326 39.5491 197.87 40.3636C202.691 41.4422 208.656 43.7535 214.666 46.8572C225.848 52.6464 236.216 60.989 234.169 64.9292C233.596 66.0738 232.099 66.5801 229.986 66.5801ZM192.874 40.7158C191.113 40.7158 189.924 41.09 189.528 41.8604C188.845 43.1591 190.452 45.7566 193.82 48.7942C197.43 52.052 202.691 55.53 208.612 58.5897C221.512 65.2594 231.989 67.0423 233.31 64.4889C234.631 61.9135 227.125 54.4073 214.226 47.7597C208.304 44.7 202.427 42.4327 197.672 41.3541C195.801 40.9139 194.172 40.7158 192.874 40.7158Z" fill="black"/>
<path d="M240.641 23.106L215.371 70.102L260.232 97.3091L345.881 74.6806L326.29 0.499512L240.641 23.106ZM238.022 64.1147C238.726 66.7782 237.141 69.5077 234.478 70.2121C231.814 70.9165 229.085 69.3316 228.38 66.6681C227.676 64.0047 229.261 61.2752 231.924 60.5708C234.588 59.8664 237.317 61.4512 238.022 64.1147Z" fill="white"/>
<path d="M260.232 97.7934C260.144 97.7934 260.056 97.7713 259.968 97.7273L215.129 70.5203C214.909 70.3882 214.821 70.102 214.953 69.8599L240.201 22.8859C240.267 22.7758 240.377 22.6878 240.509 22.6438L326.158 0.0152523C326.422 -0.0507843 326.687 0.103301 326.753 0.367447L346.343 74.5485C346.387 74.6806 346.365 74.8126 346.299 74.9227C346.233 75.0328 346.123 75.1208 345.991 75.1428L260.342 97.7713C260.32 97.7934 260.276 97.7934 260.232 97.7934ZM216.031 69.9039L260.32 96.7588L345.287 74.3064L325.938 1.09385L240.971 23.5463L216.031 69.9039ZM233.201 70.8504C230.779 70.8504 228.556 69.2215 227.896 66.7782C227.522 65.3694 227.72 63.8946 228.468 62.6179C229.195 61.3632 230.383 60.4607 231.814 60.0865C233.223 59.7123 234.698 59.9104 235.974 60.6588C237.229 61.3852 238.132 62.5739 238.506 64.0047C238.88 65.4134 238.682 66.8883 237.933 68.165C237.207 69.4197 236.018 70.3222 234.61 70.6964C234.125 70.8064 233.663 70.8504 233.201 70.8504ZM233.201 60.8789C232.827 60.8789 232.43 60.923 232.056 61.033C230.889 61.3412 229.921 62.0896 229.327 63.1242C228.732 64.1587 228.556 65.3694 228.864 66.5361C229.503 68.9354 231.968 70.3662 234.345 69.7278C235.512 69.4197 236.481 68.6712 237.075 67.6367C237.669 66.6021 237.845 65.3914 237.537 64.2248C237.229 63.0581 236.481 62.0896 235.446 61.4953C234.764 61.0991 233.993 60.8789 233.201 60.8789Z" fill="black"/>
<path d="M273.548 59.9765C270.444 65.3034 272.249 72.1272 277.576 75.2309C282.903 78.3346 289.727 76.5296 292.831 71.2027C295.935 65.8757 294.13 59.0519 288.803 55.9482C283.476 52.8445 276.63 54.6495 273.548 59.9765ZM289.397 69.1996C287.394 72.6335 282.991 73.8001 279.558 71.797C276.124 69.7939 274.957 65.3915 276.96 61.9576C278.963 58.5237 283.366 57.357 286.8 59.3601C290.233 61.3632 291.4 65.7657 289.397 69.1996Z" fill="black"/>
<path d="M293.468 25.7255C290.364 31.0524 292.169 37.8762 297.496 40.9799C302.823 44.0837 309.647 42.2787 312.751 36.9517C315.854 31.6248 314.049 24.801 308.723 21.6973C303.396 18.5935 296.572 20.3985 293.468 25.7255ZM309.339 34.9486C307.336 38.3825 302.933 39.5491 299.499 37.546C296.066 35.5429 294.899 31.1405 296.902 27.7066C298.905 24.2727 303.308 23.106 306.741 25.1092C310.153 27.1123 311.32 31.5147 309.339 34.9486Z" fill="black"/>
<path d="M269.046 32.0749L266.998 35.5945L319.793 66.3197L321.841 62.8L269.046 32.0749Z" fill="black"/>
<path d="M233.751 65.1933C233.685 65.1933 233.597 65.1713 233.531 65.1493C233.289 65.0172 233.2 64.7311 233.311 64.4889C234.631 61.9135 227.125 54.4074 214.226 47.7597C213.984 47.6276 213.896 47.3414 214.006 47.0993C214.138 46.8572 214.424 46.7691 214.666 46.8792C225.848 52.6684 236.216 61.011 234.169 64.9512C234.103 65.1053 233.927 65.1933 233.751 65.1933Z" fill="black"/>
<path d="M25.6028 222.646C25.977 223.307 29.4329 226.543 29.3669 232.288L29.3449 234.577C29.3229 237.13 28.3543 237.637 28.3323 240.168L28.2223 250.646C28.2003 252.187 26.9456 253.397 25.4267 253.397H25.2066C23.6657 253.375 22.4551 252.121 22.4551 250.602L22.7412 222.624L25.6028 222.646Z" fill="#FDA4FF"/>
<path d="M23.223 227.027L15.0565 237.285C12.9873 239.904 11.8427 243.118 11.8207 246.464C11.7766 252.935 11.9748 255.863 10.8521 260.309L10.698 260.948C10.2798 262.643 11.5345 264.294 13.2955 264.316H13.5156C14.7703 264.338 15.8709 263.479 16.1791 262.268C16.8394 259.627 17.5438 257.162 17.5879 253.221L17.6319 249.611C17.6759 246.288 18.8205 243.074 20.8897 240.498L23.1349 237.703L23.223 227.027Z" fill="#FDA4FF"/>
<path d="M6.38331 229.338L6.07514 247.586C6.05312 249.523 6.42733 251.438 7.19776 253.221L7.72605 254.432C8.65056 256.545 11.1159 257.514 13.2291 256.589C14.0215 256.237 14.3737 255.335 14.0435 254.542L13.2511 252.715C12.3046 250.514 11.8203 248.159 11.8643 245.759L12.1065 229.382L6.38331 229.338Z" fill="#FDA4FF"/>
<path d="M2.90806 225.09C1.47727 227.445 0.706839 230.131 0.640803 232.882L0.50873 238.759C0.486717 240.696 0.860925 242.612 1.63135 244.395L2.15964 245.605C3.08415 247.718 5.54952 248.687 7.66269 247.762C8.45513 247.41 8.80732 246.508 8.47714 245.715L6.2319 240.564L6.47403 219.125L2.90806 225.09Z" fill="#FDA4FF"/>
<path d="M45.5218 174.11L34.0755 159.273L12.7017 168.959C8.91558 170.676 6.47223 174.44 6.45022 178.622L6.16406 248.004L12.7677 245.891L25.4687 235.81L25.5568 182.474L45.5218 174.11Z" fill="#FDA4FF"/>
<path d="M13.5618 264.822C13.5397 264.822 13.5397 264.822 13.5177 264.822H13.2976C12.3071 264.822 11.4046 264.36 10.7882 263.567C10.1939 262.775 9.97377 261.784 10.2159 260.838L10.37 260.199C11.3165 256.457 11.3165 253.86 11.3165 249.127C11.3165 247.696 11.3165 246.089 11.3385 244.196C11.3385 243.822 11.3605 241.225 11.3826 239.2C11.4046 237.593 11.2285 235.986 10.8763 234.423L10.7662 233.939C10.7002 233.675 10.8763 233.41 11.1404 233.344C11.4046 233.278 11.6687 233.454 11.7347 233.719L11.8448 234.203C12.219 235.832 12.3951 237.527 12.3731 239.2C12.3511 241.225 12.3291 243.844 12.3291 244.218C12.3071 246.089 12.3071 247.718 12.3071 249.127C12.3071 253.772 12.3071 256.589 11.3385 260.441L11.1844 261.08C11.0083 261.74 11.1624 262.422 11.5807 262.973C11.9989 263.523 12.6372 263.831 13.3196 263.831H13.5397H13.5618C14.5743 263.831 15.4548 263.149 15.719 262.158L15.851 261.608C16.4674 259.143 17.0617 256.831 17.1057 253.199L17.1497 249.589C17.1938 246.177 18.3824 242.832 20.5176 240.168L22.2346 238.033C22.4107 237.813 22.7188 237.791 22.9169 237.945C23.1371 238.121 23.1591 238.429 23.005 238.627L21.288 240.762C19.2849 243.25 18.1843 246.398 18.1403 249.589L18.0963 253.199C18.0522 256.941 17.4359 259.429 16.8196 261.828L16.6875 262.378C16.2913 263.831 15.0146 264.822 13.5618 264.822Z" fill="black"/>
<path d="M11.4902 257.448C9.64113 257.426 7.99022 256.325 7.26381 254.63L6.73552 253.419C5.92107 251.57 5.54686 249.589 5.56888 247.564L5.72296 239.156C5.74497 237.571 5.6129 236.008 5.28272 234.445L5.15064 233.851C5.08461 233.587 5.26071 233.322 5.52485 233.256C5.789 233.19 6.05314 233.366 6.11918 233.631L6.25125 234.225C6.60345 235.832 6.75753 237.505 6.71351 239.156L6.55942 247.564C6.53741 249.435 6.88961 251.284 7.63802 253.001L8.16631 254.212C8.73863 255.533 10.0373 256.413 11.4902 256.435C11.7543 256.435 11.9744 256.655 11.9744 256.941C11.9744 257.228 11.7543 257.448 11.4902 257.448Z" fill="black"/>
<path d="M5.98823 248.599C4.11719 248.599 2.44427 247.498 1.69585 245.781L1.16756 244.571C0.353111 242.722 -0.0210959 240.74 0.000916233 238.715L0.132989 232.838C0.199026 229.999 1.01348 227.225 2.46628 224.804L5.96622 219.08V178.644C5.96622 174.242 8.56365 170.257 12.5699 168.474L33.8997 158.965C34.1418 158.855 34.45 158.965 34.56 159.207C34.6701 159.449 34.56 159.758 34.3179 159.868L12.9881 169.377C9.33408 171.006 6.97878 174.638 6.97878 178.644V219.235C6.97878 219.323 6.95676 219.411 6.91274 219.499L3.32476 225.354C1.93799 227.621 1.18957 230.241 1.12354 232.882L0.991464 238.759C0.969452 240.63 1.32165 242.457 2.07006 244.196L2.59835 245.407C3.19268 246.794 4.55744 247.674 6.07628 247.63C6.36244 247.63 6.58256 247.828 6.58256 248.115C6.58256 248.379 6.38445 248.621 6.09829 248.621C6.07628 248.599 6.03225 248.599 5.98823 248.599Z" fill="black"/>
<path d="M25.4497 253.882C25.4276 253.882 25.4277 253.882 25.4056 253.882H25.1855C24.305 253.882 23.4906 253.53 22.8962 252.891C22.2799 252.275 21.9497 251.438 21.9717 250.58L22.1478 234.643C22.1478 234.379 22.368 234.159 22.6541 234.159C22.9183 234.159 23.1384 234.379 23.1384 234.665L22.9623 250.602C22.9623 251.218 23.1824 251.791 23.6227 252.231C24.0409 252.671 24.6132 252.913 25.2295 252.913H25.4497C26.066 252.913 26.6383 252.693 27.0786 252.253C27.5188 251.835 27.7609 251.262 27.7609 250.646L27.871 240.168C27.893 238.825 28.1572 238.011 28.3993 237.219C28.6414 236.47 28.8616 235.766 28.8836 234.555L28.9056 232.266C28.9496 227.577 26.6163 224.672 25.6258 223.417C25.4277 223.175 25.2956 222.999 25.2075 222.867C25.1635 222.801 25.1415 222.713 25.1415 222.624L25.2295 182.21C25.2295 182.012 25.3396 181.836 25.5377 181.748L45.1065 173.383C45.3487 173.273 45.6348 173.383 45.7449 173.647C45.855 173.889 45.7449 174.176 45.4807 174.286L26.1981 182.518L26.11 222.448C26.1761 222.536 26.2641 222.646 26.3742 222.779C27.3427 223.989 29.9401 227.203 29.8741 232.244L29.8521 234.533C29.8301 235.876 29.5659 236.69 29.3238 237.483C29.0817 238.231 28.8615 238.935 28.8395 240.124L28.7295 250.602C28.7295 251.482 28.3773 252.297 27.7389 252.891C27.1226 253.552 26.3081 253.882 25.4497 253.882Z" fill="black"/>
<path d="M29.4316 161.365L33.2838 179.238L45.5225 174.11L34.0762 159.273L29.4316 161.365Z" fill="#020202"/>
<path d="M109.424 192.512L133.087 179.899L131.788 178.138C125.581 169.795 117.062 163.456 107.267 159.956L86.8612 152.648C74.0721 148.091 60.1604 147.673 47.1072 151.415L29.2773 156.544L39.2709 180.955L57.541 176.003L50.6071 199.974H109.424V192.512Z" fill="#FED101"/>
<path d="M109.424 192.842C109.16 192.842 108.939 192.622 108.939 192.358V182.188C108.939 181.924 109.16 181.704 109.424 181.704C109.688 181.704 109.908 181.924 109.908 182.188V192.358C109.908 192.622 109.688 192.842 109.424 192.842Z" fill="black"/>
<path d="M57.452 176.663C57.4079 176.663 57.3639 176.663 57.3199 176.641C57.0558 176.575 56.9017 176.289 56.9897 176.025L59.257 168.166C59.323 167.902 59.6092 167.748 59.8733 167.836C60.1375 167.902 60.2915 168.188 60.2035 168.452L57.9362 176.311C57.8702 176.531 57.6721 176.663 57.452 176.663Z" fill="black"/>
<path d="M267.186 338.981H242.797V371.669H267.186V338.981Z" fill="black"/>
<path d="M269.917 355.864L271.127 358.087C273.725 362.886 275.09 368.257 275.09 373.716V379.175H257.81L228.6 391.282H210.924L204.805 386.615L209.361 381.75L221.908 377.744L236.414 365.197L240.597 354.653H244.801C247.816 354.653 250.48 356.569 251.471 359.408L251.713 360.134L256.291 361.433C260.341 362.578 264.612 360.531 266.219 356.635L266.461 356.04C267.077 354.543 269.146 354.455 269.917 355.864Z" fill="white"/>
<path d="M228.599 391.766H210.901C210.791 391.766 210.681 391.722 210.593 391.656L204.474 386.989C204.364 386.901 204.298 386.769 204.276 386.637C204.254 386.505 204.32 386.351 204.408 386.263L208.964 381.398C209.03 381.332 209.096 381.288 209.184 381.266L221.643 377.282L235.973 364.867L240.112 354.455C240.178 354.257 240.376 354.147 240.574 354.147H244.778C247.992 354.147 250.854 356.194 251.91 359.232L252.064 359.716L256.401 360.949C260.209 362.028 264.215 360.09 265.734 356.436L265.976 355.842C266.328 354.984 267.143 354.411 268.067 354.367C269.014 354.323 269.872 354.808 270.312 355.622L271.523 357.845C274.142 362.71 275.551 368.191 275.551 373.716V379.175C275.551 379.439 275.331 379.659 275.067 379.659H257.875L228.753 391.744C228.709 391.766 228.665 391.766 228.599 391.766ZM211.078 390.775H228.489L257.611 378.691C257.677 378.669 257.743 378.647 257.809 378.647H274.605V373.672C274.605 368.323 273.262 362.996 270.708 358.285L269.498 356.062C269.234 355.578 268.749 355.292 268.177 355.314C267.627 355.336 267.143 355.666 266.944 356.194L266.702 356.789C264.985 360.905 260.473 363.084 256.18 361.873L251.602 360.575C251.448 360.531 251.316 360.421 251.272 360.267L251.03 359.54C250.127 356.899 247.64 355.116 244.844 355.116H240.97L236.898 365.329C236.876 365.395 236.832 365.461 236.766 365.527L222.26 378.074C222.216 378.118 222.15 378.14 222.084 378.162L209.647 382.125L205.552 386.505L211.078 390.775Z" fill="black"/>
<path d="M210.9 391.282L204.803 386.615V393.307L212.595 398.81L223.623 402.508L226.397 400.087L229.192 402.508H244.843L253.097 394.65H256.751L264.038 402.508H275.572L284.883 394.099L279.16 380.65L275.066 379.175H257.786L228.598 391.282H210.9Z" fill="black"/>
<path d="M246.713 367.905H237.842C237.578 367.905 237.357 367.685 237.357 367.42C237.357 367.156 237.578 366.936 237.842 366.936H246.713C246.977 366.936 247.197 367.156 247.197 367.42C247.197 367.685 246.999 367.905 246.713 367.905Z" fill="black"/>
<path d="M242.179 371.735H233.309C233.044 371.735 232.824 371.515 232.824 371.251C232.824 370.986 233.044 370.766 233.309 370.766H242.179C242.444 370.766 242.664 370.986 242.664 371.251C242.664 371.515 242.444 371.735 242.179 371.735Z" fill="black"/>
<path d="M237.625 375.565H228.754C228.49 375.565 228.27 375.345 228.27 375.081C228.27 374.817 228.49 374.596 228.754 374.596H237.625C237.889 374.596 238.109 374.817 238.109 375.081C238.109 375.345 237.889 375.565 237.625 375.565Z" fill="black"/>
<path d="M360.441 322.488L340.49 336.517L361.382 366.227L381.332 352.198L360.441 322.488Z" fill="black"/>
<path d="M374.472 337.726L376.74 338.849C381.626 341.27 385.831 344.88 388.957 349.349L392.104 353.817L377.972 363.767L361.045 390.467L349.026 394.121H335.137L338.417 387.584L347.177 383.71L352.416 364.647L349.775 353.619L353.209 351.198C355.674 349.459 358.954 349.503 361.397 351.264L362.014 351.704L366.526 350.141C370.51 348.754 372.8 344.616 371.897 340.5L371.765 339.883C371.413 338.276 373.042 337 374.472 337.726Z" fill="white"/>
<path d="M349.027 394.606H335.138C334.962 394.606 334.808 394.518 334.719 394.363C334.631 394.209 334.631 394.033 334.697 393.879L337.977 387.342C338.021 387.232 338.109 387.165 338.219 387.121L346.76 383.335L351.911 364.625L349.314 353.729C349.27 353.531 349.336 353.333 349.512 353.201L352.946 350.779C355.587 348.93 359.109 348.952 361.706 350.845L362.125 351.154L366.395 349.657C370.137 348.358 372.294 344.462 371.436 340.588L371.304 339.971C371.106 339.047 371.436 338.122 372.162 337.55C372.889 336.978 373.879 336.868 374.716 337.286L376.983 338.409C381.936 340.874 386.206 344.55 389.398 349.062L392.545 353.531C392.611 353.641 392.656 353.773 392.634 353.905C392.612 354.037 392.545 354.147 392.435 354.213L378.37 364.097L361.508 390.731C361.442 390.842 361.354 390.908 361.244 390.93L349.226 394.584C349.115 394.606 349.071 394.606 349.027 394.606ZM335.93 393.637H348.939L360.716 390.071L377.533 363.524C377.577 363.48 377.621 363.414 377.665 363.392L391.401 353.729L388.539 349.657C385.458 345.276 381.297 341.688 376.499 339.311L374.231 338.188C373.725 337.946 373.175 337.99 372.712 338.342C372.272 338.695 372.074 339.223 372.206 339.773L372.338 340.39C373.307 344.748 370.863 349.128 366.659 350.603L362.147 352.166C361.993 352.21 361.816 352.188 361.684 352.1L361.068 351.66C358.801 350.009 355.741 349.987 353.452 351.594L350.282 353.817L352.836 364.515C352.858 364.603 352.858 364.669 352.836 364.757L347.597 383.82C347.553 383.952 347.465 384.084 347.332 384.15L338.726 387.958L335.93 393.637Z" fill="black"/>
<path d="M407.625 359.364L396.288 352.694L392.106 353.817L377.974 363.767L361.047 390.467L349.028 394.121H335.139L338.859 399.426L346.475 402.508H361.707L364.305 398.942L368.047 399.338L380.858 390.379L383.037 379.131L386.009 377.018L396.575 379.373L407.625 371.647V359.364Z" fill="black"/>
<path d="M354.886 366.122C354.732 366.122 354.578 366.056 354.49 365.902C354.336 365.682 354.38 365.373 354.6 365.219L361.864 360.112C362.084 359.958 362.392 360.002 362.546 360.223C362.7 360.443 362.656 360.751 362.436 360.905L355.172 366.012C355.084 366.078 354.996 366.122 354.886 366.122Z" fill="black"/>
<path d="M353.366 371.867C353.212 371.867 353.058 371.801 352.97 371.647C352.816 371.427 352.86 371.119 353.08 370.964L360.344 365.858C360.564 365.704 360.872 365.748 361.027 365.968C361.181 366.188 361.137 366.496 360.917 366.65L353.652 371.757C353.564 371.823 353.476 371.867 353.366 371.867Z" fill="black"/>
<path d="M351.847 377.612C351.693 377.612 351.539 377.546 351.451 377.392C351.297 377.172 351.341 376.864 351.561 376.71L358.825 371.603C359.045 371.449 359.353 371.493 359.507 371.713C359.661 371.933 359.617 372.241 359.397 372.395L352.133 377.502C352.045 377.568 351.957 377.612 351.847 377.612Z" fill="black"/>
<path d="M322.306 260.441V183.113H288.518V259.187C288.518 266.957 290.917 274.529 295.407 280.891L343.13 348.49L370.733 328.987L322.306 260.441Z" fill="#FED101"/>
<path d="M316.098 212.543L290.035 191.037L244.822 245.825C240.2 251.416 237.668 258.46 237.668 265.724L237.646 350.713H271.435V266.649L316.098 212.543Z" fill="#FED101"/>
<path d="M343.128 348.974C343.106 348.974 343.062 348.974 343.04 348.974C342.908 348.952 342.798 348.886 342.732 348.776L294.987 281.155C290.431 274.683 288.01 267.089 288.01 259.165V234.753C288.01 230.065 286.381 225.486 283.409 221.854L282.11 220.269C281.934 220.049 281.978 219.741 282.176 219.587C282.396 219.411 282.705 219.455 282.859 219.653L284.157 221.238C287.261 225.046 288.978 229.844 288.978 234.753V259.165C288.978 266.869 291.333 274.287 295.78 280.582L343.238 347.786L370.027 328.855L321.886 260.727C321.82 260.639 321.798 260.551 321.798 260.441V195.88C321.798 195.615 322.018 195.395 322.283 195.395C322.547 195.395 322.767 195.615 322.767 195.88V260.287L371.106 328.679C371.26 328.899 371.216 329.207 370.996 329.361L343.414 348.886C343.326 348.93 343.238 348.974 343.128 348.974Z" fill="black"/>
<path d="M301.261 212.015C304.871 217.892 315.261 216.395 322.305 213.599V193.282L288.516 192.908L274.076 210.408C292.258 205.345 298.466 207.502 301.261 212.015Z" fill="black"/>
<path d="M307.664 143.799H298.463V165.063H307.664V143.799Z" fill="#955B50"/>
<path d="M299.609 152.582C304.059 152.582 307.666 148.63 307.666 143.755C307.666 138.88 304.059 134.928 299.609 134.928C295.16 134.928 291.553 138.88 291.553 143.755C291.553 148.63 295.16 152.582 299.609 152.582Z" fill="#955B50"/>
<path d="M301.348 148.774C300.775 149.302 300.027 149.654 299.19 149.742C297.319 149.94 295.624 148.708 295.162 146.947L301.348 148.774Z" fill="white"/>
<path d="M299.389 153.066C294.788 153.066 291.068 148.994 291.068 143.997C291.068 139 294.81 134.928 299.389 134.928C303.681 134.928 307.247 138.428 307.666 143.072C307.688 143.337 307.489 143.579 307.225 143.601C306.939 143.623 306.719 143.425 306.697 143.16C306.323 139.022 303.175 135.896 299.389 135.896C295.339 135.896 292.037 139.528 292.037 143.975C292.037 148.443 295.339 152.053 299.389 152.053C300.137 152.053 300.864 151.921 301.568 151.701C301.832 151.613 302.096 151.745 302.185 152.009C302.273 152.274 302.141 152.538 301.876 152.626C301.062 152.934 300.225 153.066 299.389 153.066Z" fill="black"/>
<path d="M299.191 140.563L291.575 144.305C291.553 144.085 291.553 143.865 291.553 143.623C291.553 138.824 295.119 134.928 299.499 134.928C303.88 134.928 307.732 139.022 307.732 143.821C307.732 144.151 307.71 144.459 307.688 144.789L299.191 140.563Z" fill="black"/>
<path d="M312.692 140.555C315.554 138.947 316.57 135.324 314.962 132.462C313.354 129.601 309.73 128.584 306.869 130.192C304.007 131.8 302.991 135.424 304.599 138.285C306.207 141.147 309.831 142.163 312.692 140.555Z" fill="black"/>
<path d="M321.967 135.36C324.829 133.752 325.845 130.129 324.237 127.267C322.629 124.405 319.006 123.389 316.144 124.997C313.283 126.605 312.266 130.229 313.875 133.09C315.483 135.952 319.106 136.968 321.967 135.36Z" fill="black"/>
<path d="M331.233 130.144C334.095 128.536 335.111 124.913 333.503 122.051C331.895 119.19 328.271 118.173 325.41 119.781C322.548 121.389 321.532 125.013 323.14 127.874C324.748 130.736 328.372 131.752 331.233 130.144Z" fill="black"/>
<path d="M228.604 148.047C228.604 149.17 227.702 150.094 226.557 150.094H220.108V152.78H218.545C216.057 152.78 214.671 150.997 214.715 151.019C213.152 149.28 213.856 146.022 216.454 146L226.535 145.978C227.68 146 228.604 146.903 228.604 148.047Z" fill="#955B50"/>
<path d="M225.126 152.097C225.126 153.22 224.224 154.145 223.079 154.145H220.108V156.83H218.545C216.057 156.83 214.671 155.047 214.715 155.069C213.152 153.33 213.856 150.072 216.454 150.05L223.057 150.028C224.202 150.05 225.126 150.975 225.126 152.097Z" fill="#955B50"/>
<path d="M233.228 136.799L228.143 131.582C226.932 130.327 226.25 128.676 226.25 126.937V126.453C226.25 125.11 225.149 124.01 223.806 124.01H223.52C222.177 124.01 221.077 125.11 221.077 126.453V129.513C221.077 131.252 221.759 132.925 222.97 134.179L228.869 140.233H218.281V156.94H228.297L247.932 186.04L262.262 177.213L239.193 144.063C237.41 141.466 235.407 139.044 233.228 136.799Z" fill="#955B50"/>
<path d="M230.629 143.953C230.629 145.076 229.727 146 228.582 146H220.108V148.686H218.545C216.057 148.686 214.671 146.903 214.715 146.925C213.152 145.186 213.856 141.928 216.454 141.906L228.56 141.884C229.705 141.906 230.629 142.83 230.629 143.953Z" fill="#955B50"/>
<path d="M229.001 139.837C229.001 140.959 228.099 141.884 226.954 141.884H219.998V144.569H218.435C215.948 144.569 214.561 142.786 214.605 142.808C213.042 141.069 213.747 137.812 216.344 137.789L226.91 137.767C228.077 137.789 228.979 138.714 229.001 139.837Z" fill="#955B50"/>
<path d="M214.627 143.315C214.495 143.315 214.363 143.249 214.253 143.16C213.306 142.082 213.042 140.431 213.615 139.11C214.121 137.988 215.111 137.327 216.366 137.327L226.822 137.305C228.209 137.305 229.353 138.428 229.353 139.837C229.353 141.135 228.407 142.214 227.108 142.368C226.844 142.412 226.602 142.214 226.558 141.928C226.536 141.664 226.712 141.421 226.998 141.377C227.79 141.289 228.363 140.607 228.363 139.837C228.363 138.978 227.658 138.296 226.8 138.296L216.344 138.318C215.2 138.318 214.693 139.066 214.495 139.506C214.055 140.475 214.253 141.708 214.957 142.5C215.133 142.698 215.111 143.006 214.913 143.204C214.847 143.271 214.737 143.315 214.627 143.315Z" fill="black"/>
<path d="M214.606 147.277C214.452 147.277 214.32 147.211 214.21 147.079C213.329 145.956 213.175 144.371 213.769 143.116C214.276 142.06 215.266 141.444 216.477 141.444L228.584 141.422C229.97 141.422 231.115 142.544 231.115 143.953C231.115 145.318 230.058 146.44 228.716 146.506H226.558C226.294 146.506 226.074 146.286 226.074 146.022C226.074 145.758 226.294 145.538 226.558 145.538H228.694C229.508 145.494 230.146 144.811 230.146 143.975C230.146 143.116 229.442 142.434 228.584 142.434L216.477 142.456C215.376 142.456 214.87 143.16 214.672 143.579C214.232 144.503 214.364 145.692 215.002 146.506C215.178 146.726 215.134 147.035 214.914 147.189C214.804 147.233 214.694 147.277 214.606 147.277Z" fill="black"/>
<path d="M214.604 151.371C214.45 151.371 214.318 151.305 214.207 151.173C213.327 150.05 213.151 148.465 213.767 147.211C214.274 146.154 215.264 145.538 216.475 145.538L226.556 145.516C226.556 145.516 226.556 145.516 226.578 145.516C227.261 145.516 227.877 145.78 228.361 146.242C228.846 146.726 229.11 147.365 229.11 148.047C229.11 149.456 227.987 150.601 226.578 150.601H223.519C223.254 150.601 223.034 150.38 223.034 150.116C223.034 149.852 223.254 149.632 223.519 149.632H226.578C227.437 149.632 228.119 148.928 228.119 148.069C228.119 147.651 227.965 147.255 227.657 146.969C227.371 146.682 226.975 146.506 226.556 146.506L216.475 146.528C215.374 146.528 214.868 147.233 214.67 147.651C214.229 148.575 214.362 149.764 215 150.579C215.176 150.799 215.132 151.107 214.912 151.261C214.802 151.327 214.692 151.371 214.604 151.371Z" fill="black"/>
<path d="M247.929 186.502C247.775 186.502 247.621 186.436 247.511 186.282L227.942 157.314H218.543H218.521C216.276 157.314 214.757 155.928 214.339 155.377C213.392 154.299 213.128 152.648 213.701 151.327C214.207 150.204 215.197 149.544 216.452 149.544L223.056 149.522C223.056 149.522 223.056 149.522 223.078 149.522C223.76 149.522 224.376 149.786 224.861 150.248C225.345 150.733 225.609 151.371 225.609 152.053C225.609 153.462 224.487 154.607 223.078 154.607H220.326C220.062 154.607 219.842 154.387 219.842 154.123C219.842 153.858 220.062 153.638 220.326 153.638H223.078C223.936 153.638 224.641 152.934 224.619 152.075C224.619 151.657 224.465 151.261 224.156 150.975C223.87 150.689 223.474 150.513 223.056 150.513L216.452 150.535C215.307 150.535 214.801 151.283 214.603 151.723C214.163 152.692 214.361 153.924 215.065 154.717C215.087 154.739 215.087 154.761 215.109 154.761C215.197 154.871 216.408 156.302 218.521 156.302H218.543L228.207 156.28C228.361 156.28 228.515 156.368 228.625 156.5L248.084 185.292L261.577 176.971L238.816 144.261C237.055 141.708 235.052 139.308 232.895 137.085L227.81 131.868C226.49 130.525 225.785 128.742 225.785 126.871V126.387C225.785 125.309 224.905 124.45 223.848 124.45H223.562C222.483 124.45 221.625 125.331 221.625 126.387V129.447C221.625 131.076 222.241 132.595 223.386 133.761L226.776 137.305C226.974 137.503 226.952 137.812 226.754 138.01C226.556 138.208 226.248 138.186 226.049 137.988L222.66 134.444C221.339 133.101 220.634 131.318 220.634 129.447V126.387C220.634 124.78 221.955 123.46 223.562 123.46H223.848C225.455 123.46 226.776 124.78 226.776 126.387V126.871C226.776 128.5 227.392 130.019 228.537 131.186L233.622 136.403C235.823 138.67 237.848 141.113 239.653 143.711L262.722 176.861C262.788 176.971 262.832 177.103 262.81 177.235C262.788 177.367 262.7 177.477 262.59 177.543L248.26 186.37C248.106 186.48 248.018 186.502 247.929 186.502Z" fill="black"/>
<path d="M289.665 159.934L261.49 173.735L247.842 153.792L230.145 163.324L248.062 192.116C251.21 197.2 257.682 199.093 263.075 196.562L302.19 178.204L295.146 161.959C294.222 159.846 291.735 158.921 289.665 159.934Z" fill="#8C7BFF"/>
<path d="M325.236 200.81L322.198 173.141C321.296 165.019 314.45 158.877 306.284 158.877H293.913C289.422 158.877 285.746 162.245 285.218 166.603H285.174L284.998 167.484C284.58 169.619 283.149 171.38 281.212 172.415C279.055 173.559 277.58 175.849 277.602 178.446C277.602 180.141 278.24 181.682 279.275 182.87C280.684 184.499 281.212 186.723 280.794 188.836L278.592 200.81H325.236Z" fill="#8C7BFF"/>
<path d="M278.593 200.524C278.571 200.524 278.527 200.524 278.505 200.524C278.241 200.48 278.065 200.216 278.109 199.952L280.31 188.77C280.706 186.767 280.178 184.697 278.901 183.223C277.756 181.902 277.118 180.229 277.096 178.49C277.074 175.761 278.571 173.295 280.97 172.018C282.841 171.028 284.118 169.355 284.492 167.418L284.668 166.537C284.712 166.273 284.976 166.097 285.24 166.141C285.505 166.185 285.681 166.449 285.637 166.714L285.461 167.594C285.02 169.817 283.546 171.732 281.432 172.855C279.363 173.956 278.064 176.113 278.086 178.468C278.086 179.987 278.659 181.44 279.649 182.562C281.124 184.257 281.741 186.635 281.278 188.946L279.077 200.128C279.033 200.37 278.813 200.524 278.593 200.524Z" fill="black"/>
<path d="M294.661 184.653C294.573 184.653 294.463 184.631 294.375 184.565C292.328 183.157 291.161 180.845 291.227 178.38C291.337 174.396 294.529 171.292 298.513 171.27C298.777 171.27 298.998 171.49 298.998 171.754C298.998 172.018 298.777 172.239 298.513 172.239C295.079 172.239 292.306 174.946 292.218 178.38C292.174 180.515 293.186 182.518 294.947 183.729C295.167 183.883 295.233 184.191 295.079 184.411C294.969 184.565 294.815 184.653 294.661 184.653Z" fill="black"/>
<path d="M378.727 256.039L374.171 247.344C373.554 246.177 372.718 245.143 371.683 244.328L362.878 237.197L359.885 240.917L367.875 247.388C369.108 248.379 370.098 249.611 370.825 250.998L374.589 258.262C375.205 259.429 376.702 259.803 377.781 259.033L378.089 258.812C378.947 258.174 379.233 257.007 378.727 256.039Z" fill="#955B50"/>
<path d="M382.358 252.825L377.868 244.284C377.252 243.118 376.415 242.083 375.381 241.269L366.576 234.137L363.582 237.857L371.837 244.527C372.893 245.385 373.752 246.442 374.368 247.63L378.176 255.004C378.836 256.281 380.487 256.677 381.654 255.841C382.601 255.158 382.887 253.86 382.358 252.825Z" fill="#955B50"/>
<path d="M358.562 241.467L358.958 241.489C360.147 241.555 361.27 241.973 362.194 242.722L366.486 246.155L371.571 241.203L361.005 226.829L350.109 226.234L352.024 238.715C352.267 240.3 352.795 241.841 353.587 243.228L359.222 253.199C359.883 254.388 361.38 254.784 362.568 254.124L362.81 253.992C363.999 253.331 364.395 251.835 363.735 250.646L358.562 241.467Z" fill="#955B50"/>
<path d="M361.005 226.829L350.109 226.234L351.254 233.719L364.351 231.297L361.005 226.829Z" fill="#020202"/>
<path d="M376.503 259.935C376.305 259.935 376.085 259.913 375.886 259.869C375.138 259.693 374.5 259.187 374.147 258.504L370.383 251.24C369.701 249.898 368.732 248.731 367.566 247.784L361.799 243.118C360.94 242.435 359.928 242.039 358.827 241.973L358.585 241.951C358.321 241.929 358.101 241.709 358.123 241.423C358.145 241.159 358.365 240.939 358.651 240.961L358.893 240.983C360.192 241.049 361.424 241.511 362.437 242.347L368.204 247.014C369.481 248.048 370.515 249.303 371.286 250.778L375.05 258.042C375.27 258.482 375.666 258.79 376.151 258.9C376.635 259.011 377.119 258.923 377.515 258.636L377.824 258.416C378.506 257.932 378.704 257.007 378.33 256.281L373.773 247.586C373.179 246.464 372.386 245.517 371.418 244.725L368.292 242.171C368.072 241.995 368.05 241.687 368.226 241.489C368.402 241.269 368.71 241.247 368.909 241.423L372.034 243.976C373.113 244.857 373.993 245.913 374.654 247.146L379.21 255.841C379.827 257.007 379.474 258.46 378.418 259.231L378.11 259.451C377.603 259.759 377.053 259.935 376.503 259.935Z" fill="black"/>
<path d="M380.267 256.765C380.069 256.765 379.871 256.743 379.673 256.699C378.88 256.523 378.198 256.039 377.802 255.335C377.67 255.092 377.736 254.806 377.978 254.652C378.22 254.52 378.506 254.586 378.66 254.828C378.924 255.291 379.365 255.599 379.871 255.709C380.399 255.819 380.928 255.709 381.346 255.401C382.094 254.872 382.336 253.838 381.896 253.023L377.406 244.483C376.811 243.36 376.019 242.413 375.05 241.621L366.51 234.687C366.488 234.665 366.444 234.643 366.422 234.599L360.72 227.269L350.639 226.719L352.466 238.605C352.708 240.146 353.214 241.599 353.985 242.964L359.62 252.935C359.884 253.397 360.302 253.728 360.808 253.86C361.315 253.992 361.843 253.926 362.305 253.684L362.547 253.552C363.494 253.023 363.824 251.813 363.296 250.866L356.626 239.09C356.494 238.847 356.582 238.561 356.802 238.429C357.044 238.297 357.33 238.385 357.463 238.605L364.132 250.382C364.925 251.791 364.44 253.596 363.01 254.41L362.767 254.542C362.085 254.938 361.293 255.026 360.522 254.828C359.774 254.608 359.135 254.124 358.739 253.442L353.104 243.47C352.29 242.017 351.739 240.432 351.475 238.781L349.56 226.3C349.538 226.146 349.582 226.014 349.692 225.904C349.802 225.794 349.934 225.728 350.088 225.75L360.985 226.345C361.117 226.345 361.249 226.411 361.337 226.543L367.148 234.005L375.645 240.895C376.723 241.775 377.604 242.832 378.264 244.064L382.755 252.605C383.415 253.86 383.041 255.423 381.896 256.237C381.434 256.589 380.862 256.765 380.267 256.765Z" fill="black"/>
<path d="M316.256 162.333L302.895 177.764L332.193 197.883L345.796 228.216H367.016L351.806 192.71C349.714 187.823 346.303 183.597 341.966 180.537L316.256 162.333Z" fill="#8C7BFF"/>
<path d="M367.012 228.7H345.793C345.595 228.7 345.418 228.59 345.352 228.414L331.815 198.213L315.548 187.053C315.328 186.899 315.262 186.59 315.416 186.37C315.57 186.15 315.878 186.084 316.098 186.238L332.497 197.487C332.563 197.531 332.629 197.619 332.673 197.685L346.145 227.731H366.308L350.833 191.631C349.138 187.669 346.387 184.235 342.887 181.704L314.777 161.431C314.557 161.276 314.513 160.968 314.667 160.748C314.821 160.528 315.13 160.484 315.35 160.638L343.459 180.911C347.113 183.553 349.975 187.119 351.736 191.257L367.497 228.039C367.563 228.194 367.541 228.37 367.453 228.502C367.343 228.612 367.188 228.7 367.012 228.7Z" fill="black"/>
</svg>
