<svg width="92" height="85" viewBox="0 0 92 85" fill="none" xmlns="http://www.w3.org/2000/svg">
<path d="M83.5074 1.64207H9.08381C4.9251 1.64207 1.63281 5.03119 1.63281 9.11552V56.1287C1.63281 60.2999 5.01174 63.6021 9.08381 63.6021H32.9964L30.5705 80.8953C30.3106 82.4595 32.0433 83.5892 33.4296 82.7202L62.3673 63.689H83.5074C87.6661 63.689 90.9584 60.2999 90.9584 56.2156V9.11552C90.9584 4.94429 87.5795 1.64207 83.5074 1.64207Z" fill="white" stroke="#263238" stroke-width="2.5" stroke-miterlimit="10" stroke-linecap="round" stroke-linejoin="round"/>
<path d="M27.3119 55.887L66.9062 55.887V9.39524L27.3119 9.39524L27.3119 55.887Z" fill="white" stroke="#263238" stroke-width="2.5" stroke-miterlimit="10" stroke-linecap="round" stroke-linejoin="round"/>
<path d="M35.25 20.065H58.9893" stroke="#263238" stroke-width="2.5" stroke-miterlimit="10" stroke-linecap="round" stroke-linejoin="round"/>
<path d="M35.25 28.2336H58.9893" stroke="#263238" stroke-width="2.5" stroke-miterlimit="10" stroke-linecap="round" stroke-linejoin="round"/>
<path d="M35.25 36.4023H58.9893" stroke="#263238" stroke-width="2.5" stroke-miterlimit="10" stroke-linecap="round" stroke-linejoin="round"/>
<path d="M35.25 44.6578H58.9893" stroke="#263238" stroke-width="2.5" stroke-miterlimit="10" stroke-linecap="round" stroke-linejoin="round"/>
<path d="M75.1887 25.279L71.7231 24.5838L70.4235 27.886L65.3984 18.5877L70.1636 15.9807L75.1887 25.279Z" fill="white" stroke="#263238" stroke-width="2.5" stroke-miterlimit="10" stroke-linecap="round" stroke-linejoin="round"/>
<path d="M58.2969 25.3659L61.7625 24.5838L63.1487 27.886L68.0005 18.5008L63.1487 15.9807L58.2969 25.3659Z" fill="white" stroke="#263238" stroke-width="2.5" stroke-miterlimit="10" stroke-linecap="round" stroke-linejoin="round"/>
<path d="M66.0932 20.065C69.7776 20.065 72.7644 17.0692 72.7644 13.3736C72.7644 9.67811 69.7776 6.6823 66.0932 6.6823C62.4087 6.6823 59.4219 9.67811 59.4219 13.3736C59.4219 17.0692 62.4087 20.065 66.0932 20.065Z" fill="#EC644E" stroke="#263238" stroke-width="2.5" stroke-miterlimit="10" stroke-linecap="round" stroke-linejoin="round"/>
</svg>
