<svg width="117" height="118" viewBox="0 0 117 118" fill="none" xmlns="http://www.w3.org/2000/svg">
<path d="M89.1294 22.4375L116.66 0.888199L88.0078 62.1738L89.1294 22.4375Z" fill="black"/>
<path d="M88.4106 21.4225L116.026 0L49.6641 12.752L88.4106 21.4225Z" fill="black"/>
<path d="M28.1858 117.094C28.1647 117.094 28.1223 117.094 28.1012 117.094C18.3246 115.36 9.98701 110.369 5.22569 103.39C2.05148 98.7379 0.273927 92.7954 0.231604 86.6626C0.146958 77.0616 4.80248 66.4667 11.8281 60.2916C16.801 55.9141 22.5992 54.0531 28.5879 54.8779C28.7572 54.899 28.9476 54.9202 29.1169 54.9625C30.3866 46.3343 35.7828 38.5308 43.5914 34.0052C51.6539 29.3528 59.6105 30.0295 68.0539 30.7485C69.1967 30.8543 70.3605 30.9389 71.5456 31.0446C74.487 31.2561 80.1583 30.5582 82.6976 26.5613C82.8458 26.3498 83.1209 26.2864 83.3537 26.4133C83.5653 26.5613 83.6288 26.8362 83.5018 27.0689C80.7296 31.4464 74.6351 32.2077 71.4821 31.9751C70.2971 31.8905 69.1332 31.7848 67.9905 31.679C59.7163 30.96 51.9078 30.3044 44.0781 34.8089C36.4811 39.1864 31.2754 46.7572 30.048 55.1316C30.3443 55.1951 30.6617 55.2797 30.958 55.3643C32.9895 55.9352 34.7035 56.9715 35.9098 58.3672C37.0736 59.6995 37.6238 61.2856 37.4545 62.7236C37.2218 64.4789 35.7405 65.9169 34.1534 65.938C33.1165 65.938 32.2065 65.4093 31.6352 64.9441C28.9477 62.7025 28.6937 58.8747 29.0111 55.8929C28.8418 55.8718 28.6514 55.8295 28.4821 55.8084C22.7685 55.0259 17.2242 56.8023 12.4629 60.9895C5.62778 66.9954 1.07806 77.3154 1.18387 86.6415C1.24735 92.6051 2.96143 98.3572 6.02984 102.84C10.643 109.608 18.7478 114.45 28.2916 116.142C28.5456 116.185 28.7149 116.438 28.6726 116.692C28.6091 116.946 28.4186 117.094 28.1858 117.094ZM29.9422 56.0833C29.7095 58.4518 29.7941 62.2161 32.2277 64.2462C32.672 64.6057 33.3492 65.0498 34.1322 65.0287C35.2749 65.0075 36.3541 63.929 36.5234 62.6179C36.6716 61.4548 36.1849 60.1225 35.2114 59.0016C34.1322 57.7539 32.5662 56.8023 30.704 56.2948C30.4501 56.2102 30.1962 56.1256 29.9422 56.0833Z" fill="#B9BEC6"/>
</svg>
