<svg width="95" height="87" viewBox="0 0 95 87" fill="none" xmlns="http://www.w3.org/2000/svg">
<path d="M85.9462 1.51237H9.61649C5.37114 1.51237 1.99219 4.90149 1.99219 9.15962V57.3894C1.99219 61.6475 5.37114 65.0366 9.61649 65.0366H34.1355L31.623 82.6774C31.3631 84.3285 33.1825 85.4582 34.5687 84.5023L64.1996 64.9497H85.8595C90.1049 64.9497 93.4838 61.5606 93.4838 57.3025V9.24652C93.5704 4.98839 90.1049 1.51237 85.9462 1.51237Z" fill="white" stroke="#263238" stroke-width="2.5" stroke-miterlimit="10" stroke-linecap="round" stroke-linejoin="round"/>
<path d="M19.2344 44.8757L26.4255 38.7927L31.7972 44.8757L40.2878 37.1416L44.1 42.2687L51.0312 35.4904L53.6304 37.1416L63.8539 20.196L69.5721 28.1039L78.4094 19.327" fill="white"/>
<path d="M19.2344 44.8757L26.4255 38.7927L31.7972 44.8757L40.2878 37.1416L44.1 42.2687L51.0312 35.4905L53.6304 37.1416L63.8539 20.196L69.5721 28.1039L78.4094 19.327" stroke="#EC644E" stroke-width="2.5" stroke-miterlimit="10" stroke-linecap="round" stroke-linejoin="round"/>
<path d="M78.7559 12.9832H19.2344V54.3479H78.7559V12.9832Z" stroke="#263238" stroke-width="2.5" stroke-miterlimit="10" stroke-linecap="round" stroke-linejoin="round"/>
</svg>
