<svg width="279" height="62" viewBox="0 0 279 62" fill="none" xmlns="http://www.w3.org/2000/svg">
<path d="M276 3H18.5788L3 59H254.486L276 3Z" stroke="#FFC107"/>
<rect x="273.5" y="0.5" width="5" height="5" fill="white" stroke="#FFC107"/>
<rect x="251.5" y="56.5" width="5" height="5" fill="white" stroke="#FFC107"/>
<rect x="0.5" y="56.5" width="5" height="5" fill="white" stroke="#FFC107"/>
<rect x="16.5" y="0.5" width="5" height="5" fill="white" stroke="#FFC107"/>
<path d="M20.12 44L24.28 14.2H36.36C39.2133 14.2 41.4133 14.8667 42.96 16.2C44.5333 17.5067 45.32 19.3467 45.32 21.72C45.32 22.7867 45.16 23.7733 44.84 24.68C44.5467 25.5867 44.08 26.4 43.44 27.12C42.8267 27.84 42.04 28.48 41.08 29.04L40.64 26.76C42.4267 27.56 43.6533 28.56 44.32 29.76C44.9867 30.96 45.32 32.24 45.32 33.6C45.32 35.76 44.8267 37.6267 43.84 39.2C42.88 40.7467 41.4933 41.9333 39.68 42.76C37.8667 43.5867 35.72 44 33.24 44H20.12ZM27.08 38.6H34.52C35.4267 38.6 36.2133 38.4133 36.88 38.04C37.5733 37.6667 38.1067 37.1467 38.48 36.48C38.88 35.8133 39.08 35.0533 39.08 34.2C39.08 33.1867 38.7467 32.3733 38.08 31.76C37.4133 31.12 36.5067 30.8 35.36 30.8H28.16L27.08 38.6ZM28.92 25.4H35.64C36.3333 25.4 36.9333 25.2533 37.44 24.96C37.9733 24.6667 38.3867 24.2667 38.68 23.76C38.9733 23.2533 39.12 22.6667 39.12 22C39.12 21.2267 38.8667 20.6 38.36 20.12C37.8533 19.64 37.16 19.4 36.28 19.4H29.76L28.92 25.4ZM47.5316 44L51.7716 13.72H57.8116L53.5716 44H47.5316ZM65.2013 44.48C63.7346 44.48 62.4546 44.2533 61.3613 43.8C60.2679 43.3467 59.4146 42.68 58.8013 41.8C58.2146 40.8933 57.9213 39.8 57.9213 38.52C57.9213 37.08 58.2813 35.8667 59.0013 34.88C59.7479 33.8667 60.7479 33.0533 62.0013 32.44C63.2813 31.8267 64.7213 31.4 66.3213 31.16L73.2013 30.08L72.7613 34.48L67.1613 35.52C66.3346 35.68 65.6146 35.9733 65.0013 36.4C64.4146 36.8 64.1213 37.3867 64.1213 38.16C64.1213 38.8267 64.3613 39.32 64.8413 39.64C65.3213 39.9333 65.9346 40.08 66.6813 40.08C67.6679 40.08 68.5346 39.8533 69.2813 39.4C70.0546 38.9467 70.6813 38.3467 71.1613 37.6C71.6679 36.8533 71.9746 36.04 72.0813 35.16L72.8413 29.6C72.9213 28.9867 72.8146 28.4667 72.5213 28.04C72.2279 27.6133 71.8146 27.28 71.2813 27.04C70.7479 26.8 70.1613 26.68 69.5213 26.68C68.3746 26.68 67.3479 27 66.4413 27.64C65.5346 28.2533 64.8546 29.04 64.4013 30L59.7613 27.48C60.3213 26.2533 61.1079 25.2133 62.1213 24.36C63.1346 23.5067 64.3079 22.8533 65.6413 22.4C66.9746 21.92 68.3879 21.68 69.8813 21.68C71.7213 21.68 73.3479 22.0267 74.7613 22.72C76.2013 23.4133 77.2946 24.3733 78.0413 25.6C78.8146 26.8267 79.0813 28.2533 78.8413 29.88L76.8813 44H71.2413L71.7213 40.48L73.3213 40.36C72.5746 41.32 71.7879 42.1067 70.9613 42.72C70.1346 43.3333 69.2413 43.7733 68.2813 44.04C67.3479 44.3333 66.3213 44.48 65.2013 44.48ZM92.9616 44.48C90.8549 44.48 88.9616 44.0133 87.2816 43.08C85.6282 42.1467 84.3216 40.8667 83.3616 39.24C82.4282 37.6133 81.9616 35.7733 81.9616 33.72C81.9616 32.04 82.2816 30.4667 82.9216 29C83.5616 27.5333 84.4416 26.2533 85.5616 25.16C86.6816 24.0667 87.9749 23.2133 89.4416 22.6C90.9349 21.9867 92.5349 21.68 94.2416 21.68C95.8949 21.68 97.4016 21.9733 98.7616 22.56C100.122 23.12 101.268 23.9067 102.202 24.92C103.135 25.9333 103.775 27.12 104.122 28.48L98.8016 30.56C98.5082 29.4667 97.9482 28.6133 97.1216 28C96.2949 27.3867 95.3082 27.08 94.1616 27.08C92.9616 27.08 91.9082 27.3867 91.0016 28C90.1216 28.6133 89.4282 29.4267 88.9216 30.44C88.4416 31.4533 88.2016 32.5467 88.2016 33.72C88.2016 34.7867 88.4016 35.72 88.8016 36.52C89.2016 37.32 89.7616 37.9467 90.4816 38.4C91.2282 38.8533 92.0816 39.08 93.0416 39.08C94.2949 39.08 95.3882 38.7467 96.3216 38.08C97.2549 37.4133 97.9482 36.5333 98.4016 35.44L103.482 37.88C102.975 39.16 102.202 40.3067 101.162 41.32C100.148 42.3067 98.9349 43.08 97.5216 43.64C96.1082 44.2 94.5882 44.48 92.9616 44.48ZM106.164 44L110.404 13.72H116.444L113.724 33.12L110.964 32.4L122.044 22.16H130.004L120.844 30.96L126.924 44H120.484L115.444 32.92L118.684 32.04L110.964 39.32L113.324 35.84L112.204 44H106.164ZM137.229 44L141.389 14.2H161.789L161.029 19.6H146.829L145.789 27.16H157.989L157.229 32.56H145.029L143.429 44H137.229ZM159.055 44L162.095 22.16H167.735L167.015 27.4L166.695 26.64C167.442 24.8 168.402 23.56 169.575 22.92C170.775 22.2533 172.135 21.92 173.655 21.92H174.935L174.215 27.12H172.335C170.868 27.12 169.615 27.5867 168.575 28.52C167.562 29.4533 166.922 30.8267 166.655 32.64L165.095 44H159.055ZM174.485 44L177.525 22.16H183.565L180.525 44H174.485ZM177.805 20.2L178.645 14.2H184.685L183.845 20.2H177.805ZM196.034 44.48C193.954 44.48 192.128 44.04 190.554 43.16C188.981 42.28 187.754 41.0667 186.874 39.52C185.994 37.9467 185.554 36.1467 185.554 34.12C185.554 32.2267 185.874 30.52 186.514 29C187.181 27.48 188.074 26.1733 189.194 25.08C190.341 23.9867 191.648 23.1467 193.114 22.56C194.608 21.9733 196.168 21.68 197.794 21.68C199.448 21.68 200.901 22 202.154 22.64C203.408 23.2533 204.381 24.1067 205.074 25.2L203.714 26.32L205.434 13.72H211.514L207.274 44H201.634L202.154 40L203.434 40.92C202.634 42.12 201.568 43.0133 200.234 43.6C198.928 44.1867 197.528 44.48 196.034 44.48ZM196.914 39.08C198.141 39.08 199.208 38.7867 200.114 38.2C201.021 37.5867 201.728 36.7733 202.234 35.76C202.741 34.7467 202.994 33.6133 202.994 32.36C202.994 31.3467 202.781 30.44 202.354 29.64C201.954 28.84 201.381 28.2133 200.634 27.76C199.914 27.3067 199.048 27.08 198.034 27.08C196.834 27.08 195.754 27.3733 194.794 27.96C193.861 28.5467 193.128 29.3467 192.594 30.36C192.061 31.3467 191.794 32.48 191.794 33.76C191.794 34.8 192.008 35.72 192.434 36.52C192.861 37.32 193.461 37.9467 194.234 38.4C195.008 38.8533 195.901 39.08 196.914 39.08ZM218.912 44.48C217.446 44.48 216.166 44.2533 215.072 43.8C213.979 43.3467 213.126 42.68 212.512 41.8C211.926 40.8933 211.632 39.8 211.632 38.52C211.632 37.08 211.992 35.8667 212.712 34.88C213.459 33.8667 214.459 33.0533 215.712 32.44C216.992 31.8267 218.432 31.4 220.032 31.16L226.912 30.08L226.472 34.48L220.872 35.52C220.046 35.68 219.326 35.9733 218.712 36.4C218.126 36.8 217.832 37.3867 217.832 38.16C217.832 38.8267 218.072 39.32 218.552 39.64C219.032 39.9333 219.646 40.08 220.392 40.08C221.379 40.08 222.246 39.8533 222.992 39.4C223.766 38.9467 224.392 38.3467 224.872 37.6C225.379 36.8533 225.686 36.04 225.792 35.16L226.552 29.6C226.632 28.9867 226.526 28.4667 226.232 28.04C225.939 27.6133 225.526 27.28 224.992 27.04C224.459 26.8 223.872 26.68 223.232 26.68C222.086 26.68 221.059 27 220.152 27.64C219.246 28.2533 218.566 29.04 218.112 30L213.472 27.48C214.032 26.2533 214.819 25.2133 215.832 24.36C216.846 23.5067 218.019 22.8533 219.352 22.4C220.686 21.92 222.099 21.68 223.592 21.68C225.432 21.68 227.059 22.0267 228.472 22.72C229.912 23.4133 231.006 24.3733 231.752 25.6C232.526 26.8267 232.792 28.2533 232.552 29.88L230.592 44H224.952L225.432 40.48L227.032 40.36C226.286 41.32 225.499 42.1067 224.672 42.72C223.846 43.3333 222.952 43.7733 221.992 44.04C221.059 44.3333 220.032 44.48 218.912 44.48ZM237.353 52.88C236.633 52.88 235.979 52.8133 235.393 52.68C234.806 52.5467 234.299 52.36 233.872 52.12L234.232 47.32C234.606 47.4267 235.033 47.5067 235.513 47.56C235.993 47.64 236.406 47.68 236.753 47.68C237.499 47.68 238.126 47.5333 238.633 47.24C239.166 46.9467 239.619 46.5733 239.993 46.12C240.366 45.6667 240.699 45.2133 240.993 44.76L242.993 41.52L242.433 46.52L236.273 22.16H242.433L246.353 39.48H243.913L252.713 22.16H259.473L246.713 46.2C245.913 47.72 245.033 48.9733 244.073 49.96C243.113 50.9467 242.073 51.68 240.953 52.16C239.833 52.64 238.633 52.88 237.353 52.88Z" fill="#FFC107"/>
</svg>
