<svg width="20" height="20" viewBox="0 0 20 20" fill="none" xmlns="http://www.w3.org/2000/svg">
<path d="M7.25621 18.7C7.12831 18.646 7.02202 18.551 6.95412 18.4299C6.88622 18.3088 6.86057 18.1685 6.88121 18.0312L8.01871 10.625H4.99996C4.90426 10.6276 4.80924 10.6081 4.72225 10.5682C4.63525 10.5282 4.5586 10.4688 4.4982 10.3945C4.43781 10.3202 4.39529 10.233 4.37392 10.1397C4.35255 10.0464 4.35291 9.94941 4.37496 9.85625L6.24996 1.73124C6.28296 1.59141 6.36312 1.46722 6.47695 1.37957C6.59079 1.29191 6.73134 1.24615 6.87496 1.24999H13.125C13.2183 1.24968 13.3106 1.27028 13.395 1.3103C13.4793 1.35032 13.5536 1.40873 13.6125 1.48124C13.6721 1.55458 13.7144 1.64049 13.736 1.7325C13.7577 1.82452 13.7582 1.92026 13.7375 2.01249L12.6562 6.875H15.625C15.7421 6.87476 15.8569 6.90745 15.9564 6.96933C16.0559 7.03122 16.1359 7.11981 16.1875 7.225C16.2322 7.32596 16.2495 7.43698 16.2374 7.54677C16.2253 7.65656 16.1844 7.76118 16.1187 7.85L7.99371 18.475C7.9388 18.5564 7.86548 18.6237 7.7797 18.6715C7.69391 18.7193 7.59808 18.7462 7.49996 18.75C7.41633 18.7484 7.3337 18.7315 7.25621 18.7V18.7ZM11.0937 8.125L12.3437 2.49999H7.37496L5.78746 9.375H9.48121L8.48746 15.8L14.375 8.125H11.0937Z" fill="#FFC107"/>
<path d="M7.25621 18.7C7.12831 18.646 7.02202 18.551 6.95412 18.4299C6.88622 18.3088 6.86057 18.1685 6.88121 18.0312L8.01871 10.625H4.99996C4.90426 10.6276 4.80924 10.6081 4.72225 10.5682C4.63525 10.5282 4.5586 10.4688 4.4982 10.3945C4.43781 10.3202 4.39529 10.233 4.37392 10.1397C4.35255 10.0464 4.35291 9.94941 4.37496 9.85625L6.24996 1.73124C6.28296 1.59141 6.36312 1.46722 6.47695 1.37957C6.59079 1.29191 6.73134 1.24615 6.87496 1.24999H13.125C13.2183 1.24968 13.3106 1.27028 13.395 1.3103C13.4793 1.35032 13.5536 1.40873 13.6125 1.48124C13.6721 1.55458 13.7144 1.64049 13.736 1.7325C13.7577 1.82452 13.7582 1.92026 13.7375 2.01249L12.6562 6.875H15.625C15.7421 6.87476 15.8569 6.90745 15.9564 6.96933C16.0559 7.03122 16.1359 7.11981 16.1875 7.225C16.2322 7.32596 16.2495 7.43698 16.2374 7.54677C16.2253 7.65656 16.1844 7.76118 16.1187 7.85L7.99371 18.475C7.9388 18.5564 7.86548 18.6237 7.7797 18.6715C7.69391 18.7193 7.59808 18.7462 7.49996 18.75C7.41633 18.7484 7.3337 18.7315 7.25621 18.7V18.7ZM11.0937 8.125L12.3437 2.49999H7.37496L5.78746 9.375H9.48121L8.48746 15.8L14.375 8.125H11.0937Z" fill="#FFC107"/>
</svg>
