<svg width="674" height="392" viewBox="0 0 674 392" fill="none" xmlns="http://www.w3.org/2000/svg">
<path d="M122.07 275.882L234.966 210.271L229.165 206.922L122.032 269.183L84.6348 247.588L0 296.772L5.69801 300.068L84.5703 254.227L122.07 275.882Z" fill="url(#paint0_linear_758_32719)"/>
<path d="M256.617 222.773L250.816 219.424L123.921 293.164L92.8442 275.223L27.9706 312.922L33.7711 316.272L92.9832 281.862L124.06 299.802L256.617 222.773Z" fill="url(#paint1_linear_758_32719)"/>
<path d="M271.119 231.147L79.351 342.591L85.049 345.881L276.817 234.435L271.119 231.147Z" fill="url(#paint2_linear_758_32719)"/>
<path d="M170.227 319.898L297.12 246.158L291.32 242.808L158.764 319.843L189.842 337.783L130.63 372.193L136.431 375.543L201.304 337.845L170.227 319.898Z" fill="url(#paint3_linear_758_32719)"/>
<path d="M318.667 258.6L312.971 255.31L200.075 320.915L237.574 342.57L158.703 388.404L164.4 391.693L249.035 342.51L211.535 320.854L318.667 258.6Z" fill="url(#paint4_linear_758_32719)"/>
<path d="M551.752 116.42L438.856 182.031L444.657 185.38L551.79 123.119L589.187 144.712L673.822 95.529L668.124 92.2343L589.252 138.075L551.752 116.42Z" fill="url(#paint5_linear_758_32719)"/>
<path d="M417.205 169.529L423.006 172.877L549.901 99.1367L580.978 117.077L645.851 79.3797L640.051 76.0302L580.839 110.44L549.762 92.4996L417.205 169.529Z" fill="url(#paint6_linear_758_32719)"/>
<path d="M402.703 161.155L594.471 49.709L588.773 46.4214L397.005 157.866L402.703 161.155Z" fill="url(#paint7_linear_758_32719)"/>
<path d="M503.595 72.4042L376.702 146.144L382.502 149.492L515.058 72.4576L483.98 54.5171L543.192 20.1072L537.391 16.7591L472.518 54.4567L503.595 72.4042Z" fill="url(#paint8_linear_758_32719)"/>
<path d="M355.153 133.702L360.851 136.99L473.747 71.3865L436.246 49.7315L515.119 3.89616L509.421 0.608475L424.787 49.7919L462.287 71.4482L355.153 133.702Z" fill="url(#paint9_linear_758_32719)"/>
<path d="M551.752 275.882L438.856 210.271L444.657 206.922L551.79 269.183L589.187 247.588L673.822 296.772L668.124 300.068L589.252 254.227L551.752 275.882Z" fill="url(#paint10_linear_758_32719)"/>
<path d="M417.205 222.773L423.006 219.424L549.901 293.164L580.978 275.223L645.851 312.922L640.051 316.272L580.839 281.862L549.762 299.802L417.205 222.773Z" fill="url(#paint11_linear_758_32719)"/>
<path d="M402.703 231.147L594.471 342.591L588.773 345.881L397.005 234.435L402.703 231.147Z" fill="url(#paint12_linear_758_32719)"/>
<path d="M503.595 319.898L376.702 246.158L382.502 242.808L515.058 319.843L483.98 337.783L543.192 372.193L537.391 375.543L472.518 337.845L503.595 319.898Z" fill="url(#paint13_linear_758_32719)"/>
<path d="M355.153 258.6L360.851 255.31L473.747 320.915L436.246 342.57L515.119 388.404L509.421 391.693L424.787 342.51L462.287 320.854L355.153 258.6Z" fill="url(#paint14_linear_758_32719)"/>
<path d="M122.07 116.42L234.966 182.031L229.165 185.38L122.032 123.119L84.6348 144.712L0 95.529L5.69801 92.2343L84.5703 138.075L122.07 116.42Z" fill="url(#paint15_linear_758_32719)"/>
<path d="M256.617 169.529L250.816 172.877L123.921 99.1367L92.8442 117.077L27.9706 79.3797L33.7711 76.0302L92.9832 110.44L124.06 92.4996L256.617 169.529Z" fill="url(#paint16_linear_758_32719)"/>
<path d="M271.119 161.155L79.351 49.709L85.049 46.4214L276.817 157.866L271.119 161.155Z" fill="url(#paint17_linear_758_32719)"/>
<path d="M170.227 72.4042L297.12 146.144L291.32 149.492L158.764 72.4576L189.842 54.5171L130.63 20.1072L136.431 16.7591L201.304 54.4567L170.227 72.4042Z" fill="url(#paint18_linear_758_32719)"/>
<path d="M318.667 133.702L312.971 136.99L200.075 71.3865L237.574 49.7315L158.703 3.89616L164.4 0.608475L249.035 49.7919L211.535 71.4482L318.667 133.702Z" fill="url(#paint19_linear_758_32719)"/>
<defs>
<linearGradient id="paint0_linear_758_32719" x1="117.483" y1="206.922" x2="117.483" y2="300.068" gradientUnits="userSpaceOnUse">
<stop stop-color="#033AA7"/>
<stop offset="1" stop-color="#033AA7" stop-opacity="0"/>
</linearGradient>
<linearGradient id="paint1_linear_758_32719" x1="142.294" y1="219.424" x2="142.294" y2="316.272" gradientUnits="userSpaceOnUse">
<stop stop-color="#033AA7"/>
<stop offset="1" stop-color="#033AA7" stop-opacity="0"/>
</linearGradient>
<linearGradient id="paint2_linear_758_32719" x1="178.084" y1="231.147" x2="178.084" y2="345.881" gradientUnits="userSpaceOnUse">
<stop stop-color="#033AA7"/>
<stop offset="1" stop-color="#033AA7" stop-opacity="0"/>
</linearGradient>
<linearGradient id="paint3_linear_758_32719" x1="213.875" y1="242.808" x2="213.875" y2="375.543" gradientUnits="userSpaceOnUse">
<stop stop-color="#033AA7"/>
<stop offset="1" stop-color="#033AA7" stop-opacity="0"/>
</linearGradient>
<linearGradient id="paint4_linear_758_32719" x1="238.685" y1="255.31" x2="238.685" y2="391.693" gradientUnits="userSpaceOnUse">
<stop stop-color="#033AA7"/>
<stop offset="1" stop-color="#033AA7" stop-opacity="0"/>
</linearGradient>
<linearGradient id="paint5_linear_758_32719" x1="556.339" y1="92.2343" x2="556.339" y2="185.38" gradientUnits="userSpaceOnUse">
<stop stop-color="#034CC4" stop-opacity="0"/>
<stop offset="1" stop-color="#033AA7"/>
</linearGradient>
<linearGradient id="paint6_linear_758_32719" x1="531.528" y1="76.0302" x2="531.528" y2="172.877" gradientUnits="userSpaceOnUse">
<stop stop-color="#034CC4" stop-opacity="0"/>
<stop offset="1" stop-color="#033AA7"/>
</linearGradient>
<linearGradient id="paint7_linear_758_32719" x1="495.738" y1="46.4214" x2="495.738" y2="161.155" gradientUnits="userSpaceOnUse">
<stop stop-color="#034CC4" stop-opacity="0"/>
<stop offset="1" stop-color="#033AA7"/>
</linearGradient>
<linearGradient id="paint8_linear_758_32719" x1="459.947" y1="16.7591" x2="459.947" y2="149.492" gradientUnits="userSpaceOnUse">
<stop stop-color="#034CC4" stop-opacity="0"/>
<stop offset="1" stop-color="#033AA7"/>
</linearGradient>
<linearGradient id="paint9_linear_758_32719" x1="435.136" y1="0.608475" x2="435.136" y2="136.99" gradientUnits="userSpaceOnUse">
<stop stop-color="#034CC4" stop-opacity="0"/>
<stop offset="1" stop-color="#033AA7"/>
</linearGradient>
<linearGradient id="paint10_linear_758_32719" x1="556.339" y1="206.922" x2="556.339" y2="300.068" gradientUnits="userSpaceOnUse">
<stop stop-color="#033AA7"/>
<stop offset="1" stop-color="#0746C1"/>
</linearGradient>
<linearGradient id="paint11_linear_758_32719" x1="531.528" y1="219.424" x2="531.528" y2="316.272" gradientUnits="userSpaceOnUse">
<stop stop-color="#033AA7"/>
<stop offset="1" stop-color="#0746C1"/>
</linearGradient>
<linearGradient id="paint12_linear_758_32719" x1="495.738" y1="231.147" x2="495.738" y2="345.881" gradientUnits="userSpaceOnUse">
<stop stop-color="#033AA7"/>
<stop offset="1" stop-color="#0746C1"/>
</linearGradient>
<linearGradient id="paint13_linear_758_32719" x1="459.947" y1="242.808" x2="459.947" y2="375.543" gradientUnits="userSpaceOnUse">
<stop stop-color="#033AA7"/>
<stop offset="1" stop-color="#0746C1"/>
</linearGradient>
<linearGradient id="paint14_linear_758_32719" x1="435.136" y1="255.31" x2="435.136" y2="391.693" gradientUnits="userSpaceOnUse">
<stop stop-color="#033AA7"/>
<stop offset="1" stop-color="#0746C1"/>
</linearGradient>
<linearGradient id="paint15_linear_758_32719" x1="117.483" y1="92.2343" x2="117.483" y2="185.38" gradientUnits="userSpaceOnUse">
<stop stop-color="#033AA7" stop-opacity="0"/>
<stop offset="1" stop-color="#033AA7"/>
</linearGradient>
<linearGradient id="paint16_linear_758_32719" x1="142.294" y1="76.0302" x2="142.294" y2="172.877" gradientUnits="userSpaceOnUse">
<stop stop-color="#033AA7" stop-opacity="0"/>
<stop offset="1" stop-color="#033AA7"/>
</linearGradient>
<linearGradient id="paint17_linear_758_32719" x1="178.084" y1="46.4214" x2="178.084" y2="161.155" gradientUnits="userSpaceOnUse">
<stop stop-color="#033AA7" stop-opacity="0"/>
<stop offset="1" stop-color="#033AA7"/>
</linearGradient>
<linearGradient id="paint18_linear_758_32719" x1="213.875" y1="16.7591" x2="213.875" y2="149.492" gradientUnits="userSpaceOnUse">
<stop stop-color="#033AA7" stop-opacity="0"/>
<stop offset="1" stop-color="#033AA7"/>
</linearGradient>
<linearGradient id="paint19_linear_758_32719" x1="238.685" y1="0.608475" x2="238.685" y2="136.99" gradientUnits="userSpaceOnUse">
<stop stop-color="#033AA7" stop-opacity="0"/>
<stop offset="1" stop-color="#033AA7"/>
</linearGradient>
</defs>
</svg>
