<svg width="393" height="545" viewBox="0 0 393 545" fill="none" xmlns="http://www.w3.org/2000/svg">
<path d="M385.717 420.594L213.382 321.094C203.933 315.64 188.567 315.597 179.104 321.094L7.96434 420.55C-1.50005 426.054 -1.37372 434.95 8.07523 440.405L180.412 539.905C189.938 545.402 205.226 545.402 214.69 539.905L385.83 440.449C395.294 434.952 395.244 426.092 385.717 420.594ZM382.127 434.065L210.977 533.512C203.856 537.667 191.287 537.653 184.101 533.505L11.7686 434.006C9.04105 432.433 8.31247 430.975 8.31247 430.427C8.31247 429.901 9.01298 428.486 11.6816 426.936L182.817 327.487C186.381 325.409 191.294 324.385 196.222 324.385C201.149 324.385 206.092 325.416 209.684 327.494L382.024 426.994C384.578 428.465 385.501 429.937 385.501 430.565C385.503 431.178 384.608 432.621 382.127 434.065Z" fill="white"/>
<path d="M392.269 403.935C392.269 407.333 390.12 410.712 385.48 413.45C385.48 413.45 385.479 413.45 385.479 413.45L214.31 512.804L214.307 512.805C209.671 515.54 203.577 516.921 197.456 516.921C191.336 516.921 185.241 515.54 180.604 512.805L180.6 512.803L8.21963 413.332C8.21913 413.332 8.21862 413.332 8.21811 413.331C3.56965 410.59 1.30792 407.208 1.30774 403.812C1.30774 403.812 1.30774 403.812 1.30774 403.812L1.42164 335.006C2.58457 337.368 4.75147 339.567 7.83068 341.386L7.83066 341.386L7.83511 341.388L180.221 440.861C185.046 443.646 191.325 445.024 197.576 445.024C203.828 445.024 210.106 443.646 214.932 440.861L214.933 440.86L386.105 341.388L386.108 341.386C389.143 339.592 391.244 337.48 392.384 335.222L392.269 403.934V403.935Z" stroke="white"/>
<path d="M385.467 321.526C390.141 324.224 392.375 327.676 392.394 331.023C392.413 334.37 390.218 337.819 385.577 340.516L214.437 439.971C209.799 442.666 203.703 444.028 197.573 444.028C191.442 444.028 185.33 442.666 180.661 439.97L8.32499 340.472C3.69132 337.797 1.4547 334.345 1.42702 330.99C1.39936 327.637 3.57598 324.178 8.21532 321.482L179.355 222.027C183.992 219.332 190.107 217.981 196.248 217.986C202.389 217.991 208.501 219.353 213.132 222.028L213.382 221.595L213.132 222.028L385.467 321.526Z" stroke="white"/>
<path d="M385.828 330.736L214.689 430.194C205.224 435.693 189.937 435.693 180.411 430.194L8.07517 330.692C5.58062 329.256 3.83009 327.564 2.63968 325.77C-0.817873 330.837 1.01688 336.828 8.07517 340.907L180.411 440.401C189.937 445.9 205.224 445.9 214.689 440.401L385.828 340.951C392.811 336.888 394.532 331.015 391.172 326.001C389.996 327.726 388.234 329.342 385.828 330.736Z" fill="white"/>
<path d="M257.888 447.463L257.986 473.847L267.616 468.288L267.518 441.902L257.888 447.463Z" fill="white"/>
<path d="M239.175 458.266L239.272 484.652L248.951 479.063L248.854 452.678L239.175 458.266Z" fill="white"/>
<path d="M220.512 469.042L220.608 495.426L230.238 489.867L230.14 463.483L220.512 469.042Z" fill="white"/>
<path d="M337.87 383.457C334.511 385.394 331.814 390.112 331.825 393.97C331.837 397.786 334.55 399.376 337.911 397.437C341.272 395.5 343.967 390.782 343.956 386.966C343.944 383.107 341.231 381.509 337.87 383.457Z" fill="#09E4A8"/>
<path d="M355.902 373.045C352.541 374.982 349.805 379.725 349.815 383.584C349.826 387.4 352.581 388.965 355.941 387.026C359.26 385.114 361.997 380.371 361.986 376.555C361.976 372.696 359.222 371.124 355.902 373.045Z" fill="white"/>
<path d="M373.893 362.658C370.532 364.595 367.837 369.313 367.848 373.171C367.86 376.986 370.572 378.577 373.932 376.638C377.293 374.701 379.99 369.983 379.979 366.167C379.966 362.31 377.252 360.712 373.893 362.658Z" fill="#09E4A8"/>
<path d="M392.269 295.193C392.269 298.591 390.12 301.97 385.48 304.707C385.48 304.708 385.479 304.708 385.479 304.708L214.31 404.061L214.307 404.063C209.671 406.797 203.577 408.179 197.456 408.179C191.336 408.179 185.241 406.797 180.604 404.063L180.6 404.061L8.21963 304.59C8.21913 304.59 8.21862 304.59 8.21811 304.589C3.56965 301.848 1.30792 298.466 1.30774 295.07C1.30774 295.07 1.30774 295.069 1.30774 295.069L1.42164 226.263C2.58457 228.626 4.75147 230.824 7.83068 232.643L7.83066 232.643L7.83511 232.646L180.221 332.119C185.046 334.903 191.325 336.282 197.576 336.282C203.828 336.282 210.106 334.903 214.932 332.119L214.933 332.118L386.105 232.645L386.108 232.643C389.143 230.849 391.244 228.736 392.384 226.479L392.269 295.192V295.193Z" stroke="white"/>
<path d="M385.467 212.782C390.141 215.481 392.375 218.932 392.394 222.28C392.413 225.626 390.218 229.075 385.577 231.772L214.437 331.227C209.799 333.922 203.703 335.284 197.573 335.284C191.442 335.284 185.33 333.922 180.661 331.226L8.32499 231.728C3.69132 229.053 1.4547 225.601 1.42702 222.246C1.39936 218.893 3.57598 215.434 8.21532 212.738L179.355 113.283C183.992 110.588 190.107 109.237 196.248 109.242C202.389 109.248 208.501 110.61 213.132 113.284L213.382 112.851L213.132 113.284L385.467 212.782Z" stroke="white"/>
<path d="M385.828 221.992L214.689 321.451C205.224 326.95 189.937 326.95 180.411 321.451L8.07517 221.948C5.58062 220.512 3.83009 218.821 2.63968 217.027C-0.817873 222.092 1.01688 228.084 8.07517 232.164L180.411 331.658C189.937 337.157 205.224 337.157 214.689 331.658L385.828 232.207C392.811 228.145 394.532 222.271 391.172 217.257C389.996 218.984 388.234 220.598 385.828 221.992Z" fill="white"/>
<path d="M257.888 338.719L257.986 365.103L267.616 359.544L267.518 333.159L257.888 338.719Z" fill="white"/>
<path d="M239.175 349.523L239.272 375.908L248.951 370.32L248.854 343.934L239.175 349.523Z" fill="white"/>
<path d="M220.512 360.298L220.608 386.684L230.238 381.123L230.14 354.739L220.512 360.298Z" fill="white"/>
<path d="M337.87 274.713C334.511 276.65 331.814 281.368 331.825 285.226C331.837 289.043 334.55 290.632 337.911 288.693C341.272 286.756 343.967 282.038 343.956 278.222C343.944 274.365 341.231 272.766 337.87 274.713Z" fill="#09E4A8"/>
<path d="M355.902 264.301C352.541 266.238 349.805 270.982 349.815 274.841C349.826 278.656 352.581 280.221 355.941 278.283C359.26 276.371 361.997 271.627 361.986 267.812C361.976 263.953 359.222 262.381 355.902 264.301Z" fill="white"/>
<path d="M373.893 253.916C370.532 255.853 367.837 260.571 367.848 264.429C367.86 268.244 370.572 269.835 373.932 267.896C377.293 265.959 379.99 261.241 379.979 257.425C379.966 253.566 377.252 251.969 373.893 253.916Z" fill="#09E4A8"/>
<path d="M392.269 186.449C392.269 189.847 390.12 193.226 385.48 195.964C385.48 195.964 385.479 195.964 385.479 195.964L214.31 295.318L214.307 295.319C209.671 298.054 203.577 299.435 197.456 299.435C191.336 299.435 185.241 298.054 180.604 295.319L180.6 295.317L8.21963 195.846C8.21913 195.846 8.21862 195.846 8.21811 195.846C3.56965 193.104 1.30792 189.722 1.30774 186.326C1.30774 186.326 1.30774 186.326 1.30774 186.326L1.42164 117.52C2.58457 119.882 4.75147 122.081 7.83068 123.9L7.83066 123.9L7.83511 123.902L180.221 223.375C185.046 226.16 191.325 227.538 197.576 227.538C203.828 227.538 210.106 226.16 214.932 223.375L214.933 223.375L386.105 123.902L386.108 123.9C389.143 122.106 391.244 119.993 392.384 117.736L392.269 186.448V186.449Z" stroke="white"/>
<path d="M385.467 104.04C390.141 106.738 392.376 110.19 392.394 113.537C392.413 116.884 390.218 120.333 385.577 123.03L214.438 222.485C209.799 225.18 203.703 226.542 197.573 226.543C191.443 226.543 185.331 225.181 180.661 222.484L180.411 222.917L180.661 222.484L8.32523 122.986C3.69156 120.311 1.45494 116.859 1.42726 113.504C1.39961 110.151 3.57622 106.692 8.21557 103.996L179.355 4.54105C183.993 1.84605 190.107 0.494633 196.248 0.500016C202.389 0.505399 208.501 1.86751 213.132 4.54174L213.382 4.10875L213.132 4.54176L385.467 104.04Z" stroke="white"/>
<path d="M197.705 182.631L81.0061 115.251L196.088 48.3769L312.796 115.757L197.705 182.631Z" stroke="white"/>
<mask id="path-23-inside-1_1067_1436" fill="white">
<path d="M385.828 113.248L214.689 212.707C205.224 218.206 189.937 218.206 180.411 212.707L8.07517 113.206C5.58062 111.77 3.83009 110.078 2.63968 108.284C-0.817873 113.351 1.01688 119.342 8.07517 123.422L180.411 222.916C189.937 228.414 205.224 228.414 214.689 222.916L385.828 123.465C392.811 119.402 394.532 113.529 391.172 108.515C389.996 110.24 388.234 111.854 385.828 113.248Z"/>
</mask>
<path d="M385.828 113.248L214.689 212.707C205.224 218.206 189.937 218.206 180.411 212.707L8.07517 113.206C5.58062 111.77 3.83009 110.078 2.63968 108.284C-0.817873 113.351 1.01688 119.342 8.07517 123.422L180.411 222.916C189.937 228.414 205.224 228.414 214.689 222.916L385.828 123.465C392.811 119.402 394.532 113.529 391.172 108.515C389.996 110.24 388.234 111.854 385.828 113.248Z" fill="white"/>
<path d="M385.828 113.248L380.695 104.388L380.683 104.395L385.828 113.248ZM214.689 212.707L219.833 221.561L219.834 221.561L214.689 212.707ZM180.411 212.707L175.291 221.575L175.292 221.576L180.411 212.707ZM8.07517 113.206L13.1953 104.338L13.1841 104.332L8.07517 113.206ZM2.63968 108.284L11.1722 102.623L2.75912 89.9437L-5.81836 102.512L2.63968 108.284ZM8.07517 123.422L2.95109 132.287L2.95532 132.29L8.07517 123.422ZM180.411 222.916L175.291 231.784L175.292 231.784L180.411 222.916ZM214.689 222.916L219.833 231.77L219.834 231.769L214.689 222.916ZM385.828 123.465L390.973 132.319L390.978 132.316L385.828 123.465ZM391.172 108.515L399.68 102.815L391.247 90.2282L382.712 102.746L391.172 108.515ZM380.683 104.395L209.543 203.854L219.834 221.561L390.973 122.102L380.683 104.395ZM209.545 203.853C206.737 205.484 202.432 206.591 197.573 206.591C192.717 206.591 188.383 205.486 185.53 203.839L175.292 221.576C181.965 225.428 190.038 227.071 197.573 227.071C205.105 227.071 213.176 225.429 219.833 221.561L209.545 203.853ZM185.531 203.839L13.1953 104.338L2.95505 122.074L175.291 221.575L185.531 203.839ZM13.1841 104.332C11.9433 103.617 11.4117 102.984 11.1722 102.623L-5.89282 113.946C-3.75147 117.173 -0.782085 119.923 2.96622 122.081L13.1841 104.332ZM-5.81836 102.512C-9.21643 107.491 -10.3154 113.607 -8.26882 119.555C-6.32913 125.192 -2.01847 129.415 2.95109 132.287L13.1992 114.556C11.1105 113.349 10.9747 112.536 11.0968 112.891C11.1659 113.092 11.2133 113.412 11.1608 113.756C11.1108 114.084 11.0088 114.187 11.0977 114.057L-5.81836 102.512ZM2.95532 132.29L175.291 231.784L185.531 214.047L13.195 114.553L2.95532 132.29ZM175.292 231.784C181.965 235.636 190.038 237.28 197.573 237.28C205.105 237.28 213.176 235.637 219.833 231.77L209.545 214.061C206.737 215.693 202.432 216.8 197.573 216.8C192.717 216.8 188.383 215.694 185.53 214.047L175.292 231.784ZM219.834 231.769L390.973 132.319L380.683 114.611L209.544 214.062L219.834 231.769ZM390.978 132.316C395.904 129.45 400.171 125.251 402.076 119.637C404.08 113.729 402.958 107.708 399.68 102.815L382.665 114.214C382.759 114.354 382.663 114.263 382.614 113.944C382.563 113.607 382.606 113.28 382.681 113.057C382.82 112.648 382.735 113.418 380.679 114.614L390.978 132.316ZM382.712 102.746C382.547 102.987 382.022 103.619 380.695 104.388L390.961 122.109C394.446 120.09 397.445 117.492 399.633 114.283L382.712 102.746Z" fill="white" mask="url(#path-23-inside-1_1067_1436)"/>
<mask id="path-25-inside-2_1067_1436" fill="white">
<path d="M257.888 229.975L257.986 256.361L267.616 250.801L267.518 224.416L257.888 229.975Z"/>
</mask>
<path d="M257.888 229.975L257.986 256.361L267.616 250.801L267.518 224.416L257.888 229.975Z" fill="#2D3C58"/>
<path d="M257.888 229.975L252.768 221.107L247.626 224.076L247.648 230.013L257.888 229.975ZM257.986 256.361L247.746 256.399L247.812 274.06L263.106 265.229L257.986 256.361ZM267.616 250.801L272.736 259.668L277.878 256.7L277.856 250.762L267.616 250.801ZM267.518 224.416L277.758 224.378L277.692 206.719L262.398 215.548L267.518 224.416ZM247.648 230.013L247.746 256.399L268.226 256.323L268.128 229.937L247.648 230.013ZM263.106 265.229L272.736 259.668L262.496 241.933L252.866 247.493L263.106 265.229ZM277.856 250.762L277.758 224.378L257.278 224.454L257.376 250.839L277.856 250.762ZM262.398 215.548L252.768 221.107L263.007 238.844L272.637 233.285L262.398 215.548Z" fill="white" mask="url(#path-25-inside-2_1067_1436)"/>
<mask id="path-27-inside-3_1067_1436" fill="white">
<path d="M239.175 240.78L239.272 267.165L248.951 261.576L248.854 235.192L239.175 240.78Z"/>
</mask>
<path d="M239.175 240.78L239.272 267.165L248.951 261.576L248.854 235.192L239.175 240.78Z" fill="#2D3C58"/>
<path d="M239.175 240.78L234.055 231.912L228.913 234.881L228.935 240.818L239.175 240.78ZM239.272 267.165L229.032 267.202L229.097 284.864L244.392 276.033L239.272 267.165ZM248.951 261.576L254.071 270.444L259.213 267.476L259.191 261.539L248.951 261.576ZM248.854 235.192L259.094 235.154L259.029 217.493L243.734 226.324L248.854 235.192ZM228.935 240.818L229.032 267.202L249.512 267.127L249.415 240.743L228.935 240.818ZM244.392 276.033L254.071 270.444L243.831 252.708L234.152 258.297L244.392 276.033ZM259.191 261.539L259.094 235.154L238.614 235.229L238.711 261.614L259.191 261.539ZM243.734 226.324L234.055 231.912L244.295 249.648L253.974 244.06L243.734 226.324Z" fill="white" mask="url(#path-27-inside-3_1067_1436)"/>
<mask id="path-29-inside-4_1067_1436" fill="white">
<path d="M220.512 251.556L220.608 277.94L230.238 272.381L230.14 245.995L220.512 251.556Z"/>
</mask>
<path d="M220.512 251.556L220.608 277.94L230.238 272.381L230.14 245.995L220.512 251.556Z" fill="#2D3C58"/>
<path d="M220.512 251.556L215.391 242.688L210.25 245.657L210.272 251.593L220.512 251.556ZM220.608 277.94L210.369 277.978L210.433 295.638L225.728 286.809L220.608 277.94ZM230.238 272.381L235.358 281.25L240.501 278.281L240.478 272.343L230.238 272.381ZM230.14 245.995L240.38 245.957L240.314 228.295L225.019 237.128L230.14 245.995ZM210.272 251.593L210.369 277.978L230.848 277.903L230.752 251.518L210.272 251.593ZM225.728 286.809L235.358 281.25L225.119 263.513L215.489 269.072L225.728 286.809ZM240.478 272.343L240.38 245.957L219.9 246.034L219.999 272.419L240.478 272.343ZM225.019 237.128L215.391 242.688L225.633 260.423L235.261 254.863L225.019 237.128Z" fill="white" mask="url(#path-29-inside-4_1067_1436)"/>
<path d="M337.87 165.969C334.511 167.906 331.814 172.625 331.826 176.482C331.837 180.298 334.55 181.888 337.911 179.95C341.272 178.012 343.967 173.294 343.956 169.479C343.945 165.621 341.231 164.024 337.87 165.969Z" fill="#09E4A8"/>
<path d="M355.902 155.557C352.542 157.495 349.806 162.238 349.815 166.097C349.827 169.912 352.581 171.478 355.942 169.539C359.26 167.627 361.997 162.884 361.986 159.068C361.976 155.209 359.222 153.637 355.902 155.557Z" fill="white"/>
<path d="M373.893 145.172C370.532 147.109 367.837 151.827 367.848 155.685C367.86 159.501 370.572 161.091 373.932 159.152C377.293 157.215 379.99 152.497 379.979 148.681C379.966 144.824 377.252 143.225 373.893 145.172Z" fill="#09E4A8"/>
</svg>
