<svg width="248" height="13" viewBox="0 0 248 13" fill="none" xmlns="http://www.w3.org/2000/svg">
<path d="M118.304 3.8159C116.14 2.34825 123.513 3.87905 126.117 3.91894C135.696 4.06567 145.243 3.73724 154.819 3.44895C179.429 2.70803 204.067 2.81446 228.684 2.51727C234.435 2.44785 240.151 2.50113 245.891 2.76896C247.959 2.86548 241.754 2.5507 239.683 2.52583C200.812 2.05903 161.795 4.73046 122.936 5.74889C85.4734 6.73076 47.9945 7.29163 10.5358 8.45585C7.8729 8.53861 -0.0345721 8.46058 2.56289 9.04941C10.0209 10.7401 19.2147 10.5874 26.6387 10.7577C75.2897 11.8741 124.135 9.09372 172.798 8.47288C192.126 8.22629 211.458 7.83336 230.784 7.60513" stroke="white" stroke-width="3" stroke-linecap="round"/>
</svg>
