<svg width="20" height="20" viewBox="0 0 20 20" fill="none" xmlns="http://www.w3.org/2000/svg">
<g clip-path="url(#clip0_361_4087)">
<path d="M10 0C8.02219 0 6.08879 0.58649 4.4443 1.6853C2.79981 2.78412 1.51809 4.3459 0.761209 6.17317C0.00433286 8.00043 -0.193701 10.0111 0.192152 11.9509C0.578004 13.8907 1.53041 15.6725 2.92894 17.0711C4.32746 18.4696 6.10929 19.422 8.0491 19.8079C9.98891 20.1937 11.9996 19.9957 13.8268 19.2388C15.6541 18.4819 17.2159 17.2002 18.3147 15.5557C19.4135 13.9112 20 11.9778 20 10C19.9971 7.34872 18.9426 4.80684 17.0679 2.9321C15.1932 1.05736 12.6513 0.00286757 10 0V0ZM18.3333 10C18.3343 11.6331 17.8525 13.23 16.9483 14.59L15.955 13.5958C15.8771 13.5177 15.8334 13.412 15.8333 13.3017V12.5C15.8333 11.837 15.5699 11.2011 15.1011 10.7322C14.6323 10.2634 13.9964 10 13.3333 10H10.8333C10.6123 10 10.4004 9.9122 10.2441 9.75592C10.0878 9.59964 10 9.38768 10 9.16667V8.75C10 8.63949 10.0439 8.53351 10.122 8.45537C10.2002 8.37723 10.3062 8.33333 10.4167 8.33333C10.9692 8.33333 11.4991 8.11384 11.8898 7.72314C12.2805 7.33244 12.5 6.80253 12.5 6.25V5.41667C12.5 5.30616 12.5439 5.20018 12.622 5.12204C12.7002 5.0439 12.8062 5 12.9167 5H14.0658C14.6178 4.99843 15.1469 4.77924 15.5383 4.39L15.8525 4.07583C16.6385 4.84923 17.2626 5.77137 17.6886 6.78848C18.1145 7.80558 18.3337 8.89731 18.3333 10ZM1.7075 10.8025L4.33917 13.4342C4.57076 13.6672 4.84632 13.852 5.14988 13.9778C5.45343 14.1035 5.77894 14.1677 6.1075 14.1667H8.33334C8.55435 14.1667 8.76631 14.2545 8.92259 14.4107C9.07887 14.567 9.16667 14.779 9.16667 15V18.2908C7.25017 18.0952 5.46033 17.2426 4.10078 15.8778C2.74122 14.5129 1.89565 12.7198 1.7075 10.8025ZM10.8333 18.2908V15C10.8333 14.337 10.5699 13.7011 10.1011 13.2322C9.63226 12.7634 8.99638 12.5 8.33334 12.5H6.1075C5.99794 12.5001 5.88943 12.4786 5.78819 12.4367C5.68695 12.3948 5.59497 12.3333 5.5175 12.2558L1.8025 8.54083C2.04098 7.18517 2.61229 5.90991 3.46515 4.82948C4.31802 3.74906 5.42576 2.89726 6.689 2.35051C7.95224 1.80377 9.33145 1.57918 10.7029 1.6969C12.0743 1.81462 13.3951 2.27097 14.5467 3.025L14.36 3.21167C14.2816 3.28902 14.176 3.33268 14.0658 3.33333H12.9167C12.3641 3.33333 11.8342 3.55283 11.4435 3.94353C11.0528 4.33423 10.8333 4.86413 10.8333 5.41667V6.25C10.8333 6.36051 10.7894 6.46649 10.7113 6.54463C10.6332 6.62277 10.5272 6.66667 10.4167 6.66667C9.86414 6.66667 9.33423 6.88616 8.94353 7.27686C8.55283 7.66756 8.33334 8.19747 8.33334 8.75V9.16667C8.33334 9.82971 8.59673 10.4656 9.06557 10.9344C9.53441 11.4033 10.1703 11.6667 10.8333 11.6667H13.3333C13.5544 11.6667 13.7663 11.7545 13.9226 11.9107C14.0789 12.067 14.1667 12.279 14.1667 12.5V13.3017C14.1682 13.8537 14.3874 14.3828 14.7767 14.7742L15.8908 15.8883C14.5337 17.2502 12.7463 18.0992 10.8333 18.2908Z" fill="#FFC107"/>
</g>
<defs>
<clipPath id="clip0_361_4087">
<rect width="20" height="20" fill="white"/>
</clipPath>
</defs>
</svg>
