<svg width="26" height="24" viewBox="0 0 26 24" fill="none" xmlns="http://www.w3.org/2000/svg">
<path fill-rule="evenodd" clip-rule="evenodd" d="M15.5753 22.4063C15.5753 21.5262 14.849 20.8127 13.9532 20.8127H11.9668C11.5366 20.8127 11.124 20.9806 10.8198 21.2795C10.5156 21.5783 10.3447 21.9837 10.3447 22.4063C10.3447 23.2865 11.071 24 11.9668 24H13.9532C14.849 24 15.5753 23.2865 15.5753 22.4063ZM3.41015 18.297C3.6811 18.3173 4.00889 18.329 4.33816 18.31C4.51357 19.184 4.94935 19.9946 5.59983 20.6337C6.4634 21.4821 7.6346 21.9587 8.85583 21.9587H9.47477C9.44749 22.1054 9.43346 22.2552 9.43346 22.4063C9.43346 22.5592 9.44748 22.7088 9.47437 22.854H8.85583C7.39292 22.854 5.9899 22.283 4.95548 21.2668C4.13024 20.456 3.59346 19.4147 3.41015 18.297ZM2.94663 17.3443C2.2272 17.2252 1.55773 16.8892 1.03513 16.3757C0.372347 15.7245 0 14.8414 0 13.9205V11.8045C0 10.8837 0.372347 10.0005 1.03513 9.34934C1.69791 8.69819 2.59686 8.33232 3.53418 8.33232H3.76944C4.14548 3.66922 8.1166 0 12.96 0C17.8034 0 21.7745 3.66922 22.1506 8.33232H22.3858C23.3231 8.33232 24.2221 8.69819 24.8849 9.34934C25.5477 10.0005 25.92 10.8837 25.92 11.8045V13.9205C25.92 14.8414 25.5477 15.7245 24.8849 16.3757C24.2221 17.0269 23.3231 17.3927 22.3858 17.3927H21.3429C20.9104 17.3927 20.5597 17.0482 20.5597 16.6233V9.05793C20.5597 4.93437 17.1572 1.59157 12.96 1.59157C8.76278 1.59157 5.36028 4.93437 5.36028 9.05793V16.6233C5.36028 16.9233 5.18547 17.1833 4.93042 17.3101C4.22835 17.5495 3.13956 17.3763 2.94663 17.3443Z" fill="#FFC107"/>
</svg>
