<svg width="1316" height="437" viewBox="0 0 1316 437" fill="none" xmlns="http://www.w3.org/2000/svg">
<path d="M1490.87 -18.2189C1461.47 65.0615 1431.1 151.188 1377.27 224.322C1319.26 303.149 1237.04 355.252 1145.76 371.038C1122.5 375.07 1098.41 377.073 1073.43 377.073C1005.13 377.073 930.07 361.998 845.951 331.559C794.653 312.979 744.803 289.102 696.611 266.015C658.368 247.699 618.809 228.723 578.776 212.542C557.089 203.766 528.874 193.751 502.396 193.751C502.133 193.751 501.87 193.751 501.606 193.751C488.394 193.856 476.313 196.492 465.68 201.605C453.888 207.271 443.36 216.205 434.411 228.196C416.461 252.232 404.512 280.853 392.957 308.551C391.115 312.953 389.22 317.512 387.325 321.939C371.638 358.862 353.846 400.713 332.474 440.008C286.598 524.29 221.272 575.549 113.965 611.365C13.2125 644.994 -149.998 639.96 -249.856 600.112C-426.805 529.508 -456.731 479.724 -485.683 431.601C-493.921 417.896 -501.712 404.93 -512.845 391.674C-535.902 364.186 -528.006 334.063 -519.636 302.174C-516.372 289.708 -512.977 276.794 -511.293 263.59L-511.556 263.564C-513.24 276.768 -516.636 289.655 -519.899 302.121C-524.163 318.382 -528.19 333.746 -528.322 348.716C-528.453 365.556 -523.61 379.261 -513.056 391.858C-501.949 405.088 -494.158 418.054 -485.92 431.759C-471.707 455.399 -457.021 479.83 -423.7 507.265C-405.67 522.076 -384.035 536.334 -357.505 550.855C-327.579 567.248 -292.389 583.429 -249.961 600.375C-225.8 610.021 -197.453 617.796 -165.685 623.515C-134.943 629.049 -102.385 632.396 -68.9323 633.45C-35.3743 634.531 -2.65851 633.266 28.2938 629.682C60.4568 625.966 89.3036 619.878 114.018 611.629C167.053 593.918 207.612 573.705 241.617 547.982C278.597 520.02 308.391 484.758 332.658 440.14C354.056 400.845 371.822 358.968 387.536 322.045C389.404 317.617 391.326 313.058 393.168 308.657C404.722 280.984 416.645 252.363 434.596 228.381C471.812 178.571 525.847 191.458 578.671 212.832C618.704 229.013 658.263 247.962 696.506 266.279C744.698 289.365 794.548 313.269 845.872 331.849C899.17 351.14 947.493 363.975 993.58 371.064C1019.69 375.07 1045.3 377.205 1069.67 377.389C1095.86 377.6 1121.47 375.545 1145.81 371.354C1192.22 363.342 1235.99 346.265 1275.91 320.648C1314.74 295.743 1348.93 263.406 1377.51 224.533C1401.49 191.959 1422.96 153.692 1443.2 107.571C1461.5 65.8785 1476.58 23.1841 1491.13 -18.0872L1490.87 -18.2189Z" fill="url(#paint0_linear_1151_1635)" fill-opacity="0.1"/>
<path d="M1490.76 -4.0401C1453.02 80.0046 1417.25 149.264 1365.43 213.991C1307.97 285.913 1225.33 336.224 1132.68 355.7C1036.17 375.993 935.36 368.007 833.028 331.954C778.914 312.663 726.537 286.677 675.897 261.587C640.865 244.22 604.649 226.246 568.143 210.644C546.614 201.446 518.504 190.773 492.131 190.035C479.129 189.666 467.18 191.774 456.652 196.255C444.966 201.236 434.517 209.353 425.542 220.422C408.46 241.505 396.563 266.7 385.035 291.078C382.508 296.428 379.903 301.936 377.297 307.313C371.98 318.223 366.769 329.213 361.242 340.809C348.187 368.271 334.685 396.655 319.814 424.38C273.359 510.585 209.244 563.374 105.464 600.955C7.47467 636.428 -151.761 633.055 -249.461 593.47C-420.699 524.079 -450.23 475.059 -478.787 427.674C-486.841 414.312 -494.448 401.662 -505.186 388.669C-528.269 360.707 -521.294 330.083 -513.925 297.667C-511.082 285.148 -508.134 272.208 -506.818 258.978L-507.134 258.952C-508.476 272.156 -511.398 285.096 -514.24 297.614C-521.61 330.083 -528.585 360.786 -505.423 388.88C-494.711 401.846 -487.104 414.47 -479.051 427.832C-464.996 451.156 -450.467 475.27 -418.014 502.257C-400.485 516.831 -379.456 530.852 -353.741 545.11C-324.736 561.212 -290.652 577.131 -249.566 593.76C-197.137 615.028 -127.021 625.834 -58.1674 625.834C1.42108 625.834 60.0883 617.743 105.596 601.271C130.731 592.179 152.761 582.533 172.975 571.833C194.32 560.527 213.139 548.246 230.537 534.331C266.542 505.499 295.837 469.604 320.104 424.564C334.974 396.813 348.477 368.429 361.531 340.967C367.058 329.345 372.27 318.382 377.586 307.471C380.192 302.094 382.798 296.586 385.325 291.236C396.826 266.885 408.723 241.69 425.778 220.633C463.074 174.617 516.188 188.77 568.012 210.934C604.491 226.536 640.708 244.483 675.74 261.851C726.379 286.967 778.756 312.926 832.896 332.244C935.281 368.297 1036.17 376.309 1132.73 355.99C1179.24 346.212 1222.96 328.976 1262.65 304.783C1302.26 280.642 1336.9 250.15 1365.67 214.176C1390.8 182.787 1413.83 148.052 1436.07 107.967C1458.1 68.2768 1477.03 27.3218 1491.05 -3.90833L1490.76 -4.0401Z" fill="url(#paint1_linear_1151_1635)" fill-opacity="0.1"/>
<path d="M1490.69 10.1385C1449.65 82.1392 1406.12 143.651 1353.61 203.66C1296.47 269.309 1215.54 316.563 1119.6 340.361C1011.11 367.269 913.146 364.634 820.078 332.349C763.227 312.636 708.534 284.437 655.657 257.213C623.705 240.741 590.673 223.742 557.51 208.746C536.322 199.18 508.686 188.005 482.682 186.345C480.419 186.213 478.181 186.134 475.997 186.134C451.94 186.134 432.49 194.858 416.698 212.7C400.379 231.122 388.562 253.259 377.113 274.659C373.928 280.615 370.638 286.782 367.295 292.765C356.346 312.399 345.476 333.931 333.948 356.754C325.341 373.831 316.419 391.463 307.18 408.857C260.462 496.881 197.61 551.25 97.0414 590.598C1.78931 627.889 -153.446 626.203 -249.014 586.855C-414.593 518.676 -443.729 470.395 -471.918 423.721C-479.788 410.701 -487.21 398.394 -497.527 385.665C-520.61 357.202 -514.609 326.077 -508.266 293.107C-505.845 280.536 -503.344 267.544 -502.344 254.314L-502.686 254.287C-503.66 267.517 -506.16 280.51 -508.582 293.055C-514.951 326.103 -520.979 357.307 -497.791 385.902C-487.5 398.578 -480.077 410.886 -472.208 423.905C-458.311 446.939 -443.94 470.737 -412.356 497.276C-395.301 511.613 -374.903 525.37 -349.978 539.391C-321.868 555.177 -288.889 570.832 -249.146 587.198C-225.721 596.844 -198.453 604.408 -168.054 609.705C-138.707 614.818 -107.702 617.558 -75.9073 617.927C-44.1128 618.27 -13.1341 616.188 16.1864 611.734C46.5597 607.122 73.8008 600.138 97.173 590.967C121.651 581.374 143.233 571.227 163.157 559.895C183.976 548.035 202.4 535.253 219.508 520.758C254.593 491.057 283.387 454.503 307.549 409.015C316.787 391.621 325.683 373.963 334.316 356.912C345.818 334.115 356.715 312.557 367.637 292.949C370.98 286.967 374.27 280.8 377.455 274.844C388.878 253.444 400.722 231.332 416.987 212.963C454.362 170.743 506.554 186.161 557.378 209.115C590.515 224.085 623.547 241.11 655.499 257.555C708.402 284.806 763.095 312.979 819.973 332.718C844.424 341.205 869.586 347.714 894.722 352.089C919.094 356.332 944.23 358.678 969.444 359.073C993.764 359.468 1018.98 358.045 1044.35 354.883C1068.7 351.852 1094.04 347.082 1119.68 340.73C1166.5 329.108 1210.17 311.714 1249.44 289.049C1289.92 265.672 1325.03 237.025 1353.85 203.924C1406.36 143.888 1449.92 82.3763 1490.95 10.3493L1490.69 10.1385Z" fill="url(#paint2_linear_1151_1635)" fill-opacity="0.1"/>
<path d="M1490.58 24.3173C1449.05 81.5594 1401.12 131.501 1345.61 189.323L1341.77 193.329C1285.78 252.073 1206.64 296.375 1106.52 325.023C1054.35 339.966 996.054 353.249 933.939 353.249C893.117 353.249 850.662 347.503 807.156 332.718C748.041 312.636 691.479 282.381 636.76 253.101C607.466 237.447 577.198 221.239 546.93 206.823C526.11 196.913 498.948 185.212 473.26 182.629C446.545 179.941 425.173 187.215 407.907 204.925C392.273 220.975 380.508 240.319 369.138 259.057C365.322 265.33 361.4 271.813 357.347 278.138C341.318 303.122 325.42 333.852 308.576 366.399C304.022 375.176 299.337 384.268 294.626 393.228C248.013 482.043 184.477 539.733 88.5931 580.24C-3.94803 619.324 -155.209 619.324 -248.566 580.24C-408.486 513.3 -437.228 465.756 -465.022 419.794C-472.681 407.117 -479.945 395.126 -489.842 382.713C-512.951 353.776 -507.897 322.124 -502.554 288.627C-500.554 276.003 -498.475 262.984 -497.843 249.728L-498.238 249.702C-498.869 262.932 -500.949 275.977 -502.949 288.574C-508.318 322.15 -513.372 353.855 -490.157 382.95C-480.261 395.363 -473.023 407.328 -465.364 420.005C-451.625 442.749 -437.412 466.231 -406.697 492.322C-390.115 506.395 -370.322 519.915 -346.187 533.698C-318.998 549.195 -287.125 564.559 -248.724 580.636C-203.269 599.664 -143.286 610.153 -79.7759 610.153C-79.6443 610.153 -79.5391 610.153 -79.4075 610.153C-48.5078 610.126 -18.3714 607.649 10.1332 602.721C39.5853 597.661 66.0369 590.229 88.751 580.636C136.601 560.422 175.739 536.386 208.454 507.133C242.565 476.614 270.859 439.454 294.995 393.466C299.706 384.505 304.391 375.413 308.944 366.637C325.789 334.089 341.686 303.359 357.689 278.402C361.742 272.077 365.69 265.593 369.48 259.321C381.351 239.74 392.589 221.265 408.197 205.241C445.65 166.843 496.922 183.499 546.745 207.244C577.013 221.66 607.281 237.842 636.576 253.523C691.295 282.803 747.883 313.058 807.024 333.166C855.005 349.454 904.171 355.989 957.39 353.143C1001.53 350.771 1048.96 341.969 1106.62 325.471C1154.18 311.872 1197.8 294.32 1236.2 273.315C1277.65 250.65 1313.26 223.874 1342.03 193.672L1345.87 189.666C1401.38 131.844 1449.34 81.902 1490.87 24.6336L1490.58 24.3173Z" fill="url(#paint3_linear_1151_1635)" fill-opacity="0.1"/>
<path d="M1490.53 38.4698C1463.84 67.0381 1434.18 92.154 1402.78 118.746C1379.17 138.749 1354.77 159.411 1329.95 182.945C1276.18 233.968 1198.8 275.424 1093.44 309.632C1026.01 331.532 962.549 349.717 897.459 349.717C863.743 349.717 829.58 344.842 794.206 333.061C733.091 312.715 674.871 280.378 618.599 249.122C591.726 234.205 563.958 218.761 536.296 204.872C515.872 194.621 489.157 182.418 463.811 178.887C458.836 178.202 454.046 177.859 449.44 177.859C429.674 177.859 413.119 184.211 399.116 197.124C384.035 211.013 372.849 227.168 361.031 244.246C356.662 250.571 352.109 257.107 347.398 263.511C326.71 291.447 306.523 330.426 285.124 371.697L282.045 377.627C234.906 468.471 172.659 527.769 80.1705 569.857C-11.1862 611.444 -155.393 613.078 -248.119 573.625C-402.38 507.976 -430.727 461.118 -458.152 415.841C-465.285 404.034 -472.681 391.858 -482.183 379.735C-505.292 350.297 -501.212 318.144 -496.922 284.094C-495.316 271.444 -493.658 258.346 -493.369 245.09H-493.79C-494.079 258.346 -495.737 271.418 -497.343 284.068C-501.659 318.197 -505.765 350.429 -482.525 380.025C-473.023 392.122 -465.654 404.324 -458.521 416.104C-431.069 461.46 -402.67 508.372 -248.329 574.073C-203.585 593.128 -144.839 603.169 -82.9082 602.378C-52.877 601.983 -23.6356 599.084 4.05307 593.734C32.6103 588.226 58.246 580.346 80.3021 570.305C126.704 549.195 165 524.053 197.347 493.481C230.458 462.198 258.252 424.406 282.387 377.89L285.467 371.96C306.838 330.715 327.052 291.763 347.687 263.854C352.425 257.476 356.952 250.914 361.321 244.589C373.138 227.511 384.298 211.408 399.353 197.546C416.514 181.733 437.57 175.803 463.732 179.44C489.025 182.945 515.688 195.148 536.086 205.373C563.748 219.262 591.516 234.679 618.388 249.596C674.687 280.879 732.933 313.216 794.074 333.562C819.368 341.969 844.503 347.082 870.85 349.164C894.775 351.061 919.147 350.376 945.335 347.134C996.633 340.757 1048.75 324.68 1093.6 310.133C1143.26 294.004 1185.58 276.768 1222.96 257.476C1243.62 246.803 1262.89 235.365 1280.23 223.505C1298.63 210.908 1315.47 197.388 1330.27 183.341C1355.06 159.806 1379.46 139.144 1403.07 119.141C1434.47 92.5493 1464.13 67.4071 1490.84 38.8387L1490.53 38.4698Z" fill="url(#paint4_linear_1151_1635)" fill-opacity="0.1"/>
<path d="M1490.45 52.6487C1467.18 71.5714 1441.84 87.5158 1414.99 104.409C1383.14 124.465 1350.19 145.18 1318.13 172.615C1255.28 226.404 1166.71 262.905 1080.38 294.32C1075.46 296.112 1070.57 297.904 1065.7 299.696C999.344 323.969 935.571 347.293 868.112 347.293C839.976 347.293 811.182 343.234 781.309 333.509C718.378 313.005 658.763 278.586 601.096 245.301C576.461 231.069 550.983 216.39 525.689 203.028C505.633 192.433 479.392 179.73 454.362 175.25C447.94 174.117 441.807 173.537 435.991 173.537C418.33 173.537 403.275 178.782 390.299 189.403C375.639 201.394 364.479 215.414 352.688 230.252C347.819 236.393 342.765 242.744 337.422 248.937C314.576 275.529 292.231 317.617 269.438 362.051C221.746 455.004 160.789 515.909 71.7219 559.5C24.5038 582.613 -37.4009 594.34 -98.5686 594.34C-152.261 594.34 -205.401 585.301 -247.671 567.011C-396.248 502.679 -424.226 456.506 -451.283 411.861C-458.231 400.397 -465.417 388.538 -474.523 376.731C-497.632 346.792 -494.553 314.112 -491.289 279.535C-490.079 266.832 -488.842 253.708 -488.894 240.425H-489.368C-489.315 253.681 -490.552 266.806 -491.763 279.482C-495.053 314.165 -498.159 346.897 -474.918 376.994C-465.812 388.801 -458.626 400.634 -451.704 412.072C-424.621 456.77 -396.59 503.022 -247.935 567.406C-204.007 586.434 -146.629 596.053 -86.4087 594.472C-57.2725 593.708 -28.8732 590.387 -2.00049 584.615C25.6355 578.659 50.5079 570.331 71.8535 559.895C161.026 516.252 222.062 455.294 269.806 362.236C292.573 317.828 314.919 275.766 337.712 249.201C343.055 242.981 348.108 236.63 352.977 230.489C364.769 215.652 375.902 201.657 390.536 189.719C407.697 175.698 428.542 171.112 454.23 175.672C479.208 180.126 505.397 192.829 525.426 203.397C550.72 216.732 576.171 231.438 600.807 245.669C658.5 278.955 718.141 313.401 781.099 333.905C805.602 341.89 829.817 346.318 855.163 347.477C877.877 348.505 901.065 346.845 926.043 342.417C972.656 334.168 1017.9 317.617 1065.8 300.092C1070.67 298.3 1075.59 296.507 1080.49 294.715C1117.42 281.275 1165.48 263.09 1209.64 241.611C1254.12 219.974 1289.71 197.493 1318.4 172.957C1350.43 145.549 1383.35 124.834 1415.17 104.778C1442.02 87.8847 1467.39 71.9139 1490.69 52.965L1490.45 52.6487Z" fill="url(#paint5_linear_1151_1635)" fill-opacity="0.1"/>
<path d="M1490.4 66.801C1468.23 80.0046 1444.23 90.441 1418.83 101.457C1381.22 117.797 1342.29 134.69 1306.34 162.257C1249.07 206.137 1173.06 236.577 1092.6 268.809C1084.33 272.129 1075.78 275.555 1067.33 278.955C1054.67 284.068 1042.03 289.365 1029.8 294.504C967.681 320.595 908.04 345.659 843.451 345.659C819.236 345.659 794.364 342.153 768.36 333.852C703.797 313.242 642.918 276.741 584.067 241.453C561.484 227.906 538.165 213.912 515.056 201.104C495.369 190.193 469.628 176.963 444.861 171.56C419.462 166 398.722 169.294 381.456 181.601C367.085 191.853 355.873 204.003 344.002 216.837C338.712 222.556 333.237 228.486 327.421 234.311C303.022 258.636 279.071 302.569 256.804 346.449C208.533 441.615 148.84 504.128 63.2206 549.116C-22.7405 594.287 -159.131 599.242 -247.276 560.369C-390.115 497.408 -417.725 451.894 -444.413 407.855C-451.151 396.734 -458.126 385.243 -466.864 373.726C-489.999 343.26 -487.894 310.106 -485.657 274.976C-484.841 262.246 -484.025 249.069 -484.393 235.786L-484.92 235.813C-484.551 249.069 -485.367 262.246 -486.183 274.949C-488.42 310.159 -490.526 343.418 -467.285 374.042C-458.573 385.533 -451.599 396.997 -444.861 408.119C-431.569 430.046 -417.83 452.711 -389.694 477.484C-374.534 490.819 -356.61 503.628 -334.843 516.621C-310.392 531.221 -281.808 545.69 -247.487 560.817C-204.349 579.819 -148.392 589.017 -89.8565 586.671C-61.6152 585.538 -34.0844 581.795 -8.00134 575.576C18.7398 569.198 42.7963 560.422 63.4838 549.537C149.182 504.497 208.954 441.932 257.278 346.66C279.518 302.832 303.443 258.926 327.789 234.653C333.632 228.829 339.107 222.899 344.397 217.18C356.241 204.345 367.427 192.249 381.772 182.023C398.906 169.795 419.514 166.527 444.782 172.061C469.47 177.464 495.184 190.667 514.845 201.552C537.928 214.36 561.274 228.354 583.83 241.901C642.708 277.216 703.586 313.743 768.228 334.352C863.77 364.845 944.519 330.926 1030.01 295.005C1042.22 289.866 1054.88 284.569 1067.51 279.456C1075.96 276.056 1084.52 272.63 1092.78 269.309C1173.27 237.078 1249.3 206.612 1306.66 162.679C1342.58 135.165 1381.46 118.271 1419.04 101.932C1444.47 90.889 1468.47 80.4526 1490.66 67.2226L1490.4 66.801Z" fill="url(#paint6_linear_1151_1635)" fill-opacity="0.1"/>
<path d="M1490.34 80.9532C1468.39 89.9401 1444.7 96.2125 1419.6 102.827C1377.09 114.055 1333.13 125.651 1294.5 151.926C1248.8 182.998 1191.14 206.638 1130.1 231.675C1105.28 241.848 1079.65 252.363 1054.22 263.643C1036.61 271.444 1019.22 279.851 1002.42 287.995C942.677 316.879 885.405 344.578 821.789 344.578C800.47 344.578 778.466 341.468 755.41 334.273C689.321 313.611 627.363 275.002 567.459 237.657C546.824 224.796 525.479 211.487 504.423 199.232C485.13 188.005 459.863 174.301 435.359 167.923C410.381 161.44 389.852 163.39 372.612 173.879C358.32 182.576 346.95 193.039 334.922 204.108C329.342 209.247 323.578 214.544 317.393 219.763C290.678 242.322 265.358 288.627 244.144 330.926C195.242 428.412 136.811 492.506 54.7191 538.811C-28.5574 585.775 -161.052 592.363 -246.908 553.807C-384.035 492.243 -411.277 447.334 -437.623 403.902C-444.15 393.123 -450.914 381.975 -459.258 370.801C-482.367 339.808 -481.288 306.127 -480.103 270.495C-479.682 257.74 -479.261 244.536 -479.972 231.227L-480.524 231.253C-479.814 244.536 -480.261 257.713 -480.656 270.469C-481.814 306.232 -482.92 339.992 -459.679 371.143C-451.362 382.291 -444.598 393.439 -438.07 404.192C-424.91 425.882 -411.329 448.283 -384.062 472.635C-369.375 485.733 -352.057 498.304 -331.106 511.06C-307.549 525.37 -280.098 539.523 -247.119 554.334C-204.796 573.335 -150.208 582.059 -93.3835 578.949C-66.037 577.447 -39.3749 573.283 -14.1077 566.615C11.7122 559.789 34.9791 550.592 55.0087 539.312C137.206 492.98 195.689 428.781 244.644 331.19C265.832 288.943 291.099 242.717 317.761 220.211C323.946 214.992 329.71 209.695 335.29 204.556C347.292 193.514 358.662 183.077 372.902 174.406C390.01 163.996 410.381 162.046 435.201 168.503C459.626 174.854 484.867 188.533 504.133 199.76C525.189 212.014 546.508 225.323 567.143 238.184C627.074 275.555 689.057 314.191 755.226 334.853C778.335 342.074 800.417 345.184 821.789 345.184C885.51 345.184 942.835 317.459 1002.63 288.548C1019.45 280.431 1036.82 272.024 1054.43 264.196C1079.83 252.917 1105.49 242.401 1130.31 232.228C1191.37 207.192 1249.07 183.525 1294.81 152.427C1333.37 126.23 1377.27 114.634 1419.73 103.407C1444.84 96.7659 1468.55 90.5199 1490.53 81.5067L1490.34 80.9532Z" fill="url(#paint7_linear_1151_1635)" fill-opacity="0.1"/>
<path d="M1490.29 95.1321C1468.13 100.64 1444.2 103.407 1418.91 106.306C1371.93 111.709 1323.37 117.323 1282.68 141.569C1245.36 163.812 1200.19 181.786 1152.4 200.814C1115.99 215.283 1078.36 230.252 1041.14 248.278C1020.14 258.451 999.607 269.784 979.762 280.747C921.516 312.926 865.744 343.761 802.181 343.761C783.073 343.761 763.28 340.994 742.487 334.616C675.003 313.954 612.098 273.21 551.246 233.783C532.427 221.581 512.977 208.984 493.816 197.282C465.759 180.126 444.782 169.926 425.858 164.207C401.301 156.775 381.008 157.382 363.821 166.079C349.398 173.379 337.686 182.339 325.289 191.827C319.604 196.175 313.734 200.656 307.444 205.11C294.731 214.097 281.782 228.776 267.859 250.018C256.857 266.779 245.329 287.52 231.537 315.298C181.95 415.208 124.81 480.936 46.2706 528.401C-34.3739 577.131 -162.947 585.353 -246.46 547.165C-377.876 487.051 -404.775 442.722 -430.753 399.87C-437.07 389.433 -443.624 378.654 -451.572 367.823C-474.681 336.303 -474.602 302.121 -474.497 265.936C-474.471 253.128 -474.418 239.898 -475.471 226.589L-476.076 226.641C-475.05 239.924 -475.076 253.154 -475.129 265.936C-475.208 302.226 -475.313 336.514 -452.072 368.192C-444.15 378.997 -437.623 389.776 -431.28 400.186C-418.277 421.639 -404.828 443.803 -378.429 467.733C-364.216 480.62 -347.503 492.928 -327.342 505.42C-304.707 519.44 -278.334 533.277 -246.724 547.719C-205.217 566.694 -152.024 574.996 -96.8839 571.069C-43.0069 567.248 7.92233 552.278 46.5601 528.928C87.4351 504.234 122.256 474.717 153.024 438.69C181.845 404.93 207.717 364.66 232.063 315.588C253.409 272.577 279.097 225.877 307.76 205.637C314.05 201.183 319.92 196.703 325.605 192.328C337.975 182.866 349.661 173.906 364.032 166.658C381.087 158.04 401.222 157.434 425.621 164.84C444.518 170.559 465.417 180.732 493.447 197.862C512.582 209.564 532.033 222.161 550.851 234.363C611.729 273.816 674.661 314.586 742.25 335.275C832.475 362.894 904.145 323.284 979.999 281.353C999.844 270.39 1020.37 259.057 1041.35 248.885C1078.57 230.884 1116.18 215.915 1152.55 201.446C1200.4 182.418 1245.57 164.445 1282.94 142.175C1323.5 117.981 1372.01 112.394 1418.94 106.992C1444.26 104.066 1468.18 101.325 1490.4 95.791L1490.29 95.1321Z" fill="url(#paint8_linear_1151_1635)" fill-opacity="0.1"/>
<path d="M1490.26 109.284C1467.63 111.709 1443.26 111.34 1417.44 110.945C1407.86 110.787 1398.22 110.655 1388.59 110.655C1346.79 110.655 1305.37 113.448 1270.89 131.211C1240.15 147.051 1204.22 160.412 1166.19 174.538C1120.92 191.353 1074.09 208.747 1028.06 232.914C1004.61 245.221 981.92 259.426 959.969 273.157C887.247 318.671 818.526 361.656 729.538 334.985C660.737 314.376 596.964 271.418 535.296 229.883C518.214 218.366 500.527 206.48 483.182 195.358C455.704 177.754 435.069 167.001 416.303 160.491C392.168 152.111 372.112 151.399 355.004 158.278C340.054 164.286 327.736 171.929 314.682 180.046C309.207 183.446 303.522 186.978 297.495 190.483C283.966 198.337 270.411 212.41 256.067 233.573C244.67 250.36 232.879 271.365 218.956 299.696C168.632 402.189 112.755 469.525 37.8216 518.017C-41.4806 569.33 -163.5 579.002 -246.013 540.524C-371.718 481.859 -398.248 438.084 -423.91 395.759C-430.016 385.691 -436.333 375.255 -443.887 364.792C-466.996 332.745 -467.917 298.036 -468.917 261.298C-469.26 248.463 -469.628 235.207 -470.97 221.898L-471.602 221.95C-470.26 235.233 -469.891 248.489 -469.549 261.298C-468.549 298.141 -467.628 332.929 -444.387 365.135C-436.86 375.597 -430.543 386.007 -424.437 396.048C-411.566 417.29 -398.275 439.244 -372.718 462.752C-358.979 475.402 -342.871 487.499 -323.499 499.701C-301.759 513.405 -276.492 526.925 -246.25 541.025C-225.431 550.75 -201.901 557.549 -176.318 561.265C-151.893 564.797 -126.336 565.429 -100.332 563.136C-48.4027 558.551 0.789307 542.685 38.19 518.492C77.7227 492.901 111.676 462.277 141.996 424.854C169.685 390.698 195.031 349.823 219.535 299.907C233.432 271.602 245.197 250.624 256.593 233.862C270.911 212.805 284.387 198.758 297.811 190.984C303.864 187.478 309.523 183.947 315.024 180.547C328.052 172.456 340.344 164.84 355.241 158.831C372.217 152.005 392.115 152.743 416.093 161.071C434.832 167.554 455.415 178.307 482.84 195.859C500.185 206.981 517.846 218.867 534.954 230.384C596.648 271.945 660.474 314.903 729.353 335.565C750.83 341.995 771.623 344.604 792.916 343.55C811.945 342.601 831.001 338.701 851.162 331.638C888.668 318.487 923.463 296.718 960.311 273.658C982.236 259.927 1004.92 245.748 1028.35 233.441C1074.36 209.3 1121.15 191.906 1166.4 175.092C1204.46 160.939 1240.41 147.604 1271.18 131.739C1313.42 109.943 1366.3 110.76 1417.41 111.551C1443.26 111.946 1467.66 112.315 1490.32 109.891L1490.26 109.284Z" fill="url(#paint9_linear_1151_1635)" fill-opacity="0.1"/>
<path d="M1328.66 108.678C1303.55 108.678 1279.84 111.788 1259.07 120.88C1233.78 131.949 1205.11 141.569 1174.74 151.768C1124.65 168.582 1067.91 187.61 1014.98 217.602C989.711 231.912 965.497 248.911 942.072 265.356C871.692 314.745 805.234 361.392 716.615 335.407C646.577 314.85 582.04 269.678 519.662 226.009C504.212 215.203 488.236 204.003 472.602 193.514C438.123 170.374 399.406 147.894 365.374 147.894C358.794 147.894 352.398 148.737 346.24 150.582C330.105 155.405 316.63 161.941 302.338 168.846C297.6 171.139 292.705 173.51 287.546 175.909C273.202 182.576 259.015 196.07 244.197 217.154C232.458 233.862 220.43 255.131 206.349 284.147C154.498 390.83 101.569 457.665 29.373 507.686C-47.2708 560.764 -165.474 572.044 -245.566 533.935C-365.585 476.825 -390.615 435.475 -417.093 391.726C-422.962 382.028 -429.042 371.987 -436.201 361.867C-459.284 329.266 -461.258 294.056 -463.337 256.764C-464.048 243.903 -464.811 230.621 -466.443 217.338L-467.127 217.417C-465.469 230.7 -464.732 243.983 -464.022 256.817C-461.942 294.188 -459.968 329.503 -436.754 362.262C-429.621 372.356 -423.542 382.37 -417.672 392.069C-404.933 413.1 -391.773 434.842 -367.085 457.955C-353.82 470.342 -338.317 482.201 -319.735 494.166C-298.916 507.581 -274.755 520.758 -245.855 534.515C-225.405 544.24 -202.401 550.934 -177.502 554.413C-153.788 557.707 -128.994 558.023 -103.806 555.335C-53.8245 549.985 -6.36951 533.25 29.7942 508.213C68.0108 481.753 101.095 449.996 130.942 411.176C157.788 376.256 181.95 335.986 207.007 284.41C221.088 255.447 233.09 234.179 244.802 217.523C259.541 196.544 273.623 183.104 287.862 176.515C293.021 174.117 297.916 171.745 302.654 169.452C316.919 162.547 330.369 156.011 346.45 151.214C384.219 139.961 431.227 166.553 472.233 194.067C487.894 204.582 503.844 215.757 519.294 226.562C581.725 270.284 646.314 315.482 716.457 336.065C737.855 342.338 758.463 344.631 779.467 343.023C798.233 341.6 816.92 337.067 836.608 329.187C873.245 314.534 906.882 290.92 942.467 265.936C965.865 249.517 990.079 232.518 1015.32 218.208C1068.2 188.269 1124.92 169.215 1174.98 152.427C1205.35 142.228 1234.04 132.608 1259.36 121.513C1303.08 102.379 1360.16 109.838 1415.38 117.033C1441.91 120.485 1466.95 123.779 1490.21 124.148V123.463C1466.97 123.068 1441.94 119.8 1415.46 116.347C1386.3 112.552 1356.64 108.678 1328.66 108.678Z" fill="url(#paint10_linear_1151_1635)" fill-opacity="0.1"/>
<path d="M1294.89 103.17C1277.78 103.17 1261.7 105.279 1247.28 110.523C1226.7 117.982 1203.96 124.649 1179.87 131.686C1123.86 148.078 1060.41 166.632 1001.9 202.263C975.234 218.498 949.941 238.237 925.463 257.344C857.005 310.792 792.363 361.26 703.691 335.776C632.469 315.324 567.275 267.86 504.212 221.977C490.341 211.883 475.997 201.446 461.968 191.59C436.043 173.379 415.461 161.15 397.195 153.139C373.849 142.887 354.293 139.487 337.422 142.781C318.708 146.418 303.548 151.9 285.993 158.251C283.255 159.253 280.439 160.254 277.57 161.282C262.357 166.711 247.565 179.599 232.3 200.656C220.298 217.233 208.033 238.791 193.741 268.545C140.996 378.206 89.3033 446.623 20.8976 497.303C-53.0879 552.094 -167.448 565.008 -245.119 527.268C-359.426 471.739 -384.141 430.837 -410.303 387.536C-415.935 378.206 -421.778 368.561 -428.543 358.836C-451.599 325.682 -454.626 289.945 -457.81 252.126C-458.89 239.265 -460.021 225.956 -461.969 212.673L-462.68 212.779C-460.732 226.062 -459.6 239.344 -458.521 252.205C-455.31 290.13 -452.31 325.972 -429.122 359.284C-422.357 368.982 -416.541 378.628 -410.908 387.958C-398.301 408.804 -385.273 430.362 -361.427 453.106C-348.609 465.335 -333.712 476.957 -315.946 488.632C-296.021 501.73 -272.965 514.591 -245.434 527.979C-225.352 537.731 -202.901 544.319 -178.687 547.561C-155.683 550.644 -131.679 550.618 -107.307 547.535C-59.2731 541.447 -13.5816 523.815 21.3451 497.935C58.2457 470.606 90.4351 437.741 119.808 397.472C145.365 362.446 169.053 321.597 194.399 268.914C208.691 239.213 220.93 217.681 232.905 201.13C248.066 180.205 262.778 167.396 277.833 162.02C280.702 160.992 283.519 159.991 286.256 158.989C303.785 152.664 318.945 147.182 337.58 143.545C354.319 140.278 373.717 143.651 396.931 153.85C415.145 161.862 435.674 174.064 461.573 192.249C475.602 202.105 489.946 212.542 503.791 222.635C566.906 268.572 632.153 316.062 703.481 336.54C724.905 342.707 745.435 344.657 766.254 342.496C784.862 340.572 803.312 335.407 822.631 326.71C858.61 310.502 891.274 284.99 925.885 257.977C950.336 238.87 975.629 219.13 1002.27 202.949C1060.7 167.396 1124.13 148.843 1180.08 132.45C1204.17 125.414 1226.91 118.746 1247.51 111.288C1292.57 94.9477 1353.8 109.206 1412.99 123.015C1440.31 129.393 1466.1 135.402 1490.08 138.459L1490.16 137.747C1466.23 134.69 1440.44 128.682 1413.15 122.33C1372.77 112.816 1331.45 103.17 1294.89 103.17Z" fill="url(#paint11_linear_1151_1635)" fill-opacity="0.1"/>
<path d="M1268.49 95.949C1256.73 95.949 1245.67 97.2404 1235.49 100.192C1219.06 104.936 1201.4 109.258 1182.69 113.844C1121.44 128.813 1052.01 145.785 988.842 186.925C961.127 204.978 935.018 227.458 909.803 249.201C854.452 296.903 801.602 342.417 734.512 342.417C720.589 342.417 706.06 340.467 690.768 336.171C618.414 315.825 552.614 266.041 488.973 217.865C476.629 208.509 463.863 198.864 451.361 189.692C425.989 171.033 405.749 158.251 387.614 149.396C367.479 139.566 350.135 134.743 334.895 134.743C332.763 134.743 330.684 134.848 328.631 135.033C305.97 137.115 287.598 141.542 267.621 146.682C251.54 150.819 236.09 163.074 220.377 184.131C208.138 200.55 195.662 222.425 181.108 252.969C141.285 336.619 93.2777 422.851 12.4227 486.945C-49.7978 536.255 -158.078 563.69 -244.724 520.679C-353.294 466.784 -377.719 426.277 -403.565 383.398C-408.961 374.464 -414.54 365.214 -420.91 355.884C-443.966 322.15 -448.019 285.886 -452.336 247.514C-453.784 234.653 -455.284 221.344 -457.547 208.035L-458.311 208.167C-456.047 221.423 -454.547 234.732 -453.126 247.593C-448.809 286.071 -444.729 322.414 -421.568 356.306C-415.225 365.609 -409.645 374.859 -404.249 383.794C-391.195 405.431 -378.877 425.882 -355.873 448.23C-343.503 460.248 -329.237 471.633 -312.235 483.071C-293.205 495.853 -271.254 508.398 -245.092 521.391C-225.379 531.168 -203.454 537.651 -179.95 540.656C-157.657 543.502 -134.443 543.16 -110.887 539.654C-64.8002 532.802 -20.8721 514.301 12.8701 487.578C48.4547 459.378 79.7756 425.381 108.649 383.688C132.837 348.768 156.051 307.339 181.766 253.338C196.294 222.846 208.744 201.025 220.956 184.632C236.564 163.733 251.882 151.583 267.779 147.472C287.73 142.333 306.075 137.905 328.684 135.823C345.265 134.295 364.426 138.986 387.246 150.134C405.328 158.963 425.541 171.745 450.861 190.351C463.337 199.522 476.102 209.195 488.446 218.524C552.141 266.727 617.993 316.563 690.479 336.935C712.008 342.997 732.538 344.631 753.252 341.943C771.755 339.544 790.021 333.746 809.103 324.18C844.556 306.39 876.456 278.902 910.224 249.807C935.439 228.091 961.496 205.61 989.184 187.584C1052.25 146.523 1121.6 129.551 1182.79 114.608C1201.51 110.022 1219.19 105.7 1235.64 100.956C1281.97 87.5419 1347.24 108.731 1410.36 129.235C1438.55 138.38 1465.18 147.024 1489.92 152.638L1490.08 151.9C1465.39 146.313 1438.78 137.668 1410.59 128.523C1361.24 112.421 1310.5 95.949 1268.49 95.949Z" fill="url(#paint12_linear_1151_1635)" fill-opacity="0.1"/>
<path d="M1245.94 87.5946C1238.12 87.5946 1230.67 88.3061 1223.7 89.8347C1211.09 92.6019 1197.85 95.1584 1183.82 97.8465C1152.18 103.934 1116.34 110.839 1080.8 121.882C1040.03 134.558 1005.69 150.819 975.787 171.587C947.23 191.405 920.594 216.574 894.854 240.925C829.369 302.806 767.544 361.234 677.871 336.566C604.438 316.352 538.086 264.144 473.918 213.675C463.021 205.11 451.783 196.254 440.807 187.821C422.331 173.616 399.327 155.958 377.981 143.809C357.978 132.45 341.054 126.863 326.552 126.863C324.262 126.863 322.051 126.995 319.867 127.285C309.891 128.55 300.522 128.918 291.467 129.287C280.729 129.709 269.648 130.131 257.725 132.107C240.775 134.901 224.667 146.523 208.507 167.581C195.873 184.052 183.529 205.584 168.553 237.394C121.572 337.067 75.6172 415.893 4.00049 476.614C-55.9301 527.452 -160.447 556.627 -244.25 514.09C-347.108 461.856 -371.244 421.718 -396.8 379.208C-401.933 370.669 -407.249 361.84 -413.198 352.932C-436.228 318.619 -441.36 281.828 -446.808 242.876C-448.598 230.015 -450.467 216.706 -453.02 203.423L-453.81 203.581C-451.257 216.811 -449.414 230.12 -447.598 242.981C-442.15 282.012 -436.991 318.909 -413.856 353.38C-407.907 362.262 -402.591 371.091 -397.458 379.603C-384.535 401.108 -372.349 421.401 -350.161 443.407C-338.238 455.214 -324.578 466.389 -308.365 477.563C-290.231 490.055 -269.359 502.231 -244.566 514.828C-225.22 524.659 -203.849 531.01 -181.029 533.777C-159.447 536.386 -136.996 535.701 -114.282 531.801C-70.1693 524.211 -27.9783 504.84 4.55319 477.247C38.8218 448.178 69.274 413.073 97.6207 369.905C127.073 325.049 151.392 275.74 169.29 237.789C192.083 189.429 220.456 139.144 257.857 132.951C269.701 131.001 280.782 130.553 291.494 130.131C300.574 129.788 309.944 129.419 319.972 128.128C355.794 123.569 400.695 158.067 440.307 188.506C451.282 196.94 462.547 205.795 473.418 214.36C537.638 264.882 604.044 317.143 677.635 337.409C699.322 343.366 719.904 344.71 740.592 341.494C759.069 338.622 777.203 332.139 796.074 321.702C831.133 302.305 862.348 272.814 895.38 241.584C921.121 217.259 947.73 192.117 976.235 172.324C1043.22 125.809 1118.02 111.419 1183.98 98.7162C1198.01 96.028 1211.27 93.4716 1223.88 90.7044C1271.39 80.2944 1340.69 108.494 1407.72 135.771C1436.83 147.63 1464.34 158.831 1489.9 166.869L1490.13 166.105C1464.63 158.067 1437.12 146.866 1408.04 135.033C1350.66 111.604 1291.68 87.5946 1245.94 87.5946Z" fill="url(#paint13_linear_1151_1635)" fill-opacity="0.1"/>
<path d="M1225.77 78.5023C1220.96 78.5023 1216.33 78.8186 1211.88 79.5038C1202.85 80.8743 1193.56 82.1393 1183.72 83.4834C1150.18 88.0954 1112.2 93.2872 1074.25 103.803C1030.59 115.899 994.08 133.056 962.654 156.248C933.438 177.806 906.46 205.637 880.325 232.518C816.051 298.747 755.331 361.287 664.869 336.935C590.383 316.879 523.531 262.194 458.915 209.3C449.466 201.552 439.675 193.54 430.121 185.897C394.457 157.25 348.713 123.832 311.076 119.484C305.838 118.878 300.705 118.061 295.731 117.296C279.386 114.713 263.936 112.289 247.618 117.481C230.01 123.094 213.034 135.428 197.163 154.166C182.766 171.165 168.869 193.909 155.867 221.766C115.36 308.578 69.5896 398.947 -4.52756 466.204C-62.1947 518.544 -162.921 549.511 -243.855 507.423C-341.002 456.927 -364.875 417.053 -390.142 374.859C-395.011 366.742 -400.012 358.361 -405.592 349.902C-428.595 314.982 -434.807 277.637 -441.387 238.132C-443.519 225.271 -445.756 211.988 -448.572 198.758L-449.415 198.943C-446.572 212.146 -444.361 225.429 -442.229 238.29C-435.623 277.901 -429.385 315.324 -406.302 350.376C-400.749 358.809 -395.722 367.19 -390.879 375.307C-378.087 396.681 -366.006 416.869 -344.635 438.532C-333.159 450.154 -320.104 461.118 -304.681 472.002C-287.441 484.178 -267.675 496.038 -244.25 508.187C-225.273 518.044 -204.454 524.316 -182.319 526.82C-161.474 529.192 -139.786 528.19 -117.914 523.868C-75.7758 515.54 -35.2957 495.273 -3.97488 466.837C28.9778 436.924 58.5352 400.687 86.3817 356.016C113.518 312.478 137.127 263.907 156.603 222.135C183.792 163.865 214.507 128.945 247.829 118.298C263.936 113.159 279.281 115.583 295.547 118.14C300.521 118.93 305.68 119.747 310.918 120.353C348.345 124.649 393.957 158.014 429.516 186.582C439.043 194.252 448.834 202.263 458.283 209.985C522.978 262.932 589.883 317.67 664.553 337.779C686.425 343.682 707.113 344.71 727.8 340.941C746.277 337.594 764.332 330.452 783.046 319.119C817.788 298.062 848.425 266.542 880.825 233.151C906.908 206.269 933.886 178.492 963.048 156.96C1033.48 104.962 1116.78 93.5508 1183.72 84.353C1193.56 83.0089 1202.85 81.7176 1211.9 80.3735C1260.57 73.0206 1333.84 108.309 1404.75 142.439C1434.83 156.934 1463.26 170.612 1489.63 181.048L1489.95 180.257C1463.6 169.821 1435.2 156.143 1405.12 141.674C1340.66 110.549 1274.1 78.5023 1225.77 78.5023Z" fill="url(#paint14_linear_1151_1635)" fill-opacity="0.1"/>
<path d="M1207.27 68.8302C1204.82 68.8302 1202.43 68.9356 1200.11 69.1201C1194.48 69.5945 1188.8 70.0425 1182.77 70.5169C1111.7 76.1831 1023.24 83.2198 949.573 140.857C919.857 164.102 892.642 194.541 866.296 223.979C803.076 294.636 743.355 361.366 651.972 337.278C576.434 317.38 509.16 260.112 444.123 204.767C436.043 197.888 427.7 190.773 419.54 183.947C384.561 154.588 339.607 119.826 302.337 111.683C296.916 110.497 291.599 109.074 286.466 107.73C274.438 104.541 262.884 101.457 250.934 101.457C246.592 101.457 242.196 101.852 237.722 102.801C228.089 104.831 218.693 108.915 209.744 114.898C201.295 120.538 192.978 128.102 185.003 137.326C170.606 154.034 156.972 176.515 143.312 206.111C98.3838 303.307 55.6138 389.196 -12.9498 455.768C-66.6689 507.95 -161.684 544.266 -243.381 500.729C-334.843 452.052 -358.452 412.415 -383.456 370.458C-388.036 362.789 -392.747 354.856 -397.88 346.897C-420.831 311.345 -428.148 273.473 -435.912 233.362C-438.386 220.527 -440.966 207.271 -444.071 194.093L-444.94 194.304C-441.834 207.455 -439.281 220.712 -436.781 233.546C-429.016 273.737 -421.673 311.687 -398.617 347.398C-393.484 355.357 -388.773 363.263 -384.193 370.933C-359.11 413.021 -335.449 452.763 -243.776 501.598C-207.534 520.89 -165.211 525.871 -121.362 515.988C-81.1976 506.922 -42.4545 485.786 -12.2918 456.479C4.50037 440.166 20.0291 422.508 35.1895 402.479C48.9548 384.294 62.0885 364.555 75.3275 342.18C101.121 298.563 123.467 251.283 144.128 206.559C173.133 143.835 202.927 111.156 237.932 103.75C254.567 100.218 269.964 104.33 286.256 108.652C291.415 110.022 296.731 111.419 302.18 112.631C339.264 120.749 384.087 155.405 418.988 184.711C427.121 191.537 435.49 198.653 443.544 205.531C475.681 232.887 508.897 261.166 543.429 284.964C582.409 311.872 617.835 329.292 651.762 338.227C673.871 344.051 694.69 344.789 715.43 340.493C733.933 336.645 751.962 328.844 770.518 316.616C805.023 293.898 836.528 258.715 866.98 224.691C893.3 195.279 920.515 164.893 950.152 141.674C1023.61 84.1685 1111.91 77.1582 1182.87 71.5183C1188.9 71.044 1194.56 70.5959 1200.22 70.1216C1249.99 65.9048 1327.26 108.309 1401.99 149.343C1433.07 166.421 1462.44 182.524 1489.69 195.306L1490.05 194.489C1462.84 181.733 1433.49 165.604 1402.41 148.553C1331 109.284 1257.33 68.8302 1207.27 68.8302Z" fill="url(#paint15_linear_1151_1635)" fill-opacity="0.1"/>
<path d="M1189.95 58.7627C1189.4 58.7627 1188.87 58.7627 1188.32 58.789C1185.95 58.8417 1183.58 58.8944 1181.16 58.9208C1144.26 59.6587 1102.47 60.4758 1060.01 69.041C1010.85 78.9503 970.418 97.4512 936.492 125.545C906.408 150.45 879.035 183.473 852.584 215.388C790.311 290.525 731.485 361.498 639.023 337.673C562.458 317.933 494.816 258.03 429.384 200.102C422.673 194.146 415.698 187.979 408.934 182.049C374.56 151.9 330.369 115.794 293.573 103.934C288.099 102.169 282.756 100.192 277.571 98.2682C263.174 92.9182 249.461 87.8318 234.669 87.8318C232.405 87.8318 230.116 87.9636 227.799 88.2007C207.875 90.3882 189.899 100.93 172.843 120.432C158.63 136.693 144.839 159.622 130.705 190.536C87.2506 285.465 46.2178 375.097 -21.3983 445.437C-72.9855 499.068 -164.29 537.177 -242.96 494.166C-328.684 447.282 -352.083 407.776 -376.85 365.978C-381.114 358.809 -385.509 351.377 -390.22 343.919C-413.145 307.708 -421.594 269.257 -430.516 228.565C-433.306 215.783 -436.228 202.58 -439.597 189.455L-440.492 189.692C-437.123 202.79 -434.228 215.994 -431.411 228.75C-422.462 269.547 -414.014 308.077 -391.01 344.42C-386.299 351.852 -381.903 359.284 -377.64 366.452C-352.793 408.382 -329.342 447.967 -243.381 494.983C-208.007 514.328 -167.027 518.861 -124.941 508.082C-86.7509 498.304 -49.7449 476.298 -20.7403 446.122C-4.52719 429.255 10.5279 410.965 25.2671 390.25C38.4797 371.644 51.2186 351.377 64.1681 328.344C88.6456 284.753 110.465 237.078 131.574 190.984C145.681 160.149 159.42 137.299 173.58 121.118C190.451 101.8 208.244 91.3633 227.931 89.2022C245.197 87.3047 260.778 93.0763 277.281 99.1906C282.466 101.114 287.835 103.117 293.336 104.883C329.974 116.69 374.06 152.717 408.355 182.814C415.119 188.743 422.094 194.91 428.805 200.867C461.074 229.435 494.421 258.952 529.242 283.778C568.617 311.846 604.465 329.793 638.839 338.648C661.211 344.42 682.214 344.842 703.007 339.992C721.563 335.644 739.566 327.158 758.042 314.007C792.363 289.602 823.342 252.205 853.321 216.047C879.746 184.158 907.092 151.188 937.097 126.336C1013.29 63.2693 1106.39 61.4245 1181.19 59.9223C1183.61 59.8696 1185.98 59.8169 1188.35 59.7905C1188.87 59.7905 1189.43 59.7642 1189.95 59.7642C1240.88 59.7642 1321.26 108.836 1398.99 156.301C1431.1 175.909 1461.39 194.41 1489.53 209.484L1489.97 208.667C1461.87 193.619 1431.57 175.118 1399.49 155.51C1321.63 107.914 1241.15 58.7627 1189.95 58.7627Z" fill="url(#paint16_linear_1151_1635)" fill-opacity="0.1"/>
<path d="M1126 47.114C1102.18 47.114 1076.67 48.3526 1051.04 52.5957C999.87 61.0555 958.1 79.9254 923.41 110.233C893.037 136.772 865.638 172.324 839.134 206.691C809.629 244.958 779.124 284.542 745.066 310.581C707.007 339.676 668.106 348.663 626.1 338.068C548.508 318.513 480.524 255.868 414.75 195.279C409.354 190.298 403.775 185.159 398.326 180.178C375.112 158.936 356.504 143.071 339.791 130.289C318.656 114.134 300.679 102.986 284.808 96.2125C283.255 95.5536 281.702 94.8948 280.15 94.2359C259.409 85.3544 239.801 76.9737 217.929 73.653C215.323 73.2577 212.718 73.0469 210.165 73.0469C192.846 73.0469 176.659 82.1656 160.92 100.746C143.391 121.408 128.81 151.267 118.071 174.986C115.492 180.653 112.939 186.292 110.412 191.932C69.7212 281.907 31.2939 366.927 -29.9001 435.106C-80.9609 492.005 -166.527 530.299 -242.539 487.551C-322.578 442.538 -345.766 403.111 -370.349 361.366C-374.271 354.724 -378.324 347.82 -382.588 340.941C-405.486 304.071 -415.067 265.014 -425.174 223.663C-428.28 210.96 -431.491 197.836 -435.123 184.817L-436.07 185.08C-432.438 198.073 -429.227 211.197 -426.121 223.9C-415.988 265.33 -406.381 304.44 -383.404 341.442C-379.14 348.32 -375.087 355.199 -371.165 361.84C-346.53 403.718 -323.263 443.249 -243.013 488.395C-208.481 507.818 -168.896 511.903 -128.547 500.202C-92.3574 489.712 -57.0623 466.837 -29.1894 435.738C32.1099 367.427 70.5634 282.381 111.28 192.301C113.833 186.661 116.387 181.022 118.94 175.355C129.652 151.715 144.207 121.935 161.657 101.352C179.502 80.2943 197.847 71.5447 217.771 74.5754C239.511 77.8961 259.041 86.2505 279.755 95.1056C281.308 95.7645 282.834 96.4233 284.413 97.0822C320.182 112.342 361.742 147.999 397.642 180.863C403.09 185.844 408.67 190.984 414.066 195.965C446.413 225.772 479.866 256.606 514.977 282.434C554.746 311.714 590.989 330.188 625.81 338.964C637.286 341.863 648.656 343.313 659.605 343.339C659.631 343.339 659.658 343.339 659.684 343.339C670.107 343.339 680.503 342.022 690.584 339.412C709.218 334.563 727.247 325.392 745.645 311.318C779.808 285.201 810.366 245.564 839.897 207.244C866.375 172.904 893.748 137.378 924.042 110.918C1002.71 42.212 1103.15 46.3497 1176.48 49.3805C1228.38 51.5152 1313.58 108.336 1395.99 163.311C1429.12 185.396 1460.39 206.269 1489.42 223.584L1489.92 222.741C1460.94 205.426 1429.65 184.579 1396.54 162.494C1314.03 107.466 1228.7 50.5664 1176.53 48.4054C1161.08 47.7992 1144.02 47.114 1126 47.114Z" fill="url(#paint17_linear_1151_1635)" fill-opacity="0.1"/>
<path d="M1089.88 33.5152C1072.83 33.5152 1055.38 34.464 1037.9 36.9413C1014.06 40.3147 991.869 46.3763 971.971 54.9415C949.283 64.719 928.543 78.1598 910.329 94.895C879.746 123.015 852.373 161.071 825.921 197.889C796.838 238.343 766.728 280.168 732.801 307.945C694.874 338.965 655.736 348.953 613.177 338.464C534.559 319.093 466.258 253.576 400.221 190.246C396.037 186.24 391.878 182.234 387.746 178.281C352.161 144.283 311.049 107.044 276.07 88.4908C274.096 87.4367 272.148 86.4088 270.201 85.3546C249.513 74.3121 229.957 63.902 208.033 59.0528C197.084 56.6281 186.372 57.7614 176.186 62.4261C166.868 66.6956 158.025 73.7323 149.129 83.9842C131.178 104.646 116.387 135.138 105.49 159.411C100.384 170.77 95.3044 182.26 90.3562 193.356C52.666 278.296 17.0813 358.52 -38.3486 424.775C-83.619 478.907 -164.158 526.108 -242.065 480.963C-316.419 437.9 -339.449 398.42 -363.848 356.596C-367.401 350.534 -371.06 344.236 -374.876 337.989C-397.775 300.355 -408.513 260.665 -419.857 218.656C-423.252 206.059 -426.779 193.039 -430.622 180.178L-431.596 180.468C-427.753 193.329 -424.226 206.348 -420.831 218.92C-409.461 261.008 -398.722 300.75 -375.745 338.49C-371.928 344.763 -368.27 351.035 -364.743 357.097C-340.265 399.027 -317.156 438.611 -242.592 481.833C-225.142 491.926 -206.507 497.83 -187.188 499.358C-169.212 500.782 -150.682 498.436 -132.127 492.374C-97.9371 481.2 -64.3528 457.428 -37.5853 425.434C17.9236 359.073 53.5609 278.797 91.2774 193.777C96.1993 182.682 101.305 171.191 106.411 159.833C117.282 135.639 132.047 105.226 149.892 84.6694C168.211 63.5594 187.161 55.5213 207.796 60.0806C229.563 64.9035 249.066 75.2872 269.701 86.277C271.648 87.3049 273.596 88.3591 275.57 89.4133C310.444 107.914 351.477 145.1 387.009 179.045C391.141 182.998 395.3 186.978 399.485 190.984C431.911 222.082 465.443 254.235 500.817 281.169C540.955 311.714 577.618 330.768 612.887 339.465C624.521 342.338 636.022 343.708 647.077 343.55C657.631 343.392 668.133 341.864 678.292 338.965C697.032 333.615 715.061 323.732 733.406 308.736C767.464 280.906 797.574 239.002 826.711 198.495C853.162 161.73 880.483 123.727 910.987 95.6593C985.315 27.2692 1080.88 30.6425 1164.63 39.1551C1217.56 44.5314 1306.73 108.626 1392.96 170.585C1427.12 195.148 1459.39 218.313 1489.29 237.868L1489.84 236.999C1459.94 217.47 1427.7 194.278 1393.54 169.742C1307.21 107.703 1217.93 43.5299 1164.71 38.1273C1141.66 35.7553 1116.23 33.5152 1089.88 33.5152Z" fill="url(#paint18_linear_1151_1635)" fill-opacity="0.1"/>
<path d="M1062.01 19.2045C1049.64 19.2045 1037.17 19.8107 1024.74 21.2866C1000.82 24.1065 978.551 29.9045 958.574 38.5224C935.913 48.3 915.278 62.1097 897.249 79.5565C866.533 109.258 839.239 149.791 812.867 188.981C784.152 231.649 754.436 275.766 720.589 305.257C682.741 338.253 643.366 349.216 600.227 338.833C520.557 319.647 448.914 248.094 385.693 184.948C382.824 182.076 379.955 179.229 377.113 176.383C342.449 141.832 302.522 103.117 267.279 80.7424C265.253 79.451 263.226 78.1597 261.226 76.8947C240.249 63.5066 220.456 50.8564 198.084 44.4786C186.74 41.2369 175.686 41.764 165.184 46.0862C155.709 49.9603 146.339 57.076 137.338 67.2225C118.94 87.9372 103.911 119.062 92.883 143.835C85.5134 160.386 78.2754 177.121 71.248 193.329C36.3477 273.869 3.39502 349.954 -46.7972 414.418C-90.0936 469.894 -167.08 518.913 -241.644 474.295C-310.339 433.208 -333.264 393.545 -357.557 351.536C-360.69 346.133 -363.927 340.519 -367.243 334.959C-390.115 296.586 -402.038 256.211 -414.646 213.464C-418.304 201.051 -422.094 188.19 -426.174 175.513L-427.174 175.83C-423.121 188.506 -419.33 201.341 -415.672 213.754C-403.038 256.554 -391.115 296.982 -368.164 335.486C-364.848 341.046 -361.611 346.634 -358.479 352.063C-334.133 394.177 -311.129 433.973 -242.197 475.191C-225.168 485.39 -207.086 491.215 -188.451 492.48C-171.186 493.666 -153.446 490.978 -135.732 484.468C-119.204 478.38 -102.859 469.077 -87.2247 456.769C-72.3539 445.068 -58.4833 431.021 -46.0076 415.024C-23.1092 385.612 -2.42169 352.247 19.0291 310.001C37.9795 272.709 54.5874 234.337 72.1955 193.698C79.223 177.49 86.4609 160.755 93.8306 144.204C104.832 119.484 119.808 88.4643 138.101 67.855C156.92 46.666 176.423 39.3394 197.768 45.4273C219.982 51.7787 239.722 64.3762 260.62 77.7116C262.621 79.003 264.647 80.2944 266.674 81.5594C301.837 103.882 341.712 142.544 376.323 177.068C379.166 179.915 382.034 182.761 384.903 185.634C417.356 218.05 450.94 251.573 486.604 279.64C527.11 311.503 564.169 331.19 599.938 339.781C611.729 342.628 623.363 343.893 634.549 343.576C645.208 343.287 655.789 341.521 666.027 338.358C684.872 332.508 702.954 321.913 721.247 305.969C755.2 276.372 784.941 232.202 813.709 189.481C840.055 150.345 867.323 109.864 897.959 80.2417C969.944 10.6393 1062.99 14.3553 1152.79 28.7448C1206.75 37.3891 1299.89 108.757 1389.93 177.78C1425.12 204.767 1458.39 230.225 1489.19 251.968L1489.79 251.098C1459 229.382 1425.75 203.897 1390.56 176.937C1300.39 107.835 1207.17 36.3877 1152.92 27.6906C1125.29 23.3422 1094.02 19.2045 1062.01 19.2045Z" fill="url(#paint19_linear_1151_1635)" fill-opacity="0.1"/>
<path d="M1038.14 4.41983C1029.32 4.41983 1020.45 4.78876 1011.61 5.63208C987.579 7.89859 965.233 13.433 945.204 22.1037C922.569 31.9076 902.039 46.0864 884.141 64.2183C853.347 95.4485 826.211 138.406 799.944 179.967C771.571 224.849 742.25 271.26 708.455 302.543C670.66 337.515 631.022 349.506 587.278 339.228C506.555 320.226 434.675 245.432 371.244 179.44L366.48 174.486C328.526 135.033 291.678 97.5568 258.489 72.9944C256.62 71.6239 254.751 70.2272 252.909 68.8567C231.458 52.9386 211.218 37.8901 188.135 29.8783C176.423 25.8197 165.026 25.7406 154.183 29.6938C144.418 33.2517 134.785 40.2093 125.546 50.4085C106.649 71.2023 91.4093 102.933 80.2496 128.233C70.8534 149.554 61.7204 171.244 52.9032 192.222C20.6349 268.888 -9.84372 341.31 -55.2984 404.06C-98.5421 463.727 -170.08 511.798 -241.197 467.707C-304.259 428.623 -327.158 388.59 -351.372 346.212C-354.03 341.574 -356.768 336.751 -359.558 332.007C-382.456 292.765 -395.616 251.626 -409.539 208.088C-413.435 195.912 -417.462 183.315 -421.673 170.902L-422.726 171.271C-418.514 183.684 -414.487 196.281 -410.592 208.43C-396.642 252.021 -383.482 293.213 -360.531 332.56C-357.742 337.331 -355.004 342.127 -352.346 346.766C-328.053 389.275 -305.102 429.413 -241.776 468.655C-225.141 478.96 -207.639 484.705 -189.741 485.759C-173.186 486.735 -156.262 483.677 -139.391 476.694C-123.757 470.237 -108.281 460.459 -93.4097 447.624C-79.4338 435.58 -66.3265 421.138 -54.4035 404.693C-33.9529 376.467 -14.555 343.339 4.92181 303.386C22.3456 267.675 38.3746 229.54 53.9034 192.644C62.7206 171.666 71.8536 149.976 81.2498 128.655C92.3832 103.434 107.544 71.8084 126.336 51.1464C145.655 29.8783 165.737 23.2633 187.741 30.9062C210.665 38.8652 230.853 53.8609 252.225 69.7264C254.093 71.0968 255.936 72.4937 257.831 73.8641C290.968 98.3738 327.763 135.797 365.69 175.224L370.454 180.178C402.933 213.965 436.517 248.911 472.47 278.191C513.345 311.45 550.825 331.77 587.041 340.282C598.991 343.102 610.808 344.288 622.099 343.814C632.864 343.366 643.55 341.389 653.841 337.937C672.818 331.585 690.926 320.253 709.219 303.36C743.119 271.998 772.492 225.508 800.891 180.574C827.106 139.092 854.242 96.1864 884.931 65.0089C957.943 -9.07373 1055.33 -0.0604553 1140.95 18.5195C1195.93 30.4581 1293.02 109.153 1386.93 185.238C1423.17 214.624 1457.42 242.349 1489.11 266.252L1489.76 265.356C1458.08 241.479 1423.86 213.728 1387.62 184.369C1293.63 108.178 1196.43 29.4039 1141.18 17.439C1112.1 11.1139 1075.65 4.41983 1038.14 4.41983Z" fill="url(#paint20_linear_1151_1635)" fill-opacity="0.1"/>
<path d="M1016.64 -10.6552C965.075 -10.6552 913.462 3.78711 871.06 48.8798C840.239 81.6385 813.261 126.995 787.178 170.849C759.147 217.971 730.169 266.727 696.401 299.775C658.631 336.751 618.704 349.77 574.328 339.571C492.526 320.78 420.435 242.586 356.82 173.59L352.345 168.74C317.893 131.37 282.255 92.7337 249.697 65.2459C248.118 63.9282 246.565 62.6105 245.013 61.2664C222.983 42.6074 202.164 24.9762 178.186 15.2513C171.027 12.3523 164.21 11.0083 157.709 11.0083C117.992 11.0083 90.0667 61.2664 67.6421 112.605C56.3771 138.406 45.6122 164.813 35.2158 190.351C5.42157 263.511 -22.6882 332.587 -63.7737 393.65C-80.329 418.265 -107.623 451.129 -143.55 467.812C-176.976 483.335 -209.692 481.068 -240.749 461.039C-298.259 424.011 -321.183 383.398 -345.45 340.388C-347.556 336.672 -349.714 332.824 -351.899 329.002C-374.876 288.759 -389.326 246.75 -404.618 202.29C-408.671 190.483 -412.882 178.281 -417.199 166.237L-418.278 166.632C-413.961 178.65 -409.75 190.852 -405.697 202.659C-390.379 247.198 -375.929 289.233 -352.899 329.582C-350.741 333.377 -348.556 337.225 -346.451 340.941C-322.105 384.083 -299.101 424.828 -241.381 462.04C-225.168 472.477 -208.244 478.196 -191.057 478.986C-175.239 479.724 -159.078 476.324 -143.05 468.892C-128.31 462.04 -113.676 451.788 -99.5952 438.453C-86.5142 426.066 -74.1438 411.202 -62.7736 394.335C-44.2969 366.874 -26.6362 334.879 -8.73862 296.534C7.23764 262.273 22.0295 225.956 36.3213 190.825C46.7177 165.288 57.4825 138.881 68.7211 113.106C94.5937 53.8608 127.783 -3.93481 177.791 16.3582C201.611 26.0303 222.351 43.5825 244.302 62.1888C245.855 63.5066 247.434 64.8506 248.987 66.1683C281.492 93.6034 317.103 132.213 351.53 169.557L356.004 174.407C388.483 209.616 422.041 246.038 458.257 276.557C499.501 311.318 537.401 332.297 574.091 340.73C586.225 343.524 598.174 344.604 609.624 343.972C620.52 343.366 631.311 341.152 641.681 337.436C660.79 330.557 678.977 318.513 697.243 300.619C731.117 267.464 760.121 218.656 788.205 171.455C814.261 127.654 841.187 82.35 871.929 49.6967C945.914 -28.9716 1048.25 -13.7914 1129.13 8.24106C1185.11 23.474 1286.18 109.522 1383.93 192.749C1421.2 224.48 1456.42 254.472 1489.03 280.484L1489.74 279.588C1457.15 253.576 1421.94 223.611 1384.67 191.88C1286.84 108.573 1185.66 22.4461 1129.42 7.13412C1094.49 -2.40625 1055.56 -10.6552 1016.64 -10.6552Z" fill="url(#paint21_linear_1151_1635)" fill-opacity="0.1"/>
<path d="M996.449 -25.8619C992.738 -25.8619 989.026 -25.7828 985.315 -25.5984C961.075 -24.4388 938.571 -19.4314 918.463 -10.6816C895.854 -0.851395 875.508 14.0389 857.979 33.5676C827.185 67.8286 800.417 115.53 774.545 161.677C746.83 211.066 718.167 262.167 684.451 297.034C646.709 336.039 606.465 350.112 561.432 340.018C478.55 321.439 404.67 237.868 345.292 170.717C340.028 164.761 334.711 158.725 329.553 152.848C300.074 119.352 269.596 84.7218 240.959 57.5503C239.801 56.4434 238.643 55.3365 237.459 54.2296C215.745 33.594 193.294 12.2468 168.264 0.703511C154.367 -5.70065 140.838 -6.49127 128.073 -1.58932C113.886 3.83972 100.516 16.0155 87.198 35.5969C76.8279 50.8562 66.6157 70.385 55.0612 97.0821C42.0592 127.126 29.8993 158.119 18.1343 188.137C-8.08046 254.946 -35.19 324.021 -72.196 383.398C-102.148 431.442 -137.733 461.987 -172.396 469.393C-195.479 474.321 -218.298 469.314 -240.275 454.529C-292.336 419.398 -315.445 377.837 -339.897 333.825C-341.344 331.242 -342.792 328.633 -344.239 326.024C-367.375 284.595 -383.956 239.476 -399.985 195.859C-404.118 184.632 -408.381 173.036 -412.724 161.598L-413.83 162.02C-409.487 173.431 -405.223 185.054 -401.117 196.281C-385.062 239.95 -368.454 285.096 -345.292 326.604C-343.845 329.213 -342.397 331.796 -340.949 334.405C-328.605 356.622 -316.946 377.6 -301.522 398.025C-284.046 421.164 -264.806 439.428 -241.012 455.451C-218.772 470.447 -195.61 475.507 -172.212 470.5C-153.656 466.52 -135.048 456.268 -116.914 440.008C-100.753 425.486 -85.3823 406.643 -71.2485 383.978C-54.6142 357.281 -38.559 326.393 -22.188 289.55C-7.58037 256.659 6.0271 222.029 19.1608 188.506C30.9258 158.515 43.0856 127.522 56.0877 97.5038C73.0641 58.2619 96.6469 11.6406 128.441 -0.508824C140.891 -5.279 154.103 -4.51469 167.711 1.75769C192.583 13.2219 214.955 34.4901 236.59 55.073C237.748 56.1799 238.906 57.2867 240.091 58.3936C268.674 85.5388 297.784 118.614 328.605 153.613C333.764 159.463 339.107 165.525 344.344 171.481C372.954 203.844 408.565 244.114 445.597 276.161C486.604 311.635 524.373 332.903 561.116 341.152C573.434 343.919 585.567 344.92 597.122 344.103C608.15 343.339 619.046 340.915 629.495 336.882C648.762 329.477 667.001 316.695 685.241 297.825C719.089 262.852 747.777 211.698 775.519 162.231C801.365 116.163 828.106 68.5138 858.821 34.3583C932.965 -48.1315 1035.85 -28.4447 1117.2 -2.0901C1174.19 16.5953 1279.31 110.049 1381.01 200.445C1419.28 234.442 1455.42 266.568 1488.87 294.689L1489.63 293.766C1456.18 265.672 1420.07 233.572 1381.8 199.549C1280.02 109.073 1174.79 15.5412 1117.57 -3.22329C1086.99 -13.159 1042.17 -25.8619 996.449 -25.8619Z" fill="url(#paint22_linear_1151_1635)" fill-opacity="0.1"/>
<path d="M977.551 -41.3318C975.761 -41.3318 973.972 -41.3054 972.182 -41.2791C947.81 -40.6729 925.253 -35.9027 905.119 -27.1003C882.536 -17.2437 862.27 -1.98444 844.898 18.2032C814.157 53.9399 787.626 103.961 761.964 152.322C734.565 204.003 706.218 257.45 672.502 294.135C634.759 335.222 594.174 350.323 548.482 340.309C464.601 321.966 389.51 233.388 334.685 168.74C325.499 157.909 316.235 146.84 307.286 136.113C281.387 105.094 256.909 75.8143 232.169 49.7496L230.116 47.5885C207.717 23.9748 184.556 -0.455872 158.315 -13.9494C143.812 -21.4077 129.705 -22.7518 116.387 -17.9289C101.937 -12.7107 88.3299 -0.561249 74.8277 19.231C64.2208 34.7539 53.9296 54.4934 42.4278 81.4014C27.6096 115.82 14.0548 151.768 0.973785 186.53C-22.9511 250.018 -47.6656 315.641 -80.6972 372.936C-101.385 408.831 -134.89 453.528 -177.002 462.778C-198.163 467.417 -219.298 462.383 -239.854 447.809C-286.599 414.708 -311.181 369.641 -334.948 326.024L-336.58 323.046C-360.031 280.036 -378.297 233.362 -395.932 188.243C-399.932 177.991 -404.091 167.396 -408.25 156.96L-409.381 157.408C-405.223 167.844 -401.091 178.439 -397.064 188.664C-379.403 233.836 -361.137 280.537 -337.633 323.626L-336.001 326.604C-324.078 348.479 -311.76 371.091 -296.811 391.911C-280.045 415.261 -261.647 433.894 -240.565 448.837C-219.719 463.622 -198.242 468.734 -176.713 464.017C-158.815 460.09 -140.865 449.39 -123.362 432.181C-108.07 417.132 -93.3308 397.419 -79.5917 373.594C-46.5075 316.194 -21.7667 250.519 2.1582 187.004C15.2392 152.269 28.794 116.348 43.5858 81.9285C55.0614 55.0995 65.2999 35.4128 75.8542 19.969C89.2248 0.413879 102.622 -11.6039 116.834 -16.7166C129.836 -21.4077 143.602 -20.09 157.788 -12.7898C183.845 0.598358 206.928 24.95 229.247 48.4846L231.3 50.6457C255.988 76.684 280.466 105.964 306.365 136.957C315.314 147.683 324.578 158.778 333.764 169.61C366.401 208.114 398.616 245.248 433.569 276.241C474.102 312.188 511.608 333.562 548.246 341.574C560.774 344.315 573.039 345.211 584.751 344.235C595.911 343.313 606.913 340.651 617.441 336.329C636.865 328.37 655.184 314.876 673.423 295.005C707.245 258.188 735.644 204.688 763.069 152.928C788.679 104.62 815.183 54.6516 845.846 19.0202C921.121 -68.4506 1030.03 -40.8311 1105.41 -12.4208C1163.37 9.58524 1272.52 110.47 1378.06 208.035C1417.36 244.352 1454.47 278.665 1488.82 308.868L1489.63 307.945C1455.29 277.769 1418.17 243.456 1378.9 207.139C1273.28 109.495 1164.05 8.50467 1105.86 -13.5541C1082.09 -22.5146 1060.83 -29.0769 1040.85 -33.6099C1018.35 -38.749 997.107 -41.3318 977.551 -41.3318Z" fill="url(#paint23_linear_1151_1635)" fill-opacity="0.1"/>
<path d="M959.574 -56.9337C959.39 -56.9337 959.232 -56.9337 959.074 -56.9337C934.597 -56.881 911.961 -52.348 891.774 -43.5193C869.191 -33.6363 849.03 -18.008 831.791 2.86478C801.128 40.0511 774.887 92.3385 749.488 142.887C722.378 196.834 694.348 252.653 660.632 291.184C622.862 334.352 581.961 350.534 535.559 340.73C457.178 323.89 388.114 245.617 324.078 166.896C311.365 151.267 298.6 135.112 286.282 119.484C265.726 93.419 244.433 66.4583 223.377 42.054L222.93 41.5269C199.821 14.7507 175.922 -12.948 148.365 -28.4971C133.31 -36.9833 118.65 -38.9072 104.806 -34.1897C90.093 -29.1823 76.2749 -17.0329 62.5359 2.97025C51.7447 18.7039 41.3483 38.6806 29.8202 65.8522C13.5544 104.066 -1.00061 144.389 -15.0555 183.394C-36.9537 244.167 -59.6152 306.996 -89.1726 362.605C-102.464 387.615 -116.493 408.172 -130.811 423.642C-147.498 441.642 -164.553 452.684 -181.503 456.453C-200.822 460.749 -220.299 455.61 -239.407 441.22C-281.098 409.779 -306.497 362.13 -328.895 320.068C-353.11 274.607 -373.455 225.455 -393.142 177.912C-396.617 169.531 -400.196 160.86 -403.776 152.322L-404.96 152.822C-401.407 161.361 -397.801 170.032 -394.327 178.413C-374.639 225.983 -354.268 275.16 -330.027 320.674C-317.209 344.736 -305.47 366.321 -291.442 386.745C-275.308 410.28 -258.542 428.438 -240.197 442.248C-220.773 456.875 -200.954 462.093 -181.266 457.718C-164.053 453.897 -146.761 442.722 -129.916 424.538C-115.519 408.989 -101.438 388.353 -88.0935 363.237C-58.4835 307.55 -35.8219 244.668 -13.8974 183.842C0.157501 144.837 14.6861 104.541 30.9519 66.353C42.4537 39.2605 52.7975 19.3364 63.5624 3.70813C77.1172 -16.0578 90.7509 -28.0491 105.174 -32.951C118.676 -37.5631 132.995 -35.6656 147.707 -27.3639C175.08 -11.9201 198.9 15.6995 221.93 42.3966L222.377 42.9237C243.407 67.3017 264.674 94.2624 285.229 120.301C297.547 135.929 310.312 152.084 323.025 167.739C351.924 203.265 385.719 243.877 421.409 276.293C461.494 312.689 498.711 334.194 535.217 342.022C547.929 344.71 560.405 345.5 572.249 344.341C583.54 343.234 594.674 340.335 605.281 335.723C624.863 327.21 643.26 312.953 661.527 292.08C695.348 253.418 723.431 197.546 750.567 143.519C775.939 93.0237 802.154 40.8154 832.712 3.7345C865.164 -35.6392 907.066 -55.2733 959.285 -55.2733C998.159 -55.2733 1042.75 -44.3889 1093.46 -22.6728C1152.42 2.65396 1265.54 110.998 1374.96 215.783C1415.28 254.393 1453.36 290.867 1488.61 323.125L1489.47 322.177C1454.23 289.945 1416.17 253.47 1375.85 214.861C1266.36 109.996 1153.13 1.57343 1093.96 -23.8587C1042.17 -46.1283 998.159 -56.9337 959.574 -56.9337Z" fill="url(#paint24_linear_1151_1635)" fill-opacity="0.1"/>
<path d="M942.229 -72.6147C919.068 -72.6147 897.617 -68.3452 878.43 -59.9118C855.873 -50.0025 835.765 -34.0316 818.709 -12.4472C788.178 26.1622 762.174 80.7161 737.065 133.452C710.245 189.745 682.504 247.989 648.761 288.39C610.966 333.667 569.696 350.903 522.61 341.099C443.544 324.654 375.928 245.09 313.471 164.972C297.81 144.89 282.203 123.885 267.148 103.592C250.092 80.6107 232.458 56.8653 214.613 34.3058C192.478 6.3436 167.421 -25.3873 138.443 -43.0976C122.835 -52.6379 107.622 -55.1416 93.2251 -50.5032C85.4871 -47.9995 77.7753 -43.3875 70.3531 -36.7462C63.6152 -30.7109 56.8509 -22.8309 50.2709 -13.3169C39.4271 2.39041 28.6095 23.1841 17.213 50.2503C-0.47406 92.2068 -15.8976 137.089 -30.7947 180.495C-50.7452 238.527 -71.3538 298.537 -97.6212 352.274C-110.544 378.681 -123.915 400.212 -137.364 416.21C-153.393 435.264 -169.764 446.755 -186.03 450.339C-203.585 454.213 -221.378 448.916 -238.96 434.632C-272.86 407.038 -299.206 359.495 -321.236 317.09C-347.503 266.516 -371.27 211.962 -394.274 159.2C-395.958 155.352 -397.617 151.504 -399.301 147.657L-400.512 148.184C-398.827 152.032 -397.169 155.879 -395.485 159.727C-372.481 212.515 -348.714 267.069 -322.42 317.696C-300.338 360.206 -273.913 407.908 -239.828 435.659C-221.931 450.207 -203.743 455.583 -185.793 451.63C-169.238 447.993 -152.63 436.345 -136.417 417.053C-122.888 400.977 -109.465 379.366 -96.4894 352.853C-70.1694 299.037 -49.5345 238.975 -29.584 180.916C-14.6869 137.537 0.736664 92.6811 18.3974 50.7774C34.242 13.1431 59.2986 -38.1693 93.5936 -49.2382C107.596 -53.7448 122.44 -51.3202 137.732 -41.9643C166.5 -24.3594 191.504 7.23965 213.56 35.1228C231.379 57.6559 249.013 81.4013 266.069 104.383C281.15 124.702 296.731 145.707 312.418 165.789C340.396 201.657 373.27 242.744 409.381 276.32C449.019 313.216 485.972 334.8 522.346 342.364C535.269 345.052 547.877 345.738 559.879 344.42C571.302 343.155 582.54 340.045 593.279 335.143C613.019 326.103 631.495 311.081 649.761 289.207C683.609 248.674 711.377 190.378 738.249 134.005C763.359 81.3223 789.31 26.8475 819.736 -11.6566C876.377 -83.2883 962.048 -90.2722 1081.7 -33.0828C1141.66 -4.40906 1258.81 111.419 1372.09 223.452C1413.44 264.328 1452.47 302.938 1488.61 337.225L1489.5 336.276C1453.39 302.015 1414.36 263.406 1373.01 222.53C1259.65 110.418 1142.42 -5.48959 1082.28 -34.2688C1029.93 -59.3056 985.341 -71.8504 945.967 -72.6147C944.703 -72.6147 943.466 -72.6147 942.229 -72.6147Z" fill="url(#paint25_linear_1151_1635)" fill-opacity="0.1"/>
<defs>
<linearGradient id="paint0_linear_1151_1635" x1="481.404" y1="633.824" x2="481.404" y2="-18.2189" gradientUnits="userSpaceOnUse">
<stop stop-color="white"/>
<stop offset="1" stop-color="white" stop-opacity="0"/>
</linearGradient>
<linearGradient id="paint1_linear_1151_1635" x1="484.881" y1="625.834" x2="484.881" y2="-4.0401" gradientUnits="userSpaceOnUse">
<stop stop-color="white"/>
<stop offset="1" stop-color="white" stop-opacity="0"/>
</linearGradient>
<linearGradient id="paint2_linear_1151_1635" x1="488.302" y1="617.964" x2="488.302" y2="10.1385" gradientUnits="userSpaceOnUse">
<stop stop-color="white"/>
<stop offset="1" stop-color="white" stop-opacity="0"/>
</linearGradient>
<linearGradient id="paint3_linear_1151_1635" x1="491.696" y1="610.153" x2="491.696" y2="24.3173" gradientUnits="userSpaceOnUse">
<stop stop-color="white"/>
<stop offset="1" stop-color="white" stop-opacity="0"/>
</linearGradient>
<linearGradient id="paint4_linear_1151_1635" x1="495.078" y1="602.422" x2="495.078" y2="38.4698" gradientUnits="userSpaceOnUse">
<stop stop-color="white"/>
<stop offset="1" stop-color="white" stop-opacity="0"/>
</linearGradient>
<linearGradient id="paint5_linear_1151_1635" x1="498.329" y1="594.64" x2="498.329" y2="52.6487" gradientUnits="userSpaceOnUse">
<stop stop-color="white"/>
<stop offset="1" stop-color="white" stop-opacity="0"/>
</linearGradient>
<linearGradient id="paint6_linear_1151_1635" x1="501.589" y1="587.03" x2="501.589" y2="66.801" gradientUnits="userSpaceOnUse">
<stop stop-color="white"/>
<stop offset="1" stop-color="white" stop-opacity="0"/>
</linearGradient>
<linearGradient id="paint7_linear_1151_1635" x1="504.687" y1="579.566" x2="504.687" y2="80.9532" gradientUnits="userSpaceOnUse">
<stop stop-color="white"/>
<stop offset="1" stop-color="white" stop-opacity="0"/>
</linearGradient>
<linearGradient id="paint8_linear_1151_1635" x1="507.16" y1="572.021" x2="507.16" y2="95.1321" gradientUnits="userSpaceOnUse">
<stop stop-color="white"/>
<stop offset="1" stop-color="white" stop-opacity="0"/>
</linearGradient>
<linearGradient id="paint9_linear_1151_1635" x1="509.358" y1="564.486" x2="509.358" y2="109.284" gradientUnits="userSpaceOnUse">
<stop stop-color="white"/>
<stop offset="1" stop-color="white" stop-opacity="0"/>
</linearGradient>
<linearGradient id="paint10_linear_1151_1635" x1="511.542" y1="557.142" x2="511.542" y2="108.678" gradientUnits="userSpaceOnUse">
<stop stop-color="white"/>
<stop offset="1" stop-color="white" stop-opacity="0"/>
</linearGradient>
<linearGradient id="paint11_linear_1151_1635" x1="513.74" y1="549.86" x2="513.74" y2="103.17" gradientUnits="userSpaceOnUse">
<stop stop-color="white"/>
<stop offset="1" stop-color="white" stop-opacity="0"/>
</linearGradient>
<linearGradient id="paint12_linear_1151_1635" x1="515.885" y1="542.564" x2="515.885" y2="95.949" gradientUnits="userSpaceOnUse">
<stop stop-color="white"/>
<stop offset="1" stop-color="white" stop-opacity="0"/>
</linearGradient>
<linearGradient id="paint13_linear_1151_1635" x1="518.162" y1="535.332" x2="518.162" y2="87.5945" gradientUnits="userSpaceOnUse">
<stop stop-color="white"/>
<stop offset="1" stop-color="white" stop-opacity="0"/>
</linearGradient>
<linearGradient id="paint14_linear_1151_1635" x1="520.267" y1="528.073" x2="520.267" y2="78.5023" gradientUnits="userSpaceOnUse">
<stop stop-color="white"/>
<stop offset="1" stop-color="white" stop-opacity="0"/>
</linearGradient>
<linearGradient id="paint15_linear_1151_1635" x1="522.557" y1="520.937" x2="522.557" y2="68.8302" gradientUnits="userSpaceOnUse">
<stop stop-color="white"/>
<stop offset="1" stop-color="white" stop-opacity="0"/>
</linearGradient>
<linearGradient id="paint16_linear_1151_1635" x1="524.742" y1="513.795" x2="524.742" y2="58.7627" gradientUnits="userSpaceOnUse">
<stop stop-color="white"/>
<stop offset="1" stop-color="white" stop-opacity="0"/>
</linearGradient>
<linearGradient id="paint17_linear_1151_1635" x1="526.926" y1="506.73" x2="526.926" y2="47.114" gradientUnits="userSpaceOnUse">
<stop stop-color="white"/>
<stop offset="1" stop-color="white" stop-opacity="0"/>
</linearGradient>
<linearGradient id="paint18_linear_1151_1635" x1="529.124" y1="499.762" x2="529.124" y2="33.5152" gradientUnits="userSpaceOnUse">
<stop stop-color="white"/>
<stop offset="1" stop-color="white" stop-opacity="0"/>
</linearGradient>
<linearGradient id="paint19_linear_1151_1635" x1="531.308" y1="492.752" x2="531.308" y2="19.2045" gradientUnits="userSpaceOnUse">
<stop stop-color="white"/>
<stop offset="1" stop-color="white" stop-opacity="0"/>
</linearGradient>
<linearGradient id="paint20_linear_1151_1635" x1="533.519" y1="485.937" x2="533.519" y2="4.41983" gradientUnits="userSpaceOnUse">
<stop stop-color="white"/>
<stop offset="1" stop-color="white" stop-opacity="0"/>
</linearGradient>
<linearGradient id="paint21_linear_1151_1635" x1="535.73" y1="479.085" x2="535.73" y2="-10.6552" gradientUnits="userSpaceOnUse">
<stop stop-color="white"/>
<stop offset="1" stop-color="white" stop-opacity="0"/>
</linearGradient>
<linearGradient id="paint22_linear_1151_1635" x1="537.902" y1="472.37" x2="537.902" y2="-25.8619" gradientUnits="userSpaceOnUse">
<stop stop-color="white"/>
<stop offset="1" stop-color="white" stop-opacity="0"/>
</linearGradient>
<linearGradient id="paint23_linear_1151_1635" x1="540.126" y1="465.717" x2="540.126" y2="-41.3318" gradientUnits="userSpaceOnUse">
<stop stop-color="white"/>
<stop offset="1" stop-color="white" stop-opacity="0"/>
</linearGradient>
<linearGradient id="paint24_linear_1151_1635" x1="542.257" y1="459.217" x2="542.257" y2="-56.9337" gradientUnits="userSpaceOnUse">
<stop stop-color="white"/>
<stop offset="1" stop-color="white" stop-opacity="0"/>
</linearGradient>
<linearGradient id="paint25_linear_1151_1635" x1="544.495" y1="452.888" x2="544.495" y2="-72.6147" gradientUnits="userSpaceOnUse">
<stop stop-color="white"/>
<stop offset="1" stop-color="white" stop-opacity="0"/>
</linearGradient>
</defs>
</svg>
