<svg width="1316" height="300" viewBox="0 0 1316 300" fill="none" xmlns="http://www.w3.org/2000/svg">
<mask id="mask0_1099_1423" style="mask-type:luminance" maskUnits="userSpaceOnUse" x="0" y="-213" width="1316" height="791">
<path d="M1316 577.953H0V-212.684H1316V577.953Z" fill="white"/>
</mask>
<g mask="url(#mask0_1099_1423)">
<path d="M1490.87 -110.903C1461.47 -27.6223 1431.1 58.5045 1377.27 131.638C1319.26 210.465 1237.04 262.568 1145.76 278.354C1122.5 282.386 1098.41 284.389 1073.43 284.389C1005.13 284.389 930.07 269.315 845.951 238.875C794.653 220.295 744.803 196.418 696.611 173.331C658.369 155.015 618.809 136.04 578.777 119.858C557.089 111.082 528.874 101.067 502.396 101.067C502.133 101.067 501.87 101.067 501.607 101.067C488.394 101.172 476.313 103.808 465.68 108.921C453.888 114.587 443.36 123.521 434.412 135.512C416.461 159.548 404.512 188.169 392.958 215.868C391.115 220.269 389.22 224.828 387.325 229.256C371.638 266.178 353.846 308.029 332.474 347.324C286.599 431.606 221.272 482.866 113.966 518.681C13.2127 552.31 -149.998 547.276 -249.856 507.428C-426.805 436.824 -456.731 387.04 -485.683 338.917C-493.921 325.213 -501.712 312.246 -512.845 298.99C-535.902 271.502 -528.006 241.379 -519.636 209.49C-516.372 197.024 -512.977 184.11 -511.292 170.907L-511.556 170.88C-513.24 184.084 -516.635 196.971 -519.899 209.437C-524.163 225.698 -528.19 241.062 -528.321 256.032C-528.453 272.872 -523.61 286.577 -513.056 299.174C-501.949 312.404 -494.158 325.371 -485.92 339.075C-471.707 362.715 -457.02 387.146 -423.699 414.581C-405.67 429.392 -384.035 443.65 -357.505 458.171C-327.579 474.564 -292.389 490.746 -249.961 507.692C-225.799 517.337 -197.453 525.112 -165.684 530.831C-134.943 536.365 -102.385 539.712 -68.9321 540.767C-35.3741 541.847 -2.65826 540.582 28.2941 536.998C60.4571 533.282 89.3038 527.194 114.018 518.945C167.053 501.235 207.612 481.021 241.618 455.299C278.597 427.337 308.391 392.074 332.659 347.456C354.057 308.161 371.823 266.284 387.536 229.361C389.404 224.934 391.326 220.374 393.168 215.973C404.723 188.301 416.646 159.68 434.596 135.697C471.812 85.8868 525.847 98.7742 578.672 120.148C618.704 136.329 658.263 155.278 696.506 173.595C744.698 196.681 794.548 220.585 845.872 239.165C899.17 258.457 947.494 271.291 993.58 278.381C1019.69 282.386 1045.3 284.521 1069.67 284.706C1095.86 284.916 1121.47 282.861 1145.81 278.67C1192.22 270.659 1235.99 253.581 1275.91 227.964C1314.74 203.059 1348.93 170.722 1377.51 131.849C1401.49 99.275 1422.96 61.0081 1443.2 14.8876C1461.5 -26.8052 1476.58 -69.4997 1491.13 -110.771L1490.87 -110.903Z" fill="url(#paint0_linear_1099_1423)" fill-opacity="0.1"/>
<path d="M1490.76 -96.7239C1453.02 -12.6792 1417.25 56.5806 1365.43 121.307C1307.97 193.229 1225.33 243.54 1132.68 263.016C1036.17 283.309 935.36 275.323 833.028 239.27C778.914 219.979 726.537 193.993 675.897 168.904C640.865 151.536 604.649 133.562 568.143 117.96C546.614 108.763 518.504 98.089 492.131 97.3511C479.129 96.9821 467.18 99.0905 456.652 103.571C444.966 108.552 434.517 116.669 425.542 127.738C408.46 148.822 396.563 174.017 385.035 198.394C382.508 203.744 379.903 209.253 377.297 214.629C371.98 225.54 366.769 236.53 361.242 248.126C348.187 275.587 334.685 303.971 319.814 331.696C273.359 417.902 209.244 470.69 105.464 508.271C7.47479 543.745 -151.761 540.371 -249.461 500.787C-420.699 431.395 -450.23 382.376 -478.787 334.99C-486.841 321.628 -494.448 308.978 -505.186 295.985C-528.269 268.023 -521.294 237.399 -513.924 204.983C-511.082 192.465 -508.134 179.525 -506.818 166.295L-507.134 166.268C-508.476 179.472 -511.398 192.412 -514.24 204.93C-521.61 237.399 -528.585 268.102 -505.423 296.196C-494.711 309.163 -487.104 321.787 -479.05 335.148C-464.996 358.472 -450.467 382.586 -418.014 409.574C-400.485 424.148 -379.456 438.168 -353.741 452.426C-324.736 468.529 -290.652 484.447 -249.566 501.077C-197.137 522.345 -127.02 533.15 -58.1673 533.15C1.4212 533.15 60.0884 525.059 105.596 508.588C130.731 499.495 152.761 489.85 172.975 479.15C194.32 467.843 213.139 455.562 230.537 441.647C266.542 412.815 295.837 376.92 320.104 331.88C334.974 304.129 348.477 275.745 361.531 248.284C367.059 236.661 372.27 225.698 377.587 214.787C380.192 209.411 382.798 203.903 385.325 198.553C396.827 174.201 408.723 149.006 425.779 127.949C463.074 81.9337 516.188 96.0861 568.012 118.25C604.491 133.852 640.708 151.8 675.74 169.167C726.379 194.283 778.756 220.242 832.896 239.56C935.281 275.613 1036.17 283.625 1132.73 263.306C1179.24 253.528 1222.96 236.292 1262.65 212.099C1302.26 187.958 1336.9 157.466 1365.67 121.492C1390.8 90.1036 1413.83 55.3683 1436.07 15.283C1458.1 -24.407 1477.03 -65.362 1491.05 -96.5921L1490.76 -96.7239Z" fill="url(#paint1_linear_1099_1423)" fill-opacity="0.1"/>
<path d="M1490.69 -82.5453C1449.65 -10.5446 1406.12 50.9669 1353.61 110.976C1296.47 176.625 1215.54 223.879 1119.6 247.677C1011.11 274.585 913.146 271.95 820.078 239.666C763.227 219.952 708.534 191.753 655.657 164.529C623.705 148.057 590.673 131.058 557.51 116.063C536.323 106.496 508.687 95.3217 482.682 93.6613C480.419 93.5295 478.182 93.4505 475.997 93.4505C451.941 93.4505 432.49 102.174 416.698 120.016C400.38 138.438 388.562 160.576 377.113 181.975C373.928 187.932 370.638 194.099 367.296 200.081C356.346 219.715 345.476 241.247 333.948 264.07C325.341 281.148 316.419 298.779 307.181 316.173C260.463 404.197 197.61 458.567 97.0417 497.914C1.78967 535.206 -153.446 533.519 -249.014 494.172C-414.593 425.992 -443.729 377.711 -471.918 331.037C-479.787 318.018 -487.21 305.71 -497.527 292.981C-520.61 264.518 -514.609 233.393 -508.266 200.424C-505.844 187.853 -503.344 174.86 -502.344 161.63L-502.686 161.603C-503.66 174.833 -506.16 187.826 -508.581 200.371C-514.951 233.42 -520.978 264.623 -497.79 293.218C-487.499 305.895 -480.077 318.202 -472.207 331.221C-458.31 354.255 -443.94 378.053 -412.356 404.592C-395.3 418.929 -374.902 432.686 -349.977 446.707C-321.867 462.493 -288.888 478.148 -249.145 494.514C-225.72 504.16 -198.453 511.724 -168.053 517.021C-138.706 522.134 -107.702 524.875 -75.907 525.244C-44.1124 525.586 -13.1337 523.504 16.1868 519.05C46.5601 514.438 73.8012 507.454 97.1733 498.283C121.651 488.69 143.233 478.543 163.158 467.211C183.977 455.351 202.401 442.569 219.509 428.074C254.593 398.373 283.387 361.819 307.549 316.331C316.787 298.937 325.684 281.279 334.317 264.228C345.818 241.431 356.715 219.873 367.638 200.266C370.98 194.283 374.27 188.116 377.455 182.16C388.878 160.76 400.722 138.649 416.988 120.279C454.362 78.0594 506.555 93.4768 557.379 116.432C590.516 131.401 623.547 148.426 655.5 164.871C708.403 192.122 763.096 220.295 819.973 240.035C844.425 248.521 869.586 255.03 894.722 259.405C919.094 263.648 944.23 265.994 969.445 266.389C993.764 266.784 1018.98 265.361 1044.35 262.199C1068.7 259.168 1094.04 254.398 1119.68 248.046C1166.5 236.424 1210.17 219.03 1249.44 196.365C1289.92 172.989 1325.03 144.341 1353.85 111.24C1406.36 51.2041 1449.92 -10.3074 1490.95 -82.3345L1490.69 -82.5453Z" fill="url(#paint2_linear_1099_1423)" fill-opacity="0.1"/>
<path d="M1490.58 -68.3665C1449.05 -11.1243 1401.12 38.8175 1345.61 96.6394L1341.77 100.645C1285.78 159.39 1206.64 203.692 1106.52 232.339C1054.35 247.282 996.054 260.565 933.939 260.565C893.117 260.565 850.662 254.82 807.156 240.035C748.041 219.952 691.479 189.697 636.76 160.417C607.466 144.763 577.198 128.555 546.93 114.139C526.11 104.23 498.948 92.5281 473.26 89.9454C446.545 87.2572 425.173 94.5311 407.907 112.241C392.273 128.291 380.508 147.636 369.138 166.374C365.322 172.646 361.4 179.129 357.347 185.454C341.318 210.438 325.42 241.168 308.576 273.716C304.022 282.492 299.337 291.584 294.626 300.545C248.013 389.36 184.477 447.05 88.5931 487.557C-3.94803 526.64 -155.209 526.64 -248.566 487.557C-408.486 420.616 -437.228 373.072 -465.022 327.11C-472.681 314.434 -479.945 302.442 -489.842 290.029C-512.951 261.092 -507.897 229.44 -502.554 195.943C-500.554 183.32 -498.475 170.3 -497.843 157.044L-498.238 157.018C-498.869 170.248 -500.949 183.293 -502.949 195.891C-508.318 229.466 -513.372 261.171 -490.157 290.266C-480.261 302.679 -473.023 314.644 -465.364 327.321C-451.625 350.065 -437.412 373.547 -406.697 399.638C-390.115 413.711 -370.322 427.231 -346.187 441.014C-318.998 456.511 -287.125 471.876 -248.724 487.952C-203.269 506.98 -143.286 517.469 -79.7759 517.469C-79.6443 517.469 -79.5391 517.469 -79.4075 517.469C-48.5078 517.443 -18.3714 514.965 10.1332 510.037C39.5853 504.977 66.0369 497.545 88.751 487.952C136.601 467.738 175.739 443.703 208.454 414.449C242.565 383.93 270.859 346.771 294.995 300.782C299.706 291.821 304.391 282.729 308.944 273.953C325.789 241.405 341.686 210.676 357.689 185.718C361.742 179.393 365.69 172.91 369.48 166.637C381.351 147.056 392.589 128.581 408.197 112.558C445.65 74.159 496.922 90.8151 546.745 114.561C577.013 128.976 607.281 145.158 636.576 160.839C691.295 190.119 747.883 220.374 807.024 240.483C855.005 256.77 904.171 263.306 957.39 260.459C1001.53 258.087 1048.96 249.285 1106.62 232.787C1154.18 219.188 1197.8 201.636 1236.2 180.631C1277.65 157.966 1313.26 131.19 1342.03 100.988L1345.87 96.9821C1401.38 39.1602 1449.34 -10.7817 1490.87 -68.0502L1490.58 -68.3665Z" fill="url(#paint3_linear_1099_1423)" fill-opacity="0.1"/>
<path d="M1490.53 -54.214C1463.84 -25.6456 1434.18 -0.529755 1402.78 26.062C1379.17 46.0651 1354.77 66.7271 1329.95 90.2617C1276.18 141.284 1198.8 182.74 1093.44 216.948C1026.01 238.849 962.549 257.033 897.459 257.033C863.743 257.033 829.58 252.158 794.206 240.377C733.091 220.032 674.871 187.694 618.599 156.438C591.726 141.521 563.959 126.078 536.296 112.189C515.872 101.937 489.157 89.7346 463.811 86.2031C458.837 85.5179 454.046 85.1753 449.44 85.1753C429.674 85.1753 413.119 91.5267 399.116 104.44C384.035 118.329 372.849 134.485 361.031 151.562C356.662 157.887 352.109 164.423 347.398 170.828C326.71 198.763 306.523 237.742 285.125 279.013L282.045 284.943C234.906 375.787 172.659 435.085 80.1707 477.173C-11.1861 518.76 -155.393 520.394 -248.119 480.942C-402.38 415.292 -430.727 368.434 -458.152 323.157C-465.285 311.35 -472.681 299.174 -482.182 287.051C-505.291 257.613 -501.212 225.461 -496.922 191.411C-495.316 178.76 -493.658 165.662 -493.368 152.406H-493.79C-494.079 165.662 -495.737 178.734 -497.343 191.384C-501.659 225.513 -505.765 257.745 -482.525 287.341C-473.023 299.438 -465.654 311.64 -458.521 323.42C-431.069 368.777 -402.67 415.688 -248.329 481.39C-203.585 500.444 -144.839 510.485 -82.9081 509.694C-52.8769 509.299 -23.6354 506.4 4.05319 501.05C32.6104 495.542 58.2461 487.662 80.3022 477.621C126.704 456.511 165 431.369 197.347 400.797C230.458 369.515 258.252 331.722 282.387 285.206L285.467 279.277C306.839 238.032 327.052 199.08 347.687 171.17C352.425 164.792 356.952 158.23 361.321 151.905C373.139 134.827 384.298 118.725 399.353 104.862C416.514 89.0494 437.57 83.1196 463.732 86.7565C489.026 90.2617 515.688 102.464 536.086 112.689C563.748 126.578 591.516 141.996 618.388 156.912C674.687 188.195 732.933 220.532 794.074 240.878C819.368 249.285 844.504 254.398 870.85 256.48C894.775 258.377 919.147 257.692 945.335 254.451C996.633 248.073 1048.75 231.997 1093.6 217.449C1143.26 201.32 1185.58 184.084 1222.96 164.792C1243.62 154.119 1262.89 142.681 1280.23 130.821C1298.63 118.224 1315.47 104.704 1330.27 90.657C1355.06 67.1224 1379.46 46.4604 1403.07 26.4573C1434.47 -0.13446 1464.13 -25.2767 1490.84 -53.845L1490.53 -54.214Z" fill="url(#paint4_linear_1099_1423)" fill-opacity="0.1"/>
<path d="M1490.45 -40.0351C1467.18 -21.1125 1441.84 -5.16803 1414.99 11.7253C1383.14 31.7811 1350.19 52.4958 1318.13 79.9308C1255.28 133.72 1166.71 170.222 1080.38 201.636C1075.46 203.428 1070.57 205.22 1065.7 207.013C999.344 231.285 935.571 254.609 868.113 254.609C839.977 254.609 811.182 250.55 781.309 240.825C718.378 220.322 658.763 185.902 601.096 152.617C576.461 138.385 550.983 123.706 525.689 110.344C505.634 99.7495 479.392 87.0466 454.362 82.5663C447.94 81.4331 441.807 80.8533 435.991 80.8533C418.33 80.8533 403.275 86.0978 390.299 96.7187C375.639 108.71 364.479 122.731 352.688 137.568C347.819 143.709 342.765 150.06 337.422 156.254C314.577 182.845 292.231 224.934 269.438 269.367C221.746 362.32 160.789 423.225 71.722 466.816C24.5039 489.929 -37.4008 501.656 -98.5685 501.656C-152.261 501.656 -205.401 492.617 -247.671 474.327C-396.248 409.995 -424.226 363.822 -451.283 319.178C-458.231 307.713 -465.417 295.854 -474.523 284.047C-497.632 254.108 -494.553 221.428 -491.289 186.851C-490.078 174.148 -488.841 161.024 -488.894 147.741H-489.368C-489.315 160.997 -490.552 174.122 -491.763 186.799C-495.053 221.481 -498.159 254.214 -474.918 284.31C-465.811 296.117 -458.626 307.95 -451.704 319.388C-424.621 364.086 -396.59 410.338 -247.934 474.722C-204.006 493.75 -146.629 503.37 -86.4086 501.788C-57.2724 501.024 -28.8731 497.703 -2.00037 491.932C25.6356 485.976 50.5081 477.647 71.8536 467.211C161.026 423.568 222.062 362.61 269.806 269.552C292.573 225.144 314.919 183.083 337.712 156.517C343.055 150.298 348.108 143.946 352.977 137.805C364.769 122.968 375.902 108.974 390.536 97.0349C407.697 83.0143 428.542 78.4286 454.231 82.988C479.208 87.4419 505.397 100.145 525.426 110.713C550.72 124.048 576.171 138.754 600.807 152.986C658.5 186.271 718.141 220.717 781.099 241.221C805.603 249.206 829.817 253.634 855.163 254.793C877.877 255.821 901.065 254.161 926.043 249.733C972.656 241.484 1017.9 224.934 1065.8 207.408C1070.67 205.616 1075.59 203.824 1080.49 202.031C1117.42 188.591 1165.48 170.406 1209.64 148.927C1254.12 127.29 1289.71 104.81 1318.4 80.2734C1350.43 52.8647 1383.35 32.15 1415.17 12.0942C1442.02 -4.7991 1467.39 -20.7699 1490.69 -39.7188L1490.45 -40.0351Z" fill="url(#paint5_linear_1099_1423)" fill-opacity="0.1"/>
<path d="M1490.4 -25.8828C1468.23 -12.6791 1444.23 -2.24274 1418.83 8.77347C1381.22 25.1133 1342.29 42.0066 1306.34 69.5734C1249.07 113.454 1173.06 143.893 1092.6 176.125C1084.33 179.446 1075.78 182.872 1067.33 186.271C1054.67 191.384 1042.03 196.681 1029.8 201.821C967.681 227.912 908.04 252.975 843.451 252.975C819.236 252.975 794.364 249.47 768.36 241.168C703.797 220.559 642.918 184.058 584.067 148.769C561.484 135.223 538.165 121.228 515.056 108.42C495.369 97.5093 469.628 84.2793 444.861 78.8766C419.462 73.3158 398.722 76.6101 381.456 88.9177C367.085 99.1696 355.873 111.319 344.002 124.154C338.712 129.873 333.237 135.802 327.421 141.627C303.022 165.952 279.071 209.885 256.804 253.765C208.533 348.932 148.84 411.445 63.2206 456.432C-22.7405 501.604 -159.131 506.558 -247.276 467.685C-390.115 404.724 -417.725 359.21 -444.413 315.172C-451.151 304.05 -458.126 292.559 -466.864 281.042C-489.999 250.577 -487.894 217.422 -485.657 182.292C-484.841 169.563 -484.025 156.385 -484.393 143.103L-484.92 143.129C-484.551 156.385 -485.367 169.563 -486.183 182.266C-488.42 217.475 -490.526 250.735 -467.285 281.359C-458.573 292.849 -451.599 304.314 -444.861 315.435C-431.569 337.362 -417.83 360.027 -389.694 384.8C-374.534 398.136 -356.61 410.944 -334.843 423.937C-310.392 438.537 -281.808 453.006 -247.487 468.133C-204.349 487.135 -148.392 496.333 -89.8565 493.987C-61.6152 492.854 -34.0844 489.112 -8.00134 482.892C18.7398 476.514 42.7963 467.738 63.4838 456.854C149.182 411.814 208.954 349.248 257.278 253.976C279.518 210.149 303.443 166.242 327.789 141.969C333.632 136.145 339.107 130.215 344.397 124.496C356.241 111.662 367.427 99.5649 381.772 89.3394C398.906 77.1108 419.514 73.8429 444.782 79.3773C469.47 84.78 495.184 97.9836 514.845 108.868C537.928 121.676 561.274 135.671 583.83 149.217C642.708 184.532 703.586 221.059 768.228 241.669C863.77 272.161 944.519 238.243 1030.01 202.321C1042.22 197.182 1054.88 191.885 1067.51 186.772C1075.96 183.372 1084.52 179.946 1092.78 176.626C1173.27 144.394 1249.3 113.928 1306.66 69.9951C1342.58 42.4809 1381.46 25.5877 1419.04 9.24786C1444.47 -1.79471 1468.47 -12.2311 1490.66 -25.4611L1490.4 -25.8828Z" fill="url(#paint6_linear_1099_1423)" fill-opacity="0.1"/>
<path d="M1490.34 -11.7305C1468.39 -2.74365 1444.7 3.52875 1419.6 10.1437C1377.09 21.3708 1333.13 32.9668 1294.5 59.2423C1248.81 90.3143 1191.14 113.954 1130.1 138.991C1105.28 149.164 1079.65 159.68 1054.22 170.959C1036.61 178.76 1019.22 187.167 1002.42 195.311C942.677 224.195 885.405 251.894 821.789 251.894C800.47 251.894 778.467 248.784 755.41 241.59C689.321 220.928 627.363 182.318 567.459 144.974C546.824 132.113 525.479 118.804 504.423 106.549C485.13 95.3217 459.863 81.6173 435.359 75.2395C410.381 68.7563 389.852 70.7065 372.612 81.1956C358.32 89.8926 346.95 100.355 334.922 111.424C329.342 116.563 323.578 121.861 317.393 127.079C290.678 149.638 265.358 195.943 244.144 238.243C195.242 335.728 136.811 399.822 54.7192 446.127C-28.5573 493.091 -161.052 499.68 -246.908 461.123C-384.035 399.559 -411.276 354.651 -437.623 311.218C-444.15 300.439 -450.914 289.291 -459.258 278.117C-482.367 247.124 -481.288 213.443 -480.103 177.811C-479.682 165.056 -479.261 151.852 -479.972 138.543L-480.524 138.57C-479.814 151.852 -480.261 165.03 -480.656 177.785C-481.814 213.548 -482.919 247.308 -459.679 278.46C-451.362 289.608 -444.598 300.756 -438.07 311.508C-424.91 333.198 -411.329 355.599 -384.062 379.951C-369.375 393.049 -352.056 405.62 -331.106 418.376C-307.549 432.686 -280.098 446.839 -247.119 461.65C-204.796 480.652 -150.208 489.375 -93.3834 486.265C-66.0369 484.763 -39.3748 480.599 -14.1076 473.931C11.7123 467.106 34.9792 457.908 55.0088 446.628C137.206 400.297 195.689 336.097 244.644 238.506C265.832 196.26 291.099 150.034 317.761 127.527C323.947 122.309 329.711 117.012 335.29 111.872C347.292 100.83 358.663 90.3934 372.902 81.7227C390.01 71.3127 410.381 69.3624 435.201 75.8193C459.626 82.1707 484.867 95.8488 504.133 107.076C525.189 119.331 546.508 132.64 567.143 145.501C627.074 182.872 689.058 221.507 755.226 242.169C778.335 249.39 800.417 252.5 821.789 252.5C885.51 252.5 942.835 224.775 1002.63 195.864C1019.45 187.747 1036.82 179.34 1054.43 171.513C1079.83 160.233 1105.49 149.717 1130.31 139.545C1191.37 114.508 1249.07 90.8414 1294.81 59.743C1333.37 33.5466 1377.27 21.9506 1419.73 10.7235C1444.84 4.08218 1468.55 -2.16382 1490.53 -11.1771L1490.34 -11.7305Z" fill="url(#paint7_linear_1099_1423)" fill-opacity="0.1"/>
<path d="M1490.29 2.44824C1468.13 7.95636 1444.2 10.7235 1418.91 13.6226C1371.93 19.0252 1323.37 24.6388 1282.68 48.885C1245.36 71.1282 1200.19 89.1021 1152.4 108.13C1115.99 122.599 1078.36 137.568 1041.14 155.595C1020.14 165.767 999.607 177.1 979.762 188.063C921.516 220.242 865.744 251.077 802.181 251.077C783.073 251.077 763.28 248.31 742.487 241.932C675.003 221.27 612.098 180.526 551.246 141.1C532.427 128.897 512.977 116.3 493.816 104.599C465.759 87.4417 444.782 77.2425 425.858 71.5236C401.301 64.0916 381.008 64.6977 363.821 73.3947C349.398 80.6949 337.686 89.6555 325.289 99.1431C319.604 103.492 313.734 107.972 307.444 112.426C294.731 121.413 281.782 136.092 267.859 157.334C256.857 174.095 245.329 194.837 231.537 222.614C181.95 322.524 124.81 388.253 46.2706 435.717C-34.3739 484.447 -162.947 492.669 -246.46 454.482C-377.876 394.367 -404.775 350.039 -430.753 307.186C-437.07 296.75 -443.624 285.971 -451.572 275.139C-474.681 243.619 -474.602 209.437 -474.497 173.252C-474.471 160.444 -474.418 147.214 -475.471 133.905L-476.076 133.958C-475.05 147.24 -475.076 160.47 -475.129 173.252C-475.208 209.542 -475.313 243.83 -452.072 275.508C-444.15 286.313 -437.623 297.092 -431.28 307.502C-418.277 328.955 -404.828 351.119 -378.429 375.049C-364.216 387.936 -347.503 400.244 -327.342 412.736C-304.707 426.757 -278.334 440.593 -246.724 455.035C-205.217 474.01 -152.024 482.312 -96.8839 478.385C-43.0069 474.564 7.92233 459.594 46.5601 436.244C87.4351 411.55 122.256 382.033 153.024 346.006C181.845 312.246 207.717 271.976 232.063 222.904C253.409 179.893 279.097 133.193 307.76 112.953C314.05 108.499 319.92 104.019 325.605 99.6439C337.975 90.1826 349.661 81.222 364.032 73.9745C381.087 65.3566 401.222 64.7504 425.621 72.1561C444.518 77.875 465.417 88.0479 493.447 105.178C512.582 116.88 532.033 129.477 550.851 141.679C611.729 181.132 674.661 221.903 742.25 242.591C832.475 270.211 904.145 230.6 979.999 188.67C999.844 177.706 1020.37 166.374 1041.35 156.201C1078.57 138.201 1116.18 123.231 1152.55 108.763C1200.4 89.7345 1245.57 71.7607 1282.94 49.4911C1323.5 25.2976 1372.01 19.7105 1418.94 14.3078C1444.26 11.3824 1468.18 8.64157 1490.4 3.10712L1490.29 2.44824Z" fill="url(#paint8_linear_1099_1423)" fill-opacity="0.1"/>
<path d="M1490.26 16.6008C1467.63 19.0254 1443.26 18.6564 1417.44 18.2611C1407.86 18.103 1398.22 17.9712 1388.59 17.9712C1346.79 17.9712 1305.37 20.7648 1270.89 38.5277C1240.15 54.3668 1204.22 67.7286 1166.19 81.8546C1120.92 98.6689 1074.09 116.063 1028.06 140.23C1004.61 152.538 981.92 166.743 959.969 180.473C887.247 225.988 818.526 268.972 729.538 242.301C660.737 221.692 596.964 178.734 535.296 137.199C518.214 125.682 500.527 113.796 483.182 102.675C455.704 85.0699 435.069 74.3173 416.303 67.8077C392.168 59.4269 372.112 58.7154 355.004 65.5939C340.054 71.6027 327.737 79.2455 314.682 87.3628C309.207 90.7625 303.522 94.294 297.495 97.7991C283.966 105.653 270.412 119.726 256.067 140.889C244.671 157.677 232.879 178.681 218.956 207.012C168.632 309.505 112.755 376.841 37.8217 425.334C-41.4805 476.646 -163.5 486.318 -246.013 447.84C-371.718 389.175 -398.248 345.4 -423.91 303.075C-430.016 293.007 -436.333 282.571 -443.887 272.108C-466.996 240.061 -467.917 205.352 -468.917 168.614C-469.259 155.779 -469.628 142.523 -470.97 129.214L-471.602 129.266C-470.26 142.549 -469.891 155.806 -469.549 168.614C-468.549 205.458 -467.628 240.246 -444.387 272.451C-436.86 282.914 -430.543 293.324 -424.436 303.365C-411.566 324.606 -398.274 346.56 -372.718 370.068C-358.979 382.718 -342.871 394.815 -323.499 407.017C-301.759 420.722 -276.492 434.241 -246.25 448.341C-225.431 458.066 -201.901 464.865 -176.318 468.581C-151.893 472.113 -126.336 472.745 -100.332 470.453C-48.4026 465.867 0.789429 450.001 38.1902 425.808C77.7228 400.218 111.676 369.594 141.996 332.17C169.685 298.015 195.031 257.139 219.535 207.223C233.432 178.918 245.197 157.94 256.594 141.179C270.912 120.121 284.388 106.074 297.811 98.2999C303.864 94.7947 309.523 91.2632 315.024 87.8635C328.052 79.7726 340.344 72.1562 355.241 66.1473C372.217 59.3215 392.115 60.0594 416.093 68.3875C434.833 74.8707 455.415 85.6234 482.84 103.175C500.185 114.297 517.846 126.183 534.954 137.7C596.648 179.261 660.474 222.219 729.353 242.881C750.831 249.311 771.623 251.921 792.916 250.866C811.946 249.918 831.001 246.017 851.162 238.954C888.668 225.803 923.463 204.034 960.311 180.974C982.236 167.243 1004.92 153.065 1028.35 140.757C1074.36 116.616 1121.15 99.2223 1166.4 82.4081C1204.46 68.2557 1240.41 54.9203 1271.18 39.0548C1313.42 17.2596 1366.3 18.0766 1417.41 18.8673C1443.26 19.2626 1467.66 19.6316 1490.32 17.2069L1490.26 16.6008Z" fill="url(#paint9_linear_1099_1423)" fill-opacity="0.1"/>
<path d="M1328.66 15.9944C1303.55 15.9944 1279.84 19.1043 1259.07 28.1966C1233.78 39.2655 1205.11 48.8849 1174.74 59.0842C1124.65 75.8984 1067.91 94.9264 1014.98 124.918C989.711 139.228 965.497 156.227 942.072 172.672C871.692 222.061 805.234 268.708 716.615 242.723C646.577 222.166 582.04 176.994 519.662 133.325C504.212 122.52 488.236 111.319 472.602 100.83C438.123 77.6905 399.406 55.2101 365.374 55.2101C358.794 55.2101 352.398 56.0534 346.24 57.8982C330.105 62.7211 316.63 69.257 302.338 76.1619C297.6 78.4548 292.705 80.8267 287.546 83.2249C273.202 89.8927 259.015 103.386 244.197 124.47C232.458 141.179 220.43 162.447 206.349 191.463C154.498 298.146 101.569 364.982 29.373 415.003C-47.2708 468.081 -165.474 479.36 -245.566 441.252C-365.585 384.141 -390.615 342.791 -417.093 299.042C-422.962 289.344 -429.042 279.303 -436.201 269.183C-459.284 236.582 -461.258 201.372 -463.337 164.081C-464.048 151.22 -464.811 137.937 -466.443 124.654L-467.127 124.733C-465.469 138.016 -464.732 151.299 -464.022 164.133C-461.942 201.504 -459.968 236.819 -436.754 269.578C-429.621 279.672 -423.542 289.687 -417.672 299.385C-404.933 320.416 -391.773 342.159 -367.085 365.271C-353.82 377.658 -338.317 389.518 -319.735 401.483C-298.916 414.897 -274.755 428.074 -245.855 441.831C-225.405 451.556 -202.401 458.25 -177.502 461.729C-153.788 465.023 -128.994 465.34 -103.806 462.652C-53.8245 457.302 -6.36951 440.566 29.7942 415.53C68.0108 389.07 101.095 357.312 130.942 318.492C157.788 283.572 181.95 243.303 207.007 191.727C221.088 162.763 233.09 141.495 244.802 124.839C259.541 103.861 273.623 90.4197 287.862 83.8311C293.021 81.4328 297.916 79.0609 302.654 76.7681C316.919 69.8632 330.369 63.3272 346.45 58.5307C384.219 47.2773 431.227 73.869 472.233 101.383C487.894 111.899 503.844 123.073 519.294 133.878C581.725 177.601 646.314 222.799 716.457 243.382C737.855 249.654 758.463 251.947 779.467 250.339C798.233 248.916 816.92 244.383 836.608 236.503C873.245 221.85 906.882 198.236 942.467 173.252C965.865 156.833 990.079 139.835 1015.32 125.524C1068.2 95.5852 1124.92 76.5309 1174.98 59.743C1205.35 49.5438 1234.04 39.9244 1259.36 28.8291C1303.08 9.69571 1360.16 17.154 1415.38 24.3488C1441.91 27.8013 1466.95 31.0956 1490.21 31.4646V30.7794C1466.97 30.3841 1441.94 27.1161 1415.46 23.6636C1386.3 19.8686 1356.64 15.9944 1328.66 15.9944Z" fill="url(#paint10_linear_1099_1423)" fill-opacity="0.1"/>
<path d="M1294.89 10.4865C1277.78 10.4865 1261.7 12.5949 1247.28 17.8394C1226.7 25.2978 1203.96 31.9655 1179.87 39.0022C1123.86 55.3947 1060.41 73.9483 1001.9 109.58C975.235 125.814 949.941 145.554 925.464 164.661C857.005 218.108 792.364 268.577 703.691 243.092C632.469 222.641 567.275 175.176 504.212 129.293C490.342 119.199 475.997 108.763 461.969 98.9061C436.043 80.6951 415.461 68.4666 397.195 60.4548C373.849 50.2029 354.293 46.8031 337.422 50.0974C318.709 53.7343 303.548 59.2161 285.993 65.5676C283.256 66.569 280.44 67.5705 277.571 68.5983C262.358 74.0274 247.566 86.9147 232.3 107.972C220.298 124.549 208.033 146.107 193.741 175.861C140.996 285.523 89.3036 353.939 20.898 404.619C-53.0875 459.41 -167.448 472.324 -245.118 434.584C-359.426 379.055 -384.14 338.153 -410.303 294.852C-415.935 285.523 -421.778 275.877 -428.542 266.152C-451.599 232.998 -454.625 197.261 -457.81 159.443C-458.889 146.581 -460.021 133.272 -461.969 119.99L-462.679 120.095C-460.732 133.378 -459.6 146.661 -458.521 159.522C-455.31 197.446 -452.309 233.288 -429.121 266.6C-422.357 276.299 -416.54 285.944 -410.908 295.274C-398.301 316.12 -385.272 337.678 -361.426 360.422C-348.608 372.651 -333.711 384.273 -315.945 395.948C-296.021 409.047 -272.965 421.908 -245.434 435.296C-225.352 445.047 -202.901 451.635 -178.687 454.877C-155.683 457.961 -131.679 457.934 -107.307 454.851C-59.2727 448.763 -13.5812 431.132 21.3454 405.251C58.246 377.922 90.4355 345.058 119.809 304.788C145.365 269.763 169.053 228.913 194.399 176.23C208.691 146.529 220.93 124.997 232.906 108.446C248.066 87.5209 262.779 74.7126 277.834 69.3362C280.703 68.3084 283.519 67.3069 286.256 66.3055C303.785 59.9804 318.946 54.4986 337.58 50.8617C354.32 47.5938 373.718 50.9671 396.932 61.1663C415.145 69.1781 435.675 81.3803 461.574 99.5649C475.602 109.422 489.947 119.858 503.791 129.952C566.906 175.888 632.154 223.379 703.481 243.856C724.905 250.023 745.435 251.973 766.254 249.812C784.862 247.888 803.313 242.723 822.631 234.026C858.611 217.818 891.274 192.307 925.885 165.293C950.336 146.186 975.63 126.447 1002.27 110.265C1060.7 74.7126 1124.13 56.159 1180.08 39.7664C1204.17 32.7298 1226.91 26.0621 1247.52 18.6038C1292.58 2.26392 1353.8 16.5217 1412.99 30.3315C1440.31 36.7093 1466.1 42.7181 1490.08 45.7753L1490.16 45.0637C1466.23 42.0066 1440.44 35.9977 1413.15 29.6463C1372.77 20.1323 1331.45 10.4865 1294.89 10.4865Z" fill="url(#paint11_linear_1099_1423)" fill-opacity="0.1"/>
<path d="M1268.49 3.26529C1256.73 3.26529 1245.67 4.55667 1235.49 7.50839C1219.06 12.2522 1201.4 16.5744 1182.69 21.1601C1121.44 36.1295 1052.01 53.1018 988.842 94.2412C961.127 112.294 935.018 134.775 909.803 156.517C854.453 204.219 801.602 249.733 734.512 249.733C720.589 249.733 706.06 247.783 690.768 243.487C618.415 223.141 552.615 173.358 488.973 125.181C476.629 115.826 463.864 106.18 451.362 97.0085C425.989 78.3494 405.749 65.5675 387.615 56.7123C367.48 46.8821 350.135 42.0592 334.896 42.0592C332.764 42.0592 330.684 42.1646 328.632 42.3491C305.97 44.4311 287.599 48.8587 267.622 53.9978C251.54 58.1355 236.09 70.3904 220.377 91.4477C208.139 107.867 195.663 129.741 181.108 160.286C141.286 243.935 93.2781 330.167 12.423 394.262C-49.7974 443.571 -158.078 471.006 -244.723 427.995C-353.293 374.1 -377.718 333.593 -403.565 290.715C-408.96 281.78 -414.54 272.53 -420.909 263.2C-443.966 229.467 -448.019 193.203 -452.336 154.83C-453.783 141.969 -455.283 128.66 -457.547 115.351L-458.31 115.483C-456.047 128.739 -454.546 142.048 -453.125 154.909C-448.809 193.387 -444.729 229.73 -421.567 263.622C-415.224 272.925 -409.645 282.176 -404.249 291.11C-391.194 312.747 -378.876 333.198 -355.873 355.547C-343.502 367.564 -329.237 378.95 -312.234 390.387C-293.205 403.169 -271.254 415.714 -245.092 428.707C-225.378 438.485 -203.454 444.968 -179.95 447.972C-157.657 450.818 -134.443 450.476 -110.886 446.971C-64.7998 440.119 -20.8718 421.618 12.8705 394.894C48.4551 366.695 79.7759 332.697 108.649 291.004C132.837 256.085 156.051 214.655 181.766 160.655C196.295 130.163 208.744 108.341 220.956 91.9484C236.564 71.0493 251.882 58.8998 267.78 54.7885C287.73 49.6494 306.075 45.2217 328.684 43.1397C345.266 41.6112 364.427 46.3023 387.246 57.4503C405.328 66.2791 425.542 79.061 450.862 97.6673C463.337 106.839 476.103 116.511 488.447 125.84C552.141 174.043 617.994 223.879 690.479 244.251C712.009 250.313 732.538 251.947 753.252 249.259C771.755 246.861 790.021 241.063 809.103 231.496C844.556 213.706 876.456 186.219 910.225 157.123C935.439 135.407 961.496 112.927 989.185 94.9001C1052.25 53.8397 1121.6 36.8674 1182.79 21.9243C1201.51 17.3386 1219.2 13.0165 1235.65 8.27264C1281.97 -5.14182 1347.24 16.0472 1410.36 36.5511C1438.55 45.6961 1465.18 54.3405 1489.92 59.954L1490.08 59.216C1465.39 53.6288 1438.78 44.9846 1410.59 35.8395C1361.24 19.7369 1310.5 3.26529 1268.49 3.26529Z" fill="url(#paint12_linear_1099_1423)" fill-opacity="0.1"/>
<path d="M1245.94 -5.08914C1238.12 -5.08914 1230.67 -4.37759 1223.7 -2.84903C1211.09 -0.0817871 1197.85 2.47464 1183.82 5.16281C1152.18 11.2507 1116.34 18.1556 1080.8 29.1982C1040.03 41.8747 1005.69 58.1355 975.788 78.9029C947.23 98.7215 920.595 123.89 894.854 148.242C829.37 210.122 767.544 268.55 677.871 243.882C604.439 223.668 538.086 171.46 473.918 120.991C463.021 112.426 451.783 103.571 440.807 95.1372C422.331 80.9321 399.327 63.2746 377.981 51.1251C357.978 39.7663 341.055 34.1791 326.552 34.1791C324.262 34.1791 322.051 34.3109 319.867 34.6008C309.892 35.8658 300.522 36.2348 291.468 36.6038C280.729 37.0254 269.648 37.4471 257.725 39.4237C240.775 42.2173 224.667 53.8396 208.507 74.8969C195.873 91.3685 183.529 112.9 168.553 144.71C121.572 244.383 75.6173 323.21 4.00061 383.931C-55.93 434.768 -160.447 463.943 -244.25 421.407C-347.108 369.172 -371.244 329.034 -396.8 286.524C-401.933 277.985 -407.249 269.156 -413.198 260.249C-436.228 225.935 -441.36 189.144 -446.808 150.192C-448.598 137.331 -450.467 124.022 -453.02 110.739L-453.809 110.897C-451.256 124.127 -449.414 137.436 -447.598 150.297C-442.15 189.328 -436.991 226.225 -413.856 260.697C-407.907 269.578 -402.591 278.407 -397.458 286.919C-384.535 308.425 -372.349 328.718 -350.161 350.724C-338.238 362.531 -324.578 373.705 -308.365 384.879C-290.231 397.371 -269.359 409.547 -244.565 422.145C-225.22 431.975 -203.848 438.326 -181.029 441.094C-159.447 443.703 -136.996 443.017 -114.281 439.117C-70.1692 431.527 -27.9782 412.156 4.55331 384.563C38.822 355.494 69.2742 320.39 97.6208 277.221C127.073 232.365 151.393 183.056 169.29 145.105C192.083 96.7449 220.456 46.4604 257.857 40.2671C269.701 38.3168 280.782 37.8688 291.494 37.4471C300.574 37.1045 309.944 36.7355 319.972 35.4442C355.794 30.8848 400.696 65.3829 440.307 95.8224C451.283 104.256 462.548 113.111 473.418 121.676C537.639 172.198 604.044 224.459 677.635 244.726C699.322 250.682 719.905 252.026 740.592 248.811C759.069 245.938 777.203 239.455 796.075 229.018C831.133 209.621 862.348 180.131 895.38 148.901C921.121 124.575 947.73 99.433 976.235 79.6407C1043.22 33.125 1118.02 18.7354 1183.98 6.03247C1198.01 3.3443 1211.27 0.787933 1223.88 -1.97931C1271.39 -12.3893 1340.69 15.81 1407.72 43.087C1436.83 54.9465 1464.34 66.1472 1489.9 74.1854L1490.13 73.4211C1464.63 65.3829 1437.12 54.1823 1408.04 42.3491C1350.66 18.9199 1291.68 -5.08914 1245.94 -5.08914Z" fill="url(#paint13_linear_1099_1423)" fill-opacity="0.1"/>
<path d="M1225.78 -14.1814C1220.96 -14.1814 1216.33 -13.8651 1211.88 -13.1799C1202.85 -11.8094 1193.56 -10.5444 1183.72 -9.20035C1150.18 -4.58829 1112.2 0.603516 1074.25 11.119C1030.59 23.2157 994.08 40.3726 962.654 63.5646C933.439 85.1226 906.461 112.953 880.325 139.835C816.052 206.064 755.331 268.603 664.87 244.251C590.384 224.196 523.531 169.51 458.915 116.616C449.467 108.868 439.676 100.856 430.121 93.2134C394.458 64.566 348.714 31.1485 311.076 26.8C305.838 26.1938 300.706 25.3768 295.731 24.6125C279.387 22.0298 263.937 19.6052 247.619 24.7971C230.01 30.4106 213.034 42.7445 197.163 61.4826C182.766 78.4813 168.869 101.225 155.867 129.082C115.361 215.894 69.5901 306.264 -4.52707 373.521C-62.1942 425.861 -162.921 456.827 -243.855 414.739C-341.002 364.244 -364.874 324.369 -390.141 282.176C-395.011 274.058 -400.011 265.678 -405.591 257.218C-428.595 222.298 -434.806 184.954 -441.386 145.448C-443.518 132.587 -445.756 119.304 -448.572 106.074L-449.414 106.259C-446.572 119.463 -444.361 132.745 -442.229 145.606C-435.622 185.217 -429.385 222.641 -406.302 257.692C-400.748 266.126 -395.721 274.506 -390.878 282.624C-378.087 303.997 -366.006 324.185 -344.634 345.848C-333.159 357.471 -320.104 368.434 -304.68 379.319C-287.441 391.494 -267.674 403.354 -244.25 415.503C-225.273 425.36 -204.454 431.632 -182.319 434.136C-161.473 436.508 -139.786 435.506 -117.914 431.184C-75.7753 422.856 -35.2952 402.59 -3.9744 374.153C28.9783 344.241 58.5356 308.003 86.3822 263.332C113.518 219.794 137.127 171.223 156.604 129.451C183.793 71.181 214.508 36.2612 247.829 25.614C263.937 20.4749 279.281 22.8995 295.547 25.4559C300.522 26.2466 305.68 27.0635 310.918 27.6697C348.345 31.9655 393.958 65.3304 429.516 93.8987C439.044 101.568 448.835 109.58 458.284 117.302C522.978 170.248 589.884 224.986 664.554 245.095C686.426 250.998 707.113 252.026 727.801 248.257C746.277 244.91 764.333 237.768 783.046 226.436C817.789 205.378 848.425 173.858 880.825 140.467C906.908 113.586 933.886 85.8078 963.049 64.2762C1033.48 12.2786 1116.78 0.867065 1183.72 -8.33069C1193.56 -9.67477 1202.85 -10.9661 1211.9 -12.3102C1260.57 -19.6631 1333.85 15.6256 1404.75 49.7548C1434.83 64.2498 1463.26 77.9278 1489.63 88.3642L1489.95 87.5736C1463.6 77.1372 1435.2 63.4592 1405.12 48.9905C1340.66 17.8658 1274.1 -14.1814 1225.78 -14.1814Z" fill="url(#paint14_linear_1099_1423)" fill-opacity="0.1"/>
<path d="M1207.27 -23.8536C1204.82 -23.8536 1202.43 -23.7482 1200.11 -23.5637C1194.48 -23.0893 1188.8 -22.6414 1182.77 -22.167C1111.7 -16.5007 1023.24 -9.46405 949.573 48.1734C919.858 71.4181 892.643 101.858 866.296 131.296C803.076 201.952 743.356 268.682 651.973 244.594C576.434 224.696 509.16 167.428 444.124 112.083C436.043 105.205 427.7 98.0889 419.541 91.2631C384.561 61.9041 339.607 27.1425 302.338 18.9989C296.916 17.813 291.599 16.3898 286.467 15.0457C274.438 11.8568 262.884 8.77332 250.935 8.77332C246.592 8.77332 242.196 9.16861 237.722 10.1174C228.089 12.1467 218.693 16.2317 209.744 22.2141C201.295 27.854 192.978 35.4178 185.003 44.6419C170.606 61.3506 156.972 83.8311 143.312 113.427C98.384 210.623 55.614 296.512 -12.9496 363.084C-66.6687 415.266 -161.684 451.583 -243.381 408.045C-334.843 359.368 -358.452 319.731 -383.456 277.774C-388.036 270.105 -392.747 262.172 -397.88 254.213C-420.831 218.661 -428.148 180.79 -435.912 140.678C-438.386 127.843 -440.965 114.587 -444.071 101.41L-444.94 101.62C-441.834 114.771 -439.281 128.028 -436.78 140.862C-429.016 181.053 -421.673 219.004 -398.617 254.714C-393.484 262.673 -388.773 270.58 -384.193 278.249C-359.11 320.337 -335.449 360.08 -243.776 408.915C-207.533 428.206 -165.211 433.187 -121.362 423.304C-81.1974 414.238 -42.4543 393.102 -12.2915 363.796C4.50061 347.482 20.0294 329.825 35.1897 309.795C48.955 291.61 62.0887 271.871 75.3277 249.496C101.121 205.879 123.467 158.599 144.128 113.875C173.133 51.1514 202.927 18.4718 237.933 11.0662C254.567 7.53464 269.964 11.646 286.256 15.9681C291.415 17.3386 296.732 18.7353 302.18 19.9476C339.265 28.0648 384.088 62.7211 418.988 92.0273C427.121 98.8532 435.491 105.969 443.544 112.847C475.681 140.203 508.897 168.482 543.429 192.28C582.409 219.188 617.836 236.608 651.762 245.543C673.871 251.367 694.69 252.105 715.43 247.809C733.933 243.961 751.962 236.16 770.518 223.932C805.023 201.214 836.528 166.031 866.981 132.007C893.301 102.596 920.516 72.2087 950.152 48.9904C1023.61 -8.51529 1111.91 -15.5256 1182.87 -21.1655C1188.9 -21.6399 1194.56 -22.0879 1200.22 -22.5623C1249.99 -26.779 1327.26 15.6255 1401.99 56.6595C1433.07 73.7373 1462.44 89.8399 1489.69 102.622L1490.05 101.805C1462.84 89.0493 1433.49 72.9203 1402.41 55.8689C1331 16.6006 1257.33 -23.8536 1207.27 -23.8536Z" fill="url(#paint15_linear_1099_1423)" fill-opacity="0.1"/>
<path d="M1189.95 -33.9211C1189.4 -33.9211 1188.87 -33.9212 1188.32 -33.8948C1185.95 -33.8421 1183.58 -33.7894 1181.16 -33.763C1144.26 -33.0251 1102.47 -32.2081 1060.01 -23.6429C1010.85 -13.7335 970.418 4.76736 936.492 32.8613C906.408 57.7664 879.035 90.7887 852.584 122.704C790.311 197.841 731.485 268.814 639.023 244.989C562.458 225.25 494.816 165.346 429.384 107.418C422.673 101.462 415.698 95.2953 408.934 89.3655C374.56 59.2159 330.369 23.1101 293.573 11.2506C288.099 9.4848 282.756 7.50824 277.571 5.58435C263.174 0.234375 249.461 -4.85202 234.669 -4.85202C232.406 -4.85202 230.116 -4.72028 227.8 -4.48309C207.875 -2.29565 189.899 8.24619 172.843 27.7486C158.631 44.0093 144.839 66.9378 130.705 97.8517C87.2507 192.781 46.2179 282.413 -21.3982 352.753C-72.9854 406.385 -164.289 444.493 -242.96 401.483C-328.684 354.598 -352.083 315.092 -376.85 273.294C-381.114 266.126 -385.509 258.694 -390.22 251.235C-413.145 215.024 -421.594 176.573 -430.516 135.881C-433.306 123.099 -436.228 109.896 -439.597 96.7711L-440.492 97.0083C-437.123 110.107 -434.227 123.31 -431.411 136.066C-422.462 176.863 -414.014 215.393 -391.01 251.736C-386.299 259.168 -381.903 266.6 -377.639 273.768C-352.793 315.699 -329.342 355.283 -243.381 402.3C-208.007 421.644 -167.027 426.177 -124.941 415.398C-86.7508 405.62 -49.7448 383.614 -20.7402 353.438C-4.52707 336.571 10.528 318.281 25.2672 297.567C38.4798 278.96 51.2187 258.694 64.1682 235.66C88.6458 192.069 110.465 144.394 131.574 98.2997C145.681 67.4649 159.42 44.6154 173.58 28.4337C190.452 9.11584 208.244 -1.32053 227.931 -3.4816C245.197 -5.37912 260.779 0.392487 277.281 6.50674C282.466 8.43063 287.836 10.4336 293.336 12.1994C329.974 24.0062 374.06 60.0329 408.355 90.1298C415.119 96.0596 422.094 102.227 428.805 108.183C461.074 136.751 494.421 166.268 529.243 191.094C568.617 219.162 604.465 237.109 638.839 245.964C661.211 251.736 682.214 252.158 703.007 247.308C721.563 242.96 739.566 234.474 758.042 221.323C792.364 196.919 823.342 159.521 853.321 123.363C879.746 91.4739 907.093 58.5043 937.097 33.6519C1013.29 -29.4145 1106.39 -31.2593 1181.19 -32.7615C1183.61 -32.8143 1185.98 -32.867 1188.35 -32.8933C1188.87 -32.8933 1189.43 -32.9196 1189.95 -32.9196C1240.88 -32.9196 1321.26 16.1525 1398.99 63.6171C1431.1 83.2249 1461.39 101.726 1489.53 116.801L1489.98 115.984C1461.87 100.935 1431.57 82.4343 1399.49 62.8265C1321.63 15.2301 1241.15 -33.9211 1189.95 -33.9211Z" fill="url(#paint16_linear_1099_1423)" fill-opacity="0.1"/>
<path d="M1126 -45.5698C1102.18 -45.5698 1076.67 -44.3311 1051.04 -40.0881C999.87 -31.6283 958.101 -12.7583 923.411 17.5494C893.038 44.0884 865.638 79.6407 839.134 114.007C809.63 152.274 779.125 191.858 745.067 217.897C707.008 246.992 668.107 255.979 626.1 245.385C548.509 225.829 480.524 163.185 414.751 102.596C409.355 97.6146 403.775 92.4754 398.327 87.4944C375.113 66.2526 356.504 50.3871 339.791 37.6052C318.656 21.4498 300.68 10.3018 284.809 3.52872C283.256 2.86987 281.703 2.211 280.15 1.55212C259.41 -7.32935 239.802 -15.7101 217.93 -19.0307C215.324 -19.4261 212.718 -19.6369 210.165 -19.6369C192.847 -19.6369 176.66 -10.5182 160.92 8.06177C143.391 28.7238 128.81 58.5834 118.071 82.3026C115.492 87.9688 112.939 93.6086 110.412 99.2485C69.7216 189.223 31.2944 274.243 -29.8996 342.422C-80.9604 399.322 -166.527 437.615 -242.539 394.868C-322.578 349.854 -345.766 310.428 -370.349 268.682C-374.27 262.041 -378.324 255.136 -382.588 248.257C-405.486 211.387 -415.066 172.33 -425.173 130.979C-428.279 118.277 -431.49 105.152 -435.122 92.1328L-436.07 92.3963C-432.438 105.389 -429.227 118.514 -426.121 131.217C-415.988 172.646 -406.381 211.756 -383.404 248.758C-379.14 255.636 -375.086 262.515 -371.165 269.156C-346.529 311.034 -323.262 350.566 -243.013 395.711C-208.481 415.134 -168.895 419.219 -128.547 407.518C-92.3569 397.029 -57.0618 374.153 -29.1889 343.055C32.1104 274.744 70.5639 189.697 111.281 99.6175C113.834 93.9776 116.387 88.3377 118.94 82.6715C129.652 59.0315 144.207 29.2508 161.657 8.66788C179.502 -12.3894 197.847 -21.1391 217.772 -18.1083C239.512 -14.7877 259.041 -6.43329 279.755 2.42184C281.308 3.08072 282.835 3.73956 284.414 4.39844C320.183 19.6577 361.742 55.3155 397.643 88.1796C403.091 93.1606 408.671 98.2998 414.066 103.281C446.414 133.088 479.866 163.923 514.977 189.75C554.747 219.03 590.989 237.505 625.811 246.281C637.286 249.18 648.656 250.629 659.605 250.655C659.632 250.655 659.658 250.655 659.685 250.655C670.107 250.655 680.504 249.338 690.584 246.729C709.219 241.879 727.248 232.708 745.646 218.635C779.809 192.517 810.366 152.88 839.897 114.561C866.375 80.2205 893.748 44.6946 924.043 18.2346C1002.71 -50.4718 1103.15 -46.3341 1176.48 -43.3033C1228.38 -41.1686 1313.58 15.6519 1395.99 70.6275C1429.12 92.7126 1460.39 113.585 1489.42 130.9L1489.92 130.057C1460.94 112.742 1429.65 91.8956 1396.54 69.8105C1314.03 14.7822 1228.7 -42.1173 1176.53 -44.2784C1161.08 -44.8846 1144.03 -45.5698 1126 -45.5698Z" fill="url(#paint17_linear_1099_1423)" fill-opacity="0.1"/>
<path d="M1089.88 -59.1685C1072.83 -59.1685 1055.38 -58.2198 1037.9 -55.7425C1014.06 -52.3691 991.869 -46.3075 971.971 -37.7423C949.283 -27.9648 928.543 -14.524 910.33 2.21118C879.746 30.3315 852.373 68.3875 825.921 105.205C796.838 145.659 766.728 187.484 732.801 215.262C694.874 246.281 655.736 256.269 613.177 245.78C534.559 226.409 466.259 160.892 400.222 97.562C396.037 93.5561 391.878 89.5502 387.746 85.597C352.161 51.5997 311.05 14.3607 276.07 -4.19293C274.096 -5.2471 272.149 -6.27496 270.201 -7.32916C249.513 -18.3717 229.958 -28.7818 208.033 -33.631C197.084 -36.0556 186.372 -34.9224 176.186 -30.2576C166.869 -25.9882 158.025 -18.9515 149.129 -8.69958C131.179 11.9624 116.387 42.4546 105.49 66.7272C100.384 78.086 95.3046 89.5766 90.3564 100.672C52.6662 185.613 17.0815 265.836 -38.3484 332.091C-83.6188 386.224 -164.158 433.425 -242.065 388.279C-316.419 345.216 -339.449 305.737 -363.848 263.912C-367.401 257.85 -371.059 251.552 -374.876 245.306C-397.774 207.671 -408.513 167.981 -419.857 125.972C-423.252 113.375 -426.779 100.356 -430.622 87.4946L-431.595 87.7845C-427.753 100.645 -424.226 113.665 -420.831 126.236C-409.46 168.324 -398.722 208.067 -375.744 245.806C-371.928 252.079 -368.27 258.351 -364.743 264.413C-340.265 306.343 -317.156 345.927 -242.592 389.149C-225.141 399.243 -206.507 405.146 -187.188 406.675C-169.211 408.098 -150.682 405.752 -132.126 399.691C-97.9368 388.516 -64.3525 364.745 -37.5851 332.75C17.9238 266.389 53.5611 186.113 91.2776 101.094C96.1995 89.9982 101.306 78.5077 106.412 67.1489C117.282 42.9554 132.047 12.5422 149.892 -8.01434C168.211 -29.1243 187.161 -37.1625 207.796 -32.6031C229.563 -27.7803 249.066 -17.3966 269.701 -6.40674C271.649 -5.37891 273.596 -4.32471 275.57 -3.27051C310.444 15.2304 351.477 52.4166 387.009 86.3613C391.141 90.3145 395.3 94.294 399.485 98.2999C431.911 129.398 465.443 161.551 500.817 188.485C540.955 219.03 577.619 238.085 612.887 246.782C624.521 249.654 636.023 251.025 647.077 250.867C657.631 250.708 668.133 249.18 678.292 246.281C697.032 240.931 715.062 231.048 733.407 216.052C767.465 188.222 797.575 146.318 826.711 105.811C853.163 69.0464 880.483 31.0431 910.988 2.97549C985.315 -65.4146 1080.88 -62.0412 1164.63 -53.5287C1217.56 -48.1524 1306.74 15.9419 1392.96 77.9015C1427.12 102.464 1459.39 125.63 1489.29 145.185L1489.84 144.315C1459.94 124.786 1427.7 101.594 1393.54 77.0582C1307.21 15.0195 1217.93 -49.1538 1164.71 -54.5565C1141.66 -56.9284 1116.23 -59.1685 1089.88 -59.1685Z" fill="url(#paint18_linear_1099_1423)" fill-opacity="0.1"/>
<path d="M1062.01 -73.4792C1049.64 -73.4792 1037.17 -72.873 1024.74 -71.3972C1000.82 -68.5772 978.551 -62.7792 958.574 -54.1613C935.913 -44.3838 915.278 -30.574 897.249 -13.1273C866.533 16.5743 839.24 57.1077 812.867 96.2969C784.152 138.965 754.437 183.082 720.589 212.573C682.741 245.569 643.366 256.533 600.228 246.149C520.557 226.963 448.914 155.41 385.693 92.2646C382.824 89.392 379.956 86.5457 377.113 83.6994C342.45 49.1486 302.522 10.4337 267.28 -11.9413C265.253 -13.2327 263.226 -14.524 261.226 -15.789C240.249 -29.1772 220.456 -41.8274 198.084 -48.2051C186.74 -51.4468 175.686 -50.9197 165.184 -46.5976C155.709 -42.7234 146.339 -35.6077 137.338 -25.4612C118.94 -4.74652 103.911 26.3782 92.8832 51.1515C85.5136 67.7022 78.2757 84.4373 71.2482 100.645C36.3479 181.185 3.39526 257.271 -46.797 321.734C-90.0934 377.21 -167.079 426.23 -241.644 381.611C-310.339 340.525 -333.264 300.861 -357.557 258.852C-360.689 253.449 -363.927 247.836 -367.243 242.275C-390.115 203.903 -402.038 163.527 -414.645 120.78C-418.304 108.367 -422.094 95.5063 -426.173 82.8297L-427.174 83.146C-423.12 95.8225 -419.33 108.657 -415.672 121.07C-403.038 163.87 -391.115 204.298 -368.164 242.802C-364.848 248.363 -361.61 253.95 -358.478 259.379C-334.132 301.493 -311.129 341.289 -242.197 382.507C-225.168 392.707 -207.086 398.531 -188.451 399.796C-171.185 400.982 -153.446 398.294 -135.732 391.784C-119.203 385.696 -102.859 376.393 -87.2245 364.086C-72.3537 352.384 -58.4831 338.337 -46.0074 322.34C-23.109 292.928 -2.42145 259.563 19.0294 217.317C37.9798 180.025 54.5877 141.653 72.1958 101.014C79.2232 84.8063 86.4612 68.0711 93.8308 51.5205C104.833 26.7999 119.809 -4.21939 138.101 -24.8287C156.92 -46.0177 176.423 -53.3443 197.768 -47.2564C219.983 -40.905 239.723 -28.3075 260.621 -14.9721C262.621 -13.6807 264.648 -12.3893 266.674 -11.1243C301.838 11.198 341.713 49.8601 376.323 84.3846C379.166 87.2309 382.035 90.0772 384.904 92.9498C417.356 125.366 450.941 158.889 486.604 186.957C527.111 218.819 564.169 238.506 599.938 247.098C611.729 249.944 623.363 251.209 634.549 250.893C645.208 250.603 655.789 248.837 666.028 245.675C684.873 239.824 702.955 229.229 721.247 213.285C755.2 183.689 784.941 139.518 813.709 96.7976C840.055 57.6611 867.323 17.1805 897.959 -12.442C969.945 -82.0444 1062.99 -78.3285 1152.79 -63.9389C1206.75 -55.2946 1299.89 16.0736 1389.93 85.0962C1425.12 112.083 1458.39 137.542 1489.19 159.284L1489.79 158.415C1459 136.698 1425.75 111.214 1390.56 84.2528C1300.39 15.1512 1207.17 -56.2961 1152.92 -64.9931C1125.29 -69.3416 1094.02 -73.4792 1062.01 -73.4792Z" fill="url(#paint19_linear_1099_1423)" fill-opacity="0.1"/>
<path d="M1038.14 -88.264C1029.32 -88.264 1020.45 -87.8951 1011.61 -87.0518C987.579 -84.7852 965.233 -79.2508 945.204 -70.5801C922.569 -60.7762 902.039 -46.5975 884.141 -28.4655C853.347 2.76462 826.211 45.7225 799.944 87.2837C771.571 132.165 742.25 178.576 708.455 209.859C670.66 244.831 631.022 256.823 587.278 246.544C506.555 227.543 434.675 152.748 371.244 86.7566L366.48 81.8019C328.526 42.3492 291.678 4.87299 258.489 -19.6895C256.62 -21.0599 254.751 -22.4567 252.909 -23.8271C231.458 -39.7453 211.218 -54.7938 188.135 -62.8055C176.423 -66.8641 165.026 -66.9432 154.183 -62.99C144.418 -59.4322 134.785 -52.4745 125.546 -42.2753C106.649 -21.4816 91.4093 10.2493 80.2496 35.5497C70.8534 56.8705 61.7204 78.5603 52.9032 99.5385C20.6349 176.204 -9.84372 248.626 -55.2984 311.377C-98.5421 371.043 -170.08 419.114 -241.197 375.023C-304.259 335.939 -327.158 295.906 -351.372 253.528C-354.03 248.89 -356.768 244.067 -359.558 239.323C-382.456 200.081 -395.616 158.942 -409.539 115.404C-413.435 103.228 -417.462 90.6307 -421.673 78.2177L-422.726 78.5867C-418.514 90.9997 -414.487 103.597 -410.592 115.747C-396.642 159.337 -383.482 200.529 -360.531 239.877C-357.742 244.647 -355.004 249.443 -352.346 254.082C-328.053 296.592 -305.102 336.73 -241.776 375.972C-225.141 386.276 -207.639 392.021 -189.741 393.076C-173.186 394.051 -156.262 390.994 -139.391 384.01C-123.757 377.553 -108.281 367.775 -93.4097 354.941C-79.4338 342.897 -66.3265 328.454 -54.4035 312.009C-33.9529 283.783 -14.555 250.656 4.92181 210.702C22.3456 174.992 38.3746 136.857 53.9034 99.9602C62.7206 78.982 71.8536 57.2922 81.2498 35.9713C92.3832 10.75 107.544 -20.8755 126.336 -41.5374C145.655 -62.8056 165.737 -69.4205 187.741 -61.7777C210.665 -53.8186 230.853 -38.8229 252.225 -22.9575C254.093 -21.587 255.936 -20.1902 257.831 -18.8198C290.968 5.69 327.763 43.1134 365.69 82.5399L370.454 87.4945C402.933 121.281 436.517 156.227 472.47 185.507C513.345 218.767 550.825 239.086 587.041 247.598C598.991 250.418 610.808 251.604 622.099 251.13C632.864 250.682 643.55 248.705 653.841 245.253C672.818 238.901 690.926 227.569 709.219 210.676C743.119 179.314 772.492 132.824 800.891 87.8898C827.106 46.4078 854.242 3.50253 884.931 -27.6749C957.943 -101.758 1055.33 -92.7443 1140.95 -74.1643C1195.93 -62.2257 1293.02 16.469 1386.93 92.5546C1423.17 121.94 1457.42 149.665 1489.11 173.568L1489.76 172.672C1458.08 148.795 1423.86 121.044 1387.62 91.6849C1293.63 15.4939 1196.43 -63.2799 1141.18 -75.2449C1112.1 -81.57 1075.65 -88.264 1038.14 -88.264Z" fill="url(#paint20_linear_1099_1423)" fill-opacity="0.1"/>
<path d="M1016.64 -103.339C965.075 -103.339 913.462 -88.8966 871.06 -43.804C840.24 -11.0452 813.262 34.3109 787.178 78.1649C759.148 125.287 730.169 174.043 696.401 207.091C658.632 244.067 618.704 257.086 574.329 246.887C492.526 228.096 420.436 149.902 356.82 80.9058L352.346 76.0566C317.893 38.6858 282.256 0.0500183 249.698 -27.4378C248.119 -28.7555 246.566 -30.0732 245.013 -31.4173C222.983 -50.0763 202.164 -67.7076 178.186 -77.4324C171.027 -80.3314 164.21 -81.6754 157.709 -81.6754C117.992 -81.6754 90.0669 -31.4173 67.6423 19.9214C56.3773 45.7225 45.6125 72.1298 35.2161 97.6673C5.42181 170.828 -22.688 239.903 -63.7735 300.966C-80.3288 325.582 -107.623 358.446 -143.549 375.128C-176.976 390.651 -209.692 388.384 -240.749 368.355C-298.258 331.327 -321.183 290.714 -345.45 247.704C-347.556 243.988 -349.714 240.14 -351.899 236.319C-374.876 196.075 -389.326 154.066 -404.618 109.606C-408.671 97.7991 -412.882 85.5969 -417.198 73.5529L-418.278 73.9482C-413.961 85.9659 -409.75 98.1681 -405.697 109.975C-390.378 154.514 -375.929 196.55 -352.899 236.898C-350.74 240.694 -348.556 244.541 -346.45 248.257C-322.104 291.4 -299.101 332.144 -241.381 369.356C-225.168 379.793 -208.244 385.512 -191.057 386.302C-175.239 387.04 -159.078 383.641 -143.049 376.209C-128.31 369.356 -113.676 359.105 -99.595 345.769C-86.5139 333.383 -74.1436 318.519 -62.7733 301.652C-44.2967 274.19 -26.636 242.196 -8.73837 203.85C7.23788 169.589 22.0297 133.272 36.3215 98.1417C46.7179 72.6042 57.4827 46.1969 68.7214 20.4221C94.5939 -38.8229 127.783 -96.6185 177.791 -76.3255C201.611 -66.6534 222.351 -49.1012 244.302 -30.4949C245.855 -29.1772 247.434 -27.8331 248.987 -26.5154C281.492 0.919708 317.103 39.5291 351.53 76.8736L356.004 81.7228C388.483 116.932 422.041 153.354 458.257 183.873C499.501 218.635 537.402 239.613 574.092 248.046C586.225 250.84 598.174 251.921 609.624 251.288C620.52 250.682 631.311 248.468 641.681 244.752C660.79 237.874 678.977 225.83 697.243 207.935C731.117 174.781 760.121 125.972 788.205 78.7711C814.262 34.9698 841.187 -10.3337 871.929 -42.987C945.914 -121.655 1048.25 -106.475 1129.13 -84.4427C1185.11 -69.2097 1286.18 16.8379 1383.93 100.066C1421.2 131.796 1456.42 161.788 1489.03 187.8L1489.74 186.904C1457.15 160.892 1421.94 130.927 1384.67 99.1959C1286.84 15.8891 1185.66 -70.2376 1129.42 -85.5496C1094.49 -95.09 1055.56 -103.339 1016.64 -103.339Z" fill="url(#paint21_linear_1099_1423)" fill-opacity="0.1"/>
<path d="M996.449 -118.546C992.738 -118.546 989.027 -118.467 985.316 -118.282C961.075 -117.123 938.571 -112.115 918.463 -103.365C895.854 -93.5352 875.509 -78.6449 857.979 -59.1162C827.185 -24.8553 800.418 22.8465 774.545 68.9933C746.83 118.382 718.168 169.483 684.452 204.35C646.709 243.355 606.466 257.428 561.432 247.335C478.55 228.755 404.67 145.184 345.292 78.0329C340.028 72.0768 334.711 66.0416 329.553 60.1646C300.074 26.6679 269.596 -7.96201 240.96 -35.1335C239.802 -36.2404 238.643 -37.3473 237.459 -38.4542C215.745 -59.0898 193.294 -80.437 168.264 -91.9803C154.367 -98.3845 140.838 -99.1751 128.073 -94.2732C113.887 -88.8441 100.516 -76.6684 87.1982 -57.0869C76.8282 -41.8276 66.616 -22.2989 55.0615 4.39828C42.0594 34.4425 29.8995 65.4355 18.1345 95.4533C-8.0802 162.262 -35.1898 231.337 -72.1957 290.714C-102.148 338.759 -137.733 369.304 -172.396 376.709C-195.479 381.637 -218.298 376.63 -240.275 361.845C-292.336 326.715 -315.445 285.153 -339.896 241.141C-341.344 238.559 -342.792 235.949 -344.239 233.34C-367.375 191.911 -383.956 146.792 -399.985 103.175C-404.117 91.9482 -408.381 80.3521 -412.724 68.9143L-413.829 69.3359C-409.487 80.7475 -405.223 92.3698 -401.117 103.597C-385.062 147.266 -368.454 192.412 -345.292 233.92C-343.844 236.529 -342.397 239.112 -340.949 241.721C-328.605 263.938 -316.945 284.916 -301.522 305.341C-284.045 328.48 -264.806 346.744 -241.012 362.768C-218.772 377.763 -195.61 382.823 -172.212 377.816C-153.656 373.837 -135.048 363.585 -116.913 347.324C-100.753 332.802 -85.382 313.959 -71.2482 291.294C-54.614 264.597 -38.5588 233.709 -22.1877 196.866C-7.58011 163.975 6.02734 129.345 19.161 95.8223C30.9261 65.8308 43.0858 34.8378 56.0879 4.81998C73.0643 -34.422 96.6471 -81.0432 128.442 -93.1927C140.891 -97.9628 154.104 -97.1985 167.711 -90.9261C192.583 -79.4619 214.956 -58.1938 236.591 -37.6109C237.749 -36.504 238.907 -35.3971 240.091 -34.2902C268.675 -7.14502 297.785 25.93 328.605 60.9288C333.764 66.7795 339.107 72.8411 344.345 78.7972C372.954 111.161 408.565 151.43 445.598 183.478C486.604 218.951 524.373 240.219 561.116 248.468C573.434 251.235 585.567 252.237 597.122 251.42C608.15 250.655 619.047 248.231 629.495 244.198C648.762 236.793 667.001 224.011 685.241 205.141C719.089 170.169 747.778 119.014 775.519 69.5468C801.365 23.479 828.106 -24.17 858.822 -58.3256C932.965 -140.815 1035.85 -121.129 1117.21 -94.7739C1174.19 -76.0886 1279.31 17.3647 1381.01 107.761C1419.28 141.758 1455.42 173.884 1488.87 202.005L1489.63 201.082C1456.18 172.988 1420.07 140.889 1381.8 106.865C1280.02 16.3896 1174.79 -77.1427 1117.57 -95.9071C1086.99 -105.843 1042.17 -118.546 996.449 -118.546Z" fill="url(#paint22_linear_1099_1423)" fill-opacity="0.1"/>
<path d="M977.551 -134.016C975.761 -134.016 973.972 -133.989 972.182 -133.963C947.81 -133.357 925.253 -128.587 905.119 -119.784C882.536 -109.928 862.27 -94.6683 844.898 -74.4807C814.157 -38.7439 787.626 11.2771 761.964 59.6377C734.565 111.319 706.218 164.766 672.502 201.452C634.759 242.538 594.174 257.64 548.482 247.625C464.601 229.282 389.51 140.704 334.685 76.0566C325.499 65.2249 316.235 54.156 307.286 43.4297C281.387 12.4103 256.909 -16.8696 232.169 -42.9342L230.116 -45.0953C207.717 -68.709 184.556 -93.1397 158.315 -106.633C143.812 -114.092 129.705 -115.436 116.387 -110.613C101.937 -105.395 88.3299 -93.2451 74.8277 -73.4528C64.2208 -57.93 53.9296 -38.1904 42.4278 -11.2824C27.6096 23.1366 14.0548 59.0843 0.973785 93.8459C-22.9511 157.334 -47.6656 222.957 -80.6972 280.252C-101.385 316.147 -134.89 360.844 -177.002 370.094C-198.163 374.733 -219.298 369.699 -239.854 355.125C-286.599 322.024 -311.181 276.957 -334.948 233.341L-336.58 230.363C-360.031 187.352 -378.297 140.678 -395.932 95.559C-399.932 85.307 -404.091 74.7125 -408.25 64.2761L-409.381 64.7241C-405.223 75.1605 -401.091 85.7551 -397.064 95.9806C-379.403 141.152 -361.137 187.853 -337.633 230.942L-336.001 233.92C-324.078 255.795 -311.76 278.407 -296.811 299.227C-280.045 322.577 -261.647 341.21 -240.565 356.153C-219.719 370.938 -198.242 376.051 -176.713 371.333C-158.815 367.406 -140.865 356.706 -123.362 339.497C-108.07 324.448 -93.3308 304.735 -79.5917 280.911C-46.5075 223.51 -21.7667 157.835 2.1582 94.3203C15.2392 59.585 28.794 23.6637 43.5858 -10.7553C55.0614 -37.5843 65.2999 -57.2711 75.8542 -72.7149C89.2248 -92.27 102.622 -104.288 116.834 -109.4C129.836 -114.092 143.602 -112.774 157.788 -105.474C183.845 -92.0855 206.928 -67.7339 229.247 -44.1992L231.3 -42.0382C255.988 -15.9999 280.466 13.28 306.365 44.273C315.314 54.9993 324.578 66.0946 333.764 76.9263C366.401 115.43 398.616 152.564 433.569 183.557C474.102 219.504 511.608 240.878 548.246 248.89C560.774 251.631 573.039 252.527 584.751 251.552C595.911 250.629 606.913 247.967 617.441 243.645C636.865 235.686 655.184 222.193 673.423 202.321C707.245 165.504 735.644 112.004 763.069 60.2439C788.679 11.9359 815.183 -38.0323 845.846 -73.6637C921.121 -161.134 1030.03 -133.515 1105.41 -105.105C1163.37 -83.0986 1272.52 17.7867 1378.06 115.351C1417.36 151.668 1454.47 185.981 1488.82 216.184L1489.63 215.261C1455.29 185.085 1418.17 150.772 1378.9 114.455C1273.28 16.8116 1164.05 -84.1792 1105.86 -106.238C1082.09 -115.198 1060.83 -121.761 1040.85 -126.294C1018.35 -131.433 997.107 -134.016 977.551 -134.016Z" fill="url(#paint23_linear_1099_1423)" fill-opacity="0.1"/>
<path d="M959.575 -149.618C959.39 -149.618 959.232 -149.618 959.074 -149.618C934.597 -149.565 911.962 -145.032 891.774 -136.203C869.192 -126.32 849.031 -110.692 831.791 -89.8191C801.128 -52.6328 774.887 -0.345306 749.488 50.2027C722.379 104.151 694.348 159.969 660.632 198.5C622.863 241.669 581.962 257.85 535.559 248.046C457.178 231.206 388.115 152.933 324.078 74.2117C311.366 58.5835 298.6 42.4281 286.283 26.7999C265.727 0.735199 244.434 -26.2255 223.378 -50.6298L222.93 -51.1569C199.821 -77.9332 175.923 -105.632 148.366 -121.181C133.311 -129.667 118.651 -131.591 104.806 -126.874C90.0933 -121.866 76.2753 -109.717 62.5363 -89.7136C51.7451 -73.9799 41.3487 -54.0032 29.8206 -26.8317C13.5548 11.3824 -1.00024 51.7049 -15.0551 90.7097C-36.9534 151.483 -59.6148 214.313 -89.1722 269.921C-102.464 294.931 -116.492 315.488 -130.81 330.958C-147.497 348.958 -164.553 360.001 -181.503 363.769C-200.822 368.065 -220.298 362.926 -239.407 348.536C-281.098 317.095 -306.496 269.446 -328.895 227.384C-353.109 181.923 -373.455 132.772 -393.142 85.228C-396.616 76.8472 -400.196 68.1766 -403.775 59.6377L-404.96 60.1384C-401.406 68.6773 -397.801 77.348 -394.326 85.7287C-374.639 133.299 -354.267 182.476 -330.027 227.991C-317.209 252.052 -305.47 273.637 -291.441 294.061C-275.307 317.596 -258.541 335.754 -240.196 349.564C-220.772 364.191 -200.953 369.409 -181.266 365.034C-164.053 361.213 -146.76 350.039 -129.916 331.854C-115.519 316.305 -101.437 295.669 -88.0931 270.553C-58.4831 214.866 -35.8216 151.984 -13.897 91.1577C0.157867 52.153 14.6865 11.8569 30.9523 -26.3309C42.4541 -53.4234 52.7979 -73.3475 63.5628 -88.9757C77.1176 -108.742 90.7513 -120.733 105.175 -125.635C118.677 -130.247 132.995 -128.349 147.708 -120.048C175.081 -104.604 198.9 -76.9844 221.93 -50.2872L222.378 -49.7601C243.407 -25.3821 264.674 1.57858 285.23 27.6169C297.548 43.2451 310.313 59.4005 323.025 75.0551C351.925 110.581 385.72 151.193 421.409 183.609C461.495 220.005 498.711 241.51 535.217 249.338C547.93 252.026 560.405 252.817 572.249 251.657C583.541 250.55 594.674 247.651 605.281 243.039C624.863 234.527 643.261 220.269 661.527 199.396C695.348 160.734 723.432 104.862 750.567 50.8353C775.94 0.339905 802.155 -51.8685 832.712 -88.9493C865.165 -128.323 907.066 -147.957 959.285 -147.957C998.16 -147.957 1042.75 -137.073 1093.46 -115.357C1152.42 -90.0299 1265.54 18.3137 1374.96 123.099C1415.28 161.709 1453.36 198.184 1488.61 230.442L1489.48 229.493C1454.23 197.261 1416.17 160.786 1375.85 122.177C1266.36 17.3122 1153.13 -91.1104 1093.96 -116.543C1042.17 -138.812 998.16 -149.618 959.575 -149.618Z" fill="url(#paint24_linear_1099_1423)" fill-opacity="0.1"/>
<path d="M942.23 -165.299C919.068 -165.299 897.617 -161.029 878.43 -152.596C855.874 -142.686 835.765 -126.715 818.71 -105.131C788.179 -66.5216 762.174 -11.9677 737.065 40.7678C710.245 97.0611 682.504 155.305 648.762 195.706C610.966 240.983 569.696 258.219 522.61 248.415C443.544 231.97 375.928 152.406 313.471 72.2879C297.811 52.2057 282.203 31.201 267.148 10.9081C250.093 -12.0731 232.458 -35.8186 214.613 -58.3781C192.478 -86.3402 167.421 -118.071 138.443 -135.781C122.835 -145.322 107.622 -147.825 93.2254 -143.187C85.4873 -140.683 77.7756 -136.071 70.3533 -129.43C63.6154 -123.395 56.8512 -115.515 50.2711 -106.001C39.4273 -90.2934 28.6098 -69.4997 17.2132 -42.4336C-0.473816 -0.477081 -15.8973 44.4047 -30.7944 87.8107C-50.745 145.843 -71.3535 205.853 -97.6209 259.59C-110.544 285.997 -123.915 307.529 -137.364 323.526C-153.393 342.58 -169.764 354.071 -186.03 357.655C-203.585 361.529 -221.378 356.232 -238.959 341.948C-272.859 314.354 -299.206 266.811 -321.236 224.406C-347.503 173.832 -371.27 119.278 -394.274 66.5162C-395.958 62.6684 -397.616 58.8206 -399.301 54.9729L-400.511 55.5C-398.827 59.3477 -397.169 63.1955 -395.484 67.0433C-372.481 119.831 -348.714 174.385 -322.42 225.013C-300.338 267.522 -273.912 315.224 -239.828 342.976C-221.93 357.523 -203.743 362.9 -185.793 358.946C-169.238 355.309 -152.63 343.661 -136.417 324.369C-122.888 308.293 -109.465 286.682 -96.4892 260.17C-70.1692 206.353 -49.5343 146.291 -29.5837 88.2324C-14.6866 44.8528 0.736908 -0.00271606 18.3976 -41.9065C34.2422 -79.5408 59.2989 -130.853 93.5938 -141.922C107.596 -146.429 122.441 -144.004 137.733 -134.648C166.5 -117.043 191.504 -85.4442 213.56 -57.561C231.379 -35.0279 249.013 -11.2825 266.069 11.6987C281.15 32.0181 296.732 53.0227 312.418 73.1049C340.396 108.973 373.27 150.06 409.381 183.636C449.019 220.532 485.972 242.117 522.347 249.68C535.27 252.369 547.877 253.054 559.879 251.736C571.302 250.471 582.54 247.361 593.279 242.459C613.019 233.42 631.496 218.398 649.762 196.523C683.609 155.99 711.377 97.6937 738.25 41.3213C763.359 -11.3615 789.31 -65.8364 819.736 -104.34C876.377 -175.972 962.049 -182.956 1081.7 -125.767C1141.66 -97.0929 1258.81 18.7354 1372.09 130.769C1413.44 171.645 1452.47 210.254 1488.61 244.541L1489.5 243.593C1453.39 209.332 1414.36 170.722 1373.01 129.846C1259.65 17.7339 1142.42 -98.1734 1082.28 -126.953C1029.93 -151.989 985.342 -164.534 945.967 -165.299C944.704 -165.299 943.467 -165.299 942.23 -165.299Z" fill="url(#paint25_linear_1099_1423)" fill-opacity="0.1"/>
</g>
<defs>
<linearGradient id="paint0_linear_1099_1423" x1="481.405" y1="541.14" x2="481.405" y2="-110.903" gradientUnits="userSpaceOnUse">
<stop stop-color="white"/>
<stop offset="1" stop-color="white" stop-opacity="0"/>
</linearGradient>
<linearGradient id="paint1_linear_1099_1423" x1="484.881" y1="533.15" x2="484.881" y2="-96.7239" gradientUnits="userSpaceOnUse">
<stop stop-color="white"/>
<stop offset="1" stop-color="white" stop-opacity="0"/>
</linearGradient>
<linearGradient id="paint2_linear_1099_1423" x1="488.303" y1="525.28" x2="488.303" y2="-82.5453" gradientUnits="userSpaceOnUse">
<stop stop-color="white"/>
<stop offset="1" stop-color="white" stop-opacity="0"/>
</linearGradient>
<linearGradient id="paint3_linear_1099_1423" x1="491.696" y1="517.469" x2="491.696" y2="-68.3665" gradientUnits="userSpaceOnUse">
<stop stop-color="white"/>
<stop offset="1" stop-color="white" stop-opacity="0"/>
</linearGradient>
<linearGradient id="paint4_linear_1099_1423" x1="495.078" y1="509.738" x2="495.078" y2="-54.214" gradientUnits="userSpaceOnUse">
<stop stop-color="white"/>
<stop offset="1" stop-color="white" stop-opacity="0"/>
</linearGradient>
<linearGradient id="paint5_linear_1099_1423" x1="498.329" y1="501.956" x2="498.329" y2="-40.0351" gradientUnits="userSpaceOnUse">
<stop stop-color="white"/>
<stop offset="1" stop-color="white" stop-opacity="0"/>
</linearGradient>
<linearGradient id="paint6_linear_1099_1423" x1="501.589" y1="494.347" x2="501.589" y2="-25.8828" gradientUnits="userSpaceOnUse">
<stop stop-color="white"/>
<stop offset="1" stop-color="white" stop-opacity="0"/>
</linearGradient>
<linearGradient id="paint7_linear_1099_1423" x1="504.687" y1="486.882" x2="504.687" y2="-11.7305" gradientUnits="userSpaceOnUse">
<stop stop-color="white"/>
<stop offset="1" stop-color="white" stop-opacity="0"/>
</linearGradient>
<linearGradient id="paint8_linear_1099_1423" x1="507.16" y1="479.338" x2="507.16" y2="2.44824" gradientUnits="userSpaceOnUse">
<stop stop-color="white"/>
<stop offset="1" stop-color="white" stop-opacity="0"/>
</linearGradient>
<linearGradient id="paint9_linear_1099_1423" x1="509.358" y1="471.802" x2="509.358" y2="16.6007" gradientUnits="userSpaceOnUse">
<stop stop-color="white"/>
<stop offset="1" stop-color="white" stop-opacity="0"/>
</linearGradient>
<linearGradient id="paint10_linear_1099_1423" x1="511.542" y1="464.458" x2="511.542" y2="15.9944" gradientUnits="userSpaceOnUse">
<stop stop-color="white"/>
<stop offset="1" stop-color="white" stop-opacity="0"/>
</linearGradient>
<linearGradient id="paint11_linear_1099_1423" x1="513.74" y1="457.177" x2="513.74" y2="10.4865" gradientUnits="userSpaceOnUse">
<stop stop-color="white"/>
<stop offset="1" stop-color="white" stop-opacity="0"/>
</linearGradient>
<linearGradient id="paint12_linear_1099_1423" x1="515.885" y1="449.88" x2="515.885" y2="3.26529" gradientUnits="userSpaceOnUse">
<stop stop-color="white"/>
<stop offset="1" stop-color="white" stop-opacity="0"/>
</linearGradient>
<linearGradient id="paint13_linear_1099_1423" x1="518.162" y1="442.648" x2="518.162" y2="-5.08917" gradientUnits="userSpaceOnUse">
<stop stop-color="white"/>
<stop offset="1" stop-color="white" stop-opacity="0"/>
</linearGradient>
<linearGradient id="paint14_linear_1099_1423" x1="520.267" y1="435.389" x2="520.267" y2="-14.1814" gradientUnits="userSpaceOnUse">
<stop stop-color="white"/>
<stop offset="1" stop-color="white" stop-opacity="0"/>
</linearGradient>
<linearGradient id="paint15_linear_1099_1423" x1="522.557" y1="428.253" x2="522.557" y2="-23.8536" gradientUnits="userSpaceOnUse">
<stop stop-color="white"/>
<stop offset="1" stop-color="white" stop-opacity="0"/>
</linearGradient>
<linearGradient id="paint16_linear_1099_1423" x1="524.742" y1="421.111" x2="524.742" y2="-33.9211" gradientUnits="userSpaceOnUse">
<stop stop-color="white"/>
<stop offset="1" stop-color="white" stop-opacity="0"/>
</linearGradient>
<linearGradient id="paint17_linear_1099_1423" x1="526.926" y1="414.046" x2="526.926" y2="-45.5698" gradientUnits="userSpaceOnUse">
<stop stop-color="white"/>
<stop offset="1" stop-color="white" stop-opacity="0"/>
</linearGradient>
<linearGradient id="paint18_linear_1099_1423" x1="529.124" y1="407.078" x2="529.124" y2="-59.1686" gradientUnits="userSpaceOnUse">
<stop stop-color="white"/>
<stop offset="1" stop-color="white" stop-opacity="0"/>
</linearGradient>
<linearGradient id="paint19_linear_1099_1423" x1="531.309" y1="400.068" x2="531.309" y2="-73.4792" gradientUnits="userSpaceOnUse">
<stop stop-color="white"/>
<stop offset="1" stop-color="white" stop-opacity="0"/>
</linearGradient>
<linearGradient id="paint20_linear_1099_1423" x1="533.519" y1="393.253" x2="533.519" y2="-88.264" gradientUnits="userSpaceOnUse">
<stop stop-color="white"/>
<stop offset="1" stop-color="white" stop-opacity="0"/>
</linearGradient>
<linearGradient id="paint21_linear_1099_1423" x1="535.73" y1="386.401" x2="535.73" y2="-103.339" gradientUnits="userSpaceOnUse">
<stop stop-color="white"/>
<stop offset="1" stop-color="white" stop-opacity="0"/>
</linearGradient>
<linearGradient id="paint22_linear_1099_1423" x1="537.902" y1="379.686" x2="537.902" y2="-118.546" gradientUnits="userSpaceOnUse">
<stop stop-color="white"/>
<stop offset="1" stop-color="white" stop-opacity="0"/>
</linearGradient>
<linearGradient id="paint23_linear_1099_1423" x1="540.126" y1="373.033" x2="540.126" y2="-134.016" gradientUnits="userSpaceOnUse">
<stop stop-color="white"/>
<stop offset="1" stop-color="white" stop-opacity="0"/>
</linearGradient>
<linearGradient id="paint24_linear_1099_1423" x1="542.258" y1="366.533" x2="542.258" y2="-149.618" gradientUnits="userSpaceOnUse">
<stop stop-color="white"/>
<stop offset="1" stop-color="white" stop-opacity="0"/>
</linearGradient>
<linearGradient id="paint25_linear_1099_1423" x1="544.495" y1="360.204" x2="544.495" y2="-165.299" gradientUnits="userSpaceOnUse">
<stop stop-color="white"/>
<stop offset="1" stop-color="white" stop-opacity="0"/>
</linearGradient>
</defs>
</svg>
