<svg width="69" height="78" viewBox="0 0 69 78" fill="none" xmlns="http://www.w3.org/2000/svg">
<g opacity="0.019608">
<path d="M66.9183 55.151C69.0357 56.3688 69.0357 58.3343 66.9397 59.5521L38.8791 75.8532C36.7831 77.071 33.3825 77.071 31.2652 75.8532L3.01209 59.5521C0.894711 58.3343 0.894742 56.3688 2.99073 55.151L31.0513 38.8499C33.1473 37.6321 36.5479 37.6321 38.6652 38.8499L66.9183 55.151Z" fill="#033AA7"/>
</g>
<g opacity="0.039216">
<path d="M66.4906 55.1297C68.5652 56.3261 68.5866 58.2703 66.512 59.4667L38.815 75.5542C36.7404 76.7506 33.3825 76.7506 31.3079 75.5542L3.4185 59.4667C1.3439 58.2703 1.32249 56.3261 3.39709 55.1083L31.0941 39.0208C33.1687 37.8244 36.5265 37.8244 38.6011 39.0208L66.4906 55.1297Z" fill="#033AA7"/>
</g>
<g opacity="0.058824">
<path d="M66.0631 55.0869C68.1163 56.262 68.1377 58.1848 66.0845 59.3812L38.7511 75.255C36.7192 76.4301 33.3828 76.4301 31.3296 75.255L3.82507 59.3812C1.77186 58.2061 1.75045 56.2833 3.80366 55.0869L31.1371 39.2131C33.1689 38.038 36.5053 38.038 38.5585 39.2131L66.0631 55.0869Z" fill="#033AA7"/>
</g>
<g opacity="0.078431">
<path d="M65.6566 55.0655C67.6884 56.2406 67.6884 58.1207 65.678 59.2957L38.7296 74.9346C36.7191 76.1096 33.4468 76.1096 31.415 74.9346L4.27412 59.2957C2.2423 58.1207 2.24228 56.2406 4.25271 55.0655L31.2011 39.4267C33.2116 38.2517 36.4839 38.2517 38.5157 39.4267L65.6566 55.0655Z" fill="#033AA7"/>
</g>
<g opacity="0.098039">
<path d="M65.2287 55.0442C67.2178 56.1979 67.2391 58.0566 65.2501 59.2103L38.6653 74.6355C36.6762 75.7892 33.4467 75.7892 31.4576 74.6355L4.70175 59.2103C2.7127 58.0566 2.6913 56.1979 4.68034 55.0442L31.2652 39.619C33.2542 38.4653 36.4837 38.4653 38.4728 39.619L65.2287 55.0442Z" fill="#033AA7"/>
</g>
<g opacity="0.1176">
<path d="M64.801 55.0015C66.7686 56.1338 66.79 57.9711 64.8223 59.1248L38.6011 74.3364C36.6335 75.4687 33.468 75.4687 31.5004 74.3364L5.10808 59.1248C3.14041 57.9925 3.11901 56.1552 5.08667 55.0015L31.3079 39.7899C33.2542 38.6576 36.441 38.6576 38.43 39.7899L64.801 55.0015Z" fill="#033AA7"/>
</g>
<g opacity="0.1373">
<path d="M64.3735 54.9801C66.3198 56.0911 66.3198 57.907 64.3949 59.0394L38.5586 74.0373C36.6337 75.1482 33.4898 75.1482 31.5435 74.0373L5.53613 59.0394C3.58986 57.9284 3.58984 56.1124 5.51472 54.9801L31.351 39.9822C33.2759 38.8712 36.4199 38.8712 38.3661 39.9822L64.3735 54.9801Z" fill="#033AA7"/>
</g>
<g opacity="0.1569">
<path d="M63.9669 54.9374C65.8704 56.0483 65.8918 57.8216 63.9883 58.9326L38.5157 73.7168C36.6122 74.8278 33.5109 74.8278 31.6074 73.7168L5.96369 58.9326C4.03881 57.8216 4.03879 56.0483 5.94229 54.9374L31.415 40.1531C33.3185 39.0422 36.4197 39.0422 38.3232 40.1531L63.9669 54.9374Z" fill="#033AA7"/>
</g>
<g opacity="0.1765">
<path d="M63.5393 54.916C65.4214 56.0056 65.4428 57.7575 63.5607 58.8471L38.4516 73.4177C36.5695 74.5073 33.5325 74.5073 31.6504 73.4177L6.39157 58.8471C4.50946 57.7575 4.48805 56.0056 6.37016 54.916L31.4793 40.3454C33.3614 39.2558 36.3984 39.2558 38.2805 40.3454L63.5393 54.916Z" fill="#033AA7"/>
</g>
<g opacity="0.1961">
<path d="M63.1115 54.8733C64.9722 55.9415 64.9722 57.6934 63.1329 58.7616L38.4088 73.1186C36.5695 74.1868 33.5538 74.1868 31.6931 73.1186L6.79787 58.7616C4.93715 57.6934 4.93718 55.9415 6.77651 54.8733L31.5006 40.5163C33.3399 39.4481 36.3556 39.4481 38.2163 40.5163L63.1115 54.8733Z" fill="#033AA7"/>
</g>
<g opacity="0.2157">
<path d="M62.684 54.8519C64.5234 55.8987 64.5234 57.6293 62.7055 58.6761L38.3449 72.8195C36.527 73.8663 33.5755 73.8663 31.7362 72.8195L7.22592 58.6761C5.38659 57.6293 5.38662 55.8987 7.20457 54.8519L31.565 40.7086C33.383 39.6617 36.3345 39.6617 38.1739 40.7086L62.684 54.8519Z" fill="#033AA7"/>
</g>
<g opacity="0.2353">
<path d="M62.2773 54.8305C64.0739 55.8774 64.0953 57.5652 62.2987 58.5907L38.3018 72.5204C36.5052 73.5673 33.5965 73.5673 31.8 72.5204L7.65331 58.5907C5.85675 57.5438 5.8354 55.856 7.63196 54.8305L31.6289 40.9009C33.4254 39.854 36.3341 39.854 38.1307 40.9009L62.2773 54.8305Z" fill="#033AA7"/>
</g>
<g opacity="0.2549">
<path d="M61.8496 54.7878C63.6248 55.8133 63.6248 57.4797 61.871 58.4839L38.2591 72.1999C36.5053 73.2254 33.618 73.2254 31.8428 72.1999L8.08112 58.4839C6.30595 57.4584 6.30598 55.792 8.05976 54.7665L31.6717 41.0504C33.4255 40.0249 36.3128 40.0249 38.088 41.0504L61.8496 54.7878Z" fill="#033AA7"/>
</g>
<g opacity="0.2745">
<path d="M61.4218 54.7665C63.1756 55.7706 63.1756 57.4157 61.4432 58.4198L38.1949 71.9222C36.4625 72.9263 33.6393 72.9263 31.8855 71.9222L8.48747 58.4198C6.73368 57.4157 6.73366 55.7706 8.46606 54.7665L31.7144 41.2641C33.4468 40.2599 36.27 40.2599 38.0237 41.2641L61.4218 54.7665Z" fill="#033AA7"/>
</g>
<g opacity="0.2941">
<path d="M60.9941 54.7237C62.7051 55.7065 62.7264 57.3302 61.0154 58.313L38.1521 71.6017C36.4411 72.5845 33.6607 72.5845 31.9497 71.6017L8.93656 58.3343C7.22555 57.3516 7.2042 55.7279 8.91521 54.7451L31.7786 41.4564C33.4896 40.4736 36.27 40.4736 37.981 41.4564L60.9941 54.7237Z" fill="#033AA7"/>
</g>
<g opacity="0.3137">
<path d="M60.5875 54.7024C62.2771 55.6852 62.2771 57.2661 60.6089 58.2275L38.1091 71.2813C36.4195 72.264 33.7033 72.264 32.0137 71.2813L9.36413 58.2275C7.6745 57.2448 7.65315 55.6638 9.34277 54.7024L31.8425 41.6487C33.5322 40.6659 36.2484 40.6659 37.938 41.6487L60.5875 54.7024Z" fill="#033AA7"/>
</g>
<g opacity="0.3333">
<path d="M60.1601 54.681C61.8283 55.6424 61.8283 57.202 60.1815 58.1634L38.0453 71.0035C36.3984 71.9649 33.7036 71.9649 32.0353 71.0035L9.74945 58.1634C8.08122 57.202 8.08125 55.6424 9.7281 54.681L31.8643 41.8409C33.5111 40.8795 36.2059 40.8795 37.8742 41.8409L60.1601 54.681Z" fill="#033AA7"/>
</g>
<g opacity="0.3529">
<path d="M59.7318 54.6382C61.3573 55.5783 61.3787 57.1165 59.7532 58.0566L38.002 70.683C36.3766 71.6231 33.7245 71.6231 32.099 70.683L10.1981 58.0566C8.57265 57.1165 8.55125 55.5783 10.1767 54.6382L31.9279 42.0118C33.5534 41.0718 36.2055 41.0718 37.8309 42.0118L59.7318 54.6382Z" fill="#033AA7"/>
</g>
<g opacity="0.3725">
<path d="M59.3045 54.6169C60.9086 55.5356 60.93 57.0525 59.3259 57.9711L37.9383 70.3839C36.3342 71.3026 33.7463 71.3026 32.1422 70.3839L10.6049 57.9711C9.00083 57.0525 8.97947 55.5356 10.5835 54.6169L31.9712 42.2041C33.5752 41.2854 36.1631 41.2854 37.7672 42.2041L59.3045 54.6169Z" fill="#033AA7"/>
</g>
<g opacity="0.3922">
<path d="M58.8982 54.5742C60.4809 55.4929 60.4809 56.967 58.9196 57.8643L37.8956 70.0635C36.3343 70.9821 33.7678 70.9821 32.1851 70.0635L11.0327 57.8643C9.45002 56.9456 9.45005 55.4715 11.0113 54.5742L32.0353 42.375C33.5966 41.4564 36.1632 41.4564 37.7459 42.375L58.8982 54.5742Z" fill="#033AA7"/>
</g>
<g opacity="0.4118">
<path d="M58.4705 54.5528C60.0318 55.4501 60.0318 56.9029 58.4919 57.8002L37.8529 69.7857C36.313 70.683 33.8106 70.683 32.2493 69.7857L11.4605 57.8002C9.89921 56.9029 9.89924 55.4501 11.4392 54.5528L32.0782 42.5673C33.6181 41.67 36.1205 41.67 37.6818 42.5673L58.4705 54.5528Z" fill="#033AA7"/>
</g>
<g opacity="0.4314">
<path d="M58.0424 54.5101C59.5609 55.386 59.5823 56.8175 58.0638 57.6934L37.7883 69.4653C36.2698 70.3412 33.8103 70.3412 32.2917 69.4653L11.8879 57.6934C10.3694 56.8175 10.348 55.386 11.8666 54.5101L32.142 42.7382C33.6605 41.8623 36.1201 41.8623 37.6386 42.7382L58.0424 54.5101Z" fill="#033AA7"/>
</g>
<g opacity="0.451">
<path d="M57.6146 54.4887C59.1117 55.3433 59.1118 56.7534 57.636 57.6079L37.7241 69.1662C36.2484 70.0207 33.8102 70.0207 32.3344 69.1662L12.2942 57.6079C10.7971 56.7534 10.7971 55.3433 12.2728 54.4887L32.1847 42.9305C33.6605 42.0759 36.0987 42.0759 37.5744 42.9305L57.6146 54.4887Z" fill="#033AA7"/>
</g>
<g opacity="0.4706">
<path d="M57.2084 54.4674C58.6842 55.322 58.6841 56.6893 57.2298 57.5225L37.7029 68.8671C36.2485 69.7217 33.8745 69.7217 32.3988 68.8671L12.7435 57.5225C11.2678 56.6679 11.2678 55.3006 12.7222 54.446L32.249 43.1014C33.7034 42.2468 36.0774 42.2468 37.5532 43.1014L57.2084 54.4674Z" fill="#033AA7"/>
</g>
<g opacity="0.4902">
<path d="M56.7807 54.4246C58.2137 55.2578 58.235 56.6038 56.8021 57.437L37.6388 68.568C36.2058 69.4012 33.8745 69.4012 32.4416 68.568L13.1499 57.437C11.717 56.6038 11.6956 55.2578 13.1285 54.4246L32.2919 43.2937C33.7248 42.4605 36.0561 42.4605 37.489 43.2937L56.7807 54.4246Z" fill="#033AA7"/>
</g>
<g opacity="0.5098">
<path d="M56.3527 54.4033C57.7643 55.2151 57.7643 56.5397 56.3741 57.3516L37.5744 68.2689C36.1628 69.0807 33.8957 69.0807 32.4841 68.2689L13.5775 57.3516C12.1659 56.5397 12.1659 55.2151 13.5561 54.4033L32.3558 43.486C33.7674 42.6741 36.0345 42.6741 37.4461 43.486L56.3527 54.4033Z" fill="#033AA7"/>
</g>
<g opacity="0.5294">
<path d="M55.9255 54.3605C57.3157 55.151 57.3156 56.4542 55.9468 57.2447L37.5321 67.927C36.1633 68.7175 33.9176 68.7175 32.5274 67.927L13.9843 57.2447C12.5941 56.4542 12.5941 55.151 13.9629 54.3605L32.3777 43.6782C33.7465 42.8878 35.9922 42.8878 37.3824 43.6782L55.9255 54.3605Z" fill="#033AA7"/>
</g>
<g opacity="0.549">
<path d="M55.4971 54.3392C56.8445 55.1297 56.8659 56.3902 55.5185 57.1806L37.4673 67.6493C36.1199 68.4398 33.917 68.4398 32.5695 67.6493L14.4115 57.1806C13.064 56.3902 13.0426 55.1297 14.3901 54.3392L32.4412 43.8705C33.7887 43.0801 35.9916 43.0801 37.339 43.8705L55.4971 54.3392Z" fill="#033AA7"/>
</g>
<g opacity="0.5686">
<path d="M55.091 54.3178C56.417 55.0869 56.4171 56.3261 55.1124 57.0952L37.4249 67.3502C36.0988 68.1193 33.96 68.1193 32.634 67.3502L14.8395 57.0952C13.5135 56.3261 13.5135 55.0869 14.8181 54.3178L32.5057 44.0628C33.8317 43.2937 35.9705 43.2937 37.2965 44.0628L55.091 54.3178Z" fill="#033AA7"/>
</g>
<g opacity="0.5882">
<path d="M54.6634 54.2751C55.968 55.0228 55.9681 56.2406 54.6848 56.9883L37.3822 67.0297C36.0989 67.7774 33.9816 67.7774 32.6983 67.0297L15.2888 56.9883C13.9842 56.2406 13.9841 55.0228 15.2674 54.2751L32.57 44.2337C33.8532 43.486 35.9706 43.486 37.2752 44.2337L54.6634 54.2751Z" fill="#033AA7"/>
</g>
<g opacity="0.6078">
<path d="M54.2353 54.2537C55.4971 54.9801 55.5186 56.1765 54.2567 56.9029L37.3177 66.7306C36.0558 67.457 34.0026 67.457 32.7193 66.7306L15.6734 56.9029C14.3901 56.1765 14.3901 54.9801 15.652 54.2537L32.591 44.426C33.8529 43.6996 35.9061 43.6996 37.1893 44.426L54.2353 54.2537Z" fill="#033AA7"/>
</g>
<g opacity="0.6275">
<path d="M53.8079 54.2109C55.0484 54.9373 55.0698 56.091 53.8293 56.8174L37.2753 66.4315C36.0348 67.1579 34.0243 67.1579 32.7839 66.4315L16.1015 56.8174C14.861 56.091 14.8397 54.9373 16.0802 54.2109L32.6342 44.5969C33.8746 43.8705 35.8851 43.8705 37.1256 44.5969L53.8079 54.2109Z" fill="#033AA7"/>
</g>
<g opacity="0.6471">
<path d="M53.401 54.1896C54.6201 54.8946 54.62 56.027 53.4223 56.732L37.2319 66.1324C36.0128 66.8374 34.0665 66.8374 32.8474 66.1324L16.5501 56.732C15.331 56.027 15.331 54.8946 16.5287 54.1896L32.7191 44.7892C33.9382 44.0842 35.8845 44.0842 37.1036 44.7892L53.401 54.1896Z" fill="#033AA7"/>
</g>
<g opacity="0.6667">
<path d="M52.9738 54.1469C54.1715 54.8306 54.1715 55.9415 52.9952 56.6252L37.1683 65.8119C35.992 66.4956 34.0671 66.4956 32.8694 65.8119L16.9357 56.6252C15.7379 55.9415 15.7379 54.8306 16.9142 54.1469L32.7411 44.9602C33.9174 44.2765 35.8423 44.2765 37.04 44.9602L52.9738 54.1469Z" fill="#033AA7"/>
</g>
<g opacity="0.6863">
<path d="M52.546 54.1255C53.701 54.7878 53.7223 55.8774 52.5674 56.5611L37.1256 65.5342C35.9706 66.1965 34.0885 66.1965 32.9336 65.5342L17.3848 56.5611C16.2298 55.8988 16.2085 54.8092 17.3634 54.1255L32.8053 45.1524C33.9602 44.4901 35.8423 44.4901 36.9973 45.1524L52.546 54.1255Z" fill="#033AA7"/>
</g>
<g opacity="0.7059">
<path d="M52.1182 54.1042C53.2518 54.7665 53.2517 55.8134 52.1396 56.4757L37.0613 65.2351C35.9278 65.8974 34.1099 65.8974 32.9763 65.2351L17.7911 56.4757C16.6575 55.8134 16.6575 54.7665 17.7697 54.1042L32.848 45.3447C33.9815 44.6824 35.7995 44.6824 36.933 45.3447L52.1182 54.1042Z" fill="#033AA7"/>
</g>
<g opacity="0.7255">
<path d="M51.7116 54.0614C52.8238 54.7024 52.8238 55.7279 51.7331 56.3688L37.0184 64.9146C35.9276 65.5556 34.131 65.5556 33.0189 64.9146L18.2187 56.3688C17.1065 55.7279 17.1065 54.7024 18.1972 54.0614L32.9119 45.5156C34.0027 44.8747 35.7993 44.8747 36.9114 45.5156L51.7116 54.0614Z" fill="#033AA7"/>
</g>
<g opacity="0.7451">
<path d="M51.284 54.04C52.3534 54.6596 52.3748 55.6638 51.3055 56.2833L36.9757 64.6155C35.9064 65.2351 34.174 65.2351 33.0832 64.6155L18.6466 56.2833C17.5772 55.6638 17.5558 54.6596 18.6252 54.04L32.9549 45.7079C34.0242 45.0883 35.7566 45.0883 36.8474 45.7079L51.284 54.04Z" fill="#033AA7"/>
</g>
<g opacity="0.7647">
<path d="M50.8563 53.9973C51.9043 54.5955 51.9043 55.5783 50.8777 56.1979L36.9116 64.2951C35.8636 64.8933 34.174 64.8933 33.126 64.2951L19.0743 56.1979C18.0264 55.5997 18.0263 54.6169 19.0529 53.9973L33.0191 45.9002C34.0671 45.302 35.7567 45.302 36.8047 45.9002L50.8563 53.9973Z" fill="#033AA7"/>
</g>
<g opacity="0.7843">
<path d="M50.4285 53.976C51.4551 54.5742 51.4551 55.5143 50.4499 56.1125L36.8474 63.996C35.8422 64.5942 34.1739 64.5942 33.1687 63.996L19.4806 56.1125C18.454 55.5143 18.4541 54.5742 19.4593 53.976L33.0618 46.0925C34.067 45.4943 35.7352 45.4943 36.7404 46.0925L50.4285 53.976Z" fill="#033AA7"/>
</g>
<g opacity="0.8039">
<path d="M50.0222 53.9332C51.006 54.5101 51.0274 55.4288 50.0436 56.0056L36.826 63.6755C35.8422 64.2523 34.2381 64.2523 33.2329 63.6755L19.9298 56.0056C18.946 55.4288 18.9246 54.5101 19.9084 53.9332L33.126 46.2634C34.1098 45.6865 35.7139 45.6865 36.7191 46.2634L50.0222 53.9332Z" fill="#033AA7"/>
</g>
<g opacity="0.8235">
<path d="M49.5946 53.9119C50.5571 54.4674 50.5571 55.3647 49.616 55.9201L36.762 63.3764C35.7996 63.9318 34.2383 63.9318 33.2758 63.3764L20.3363 55.9201C19.3739 55.3647 19.3739 54.4674 20.315 53.9119L33.1689 46.4557C34.1313 45.9002 35.6927 45.9002 36.6551 46.4557L49.5946 53.9119Z" fill="#033AA7"/>
</g>
<g opacity="0.8431">
<path d="M49.1669 53.8905C50.108 54.4246 50.108 55.3006 49.1883 55.856L36.6979 63.0986C35.7569 63.6327 34.2597 63.6327 33.3187 63.0986L20.7641 55.856C19.8231 55.3219 19.8231 54.446 20.7428 53.8905L33.2331 46.6479C34.1742 46.1138 35.6713 46.1138 36.6124 46.6479L49.1669 53.8905Z" fill="#033AA7"/>
</g>
<g opacity="0.8627">
<path d="M48.7391 53.8478C49.6588 54.3819 49.6588 55.2151 48.7605 55.7492L36.6551 62.7781C35.7568 63.3123 34.2811 63.3123 33.3614 62.7781L21.1705 55.7492C20.2508 55.2151 20.2508 54.3819 21.1491 53.8478L33.2545 46.8188C34.1528 46.2847 35.6285 46.2847 36.5482 46.8188L48.7391 53.8478Z" fill="#033AA7"/>
</g>
<g opacity="0.8824">
<path d="M48.3327 53.8264C49.2095 54.3392 49.2095 55.151 48.3327 55.6638L36.5908 62.4791C35.7139 62.9918 34.281 62.9918 33.4041 62.4791L21.5981 55.6638C20.7212 55.151 20.7212 54.3392 21.5767 53.8264L33.3185 47.0111C34.1954 46.4984 35.6284 46.4984 36.5053 47.0111L48.3327 53.8264Z" fill="#033AA7"/>
</g>
<g opacity="0.902">
<path d="M47.9049 53.7837C48.7604 54.2751 48.7604 55.0656 47.9049 55.5783L36.5266 62.18C35.6711 62.6714 34.3023 62.6714 33.4468 62.18L22.0044 55.5783C21.1489 55.087 21.1489 54.2965 22.0044 53.7837L33.3826 47.1821C34.2381 46.6907 35.607 46.6907 36.4625 47.1821L47.9049 53.7837Z" fill="#033AA7"/>
</g>
<g opacity="0.9216">
<path d="M47.4772 53.7623C48.3113 54.2324 48.3113 55.0015 47.4772 55.4929L36.4839 61.8809C35.6712 62.3509 34.3238 62.3509 33.511 61.8809L22.4322 55.4929C21.5981 55.0228 21.5981 54.2537 22.4322 53.7623L33.4254 47.3743C34.2382 46.9043 35.5856 46.9043 36.3984 47.3743L47.4772 53.7623Z" fill="#033AA7"/>
</g>
<g opacity="0.9412">
<path d="M47.0492 53.741C47.8405 54.211 47.8619 54.9587 47.0492 55.4074L36.4195 61.5817C35.6282 62.0518 34.3449 62.0518 33.5322 61.5817L22.8384 55.4074C22.047 54.9374 22.0256 54.1896 22.8384 53.741L33.4681 47.5666C34.2594 47.0966 35.5427 47.0966 36.3554 47.5666L47.0492 53.741Z" fill="#033AA7"/>
</g>
<g opacity="0.9608">
<path d="M46.6429 53.6983C47.4129 54.1469 47.4129 54.8733 46.6429 55.3006L36.3983 61.2613C35.6283 61.71 34.3879 61.71 33.6179 61.2613L23.2877 55.3006C22.5177 54.852 22.5177 54.1256 23.2877 53.6983L33.5323 47.7376C34.3023 47.2889 35.5428 47.2889 36.3127 47.7376L46.6429 53.6983Z" fill="#033AA7"/>
</g>
<g opacity="0.9804">
<path d="M46.215 53.6769C46.9636 54.1041 46.9636 54.8092 46.215 55.2365L36.3339 60.9835C35.5854 61.4108 34.3877 61.4108 33.6605 60.9835L23.7152 55.2365C22.9667 54.8092 22.9667 54.1041 23.7152 53.6769L33.5963 47.9298C34.3235 47.5025 35.5426 47.5025 36.2698 47.9298L46.215 53.6769Z" fill="#033AA7"/>
</g>
<path d="M45.7874 53.6341C46.4932 54.04 46.5146 54.7237 45.7874 55.1296L36.2699 60.6417C35.5641 61.0476 34.4092 61.0476 33.682 60.6417L24.1004 55.1296C23.3946 54.7237 23.3732 54.04 24.1004 53.6341L33.6179 48.1221C34.3237 47.7161 35.4786 47.7161 36.2057 48.1221L45.7874 53.6341Z" fill="#033AA7"/>
<path d="M34.7303 32.6114L34.6448 64.06L62.0851 48.1435L62.1706 16.6948L34.7303 32.6114Z" fill="url(#paint0_linear_1234_1363)"/>
<path d="M7.0973 16.6948L7.01172 48.1435L34.6446 64.06L34.7301 32.6114L7.0973 16.6948Z" fill="url(#paint1_linear_1234_1363)"/>
<path d="M34.5377 0.756897L7.09741 16.6948L34.7302 32.6114L62.1705 16.6948L34.5377 0.756897Z" fill="url(#paint2_linear_1234_1363)"/>
<defs>
<linearGradient id="paint0_linear_1234_1363" x1="-35.7658" y1="88.2022" x2="43.6227" y2="42.9967" gradientUnits="userSpaceOnUse">
<stop stop-color="#FFE4C0"/>
<stop offset="1" stop-color="#FBB03B"/>
</linearGradient>
<linearGradient id="paint1_linear_1234_1363" x1="-97.8756" y1="24.0085" x2="266.47" y2="74.3424" gradientUnits="userSpaceOnUse">
<stop stop-color="#FFE4C0"/>
<stop offset="1" stop-color="#FBB03B"/>
</linearGradient>
<linearGradient id="paint2_linear_1234_1363" x1="38.6093" y1="37.8577" x2="23.3381" y2="-43.6765" gradientUnits="userSpaceOnUse">
<stop stop-color="white"/>
<stop offset="1" stop-color="#FBB03B"/>
</linearGradient>
</defs>
</svg>
