<svg width="93" height="104" viewBox="0 0 93 104" fill="none" xmlns="http://www.w3.org/2000/svg">
<g opacity="0.019608">
<path d="M89.4431 74.0715C92.3091 75.7166 92.3091 78.4085 89.4859 80.0536L51.4159 102.166C48.5714 103.811 43.9516 103.811 41.0857 102.166L2.75909 80.0536C-0.106851 78.4085 -0.128255 75.7166 2.7163 74.0715L40.7863 51.9592C43.6308 50.3142 48.2506 50.3142 51.1165 51.9592L89.4431 74.0715Z" fill="#033AA7"/>
</g>
<g opacity="0.039216">
<path d="M88.8661 74.0288C91.6893 75.6525 91.7107 78.3018 88.9089 79.9255L51.3308 101.739C48.5291 103.362 43.9521 103.362 41.129 101.739L3.31562 79.9255C0.492453 78.3018 0.471076 75.6525 3.27286 74.0288L40.8509 52.2156C43.6527 50.5919 48.2296 50.5919 51.0528 52.2156L88.8661 74.0288Z" fill="#033AA7"/>
</g>
<g opacity="0.058824">
<path d="M88.2883 73.9861C91.0686 75.5885 91.09 78.1949 88.331 79.7973L51.2663 101.311C48.5073 102.914 43.9945 102.914 41.2141 101.311L3.89267 79.7973C1.11228 78.1949 1.0909 75.5885 3.84991 73.9861L40.9147 52.472C43.6737 50.8697 48.1865 50.8697 50.9669 52.472L88.2883 73.9861Z" fill="#033AA7"/>
</g>
<g opacity="0.078431">
<path d="M87.7322 73.9434C90.4698 75.5244 90.4912 78.0881 87.775 79.6904L51.2021 100.927C48.4645 102.508 44.0373 102.508 41.2783 100.927L4.47015 79.6904C1.71114 78.1095 1.71113 75.5457 4.42736 73.9434L41.0002 52.707C43.7378 51.126 48.1651 51.126 50.9241 52.707L87.7322 73.9434Z" fill="#033AA7"/>
</g>
<g opacity="0.098039">
<path d="M87.1545 73.9006C89.8708 75.4602 89.8707 78.0026 87.1759 79.5622L51.1164 100.499C48.4215 102.059 44.0371 102.059 41.3422 100.499L5.04743 79.5622C2.3312 78.0026 2.33121 75.4602 5.00466 73.9006L41.0642 52.9634C43.759 51.4038 48.1435 51.4038 50.8383 52.9634L87.1545 73.9006Z" fill="#033AA7"/>
</g>
<g opacity="0.1176">
<path d="M86.5772 73.8579C89.2507 75.3962 89.272 77.8959 86.5986 79.4341L51.031 100.072C48.3789 101.61 44.0586 101.61 41.3851 100.072L5.58225 79.4341C2.90879 77.8959 2.88741 75.3962 5.53948 73.8579L41.1071 53.2198C43.7592 51.6816 48.0795 51.6816 50.7529 53.2198L86.5772 73.8579Z" fill="#033AA7"/>
</g>
<g opacity="0.1373">
<path d="M85.9998 73.8152C88.6304 75.332 88.6518 77.789 86.0211 79.3272L50.9669 99.6876C48.3576 101.205 44.1014 101.205 41.4494 99.6876L6.15977 79.3272C3.52909 77.8103 3.50768 75.3534 6.13836 73.8152L41.1927 53.4547C43.802 51.9379 48.0581 51.9379 50.7102 53.4547L85.9998 73.8152Z" fill="#033AA7"/>
</g>
<g opacity="0.1569">
<path d="M85.4221 73.7725C88.01 75.268 88.0314 77.7035 85.4435 79.199L50.8811 99.2604C48.2932 100.756 44.1012 100.756 41.5133 99.2604L6.73705 79.199C4.14915 77.7035 4.12777 75.268 6.71567 73.7725L41.2781 53.7111C43.866 52.2156 48.0579 52.2156 50.6459 53.7111L85.4221 73.7725Z" fill="#033AA7"/>
</g>
<g opacity="0.1765">
<path d="M84.8662 73.7298C87.4327 75.2039 87.4327 77.5967 84.8875 79.0709L50.8384 98.8331C48.2933 100.307 44.1655 100.307 41.599 98.8331L7.33603 79.0709C4.76951 77.5967 4.76949 75.2039 7.31462 73.7298L41.3637 53.9676C43.9089 52.4934 48.0367 52.4934 50.6032 53.9676L84.8662 73.7298Z" fill="#033AA7"/>
</g>
<g opacity="0.1961">
<path d="M84.2889 73.7084C86.8126 75.1612 86.8126 77.5113 84.3103 78.9641L50.7531 98.4485C48.2508 99.9013 44.1657 99.9013 41.6634 98.4485L7.8923 78.9641C5.36856 77.5113 5.34718 75.1612 7.87092 73.7084L41.4281 54.2239C43.9304 52.7711 48.0155 52.7711 50.5392 54.2239L84.2889 73.7084Z" fill="#033AA7"/>
</g>
<g opacity="0.2157">
<path d="M83.7113 73.6656C86.1922 75.0971 86.2136 77.4258 83.7327 78.8572L50.6888 98.0426C48.2292 99.474 44.2083 99.474 41.7274 98.0426L8.46959 78.8572C5.98863 77.4258 5.96725 75.0971 8.44821 73.6656L41.4921 54.4803C43.9517 53.0489 47.9725 53.0489 50.4535 54.4803L83.7113 73.6656Z" fill="#033AA7"/>
</g>
<g opacity="0.2353">
<path d="M83.1341 73.6229C85.5723 75.033 85.5937 77.319 83.1555 78.729L50.6249 97.6153C48.1867 99.0253 44.2514 99.0253 41.7918 97.6153L9.04739 78.729C6.6092 77.319 6.58779 75.033 9.02598 73.6229L41.5566 54.7367C43.9948 53.3266 47.9301 53.3266 50.3897 54.7367L83.1341 73.6229Z" fill="#033AA7"/>
</g>
<g opacity="0.2549">
<path d="M82.5561 73.5802C84.9729 74.9688 84.9729 77.2121 82.5774 78.6008L50.5388 97.188C48.1434 98.5767 44.2508 98.5767 41.8554 97.188L9.60288 78.6008C7.18608 77.2121 7.18608 74.9688 9.5815 73.5802L41.6201 54.993C44.0156 53.6043 47.9081 53.6043 50.3035 54.993L82.5561 73.5802Z" fill="#033AA7"/>
</g>
<g opacity="0.2745">
<path d="M82.0002 73.5374C84.3742 74.9047 84.3742 77.1266 82.0216 78.494L50.4962 96.8034C48.1436 98.1708 44.3152 98.1708 41.9411 96.8034L10.2019 78.494C7.82787 77.1266 7.82788 74.9047 10.1805 73.5374L41.7059 55.228C44.0585 53.8607 47.8869 53.8607 50.2609 55.228L82.0002 73.5374Z" fill="#033AA7"/>
</g>
<g opacity="0.2941">
<path d="M81.4231 73.4947C83.7544 74.8407 83.7758 77.0199 81.4445 78.3658L50.4111 96.3762C48.1012 97.7221 44.3156 97.7221 41.9844 96.3762L10.7584 78.3658C8.4272 77.0199 8.40579 74.8407 10.737 73.4947L41.7705 55.4844C44.0804 54.1384 47.866 54.1384 50.1972 55.4844L81.4231 73.4947Z" fill="#033AA7"/>
</g>
<g opacity="0.3137">
<path d="M80.8453 73.452C83.1337 74.7766 83.1551 76.9131 80.8667 78.2377L50.3465 95.9489C48.058 97.2735 44.358 97.2735 42.0695 95.9489L11.3355 78.2377C9.04701 76.9131 9.02563 74.7766 11.3141 73.452L41.8342 55.7408C44.1227 54.4162 47.8228 54.4162 50.1113 55.7408L80.8453 73.452Z" fill="#033AA7"/>
</g>
<g opacity="0.3333">
<path d="M80.2682 73.4093C82.5139 74.7125 82.5353 76.8276 80.2896 78.1308L50.2614 95.5643C48.0157 96.8676 44.3798 96.8676 42.1127 95.5643L11.892 78.1308C9.62487 76.8276 9.62488 74.7125 11.8706 73.4093L41.8988 55.9758C44.1445 54.6726 47.7804 54.6726 50.0475 55.9758L80.2682 73.4093Z" fill="#033AA7"/>
</g>
<g opacity="0.3529">
<path d="M79.6899 73.3665C81.9142 74.6484 81.9142 76.7208 79.7113 78.0027L50.1964 95.137C47.9935 96.4189 44.4003 96.4189 42.1974 95.137L12.49 78.0027C10.2657 76.7208 10.2657 74.6484 12.4686 73.3665L41.9835 56.2322C44.1865 54.9503 47.7796 54.9503 49.9825 56.2322L79.6899 73.3665Z" fill="#033AA7"/>
</g>
<g opacity="0.3725">
<path d="M79.1343 73.3238C81.3158 74.5843 81.3158 76.6139 79.1557 77.8744L50.1327 94.7097C47.9725 95.9702 44.4436 95.9702 42.262 94.7097L13.0465 77.8744C10.865 76.6139 10.8436 74.5843 13.0252 73.3238L42.0482 56.4885C44.2083 55.228 47.7373 55.228 49.9188 56.4885L79.1343 73.3238Z" fill="#033AA7"/>
</g>
<g opacity="0.3922">
<path d="M78.5567 73.2811C80.6954 74.5202 80.7168 76.5285 78.5781 77.7462L50.0684 94.3038C47.9296 95.5429 44.4862 95.5429 42.326 94.3038L13.6238 77.7462C11.4851 76.5071 11.4637 74.4988 13.6025 73.2811L42.1122 56.7235C44.2509 55.4844 47.6943 55.4844 49.8545 56.7235L78.5567 73.2811Z" fill="#033AA7"/>
</g>
<g opacity="0.4118">
<path d="M77.9795 73.2384C80.0755 74.4561 80.0969 76.4216 78.0009 77.6394L49.9831 93.8979C47.8871 95.1156 44.4865 95.1156 42.3905 93.8979L14.2016 77.6394C12.1056 76.4216 12.0842 74.4561 14.1802 73.2384L42.198 56.9799C44.294 55.7621 47.6946 55.7621 49.7906 56.9799L77.9795 73.2384Z" fill="#033AA7"/>
</g>
<g opacity="0.4314">
<path d="M77.4021 73.1957C79.4767 74.3921 79.4767 76.3149 77.4234 77.5113L49.919 93.4706C47.8658 94.667 44.5293 94.667 42.4547 93.4706L14.7791 77.5113C12.7045 76.3149 12.7045 74.3921 14.7577 73.1957L42.2622 57.2363C44.3154 56.0399 47.6519 56.0399 49.7265 57.2363L77.4021 73.1957Z" fill="#033AA7"/>
</g>
<g opacity="0.451">
<path d="M76.8247 73.1742C78.8565 74.3493 78.8565 76.2507 76.8461 77.4044L49.8549 93.086C47.8444 94.261 44.5507 94.261 42.5403 93.086L15.3566 77.4044C13.3248 76.2294 13.3248 74.3279 15.3352 73.1742L42.3264 57.4927C44.3369 56.3176 47.6306 56.3176 49.6624 57.4927L76.8247 73.1742Z" fill="#033AA7"/>
</g>
<g opacity="0.4706">
<path d="M76.2684 73.1315C78.2575 74.2852 78.2788 76.1439 76.2898 77.2976L49.7905 92.68C47.8015 93.8337 44.5933 93.8337 42.6043 92.68L15.9339 77.2976C13.9449 76.1439 13.9235 74.2852 15.9125 73.1315L42.4118 57.749C44.3795 56.5953 47.609 56.5953 49.598 57.749L76.2684 73.1315Z" fill="#033AA7"/>
</g>
<g opacity="0.4902">
<path d="M75.691 73.0888C77.6373 74.2211 77.6587 76.0371 75.7124 77.1694L49.7265 92.2528C47.7802 93.3851 44.6362 93.3851 42.6685 92.2528L16.5115 77.1694C14.5652 76.0371 14.5438 74.2211 16.4901 73.0888L42.476 58.0054C44.4223 56.8731 47.5663 56.8731 49.534 58.0054L75.691 73.0888Z" fill="#033AA7"/>
</g>
<g opacity="0.5098">
<path d="M75.1134 73.0461C77.0383 74.157 77.0383 75.9517 75.1348 77.0413L49.6408 91.8469C47.7373 92.9578 44.6361 92.9578 42.7326 91.8469L17.0675 77.0413C15.1426 75.9303 15.1425 74.1357 17.046 73.0461L42.5401 58.2405C44.4436 57.1295 47.5448 57.1295 49.4483 58.2405L75.1134 73.0461Z" fill="#033AA7"/>
</g>
<g opacity="0.5294">
<path d="M74.5358 73.0034C76.4179 74.0929 76.4179 75.8449 74.5572 76.9345L49.5765 91.441C47.7157 92.5306 44.6787 92.5306 42.7966 91.441L17.6447 76.9345C15.7626 75.8449 15.7626 74.0929 17.6234 73.0034L42.6041 58.4969C44.4648 57.4073 47.5019 57.4073 49.384 58.4969L74.5358 73.0034Z" fill="#033AA7"/>
</g>
<g opacity="0.549">
<path d="M73.9586 72.9606C75.7979 74.0288 75.7979 75.738 73.98 76.8062L49.4911 91.0137C47.6732 92.0819 44.6789 92.0819 42.8396 91.0137L18.201 76.8062C16.3617 75.738 16.3403 74.0288 18.1796 72.9606L42.6685 58.7532C44.4864 57.685 47.4807 57.685 49.32 58.7532L73.9586 72.9606Z" fill="#033AA7"/>
</g>
<g opacity="0.5686">
<path d="M73.4024 72.9179C75.199 73.9647 75.2204 75.6525 73.4238 76.678L49.4483 90.6077C47.6517 91.6546 44.743 91.6546 42.9464 90.6077L18.7998 76.678C17.0032 75.6312 16.9819 73.9434 18.7784 72.9179L42.754 58.9882C44.5505 57.9413 47.4592 57.9413 49.2558 58.9882L73.4024 72.9179Z" fill="#033AA7"/>
</g>
<g opacity="0.5882">
<path d="M72.8251 72.8751C74.5789 73.9006 74.6003 75.5457 72.8465 76.5498L49.3629 90.1804C47.6091 91.2059 44.7645 91.2059 42.9894 90.1804L19.356 76.5498C17.5809 75.5243 17.5809 73.8792 19.3347 72.8751L42.8182 59.2445C44.572 58.219 47.4166 58.219 49.1918 59.2445L72.8251 72.8751Z" fill="#033AA7"/>
</g>
<g opacity="0.6078">
<path d="M72.2476 72.8324C73.98 73.8365 73.98 75.4389 72.269 76.443L49.2986 89.7745C47.5876 90.7786 44.7859 90.7786 43.0748 89.7745L19.9548 76.443C18.2224 75.4389 18.2224 73.8365 19.9334 72.8324L42.8824 59.5009C44.5934 58.4968 47.3951 58.4968 49.1061 59.5009L72.2476 72.8324Z" fill="#033AA7"/>
</g>
<g opacity="0.6275">
<path d="M71.6703 72.7897C73.3599 73.7725 73.3599 75.3534 71.6917 76.3148L49.2133 89.3686C47.5451 90.3514 44.8074 90.3514 43.1178 89.3686L20.5111 76.3148C18.8215 75.3321 18.8215 73.7511 20.4897 72.7897L42.9681 59.736C44.6364 58.7532 47.374 58.7532 49.0636 59.736L71.6703 72.7897Z" fill="#033AA7"/>
</g>
<g opacity="0.6471">
<path d="M71.0923 72.747C72.7392 73.7084 72.7606 75.2466 71.1137 76.1867L49.1486 88.9413C47.5018 89.9027 44.8497 89.9027 43.1815 88.9413L21.0667 76.1867C19.4198 75.2253 19.3984 73.687 21.0453 72.747L43.0104 59.9924C44.6572 59.031 47.3093 59.031 48.9775 59.9924L71.0923 72.747Z" fill="#033AA7"/>
</g>
<g opacity="0.6667">
<path d="M70.5367 72.7043C72.1408 73.6443 72.1621 75.1398 70.5581 76.0799L49.0849 88.5354C47.4808 89.4754 44.8715 89.4754 43.2675 88.5354L21.666 76.0799C20.0619 75.1398 20.0405 73.6443 21.6446 72.7043L43.1177 60.2487C44.7218 59.3087 47.3311 59.3087 48.9352 60.2487L70.5367 72.7043Z" fill="#033AA7"/>
</g>
<g opacity="0.6863">
<path d="M69.9589 72.6615C71.5416 73.5802 71.5416 75.0329 69.9803 75.9516L49.0205 88.1294C47.4592 89.0481 44.914 89.0481 43.3314 88.1294L22.2432 75.9516C20.6605 75.0329 20.6605 73.5802 22.2218 72.6615L43.1817 60.4837C44.743 59.565 47.2881 59.565 48.8708 60.4837L69.9589 72.6615Z" fill="#033AA7"/>
</g>
<g opacity="0.7059">
<path d="M69.3816 72.6402C70.9215 73.5161 70.9215 74.9689 69.403 75.8448L48.9564 87.7235C47.4379 88.6209 44.9355 88.5995 43.417 87.7235L22.8207 75.8448C21.2808 74.9475 21.2808 73.5161 22.7993 72.6402L43.2459 60.7615C44.7644 59.8855 47.2668 59.8855 48.7853 60.7615L69.3816 72.6402Z" fill="#033AA7"/>
</g>
<g opacity="0.7255">
<path d="M68.8041 72.5974C70.3012 73.452 70.3012 74.8621 68.8255 75.738L48.8708 87.3176C47.3737 88.1722 44.9569 88.1722 43.4597 87.3176L23.3768 75.738C21.8796 74.8834 21.8582 73.4734 23.3554 72.5974L43.31 61.0179C44.8072 60.1633 47.224 60.1633 48.7211 61.0179L68.8041 72.5974Z" fill="#033AA7"/>
</g>
<g opacity="0.7451">
<path d="M68.2267 72.5547C69.681 73.3879 69.7024 74.7552 68.2481 75.6098L48.8067 86.8902C47.3524 87.7235 44.9997 87.7235 43.524 86.8902L23.9543 75.6098C22.4999 74.7765 22.4786 73.4092 23.9329 72.5547L43.3743 61.2742C44.8286 60.441 47.1813 60.441 48.657 61.2742L68.2267 72.5547Z" fill="#033AA7"/>
</g>
<g opacity="0.7647">
<path d="M67.6704 72.5119C69.1033 73.3238 69.1033 74.6698 67.6918 75.4816L48.7423 86.4844C47.3307 87.2962 45.0209 87.2962 43.6093 86.4844L24.5315 75.4816C23.0985 74.6698 23.0985 73.3238 24.5101 72.5119L43.4596 61.5092C44.8711 60.6973 47.181 60.6973 48.5926 61.5092L67.6704 72.5119Z" fill="#033AA7"/>
</g>
<g opacity="0.7843">
<path d="M67.0932 72.4692C68.4834 73.2597 68.4834 74.563 67.1146 75.3534L48.6784 86.0571C47.3096 86.8476 45.0639 86.8476 43.6737 86.0571L25.1093 75.3534C23.7191 74.563 23.7191 73.2597 25.0879 72.4479L43.524 61.7442C44.8928 60.9537 47.1386 60.9537 48.5287 61.7442L67.0932 72.4692Z" fill="#033AA7"/>
</g>
<g opacity="0.8039">
<path d="M66.5155 72.4265C67.8629 73.1956 67.8629 74.4561 66.5369 75.2466L48.5926 85.6511C47.2452 86.4202 45.0637 86.4202 43.7163 85.6511L25.6651 75.2466C24.3177 74.4775 24.3177 73.217 25.6437 72.4265L43.5879 62.022C44.9354 61.2528 47.1169 61.2528 48.4643 62.022L66.5155 72.4265Z" fill="#033AA7"/>
</g>
<g opacity="0.8235">
<path d="M65.9381 72.3838C67.2428 73.1315 67.2641 74.3707 65.9595 75.1185L48.5286 85.2452C47.2239 85.993 45.1066 85.993 43.8019 85.2452L26.2427 75.1185C24.938 74.3707 24.9166 73.1315 26.2213 72.3838L43.6522 62.257C44.9568 61.5092 47.0742 61.5092 48.3789 62.257L65.9381 72.3838Z" fill="#033AA7"/>
</g>
<g opacity="0.8431">
<path d="M65.3605 72.3411C66.6224 73.0674 66.6438 74.2638 65.3819 74.9902L48.4429 84.8179C47.181 85.5443 45.1278 85.5443 43.8446 84.8179L26.7986 74.9902C25.5154 74.2638 25.5154 73.0674 26.7772 72.3411L43.7162 62.5134C44.9781 61.787 47.0313 61.787 48.3146 62.5134L65.3605 72.3411Z" fill="#033AA7"/>
</g>
<g opacity="0.8627">
<path d="M64.8047 72.2983C66.0452 73.0033 66.0452 74.157 64.8261 74.8834L48.4004 84.412C47.1813 85.1171 45.1709 85.1171 43.9518 84.412L27.4191 74.8834C26.1787 74.1784 26.1787 73.0247 27.3978 72.2983L43.8235 62.7697C45.0426 62.0647 47.053 62.0647 48.2721 62.7697L64.8047 72.2983Z" fill="#033AA7"/>
</g>
<g opacity="0.8824">
<path d="M64.2272 72.2556C65.4249 72.9393 65.4249 74.0716 64.2486 74.7553L48.3148 84.0061C47.1171 84.6898 45.1922 84.6898 43.9945 84.0061L27.9752 74.7553C26.7775 74.0716 26.7775 72.9393 27.9538 72.2556L43.8876 63.0048C45.0853 62.3211 47.0102 62.3211 48.2079 63.0048L64.2272 72.2556Z" fill="#033AA7"/>
</g>
<g opacity="0.902">
<path d="M63.6497 72.2128C64.8047 72.8751 64.8047 73.9647 63.6711 74.627L48.2506 83.5787C47.0957 84.241 45.235 84.241 44.0587 83.5787L28.5313 74.627C27.3763 73.9647 27.3549 72.8751 28.5099 72.2128L43.9303 63.2611C45.0853 62.5988 46.946 62.5988 48.1223 63.2611L63.6497 72.2128Z" fill="#033AA7"/>
</g>
<g opacity="0.9216">
<path d="M63.0721 72.1701C64.1843 72.8111 64.2057 73.8579 63.0935 74.5202L48.1649 83.1729C47.0528 83.8138 45.2348 83.8138 44.1227 83.1729L29.1086 74.5202C27.9964 73.8793 27.975 72.8324 29.0872 72.1701L44.0157 63.5175C45.1279 62.8766 46.9458 62.8766 48.058 63.5175L63.0721 72.1701Z" fill="#033AA7"/>
</g>
<g opacity="0.9412">
<path d="M62.4949 72.1274C63.5856 72.747 63.5856 73.7725 62.5163 74.392L48.101 82.7669C47.0316 83.3865 45.2778 83.3865 44.1871 82.7669L29.6863 74.392C28.5955 73.7725 28.5955 72.747 29.6649 72.1274L44.0801 63.7525C45.1495 63.1329 46.9033 63.1329 47.9941 63.7525L62.4949 72.1274Z" fill="#033AA7"/>
</g>
<g opacity="0.9608">
<path d="M61.9387 72.106C62.9867 72.7042 62.9867 73.687 61.9601 74.2852L48.0581 82.361C47.0101 82.9592 45.3205 82.9592 44.2939 82.361L30.285 74.2852C29.237 73.687 29.237 72.7042 30.2636 72.106L44.1656 64.0302C45.2136 63.432 46.9032 63.432 47.9298 64.0302L61.9387 72.106Z" fill="#033AA7"/>
</g>
<g opacity="0.9804">
<path d="M61.361 72.0633C62.3662 72.6402 62.3662 73.5802 61.3824 74.1784L47.9723 81.9551C46.9671 82.532 45.3417 82.532 44.3364 81.9551L30.8408 74.1784C29.8356 73.6016 29.8356 72.6615 30.8195 72.0633L44.2295 64.2866C45.2347 63.7098 46.8602 63.7098 47.8654 64.2866L61.361 72.0633Z" fill="#033AA7"/>
</g>
<path d="M60.7836 72.0206C61.746 72.5761 61.7675 73.4948 60.805 74.0503L47.9083 81.5492C46.9458 82.1047 45.3845 82.1047 44.4007 81.5492L31.4184 74.0503C30.456 73.4948 30.4346 72.5761 31.397 72.0206L44.2937 64.5217C45.2562 63.9662 46.8175 63.9662 47.8013 64.5217L60.7836 72.0206Z" fill="#033AA7"/>
<path d="M45.77 43.4989L45.6631 86.1639L82.8776 64.543L83.0059 21.878L45.77 43.4989Z" fill="url(#paint0_linear_1234_1361)"/>
<path d="M8.299 21.878L8.17065 64.543L45.6632 86.1639L45.7701 43.4989L8.299 21.878Z" fill="url(#paint1_linear_1234_1361)"/>
<path d="M45.5344 0.278427L8.29858 21.8779L45.7697 43.4989L83.0055 21.8779L45.5344 0.278427Z" fill="url(#paint2_linear_1234_1361)"/>
<defs>
<linearGradient id="paint0_linear_1234_1361" x1="-49.8525" y1="118.899" x2="57.8438" y2="57.5743" gradientUnits="userSpaceOnUse">
<stop stop-color="#FFE4C0"/>
<stop offset="1" stop-color="#FBB03B"/>
</linearGradient>
<linearGradient id="paint1_linear_1234_1361" x1="-134.109" y1="31.8153" x2="360.152" y2="100.097" gradientUnits="userSpaceOnUse">
<stop stop-color="#FFE4C0"/>
<stop offset="1" stop-color="#FBB03B"/>
</linearGradient>
<linearGradient id="paint2_linear_1234_1361" x1="51.0425" y1="50.6029" x2="30.326" y2="-60.0044" gradientUnits="userSpaceOnUse">
<stop stop-color="white"/>
<stop offset="1" stop-color="#FBB03B"/>
</linearGradient>
</defs>
</svg>
