<svg width="148" height="238" viewBox="0 0 148 238" fill="none" xmlns="http://www.w3.org/2000/svg">
<path opacity="0.01" d="M76.9472 236.694C109.678 236.694 136.212 220.423 136.212 200.353C136.212 180.282 109.678 164.012 76.9472 164.012C44.216 164.012 17.6821 180.282 17.6821 200.353C17.6821 220.423 44.216 236.694 76.9472 236.694Z" fill="#033AA7"/>
<path opacity="0.019608" d="M76.9472 236.203C109.23 236.203 135.4 220.152 135.4 200.353C135.4 180.554 109.23 164.503 76.9472 164.503C44.6649 164.503 18.4949 180.554 18.4949 200.353C18.4949 220.152 44.6649 236.203 76.9472 236.203Z" fill="#033AA7"/>
<path opacity="0.029412" d="M76.9473 235.711C108.781 235.711 134.587 219.881 134.587 200.353C134.587 180.825 108.781 164.995 76.9473 164.995C45.1138 164.995 19.3076 180.825 19.3076 200.353C19.3076 219.881 45.1138 235.711 76.9473 235.711Z" fill="#033AA7"/>
<path opacity="0.039216" d="M76.9475 235.198C108.332 235.198 133.774 219.598 133.774 200.353C133.774 181.108 108.332 165.507 76.9475 165.507C45.5629 165.507 20.1206 181.108 20.1206 200.353C20.1206 219.598 45.5629 235.198 76.9475 235.198Z" fill="#033AA7"/>
<path opacity="0.04902" d="M76.9475 234.707C107.883 234.707 132.962 219.326 132.962 200.353C132.962 181.38 107.883 165.999 76.9475 165.999C46.0117 165.999 20.9333 181.38 20.9333 200.353C20.9333 219.326 46.0117 234.707 76.9475 234.707Z" fill="#033AA7"/>
<path opacity="0.058824" d="M76.947 234.194C107.434 234.194 132.149 219.043 132.149 200.353C132.149 181.663 107.434 166.511 76.947 166.511C46.4601 166.511 21.7456 181.663 21.7456 200.353C21.7456 219.043 46.4601 234.194 76.947 234.194Z" fill="#033AA7"/>
<path opacity="0.068627" d="M76.947 233.703C106.985 233.703 131.336 218.772 131.336 200.353C131.336 181.934 106.985 167.003 76.947 167.003C46.909 167.003 22.5583 181.934 22.5583 200.353C22.5583 218.772 46.909 233.703 76.947 233.703Z" fill="#033AA7"/>
<path opacity="0.078431" d="M76.9471 233.211C106.536 233.211 130.523 218.5 130.523 200.353C130.523 182.205 106.536 167.494 76.9471 167.494C47.3579 167.494 23.3711 182.205 23.3711 200.353C23.3711 218.5 47.3579 233.211 76.9471 233.211Z" fill="#033AA7"/>
<path opacity="0.088235" d="M76.9473 232.699C106.088 232.699 129.711 218.217 129.711 200.353C129.711 182.489 106.088 168.007 76.9473 168.007C47.807 168.007 24.1841 182.489 24.1841 200.353C24.1841 218.217 47.807 232.699 76.9473 232.699Z" fill="#033AA7"/>
<path opacity="0.098039" d="M76.9471 232.207C105.639 232.207 128.898 217.946 128.898 200.353C128.898 182.76 105.639 168.498 76.9471 168.498C48.2556 168.498 24.9966 182.76 24.9966 200.353C24.9966 217.946 48.2556 232.207 76.9471 232.207Z" fill="#033AA7"/>
<path opacity="0.1078" d="M76.9471 231.716C105.19 231.716 128.085 217.674 128.085 200.353C128.085 183.031 105.19 168.99 76.9471 168.99C48.7045 168.99 25.8093 183.031 25.8093 200.353C25.8093 217.674 48.7045 231.716 76.9471 231.716Z" fill="#033AA7"/>
<path opacity="0.1176" d="M76.9471 231.203C104.741 231.203 127.272 217.391 127.272 200.353C127.272 183.315 104.741 169.502 76.9471 169.502C49.1533 169.502 26.6221 183.315 26.6221 200.353C26.6221 217.391 49.1533 231.203 76.9471 231.203Z" fill="#033AA7"/>
<path opacity="0.1275" d="M76.9472 230.712C104.292 230.712 126.46 217.12 126.46 200.353C126.46 183.586 104.292 169.994 76.9472 169.994C49.6022 169.994 27.4348 183.586 27.4348 200.353C27.4348 217.12 49.6022 230.712 76.9472 230.712Z" fill="#033AA7"/>
<path opacity="0.1373" d="M76.9474 230.22C103.843 230.22 125.647 216.848 125.647 200.353C125.647 183.857 103.843 170.485 76.9474 170.485C50.0514 170.485 28.2478 183.857 28.2478 200.353C28.2478 216.848 50.0514 230.22 76.9474 230.22Z" fill="#033AA7"/>
<path opacity="0.1471" d="M76.9473 229.708C103.383 229.708 124.813 216.565 124.813 200.353C124.813 184.141 103.383 170.998 76.9473 170.998C50.5119 170.998 29.0818 184.141 29.0818 200.353C29.0818 216.565 50.5119 229.708 76.9473 229.708Z" fill="#033AA7"/>
<path opacity="0.1569" d="M76.9473 229.216C102.934 229.216 124 216.294 124 200.353C124 184.412 102.934 171.489 76.9473 171.489C50.9608 171.489 29.8945 184.412 29.8945 200.353C29.8945 216.294 50.9608 229.216 76.9473 229.216Z" fill="#033AA7"/>
<path opacity="0.1667" d="M76.9473 228.704C102.485 228.704 123.187 216.01 123.187 200.353C123.187 184.695 102.485 172.002 76.9473 172.002C51.4096 172.002 30.7073 184.695 30.7073 200.353C30.7073 216.01 51.4096 228.704 76.9473 228.704Z" fill="#033AA7"/>
<path opacity="0.1765" d="M76.9473 228.212C102.036 228.212 122.375 215.739 122.375 200.353C122.375 184.967 102.036 172.493 76.9473 172.493C51.8585 172.493 31.52 184.967 31.52 200.353C31.52 215.739 51.8585 228.212 76.9473 228.212Z" fill="#033AA7"/>
<path opacity="0.1863" d="M76.9471 227.721C101.587 227.721 121.562 215.468 121.562 200.353C121.562 185.238 101.587 172.985 76.9471 172.985C52.3071 172.985 32.3325 185.238 32.3325 200.353C32.3325 215.468 52.3071 227.721 76.9471 227.721Z" fill="#033AA7"/>
<path opacity="0.1961" d="M76.9473 227.208C101.138 227.208 120.749 215.185 120.749 200.353C120.749 185.521 101.138 173.498 76.9473 173.498C52.7562 173.498 33.1455 185.521 33.1455 200.353C33.1455 215.185 52.7562 227.208 76.9473 227.208Z" fill="#033AA7"/>
<path opacity="0.2059" d="M76.9474 226.717C100.69 226.717 119.937 214.913 119.937 200.353C119.937 185.792 100.69 173.989 76.9474 173.989C53.2051 173.989 33.9583 185.792 33.9583 200.353C33.9583 214.913 53.2051 226.717 76.9474 226.717Z" fill="#033AA7"/>
<path opacity="0.2157" d="M76.9474 226.225C100.241 226.225 119.124 214.642 119.124 200.353C119.124 186.064 100.241 174.48 76.9474 174.48C53.654 174.48 34.771 186.064 34.771 200.353C34.771 214.642 53.654 226.225 76.9474 226.225Z" fill="#033AA7"/>
<path opacity="0.2255" d="M76.9474 225.713C99.7919 225.713 118.311 214.359 118.311 200.353C118.311 186.347 99.7919 174.993 76.9474 174.993C54.1029 174.993 35.5837 186.347 35.5837 200.353C35.5837 214.359 54.1029 225.713 76.9474 225.713Z" fill="#033AA7"/>
<path opacity="0.2353" d="M76.9469 225.221C99.3426 225.221 117.498 214.087 117.498 200.353C117.498 186.618 99.3426 175.485 76.9469 175.485C54.5512 175.485 36.396 186.618 36.396 200.353C36.396 214.087 54.5512 225.221 76.9469 225.221Z" fill="#033AA7"/>
<path opacity="0.2451" d="M76.9474 224.708C98.8942 224.708 116.686 213.804 116.686 200.353C116.686 186.902 98.8942 175.997 76.9474 175.997C55.0006 175.997 37.2092 186.902 37.2092 200.353C37.2092 213.804 55.0006 224.708 76.9474 224.708Z" fill="#033AA7"/>
<path opacity="0.2549" d="M76.9472 224.217C98.4452 224.217 115.873 213.533 115.873 200.353C115.873 187.173 98.4452 176.489 76.9472 176.489C55.4493 176.489 38.0217 187.173 38.0217 200.353C38.0217 213.533 55.4493 224.217 76.9472 224.217Z" fill="#033AA7"/>
<path opacity="0.2647" d="M76.9472 223.726C97.9963 223.726 115.06 213.261 115.06 200.353C115.06 187.444 97.9963 176.98 76.9472 176.98C55.8981 176.98 38.8345 187.444 38.8345 200.353C38.8345 213.261 55.8981 223.726 76.9472 223.726Z" fill="#033AA7"/>
<path opacity="0.2745" d="M76.9472 223.213C97.5475 223.213 114.247 212.978 114.247 200.353C114.247 187.728 97.5475 177.493 76.9472 177.493C56.347 177.493 39.6472 187.728 39.6472 200.353C39.6472 212.978 56.347 223.213 76.9472 223.213Z" fill="#033AA7"/>
<path opacity="0.2843" d="M76.9467 222.722C97.0981 222.722 113.434 212.707 113.434 200.353C113.434 187.999 97.0981 177.984 76.9467 177.984C56.7954 177.984 40.4595 187.999 40.4595 200.353C40.4595 212.707 56.7954 222.722 76.9467 222.722Z" fill="#033AA7"/>
<path opacity="0.2941" d="M76.9473 222.23C96.638 222.23 112.601 212.435 112.601 200.353C112.601 188.27 96.638 178.476 76.9473 178.476C57.2566 178.476 41.2942 188.27 41.2942 200.353C41.2942 212.435 57.2566 222.23 76.9473 222.23Z" fill="#033AA7"/>
<path opacity="0.3039" d="M76.9474 221.717C96.1892 221.717 111.788 212.152 111.788 200.353C111.788 188.554 96.1892 178.988 76.9474 178.988C57.7055 178.988 42.1069 188.554 42.1069 200.353C42.1069 212.152 57.7055 221.717 76.9474 221.717Z" fill="#033AA7"/>
<path opacity="0.3137" d="M76.9474 221.226C95.7403 221.226 110.975 211.881 110.975 200.353C110.975 188.825 95.7403 179.48 76.9474 179.48C58.1544 179.48 42.9197 188.825 42.9197 200.353C42.9197 211.881 58.1544 221.226 76.9474 221.226Z" fill="#033AA7"/>
<path opacity="0.3235" d="M76.9471 220.735C95.2912 220.735 110.162 211.609 110.162 200.353C110.162 189.096 95.2912 179.971 76.9471 179.971C58.603 179.971 43.7322 189.096 43.7322 200.353C43.7322 211.609 58.603 220.735 76.9471 220.735Z" fill="#033AA7"/>
<path opacity="0.3333" d="M76.9474 220.222C94.8427 220.222 109.35 211.326 109.35 200.353C109.35 189.379 94.8427 180.484 76.9474 180.484C59.0521 180.484 44.5452 189.379 44.5452 200.353C44.5452 211.326 59.0521 220.222 76.9474 220.222Z" fill="#033AA7"/>
<path opacity="0.3431" d="M76.9472 219.731C94.3936 219.731 108.537 211.055 108.537 200.353C108.537 189.651 94.3936 180.975 76.9472 180.975C59.5008 180.975 45.3577 189.651 45.3577 200.353C45.3577 211.055 59.5008 219.731 76.9472 219.731Z" fill="#033AA7"/>
<path opacity="0.3529" d="M76.9467 219.218C93.9442 219.218 107.724 210.772 107.724 200.353C107.724 189.934 93.9442 181.488 76.9467 181.488C59.9491 181.488 46.1699 189.934 46.1699 200.353C46.1699 210.772 59.9491 219.218 76.9467 219.218Z" fill="#033AA7"/>
<path opacity="0.3627" d="M76.9472 218.726C93.4959 218.726 106.911 210.5 106.911 200.353C106.911 190.205 93.4959 181.979 76.9472 181.979C60.3985 181.979 46.9832 190.205 46.9832 200.353C46.9832 210.5 60.3985 218.726 76.9472 218.726Z" fill="#033AA7"/>
<path opacity="0.3725" d="M76.9469 218.235C93.0468 218.235 106.098 210.229 106.098 200.353C106.098 190.477 93.0468 182.471 76.9469 182.471C60.8471 182.471 47.7957 190.477 47.7957 200.353C47.7957 210.229 60.8471 218.235 76.9469 218.235Z" fill="#033AA7"/>
<path opacity="0.3824" d="M76.9472 217.722C92.5982 217.722 105.286 209.946 105.286 200.353C105.286 190.76 92.5982 182.983 76.9472 182.983C61.2963 182.983 48.6086 190.76 48.6086 200.353C48.6086 209.946 61.2963 217.722 76.9472 217.722Z" fill="#033AA7"/>
<path opacity="0.3922" d="M76.9472 217.231C92.1494 217.231 104.473 209.674 104.473 200.353C104.473 191.031 92.1494 183.475 76.9472 183.475C61.7451 183.475 49.4214 191.031 49.4214 200.353C49.4214 209.674 61.7451 217.231 76.9472 217.231Z" fill="#033AA7"/>
<path opacity="0.402" d="M76.947 216.739C91.7003 216.739 103.66 209.403 103.66 200.353C103.66 191.303 91.7003 183.966 76.947 183.966C62.1937 183.966 50.2339 191.303 50.2339 200.353C50.2339 209.403 62.1937 216.739 76.947 216.739Z" fill="#033AA7"/>
<path opacity="0.4118" d="M76.9473 216.227C91.2517 216.227 102.848 209.12 102.848 200.353C102.848 191.586 91.2517 184.479 76.9473 184.479C62.6429 184.479 51.0469 191.586 51.0469 200.353C51.0469 209.12 62.6429 216.227 76.9473 216.227Z" fill="#033AA7"/>
<path opacity="0.4216" d="M76.947 215.735C90.8026 215.735 102.035 208.848 102.035 200.353C102.035 191.857 90.8026 184.97 76.947 184.97C63.0915 184.97 51.8594 191.857 51.8594 200.353C51.8594 208.848 63.0915 215.735 76.947 215.735Z" fill="#033AA7"/>
<path opacity="0.4314" d="M76.9473 215.223C90.354 215.223 101.222 208.565 101.222 200.353C101.222 192.141 90.354 185.483 76.9473 185.483C63.5406 185.483 52.6724 192.141 52.6724 200.353C52.6724 208.565 63.5406 215.223 76.9473 215.223Z" fill="#033AA7"/>
<path opacity="0.4412" d="M76.9469 214.731C89.8929 214.731 100.388 208.294 100.388 200.353C100.388 192.412 89.8929 185.975 76.9469 185.975C64.0009 185.975 53.5061 192.412 53.5061 200.353C53.5061 208.294 64.0009 214.731 76.9469 214.731Z" fill="#033AA7"/>
<path opacity="0.451" d="M76.9472 214.24C89.4443 214.24 99.5753 208.022 99.5753 200.353C99.5753 192.683 89.4443 186.466 76.9472 186.466C64.45 186.466 54.3191 192.683 54.3191 200.353C54.3191 208.022 64.45 214.24 76.9472 214.24Z" fill="#033AA7"/>
<path opacity="0.4608" d="M76.9472 213.727C88.9955 213.727 98.7626 207.739 98.7626 200.353C98.7626 192.966 88.9955 186.979 76.9472 186.979C64.8989 186.979 55.1318 192.966 55.1318 200.353C55.1318 207.739 64.8989 213.727 76.9472 213.727Z" fill="#033AA7"/>
<path opacity="0.4706" d="M76.9475 213.236C88.5469 213.236 97.9501 207.468 97.9501 200.353C97.9501 193.238 88.5469 187.47 76.9475 187.47C65.348 187.47 55.9448 193.238 55.9448 200.353C55.9448 207.468 65.348 213.236 76.9475 213.236Z" fill="#033AA7"/>
<path opacity="0.4804" d="M76.9472 212.744C88.0978 212.744 97.1372 207.196 97.1372 200.353C97.1372 193.509 88.0978 187.961 76.9472 187.961C65.7966 187.961 56.7573 193.509 56.7573 200.353C56.7573 207.196 65.7966 212.744 76.9472 212.744Z" fill="#033AA7"/>
<path opacity="0.4902" d="M76.9472 212.232C87.649 212.232 96.3244 206.913 96.3244 200.353C96.3244 193.792 87.649 188.474 76.9472 188.474C66.2455 188.474 57.5701 193.792 57.5701 200.353C57.5701 206.913 66.2455 212.232 76.9472 212.232Z" fill="#033AA7"/>
<path opacity="0.5" d="M76.9472 211.74C87.2001 211.74 95.5117 206.642 95.5117 200.353C95.5117 194.064 87.2001 188.966 76.9472 188.966C66.6944 188.966 58.3828 194.064 58.3828 200.353C58.3828 206.642 66.6944 211.74 76.9472 211.74Z" fill="#033AA7"/>
<path d="M130.694 -0.00387573C121.091 3.24354 110.611 5.72183 99.8748 7.11053C88.0475 8.64878 77.3323 8.67013 68.3495 7.45236C67.4084 7.32417 66.339 7.60191 65.291 8.20011L82.0589 17.9423C83.1283 17.3228 84.1763 17.045 85.1174 17.1946C94.1002 18.4124 104.815 18.391 116.643 16.8528C127.379 15.4641 137.859 12.9644 147.462 9.73835L130.694 -0.00387573Z" fill="url(#paint0_linear_135_949)"/>
<path d="M17.9601 127.607C17.0832 115.578 16.8479 103.443 16.8052 92.3764L16.7838 85.0911L0.0158691 75.3489L0.0372777 82.6342C0.0586653 93.701 0.315296 105.836 1.19219 117.864C3.45928 149.035 15.8427 171.853 35.3055 183.154L52.0734 192.897C32.5893 181.573 20.2272 158.777 17.9601 127.607Z" fill="url(#paint1_linear_135_949)"/>
<path d="M65.2695 8.22147C64.2002 8.84104 63.1522 9.78108 62.2111 10.9989C53.2711 22.5571 42.5773 34.8631 30.7713 46.9554C20.0561 57.9368 9.59753 67.5294 0.0158691 75.3489L16.7838 85.0911C26.3868 77.2503 36.824 67.6576 47.5392 56.6976C59.3451 44.6053 70.0176 32.2993 78.979 20.7411C79.92 19.5233 80.9894 18.5833 82.0374 17.9637L65.2695 8.22147Z" fill="url(#paint2_linear_135_949)"/>
<path d="M147.484 17.0023L147.462 9.717C137.859 12.9644 127.379 15.4427 116.643 16.8314C104.815 18.3696 94.1002 18.391 85.1174 17.1732C84.1763 17.045 83.1069 17.3228 82.0589 17.921C80.9895 18.5406 79.9415 19.4806 79.0005 20.6984C70.0605 32.2566 59.3667 44.5626 47.5821 56.6549C36.8669 67.6363 26.4083 77.2289 16.8267 85.0484L16.848 92.3337C16.8694 103.401 17.1261 115.536 18.003 127.564C21.2967 172.835 45.9138 200.46 82.615 200.844C119.188 158.201 143.57 102.332 146.585 53.4075C147.334 40.4392 147.526 28.0691 147.484 17.0023Z" fill="url(#paint3_linear_135_949)"/>
<path d="M147.462 9.717C137.859 12.9644 127.379 15.4427 116.643 16.8314C104.815 18.3696 94.1002 18.391 85.1174 17.1732C84.1763 17.045 83.1069 17.3228 82.0589 17.921C80.9895 18.5406 79.9415 19.4806 79.0005 20.6984C70.0604 32.2566 59.3667 44.5626 47.5821 56.6549C36.8669 67.6363 26.4083 77.2289 16.8267 85.0484L16.848 92.3337C16.8694 103.401 17.1261 115.536 18.003 127.564C20.3984 160.657 34.2148 184.287 55.7735 194.777C35.0917 183.923 21.8741 160.636 19.5429 128.333C18.666 116.305 18.4307 104.17 18.388 93.1028L18.3666 85.8175C27.9696 77.9767 38.4068 68.384 49.122 57.424C60.9279 45.3317 71.6004 33.0257 80.5618 21.4675C81.5028 20.2497 82.5722 19.3097 83.6202 18.6901C84.6896 18.0705 85.7376 17.7928 86.6786 17.9423C95.6614 19.1601 106.377 19.1388 118.204 17.6005C128.385 16.2759 138.308 13.9685 147.505 10.9775L147.462 9.717Z" fill="white"/>
<path d="M136.982 22.5998C136.897 32.8762 136.619 41.9561 136.063 50.7369C133.261 96.1152 110.718 148.992 76.9257 189.713C70.7233 189.243 64.9914 187.812 59.7515 185.526C66.1036 189.115 73.3112 191.273 81.2674 191.892C115.038 151.15 137.602 98.273 140.404 52.9161C141.003 43.238 141.302 33.1753 141.345 21.5529C139.891 21.9161 138.437 22.258 136.982 22.5998Z" fill="url(#paint4_linear_135_949)"/>
<path d="M120.471 25.5909C109.114 27.065 98.1635 27.2573 88.6032 26.1891C79.2141 38.3027 68.1353 50.9933 56.5646 62.8506C47.0043 72.657 37.5082 81.5019 28.3115 89.2358V92.3551C28.3543 105.964 28.6965 116.967 29.4237 126.987C31.4769 155.338 42.3846 175.741 59.7513 185.547C64.9913 187.833 70.7232 189.265 76.9256 189.735C110.697 148.992 133.261 96.1152 136.062 50.7583C136.597 41.9988 136.897 32.8975 136.982 22.6212C131.528 23.8603 126.01 24.8645 120.471 25.5909Z" fill="url(#paint5_linear_135_949)"/>
<path d="M120.471 25.5909C109.114 27.065 98.1639 27.2573 88.625 26.1891C92.6887 113.506 76.9688 189.735 76.9688 189.735C110.74 148.992 133.304 96.1152 136.106 50.7583C136.64 41.9988 136.94 32.8975 137.025 22.6212C131.529 23.8603 126.011 24.8645 120.471 25.5909Z" fill="url(#paint6_linear_135_949)"/>
<path d="M87.0211 80.2627C74.9799 87.2062 65.2271 104.063 65.2699 117.886C65.3127 131.709 75.1082 137.285 87.1708 130.341C99.2121 123.398 108.965 106.541 108.922 92.7183C108.879 78.8954 99.0624 73.2979 87.0211 80.2627Z" fill="url(#paint7_linear_135_949)"/>
<path d="M87.8122 92.1628C83.3635 94.4915 79.5993 100.41 79.4068 105.387C79.2785 108.72 80.7757 110.771 83.1283 111.092L82.7005 122.095C82.6578 123.227 83.4491 123.718 84.4543 123.184L88.8388 120.898C89.8654 120.364 90.7209 119.018 90.7637 117.886L91.1914 106.883C93.651 104.063 95.3834 100.324 95.5117 96.9912C95.7042 91.9919 92.2608 89.8341 87.8122 92.1628Z" fill="url(#paint8_linear_135_949)"/>
<path d="M88.6032 26.1677C79.2141 38.2814 68.1353 50.9719 56.5646 62.8292C47.0043 72.6356 37.5082 81.4805 28.3115 89.2145V92.3337C28.3543 105.943 28.6965 116.946 29.4237 126.966C31.4769 155.081 42.2135 175.399 59.3663 185.291C46.8974 174.993 39.1123 157.666 37.444 134.828C36.7596 125.427 36.4174 115.087 36.3961 102.29V99.3626C45.0367 92.0987 53.9553 83.7879 62.9381 74.5797C72.2631 65.0084 81.2459 54.903 89.1807 45.0112C89.0952 38.7942 88.9026 32.513 88.6032 26.1677Z" fill="url(#paint9_linear_135_949)"/>
<path d="M120.471 25.5909C109.114 27.065 98.1639 27.2573 88.625 26.1891C88.9244 32.5343 89.1169 38.8155 89.2025 45.0112C90.5071 43.3662 91.8118 41.7425 93.0736 40.1188C102.035 41.1443 112.344 40.952 123.016 39.5633C127.615 38.9651 132.192 38.1532 136.726 37.1491C136.875 32.513 136.961 27.706 137.004 22.5998C131.529 23.8603 126.011 24.8645 120.471 25.5909Z" fill="url(#paint10_linear_135_949)"/>
<defs>
<linearGradient id="paint0_linear_135_949" x1="69.4498" y1="8.52618" x2="305.303" y2="11.3437" gradientUnits="userSpaceOnUse">
<stop stop-color="white"/>
<stop offset="1" stop-color="#B8E3FF"/>
</linearGradient>
<linearGradient id="paint1_linear_135_949" x1="47.0281" y1="193.538" x2="-11.0764" y2="65.7339" gradientUnits="userSpaceOnUse">
<stop stop-color="#0774FF"/>
<stop offset="1" stop-color="#B8E3FF"/>
</linearGradient>
<linearGradient id="paint2_linear_135_949" x1="543.928" y1="97.3921" x2="503.347" y2="93.2886" gradientUnits="userSpaceOnUse">
<stop stop-color="white"/>
<stop offset="1" stop-color="#B8E3FF"/>
</linearGradient>
<linearGradient id="paint3_linear_135_949" x1="248.192" y1="99.7253" x2="169.898" y2="103.008" gradientUnits="userSpaceOnUse">
<stop stop-color="#0774FF"/>
<stop offset="1" stop-color="#B8E3FF"/>
</linearGradient>
<linearGradient id="paint4_linear_135_949" x1="-37.1332" y1="139.089" x2="409.635" y2="41.4331" gradientUnits="userSpaceOnUse">
<stop stop-color="#0774FF"/>
<stop offset="1" stop-color="#B8E3FF"/>
</linearGradient>
<linearGradient id="paint5_linear_135_949" x1="28.3127" y1="106.154" x2="136.979" y2="106.154" gradientUnits="userSpaceOnUse">
<stop stop-color="#0774FF"/>
<stop offset="0.9896" stop-color="#8ADCF9"/>
</linearGradient>
<linearGradient id="paint6_linear_135_949" x1="-78.3996" y1="119.291" x2="143.754" y2="103.513" gradientUnits="userSpaceOnUse">
<stop stop-color="white"/>
<stop offset="1" stop-color="white"/>
</linearGradient>
<linearGradient id="paint7_linear_135_949" x1="-98.3873" y1="136.048" x2="96.723" y2="103.631" gradientUnits="userSpaceOnUse">
<stop stop-color="white"/>
<stop offset="1" stop-color="#B8E3FF"/>
</linearGradient>
<linearGradient id="paint8_linear_135_949" x1="63.2409" y1="106.738" x2="323.54" y2="112.893" gradientUnits="userSpaceOnUse">
<stop stop-color="#0774FF"/>
<stop offset="1" stop-color="#033AA7"/>
</linearGradient>
<linearGradient id="paint9_linear_135_949" x1="293.407" y1="135.169" x2="320.871" y2="138.863" gradientUnits="userSpaceOnUse">
<stop stop-color="#0774FF"/>
<stop offset="0.9896" stop-color="#8ADCF9"/>
</linearGradient>
<linearGradient id="paint10_linear_135_949" x1="-158.134" y1="58.7813" x2="312.855" y2="14.463" gradientUnits="userSpaceOnUse">
<stop stop-color="#0774FF"/>
<stop offset="0.9896" stop-color="#8ADCF9"/>
</linearGradient>
</defs>
</svg>
