<svg width="198" height="186" viewBox="0 0 198 186" fill="none" xmlns="http://www.w3.org/2000/svg">
<path opacity="0.019608" d="M176.388 144.524L88.0144 93.5477C84.5924 91.5822 79.053 91.5822 75.6523 93.5477L21.67 124.89C18.2693 126.855 18.2907 130.06 21.7127 132.047L110.086 183.022C113.508 184.988 119.048 184.988 122.448 183.022L176.431 151.681C179.831 149.694 179.81 146.489 176.388 144.524Z" fill="#033AA7"/>
<path opacity="0.039216" d="M175.511 144.438L88.1858 94.0605C84.8065 92.1163 79.3313 92.1163 75.9734 94.0605L22.6113 125.039C19.2534 126.983 19.2748 130.145 22.6541 132.111L109.98 182.488C113.359 184.433 118.834 184.433 122.192 182.488L175.554 151.51C178.912 149.544 178.891 146.382 175.511 144.438Z" fill="#033AA7"/>
<path opacity="0.058824" d="M174.656 144.353L88.3567 94.5732C85.0202 92.6504 79.6092 92.6504 76.2941 94.5732L23.5736 125.189C20.2585 127.111 20.2799 130.252 23.6164 132.175L109.915 181.954C113.252 183.877 118.663 183.877 121.978 181.954L174.699 151.36C178.014 149.395 177.992 146.275 174.656 144.353Z" fill="#033AA7"/>
<path opacity="0.078431" d="M173.778 144.267L88.5274 95.086C85.2337 93.1846 79.8868 93.1846 76.6145 95.086L24.5356 125.317C21.2633 127.218 21.2847 130.316 24.5784 132.218L109.829 181.399C113.123 183.3 118.47 183.3 121.742 181.399L173.821 151.168C177.094 149.245 177.072 146.169 173.778 144.267Z" fill="#033AA7"/>
<path opacity="0.098039" d="M172.902 144.182L88.6772 95.5987C85.4263 93.7187 80.1436 93.7187 76.914 95.5987L25.4554 125.466C22.2045 127.346 22.2259 130.402 25.4982 132.282L109.723 180.865C112.995 182.745 118.256 182.745 121.486 180.865L172.944 150.997C176.195 149.117 176.174 146.062 172.902 144.182Z" fill="#033AA7"/>
<path opacity="0.1176" d="M172.047 144.096L88.8703 96.1115C85.6408 94.2528 80.4436 94.2528 77.2354 96.1115L26.4184 125.616C23.2103 127.475 23.2317 130.487 26.4612 132.346L109.638 180.331C112.867 182.189 118.064 182.189 121.273 180.331L172.09 150.826C175.276 148.967 175.255 145.955 172.047 144.096Z" fill="#033AA7"/>
<path opacity="0.1373" d="M171.17 144.011L89.0198 96.6242C85.833 94.7869 80.7 94.7869 77.5346 96.6242L27.3593 125.765C24.1939 127.603 24.2153 130.572 27.402 132.41L109.552 179.796C112.739 181.634 117.872 181.634 121.037 179.796L171.212 150.655C174.378 148.818 174.356 145.848 171.17 144.011Z" fill="#033AA7"/>
<path opacity="0.1569" d="M170.314 143.925L89.2119 97.137C86.0679 95.321 80.999 95.321 77.8764 97.137L28.3213 125.894C25.1987 127.71 25.2201 130.637 28.3641 132.453L109.466 179.241C112.61 181.057 117.679 181.057 120.801 179.241L170.357 150.484C173.458 148.668 173.458 145.741 170.314 143.925Z" fill="#033AA7"/>
<path opacity="0.1765" d="M169.437 143.84L89.3619 97.6497C86.2607 95.8551 81.2559 95.8551 78.1761 97.6497L29.2626 126.043C26.1828 127.838 26.2042 130.722 29.3054 132.517L109.381 178.707C112.482 180.501 117.487 180.501 120.566 178.707L169.48 150.313C172.56 148.519 172.538 145.635 169.437 143.84Z" fill="#033AA7"/>
<path opacity="0.1961" d="M168.56 143.754L89.5329 98.1625C86.4744 96.3892 81.5339 96.3892 78.4755 98.1625L30.1822 126.193C27.1452 127.966 27.1666 130.829 30.225 132.581L109.274 178.173C112.332 179.946 117.273 179.946 120.331 178.173L168.624 150.142C171.64 148.391 171.64 145.528 168.56 143.754Z" fill="#033AA7"/>
<path opacity="0.2157" d="M167.705 143.669L89.7043 98.6966C86.6887 96.9661 81.8123 96.9447 78.7966 98.6966L31.145 126.364C28.1507 128.116 28.1721 130.936 31.1878 132.666L109.188 177.639C112.204 179.39 117.08 179.39 120.096 177.639L167.748 149.972C170.742 148.241 170.721 145.421 167.705 143.669Z" fill="#033AA7"/>
<path opacity="0.2353" d="M166.828 143.584L89.8752 99.188C86.9023 97.4788 82.0687 97.4788 79.1172 99.188L32.1072 126.492C29.1557 128.201 29.1557 131 32.15 132.709L109.103 177.104C112.076 178.814 116.909 178.814 119.861 177.104L166.871 149.801C169.822 148.091 169.822 145.314 166.828 143.584Z" fill="#033AA7"/>
<path opacity="0.2549" d="M165.972 143.498L90.0461 99.7007C87.116 98.0129 82.3465 98.0129 79.4378 99.7007L33.0481 126.62C30.1179 128.308 30.1393 131.064 33.0908 132.752L109.017 176.549C111.947 178.237 116.716 178.237 119.625 176.549L166.015 149.63C168.924 147.942 168.902 145.207 165.972 143.498Z" fill="#033AA7"/>
<path opacity="0.2745" d="M165.096 143.413L90.2175 100.213C87.3302 98.547 82.6249 98.547 79.759 100.213L34.0108 126.77C31.1235 128.436 31.1449 131.149 34.0536 132.816L108.91 176.036C111.819 177.703 116.503 177.703 119.369 176.036L165.117 149.48C168.004 147.792 168.004 145.079 165.096 143.413Z" fill="#033AA7"/>
<path opacity="0.2941" d="M164.218 143.327L90.3669 100.726C87.501 99.0812 82.8812 99.0812 80.0367 100.726L34.9302 126.919C32.0856 128.564 32.107 131.235 34.9729 132.901L108.824 175.502C111.69 177.147 116.31 177.147 119.155 175.502L164.261 149.309C167.106 147.664 167.084 144.972 164.218 143.327Z" fill="#033AA7"/>
<path opacity="0.3137" d="M163.363 143.242L90.538 101.26C87.7149 99.6366 83.1593 99.6366 80.3575 101.26L35.8712 127.09C33.0695 128.714 33.0909 131.363 35.914 132.987L108.739 174.968C111.562 176.592 116.118 176.592 118.919 174.968L163.406 149.138C166.186 147.515 166.186 144.865 163.363 143.242Z" fill="#033AA7"/>
<path opacity="0.3333" d="M162.487 143.156L90.7097 101.752C87.9293 100.149 83.4379 100.149 80.6789 101.752L36.8343 127.197C34.0753 128.799 34.0967 131.406 36.8771 133.008L108.654 174.413C111.434 176.015 115.926 176.015 118.685 174.413L162.529 148.967C165.288 147.365 165.267 144.759 162.487 143.156Z" fill="#033AA7"/>
<path opacity="0.3529" d="M161.631 143.071L90.9018 102.264C88.1642 100.684 83.737 100.684 81.0207 102.264L37.7963 127.346C35.0801 128.927 35.1015 131.491 37.8391 133.072L108.568 173.878C111.306 175.459 115.733 175.459 118.449 173.878L161.673 148.796C164.368 147.215 164.368 144.652 161.631 143.071Z" fill="#033AA7"/>
<path opacity="0.3725" d="M160.754 142.985L91.0518 102.777C88.357 101.218 83.9939 101.218 81.299 102.777L38.7163 127.496C36.0428 129.056 36.0428 131.577 38.7377 133.136L108.44 173.344C111.135 174.904 115.498 174.904 118.193 173.344L160.775 148.626C163.47 147.066 163.449 144.545 160.754 142.985Z" fill="#033AA7"/>
<path opacity="0.3922" d="M159.877 142.9L91.2228 103.29C88.5707 101.752 84.2718 101.752 81.6197 103.29L39.6786 127.646C37.0265 129.184 37.0479 131.662 39.7 133.2L108.354 172.81C111.006 174.348 115.305 174.348 117.957 172.81L159.898 148.455C162.55 146.938 162.55 144.438 159.877 142.9Z" fill="#033AA7"/>
<path opacity="0.4118" d="M159.022 142.814L91.3939 103.824C88.7846 102.307 84.5498 102.307 81.9405 103.824L40.6196 127.816C38.0104 129.333 38.0317 131.769 40.641 133.286L108.269 172.297C110.878 173.814 115.113 173.814 117.722 172.297L159.043 148.305C161.652 146.788 161.631 144.331 159.022 142.814Z" fill="#033AA7"/>
<path opacity="0.4314" d="M158.145 142.729L91.5648 104.315C88.9983 102.82 84.8277 102.82 82.2612 104.315L41.582 127.923C39.0154 129.419 39.0368 131.833 41.6033 133.307L108.183 171.721C110.771 173.216 114.92 173.216 117.487 171.721L158.166 148.113C160.732 146.639 160.732 144.224 158.145 142.729Z" fill="#033AA7"/>
<path opacity="0.451" d="M157.289 142.643L91.7358 104.828C89.1907 103.375 85.1056 103.354 82.5819 104.828L42.5443 128.073C40.0205 129.547 40.0419 131.918 42.5656 133.371L108.119 171.186C110.664 172.661 114.749 172.661 117.273 171.186L157.31 147.963C159.834 146.489 159.813 144.118 157.289 142.643Z" fill="#033AA7"/>
<path opacity="0.4706" d="M156.412 142.579L91.9073 105.362C89.4049 103.931 85.3627 103.931 82.8817 105.362L43.4643 128.244C40.9833 129.675 41.0048 132.025 43.4857 133.457L107.991 170.674C110.493 172.105 114.535 172.105 117.016 170.674L156.434 147.792C158.915 146.34 158.915 144.011 156.412 142.579Z" fill="#033AA7"/>
<path opacity="0.4902" d="M155.535 142.494L92.0568 105.875C89.5972 104.465 85.6191 104.465 83.1809 105.875L44.4051 128.393C41.967 129.803 41.9883 132.111 44.4265 133.521L107.905 170.14C110.365 171.55 114.343 171.55 116.781 170.14L155.578 147.621C158.016 146.19 157.995 143.904 155.535 142.494Z" fill="#033AA7"/>
<path opacity="0.5098" d="M154.68 142.408L92.2278 106.388C89.811 104.999 85.8971 104.999 83.5017 106.388L45.3461 128.521C42.9507 129.91 42.9507 132.175 45.3675 133.564L107.798 169.584C110.215 170.973 114.129 170.973 116.524 169.584L154.68 147.45C157.096 146.062 157.096 143.797 154.68 142.408Z" fill="#033AA7"/>
<path opacity="0.5294" d="M153.803 142.323L92.399 106.901C90.025 105.533 86.1752 105.533 83.8226 106.901L46.3087 128.671C43.9561 130.038 43.956 132.26 46.3301 133.628L107.734 169.05C110.108 170.417 113.958 170.417 116.31 169.05L153.824 147.28C156.198 145.912 156.177 143.69 153.803 142.323Z" fill="#033AA7"/>
<path opacity="0.549" d="M152.947 142.238L92.5915 107.413C90.2603 106.067 86.4747 106.067 84.1434 107.413L47.2497 128.821C44.9185 130.167 44.9399 132.346 47.2711 133.713L107.627 168.537C109.958 169.883 113.744 169.883 116.075 168.537L152.947 147.13C155.3 145.763 155.279 143.583 152.947 142.238Z" fill="#033AA7"/>
<path opacity="0.5686" d="M152.07 142.152L92.741 107.926C90.4525 106.601 86.7311 106.601 84.4426 107.926L48.1906 128.97C45.9021 130.295 45.9235 132.453 48.2119 133.777L107.541 168.003C109.83 169.328 113.551 169.328 115.84 168.003L152.092 146.959C154.38 145.613 154.359 143.477 152.07 142.152Z" fill="#033AA7"/>
<path opacity="0.5882" d="M151.194 142.067L92.9124 108.439C90.6667 107.136 87.0095 107.136 84.7638 108.439L49.1534 129.12C46.9077 130.423 46.929 132.538 49.1747 133.841L107.477 167.448C109.744 168.751 113.38 168.751 115.626 167.448L151.236 146.767C153.482 145.464 153.461 143.37 151.194 142.067Z" fill="#033AA7"/>
<path opacity="0.6078" d="M150.338 141.981L93.0834 108.952C90.8591 107.67 87.2874 107.67 85.0844 108.952L50.1157 129.248C47.9127 130.53 47.9341 132.602 50.137 133.884L107.392 166.914C109.616 168.195 113.188 168.195 115.391 166.914L150.359 146.617C152.562 145.335 152.541 143.263 150.338 141.981Z" fill="#033AA7"/>
<path opacity="0.6275" d="M149.461 141.896L93.2544 109.464C91.0729 108.204 87.5653 108.204 85.4052 109.464L51.0566 129.397C48.8965 130.658 48.8965 132.688 51.0781 133.948L107.285 166.379C109.466 167.64 112.974 167.64 115.134 166.379L149.483 146.446C151.664 145.186 151.643 143.156 149.461 141.896Z" fill="#033AA7"/>
<path opacity="0.6471" d="M148.605 141.81L93.4253 109.977C91.2866 108.738 87.8431 108.738 85.7044 109.977L51.9975 129.547C49.8801 130.786 49.8801 132.773 52.0189 134.012L107.199 165.845C109.338 167.085 112.781 167.085 114.92 165.845L148.627 146.275C150.744 145.036 150.744 143.049 148.605 141.81Z" fill="#033AA7"/>
<path opacity="0.6667" d="M147.729 141.725L93.5969 110.49C91.5009 109.272 88.1217 109.272 86.0257 110.49L52.939 129.697C50.8644 130.914 50.8644 132.858 52.9604 134.076L107.092 165.311C109.188 166.529 112.568 166.529 114.664 165.311L147.75 146.105C149.846 144.887 149.825 142.921 147.729 141.725Z" fill="#033AA7"/>
<path opacity="0.6863" d="M146.852 141.639L93.7464 111.003C91.6932 109.828 88.3567 109.806 86.3249 111.003L53.8798 129.846C51.8266 131.043 51.848 132.965 53.9012 134.14L107.007 164.777C109.06 165.974 112.396 165.974 114.428 164.777L146.873 145.934C148.926 144.737 148.926 142.814 146.852 141.639Z" fill="#033AA7"/>
<path opacity="0.7059" d="M145.996 141.554L93.9173 111.515C91.9069 110.362 88.6346 110.362 86.6455 111.515L54.8421 129.974C52.8317 131.128 52.8531 133.029 54.8635 134.183L106.921 164.222C108.931 165.375 112.204 165.375 114.193 164.222L145.996 145.763C148.028 144.609 148.007 142.708 145.996 141.554Z" fill="#033AA7"/>
<path opacity="0.7255" d="M145.119 141.468L94.0886 112.028C92.1209 110.896 88.9128 110.896 86.9451 112.028L55.762 130.124C53.7943 131.256 53.8157 133.115 55.7834 134.247L106.836 163.688C108.803 164.82 112.011 164.82 113.979 163.688L145.162 145.592C147.109 144.459 147.109 142.601 145.119 141.468Z" fill="#033AA7"/>
<path opacity="0.7451" d="M144.264 141.383L94.281 112.541C92.3562 111.43 89.2122 111.43 87.2873 112.541L56.7458 130.273C54.8209 131.384 54.8423 133.2 56.7671 134.311L106.75 163.153C108.696 164.264 111.819 164.264 113.744 163.153L144.285 145.421C146.21 144.31 146.189 142.494 144.264 141.383Z" fill="#033AA7"/>
<path opacity="0.7647" d="M143.387 141.298L94.4309 113.054C92.5274 111.964 89.469 111.964 87.5869 113.054L57.687 130.423C55.8049 131.513 55.8049 133.286 57.7084 134.375L106.665 162.619C108.568 163.709 111.627 163.709 113.509 162.619L143.409 145.25C145.291 144.16 145.291 142.387 143.387 141.298Z" fill="#033AA7"/>
<path opacity="0.7843" d="M142.51 141.212L94.6016 113.566C92.7409 112.498 89.7466 112.498 87.9072 113.566L58.6276 130.551C56.7882 131.619 56.7882 133.35 58.649 134.418L106.557 162.064C108.418 163.132 111.412 163.132 113.252 162.064L142.531 145.079C144.392 144.011 144.371 142.28 142.51 141.212Z" fill="#033AA7"/>
<path opacity="0.8039" d="M141.655 141.127L94.7732 114.079C92.9552 113.032 90.0251 113.032 88.2285 114.079L59.5691 130.722C57.7726 131.769 57.7726 133.478 59.5905 134.504L106.472 161.551C108.29 162.598 111.22 162.598 113.017 161.551L141.655 144.929C143.473 143.883 143.473 142.173 141.655 141.127Z" fill="#033AA7"/>
<path opacity="0.8235" d="M140.778 141.041L94.944 114.592C93.1688 113.566 90.3029 113.566 88.5277 114.592L60.5099 130.85C58.7562 131.876 58.7562 133.542 60.5313 134.568L106.365 161.017C108.14 162.042 111.006 162.042 112.781 161.017L140.799 144.759C142.574 143.733 142.553 142.067 140.778 141.041Z" fill="#033AA7"/>
<path opacity="0.8431" d="M139.922 140.956L95.1152 115.105C93.3828 114.1 90.5811 114.1 88.8487 115.105L61.4725 131C59.7401 132.004 59.7615 133.628 61.4939 134.632L106.301 160.483C108.033 161.487 110.835 161.487 112.568 160.483L139.944 144.588C141.655 143.584 141.655 141.96 139.922 140.956Z" fill="#033AA7"/>
<path opacity="0.8627" d="M139.045 140.87L95.2647 115.617C93.5751 114.635 90.8375 114.635 89.1478 115.617L62.4133 131.149C60.7237 132.132 60.7451 133.713 62.4347 134.696L106.215 159.949C107.905 160.932 110.642 160.932 112.332 159.949L139.067 144.417C140.756 143.434 140.735 141.853 139.045 140.87Z" fill="#033AA7"/>
<path opacity="0.8824" d="M138.169 140.785L95.436 116.13C93.7892 115.169 91.1158 115.169 89.4689 116.13L63.3546 131.278C61.7078 132.239 61.7292 133.777 63.376 134.739L106.108 159.393C107.755 160.355 110.429 160.355 112.076 159.393L138.19 144.246C139.837 143.284 139.837 141.746 138.169 140.785Z" fill="#033AA7"/>
<path opacity="0.902" d="M137.313 140.699L95.6071 116.643C94.003 115.703 91.3937 115.703 89.7683 116.643L64.2956 131.427C62.6915 132.367 62.6915 133.863 64.317 134.803L106.023 158.859C107.648 159.799 110.236 159.799 111.862 158.859L137.334 144.075C138.938 143.156 138.917 141.639 137.313 140.699Z" fill="#033AA7"/>
<path opacity="0.9216" d="M136.436 140.614L95.7783 117.156C94.1956 116.258 91.6505 116.237 90.0892 117.156L65.2582 131.598C63.6969 132.517 63.6969 133.969 65.2795 134.888L105.937 158.346C107.52 159.265 110.065 159.265 111.627 158.346L136.458 143.925C138.019 143.007 138.019 141.533 136.436 140.614Z" fill="#033AA7"/>
<path opacity="0.9412" d="M135.581 140.528L95.9494 117.668C94.4095 116.792 91.9285 116.792 90.41 117.668L66.1992 131.726C64.6807 132.602 64.6807 134.055 66.2206 134.931L105.852 157.791C107.392 158.667 109.873 158.667 111.391 157.791L135.602 143.733C137.121 142.857 137.099 141.426 135.581 140.528Z" fill="#033AA7"/>
<path opacity="0.9608" d="M134.704 140.443L96.1206 118.181C94.6235 117.326 92.2067 117.326 90.7309 118.181L67.1618 131.854C65.686 132.709 65.686 134.119 67.1832 134.974L105.766 157.257C107.264 158.111 109.68 158.111 111.156 157.257L134.725 143.584C136.201 142.708 136.201 141.319 134.704 140.443Z" fill="#033AA7"/>
<path opacity="0.9804" d="M133.827 140.357L96.2701 118.694C94.8157 117.861 92.4631 117.861 91.0301 118.694L68.1026 132.025C66.6482 132.859 66.6696 134.226 68.124 135.059L105.681 156.723C107.135 157.556 109.488 157.556 110.921 156.723L133.848 143.413C135.303 142.558 135.281 141.212 133.827 140.357Z" fill="#033AA7"/>
<path d="M132.971 140.272L96.4626 119.207C95.051 118.395 92.7625 118.395 91.3509 119.207L69.0437 132.153C67.6321 132.965 67.6535 134.29 69.065 135.102L105.574 156.167C106.985 156.979 109.274 156.979 110.685 156.167L132.993 143.22C134.383 142.408 134.383 141.105 132.971 140.272Z" fill="#033AA7"/>
<path d="M55.9758 21.3142C48.8751 17.2122 42.4374 16.849 37.7963 19.541L8.26001 36.6967C12.9011 34.0048 19.3388 34.3893 26.4395 38.47C26.6106 38.5768 26.8031 38.6836 26.9742 38.7904L56.5105 21.6347C56.3394 21.5279 56.1683 21.4211 55.9758 21.3142Z" fill="url(#paint0_linear_1234_1360)"/>
<path d="M78.326 3.04754C72.145 -0.520338 66.5415 -0.840806 62.4992 1.48793L32.9629 18.6437C37.0052 16.2936 42.6087 16.6354 48.7897 20.2033C54.265 23.3652 59.2697 28.5354 63.1408 34.5389L92.6772 17.3831C88.806 11.3797 83.8013 6.20949 78.326 3.04754Z" fill="url(#paint1_linear_1234_1360)"/>
<path d="M126.705 12.8966C116.161 6.8077 106.601 6.25222 99.714 10.2474L70.1777 27.4031C77.0859 23.4079 86.6248 23.9634 97.1689 30.0523C115.626 40.6919 130.961 64.7056 134.319 86.7111L163.856 69.5554C160.498 47.5499 145.163 23.5361 126.705 12.8966Z" fill="url(#paint2_linear_1234_1360)"/>
<path d="M166.058 70.7518C165.309 70.3245 164.582 69.9186 163.834 69.5554L134.297 86.7111C135.025 87.0743 135.773 87.4802 136.522 87.9075C153.995 97.9916 168.111 122.411 168.068 142.473C168.047 152.428 164.518 159.457 158.829 162.748L188.365 145.592C194.054 142.302 197.562 135.273 197.605 125.317C197.648 105.256 183.532 80.8359 166.058 70.7518Z" fill="url(#paint3_linear_1234_1360)"/>
<path d="M136.522 87.9075C135.773 87.4802 135.046 87.0743 134.298 86.7111C130.961 64.7056 115.605 40.6919 97.1474 30.0523C82.283 21.4851 69.4076 23.8566 63.141 34.5389C59.2699 28.5354 54.2652 23.3652 48.7899 20.2033C36.4921 13.1102 26.504 18.7932 26.4612 32.9152C26.4612 34.838 26.6324 36.8035 26.9746 38.7904C26.8035 38.6836 26.611 38.5768 26.4399 38.47C12.3454 30.3301 0.860278 36.8676 0.817503 53.0406C0.774728 69.2349 12.1743 88.933 26.2688 97.0729L136.308 160.526C153.782 170.61 168.005 162.512 168.047 142.451C168.111 122.411 153.996 97.9702 136.522 87.9075Z" fill="url(#paint4_linear_1234_1360)"/>
<defs>
<linearGradient id="paint0_linear_1234_1360" x1="-8.61713" y1="-29.1866" x2="2.52096" y2="-13.3062" gradientUnits="userSpaceOnUse">
<stop stop-color="#FFE4C0"/>
<stop offset="1" stop-color="#FBB03B"/>
</linearGradient>
<linearGradient id="paint1_linear_1234_1360" x1="39.3435" y1="-11.1857" x2="66.6862" y2="22.6071" gradientUnits="userSpaceOnUse">
<stop stop-color="#FFE4C0"/>
<stop offset="1" stop-color="#FBB03B"/>
</linearGradient>
<linearGradient id="paint2_linear_1234_1360" x1="72.3861" y1="-16.6015" x2="118.293" y2="41.8583" gradientUnits="userSpaceOnUse">
<stop stop-color="#FFE4C0"/>
<stop offset="1" stop-color="#FBB03B"/>
</linearGradient>
<linearGradient id="paint3_linear_1234_1360" x1="136.749" y1="38.9926" x2="169.812" y2="118.701" gradientUnits="userSpaceOnUse">
<stop stop-color="#FFE4C0"/>
<stop offset="1" stop-color="#FBB03B"/>
</linearGradient>
<linearGradient id="paint4_linear_1234_1360" x1="52.687" y1="-56.0284" x2="133.64" y2="335.668" gradientUnits="userSpaceOnUse">
<stop stop-color="white"/>
<stop offset="1" stop-color="#FBB03B"/>
</linearGradient>
</defs>
</svg>
