<svg width="69" height="77" viewBox="0 0 69 77" fill="none" xmlns="http://www.w3.org/2000/svg">
<g opacity="0.019608">
<path d="M66.5714 54.8031C68.6888 56.0208 68.6888 57.9864 66.5928 59.2041L38.5322 75.5053C36.4362 76.723 33.0356 76.723 30.9182 75.5053L2.66518 59.2041C0.547803 57.9864 0.547803 56.0208 2.64379 54.8031L30.7044 38.5019C32.8003 37.2841 36.201 37.2841 38.3183 38.5019L66.5714 54.8031Z" fill="#033AA7"/>
</g>
<g opacity="0.039216">
<path d="M66.1432 54.7817C68.2178 55.9781 68.2392 57.9223 66.1646 59.1187L38.4676 75.2062C36.393 76.4026 33.0351 76.4026 30.9605 75.2062L3.07108 59.1187C0.99648 57.9223 0.975092 55.9781 3.04969 54.7603L30.7467 38.6728C32.8213 37.4764 36.1791 37.4764 38.2537 38.6728L66.1432 54.7817Z" fill="#033AA7"/>
</g>
<g opacity="0.058824">
<path d="M65.7371 54.739C67.7903 55.914 67.8117 57.8368 65.7585 59.0332L38.4251 74.9071C36.3933 76.0821 33.0568 76.0821 31.0036 74.9071L3.49913 59.0332C1.44592 57.8582 1.42453 55.9354 3.47774 54.739L30.8111 38.8651C32.843 37.69 36.1794 37.69 38.2326 38.8651L65.7371 54.739Z" fill="#033AA7"/>
</g>
<g opacity="0.078431">
<path d="M65.3092 54.7176C67.341 55.8927 67.341 57.7727 65.3306 58.9478L38.3822 74.5866C36.3717 75.7617 33.0994 75.7617 31.0676 74.5866L3.9267 58.9478C1.89487 57.7727 1.89487 55.8927 3.90531 54.7176L30.8537 39.0788C32.8642 37.9037 36.1365 37.9037 38.1683 39.0788L65.3092 54.7176Z" fill="#033AA7"/>
</g>
<g opacity="0.098039">
<path d="M64.8816 54.6963C66.8706 55.8499 66.892 57.7087 64.9029 58.8623L38.3181 74.2875C36.3291 75.4412 33.0995 75.4412 31.1105 74.2875L4.35457 58.8623C2.36553 57.7087 2.34414 55.8499 4.33319 54.6963L30.918 39.271C32.9071 38.1173 36.1366 38.1173 38.1256 39.271L64.8816 54.6963Z" fill="#033AA7"/>
</g>
<g opacity="0.1176">
<path d="M64.4538 54.6535C66.4214 55.7858 66.4428 57.6232 64.4751 58.7769L38.2539 73.9884C36.2863 75.1208 33.1209 75.1208 31.1532 73.9884L4.7609 58.7769C2.79324 57.6446 2.77185 55.8072 4.73951 54.6535L30.9607 39.442C32.907 38.3097 36.0938 38.3097 38.0828 39.442L64.4538 54.6535Z" fill="#033AA7"/>
</g>
<g opacity="0.1373">
<path d="M64.0472 54.6321C65.9935 55.7431 65.9935 57.5591 64.0686 58.6914L38.2323 73.6893C36.3075 74.8003 33.1635 74.8003 31.2172 73.6893L5.18846 58.6914C3.24219 57.5805 3.24219 55.7645 5.16708 54.6321L31.0033 39.6343C32.9282 38.5233 36.0722 38.5233 38.0185 39.6343L64.0472 54.6321Z" fill="#033AA7"/>
</g>
<g opacity="0.1569">
<path d="M63.6195 54.5894C65.523 55.7004 65.5444 57.4736 63.6409 58.5846L38.1682 73.3688C36.2647 74.4798 33.1635 74.4798 31.26 73.3688L5.61627 58.5846C3.69138 57.4736 3.69139 55.7004 5.59488 54.5894L31.0675 39.8051C32.971 38.6942 36.0723 38.6942 37.9757 39.8051L63.6195 54.5894Z" fill="#033AA7"/>
</g>
<g opacity="0.1765">
<path d="M63.1919 54.568C65.074 55.6576 65.0954 57.4095 63.2133 58.4991L38.1042 73.0698C36.2221 74.1594 33.185 74.1594 31.3029 73.0698L6.04415 58.4991C4.16204 57.4095 4.14065 55.6576 6.02276 54.568L31.1318 39.9974C33.0139 38.9078 36.051 38.9078 37.9331 39.9974L63.1919 54.568Z" fill="#033AA7"/>
</g>
<g opacity="0.1961">
<path d="M62.7642 54.5253C64.6249 55.5935 64.6249 57.3454 62.7856 58.4137L38.0615 72.7706C36.2221 73.8389 33.2065 73.8389 31.3458 72.7706L6.47196 58.4137C4.61123 57.3454 4.61123 55.5935 6.45057 54.5253L31.1747 40.1684C33.014 39.1001 36.0297 39.1001 37.8904 40.1684L62.7642 54.5253Z" fill="#033AA7"/>
</g>
<g opacity="0.2157">
<path d="M62.3576 54.5039C64.197 55.5508 64.197 57.2813 62.379 58.3282L38.0185 72.4715C36.2006 73.5184 33.2491 73.5184 31.4097 72.4715L6.89952 58.3282C5.06018 57.2813 5.06019 55.5508 6.87813 54.5039L31.2386 40.3606C33.0566 39.3137 36.0081 39.3137 37.8474 40.3606L62.3576 54.5039Z" fill="#033AA7"/>
</g>
<g opacity="0.2353">
<path d="M61.9302 54.4826C63.7267 55.5294 63.7481 57.2172 61.9515 58.2427L37.9546 72.1724C36.1581 73.2193 33.2494 73.2193 31.4528 72.1724L7.30616 58.2427C5.5096 57.1959 5.48821 55.5081 7.28477 54.4826L31.2817 40.5529C33.0783 39.506 35.987 39.506 37.7835 40.5529L61.9302 54.4826Z" fill="#033AA7"/>
</g>
<g opacity="0.2549">
<path d="M61.502 54.4398C63.2771 55.4653 63.2771 57.1318 61.5234 58.1359L37.9114 71.852C36.1576 72.8774 33.2703 72.8774 31.4951 71.852L7.73348 58.1573C5.95831 57.1318 5.95831 55.4653 7.71209 54.4398L31.324 40.7238C33.0778 39.6983 35.9651 39.6983 37.7403 40.7238L61.502 54.4398Z" fill="#033AA7"/>
</g>
<g opacity="0.2745">
<path d="M61.0744 54.4185C62.8282 55.4226 62.8282 57.0677 61.0958 58.0718L37.8475 71.5742C36.1151 72.5784 33.2919 72.5784 31.5381 71.5742L8.14005 58.0718C6.38626 57.0677 6.38626 55.4226 8.11866 54.4185L31.367 40.9161C33.0994 39.912 35.9226 39.912 37.6764 40.9161L61.0744 54.4185Z" fill="#033AA7"/>
</g>
<g opacity="0.2941">
<path d="M60.6466 54.3758C62.3577 55.3586 62.379 56.9823 60.668 57.965L37.8047 71.2538C36.0937 72.2366 33.3133 72.2366 31.6023 71.2538L8.58917 57.9864C6.87816 57.0036 6.85677 55.3799 8.56778 54.3972L31.4312 41.1084C33.1422 40.1256 35.9226 40.1256 37.6336 41.1084L60.6466 54.3758Z" fill="#033AA7"/>
</g>
<g opacity="0.3137">
<path d="M60.2403 54.3544C61.93 55.3372 61.93 56.9181 60.2617 57.8796L37.7619 70.9333C36.0723 71.9161 33.3561 71.9161 31.6665 70.9333L9.01698 57.8796C7.32735 56.8968 7.30596 55.3158 8.99559 54.3544L31.4954 41.3007C33.185 40.3179 35.9012 40.3179 37.5908 41.3007L60.2403 54.3544Z" fill="#033AA7"/>
</g>
<g opacity="0.3333">
<path d="M59.8127 54.333C61.4809 55.2944 61.4809 56.854 59.8341 57.8155L37.6979 70.6342C36.051 71.5956 33.3562 71.5956 31.688 70.6342L9.40206 57.7941C7.73382 56.8327 7.73382 55.2731 9.38067 54.3117L31.5169 41.4716C33.1637 40.5102 35.8586 40.5102 37.5268 41.4716L59.8127 54.333Z" fill="#033AA7"/>
</g>
<g opacity="0.3529">
<path d="M59.3849 54.2903C61.0104 55.2303 61.0318 56.7686 59.4063 57.7086L37.6551 70.3351C36.0296 71.2751 33.3776 71.2751 31.7521 70.3351L9.85118 57.7086C8.22572 56.7686 8.20433 55.2303 9.82979 54.2903L31.581 41.6638C33.2065 40.7238 35.8585 40.7238 37.484 41.6638L59.3849 54.2903Z" fill="#033AA7"/>
</g>
<g opacity="0.3725">
<path d="M58.9571 54.269C60.5612 55.1876 60.5826 56.7045 58.9785 57.6232L37.5909 70.036C35.9868 70.9547 33.3989 70.9547 31.7948 70.036L10.2575 57.6232C8.65343 56.7045 8.63204 55.1876 10.2361 54.269L31.6237 41.8561C33.2278 40.9375 35.8157 40.9375 37.4198 41.8561L58.9571 54.269Z" fill="#033AA7"/>
</g>
<g opacity="0.3922">
<path d="M58.5508 54.2262C60.1335 55.1449 60.1335 56.619 58.5722 57.5164L37.5482 69.7155C35.9869 70.6342 33.4204 70.6342 31.8377 69.7155L10.6853 57.5164C9.10262 56.5977 9.10262 55.1235 10.6639 54.2262L31.688 42.0271C33.2493 41.1084 35.8158 41.1084 37.3985 42.0271L58.5508 54.2262Z" fill="#033AA7"/>
</g>
<g opacity="0.4118">
<path d="M58.1231 54.2048C59.6844 55.1021 59.6844 56.5549 58.1445 57.4522L37.5054 69.4378C35.9655 70.3351 33.4632 70.3351 31.9019 69.4378L11.1131 57.4522C9.55182 56.5549 9.55182 55.1021 11.0917 54.2048L31.7308 42.2193C33.2707 41.322 35.773 41.322 37.3343 42.2193L58.1231 54.2048Z" fill="#033AA7"/>
</g>
<g opacity="0.4314">
<path d="M57.695 54.1621C59.2135 55.0381 59.2349 56.4695 57.7164 57.3454L37.4409 69.1173C35.9224 69.9933 33.4628 69.9933 31.9443 69.1173L11.5405 57.3454C10.022 56.4695 10.0006 55.0381 11.5191 54.1621L31.7946 42.3903C33.3131 41.5143 35.7727 41.5143 37.2912 42.3903L57.695 54.1621Z" fill="#033AA7"/>
</g>
<g opacity="0.451">
<path d="M57.2672 54.1407C58.7643 54.9953 58.7643 56.4054 57.2886 57.26L37.3767 68.8182C35.901 69.6728 33.4628 69.6728 31.987 68.8182L11.9468 57.26C10.4497 56.4054 10.4497 54.9953 11.9254 54.1407L31.8373 42.5825C33.3131 41.728 35.7513 41.728 37.227 42.5825L57.2672 54.1407Z" fill="#033AA7"/>
</g>
<g opacity="0.4706">
<path d="M56.8612 54.1194C58.337 54.9739 58.337 56.3413 56.8826 57.1959L37.3557 68.5404C35.9014 69.395 33.5273 69.395 32.0516 68.5404L12.3964 57.1959C10.9206 56.3413 10.9206 54.9739 12.375 54.1194L31.9019 42.7748C33.3562 41.9202 35.7303 41.9202 37.206 42.7748L56.8612 54.1194Z" fill="#033AA7"/>
</g>
<g opacity="0.4902">
<path d="M56.4335 54.0767C57.8665 54.9099 57.8879 56.2558 56.4549 57.0891L37.2916 68.22C35.8586 69.0532 33.5274 69.0532 32.0944 68.22L12.8028 57.0891C11.3698 56.2558 11.3484 54.9099 12.7814 54.0767L31.9447 42.9457C33.3777 42.1125 35.7089 42.1125 37.1419 42.9457L56.4335 54.0767Z" fill="#033AA7"/>
</g>
<g opacity="0.5098">
<path d="M56.0056 54.0553C57.4172 54.8672 57.4172 56.1917 56.027 57.0036L37.2272 67.9209C35.8157 68.7327 33.5486 68.7327 32.137 67.9209L13.2303 57.0036C11.8187 56.1917 11.8187 54.8672 13.2089 54.0553L32.0087 43.138C33.4202 42.3262 35.6873 42.3262 37.0989 43.138L56.0056 54.0553Z" fill="#033AA7"/>
</g>
<g opacity="0.5294">
<path d="M55.5778 54.0125C56.968 54.803 56.968 56.1063 55.5992 56.8968L37.1844 67.579C35.8156 68.3695 33.5699 68.3695 32.1797 67.579L13.6366 56.8968C12.2464 56.1063 12.2464 54.803 13.6153 54.0125L32.03 43.3303C33.3988 42.5398 35.6445 42.5398 37.0347 43.3303L55.5778 54.0125Z" fill="#033AA7"/>
</g>
<g opacity="0.549">
<path d="M55.1716 53.9912C56.5191 54.7817 56.5405 56.0422 55.193 56.8327L37.1419 67.3013C35.7945 68.0918 33.5915 68.0918 32.2441 67.3013L14.086 56.8327C12.7386 56.0422 12.7172 54.7817 14.0646 53.9912L32.1158 43.5226C33.4632 42.7321 35.6661 42.7321 37.0136 43.5226L55.1716 53.9912Z" fill="#033AA7"/>
</g>
<g opacity="0.5686">
<path d="M54.7439 53.9485C56.0699 54.7176 56.0699 55.9567 54.7652 56.7259L37.0777 66.9808C35.7516 67.75 33.6129 67.75 32.2868 66.9808L14.4923 56.7259C13.1663 55.9567 13.1663 54.7176 14.4709 53.9485L32.1585 43.6935C33.4845 42.9244 35.6233 42.9244 36.9493 43.6935L54.7439 53.9485Z" fill="#033AA7"/>
</g>
<g opacity="0.5882">
<path d="M54.316 53.9271C55.6206 54.6748 55.6206 55.8926 54.3374 56.6404L37.0348 66.6817C35.7515 67.4295 33.6342 67.4295 32.3509 66.6817L14.9414 56.6404C13.6367 55.8926 13.6367 54.6748 14.92 53.9271L32.2226 43.8857C33.5058 43.138 35.6232 43.138 36.9279 43.8857L54.316 53.9271Z" fill="#033AA7"/>
</g>
<g opacity="0.6078">
<path d="M53.8884 53.9057C55.1502 54.6321 55.1716 55.8285 53.9097 56.5549L36.9707 66.3826C35.7089 67.109 33.6557 67.109 32.3724 66.3826L15.3265 56.5549C14.0432 55.8285 14.0432 54.6321 15.3051 53.9057L32.2441 44.078C33.5059 43.3516 35.5592 43.3516 36.8424 44.078L53.8884 53.9057Z" fill="#033AA7"/>
</g>
<g opacity="0.6275">
<path d="M53.482 53.863C54.7225 54.5894 54.7438 55.7431 53.5034 56.4694L36.9493 66.0835C35.7089 66.8099 33.6984 66.8099 32.4579 66.0835L15.7756 56.4694C14.5351 55.7431 14.5137 54.5894 15.7542 53.863L32.3082 44.2489C33.5487 43.5225 35.5591 43.5225 36.7996 44.2489L53.482 53.863Z" fill="#033AA7"/>
</g>
<g opacity="0.6471">
<path d="M53.0543 53.8416C54.2734 54.5467 54.2734 55.679 53.0757 56.384L36.8852 65.7844C35.6661 66.4894 33.7199 66.4894 32.5008 65.7844L16.2034 56.384C14.9843 55.679 14.9843 54.5467 16.182 53.8416L32.3724 44.4412C33.5915 43.7362 35.5378 43.7362 36.7569 44.4412L53.0543 53.8416Z" fill="#033AA7"/>
</g>
<g opacity="0.6667">
<path d="M52.6266 53.7989C53.8243 54.4826 53.8243 55.5935 52.648 56.2772L36.8212 65.4639C35.6448 66.1476 33.72 66.1476 32.5223 65.4639L16.5885 56.2772C15.3908 55.5935 15.3908 54.4826 16.5671 53.7989L32.3939 44.6121C33.5702 43.9285 35.4951 43.9285 36.6928 44.6121L52.6266 53.7989Z" fill="#033AA7"/>
</g>
<g opacity="0.6863">
<path d="M52.1989 53.7776C53.3538 54.4399 53.3752 55.5295 52.2203 56.2131L36.7784 65.1862C35.6235 65.8485 33.7413 65.8485 32.5864 65.1862L17.0376 56.2131C15.8827 55.5508 15.8613 54.4612 17.0162 53.7776L32.4581 44.8045C33.613 44.1422 35.4951 44.1422 36.6501 44.8045L52.1989 53.7776Z" fill="#033AA7"/>
</g>
<g opacity="0.7059">
<path d="M51.7925 53.7562C52.9261 54.4185 52.9261 55.4654 51.8139 56.1277L36.7356 64.8871C35.6021 65.5494 33.7842 65.5494 32.6506 64.8871L17.4654 56.1277C16.3319 55.4654 16.3319 54.4185 17.444 53.7562L32.5223 44.9967C33.6558 44.3344 35.4738 44.3344 36.6073 44.9967L51.7925 53.7562Z" fill="#033AA7"/>
</g>
<g opacity="0.7255">
<path d="M51.3647 53.7135C52.4769 54.3544 52.4769 55.3799 51.3861 56.0208L36.6714 64.5667C35.5807 65.2076 33.7841 65.2076 32.672 64.5667L17.8717 56.0208C16.7596 55.3799 16.7596 54.3544 17.8503 53.7135L32.565 45.1676C33.6558 44.5267 35.4524 44.5267 36.5645 45.1676L51.3647 53.7135Z" fill="#033AA7"/>
</g>
<g opacity="0.7451">
<path d="M50.9369 53.6921C52.0063 54.3117 52.0277 55.3158 50.9583 55.9354L36.6286 64.2675C35.5592 64.8871 33.8268 64.8871 32.736 64.2675L18.2994 55.9354C17.23 55.3158 17.2086 54.3117 18.278 53.6921L32.6077 45.3599C33.6771 44.7403 35.4095 44.7403 36.5003 45.3599L50.9369 53.6921Z" fill="#033AA7"/>
</g>
<g opacity="0.7647">
<path d="M50.5087 53.6494C51.5567 54.2476 51.5567 55.2303 50.5301 55.8499L36.564 63.9471C35.516 64.5453 33.8263 64.5453 32.7783 63.9471L18.7267 55.8499C17.6787 55.2517 17.6787 54.2689 18.7053 53.6494L32.6714 45.5522C33.7194 44.954 35.409 44.954 36.457 45.5522L50.5087 53.6494Z" fill="#033AA7"/>
</g>
<g opacity="0.7843">
<path d="M50.1026 53.628C51.1292 54.2262 51.1292 55.1663 50.124 55.7645L36.5215 63.648C35.5163 64.2462 33.848 64.2462 32.8428 63.648L19.1547 55.7645C18.1281 55.1663 18.1281 54.2262 19.1333 53.628L32.7359 45.7445C33.7411 45.1463 35.4093 45.1463 36.4145 45.7445L50.1026 53.628Z" fill="#033AA7"/>
</g>
<g opacity="0.8039">
<path d="M49.6748 53.5853C50.6586 54.1621 50.68 55.0808 49.6962 55.6576L36.4786 63.3275C35.4948 63.9043 33.8907 63.9043 32.8855 63.3275L19.5824 55.6576C18.5986 55.0808 18.5772 54.1621 19.561 53.5853L32.7786 45.9154C33.7624 45.3385 35.3665 45.3385 36.3717 45.9154L49.6748 53.5853Z" fill="#033AA7"/>
</g>
<g opacity="0.8235">
<path d="M49.247 53.5639C50.2094 54.1194 50.2094 55.0167 49.2684 55.5722L36.4144 63.0284C35.4519 63.5839 33.8906 63.5839 32.9282 63.0284L19.9887 55.5722C19.0262 55.0167 19.0262 54.1194 19.9673 53.5639L32.8213 46.1077C33.7837 45.5522 35.345 45.5522 36.3074 46.1077L49.247 53.5639Z" fill="#033AA7"/>
</g>
<g opacity="0.8431">
<path d="M48.8195 53.5425C49.7606 54.0767 49.7606 54.9526 48.8409 55.5081L36.3505 62.7506C35.4095 63.2848 33.9123 63.2848 32.9713 62.7506L20.4167 55.5081C19.4757 54.974 19.4757 54.098 20.3954 53.5425L32.8857 46.3C33.8268 45.7658 35.3239 45.7658 36.265 46.3L48.8195 53.5425Z" fill="#033AA7"/>
</g>
<g opacity="0.8627">
<path d="M48.4132 53.4998C49.3329 54.0339 49.3329 54.8671 48.4346 55.4013L36.3292 62.4302C35.4309 62.9643 33.9552 62.9643 33.0355 62.4302L20.8445 55.4013C19.9249 54.8671 19.9249 54.0339 20.8232 53.4998L32.9286 46.4709C33.8268 45.9368 35.3026 45.9368 36.2223 46.4709L48.4132 53.4998Z" fill="#033AA7"/>
</g>
<g opacity="0.8824">
<path d="M47.9852 53.4784C48.8621 53.9912 48.8621 54.803 47.9852 55.3158L36.2434 62.1311C35.3665 62.6438 33.9336 62.6438 33.0567 62.1311L21.2507 55.3158C20.3738 54.803 20.3738 53.9912 21.2293 53.4784L32.9711 46.6631C33.848 46.1504 35.281 46.1504 36.1579 46.6631L47.9852 53.4784Z" fill="#033AA7"/>
</g>
<g opacity="0.902">
<path d="M47.5574 53.4357C48.4129 53.9271 48.4129 54.7176 47.5574 55.2304L36.1792 61.832C35.3237 62.3234 33.9549 62.3234 33.0994 61.832L21.657 55.2304C20.8015 54.739 20.8015 53.9485 21.657 53.4357L33.0352 46.8341C33.8907 46.3427 35.2595 46.3427 36.115 46.8341L47.5574 53.4357Z" fill="#033AA7"/>
</g>
<g opacity="0.9216">
<path d="M47.1297 53.4144C47.9638 53.8844 47.9638 54.6535 47.1297 55.1449L36.1365 61.5329C35.3238 62.0029 33.9763 62.0029 33.1636 61.5329L22.0848 55.1449C21.2507 54.6749 21.2507 53.9057 22.0848 53.4144L33.0781 47.0264C33.8908 46.5563 35.2382 46.5563 36.0509 47.0264L47.1297 53.4144Z" fill="#033AA7"/>
</g>
<g opacity="0.9412">
<path d="M46.7235 53.393C47.5148 53.863 47.5362 54.6108 46.7235 55.0594L36.0938 61.2338C35.3025 61.7038 34.0192 61.7038 33.2065 61.2338L22.5127 55.0594C21.7213 54.5894 21.7 53.8416 22.5127 53.393L33.1423 47.2186C33.9337 46.7486 35.2169 46.7486 36.0297 47.2186L46.7235 53.393Z" fill="#033AA7"/>
</g>
<g opacity="0.9608">
<path d="M46.2955 53.3503C47.0655 53.7989 47.0655 54.5253 46.2955 54.9526L36.0509 60.9133C35.2809 61.362 34.0404 61.362 33.2705 60.9133L22.9403 54.9526C22.1703 54.504 22.1703 53.7776 22.9403 53.3503L33.1849 47.3896C33.9549 46.9409 35.1954 46.9409 35.9653 47.3896L46.2955 53.3503Z" fill="#033AA7"/>
</g>
<g opacity="0.9804">
<path d="M45.8678 53.3289C46.6164 53.7562 46.6164 54.4612 45.8678 54.8885L35.9868 60.6356C35.2382 61.0629 34.0405 61.0629 33.3133 60.6356L23.3681 54.8885C22.6195 54.4612 22.6195 53.7562 23.3681 53.3289L33.2491 47.5818C33.9763 47.1546 35.1954 47.1546 35.9226 47.5818L45.8678 53.3289Z" fill="#033AA7"/>
</g>
<path d="M45.4405 53.2861C46.1463 53.6921 46.1677 54.3757 45.4405 54.7817L35.923 60.2937C35.2172 60.6997 34.0623 60.6997 33.3351 60.2937L23.7535 54.7817C23.0477 54.3757 23.0263 53.6921 23.7535 53.2861L33.271 47.7741C33.9767 47.3682 35.1317 47.3682 35.8589 47.7741L45.4405 53.2861Z" fill="#033AA7"/>
<path d="M34.3827 32.2635L34.2971 63.7121L61.7374 47.7955L61.823 16.3469L34.3827 32.2635Z" fill="url(#paint0_linear_1234_1362)"/>
<path d="M6.74986 16.3469L6.66431 47.7955L34.2971 63.7121L34.3827 32.2635L6.74986 16.3469Z" fill="url(#paint1_linear_1234_1362)"/>
<path d="M34.2117 0.408905L6.75 16.3469L34.3828 32.2635L61.8231 16.3469L34.2117 0.408905Z" fill="url(#paint2_linear_1234_1362)"/>
<defs>
<linearGradient id="paint0_linear_1234_1362" x1="-36.1098" y1="87.854" x2="43.2786" y2="42.6485" gradientUnits="userSpaceOnUse">
<stop stop-color="#FFE4C0"/>
<stop offset="1" stop-color="#FBB03B"/>
</linearGradient>
<linearGradient id="paint1_linear_1234_1362" x1="-98.2193" y1="23.6603" x2="266.126" y2="73.9943" gradientUnits="userSpaceOnUse">
<stop stop-color="#FFE4C0"/>
<stop offset="1" stop-color="#FBB03B"/>
</linearGradient>
<linearGradient id="paint2_linear_1234_1362" x1="38.2655" y1="37.5095" x2="22.9942" y2="-44.0247" gradientUnits="userSpaceOnUse">
<stop stop-color="white"/>
<stop offset="1" stop-color="#FBB03B"/>
</linearGradient>
</defs>
</svg>
